<svg xmlns="http://www.w3.org/2000/svg" xmlns:xlink="http://www.w3.org/1999/xlink" contentStyleType="text/css" height="751px" preserveAspectRatio="none" style="width:1324px;height:751px;background:#FFFFFF;" version="1.1" viewBox="0 0 1324 751" width="1324px" zoomAndPan="magnify"><defs/><g><text fill="#000000" font-family="Verdana" font-size="22" font-weight="bold" lengthAdjust="spacing" textLength="733" x="294" y="37.1182">Probation Classification By Sport - Database Flow Diagram</text><ellipse cx="561" cy="62.7373" fill="#FFFFFF" rx="10" ry="10" style="stroke:#000000;stroke-width:1.0;"/><rect fill="#FFFFFF" height="34.584" rx="12.5" ry="12.5" style="stroke:#000000;stroke-width:1.0;" width="105" x="508.5" y="92.7373"/><text fill="#000000" font-family="Verdana" font-size="12" lengthAdjust="spacing" textLength="85" x="518.5" y="114.8018">Job Triggered</text><path d="M713,137.3213 L713,225.2175 L693,229.2175 L713,233.2175 L713,321.1138 A0,0 0 0 0 713,321.1138 L1231,321.1138 A0,0 0 0 0 1231,321.1138 L1231,147.3213 L1221,137.3213 L713,137.3213 A0,0 0 0 0 713,137.3213 " fill="#FFFFFF" style="stroke:#000000;stroke-width:1.0;"/><path d="M1221,137.3213 L1221,147.3213 L1231,147.3213 L1221,137.3213 " fill="#FFFFFF" style="stroke:#000000;stroke-width:1.0;"/><text fill="#000000" font-family="Verdana" font-size="13" lengthAdjust="spacing" textLength="245" x="719" y="155.3911">Database: CTS_DataCenter (MySQL)</text><text fill="#000000" font-family="Verdana" font-size="13" lengthAdjust="spacing" textLength="497" x="719" y="171.1904">Stored Procedure: CTS_DC_CustClassification_BySport_ProbationScan_Get</text><text fill="#000000" font-family="Verdana" font-size="13" lengthAdjust="spacing" textLength="41" x="719" y="186.9897">Input:</text><text fill="#000000" font-family="Verdana" font-size="13" lengthAdjust="spacing" textLength="303" x="719" y="202.7891">- SystemParameter (ParameterID = 168, 169)</text><text fill="#000000" font-family="Verdana" font-size="13" lengthAdjust="spacing" textLength="49" x="719" y="218.5884">Tables:</text><text fill="#000000" font-family="Verdana" font-size="13" lengthAdjust="spacing" textLength="247" x="719" y="234.3877">- CTSCustomerClassification_BySport</text><text fill="#000000" font-family="Verdana" font-size="13" lengthAdjust="spacing" textLength="134" x="719" y="250.187">- CustomerCategory</text><text fill="#000000" font-family="Verdana" font-size="13" lengthAdjust="spacing" textLength="286" x="719" y="265.9863">- CTSCustomerAssociationStatus (Archive)</text><text fill="#000000" font-family="Verdana" font-size="13" lengthAdjust="spacing" textLength="52" x="719" y="281.7856">Output:</text><text fill="#000000" font-family="Verdana" font-size="13" lengthAdjust="spacing" textLength="256" x="719" y="297.585">- CustProbations (CustID, SportGroup)</text><text fill="#000000" font-family="Verdana" font-size="13" lengthAdjust="spacing" textLength="84" x="719" y="313.3843">- LastCustID</text><rect fill="#FFFFFF" height="34.584" rx="12.5" ry="12.5" style="stroke:#000000;stroke-width:1.0;" width="264" x="429" y="211.9255"/><text fill="#000000" font-family="Verdana" font-size="12" lengthAdjust="spacing" textLength="244" x="439" y="233.99">GetProbationScanClassificationBySport</text><polygon fill="#FFFFFF" points="514.5,341.1138,607.5,341.1138,619.5,353.1138,607.5,365.1138,514.5,365.1138,502.5,353.1138,514.5,341.1138" style="stroke:#000000;stroke-width:1.0;"/><text fill="#000000" font-family="Verdana" font-size="11" lengthAdjust="spacing" textLength="93" x="514.5" y="357.4885">Has Customers?</text><text fill="#000000" font-family="Verdana" font-size="11" lengthAdjust="spacing" textLength="20" x="482.5" y="350.8042">yes</text><text fill="#000000" font-family="Verdana" font-size="11" lengthAdjust="spacing" textLength="14" x="619.5" y="350.8042">no</text><path d="M308,375.1138 L308,478.8093 L288,482.8093 L308,486.8093 L308,590.5049 A0,0 0 0 0 308,590.5049 L822,590.5049 A0,0 0 0 0 822,590.5049 L822,385.1138 L812,375.1138 L308,375.1138 A0,0 0 0 0 308,375.1138 " fill="#FFFFFF" style="stroke:#000000;stroke-width:1.0;"/><path d="M812,375.1138 L812,385.1138 L822,385.1138 L812,375.1138 " fill="#FFFFFF" style="stroke:#000000;stroke-width:1.0;"/><text fill="#000000" font-family="Verdana" font-size="13" lengthAdjust="spacing" textLength="267" x="314" y="393.1836">Database: bodb_VR2Model (SQL Server)</text><text fill="#000000" font-family="Verdana" font-size="13" lengthAdjust="spacing" textLength="493" x="314" y="408.9829">Stored Procedure: CTS_BySportNormalClassification_Probation_Preprocess</text><text fill="#000000" font-family="Verdana" font-size="13" lengthAdjust="spacing" textLength="41" x="314" y="424.7822">Input:</text><text fill="#000000" font-family="Verdana" font-size="13" lengthAdjust="spacing" textLength="108" x="314" y="440.5815">- CustomersXML</text><text fill="#000000" font-family="Verdana" font-size="13" lengthAdjust="spacing" textLength="49" x="314" y="456.3809">Tables:</text><text fill="#000000" font-family="Verdana" font-size="13" lengthAdjust="spacing" textLength="132" x="314" y="472.1802">- custInfo (bodb02)</text><text fill="#000000" font-family="Verdana" font-size="13" lengthAdjust="spacing" textLength="337" x="314" y="487.9795">- CustomerClassification_BySport_LatestActiveDay</text><text fill="#000000" font-family="Verdana" font-size="13" lengthAdjust="spacing" textLength="274" x="314" y="503.7788">- CustomerClassification_BySport_Priority</text><text fill="#000000" font-family="Verdana" font-size="13" lengthAdjust="spacing" textLength="247" x="314" y="519.5781">- Normal Pool (via NormalPool_Insert)</text><text fill="#000000" font-family="Verdana" font-size="13" lengthAdjust="spacing" textLength="40" x="314" y="535.3774">Logic:</text><text fill="#000000" font-family="Verdana" font-size="13" lengthAdjust="spacing" textLength="169" x="314" y="551.1768">- Filter disabled accounts</text><text fill="#000000" font-family="Verdana" font-size="13" lengthAdjust="spacing" textLength="175" x="314" y="566.9761">- Filter inactive customers</text><text fill="#000000" font-family="Verdana" font-size="13" lengthAdjust="spacing" textLength="162" x="314" y="582.7754">- Insert into Normal Pool</text><rect fill="#FFFFFF" height="34.584" rx="12.5" ry="12.5" style="stroke:#000000;stroke-width:1.0;" width="282" x="6" y="465.5173"/><text fill="#000000" font-family="Verdana" font-size="12" lengthAdjust="spacing" textLength="262" x="16" y="487.5818">PreprocessProbationClassificationBySport</text><path d="M300,600.5049 L300,633.1035 L280,637.1035 L300,641.1035 L300,673.7021 A0,0 0 0 0 300,673.7021 L566,673.7021 A0,0 0 0 0 566,673.7021 L566,610.5049 L556,600.5049 L300,600.5049 A0,0 0 0 0 300,600.5049 " fill="#FFFFFF" style="stroke:#000000;stroke-width:1.0;"/><path d="M556,600.5049 L556,610.5049 L566,610.5049 L556,600.5049 " fill="#FFFFFF" style="stroke:#000000;stroke-width:1.0;"/><text fill="#000000" font-family="Verdana" font-size="13" lengthAdjust="spacing" textLength="245" x="306" y="618.5747">Database: CTS_DataCenter (MySQL)</text><text fill="#000000" font-family="Verdana" font-size="13" lengthAdjust="spacing" textLength="163" x="306" y="634.374">Table: SystemParameter</text><text fill="#000000" font-family="Verdana" font-size="13" lengthAdjust="spacing" textLength="60" x="306" y="650.1733">Updates:</text><text fill="#000000" font-family="Verdana" font-size="13" lengthAdjust="spacing" textLength="219" x="306" y="665.9727">- ParameterID = 169: LastCustID</text><rect fill="#FFFFFF" height="34.584" rx="12.5" ry="12.5" style="stroke:#000000;stroke-width:1.0;" width="266" x="14" y="619.8115"/><text fill="#000000" font-family="Verdana" font-size="12" lengthAdjust="spacing" textLength="246" x="24" y="641.876">UpdateCompleteProbationScanBySport</text><path d="M1128,375.1138 L1128,391.9131 L1108,395.9131 L1128,399.9131 L1128,416.7124 A0,0 0 0 0 1128,416.7124 L1317,416.7124 A0,0 0 0 0 1317,416.7124 L1317,385.1138 L1307,375.1138 L1128,375.1138 A0,0 0 0 0 1128,375.1138 " fill="#FFFFFF" style="stroke:#000000;stroke-width:1.0;"/><path d="M1307,375.1138 L1307,385.1138 L1317,385.1138 L1307,375.1138 " fill="#FFFFFF" style="stroke:#000000;stroke-width:1.0;"/><text fill="#000000" font-family="Verdana" font-size="13" lengthAdjust="spacing" textLength="168" x="1134" y="393.1836">Update SystemParameter</text><text fill="#000000" font-family="Verdana" font-size="13" lengthAdjust="spacing" textLength="106" x="1134" y="408.9829">Stop processing</text><rect fill="#FFFFFF" height="34.584" rx="12.5" ry="12.5" style="stroke:#000000;stroke-width:1.0;" width="266" x="842" y="378.6211"/><text fill="#000000" font-family="Verdana" font-size="12" lengthAdjust="spacing" textLength="246" x="852" y="400.6855">UpdateCompleteProbationScanBySport</text><polygon fill="#FFFFFF" points="561,679.7021,573,691.7021,561,703.7021,549,691.7021,561,679.7021" style="stroke:#000000;stroke-width:1.0;"/><ellipse cx="561" cy="734.7021" fill="none" rx="11" ry="11" style="stroke:#000000;stroke-width:1.0;"/><ellipse cx="561" cy="734.7021" fill="#FFFFFF" rx="6" ry="6" style="stroke:#000000;stroke-width:1.0;"/><line style="stroke:#000000;stroke-width:1.0;" x1="561" x2="561" y1="72.7373" y2="92.7373"/><polygon fill="#000000" points="557,82.7373,561,92.7373,565,82.7373,561,86.7373" style="stroke:#000000;stroke-width:1.0;"/><line style="stroke:#000000;stroke-width:1.0;" x1="561" x2="561" y1="127.3213" y2="211.9255"/><polygon fill="#000000" points="557,201.9255,561,211.9255,565,201.9255,561,205.9255" style="stroke:#000000;stroke-width:1.0;"/><line style="stroke:#000000;stroke-width:1.0;" x1="147" x2="147" y1="500.1013" y2="619.8115"/><polygon fill="#000000" points="143,609.8115,147,619.8115,151,609.8115,147,613.8115" style="stroke:#000000;stroke-width:1.0;"/><line style="stroke:#000000;stroke-width:1.0;" x1="502.5" x2="147" y1="353.1138" y2="353.1138"/><line style="stroke:#000000;stroke-width:1.0;" x1="147" x2="147" y1="353.1138" y2="465.5173"/><polygon fill="#000000" points="143,455.5173,147,465.5173,151,455.5173,147,459.5173" style="stroke:#000000;stroke-width:1.0;"/><line style="stroke:#000000;stroke-width:1.0;" x1="619.5" x2="975" y1="353.1138" y2="353.1138"/><line style="stroke:#000000;stroke-width:1.0;" x1="975" x2="975" y1="353.1138" y2="378.6211"/><polygon fill="#000000" points="971,368.6211,975,378.6211,979,368.6211,975,372.6211" style="stroke:#000000;stroke-width:1.0;"/><line style="stroke:#000000;stroke-width:1.0;" x1="147" x2="147" y1="654.3955" y2="691.7021"/><line style="stroke:#000000;stroke-width:1.0;" x1="147" x2="549" y1="691.7021" y2="691.7021"/><polygon fill="#000000" points="539,687.7021,549,691.7021,539,695.7021,543,691.7021" style="stroke:#000000;stroke-width:1.0;"/><line style="stroke:#000000;stroke-width:1.0;" x1="975" x2="975" y1="413.2051" y2="691.7021"/><line style="stroke:#000000;stroke-width:1.0;" x1="975" x2="573" y1="691.7021" y2="691.7021"/><polygon fill="#000000" points="583,687.7021,573,691.7021,583,695.7021,579,691.7021" style="stroke:#000000;stroke-width:1.0;"/><line style="stroke:#000000;stroke-width:1.0;" x1="561" x2="561" y1="246.5095" y2="341.1138"/><polygon fill="#000000" points="557,331.1138,561,341.1138,565,331.1138,561,335.1138" style="stroke:#000000;stroke-width:1.0;"/><line style="stroke:#000000;stroke-width:1.0;" x1="561" x2="561" y1="703.7021" y2="723.7021"/><polygon fill="#000000" points="557,713.7021,561,723.7021,565,713.7021,561,717.7021" style="stroke:#000000;stroke-width:1.0;"/><!--SRC=[fLHHRvim47xthxYzWTHAMn-cbMgQKg9scP8j6zcqDsJWGYmH6zb79lxzR9ouaAPJfV60C7ntttVttV66ThX7Q1ik92D13S9QguAJK1BIXXiZjgBqn_iUibPfWckOS-85DmWFZVe3Sy5hpVUC6UAQMF955R3HegvHOtN7MFA85B9c9PVJnFVzaFQEIKK8Dcv73Enr8aaWtMIvEwKe2JL4gpxxlem7K4RAaZZH9LQTFe7JFEqCJNdo8r4-qP9RSKEcXMmxIeR7QyXwGxXVSriM3fJXSJ67Z_3k_OShUxlr6ZQyQD2SGYs_urPxr9VvJxWJY1FMIlVFmsV6g59ufSIfCn3DTBaJ1_IytpeQINPHeJ8BTUV5_CfxzgXLryP7v9BRrWnV6SeANDiP4rk8FdCJP9bFCTZXa13rQ7naijROkaOR4uXUiDB1p-oSMbgegiX__RXPgGeRYAoVaA4-e8u3-BArHuglIkzvSzRWe2f_KXhIZVoT6c1-hvRXzTXB3ojTf-HMGUGqlxs9BwHuOT2Mrbf3ivAiPNFUlpvmhONIWiOHlc1OAsNRTH3y-CATyuKqgEb9s5BLeXpNy20QDyMLCAwy2dXPgawIUGuHaWzoXxA7xemmdiTYI8tr38WmIUxWn-LdMza6f6hVDdPp9blt-a7vn-u7lvBpVGsVlOI9d-URV9kC5s9I2ZRs5nT95VztFJxqHPbsr5iu3goGzPaAMOcj-xcgblq5]--></g></svg>