<svg xmlns="http://www.w3.org/2000/svg" xmlns:xlink="http://www.w3.org/1999/xlink" contentStyleType="text/css" height="1169px" preserveAspectRatio="none" style="width:1308px;height:1169px;background:#FFFFFF;" version="1.1" viewBox="0 0 1308 1169" width="1308px" zoomAndPan="magnify"><defs/><g><text fill="#000000" font-family="Verdana" font-size="22" font-weight="bold" lengthAdjust="spacing" textLength="683" x="311" y="37.1182">Probation Classification By Sport - Main Business Flow</text><ellipse cx="539" cy="62.7373" fill="#FFFFFF" rx="10" ry="10" style="stroke:#000000;stroke-width:1.0;"/><path d="M652.5,89.23 L652.5,106.0293 L632.5,110.0293 L652.5,114.0293 L652.5,130.8286 A0,0 0 0 0 652.5,130.8286 L1177.5,130.8286 A0,0 0 0 0 1177.5,130.8286 L1177.5,99.23 L1167.5,89.23 L652.5,89.23 A0,0 0 0 0 652.5,89.23 " fill="#FFFFFF" style="stroke:#000000;stroke-width:1.0;"/><path d="M1167.5,89.23 L1167.5,99.23 L1177.5,99.23 L1167.5,89.23 " fill="#FFFFFF" style="stroke:#000000;stroke-width:1.0;"/><text fill="#000000" font-family="Verdana" font-size="13" lengthAdjust="spacing" textLength="504" x="658.5" y="107.2998">Endpoint: /api/classificationBySportJobs/ScanProbationClassificationBySport</text><text fill="#000000" font-family="Verdana" font-size="13" lengthAdjust="spacing" textLength="154" x="658.5" y="123.0991">No parameters required</text><rect fill="#FFFFFF" height="34.584" rx="12.5" ry="12.5" style="stroke:#000000;stroke-width:1.0;" width="187" x="445.5" y="92.7373"/><text fill="#000000" font-family="Verdana" font-size="12" lengthAdjust="spacing" textLength="167" x="455.5" y="114.8018">Job Triggered (HTTP POST)</text><rect fill="#FFFFFF" height="34.584" rx="12.5" ry="12.5" style="stroke:#000000;stroke-width:1.0;" width="342" x="368" y="150.8286"/><text fill="#000000" font-family="Verdana" font-size="12" lengthAdjust="spacing" textLength="322" x="378" y="172.8931">ProbationClassificationBySportJobService.Execute()</text><rect fill="#FFFFFF" height="34.584" rx="12.5" ry="12.5" style="stroke:#000000;stroke-width:1.0;" width="75" x="501.5" y="259.9966"/><text fill="#000000" font-family="Verdana" font-size="12" lengthAdjust="spacing" textLength="55" x="511.5" y="282.061">JobRun()</text><path d="M589.5,311.0732 L589.5,327.8726 L569.5,331.8726 L589.5,335.8726 L589.5,352.6719 A0,0 0 0 0 589.5,352.6719 L918.5,352.6719 A0,0 0 0 0 918.5,352.6719 L918.5,321.0732 L908.5,311.0732 L589.5,311.0732 A0,0 0 0 0 589.5,311.0732 " fill="#FFFFFF" style="stroke:#000000;stroke-width:1.0;"/><path d="M908.5,311.0732 L908.5,321.0732 L918.5,321.0732 L908.5,311.0732 " fill="#FFFFFF" style="stroke:#000000;stroke-width:1.0;"/><text fill="#000000" font-family="Verdana" font-size="13" lengthAdjust="spacing" textLength="211" x="595.5" y="329.1431">Initialize ProbationBySportModel</text><text fill="#000000" font-family="Verdana" font-size="13" lengthAdjust="spacing" textLength="308" x="595.5" y="344.9424">probationData = new ProbationBySportModel()</text><rect fill="#FFFFFF" height="34.584" rx="12.5" ry="12.5" style="stroke:#000000;stroke-width:1.0;" width="61" x="508.5" y="314.5806"/><text fill="#000000" font-family="Verdana" font-size="12" lengthAdjust="spacing" textLength="41" x="518.5" y="336.645">Start()</text><path d="M696,362.6719 L696,521.665 L676,525.665 L696,529.665 L696,688.6582 A0,0 0 0 0 696,688.6582 L1150,688.6582 A0,0 0 0 0 1150,688.6582 L1150,372.6719 L1140,362.6719 L696,362.6719 A0,0 0 0 0 696,362.6719 " fill="#FFFFFF" style="stroke:#000000;stroke-width:1.0;"/><path d="M1140,362.6719 L1140,372.6719 L1150,372.6719 L1140,362.6719 " fill="#FFFFFF" style="stroke:#000000;stroke-width:1.0;"/><text fill="#000000" font-family="Verdana" font-size="13" lengthAdjust="spacing" textLength="433" x="702" y="380.7417">Call CTS_DC_CustClassification_BySport_ProbationScan_Get [SP]</text><text fill="#000000" font-family="Verdana" font-size="13" lengthAdjust="spacing" textLength="245" x="702" y="396.541">Database: CTS_DataCenter (MySQL)</text><text fill="#000000" font-family="Verdana" font-size="13" lengthAdjust="spacing" textLength="80" x="702" y="412.3403">Parameters:</text><text fill="#000000" font-family="Verdana" font-size="13" lengthAdjust="spacing" textLength="192" x="702" y="428.1396">- @op_LastCustID (OUTPUT)</text><text fill="#000000" font-family="Verdana" font-size="13" lengthAdjust="spacing" textLength="40" x="702" y="443.939">Logic:</text><text fill="#000000" font-family="Verdana" font-size="13" lengthAdjust="spacing" textLength="401" x="702" y="459.7383">- Get BatchSize from SystemParameter (ParameterID = 168)</text><text fill="#000000" font-family="Verdana" font-size="13" lengthAdjust="spacing" textLength="408" x="702" y="475.5376">- Get LastCustID from SystemParameter (ParameterID = 169)</text><text fill="#000000" font-family="Verdana" font-size="13" lengthAdjust="spacing" textLength="218" x="702" y="491.3369">- Find probation customers with:</text><text fill="#000000" font-family="Verdana" font-size="13" lengthAdjust="spacing" textLength="149" x="712" y="507.1362">* CustID &gt; LastCustID</text><text fill="#000000" font-family="Verdana" font-size="13" lengthAdjust="spacing" textLength="294" x="712" y="522.9355">* CategoryID = CONST_CATEID_PROBATION</text><text fill="#000000" font-family="Verdana" font-size="13" lengthAdjust="spacing" textLength="308" x="712" y="538.7349">* LastScannedDate IS NULL OR &lt; CurrentDate</text><text fill="#000000" font-family="Verdana" font-size="13" lengthAdjust="spacing" textLength="344" x="712" y="554.5342">* CreatedDate &lt; ToLastDay (CurrentDate - 2 days)</text><text fill="#000000" font-family="Verdana" font-size="13" lengthAdjust="spacing" textLength="157" x="712" y="570.3335">* Active within 30 days</text><text fill="#000000" font-family="Verdana" font-size="13" lengthAdjust="spacing" textLength="150" x="702" y="586.1328">- Order by CustID ASC</text><text fill="#000000" font-family="Verdana" font-size="13" lengthAdjust="spacing" textLength="133" x="702" y="601.9321">- Limit by BatchSize</text><text fill="#000000" font-family="Verdana" font-size="13" lengthAdjust="spacing" textLength="194" x="702" y="617.7314">- Return: CustID, SportGroup</text><text fill="#000000" font-family="Verdana" font-size="13" lengthAdjust="spacing" textLength="141" x="702" y="633.5308">- Output: LastCustID</text><text fill="#000000" font-family="Verdana" font-size="13" lengthAdjust="spacing" textLength="56" x="702" y="649.3301">Returns:</text><text fill="#000000" font-family="Verdana" font-size="13" lengthAdjust="spacing" textLength="256" x="702" y="665.1294">- CustProbations (CustID, SportGroup)</text><text fill="#000000" font-family="Verdana" font-size="13" lengthAdjust="spacing" textLength="84" x="702" y="680.9287">- LastCustID</text><rect fill="#FFFFFF" height="34.584" rx="12.5" ry="12.5" style="stroke:#000000;stroke-width:1.0;" width="274" x="402" y="508.373"/><text fill="#000000" font-family="Verdana" font-size="12" lengthAdjust="spacing" textLength="254" x="412" y="530.4375">GetProbationScanClassificationBySport()</text><polygon fill="#FFFFFF" points="492.5,708.6582,585.5,708.6582,597.5,720.6582,585.5,732.6582,492.5,732.6582,480.5,720.6582,492.5,708.6582" style="stroke:#000000;stroke-width:1.0;"/><text fill="#000000" font-family="Verdana" font-size="11" lengthAdjust="spacing" textLength="93" x="492.5" y="725.033">Has Customers?</text><text fill="#000000" font-family="Verdana" font-size="11" lengthAdjust="spacing" textLength="20" x="460.5" y="718.3486">yes</text><text fill="#000000" font-family="Verdana" font-size="11" lengthAdjust="spacing" textLength="14" x="597.5" y="718.3486">no</text><path d="M318,742.6582 L318,838.4541 L298,842.4541 L318,846.4541 L318,942.25 A0,0 0 0 0 318,942.25 L768,942.25 A0,0 0 0 0 768,942.25 L768,752.6582 L758,742.6582 L318,742.6582 A0,0 0 0 0 318,742.6582 " fill="#FFFFFF" style="stroke:#000000;stroke-width:1.0;"/><path d="M758,742.6582 L758,752.6582 L768,752.6582 L758,742.6582 " fill="#FFFFFF" style="stroke:#000000;stroke-width:1.0;"/><text fill="#000000" font-family="Verdana" font-size="13" lengthAdjust="spacing" textLength="176" x="324" y="760.728">Convert customers to XML</text><text fill="#000000" font-family="Verdana" font-size="13" lengthAdjust="spacing" textLength="429" x="324" y="776.5273">Call CTS_BySportNormalClassification_Probation_Preprocess [SP]</text><text fill="#000000" font-family="Verdana" font-size="13" lengthAdjust="spacing" textLength="267" x="324" y="792.3267">Database: bodb_VR2Model (SQL Server)</text><text fill="#000000" font-family="Verdana" font-size="13" lengthAdjust="spacing" textLength="80" x="324" y="808.126">Parameters:</text><text fill="#000000" font-family="Verdana" font-size="13" lengthAdjust="spacing" textLength="165" x="324" y="823.9253">- @CustomersXML (XML)</text><text fill="#000000" font-family="Verdana" font-size="13" lengthAdjust="spacing" textLength="40" x="324" y="839.7246">Logic:</text><text fill="#000000" font-family="Verdana" font-size="13" lengthAdjust="spacing" textLength="170" x="324" y="855.5239">- Parse XML customer list</text><text fill="#000000" font-family="Verdana" font-size="13" lengthAdjust="spacing" textLength="187" x="324" y="871.3232">- Remove disabled accounts</text><text fill="#000000" font-family="Verdana" font-size="13" lengthAdjust="spacing" textLength="379" x="324" y="887.1226">- Remove inactive customers (no transaction in 30 days)</text><text fill="#000000" font-family="Verdana" font-size="13" lengthAdjust="spacing" textLength="209" x="324" y="902.9219">- Get Priority from Priority table</text><text fill="#000000" font-family="Verdana" font-size="13" lengthAdjust="spacing" textLength="158" x="324" y="918.7212">- Call NormalPool_Insert</text><text fill="#000000" font-family="Verdana" font-size="13" lengthAdjust="spacing" textLength="275" x="324" y="934.5205">- Insert into Normal Pool for classification</text><rect fill="#FFFFFF" height="34.584" rx="12.5" ry="12.5" style="stroke:#000000;stroke-width:1.0;" width="292" x="6" y="825.1621"/><text fill="#000000" font-family="Verdana" font-size="12" lengthAdjust="spacing" textLength="272" x="16" y="847.2266">PreprocessProbationClassificationBySport()</text><path d="M310,952.25 L310,984.8486 L290,988.8486 L310,992.8486 L310,1025.4473 A0,0 0 0 0 310,1025.4473 L717,1025.4473 A0,0 0 0 0 717,1025.4473 L717,962.25 L707,952.25 L310,952.25 A0,0 0 0 0 310,952.25 " fill="#FFFFFF" style="stroke:#000000;stroke-width:1.0;"/><path d="M707,952.25 L707,962.25 L717,962.25 L707,952.25 " fill="#FFFFFF" style="stroke:#000000;stroke-width:1.0;"/><text fill="#000000" font-family="Verdana" font-size="13" lengthAdjust="spacing" textLength="174" x="316" y="970.3198">Update SystemParameter:</text><text fill="#000000" font-family="Verdana" font-size="13" lengthAdjust="spacing" textLength="386" x="316" y="986.1191">- ParameterID = 169 (DailyProbation_BySport_LastCustID)</text><text fill="#000000" font-family="Verdana" font-size="13" lengthAdjust="spacing" textLength="127" x="326" y="1001.9185">Value = LastCustID</text><text fill="#000000" font-family="Verdana" font-size="13" lengthAdjust="spacing" textLength="187" x="316" y="1017.7178">Return: true (continue loop)</text><rect fill="#FFFFFF" height="34.584" rx="12.5" ry="12.5" style="stroke:#000000;stroke-width:1.0;" width="276" x="14" y="971.5566"/><text fill="#000000" font-family="Verdana" font-size="12" lengthAdjust="spacing" textLength="256" x="24" y="993.6211">UpdateCompleteProbationScanBySport()</text><path d="M1084,742.6582 L1084,759.4575 L1064,763.4575 L1084,767.4575 L1084,784.2568 A0,0 0 0 0 1084,784.2568 L1273,784.2568 A0,0 0 0 0 1273,784.2568 L1273,752.6582 L1263,742.6582 L1084,742.6582 A0,0 0 0 0 1084,742.6582 " fill="#FFFFFF" style="stroke:#000000;stroke-width:1.0;"/><path d="M1263,742.6582 L1263,752.6582 L1273,752.6582 L1263,742.6582 " fill="#FFFFFF" style="stroke:#000000;stroke-width:1.0;"/><text fill="#000000" font-family="Verdana" font-size="13" lengthAdjust="spacing" textLength="168" x="1090" y="760.728">Update SystemParameter</text><text fill="#000000" font-family="Verdana" font-size="13" lengthAdjust="spacing" textLength="163" x="1090" y="776.5273">Return: false (stop loop)</text><rect fill="#FFFFFF" height="34.584" rx="12.5" ry="12.5" style="stroke:#000000;stroke-width:1.0;" width="276" x="788" y="746.1655"/><text fill="#000000" font-family="Verdana" font-size="12" lengthAdjust="spacing" textLength="256" x="798" y="768.23">UpdateCompleteProbationScanBySport()</text><polygon fill="#FFFFFF" points="539,1031.4473,551,1043.4473,539,1055.4473,527,1043.4473,539,1031.4473" style="stroke:#000000;stroke-width:1.0;"/><rect fill="#FFFFFF" height="34.584" rx="12.5" ry="12.5" style="stroke:#000000;stroke-width:1.0;" width="112" x="483" y="205.4126"/><text fill="#000000" font-family="Verdana" font-size="12" lengthAdjust="spacing" textLength="92" x="493" y="227.4771">Do-While Loop</text><polygon fill="#FFFFFF" points="476.5,1075.4473,601.5,1075.4473,613.5,1087.4473,601.5,1099.4473,476.5,1099.4473,464.5,1087.4473,476.5,1075.4473" style="stroke:#000000;stroke-width:1.0;"/><text fill="#000000" font-family="Verdana" font-size="11" lengthAdjust="spacing" textLength="125" x="476.5" y="1091.822">Has More Customers?</text><text fill="#000000" font-family="Verdana" font-size="11" lengthAdjust="spacing" textLength="20" x="613.5" y="1085.1377">yes</text><ellipse cx="539" cy="1152.1255" fill="none" rx="11" ry="11" style="stroke:#000000;stroke-width:1.0;"/><ellipse cx="539" cy="1152.1255" fill="#FFFFFF" rx="6" ry="6" style="stroke:#000000;stroke-width:1.0;"/><line style="stroke:#000000;stroke-width:1.0;" x1="539" x2="539" y1="72.7373" y2="92.7373"/><polygon fill="#000000" points="535,82.7373,539,92.7373,543,82.7373,539,86.7373" style="stroke:#000000;stroke-width:1.0;"/><line style="stroke:#000000;stroke-width:1.0;" x1="539" x2="539" y1="127.3213" y2="150.8286"/><polygon fill="#000000" points="535,140.8286,539,150.8286,543,140.8286,539,144.8286" style="stroke:#000000;stroke-width:1.0;"/><line style="stroke:#000000;stroke-width:1.0;" x1="539" x2="539" y1="294.5806" y2="314.5806"/><polygon fill="#000000" points="535,304.5806,539,314.5806,543,304.5806,539,308.5806" style="stroke:#000000;stroke-width:1.0;"/><line style="stroke:#000000;stroke-width:1.0;" x1="539" x2="539" y1="349.1646" y2="508.373"/><polygon fill="#000000" points="535,498.373,539,508.373,543,498.373,539,502.373" style="stroke:#000000;stroke-width:1.0;"/><line style="stroke:#000000;stroke-width:1.0;" x1="152" x2="152" y1="859.7461" y2="971.5566"/><polygon fill="#000000" points="148,961.5566,152,971.5566,156,961.5566,152,965.5566" style="stroke:#000000;stroke-width:1.0;"/><line style="stroke:#000000;stroke-width:1.0;" x1="480.5" x2="152" y1="720.6582" y2="720.6582"/><line style="stroke:#000000;stroke-width:1.0;" x1="152" x2="152" y1="720.6582" y2="825.1621"/><polygon fill="#000000" points="148,815.1621,152,825.1621,156,815.1621,152,819.1621" style="stroke:#000000;stroke-width:1.0;"/><line style="stroke:#000000;stroke-width:1.0;" x1="597.5" x2="926" y1="720.6582" y2="720.6582"/><line style="stroke:#000000;stroke-width:1.0;" x1="926" x2="926" y1="720.6582" y2="746.1655"/><polygon fill="#000000" points="922,736.1655,926,746.1655,930,736.1655,926,740.1655" style="stroke:#000000;stroke-width:1.0;"/><line style="stroke:#000000;stroke-width:1.0;" x1="152" x2="152" y1="1006.1406" y2="1043.4473"/><line style="stroke:#000000;stroke-width:1.0;" x1="152" x2="527" y1="1043.4473" y2="1043.4473"/><polygon fill="#000000" points="517,1039.4473,527,1043.4473,517,1047.4473,521,1043.4473" style="stroke:#000000;stroke-width:1.0;"/><line style="stroke:#000000;stroke-width:1.0;" x1="926" x2="926" y1="780.7495" y2="1043.4473"/><line style="stroke:#000000;stroke-width:1.0;" x1="926" x2="551" y1="1043.4473" y2="1043.4473"/><polygon fill="#000000" points="561,1039.4473,551,1043.4473,561,1047.4473,557,1043.4473" style="stroke:#000000;stroke-width:1.0;"/><line style="stroke:#000000;stroke-width:1.0;" x1="539" x2="539" y1="542.957" y2="708.6582"/><polygon fill="#000000" points="535,698.6582,539,708.6582,543,698.6582,539,702.6582" style="stroke:#000000;stroke-width:1.0;"/><line style="stroke:#000000;stroke-width:1.0;" x1="539" x2="539" y1="239.9966" y2="259.9966"/><polygon fill="#000000" points="535,249.9966,539,259.9966,543,249.9966,539,253.9966" style="stroke:#000000;stroke-width:1.0;"/><line style="stroke:#000000;stroke-width:1.0;" x1="613.5" x2="1287" y1="1087.4473" y2="1087.4473"/><polygon fill="#000000" points="1283,663.3223,1287,653.3223,1291,663.3223,1287,659.3223" style="stroke:#000000;stroke-width:1.0;"/><line style="stroke:#000000;stroke-width:1.0;" x1="1287" x2="1287" y1="222.7046" y2="1087.4473"/><line style="stroke:#000000;stroke-width:1.0;" x1="1287" x2="595" y1="222.7046" y2="222.7046"/><polygon fill="#000000" points="605,218.7046,595,222.7046,605,226.7046,601,222.7046" style="stroke:#000000;stroke-width:1.0;"/><line style="stroke:#000000;stroke-width:1.0;" x1="539" x2="539" y1="1055.4473" y2="1075.4473"/><polygon fill="#000000" points="535,1065.4473,539,1075.4473,543,1065.4473,539,1069.4473" style="stroke:#000000;stroke-width:1.0;"/><line style="stroke:#000000;stroke-width:1.0;" x1="539" x2="539" y1="185.4126" y2="205.4126"/><polygon fill="#000000" points="535,195.4126,539,205.4126,543,195.4126,539,199.4126" style="stroke:#000000;stroke-width:1.0;"/><line style="stroke:#000000;stroke-width:1.0;" x1="539" x2="539" y1="1099.4473" y2="1141.1255"/><polygon fill="#000000" points="535,1131.1255,539,1141.1255,543,1131.1255,539,1135.1255" style="stroke:#000000;stroke-width:1.0;"/><text fill="#000000" font-family="Verdana" font-size="11" lengthAdjust="spacing" textLength="14" x="543" y="1121.3159">no</text><!--SRC=[lLPTZ-iq47tFhnZU4iIoS94Gz7x0DjrxAUeNJVQ2X53a9jEjfTGEjhDB-FMCazQ9GrZT9_9GDV7CcPapCoVvp9pmZ52LZ8l0S5CYx9GyCCEbWBXaMlCZpxlRUGD99PM16rYJESnhpGLg3UzB-Hm4sZ1bWjdFyW2fue-FgB20yASqtS5kcwJHwq18Wq179nC0NVUYg2GNPWQthEAtkHTjthIn24tV9ZaJBgjuogp5sqYec69dDAWqAFopvfH2WA806pa8PY-3KAm4rHFFySlxlp2l3OQKTA2mGcPWjf0tlvuu4RIIice3sbhtjR1MzhPxbbWQhez65TjhARZXhEH_3vY-9B2M1PREiBgUBfXXy1O4FazxX57hu-hiS_c0ndbO4YVBVY7Nc9Kbn6cIBU8ihhNn_RCBGER5o2We_9xi_d0eDly3qpZheEWkHa4zWd3T9B-i8cUuSzsRkMStyAEiiXMZu9J0SW7XzY7TFQIzrqe-ydpeO1EOCvEV4aloKSap98qsU7Ru4Bg_XFWMllxsksW4C8ZuQGZV3n7USsg6Qo3a12JFTYgVkJdrkG9y3fSWxmOH_NDcy56gfWqJRpT9ciLtwVroaUtss_bTkjnkF7iBO_iWi22g4PO9R1vMAzZkuGq5KugujmT-44KZVd5u0wcq80lMG3XmeB9UGS4Q7NckTxdXJzWMHfhmpLUjoO2AhIg8haDpBVGkYGUdAtxcnfwwXWqEzsXg9MONpoywzVcWP5qDyMjJrQGX4_Hr_jumMGithjhMDuOUjd64-UyDuqTIEAPRsBR1FqH0YYeWR7304maFqZJa99OlIz1r5_zZ7zkTbE89IOJxcJ8IVbklVAFhubvmDrATMJbQNvTArgVdRww_lGTP7BAF-rUjw418gmjMBr55diFK5byssT54-K98FxxdQ9Cx9uBJQ0jq5KF9jHbPxV4iQGeBhjcXfFSEotDP2wEdpRXWtTJs98P2Wb5CQ7j2AzlFSZJ2iEgmKrmgRffE6zoTiS57vcqhElvtKfRPKcXKu_IxXnIKUjdPWZM6erJWlnUTepUCRY3RQNke2jhNM9whalhWgVEdpra7CjQzYUxuAWZXWl6owMVh-fBeTyad5E0ZAsiaxqa11AS2Hf5Lc4jXkA1_9Rs5esasiAI9eOP6_mibayaUMPi3JLVrOgQYuCTEJYwV6S_j9qOhAckfq5CMhY-wSlDEoDVsYui-HFu1]--></g></svg>