<svg xmlns="http://www.w3.org/2000/svg" xmlns:xlink="http://www.w3.org/1999/xlink" contentStyleType="text/css" height="887px" preserveAspectRatio="none" style="width:826px;height:887px;background:#FFFFFF;" version="1.1" viewBox="0 0 826 887" width="826px" zoomAndPan="magnify"><defs/><g><text fill="#000000" font-family="Verdana" font-size="22" font-weight="bold" lengthAdjust="spacing" textLength="793" x="15" y="37.1182">Probation Classification By Sport - SP Preprocess Detailed Flow</text><ellipse cx="225" cy="62.7373" fill="#FFFFFF" rx="10" ry="10" style="stroke:#000000;stroke-width:1.0;"/><path d="M432,89.23 L432,106.0293 L412,110.0293 L432,114.0293 L432,130.8286 A0,0 0 0 0 432,130.8286 L720,130.8286 A0,0 0 0 0 720,130.8286 L720,99.23 L710,89.23 L432,89.23 A0,0 0 0 0 432,89.23 " fill="#FFFFFF" style="stroke:#000000;stroke-width:1.0;"/><path d="M710,89.23 L710,99.23 L720,99.23 L710,89.23 " fill="#FFFFFF" style="stroke:#000000;stroke-width:1.0;"/><text fill="#000000" font-family="Verdana" font-size="13" lengthAdjust="spacing" textLength="267" x="438" y="107.2998">Database: bodb_VR2Model (SQL Server)</text><text fill="#000000" font-family="Verdana" font-size="13" lengthAdjust="spacing" textLength="231" x="438" y="123.0991">Parameter: @CustomersXML (XML)</text><rect fill="#FFFFFF" height="34.584" rx="12.5" ry="12.5" style="stroke:#000000;stroke-width:1.0;" width="374" x="38" y="92.7373"/><text fill="#000000" font-family="Verdana" font-size="12" lengthAdjust="spacing" textLength="354" x="48" y="114.8018">CTS_BySportNormalClassification_Probation_Preprocess</text><path d="M312.5,140.8286 L312.5,181.3269 L292.5,185.3269 L312.5,189.3269 L312.5,229.8252 A0,0 0 0 0 312.5,229.8252 L649.5,229.8252 A0,0 0 0 0 649.5,229.8252 L649.5,150.8286 L639.5,140.8286 L312.5,140.8286 A0,0 0 0 0 312.5,140.8286 " fill="#FFFFFF" style="stroke:#000000;stroke-width:1.0;"/><path d="M639.5,140.8286 L639.5,150.8286 L649.5,150.8286 L639.5,140.8286 " fill="#FFFFFF" style="stroke:#000000;stroke-width:1.0;"/><text fill="#000000" font-family="Verdana" font-size="13" lengthAdjust="spacing" textLength="110" x="318.5" y="158.8984">@FunctionId = 2</text><text fill="#000000" font-family="Verdana" font-size="13" lengthAdjust="spacing" textLength="153" x="318.5" y="174.6978">@ToDate = GETDATE()</text><text fill="#000000" font-family="Verdana" font-size="13" lengthAdjust="spacing" textLength="316" x="318.5" y="190.4971">@From30Date = DATEADD(DAY, -29, @ToDate)</text><text fill="#000000" font-family="Verdana" font-size="13" lengthAdjust="spacing" textLength="145" x="318.5" y="206.2964">@Priority_GroupId = 1</text><text fill="#000000" font-family="Verdana" font-size="13" lengthAdjust="spacing" textLength="219" x="318.5" y="222.0957">@Priority_ActionUnknown = 9999</text><rect fill="#FFFFFF" height="34.584" rx="12.5" ry="12.5" style="stroke:#000000;stroke-width:1.0;" width="135" x="157.5" y="168.0349"/><text fill="#000000" font-family="Verdana" font-size="12" lengthAdjust="spacing" textLength="115" x="167.5" y="190.0994">Initialize Variables</text><path d="M314.5,239.8252 L314.5,272.4238 L294.5,276.4238 L314.5,280.4238 L314.5,313.0225 A0,0 0 0 0 314.5,313.0225 L579.5,313.0225 A0,0 0 0 0 579.5,313.0225 L579.5,249.8252 L569.5,239.8252 L314.5,239.8252 A0,0 0 0 0 314.5,239.8252 " fill="#FFFFFF" style="stroke:#000000;stroke-width:1.0;"/><path d="M569.5,239.8252 L569.5,249.8252 L579.5,249.8252 L569.5,239.8252 " fill="#FFFFFF" style="stroke:#000000;stroke-width:1.0;"/><text fill="#000000" font-family="Verdana" font-size="13" lengthAdjust="spacing" textLength="13" x="320.5" y="257.895">1.</text><text fill="#000000" font-family="Verdana" font-size="13" lengthAdjust="spacing" textLength="100" x="338.5" y="257.895">tmpCustomers:</text><text fill="#000000" font-family="Verdana" font-size="13" lengthAdjust="spacing" textLength="95" x="320.5" y="273.6943">- CustId (INT)</text><text fill="#000000" font-family="Verdana" font-size="13" lengthAdjust="spacing" textLength="126" x="320.5" y="289.4937">- SportGroup (INT)</text><text fill="#000000" font-family="Verdana" font-size="13" lengthAdjust="spacing" textLength="244" x="320.5" y="305.293">- PRIMARY KEY (CustId, SportGroup)</text><rect fill="#FFFFFF" height="34.584" rx="12.5" ry="12.5" style="stroke:#000000;stroke-width:1.0;" width="139" x="155.5" y="259.1318"/><text fill="#000000" font-family="Verdana" font-size="12" lengthAdjust="spacing" textLength="119" x="165.5" y="281.1963">Create Temp Table</text><path d="M333,323.0225 L333,363.5208 L313,367.5208 L333,371.5208 L333,412.019 A0,0 0 0 0 333,412.019 L737,412.019 A0,0 0 0 0 737,412.019 L737,333.0225 L727,323.0225 L333,323.0225 A0,0 0 0 0 333,323.0225 " fill="#FFFFFF" style="stroke:#000000;stroke-width:1.0;"/><path d="M727,323.0225 L727,333.0225 L737,333.0225 L727,323.0225 " fill="#FFFFFF" style="stroke:#000000;stroke-width:1.0;"/><text fill="#000000" font-family="Verdana" font-size="13" lengthAdjust="spacing" textLength="195" x="339" y="341.0923">INSERT INTO #tmpCustomers</text><text fill="#000000" font-family="Verdana" font-size="13" lengthAdjust="spacing" textLength="50" x="339" y="356.8916">SELECT</text><text fill="#000000" font-family="Verdana" font-size="13" lengthAdjust="spacing" textLength="258" x="349" y="372.6909">T.C.value('./@CustId', 'INT') AS CustId</text><text fill="#000000" font-family="Verdana" font-size="13" lengthAdjust="spacing" textLength="373" x="349" y="388.4902">, T.C.value('./@SportGroup', 'SMALLINT') AS SportGroup</text><text fill="#000000" font-family="Verdana" font-size="13" lengthAdjust="spacing" textLength="288" x="339" y="404.2896">FROM @CustomersXML.nodes('//r') AS T(C)</text><rect fill="#FFFFFF" height="34.584" rx="12.5" ry="12.5" style="stroke:#000000;stroke-width:1.0;" width="176" x="137" y="350.2288"/><text fill="#000000" font-family="Verdana" font-size="12" lengthAdjust="spacing" textLength="156" x="147" y="372.2932">Parse XML Customer List</text><path d="M339,422.019 L339,454.6177 L319,458.6177 L339,462.6177 L339,495.2163 A0,0 0 0 0 339,495.2163 L612,495.2163 A0,0 0 0 0 612,495.2163 L612,432.019 L602,422.019 L339,422.019 A0,0 0 0 0 339,422.019 " fill="#FFFFFF" style="stroke:#000000;stroke-width:1.0;"/><path d="M602,422.019 L602,432.019 L612,432.019 L602,422.019 " fill="#FFFFFF" style="stroke:#000000;stroke-width:1.0;"/><text fill="#000000" font-family="Verdana" font-size="13" lengthAdjust="spacing" textLength="233" x="345" y="440.0889">DELETE FROM #tmpCustomers AS r</text><text fill="#000000" font-family="Verdana" font-size="13" lengthAdjust="spacing" textLength="252" x="345" y="455.8882">INNER JOIN bodb02.dbo.custInfo AS c</text><text fill="#000000" font-family="Verdana" font-size="13" lengthAdjust="spacing" textLength="149" x="355" y="471.6875">ON r.CustId = c.custid</text><text fill="#000000" font-family="Verdana" font-size="13" lengthAdjust="spacing" textLength="154" x="345" y="487.4868">WHERE c.[Enabled] = 0</text><rect fill="#FFFFFF" height="34.584" rx="12.5" ry="12.5" style="stroke:#000000;stroke-width:1.0;" width="188" x="131" y="441.3257"/><text fill="#000000" font-family="Verdana" font-size="12" lengthAdjust="spacing" textLength="168" x="141" y="463.3901">Remove Disabled Accounts</text><path d="M343,505.2163 L343,569.4136 L323,573.4136 L343,577.4136 L343,641.6108 A0,0 0 0 0 343,641.6108 L787,641.6108 A0,0 0 0 0 787,641.6108 L787,515.2163 L777,505.2163 L343,505.2163 A0,0 0 0 0 343,505.2163 " fill="#FFFFFF" style="stroke:#000000;stroke-width:1.0;"/><path d="M777,505.2163 L777,515.2163 L787,515.2163 L777,505.2163 " fill="#FFFFFF" style="stroke:#000000;stroke-width:1.0;"/><text fill="#000000" font-family="Verdana" font-size="13" lengthAdjust="spacing" textLength="233" x="349" y="523.2861">DELETE FROM #tmpCustomers AS r</text><text fill="#000000" font-family="Verdana" font-size="13" lengthAdjust="spacing" textLength="144" x="349" y="539.0854">WHERE NOT EXISTS (</text><text fill="#000000" font-family="Verdana" font-size="13" lengthAdjust="spacing" textLength="63" x="369" y="554.8848">SELECT 1</text><text fill="#000000" font-family="Verdana" font-size="13" lengthAdjust="spacing" textLength="403" x="369" y="570.6841">FROM CustomerClassification_BySport_LatestActiveDay AS c</text><text fill="#000000" font-family="Verdana" font-size="13" lengthAdjust="spacing" textLength="179" x="369" y="586.4834">WHERE c.CustId = r.CustId</text><text fill="#000000" font-family="Verdana" font-size="13" lengthAdjust="spacing" textLength="222" x="379" y="602.2827">AND c.SportGroup = r.SportGroup</text><text fill="#000000" font-family="Verdana" font-size="13" lengthAdjust="spacing" textLength="261" x="379" y="618.082">AND c.LastTransDate &gt;= @From30Date</text><text fill="#000000" font-family="Verdana" font-size="13" lengthAdjust="spacing" textLength="6" x="349" y="633.8813">)</text><rect fill="#FFFFFF" height="34.584" rx="12.5" ry="12.5" style="stroke:#000000;stroke-width:1.0;" width="196" x="127" y="556.1216"/><text fill="#000000" font-family="Verdana" font-size="12" lengthAdjust="spacing" textLength="176" x="137" y="578.186">Remove Inactive Customers</text><path d="M290,651.6108 L290,692.1091 L270,696.1091 L290,700.1091 L290,740.6074 A0,0 0 0 0 290,740.6074 L673,740.6074 A0,0 0 0 0 673,740.6074 L673,661.6108 L663,651.6108 L290,651.6108 A0,0 0 0 0 290,651.6108 " fill="#FFFFFF" style="stroke:#000000;stroke-width:1.0;"/><path d="M663,651.6108 L663,661.6108 L673,661.6108 L663,651.6108 " fill="#FFFFFF" style="stroke:#000000;stroke-width:1.0;"/><text fill="#000000" font-family="Verdana" font-size="13" lengthAdjust="spacing" textLength="362" x="296" y="669.6807">SELECT ISNULL(p.[Priority], @Priority_ActionUnknown)</text><text fill="#000000" font-family="Verdana" font-size="13" lengthAdjust="spacing" textLength="340" x="296" y="685.48">FROM CustomerClassification_BySport_Priority AS p</text><text fill="#000000" font-family="Verdana" font-size="13" lengthAdjust="spacing" textLength="252" x="296" y="701.2793">WHERE p.GroupId = @Priority_GroupId</text><text fill="#000000" font-family="Verdana" font-size="13" lengthAdjust="spacing" textLength="217" x="306" y="717.0786">AND p.FunctionId = @FunctionId</text><text fill="#000000" font-family="Verdana" font-size="13" lengthAdjust="spacing" textLength="59" x="296" y="732.8779">@Priority</text><rect fill="#FFFFFF" height="34.584" rx="12.5" ry="12.5" style="stroke:#000000;stroke-width:1.0;" width="90" x="180" y="678.8171"/><text fill="#000000" font-family="Verdana" font-size="12" lengthAdjust="spacing" textLength="70" x="190" y="700.8816">Get Priority</text><path d="M327.5,750.6074 L327.5,791.1057 L307.5,795.1057 L327.5,799.1057 L327.5,839.604 A0,0 0 0 0 327.5,839.604 L730.5,839.604 A0,0 0 0 0 730.5,839.604 L730.5,760.6074 L720.5,750.6074 L327.5,750.6074 A0,0 0 0 0 327.5,750.6074 " fill="#FFFFFF" style="stroke:#000000;stroke-width:1.0;"/><path d="M720.5,750.6074 L720.5,760.6074 L730.5,760.6074 L720.5,750.6074 " fill="#FFFFFF" style="stroke:#000000;stroke-width:1.0;"/><text fill="#000000" font-family="Verdana" font-size="13" lengthAdjust="spacing" textLength="382" x="333.5" y="768.6772">EXEC CTS_BySportNormalClassification_NormalPool_Insert</text><text fill="#000000" font-family="Verdana" font-size="13" lengthAdjust="spacing" textLength="185" x="333.5" y="784.4766">@FunctionId = @FunctionId</text><text fill="#000000" font-family="Verdana" font-size="13" lengthAdjust="spacing" textLength="137" x="333.5" y="800.2759">@Priority = @Priority</text><text fill="#000000" font-family="Verdana" font-size="13" lengthAdjust="spacing" textLength="223" x="333.5" y="816.0752">Insert customers into Normal Pool</text><text fill="#000000" font-family="Verdana" font-size="13" lengthAdjust="spacing" textLength="218" x="333.5" y="831.8745">for later classification processing</text><rect fill="#FFFFFF" height="34.584" rx="12.5" ry="12.5" style="stroke:#000000;stroke-width:1.0;" width="165" x="142.5" y="777.8137"/><text fill="#000000" font-family="Verdana" font-size="12" lengthAdjust="spacing" textLength="145" x="152.5" y="799.8782">Insert into Normal Pool</text><ellipse cx="225" cy="870.604" fill="none" rx="11" ry="11" style="stroke:#000000;stroke-width:1.0;"/><ellipse cx="225" cy="870.604" fill="#FFFFFF" rx="6" ry="6" style="stroke:#000000;stroke-width:1.0;"/><line style="stroke:#000000;stroke-width:1.0;" x1="225" x2="225" y1="72.7373" y2="92.7373"/><polygon fill="#000000" points="221,82.7373,225,92.7373,229,82.7373,225,86.7373" style="stroke:#000000;stroke-width:1.0;"/><line style="stroke:#000000;stroke-width:1.0;" x1="225" x2="225" y1="127.3213" y2="168.0349"/><polygon fill="#000000" points="221,158.0349,225,168.0349,229,158.0349,225,162.0349" style="stroke:#000000;stroke-width:1.0;"/><line style="stroke:#000000;stroke-width:1.0;" x1="225" x2="225" y1="202.6189" y2="259.1318"/><polygon fill="#000000" points="221,249.1318,225,259.1318,229,249.1318,225,253.1318" style="stroke:#000000;stroke-width:1.0;"/><line style="stroke:#000000;stroke-width:1.0;" x1="225" x2="225" y1="293.7158" y2="350.2288"/><polygon fill="#000000" points="221,340.2288,225,350.2288,229,340.2288,225,344.2288" style="stroke:#000000;stroke-width:1.0;"/><line style="stroke:#000000;stroke-width:1.0;" x1="225" x2="225" y1="384.8127" y2="441.3257"/><polygon fill="#000000" points="221,431.3257,225,441.3257,229,431.3257,225,435.3257" style="stroke:#000000;stroke-width:1.0;"/><line style="stroke:#000000;stroke-width:1.0;" x1="225" x2="225" y1="475.9097" y2="556.1216"/><polygon fill="#000000" points="221,546.1216,225,556.1216,229,546.1216,225,550.1216" style="stroke:#000000;stroke-width:1.0;"/><line style="stroke:#000000;stroke-width:1.0;" x1="225" x2="225" y1="590.7056" y2="678.8171"/><polygon fill="#000000" points="221,668.8171,225,678.8171,229,668.8171,225,672.8171" style="stroke:#000000;stroke-width:1.0;"/><line style="stroke:#000000;stroke-width:1.0;" x1="225" x2="225" y1="713.4011" y2="777.8137"/><polygon fill="#000000" points="221,767.8137,225,777.8137,229,767.8137,225,771.8137" style="stroke:#000000;stroke-width:1.0;"/><line style="stroke:#000000;stroke-width:1.0;" x1="225" x2="225" y1="812.3977" y2="859.604"/><polygon fill="#000000" points="221,849.604,225,859.604,229,849.604,225,853.604" style="stroke:#000000;stroke-width:1.0;"/><!--SRC=[dLLjRvim4FxEhxXf7qAab7RPfsRgL0gqOoCa0xThLLMHGzpE6h6HxRJAVlsCUGaahJQD3xoSdxjxdlFvUAT-aZM18iUKMOggdC1Sy2LMb3FmSYmbVQHPzNcnXRJWGi4Hf7CD8uNW6P4IVA8mpSaABdF-ObbIOQ6iYOVInSNMUCHSh77U3xTeyonseJvPZ2i2WZxzL1ReoySABx4a4rZorN9nauodV4LoiDFl4QH4F1CnDC0v5dXD514JEFSsKl4r4V9s6e6jRqEBi1MKeIrh4ZAgACxfRm8tM52ypCbXtlFB3SjASk4Apc1SsH3NT8Z-lWgGxwB07jPOmTSVJ-grSi7rVTjtxqPmD3uTDNurU2ue5rHj5rU2RmeJ_iFUYcioNxDVZBymlNwghwu2Jv0o5oBh0b39_u3-UxKksYfCZEa8IeFEPuSn6jOcipk6ICyyJyAfczp1j-0ExCfjrC7sogaBBmcKbMuIGaIbEg0KnccG8Fr0ipuzive6KU0Xymg07Czvnlc6s0Fd-BpAFnZ1GFiEXk2cjP8QFTh3xtYMFkdKZQBMSRTcd2-JsRJVBWxJxINjmV6ng3oGxVNa9cJDdmduL9Q5Nu6RPNp3r2kTgnMXe4hHqrj65NL9uY21hxCmDjrzCdPMI-vafJZso4jSLckSnI2SUl_E83COMXNWnvSW2RJfFc26qOC6dBp2E6HOjvL-QOdy3-KgMpn34Do6AKh1hXasMrWtSrlT9iRUuQy7moBIZIoLQvZvUDlLl9FM2czgq280tDZNY4uVbwYzRUuY8omL4fX9Srm_dtLFhm7tTlkAA6YEvK6vQi5X6bz7aLquzmtoOVJMOHvQ_rgOnh-iID4fVU7iviR1BB5sIWkdDy4wywm_RFgJKH8ztYbJ7AgH3NFEymFXmMtWmT_6UsKi_HTLt5VcwfkikkAger9HozgEt2TfK8zSGAutKa3M_tNLlnVAdZfwTQZ2-WC0]--></g></svg>