<svg xmlns="http://www.w3.org/2000/svg" xmlns:xlink="http://www.w3.org/1999/xlink" contentStyleType="text/css" height="1810px" preserveAspectRatio="none" style="width:2516px;height:1810px;background:#FFFFFF;" version="1.1" viewBox="0 0 2516 1810" width="2516px" zoomAndPan="magnify"><defs/><g><text fill="#000000" font-family="Verdana" font-size="22" font-weight="bold" lengthAdjust="spacing" textLength="671" x="926.5" y="37.1182">Probation Classification By Sport - Sequence Diagram</text><rect fill="#FFFFFF" height="1513.9297" style="stroke:#000000;stroke-width:1.0;" width="10" x="558" y="179.5659"/><rect fill="#FFFFFF" height="1438.5317" style="stroke:#000000;stroke-width:1.0;" width="10" x="795.5" y="209.3652"/><rect fill="#FFFFFF" height="72.5986" style="stroke:#000000;stroke-width:1.0;" width="10" x="1108.5" y="263.9639"/><rect fill="#FFFFFF" height="421.3877" style="stroke:#000000;stroke-width:1.0;" width="10" x="1108.5" y="366.3618"/><rect fill="#FFFFFF" height="416.7891" style="stroke:#000000;stroke-width:1.0;" width="10" x="1108.5" y="842.3481"/><rect fill="#FFFFFF" height="150.7959" style="stroke:#000000;stroke-width:1.0;" width="10" x="1108.5" y="1288.9365"/><rect fill="#FFFFFF" height="119.1973" style="stroke:#000000;stroke-width:1.0;" width="10" x="1108.5" y="1484.9004"/><rect fill="#FFFFFF" height="361.7891" style="stroke:#000000;stroke-width:1.0;" width="10" x="1473.5" y="396.1611"/><rect fill="#FFFFFF" height="262.7925" style="stroke:#000000;stroke-width:1.0;" width="10" x="1473.5" y="966.5454"/><rect fill="#FFFFFF" height="91.1973" style="stroke:#000000;stroke-width:1.0;" width="10" x="1875.5" y="1318.7358"/><rect fill="#FFFFFF" height="59.5986" style="stroke:#000000;stroke-width:1.0;" width="10" x="1875.5" y="1514.6997"/><rect fill="#FFFFFF" height="176.1938" style="stroke:#000000;stroke-width:1.0;" width="10" x="2129.5" y="551.957"/><rect fill="#FFFFFF" height="144.5952" style="stroke:#000000;stroke-width:1.0;" width="10" x="2261.5" y="1054.9434"/><rect fill="#FFFFFF" height="1394.7324" style="stroke:#000000;stroke-width:1.0;" width="1854" x="656" y="224.3652"/><rect fill="#FFFFFF" height="809.3481" style="stroke:#000000;stroke-width:1.0;" width="1834" x="666" y="802.7495"/><rect fill="#FFFFFF" height="164.3652" style="stroke:none;stroke-width:1.0;" width="1834" x="666" y="1447.7324"/><line style="stroke:#000000;stroke-width:1.0;" x1="62" x2="62" y1="147.7666" y2="1711.4956"/><line style="stroke:#000000;stroke-width:1.0;" x1="563" x2="563" y1="147.7666" y2="1711.4956"/><line style="stroke:#000000;stroke-width:1.0;" x1="800" x2="800" y1="147.7666" y2="1711.4956"/><line style="stroke:#000000;stroke-width:1.0;" x1="1113" x2="1113" y1="147.7666" y2="1711.4956"/><line style="stroke:#000000;stroke-width:1.0;" x1="1478" x2="1478" y1="147.7666" y2="1711.4956"/><line style="stroke:#000000;stroke-width:1.0;" x1="1880.5" x2="1880.5" y1="147.7666" y2="1711.4956"/><line style="stroke:#000000;stroke-width:1.0;" x1="2134.5" x2="2134.5" y1="147.7666" y2="1711.4956"/><line style="stroke:#000000;stroke-width:1.0;" x1="2266.5" x2="2266.5" y1="147.7666" y2="1711.4956"/><text fill="#000000" font-family="Verdana" font-size="14" lengthAdjust="spacing" textLength="98" x="10" y="127.8125">Job Scheduler</text><text fill="#000000" font-family="Verdana" font-size="14" lengthAdjust="spacing" textLength="70" x="24" y="144.8271">(External)</text><ellipse cx="62" cy="61.7373" fill="#FFFFFF" rx="8" ry="8" style="stroke:#000000;stroke-width:1.0;"/><path d="M62,69.7373 L62,96.7373 M49,77.7373 L75,77.7373 M62,96.7373 L49,111.7373 M62,96.7373 L75,111.7373 " fill="none" style="stroke:#000000;stroke-width:1.0;"/><text fill="#000000" font-family="Verdana" font-size="14" lengthAdjust="spacing" textLength="98" x="10" y="1724.5708">Job Scheduler</text><text fill="#000000" font-family="Verdana" font-size="14" lengthAdjust="spacing" textLength="70" x="24" y="1741.5854">(External)</text><ellipse cx="62" cy="1753.5249" fill="#FFFFFF" rx="8" ry="8" style="stroke:#000000;stroke-width:1.0;"/><path d="M62,1761.5249 L62,1788.5249 M49,1769.5249 L75,1769.5249 M62,1788.5249 L49,1803.5249 M62,1788.5249 L75,1803.5249 " fill="none" style="stroke:#000000;stroke-width:1.0;"/><rect fill="#FFFFFF" height="48.0293" rx="2.5" ry="2.5" style="stroke:#000000;stroke-width:1.0;" width="186" x="470" y="98.7373"/><text fill="#000000" font-family="Verdana" font-size="14" lengthAdjust="spacing" textLength="172" x="477" y="119.8125">ClassificationBySportJob</text><text fill="#000000" font-family="Verdana" font-size="14" lengthAdjust="spacing" textLength="69" x="528.5" y="136.8271">Controller</text><rect fill="#FFFFFF" height="48.0293" rx="2.5" ry="2.5" style="stroke:#000000;stroke-width:1.0;" width="186" x="470" y="1710.4956"/><text fill="#000000" font-family="Verdana" font-size="14" lengthAdjust="spacing" textLength="172" x="477" y="1731.5708">ClassificationBySportJob</text><text fill="#000000" font-family="Verdana" font-size="14" lengthAdjust="spacing" textLength="69" x="528.5" y="1748.5854">Controller</text><rect fill="#FFFFFF" height="48.0293" rx="2.5" ry="2.5" style="stroke:#000000;stroke-width:1.0;" width="229" x="686" y="98.7373"/><text fill="#000000" font-family="Verdana" font-size="14" lengthAdjust="spacing" textLength="215" x="693" y="119.8125">ProbationClassificationBySport</text><text fill="#000000" font-family="Verdana" font-size="14" lengthAdjust="spacing" textLength="74" x="763.5" y="136.8271">JobService</text><rect fill="#FFFFFF" height="48.0293" rx="2.5" ry="2.5" style="stroke:#000000;stroke-width:1.0;" width="229" x="686" y="1710.4956"/><text fill="#000000" font-family="Verdana" font-size="14" lengthAdjust="spacing" textLength="215" x="693" y="1731.5708">ProbationClassificationBySport</text><text fill="#000000" font-family="Verdana" font-size="14" lengthAdjust="spacing" textLength="74" x="763.5" y="1748.5854">JobService</text><rect fill="#FFFFFF" height="48.0293" rx="2.5" ry="2.5" style="stroke:#000000;stroke-width:1.0;" width="229" x="999" y="98.7373"/><text fill="#000000" font-family="Verdana" font-size="14" lengthAdjust="spacing" textLength="215" x="1006" y="119.8125">ProbationClassificationBySport</text><text fill="#000000" font-family="Verdana" font-size="14" lengthAdjust="spacing" textLength="50" x="1088.5" y="136.8271">Service</text><rect fill="#FFFFFF" height="48.0293" rx="2.5" ry="2.5" style="stroke:#000000;stroke-width:1.0;" width="229" x="999" y="1710.4956"/><text fill="#000000" font-family="Verdana" font-size="14" lengthAdjust="spacing" textLength="215" x="1006" y="1731.5708">ProbationClassificationBySport</text><text fill="#000000" font-family="Verdana" font-size="14" lengthAdjust="spacing" textLength="50" x="1088.5" y="1748.5854">Service</text><rect fill="#FFFFFF" height="48.0293" rx="2.5" ry="2.5" style="stroke:#000000;stroke-width:1.0;" width="229" x="1364" y="98.7373"/><text fill="#000000" font-family="Verdana" font-size="14" lengthAdjust="spacing" textLength="215" x="1371" y="119.8125">ProbationClassificationBySport</text><text fill="#000000" font-family="Verdana" font-size="14" lengthAdjust="spacing" textLength="81" x="1438" y="136.8271">DataAccess</text><rect fill="#FFFFFF" height="48.0293" rx="2.5" ry="2.5" style="stroke:#000000;stroke-width:1.0;" width="229" x="1364" y="1710.4956"/><text fill="#000000" font-family="Verdana" font-size="14" lengthAdjust="spacing" textLength="215" x="1371" y="1731.5708">ProbationClassificationBySport</text><text fill="#000000" font-family="Verdana" font-size="14" lengthAdjust="spacing" textLength="81" x="1438" y="1748.5854">DataAccess</text><rect fill="#FFFFFF" height="48.0293" rx="2.5" ry="2.5" style="stroke:#000000;stroke-width:1.0;" width="138" x="1811.5" y="98.7373"/><text fill="#000000" font-family="Verdana" font-size="14" lengthAdjust="spacing" textLength="124" x="1818.5" y="119.8125">SystemParameter</text><text fill="#000000" font-family="Verdana" font-size="14" lengthAdjust="spacing" textLength="81" x="1840" y="136.8271">DataAccess</text><rect fill="#FFFFFF" height="48.0293" rx="2.5" ry="2.5" style="stroke:#000000;stroke-width:1.0;" width="138" x="1811.5" y="1710.4956"/><text fill="#000000" font-family="Verdana" font-size="14" lengthAdjust="spacing" textLength="124" x="1818.5" y="1731.5708">SystemParameter</text><text fill="#000000" font-family="Verdana" font-size="14" lengthAdjust="spacing" textLength="81" x="1840" y="1748.5854">DataAccess</text><text fill="#000000" font-family="Verdana" font-size="14" lengthAdjust="spacing" textLength="48" x="2107.5" y="127.8125">MySQL</text><text fill="#000000" font-family="Verdana" font-size="14" lengthAdjust="spacing" textLength="118" x="2072.5" y="144.8271">CTS_DataCenter</text><path d="M2116.5,77.7373 C2116.5,67.7373 2134.5,67.7373 2134.5,67.7373 C2134.5,67.7373 2152.5,67.7373 2152.5,77.7373 L2152.5,103.7373 C2152.5,113.7373 2134.5,113.7373 2134.5,113.7373 C2134.5,113.7373 2116.5,113.7373 2116.5,103.7373 L2116.5,77.7373 " fill="#FFFFFF" style="stroke:#000000;stroke-width:1.5;"/><path d="M2116.5,77.7373 C2116.5,87.7373 2134.5,87.7373 2134.5,87.7373 C2134.5,87.7373 2152.5,87.7373 2152.5,77.7373 " fill="none" style="stroke:#000000;stroke-width:1.5;"/><text fill="#000000" font-family="Verdana" font-size="14" lengthAdjust="spacing" textLength="48" x="2107.5" y="1724.5708">MySQL</text><text fill="#000000" font-family="Verdana" font-size="14" lengthAdjust="spacing" textLength="118" x="2072.5" y="1741.5854">CTS_DataCenter</text><path d="M2116.5,1754.5249 C2116.5,1744.5249 2134.5,1744.5249 2134.5,1744.5249 C2134.5,1744.5249 2152.5,1744.5249 2152.5,1754.5249 L2152.5,1780.5249 C2152.5,1790.5249 2134.5,1790.5249 2134.5,1790.5249 C2134.5,1790.5249 2116.5,1790.5249 2116.5,1780.5249 L2116.5,1754.5249 " fill="#FFFFFF" style="stroke:#000000;stroke-width:1.5;"/><path d="M2116.5,1754.5249 C2116.5,1764.5249 2134.5,1764.5249 2134.5,1764.5249 C2134.5,1764.5249 2152.5,1764.5249 2152.5,1754.5249 " fill="none" style="stroke:#000000;stroke-width:1.5;"/><text fill="#000000" font-family="Verdana" font-size="14" lengthAdjust="spacing" textLength="80" x="2223.5" y="127.8125">SQL Server</text><text fill="#000000" font-family="Verdana" font-size="14" lengthAdjust="spacing" textLength="114" x="2206.5" y="144.8271">bodb_VR2Model</text><path d="M2248.5,77.7373 C2248.5,67.7373 2266.5,67.7373 2266.5,67.7373 C2266.5,67.7373 2284.5,67.7373 2284.5,77.7373 L2284.5,103.7373 C2284.5,113.7373 2266.5,113.7373 2266.5,113.7373 C2266.5,113.7373 2248.5,113.7373 2248.5,103.7373 L2248.5,77.7373 " fill="#FFFFFF" style="stroke:#000000;stroke-width:1.5;"/><path d="M2248.5,77.7373 C2248.5,87.7373 2266.5,87.7373 2266.5,87.7373 C2266.5,87.7373 2284.5,87.7373 2284.5,77.7373 " fill="none" style="stroke:#000000;stroke-width:1.5;"/><text fill="#000000" font-family="Verdana" font-size="14" lengthAdjust="spacing" textLength="80" x="2223.5" y="1724.5708">SQL Server</text><text fill="#000000" font-family="Verdana" font-size="14" lengthAdjust="spacing" textLength="114" x="2206.5" y="1741.5854">bodb_VR2Model</text><path d="M2248.5,1754.5249 C2248.5,1744.5249 2266.5,1744.5249 2266.5,1744.5249 C2266.5,1744.5249 2284.5,1744.5249 2284.5,1754.5249 L2284.5,1780.5249 C2284.5,1790.5249 2266.5,1790.5249 2266.5,1790.5249 C2266.5,1790.5249 2248.5,1790.5249 2248.5,1780.5249 L2248.5,1754.5249 " fill="#FFFFFF" style="stroke:#000000;stroke-width:1.5;"/><path d="M2248.5,1754.5249 C2248.5,1764.5249 2266.5,1764.5249 2266.5,1764.5249 C2266.5,1764.5249 2284.5,1764.5249 2284.5,1754.5249 " fill="none" style="stroke:#000000;stroke-width:1.5;"/><rect fill="#FFFFFF" height="1513.9297" style="stroke:#000000;stroke-width:1.0;" width="10" x="558" y="179.5659"/><rect fill="#FFFFFF" height="1438.5317" style="stroke:#000000;stroke-width:1.0;" width="10" x="795.5" y="209.3652"/><rect fill="#FFFFFF" height="72.5986" style="stroke:#000000;stroke-width:1.0;" width="10" x="1108.5" y="263.9639"/><rect fill="#FFFFFF" height="421.3877" style="stroke:#000000;stroke-width:1.0;" width="10" x="1108.5" y="366.3618"/><rect fill="#FFFFFF" height="416.7891" style="stroke:#000000;stroke-width:1.0;" width="10" x="1108.5" y="842.3481"/><rect fill="#FFFFFF" height="150.7959" style="stroke:#000000;stroke-width:1.0;" width="10" x="1108.5" y="1288.9365"/><rect fill="#FFFFFF" height="119.1973" style="stroke:#000000;stroke-width:1.0;" width="10" x="1108.5" y="1484.9004"/><rect fill="#FFFFFF" height="361.7891" style="stroke:#000000;stroke-width:1.0;" width="10" x="1473.5" y="396.1611"/><rect fill="#FFFFFF" height="262.7925" style="stroke:#000000;stroke-width:1.0;" width="10" x="1473.5" y="966.5454"/><rect fill="#FFFFFF" height="91.1973" style="stroke:#000000;stroke-width:1.0;" width="10" x="1875.5" y="1318.7358"/><rect fill="#FFFFFF" height="59.5986" style="stroke:#000000;stroke-width:1.0;" width="10" x="1875.5" y="1514.6997"/><rect fill="#FFFFFF" height="176.1938" style="stroke:#000000;stroke-width:1.0;" width="10" x="2129.5" y="551.957"/><rect fill="#FFFFFF" height="144.5952" style="stroke:#000000;stroke-width:1.0;" width="10" x="2261.5" y="1054.9434"/><polygon fill="#000000" points="546,175.5659,556,179.5659,546,183.5659,550,179.5659" style="stroke:#000000;stroke-width:1.0;"/><line style="stroke:#000000;stroke-width:1.0;" x1="62" x2="552" y1="179.5659" y2="179.5659"/><text fill="#000000" font-family="Verdana" font-size="13" lengthAdjust="spacing" textLength="477" x="69" y="174.8364">POST /api/classificationBySportJobs/ScanProbationClassificationBySport</text><polygon fill="#000000" points="783.5,205.3652,793.5,209.3652,783.5,213.3652,787.5,209.3652" style="stroke:#000000;stroke-width:1.0;"/><line style="stroke:#000000;stroke-width:1.0;" x1="568" x2="789.5" y1="209.3652" y2="209.3652"/><text fill="#000000" font-family="Verdana" font-size="13" lengthAdjust="spacing" textLength="65" x="575" y="204.6357">Execute()</text><path d="M656,224.3652 L732,224.3652 L732,232.1646 L722,242.1646 L656,242.1646 L656,224.3652 " fill="#FFFFFF" style="stroke:#000000;stroke-width:1.0;"/><rect fill="none" height="1394.7324" style="stroke:#000000;stroke-width:1.0;" width="1854" x="656" y="224.3652"/><text fill="#000000" font-family="Verdana" font-size="13" font-weight="bold" lengthAdjust="spacing" textLength="31" x="671" y="238.4351">loop</text><text fill="#000000" font-family="Verdana" font-size="11" font-weight="bold" lengthAdjust="spacing" textLength="155" x="747" y="237.4243">[Do-While (isContinue)]</text><polygon fill="#000000" points="1096.5,259.9639,1106.5,263.9639,1096.5,267.9639,1100.5,263.9639" style="stroke:#000000;stroke-width:1.0;"/><line style="stroke:#000000;stroke-width:1.0;" x1="805.5" x2="1102.5" y1="263.9639" y2="263.9639"/><text fill="#000000" font-family="Verdana" font-size="13" lengthAdjust="spacing" textLength="46" x="812.5" y="259.2344">Start()</text><line style="stroke:#000000;stroke-width:1.0;" x1="1118.5" x2="1160.5" y1="293.7632" y2="293.7632"/><line style="stroke:#000000;stroke-width:1.0;" x1="1160.5" x2="1160.5" y1="293.7632" y2="306.7632"/><line style="stroke:#000000;stroke-width:1.0;" x1="1119.5" x2="1160.5" y1="306.7632" y2="306.7632"/><polygon fill="#000000" points="1129.5,302.7632,1119.5,306.7632,1129.5,310.7632,1125.5,306.7632" style="stroke:#000000;stroke-width:1.0;"/><text fill="#000000" font-family="Verdana" font-size="13" lengthAdjust="spacing" textLength="211" x="1125.5" y="289.0337">Initialize ProbationBySportModel</text><polygon fill="#000000" points="816.5,332.5625,806.5,336.5625,816.5,340.5625,812.5,336.5625" style="stroke:#000000;stroke-width:1.0;"/><line style="stroke:#000000;stroke-width:1.0;stroke-dasharray:2.0,2.0;" x1="810.5" x2="1112.5" y1="336.5625" y2="336.5625"/><text fill="#000000" font-family="Verdana" font-size="13" lengthAdjust="spacing" textLength="24" x="822.5" y="331.833">this</text><polygon fill="#000000" points="1096.5,362.3618,1106.5,366.3618,1096.5,370.3618,1100.5,366.3618" style="stroke:#000000;stroke-width:1.0;"/><line style="stroke:#000000;stroke-width:1.0;" x1="805.5" x2="1102.5" y1="366.3618" y2="366.3618"/><text fill="#000000" font-family="Verdana" font-size="13" lengthAdjust="spacing" textLength="268" x="812.5" y="361.6323">GetProbationScanClassificationBySport()</text><polygon fill="#000000" points="1461.5,392.1611,1471.5,396.1611,1461.5,400.1611,1465.5,396.1611" style="stroke:#000000;stroke-width:1.0;"/><line style="stroke:#000000;stroke-width:1.0;" x1="1118.5" x2="1467.5" y1="396.1611" y2="396.1611"/><text fill="#000000" font-family="Verdana" font-size="13" lengthAdjust="spacing" textLength="268" x="1125.5" y="391.4316">GetProbationScanClassificationBySport()</text><line style="stroke:#000000;stroke-width:1.0;" x1="1483.5" x2="1525.5" y1="425.9604" y2="425.9604"/><line style="stroke:#000000;stroke-width:1.0;" x1="1525.5" x2="1525.5" y1="425.9604" y2="438.9604"/><line style="stroke:#000000;stroke-width:1.0;" x1="1484.5" x2="1525.5" y1="438.9604" y2="438.9604"/><polygon fill="#000000" points="1494.5,434.9604,1484.5,438.9604,1494.5,442.9604,1490.5,438.9604" style="stroke:#000000;stroke-width:1.0;"/><text fill="#000000" font-family="Verdana" font-size="13" lengthAdjust="spacing" textLength="352" x="1490.5" y="421.231">Create GetProbationScanClassificationBySportCriteria</text><path d="M1488,451.9604 L1488,508.9604 L1734,508.9604 L1734,461.9604 L1724,451.9604 L1488,451.9604 " fill="#FFFFFF" style="stroke:#000000;stroke-width:1.0;"/><path d="M1724,451.9604 L1724,461.9604 L1734,461.9604 L1724,451.9604 " fill="#FFFFFF" style="stroke:#000000;stroke-width:1.0;"/><text fill="#000000" font-family="Verdana" font-size="13" lengthAdjust="spacing" textLength="150" x="1494" y="470.0303">Get SystemParameter:</text><text fill="#000000" font-family="Verdana" font-size="13" lengthAdjust="spacing" textLength="218" x="1494" y="485.8296">- ParameterID = 168 (BatchSize)</text><text fill="#000000" font-family="Verdana" font-size="13" lengthAdjust="spacing" textLength="225" x="1494" y="501.6289">- ParameterID = 169 (LastCustID)</text><polygon fill="#000000" points="2117.5,547.957,2127.5,551.957,2117.5,555.957,2121.5,551.957" style="stroke:#000000;stroke-width:1.0;"/><line style="stroke:#000000;stroke-width:1.0;" x1="1483.5" x2="2123.5" y1="551.957" y2="551.957"/><text fill="#000000" font-family="Verdana" font-size="13" lengthAdjust="spacing" textLength="410" x="1490.5" y="531.4282">EXEC CTS_DC_CustClassification_BySport_ProbationScan_Get</text><text fill="#000000" font-family="Verdana" font-size="13" lengthAdjust="spacing" textLength="168" x="1490.5" y="547.2275">@op_LastCustID OUTPUT</text><path d="M2144,564.957 L2144,684.957 L2445,684.957 L2445,574.957 L2435,564.957 L2144,564.957 " fill="#FFFFFF" style="stroke:#000000;stroke-width:1.0;"/><path d="M2435,564.957 L2435,574.957 L2445,574.957 L2435,564.957 " fill="#FFFFFF" style="stroke:#000000;stroke-width:1.0;"/><text fill="#000000" font-family="Verdana" font-size="13" lengthAdjust="spacing" textLength="121" x="2150" y="583.0269">Stored Procedure:</text><text fill="#000000" font-family="Verdana" font-size="13" lengthAdjust="spacing" textLength="175" x="2150" y="598.8262">- Get probation customers</text><text fill="#000000" font-family="Verdana" font-size="13" lengthAdjust="spacing" textLength="227" x="2150" y="614.6255">- Filter by LastCustID, CategoryID</text><text fill="#000000" font-family="Verdana" font-size="13" lengthAdjust="spacing" textLength="280" x="2150" y="630.4248">- Filter by LastScannedDate, CreatedDate</text><text fill="#000000" font-family="Verdana" font-size="13" lengthAdjust="spacing" textLength="159" x="2150" y="646.2241">- Filter by active status</text><text fill="#000000" font-family="Verdana" font-size="13" lengthAdjust="spacing" textLength="194" x="2150" y="662.0234">- Return: CustID, SportGroup</text><text fill="#000000" font-family="Verdana" font-size="13" lengthAdjust="spacing" textLength="141" x="2150" y="677.8228">- Output: LastCustID</text><polygon fill="#000000" points="1494.5,724.1509,1484.5,728.1509,1494.5,732.1509,1490.5,728.1509" style="stroke:#000000;stroke-width:1.0;"/><line style="stroke:#000000;stroke-width:1.0;stroke-dasharray:2.0,2.0;" x1="1488.5" x2="2133.5" y1="728.1509" y2="728.1509"/><text fill="#000000" font-family="Verdana" font-size="13" lengthAdjust="spacing" textLength="358" x="1500.5" y="707.6221">ResultSet: ProbationScanClassificationBySportEntity[]</text><text fill="#000000" font-family="Verdana" font-size="13" lengthAdjust="spacing" textLength="72" x="1500.5" y="723.4214">LastCustID</text><polygon fill="#000000" points="1129.5,753.9502,1119.5,757.9502,1129.5,761.9502,1125.5,757.9502" style="stroke:#000000;stroke-width:1.0;"/><line style="stroke:#000000;stroke-width:1.0;stroke-dasharray:2.0,2.0;" x1="1123.5" x2="1477.5" y1="757.9502" y2="757.9502"/><text fill="#000000" font-family="Verdana" font-size="13" lengthAdjust="spacing" textLength="152" x="1135.5" y="753.2207">ProbationBySportModel</text><polygon fill="#000000" points="816.5,783.7495,806.5,787.7495,816.5,791.7495,812.5,787.7495" style="stroke:#000000;stroke-width:1.0;"/><line style="stroke:#000000;stroke-width:1.0;stroke-dasharray:2.0,2.0;" x1="810.5" x2="1112.5" y1="787.7495" y2="787.7495"/><text fill="#000000" font-family="Verdana" font-size="13" lengthAdjust="spacing" textLength="24" x="822.5" y="783.02">this</text><path d="M666,802.7495 L730,802.7495 L730,810.5488 L720,820.5488 L666,820.5488 L666,802.7495 " fill="#FFFFFF" style="stroke:#000000;stroke-width:1.0;"/><rect fill="none" height="809.3481" style="stroke:#000000;stroke-width:1.0;" width="1834" x="666" y="802.7495"/><text fill="#000000" font-family="Verdana" font-size="13" font-weight="bold" lengthAdjust="spacing" textLength="19" x="681" y="816.8193">alt</text><text fill="#000000" font-family="Verdana" font-size="11" font-weight="bold" lengthAdjust="spacing" textLength="109" x="745" y="815.8086">[Has Customers]</text><polygon fill="#000000" points="1096.5,838.3481,1106.5,842.3481,1096.5,846.3481,1100.5,842.3481" style="stroke:#000000;stroke-width:1.0;"/><line style="stroke:#000000;stroke-width:1.0;" x1="805.5" x2="1102.5" y1="842.3481" y2="842.3481"/><text fill="#000000" font-family="Verdana" font-size="13" lengthAdjust="spacing" textLength="284" x="812.5" y="837.6187">PreprocessProbationClassificationBySport()</text><line style="stroke:#000000;stroke-width:1.0;" x1="1118.5" x2="1160.5" y1="872.1475" y2="872.1475"/><line style="stroke:#000000;stroke-width:1.0;" x1="1160.5" x2="1160.5" y1="872.1475" y2="885.1475"/><line style="stroke:#000000;stroke-width:1.0;" x1="1119.5" x2="1160.5" y1="885.1475" y2="885.1475"/><polygon fill="#000000" points="1129.5,881.1475,1119.5,885.1475,1129.5,889.1475,1125.5,885.1475" style="stroke:#000000;stroke-width:1.0;"/><text fill="#000000" font-family="Verdana" font-size="13" lengthAdjust="spacing" textLength="218" x="1125.5" y="867.418">Convert customers to XML string</text><path d="M1123,898.1475 L1123,939.1475 L1302,939.1475 L1302,908.1475 L1292,898.1475 L1123,898.1475 " fill="#FFFFFF" style="stroke:#000000;stroke-width:1.0;"/><path d="M1292,898.1475 L1292,908.1475 L1302,908.1475 L1292,898.1475 " fill="#FFFFFF" style="stroke:#000000;stroke-width:1.0;"/><text fill="#000000" font-family="Verdana" font-size="13" lengthAdjust="spacing" textLength="158" x="1129" y="916.2173">Serialize CustProbations</text><text fill="#000000" font-family="Verdana" font-size="13" lengthAdjust="spacing" textLength="94" x="1129" y="932.0166">to XML format</text><polygon fill="#000000" points="1461.5,962.5454,1471.5,966.5454,1461.5,970.5454,1465.5,966.5454" style="stroke:#000000;stroke-width:1.0;"/><line style="stroke:#000000;stroke-width:1.0;" x1="1118.5" x2="1467.5" y1="966.5454" y2="966.5454"/><text fill="#000000" font-family="Verdana" font-size="13" lengthAdjust="spacing" textLength="336" x="1125.5" y="961.8159">PreprocessProbationClassificationBySport(custList)</text><line style="stroke:#000000;stroke-width:1.0;" x1="1483.5" x2="1525.5" y1="996.3447" y2="996.3447"/><line style="stroke:#000000;stroke-width:1.0;" x1="1525.5" x2="1525.5" y1="996.3447" y2="1009.3447"/><line style="stroke:#000000;stroke-width:1.0;" x1="1484.5" x2="1525.5" y1="1009.3447" y2="1009.3447"/><polygon fill="#000000" points="1494.5,1005.3447,1484.5,1009.3447,1494.5,1013.3447,1490.5,1009.3447" style="stroke:#000000;stroke-width:1.0;"/><text fill="#000000" font-family="Verdana" font-size="13" lengthAdjust="spacing" textLength="368" x="1490.5" y="991.6152">Create PreprocessProbationClassificationBySportCriteria</text><polygon fill="#000000" points="2249.5,1050.9434,2259.5,1054.9434,2249.5,1058.9434,2253.5,1054.9434" style="stroke:#000000;stroke-width:1.0;"/><line style="stroke:#000000;stroke-width:1.0;" x1="1483.5" x2="2255.5" y1="1054.9434" y2="1054.9434"/><text fill="#000000" font-family="Verdana" font-size="13" lengthAdjust="spacing" textLength="406" x="1490.5" y="1034.4146">EXEC CTS_BySportNormalClassification_Probation_Preprocess</text><text fill="#000000" font-family="Verdana" font-size="13" lengthAdjust="spacing" textLength="109" x="1490.5" y="1050.2139">@CustomersXML</text><path d="M2276,1067.9434 L2276,1171.9434 L2490,1171.9434 L2490,1077.9434 L2480,1067.9434 L2276,1067.9434 " fill="#FFFFFF" style="stroke:#000000;stroke-width:1.0;"/><path d="M2480,1067.9434 L2480,1077.9434 L2490,1077.9434 L2480,1067.9434 " fill="#FFFFFF" style="stroke:#000000;stroke-width:1.0;"/><text fill="#000000" font-family="Verdana" font-size="13" lengthAdjust="spacing" textLength="121" x="2282" y="1086.0132">Stored Procedure:</text><text fill="#000000" font-family="Verdana" font-size="13" lengthAdjust="spacing" textLength="170" x="2282" y="1101.8125">- Parse XML customer list</text><text fill="#000000" font-family="Verdana" font-size="13" lengthAdjust="spacing" textLength="187" x="2282" y="1117.6118">- Remove disabled accounts</text><text fill="#000000" font-family="Verdana" font-size="13" lengthAdjust="spacing" textLength="193" x="2282" y="1133.4111">- Remove inactive customers</text><text fill="#000000" font-family="Verdana" font-size="13" lengthAdjust="spacing" textLength="86" x="2282" y="1149.2104">- Get Priority</text><text fill="#000000" font-family="Verdana" font-size="13" lengthAdjust="spacing" textLength="158" x="2282" y="1165.0098">- Call NormalPool_Insert</text><polygon fill="#000000" points="1494.5,1195.5386,1484.5,1199.5386,1494.5,1203.5386,1490.5,1199.5386" style="stroke:#000000;stroke-width:1.0;"/><line style="stroke:#000000;stroke-width:1.0;stroke-dasharray:2.0,2.0;" x1="1488.5" x2="2265.5" y1="1199.5386" y2="1199.5386"/><text fill="#000000" font-family="Verdana" font-size="13" lengthAdjust="spacing" textLength="55" x="1500.5" y="1194.8091">Success</text><polygon fill="#000000" points="1129.5,1225.3379,1119.5,1229.3379,1129.5,1233.3379,1125.5,1229.3379" style="stroke:#000000;stroke-width:1.0;"/><line style="stroke:#000000;stroke-width:1.0;stroke-dasharray:2.0,2.0;" x1="1123.5" x2="1477.5" y1="1229.3379" y2="1229.3379"/><text fill="#000000" font-family="Verdana" font-size="13" lengthAdjust="spacing" textLength="27" x="1135.5" y="1224.6084">void</text><polygon fill="#000000" points="816.5,1255.1372,806.5,1259.1372,816.5,1263.1372,812.5,1259.1372" style="stroke:#000000;stroke-width:1.0;"/><line style="stroke:#000000;stroke-width:1.0;stroke-dasharray:2.0,2.0;" x1="810.5" x2="1112.5" y1="1259.1372" y2="1259.1372"/><text fill="#000000" font-family="Verdana" font-size="13" lengthAdjust="spacing" textLength="24" x="822.5" y="1254.4077">this</text><polygon fill="#000000" points="1096.5,1284.9365,1106.5,1288.9365,1096.5,1292.9365,1100.5,1288.9365" style="stroke:#000000;stroke-width:1.0;"/><line style="stroke:#000000;stroke-width:1.0;" x1="805.5" x2="1102.5" y1="1288.9365" y2="1288.9365"/><text fill="#000000" font-family="Verdana" font-size="13" lengthAdjust="spacing" textLength="267" x="812.5" y="1284.207">UpdateCompleteProbationScanBySport()</text><polygon fill="#000000" points="1863.5,1314.7358,1873.5,1318.7358,1863.5,1322.7358,1867.5,1318.7358" style="stroke:#000000;stroke-width:1.0;"/><line style="stroke:#000000;stroke-width:1.0;" x1="1118.5" x2="1869.5" y1="1318.7358" y2="1318.7358"/><text fill="#000000" font-family="Verdana" font-size="13" lengthAdjust="spacing" textLength="409" x="1125.5" y="1314.0063">UpdateTimingExecutionForCTS(LastCustID, ParameterID=169)</text><polygon fill="#000000" points="2122.5,1376.1338,2132.5,1380.1338,2122.5,1384.1338,2126.5,1380.1338" style="stroke:#000000;stroke-width:1.0;"/><line style="stroke:#000000;stroke-width:1.0;" x1="1885.5" x2="2128.5" y1="1380.1338" y2="1380.1338"/><text fill="#000000" font-family="Verdana" font-size="13" lengthAdjust="spacing" textLength="173" x="1892.5" y="1343.8057">UPDATE SystemParameter</text><text fill="#000000" font-family="Verdana" font-size="13" lengthAdjust="spacing" textLength="225" x="1892.5" y="1359.605">SET ParameterValue = LastCustID</text><text fill="#000000" font-family="Verdana" font-size="13" lengthAdjust="spacing" textLength="175" x="1892.5" y="1375.4043">WHERE ParameterID = 169</text><polygon fill="#000000" points="1129.5,1405.9331,1119.5,1409.9331,1129.5,1413.9331,1125.5,1409.9331" style="stroke:#000000;stroke-width:1.0;"/><line style="stroke:#000000;stroke-width:1.0;stroke-dasharray:2.0,2.0;" x1="1123.5" x2="1879.5" y1="1409.9331" y2="1409.9331"/><text fill="#000000" font-family="Verdana" font-size="13" lengthAdjust="spacing" textLength="27" x="1135.5" y="1405.2036">void</text><polygon fill="#000000" points="816.5,1435.7324,806.5,1439.7324,816.5,1443.7324,812.5,1439.7324" style="stroke:#000000;stroke-width:1.0;"/><line style="stroke:#000000;stroke-width:1.0;stroke-dasharray:2.0,2.0;" x1="810.5" x2="1112.5" y1="1439.7324" y2="1439.7324"/><text fill="#000000" font-family="Verdana" font-size="13" lengthAdjust="spacing" textLength="101" x="822.5" y="1435.0029">true (continue)</text><line style="stroke:#000000;stroke-width:1.0;stroke-dasharray:2.0,2.0;" x1="666" x2="2500" y1="1448.7324" y2="1448.7324"/><text fill="#000000" font-family="Verdana" font-size="11" font-weight="bold" lengthAdjust="spacing" textLength="102" x="671" y="1459.7915">[No Customers]</text><polygon fill="#000000" points="1096.5,1480.9004,1106.5,1484.9004,1096.5,1488.9004,1100.5,1484.9004" style="stroke:#000000;stroke-width:1.0;"/><line style="stroke:#000000;stroke-width:1.0;" x1="805.5" x2="1102.5" y1="1484.9004" y2="1484.9004"/><text fill="#000000" font-family="Verdana" font-size="13" lengthAdjust="spacing" textLength="267" x="812.5" y="1480.1709">UpdateCompleteProbationScanBySport()</text><polygon fill="#000000" points="1863.5,1510.6997,1873.5,1514.6997,1863.5,1518.6997,1867.5,1514.6997" style="stroke:#000000;stroke-width:1.0;"/><line style="stroke:#000000;stroke-width:1.0;" x1="1118.5" x2="1869.5" y1="1514.6997" y2="1514.6997"/><text fill="#000000" font-family="Verdana" font-size="13" lengthAdjust="spacing" textLength="228" x="1125.5" y="1509.9702">UpdateTimingExecutionForCTS(...)</text><polygon fill="#000000" points="2122.5,1540.499,2132.5,1544.499,2122.5,1548.499,2126.5,1544.499" style="stroke:#000000;stroke-width:1.0;"/><line style="stroke:#000000;stroke-width:1.0;" x1="1885.5" x2="2128.5" y1="1544.499" y2="1544.499"/><text fill="#000000" font-family="Verdana" font-size="13" lengthAdjust="spacing" textLength="173" x="1892.5" y="1539.7695">UPDATE SystemParameter</text><polygon fill="#000000" points="1129.5,1570.2983,1119.5,1574.2983,1129.5,1578.2983,1125.5,1574.2983" style="stroke:#000000;stroke-width:1.0;"/><line style="stroke:#000000;stroke-width:1.0;stroke-dasharray:2.0,2.0;" x1="1123.5" x2="1879.5" y1="1574.2983" y2="1574.2983"/><text fill="#000000" font-family="Verdana" font-size="13" lengthAdjust="spacing" textLength="27" x="1135.5" y="1569.5688">void</text><polygon fill="#000000" points="816.5,1600.0977,806.5,1604.0977,816.5,1608.0977,812.5,1604.0977" style="stroke:#000000;stroke-width:1.0;"/><line style="stroke:#000000;stroke-width:1.0;stroke-dasharray:2.0,2.0;" x1="810.5" x2="1112.5" y1="1604.0977" y2="1604.0977"/><text fill="#000000" font-family="Verdana" font-size="13" lengthAdjust="spacing" textLength="77" x="822.5" y="1599.3682">false (stop)</text><polygon fill="#000000" points="579,1643.897,569,1647.897,579,1651.897,575,1647.897" style="stroke:#000000;stroke-width:1.0;"/><line style="stroke:#000000;stroke-width:1.0;stroke-dasharray:2.0,2.0;" x1="573" x2="799.5" y1="1647.897" y2="1647.897"/><text fill="#000000" font-family="Verdana" font-size="13" lengthAdjust="spacing" textLength="120" x="585" y="1643.1675">Task&lt;bool&gt; (true)</text><polygon fill="#000000" points="73,1689.4956,63,1693.4956,73,1697.4956,69,1693.4956" style="stroke:#000000;stroke-width:1.0;"/><line style="stroke:#000000;stroke-width:1.0;stroke-dasharray:2.0,2.0;" x1="67" x2="562" y1="1693.4956" y2="1693.4956"/><text fill="#000000" font-family="Verdana" font-size="13" lengthAdjust="spacing" textLength="87" x="79" y="1672.9668">HTTP 200 OK</text><text fill="#000000" font-family="Verdana" font-size="13" lengthAdjust="spacing" textLength="154" x="79" y="1688.7661">{ success: true/false }</text><!--SRC=[pLTTRzis57tNhxZBammqITU7OJFQOhNiDjwInhEKji0y6BJ4nCHeKYMfeDxG_xvBMPQeBzjjCMm64bZclUT-7HvItvartL18EM72Cynm2ZCbLyGmAI3WH6jsp-BTusWBOIgLWNC8wSUCYfZ2c947HJQUHs8Z5Ppz8bSGnckQP9ogXV0ddmnLWl316H1ThNWfKOR5B2N2m5azpcYRHq6aXGYaC4fozCZzgySwG9bo9z9285P8rIEBQGvJFNuPZ8lnLG1ZOiYhEAPQvnZLOnqct6f3DpE2ZQN6jh7XX-lvekEVuDSLqHJERhRXRzVOkIXSslM02bDqRpnopD0ehy72hsIoMhwRFxkH2UMvAJwWjLVE2yvVEiqVmkmsZE2IfEmoxfcTlWnZ8Wutn9A6FH93tS5wrNSRjPhL42QVQ9mPwWygHsUK7fSoXR4yVxzcI6EVQOl4H4O77k2dChMu9MXeiFN-pgI4tMFQ7_D_NPvJmGmZdFtbx9cYihoJTST6BMRDT6wGqFweFIc_eQOCQBlSsTmlAQaYqbU2EqmiyQlVcY42HQtJIP42nP2_ZEIGGgAROWzh0_A-6TH-418QksTOBfv3-UDq32_W-nz-17z4JBmESOQ30tO_WNzDj0aoRQRZdI4LIPvERxqZvEk7IG3vHWoMrhTUuBAeS5bhmX9BM8YVPRgi8iBjNJIxYnej7tMrP5HM4Q8UqyGoCyOzhAZR1zkcj9Jv68F83LNQiNZDE9OFgorKQJo100C_IBMTZdjDRGs29jWC-gGOTFxGwP0NGq4ROZ8t-foQJ0aaIX4txzCR9RFKCRhDJ9gPePDWUp3ZKRxnNFBDgSwu2Ibw7cVV10N4R7__Oo4QKPnTM_IynG5tn_RhWmlKiOc-IJu8Dt1bZytMW7k4PQPeQlcYzM7XzglDqXczpA1FEb6PyUGn5VN0IFXmSurKK4mybBvrTZT35EY51jigoxHrpQW0lvTgGqovKcDANyekTKvkZothccdJqQOEqIg_75NCKnEeYMOREJ_T7NaglDxQzl26I9M1bbLmrAUIKjZNTf6xwqFt4EjhXvMgL6EyiTW1xka279lRi9hJZKGjIPWcAuvm98vb9epkDcEYq9ws-5KIELDCOYUtZQM0S0wxPisavCkfqCZbVbhb5RTqACpgB70sShr5dKDqDzEZP4aNp26g7TML0zfI0-fHahiKhveqa9kKupbQ4zflrP3MvNSVBM8Rr8xT9H5ZlPOAoUsxvvTphh_0KxqhW_RLkioXjRG_v-zcurVH15hNzd0ILI7V4PvHl4rK-Ip4-wl9VDA-RHmCUSha3rHnd04Aq_JZsjNv01aenxtvLfv-nln_c75nSV7lCk0_dUCziPFnSIhfyI6AnBD_dZkpnYjVHFIVprUeTo_1jnmPU0wO-nhclh_P8lVla4EuYg8PF7lw56v_NOY_GMV5a2pSvIxVpowgyrRu3m00]--></g></svg>