<svg xmlns="http://www.w3.org/2000/svg" xmlns:xlink="http://www.w3.org/1999/xlink" contentStyleType="text/css" height="1863px" preserveAspectRatio="none" style="width:1933px;height:1863px;background:#FFFFFF;" version="1.1" viewBox="0 0 1933 1863" width="1933px" zoomAndPan="magnify"><defs/><g><text fill="#000000" font-family="Verdana" font-size="22" font-weight="bold" lengthAdjust="spacing" textLength="673" x="628.5" y="37.1182">Realtime Classification By Sport - Main Business Flow</text><ellipse cx="958" cy="62.7373" fill="#FFFFFF" rx="10" ry="10" style="stroke:#000000;stroke-width:1.0;"/><path d="M1071.5,89.23 L1071.5,106.0293 L1051.5,110.0293 L1071.5,114.0293 L1071.5,130.8286 A0,0 0 0 0 1071.5,130.8286 L1589.5,130.8286 A0,0 0 0 0 1589.5,130.8286 L1589.5,99.23 L1579.5,89.23 L1071.5,89.23 A0,0 0 0 0 1071.5,89.23 " fill="#FFFFFF" style="stroke:#000000;stroke-width:1.0;"/><path d="M1579.5,89.23 L1579.5,99.23 L1589.5,99.23 L1579.5,89.23 " fill="#FFFFFF" style="stroke:#000000;stroke-width:1.0;"/><text fill="#000000" font-family="Verdana" font-size="13" lengthAdjust="spacing" textLength="497" x="1077.5" y="107.2998">Endpoint: /api/classificationBySportJobs/ScanRealtimeClassificationBySport</text><text fill="#000000" font-family="Verdana" font-size="13" lengthAdjust="spacing" textLength="300" x="1077.5" y="123.0991">Parameter: batchInternalSize (default: 5000)</text><rect fill="#FFFFFF" height="34.584" rx="12.5" ry="12.5" style="stroke:#000000;stroke-width:1.0;" width="187" x="864.5" y="92.7373"/><text fill="#000000" font-family="Verdana" font-size="12" lengthAdjust="spacing" textLength="167" x="874.5" y="114.8018">Job Triggered (HTTP POST)</text><rect fill="#FFFFFF" height="34.584" rx="12.5" ry="12.5" style="stroke:#000000;stroke-width:1.0;" width="446" x="735" y="150.8286"/><text fill="#000000" font-family="Verdana" font-size="12" lengthAdjust="spacing" textLength="426" x="745" y="172.8931">RealtimeClassificationBySportJobService.Execute(batchInternalSize)</text><rect fill="#FFFFFF" height="34.584" rx="12.5" ry="12.5" style="stroke:#000000;stroke-width:1.0;" width="61" x="927.5" y="205.4126"/><text fill="#000000" font-family="Verdana" font-size="12" lengthAdjust="spacing" textLength="41" x="937.5" y="227.4771">Start()</text><rect fill="#FFFFFF" height="34.584" rx="12.5" ry="12.5" style="stroke:#000000;stroke-width:1.0;" width="350" x="783" y="259.9966"/><text fill="#000000" font-family="Verdana" font-size="12" lengthAdjust="spacing" textLength="330" x="793" y="282.061">Initialize customers and customerCategories models</text><rect fill="#FFFFFF" height="34.584" rx="12.5" ry="12.5" style="stroke:#000000;stroke-width:1.0;" width="202" x="857" y="314.5806"/><text fill="#000000" font-family="Verdana" font-size="12" lengthAdjust="spacing" textLength="182" x="867" y="336.645">GetNewPlaceBetCustomers()</text><path d="M1195,359.1646 L1195,447.0608 L1175,451.0608 L1195,455.0608 L1195,542.957 A0,0 0 0 0 1195,542.957 L1748,542.957 A0,0 0 0 0 1748,542.957 L1748,369.1646 L1738,359.1646 L1195,359.1646 A0,0 0 0 0 1195,359.1646 " fill="#FFFFFF" style="stroke:#000000;stroke-width:1.0;"/><path d="M1738,359.1646 L1738,369.1646 L1748,369.1646 L1738,359.1646 " fill="#FFFFFF" style="stroke:#000000;stroke-width:1.0;"/><text fill="#000000" font-family="Verdana" font-size="13" lengthAdjust="spacing" textLength="267" x="1201" y="377.2344">Database: bodb_VR2Model (SQL Server)</text><text fill="#000000" font-family="Verdana" font-size="13" lengthAdjust="spacing" textLength="80" x="1201" y="393.0337">Parameters:</text><text fill="#000000" font-family="Verdana" font-size="13" lengthAdjust="spacing" textLength="192" x="1201" y="408.833">- @ScannedMaxId (OUTPUT)</text><text fill="#000000" font-family="Verdana" font-size="13" lengthAdjust="spacing" textLength="40" x="1201" y="424.6323">Logic:</text><text fill="#000000" font-family="Verdana" font-size="13" lengthAdjust="spacing" textLength="532" x="1201" y="440.4316">- Get TOP 20000 records from CustomerClassification_BySport_RealtimeChanges</text><text fill="#000000" font-family="Verdana" font-size="13" lengthAdjust="spacing" textLength="120" x="1201" y="456.231">- Order by ID ASC</text><text fill="#000000" font-family="Verdana" font-size="13" lengthAdjust="spacing" textLength="194" x="1201" y="472.0303">- Return: CustID, SportGroup</text><text fill="#000000" font-family="Verdana" font-size="13" lengthAdjust="spacing" textLength="230" x="1201" y="487.8296">- Output: ScannedMaxId (MAX ID)</text><text fill="#000000" font-family="Verdana" font-size="13" lengthAdjust="spacing" textLength="56" x="1201" y="503.6289">Returns:</text><text fill="#000000" font-family="Verdana" font-size="13" lengthAdjust="spacing" textLength="311" x="1201" y="519.4282">- CustomerNewPlaceBets (CustID, SportGroup)</text><text fill="#000000" font-family="Verdana" font-size="13" lengthAdjust="spacing" textLength="108" x="1201" y="535.2275">- ScannedMaxId</text><rect fill="#FFFFFF" height="34.584" rx="12.5" ry="12.5" style="stroke:#000000;stroke-width:1.0;" width="434" x="741" y="433.7688"/><text fill="#000000" font-family="Verdana" font-size="12" lengthAdjust="spacing" textLength="414" x="751" y="455.8333">Call CTS_BySportNormalClassification_RealTime_GetChanges [SP]</text><path d="M649.5,552.957 L649.5,578.7563 L899.5,578.7563 L899.5,562.957 L889.5,552.957 L649.5,552.957 " fill="#FFFFFF" style="stroke:#000000;stroke-width:1.0;"/><path d="M889.5,552.957 L889.5,562.957 L899.5,562.957 L889.5,552.957 " fill="#FFFFFF" style="stroke:#000000;stroke-width:1.0;"/><text fill="#000000" font-family="Verdana" font-size="13" lengthAdjust="spacing" textLength="229" x="655.5" y="571.0269">No customers with new place bets</text><rect fill="#FFFFFF" height="34.584" rx="12.5" ry="12.5" style="stroke:#000000;stroke-width:1.0;" width="263" x="826.5" y="627.4407"/><text fill="#000000" font-family="Verdana" font-size="12" lengthAdjust="spacing" textLength="243" x="836.5" y="649.5051">Chunk customers by batchInternalSize</text><rect fill="#FFFFFF" height="34.584" rx="12.5" ry="12.5" style="stroke:#000000;stroke-width:1.0;" width="232" x="842" y="736.6086"/><text fill="#000000" font-family="Verdana" font-size="12" lengthAdjust="spacing" textLength="212" x="852" y="758.6731">GetCustomerCategory(custBatch)</text><path d="M1204.5,781.1926 L1204.5,869.0889 L1184.5,873.0889 L1204.5,877.0889 L1204.5,964.9851 A0,0 0 0 0 1204.5,964.9851 L1677.5,964.9851 A0,0 0 0 0 1677.5,964.9851 L1677.5,791.1926 L1667.5,781.1926 L1204.5,781.1926 A0,0 0 0 0 1204.5,781.1926 " fill="#FFFFFF" style="stroke:#000000;stroke-width:1.0;"/><path d="M1667.5,781.1926 L1667.5,791.1926 L1677.5,791.1926 L1667.5,781.1926 " fill="#FFFFFF" style="stroke:#000000;stroke-width:1.0;"/><text fill="#000000" font-family="Verdana" font-size="13" lengthAdjust="spacing" textLength="80" x="1210.5" y="799.2625">Parameters:</text><text fill="#000000" font-family="Verdana" font-size="13" lengthAdjust="spacing" textLength="161" x="1210.5" y="815.0618">- ip_CustInfoList (JSON)</text><text fill="#000000" font-family="Verdana" font-size="13" lengthAdjust="spacing" textLength="40" x="1210.5" y="830.8611">Logic:</text><text fill="#000000" font-family="Verdana" font-size="13" lengthAdjust="spacing" textLength="177" x="1210.5" y="846.6604">- Parse JSON customer list</text><text fill="#000000" font-family="Verdana" font-size="13" lengthAdjust="spacing" textLength="452" x="1210.5" y="862.4597">- Get current classification from CTSCustomerClassification_BySport</text><text fill="#000000" font-family="Verdana" font-size="13" lengthAdjust="spacing" textLength="161" x="1210.5" y="878.259">- Categorize customers:</text><text fill="#000000" font-family="Verdana" font-size="13" lengthAdjust="spacing" textLength="237" x="1220.5" y="894.0583">* NULL or Normal: CustomerNormals</text><text fill="#000000" font-family="Verdana" font-size="13" lengthAdjust="spacing" textLength="290" x="1220.5" y="909.8577">* PA or PotentialPA: CustomerPADailyScans</text><text fill="#000000" font-family="Verdana" font-size="13" lengthAdjust="spacing" textLength="56" x="1210.5" y="925.657">Returns:</text><text fill="#000000" font-family="Verdana" font-size="13" lengthAdjust="spacing" textLength="357" x="1210.5" y="941.4563">- ResultSet 1: CustomerNormals (CustID, SportGroup)</text><text fill="#000000" font-family="Verdana" font-size="13" lengthAdjust="spacing" textLength="394" x="1210.5" y="957.2556">- ResultSet 2: CustomerPADailyScans (CustID, SportGroup)</text><rect fill="#FFFFFF" height="34.584" rx="12.5" ry="12.5" style="stroke:#000000;stroke-width:1.0;" width="453" x="731.5" y="855.7969"/><text fill="#000000" font-family="Verdana" font-size="12" lengthAdjust="spacing" textLength="433" x="741.5" y="877.8613">Call CTS_DC_CustClassification_BySport_Realtime_GetCategory [SP]</text><rect fill="#FFFFFF" height="34.584" rx="12.5" ry="12.5" style="stroke:#000000;stroke-width:1.0;" width="115" x="900.5" y="682.0247"/><text fill="#000000" font-family="Verdana" font-size="12" lengthAdjust="spacing" textLength="95" x="910.5" y="704.0891">For each chunk</text><polygon fill="#FFFFFF" points="919,984.9851,997,984.9851,1009,996.9851,997,1008.9851,919,1008.9851,907,996.9851,919,984.9851" style="stroke:#000000;stroke-width:1.0;"/><text fill="#000000" font-family="Verdana" font-size="11" lengthAdjust="spacing" textLength="78" x="919" y="1001.3599">More chunks?</text><rect fill="#FFFFFF" height="34.584" rx="12.5" ry="12.5" style="stroke:#000000;stroke-width:1.0;" width="138" x="889" y="1028.9851"/><text fill="#000000" font-family="Verdana" font-size="12" lengthAdjust="spacing" textLength="118" x="899" y="1051.0496">Parallel Processing</text><rect fill="#000000" height="6" rx="2.5" ry="2.5" style="stroke:#000000;stroke-width:1.0;" width="1896" x="6" y="1083.5691"/><rect fill="#FFFFFF" height="34.584" rx="12.5" ry="12.5" style="stroke:#000000;stroke-width:1.0;" width="360" x="51" y="1109.5691"/><text fill="#000000" font-family="Verdana" font-size="12" lengthAdjust="spacing" textLength="340" x="61" y="1131.6335">PreprocessCustomerClassRealtime(batchInternalSize)</text><rect fill="#FFFFFF" height="34.584" rx="12.5" ry="12.5" style="stroke:#000000;stroke-width:1.0;" width="310" x="76" y="1179.1531"/><text fill="#000000" font-family="Verdana" font-size="12" lengthAdjust="spacing" textLength="290" x="86" y="1201.2175">Chunk CustomerNormals by batchInternalSize</text><path d="M464,1309.1204 L464,1373.3176 L444,1377.3176 L464,1381.3176 L464,1445.5149 A0,0 0 0 0 464,1445.5149 L872,1445.5149 A0,0 0 0 0 872,1445.5149 L872,1319.1204 L862,1309.1204 L464,1309.1204 A0,0 0 0 0 464,1309.1204 " fill="#FFFFFF" style="stroke:#000000;stroke-width:1.0;"/><path d="M862,1309.1204 L862,1319.1204 L872,1319.1204 L862,1309.1204 " fill="#FFFFFF" style="stroke:#000000;stroke-width:1.0;"/><text fill="#000000" font-family="Verdana" font-size="13" lengthAdjust="spacing" textLength="267" x="470" y="1327.1902">Database: bodb_VR2Model (SQL Server)</text><text fill="#000000" font-family="Verdana" font-size="13" lengthAdjust="spacing" textLength="80" x="470" y="1342.9895">Parameters:</text><text fill="#000000" font-family="Verdana" font-size="13" lengthAdjust="spacing" textLength="165" x="470" y="1358.7888">- @CustomersXML (XML)</text><text fill="#000000" font-family="Verdana" font-size="13" lengthAdjust="spacing" textLength="40" x="470" y="1374.5881">Logic:</text><text fill="#000000" font-family="Verdana" font-size="13" lengthAdjust="spacing" textLength="170" x="470" y="1390.3875">- Parse XML customer list</text><text fill="#000000" font-family="Verdana" font-size="13" lengthAdjust="spacing" textLength="387" x="470" y="1406.1868">- Get Priority from CustomerClassification_BySport_Priority</text><text fill="#000000" font-family="Verdana" font-size="13" lengthAdjust="spacing" textLength="383" x="470" y="1421.9861">- Call CTS_BySportNormalClassification_NormalPool_Insert</text><text fill="#000000" font-family="Verdana" font-size="13" lengthAdjust="spacing" textLength="348" x="470" y="1437.7854">- Insert customers into Normal Pool for classification</text><rect fill="#FFFFFF" height="34.584" rx="12.5" ry="12.5" style="stroke:#000000;stroke-width:1.0;" width="426" x="18" y="1360.0256"/><text fill="#000000" font-family="Verdana" font-size="12" lengthAdjust="spacing" textLength="406" x="28" y="1382.0901">Call CTS_BySportNormalClassification_RealTime_Preprocess [SP]</text><rect fill="#FFFFFF" height="34.584" rx="12.5" ry="12.5" style="stroke:#000000;stroke-width:1.0;" width="115" x="173.5" y="1248.7371"/><text fill="#000000" font-family="Verdana" font-size="12" lengthAdjust="spacing" textLength="95" x="183.5" y="1270.8015">For each chunk</text><polygon fill="#FFFFFF" points="192,1481.3142,270,1481.3142,282,1493.3142,270,1505.3142,192,1505.3142,180,1493.3142,192,1481.3142" style="stroke:#000000;stroke-width:1.0;"/><text fill="#000000" font-family="Verdana" font-size="11" lengthAdjust="spacing" textLength="78" x="192" y="1497.689">More chunks?</text><rect fill="#FFFFFF" height="34.584" rx="12.5" ry="12.5" style="stroke:#000000;stroke-width:1.0;" width="297" x="1020.5" y="1125.3684"/><text fill="#000000" font-family="Verdana" font-size="12" lengthAdjust="spacing" textLength="277" x="1030.5" y="1147.4329">InsertPADailyScanQueue(batchInternalSize)</text><rect fill="#FFFFFF" height="34.584" rx="12.5" ry="12.5" style="stroke:#000000;stroke-width:1.0;" width="342" x="998" y="1194.9524"/><text fill="#000000" font-family="Verdana" font-size="12" lengthAdjust="spacing" textLength="322" x="1008" y="1217.0168">Chunk CustomerPADailyScans by batchInternalSize</text><path d="M1434,1324.9197 L1434,1373.3176 L1414,1377.3176 L1434,1381.3176 L1434,1429.7156 A0,0 0 0 0 1434,1429.7156 L1874,1429.7156 A0,0 0 0 0 1874,1429.7156 L1874,1334.9197 L1864,1324.9197 L1434,1324.9197 A0,0 0 0 0 1434,1324.9197 " fill="#FFFFFF" style="stroke:#000000;stroke-width:1.0;"/><path d="M1864,1324.9197 L1864,1334.9197 L1874,1334.9197 L1864,1324.9197 " fill="#FFFFFF" style="stroke:#000000;stroke-width:1.0;"/><text fill="#000000" font-family="Verdana" font-size="13" lengthAdjust="spacing" textLength="80" x="1440" y="1342.9895">Parameters:</text><text fill="#000000" font-family="Verdana" font-size="13" lengthAdjust="spacing" textLength="161" x="1440" y="1358.7888">- ip_CustInfoList (JSON)</text><text fill="#000000" font-family="Verdana" font-size="13" lengthAdjust="spacing" textLength="40" x="1440" y="1374.5881">Logic:</text><text fill="#000000" font-family="Verdana" font-size="13" lengthAdjust="spacing" textLength="177" x="1440" y="1390.3875">- Parse JSON customer list</text><text fill="#000000" font-family="Verdana" font-size="13" lengthAdjust="spacing" textLength="419" x="1440" y="1406.1868">- Insert into CTSCustomerClassification_BySport_DailyPAQueue</text><text fill="#000000" font-family="Verdana" font-size="13" lengthAdjust="spacing" textLength="186" x="1440" y="1421.9861">- Set CreatedTime = NOW()</text><rect fill="#FFFFFF" height="34.584" rx="12.5" ry="12.5" style="stroke:#000000;stroke-width:1.0;" width="490" x="924" y="1360.0256"/><text fill="#000000" font-family="Verdana" font-size="12" lengthAdjust="spacing" textLength="470" x="934" y="1382.0901">Call CTS_DC_CustClassification_BySport_DailyScanPA_InsertToQueue [SP]</text><rect fill="#FFFFFF" height="34.584" rx="12.5" ry="12.5" style="stroke:#000000;stroke-width:1.0;" width="115" x="1111.5" y="1264.5364"/><text fill="#000000" font-family="Verdana" font-size="12" lengthAdjust="spacing" textLength="95" x="1121.5" y="1286.6008">For each chunk</text><polygon fill="#FFFFFF" points="1130,1465.5149,1208,1465.5149,1220,1477.5149,1208,1489.5149,1130,1489.5149,1118,1477.5149,1130,1465.5149" style="stroke:#000000;stroke-width:1.0;"/><text fill="#000000" font-family="Verdana" font-size="11" lengthAdjust="spacing" textLength="78" x="1130" y="1481.8896">More chunks?</text><rect fill="#000000" height="6" rx="2.5" ry="2.5" style="stroke:#000000;stroke-width:1.0;" width="1896" x="6" y="1525.3142"/><polygon fill="#FFFFFF" points="911.5,578.7563,1004.5,578.7563,1016.5,590.7563,1004.5,602.7563,911.5,602.7563,899.5,590.7563,911.5,578.7563" style="stroke:#000000;stroke-width:1.0;"/><text fill="#000000" font-family="Verdana" font-size="11" lengthAdjust="spacing" textLength="20" x="962" y="613.8154">yes</text><text fill="#000000" font-family="Verdana" font-size="11" lengthAdjust="spacing" textLength="93" x="911.5" y="595.1311">Has Customers?</text><text fill="#000000" font-family="Verdana" font-size="11" lengthAdjust="spacing" textLength="14" x="1016.5" y="588.4468">no</text><polygon fill="#FFFFFF" points="958,1551.3142,970,1563.3142,958,1575.3142,946,1563.3142,958,1551.3142" style="stroke:#000000;stroke-width:1.0;"/><rect fill="#FFFFFF" height="34.584" rx="12.5" ry="12.5" style="stroke:#000000;stroke-width:1.0;" width="205" x="855.5" y="1595.3142"/><text fill="#000000" font-family="Verdana" font-size="12" lengthAdjust="spacing" textLength="185" x="865.5" y="1617.3787">CompleteCustomerRealtime()</text><path d="M1186,1639.8982 L1186,1696.1958 L1166,1700.1958 L1186,1704.1958 L1186,1760.4934 A0,0 0 0 0 1186,1760.4934 L1681,1760.4934 A0,0 0 0 0 1681,1760.4934 L1681,1649.8982 L1671,1639.8982 L1186,1639.8982 A0,0 0 0 0 1186,1639.8982 " fill="#FFFFFF" style="stroke:#000000;stroke-width:1.0;"/><path d="M1671,1639.8982 L1671,1649.8982 L1681,1649.8982 L1671,1639.8982 " fill="#FFFFFF" style="stroke:#000000;stroke-width:1.0;"/><text fill="#000000" font-family="Verdana" font-size="13" lengthAdjust="spacing" textLength="267" x="1192" y="1657.968">Database: bodb_VR2Model (SQL Server)</text><text fill="#000000" font-family="Verdana" font-size="13" lengthAdjust="spacing" textLength="80" x="1192" y="1673.7673">Parameters:</text><text fill="#000000" font-family="Verdana" font-size="13" lengthAdjust="spacing" textLength="121" x="1192" y="1689.5667">- @ScannedMaxId</text><text fill="#000000" font-family="Verdana" font-size="13" lengthAdjust="spacing" textLength="40" x="1192" y="1705.366">Logic:</text><text fill="#000000" font-family="Verdana" font-size="13" lengthAdjust="spacing" textLength="474" x="1192" y="1721.1653">- Delete records from CustomerClassification_BySport_RealtimeChanges</text><text fill="#000000" font-family="Verdana" font-size="13" lengthAdjust="spacing" textLength="214" x="1192" y="1736.9646">- WHERE ID &lt;= @ScannedMaxId</text><text fill="#000000" font-family="Verdana" font-size="13" lengthAdjust="spacing" textLength="301" x="1192" y="1752.7639">- This marks processed records as completed</text><rect fill="#FFFFFF" height="34.584" rx="12.5" ry="12.5" style="stroke:#000000;stroke-width:1.0;" width="416" x="750" y="1682.9038"/><text fill="#000000" font-family="Verdana" font-size="12" lengthAdjust="spacing" textLength="396" x="760" y="1704.9683">Call CTS_BySportNormalClassification_RealTime_Complete [SP]</text><rect fill="#FFFFFF" height="34.584" rx="12.5" ry="12.5" style="stroke:#000000;stroke-width:1.0;" width="116" x="900" y="1780.4934"/><text fill="#000000" font-family="Verdana" font-size="12" lengthAdjust="spacing" textLength="96" x="910" y="1802.5579">Return Success</text><ellipse cx="958" cy="1846.0774" fill="none" rx="11" ry="11" style="stroke:#000000;stroke-width:1.0;"/><ellipse cx="958" cy="1846.0774" fill="#FFFFFF" rx="6" ry="6" style="stroke:#000000;stroke-width:1.0;"/><line style="stroke:#000000;stroke-width:1.0;" x1="958" x2="958" y1="72.7373" y2="92.7373"/><polygon fill="#000000" points="954,82.7373,958,92.7373,962,82.7373,958,86.7373" style="stroke:#000000;stroke-width:1.0;"/><line style="stroke:#000000;stroke-width:1.0;" x1="958" x2="958" y1="127.3213" y2="150.8286"/><polygon fill="#000000" points="954,140.8286,958,150.8286,962,140.8286,958,144.8286" style="stroke:#000000;stroke-width:1.0;"/><line style="stroke:#000000;stroke-width:1.0;" x1="958" x2="958" y1="185.4126" y2="205.4126"/><polygon fill="#000000" points="954,195.4126,958,205.4126,962,195.4126,958,199.4126" style="stroke:#000000;stroke-width:1.0;"/><line style="stroke:#000000;stroke-width:1.0;" x1="958" x2="958" y1="239.9966" y2="259.9966"/><polygon fill="#000000" points="954,249.9966,958,259.9966,962,249.9966,958,253.9966" style="stroke:#000000;stroke-width:1.0;"/><line style="stroke:#000000;stroke-width:1.0;" x1="958" x2="958" y1="294.5806" y2="314.5806"/><polygon fill="#000000" points="954,304.5806,958,314.5806,962,304.5806,958,308.5806" style="stroke:#000000;stroke-width:1.0;"/><line style="stroke:#000000;stroke-width:1.0;" x1="958" x2="958" y1="349.1646" y2="433.7688"/><polygon fill="#000000" points="954,423.7688,958,433.7688,962,423.7688,958,427.7688" style="stroke:#000000;stroke-width:1.0;"/><line style="stroke:#000000;stroke-width:1.0;" x1="958" x2="958" y1="771.1926" y2="855.7969"/><polygon fill="#000000" points="954,845.7969,958,855.7969,962,845.7969,958,849.7969" style="stroke:#000000;stroke-width:1.0;"/><line style="stroke:#000000;stroke-width:1.0;" x1="958" x2="958" y1="716.6086" y2="736.6086"/><polygon fill="#000000" points="954,726.6086,958,736.6086,962,726.6086,958,730.6086" style="stroke:#000000;stroke-width:1.0;"/><line style="stroke:#000000;stroke-width:1.0;" x1="1009" x2="1689.5" y1="996.9851" y2="996.9851"/><polygon fill="#000000" points="1685.5,845.6509,1689.5,835.6509,1693.5,845.6509,1689.5,841.6509" style="stroke:#000000;stroke-width:1.0;"/><line style="stroke:#000000;stroke-width:1.0;" x1="1689.5" x2="1689.5" y1="699.3167" y2="996.9851"/><line style="stroke:#000000;stroke-width:1.0;" x1="1689.5" x2="1015.5" y1="699.3167" y2="699.3167"/><polygon fill="#000000" points="1025.5,695.3167,1015.5,699.3167,1025.5,703.3167,1021.5,699.3167" style="stroke:#000000;stroke-width:1.0;"/><line style="stroke:#000000;stroke-width:1.0;" x1="958" x2="958" y1="890.3809" y2="984.9851"/><polygon fill="#000000" points="954,974.9851,958,984.9851,962,974.9851,958,978.9851" style="stroke:#000000;stroke-width:1.0;"/><line style="stroke:#000000;stroke-width:1.0;" x1="958" x2="958" y1="662.0247" y2="682.0247"/><polygon fill="#000000" points="954,672.0247,958,682.0247,962,672.0247,958,676.0247" style="stroke:#000000;stroke-width:1.0;"/><line style="stroke:#000000;stroke-width:1.0;" x1="958" x2="958" y1="1008.9851" y2="1028.9851"/><polygon fill="#000000" points="954,1018.9851,958,1028.9851,962,1018.9851,958,1022.9851" style="stroke:#000000;stroke-width:1.0;"/><line style="stroke:#000000;stroke-width:1.0;" x1="231" x2="231" y1="1144.1531" y2="1179.1531"/><polygon fill="#000000" points="227,1169.1531,231,1179.1531,235,1169.1531,231,1173.1531" style="stroke:#000000;stroke-width:1.0;"/><line style="stroke:#000000;stroke-width:1.0;" x1="231" x2="231" y1="1283.321" y2="1360.0256"/><polygon fill="#000000" points="227,1350.0256,231,1360.0256,235,1350.0256,231,1354.0256" style="stroke:#000000;stroke-width:1.0;"/><line style="stroke:#000000;stroke-width:1.0;" x1="282" x2="884" y1="1493.3142" y2="1493.3142"/><polygon fill="#000000" points="880,1384.6716,884,1374.6716,888,1384.6716,884,1380.6716" style="stroke:#000000;stroke-width:1.0;"/><line style="stroke:#000000;stroke-width:1.0;" x1="884" x2="884" y1="1266.0291" y2="1493.3142"/><line style="stroke:#000000;stroke-width:1.0;" x1="884" x2="288.5" y1="1266.0291" y2="1266.0291"/><polygon fill="#000000" points="298.5,1262.0291,288.5,1266.0291,298.5,1270.0291,294.5,1266.0291" style="stroke:#000000;stroke-width:1.0;"/><line style="stroke:#000000;stroke-width:1.0;" x1="231" x2="231" y1="1394.6096" y2="1481.3142"/><polygon fill="#000000" points="227,1471.3142,231,1481.3142,235,1471.3142,231,1475.3142" style="stroke:#000000;stroke-width:1.0;"/><line style="stroke:#000000;stroke-width:1.0;" x1="231" x2="231" y1="1213.7371" y2="1248.7371"/><polygon fill="#000000" points="227,1238.7371,231,1248.7371,235,1238.7371,231,1242.7371" style="stroke:#000000;stroke-width:1.0;"/><line style="stroke:#000000;stroke-width:1.0;" x1="1169" x2="1169" y1="1159.9524" y2="1194.9524"/><polygon fill="#000000" points="1165,1184.9524,1169,1194.9524,1173,1184.9524,1169,1188.9524" style="stroke:#000000;stroke-width:1.0;"/><line style="stroke:#000000;stroke-width:1.0;" x1="1169" x2="1169" y1="1299.1204" y2="1360.0256"/><polygon fill="#000000" points="1165,1350.0256,1169,1360.0256,1173,1350.0256,1169,1354.0256" style="stroke:#000000;stroke-width:1.0;"/><line style="stroke:#000000;stroke-width:1.0;" x1="1220" x2="1886" y1="1477.5149" y2="1477.5149"/><polygon fill="#000000" points="1882,1384.6716,1886,1374.6716,1890,1384.6716,1886,1380.6716" style="stroke:#000000;stroke-width:1.0;"/><line style="stroke:#000000;stroke-width:1.0;" x1="1886" x2="1886" y1="1281.8284" y2="1477.5149"/><line style="stroke:#000000;stroke-width:1.0;" x1="1886" x2="1226.5" y1="1281.8284" y2="1281.8284"/><polygon fill="#000000" points="1236.5,1277.8284,1226.5,1281.8284,1236.5,1285.8284,1232.5,1281.8284" style="stroke:#000000;stroke-width:1.0;"/><line style="stroke:#000000;stroke-width:1.0;" x1="1169" x2="1169" y1="1394.6096" y2="1465.5149"/><polygon fill="#000000" points="1165,1455.5149,1169,1465.5149,1173,1455.5149,1169,1459.5149" style="stroke:#000000;stroke-width:1.0;"/><line style="stroke:#000000;stroke-width:1.0;" x1="1169" x2="1169" y1="1229.5364" y2="1264.5364"/><polygon fill="#000000" points="1165,1254.5364,1169,1264.5364,1173,1254.5364,1169,1258.5364" style="stroke:#000000;stroke-width:1.0;"/><line style="stroke:#000000;stroke-width:1.0;" x1="231" x2="231" y1="1089.5691" y2="1109.5691"/><polygon fill="#000000" points="227,1099.5691,231,1109.5691,235,1099.5691,231,1103.5691" style="stroke:#000000;stroke-width:1.0;"/><line style="stroke:#000000;stroke-width:1.0;" x1="1169" x2="1169" y1="1089.5691" y2="1125.3684"/><polygon fill="#000000" points="1165,1115.3684,1169,1125.3684,1173,1115.3684,1169,1119.3684" style="stroke:#000000;stroke-width:1.0;"/><line style="stroke:#000000;stroke-width:1.0;" x1="231" x2="231" y1="1505.3142" y2="1525.3142"/><polygon fill="#000000" points="227,1515.3142,231,1525.3142,235,1515.3142,231,1519.3142" style="stroke:#000000;stroke-width:1.0;"/><line style="stroke:#000000;stroke-width:1.0;" x1="1169" x2="1169" y1="1489.5149" y2="1525.3142"/><polygon fill="#000000" points="1165,1515.3142,1169,1525.3142,1173,1515.3142,1169,1519.3142" style="stroke:#000000;stroke-width:1.0;"/><line style="stroke:#000000;stroke-width:1.0;" x1="958" x2="958" y1="1063.5691" y2="1083.5691"/><polygon fill="#000000" points="954,1073.5691,958,1083.5691,962,1073.5691,958,1077.5691" style="stroke:#000000;stroke-width:1.0;"/><line style="stroke:#000000;stroke-width:1.0;" x1="958" x2="958" y1="602.7563" y2="627.4407"/><polygon fill="#000000" points="954,617.4407,958,627.4407,962,617.4407,958,621.4407" style="stroke:#000000;stroke-width:1.0;"/><line style="stroke:#000000;stroke-width:1.0;" x1="1016.5" x2="1912" y1="590.7563" y2="590.7563"/><polygon fill="#000000" points="1908,1038.5781,1912,1048.5781,1916,1038.5781,1912,1042.5781" style="stroke:#000000;stroke-width:1.0;"/><line style="stroke:#000000;stroke-width:1.0;" x1="1912" x2="1912" y1="590.7563" y2="1563.3142"/><line style="stroke:#000000;stroke-width:1.0;" x1="1912" x2="970" y1="1563.3142" y2="1563.3142"/><polygon fill="#000000" points="980,1559.3142,970,1563.3142,980,1567.3142,976,1563.3142" style="stroke:#000000;stroke-width:1.0;"/><line style="stroke:#000000;stroke-width:1.0;" x1="958" x2="958" y1="1531.3142" y2="1551.3142"/><polygon fill="#000000" points="954,1541.3142,958,1551.3142,962,1541.3142,958,1545.3142" style="stroke:#000000;stroke-width:1.0;"/><line style="stroke:#000000;stroke-width:1.0;" x1="958" x2="958" y1="468.3528" y2="578.7563"/><polygon fill="#000000" points="954,568.7563,958,578.7563,962,568.7563,958,572.7563" style="stroke:#000000;stroke-width:1.0;"/><line style="stroke:#000000;stroke-width:1.0;" x1="958" x2="958" y1="1575.3142" y2="1595.3142"/><polygon fill="#000000" points="954,1585.3142,958,1595.3142,962,1585.3142,958,1589.3142" style="stroke:#000000;stroke-width:1.0;"/><line style="stroke:#000000;stroke-width:1.0;" x1="958" x2="958" y1="1629.8982" y2="1682.9038"/><polygon fill="#000000" points="954,1672.9038,958,1682.9038,962,1672.9038,958,1676.9038" style="stroke:#000000;stroke-width:1.0;"/><line style="stroke:#000000;stroke-width:1.0;" x1="958" x2="958" y1="1717.4878" y2="1780.4934"/><polygon fill="#000000" points="954,1770.4934,958,1780.4934,962,1770.4934,958,1774.4934" style="stroke:#000000;stroke-width:1.0;"/><line style="stroke:#000000;stroke-width:1.0;" x1="958" x2="958" y1="1815.0774" y2="1835.0774"/><polygon fill="#000000" points="954,1825.0774,958,1835.0774,962,1825.0774,958,1829.0774" style="stroke:#000000;stroke-width:1.0;"/><!--SRC=[lLTjZzf64FxkNp7zPgfUxtfIlpYDMZ2NX8WNv-nh8bKLMkm1LZ6xrkwwXFxwpleDsxpS9Ofg8J3Bp3Dlpuo77ymMTmXPohXm33SfmYEor70wz5EcDL_pc1ak1OmE46PI6RY16Kd3ADTSeDRm9fLxnz66AUDux-KA8iKt6rIOWFikYW885c4qUEK8QH3efwrnWAu7aMII2-F1BSluRTonDZeKjWXDtuOn4xLJ_Zcf0YvWYktGeF9WnKoydGYw5omD-Ry8Re9hbgTawzUxkxk1Wo81wuxZU5UHoNw8wXyUuyyFNp3E3Redu1IPuuKsUfTk0Ro9u8QprDgDSsta3fK6HXRhRpupk96AeuQTJ33L5k4jcZdkWvJ5E4BZrueLfi_I5FmeN5QEpQNQiRJhyzA64b4eIyBojqnioC1VOV2tHUWb7s3C35inZPGkcQoMVpxUpwmlu8OVfc23HZMeH9lKQgywkO4_R5K49ZFsPK9rNZn5mLDKAqpbXiT7MN87eaK0zvJxEr0OIvLeM2kvWphENYHLbCkcE6Kq3U929QXWTO3968QXtvm_eicLy0hOoVYdah1lbSopesfkifo8qFL_Dln4MBN_9KmhsjhDLeKqkATM1er66vuEZuJZQ-eAfXj8_Vi0g0a5k0VKWwBMsrnyRb67mZmXdIqflHHco0nuRwG2PF4MOgjRE649vNS9Tt0jwCXY5Qmgn1fcZVsbbN-c4WMtAhY6NFOw8TXvvfJPuLbXQoBMSigr0VTzk9WFMY8T1fKwXAKHh62J6qX9kIDagHRdIg6Wp-xyAlaMXTSfrq6h6xNToMsd07w4-TDq2fJ-iYEz8rMAxxed7GojR42v4dP61CEZGZ0SCvuUB77QMZqkrZpNDCr22lQN4ulNUDdNlZzl_Xf4m-I6VVijfyU6EvCAI_uHfKjwUhR-QKfJ9L0ofcS55vkAkMkfAfu615F-sgbCJRYp0xVcRj4f_VWlzOkzgeyhVTDjYXUDssC4dOwuq1DVDNgljL4nXfinycas1PVUkfedVNJi9AjmgP7gLWeK9_gRmuk6TItSmtbHBil3GCfqEH4QLT-Pyh0r56bna5NFWLMpXEfrV0FHecoh-1TeQua9R6FteO8AfULMTtp8CVyALdRwwdjIy_gyRem6mogZaImyVnb5BpFksT5zbNHNntUhq4LvdntMPPJ1i0Yi1sJ7cwyebPZO9eNNC5zyT0VVHWehN4qiX_OraX1oSBfLpMMBeNjkjY1mRvVh6655AqDx4Q0RlgQzpvUxBALCrv4sS-zR5hyQxFzP-yvlUsCiFFWUQzx7Tm-F3tR7- -trMSit46qvBT5CVTPGZM3wrr6RfYqhhXBItS6yyg4AOHvRbLVqvqLcpdy0]--></g></svg>