<svg xmlns="http://www.w3.org/2000/svg" xmlns:xlink="http://www.w3.org/1999/xlink" contentStyleType="text/css" height="2698px" preserveAspectRatio="none" style="width:2513px;height:2698px;background:#FFFFFF;" version="1.1" viewBox="0 0 2513 2698" width="2513px" zoomAndPan="magnify"><defs/><g><text fill="#000000" font-family="Verdana" font-size="22" font-weight="bold" lengthAdjust="spacing" textLength="661" x="929.5" y="37.1182">Realtime Classification By Sport - Sequence Diagram</text><rect fill="#FFFFFF" height="2386.4785" style="stroke:#000000;stroke-width:1.0;" width="10" x="551" y="195.3652"/><rect fill="#FFFFFF" height="2311.0806" style="stroke:#000000;stroke-width:1.0;" width="10" x="784.5" y="225.1646"/><rect fill="#FFFFFF" height="72.5986" style="stroke:#000000;stroke-width:1.0;" width="10" x="1164.5" y="254.9639"/><rect fill="#FFFFFF" height="322.3911" style="stroke:#000000;stroke-width:1.0;" width="10" x="1164.5" y="357.3618"/><rect fill="#FFFFFF" height="455.5884" style="stroke:#000000;stroke-width:1.0;" width="10" x="1164.5" y="734.3516"/><rect fill="#FFFFFF" height="365.3911" style="stroke:#000000;stroke-width:1.0;" width="10" x="1164.5" y="1244.5386"/><rect fill="#FFFFFF" height="349.5918" style="stroke:#000000;stroke-width:1.0;" width="10" x="1164.5" y="1655.0977"/><rect fill="#FFFFFF" height="247.9932" style="stroke:#000000;stroke-width:1.0;" width="10" x="1164.5" y="2041.4888"/><rect fill="#FFFFFF" height="164.7959" style="stroke:#000000;stroke-width:1.0;" width="10" x="1164.5" y="2334.6499"/><rect fill="#FFFFFF" height="262.7925" style="stroke:#000000;stroke-width:1.0;" width="10" x="1540.5" y="387.1611"/><rect fill="#FFFFFF" height="278.5918" style="stroke:#000000;stroke-width:1.0;" width="10" x="1540.5" y="831.7495"/><rect fill="#FFFFFF" height="231.1938" style="stroke:#000000;stroke-width:1.0;" width="10" x="1540.5" y="1341.9365"/><rect fill="#FFFFFF" height="215.3945" style="stroke:#000000;stroke-width:1.0;" width="10" x="1540.5" y="1752.4956"/><rect fill="#FFFFFF" height="188.3945" style="stroke:#000000;stroke-width:1.0;" width="10" x="1540.5" y="2071.2881"/><rect fill="#FFFFFF" height="105.1973" style="stroke:#000000;stroke-width:1.0;" width="10" x="1540.5" y="2364.4492"/><rect fill="#FFFFFF" height="144.5952" style="stroke:#000000;stroke-width:1.0;" width="10" x="2092.5" y="475.5591"/><rect fill="#FFFFFF" height="128.7959" style="stroke:#000000;stroke-width:1.0;" width="10" x="2092.5" y="1414.5352"/><rect fill="#FFFFFF" height="112.9966" style="stroke:#000000;stroke-width:1.0;" width="10" x="2092.5" y="2116.8867"/><rect fill="#FFFFFF" height="29.7993" style="stroke:#000000;stroke-width:1.0;" width="10" x="2092.5" y="2410.0479"/><rect fill="#FFFFFF" height="160.3945" style="stroke:#000000;stroke-width:1.0;" width="10" x="2224.5" y="920.1475"/><rect fill="#FFFFFF" height="112.9966" style="stroke:#000000;stroke-width:1.0;" width="10" x="2224.5" y="1825.0942"/><rect fill="#FFFFFF" height="1812.6929" style="stroke:#000000;stroke-width:1.0;" width="1857" x="649" y="694.7529"/><rect fill="#FFFFFF" height="368.9897" style="stroke:#000000;stroke-width:1.0;" width="1457" x="1039" y="792.1509"/><rect fill="#FFFFFF" height="807.7495" style="stroke:#000000;stroke-width:1.0;" width="1807" x="659" y="1204.9399"/><rect fill="#FFFFFF" height="278.7925" style="stroke:#000000;stroke-width:1.0;" width="1308" x="1039" y="1302.3379"/><rect fill="#FFFFFF" height="394.7598" style="stroke:none;stroke-width:1.0;" width="1807" x="659" y="1617.9297"/><rect fill="#FFFFFF" height="262.9932" style="stroke:#000000;stroke-width:1.0;" width="1417" x="1039" y="1712.897"/><rect fill="#FFFFFF" height="209.9639" style="stroke:none;stroke-width:1.0;" width="1857" x="649" y="2297.4819"/><line style="stroke:#000000;stroke-width:1.0;" x1="62" x2="62" y1="147.7666" y2="2599.8438"/><line style="stroke:#000000;stroke-width:1.0;" x1="556" x2="556" y1="147.7666" y2="2599.8438"/><line style="stroke:#000000;stroke-width:1.0;" x1="789" x2="789" y1="147.7666" y2="2599.8438"/><line style="stroke:#000000;stroke-width:1.0;" x1="1169" x2="1169" y1="147.7666" y2="2599.8438"/><line style="stroke:#000000;stroke-width:1.0;" x1="1545" x2="1545" y1="147.7666" y2="2599.8438"/><line style="stroke:#000000;stroke-width:1.0;" x1="2097.5" x2="2097.5" y1="147.7666" y2="2599.8438"/><line style="stroke:#000000;stroke-width:1.0;" x1="2229.5" x2="2229.5" y1="147.7666" y2="2599.8438"/><text fill="#000000" font-family="Verdana" font-size="14" lengthAdjust="spacing" textLength="98" x="10" y="127.8125">Job Scheduler</text><text fill="#000000" font-family="Verdana" font-size="14" lengthAdjust="spacing" textLength="70" x="24" y="144.8271">(External)</text><ellipse cx="62" cy="61.7373" fill="#FFFFFF" rx="8" ry="8" style="stroke:#000000;stroke-width:1.0;"/><path d="M62,69.7373 L62,96.7373 M49,77.7373 L75,77.7373 M62,96.7373 L49,111.7373 M62,96.7373 L75,111.7373 " fill="none" style="stroke:#000000;stroke-width:1.0;"/><text fill="#000000" font-family="Verdana" font-size="14" lengthAdjust="spacing" textLength="98" x="10" y="2612.9189">Job Scheduler</text><text fill="#000000" font-family="Verdana" font-size="14" lengthAdjust="spacing" textLength="70" x="24" y="2629.9336">(External)</text><ellipse cx="62" cy="2641.873" fill="#FFFFFF" rx="8" ry="8" style="stroke:#000000;stroke-width:1.0;"/><path d="M62,2649.873 L62,2676.873 M49,2657.873 L75,2657.873 M62,2676.873 L49,2691.873 M62,2676.873 L75,2691.873 " fill="none" style="stroke:#000000;stroke-width:1.0;"/><rect fill="#FFFFFF" height="48.0293" rx="2.5" ry="2.5" style="stroke:#000000;stroke-width:1.0;" width="186" x="463" y="98.7373"/><text fill="#000000" font-family="Verdana" font-size="14" lengthAdjust="spacing" textLength="172" x="470" y="119.8125">ClassificationBySportJob</text><text fill="#000000" font-family="Verdana" font-size="14" lengthAdjust="spacing" textLength="69" x="521.5" y="136.8271">Controller</text><rect fill="#FFFFFF" height="48.0293" rx="2.5" ry="2.5" style="stroke:#000000;stroke-width:1.0;" width="186" x="463" y="2598.8438"/><text fill="#000000" font-family="Verdana" font-size="14" lengthAdjust="spacing" textLength="172" x="470" y="2619.9189">ClassificationBySportJob</text><text fill="#000000" font-family="Verdana" font-size="14" lengthAdjust="spacing" textLength="69" x="521.5" y="2636.9336">Controller</text><rect fill="#FFFFFF" height="48.0293" rx="2.5" ry="2.5" style="stroke:#000000;stroke-width:1.0;" width="221" x="679" y="98.7373"/><text fill="#000000" font-family="Verdana" font-size="14" lengthAdjust="spacing" textLength="207" x="686" y="119.8125">RealtimeClassificationBySport</text><text fill="#000000" font-family="Verdana" font-size="14" lengthAdjust="spacing" textLength="74" x="752.5" y="136.8271">JobService</text><rect fill="#FFFFFF" height="48.0293" rx="2.5" ry="2.5" style="stroke:#000000;stroke-width:1.0;" width="221" x="679" y="2598.8438"/><text fill="#000000" font-family="Verdana" font-size="14" lengthAdjust="spacing" textLength="207" x="686" y="2619.9189">RealtimeClassificationBySport</text><text fill="#000000" font-family="Verdana" font-size="14" lengthAdjust="spacing" textLength="74" x="752.5" y="2636.9336">JobService</text><rect fill="#FFFFFF" height="48.0293" rx="2.5" ry="2.5" style="stroke:#000000;stroke-width:1.0;" width="221" x="1059" y="98.7373"/><text fill="#000000" font-family="Verdana" font-size="14" lengthAdjust="spacing" textLength="207" x="1066" y="119.8125">RealtimeClassificationBySport</text><text fill="#000000" font-family="Verdana" font-size="14" lengthAdjust="spacing" textLength="50" x="1144.5" y="136.8271">Service</text><rect fill="#FFFFFF" height="48.0293" rx="2.5" ry="2.5" style="stroke:#000000;stroke-width:1.0;" width="221" x="1059" y="2598.8438"/><text fill="#000000" font-family="Verdana" font-size="14" lengthAdjust="spacing" textLength="207" x="1066" y="2619.9189">RealtimeClassificationBySport</text><text fill="#000000" font-family="Verdana" font-size="14" lengthAdjust="spacing" textLength="50" x="1144.5" y="2636.9336">Service</text><rect fill="#FFFFFF" height="48.0293" rx="2.5" ry="2.5" style="stroke:#000000;stroke-width:1.0;" width="221" x="1435" y="98.7373"/><text fill="#000000" font-family="Verdana" font-size="14" lengthAdjust="spacing" textLength="207" x="1442" y="119.8125">RealtimeClassificationBySport</text><text fill="#000000" font-family="Verdana" font-size="14" lengthAdjust="spacing" textLength="81" x="1505" y="136.8271">DataAccess</text><rect fill="#FFFFFF" height="48.0293" rx="2.5" ry="2.5" style="stroke:#000000;stroke-width:1.0;" width="221" x="1435" y="2598.8438"/><text fill="#000000" font-family="Verdana" font-size="14" lengthAdjust="spacing" textLength="207" x="1442" y="2619.9189">RealtimeClassificationBySport</text><text fill="#000000" font-family="Verdana" font-size="14" lengthAdjust="spacing" textLength="81" x="1505" y="2636.9336">DataAccess</text><text fill="#000000" font-family="Verdana" font-size="14" lengthAdjust="spacing" textLength="80" x="2054.5" y="127.8125">SQL Server</text><text fill="#000000" font-family="Verdana" font-size="14" lengthAdjust="spacing" textLength="114" x="2037.5" y="144.8271">bodb_VR2Model</text><path d="M2079.5,77.7373 C2079.5,67.7373 2097.5,67.7373 2097.5,67.7373 C2097.5,67.7373 2115.5,67.7373 2115.5,77.7373 L2115.5,103.7373 C2115.5,113.7373 2097.5,113.7373 2097.5,113.7373 C2097.5,113.7373 2079.5,113.7373 2079.5,103.7373 L2079.5,77.7373 " fill="#FFFFFF" style="stroke:#000000;stroke-width:1.5;"/><path d="M2079.5,77.7373 C2079.5,87.7373 2097.5,87.7373 2097.5,87.7373 C2097.5,87.7373 2115.5,87.7373 2115.5,77.7373 " fill="none" style="stroke:#000000;stroke-width:1.5;"/><text fill="#000000" font-family="Verdana" font-size="14" lengthAdjust="spacing" textLength="80" x="2054.5" y="2612.9189">SQL Server</text><text fill="#000000" font-family="Verdana" font-size="14" lengthAdjust="spacing" textLength="114" x="2037.5" y="2629.9336">bodb_VR2Model</text><path d="M2079.5,2642.873 C2079.5,2632.873 2097.5,2632.873 2097.5,2632.873 C2097.5,2632.873 2115.5,2632.873 2115.5,2642.873 L2115.5,2668.873 C2115.5,2678.873 2097.5,2678.873 2097.5,2678.873 C2097.5,2678.873 2079.5,2678.873 2079.5,2668.873 L2079.5,2642.873 " fill="#FFFFFF" style="stroke:#000000;stroke-width:1.5;"/><path d="M2079.5,2642.873 C2079.5,2652.873 2097.5,2652.873 2097.5,2652.873 C2097.5,2652.873 2115.5,2652.873 2115.5,2642.873 " fill="none" style="stroke:#000000;stroke-width:1.5;"/><text fill="#000000" font-family="Verdana" font-size="14" lengthAdjust="spacing" textLength="48" x="2202.5" y="127.8125">MySQL</text><text fill="#000000" font-family="Verdana" font-size="14" lengthAdjust="spacing" textLength="118" x="2167.5" y="144.8271">CTS_DataCenter</text><path d="M2211.5,77.7373 C2211.5,67.7373 2229.5,67.7373 2229.5,67.7373 C2229.5,67.7373 2247.5,67.7373 2247.5,77.7373 L2247.5,103.7373 C2247.5,113.7373 2229.5,113.7373 2229.5,113.7373 C2229.5,113.7373 2211.5,113.7373 2211.5,103.7373 L2211.5,77.7373 " fill="#FFFFFF" style="stroke:#000000;stroke-width:1.5;"/><path d="M2211.5,77.7373 C2211.5,87.7373 2229.5,87.7373 2229.5,87.7373 C2229.5,87.7373 2247.5,87.7373 2247.5,77.7373 " fill="none" style="stroke:#000000;stroke-width:1.5;"/><text fill="#000000" font-family="Verdana" font-size="14" lengthAdjust="spacing" textLength="48" x="2202.5" y="2612.9189">MySQL</text><text fill="#000000" font-family="Verdana" font-size="14" lengthAdjust="spacing" textLength="118" x="2167.5" y="2629.9336">CTS_DataCenter</text><path d="M2211.5,2642.873 C2211.5,2632.873 2229.5,2632.873 2229.5,2632.873 C2229.5,2632.873 2247.5,2632.873 2247.5,2642.873 L2247.5,2668.873 C2247.5,2678.873 2229.5,2678.873 2229.5,2678.873 C2229.5,2678.873 2211.5,2678.873 2211.5,2668.873 L2211.5,2642.873 " fill="#FFFFFF" style="stroke:#000000;stroke-width:1.5;"/><path d="M2211.5,2642.873 C2211.5,2652.873 2229.5,2652.873 2229.5,2652.873 C2229.5,2652.873 2247.5,2652.873 2247.5,2642.873 " fill="none" style="stroke:#000000;stroke-width:1.5;"/><rect fill="#FFFFFF" height="2386.4785" style="stroke:#000000;stroke-width:1.0;" width="10" x="551" y="195.3652"/><rect fill="#FFFFFF" height="2311.0806" style="stroke:#000000;stroke-width:1.0;" width="10" x="784.5" y="225.1646"/><rect fill="#FFFFFF" height="72.5986" style="stroke:#000000;stroke-width:1.0;" width="10" x="1164.5" y="254.9639"/><rect fill="#FFFFFF" height="322.3911" style="stroke:#000000;stroke-width:1.0;" width="10" x="1164.5" y="357.3618"/><rect fill="#FFFFFF" height="455.5884" style="stroke:#000000;stroke-width:1.0;" width="10" x="1164.5" y="734.3516"/><rect fill="#FFFFFF" height="365.3911" style="stroke:#000000;stroke-width:1.0;" width="10" x="1164.5" y="1244.5386"/><rect fill="#FFFFFF" height="349.5918" style="stroke:#000000;stroke-width:1.0;" width="10" x="1164.5" y="1655.0977"/><rect fill="#FFFFFF" height="247.9932" style="stroke:#000000;stroke-width:1.0;" width="10" x="1164.5" y="2041.4888"/><rect fill="#FFFFFF" height="164.7959" style="stroke:#000000;stroke-width:1.0;" width="10" x="1164.5" y="2334.6499"/><rect fill="#FFFFFF" height="262.7925" style="stroke:#000000;stroke-width:1.0;" width="10" x="1540.5" y="387.1611"/><rect fill="#FFFFFF" height="278.5918" style="stroke:#000000;stroke-width:1.0;" width="10" x="1540.5" y="831.7495"/><rect fill="#FFFFFF" height="231.1938" style="stroke:#000000;stroke-width:1.0;" width="10" x="1540.5" y="1341.9365"/><rect fill="#FFFFFF" height="215.3945" style="stroke:#000000;stroke-width:1.0;" width="10" x="1540.5" y="1752.4956"/><rect fill="#FFFFFF" height="188.3945" style="stroke:#000000;stroke-width:1.0;" width="10" x="1540.5" y="2071.2881"/><rect fill="#FFFFFF" height="105.1973" style="stroke:#000000;stroke-width:1.0;" width="10" x="1540.5" y="2364.4492"/><rect fill="#FFFFFF" height="144.5952" style="stroke:#000000;stroke-width:1.0;" width="10" x="2092.5" y="475.5591"/><rect fill="#FFFFFF" height="128.7959" style="stroke:#000000;stroke-width:1.0;" width="10" x="2092.5" y="1414.5352"/><rect fill="#FFFFFF" height="112.9966" style="stroke:#000000;stroke-width:1.0;" width="10" x="2092.5" y="2116.8867"/><rect fill="#FFFFFF" height="29.7993" style="stroke:#000000;stroke-width:1.0;" width="10" x="2092.5" y="2410.0479"/><rect fill="#FFFFFF" height="160.3945" style="stroke:#000000;stroke-width:1.0;" width="10" x="2224.5" y="920.1475"/><rect fill="#FFFFFF" height="112.9966" style="stroke:#000000;stroke-width:1.0;" width="10" x="2224.5" y="1825.0942"/><polygon fill="#000000" points="539,191.3652,549,195.3652,539,199.3652,543,195.3652" style="stroke:#000000;stroke-width:1.0;"/><line style="stroke:#000000;stroke-width:1.0;" x1="62" x2="545" y1="195.3652" y2="195.3652"/><text fill="#000000" font-family="Verdana" font-size="13" lengthAdjust="spacing" textLength="470" x="69" y="174.8364">POST /api/classificationBySportJobs/ScanRealtimeClassificationBySport</text><text fill="#000000" font-family="Verdana" font-size="13" lengthAdjust="spacing" textLength="116" x="69" y="190.6357">batchInternalSize</text><polygon fill="#000000" points="772.5,221.1646,782.5,225.1646,772.5,229.1646,776.5,225.1646" style="stroke:#000000;stroke-width:1.0;"/><line style="stroke:#000000;stroke-width:1.0;" x1="561" x2="778.5" y1="225.1646" y2="225.1646"/><text fill="#000000" font-family="Verdana" font-size="13" lengthAdjust="spacing" textLength="181" x="568" y="220.4351">Execute(batchInternalSize)</text><polygon fill="#000000" points="1152.5,250.9639,1162.5,254.9639,1152.5,258.9639,1156.5,254.9639" style="stroke:#000000;stroke-width:1.0;"/><line style="stroke:#000000;stroke-width:1.0;" x1="794.5" x2="1158.5" y1="254.9639" y2="254.9639"/><text fill="#000000" font-family="Verdana" font-size="13" lengthAdjust="spacing" textLength="46" x="801.5" y="250.2344">Start()</text><line style="stroke:#000000;stroke-width:1.0;" x1="1174.5" x2="1216.5" y1="284.7632" y2="284.7632"/><line style="stroke:#000000;stroke-width:1.0;" x1="1216.5" x2="1216.5" y1="284.7632" y2="297.7632"/><line style="stroke:#000000;stroke-width:1.0;" x1="1175.5" x2="1216.5" y1="297.7632" y2="297.7632"/><polygon fill="#000000" points="1185.5,293.7632,1175.5,297.7632,1185.5,301.7632,1181.5,297.7632" style="stroke:#000000;stroke-width:1.0;"/><text fill="#000000" font-family="Verdana" font-size="13" lengthAdjust="spacing" textLength="342" x="1181.5" y="280.0337">Initialize customers and customerCategories models</text><polygon fill="#000000" points="805.5,323.5625,795.5,327.5625,805.5,331.5625,801.5,327.5625" style="stroke:#000000;stroke-width:1.0;"/><line style="stroke:#000000;stroke-width:1.0;stroke-dasharray:2.0,2.0;" x1="799.5" x2="1168.5" y1="327.5625" y2="327.5625"/><text fill="#000000" font-family="Verdana" font-size="13" lengthAdjust="spacing" textLength="254" x="811.5" y="322.833">IRealtimeClassificationBySportServices</text><polygon fill="#000000" points="1152.5,353.3618,1162.5,357.3618,1152.5,361.3618,1156.5,357.3618" style="stroke:#000000;stroke-width:1.0;"/><line style="stroke:#000000;stroke-width:1.0;" x1="794.5" x2="1158.5" y1="357.3618" y2="357.3618"/><text fill="#000000" font-family="Verdana" font-size="13" lengthAdjust="spacing" textLength="189" x="801.5" y="352.6323">GetNewPlaceBetCustomers()</text><polygon fill="#000000" points="1528.5,383.1611,1538.5,387.1611,1528.5,391.1611,1532.5,387.1611" style="stroke:#000000;stroke-width:1.0;"/><line style="stroke:#000000;stroke-width:1.0;" x1="1174.5" x2="1534.5" y1="387.1611" y2="387.1611"/><text fill="#000000" font-family="Verdana" font-size="13" lengthAdjust="spacing" textLength="189" x="1181.5" y="382.4316">GetNewPlaceBetCustomers()</text><line style="stroke:#000000;stroke-width:1.0;" x1="1550.5" x2="1592.5" y1="416.9604" y2="416.9604"/><line style="stroke:#000000;stroke-width:1.0;" x1="1592.5" x2="1592.5" y1="416.9604" y2="429.9604"/><line style="stroke:#000000;stroke-width:1.0;" x1="1551.5" x2="1592.5" y1="429.9604" y2="429.9604"/><polygon fill="#000000" points="1561.5,425.9604,1551.5,429.9604,1561.5,433.9604,1557.5,429.9604" style="stroke:#000000;stroke-width:1.0;"/><text fill="#000000" font-family="Verdana" font-size="13" lengthAdjust="spacing" textLength="337" x="1557.5" y="412.231">Create GetChangeCustomerRealtimeBySportCriteria</text><polygon fill="#000000" points="2080.5,471.5591,2090.5,475.5591,2080.5,479.5591,2084.5,475.5591" style="stroke:#000000;stroke-width:1.0;"/><line style="stroke:#000000;stroke-width:1.0;" x1="1550.5" x2="2086.5" y1="475.5591" y2="475.5591"/><text fill="#000000" font-family="Verdana" font-size="13" lengthAdjust="spacing" textLength="409" x="1557.5" y="455.0303">EXEC CTS_BySportNormalClassification_RealTime_GetChanges</text><text fill="#000000" font-family="Verdana" font-size="13" lengthAdjust="spacing" textLength="168" x="1557.5" y="470.8296">@ScannedMaxId OUTPUT</text><path d="M2107,488.5591 L2107,576.5591 L2390,576.5591 L2390,498.5591 L2380,488.5591 L2107,488.5591 " fill="#FFFFFF" style="stroke:#000000;stroke-width:1.0;"/><path d="M2380,488.5591 L2380,498.5591 L2390,498.5591 L2380,488.5591 " fill="#FFFFFF" style="stroke:#000000;stroke-width:1.0;"/><text fill="#000000" font-family="Verdana" font-size="13" lengthAdjust="spacing" textLength="121" x="2113" y="506.6289">Stored Procedure:</text><text fill="#000000" font-family="Verdana" font-size="13" lengthAdjust="spacing" textLength="262" x="2113" y="522.4282">- Get TOP 20000 from RealtimeChanges</text><text fill="#000000" font-family="Verdana" font-size="13" lengthAdjust="spacing" textLength="120" x="2113" y="538.2275">- Order by ID ASC</text><text fill="#000000" font-family="Verdana" font-size="13" lengthAdjust="spacing" textLength="194" x="2113" y="554.0269">- Return: CustID, SportGroup</text><text fill="#000000" font-family="Verdana" font-size="13" lengthAdjust="spacing" textLength="230" x="2113" y="569.8262">- Output: ScannedMaxId (MAX ID)</text><polygon fill="#000000" points="1561.5,616.1543,1551.5,620.1543,1561.5,624.1543,1557.5,620.1543" style="stroke:#000000;stroke-width:1.0;"/><line style="stroke:#000000;stroke-width:1.0;stroke-dasharray:2.0,2.0;" x1="1555.5" x2="2096.5" y1="620.1543" y2="620.1543"/><text fill="#000000" font-family="Verdana" font-size="13" lengthAdjust="spacing" textLength="348" x="1567.5" y="599.6255">ResultSet: CustClassificationRealtimeBySportEntity[]</text><text fill="#000000" font-family="Verdana" font-size="13" lengthAdjust="spacing" textLength="96" x="1567.5" y="615.4248">ScannedMaxId</text><polygon fill="#000000" points="1185.5,645.9536,1175.5,649.9536,1185.5,653.9536,1181.5,649.9536" style="stroke:#000000;stroke-width:1.0;"/><line style="stroke:#000000;stroke-width:1.0;stroke-dasharray:2.0,2.0;" x1="1179.5" x2="1544.5" y1="649.9536" y2="649.9536"/><text fill="#000000" font-family="Verdana" font-size="13" lengthAdjust="spacing" textLength="208" x="1191.5" y="645.2241">GetNewPlaceBetCustomerModel</text><polygon fill="#000000" points="805.5,675.7529,795.5,679.7529,805.5,683.7529,801.5,679.7529" style="stroke:#000000;stroke-width:1.0;"/><line style="stroke:#000000;stroke-width:1.0;stroke-dasharray:2.0,2.0;" x1="799.5" x2="1168.5" y1="679.7529" y2="679.7529"/><text fill="#000000" font-family="Verdana" font-size="13" lengthAdjust="spacing" textLength="208" x="811.5" y="675.0234">GetNewPlaceBetCustomerModel</text><path d="M649,694.7529 L713,694.7529 L713,702.5522 L703,712.5522 L649,712.5522 L649,694.7529 " fill="#FFFFFF" style="stroke:#000000;stroke-width:1.0;"/><rect fill="none" height="1812.6929" style="stroke:#000000;stroke-width:1.0;" width="1857" x="649" y="694.7529"/><text fill="#000000" font-family="Verdana" font-size="13" font-weight="bold" lengthAdjust="spacing" textLength="19" x="664" y="708.8228">alt</text><text fill="#000000" font-family="Verdana" font-size="11" font-weight="bold" lengthAdjust="spacing" textLength="409" x="728" y="707.812">[Has Customers (CustomerNewPlaceBets.IsNotNullOrEmpty())]</text><polygon fill="#000000" points="1152.5,730.3516,1162.5,734.3516,1152.5,738.3516,1156.5,734.3516" style="stroke:#000000;stroke-width:1.0;"/><line style="stroke:#000000;stroke-width:1.0;" x1="794.5" x2="1158.5" y1="734.3516" y2="734.3516"/><text fill="#000000" font-family="Verdana" font-size="13" lengthAdjust="spacing" textLength="273" x="801.5" y="729.6221">GetCustomerCategory(batchInternalSize)</text><line style="stroke:#000000;stroke-width:1.0;" x1="1174.5" x2="1216.5" y1="764.1509" y2="764.1509"/><line style="stroke:#000000;stroke-width:1.0;" x1="1216.5" x2="1216.5" y1="764.1509" y2="777.1509"/><line style="stroke:#000000;stroke-width:1.0;" x1="1175.5" x2="1216.5" y1="777.1509" y2="777.1509"/><polygon fill="#000000" points="1185.5,773.1509,1175.5,777.1509,1185.5,781.1509,1181.5,777.1509" style="stroke:#000000;stroke-width:1.0;"/><text fill="#000000" font-family="Verdana" font-size="13" lengthAdjust="spacing" textLength="255" x="1181.5" y="759.4214">Chunk customers by batchInternalSize</text><path d="M1039,792.1509 L1115,792.1509 L1115,799.9502 L1105,809.9502 L1039,809.9502 L1039,792.1509 " fill="#FFFFFF" style="stroke:#000000;stroke-width:1.0;"/><rect fill="none" height="368.9897" style="stroke:#000000;stroke-width:1.0;" width="1457" x="1039" y="792.1509"/><text fill="#000000" font-family="Verdana" font-size="13" font-weight="bold" lengthAdjust="spacing" textLength="31" x="1054" y="806.2207">loop</text><text fill="#000000" font-family="Verdana" font-size="11" font-weight="bold" lengthAdjust="spacing" textLength="112" x="1130" y="805.21">[For each chunk]</text><polygon fill="#000000" points="1528.5,827.7495,1538.5,831.7495,1528.5,835.7495,1532.5,831.7495" style="stroke:#000000;stroke-width:1.0;"/><line style="stroke:#000000;stroke-width:1.0;" x1="1174.5" x2="1534.5" y1="831.7495" y2="831.7495"/><text fill="#000000" font-family="Verdana" font-size="13" lengthAdjust="spacing" textLength="235" x="1181.5" y="827.02">GetCustomerCategory(custInfoList)</text><line style="stroke:#000000;stroke-width:1.0;" x1="1550.5" x2="1592.5" y1="861.5488" y2="861.5488"/><line style="stroke:#000000;stroke-width:1.0;" x1="1592.5" x2="1592.5" y1="861.5488" y2="874.5488"/><line style="stroke:#000000;stroke-width:1.0;" x1="1551.5" x2="1592.5" y1="874.5488" y2="874.5488"/><polygon fill="#000000" points="1561.5,870.5488,1551.5,874.5488,1561.5,878.5488,1557.5,874.5488" style="stroke:#000000;stroke-width:1.0;"/><text fill="#000000" font-family="Verdana" font-size="13" lengthAdjust="spacing" textLength="221" x="1557.5" y="856.8193">Serialize customer batch to JSON</text><polygon fill="#000000" points="2212.5,916.1475,2222.5,920.1475,2212.5,924.1475,2216.5,920.1475" style="stroke:#000000;stroke-width:1.0;"/><line style="stroke:#000000;stroke-width:1.0;" x1="1550.5" x2="2218.5" y1="920.1475" y2="920.1475"/><text fill="#000000" font-family="Verdana" font-size="13" lengthAdjust="spacing" textLength="430" x="1557.5" y="899.6187">EXEC CTS_DC_CustClassification_BySport_Realtime_GetCategory</text><text fill="#000000" font-family="Verdana" font-size="13" lengthAdjust="spacing" textLength="162" x="1557.5" y="915.418">@ip_CustInfoList (JSON)</text><path d="M2239,933.1475 L2239,1037.1475 L2486,1037.1475 L2486,943.1475 L2476,933.1475 L2239,933.1475 " fill="#FFFFFF" style="stroke:#000000;stroke-width:1.0;"/><path d="M2476,933.1475 L2476,943.1475 L2486,943.1475 L2476,933.1475 " fill="#FFFFFF" style="stroke:#000000;stroke-width:1.0;"/><text fill="#000000" font-family="Verdana" font-size="13" lengthAdjust="spacing" textLength="121" x="2245" y="951.2173">Stored Procedure:</text><text fill="#000000" font-family="Verdana" font-size="13" lengthAdjust="spacing" textLength="177" x="2245" y="967.0166">- Parse JSON customer list</text><text fill="#000000" font-family="Verdana" font-size="13" lengthAdjust="spacing" textLength="178" x="2245" y="982.8159">- Get current classification</text><text fill="#000000" font-family="Verdana" font-size="13" lengthAdjust="spacing" textLength="88" x="2245" y="998.6152">- Categorize:</text><text fill="#000000" font-family="Verdana" font-size="13" lengthAdjust="spacing" textLength="200" x="2255" y="1014.4146">* NULL or Normal: ResultSet 1</text><text fill="#000000" font-family="Verdana" font-size="13" lengthAdjust="spacing" textLength="216" x="2255" y="1030.2139">* PA or PotentialPA: ResultSet 2</text><polygon fill="#000000" points="1561.5,1076.542,1551.5,1080.542,1561.5,1084.542,1557.5,1080.542" style="stroke:#000000;stroke-width:1.0;"/><line style="stroke:#000000;stroke-width:1.0;stroke-dasharray:2.0,2.0;" x1="1555.5" x2="2228.5" y1="1080.542" y2="1080.542"/><text fill="#000000" font-family="Verdana" font-size="13" lengthAdjust="spacing" textLength="200" x="1567.5" y="1060.0132">ResultSet 1: CustomerNormals</text><text fill="#000000" font-family="Verdana" font-size="13" lengthAdjust="spacing" textLength="237" x="1567.5" y="1075.8125">ResultSet 2: CustomerPADailyScans</text><polygon fill="#000000" points="1185.5,1106.3413,1175.5,1110.3413,1185.5,1114.3413,1181.5,1110.3413" style="stroke:#000000;stroke-width:1.0;"/><line style="stroke:#000000;stroke-width:1.0;stroke-dasharray:2.0,2.0;" x1="1179.5" x2="1544.5" y1="1110.3413" y2="1110.3413"/><text fill="#000000" font-family="Verdana" font-size="13" lengthAdjust="spacing" textLength="235" x="1191.5" y="1105.6118">GetCustomerCategoryBySportModel</text><line style="stroke:#000000;stroke-width:1.0;" x1="1174.5" x2="1216.5" y1="1140.1406" y2="1140.1406"/><line style="stroke:#000000;stroke-width:1.0;" x1="1216.5" x2="1216.5" y1="1140.1406" y2="1153.1406"/><line style="stroke:#000000;stroke-width:1.0;" x1="1175.5" x2="1216.5" y1="1153.1406" y2="1153.1406"/><polygon fill="#000000" points="1185.5,1149.1406,1175.5,1153.1406,1185.5,1157.1406,1181.5,1153.1406" style="stroke:#000000;stroke-width:1.0;"/><text fill="#000000" font-family="Verdana" font-size="13" lengthAdjust="spacing" textLength="255" x="1181.5" y="1135.4111">Add to customerCategories collections</text><polygon fill="#000000" points="805.5,1185.9399,795.5,1189.9399,805.5,1193.9399,801.5,1189.9399" style="stroke:#000000;stroke-width:1.0;"/><line style="stroke:#000000;stroke-width:1.0;stroke-dasharray:2.0,2.0;" x1="799.5" x2="1168.5" y1="1189.9399" y2="1189.9399"/><text fill="#000000" font-family="Verdana" font-size="13" lengthAdjust="spacing" textLength="235" x="811.5" y="1185.2104">GetCustomerCategoryBySportModel</text><path d="M659,1204.9399 L728,1204.9399 L728,1212.7393 L718,1222.7393 L659,1222.7393 L659,1204.9399 " fill="#FFFFFF" style="stroke:#000000;stroke-width:1.0;"/><rect fill="none" height="807.7495" style="stroke:#000000;stroke-width:1.0;" width="1807" x="659" y="1204.9399"/><text fill="#000000" font-family="Verdana" font-size="13" font-weight="bold" lengthAdjust="spacing" textLength="24" x="674" y="1219.0098">par</text><text fill="#000000" font-family="Verdana" font-size="11" font-weight="bold" lengthAdjust="spacing" textLength="209" x="743" y="1217.999">[Preprocess Normal Customers]</text><polygon fill="#000000" points="1152.5,1240.5386,1162.5,1244.5386,1152.5,1248.5386,1156.5,1244.5386" style="stroke:#000000;stroke-width:1.0;"/><line style="stroke:#000000;stroke-width:1.0;" x1="794.5" x2="1158.5" y1="1244.5386" y2="1244.5386"/><text fill="#000000" font-family="Verdana" font-size="13" lengthAdjust="spacing" textLength="351" x="801.5" y="1239.8091">PreprocessCustomerClassRealtime(batchInternalSize)</text><line style="stroke:#000000;stroke-width:1.0;" x1="1174.5" x2="1216.5" y1="1274.3379" y2="1274.3379"/><line style="stroke:#000000;stroke-width:1.0;" x1="1216.5" x2="1216.5" y1="1274.3379" y2="1287.3379"/><line style="stroke:#000000;stroke-width:1.0;" x1="1175.5" x2="1216.5" y1="1287.3379" y2="1287.3379"/><polygon fill="#000000" points="1185.5,1283.3379,1175.5,1287.3379,1185.5,1291.3379,1181.5,1287.3379" style="stroke:#000000;stroke-width:1.0;"/><text fill="#000000" font-family="Verdana" font-size="13" lengthAdjust="spacing" textLength="300" x="1181.5" y="1269.6084">Chunk CustomerNormals by batchInternalSize</text><path d="M1039,1302.3379 L1115,1302.3379 L1115,1310.1372 L1105,1320.1372 L1039,1320.1372 L1039,1302.3379 " fill="#FFFFFF" style="stroke:#000000;stroke-width:1.0;"/><rect fill="none" height="278.7925" style="stroke:#000000;stroke-width:1.0;" width="1308" x="1039" y="1302.3379"/><text fill="#000000" font-family="Verdana" font-size="13" font-weight="bold" lengthAdjust="spacing" textLength="31" x="1054" y="1316.4077">loop</text><text fill="#000000" font-family="Verdana" font-size="11" font-weight="bold" lengthAdjust="spacing" textLength="112" x="1130" y="1315.397">[For each chunk]</text><polygon fill="#000000" points="1528.5,1337.9365,1538.5,1341.9365,1528.5,1345.9365,1532.5,1341.9365" style="stroke:#000000;stroke-width:1.0;"/><line style="stroke:#000000;stroke-width:1.0;" x1="1174.5" x2="1534.5" y1="1341.9365" y2="1341.9365"/><text fill="#000000" font-family="Verdana" font-size="13" lengthAdjust="spacing" textLength="302" x="1181.5" y="1337.207">PreprocessCustomerClassRealtime(custBatch)</text><line style="stroke:#000000;stroke-width:1.0;" x1="1550.5" x2="1592.5" y1="1371.7358" y2="1371.7358"/><line style="stroke:#000000;stroke-width:1.0;" x1="1592.5" x2="1592.5" y1="1371.7358" y2="1384.7358"/><line style="stroke:#000000;stroke-width:1.0;" x1="1551.5" x2="1592.5" y1="1384.7358" y2="1384.7358"/><polygon fill="#000000" points="1561.5,1380.7358,1551.5,1384.7358,1561.5,1388.7358,1557.5,1384.7358" style="stroke:#000000;stroke-width:1.0;"/><text fill="#000000" font-family="Verdana" font-size="13" lengthAdjust="spacing" textLength="145" x="1557.5" y="1367.0063">Convert to XML string</text><polygon fill="#000000" points="2080.5,1410.5352,2090.5,1414.5352,2080.5,1418.5352,2084.5,1414.5352" style="stroke:#000000;stroke-width:1.0;"/><line style="stroke:#000000;stroke-width:1.0;" x1="1550.5" x2="2086.5" y1="1414.5352" y2="1414.5352"/><text fill="#000000" font-family="Verdana" font-size="13" lengthAdjust="spacing" textLength="523" x="1557.5" y="1409.8057">EXEC CTS_BySportNormalClassification_RealTime_Preprocess(@CustomersXML)</text><path d="M2107,1427.5352 L2107,1515.5352 L2337,1515.5352 L2337,1437.5352 L2327,1427.5352 L2107,1427.5352 " fill="#FFFFFF" style="stroke:#000000;stroke-width:1.0;"/><path d="M2327,1427.5352 L2327,1437.5352 L2337,1437.5352 L2327,1427.5352 " fill="#FFFFFF" style="stroke:#000000;stroke-width:1.0;"/><text fill="#000000" font-family="Verdana" font-size="13" lengthAdjust="spacing" textLength="121" x="2113" y="1445.605">Stored Procedure:</text><text fill="#000000" font-family="Verdana" font-size="13" lengthAdjust="spacing" textLength="170" x="2113" y="1461.4043">- Parse XML customer list</text><text fill="#000000" font-family="Verdana" font-size="13" lengthAdjust="spacing" textLength="209" x="2113" y="1477.2036">- Get Priority from Priority table</text><text fill="#000000" font-family="Verdana" font-size="13" lengthAdjust="spacing" textLength="158" x="2113" y="1493.0029">- Call NormalPool_Insert</text><text fill="#000000" font-family="Verdana" font-size="13" lengthAdjust="spacing" textLength="162" x="2113" y="1508.8022">- Insert into Normal Pool</text><polygon fill="#000000" points="1561.5,1539.3311,1551.5,1543.3311,1561.5,1547.3311,1557.5,1543.3311" style="stroke:#000000;stroke-width:1.0;"/><line style="stroke:#000000;stroke-width:1.0;stroke-dasharray:2.0,2.0;" x1="1555.5" x2="2096.5" y1="1543.3311" y2="1543.3311"/><text fill="#000000" font-family="Verdana" font-size="13" lengthAdjust="spacing" textLength="55" x="1567.5" y="1538.6016">Success</text><polygon fill="#000000" points="1185.5,1569.1304,1175.5,1573.1304,1185.5,1577.1304,1181.5,1573.1304" style="stroke:#000000;stroke-width:1.0;"/><line style="stroke:#000000;stroke-width:1.0;stroke-dasharray:2.0,2.0;" x1="1179.5" x2="1544.5" y1="1573.1304" y2="1573.1304"/><text fill="#000000" font-family="Verdana" font-size="13" lengthAdjust="spacing" textLength="27" x="1191.5" y="1568.4009">void</text><polygon fill="#000000" points="805.5,1605.9297,795.5,1609.9297,805.5,1613.9297,801.5,1609.9297" style="stroke:#000000;stroke-width:1.0;"/><line style="stroke:#000000;stroke-width:1.0;stroke-dasharray:2.0,2.0;" x1="799.5" x2="1168.5" y1="1609.9297" y2="1609.9297"/><text fill="#000000" font-family="Verdana" font-size="13" lengthAdjust="spacing" textLength="27" x="811.5" y="1605.2002">void</text><line style="stroke:#000000;stroke-width:1.0;stroke-dasharray:2.0,2.0;" x1="659" x2="2466" y1="1618.9297" y2="1618.9297"/><text fill="#000000" font-family="Verdana" font-size="11" font-weight="bold" lengthAdjust="spacing" textLength="118" x="664" y="1629.9888">[Insert PA Queue]</text><polygon fill="#000000" points="1152.5,1651.0977,1162.5,1655.0977,1152.5,1659.0977,1156.5,1655.0977" style="stroke:#000000;stroke-width:1.0;"/><line style="stroke:#000000;stroke-width:1.0;" x1="794.5" x2="1158.5" y1="1655.0977" y2="1655.0977"/><text fill="#000000" font-family="Verdana" font-size="13" lengthAdjust="spacing" textLength="290" x="801.5" y="1650.3682">InsertPADailyScanQueue(batchInternalSize)</text><line style="stroke:#000000;stroke-width:1.0;" x1="1174.5" x2="1216.5" y1="1684.897" y2="1684.897"/><line style="stroke:#000000;stroke-width:1.0;" x1="1216.5" x2="1216.5" y1="1684.897" y2="1697.897"/><line style="stroke:#000000;stroke-width:1.0;" x1="1175.5" x2="1216.5" y1="1697.897" y2="1697.897"/><polygon fill="#000000" points="1185.5,1693.897,1175.5,1697.897,1185.5,1701.897,1181.5,1697.897" style="stroke:#000000;stroke-width:1.0;"/><text fill="#000000" font-family="Verdana" font-size="13" lengthAdjust="spacing" textLength="337" x="1181.5" y="1680.1675">Chunk CustomerPADailyScans by batchInternalSize</text><path d="M1039,1712.897 L1115,1712.897 L1115,1720.6963 L1105,1730.6963 L1039,1730.6963 L1039,1712.897 " fill="#FFFFFF" style="stroke:#000000;stroke-width:1.0;"/><rect fill="none" height="262.9932" style="stroke:#000000;stroke-width:1.0;" width="1417" x="1039" y="1712.897"/><text fill="#000000" font-family="Verdana" font-size="13" font-weight="bold" lengthAdjust="spacing" textLength="31" x="1054" y="1726.9668">loop</text><text fill="#000000" font-family="Verdana" font-size="11" font-weight="bold" lengthAdjust="spacing" textLength="112" x="1130" y="1725.9561">[For each chunk]</text><polygon fill="#000000" points="1528.5,1748.4956,1538.5,1752.4956,1528.5,1756.4956,1532.5,1752.4956" style="stroke:#000000;stroke-width:1.0;"/><line style="stroke:#000000;stroke-width:1.0;" x1="1174.5" x2="1534.5" y1="1752.4956" y2="1752.4956"/><text fill="#000000" font-family="Verdana" font-size="13" lengthAdjust="spacing" textLength="252" x="1181.5" y="1747.7661">InsertPADailyScanQueue(custInfoList)</text><line style="stroke:#000000;stroke-width:1.0;" x1="1550.5" x2="1592.5" y1="1782.2949" y2="1782.2949"/><line style="stroke:#000000;stroke-width:1.0;" x1="1592.5" x2="1592.5" y1="1782.2949" y2="1795.2949"/><line style="stroke:#000000;stroke-width:1.0;" x1="1551.5" x2="1592.5" y1="1795.2949" y2="1795.2949"/><polygon fill="#000000" points="1561.5,1791.2949,1551.5,1795.2949,1561.5,1799.2949,1557.5,1795.2949" style="stroke:#000000;stroke-width:1.0;"/><text fill="#000000" font-family="Verdana" font-size="13" lengthAdjust="spacing" textLength="112" x="1557.5" y="1777.5654">Serialize to JSON</text><polygon fill="#000000" points="2212.5,1821.0942,2222.5,1825.0942,2212.5,1829.0942,2216.5,1825.0942" style="stroke:#000000;stroke-width:1.0;"/><line style="stroke:#000000;stroke-width:1.0;" x1="1550.5" x2="2218.5" y1="1825.0942" y2="1825.0942"/><text fill="#000000" font-family="Verdana" font-size="13" lengthAdjust="spacing" textLength="594" x="1557.5" y="1820.3647">EXEC CTS_DC_CustClassification_BySport_DailyScanPA_InsertToQueue(@ip_CustInfoList)</text><path d="M2239,1838.0942 L2239,1911.0942 L2446,1911.0942 L2446,1848.0942 L2436,1838.0942 L2239,1838.0942 " fill="#FFFFFF" style="stroke:#000000;stroke-width:1.0;"/><path d="M2436,1838.0942 L2436,1848.0942 L2446,1848.0942 L2436,1838.0942 " fill="#FFFFFF" style="stroke:#000000;stroke-width:1.0;"/><text fill="#000000" font-family="Verdana" font-size="13" lengthAdjust="spacing" textLength="121" x="2245" y="1856.1641">Stored Procedure:</text><text fill="#000000" font-family="Verdana" font-size="13" lengthAdjust="spacing" textLength="177" x="2245" y="1871.9634">- Parse JSON customer list</text><text fill="#000000" font-family="Verdana" font-size="13" lengthAdjust="spacing" textLength="176" x="2245" y="1887.7627">- Insert into DailyPAQueue</text><text fill="#000000" font-family="Verdana" font-size="13" lengthAdjust="spacing" textLength="186" x="2245" y="1903.562">- Set CreatedTime = NOW()</text><polygon fill="#000000" points="1561.5,1934.0908,1551.5,1938.0908,1561.5,1942.0908,1557.5,1938.0908" style="stroke:#000000;stroke-width:1.0;"/><line style="stroke:#000000;stroke-width:1.0;stroke-dasharray:2.0,2.0;" x1="1555.5" x2="2228.5" y1="1938.0908" y2="1938.0908"/><text fill="#000000" font-family="Verdana" font-size="13" lengthAdjust="spacing" textLength="55" x="1567.5" y="1933.3613">Success</text><polygon fill="#000000" points="1185.5,1963.8901,1175.5,1967.8901,1185.5,1971.8901,1181.5,1967.8901" style="stroke:#000000;stroke-width:1.0;"/><line style="stroke:#000000;stroke-width:1.0;stroke-dasharray:2.0,2.0;" x1="1179.5" x2="1544.5" y1="1967.8901" y2="1967.8901"/><text fill="#000000" font-family="Verdana" font-size="13" lengthAdjust="spacing" textLength="27" x="1191.5" y="1963.1606">void</text><polygon fill="#000000" points="805.5,2000.6895,795.5,2004.6895,805.5,2008.6895,801.5,2004.6895" style="stroke:#000000;stroke-width:1.0;"/><line style="stroke:#000000;stroke-width:1.0;stroke-dasharray:2.0,2.0;" x1="799.5" x2="1168.5" y1="2004.6895" y2="2004.6895"/><text fill="#000000" font-family="Verdana" font-size="13" lengthAdjust="spacing" textLength="27" x="811.5" y="1999.96">void</text><polygon fill="#000000" points="1152.5,2037.4888,1162.5,2041.4888,1152.5,2045.4888,1156.5,2041.4888" style="stroke:#000000;stroke-width:1.0;"/><line style="stroke:#000000;stroke-width:1.0;" x1="794.5" x2="1158.5" y1="2041.4888" y2="2041.4888"/><text fill="#000000" font-family="Verdana" font-size="13" lengthAdjust="spacing" textLength="190" x="801.5" y="2036.7593">CompleteCustomerRealtime()</text><polygon fill="#000000" points="1528.5,2067.2881,1538.5,2071.2881,1528.5,2075.2881,1532.5,2071.2881" style="stroke:#000000;stroke-width:1.0;"/><line style="stroke:#000000;stroke-width:1.0;" x1="1174.5" x2="1534.5" y1="2071.2881" y2="2071.2881"/><text fill="#000000" font-family="Verdana" font-size="13" lengthAdjust="spacing" textLength="284" x="1181.5" y="2066.5586">CompleteCustomerRealtime(scannedMaxId)</text><polygon fill="#000000" points="2080.5,2112.8867,2090.5,2116.8867,2080.5,2120.8867,2084.5,2116.8867" style="stroke:#000000;stroke-width:1.0;"/><line style="stroke:#000000;stroke-width:1.0;" x1="1550.5" x2="2086.5" y1="2116.8867" y2="2116.8867"/><text fill="#000000" font-family="Verdana" font-size="13" lengthAdjust="spacing" textLength="391" x="1557.5" y="2096.3579">EXEC CTS_BySportNormalClassification_RealTime_Complete</text><text fill="#000000" font-family="Verdana" font-size="13" lengthAdjust="spacing" textLength="109" x="1557.5" y="2112.1572">@ScannedMaxId</text><path d="M2107,2129.8867 L2107,2202.8867 L2390,2202.8867 L2390,2139.8867 L2380,2129.8867 L2107,2129.8867 " fill="#FFFFFF" style="stroke:#000000;stroke-width:1.0;"/><path d="M2380,2129.8867 L2380,2139.8867 L2390,2139.8867 L2380,2129.8867 " fill="#FFFFFF" style="stroke:#000000;stroke-width:1.0;"/><text fill="#000000" font-family="Verdana" font-size="13" lengthAdjust="spacing" textLength="121" x="2113" y="2147.9565">Stored Procedure:</text><text fill="#000000" font-family="Verdana" font-size="13" lengthAdjust="spacing" textLength="219" x="2113" y="2163.7559">- DELETE FROM RealtimeChanges</text><text fill="#000000" font-family="Verdana" font-size="13" lengthAdjust="spacing" textLength="214" x="2113" y="2179.5552">- WHERE ID &lt;= @ScannedMaxId</text><text fill="#000000" font-family="Verdana" font-size="13" lengthAdjust="spacing" textLength="262" x="2113" y="2195.3545">- Mark processed records as completed</text><polygon fill="#000000" points="1561.5,2225.8833,1551.5,2229.8833,1561.5,2233.8833,1557.5,2229.8833" style="stroke:#000000;stroke-width:1.0;"/><line style="stroke:#000000;stroke-width:1.0;stroke-dasharray:2.0,2.0;" x1="1555.5" x2="2096.5" y1="2229.8833" y2="2229.8833"/><text fill="#000000" font-family="Verdana" font-size="13" lengthAdjust="spacing" textLength="55" x="1567.5" y="2225.1538">Success</text><polygon fill="#000000" points="1185.5,2255.6826,1175.5,2259.6826,1185.5,2263.6826,1181.5,2259.6826" style="stroke:#000000;stroke-width:1.0;"/><line style="stroke:#000000;stroke-width:1.0;stroke-dasharray:2.0,2.0;" x1="1179.5" x2="1544.5" y1="2259.6826" y2="2259.6826"/><text fill="#000000" font-family="Verdana" font-size="13" lengthAdjust="spacing" textLength="27" x="1191.5" y="2254.9531">void</text><polygon fill="#000000" points="805.5,2285.4819,795.5,2289.4819,805.5,2293.4819,801.5,2289.4819" style="stroke:#000000;stroke-width:1.0;"/><line style="stroke:#000000;stroke-width:1.0;stroke-dasharray:2.0,2.0;" x1="799.5" x2="1168.5" y1="2289.4819" y2="2289.4819"/><text fill="#000000" font-family="Verdana" font-size="13" lengthAdjust="spacing" textLength="27" x="811.5" y="2284.7524">void</text><line style="stroke:#000000;stroke-width:1.0;stroke-dasharray:2.0,2.0;" x1="649" x2="2506" y1="2298.4819" y2="2298.4819"/><text fill="#000000" font-family="Verdana" font-size="11" font-weight="bold" lengthAdjust="spacing" textLength="102" x="654" y="2309.541">[No Customers]</text><polygon fill="#000000" points="1152.5,2330.6499,1162.5,2334.6499,1152.5,2338.6499,1156.5,2334.6499" style="stroke:#000000;stroke-width:1.0;"/><line style="stroke:#000000;stroke-width:1.0;" x1="794.5" x2="1158.5" y1="2334.6499" y2="2334.6499"/><text fill="#000000" font-family="Verdana" font-size="13" lengthAdjust="spacing" textLength="190" x="801.5" y="2329.9204">CompleteCustomerRealtime()</text><polygon fill="#000000" points="1528.5,2360.4492,1538.5,2364.4492,1528.5,2368.4492,1532.5,2364.4492" style="stroke:#000000;stroke-width:1.0;"/><line style="stroke:#000000;stroke-width:1.0;" x1="1174.5" x2="1534.5" y1="2364.4492" y2="2364.4492"/><text fill="#000000" font-family="Verdana" font-size="13" lengthAdjust="spacing" textLength="198" x="1181.5" y="2359.7197">CompleteCustomerRealtime(0)</text><polygon fill="#000000" points="2080.5,2406.0479,2090.5,2410.0479,2080.5,2414.0479,2084.5,2410.0479" style="stroke:#000000;stroke-width:1.0;"/><line style="stroke:#000000;stroke-width:1.0;" x1="1550.5" x2="2086.5" y1="2410.0479" y2="2410.0479"/><text fill="#000000" font-family="Verdana" font-size="13" lengthAdjust="spacing" textLength="391" x="1557.5" y="2389.519">EXEC CTS_BySportNormalClassification_RealTime_Complete</text><text fill="#000000" font-family="Verdana" font-size="13" lengthAdjust="spacing" textLength="136" x="1557.5" y="2405.3184">@ScannedMaxId = 0</text><polygon fill="#000000" points="1561.5,2435.8472,1551.5,2439.8472,1561.5,2443.8472,1557.5,2439.8472" style="stroke:#000000;stroke-width:1.0;"/><line style="stroke:#000000;stroke-width:1.0;stroke-dasharray:2.0,2.0;" x1="1555.5" x2="2096.5" y1="2439.8472" y2="2439.8472"/><text fill="#000000" font-family="Verdana" font-size="13" lengthAdjust="spacing" textLength="207" x="1567.5" y="2435.1177">Success (no records to delete)</text><polygon fill="#000000" points="1185.5,2465.6465,1175.5,2469.6465,1185.5,2473.6465,1181.5,2469.6465" style="stroke:#000000;stroke-width:1.0;"/><line style="stroke:#000000;stroke-width:1.0;stroke-dasharray:2.0,2.0;" x1="1179.5" x2="1544.5" y1="2469.6465" y2="2469.6465"/><text fill="#000000" font-family="Verdana" font-size="13" lengthAdjust="spacing" textLength="27" x="1191.5" y="2464.917">void</text><polygon fill="#000000" points="805.5,2495.4458,795.5,2499.4458,805.5,2503.4458,801.5,2499.4458" style="stroke:#000000;stroke-width:1.0;"/><line style="stroke:#000000;stroke-width:1.0;stroke-dasharray:2.0,2.0;" x1="799.5" x2="1168.5" y1="2499.4458" y2="2499.4458"/><text fill="#000000" font-family="Verdana" font-size="13" lengthAdjust="spacing" textLength="27" x="811.5" y="2494.7163">void</text><polygon fill="#000000" points="572,2532.2451,562,2536.2451,572,2540.2451,568,2536.2451" style="stroke:#000000;stroke-width:1.0;"/><line style="stroke:#000000;stroke-width:1.0;stroke-dasharray:2.0,2.0;" x1="566" x2="788.5" y1="2536.2451" y2="2536.2451"/><text fill="#000000" font-family="Verdana" font-size="13" lengthAdjust="spacing" textLength="157" x="578" y="2531.5156">Task&lt;bool&gt; (true/false)</text><polygon fill="#000000" points="73,2577.8438,63,2581.8438,73,2585.8438,69,2581.8438" style="stroke:#000000;stroke-width:1.0;"/><line style="stroke:#000000;stroke-width:1.0;stroke-dasharray:2.0,2.0;" x1="67" x2="555" y1="2581.8438" y2="2581.8438"/><text fill="#000000" font-family="Verdana" font-size="13" lengthAdjust="spacing" textLength="87" x="79" y="2561.3149">HTTP 200 OK</text><text fill="#000000" font-family="Verdana" font-size="13" lengthAdjust="spacing" textLength="154" x="79" y="2577.1143">{ success: true/false }</text><!--SRC=[rLZRSjis47tdLspz97Ngsl6Z9yb4efHOgIKnfjnufkve81AsCAO05GHTAvt-UnUyWbVv-b0-yR8umEwUFLZm9xMc6mhRW31kAQO22XUK18hXIpiWOSXkc4SK4no6Et2tGYeu19V-5L7kKHWnSYl9nhA8fuI4WwzY1QwtfduKK7dDU-C7HIKdGVy0I5XyiRP4AkQnBU4A3ihp37VnB8XqpMt1bHG1ZeZ75uzbW6p5ZK3N7A5SAk-PHsEKul59A2R4SyQFY283pwDX64CKZvQFjoiIKZXmlvt7s3fsA-6lbhzVd4o5JuDu23wCXeRrT8Vs6AI5kzHeDkKg3HIQMNcmuV2Z4RbJSERk0ex8bXrvBO4FZroFy3t-h8ZorXEUvDTbFwZc0BidYffviefxlOuYzgSmVg1Uf6Yl1jGla8nSMSMzHifXN8L9w1bZiW5DnXFE52C1JW9U52gneJ84mltyoKQ4Mo4P3M6Z0nyMC9NbJphZavfXScbjOMsUVA5gHlzs0kBH8LLsjhuctqpd2YOz2i8WdbNSLu5iIRKnujbhmczf1fKvdRffIuPvOwI253CLCtmrja7JCxMU2RaXGJbUIusuGCHbFbTupJzf0dBgJyd3n8VvvSAvN1Gk98N01TvAThjM86xITu2NYqf4VN2ayB0093sDtnvgNs0nT-3a62-uaMAJIrqwRseubpwoTRM3oGW6hfs-lQ0gaXmZWv6OZ7v9jF2B5D4s6nQfRQIGaERIUzF15UBqBOeaqoksueN6R3BZVK73A43Mg6I2SemgGHzp5EhT7t-Y9XbJcKnBWb5AodwYnK9ZefXCQQk2HqBbl4L7u4nBULvzlUpMm0b_dOGpeMPH4CpbUBDLkrw_7uUvlNJiSWNlcdH58zJMf5ycn6a0jjSHlpEq0bbH5xuS8H1Y2vzn8qJFr-3fiV7x2dgbOcihrzDD-8quPw7gvm1DUSc-vJVj5UtgEYqfN-89A05VtVci3SAiuv6zhBCpg-vbHjEuabDVi9JPDXwKEGGzFLkJMyFyNRcqZG_jzPrTX-0GYRkZdgJmDC29AsPQ3hn8IjmreRmHLWopBU57PIQ0ds5sUNuEcEz4sOmoXdSrMsUWBHrqZUizo1cOvYUvUIuKUJuwr0BUdUQbbAm1nTD0BRuwWn5XmKuhHa4RizY7tMJQKsqf1vB2RuBlu6nJtGryNnEpOLlsT3FXwJmbK1YlXXAkozJU5JV8LOwBZHuIZcurvp0QIQWB4SjTQP6dOcY-2isuh63QfAfLhlQ6Bv6j2ZFQnQk4roLY7KAspqUTog6UlLz2ws98QLdTwePj9dRDIdFcQdeEePACttQCVLQ7KhZO-vJd7gThyQXeIPfrhVvzlxoP4gSTRLUuGkKSoR1qr2xfUV8dF4O4j668JO8WPRWZHB2Sy10Zss2OV036CUXfHUW19SkQckchkGLoethsQptDewXXLiAzO7uRP0FbCZLfhh2AgfImM-G3Zn0qYnJk0DyY6j5zSf6O6ueTZtfhbJ1tYBULYXR_cjkULnI9eWMgzZmlwdjoDvn1MYmBaNXKxNtQlEfIYHT9n9ukg5x7iI_Ee4pJmbGt5SdHqDUA21zWDl_Uw-yl-QVN-_-osCrUfAMuRR7P1bJLJjIz9nnFoZjV2rve70uhs9LOMA-qFsPBgPpVhPPTiMitRAVu8Op6v-F563vVpAUD9_Z4wllP-6AiZ_3lFq1zEOdDbCWxIBTqd4rIJqW_r7_GlDGLtwfHUl_krRXhMOyYRZjXhKUHiu6OyGuq4vLkzHNP-LHY7dUpyUs8Y79rt4R6pgn2ZukS7QYIU6H0z7vxib-GvsUb67Mdz5UnyijtGSAxzolipJv2Jyc87jtWSG3NRq2PVrhDVxPwzTcVv5CuMopY7sWm_-sQ_mDXbCQf08L_JLJZJ_1_]--></g></svg>