<svg xmlns="http://www.w3.org/2000/svg" xmlns:xlink="http://www.w3.org/1999/xlink" contentStyleType="text/css" height="728px" preserveAspectRatio="none" style="width:4373px;height:728px;background:#FFFFFF;" version="1.1" viewBox="0 0 4373 728" width="4373px" zoomAndPan="magnify"><defs/><g><text fill="#000000" font-family="Verdana" font-size="22" font-weight="bold" lengthAdjust="spacing" textLength="723" x="1823.5" y="37.1182">Realtime Classification By Sport - Database Flow Diagram</text><ellipse cx="2191.5" cy="62.7373" fill="#FFFFFF" rx="10" ry="10" style="stroke:#000000;stroke-width:1.0;"/><rect fill="#FFFFFF" height="34.584" rx="12.5" ry="12.5" style="stroke:#000000;stroke-width:1.0;" width="157" x="2113" y="92.7373"/><text fill="#000000" font-family="Verdana" font-size="12" lengthAdjust="spacing" textLength="137" x="2123" y="114.8018">Job Request Received</text><polygon fill="#FFFFFF" points="214.5,147.3213,287.5,147.3213,299.5,159.3213,287.5,171.3213,214.5,171.3213,202.5,159.3213,214.5,147.3213" style="stroke:#000000;stroke-width:1.0;"/><text fill="#000000" font-family="Verdana" font-size="11" lengthAdjust="spacing" textLength="155" x="255" y="182.3804">GetNewPlaceBetCustomers</text><text fill="#000000" font-family="Verdana" font-size="11" lengthAdjust="spacing" textLength="73" x="214.5" y="163.696">Action Type?</text><path d="M445,204.6899 L445,221.4893 L425,225.4893 L445,229.4893 L445,246.2886 A0,0 0 0 0 445,246.2886 L658,246.2886 A0,0 0 0 0 658,246.2886 L658,214.6899 L648,204.6899 L445,204.6899 A0,0 0 0 0 445,204.6899 " fill="#FFFFFF" style="stroke:#000000;stroke-width:1.0;"/><path d="M648,204.6899 L648,214.6899 L658,214.6899 L648,204.6899 " fill="#FFFFFF" style="stroke:#000000;stroke-width:1.0;"/><text fill="#000000" font-family="Verdana" font-size="13" lengthAdjust="spacing" textLength="80" x="451" y="222.7598">Parameters:</text><text fill="#000000" font-family="Verdana" font-size="13" lengthAdjust="spacing" textLength="192" x="451" y="238.5591">- @ScannedMaxId (OUTPUT)</text><rect fill="#FFFFFF" height="34.584" rx="12.5" ry="12.5" style="stroke:#000000;stroke-width:1.0;" width="348" x="77" y="208.1973"/><text fill="#000000" font-family="Verdana" font-size="12" lengthAdjust="spacing" textLength="328" x="87" y="230.2617">Create GetChangeCustomerRealtimeBySportCriteria</text><rect fill="#FFFFFF" height="34.584" rx="12.5" ry="12.5" style="stroke:#000000;stroke-width:1.0;" width="490" x="6" y="279.6572"/><text fill="#000000" font-family="Verdana" font-size="12" lengthAdjust="spacing" textLength="470" x="16" y="301.7217">Execute CTS_BySportNormalClassification_RealTime_GetChanges [VR2 DB]</text><path d="M330.5,349.2412 L330.5,413.4385 L310.5,417.4385 L330.5,421.4385 L330.5,485.6357 A0,0 0 0 0 330.5,485.6357 L662.5,485.6357 A0,0 0 0 0 662.5,485.6357 L662.5,359.2412 L652.5,349.2412 L330.5,349.2412 A0,0 0 0 0 330.5,349.2412 " fill="#FFFFFF" style="stroke:#000000;stroke-width:1.0;"/><path d="M652.5,349.2412 L652.5,359.2412 L662.5,359.2412 L652.5,349.2412 " fill="#FFFFFF" style="stroke:#000000;stroke-width:1.0;"/><text fill="#000000" font-family="Verdana" font-size="13" lengthAdjust="spacing" textLength="40" x="336.5" y="367.311">Logic:</text><text fill="#000000" font-family="Verdana" font-size="13" lengthAdjust="spacing" textLength="262" x="336.5" y="383.1104">- Get TOP 20000 from RealtimeChanges</text><text fill="#000000" font-family="Verdana" font-size="13" lengthAdjust="spacing" textLength="120" x="336.5" y="398.9097">- Order by ID ASC</text><text fill="#000000" font-family="Verdana" font-size="13" lengthAdjust="spacing" textLength="194" x="336.5" y="414.709">- Return: CustID, SportGroup</text><text fill="#000000" font-family="Verdana" font-size="13" lengthAdjust="spacing" textLength="230" x="336.5" y="430.5083">- Output: ScannedMaxId (MAX ID)</text><text fill="#000000" font-family="Verdana" font-size="13" lengthAdjust="spacing" textLength="56" x="336.5" y="446.3076">Returns:</text><text fill="#000000" font-family="Verdana" font-size="13" lengthAdjust="spacing" textLength="311" x="336.5" y="462.1069">- CustomerNewPlaceBets (CustID, SportGroup)</text><text fill="#000000" font-family="Verdana" font-size="13" lengthAdjust="spacing" textLength="108" x="336.5" y="477.9063">- ScannedMaxId</text><rect fill="#FFFFFF" height="34.584" rx="12.5" ry="12.5" style="stroke:#000000;stroke-width:1.0;" width="119" x="191.5" y="400.1465"/><text fill="#000000" font-family="Verdana" font-size="12" lengthAdjust="spacing" textLength="99" x="201.5" y="422.2109">Process Results</text><rect fill="#FFFFFF" height="34.584" rx="12.5" ry="12.5" style="stroke:#000000;stroke-width:1.0;" width="268" x="117" y="514.4531"/><text fill="#000000" font-family="Verdana" font-size="12" lengthAdjust="spacing" textLength="248" x="127" y="536.5176">Return GetNewPlaceBetCustomerModel</text><polygon fill="#FFFFFF" points="833,147.3213,962,147.3213,974,159.3213,962,171.3213,833,171.3213,821,159.3213,833,147.3213" style="stroke:#000000;stroke-width:1.0;"/><text fill="#000000" font-family="Verdana" font-size="11" lengthAdjust="spacing" textLength="129" x="833" y="163.696">GetCustomerCategory</text><path d="M1096,191.3213 L1096,208.1206 L1076,212.1206 L1096,216.1206 L1096,232.9199 A0,0 0 0 0 1096,232.9199 L1291,232.9199 A0,0 0 0 0 1291,232.9199 L1291,201.3213 L1281,191.3213 L1096,191.3213 A0,0 0 0 0 1096,191.3213 " fill="#FFFFFF" style="stroke:#000000;stroke-width:1.0;"/><path d="M1281,191.3213 L1281,201.3213 L1291,201.3213 L1281,191.3213 " fill="#FFFFFF" style="stroke:#000000;stroke-width:1.0;"/><text fill="#000000" font-family="Verdana" font-size="13" lengthAdjust="spacing" textLength="80" x="1102" y="209.3911">Parameters:</text><text fill="#000000" font-family="Verdana" font-size="13" lengthAdjust="spacing" textLength="174" x="1102" y="225.1904">- @ip_CustInfoList (JSON)</text><rect fill="#FFFFFF" height="34.584" rx="12.5" ry="12.5" style="stroke:#000000;stroke-width:1.0;" width="357" x="719" y="194.8286"/><text fill="#000000" font-family="Verdana" font-size="12" lengthAdjust="spacing" textLength="337" x="729" y="216.8931">Create GetCustomerCategoryRealtimeBySportCriteria</text><rect fill="#FFFFFF" height="34.584" rx="12.5" ry="12.5" style="stroke:#000000;stroke-width:1.0;" width="450" x="672.5" y="266.2886"/><text fill="#000000" font-family="Verdana" font-size="12" lengthAdjust="spacing" textLength="430" x="682.5" y="288.353">Execute CTS_DC_CustClassification_BySport_Realtime_GetCategory</text><path d="M1026,335.8726 L1026,407.9695 L1006,411.9695 L1026,415.9695 L1026,488.0664 A0,0 0 0 0 1026,488.0664 L1499,488.0664 A0,0 0 0 0 1499,488.0664 L1499,345.8726 L1489,335.8726 L1026,335.8726 A0,0 0 0 0 1026,335.8726 " fill="#FFFFFF" style="stroke:#000000;stroke-width:1.0;"/><path d="M1489,335.8726 L1489,345.8726 L1499,345.8726 L1489,335.8726 " fill="#FFFFFF" style="stroke:#000000;stroke-width:1.0;"/><text fill="#000000" font-family="Verdana" font-size="13" lengthAdjust="spacing" textLength="40" x="1032" y="353.9424">Logic:</text><text fill="#000000" font-family="Verdana" font-size="13" lengthAdjust="spacing" textLength="177" x="1032" y="369.7417">- Parse JSON customer list</text><text fill="#000000" font-family="Verdana" font-size="13" lengthAdjust="spacing" textLength="452" x="1032" y="385.541">- Get current classification from CTSCustomerClassification_BySport</text><text fill="#000000" font-family="Verdana" font-size="13" lengthAdjust="spacing" textLength="161" x="1032" y="401.3403">- Categorize customers:</text><text fill="#000000" font-family="Verdana" font-size="13" lengthAdjust="spacing" textLength="237" x="1042" y="417.1396">* NULL or Normal: CustomerNormals</text><text fill="#000000" font-family="Verdana" font-size="13" lengthAdjust="spacing" textLength="290" x="1042" y="432.939">* PA or PotentialPA: CustomerPADailyScans</text><text fill="#000000" font-family="Verdana" font-size="13" lengthAdjust="spacing" textLength="56" x="1032" y="448.7383">Returns:</text><text fill="#000000" font-family="Verdana" font-size="13" lengthAdjust="spacing" textLength="357" x="1032" y="464.5376">- ResultSet 1: CustomerNormals (CustID, SportGroup)</text><text fill="#000000" font-family="Verdana" font-size="13" lengthAdjust="spacing" textLength="394" x="1032" y="480.3369">- ResultSet 2: CustomerPADailyScans (CustID, SportGroup)</text><rect fill="#FFFFFF" height="34.584" rx="12.5" ry="12.5" style="stroke:#000000;stroke-width:1.0;" width="217" x="789" y="394.6775"/><text fill="#000000" font-family="Verdana" font-size="12" lengthAdjust="spacing" textLength="197" x="799" y="416.7419">Process Category Classification</text><rect fill="#FFFFFF" height="34.584" rx="12.5" ry="12.5" style="stroke:#000000;stroke-width:1.0;" width="293" x="751" y="516.8838"/><text fill="#000000" font-family="Verdana" font-size="12" lengthAdjust="spacing" textLength="273" x="761" y="538.9482">Return GetCustomerCategoryBySportModel</text><polygon fill="#FFFFFF" points="1650,147.3213,1850,147.3213,1862,159.3213,1850,171.3213,1650,171.3213,1638,159.3213,1650,147.3213" style="stroke:#000000;stroke-width:1.0;"/><text fill="#000000" font-family="Verdana" font-size="11" lengthAdjust="spacing" textLength="200" x="1650" y="163.696">PreprocessCustomerClassRealtime</text><path d="M1943.5,191.3213 L1943.5,208.1206 L1923.5,212.1206 L1943.5,216.1206 L1943.5,232.9199 A0,0 0 0 0 1943.5,232.9199 L2129.5,232.9199 A0,0 0 0 0 2129.5,232.9199 L2129.5,201.3213 L2119.5,191.3213 L1943.5,191.3213 A0,0 0 0 0 1943.5,191.3213 " fill="#FFFFFF" style="stroke:#000000;stroke-width:1.0;"/><path d="M2119.5,191.3213 L2119.5,201.3213 L2129.5,201.3213 L2119.5,191.3213 " fill="#FFFFFF" style="stroke:#000000;stroke-width:1.0;"/><text fill="#000000" font-family="Verdana" font-size="13" lengthAdjust="spacing" textLength="80" x="1949.5" y="209.3911">Parameters:</text><text fill="#000000" font-family="Verdana" font-size="13" lengthAdjust="spacing" textLength="165" x="1949.5" y="225.1904">- @CustomersXML (XML)</text><rect fill="#FFFFFF" height="34.584" rx="12.5" ry="12.5" style="stroke:#000000;stroke-width:1.0;" width="347" x="1576.5" y="194.8286"/><text fill="#000000" font-family="Verdana" font-size="12" lengthAdjust="spacing" textLength="327" x="1586.5" y="216.8931">Create PreprocessCustomerRealtimeBySportCriteria</text><path d="M2011,266.2886 L2011,306.7869 L1991,310.7869 L2011,314.7869 L2011,355.2852 A0,0 0 0 0 2011,355.2852 L2419,355.2852 A0,0 0 0 0 2419,355.2852 L2419,276.2886 L2409,266.2886 L2011,266.2886 A0,0 0 0 0 2011,266.2886 " fill="#FFFFFF" style="stroke:#000000;stroke-width:1.0;"/><path d="M2409,266.2886 L2409,276.2886 L2419,276.2886 L2409,266.2886 " fill="#FFFFFF" style="stroke:#000000;stroke-width:1.0;"/><text fill="#000000" font-family="Verdana" font-size="13" lengthAdjust="spacing" textLength="40" x="2017" y="284.3584">Logic:</text><text fill="#000000" font-family="Verdana" font-size="13" lengthAdjust="spacing" textLength="170" x="2017" y="300.1577">- Parse XML customer list</text><text fill="#000000" font-family="Verdana" font-size="13" lengthAdjust="spacing" textLength="387" x="2017" y="315.957">- Get Priority from CustomerClassification_BySport_Priority</text><text fill="#000000" font-family="Verdana" font-size="13" lengthAdjust="spacing" textLength="383" x="2017" y="331.7563">- Call CTS_BySportNormalClassification_NormalPool_Insert</text><text fill="#000000" font-family="Verdana" font-size="13" lengthAdjust="spacing" textLength="348" x="2017" y="347.5557">- Insert customers into Normal Pool for classification</text><rect fill="#FFFFFF" height="34.584" rx="12.5" ry="12.5" style="stroke:#000000;stroke-width:1.0;" width="482" x="1509" y="293.4949"/><text fill="#000000" font-family="Verdana" font-size="12" lengthAdjust="spacing" textLength="462" x="1519" y="315.5593">Execute CTS_BySportNormalClassification_RealTime_Preprocess [VR2 DB]</text><rect fill="#FFFFFF" height="34.584" rx="12.5" ry="12.5" style="stroke:#000000;stroke-width:1.0;" width="193" x="1653.5" y="390.2852"/><text fill="#000000" font-family="Verdana" font-size="12" lengthAdjust="spacing" textLength="173" x="1663.5" y="412.3496">Process Preprocess Results</text><rect fill="#FFFFFF" height="34.584" rx="12.5" ry="12.5" style="stroke:#000000;stroke-width:1.0;" width="116" x="1692" y="459.8691"/><text fill="#000000" font-family="Verdana" font-size="12" lengthAdjust="spacing" textLength="96" x="1702" y="481.9336">Return Success</text><polygon fill="#FFFFFF" points="2601,147.3213,2744,147.3213,2756,159.3213,2744,171.3213,2601,171.3213,2589,159.3213,2601,147.3213" style="stroke:#000000;stroke-width:1.0;"/><text fill="#000000" font-family="Verdana" font-size="11" lengthAdjust="spacing" textLength="143" x="2601" y="163.696">InsertPADailyScanQueue</text><path d="M2836.5,191.3213 L2836.5,208.1206 L2816.5,212.1206 L2836.5,216.1206 L2836.5,232.9199 A0,0 0 0 0 2836.5,232.9199 L3031.5,232.9199 A0,0 0 0 0 3031.5,232.9199 L3031.5,201.3213 L3021.5,191.3213 L2836.5,191.3213 A0,0 0 0 0 2836.5,191.3213 " fill="#FFFFFF" style="stroke:#000000;stroke-width:1.0;"/><path d="M3021.5,191.3213 L3021.5,201.3213 L3031.5,201.3213 L3021.5,191.3213 " fill="#FFFFFF" style="stroke:#000000;stroke-width:1.0;"/><text fill="#000000" font-family="Verdana" font-size="13" lengthAdjust="spacing" textLength="80" x="2842.5" y="209.3911">Parameters:</text><text fill="#000000" font-family="Verdana" font-size="13" lengthAdjust="spacing" textLength="174" x="2842.5" y="225.1904">- @ip_CustInfoList (JSON)</text><rect fill="#FFFFFF" height="34.584" rx="12.5" ry="12.5" style="stroke:#000000;stroke-width:1.0;" width="288" x="2528.5" y="194.8286"/><text fill="#000000" font-family="Verdana" font-size="12" lengthAdjust="spacing" textLength="268" x="2538.5" y="216.8931">Create InsertQueuePADailyBySportCriteria</text><path d="M2936,266.2886 L2936,298.8872 L2916,302.8872 L2936,306.8872 L2936,339.4858 A0,0 0 0 0 2936,339.4858 L3376,339.4858 A0,0 0 0 0 3376,339.4858 L3376,276.2886 L3366,266.2886 L2936,266.2886 A0,0 0 0 0 2936,266.2886 " fill="#FFFFFF" style="stroke:#000000;stroke-width:1.0;"/><path d="M3366,266.2886 L3366,276.2886 L3376,276.2886 L3366,266.2886 " fill="#FFFFFF" style="stroke:#000000;stroke-width:1.0;"/><text fill="#000000" font-family="Verdana" font-size="13" lengthAdjust="spacing" textLength="40" x="2942" y="284.3584">Logic:</text><text fill="#000000" font-family="Verdana" font-size="13" lengthAdjust="spacing" textLength="177" x="2942" y="300.1577">- Parse JSON customer list</text><text fill="#000000" font-family="Verdana" font-size="13" lengthAdjust="spacing" textLength="419" x="2942" y="315.957">- Insert into CTSCustomerClassification_BySport_DailyPAQueue</text><text fill="#000000" font-family="Verdana" font-size="13" lengthAdjust="spacing" textLength="186" x="2942" y="331.7563">- Set CreatedTime = NOW()</text><rect fill="#FFFFFF" height="34.584" rx="12.5" ry="12.5" style="stroke:#000000;stroke-width:1.0;" width="487" x="2429" y="285.5952"/><text fill="#000000" font-family="Verdana" font-size="12" lengthAdjust="spacing" textLength="467" x="2439" y="307.6597">Execute CTS_DC_CustClassification_BySport_DailyScanPA_InsertToQueue</text><rect fill="#FFFFFF" height="34.584" rx="12.5" ry="12.5" style="stroke:#000000;stroke-width:1.0;" width="176" x="2584.5" y="374.4858"/><text fill="#000000" font-family="Verdana" font-size="12" lengthAdjust="spacing" textLength="156" x="2594.5" y="396.5503">Process Queue Insertion</text><rect fill="#FFFFFF" height="34.584" rx="12.5" ry="12.5" style="stroke:#000000;stroke-width:1.0;" width="116" x="2614.5" y="444.0698"/><text fill="#000000" font-family="Verdana" font-size="12" lengthAdjust="spacing" textLength="96" x="2624.5" y="466.1343">Return Success</text><polygon fill="#FFFFFF" points="3541.5,147.3213,3702.5,147.3213,3714.5,159.3213,3702.5,171.3213,3541.5,171.3213,3529.5,159.3213,3541.5,147.3213" style="stroke:#000000;stroke-width:1.0;"/><text fill="#000000" font-family="Verdana" font-size="11" lengthAdjust="spacing" textLength="161" x="3541.5" y="163.696">CompleteCustomerRealtime</text><text fill="#000000" font-family="Verdana" font-size="11" lengthAdjust="spacing" textLength="77" x="3714.5" y="157.0117">Other Actions</text><path d="M3810.5,191.3213 L3810.5,208.1206 L3790.5,212.1206 L3810.5,216.1206 L3810.5,232.9199 A0,0 0 0 0 3810.5,232.9199 L3952.5,232.9199 A0,0 0 0 0 3952.5,232.9199 L3952.5,201.3213 L3942.5,191.3213 L3810.5,191.3213 A0,0 0 0 0 3810.5,191.3213 " fill="#FFFFFF" style="stroke:#000000;stroke-width:1.0;"/><path d="M3942.5,191.3213 L3942.5,201.3213 L3952.5,201.3213 L3942.5,191.3213 " fill="#FFFFFF" style="stroke:#000000;stroke-width:1.0;"/><text fill="#000000" font-family="Verdana" font-size="13" lengthAdjust="spacing" textLength="80" x="3816.5" y="209.3911">Parameters:</text><text fill="#000000" font-family="Verdana" font-size="13" lengthAdjust="spacing" textLength="121" x="3816.5" y="225.1904">- @ScannedMaxId</text><rect fill="#FFFFFF" height="34.584" rx="12.5" ry="12.5" style="stroke:#000000;stroke-width:1.0;" width="337" x="3453.5" y="194.8286"/><text fill="#000000" font-family="Verdana" font-size="12" lengthAdjust="spacing" textLength="317" x="3463.5" y="216.8931">Create CompleteCustomerRealtimeBySportCriteria</text><rect fill="#FFFFFF" height="34.584" rx="12.5" ry="12.5" style="stroke:#000000;stroke-width:1.0;" width="472" x="3386" y="266.2886"/><text fill="#000000" font-family="Verdana" font-size="12" lengthAdjust="spacing" textLength="452" x="3396" y="288.353">Execute CTS_BySportNormalClassification_RealTime_Complete [VR2 DB]</text><path d="M3734,335.8726 L3734,368.4712 L3714,372.4712 L3734,376.4712 L3734,409.0698 A0,0 0 0 0 3734,409.0698 L4190,409.0698 A0,0 0 0 0 4190,409.0698 L4190,345.8726 L4180,335.8726 L3734,335.8726 A0,0 0 0 0 3734,335.8726 " fill="#FFFFFF" style="stroke:#000000;stroke-width:1.0;"/><path d="M4180,335.8726 L4180,345.8726 L4190,345.8726 L4180,335.8726 " fill="#FFFFFF" style="stroke:#000000;stroke-width:1.0;"/><text fill="#000000" font-family="Verdana" font-size="13" lengthAdjust="spacing" textLength="40" x="3740" y="353.9424">Logic:</text><text fill="#000000" font-family="Verdana" font-size="13" lengthAdjust="spacing" textLength="435" x="3740" y="369.7417">- DELETE FROM CustomerClassification_BySport_RealtimeChanges</text><text fill="#000000" font-family="Verdana" font-size="13" lengthAdjust="spacing" textLength="214" x="3740" y="385.541">- WHERE ID &lt;= @ScannedMaxId</text><text fill="#000000" font-family="Verdana" font-size="13" lengthAdjust="spacing" textLength="262" x="3740" y="401.3403">- Mark processed records as completed</text><rect fill="#FFFFFF" height="34.584" rx="12.5" ry="12.5" style="stroke:#000000;stroke-width:1.0;" width="184" x="3530" y="355.1792"/><text fill="#000000" font-family="Verdana" font-size="12" lengthAdjust="spacing" textLength="164" x="3540" y="377.2437">Delete Processed Records</text><rect fill="#FFFFFF" height="34.584" rx="12.5" ry="12.5" style="stroke:#000000;stroke-width:1.0;" width="116" x="3564" y="444.0698"/><text fill="#000000" font-family="Verdana" font-size="12" lengthAdjust="spacing" textLength="96" x="3574" y="466.1343">Return Success</text><rect fill="#FFFFFF" height="34.584" rx="12.5" ry="12.5" style="stroke:#000000;stroke-width:1.0;" width="167" x="4200" y="359.3782"/><text fill="#000000" font-family="Verdana" font-size="12" lengthAdjust="spacing" textLength="147" x="4210" y="381.4426">Handle Other Requests</text><rect fill="#FFFFFF" height="34.584" rx="12.5" ry="12.5" style="stroke:#000000;stroke-width:1.0;" width="163" x="2110" y="591.4678"/><text fill="#000000" font-family="Verdana" font-size="12" lengthAdjust="spacing" textLength="143" x="2120" y="613.5322">Map to Entities/Models</text><rect fill="#FFFFFF" height="34.584" rx="12.5" ry="12.5" style="stroke:#000000;stroke-width:1.0;" width="167" x="2108" y="646.0518"/><text fill="#000000" font-family="Verdana" font-size="12" lengthAdjust="spacing" textLength="147" x="2118" y="668.1162">Return to Service Layer</text><ellipse cx="2191.5" cy="711.6357" fill="none" rx="11" ry="11" style="stroke:#000000;stroke-width:1.0;"/><ellipse cx="2191.5" cy="711.6357" fill="#FFFFFF" rx="6" ry="6" style="stroke:#000000;stroke-width:1.0;"/><line style="stroke:#000000;stroke-width:1.0;" x1="2191.5" x2="2191.5" y1="72.7373" y2="92.7373"/><polygon fill="#000000" points="2187.5,82.7373,2191.5,92.7373,2195.5,82.7373,2191.5,86.7373" style="stroke:#000000;stroke-width:1.0;"/><line style="stroke:#000000;stroke-width:1.0;" x1="251" x2="251" y1="242.7813" y2="279.6572"/><polygon fill="#000000" points="247,269.6572,251,279.6572,255,269.6572,251,273.6572" style="stroke:#000000;stroke-width:1.0;"/><line style="stroke:#000000;stroke-width:1.0;" x1="251" x2="251" y1="314.2412" y2="400.1465"/><polygon fill="#000000" points="247,390.1465,251,400.1465,255,390.1465,251,394.1465" style="stroke:#000000;stroke-width:1.0;"/><line style="stroke:#000000;stroke-width:1.0;" x1="251" x2="251" y1="434.7305" y2="514.4531"/><polygon fill="#000000" points="247,504.4531,251,514.4531,255,504.4531,251,508.4531" style="stroke:#000000;stroke-width:1.0;"/><line style="stroke:#000000;stroke-width:1.0;" x1="897.5" x2="897.5" y1="229.4126" y2="266.2886"/><polygon fill="#000000" points="893.5,256.2886,897.5,266.2886,901.5,256.2886,897.5,260.2886" style="stroke:#000000;stroke-width:1.0;"/><line style="stroke:#000000;stroke-width:1.0;" x1="897.5" x2="897.5" y1="300.8726" y2="394.6775"/><polygon fill="#000000" points="893.5,384.6775,897.5,394.6775,901.5,384.6775,897.5,388.6775" style="stroke:#000000;stroke-width:1.0;"/><line style="stroke:#000000;stroke-width:1.0;" x1="897.5" x2="897.5" y1="429.2615" y2="516.8838"/><polygon fill="#000000" points="893.5,506.8838,897.5,516.8838,901.5,506.8838,897.5,510.8838" style="stroke:#000000;stroke-width:1.0;"/><line style="stroke:#000000;stroke-width:1.0;" x1="1750" x2="1750" y1="229.4126" y2="293.4949"/><polygon fill="#000000" points="1746,283.4949,1750,293.4949,1754,283.4949,1750,287.4949" style="stroke:#000000;stroke-width:1.0;"/><line style="stroke:#000000;stroke-width:1.0;" x1="1750" x2="1750" y1="328.0789" y2="390.2852"/><polygon fill="#000000" points="1746,380.2852,1750,390.2852,1754,380.2852,1750,384.2852" style="stroke:#000000;stroke-width:1.0;"/><line style="stroke:#000000;stroke-width:1.0;" x1="1750" x2="1750" y1="424.8691" y2="459.8691"/><polygon fill="#000000" points="1746,449.8691,1750,459.8691,1754,449.8691,1750,453.8691" style="stroke:#000000;stroke-width:1.0;"/><line style="stroke:#000000;stroke-width:1.0;" x1="2672.5" x2="2672.5" y1="229.4126" y2="285.5952"/><polygon fill="#000000" points="2668.5,275.5952,2672.5,285.5952,2676.5,275.5952,2672.5,279.5952" style="stroke:#000000;stroke-width:1.0;"/><line style="stroke:#000000;stroke-width:1.0;" x1="2672.5" x2="2672.5" y1="320.1792" y2="374.4858"/><polygon fill="#000000" points="2668.5,364.4858,2672.5,374.4858,2676.5,364.4858,2672.5,368.4858" style="stroke:#000000;stroke-width:1.0;"/><line style="stroke:#000000;stroke-width:1.0;" x1="2672.5" x2="2672.5" y1="409.0698" y2="444.0698"/><polygon fill="#000000" points="2668.5,434.0698,2672.5,444.0698,2676.5,434.0698,2672.5,438.0698" style="stroke:#000000;stroke-width:1.0;"/><line style="stroke:#000000;stroke-width:1.0;" x1="3622" x2="3622" y1="229.4126" y2="266.2886"/><polygon fill="#000000" points="3618,256.2886,3622,266.2886,3626,256.2886,3622,260.2886" style="stroke:#000000;stroke-width:1.0;"/><line style="stroke:#000000;stroke-width:1.0;" x1="3622" x2="3622" y1="300.8726" y2="355.1792"/><polygon fill="#000000" points="3618,345.1792,3622,355.1792,3626,345.1792,3622,349.1792" style="stroke:#000000;stroke-width:1.0;"/><line style="stroke:#000000;stroke-width:1.0;" x1="3622" x2="3622" y1="389.7632" y2="444.0698"/><polygon fill="#000000" points="3618,434.0698,3622,444.0698,3626,434.0698,3622,438.0698" style="stroke:#000000;stroke-width:1.0;"/><line style="stroke:#000000;stroke-width:1.0;" x1="251" x2="251" y1="171.3213" y2="208.1973"/><polygon fill="#000000" points="247,198.1973,251,208.1973,255,198.1973,251,202.1973" style="stroke:#000000;stroke-width:1.0;"/><line style="stroke:#000000;stroke-width:1.0;" x1="251" x2="251" y1="549.0371" y2="571.4678"/><polygon fill="#000000" points="247,561.4678,251,571.4678,255,561.4678,251,565.4678" style="stroke:#000000;stroke-width:1.0;"/><line style="stroke:#000000;stroke-width:1.0;" x1="897.5" x2="897.5" y1="171.3213" y2="194.8286"/><polygon fill="#000000" points="893.5,184.8286,897.5,194.8286,901.5,184.8286,897.5,188.8286" style="stroke:#000000;stroke-width:1.0;"/><line style="stroke:#000000;stroke-width:1.0;" x1="897.5" x2="897.5" y1="551.4678" y2="571.4678"/><polygon fill="#000000" points="893.5,561.4678,897.5,571.4678,901.5,561.4678,897.5,565.4678" style="stroke:#000000;stroke-width:1.0;"/><line style="stroke:#000000;stroke-width:1.0;" x1="1750" x2="1750" y1="171.3213" y2="194.8286"/><polygon fill="#000000" points="1746,184.8286,1750,194.8286,1754,184.8286,1750,188.8286" style="stroke:#000000;stroke-width:1.0;"/><line style="stroke:#000000;stroke-width:1.0;" x1="1750" x2="1750" y1="494.4531" y2="571.4678"/><polygon fill="#000000" points="1746,561.4678,1750,571.4678,1754,561.4678,1750,565.4678" style="stroke:#000000;stroke-width:1.0;"/><line style="stroke:#000000;stroke-width:1.0;" x1="2672.5" x2="2672.5" y1="171.3213" y2="194.8286"/><polygon fill="#000000" points="2668.5,184.8286,2672.5,194.8286,2676.5,184.8286,2672.5,188.8286" style="stroke:#000000;stroke-width:1.0;"/><line style="stroke:#000000;stroke-width:1.0;" x1="2672.5" x2="2672.5" y1="478.6538" y2="571.4678"/><polygon fill="#000000" points="2668.5,561.4678,2672.5,571.4678,2676.5,561.4678,2672.5,565.4678" style="stroke:#000000;stroke-width:1.0;"/><line style="stroke:#000000;stroke-width:1.0;" x1="3622" x2="3622" y1="171.3213" y2="194.8286"/><polygon fill="#000000" points="3618,184.8286,3622,194.8286,3626,184.8286,3622,188.8286" style="stroke:#000000;stroke-width:1.0;"/><line style="stroke:#000000;stroke-width:1.0;" x1="3622" x2="3622" y1="478.6538" y2="571.4678"/><polygon fill="#000000" points="3618,561.4678,3622,571.4678,3626,561.4678,3622,565.4678" style="stroke:#000000;stroke-width:1.0;"/><line style="stroke:#000000;stroke-width:1.0;" x1="299.5" x2="821" y1="159.3213" y2="159.3213"/><polygon fill="#000000" points="811,155.3213,821,159.3213,811,163.3213,815,159.3213" style="stroke:#000000;stroke-width:1.0;"/><line style="stroke:#000000;stroke-width:1.0;" x1="974" x2="1638" y1="159.3213" y2="159.3213"/><polygon fill="#000000" points="1628,155.3213,1638,159.3213,1628,163.3213,1632,159.3213" style="stroke:#000000;stroke-width:1.0;"/><line style="stroke:#000000;stroke-width:1.0;" x1="1862" x2="2589" y1="159.3213" y2="159.3213"/><polygon fill="#000000" points="2579,155.3213,2589,159.3213,2579,163.3213,2583,159.3213" style="stroke:#000000;stroke-width:1.0;"/><line style="stroke:#000000;stroke-width:1.0;" x1="2756" x2="3529.5" y1="159.3213" y2="159.3213"/><polygon fill="#000000" points="3519.5,155.3213,3529.5,159.3213,3519.5,163.3213,3523.5,159.3213" style="stroke:#000000;stroke-width:1.0;"/><line style="stroke:#000000;stroke-width:1.0;" x1="2191.5" x2="2191.5" y1="127.3213" y2="132.3213"/><line style="stroke:#000000;stroke-width:1.0;" x1="2191.5" x2="251" y1="132.3213" y2="132.3213"/><line style="stroke:#000000;stroke-width:1.0;" x1="251" x2="251" y1="132.3213" y2="147.3213"/><polygon fill="#000000" points="247,137.3213,251,147.3213,255,137.3213,251,141.3213" style="stroke:#000000;stroke-width:1.0;"/><line style="stroke:#000000;stroke-width:1.0;" x1="3714.5" x2="4283.5" y1="159.3213" y2="159.3213"/><line style="stroke:#000000;stroke-width:1.0;" x1="4283.5" x2="4283.5" y1="159.3213" y2="359.3782"/><polygon fill="#000000" points="4279.5,349.3782,4283.5,359.3782,4287.5,349.3782,4283.5,353.3782" style="stroke:#000000;stroke-width:1.0;"/><line style="stroke:#000000;stroke-width:1.0;" x1="4283.5" x2="4283.5" y1="393.9622" y2="571.4678"/><polygon fill="#000000" points="4279.5,561.4678,4283.5,571.4678,4287.5,561.4678,4283.5,565.4678" style="stroke:#000000;stroke-width:1.0;"/><line style="stroke:#000000;stroke-width:1.0;" x1="251" x2="4283.5" y1="571.4678" y2="571.4678"/><line style="stroke:#000000;stroke-width:1.0;" x1="2191.5" x2="2191.5" y1="571.4678" y2="591.4678"/><polygon fill="#000000" points="2187.5,581.4678,2191.5,591.4678,2195.5,581.4678,2191.5,585.4678" style="stroke:#000000;stroke-width:1.0;"/><line style="stroke:#000000;stroke-width:1.0;" x1="2191.5" x2="2191.5" y1="626.0518" y2="646.0518"/><polygon fill="#000000" points="2187.5,636.0518,2191.5,646.0518,2195.5,636.0518,2191.5,640.0518" style="stroke:#000000;stroke-width:1.0;"/><line style="stroke:#000000;stroke-width:1.0;" x1="2191.5" x2="2191.5" y1="680.6357" y2="700.6357"/><polygon fill="#000000" points="2187.5,690.6357,2191.5,700.6357,2195.5,690.6357,2191.5,694.6357" style="stroke:#000000;stroke-width:1.0;"/><!--SRC=[pPPTZzCw48Rlyok6k_O816Slko3e9cLPr8_GTW49eSgRJBlMSUDWEq3vzKpi94tIj0Mf5oSNhMAFFQzd7a_cYNd4BK8g64yymur0c2CJXjEWBvZMVCqZPhXCu6O7YrGg0yyWO8OzC8tmLiWV472sKMphUTemPRp1U_b0ctpBK1lwZv1_n_ZQy_WQUiF8RhNSfVYw3-GxWTujcYd-20MBy0QDdsaZjwXqtmDw1hv2PX38o7zaoGRB-LBbpSwAyXKtg3YxjgiIIKiKtpmQ-ve_8IE9I3PwK8qzWpUBY2K9nXFsyow6tkn-6TuldMTCOhkFap7wYL56c_hBnQfmEPLgoqGpIAjSrf9ahIh16hvyd5z1SFFLQHk4IaQeDOL6PyBeeuh7SiEZkbZQ4fQp4AvUq0Dh9RTLhWfNDUEPYb71mmxk0XWk_DhC74scaW7aaRmBdhgatYgPfVNbcKapCu1cV2R3pxHVlx9pMpKYMkQdbb8DlKDV_TgQkfEEs3ilqCt9HCOeN0mz51fpocxtqpx1iv5gvs0xGAfbTI6eUBgo1qxMSipf4lJUBsRJSrG5lbtKugbGiYgLMQuAjIsUok7MlVrplkWqTALphH0LWG51-bi8HfbIcD1_ipnO7kaWLKmx3r8dnUdblx1oLmiZm3ymlH-FGIfmDssmPyk-wuPjECmjGpfcOZWJuN1l7Wu3niKkfqoVGjTTo0KTyTy3N-SGtg-zwdPyV8DZiBVXB2BO1NoeC7KKDA9VGjC1_-6A2x5VrU_Fap7qwESYrNGljrLD_vphNCyfh4F52KQpAq0-IV6gD6xWBCJP0xd1K4gnkaiqDkw36zZV1U29aGNxa2-1DH7Ul7KTiItBGIraZIzDITWYY_B95abEH0tS3nbcNG0vGpjRMF__YcPrY71OX7ifhUABriGYRpPRP-kVqnGEhOpw9v08T96DS-3X5Knddthz4_crEnJEgp9_Ehc-tAQ28j- -yXtfFMPwmNRh4dMXbDdkiGAqeqMiCCxxKAdYlsYsWj5uj1p1s_biSguO76_2FhqRpKTv1_RoLSVPdSs4gVyWhOGg9nIOXgWut8cUw33FrCHICXMuJhliej-n9ARMtaqLlJcjeZtvslC64vO2qJkYJwVXg9_RRmpDbsveRe7gEuyGnco7wffQVPbwlm40]--></g></svg>