<svg xmlns="http://www.w3.org/2000/svg" xmlns:xlink="http://www.w3.org/1999/xlink" contentStyleType="text/css" height="584px" preserveAspectRatio="none" style="width:825px;height:584px;background:#FFFFFF;" version="1.1" viewBox="0 0 825 584" width="825px" zoomAndPan="magnify"><defs/><g><text fill="#000000" font-family="Verdana" font-size="22" font-weight="bold" lengthAdjust="spacing" textLength="783" x="19.5" y="37.1182">Realtime Classification By Sport - SP Preprocess Detailed Flow</text><ellipse cx="190.5" cy="62.7373" fill="#FFFFFF" rx="10" ry="10" style="stroke:#000000;stroke-width:1.0;"/><path d="M395,82.7373 L395,107.4363 L375,111.4363 L395,115.4363 L395,140.1353 A0,0 0 0 0 395,140.1353 L818,140.1353 A0,0 0 0 0 818,140.1353 L818,92.7373 L808,82.7373 L395,82.7373 A0,0 0 0 0 395,82.7373 " fill="#FFFFFF" style="stroke:#000000;stroke-width:1.0;"/><path d="M808,82.7373 L808,92.7373 L818,92.7373 L808,82.7373 " fill="#FFFFFF" style="stroke:#000000;stroke-width:1.0;"/><text fill="#000000" font-family="Verdana" font-size="13" lengthAdjust="spacing" textLength="267" x="401" y="100.8071">Database: bodb_VR2Model (SQL Server)</text><text fill="#000000" font-family="Verdana" font-size="13" lengthAdjust="spacing" textLength="402" x="401" y="116.6064">Tables: CustomerClassification_BySport_Priority, Normal Pool</text><text fill="#000000" font-family="Verdana" font-size="13" lengthAdjust="spacing" textLength="231" x="401" y="132.4058">Parameter: @CustomersXML (XML)</text><rect fill="#FFFFFF" height="34.584" rx="12.5" ry="12.5" style="stroke:#000000;stroke-width:1.0;" width="369" x="6" y="94.1443"/><text fill="#000000" font-family="Verdana" font-size="12" lengthAdjust="spacing" textLength="349" x="16" y="116.2087">CTS_BySportNormalClassification_RealTime_Preprocess</text><path d="M280,150.1353 L280,182.7339 L260,186.7339 L280,190.7339 L280,223.3325 A0,0 0 0 0 280,223.3325 L545,223.3325 A0,0 0 0 0 545,223.3325 L545,160.1353 L535,150.1353 L280,150.1353 A0,0 0 0 0 280,150.1353 " fill="#FFFFFF" style="stroke:#000000;stroke-width:1.0;"/><path d="M535,150.1353 L535,160.1353 L545,160.1353 L535,150.1353 " fill="#FFFFFF" style="stroke:#000000;stroke-width:1.0;"/><text fill="#000000" font-family="Verdana" font-size="13" lengthAdjust="spacing" textLength="13" x="286" y="168.2051">1.</text><text fill="#000000" font-family="Verdana" font-size="13" lengthAdjust="spacing" textLength="100" x="304" y="168.2051">tmpCustomers:</text><text fill="#000000" font-family="Verdana" font-size="13" lengthAdjust="spacing" textLength="95" x="286" y="184.0044">- CustId (INT)</text><text fill="#000000" font-family="Verdana" font-size="13" lengthAdjust="spacing" textLength="126" x="286" y="199.8037">- SportGroup (INT)</text><text fill="#000000" font-family="Verdana" font-size="13" lengthAdjust="spacing" textLength="244" x="286" y="215.603">- PRIMARY KEY (CustId, SportGroup)</text><rect fill="#FFFFFF" height="34.584" rx="12.5" ry="12.5" style="stroke:#000000;stroke-width:1.0;" width="139" x="121" y="169.4419"/><text fill="#000000" font-family="Verdana" font-size="12" lengthAdjust="spacing" textLength="119" x="131" y="191.5063">Create Temp Table</text><path d="M298.5,233.3325 L298.5,273.8308 L278.5,277.8308 L298.5,281.8308 L298.5,322.3291 A0,0 0 0 0 298.5,322.3291 L702.5,322.3291 A0,0 0 0 0 702.5,322.3291 L702.5,243.3325 L692.5,233.3325 L298.5,233.3325 A0,0 0 0 0 298.5,233.3325 " fill="#FFFFFF" style="stroke:#000000;stroke-width:1.0;"/><path d="M692.5,233.3325 L692.5,243.3325 L702.5,243.3325 L692.5,233.3325 " fill="#FFFFFF" style="stroke:#000000;stroke-width:1.0;"/><text fill="#000000" font-family="Verdana" font-size="13" lengthAdjust="spacing" textLength="195" x="304.5" y="251.4023">INSERT INTO #tmpCustomers</text><text fill="#000000" font-family="Verdana" font-size="13" lengthAdjust="spacing" textLength="50" x="304.5" y="267.2017">SELECT</text><text fill="#000000" font-family="Verdana" font-size="13" lengthAdjust="spacing" textLength="258" x="314.5" y="283.001">T.C.value('./@CustId', 'INT') AS CustId</text><text fill="#000000" font-family="Verdana" font-size="13" lengthAdjust="spacing" textLength="373" x="314.5" y="298.8003">, T.C.value('./@SportGroup', 'SMALLINT') AS SportGroup</text><text fill="#000000" font-family="Verdana" font-size="13" lengthAdjust="spacing" textLength="288" x="304.5" y="314.5996">FROM @CustomersXML.nodes('//r') AS T(C)</text><rect fill="#FFFFFF" height="34.584" rx="12.5" ry="12.5" style="stroke:#000000;stroke-width:1.0;" width="176" x="102.5" y="260.5388"/><text fill="#000000" font-family="Verdana" font-size="12" lengthAdjust="spacing" textLength="156" x="112.5" y="282.6033">Parse XML Customer List</text><path d="M255.5,332.3291 L255.5,380.7271 L235.5,384.7271 L255.5,388.7271 L255.5,437.125 A0,0 0 0 0 255.5,437.125 L616.5,437.125 A0,0 0 0 0 616.5,437.125 L616.5,342.3291 L606.5,332.3291 L255.5,332.3291 A0,0 0 0 0 255.5,332.3291 " fill="#FFFFFF" style="stroke:#000000;stroke-width:1.0;"/><path d="M606.5,332.3291 L606.5,342.3291 L616.5,342.3291 L606.5,332.3291 " fill="#FFFFFF" style="stroke:#000000;stroke-width:1.0;"/><text fill="#000000" font-family="Verdana" font-size="13" lengthAdjust="spacing" textLength="226" x="261.5" y="350.3989">SELECT ISNULL(p.[Priority], 9999)</text><text fill="#000000" font-family="Verdana" font-size="13" lengthAdjust="spacing" textLength="340" x="261.5" y="366.1982">FROM CustomerClassification_BySport_Priority AS p</text><text fill="#000000" font-family="Verdana" font-size="13" lengthAdjust="spacing" textLength="142" x="261.5" y="381.9976">WHERE p.GroupId = 1</text><text fill="#000000" font-family="Verdana" font-size="13" lengthAdjust="spacing" textLength="142" x="271.5" y="397.7969">AND p.FunctionId = 1</text><text fill="#000000" font-family="Verdana" font-size="13" lengthAdjust="spacing" textLength="89" x="271.5" y="413.5962">(RealtimeJob)</text><text fill="#000000" font-family="Verdana" font-size="13" lengthAdjust="spacing" textLength="59" x="261.5" y="429.3955">@Priority</text><rect fill="#FFFFFF" height="34.584" rx="12.5" ry="12.5" style="stroke:#000000;stroke-width:1.0;" width="90" x="145.5" y="367.4351"/><text fill="#000000" font-family="Verdana" font-size="12" lengthAdjust="spacing" textLength="70" x="155.5" y="389.4995">Get Priority</text><path d="M293,447.125 L293,487.6233 L273,491.6233 L293,495.6233 L293,536.1216 A0,0 0 0 0 293,536.1216 L696,536.1216 A0,0 0 0 0 696,536.1216 L696,457.125 L686,447.125 L293,447.125 A0,0 0 0 0 293,447.125 " fill="#FFFFFF" style="stroke:#000000;stroke-width:1.0;"/><path d="M686,447.125 L686,457.125 L696,457.125 L686,447.125 " fill="#FFFFFF" style="stroke:#000000;stroke-width:1.0;"/><text fill="#000000" font-family="Verdana" font-size="13" lengthAdjust="spacing" textLength="382" x="299" y="465.1948">EXEC CTS_BySportNormalClassification_NormalPool_Insert</text><text fill="#000000" font-family="Verdana" font-size="13" lengthAdjust="spacing" textLength="110" x="299" y="480.9941">@FunctionId = 1</text><text fill="#000000" font-family="Verdana" font-size="13" lengthAdjust="spacing" textLength="137" x="299" y="496.7935">@Priority = @Priority</text><text fill="#000000" font-family="Verdana" font-size="13" lengthAdjust="spacing" textLength="223" x="299" y="512.5928">Insert customers into Normal Pool</text><text fill="#000000" font-family="Verdana" font-size="13" lengthAdjust="spacing" textLength="218" x="299" y="528.3921">for later classification processing</text><rect fill="#FFFFFF" height="34.584" rx="12.5" ry="12.5" style="stroke:#000000;stroke-width:1.0;" width="165" x="108" y="474.3313"/><text fill="#000000" font-family="Verdana" font-size="12" lengthAdjust="spacing" textLength="145" x="118" y="496.3958">Insert into Normal Pool</text><ellipse cx="190.5" cy="567.1216" fill="none" rx="11" ry="11" style="stroke:#000000;stroke-width:1.0;"/><ellipse cx="190.5" cy="567.1216" fill="#FFFFFF" rx="6" ry="6" style="stroke:#000000;stroke-width:1.0;"/><line style="stroke:#000000;stroke-width:1.0;" x1="190.5" x2="190.5" y1="72.7373" y2="94.1443"/><polygon fill="#000000" points="186.5,84.1443,190.5,94.1443,194.5,84.1443,190.5,88.1443" style="stroke:#000000;stroke-width:1.0;"/><line style="stroke:#000000;stroke-width:1.0;" x1="190.5" x2="190.5" y1="128.7283" y2="169.4419"/><polygon fill="#000000" points="186.5,159.4419,190.5,169.4419,194.5,159.4419,190.5,163.4419" style="stroke:#000000;stroke-width:1.0;"/><line style="stroke:#000000;stroke-width:1.0;" x1="190.5" x2="190.5" y1="204.0259" y2="260.5388"/><polygon fill="#000000" points="186.5,250.5388,190.5,260.5388,194.5,250.5388,190.5,254.5388" style="stroke:#000000;stroke-width:1.0;"/><line style="stroke:#000000;stroke-width:1.0;" x1="190.5" x2="190.5" y1="295.1228" y2="367.4351"/><polygon fill="#000000" points="186.5,357.4351,190.5,367.4351,194.5,357.4351,190.5,361.4351" style="stroke:#000000;stroke-width:1.0;"/><line style="stroke:#000000;stroke-width:1.0;" x1="190.5" x2="190.5" y1="402.019" y2="474.3313"/><polygon fill="#000000" points="186.5,464.3313,190.5,474.3313,194.5,464.3313,190.5,468.3313" style="stroke:#000000;stroke-width:1.0;"/><line style="stroke:#000000;stroke-width:1.0;" x1="190.5" x2="190.5" y1="508.9153" y2="556.1216"/><polygon fill="#000000" points="186.5,546.1216,190.5,556.1216,194.5,546.1216,190.5,550.1216" style="stroke:#000000;stroke-width:1.0;"/><!--SRC=[ZPHHRvim4CVV-HGtxI4WfKJRsp9DIaf8nqRI3DZMQfgGIQwj9OEHxRJAjv-n8OGoQUC1elFT__yxsvStwWbBX9eHMZcAAeQG866Awc30Y9JqWUw9eho2wnEaDHSAhY3TmKvWBVWUfOGLAa8P7c3D-8lZI4M4SkP1bkRN9rEnvQ8aR2YNDpQPjibxfOzEnHM2e8zFoW7zh8WY1P4uXu8VYln7ydx33yZ0JR_5aA9uHk6Pn8mK3EKSWgDKl4Jnoglbq5QK2wfEKx18iEES6O4T4QH4XM8EYqv4tcrYSFNBSx0wGCFcwBu44WsPOLbRsn7rMrNMPusv2LqPikW0RhJDl3Pac6u4FzQ3y2w9Dila7hw6z-3Qikb5xW16Oqk4XhCpX9XADKAAjccOPFgJtGxnp6eQnc6GcPzwA_t0VoRiYEx4dosi_sGA4rqxyM2PjfsqsTDN-JrdKvDkbd5yBkpNJF4wkTqCDzklzEbATpAR2LkHkS6WtHjKq9tXg4VR1KJfzdiSkxN_gylyFOKF-l5wr_-y9Ws2PVtvEKn2g7r3hu_n4xnhDs2vNUdu-bZj6ud1ajjDqXTUMFD5ftpPL5H9r5D5AyKlh-Mel_0k3E1VKsM3JNrkTQtlN_ZEB3hISvdBOe7stScCq4pM0nV0z2G8s0__9zfXfjNZHPTQgdR-0000]--></g></svg>