<svg xmlns="http://www.w3.org/2000/svg" xmlns:xlink="http://www.w3.org/1999/xlink" contentStyleType="text/css" height="550px" preserveAspectRatio="none" style="width:828px;height:550px;background:#FFFFFF;" version="1.1" viewBox="0 0 828 550" width="828px" zoomAndPan="magnify"><defs/><g><text fill="#000000" font-family="Verdana" font-size="22" font-weight="bold" lengthAdjust="spacing" textLength="795" x="15" y="37.1182">Realtime Classification By Sport - SP GetChanges Detailed Flow</text><ellipse cx="206" cy="62.7373" fill="#FFFFFF" rx="10" ry="10" style="stroke:#000000;stroke-width:1.0;"/><path d="M414.5,82.7373 L414.5,107.4363 L394.5,111.4363 L414.5,115.4363 L414.5,140.1353 A0,0 0 0 0 414.5,140.1353 L809.5,140.1353 A0,0 0 0 0 809.5,140.1353 L809.5,92.7373 L799.5,82.7373 L414.5,82.7373 A0,0 0 0 0 414.5,82.7373 " fill="#FFFFFF" style="stroke:#000000;stroke-width:1.0;"/><path d="M799.5,82.7373 L799.5,92.7373 L809.5,92.7373 L799.5,82.7373 " fill="#FFFFFF" style="stroke:#000000;stroke-width:1.0;"/><text fill="#000000" font-family="Verdana" font-size="13" lengthAdjust="spacing" textLength="267" x="420.5" y="100.8071">Database: bodb_VR2Model (SQL Server)</text><text fill="#000000" font-family="Verdana" font-size="13" lengthAdjust="spacing" textLength="374" x="420.5" y="116.6064">Table: CustomerClassification_BySport_RealtimeChanges</text><text fill="#000000" font-family="Verdana" font-size="13" lengthAdjust="spacing" textLength="258" x="420.5" y="132.4058">Parameter: @ScannedMaxId (OUTPUT)</text><rect fill="#FFFFFF" height="34.584" rx="12.5" ry="12.5" style="stroke:#000000;stroke-width:1.0;" width="377" x="17.5" y="94.1443"/><text fill="#000000" font-family="Verdana" font-size="12" lengthAdjust="spacing" textLength="357" x="27.5" y="116.2087">CTS_BySportNormalClassification_RealTime_GetChanges</text><path d="M295.5,150.1353 L295.5,182.7339 L275.5,186.7339 L295.5,190.7339 L295.5,223.3325 A0,0 0 0 0 295.5,223.3325 L496.5,223.3325 A0,0 0 0 0 496.5,223.3325 L496.5,160.1353 L486.5,150.1353 L295.5,150.1353 A0,0 0 0 0 295.5,150.1353 " fill="#FFFFFF" style="stroke:#000000;stroke-width:1.0;"/><path d="M486.5,150.1353 L486.5,160.1353 L496.5,160.1353 L486.5,150.1353 " fill="#FFFFFF" style="stroke:#000000;stroke-width:1.0;"/><text fill="#000000" font-family="Verdana" font-size="13" lengthAdjust="spacing" textLength="13" x="301.5" y="168.2051">1.</text><text fill="#000000" font-family="Verdana" font-size="13" lengthAdjust="spacing" textLength="71" x="319.5" y="168.2051">tmpResult:</text><text fill="#000000" font-family="Verdana" font-size="13" lengthAdjust="spacing" textLength="180" x="301.5" y="184.0044">- Id (BIGINT PRIMARY KEY)</text><text fill="#000000" font-family="Verdana" font-size="13" lengthAdjust="spacing" textLength="95" x="301.5" y="199.8037">- CustId (INT)</text><text fill="#000000" font-family="Verdana" font-size="13" lengthAdjust="spacing" textLength="126" x="301.5" y="215.603">- SportGroup (INT)</text><rect fill="#FFFFFF" height="34.584" rx="12.5" ry="12.5" style="stroke:#000000;stroke-width:1.0;" width="139" x="136.5" y="169.4419"/><text fill="#000000" font-family="Verdana" font-size="12" lengthAdjust="spacing" textLength="119" x="146.5" y="191.5063">Create Temp Table</text><path d="M361.5,233.3325 L361.5,273.8308 L341.5,277.8308 L361.5,281.8308 L361.5,322.3291 A0,0 0 0 0 361.5,322.3291 L787.5,322.3291 A0,0 0 0 0 787.5,322.3291 L787.5,243.3325 L777.5,233.3325 L361.5,233.3325 A0,0 0 0 0 361.5,233.3325 " fill="#FFFFFF" style="stroke:#000000;stroke-width:1.0;"/><path d="M777.5,233.3325 L777.5,243.3325 L787.5,243.3325 L777.5,233.3325 " fill="#FFFFFF" style="stroke:#000000;stroke-width:1.0;"/><text fill="#000000" font-family="Verdana" font-size="13" lengthAdjust="spacing" textLength="127" x="367.5" y="251.4023">SELECT TOP 20000</text><text fill="#000000" font-family="Verdana" font-size="13" lengthAdjust="spacing" textLength="190" x="367.5" y="267.2017">c.ID, c.CustId, c.SportGroup</text><text fill="#000000" font-family="Verdana" font-size="13" lengthAdjust="spacing" textLength="405" x="367.5" y="283.001">FROM CustomerClassification_BySport_RealtimeChanges AS c</text><text fill="#000000" font-family="Verdana" font-size="13" lengthAdjust="spacing" textLength="129" x="367.5" y="298.8003">ORDER BY c.ID ASC</text><text fill="#000000" font-family="Verdana" font-size="13" lengthAdjust="spacing" textLength="166" x="367.5" y="314.5996">INSERT INTO #tmpResult</text><rect fill="#FFFFFF" height="34.584" rx="12.5" ry="12.5" style="stroke:#000000;stroke-width:1.0;" width="271" x="70.5" y="260.5388"/><text fill="#000000" font-family="Verdana" font-size="12" lengthAdjust="spacing" textLength="251" x="80.5" y="282.6033">Get TOP Records from RealtimeChanges</text><path d="M270.5,338.8218 L270.5,355.6211 L250.5,359.6211 L270.5,363.6211 L270.5,380.4204 A0,0 0 0 0 270.5,380.4204 L529.5,380.4204 A0,0 0 0 0 529.5,380.4204 L529.5,348.8218 L519.5,338.8218 L270.5,338.8218 A0,0 0 0 0 270.5,338.8218 " fill="#FFFFFF" style="stroke:#000000;stroke-width:1.0;"/><path d="M519.5,338.8218 L519.5,348.8218 L529.5,348.8218 L519.5,338.8218 " fill="#FFFFFF" style="stroke:#000000;stroke-width:1.0;"/><text fill="#000000" font-family="Verdana" font-size="13" lengthAdjust="spacing" textLength="238" x="276.5" y="356.8916">SELECT @ScannedMaxId = MAX(ID)</text><text fill="#000000" font-family="Verdana" font-size="13" lengthAdjust="spacing" textLength="117" x="276.5" y="372.6909">FROM #tmpResult</text><rect fill="#FFFFFF" height="34.584" rx="12.5" ry="12.5" style="stroke:#000000;stroke-width:1.0;" width="89" x="161.5" y="342.3291"/><text fill="#000000" font-family="Verdana" font-size="12" lengthAdjust="spacing" textLength="69" x="171.5" y="364.3936">Get Max ID</text><path d="M318,390.4204 L318,415.1194 L298,419.1194 L318,423.1194 L318,447.8184 A0,0 0 0 0 318,447.8184 L466,447.8184 A0,0 0 0 0 466,447.8184 L466,400.4204 L456,390.4204 L318,390.4204 A0,0 0 0 0 318,390.4204 " fill="#FFFFFF" style="stroke:#000000;stroke-width:1.0;"/><path d="M456,390.4204 L456,400.4204 L466,400.4204 L456,390.4204 " fill="#FFFFFF" style="stroke:#000000;stroke-width:1.0;"/><text fill="#000000" font-family="Verdana" font-size="13" lengthAdjust="spacing" textLength="119" x="324" y="408.4902">SELECT DISTINCT</text><text fill="#000000" font-family="Verdana" font-size="13" lengthAdjust="spacing" textLength="127" x="324" y="424.2896">CustId, SportGroup</text><text fill="#000000" font-family="Verdana" font-size="13" lengthAdjust="spacing" textLength="117" x="324" y="440.0889">FROM #tmpResult</text><rect fill="#FFFFFF" height="34.584" rx="12.5" ry="12.5" style="stroke:#000000;stroke-width:1.0;" width="184" x="114" y="401.8274"/><text fill="#000000" font-family="Verdana" font-size="12" lengthAdjust="spacing" textLength="164" x="124" y="423.8918">Return Distinct Customers</text><path d="M305,472.2107 L305,481.1104 L285,485.1104 L305,489.1104 L305,498.01 A0,0 0 0 0 305,498.01 L494,498.01 A0,0 0 0 0 494,498.01 L494,482.2107 L484,472.2107 L305,472.2107 A0,0 0 0 0 305,472.2107 " fill="#FFFFFF" style="stroke:#000000;stroke-width:1.0;"/><path d="M484,472.2107 L484,482.2107 L494,482.2107 L484,472.2107 " fill="#FFFFFF" style="stroke:#000000;stroke-width:1.0;"/><text fill="#000000" font-family="Verdana" font-size="13" lengthAdjust="spacing" textLength="168" x="311" y="490.2805">@ScannedMaxId OUTPUT</text><rect fill="#FFFFFF" height="34.584" rx="12.5" ry="12.5" style="stroke:#000000;stroke-width:1.0;" width="158" x="127" y="467.8184"/><text fill="#000000" font-family="Verdana" font-size="12" lengthAdjust="spacing" textLength="138" x="137" y="489.8828">Return ScannedMaxId</text><ellipse cx="206" cy="533.4023" fill="none" rx="11" ry="11" style="stroke:#000000;stroke-width:1.0;"/><ellipse cx="206" cy="533.4023" fill="#FFFFFF" rx="6" ry="6" style="stroke:#000000;stroke-width:1.0;"/><line style="stroke:#000000;stroke-width:1.0;" x1="206" x2="206" y1="72.7373" y2="94.1443"/><polygon fill="#000000" points="202,84.1443,206,94.1443,210,84.1443,206,88.1443" style="stroke:#000000;stroke-width:1.0;"/><line style="stroke:#000000;stroke-width:1.0;" x1="206" x2="206" y1="128.7283" y2="169.4419"/><polygon fill="#000000" points="202,159.4419,206,169.4419,210,159.4419,206,163.4419" style="stroke:#000000;stroke-width:1.0;"/><line style="stroke:#000000;stroke-width:1.0;" x1="206" x2="206" y1="204.0259" y2="260.5388"/><polygon fill="#000000" points="202,250.5388,206,260.5388,210,250.5388,206,254.5388" style="stroke:#000000;stroke-width:1.0;"/><line style="stroke:#000000;stroke-width:1.0;" x1="206" x2="206" y1="295.1228" y2="342.3291"/><polygon fill="#000000" points="202,332.3291,206,342.3291,210,332.3291,206,336.3291" style="stroke:#000000;stroke-width:1.0;"/><line style="stroke:#000000;stroke-width:1.0;" x1="206" x2="206" y1="376.9131" y2="401.8274"/><polygon fill="#000000" points="202,391.8274,206,401.8274,210,391.8274,206,395.8274" style="stroke:#000000;stroke-width:1.0;"/><line style="stroke:#000000;stroke-width:1.0;" x1="206" x2="206" y1="436.4114" y2="467.8184"/><polygon fill="#000000" points="202,457.8184,206,467.8184,210,457.8184,206,461.8184" style="stroke:#000000;stroke-width:1.0;"/><line style="stroke:#000000;stroke-width:1.0;" x1="206" x2="206" y1="502.4023" y2="522.4023"/><polygon fill="#000000" points="202,512.4023,206,522.4023,210,512.4023,206,516.4023" style="stroke:#000000;stroke-width:1.0;"/><!--SRC=[bLB9Rjim4BthAwRenGQQeiZHHO7Oac8GZIo5P8hw9D3I92P0YG8rRfA_BqNRyPOKA0zQ7cVcBUGdMcE3q1cbsuWq6GIEof3sO6nKt-j7NIdIjeNPAuZEEe8h40NCaUArQf-mXmH9QOCrt1hx74KzAKVH99QYdBs6ZeLrZJAduyg1HdgQyZ3fUzHQGd3wQKqH-9KeKYlLumHMjbwLl_XrPciqC1BtTo3G_K4t3eLIhOolYZSzsGRT6TLEHhbtjgCBdOLoga52Du4RKQcsnJfJBwo6KVuWYmSvZh2jOT0LUKyEbHSeiUcsb1UAFrFJSUmtXYRX_mg6KJCsPmi91MVPb2_XPxeSxtO7nKE5tzv3GUlSsKstWuy4-An0veK_eygwkeT7PniuitMXIQHtQIn3t_Ktlm9OVMN95__S2XY-3hoXu9RdsNy62bC1LMZEUP9oc2q3ZOVZWBA5IBdqBvaV1NNkpySFBFd8nUaX_O1i-dl4al51ylk3ETB6jP3eddHRqPkn3zDAc91i4Sk0xKDwBw9_yXsBlM0wjRAzRaSplC0k-Wi0]--></g></svg>