<svg xmlns="http://www.w3.org/2000/svg" xmlns:xlink="http://www.w3.org/1999/xlink" contentStyleType="text/css" height="1649px" preserveAspectRatio="none" style="width:1298px;height:1649px;background:#FFFFFF;" version="1.1" viewBox="0 0 1298 1649" width="1298px" zoomAndPan="magnify"><defs/><g><text fill="#000000" font-family="Arial" font-size="16" font-weight="bold" lengthAdjust="spacing" textLength="303" x="496.25" y="35.2695">Daily Problem Classification - Main Flow</text><rect fill="none" height="13.7988" style="stroke:none;stroke-width:1.0;" width="1265.5" x="15" y="50.3984"/><ellipse cx="332.5" cy="79.1973" fill="#222222" rx="10" ry="10" style="stroke:#222222;stroke-width:1.0;"/><path d="M542.5,107.2979 L542.5,122.0967 L522.5,126.0967 L542.5,130.0967 L542.5,144.8955 A0,0 0 0 0 542.5,144.8955 L679.5,144.8955 A0,0 0 0 0 679.5,144.8955 L679.5,117.2979 L669.5,107.2979 L542.5,107.2979 A0,0 0 0 0 542.5,107.2979 " fill="#FEFFDD" style="stroke:#181818;stroke-width:0.5;"/><path d="M669.5,107.2979 L669.5,117.2979 L679.5,117.2979 L669.5,107.2979 " fill="#FEFFDD" style="stroke:#181818;stroke-width:0.5;"/><text fill="#000000" font-family="Arial" font-size="12" lengthAdjust="spacing" textLength="116" x="548.5" y="123.75">Batch size parameter</text><text fill="#000000" font-family="Arial" font-size="12" lengthAdjust="spacing" textLength="113" x="548.5" y="137.5488">Ex: batchSize = 5000</text><rect fill="#F1F1F1" height="33.7988" rx="12.5" ry="12.5" style="stroke:#181818;stroke-width:0.5;" width="380" x="142.5" y="109.1973"/><text fill="#000000" font-family="Arial" font-size="12" lengthAdjust="spacing" textLength="360" x="152.5" y="130.6494">POST /api/classificationJobs/scanningDailyProblemClassification</text><rect fill="#F1F1F1" height="33.7988" rx="12.5" ry="12.5" style="stroke:#181818;stroke-width:0.5;" width="124" x="270.5" y="164.8955"/><text fill="#000000" font-family="Arial" font-size="12" lengthAdjust="spacing" textLength="104" x="280.5" y="186.3477">Execute(batchSize)</text><rect fill="#F1F1F1" height="33.7988" rx="12.5" ry="12.5" style="stroke:#181818;stroke-width:0.5;" width="140" x="262.5" y="218.6943"/><text fill="#000000" font-family="Arial" font-size="12" lengthAdjust="spacing" textLength="120" x="272.5" y="240.1465">Validate batchSize &gt; 0</text><polygon fill="#F1F1F1" points="315.5,272.4932,349.5,272.4932,361.5,284.4932,349.5,296.4932,315.5,296.4932,303.5,284.4932,315.5,272.4932" style="stroke:#181818;stroke-width:0.5;"/><text fill="#000000" font-family="Arial" font-size="12" lengthAdjust="spacing" textLength="34" x="315.5" y="289.0459">Valid?</text><text fill="#000000" font-family="Arial" font-size="12" lengthAdjust="spacing" textLength="19" x="284.5" y="282.1465">yes</text><text fill="#000000" font-family="Arial" font-size="12" lengthAdjust="spacing" textLength="14" x="361.5" y="282.1465">no</text><rect fill="#F1F1F1" height="33.7988" rx="12.5" ry="12.5" style="stroke:#181818;stroke-width:0.5;" width="124" x="185.5" y="306.4932"/><text fill="#000000" font-family="Arial" font-size="12" lengthAdjust="spacing" textLength="104" x="195.5" y="327.9453">JobRun(batchSize)</text><rect fill="#F1F1F1" height="33.7988" rx="12.5" ry="12.5" style="stroke:#181818;stroke-width:0.5;" width="176" x="329.5" y="306.4932"/><text fill="#000000" font-family="Arial" font-size="12" lengthAdjust="spacing" textLength="156" x="339.5" y="327.9453">Log Error - Invalid Batch Size</text><ellipse cx="417.5" cy="371.292" fill="none" rx="11" ry="11" style="stroke:#222222;stroke-width:1.0;"/><ellipse cx="417.5" cy="371.292" fill="#222222" rx="6" ry="6" style="stroke:#222222;stroke-width:1.0;"/><rect fill="#F1F1F1" height="33.7988" rx="12.5" ry="12.5" style="stroke:#181818;stroke-width:0.5;" width="99" x="283" y="744.3809"/><text fill="#000000" font-family="Arial" font-size="12" lengthAdjust="spacing" textLength="79" x="293" y="765.833">Process batch</text><rect fill="#F1F1F1" height="33.7988" rx="12.5" ry="12.5" style="stroke:#181818;stroke-width:0.5;" width="87" x="289" y="1165.4639"/><text fill="#000000" font-family="Arial" font-size="12" lengthAdjust="spacing" textLength="67" x="299" y="1186.916">Return false</text><ellipse cx="332.5" cy="1244.6621" fill="none" rx="11" ry="11" style="stroke:#222222;stroke-width:1.0;"/><ellipse cx="332.5" cy="1244.6621" fill="#222222" rx="6" ry="6" style="stroke:#222222;stroke-width:1.0;"/><polygon fill="#F1F1F1" points="332.5,700.3809,344.5,712.3809,332.5,724.3809,320.5,712.3809,332.5,700.3809" style="stroke:#181818;stroke-width:0.5;"/><polygon fill="#F1F1F1" points="292,1297.6621,373,1297.6621,385,1309.6621,373,1321.6621,292,1321.6621,280,1309.6621,292,1297.6621" style="stroke:#181818;stroke-width:0.5;"/><text fill="#000000" font-family="Arial" font-size="12" lengthAdjust="spacing" textLength="81" x="292" y="1314.2148">More batches?</text><text fill="#000000" font-family="Arial" font-size="12" lengthAdjust="spacing" textLength="19" x="385" y="1307.3154">yes</text><polygon fill="#F1F1F1" points="299,1506.8994,366,1506.8994,378,1518.8994,366,1530.8994,299,1530.8994,287,1518.8994,299,1506.8994" style="stroke:#181818;stroke-width:0.5;"/><text fill="#000000" font-family="Arial" font-size="12" lengthAdjust="spacing" textLength="67" x="299" y="1523.4521">isContinue?</text><text fill="#000000" font-family="Arial" font-size="12" lengthAdjust="spacing" textLength="19" x="268" y="1516.5527">yes</text><text fill="#000000" font-family="Arial" font-size="12" lengthAdjust="spacing" textLength="14" x="378" y="1516.5527">no</text><path d="M255,1540.8994 L255,1562.5977 L235,1566.5977 L255,1570.5977 L255,1592.2959 A0,0 0 0 0 255,1592.2959 L480,1592.2959 A0,0 0 0 0 480,1592.2959 L480,1550.8994 L470,1540.8994 L255,1540.8994 A0,0 0 0 0 255,1540.8994 " fill="#FEFFDD" style="stroke:#181818;stroke-width:0.5;"/><path d="M470,1540.8994 L470,1550.8994 L480,1550.8994 L470,1540.8994 " fill="#FEFFDD" style="stroke:#181818;stroke-width:0.5;"/><text fill="#000000" font-family="Arial" font-size="12" font-weight="bold" lengthAdjust="spacing" textLength="128" x="261" y="1557.3516">Recursive Processing:</text><text fill="#000000" font-family="Arial" font-size="12" lengthAdjust="spacing" textLength="163" x="261" y="1571.1504">Continue until queue is empty</text><text fill="#000000" font-family="Arial" font-size="12" lengthAdjust="spacing" textLength="204" x="261" y="1584.9492">Each recursion processes new batch</text><rect fill="#F1F1F1" height="33.7988" rx="12.5" ry="12.5" style="stroke:#181818;stroke-width:0.5;" width="214" x="21" y="1549.6982"/><text fill="#000000" font-family="Arial" font-size="12" lengthAdjust="spacing" textLength="194" x="31" y="1571.1504">Recursive Call - JobRun(batchSize)</text><rect fill="#F1F1F1" height="33.7988" rx="12.5" ry="12.5" style="stroke:#181818;stroke-width:0.5;" width="74" x="500" y="1540.8994"/><text fill="#000000" font-family="Arial" font-size="12" lengthAdjust="spacing" textLength="54" x="510" y="1562.3516">Complete</text><ellipse cx="537" cy="1620.6982" fill="none" rx="11" ry="11" style="stroke:#222222;stroke-width:1.0;"/><ellipse cx="537" cy="1620.6982" fill="#222222" rx="6" ry="6" style="stroke:#222222;stroke-width:1.0;"/><line style="stroke:#000000;stroke-width:1.5;" x1="15" x2="15" y1="50.3984" y2="1637.6982"/><path d="M875.5,407.292 L875.5,415.1914 L855.5,419.1914 L875.5,423.1914 L875.5,431.0908 A0,0 0 0 0 875.5,431.0908 L1112.5,431.0908 A0,0 0 0 0 1112.5,431.0908 L1112.5,417.292 L1102.5,407.292 L875.5,407.292 A0,0 0 0 0 875.5,407.292 " fill="#FEFFDD" style="stroke:#181818;stroke-width:0.5;"/><path d="M1102.5,407.292 L1102.5,417.292 L1112.5,417.292 L1102.5,407.292 " fill="#FEFFDD" style="stroke:#181818;stroke-width:0.5;"/><text fill="#000000" font-family="Arial" font-size="12" lengthAdjust="spacing" textLength="216" x="881.5" y="423.7441">Initialize PADailyScanFromQueueModel</text><rect fill="#F1F1F1" height="33.7988" rx="12.5" ry="12.5" style="stroke:#181818;stroke-width:0.5;" width="53" x="802.5" y="402.292"/><text fill="#000000" font-family="Arial" font-size="12" lengthAdjust="spacing" textLength="33" x="812.5" y="423.7441">Start()</text><path d="M940.5,447.292 L940.5,468.9902 L920.5,472.9902 L940.5,476.9902 L940.5,498.6885 A0,0 0 0 0 940.5,498.6885 L1246.5,498.6885 A0,0 0 0 0 1246.5,498.6885 L1246.5,457.292 L1236.5,447.292 L940.5,447.292 A0,0 0 0 0 940.5,447.292 " fill="#FEFFDD" style="stroke:#181818;stroke-width:0.5;"/><path d="M1236.5,447.292 L1236.5,457.292 L1246.5,457.292 L1236.5,447.292 " fill="#FEFFDD" style="stroke:#181818;stroke-width:0.5;"/><text fill="#000000" font-family="Arial" font-size="12" lengthAdjust="spacing" textLength="228" x="946.5" y="463.7441">Get PA customers from Daily Scan Queue</text><text fill="#000000" font-family="Arial" font-size="12" lengthAdjust="spacing" textLength="285" x="946.5" y="477.543">Source: CTSCustomerClassification_DailyPAQueue</text><text fill="#000000" font-family="Arial" font-size="12" lengthAdjust="spacing" textLength="94" x="946.5" y="491.3418">FIFO (oldest first)</text><rect fill="#F1F1F1" height="33.7988" rx="12.5" ry="12.5" style="stroke:#181818;stroke-width:0.5;" width="183" x="737.5" y="456.0908"/><text fill="#000000" font-family="Arial" font-size="12" lengthAdjust="spacing" textLength="163" x="747.5" y="477.543">GetPADailyScanFromQueue()</text><path d="M974,508.6885 L974,537.2861 L954,541.2861 L974,545.2861 L974,573.8838 A0,0 0 0 0 974,573.8838 L1275,573.8838 A0,0 0 0 0 1275,573.8838 L1275,518.6885 L1265,508.6885 L974,508.6885 A0,0 0 0 0 974,508.6885 " fill="#FEFFDD" style="stroke:#181818;stroke-width:0.5;"/><path d="M1265,508.6885 L1265,518.6885 L1275,518.6885 L1265,508.6885 " fill="#FEFFDD" style="stroke:#181818;stroke-width:0.5;"/><text fill="#000000" font-family="Arial" font-size="12" lengthAdjust="spacing" textLength="185" x="980" y="525.1406">Calculate PA Losing Performance</text><text fill="#000000" font-family="Arial" font-size="12" lengthAdjust="spacing" textLength="176" x="980" y="538.9395">Input: PA customers from queue</text><text fill="#000000" font-family="Arial" font-size="12" lengthAdjust="spacing" textLength="280" x="980" y="552.7383">Output: ProblemAccountLosingClassificationEntity[]</text><text fill="#000000" font-family="Arial" font-size="12" lengthAdjust="spacing" textLength="157" x="980" y="566.5371">FunctionId: ProblemDailyJob</text><rect fill="#F1F1F1" height="33.7988" rx="12.5" ry="12.5" style="stroke:#181818;stroke-width:0.5;" width="250" x="704" y="524.3867"/><text fill="#000000" font-family="Arial" font-size="12" lengthAdjust="spacing" textLength="230" x="714" y="545.8389">GetProblemAccountLosingClassification()</text><path d="M912.5,642.7832 L912.5,657.582 L892.5,661.582 L912.5,665.582 L912.5,680.3809 A0,0 0 0 0 912.5,680.3809 L1063.5,680.3809 A0,0 0 0 0 1063.5,680.3809 L1063.5,652.7832 L1053.5,642.7832 L912.5,642.7832 A0,0 0 0 0 912.5,642.7832 " fill="#FEFFDD" style="stroke:#181818;stroke-width:0.5;"/><path d="M1053.5,642.7832 L1053.5,652.7832 L1063.5,652.7832 L1053.5,642.7832 " fill="#FEFFDD" style="stroke:#181818;stroke-width:0.5;"/><text fill="#000000" font-family="Arial" font-size="12" lengthAdjust="spacing" textLength="94" x="918.5" y="659.2354">Split into batches</text><text fill="#000000" font-family="Arial" font-size="12" lengthAdjust="spacing" textLength="130" x="918.5" y="673.0342">Batch size: configurable</text><rect fill="#F1F1F1" height="33.7988" rx="12.5" ry="12.5" style="stroke:#181818;stroke-width:0.5;" width="127" x="765.5" y="644.6826"/><text fill="#000000" font-family="Arial" font-size="12" lengthAdjust="spacing" textLength="107" x="775.5" y="666.1348">Chunk by batchSize</text><path d="M879.5,803.1797 L879.5,811.0791 L859.5,815.0791 L879.5,819.0791 L879.5,826.9785 A0,0 0 0 0 879.5,826.9785 L1108.5,826.9785 A0,0 0 0 0 1108.5,826.9785 L1108.5,813.1797 L1098.5,803.1797 L879.5,803.1797 A0,0 0 0 0 879.5,803.1797 " fill="#FEFFDD" style="stroke:#181818;stroke-width:0.5;"/><path d="M1098.5,803.1797 L1098.5,813.1797 L1108.5,813.1797 L1098.5,803.1797 " fill="#FEFFDD" style="stroke:#181818;stroke-width:0.5;"/><text fill="#000000" font-family="Arial" font-size="12" lengthAdjust="spacing" textLength="208" x="885.5" y="819.6318">Reset problemAccounts for new batch</text><rect fill="#F1F1F1" height="33.7988" rx="12.5" ry="12.5" style="stroke:#181818;stroke-width:0.5;" width="61" x="798.5" y="798.1797"/><text fill="#000000" font-family="Arial" font-size="12" lengthAdjust="spacing" textLength="41" x="808.5" y="819.6318">Reset()</text><path d="M987.5,841.9785 L987.5,870.5762 L967.5,874.5762 L987.5,878.5762 L987.5,907.1738 A0,0 0 0 0 987.5,907.1738 L1199.5,907.1738 A0,0 0 0 0 1199.5,907.1738 L1199.5,851.9785 L1189.5,841.9785 L987.5,841.9785 A0,0 0 0 0 987.5,841.9785 " fill="#FEFFDD" style="stroke:#181818;stroke-width:0.5;"/><path d="M1189.5,841.9785 L1189.5,851.9785 L1199.5,851.9785 L1189.5,841.9785 " fill="#FEFFDD" style="stroke:#181818;stroke-width:0.5;"/><text fill="#000000" font-family="Arial" font-size="12" lengthAdjust="spacing" textLength="90" x="993.5" y="858.4307">Convert to JSON</text><text fill="#000000" font-family="Arial" font-size="12" lengthAdjust="spacing" textLength="183" x="993.5" y="872.2295">Insert PA Probation Classification</text><text fill="#000000" font-family="Arial" font-size="12" lengthAdjust="spacing" textLength="191" x="993.5" y="886.0283">Returns: InsertPAProbationResult[]</text><text fill="#000000" font-family="Arial" font-size="12" lengthAdjust="spacing" textLength="162" x="993.5" y="899.8271">- CTSCustID, CustID, IsRobot</text><rect fill="#F1F1F1" height="33.7988" rx="12.5" ry="12.5" style="stroke:#181818;stroke-width:0.5;" width="277" x="690.5" y="857.6768"/><text fill="#000000" font-family="Arial" font-size="12" lengthAdjust="spacing" textLength="257" x="700.5" y="879.1289">InsertProblemAccountProbationClassification()</text><path d="M901,917.1738 L901,952.6709 L881,956.6709 L901,960.6709 L901,996.168 A0,0 0 0 0 901,996.168 L1118,996.168 A0,0 0 0 0 1118,996.168 L1118,927.1738 L1108,917.1738 L901,917.1738 A0,0 0 0 0 901,917.1738 " fill="#FEFFDD" style="stroke:#181818;stroke-width:0.5;"/><path d="M1108,917.1738 L1108,927.1738 L1118,927.1738 L1108,917.1738 " fill="#FEFFDD" style="stroke:#181818;stroke-width:0.5;"/><text fill="#000000" font-family="Arial" font-size="12" font-weight="bold" lengthAdjust="spacing" textLength="171" x="907" y="933.626">Two separate logic insertions:</text><text fill="#000000" font-family="Arial" font-size="12" lengthAdjust="spacing" textLength="189" x="907" y="947.4248">1. Regular PA &#226;&#8224;&#8217; InsertPALogics()</text><text fill="#000000" font-family="Arial" font-size="12" lengthAdjust="spacing" textLength="196" x="907" y="961.2236">2. Robot PA &#226;&#8224;&#8217; InsertRobotLogics()</text><text fill="#000000" font-family="Arial" font-size="12" lengthAdjust="spacing" textLength="3" x="907" y="975.0225">&#160;</text><text fill="#000000" font-family="Arial" font-size="12" lengthAdjust="spacing" textLength="111" x="907" y="988.8213">Filter by IsRobot flag</text><rect fill="#F1F1F1" height="33.7988" rx="12.5" ry="12.5" style="stroke:#181818;stroke-width:0.5;" width="104" x="777" y="939.7715"/><text fill="#000000" font-family="Arial" font-size="12" lengthAdjust="spacing" textLength="84" x="787" y="961.2236">InsertPALogic()</text><path d="M915.5,1017.5703 L915.5,1053.0674 L895.5,1057.0674 L915.5,1061.0674 L915.5,1096.5645 A0,0 0 0 0 915.5,1096.5645 L1118.5,1096.5645 A0,0 0 0 0 1118.5,1096.5645 L1118.5,1027.5703 L1108.5,1017.5703 L915.5,1017.5703 A0,0 0 0 0 915.5,1017.5703 " fill="#FEFFDD" style="stroke:#181818;stroke-width:0.5;"/><path d="M1108.5,1017.5703 L1108.5,1027.5703 L1118.5,1027.5703 L1108.5,1017.5703 " fill="#FEFFDD" style="stroke:#181818;stroke-width:0.5;"/><text fill="#000000" font-family="Arial" font-size="12" lengthAdjust="spacing" textLength="163" x="921.5" y="1034.0225">Push classification to MainDB</text><text fill="#000000" font-family="Arial" font-size="12" lengthAdjust="spacing" textLength="68" x="921.5" y="1047.8213">Parameters:</text><text fill="#000000" font-family="Arial" font-size="12" lengthAdjust="spacing" textLength="118" x="921.5" y="1061.6201">- RoleGroup: Member</text><text fill="#000000" font-family="Arial" font-size="12" lengthAdjust="spacing" textLength="105" x="921.5" y="1075.4189">- ExternalBatchSize</text><text fill="#000000" font-family="Arial" font-size="12" lengthAdjust="spacing" textLength="182" x="921.5" y="1089.2178">- IsUpdateDangerToMainDB: true</text><rect fill="#F1F1F1" height="33.7988" rx="12.5" ry="12.5" style="stroke:#181818;stroke-width:0.5;" width="133" x="762.5" y="1040.168"/><text fill="#000000" font-family="Arial" font-size="12" lengthAdjust="spacing" textLength="113" x="772.5" y="1061.6201">PushCCToExternal()</text><polygon fill="#F1F1F1" points="801.5,1116.5645,856.5,1116.5645,868.5,1128.5645,856.5,1140.5645,801.5,1140.5645,789.5,1128.5645,801.5,1116.5645" style="stroke:#181818;stroke-width:0.5;"/><text fill="#000000" font-family="Arial" font-size="12" lengthAdjust="spacing" textLength="14" x="833" y="1152.0166">no</text><text fill="#000000" font-family="Arial" font-size="12" lengthAdjust="spacing" textLength="55" x="801.5" y="1133.1172">Success?</text><polygon fill="#F1F1F1" points="752,593.8838,906,593.8838,918,605.8838,906,617.8838,752,617.8838,740,605.8838,752,593.8838" style="stroke:#181818;stroke-width:0.5;"/><text fill="#000000" font-family="Arial" font-size="12" lengthAdjust="spacing" textLength="19" x="833" y="629.3359">yes</text><text fill="#000000" font-family="Arial" font-size="12" lengthAdjust="spacing" textLength="154" x="752" y="610.4365">Has problem classification?</text><text fill="#000000" font-family="Arial" font-size="12" lengthAdjust="spacing" textLength="14" x="918" y="603.5371">no</text><polygon fill="#F1F1F1" points="829,1346.3076,841,1358.3076,829,1370.3076,817,1358.3076,829,1346.3076" style="stroke:#181818;stroke-width:0.5;"/><text fill="#000000" font-family="Arial" font-size="12" lengthAdjust="spacing" textLength="14" x="835" y="1343.9609">no</text><path d="M910,1380.3076 L910,1429.6035 L890,1433.6035 L910,1437.6035 L910,1486.8994 A0,0 0 0 0 910,1486.8994 L1164,1486.8994 A0,0 0 0 0 1164,1486.8994 L1164,1390.3076 L1154,1380.3076 L910,1380.3076 A0,0 0 0 0 910,1380.3076 " fill="#FEFFDD" style="stroke:#181818;stroke-width:0.5;"/><path d="M1154,1380.3076 L1154,1390.3076 L1164,1390.3076 L1154,1380.3076 " fill="#FEFFDD" style="stroke:#181818;stroke-width:0.5;"/><text fill="#000000" font-family="Arial" font-size="12" lengthAdjust="spacing" textLength="142" x="916" y="1396.7598">Mark queue as completed</text><text fill="#000000" font-family="Arial" font-size="12" lengthAdjust="spacing" textLength="157" x="916" y="1410.5586">DELETE from DailyPAQueue</text><text fill="#000000" font-family="Arial" font-size="12" lengthAdjust="spacing" textLength="233" x="916" y="1424.3574">WHERE CustID IN (processed customers)</text><text fill="#000000" font-family="Arial" font-size="12" lengthAdjust="spacing" textLength="3" x="916" y="1438.1563">&#160;</text><text fill="#000000" font-family="Arial" font-size="12" lengthAdjust="spacing" textLength="110" x="916" y="1451.9551">Returns: isContinue</text><text fill="#000000" font-family="Arial" font-size="12" lengthAdjust="spacing" textLength="174" x="916" y="1465.7539">- true: More customers in queue</text><text fill="#000000" font-family="Arial" font-size="12" lengthAdjust="spacing" textLength="126" x="916" y="1479.5527">- false: Queue is empty</text><rect fill="#F1F1F1" height="33.7988" rx="12.5" ry="12.5" style="stroke:#181818;stroke-width:0.5;" width="122" x="768" y="1416.7041"/><text fill="#000000" font-family="Arial" font-size="12" lengthAdjust="spacing" textLength="102" x="778" y="1438.1563">UpdateComplete()</text><line style="stroke:#000000;stroke-width:1.5;" x1="684.5" x2="684.5" y1="50.3984" y2="1637.6982"/><line style="stroke:#000000;stroke-width:1.5;" x1="1280" x2="1280" y1="50.3984" y2="1637.6982"/><line style="stroke:#181818;stroke-width:1.0;" x1="332.5" x2="332.5" y1="89.1973" y2="109.1973"/><polygon fill="#181818" points="328.5,99.1973,332.5,109.1973,336.5,99.1973,332.5,103.1973" style="stroke:#181818;stroke-width:1.0;"/><line style="stroke:#181818;stroke-width:1.0;" x1="332.5" x2="332.5" y1="142.9961" y2="164.8955"/><polygon fill="#181818" points="328.5,154.8955,332.5,164.8955,336.5,154.8955,332.5,158.8955" style="stroke:#181818;stroke-width:1.0;"/><line style="stroke:#181818;stroke-width:1.0;" x1="332.5" x2="332.5" y1="198.6943" y2="218.6943"/><polygon fill="#181818" points="328.5,208.6943,332.5,218.6943,336.5,208.6943,332.5,212.6943" style="stroke:#181818;stroke-width:1.0;"/><line style="stroke:#181818;stroke-width:1.0;" x1="417.5" x2="417.5" y1="340.292" y2="360.292"/><polygon fill="#181818" points="413.5,350.292,417.5,360.292,421.5,350.292,417.5,354.292" style="stroke:#181818;stroke-width:1.0;"/><line style="stroke:#181818;stroke-width:1.0;" x1="303.5" x2="247.5" y1="284.4932" y2="284.4932"/><line style="stroke:#181818;stroke-width:1.0;" x1="247.5" x2="247.5" y1="284.4932" y2="306.4932"/><polygon fill="#181818" points="243.5,296.4932,247.5,306.4932,251.5,296.4932,247.5,300.4932" style="stroke:#181818;stroke-width:1.0;"/><line style="stroke:#181818;stroke-width:1.0;" x1="361.5" x2="417.5" y1="284.4932" y2="284.4932"/><line style="stroke:#181818;stroke-width:1.0;" x1="417.5" x2="417.5" y1="284.4932" y2="306.4932"/><polygon fill="#181818" points="413.5,296.4932,417.5,306.4932,421.5,296.4932,417.5,300.4932" style="stroke:#181818;stroke-width:1.0;"/><line style="stroke:#181818;stroke-width:1.0;" x1="247.5" x2="247.5" y1="340.292" y2="387.292"/><line style="stroke:#181818;stroke-width:1.0;" x1="247.5" x2="829" y1="387.292" y2="387.292"/><line style="stroke:#181818;stroke-width:1.0;" x1="829" x2="829" y1="387.292" y2="402.292"/><polygon fill="#181818" points="825,392.292,829,402.292,833,392.292,829,396.292" style="stroke:#181818;stroke-width:1.0;"/><line style="stroke:#181818;stroke-width:1.0;" x1="332.5" x2="332.5" y1="252.4932" y2="272.4932"/><polygon fill="#181818" points="328.5,262.4932,332.5,272.4932,336.5,262.4932,332.5,266.4932" style="stroke:#181818;stroke-width:1.0;"/><line style="stroke:#181818;stroke-width:1.0;" x1="332.5" x2="332.5" y1="1199.2627" y2="1233.6621"/><polygon fill="#181818" points="328.5,1223.6621,332.5,1233.6621,336.5,1223.6621,332.5,1227.6621" style="stroke:#181818;stroke-width:1.0;"/><line style="stroke:#181818;stroke-width:1.0;" x1="332.5" x2="332.5" y1="724.3809" y2="744.3809"/><polygon fill="#181818" points="328.5,734.3809,332.5,744.3809,336.5,734.3809,332.5,738.3809" style="stroke:#181818;stroke-width:1.0;"/><line style="stroke:#181818;stroke-width:1.0;" x1="280" x2="182" y1="1309.6621" y2="1309.6621"/><polygon fill="#181818" points="178,1007.5703,182,997.5703,186,1007.5703,182,1003.5703" style="stroke:#181818;stroke-width:1.0;"/><line style="stroke:#181818;stroke-width:1.0;" x1="182" x2="182" y1="712.3809" y2="1309.6621"/><line style="stroke:#181818;stroke-width:1.0;" x1="182" x2="320.5" y1="712.3809" y2="712.3809"/><polygon fill="#181818" points="310.5,708.3809,320.5,712.3809,310.5,716.3809,314.5,712.3809" style="stroke:#181818;stroke-width:1.0;"/><line style="stroke:#181818;stroke-width:1.0;" x1="537" x2="537" y1="1574.6982" y2="1609.6982"/><polygon fill="#181818" points="533,1599.6982,537,1609.6982,541,1599.6982,537,1603.6982" style="stroke:#181818;stroke-width:1.0;"/><line style="stroke:#181818;stroke-width:1.0;" x1="287" x2="128" y1="1518.8994" y2="1518.8994"/><line style="stroke:#181818;stroke-width:1.0;" x1="128" x2="128" y1="1518.8994" y2="1549.6982"/><polygon fill="#181818" points="124,1539.6982,128,1549.6982,132,1539.6982,128,1543.6982" style="stroke:#181818;stroke-width:1.0;"/><line style="stroke:#181818;stroke-width:1.0;" x1="378" x2="537" y1="1518.8994" y2="1518.8994"/><line style="stroke:#181818;stroke-width:1.0;" x1="537" x2="537" y1="1518.8994" y2="1540.8994"/><polygon fill="#181818" points="533,1530.8994,537,1540.8994,541,1530.8994,537,1534.8994" style="stroke:#181818;stroke-width:1.0;"/><line style="stroke:#181818;stroke-width:1.0;" x1="829" x2="829" y1="436.0908" y2="456.0908"/><polygon fill="#181818" points="825,446.0908,829,456.0908,833,446.0908,829,450.0908" style="stroke:#181818;stroke-width:1.0;"/><line style="stroke:#181818;stroke-width:1.0;" x1="829" x2="829" y1="489.8896" y2="524.3867"/><polygon fill="#181818" points="825,514.3867,829,524.3867,833,514.3867,829,518.3867" style="stroke:#181818;stroke-width:1.0;"/><line style="stroke:#181818;stroke-width:1.0;" x1="829" x2="829" y1="831.9785" y2="857.6768"/><polygon fill="#181818" points="825,847.6768,829,857.6768,833,847.6768,829,851.6768" style="stroke:#181818;stroke-width:1.0;"/><line style="stroke:#181818;stroke-width:1.0;" x1="829" x2="829" y1="891.4756" y2="939.7715"/><polygon fill="#181818" points="825,929.7715,829,939.7715,833,929.7715,829,933.7715" style="stroke:#181818;stroke-width:1.0;"/><line style="stroke:#181818;stroke-width:1.0;" x1="829" x2="829" y1="973.5703" y2="1040.168"/><polygon fill="#181818" points="825,1030.168,829,1040.168,833,1030.168,829,1034.168" style="stroke:#181818;stroke-width:1.0;"/><line style="stroke:#181818;stroke-width:1.0;" x1="868.5" x2="882.5" y1="1128.5645" y2="1128.5645"/><polygon fill="#181818" points="878.5,1209.2627,882.5,1219.2627,886.5,1209.2627,882.5,1213.2627" style="stroke:#181818;stroke-width:1.0;"/><line style="stroke:#181818;stroke-width:1.0;" x1="882.5" x2="882.5" y1="1128.5645" y2="1282.6621"/><line style="stroke:#181818;stroke-width:1.0;" x1="882.5" x2="332.5" y1="1282.6621" y2="1282.6621"/><line style="stroke:#181818;stroke-width:1.0;" x1="332.5" x2="332.5" y1="1282.6621" y2="1297.6621"/><polygon fill="#181818" points="328.5,1287.6621,332.5,1297.6621,336.5,1287.6621,332.5,1291.6621" style="stroke:#181818;stroke-width:1.0;"/><line style="stroke:#181818;stroke-width:1.0;" x1="829" x2="829" y1="1073.9668" y2="1116.5645"/><polygon fill="#181818" points="825,1106.5645,829,1116.5645,833,1106.5645,829,1110.5645" style="stroke:#181818;stroke-width:1.0;"/><line style="stroke:#181818;stroke-width:1.0;" x1="829" x2="829" y1="617.8838" y2="644.6826"/><polygon fill="#181818" points="825,634.6826,829,644.6826,833,634.6826,829,638.6826" style="stroke:#181818;stroke-width:1.0;"/><line style="stroke:#181818;stroke-width:1.0;" x1="918" x2="1233.5" y1="605.8838" y2="605.8838"/><polygon fill="#181818" points="1229.5,958.1709,1233.5,968.1709,1237.5,958.1709,1233.5,962.1709" style="stroke:#181818;stroke-width:1.0;"/><line style="stroke:#181818;stroke-width:1.0;" x1="1233.5" x2="1233.5" y1="605.8838" y2="1358.3076"/><line style="stroke:#181818;stroke-width:1.0;" x1="1233.5" x2="841" y1="1358.3076" y2="1358.3076"/><polygon fill="#181818" points="851,1354.3076,841,1358.3076,851,1362.3076,847,1358.3076" style="stroke:#181818;stroke-width:1.0;"/><line style="stroke:#181818;stroke-width:1.0;" x1="829" x2="829" y1="558.1855" y2="593.8838"/><polygon fill="#181818" points="825,583.8838,829,593.8838,833,583.8838,829,587.8838" style="stroke:#181818;stroke-width:1.0;"/><line style="stroke:#181818;stroke-width:1.0;" x1="829" x2="829" y1="1370.3076" y2="1416.7041"/><polygon fill="#181818" points="825,1406.7041,829,1416.7041,833,1406.7041,829,1410.7041" style="stroke:#181818;stroke-width:1.0;"/><line style="stroke:#181818;stroke-width:1.0;" x1="332.5" x2="332.5" y1="778.1797" y2="783.1797"/><line style="stroke:#181818;stroke-width:1.0;" x1="332.5" x2="829" y1="783.1797" y2="783.1797"/><line style="stroke:#181818;stroke-width:1.0;" x1="829" x2="829" y1="783.1797" y2="798.1797"/><polygon fill="#181818" points="825,788.1797,829,798.1797,833,788.1797,829,792.1797" style="stroke:#181818;stroke-width:1.0;"/><line style="stroke:#181818;stroke-width:1.0;" x1="829" x2="829" y1="1140.5645" y2="1153.0142"/><line style="stroke:#181818;stroke-width:1.0;" x1="829" x2="332.5" y1="1153.0142" y2="1153.0142"/><line style="stroke:#181818;stroke-width:1.0;" x1="332.5" x2="332.5" y1="1153.0142" y2="1165.4639"/><polygon fill="#181818" points="328.5,1155.4639,332.5,1165.4639,336.5,1155.4639,332.5,1159.4639" style="stroke:#181818;stroke-width:1.0;"/><line style="stroke:#181818;stroke-width:1.0;" x1="829" x2="829" y1="678.4814" y2="685.3809"/><line style="stroke:#181818;stroke-width:1.0;" x1="829" x2="332.5" y1="685.3809" y2="685.3809"/><line style="stroke:#181818;stroke-width:1.0;" x1="332.5" x2="332.5" y1="685.3809" y2="700.3809"/><polygon fill="#181818" points="328.5,690.3809,332.5,700.3809,336.5,690.3809,332.5,694.3809" style="stroke:#181818;stroke-width:1.0;"/><line style="stroke:#181818;stroke-width:1.0;" x1="332.5" x2="332.5" y1="1321.6621" y2="1326.9585"/><line style="stroke:#181818;stroke-width:1.0;" x1="332.5" x2="829" y1="1326.9585" y2="1326.9585"/><line style="stroke:#181818;stroke-width:1.0;" x1="829" x2="829" y1="1326.9585" y2="1346.3076"/><polygon fill="#181818" points="825,1336.3076,829,1346.3076,833,1336.3076,829,1340.3076" style="stroke:#181818;stroke-width:1.0;"/><line style="stroke:#181818;stroke-width:1.0;" x1="829" x2="829" y1="1450.5029" y2="1486.2012"/><line style="stroke:#181818;stroke-width:1.0;" x1="829" x2="332.5" y1="1486.2012" y2="1486.2012"/><line style="stroke:#181818;stroke-width:1.0;" x1="332.5" x2="332.5" y1="1486.2012" y2="1506.8994"/><polygon fill="#181818" points="328.5,1496.8994,332.5,1506.8994,336.5,1496.8994,332.5,1500.8994" style="stroke:#181818;stroke-width:1.0;"/><text fill="#000000" font-family="Arial" font-size="12" lengthAdjust="spacing" textLength="60" x="319.75" y="61.8506">JobService</text><text fill="#000000" font-family="Arial" font-size="12" lengthAdjust="spacing" textLength="73" x="945.75" y="61.8506">Service Layer</text><!--SRC=[XLR1ZY8t4BttLvIK2w2GcLqfEJJAHWpJxB8QPWYGv115aMaAiCRO7Tiz3Aivx6_a5kLNyYVx9IcxtTqqz2HS4AvNvQfNLSzORWN2BUFY23EjLWBtC1BC6BxXARDSIUZ3b749Ow4EKMGUkSoOPdjOiVHngrKkroCbb8QlnlvpWjWnkJveRYrAs31XyCIsnWtBXHqhQU_P7c6eEHFjzWN_XF3cxOdHkgHhqtUj9dkambPAhAFevQDQBL0_yHHV8cEPjb4yUrWiuOfb_2fjb4jGSsLI9YMNMyzBeAN9oY2IoY9eljtP2E26sNG7ngNZyq2BcewJvvXu8fDFz7luzlhwEaAv1kSSHN7oZ6bkiLDXkeCe_fa9lcOKlFPy1zU3AE8Rw7ZZ3rsmEoArSqJJfMjYIdgUoqOO9BwX8vMttwaj95fJb_emaKykHaZPeGS4CLPbBZE-8Re2Lt37ZgXVedZXAEjqpsgUI6wfQIw_sT0pjI3QnbhjVymnnwbQepWjzZtQDjn5NC9HG4XpoccFsi26e654dITuDm8kLAvJZ66qN8m2kDcatul-3Kk7yMJy01qQ2JGMDbmRsprFiEZrC4rfiEsTCZG4pPWNwOwOI7FX-aL95numGxrHUizaYfweBBTnIqr_XBmUSbiW_lVsHDA07t_zpHMJozGTJTQLeo-NPk6aA3Sp7vY1BEnsSzWl1ccqo-KZh8xrxBdXQDHBl6U2M-3IgWA6nX_NEn13gkI6RtFDw58orla0QCoG5O4QU-aEOYeaHMEAk0D_LY3FHjA3vsZGZwNxTPOZWBUMTGTAYNVQ0Oc7uWAFFCsDWawaGNqs1-wNv-jo55gl7YdvH4602FguUBWFfqLaDmPLl3EfhJAtkPOc3XwpOOMdcaWKVVlTfr-E_kJsQoY_9sQkLih-Hsr3aWEUlffzhxSyA33eX8nCme6fsywLKZ1nhnU0RxwXLBSq-zeLzS_VNpx_zUNpdz2unNIw0VsMq2wn5gm_FuE7hp4N9ALk8aDTi15isrRSB3UxqMYfacToa4oyMfy3dks1wvHxv6vlIamfuYQkk9uhWU_fmSjYcE9-vGM-i9HNtfHBKracvgVCQVajarlKIrLS4eFLEROKuRPraQTk1QhLB2IyTLty3hXPAPxNGJZqMXw2EpqlTmuEEqvlOcUgD9QRIzTmK-r__nqbS_fslFOY55MDr3uJnDA59awPVYpK3KXxqW1Ra-KskKkMoOcar-hyouTadeGnXiazTB92371TwwPBCZhP46verooNFa3VqqhTSVNLKal_NKgXxHT4nSKJuYh7VMQF9thPuDYrexxXGYpdz7Xhmv_GlG62WhSymnVpr-lLRa7jIENBfIhl0b8TBWA5LPeEaJ0IMLs4eC4jEJ8DLQlg0VeZPScZ-NUWxDlPm_yl]--></g></svg>