<svg xmlns="http://www.w3.org/2000/svg" xmlns:xlink="http://www.w3.org/1999/xlink" contentStyleType="text/css" height="2874px" preserveAspectRatio="none" style="width:2658px;height:2874px;background:#FFFFFF;" version="1.1" viewBox="0 0 2658 2874" width="2658px" zoomAndPan="magnify"><defs/><g><text fill="#000000" font-family="Verdana" font-size="22" font-weight="bold" lengthAdjust="spacing" textLength="716" x="969.75" y="37.1182">Match Monitor - Irrigation Detection - Sequence Diagram</text><rect fill="#FFFFFF" height="2340.4424" style="stroke:#000000;stroke-width:1.0;" width="10" x="413.5" y="239.1646"/><rect fill="#FFFFFF" height="2280.8438" style="stroke:#000000;stroke-width:1.0;" width="10" x="803.5" y="268.9639"/><rect fill="#FFFFFF" height="286.5918" style="stroke:#000000;stroke-width:1.0;" width="10" x="1194.5" y="342.5625"/><rect fill="#FFFFFF" height="712.5161" style="stroke:#000000;stroke-width:1.0;" width="10" x="1194.5" y="858.1475"/><rect fill="#FFFFFF" height="353.9897" style="stroke:#000000;stroke-width:1.0;" width="10" x="1194.5" y="1818.2261"/><rect fill="#FFFFFF" height="223.3945" style="stroke:#000000;stroke-width:1.0;" width="10" x="1194.5" y="2252.8145"/><rect fill="#FFFFFF" height="226.9932" style="stroke:#000000;stroke-width:1.0;" width="10" x="1585.5" y="372.3618"/><rect fill="#FFFFFF" height="520.5522" style="stroke:#000000;stroke-width:1.0;" width="10" x="1585.5" y="935.3447"/><rect fill="#FFFFFF" height="195.3945" style="stroke:#000000;stroke-width:1.0;" width="10" x="1585.5" y="1947.022"/><rect fill="#FFFFFF" height="163.7959" style="stroke:#000000;stroke-width:1.0;" width="10" x="1585.5" y="2282.6138"/><rect fill="#FFFFFF" height="135.7959" style="stroke:#000000;stroke-width:1.0;" width="10" x="1977.5" y="417.9604"/><rect fill="#FFFFFF" height="374.1577" style="stroke:#000000;stroke-width:1.0;" width="10" x="1977.5" y="1059.9399"/><rect fill="#FFFFFF" height="88.3979" style="stroke:#000000;stroke-width:1.0;" width="10" x="1977.5" y="2328.2124"/><rect fill="#FFFFFF" height="119.9966" style="stroke:#000000;stroke-width:1.0;" width="10" x="2357.5" y="1992.6206"/><rect fill="#FFFFFF" height="898.0786" style="stroke:#000000;stroke-width:1.0;" width="1676.5" x="651" y="771.1509"/><rect fill="#FFFFFF" height="108.5659" style="stroke:#000000;stroke-width:1.0;" width="596" x="1476" y="1318.5317"/><rect fill="#FFFFFF" height="45.168" style="stroke:none;stroke-width:1.0;" width="596" x="1476" y="1381.9297"/><rect fill="#FFFFFF" height="92.7666" style="stroke:#000000;stroke-width:1.0;" width="605" x="697.5" y="1470.897"/><rect fill="#FFFFFF" height="45.168" style="stroke:none;stroke-width:1.0;" width="605" x="697.5" y="1518.4956"/><rect fill="#FFFFFF" height="98.5659" style="stroke:none;stroke-width:1.0;" width="1676.5" x="651" y="1570.6636"/><rect fill="#FFFFFF" height="417.3877" style="stroke:#000000;stroke-width:1.0;" width="1944" x="697.5" y="1762.8281"/><line style="stroke:#000000;stroke-width:1.0;" x1="69" x2="69" y1="147.7666" y2="2775.6001"/><line style="stroke:#000000;stroke-width:1.0;" x1="418" x2="418" y1="147.7666" y2="2775.6001"/><line style="stroke:#000000;stroke-width:1.0;" x1="808.5" x2="808.5" y1="147.7666" y2="2775.6001"/><line style="stroke:#000000;stroke-width:1.0;" x1="1199.5" x2="1199.5" y1="147.7666" y2="2775.6001"/><line style="stroke:#000000;stroke-width:1.0;" x1="1590" x2="1590" y1="147.7666" y2="2775.6001"/><line style="stroke:#000000;stroke-width:1.0;" x1="1982" x2="1982" y1="147.7666" y2="2775.6001"/><line style="stroke:#000000;stroke-width:1.0;" x1="2362" x2="2362" y1="147.7666" y2="2775.6001"/><text fill="#000000" font-family="Verdana" font-size="14" lengthAdjust="spacing" textLength="113" x="10" y="127.8125">Background Job</text><text fill="#000000" font-family="Verdana" font-size="14" lengthAdjust="spacing" textLength="81" x="26" y="144.8271">(Scheduler)</text><ellipse cx="69.5" cy="61.7373" fill="#FFFFFF" rx="8" ry="8" style="stroke:#000000;stroke-width:1.0;"/><path d="M69.5,69.7373 L69.5,96.7373 M56.5,77.7373 L82.5,77.7373 M69.5,96.7373 L56.5,111.7373 M69.5,96.7373 L82.5,111.7373 " fill="none" style="stroke:#000000;stroke-width:1.0;"/><text fill="#000000" font-family="Verdana" font-size="14" lengthAdjust="spacing" textLength="113" x="10" y="2788.6753">Background Job</text><text fill="#000000" font-family="Verdana" font-size="14" lengthAdjust="spacing" textLength="81" x="26" y="2805.6899">(Scheduler)</text><ellipse cx="69.5" cy="2817.6294" fill="#FFFFFF" rx="8" ry="8" style="stroke:#000000;stroke-width:1.0;"/><path d="M69.5,2825.6294 L69.5,2852.6294 M56.5,2833.6294 L82.5,2833.6294 M69.5,2852.6294 L56.5,2867.6294 M69.5,2852.6294 L82.5,2867.6294 " fill="none" style="stroke:#000000;stroke-width:1.0;"/><rect fill="#FFFFFF" height="48.0293" rx="2.5" ry="2.5" style="stroke:#000000;stroke-width:1.0;" width="177" x="330" y="98.7373"/><text fill="#000000" font-family="Verdana" font-size="14" lengthAdjust="spacing" textLength="163" x="337" y="119.8125">MatchMonitorController</text><text fill="#000000" font-family="Verdana" font-size="14" lengthAdjust="spacing" textLength="35" x="401" y="136.8271">(API)</text><rect fill="#FFFFFF" height="48.0293" rx="2.5" ry="2.5" style="stroke:#000000;stroke-width:1.0;" width="177" x="330" y="2774.6001"/><text fill="#000000" font-family="Verdana" font-size="14" lengthAdjust="spacing" textLength="163" x="337" y="2795.6753">MatchMonitorController</text><text fill="#000000" font-family="Verdana" font-size="14" lengthAdjust="spacing" textLength="35" x="401" y="2812.6899">(API)</text><rect fill="#FFFFFF" height="48.0293" rx="2.5" ry="2.5" style="stroke:#000000;stroke-width:1.0;" width="182" x="717.5" y="98.7373"/><text fill="#000000" font-family="Verdana" font-size="14" lengthAdjust="spacing" textLength="168" x="724.5" y="119.8125">MatchMonitorJobService</text><text fill="#000000" font-family="Verdana" font-size="14" lengthAdjust="spacing" textLength="62" x="777.5" y="136.8271">(Service)</text><rect fill="#FFFFFF" height="48.0293" rx="2.5" ry="2.5" style="stroke:#000000;stroke-width:1.0;" width="182" x="717.5" y="2774.6001"/><text fill="#000000" font-family="Verdana" font-size="14" lengthAdjust="spacing" textLength="168" x="724.5" y="2795.6753">MatchMonitorJobService</text><text fill="#000000" font-family="Verdana" font-size="14" lengthAdjust="spacing" textLength="62" x="777.5" y="2812.6899">(Service)</text><rect fill="#FFFFFF" height="48.0293" rx="2.5" ry="2.5" style="stroke:#000000;stroke-width:1.0;" width="166" x="1116.5" y="98.7373"/><text fill="#000000" font-family="Verdana" font-size="14" lengthAdjust="spacing" textLength="152" x="1123.5" y="119.8125">MatchMonitorServices</text><text fill="#000000" font-family="Verdana" font-size="14" lengthAdjust="spacing" textLength="116" x="1141.5" y="136.8271">(Business Logic)</text><rect fill="#FFFFFF" height="48.0293" rx="2.5" ry="2.5" style="stroke:#000000;stroke-width:1.0;" width="166" x="1116.5" y="2774.6001"/><text fill="#000000" font-family="Verdana" font-size="14" lengthAdjust="spacing" textLength="152" x="1123.5" y="2795.6753">MatchMonitorServices</text><text fill="#000000" font-family="Verdana" font-size="14" lengthAdjust="spacing" textLength="116" x="1141.5" y="2812.6899">(Business Logic)</text><rect fill="#FFFFFF" height="48.0293" rx="2.5" ry="2.5" style="stroke:#000000;stroke-width:1.0;" width="189" x="1496" y="98.7373"/><text fill="#000000" font-family="Verdana" font-size="14" lengthAdjust="spacing" textLength="175" x="1503" y="119.8125">MatchMonitorDataAccess</text><text fill="#000000" font-family="Verdana" font-size="14" lengthAdjust="spacing" textLength="98" x="1541.5" y="136.8271">(Data Access)</text><rect fill="#FFFFFF" height="48.0293" rx="2.5" ry="2.5" style="stroke:#000000;stroke-width:1.0;" width="189" x="1496" y="2774.6001"/><text fill="#000000" font-family="Verdana" font-size="14" lengthAdjust="spacing" textLength="175" x="1503" y="2795.6753">MatchMonitorDataAccess</text><text fill="#000000" font-family="Verdana" font-size="14" lengthAdjust="spacing" textLength="98" x="1541.5" y="2812.6899">(Data Access)</text><text fill="#000000" font-family="Verdana" font-size="14" lengthAdjust="spacing" textLength="82" x="1938.5" y="127.8125">CTS MySQL</text><text fill="#000000" font-family="Verdana" font-size="14" lengthAdjust="spacing" textLength="153" x="1903" y="144.8271">(Staging - Pool 2006)</text><path d="M1964.5,77.7373 C1964.5,67.7373 1982.5,67.7373 1982.5,67.7373 C1982.5,67.7373 2000.5,67.7373 2000.5,77.7373 L2000.5,103.7373 C2000.5,113.7373 1982.5,113.7373 1982.5,113.7373 C1982.5,113.7373 1964.5,113.7373 1964.5,103.7373 L1964.5,77.7373 " fill="#FFFFFF" style="stroke:#000000;stroke-width:1.5;"/><path d="M1964.5,77.7373 C1964.5,87.7373 1982.5,87.7373 1982.5,87.7373 C1982.5,87.7373 2000.5,87.7373 2000.5,77.7373 " fill="none" style="stroke:#000000;stroke-width:1.5;"/><text fill="#000000" font-family="Verdana" font-size="14" lengthAdjust="spacing" textLength="82" x="1938.5" y="2788.6753">CTS MySQL</text><text fill="#000000" font-family="Verdana" font-size="14" lengthAdjust="spacing" textLength="153" x="1903" y="2805.6899">(Staging - Pool 2006)</text><path d="M1964.5,2818.6294 C1964.5,2808.6294 1982.5,2808.6294 1982.5,2808.6294 C1982.5,2808.6294 2000.5,2808.6294 2000.5,2818.6294 L2000.5,2844.6294 C2000.5,2854.6294 1982.5,2854.6294 1982.5,2854.6294 C1982.5,2854.6294 1964.5,2854.6294 1964.5,2844.6294 L1964.5,2818.6294 " fill="#FFFFFF" style="stroke:#000000;stroke-width:1.5;"/><path d="M1964.5,2818.6294 C1964.5,2828.6294 1982.5,2828.6294 1982.5,2828.6294 C1982.5,2828.6294 2000.5,2828.6294 2000.5,2818.6294 " fill="none" style="stroke:#000000;stroke-width:1.5;"/><text fill="#000000" font-family="Verdana" font-size="14" lengthAdjust="spacing" textLength="82" x="2318.5" y="127.8125">CTS MySQL</text><text fill="#000000" font-family="Verdana" font-size="14" lengthAdjust="spacing" textLength="161" x="2279" y="144.8271">(Match Monitor Tables)</text><path d="M2344.5,77.7373 C2344.5,67.7373 2362.5,67.7373 2362.5,67.7373 C2362.5,67.7373 2380.5,67.7373 2380.5,77.7373 L2380.5,103.7373 C2380.5,113.7373 2362.5,113.7373 2362.5,113.7373 C2362.5,113.7373 2344.5,113.7373 2344.5,103.7373 L2344.5,77.7373 " fill="#FFFFFF" style="stroke:#000000;stroke-width:1.5;"/><path d="M2344.5,77.7373 C2344.5,87.7373 2362.5,87.7373 2362.5,87.7373 C2362.5,87.7373 2380.5,87.7373 2380.5,77.7373 " fill="none" style="stroke:#000000;stroke-width:1.5;"/><text fill="#000000" font-family="Verdana" font-size="14" lengthAdjust="spacing" textLength="82" x="2318.5" y="2788.6753">CTS MySQL</text><text fill="#000000" font-family="Verdana" font-size="14" lengthAdjust="spacing" textLength="161" x="2279" y="2805.6899">(Match Monitor Tables)</text><path d="M2344.5,2818.6294 C2344.5,2808.6294 2362.5,2808.6294 2362.5,2808.6294 C2362.5,2808.6294 2380.5,2808.6294 2380.5,2818.6294 L2380.5,2844.6294 C2380.5,2854.6294 2362.5,2854.6294 2362.5,2854.6294 C2362.5,2854.6294 2344.5,2854.6294 2344.5,2844.6294 L2344.5,2818.6294 " fill="#FFFFFF" style="stroke:#000000;stroke-width:1.5;"/><path d="M2344.5,2818.6294 C2344.5,2828.6294 2362.5,2828.6294 2362.5,2828.6294 C2362.5,2828.6294 2380.5,2828.6294 2380.5,2818.6294 " fill="none" style="stroke:#000000;stroke-width:1.5;"/><rect fill="#FFFFFF" height="2340.4424" style="stroke:#000000;stroke-width:1.0;" width="10" x="413.5" y="239.1646"/><rect fill="#FFFFFF" height="2280.8438" style="stroke:#000000;stroke-width:1.0;" width="10" x="803.5" y="268.9639"/><rect fill="#FFFFFF" height="286.5918" style="stroke:#000000;stroke-width:1.0;" width="10" x="1194.5" y="342.5625"/><rect fill="#FFFFFF" height="712.5161" style="stroke:#000000;stroke-width:1.0;" width="10" x="1194.5" y="858.1475"/><rect fill="#FFFFFF" height="353.9897" style="stroke:#000000;stroke-width:1.0;" width="10" x="1194.5" y="1818.2261"/><rect fill="#FFFFFF" height="223.3945" style="stroke:#000000;stroke-width:1.0;" width="10" x="1194.5" y="2252.8145"/><rect fill="#FFFFFF" height="226.9932" style="stroke:#000000;stroke-width:1.0;" width="10" x="1585.5" y="372.3618"/><rect fill="#FFFFFF" height="520.5522" style="stroke:#000000;stroke-width:1.0;" width="10" x="1585.5" y="935.3447"/><rect fill="#FFFFFF" height="195.3945" style="stroke:#000000;stroke-width:1.0;" width="10" x="1585.5" y="1947.022"/><rect fill="#FFFFFF" height="163.7959" style="stroke:#000000;stroke-width:1.0;" width="10" x="1585.5" y="2282.6138"/><rect fill="#FFFFFF" height="135.7959" style="stroke:#000000;stroke-width:1.0;" width="10" x="1977.5" y="417.9604"/><rect fill="#FFFFFF" height="374.1577" style="stroke:#000000;stroke-width:1.0;" width="10" x="1977.5" y="1059.9399"/><rect fill="#FFFFFF" height="88.3979" style="stroke:#000000;stroke-width:1.0;" width="10" x="1977.5" y="2328.2124"/><rect fill="#FFFFFF" height="119.9966" style="stroke:#000000;stroke-width:1.0;" width="10" x="2357.5" y="1992.6206"/><rect fill="#FFFFFF" height="3" style="stroke:#FFFFFF;stroke-width:1.0;" width="2646.5" x="5" y="178.6663"/><line style="stroke:#000000;stroke-width:0.5;" x1="5" x2="2651.5" y1="178.6663" y2="178.6663"/><line style="stroke:#000000;stroke-width:0.5;" x1="5" x2="2651.5" y1="181.6663" y2="181.6663"/><rect fill="#FFFFFF" height="23.7993" style="stroke:#000000;stroke-width:1.0;" width="74" x="1291.25" y="167.7666"/><text fill="#000000" font-family="Verdana" font-size="13" font-weight="bold" lengthAdjust="spacing" textLength="56" x="1297.25" y="184.8364">API Call</text><polygon fill="#000000" points="401.5,235.1646,411.5,239.1646,401.5,243.1646,405.5,239.1646" style="stroke:#000000;stroke-width:1.0;"/><line style="stroke:#000000;stroke-width:1.0;" x1="69.5" x2="407.5" y1="239.1646" y2="239.1646"/><text fill="#000000" font-family="Verdana" font-size="13" lengthAdjust="spacing" textLength="325" x="76.5" y="218.6357">POST /MatchMonitorProcessRuleIrrigationNonLive</text><text fill="#000000" font-family="Verdana" font-size="13" lengthAdjust="spacing" textLength="138" x="76.5" y="234.4351">(numberOfThread=4)</text><polygon fill="#000000" points="791.5,264.9639,801.5,268.9639,791.5,272.9639,795.5,268.9639" style="stroke:#000000;stroke-width:1.0;"/><line style="stroke:#000000;stroke-width:1.0;" x1="423.5" x2="797.5" y1="268.9639" y2="268.9639"/><text fill="#000000" font-family="Verdana" font-size="13" lengthAdjust="spacing" textLength="361" x="430.5" y="264.2344">ProcessRuleIrrigation(isLive=false, numberOfThread=4)</text><rect fill="#FFFFFF" height="3" style="stroke:#FFFFFF;stroke-width:1.0;" width="2646.5" x="5" y="297.8635"/><line style="stroke:#000000;stroke-width:0.5;" x1="5" x2="2651.5" y1="297.8635" y2="297.8635"/><line style="stroke:#000000;stroke-width:0.5;" x1="5" x2="2651.5" y1="300.8635" y2="300.8635"/><rect fill="#FFFFFF" height="23.7993" style="stroke:#000000;stroke-width:1.0;" width="233" x="1211.75" y="286.9639"/><text fill="#000000" font-family="Verdana" font-size="13" font-weight="bold" lengthAdjust="spacing" textLength="215" x="1217.75" y="304.0337">Phase 1: Get Staging Matches</text><polygon fill="#000000" points="1182.5,338.5625,1192.5,342.5625,1182.5,346.5625,1186.5,342.5625" style="stroke:#000000;stroke-width:1.0;"/><line style="stroke:#000000;stroke-width:1.0;" x1="813.5" x2="1188.5" y1="342.5625" y2="342.5625"/><text fill="#000000" font-family="Verdana" font-size="13" lengthAdjust="spacing" textLength="287" x="820.5" y="337.833">GetMatchMonitorRuleIrrigation(isLive=false)</text><polygon fill="#000000" points="1573.5,368.3618,1583.5,372.3618,1573.5,376.3618,1577.5,372.3618" style="stroke:#000000;stroke-width:1.0;"/><line style="stroke:#000000;stroke-width:1.0;" x1="1204.5" x2="1579.5" y1="372.3618" y2="372.3618"/><text fill="#000000" font-family="Verdana" font-size="13" lengthAdjust="spacing" textLength="287" x="1211.5" y="367.6323">GetMatchMonitorRuleIrrigation(isLive=false)</text><polygon fill="#000000" points="1965.5,413.9604,1975.5,417.9604,1965.5,421.9604,1969.5,417.9604" style="stroke:#000000;stroke-width:1.0;"/><line style="stroke:#000000;stroke-width:1.0;" x1="1595.5" x2="1971.5" y1="417.9604" y2="417.9604"/><text fill="#000000" font-family="Verdana" font-size="13" lengthAdjust="spacing" textLength="313" x="1602.5" y="397.4316">CALL CTS_DC_MatchMonitor_RuleIrrigation_Get</text><text fill="#000000" font-family="Verdana" font-size="13" lengthAdjust="spacing" textLength="298" x="1602.5" y="413.231">(@ip_LiveIndicator=0, @op_MaxSequenceID)</text><line style="stroke:#000000;stroke-width:1.0;" x1="1987.5" x2="2029.5" y1="510.957" y2="510.957"/><line style="stroke:#000000;stroke-width:1.0;" x1="2029.5" x2="2029.5" y1="510.957" y2="523.957"/><line style="stroke:#000000;stroke-width:1.0;" x1="1988.5" x2="2029.5" y1="523.957" y2="523.957"/><polygon fill="#000000" points="1998.5,519.957,1988.5,523.957,1998.5,527.957,1994.5,523.957" style="stroke:#000000;stroke-width:1.0;"/><text fill="#000000" font-family="Verdana" font-size="13" lengthAdjust="spacing" textLength="339" x="1994.5" y="443.0303">SELECT from MatchMonitorStagingIrrigationNonLive</text><text fill="#000000" font-family="Verdana" font-size="13" lengthAdjust="spacing" textLength="313" x="1994.5" y="458.8296">WHERE SequenceID &gt; LastScannedSequenceID</text><text fill="#000000" font-family="Verdana" font-size="13" lengthAdjust="spacing" textLength="277" x="1994.5" y="474.6289">GROUP BY MatchID, ScoreDiff, BettypeID,</text><text fill="#000000" font-family="Verdana" font-size="13" lengthAdjust="spacing" textLength="137" x="2039.5" y="490.4282">BetID, HDP, Betteam</text><text fill="#000000" font-family="Verdana" font-size="13" lengthAdjust="spacing" textLength="74" x="1994.5" y="506.2275">LIMIT 5000</text><polygon fill="#000000" points="1606.5,549.7563,1596.5,553.7563,1606.5,557.7563,1602.5,553.7563" style="stroke:#000000;stroke-width:1.0;"/><line style="stroke:#000000;stroke-width:1.0;stroke-dasharray:2.0,2.0;" x1="1600.5" x2="1981.5" y1="553.7563" y2="553.7563"/><text fill="#000000" font-family="Verdana" font-size="13" lengthAdjust="spacing" textLength="308" x="1612.5" y="549.0269">MatchStagingList (grouped) + MaxSequenceID</text><polygon fill="#000000" points="1215.5,595.355,1205.5,599.355,1215.5,603.355,1211.5,599.355" style="stroke:#000000;stroke-width:1.0;"/><line style="stroke:#000000;stroke-width:1.0;stroke-dasharray:2.0,2.0;" x1="1209.5" x2="1589.5" y1="599.355" y2="599.355"/><text fill="#000000" font-family="Verdana" font-size="13" lengthAdjust="spacing" textLength="214" x="1221.5" y="578.8262">MatchMonitorRuleIrrigationModel</text><text fill="#000000" font-family="Verdana" font-size="13" lengthAdjust="spacing" textLength="241" x="1221.5" y="594.6255">(MatchStagingList, MaxSequenceID)</text><polygon fill="#000000" points="824.5,625.1543,814.5,629.1543,824.5,633.1543,820.5,629.1543" style="stroke:#000000;stroke-width:1.0;"/><line style="stroke:#000000;stroke-width:1.0;stroke-dasharray:2.0,2.0;" x1="818.5" x2="1198.5" y1="629.1543" y2="629.1543"/><text fill="#000000" font-family="Verdana" font-size="13" lengthAdjust="spacing" textLength="214" x="830.5" y="624.4248">MatchMonitorRuleIrrigationModel</text><rect fill="#FFFFFF" height="3" style="stroke:#FFFFFF;stroke-width:1.0;" width="2646.5" x="5" y="658.054"/><line style="stroke:#000000;stroke-width:0.5;" x1="5" x2="2651.5" y1="658.054" y2="658.054"/><line style="stroke:#000000;stroke-width:0.5;" x1="5" x2="2651.5" y1="661.054" y2="661.054"/><rect fill="#FFFFFF" height="23.7993" style="stroke:#000000;stroke-width:1.0;" width="300" x="1178.25" y="647.1543"/><text fill="#000000" font-family="Verdana" font-size="13" font-weight="bold" lengthAdjust="spacing" textLength="282" x="1184.25" y="664.2241">Phase 2: Process Each Match (Parallel)</text><path d="M682,685.9536 L682,758.9536 L935,758.9536 L935,695.9536 L925,685.9536 L682,685.9536 " fill="#FFFFFF" style="stroke:#000000;stroke-width:1.0;"/><path d="M925,685.9536 L925,695.9536 L935,695.9536 L925,685.9536 " fill="#FFFFFF" style="stroke:#000000;stroke-width:1.0;"/><text fill="#000000" font-family="Verdana" font-size="13" lengthAdjust="spacing" textLength="232" x="688" y="704.0234">Process all match groups in parallel</text><text fill="#000000" font-family="Verdana" font-size="13" lengthAdjust="spacing" textLength="147" x="688" y="719.8228">(4 threads by default)</text><text fill="#000000" font-family="Verdana" font-size="13" lengthAdjust="spacing" textLength="5" x="688" y="735.6221">&#160;</text><text fill="#000000" font-family="Verdana" font-size="13" lengthAdjust="spacing" textLength="209" x="688" y="751.4214">KEY: NO Association Detection!</text><path d="M651,771.1509 L720,771.1509 L720,778.9502 L710,788.9502 L651,788.9502 L651,771.1509 " fill="#FFFFFF" style="stroke:#000000;stroke-width:1.0;"/><rect fill="none" height="898.0786" style="stroke:#000000;stroke-width:1.0;" width="1676.5" x="651" y="771.1509"/><text fill="#000000" font-family="Verdana" font-size="13" font-weight="bold" lengthAdjust="spacing" textLength="24" x="666" y="785.2207">par</text><text fill="#000000" font-family="Verdana" font-size="11" font-weight="bold" lengthAdjust="spacing" textLength="105" x="735" y="784.21">[Match Group 1]</text><polygon fill="#000000" points="1182.5,854.1475,1192.5,858.1475,1182.5,862.1475,1186.5,858.1475" style="stroke:#000000;stroke-width:1.0;"/><line style="stroke:#000000;stroke-width:1.0;" x1="813.5" x2="1188.5" y1="858.1475" y2="858.1475"/><text fill="#000000" font-family="Verdana" font-size="13" lengthAdjust="spacing" textLength="221" x="820.5" y="806.02">InsertMatchMonitorRuleIrrigation(</text><text fill="#000000" font-family="Verdana" font-size="13" lengthAdjust="spacing" textLength="81" x="820.5" y="821.8193">isLive=false,</text><text fill="#000000" font-family="Verdana" font-size="13" lengthAdjust="spacing" textLength="110" x="820.5" y="837.6187">maxSequenceID,</text><text fill="#000000" font-family="Verdana" font-size="13" lengthAdjust="spacing" textLength="81" x="820.5" y="853.418">matchInfo1)</text><polygon fill="#000000" points="1573.5,931.3447,1583.5,935.3447,1573.5,939.3447,1577.5,935.3447" style="stroke:#000000;stroke-width:1.0;"/><line style="stroke:#000000;stroke-width:1.0;" x1="1204.5" x2="1579.5" y1="935.3447" y2="935.3447"/><text fill="#000000" font-family="Verdana" font-size="13" lengthAdjust="spacing" textLength="221" x="1211.5" y="883.2173">InsertMatchMonitorRuleIrrigation(</text><text fill="#000000" font-family="Verdana" font-size="13" lengthAdjust="spacing" textLength="81" x="1211.5" y="899.0166">isLive=false,</text><text fill="#000000" font-family="Verdana" font-size="13" lengthAdjust="spacing" textLength="110" x="1211.5" y="914.8159">maxSequenceID,</text><text fill="#000000" font-family="Verdana" font-size="13" lengthAdjust="spacing" textLength="81" x="1211.5" y="930.6152">matchInfo1)</text><polygon fill="#000000" points="1965.5,1055.9399,1975.5,1059.9399,1965.5,1063.9399,1969.5,1059.9399" style="stroke:#000000;stroke-width:1.0;"/><line style="stroke:#000000;stroke-width:1.0;" x1="1595.5" x2="1971.5" y1="1059.9399" y2="1059.9399"/><text fill="#000000" font-family="Verdana" font-size="13" lengthAdjust="spacing" textLength="341" x="1602.5" y="960.4146">CALL CTS_DC_MatchMonitor_RuleIrrigation_Process</text><text fill="#000000" font-family="Verdana" font-size="13" lengthAdjust="spacing" textLength="98" x="1602.5" y="976.2139">(@ip_MatchID,</text><text fill="#000000" font-family="Verdana" font-size="13" lengthAdjust="spacing" textLength="97" x="1602.5" y="992.0132">@ip_ScoreDiff,</text><text fill="#000000" font-family="Verdana" font-size="13" lengthAdjust="spacing" textLength="103" x="1602.5" y="1007.8125">@ip_BettypeID,</text><text fill="#000000" font-family="Verdana" font-size="13" lengthAdjust="spacing" textLength="73" x="1602.5" y="1023.6118">@ip_BetID,</text><text fill="#000000" font-family="Verdana" font-size="13" lengthAdjust="spacing" textLength="63" x="1602.5" y="1039.4111">@ip_HDP,</text><text fill="#000000" font-family="Verdana" font-size="13" lengthAdjust="spacing" textLength="93" x="1602.5" y="1055.2104">@ip_Betteam)</text><line style="stroke:#000000;stroke-width:1.0;" x1="1987.5" x2="2029.5" y1="1152.9365" y2="1152.9365"/><line style="stroke:#000000;stroke-width:1.0;" x1="2029.5" x2="2029.5" y1="1152.9365" y2="1165.9365"/><line style="stroke:#000000;stroke-width:1.0;" x1="1988.5" x2="2029.5" y1="1165.9365" y2="1165.9365"/><polygon fill="#000000" points="1998.5,1161.9365,1988.5,1165.9365,1998.5,1169.9365,1994.5,1165.9365" style="stroke:#000000;stroke-width:1.0;"/><text fill="#000000" font-family="Verdana" font-size="13" lengthAdjust="spacing" textLength="161" x="1994.5" y="1085.0098">Get all tickets for match</text><text fill="#000000" font-family="Verdana" font-size="13" lengthAdjust="spacing" textLength="219" x="1994.5" y="1100.8091">GROUP BY CustID (per customer)</text><text fill="#000000" font-family="Verdana" font-size="13" lengthAdjust="spacing" textLength="265" x="1994.5" y="1116.6084">Calculate Old Groups (existing patterns)</text><text fill="#000000" font-family="Verdana" font-size="13" lengthAdjust="spacing" textLength="252" x="1994.5" y="1132.4077">Calculate New Groups (current batch)</text><text fill="#000000" font-family="Verdana" font-size="13" lengthAdjust="spacing" textLength="212" x="1994.5" y="1148.207">Merge if within TimeStep (180s)</text><line style="stroke:#000000;stroke-width:1.0;" x1="1987.5" x2="2029.5" y1="1290.5317" y2="1290.5317"/><line style="stroke:#000000;stroke-width:1.0;" x1="2029.5" x2="2029.5" y1="1290.5317" y2="1303.5317"/><line style="stroke:#000000;stroke-width:1.0;" x1="1988.5" x2="2029.5" y1="1303.5317" y2="1303.5317"/><polygon fill="#000000" points="1998.5,1299.5317,1988.5,1303.5317,1998.5,1307.5317,1994.5,1303.5317" style="stroke:#000000;stroke-width:1.0;"/><text fill="#000000" font-family="Verdana" font-size="13" lengthAdjust="spacing" textLength="130" x="1994.5" y="1191.0063">For each customer:</text><text fill="#000000" font-family="Verdana" font-size="13" lengthAdjust="spacing" textLength="155" x="1994.5" y="1206.8057">- Calculate Total Stake</text><text fill="#000000" font-family="Verdana" font-size="13" lengthAdjust="spacing" textLength="162" x="1994.5" y="1222.605">- Calculate Odds Spread</text><text fill="#000000" font-family="Verdana" font-size="13" lengthAdjust="spacing" textLength="208" x="2004.5" y="1238.4043">- Same sign: |MAX-MIN| * 100</text><text fill="#000000" font-family="Verdana" font-size="13" lengthAdjust="spacing" textLength="301" x="2004.5" y="1254.2036">- Mixed sign: ((1-MinPos)+(1-MinNeg)) * 100</text><text fill="#000000" font-family="Verdana" font-size="13" lengthAdjust="spacing" textLength="210" x="1994.5" y="1270.0029">- Validate TotalStake &gt;= $1000</text><text fill="#000000" font-family="Verdana" font-size="13" lengthAdjust="spacing" textLength="206" x="1994.5" y="1285.8022">- Validate OddsSpread &gt;= 28%</text><path d="M1476,1318.5317 L1540,1318.5317 L1540,1326.3311 L1530,1336.3311 L1476,1336.3311 L1476,1318.5317 " fill="#FFFFFF" style="stroke:#000000;stroke-width:1.0;"/><rect fill="none" height="108.5659" style="stroke:#000000;stroke-width:1.0;" width="596" x="1476" y="1318.5317"/><text fill="#000000" font-family="Verdana" font-size="13" font-weight="bold" lengthAdjust="spacing" textLength="19" x="1491" y="1332.6016">alt</text><text fill="#000000" font-family="Verdana" font-size="11" font-weight="bold" lengthAdjust="spacing" textLength="136" x="1555" y="1331.5908">[Customer Detected]</text><polygon fill="#000000" points="1606.5,1369.9297,1596.5,1373.9297,1606.5,1377.9297,1602.5,1373.9297" style="stroke:#000000;stroke-width:1.0;"/><line style="stroke:#000000;stroke-width:1.0;stroke-dasharray:2.0,2.0;" x1="1600.5" x2="1976.5" y1="1373.9297" y2="1373.9297"/><text fill="#000000" font-family="Verdana" font-size="13" lengthAdjust="spacing" textLength="179" x="1612.5" y="1353.4009">List of detected customers</text><text fill="#000000" font-family="Verdana" font-size="13" lengthAdjust="spacing" textLength="156" x="1612.5" y="1369.2002">(with irrigation pattern)</text><line style="stroke:#000000;stroke-width:1.0;stroke-dasharray:2.0,2.0;" x1="1476" x2="2072" y1="1382.9297" y2="1382.9297"/><text fill="#000000" font-family="Verdana" font-size="11" font-weight="bold" lengthAdjust="spacing" textLength="96" x="1481" y="1393.9888">[Not Detected]</text><polygon fill="#000000" points="1606.5,1415.0977,1596.5,1419.0977,1606.5,1423.0977,1602.5,1419.0977" style="stroke:#000000;stroke-width:1.0;"/><line style="stroke:#000000;stroke-width:1.0;stroke-dasharray:2.0,2.0;" x1="1600.5" x2="1976.5" y1="1419.0977" y2="1419.0977"/><text fill="#000000" font-family="Verdana" font-size="13" lengthAdjust="spacing" textLength="65" x="1612.5" y="1414.3682">Empty list</text><polygon fill="#000000" points="1215.5,1451.897,1205.5,1455.897,1215.5,1459.897,1211.5,1455.897" style="stroke:#000000;stroke-width:1.0;"/><line style="stroke:#000000;stroke-width:1.0;stroke-dasharray:2.0,2.0;" x1="1209.5" x2="1589.5" y1="1455.897" y2="1455.897"/><text fill="#000000" font-family="Verdana" font-size="13" lengthAdjust="spacing" textLength="246" x="1221.5" y="1451.1675">MatchRuleIrrigationCompletedModel[]</text><path d="M697.5,1470.897 L761.5,1470.897 L761.5,1478.6963 L751.5,1488.6963 L697.5,1488.6963 L697.5,1470.897 " fill="#FFFFFF" style="stroke:#000000;stroke-width:1.0;"/><rect fill="none" height="92.7666" style="stroke:#000000;stroke-width:1.0;" width="605" x="697.5" y="1470.897"/><text fill="#000000" font-family="Verdana" font-size="13" font-weight="bold" lengthAdjust="spacing" textLength="19" x="712.5" y="1484.9668">alt</text><text fill="#000000" font-family="Verdana" font-size="11" font-weight="bold" lengthAdjust="spacing" textLength="171" x="776.5" y="1483.9561">[Has Detected Customers]</text><polygon fill="#000000" points="824.5,1506.4956,814.5,1510.4956,824.5,1514.4956,820.5,1510.4956" style="stroke:#000000;stroke-width:1.0;"/><line style="stroke:#000000;stroke-width:1.0;stroke-dasharray:2.0,2.0;" x1="818.5" x2="1193.5" y1="1510.4956" y2="1510.4956"/><text fill="#000000" font-family="Verdana" font-size="13" lengthAdjust="spacing" textLength="176" x="830.5" y="1505.7661">Detected customer groups</text><line style="stroke:#000000;stroke-width:1.0;stroke-dasharray:2.0,2.0;" x1="697.5" x2="1302.5" y1="1519.4956" y2="1519.4956"/><text fill="#000000" font-family="Verdana" font-size="11" font-weight="bold" lengthAdjust="spacing" textLength="95" x="702.5" y="1530.5547">[No Detection]</text><polygon fill="#000000" points="824.5,1551.6636,814.5,1555.6636,824.5,1559.6636,820.5,1555.6636" style="stroke:#000000;stroke-width:1.0;"/><line style="stroke:#000000;stroke-width:1.0;stroke-dasharray:2.0,2.0;" x1="818.5" x2="1193.5" y1="1555.6636" y2="1555.6636"/><text fill="#000000" font-family="Verdana" font-size="13" lengthAdjust="spacing" textLength="69" x="830.5" y="1550.9341">null/empty</text><line style="stroke:#000000;stroke-width:1.0;stroke-dasharray:2.0,2.0;" x1="651" x2="2327.5" y1="1571.6636" y2="1571.6636"/><text fill="#000000" font-family="Verdana" font-size="11" font-weight="bold" lengthAdjust="spacing" textLength="149" x="656" y="1582.7227">[Match Group 2, 3, 4...]</text><path d="M661,1591.0322 L661,1664.0322 L956,1664.0322 L956,1601.0322 L946,1591.0322 L661,1591.0322 " fill="#FFFFFF" style="stroke:#000000;stroke-width:1.0;"/><path d="M946,1591.0322 L946,1601.0322 L956,1601.0322 L946,1591.0322 " fill="#FFFFFF" style="stroke:#000000;stroke-width:1.0;"/><text fill="#000000" font-family="Verdana" font-size="13" lengthAdjust="spacing" textLength="226" x="667" y="1609.1021">Same flow for other match groups</text><text fill="#000000" font-family="Verdana" font-size="13" lengthAdjust="spacing" textLength="140" x="667" y="1624.9014">(executed in parallel)</text><text fill="#000000" font-family="Verdana" font-size="13" lengthAdjust="spacing" textLength="5" x="667" y="1640.7007">&#160;</text><text fill="#000000" font-family="Verdana" font-size="13" lengthAdjust="spacing" textLength="274" x="667" y="1656.5">NO Association Detection for ANY match!</text><path d="M699,1681.2295 L699,1706.2295 L918,1706.2295 L918,1691.2295 L908,1681.2295 L699,1681.2295 " fill="#FFFFFF" style="stroke:#000000;stroke-width:1.0;"/><path d="M908,1681.2295 L908,1691.2295 L918,1691.2295 L908,1681.2295 " fill="#FFFFFF" style="stroke:#000000;stroke-width:1.0;"/><text fill="#000000" font-family="Verdana" font-size="13" lengthAdjust="spacing" textLength="198" x="705" y="1699.2993">Sleep 50ms between matches</text><rect fill="#FFFFFF" height="3" style="stroke:#FFFFFF;stroke-width:1.0;" width="2646.5" x="5" y="1732.9285"/><line style="stroke:#000000;stroke-width:0.5;" x1="5" x2="2651.5" y1="1732.9285" y2="1732.9285"/><line style="stroke:#000000;stroke-width:0.5;" x1="5" x2="2651.5" y1="1735.9285" y2="1735.9285"/><rect fill="#FFFFFF" height="23.7993" style="stroke:#000000;stroke-width:1.0;" width="209" x="1223.75" y="1722.0288"/><text fill="#000000" font-family="Verdana" font-size="13" font-weight="bold" lengthAdjust="spacing" textLength="191" x="1229.75" y="1739.0986">Phase 3: Complete &amp; Save</text><path d="M697.5,1762.8281 L761.5,1762.8281 L761.5,1770.6274 L751.5,1780.6274 L697.5,1780.6274 L697.5,1762.8281 " fill="#FFFFFF" style="stroke:#000000;stroke-width:1.0;"/><rect fill="none" height="417.3877" style="stroke:#000000;stroke-width:1.0;" width="1944" x="697.5" y="1762.8281"/><text fill="#000000" font-family="Verdana" font-size="13" font-weight="bold" lengthAdjust="spacing" textLength="19" x="712.5" y="1776.8979">alt</text><text fill="#000000" font-family="Verdana" font-size="11" font-weight="bold" lengthAdjust="spacing" textLength="171" x="776.5" y="1775.8872">[Has Detected Customers]</text><polygon fill="#000000" points="1182.5,1814.2261,1192.5,1818.2261,1182.5,1822.2261,1186.5,1818.2261" style="stroke:#000000;stroke-width:1.0;"/><line style="stroke:#000000;stroke-width:1.0;" x1="813.5" x2="1188.5" y1="1818.2261" y2="1818.2261"/><text fill="#000000" font-family="Verdana" font-size="13" lengthAdjust="spacing" textLength="290" x="820.5" y="1797.6973">UpdateMatchMonitorRuleIrrigationComplete(</text><text fill="#000000" font-family="Verdana" font-size="13" lengthAdjust="spacing" textLength="310" x="820.5" y="1813.4966">MatchMonitorRuleIrrigationCompleteParaModel)</text><path d="M1209,1831.2261 L1209,1919.2261 L1561,1919.2261 L1561,1841.2261 L1551,1831.2261 L1209,1831.2261 " fill="#FFFFFF" style="stroke:#000000;stroke-width:1.0;"/><path d="M1551,1831.2261 L1551,1841.2261 L1561,1841.2261 L1551,1831.2261 " fill="#FFFFFF" style="stroke:#000000;stroke-width:1.0;"/><text fill="#000000" font-family="Verdana" font-size="13" lengthAdjust="spacing" textLength="80" x="1215" y="1849.2959">Parameters:</text><text fill="#000000" font-family="Verdana" font-size="13" lengthAdjust="spacing" textLength="100" x="1215" y="1865.0952">- IsLive = false</text><text fill="#000000" font-family="Verdana" font-size="13" lengthAdjust="spacing" textLength="255" x="1215" y="1880.8945">- MatchInfo (Match/Bettype/HDP/etc)</text><text fill="#000000" font-family="Verdana" font-size="13" lengthAdjust="spacing" textLength="331" x="1215" y="1896.6938">- TransGroupJson (serialized detected customers)</text><text fill="#000000" font-family="Verdana" font-size="13" lengthAdjust="spacing" textLength="117" x="1215" y="1912.4932">- MaxSequenceID</text><polygon fill="#000000" points="1573.5,1943.022,1583.5,1947.022,1573.5,1951.022,1577.5,1947.022" style="stroke:#000000;stroke-width:1.0;"/><line style="stroke:#000000;stroke-width:1.0;" x1="1204.5" x2="1579.5" y1="1947.022" y2="1947.022"/><text fill="#000000" font-family="Verdana" font-size="13" lengthAdjust="spacing" textLength="325" x="1211.5" y="1942.2925">UpdateMatchMonitorRuleIrrigationComplete(para)</text><polygon fill="#000000" points="2345.5,1988.6206,2355.5,1992.6206,2345.5,1996.6206,2349.5,1992.6206" style="stroke:#000000;stroke-width:1.0;"/><line style="stroke:#000000;stroke-width:1.0;" x1="1595.5" x2="2351.5" y1="1992.6206" y2="1992.6206"/><text fill="#000000" font-family="Verdana" font-size="13" lengthAdjust="spacing" textLength="351" x="1602.5" y="1972.0918">CALL CTS_DC_MatchMonitor_RuleIrrigation_Complete</text><text fill="#000000" font-family="Verdana" font-size="13" lengthAdjust="spacing" textLength="173" x="1602.5" y="1987.8911">(@ip_TransGroupJson, ...)</text><line style="stroke:#000000;stroke-width:1.0;" x1="2367.5" x2="2409.5" y1="2069.8179" y2="2069.8179"/><line style="stroke:#000000;stroke-width:1.0;" x1="2409.5" x2="2409.5" y1="2069.8179" y2="2082.8179"/><line style="stroke:#000000;stroke-width:1.0;" x1="2368.5" x2="2409.5" y1="2082.8179" y2="2082.8179"/><polygon fill="#000000" points="2378.5,2078.8179,2368.5,2082.8179,2378.5,2086.8179,2374.5,2082.8179" style="stroke:#000000;stroke-width:1.0;"/><text fill="#000000" font-family="Verdana" font-size="13" lengthAdjust="spacing" textLength="145" x="2374.5" y="2017.6904">Parse TransGroupJson</text><text fill="#000000" font-family="Verdana" font-size="13" lengthAdjust="spacing" textLength="208" x="2374.5" y="2033.4897">INSERT INTO CTSMatchMonitor</text><text fill="#000000" font-family="Verdana" font-size="13" lengthAdjust="spacing" textLength="87" x="2374.5" y="2049.2891">(Reason='IR')</text><text fill="#000000" font-family="Verdana" font-size="13" lengthAdjust="spacing" textLength="245" x="2374.5" y="2065.0884">INSERT INTO CTSMatchMonitorDetail</text><polygon fill="#000000" points="1606.5,2108.6172,1596.5,2112.6172,1606.5,2116.6172,1602.5,2112.6172" style="stroke:#000000;stroke-width:1.0;"/><line style="stroke:#000000;stroke-width:1.0;stroke-dasharray:2.0,2.0;" x1="1600.5" x2="2361.5" y1="2112.6172" y2="2112.6172"/><text fill="#000000" font-family="Verdana" font-size="13" lengthAdjust="spacing" textLength="55" x="1612.5" y="2107.8877">Success</text><polygon fill="#000000" points="1215.5,2138.4165,1205.5,2142.4165,1215.5,2146.4165,1211.5,2142.4165" style="stroke:#000000;stroke-width:1.0;"/><line style="stroke:#000000;stroke-width:1.0;stroke-dasharray:2.0,2.0;" x1="1209.5" x2="1589.5" y1="2142.4165" y2="2142.4165"/><text fill="#000000" font-family="Verdana" font-size="13" lengthAdjust="spacing" textLength="33" x="1221.5" y="2137.687">Done</text><polygon fill="#000000" points="824.5,2168.2158,814.5,2172.2158,824.5,2176.2158,820.5,2172.2158" style="stroke:#000000;stroke-width:1.0;"/><line style="stroke:#000000;stroke-width:1.0;stroke-dasharray:2.0,2.0;" x1="818.5" x2="1198.5" y1="2172.2158" y2="2172.2158"/><text fill="#000000" font-family="Verdana" font-size="13" lengthAdjust="spacing" textLength="33" x="830.5" y="2167.4863">Done</text><rect fill="#FFFFFF" height="3" style="stroke:#FFFFFF;stroke-width:1.0;" width="2646.5" x="5" y="2208.1155"/><line style="stroke:#000000;stroke-width:0.5;" x1="5" x2="2651.5" y1="2208.1155" y2="2208.1155"/><line style="stroke:#000000;stroke-width:0.5;" x1="5" x2="2651.5" y1="2211.1155" y2="2211.1155"/><rect fill="#FFFFFF" height="23.7993" style="stroke:#000000;stroke-width:1.0;" width="184" x="1236.25" y="2197.2158"/><text fill="#000000" font-family="Verdana" font-size="13" font-weight="bold" lengthAdjust="spacing" textLength="166" x="1242.25" y="2214.2856">Phase 4: Clean Staging</text><polygon fill="#000000" points="1182.5,2248.8145,1192.5,2252.8145,1182.5,2256.8145,1186.5,2252.8145" style="stroke:#000000;stroke-width:1.0;"/><line style="stroke:#000000;stroke-width:1.0;" x1="813.5" x2="1188.5" y1="2252.8145" y2="2252.8145"/><text fill="#000000" font-family="Verdana" font-size="13" lengthAdjust="spacing" textLength="362" x="820.5" y="2248.085">CleanTransRuleIrrigation(isLive=false, maxSequenceID)</text><polygon fill="#000000" points="1573.5,2278.6138,1583.5,2282.6138,1573.5,2286.6138,1577.5,2282.6138" style="stroke:#000000;stroke-width:1.0;"/><line style="stroke:#000000;stroke-width:1.0;" x1="1204.5" x2="1579.5" y1="2282.6138" y2="2282.6138"/><text fill="#000000" font-family="Verdana" font-size="13" lengthAdjust="spacing" textLength="362" x="1211.5" y="2277.8843">CleanTransRuleIrrigation(isLive=false, maxSequenceID)</text><polygon fill="#000000" points="1965.5,2324.2124,1975.5,2328.2124,1965.5,2332.2124,1969.5,2328.2124" style="stroke:#000000;stroke-width:1.0;"/><line style="stroke:#000000;stroke-width:1.0;" x1="1595.5" x2="1971.5" y1="2328.2124" y2="2328.2124"/><text fill="#000000" font-family="Verdana" font-size="13" lengthAdjust="spacing" textLength="363" x="1602.5" y="2307.6836">CALL CTS_DC_MatchMonitor_RuleIrrigation_TransClean</text><text fill="#000000" font-family="Verdana" font-size="13" lengthAdjust="spacing" textLength="149" x="1602.5" y="2323.4829">(@ip_MaxSequenceID)</text><line style="stroke:#000000;stroke-width:1.0;" x1="1987.5" x2="2029.5" y1="2373.811" y2="2373.811"/><line style="stroke:#000000;stroke-width:1.0;" x1="2029.5" x2="2029.5" y1="2373.811" y2="2386.811"/><line style="stroke:#000000;stroke-width:1.0;" x1="1988.5" x2="2029.5" y1="2386.811" y2="2386.811"/><polygon fill="#000000" points="1998.5,2382.811,1988.5,2386.811,1998.5,2390.811,1994.5,2386.811" style="stroke:#000000;stroke-width:1.0;"/><text fill="#000000" font-family="Verdana" font-size="13" lengthAdjust="spacing" textLength="346" x="1994.5" y="2353.2822">DELETE FROM MatchMonitorStagingIrrigationNonLive</text><text fill="#000000" font-family="Verdana" font-size="13" lengthAdjust="spacing" textLength="263" x="1994.5" y="2369.0815">WHERE SequenceID &lt;= MaxSequenceID</text><polygon fill="#000000" points="1606.5,2412.6104,1596.5,2416.6104,1606.5,2420.6104,1602.5,2416.6104" style="stroke:#000000;stroke-width:1.0;"/><line style="stroke:#000000;stroke-width:1.0;stroke-dasharray:2.0,2.0;" x1="1600.5" x2="1981.5" y1="2416.6104" y2="2416.6104"/><text fill="#000000" font-family="Verdana" font-size="13" lengthAdjust="spacing" textLength="55" x="1612.5" y="2411.8809">Success</text><polygon fill="#000000" points="1215.5,2442.4097,1205.5,2446.4097,1215.5,2450.4097,1211.5,2446.4097" style="stroke:#000000;stroke-width:1.0;"/><line style="stroke:#000000;stroke-width:1.0;stroke-dasharray:2.0,2.0;" x1="1209.5" x2="1589.5" y1="2446.4097" y2="2446.4097"/><text fill="#000000" font-family="Verdana" font-size="13" lengthAdjust="spacing" textLength="33" x="1221.5" y="2441.6802">Done</text><polygon fill="#000000" points="824.5,2472.209,814.5,2476.209,824.5,2480.209,820.5,2476.209" style="stroke:#000000;stroke-width:1.0;"/><line style="stroke:#000000;stroke-width:1.0;stroke-dasharray:2.0,2.0;" x1="818.5" x2="1198.5" y1="2476.209" y2="2476.209"/><text fill="#000000" font-family="Verdana" font-size="13" lengthAdjust="spacing" textLength="33" x="830.5" y="2471.4795">Done</text><rect fill="#FFFFFF" height="3" style="stroke:#FFFFFF;stroke-width:1.0;" width="2646.5" x="5" y="2505.1086"/><line style="stroke:#000000;stroke-width:0.5;" x1="5" x2="2651.5" y1="2505.1086" y2="2505.1086"/><line style="stroke:#000000;stroke-width:0.5;" x1="5" x2="2651.5" y1="2508.1086" y2="2508.1086"/><rect fill="#FFFFFF" height="23.7993" style="stroke:#000000;stroke-width:1.0;" width="115" x="1270.75" y="2494.209"/><text fill="#000000" font-family="Verdana" font-size="13" font-weight="bold" lengthAdjust="spacing" textLength="97" x="1276.75" y="2511.2788">Return Result</text><polygon fill="#000000" points="434.5,2545.8076,424.5,2549.8076,434.5,2553.8076,430.5,2549.8076" style="stroke:#000000;stroke-width:1.0;"/><line style="stroke:#000000;stroke-width:1.0;stroke-dasharray:2.0,2.0;" x1="428.5" x2="807.5" y1="2549.8076" y2="2549.8076"/><text fill="#000000" font-family="Verdana" font-size="13" lengthAdjust="spacing" textLength="27" x="440.5" y="2545.0781">true</text><polygon fill="#000000" points="80.5,2575.6069,70.5,2579.6069,80.5,2583.6069,76.5,2579.6069" style="stroke:#000000;stroke-width:1.0;"/><line style="stroke:#000000;stroke-width:1.0;stroke-dasharray:2.0,2.0;" x1="74.5" x2="417.5" y1="2579.6069" y2="2579.6069"/><text fill="#000000" font-family="Verdana" font-size="13" lengthAdjust="spacing" textLength="87" x="86.5" y="2574.8774">HTTP 200 OK</text><path d="M74,2592.6069 L74,2759.6069 L422,2759.6069 L422,2602.6069 L412,2592.6069 L74,2592.6069 " fill="#FFFFFF" style="stroke:#000000;stroke-width:1.0;"/><path d="M412,2592.6069 L412,2602.6069 L422,2602.6069 L412,2592.6069 " fill="#FFFFFF" style="stroke:#000000;stroke-width:1.0;"/><text fill="#000000" font-family="Verdana" font-size="13" font-weight="bold" lengthAdjust="spacing" textLength="84" x="80" y="2610.6768">Next Steps:</text><text fill="#000000" font-family="Verdana" font-size="13" lengthAdjust="spacing" textLength="326" x="80" y="2626.4761">1. Classification jobs read from CTSMatchMonitor</text><text fill="#000000" font-family="Verdana" font-size="13" lengthAdjust="spacing" textLength="97" x="95" y="2642.2754">(Reason = 'IR')</text><text fill="#000000" font-family="Verdana" font-size="13" lengthAdjust="spacing" textLength="327" x="80" y="2658.0747">2. Customers with irrigation pattern are classified</text><text fill="#000000" font-family="Verdana" font-size="13" lengthAdjust="spacing" textLength="251" x="80" y="2673.874">3. Website displays irrigation matches</text><text fill="#000000" font-family="Verdana" font-size="13" lengthAdjust="spacing" textLength="5" x="80" y="2689.6733">&#160;</text><text fill="#000000" font-family="Verdana" font-size="13" font-weight="bold" lengthAdjust="spacing" textLength="110" x="80" y="2705.4727">Key Difference:</text><text fill="#000000" font-family="Verdana" font-size="13" lengthAdjust="spacing" textLength="302" x="80" y="2721.272">- NO Association Detection anywhere in flow!</text><text fill="#000000" font-family="Verdana" font-size="13" lengthAdjust="spacing" textLength="229" x="80" y="2737.0713">- Only individual customer analysis</text><text fill="#000000" font-family="Verdana" font-size="13" lengthAdjust="spacing" textLength="280" x="80" y="2752.8706">- Simplest detection rule in Match Monitor</text><!--SRC=[jLXjSzf64FwkNx7nj0quO6F7wMIOaeaD92RXhK2QPah7SvOMV8qugJfXcqv-V7TF4ZfXWnEdpMGIfDlTPszVdhtJa_WA5mYXBwHoOXdx23qHkrVG2vICWmYgq8aYEHUn31IqC4RN_Ah26FzUed8HMbBC8x5m7E6omjwPS3_Fes2fF7WNN4vLQUnUeRVqCIhlWT3yqWb554jNXaB5i6S0KxnceE8ey4cO54-7dKGbVxjTayoECRgMBZ9ayciDc3vlrqu5DEcUBRLKg3LqWxbq4nEzNYQmtKHBnEBK9H4smW-GF2KMybN7ev-NGYFiDITZwAt6ltRPvLZCfPfJP8T1uCDnhVPpefakR54hPciYBdrC4KcgTUOuZGPG7A4fV1yQ3SUXQ43rbHLIgCDmC9x0eRsPOHImhoDAMvx_Vg2wyfhZgvQBIum6iybLXC9hd9Gv-V9Qn6Zdoh5023BF0qFU1r2IcW4QC-5hhC0E52kdlCFX5GVcg0vlCSu2bXGowcpN6JPvagSJZ8gzynqUMVXMGJYMDRAT9_gnjgrISInhP3lRMHsQfzqkP_YYrRom4IwA41Va0ANhjGml6AgZFEaA4clKAl0w24drDklZJijo8QivPrsLDlYutMqt9p2BWWKKcYYHkATWFfwtHst8eU0LT8MEnwvG2hty_LIz7Gq-3E7iKsAuqwh0s0qYRCdPh09d6CUhaEGgKmNP7th9OkUjOIA0OZ5LtKwlCu4NjLhDsiDcTWn4kjgLEeOIyrQ8NXcUGI4qZeTtOsFdPhEejcUz5tZePurhWLTW8naMf5qHThLjDjK3gBP9ku3N3NIyxaje2wOLGowbeOY8FT0lcrPI0Qa7rzJJLXF2Mf5vPc7qJ30rI0LXQe34IYSGctRMSBa23sTYwSTbMg2_xzkVwj0VmAdMWIitHiuJ1scYCBZ379pwzfOnu8YKTtHuHscCTZNYL1M8PweMTYhCCnUZcWL7xEfzGJGRsC44_viFLcqO7xwNCT8yfgoHTU5KyLFUYicptO_fy_etzsCkHKrPy3fh8kFolIJ3JCwrHCFsCyOQPZJUJ0WiZcWkDG52AQHYTEbtiA13nbJHh7ENFiCCV2yf4GqblAKkOzkX87yYfGkIVRnPIxhBA48QxvSCHr8zZEO8SWOtChwYSfx81OvZ3A5qzBAcopisyOQSHkwapBlwL5KXHvq4iV1P_ZCM5mOUDSWuv4PXggFZbg1ZcfPpLOSllTFVgxrE_mlimr6jbgptv2rwgK2fT5JjIJKCTFbPyhEFyt8v4w_2RyANtXhVmCEh1ln0oyLrTYFnWjUFN_wOx5NuiOazxoZjKFGS9kEjN6luDPXHnoVIwuXmfN5SGURdp3H375caPe1-47ybJ7iHnYlm2Onr5KlVGzrt6kLU-YusHZDOX3xvu1ag_UFFekNDBkG8dVEnBzjk5Yvj_Dz5ugtD2AL4cWSZ9yK7ZQcbxnyY1-M-U1JvorYtQVMu0iyhS79mS43BMsWVaigS-S6DQT60BXHHOG0O8Ue-T9UyAsiSbCsI-MSRwnkRf_rFYSKdoIQIAS2xsJQCnZvIUxweBMZAO7o3g183jD5yYgp7tdDYnpIxy1FjvnhDeDkPmntZvaF8lRETwZCielo7XNZscehRENXC64ZrolHOOPKcCvbOaAb8ryqpNUdCf846c5cJlknbymMIiybXokw7nEI76BlbL6uI2QLDWRpJbA0IpJL9VF4F1UXkSvVNnktJb9N5X-RcLmUJY-eR1gEv7Nt3MCnmqhbO3485g4SAuCdbo-0cI1OavOEAhcXXgZhzSNiqWKv_Cc19snV27A4WgSRJpkXfUQSi5QkGVW5vCwJZPHOLYmeiXtSHOojGk9lvTbBR7MshL4q_htloX5BZer1hgd_W5cU4JKntNYaNMouyNtcV-qwK__9cPxmm_goFQe-voxNeBZTfmvlHeFVOkzmlZOtstdxZoahlMwzJfd0USI7QrDkuzOmmNaQA_jDq2RbJOPjVIU9eMJ1cVuEmltGaJf32-MGov0yvC7XlwzbVI8h4pP_60FRt-tZBdp4mrFNzVNfpT42L9xIMCxw-yrZyAxZKOCvbvXQ-GGA6T24b3Q9vGnlqylWWds6mvT058a9mKpHpt7f-01_nKalor9CwzCLAsthPO3NTlx__7bV0LmICk1eI_wlRvxjGgniwCI2V2_WGySI83vI_eZUUl9RUaax8wwEGKC9VQQcDr5Wo9zEvqbkRYwX9s5JXirW-y_y5]--></g></svg>