<svg xmlns="http://www.w3.org/2000/svg" xmlns:xlink="http://www.w3.org/1999/xlink" contentStyleType="text/css" height="1703px" preserveAspectRatio="none" style="width:1316px;height:1703px;background:#FFFFFF;" version="1.1" viewBox="0 0 1316 1703" width="1316px" zoomAndPan="magnify"><defs/><g><text fill="#000000" font-family="Verdana" font-size="22" font-weight="bold" lengthAdjust="spacing" textLength="600" x="356.75" y="37.1182">Hedging Detection - IsHedging Flag Check Logic</text><ellipse cx="450" cy="62.7373" fill="#FFFFFF" rx="10" ry="10" style="stroke:#000000;stroke-width:1.0;"/><rect fill="#FFFFFF" height="49.168" rx="12.5" ry="12.5" style="stroke:#000000;stroke-width:1.0;" width="206" x="347" y="92.7373"/><text fill="#000000" font-family="Verdana" font-size="12" lengthAdjust="spacing" textLength="186" x="357" y="114.8018">Group detected in Process SP</text><text fill="#000000" font-family="Verdana" font-size="12" lengthAdjust="spacing" textLength="135" x="357" y="129.3857">(GroupID, CustIDList)</text><path d="M573,158.3979 L573,175.1973 L553,179.1973 L573,183.1973 L573,199.9966 A0,0 0 0 0 573,199.9966 L788,199.9966 A0,0 0 0 0 788,199.9966 L788,168.3979 L778,158.3979 L573,158.3979 A0,0 0 0 0 573,158.3979 " fill="#FFFFFF" style="stroke:#000000;stroke-width:1.0;"/><path d="M778,158.3979 L778,168.3979 L788,168.3979 L778,158.3979 " fill="#FFFFFF" style="stroke:#000000;stroke-width:1.0;"/><text fill="#000000" font-family="Verdana" font-size="13" font-weight="bold" lengthAdjust="spacing" textLength="68" x="579" y="176.4678">Example:</text><text fill="#000000" font-family="Verdana" font-size="13" lengthAdjust="spacing" textLength="194" x="579" y="192.2671">CustIDList: "5001,5002,5003"</text><rect fill="#FFFFFF" height="34.584" rx="12.5" ry="12.5" style="stroke:#000000;stroke-width:1.0;" width="206" x="347" y="161.9053"/><text fill="#000000" font-family="Verdana" font-size="12" lengthAdjust="spacing" textLength="186" x="357" y="183.9697">Extract CustIDList from group</text><rect fill="#FFFFFF" height="34.584" rx="12.5" ry="12.5" style="stroke:#000000;stroke-width:1.0;" width="264" x="318" y="219.9966"/><text fill="#000000" font-family="Verdana" font-size="12" lengthAdjust="spacing" textLength="244" x="328" y="242.061">Parse CustIDList into Temp_Cust table</text><rect fill="#FFFFFF" height="866.3774" style="stroke:#000000;stroke-width:1.0;" width="1290" x="20.5" y="264.5806"/><path d="M263.5,264.5806 L263.5,274.5952 L253.5,284.5952 L20.5,284.5952 " fill="none" style="stroke:#000000;stroke-width:1.0;"/><text fill="#000000" font-family="Verdana" font-size="14" font-weight="bold" lengthAdjust="spacing" textLength="233" x="23.5" y="279.6558">Customer Classification Check</text><path d="M583.5,294.5952 L583.5,398.2908 L563.5,402.2908 L583.5,406.2908 L583.5,509.9863 A0,0 0 0 0 583.5,509.9863 L929.5,509.9863 A0,0 0 0 0 929.5,509.9863 L929.5,304.5952 L919.5,294.5952 L583.5,294.5952 A0,0 0 0 0 583.5,294.5952 " fill="#FFFFFF" style="stroke:#000000;stroke-width:1.0;"/><path d="M919.5,294.5952 L919.5,304.5952 L929.5,304.5952 L919.5,294.5952 " fill="#FFFFFF" style="stroke:#000000;stroke-width:1.0;"/><text fill="#000000" font-family="Verdana" font-size="13" font-weight="bold" lengthAdjust="spacing" textLength="91" x="589.5" y="312.665">Query Logic:</text><text fill="#000000" font-family="Verdana" font-size="13" lengthAdjust="spacing" textLength="42" x="589.5" y="328.4644">```sql</text><text fill="#000000" font-family="Verdana" font-size="13" lengthAdjust="spacing" textLength="250" x="589.5" y="344.2637">SELECT CustID, CategoryID, ParentID</text><text fill="#000000" font-family="Verdana" font-size="13" lengthAdjust="spacing" textLength="116" x="589.5" y="360.063">FROM Temp_Cust</text><text fill="#000000" font-family="Verdana" font-size="13" lengthAdjust="spacing" textLength="254" x="589.5" y="375.8623">INNER JOIN CTSCustomerClassification</text><text fill="#000000" font-family="Verdana" font-size="13" lengthAdjust="spacing" textLength="201" x="589.5" y="391.6616">INNER JOIN CustomerCategory</text><text fill="#000000" font-family="Verdana" font-size="13" lengthAdjust="spacing" textLength="325" x="589.5" y="407.4609">WHERE ParentID &lt;&gt; CONST_PARENTID_WRAPPER</text><text fill="#000000" font-family="Verdana" font-size="13" lengthAdjust="spacing" textLength="249" x="589.5" y="423.2603">ORDER BY CustomerClassPriority ASC,</text><text fill="#000000" font-family="Verdana" font-size="13" lengthAdjust="spacing" textLength="153" x="634.5" y="439.0596">LastModifiedDate DESC</text><text fill="#000000" font-family="Verdana" font-size="13" lengthAdjust="spacing" textLength="50" x="589.5" y="454.8589">LIMIT 1</text><text fill="#000000" font-family="Verdana" font-size="13" lengthAdjust="spacing" textLength="24" x="589.5" y="470.6582">```</text><text fill="#000000" font-family="Verdana" font-size="13" lengthAdjust="spacing" textLength="5" x="589.5" y="486.4575">&#160;</text><text fill="#000000" font-family="Verdana" font-size="13" font-weight="bold" lengthAdjust="spacing" textLength="260" x="589.5" y="502.2568">Get highest priority, latest category</text><rect fill="#FFFFFF" height="49.168" rx="12.5" ry="12.5" style="stroke:#000000;stroke-width:1.0;" width="227" x="336.5" y="377.7068"/><text fill="#000000" font-family="Verdana" font-size="12" lengthAdjust="spacing" textLength="207" x="346.5" y="399.7712">Get latest customer classification</text><text fill="#000000" font-family="Verdana" font-size="12" lengthAdjust="spacing" textLength="113" x="346.5" y="414.3552">for each customer</text><path d="M588.5,519.9863 L588.5,576.2839 L568.5,580.2839 L588.5,584.2839 L588.5,640.5815 A0,0 0 0 0 588.5,640.5815 L870.5,640.5815 A0,0 0 0 0 870.5,640.5815 L870.5,529.9863 L860.5,519.9863 L588.5,519.9863 A0,0 0 0 0 588.5,519.9863 " fill="#FFFFFF" style="stroke:#000000;stroke-width:1.0;"/><path d="M860.5,519.9863 L860.5,529.9863 L870.5,529.9863 L860.5,519.9863 " fill="#FFFFFF" style="stroke:#000000;stroke-width:1.0;"/><text fill="#000000" font-family="Verdana" font-size="13" font-weight="bold" lengthAdjust="spacing" textLength="82" x="594.5" y="538.0562">Conditions:</text><text fill="#000000" font-family="Verdana" font-size="13" lengthAdjust="spacing" textLength="238" x="594.5" y="553.8555">1. ParentID = CONST_PARENTID_PA</text><text fill="#000000" font-family="Verdana" font-size="13" lengthAdjust="spacing" textLength="171" x="609.5" y="569.6548">(Problem Account parent)</text><text fill="#000000" font-family="Verdana" font-size="13" lengthAdjust="spacing" textLength="261" x="594.5" y="585.4541">2. ParentID &lt;&gt; CONST_PARENTID_VVIP</text><text fill="#000000" font-family="Verdana" font-size="13" lengthAdjust="spacing" textLength="71" x="609.5" y="601.2534">(Not VVIP)</text><text fill="#000000" font-family="Verdana" font-size="13" lengthAdjust="spacing" textLength="178" x="594.5" y="617.0527">3. IsHedgingReasonMM = 1</text><text fill="#000000" font-family="Verdana" font-size="13" lengthAdjust="spacing" textLength="210" x="609.5" y="632.8521">(Flagged for hedging detection)</text><rect fill="#FFFFFF" height="49.168" rx="12.5" ry="12.5" style="stroke:#000000;stroke-width:1.0;" width="237" x="331.5" y="555.7"/><text fill="#000000" font-family="Verdana" font-size="12" lengthAdjust="spacing" textLength="217" x="341.5" y="577.7644">Check if customer has PA category</text><text fill="#000000" font-family="Verdana" font-size="12" lengthAdjust="spacing" textLength="187" x="341.5" y="592.3484">with IsHedgingReasonMM = 1</text><polygon fill="#FFFFFF" points="323,660.5815,577,660.5815,589,672.5815,577,684.5815,323,684.5815,311,672.5815,323,660.5815" style="stroke:#000000;stroke-width:1.0;"/><text fill="#000000" font-family="Verdana" font-size="11" lengthAdjust="spacing" textLength="254" x="323" y="676.9563">Any customer has IsHedgingReasonMM = 1?</text><text fill="#000000" font-family="Verdana" font-size="11" lengthAdjust="spacing" textLength="20" x="291" y="670.272">yes</text><text fill="#000000" font-family="Verdana" font-size="11" lengthAdjust="spacing" textLength="14" x="589" y="670.272">no</text><path d="M229.5,694.5815 L229.5,719.2805 L209.5,723.2805 L229.5,727.2805 L229.5,751.9795 A0,0 0 0 0 229.5,751.9795 L418.5,751.9795 A0,0 0 0 0 418.5,751.9795 L418.5,704.5815 L408.5,694.5815 L229.5,694.5815 A0,0 0 0 0 229.5,694.5815 " fill="#FFFFFF" style="stroke:#000000;stroke-width:1.0;"/><path d="M408.5,694.5815 L408.5,704.5815 L418.5,704.5815 L408.5,694.5815 " fill="#FFFFFF" style="stroke:#000000;stroke-width:1.0;"/><text fill="#000000" font-family="Verdana" font-size="13" font-weight="bold" lengthAdjust="spacing" textLength="74" x="235.5" y="712.6514">Fast Path:</text><text fill="#000000" font-family="Verdana" font-size="13" lengthAdjust="spacing" textLength="168" x="235.5" y="728.4507">Customer already flagged</text><text fill="#000000" font-family="Verdana" font-size="13" lengthAdjust="spacing" textLength="154" x="235.5" y="744.25">for hedging in category</text><rect fill="#FFFFFF" height="34.584" rx="12.5" ry="12.5" style="stroke:#000000;stroke-width:1.0;" width="158" x="51.5" y="705.9885"/><text fill="#000000" font-family="Verdana" font-size="12" lengthAdjust="spacing" textLength="138" x="61.5" y="728.053">Set IsHedging = TRUE</text><rect fill="#FFFFFF" height="49.168" rx="12.5" ry="12.5" style="stroke:#000000;stroke-width:1.0;" width="180" x="40.5" y="786.9795"/><text fill="#000000" font-family="Verdana" font-size="12" lengthAdjust="spacing" textLength="160" x="50.5" y="809.0439">Update Temp_Completed</text><text fill="#000000" font-family="Verdana" font-size="12" lengthAdjust="spacing" textLength="140" x="50.5" y="823.6279">SET IsHedging = TRUE</text><rect fill="#FFFFFF" height="394.3765" style="stroke:#000000;stroke-width:1.0;" width="860" x="438.5" y="694.5815"/><path d="M671.5,694.5815 L671.5,704.5962 L661.5,714.5962 L438.5,714.5962 " fill="none" style="stroke:#000000;stroke-width:1.0;"/><text fill="#000000" font-family="Verdana" font-size="14" font-weight="bold" lengthAdjust="spacing" textLength="223" x="441.5" y="709.6567">Additional Association Check</text><path d="M988.5,731.5962 L988.5,772.0945 L968.5,776.0945 L988.5,780.0945 L988.5,820.5928 A0,0 0 0 0 988.5,820.5928 L1260.5,820.5928 A0,0 0 0 0 1260.5,820.5928 L1260.5,741.5962 L1250.5,731.5962 L988.5,731.5962 A0,0 0 0 0 988.5,731.5962 " fill="#FFFFFF" style="stroke:#000000;stroke-width:1.0;"/><path d="M1250.5,731.5962 L1250.5,741.5962 L1260.5,741.5962 L1250.5,731.5962 " fill="#FFFFFF" style="stroke:#000000;stroke-width:1.0;"/><text fill="#000000" font-family="Verdana" font-size="13" font-weight="bold" lengthAdjust="spacing" textLength="126" x="994.5" y="749.666">This SP performs:</text><text fill="#000000" font-family="Verdana" font-size="13" lengthAdjust="spacing" textLength="226" x="994.5" y="765.4653">- Historical hedging pattern check</text><text fill="#000000" font-family="Verdana" font-size="13" lengthAdjust="spacing" textLength="251" x="994.5" y="781.2646">- Cross-customer hedging association</text><text fill="#000000" font-family="Verdana" font-size="13" lengthAdjust="spacing" textLength="216" x="994.5" y="797.064">- Time-based hedging frequency</text><text fill="#000000" font-family="Verdana" font-size="13" lengthAdjust="spacing" textLength="225" x="994.5" y="812.8633">- Multiple match hedging patterns</text><rect fill="#FFFFFF" height="63.752" rx="12.5" ry="12.5" style="stroke:#000000;stroke-width:1.0;" width="398" x="570.5" y="744.2185"/><text fill="#000000" font-family="Verdana" font-size="12" lengthAdjust="spacing" textLength="48" x="580.5" y="766.283">Call SP:</text><text fill="#000000" font-family="Verdana" font-size="12" lengthAdjust="spacing" textLength="378" x="580.5" y="780.8669">CTS_DC_Association_IsAssociatedHedgingCustByCustIDList</text><text fill="#000000" font-family="Verdana" font-size="12" lengthAdjust="spacing" textLength="202" x="580.5" y="795.4509">(ip_CustIDList, @op_IsHedging)</text><polygon fill="#FFFFFF" points="682.5,855.5928,856.5,855.5928,868.5,867.5928,856.5,879.5928,682.5,879.5928,670.5,867.5928,682.5,855.5928" style="stroke:#000000;stroke-width:1.0;"/><text fill="#000000" font-family="Verdana" font-size="11" lengthAdjust="spacing" textLength="174" x="682.5" y="871.9675">SP returns IsHedging = TRUE?</text><text fill="#000000" font-family="Verdana" font-size="11" lengthAdjust="spacing" textLength="20" x="650.5" y="865.2832">yes</text><text fill="#000000" font-family="Verdana" font-size="11" lengthAdjust="spacing" textLength="14" x="868.5" y="865.2832">no</text><path d="M647.5,889.5928 L647.5,914.2917 L627.5,918.2917 L647.5,922.2917 L647.5,946.9907 A0,0 0 0 0 647.5,946.9907 L880.5,946.9907 A0,0 0 0 0 880.5,946.9907 L880.5,899.5928 L870.5,889.5928 L647.5,889.5928 A0,0 0 0 0 647.5,889.5928 " fill="#FFFFFF" style="stroke:#000000;stroke-width:1.0;"/><path d="M870.5,889.5928 L870.5,899.5928 L880.5,899.5928 L870.5,889.5928 " fill="#FFFFFF" style="stroke:#000000;stroke-width:1.0;"/><text fill="#000000" font-family="Verdana" font-size="13" font-weight="bold" lengthAdjust="spacing" textLength="184" x="653.5" y="907.6626">Detected via association:</text><text fill="#000000" font-family="Verdana" font-size="13" lengthAdjust="spacing" textLength="212" x="653.5" y="923.4619">Customers have hedging history</text><text fill="#000000" font-family="Verdana" font-size="13" lengthAdjust="spacing" textLength="136" x="653.5" y="939.2612">or patterns together</text><rect fill="#FFFFFF" height="34.584" rx="12.5" ry="12.5" style="stroke:#000000;stroke-width:1.0;" width="158" x="469.5" y="900.9998"/><text fill="#000000" font-family="Verdana" font-size="12" lengthAdjust="spacing" textLength="138" x="479.5" y="923.0642">Set IsHedging = TRUE</text><rect fill="#FFFFFF" height="49.168" rx="12.5" ry="12.5" style="stroke:#000000;stroke-width:1.0;" width="180" x="458.5" y="981.9907"/><text fill="#000000" font-family="Verdana" font-size="12" lengthAdjust="spacing" textLength="160" x="468.5" y="1004.0552">Update Temp_Completed</text><text fill="#000000" font-family="Verdana" font-size="12" lengthAdjust="spacing" textLength="140" x="468.5" y="1018.6392">SET IsHedging = TRUE</text><path d="M1092.5,889.5928 L1092.5,922.1914 L1072.5,926.1914 L1092.5,930.1914 L1092.5,962.79 A0,0 0 0 0 1092.5,962.79 L1286.5,962.79 A0,0 0 0 0 1286.5,962.79 L1286.5,899.5928 L1276.5,889.5928 L1092.5,889.5928 A0,0 0 0 0 1092.5,889.5928 " fill="#FFFFFF" style="stroke:#000000;stroke-width:1.0;"/><path d="M1276.5,889.5928 L1276.5,899.5928 L1286.5,899.5928 L1276.5,889.5928 " fill="#FFFFFF" style="stroke:#000000;stroke-width:1.0;"/><text fill="#000000" font-family="Verdana" font-size="13" font-weight="bold" lengthAdjust="spacing" textLength="94" x="1098.5" y="907.6626">Not Hedging:</text><text fill="#000000" font-family="Verdana" font-size="13" lengthAdjust="spacing" textLength="122" x="1098.5" y="923.4619">- No category flag</text><text fill="#000000" font-family="Verdana" font-size="13" lengthAdjust="spacing" textLength="173" x="1098.5" y="939.2612">- No association detected</text><text fill="#000000" font-family="Verdana" font-size="13" lengthAdjust="spacing" textLength="164" x="1098.5" y="955.0605">- Group is not suspicious</text><rect fill="#FFFFFF" height="34.584" rx="12.5" ry="12.5" style="stroke:#000000;stroke-width:1.0;" width="164" x="908.5" y="908.8994"/><text fill="#000000" font-family="Verdana" font-size="12" lengthAdjust="spacing" textLength="144" x="918.5" y="930.9639">Set IsHedging = FALSE</text><rect fill="#FFFFFF" height="49.168" rx="12.5" ry="12.5" style="stroke:#000000;stroke-width:1.0;" width="180" x="900.5" y="997.79"/><text fill="#000000" font-family="Verdana" font-size="12" lengthAdjust="spacing" textLength="160" x="910.5" y="1019.8545">Update Temp_Completed</text><text fill="#000000" font-family="Verdana" font-size="12" lengthAdjust="spacing" textLength="146" x="910.5" y="1034.4385">SET IsHedging = FALSE</text><polygon fill="#FFFFFF" points="769.5,1052.958,781.5,1064.958,769.5,1076.958,757.5,1064.958,769.5,1052.958" style="stroke:#000000;stroke-width:1.0;"/><polygon fill="#FFFFFF" points="450,1094.958,462,1106.958,450,1118.958,438,1106.958,450,1094.958" style="stroke:#000000;stroke-width:1.0;"/><rect fill="#FFFFFF" height="34.584" rx="12.5" ry="12.5" style="stroke:#000000;stroke-width:1.0;" width="219" x="340.5" y="1150.958"/><text fill="#000000" font-family="Verdana" font-size="12" lengthAdjust="spacing" textLength="199" x="350.5" y="1173.0225">Return IsHedging flag for group</text><polygon fill="#FFFFFF" points="395,1205.542,505,1205.542,517,1217.542,505,1229.542,395,1229.542,383,1217.542,395,1205.542" style="stroke:#000000;stroke-width:1.0;"/><text fill="#000000" font-family="Verdana" font-size="11" lengthAdjust="spacing" textLength="110" x="395" y="1221.9167">IsHedging = TRUE?</text><text fill="#000000" font-family="Verdana" font-size="11" lengthAdjust="spacing" textLength="20" x="363" y="1215.2324">yes</text><text fill="#000000" font-family="Verdana" font-size="11" lengthAdjust="spacing" textLength="14" x="517" y="1215.2324">no</text><rect fill="#FFFFFF" height="49.168" rx="12.5" ry="12.5" style="stroke:#000000;stroke-width:1.0;" width="189" x="239.5" y="1239.542"/><text fill="#000000" font-family="Verdana" font-size="12" lengthAdjust="spacing" textLength="169" x="249.5" y="1261.6064">Group marked as complete</text><text fill="#000000" font-family="Verdana" font-size="12" lengthAdjust="spacing" textLength="97" x="249.5" y="1276.1904">(ready to save)</text><rect fill="#FFFFFF" height="49.168" rx="12.5" ry="12.5" style="stroke:#000000;stroke-width:1.0;" width="248" x="210" y="1308.71"/><text fill="#000000" font-family="Verdana" font-size="12" lengthAdjust="spacing" textLength="126" x="220" y="1330.7744">Will be inserted into</text><text fill="#000000" font-family="Verdana" font-size="12" lengthAdjust="spacing" textLength="228" x="220" y="1345.3584">MatchMonitor &amp; MatchMonitorDetails</text><rect fill="#FFFFFF" height="49.168" rx="12.5" ry="12.5" style="stroke:#000000;stroke-width:1.0;" width="131" x="500.5" y="1239.542"/><text fill="#000000" font-family="Verdana" font-size="12" lengthAdjust="spacing" textLength="111" x="510.5" y="1261.6064">Group filtered out</text><text fill="#000000" font-family="Verdana" font-size="12" lengthAdjust="spacing" textLength="73" x="510.5" y="1276.1904">(not saved)</text><rect fill="#FFFFFF" height="49.168" rx="12.5" ry="12.5" style="stroke:#000000;stroke-width:1.0;" width="176" x="478" y="1308.71"/><text fill="#000000" font-family="Verdana" font-size="12" lengthAdjust="spacing" textLength="156" x="488" y="1330.7744">Tickets remain in staging</text><text fill="#000000" font-family="Verdana" font-size="12" lengthAdjust="spacing" textLength="106" x="488" y="1345.3584">for next iteration</text><polygon fill="#FFFFFF" points="450,1363.8779,462,1375.8779,450,1387.8779,438,1375.8779,450,1363.8779" style="stroke:#000000;stroke-width:1.0;"/><path d="M15,1407.8779 L15,1686.4663 L429,1686.4663 L429,1417.8779 L419,1407.8779 L15,1407.8779 " fill="#FFFFFF" style="stroke:#000000;stroke-width:1.0;"/><path d="M419,1407.8779 L419,1417.8779 L429,1417.8779 L419,1407.8779 " fill="#FFFFFF" style="stroke:#000000;stroke-width:1.0;"/><text fill="#000000" font-family="Verdana" font-size="13" font-weight="bold" lengthAdjust="spacing" textLength="152" x="21" y="1425.9478">IsHedging Flag Flow:</text><text fill="#000000" font-family="Verdana" font-size="13" lengthAdjust="spacing" textLength="5" x="21" y="1441.7471">&#160;</text><text fill="#000000" font-family="Verdana" font-size="13" font-weight="bold" lengthAdjust="spacing" textLength="238" x="21" y="1457.5464">Check 1: Customer Classification</text><text fill="#000000" font-family="Verdana" font-size="13" lengthAdjust="spacing" textLength="22" x="21" y="1473.3457">&#226;&#8224;&#8220;</text><text fill="#000000" font-family="Verdana" font-size="13" lengthAdjust="spacing" textLength="196" x="21" y="1489.145">Has IsHedgingReasonMM = 1?</text><text fill="#000000" font-family="Verdana" font-size="13" lengthAdjust="spacing" textLength="258" x="21" y="1504.9443">&#226;&#8221;&#339;&#226;&#8221;&#8364; YES &#226;&#8224;&#8217; IsHedging = TRUE &#226;&#339;&#8220;</text><text fill="#000000" font-family="Verdana" font-size="13" lengthAdjust="spacing" textLength="230" x="21" y="1520.7437">&#226;&#8221;&#8221;&#226;&#8221;&#8364; NO &#226;&#8224;&#8217; Continue to Check 2</text><text fill="#000000" font-family="Verdana" font-size="13" lengthAdjust="spacing" textLength="5" x="21" y="1536.543">&#160;</text><text fill="#000000" font-family="Verdana" font-size="13" font-weight="bold" lengthAdjust="spacing" textLength="220" x="21" y="1552.3423">Check 2: Association Check SP</text><text fill="#000000" font-family="Verdana" font-size="13" lengthAdjust="spacing" textLength="22" x="21" y="1568.1416">&#226;&#8224;&#8220;</text><text fill="#000000" font-family="Verdana" font-size="13" lengthAdjust="spacing" textLength="393" x="21" y="1583.9409">CTS_DC_Association_IsAssociatedHedgingCustByCustIDList</text><text fill="#000000" font-family="Verdana" font-size="13" lengthAdjust="spacing" textLength="266" x="21" y="1599.7402">&#226;&#8221;&#339;&#226;&#8221;&#8364; TRUE &#226;&#8224;&#8217; IsHedging = TRUE &#226;&#339;&#8220;</text><text fill="#000000" font-family="Verdana" font-size="13" lengthAdjust="spacing" textLength="280" x="21" y="1615.5396">&#226;&#8221;&#8221;&#226;&#8221;&#8364; FALSE &#226;&#8224;&#8217; IsHedging = FALSE &#226;&#339;&#8212;</text><text fill="#000000" font-family="Verdana" font-size="13" lengthAdjust="spacing" textLength="5" x="21" y="1631.3389">&#160;</text><text fill="#000000" font-family="Verdana" font-size="13" font-weight="bold" lengthAdjust="spacing" textLength="89" x="21" y="1647.1382">Final Result:</text><text fill="#000000" font-family="Verdana" font-size="13" lengthAdjust="spacing" textLength="232" x="21" y="1662.9375">- IsHedging = TRUE &#226;&#8224;&#8217; Save to DB</text><text fill="#000000" font-family="Verdana" font-size="13" lengthAdjust="spacing" textLength="213" x="21" y="1678.7368">- IsHedging = FALSE &#226;&#8224;&#8217; Discard</text><path d="M471,1423.6772 L471,1670.667 L780,1670.667 L780,1433.6772 L770,1423.6772 L471,1423.6772 " fill="#FFFFFF" style="stroke:#000000;stroke-width:1.0;"/><path d="M770,1423.6772 L770,1433.6772 L780,1433.6772 L770,1423.6772 " fill="#FFFFFF" style="stroke:#000000;stroke-width:1.0;"/><text fill="#000000" font-family="Verdana" font-size="13" font-weight="bold" lengthAdjust="spacing" textLength="211" x="477" y="1441.7471">Customer Category Settings:</text><text fill="#000000" font-family="Verdana" font-size="13" lengthAdjust="spacing" textLength="5" x="477" y="1457.5464">&#160;</text><text fill="#000000" font-family="Verdana" font-size="13" font-weight="bold" lengthAdjust="spacing" textLength="191" x="477" y="1473.3457">IsHedgingReasonMM Flag:</text><text fill="#000000" font-family="Verdana" font-size="13" lengthAdjust="spacing" textLength="216" x="477" y="1489.145">- Set in CustomerCategory table</text><text fill="#000000" font-family="Verdana" font-size="13" lengthAdjust="spacing" textLength="288" x="477" y="1504.9443">- Only for PA (Problem Account) categories</text><text fill="#000000" font-family="Verdana" font-size="13" lengthAdjust="spacing" textLength="233" x="477" y="1520.7437">- Manually configured per category</text><text fill="#000000" font-family="Verdana" font-size="13" lengthAdjust="spacing" textLength="5" x="477" y="1536.543">&#160;</text><text fill="#000000" font-family="Verdana" font-size="13" font-weight="bold" lengthAdjust="spacing" textLength="221" x="477" y="1552.3423">Example Categories with Flag:</text><text fill="#000000" font-family="Verdana" font-size="13" lengthAdjust="spacing" textLength="240" x="477" y="1568.1416">- Category 101: "Hedging Detected"</text><text fill="#000000" font-family="Verdana" font-size="13" lengthAdjust="spacing" textLength="276" x="477" y="1583.9409">- Category 102: "Cross-Platform Hedging"</text><text fill="#000000" font-family="Verdana" font-size="13" lengthAdjust="spacing" textLength="284" x="477" y="1599.7402">- Category 103: "Internal Hedging Pattern"</text><text fill="#000000" font-family="Verdana" font-size="13" lengthAdjust="spacing" textLength="5" x="477" y="1615.5396">&#160;</text><text fill="#000000" font-family="Verdana" font-size="13" font-weight="bold" lengthAdjust="spacing" textLength="270" x="477" y="1631.3389">CategoryID &#226;&#8224;&#8217; IsHedgingReasonMM:</text><text fill="#000000" font-family="Verdana" font-size="13" lengthAdjust="spacing" textLength="162" x="477" y="1647.1382">- NULL or 0: Not flagged</text><text fill="#000000" font-family="Verdana" font-size="13" lengthAdjust="spacing" textLength="229" x="477" y="1662.9375">- 1: Flagged for hedging detection</text><ellipse cx="450" cy="1547.1721" fill="none" rx="11" ry="11" style="stroke:#000000;stroke-width:1.0;"/><ellipse cx="450" cy="1547.1721" fill="#FFFFFF" rx="6" ry="6" style="stroke:#000000;stroke-width:1.0;"/><line style="stroke:#000000;stroke-width:1.0;" x1="450" x2="450" y1="72.7373" y2="92.7373"/><polygon fill="#000000" points="446,82.7373,450,92.7373,454,82.7373,450,86.7373" style="stroke:#000000;stroke-width:1.0;"/><line style="stroke:#000000;stroke-width:1.0;" x1="450" x2="450" y1="141.9053" y2="161.9053"/><polygon fill="#000000" points="446,151.9053,450,161.9053,454,151.9053,450,155.9053" style="stroke:#000000;stroke-width:1.0;"/><line style="stroke:#000000;stroke-width:1.0;" x1="450" x2="450" y1="196.4893" y2="219.9966"/><polygon fill="#000000" points="446,209.9966,450,219.9966,454,209.9966,450,213.9966" style="stroke:#000000;stroke-width:1.0;"/><line style="stroke:#000000;stroke-width:1.0;" x1="450" x2="450" y1="426.8748" y2="555.7"/><polygon fill="#000000" points="446,545.7,450,555.7,454,545.7,450,549.7" style="stroke:#000000;stroke-width:1.0;"/><line style="stroke:#000000;stroke-width:1.0;" x1="130.5" x2="130.5" y1="740.5725" y2="786.9795"/><polygon fill="#000000" points="126.5,776.9795,130.5,786.9795,134.5,776.9795,130.5,780.9795" style="stroke:#000000;stroke-width:1.0;"/><line style="stroke:#000000;stroke-width:1.0;" x1="548.5" x2="548.5" y1="935.5837" y2="981.9907"/><polygon fill="#000000" points="544.5,971.9907,548.5,981.9907,552.5,971.9907,548.5,975.9907" style="stroke:#000000;stroke-width:1.0;"/><line style="stroke:#000000;stroke-width:1.0;" x1="990.5" x2="990.5" y1="943.4834" y2="997.79"/><polygon fill="#000000" points="986.5,987.79,990.5,997.79,994.5,987.79,990.5,991.79" style="stroke:#000000;stroke-width:1.0;"/><line style="stroke:#000000;stroke-width:1.0;" x1="670.5" x2="548.5" y1="867.5928" y2="867.5928"/><line style="stroke:#000000;stroke-width:1.0;" x1="548.5" x2="548.5" y1="867.5928" y2="900.9998"/><polygon fill="#000000" points="544.5,890.9998,548.5,900.9998,552.5,890.9998,548.5,894.9998" style="stroke:#000000;stroke-width:1.0;"/><line style="stroke:#000000;stroke-width:1.0;" x1="868.5" x2="990.5" y1="867.5928" y2="867.5928"/><line style="stroke:#000000;stroke-width:1.0;" x1="990.5" x2="990.5" y1="867.5928" y2="908.8994"/><polygon fill="#000000" points="986.5,898.8994,990.5,908.8994,994.5,898.8994,990.5,902.8994" style="stroke:#000000;stroke-width:1.0;"/><line style="stroke:#000000;stroke-width:1.0;" x1="548.5" x2="548.5" y1="1031.1587" y2="1064.958"/><line style="stroke:#000000;stroke-width:1.0;" x1="548.5" x2="757.5" y1="1064.958" y2="1064.958"/><polygon fill="#000000" points="747.5,1060.958,757.5,1064.958,747.5,1068.958,751.5,1064.958" style="stroke:#000000;stroke-width:1.0;"/><line style="stroke:#000000;stroke-width:1.0;" x1="990.5" x2="990.5" y1="1046.958" y2="1064.958"/><line style="stroke:#000000;stroke-width:1.0;" x1="990.5" x2="781.5" y1="1064.958" y2="1064.958"/><polygon fill="#000000" points="791.5,1060.958,781.5,1064.958,791.5,1068.958,787.5,1064.958" style="stroke:#000000;stroke-width:1.0;"/><line style="stroke:#000000;stroke-width:1.0;" x1="769.5" x2="769.5" y1="807.9705" y2="855.5928"/><polygon fill="#000000" points="765.5,845.5928,769.5,855.5928,773.5,845.5928,769.5,849.5928" style="stroke:#000000;stroke-width:1.0;"/><line style="stroke:#000000;stroke-width:1.0;" x1="311" x2="130.5" y1="672.5815" y2="672.5815"/><line style="stroke:#000000;stroke-width:1.0;" x1="130.5" x2="130.5" y1="672.5815" y2="705.9885"/><polygon fill="#000000" points="126.5,695.9885,130.5,705.9885,134.5,695.9885,130.5,699.9885" style="stroke:#000000;stroke-width:1.0;"/><line style="stroke:#000000;stroke-width:1.0;" x1="589" x2="769.5" y1="672.5815" y2="672.5815"/><line style="stroke:#000000;stroke-width:1.0;" x1="769.5" x2="769.5" y1="672.5815" y2="744.2185"/><polygon fill="#000000" points="765.5,734.2185,769.5,744.2185,773.5,734.2185,769.5,738.2185" style="stroke:#000000;stroke-width:1.0;"/><line style="stroke:#000000;stroke-width:1.0;" x1="130.5" x2="130.5" y1="836.1475" y2="1106.958"/><line style="stroke:#000000;stroke-width:1.0;" x1="130.5" x2="438" y1="1106.958" y2="1106.958"/><polygon fill="#000000" points="428,1102.958,438,1106.958,428,1110.958,432,1106.958" style="stroke:#000000;stroke-width:1.0;"/><line style="stroke:#000000;stroke-width:1.0;" x1="769.5" x2="769.5" y1="1076.958" y2="1106.958"/><line style="stroke:#000000;stroke-width:1.0;" x1="769.5" x2="462" y1="1106.958" y2="1106.958"/><polygon fill="#000000" points="472,1102.958,462,1106.958,472,1110.958,468,1106.958" style="stroke:#000000;stroke-width:1.0;"/><line style="stroke:#000000;stroke-width:1.0;" x1="450" x2="450" y1="604.8679" y2="660.5815"/><polygon fill="#000000" points="446,650.5815,450,660.5815,454,650.5815,450,654.5815" style="stroke:#000000;stroke-width:1.0;"/><line style="stroke:#000000;stroke-width:1.0;" x1="450" x2="450" y1="254.5806" y2="377.7068"/><polygon fill="#000000" points="446,367.7068,450,377.7068,454,367.7068,450,371.7068" style="stroke:#000000;stroke-width:1.0;"/><line style="stroke:#000000;stroke-width:1.0;" x1="450" x2="450" y1="1118.958" y2="1150.958"/><polygon fill="#000000" points="446,1140.958,450,1150.958,454,1140.958,450,1144.958" style="stroke:#000000;stroke-width:1.0;"/><line style="stroke:#000000;stroke-width:1.0;" x1="334" x2="334" y1="1288.71" y2="1308.71"/><polygon fill="#000000" points="330,1298.71,334,1308.71,338,1298.71,334,1302.71" style="stroke:#000000;stroke-width:1.0;"/><line style="stroke:#000000;stroke-width:1.0;" x1="566" x2="566" y1="1288.71" y2="1308.71"/><polygon fill="#000000" points="562,1298.71,566,1308.71,570,1298.71,566,1302.71" style="stroke:#000000;stroke-width:1.0;"/><line style="stroke:#000000;stroke-width:1.0;" x1="383" x2="334" y1="1217.542" y2="1217.542"/><line style="stroke:#000000;stroke-width:1.0;" x1="334" x2="334" y1="1217.542" y2="1239.542"/><polygon fill="#000000" points="330,1229.542,334,1239.542,338,1229.542,334,1233.542" style="stroke:#000000;stroke-width:1.0;"/><line style="stroke:#000000;stroke-width:1.0;" x1="517" x2="566" y1="1217.542" y2="1217.542"/><line style="stroke:#000000;stroke-width:1.0;" x1="566" x2="566" y1="1217.542" y2="1239.542"/><polygon fill="#000000" points="562,1229.542,566,1239.542,570,1229.542,566,1233.542" style="stroke:#000000;stroke-width:1.0;"/><line style="stroke:#000000;stroke-width:1.0;" x1="334" x2="334" y1="1357.8779" y2="1375.8779"/><line style="stroke:#000000;stroke-width:1.0;" x1="334" x2="438" y1="1375.8779" y2="1375.8779"/><polygon fill="#000000" points="428,1371.8779,438,1375.8779,428,1379.8779,432,1375.8779" style="stroke:#000000;stroke-width:1.0;"/><line style="stroke:#000000;stroke-width:1.0;" x1="566" x2="566" y1="1357.8779" y2="1375.8779"/><line style="stroke:#000000;stroke-width:1.0;" x1="566" x2="462" y1="1375.8779" y2="1375.8779"/><polygon fill="#000000" points="472,1371.8779,462,1375.8779,472,1379.8779,468,1375.8779" style="stroke:#000000;stroke-width:1.0;"/><line style="stroke:#000000;stroke-width:1.0;" x1="450" x2="450" y1="1185.542" y2="1205.542"/><polygon fill="#000000" points="446,1195.542,450,1205.542,454,1195.542,450,1199.542" style="stroke:#000000;stroke-width:1.0;"/><line style="stroke:#000000;stroke-width:1.0;" x1="450" x2="450" y1="1387.8779" y2="1536.1721"/><polygon fill="#000000" points="446,1526.1721,450,1536.1721,454,1526.1721,450,1530.1721" style="stroke:#000000;stroke-width:1.0;"/><!--SRC=[lLVDRkCs4BxxAQO-5B4H1_b1BqxJrh6LZGl_rNOsM220mqYqJKGcjIAr6wDO8EWhR2y5ka3HSz-Ys1V9atGeYPHaoviYAAg34r4pvCmtCzyClr9Bkg8G-8JnYcBAft19lGNZ2-XGHLt518S6TALPlV390jfBwjv3JooOMwb8HK9LgJHVXI8Am8krg0UCmoWKBfKI9gCRlXT_xdRseHr9rUtqc5IrKrHp7bH8N9LRXdaeLh3GyYZ0XQ8GiiLILG2VUjrv8Al0fyrwFLx8z9fG_URmy6WVVuxrpqcrGha7UWCyPqH2IVEdCAu4JEagcEb5KEJEftXUWDwmsErglQw_Y1KDeUqJATcSkIJ-50DGhrVXvzY6vYkgm2UAuZwkKN4BAZTyBaAWn5rQYTDOD_xPS39nzAU8Xki4PUEiVcvlR-LRtxvEd9xJdgQE8RfenKA4Q_q_kamvhbhPY_6mdxbibxk3WJE67uVT0RId4-DpqULIOIEPdcbbhY-TiMEFXs-_W_PmC9dEHgsnCvXsExFhSMiqSiPMOJZkuARdRw1m-2Xa8cHg3Qr9Uz_AsgT7fEeB3qsaNWTDW8upQLknNhVVdS9H7ZRxVmva7Rab0gz35wJdxTjOfewbwDjiidiqaqfWyopiIo9XrBAgD_mzKykiWCQKIC7xVJY3e-SIe2su5wUYpCV_w213zcmJs54hZzCULY1czGfQhYiYZXx6YZKhStpmfIYzVjqT5ROR20LwCTlWvA3SjOAQvem5KeAkW6NA8vvXbzeEQ17JlHPV5u4jFUlx6Y2BSTXRKvbPrfnWP3FUEeFf-CevtKw14kGJz2ymlH0TjSo3RnWdjeZu8INU6kQ9VmMXlAz8XUvcYHGSBXZKl0eydSr9dGhDTSYdDtpYJ9_pX_f8SNjSP2WKsApb9Ub4V6X9ALnMIcRMZZRnVUJkvWr7LfXrshESqgmhpHlrKfiqBkVhZ66Hz5d2DCdxFlmWWfbreNPQEAxmiYCeIM2cIwPx2WGqH9HNSZC- -cd09Pw8rUoYioOE0L6AXXWCxN29IZiKKZQoX4lLIEPsYTAKhMZZZaZCRwCm3-dRY79tNIBUZtp5CAIm8WfxmOPfig2nbIDREEaYGIH2gY9KtagFyihubnLIUk0pmKa2r34pm3j6ykYL1IfVK19h_1src2pZ2AvBLR2w36IWn8AYc-6MO2b-fIwzhEPAjzkkmPruNxHwa_y4SCtBwRQxC6x0G5WMYXbhjrWkP7QUso6T37rOZsWZo4W6p6KYalz3A4h0mqFOtAvyg6Hh7t007CT5ajj3Wn3pj1arTJKzNqBfeBiYuJscE3ObDpKI-Ixf1pXNIapaMgw_DwyPakaTnLuWQPZCnqhSyBvcWRxW33CTleRyArOHORvCDoccLMh3dFbO0hYPY3JRnZ70Wxt2oLFctbCbaIHMEEJhPeGJk_Om6KavVS1P6BU9utrQIG33gLu4bShS5xYCOCGfwDEv6S8tBWGNldXlCY-LI2QZeoRicA5JwR__V7hyu-dnz_ZbScUBjxAVFd-C_ppzyXUySIP6_xUjCiKldp-QZHELnqzMTJ3CD77CGXyZgkEMM7syxSXnSxjdOXCgy-9btRBKmzIH5xaO5qYvilcajN_D-th1z70mfXAxb8bde-pSTDE9vck4hNDU8hfXG8T9buHUxavMpAxy7I_B6SDOo9rQL6vasNQsw7pCJDUKYnc_ULD9Rdkfp93xwvW7S6pVd9XhXZCPbQbud_089oESJ0MViqMawo_GzxtyY5UygnetS1E8hmD58wrLHuTOBzNY1PnwrMqnpCPgCgsCyAgYfo33_oN29oZSvRfNOcpDvgEaUrOBcMxlZYLfOm3Ep1vSzNgw4HysGJUW_1JSq8N_nR4_IuD_0000]--></g></svg>