<svg xmlns="http://www.w3.org/2000/svg" xmlns:xlink="http://www.w3.org/1999/xlink" contentStyleType="text/css" height="2811px" preserveAspectRatio="none" style="width:1129px;height:2811px;background:#FFFFFF;" version="1.1" viewBox="0 0 1129 2811" width="1129px" zoomAndPan="magnify"><defs/><g><text fill="#000000" font-family="Verdana" font-size="22" font-weight="bold" lengthAdjust="spacing" textLength="384" x="371" y="37.1182">Hedging Detection - Main Flow</text><ellipse cx="666.5" cy="62.7373" fill="#FFFFFF" rx="10" ry="10" style="stroke:#000000;stroke-width:1.0;"/><rect fill="#FFFFFF" height="49.168" rx="12.5" ry="12.5" style="stroke:#000000;stroke-width:1.0;" width="192" x="570.5" y="92.7373"/><text fill="#000000" font-family="Verdana" font-size="12" lengthAdjust="spacing" textLength="85" x="580.5" y="114.8018">Job Triggered</text><text fill="#000000" font-family="Verdana" font-size="12" lengthAdjust="spacing" textLength="172" x="580.5" y="129.3857">(Every 5 minutes)&#171;Stage1&#187;</text><rect fill="#FFFFFF" height="531.8894" style="stroke:#000000;stroke-width:1.0;" width="593.5" x="460.5" y="151.9053"/><path d="M722.5,151.9053 L722.5,161.9199 L712.5,171.9199 L460.5,171.9199 " fill="none" style="stroke:#000000;stroke-width:1.0;"/><text fill="#000000" font-family="Verdana" font-size="14" font-weight="bold" lengthAdjust="spacing" textLength="252" x="463.5" y="166.9805">Phase 1: Get Matches to Process</text><rect fill="#FFFFFF" height="34.584" rx="12.5" ry="12.5" style="stroke:#000000;stroke-width:1.0;" width="392" x="470.5" y="188.9199"/><text fill="#000000" font-family="Verdana" font-size="12" lengthAdjust="spacing" textLength="372" x="480.5" y="210.9844">Call SP: CTS_DC_MatchMonitor_RuleHedging_Get&#171;Stage1&#187;</text><path d="M799,247.2886 L799,264.0879 L779,268.0879 L799,272.0879 L799,288.8872 A0,0 0 0 0 799,288.8872 L1006,288.8872 A0,0 0 0 0 1006,288.8872 L1006,257.2886 L996,247.2886 L799,247.2886 A0,0 0 0 0 799,247.2886 " fill="#FFFFFF" style="stroke:#000000;stroke-width:1.0;"/><path d="M996,247.2886 L996,257.2886 L1006,257.2886 L996,247.2886 " fill="#FFFFFF" style="stroke:#000000;stroke-width:1.0;"/><text fill="#000000" font-family="Verdana" font-size="13" lengthAdjust="spacing" textLength="161" x="805" y="265.3584">Live: ParameterID = 120</text><text fill="#000000" font-family="Verdana" font-size="13" lengthAdjust="spacing" textLength="186" x="805" y="281.1577">NonLive: ParameterID = 121</text><rect fill="#FFFFFF" height="49.168" rx="12.5" ry="12.5" style="stroke:#000000;stroke-width:1.0;" width="225" x="554" y="243.5039"/><text fill="#000000" font-family="Verdana" font-size="12" lengthAdjust="spacing" textLength="139" x="564" y="265.5684">Read last SequenceID</text><text fill="#000000" font-family="Verdana" font-size="12" lengthAdjust="spacing" textLength="205" x="564" y="280.1523">from SystemParameter&#171;Stage1&#187;</text><path d="M798.5,308.5569 L798.5,333.2559 L778.5,337.2559 L798.5,341.2559 L798.5,365.9548 A0,0 0 0 0 798.5,365.9548 L983.5,365.9548 A0,0 0 0 0 983.5,365.9548 L983.5,318.5569 L973.5,308.5569 L798.5,308.5569 A0,0 0 0 0 798.5,308.5569 " fill="#FFFFFF" style="stroke:#000000;stroke-width:1.0;"/><path d="M973.5,308.5569 L973.5,318.5569 L983.5,318.5569 L973.5,308.5569 " fill="#FFFFFF" style="stroke:#000000;stroke-width:1.0;"/><text fill="#000000" font-family="Verdana" font-size="13" lengthAdjust="spacing" textLength="106" x="804.5" y="326.6267">RuleGroupID = 3</text><text fill="#000000" font-family="Verdana" font-size="13" lengthAdjust="spacing" textLength="74" x="804.5" y="342.426">Reason = 1</text><text fill="#000000" font-family="Verdana" font-size="13" lengthAdjust="spacing" textLength="164" x="804.5" y="358.2253">TimeStep = 180 seconds</text><rect fill="#FFFFFF" height="49.168" rx="12.5" ry="12.5" style="stroke:#000000;stroke-width:1.0;" width="224" x="554.5" y="312.6719"/><text fill="#000000" font-family="Verdana" font-size="12" lengthAdjust="spacing" textLength="115" x="564.5" y="334.7363">Read rule settings</text><text fill="#000000" font-family="Verdana" font-size="12" lengthAdjust="spacing" textLength="204" x="564.5" y="349.3203">(TimeStep, TotalStake)&#171;Stage1&#187;</text><rect fill="#FFFFFF" height="49.168" rx="12.5" ry="12.5" style="stroke:#000000;stroke-width:1.0;" width="188" x="572.5" y="385.9548"/><text fill="#000000" font-family="Verdana" font-size="12" lengthAdjust="spacing" textLength="136" x="582.5" y="408.0193">Load Temp_OldGroup</text><text fill="#000000" font-family="Verdana" font-size="12" lengthAdjust="spacing" textLength="168" x="582.5" y="422.6033">(existing groups)&#171;Stage1&#187;</text><rect fill="#FFFFFF" height="49.168" rx="12.5" ry="12.5" style="stroke:#000000;stroke-width:1.0;" width="313" x="510" y="455.1228"/><text fill="#000000" font-family="Verdana" font-size="12" lengthAdjust="spacing" textLength="142" x="520" y="477.1873">Calculate time window</text><text fill="#000000" font-family="Verdana" font-size="12" lengthAdjust="spacing" textLength="293" x="520" y="491.7712">MaxTime = MinTransDate + TimeStep&#171;Stage1&#187;</text><path d="M825,542.0518 L825,566.7507 L805,570.7507 L825,574.7507 L825,599.4497 A0,0 0 0 0 825,599.4497 L1044,599.4497 A0,0 0 0 0 1044,599.4497 L1044,552.0518 L1034,542.0518 L825,542.0518 A0,0 0 0 0 825,542.0518 " fill="#FFFFFF" style="stroke:#000000;stroke-width:1.0;"/><path d="M1034,542.0518 L1034,552.0518 L1044,552.0518 L1034,542.0518 " fill="#FFFFFF" style="stroke:#000000;stroke-width:1.0;"/><text fill="#000000" font-family="Verdana" font-size="13" font-weight="bold" lengthAdjust="spacing" textLength="104" x="831" y="560.1216">Special Fields:</text><text fill="#000000" font-family="Verdana" font-size="13" lengthAdjust="spacing" textLength="198" x="831" y="575.9209">- AgentDetect_CTSCustIDList</text><text fill="#000000" font-family="Verdana" font-size="13" lengthAdjust="spacing" textLength="152" x="841" y="591.7202">(Alpha/Maxbet agents)</text><rect fill="#FFFFFF" height="92.9199" rx="12.5" ry="12.5" style="stroke:#000000;stroke-width:1.0;" width="277" x="528" y="524.2908"/><text fill="#000000" font-family="Verdana" font-size="12" lengthAdjust="spacing" textLength="125" x="538" y="546.3552">Query staging table</text><text fill="#000000" font-family="Verdana" font-size="12" lengthAdjust="spacing" textLength="185" x="538" y="560.9392">GROUP BY MatchID, ScoreDiff,</text><text fill="#000000" font-family="Verdana" font-size="12" lengthAdjust="spacing" textLength="248" x="538" y="575.5232">BettypeID, BetID, Betteam, OldGroupID</text><text fill="#000000" font-family="Verdana" font-size="12" lengthAdjust="spacing" textLength="237" x="538" y="590.1072">HAVING COUNT(DISTINCT CustID) &gt; 1</text><text fill="#000000" font-family="Verdana" font-size="12" lengthAdjust="spacing" textLength="257" x="538" y="604.6912">AND SUM(Stake) &gt;= TotalStake&#171;Stage1&#187;</text><rect fill="#FFFFFF" height="34.584" rx="12.5" ry="12.5" style="stroke:#000000;stroke-width:1.0;" width="213" x="560" y="637.2107"/><text fill="#000000" font-family="Verdana" font-size="12" lengthAdjust="spacing" textLength="193" x="570" y="659.2751">Return match groups&#171;Stage1&#187;</text><polygon fill="#FFFFFF" points="595.5,703.7947,737.5,703.7947,749.5,715.7947,737.5,727.7947,595.5,727.7947,583.5,715.7947,595.5,703.7947" style="stroke:#000000;stroke-width:1.0;"/><text fill="#000000" font-family="Verdana" font-size="11" lengthAdjust="spacing" textLength="142" x="595.5" y="720.1694">Has matches to process?</text><text fill="#000000" font-family="Verdana" font-size="11" lengthAdjust="spacing" textLength="20" x="563.5" y="713.4851">yes</text><text fill="#000000" font-family="Verdana" font-size="11" lengthAdjust="spacing" textLength="14" x="749.5" y="713.4851">no</text><rect fill="#FFFFFF" height="1343.6436" style="stroke:#000000;stroke-width:1.0;" width="872" x="6" y="737.7947"/><path d="M380,737.7947 L380,747.8093 L370,757.8093 L6,757.8093 " fill="none" style="stroke:#000000;stroke-width:1.0;"/><text fill="#000000" font-family="Verdana" font-size="14" font-weight="bold" lengthAdjust="spacing" textLength="364" x="9" y="752.8699">Phase 2: Process Each Match (2-Level Parallel)</text><path d="M580,797.302 L580,838.9006 L868,838.9006 L868,807.302 L858,797.302 L580,797.302 " fill="#FFFFFF" style="stroke:#000000;stroke-width:1.0;"/><path d="M858,797.302 L858,807.302 L868,807.302 L858,797.302 " fill="#FFFFFF" style="stroke:#000000;stroke-width:1.0;"/><text fill="#000000" font-family="Verdana" font-size="13" font-weight="bold" lengthAdjust="spacing" textLength="145" x="586" y="815.3718">External Parallelism</text><text fill="#000000" font-family="Verdana" font-size="13" lengthAdjust="spacing" textLength="267" x="586" y="831.1711">Number of matches processed in parallel</text><rect fill="#000000" height="6" rx="2.5" ry="2.5" style="stroke:#000000;stroke-width:1.0;" width="475" x="85" y="774.8093"/><rect fill="#FFFFFF" height="34.584" rx="12.5" ry="12.5" style="stroke:#000000;stroke-width:1.0;" width="130" x="99" y="800.8093"/><text fill="#000000" font-family="Verdana" font-size="12" lengthAdjust="spacing" textLength="110" x="109" y="822.8738">Match 1&#171;Stage2&#187;</text><rect fill="#FFFFFF" height="34.584" rx="12.5" ry="12.5" style="stroke:#000000;stroke-width:1.0;" width="130" x="257" y="800.8093"/><text fill="#000000" font-family="Verdana" font-size="12" lengthAdjust="spacing" textLength="110" x="267" y="822.8738">Match 2&#171;Stage2&#187;</text><rect fill="#FFFFFF" height="34.584" rx="12.5" ry="12.5" style="stroke:#000000;stroke-width:1.0;" width="131" x="415" y="800.8093"/><text fill="#000000" font-family="Verdana" font-size="12" lengthAdjust="spacing" textLength="111" x="425" y="822.8738">Match N&#171;Stage2&#187;</text><rect fill="#000000" height="6" rx="2.5" ry="2.5" style="stroke:#000000;stroke-width:1.0;" width="475" x="85" y="855.3933"/><rect fill="#FFFFFF" height="135.5986" style="stroke:#000000;stroke-width:1.0;" width="728" x="73" y="871.3933"/><path d="M296,871.3933 L296,881.408 L286,891.408 L73,891.408 " fill="none" style="stroke:#000000;stroke-width:1.0;"/><text fill="#000000" font-family="Verdana" font-size="14" font-weight="bold" lengthAdjust="spacing" textLength="213" x="76" y="886.4685">Internal Parallel Processing</text><path d="M582,930.9006 L582,972.4993 L791,972.4993 L791,940.9006 L781,930.9006 L582,930.9006 " fill="#FFFFFF" style="stroke:#000000;stroke-width:1.0;"/><path d="M781,930.9006 L781,940.9006 L791,940.9006 L781,930.9006 " fill="#FFFFFF" style="stroke:#000000;stroke-width:1.0;"/><text fill="#000000" font-family="Verdana" font-size="13" font-weight="bold" lengthAdjust="spacing" textLength="142" x="588" y="948.9705">Internal Parallelism</text><text fill="#000000" font-family="Verdana" font-size="13" lengthAdjust="spacing" textLength="188" x="588" y="964.7698">Number of groups per match</text><rect fill="#000000" height="6" rx="2.5" ry="2.5" style="stroke:#000000;stroke-width:1.0;" width="479" x="83" y="908.408"/><rect fill="#FFFFFF" height="34.584" rx="12.5" ry="12.5" style="stroke:#000000;stroke-width:1.0;" width="131" x="97" y="934.408"/><text fill="#000000" font-family="Verdana" font-size="12" lengthAdjust="spacing" textLength="111" x="107" y="956.4724">Group 1&#171;Stage2&#187;</text><rect fill="#FFFFFF" height="34.584" rx="12.5" ry="12.5" style="stroke:#000000;stroke-width:1.0;" width="131" x="256" y="934.408"/><text fill="#000000" font-family="Verdana" font-size="12" lengthAdjust="spacing" textLength="111" x="266" y="956.4724">Group 2&#171;Stage2&#187;</text><rect fill="#FFFFFF" height="34.584" rx="12.5" ry="12.5" style="stroke:#000000;stroke-width:1.0;" width="133" x="415" y="934.408"/><text fill="#000000" font-family="Verdana" font-size="12" lengthAdjust="spacing" textLength="113" x="425" y="956.4724">Group M&#171;Stage2&#187;</text><rect fill="#000000" height="6" rx="2.5" ry="2.5" style="stroke:#000000;stroke-width:1.0;" width="479" x="83" y="988.9919"/><rect fill="#FFFFFF" height="49.168" rx="12.5" ry="12.5" style="stroke:#000000;stroke-width:1.0;" width="238" x="203.5" y="1026.9919"/><text fill="#000000" font-family="Verdana" font-size="12" lengthAdjust="spacing" textLength="196" x="213.5" y="1049.0564">Round 1: Association Detection</text><text fill="#000000" font-family="Verdana" font-size="12" lengthAdjust="spacing" textLength="218" x="213.5" y="1063.6404">(3 criteria: Device, AI, IP)&#171;Stage2&#187;</text><rect fill="#FFFFFF" height="49.168" rx="12.5" ry="12.5" style="stroke:#000000;stroke-width:1.0;" width="358" x="143.5" y="1096.1599"/><text fill="#000000" font-family="Verdana" font-size="12" lengthAdjust="spacing" textLength="338" x="153.5" y="1118.2244">Call SP: CTS_DC_MatchMonitor_RuleHedging_Process</text><text fill="#000000" font-family="Verdana" font-size="12" lengthAdjust="spacing" textLength="195" x="153.5" y="1132.8083">with CustGroup JSON&#171;Stage2&#187;</text><rect fill="#FFFFFF" height="34.584" rx="12.5" ry="12.5" style="stroke:#000000;stroke-width:1.0;" width="198" x="223.5" y="1165.3279"/><text fill="#000000" font-family="Verdana" font-size="12" lengthAdjust="spacing" textLength="178" x="233.5" y="1187.3923">Inside Process SP:&#171;Stage2&#187;</text><rect fill="#FFFFFF" height="49.168" rx="12.5" ry="12.5" style="stroke:#000000;stroke-width:1.0;" width="244" x="200.5" y="1219.9119"/><text fill="#000000" font-family="Verdana" font-size="12" lengthAdjust="spacing" textLength="224" x="210.5" y="1241.9763">Group tickets by TimeStep windows</text><text fill="#000000" font-family="Verdana" font-size="12" lengthAdjust="spacing" textLength="151" x="210.5" y="1256.5603">(180 seconds)&#171;Stage2&#187;</text><rect fill="#FFFFFF" height="63.752" rx="12.5" ry="12.5" style="stroke:#000000;stroke-width:1.0;" width="277" x="184" y="1289.0798"/><text fill="#000000" font-family="Verdana" font-size="12" lengthAdjust="spacing" textLength="147" x="194" y="1311.1443">Calculate IsValidGroup:</text><text fill="#000000" font-family="Verdana" font-size="12" lengthAdjust="spacing" textLength="185" x="194" y="1325.7283">COUNT(DISTINCT CustID) &gt; 1</text><text fill="#000000" font-family="Verdana" font-size="12" lengthAdjust="spacing" textLength="257" x="194" y="1340.3123">AND SUM(Stake) &gt;= TotalStake&#171;Stage2&#187;</text><rect fill="#FFFFFF" height="34.584" rx="12.5" ry="12.5" style="stroke:#000000;stroke-width:1.0;" width="274" x="185.5" y="1372.8318"/><text fill="#000000" font-family="Verdana" font-size="12" lengthAdjust="spacing" textLength="254" x="195.5" y="1394.8962">Create Temp_Completed table&#171;Stage2&#187;</text><rect fill="#FFFFFF" height="513.6865" style="stroke:#000000;stroke-width:1.0;" width="755" x="16" y="1417.4158"/><path d="M202,1417.4158 L202,1427.4304 L192,1437.4304 L16,1437.4304 " fill="none" style="stroke:#000000;stroke-width:1.0;"/><text fill="#000000" font-family="Verdana" font-size="14" font-weight="bold" lengthAdjust="spacing" textLength="176" x="19" y="1432.491">IsHedging Check Loop</text><rect fill="#FFFFFF" height="34.584" rx="12.5" ry="12.5" style="stroke:#000000;stroke-width:1.0;" width="196" x="224.5" y="1454.4304"/><text fill="#000000" font-family="Verdana" font-size="12" lengthAdjust="spacing" textLength="176" x="234.5" y="1476.4949">For each GroupID:&#171;Stage2&#187;</text><rect fill="#FFFFFF" height="34.584" rx="12.5" ry="12.5" style="stroke:#000000;stroke-width:1.0;" width="228" x="208.5" y="1509.0144"/><text fill="#000000" font-family="Verdana" font-size="12" lengthAdjust="spacing" textLength="208" x="218.5" y="1531.0789">Get customers in group&#171;Stage2&#187;</text><rect fill="#FFFFFF" height="49.168" rx="12.5" ry="12.5" style="stroke:#000000;stroke-width:1.0;" width="249" x="198" y="1563.5984"/><text fill="#000000" font-family="Verdana" font-size="12" lengthAdjust="spacing" textLength="223" x="208" y="1585.6628">Check latest customer classification</text><text fill="#000000" font-family="Verdana" font-size="12" lengthAdjust="spacing" textLength="229" x="208" y="1600.2468">(IsHedgingReasonMM flag)&#171;Stage2&#187;</text><polygon fill="#FFFFFF" points="219,1632.7664,426,1632.7664,438,1644.7664,426,1656.7664,219,1656.7664,207,1644.7664,219,1632.7664" style="stroke:#000000;stroke-width:1.0;"/><text fill="#000000" font-family="Verdana" font-size="11" lengthAdjust="spacing" textLength="207" x="219" y="1649.1411">Customer has IsHedgingReasonMM?</text><text fill="#000000" font-family="Verdana" font-size="11" lengthAdjust="spacing" textLength="20" x="187" y="1642.4568">yes</text><text fill="#000000" font-family="Verdana" font-size="11" lengthAdjust="spacing" textLength="14" x="438" y="1642.4568">no</text><rect fill="#FFFFFF" height="34.584" rx="12.5" ry="12.5" style="stroke:#000000;stroke-width:1.0;" width="219" x="28" y="1666.7664"/><text fill="#000000" font-family="Verdana" font-size="12" lengthAdjust="spacing" textLength="199" x="38" y="1688.8308">Set IsHedging = TRUE&#171;Stage2&#187;</text><rect fill="#FFFFFF" height="49.168" rx="12.5" ry="12.5" style="stroke:#000000;stroke-width:1.0;" width="459" x="278" y="1666.7664"/><text fill="#000000" font-family="Verdana" font-size="12" lengthAdjust="spacing" textLength="48" x="288" y="1688.8308">Call SP:</text><text fill="#000000" font-family="Verdana" font-size="12" lengthAdjust="spacing" textLength="439" x="288" y="1703.4148">CTS_DC_Association_IsAssociatedHedgingCustByCustIDList&#171;Stage2&#187;</text><polygon fill="#FFFFFF" points="449.5,1735.9343,565.5,1735.9343,577.5,1747.9343,565.5,1759.9343,449.5,1759.9343,437.5,1747.9343,449.5,1735.9343" style="stroke:#000000;stroke-width:1.0;"/><text fill="#000000" font-family="Verdana" font-size="11" lengthAdjust="spacing" textLength="116" x="449.5" y="1752.3091">Associated hedging?</text><text fill="#000000" font-family="Verdana" font-size="11" lengthAdjust="spacing" textLength="20" x="417.5" y="1745.6248">yes</text><text fill="#000000" font-family="Verdana" font-size="11" lengthAdjust="spacing" textLength="14" x="577.5" y="1745.6248">no</text><rect fill="#FFFFFF" height="34.584" rx="12.5" ry="12.5" style="stroke:#000000;stroke-width:1.0;" width="219" x="277" y="1769.9343"/><text fill="#000000" font-family="Verdana" font-size="12" lengthAdjust="spacing" textLength="199" x="287" y="1791.9988">Set IsHedging = TRUE&#171;Stage2&#187;</text><rect fill="#FFFFFF" height="34.584" rx="12.5" ry="12.5" style="stroke:#000000;stroke-width:1.0;" width="225" x="516" y="1769.9343"/><text fill="#000000" font-family="Verdana" font-size="12" lengthAdjust="spacing" textLength="205" x="526" y="1791.9988">Set IsHedging = FALSE&#171;Stage2&#187;</text><polygon fill="#FFFFFF" points="507.5,1810.5183,519.5,1822.5183,507.5,1834.5183,495.5,1822.5183,507.5,1810.5183" style="stroke:#000000;stroke-width:1.0;"/><polygon fill="#FFFFFF" points="322.5,1840.5183,334.5,1852.5183,322.5,1864.5183,310.5,1852.5183,322.5,1840.5183" style="stroke:#000000;stroke-width:1.0;"/><rect fill="#FFFFFF" height="34.584" rx="12.5" ry="12.5" style="stroke:#000000;stroke-width:1.0;" width="241" x="202" y="1884.5183"/><text fill="#000000" font-family="Verdana" font-size="12" lengthAdjust="spacing" textLength="221" x="212" y="1906.5828">Update Temp_Completed&#171;Stage2&#187;</text><rect fill="#FFFFFF" height="49.168" rx="12.5" ry="12.5" style="stroke:#000000;stroke-width:1.0;" width="213" x="216" y="1951.1023"/><text fill="#000000" font-family="Verdana" font-size="12" lengthAdjust="spacing" textLength="151" x="226" y="1973.1667">Return complete groups</text><text fill="#000000" font-family="Verdana" font-size="12" lengthAdjust="spacing" textLength="193" x="226" y="1987.7507">(with IsHedging flag)&#171;Stage2&#187;</text><rect fill="#FFFFFF" height="49.168" rx="12.5" ry="12.5" style="stroke:#000000;stroke-width:1.0;" width="223" x="211" y="2020.2703"/><text fill="#000000" font-family="Verdana" font-size="12" lengthAdjust="spacing" textLength="203" x="221" y="2042.3347">Round 2: Reprocess unassigned</text><text fill="#000000" font-family="Verdana" font-size="12" lengthAdjust="spacing" textLength="148" x="221" y="2056.9187">(GroupID = 0)&#171;Stage2&#187;</text><rect fill="#FFFFFF" height="355.1025" style="stroke:#000000;stroke-width:1.0;" width="579" x="31.75" y="2091.4382"/><path d="M245.75,2091.4382 L245.75,2101.4529 L235.75,2111.4529 L31.75,2111.4529 " fill="none" style="stroke:#000000;stroke-width:1.0;"/><text fill="#000000" font-family="Verdana" font-size="14" font-weight="bold" lengthAdjust="spacing" textLength="204" x="34.75" y="2106.5134">Phase 3: Complete &amp; Save</text><rect fill="#FFFFFF" height="34.584" rx="12.5" ry="12.5" style="stroke:#000000;stroke-width:1.0;" width="262" x="191.5" y="2128.4529"/><text fill="#000000" font-family="Verdana" font-size="12" lengthAdjust="spacing" textLength="242" x="201.5" y="2150.5173">Merge groups by TransIDList&#171;Stage3&#187;</text><polygon fill="#FFFFFF" points="218.5,2183.0369,426.5,2183.0369,438.5,2195.0369,426.5,2207.0369,218.5,2207.0369,206.5,2195.0369,218.5,2183.0369" style="stroke:#000000;stroke-width:1.0;"/><text fill="#000000" font-family="Verdana" font-size="11" lengthAdjust="spacing" textLength="208" x="218.5" y="2199.4116">Match exists in MatchMonitorDetails?</text><text fill="#000000" font-family="Verdana" font-size="11" lengthAdjust="spacing" textLength="20" x="186.5" y="2192.7273">yes</text><text fill="#000000" font-family="Verdana" font-size="11" lengthAdjust="spacing" textLength="14" x="438.5" y="2192.7273">no</text><rect fill="#FFFFFF" height="49.168" rx="12.5" ry="12.5" style="stroke:#000000;stroke-width:1.0;" width="262" x="51.75" y="2217.0369"/><text fill="#000000" font-family="Verdana" font-size="12" lengthAdjust="spacing" textLength="115" x="61.75" y="2239.1013">Merge new tickets</text><text fill="#000000" font-family="Verdana" font-size="12" lengthAdjust="spacing" textLength="242" x="61.75" y="2253.6853">with existing tickets (UNION)&#171;Stage3&#187;</text><rect fill="#FFFFFF" height="34.584" rx="12.5" ry="12.5" style="stroke:#000000;stroke-width:1.0;" width="261" x="52.25" y="2300.7888"/><text fill="#000000" font-family="Verdana" font-size="12" lengthAdjust="spacing" textLength="241" x="62.25" y="2322.8533">UPDATE MatchMonitorDetails&#171;Stage3&#187;</text><rect fill="#FFFFFF" height="34.584" rx="12.5" ry="12.5" style="stroke:#000000;stroke-width:1.0;" width="214" x="355.25" y="2217.0369"/><text fill="#000000" font-family="Verdana" font-size="12" lengthAdjust="spacing" textLength="194" x="365.25" y="2239.1013">INSERT MatchMonitor&#171;Stage3&#187;</text><rect fill="#FFFFFF" height="34.584" rx="12.5" ry="12.5" style="stroke:#000000;stroke-width:1.0;" width="257" x="333.75" y="2286.2048"/><text fill="#000000" font-family="Verdana" font-size="12" lengthAdjust="spacing" textLength="237" x="343.75" y="2308.2693">INSERT MatchMonitorDetails&#171;Stage3&#187;</text><polygon fill="#FFFFFF" points="322.5,2341.3728,334.5,2353.3728,322.5,2365.3728,310.5,2353.3728,322.5,2341.3728" style="stroke:#000000;stroke-width:1.0;"/><rect fill="#FFFFFF" height="49.168" rx="12.5" ry="12.5" style="stroke:#000000;stroke-width:1.0;" width="286" x="179.5" y="2385.3728"/><text fill="#000000" font-family="Verdana" font-size="12" lengthAdjust="spacing" textLength="136" x="189.5" y="2407.4373">UPDATE staging table</text><text fill="#000000" font-family="Verdana" font-size="12" lengthAdjust="spacing" textLength="266" x="189.5" y="2422.0212">SET GroupID for detected tickets&#171;Stage3&#187;</text><rect fill="#FFFFFF" height="221.9346" style="stroke:#000000;stroke-width:1.0;" width="474" x="85.5" y="2456.5408"/><path d="M274.5,2456.5408 L274.5,2466.5554 L264.5,2476.5554 L85.5,2476.5554 " fill="none" style="stroke:#000000;stroke-width:1.0;"/><text fill="#000000" font-family="Verdana" font-size="14" font-weight="bold" lengthAdjust="spacing" textLength="179" x="88.5" y="2471.616">Phase 4: Clean Staging</text><rect fill="#FFFFFF" height="34.584" rx="12.5" ry="12.5" style="stroke:#000000;stroke-width:1.0;" width="454" x="95.5" y="2493.5554"/><text fill="#000000" font-family="Verdana" font-size="12" lengthAdjust="spacing" textLength="434" x="105.5" y="2515.6199">Call SP: CTS_DC_MatchMonitor_RuleHedging_StagingClean&#171;Stage4&#187;</text><rect fill="#FFFFFF" height="49.168" rx="12.5" ry="12.5" style="stroke:#000000;stroke-width:1.0;" width="334" x="155.5" y="2548.1394"/><text fill="#000000" font-family="Verdana" font-size="12" lengthAdjust="spacing" textLength="173" x="165.5" y="2570.2039">DELETE FROM staging table</text><text fill="#000000" font-family="Verdana" font-size="12" lengthAdjust="spacing" textLength="314" x="165.5" y="2584.7878">WHERE SequenceID &lt;= MaxSequenceID&#171;Stage4&#187;</text><rect fill="#FFFFFF" height="49.168" rx="12.5" ry="12.5" style="stroke:#000000;stroke-width:1.0;" width="327" x="159" y="2617.3074"/><text fill="#000000" font-family="Verdana" font-size="12" lengthAdjust="spacing" textLength="165" x="169" y="2639.3718">UPDATE SystemParameter</text><text fill="#000000" font-family="Verdana" font-size="12" lengthAdjust="spacing" textLength="307" x="169" y="2653.9558">SET ParameterValue = MaxSequenceID&#171;Stage4&#187;</text><rect fill="#FFFFFF" height="34.584" rx="12.5" ry="12.5" style="stroke:#000000;stroke-width:1.0;" width="225" x="898" y="737.7947"/><text fill="#000000" font-family="Verdana" font-size="12" lengthAdjust="spacing" textLength="205" x="908" y="759.8591">No matches to process&#171;Stage5&#187;</text><polygon fill="#FFFFFF" points="666.5,2684.4753,678.5,2696.4753,666.5,2708.4753,654.5,2696.4753,666.5,2684.4753" style="stroke:#000000;stroke-width:1.0;"/><rect fill="#FFFFFF" height="34.584" rx="12.5" ry="12.5" style="stroke:#000000;stroke-width:1.0;" width="171" x="581" y="2728.4753"/><text fill="#000000" font-family="Verdana" font-size="12" lengthAdjust="spacing" textLength="151" x="591" y="2750.5398">Job completed&#171;Stage5&#187;</text><ellipse cx="666.5" cy="2794.0593" fill="none" rx="11" ry="11" style="stroke:#000000;stroke-width:1.0;"/><ellipse cx="666.5" cy="2794.0593" fill="#FFFFFF" rx="6" ry="6" style="stroke:#000000;stroke-width:1.0;"/><line style="stroke:#000000;stroke-width:1.0;" x1="666.5" x2="666.5" y1="72.7373" y2="92.7373"/><polygon fill="#000000" points="662.5,82.7373,666.5,92.7373,670.5,82.7373,666.5,86.7373" style="stroke:#000000;stroke-width:1.0;"/><line style="stroke:#000000;stroke-width:1.0;" x1="666.5" x2="666.5" y1="223.5039" y2="243.5039"/><polygon fill="#000000" points="662.5,233.5039,666.5,243.5039,670.5,233.5039,666.5,237.5039" style="stroke:#000000;stroke-width:1.0;"/><line style="stroke:#000000;stroke-width:1.0;" x1="666.5" x2="666.5" y1="292.6719" y2="312.6719"/><polygon fill="#000000" points="662.5,302.6719,666.5,312.6719,670.5,302.6719,666.5,306.6719" style="stroke:#000000;stroke-width:1.0;"/><line style="stroke:#000000;stroke-width:1.0;" x1="666.5" x2="666.5" y1="361.8398" y2="385.9548"/><polygon fill="#000000" points="662.5,375.9548,666.5,385.9548,670.5,375.9548,666.5,379.9548" style="stroke:#000000;stroke-width:1.0;"/><line style="stroke:#000000;stroke-width:1.0;" x1="666.5" x2="666.5" y1="435.1228" y2="455.1228"/><polygon fill="#000000" points="662.5,445.1228,666.5,455.1228,670.5,445.1228,666.5,449.1228" style="stroke:#000000;stroke-width:1.0;"/><line style="stroke:#000000;stroke-width:1.0;" x1="666.5" x2="666.5" y1="504.2908" y2="524.2908"/><polygon fill="#000000" points="662.5,514.2908,666.5,524.2908,670.5,514.2908,666.5,518.2908" style="stroke:#000000;stroke-width:1.0;"/><line style="stroke:#000000;stroke-width:1.0;" x1="666.5" x2="666.5" y1="617.2107" y2="637.2107"/><polygon fill="#000000" points="662.5,627.2107,666.5,637.2107,670.5,627.2107,666.5,631.2107" style="stroke:#000000;stroke-width:1.0;"/><line style="stroke:#000000;stroke-width:1.0;" x1="666.5" x2="666.5" y1="141.9053" y2="188.9199"/><polygon fill="#000000" points="662.5,178.9199,666.5,188.9199,670.5,178.9199,666.5,182.9199" style="stroke:#000000;stroke-width:1.0;"/><line style="stroke:#000000;stroke-width:1.0;" x1="164" x2="164" y1="780.8093" y2="800.8093"/><polygon fill="#000000" points="160,790.8093,164,800.8093,168,790.8093,164,794.8093" style="stroke:#000000;stroke-width:1.0;"/><line style="stroke:#000000;stroke-width:1.0;" x1="322" x2="322" y1="780.8093" y2="800.8093"/><polygon fill="#000000" points="318,790.8093,322,800.8093,326,790.8093,322,794.8093" style="stroke:#000000;stroke-width:1.0;"/><line style="stroke:#000000;stroke-width:1.0;" x1="480.5" x2="480.5" y1="780.8093" y2="800.8093"/><polygon fill="#000000" points="476.5,790.8093,480.5,800.8093,484.5,790.8093,480.5,794.8093" style="stroke:#000000;stroke-width:1.0;"/><line style="stroke:#000000;stroke-width:1.0;" x1="164" x2="164" y1="835.3933" y2="855.3933"/><polygon fill="#000000" points="160,845.3933,164,855.3933,168,845.3933,164,849.3933" style="stroke:#000000;stroke-width:1.0;"/><line style="stroke:#000000;stroke-width:1.0;" x1="322" x2="322" y1="835.3933" y2="855.3933"/><polygon fill="#000000" points="318,845.3933,322,855.3933,326,845.3933,322,849.3933" style="stroke:#000000;stroke-width:1.0;"/><line style="stroke:#000000;stroke-width:1.0;" x1="480.5" x2="480.5" y1="835.3933" y2="855.3933"/><polygon fill="#000000" points="476.5,845.3933,480.5,855.3933,484.5,845.3933,480.5,849.3933" style="stroke:#000000;stroke-width:1.0;"/><line style="stroke:#000000;stroke-width:1.0;" x1="162.5" x2="162.5" y1="914.408" y2="934.408"/><polygon fill="#000000" points="158.5,924.408,162.5,934.408,166.5,924.408,162.5,928.408" style="stroke:#000000;stroke-width:1.0;"/><line style="stroke:#000000;stroke-width:1.0;" x1="321.5" x2="321.5" y1="914.408" y2="934.408"/><polygon fill="#000000" points="317.5,924.408,321.5,934.408,325.5,924.408,321.5,928.408" style="stroke:#000000;stroke-width:1.0;"/><line style="stroke:#000000;stroke-width:1.0;" x1="481.5" x2="481.5" y1="914.408" y2="934.408"/><polygon fill="#000000" points="477.5,924.408,481.5,934.408,485.5,924.408,481.5,928.408" style="stroke:#000000;stroke-width:1.0;"/><line style="stroke:#000000;stroke-width:1.0;" x1="162.5" x2="162.5" y1="968.9919" y2="988.9919"/><polygon fill="#000000" points="158.5,978.9919,162.5,988.9919,166.5,978.9919,162.5,982.9919" style="stroke:#000000;stroke-width:1.0;"/><line style="stroke:#000000;stroke-width:1.0;" x1="321.5" x2="321.5" y1="968.9919" y2="988.9919"/><polygon fill="#000000" points="317.5,978.9919,321.5,988.9919,325.5,978.9919,321.5,982.9919" style="stroke:#000000;stroke-width:1.0;"/><line style="stroke:#000000;stroke-width:1.0;" x1="481.5" x2="481.5" y1="968.9919" y2="988.9919"/><polygon fill="#000000" points="477.5,978.9919,481.5,988.9919,485.5,978.9919,481.5,982.9919" style="stroke:#000000;stroke-width:1.0;"/><line style="stroke:#000000;stroke-width:1.0;" x1="322.5" x2="322.5" y1="861.3933" y2="908.408"/><polygon fill="#000000" points="318.5,898.408,322.5,908.408,326.5,898.408,322.5,902.408" style="stroke:#000000;stroke-width:1.0;"/><line style="stroke:#000000;stroke-width:1.0;" x1="322.5" x2="322.5" y1="994.9919" y2="1026.9919"/><polygon fill="#000000" points="318.5,1016.9919,322.5,1026.9919,326.5,1016.9919,322.5,1020.9919" style="stroke:#000000;stroke-width:1.0;"/><line style="stroke:#000000;stroke-width:1.0;" x1="322.5" x2="322.5" y1="1076.1599" y2="1096.1599"/><polygon fill="#000000" points="318.5,1086.1599,322.5,1096.1599,326.5,1086.1599,322.5,1090.1599" style="stroke:#000000;stroke-width:1.0;"/><line style="stroke:#000000;stroke-width:1.0;" x1="322.5" x2="322.5" y1="1145.3279" y2="1165.3279"/><polygon fill="#000000" points="318.5,1155.3279,322.5,1165.3279,326.5,1155.3279,322.5,1159.3279" style="stroke:#000000;stroke-width:1.0;"/><line style="stroke:#000000;stroke-width:1.0;" x1="322.5" x2="322.5" y1="1199.9119" y2="1219.9119"/><polygon fill="#000000" points="318.5,1209.9119,322.5,1219.9119,326.5,1209.9119,322.5,1213.9119" style="stroke:#000000;stroke-width:1.0;"/><line style="stroke:#000000;stroke-width:1.0;" x1="322.5" x2="322.5" y1="1269.0798" y2="1289.0798"/><polygon fill="#000000" points="318.5,1279.0798,322.5,1289.0798,326.5,1279.0798,322.5,1283.0798" style="stroke:#000000;stroke-width:1.0;"/><line style="stroke:#000000;stroke-width:1.0;" x1="322.5" x2="322.5" y1="1352.8318" y2="1372.8318"/><polygon fill="#000000" points="318.5,1362.8318,322.5,1372.8318,326.5,1362.8318,322.5,1366.8318" style="stroke:#000000;stroke-width:1.0;"/><line style="stroke:#000000;stroke-width:1.0;" x1="322.5" x2="322.5" y1="1489.0144" y2="1509.0144"/><polygon fill="#000000" points="318.5,1499.0144,322.5,1509.0144,326.5,1499.0144,322.5,1503.0144" style="stroke:#000000;stroke-width:1.0;"/><line style="stroke:#000000;stroke-width:1.0;" x1="322.5" x2="322.5" y1="1543.5984" y2="1563.5984"/><polygon fill="#000000" points="318.5,1553.5984,322.5,1563.5984,326.5,1553.5984,322.5,1557.5984" style="stroke:#000000;stroke-width:1.0;"/><line style="stroke:#000000;stroke-width:1.0;" x1="437.5" x2="386.5" y1="1747.9343" y2="1747.9343"/><line style="stroke:#000000;stroke-width:1.0;" x1="386.5" x2="386.5" y1="1747.9343" y2="1769.9343"/><polygon fill="#000000" points="382.5,1759.9343,386.5,1769.9343,390.5,1759.9343,386.5,1763.9343" style="stroke:#000000;stroke-width:1.0;"/><line style="stroke:#000000;stroke-width:1.0;" x1="577.5" x2="628.5" y1="1747.9343" y2="1747.9343"/><line style="stroke:#000000;stroke-width:1.0;" x1="628.5" x2="628.5" y1="1747.9343" y2="1769.9343"/><polygon fill="#000000" points="624.5,1759.9343,628.5,1769.9343,632.5,1759.9343,628.5,1763.9343" style="stroke:#000000;stroke-width:1.0;"/><line style="stroke:#000000;stroke-width:1.0;" x1="386.5" x2="386.5" y1="1804.5183" y2="1822.5183"/><line style="stroke:#000000;stroke-width:1.0;" x1="386.5" x2="495.5" y1="1822.5183" y2="1822.5183"/><polygon fill="#000000" points="485.5,1818.5183,495.5,1822.5183,485.5,1826.5183,489.5,1822.5183" style="stroke:#000000;stroke-width:1.0;"/><line style="stroke:#000000;stroke-width:1.0;" x1="628.5" x2="628.5" y1="1804.5183" y2="1822.5183"/><line style="stroke:#000000;stroke-width:1.0;" x1="628.5" x2="519.5" y1="1822.5183" y2="1822.5183"/><polygon fill="#000000" points="529.5,1818.5183,519.5,1822.5183,529.5,1826.5183,525.5,1822.5183" style="stroke:#000000;stroke-width:1.0;"/><line style="stroke:#000000;stroke-width:1.0;" x1="507.5" x2="507.5" y1="1715.9343" y2="1735.9343"/><polygon fill="#000000" points="503.5,1725.9343,507.5,1735.9343,511.5,1725.9343,507.5,1729.9343" style="stroke:#000000;stroke-width:1.0;"/><line style="stroke:#000000;stroke-width:1.0;" x1="207" x2="137.5" y1="1644.7664" y2="1644.7664"/><line style="stroke:#000000;stroke-width:1.0;" x1="137.5" x2="137.5" y1="1644.7664" y2="1666.7664"/><polygon fill="#000000" points="133.5,1656.7664,137.5,1666.7664,141.5,1656.7664,137.5,1660.7664" style="stroke:#000000;stroke-width:1.0;"/><line style="stroke:#000000;stroke-width:1.0;" x1="438" x2="507.5" y1="1644.7664" y2="1644.7664"/><line style="stroke:#000000;stroke-width:1.0;" x1="507.5" x2="507.5" y1="1644.7664" y2="1666.7664"/><polygon fill="#000000" points="503.5,1656.7664,507.5,1666.7664,511.5,1656.7664,507.5,1660.7664" style="stroke:#000000;stroke-width:1.0;"/><line style="stroke:#000000;stroke-width:1.0;" x1="137.5" x2="137.5" y1="1701.3503" y2="1852.5183"/><line style="stroke:#000000;stroke-width:1.0;" x1="137.5" x2="310.5" y1="1852.5183" y2="1852.5183"/><polygon fill="#000000" points="300.5,1848.5183,310.5,1852.5183,300.5,1856.5183,304.5,1852.5183" style="stroke:#000000;stroke-width:1.0;"/><line style="stroke:#000000;stroke-width:1.0;" x1="507.5" x2="507.5" y1="1834.5183" y2="1852.5183"/><line style="stroke:#000000;stroke-width:1.0;" x1="507.5" x2="334.5" y1="1852.5183" y2="1852.5183"/><polygon fill="#000000" points="344.5,1848.5183,334.5,1852.5183,344.5,1856.5183,340.5,1852.5183" style="stroke:#000000;stroke-width:1.0;"/><line style="stroke:#000000;stroke-width:1.0;" x1="322.5" x2="322.5" y1="1612.7664" y2="1632.7664"/><polygon fill="#000000" points="318.5,1622.7664,322.5,1632.7664,326.5,1622.7664,322.5,1626.7664" style="stroke:#000000;stroke-width:1.0;"/><line style="stroke:#000000;stroke-width:1.0;" x1="322.5" x2="322.5" y1="1864.5183" y2="1884.5183"/><polygon fill="#000000" points="318.5,1874.5183,322.5,1884.5183,326.5,1874.5183,322.5,1878.5183" style="stroke:#000000;stroke-width:1.0;"/><line style="stroke:#000000;stroke-width:1.0;" x1="322.5" x2="322.5" y1="1407.4158" y2="1454.4304"/><polygon fill="#000000" points="318.5,1444.4304,322.5,1454.4304,326.5,1444.4304,322.5,1448.4304" style="stroke:#000000;stroke-width:1.0;"/><line style="stroke:#000000;stroke-width:1.0;" x1="322.5" x2="322.5" y1="1919.1023" y2="1951.1023"/><polygon fill="#000000" points="318.5,1941.1023,322.5,1951.1023,326.5,1941.1023,322.5,1945.1023" style="stroke:#000000;stroke-width:1.0;"/><line style="stroke:#000000;stroke-width:1.0;" x1="322.5" x2="322.5" y1="2000.2703" y2="2020.2703"/><polygon fill="#000000" points="318.5,2010.2703,322.5,2020.2703,326.5,2010.2703,322.5,2014.2703" style="stroke:#000000;stroke-width:1.0;"/><line style="stroke:#000000;stroke-width:1.0;" x1="182.75" x2="182.75" y1="2266.2048" y2="2300.7888"/><polygon fill="#000000" points="178.75,2290.7888,182.75,2300.7888,186.75,2290.7888,182.75,2294.7888" style="stroke:#000000;stroke-width:1.0;"/><line style="stroke:#000000;stroke-width:1.0;" x1="462.25" x2="462.25" y1="2251.6208" y2="2286.2048"/><polygon fill="#000000" points="458.25,2276.2048,462.25,2286.2048,466.25,2276.2048,462.25,2280.2048" style="stroke:#000000;stroke-width:1.0;"/><line style="stroke:#000000;stroke-width:1.0;" x1="206.5" x2="182.75" y1="2195.0369" y2="2195.0369"/><line style="stroke:#000000;stroke-width:1.0;" x1="182.75" x2="182.75" y1="2195.0369" y2="2217.0369"/><polygon fill="#000000" points="178.75,2207.0369,182.75,2217.0369,186.75,2207.0369,182.75,2211.0369" style="stroke:#000000;stroke-width:1.0;"/><line style="stroke:#000000;stroke-width:1.0;" x1="438.5" x2="462.25" y1="2195.0369" y2="2195.0369"/><line style="stroke:#000000;stroke-width:1.0;" x1="462.25" x2="462.25" y1="2195.0369" y2="2217.0369"/><polygon fill="#000000" points="458.25,2207.0369,462.25,2217.0369,466.25,2207.0369,462.25,2211.0369" style="stroke:#000000;stroke-width:1.0;"/><line style="stroke:#000000;stroke-width:1.0;" x1="182.75" x2="182.75" y1="2335.3728" y2="2353.3728"/><line style="stroke:#000000;stroke-width:1.0;" x1="182.75" x2="310.5" y1="2353.3728" y2="2353.3728"/><polygon fill="#000000" points="300.5,2349.3728,310.5,2353.3728,300.5,2357.3728,304.5,2353.3728" style="stroke:#000000;stroke-width:1.0;"/><line style="stroke:#000000;stroke-width:1.0;" x1="462.25" x2="462.25" y1="2320.7888" y2="2353.3728"/><line style="stroke:#000000;stroke-width:1.0;" x1="462.25" x2="334.5" y1="2353.3728" y2="2353.3728"/><polygon fill="#000000" points="344.5,2349.3728,334.5,2353.3728,344.5,2357.3728,340.5,2353.3728" style="stroke:#000000;stroke-width:1.0;"/><line style="stroke:#000000;stroke-width:1.0;" x1="322.5" x2="322.5" y1="2163.0369" y2="2183.0369"/><polygon fill="#000000" points="318.5,2173.0369,322.5,2183.0369,326.5,2173.0369,322.5,2177.0369" style="stroke:#000000;stroke-width:1.0;"/><line style="stroke:#000000;stroke-width:1.0;" x1="322.5" x2="322.5" y1="2365.3728" y2="2385.3728"/><polygon fill="#000000" points="318.5,2375.3728,322.5,2385.3728,326.5,2375.3728,322.5,2379.3728" style="stroke:#000000;stroke-width:1.0;"/><line style="stroke:#000000;stroke-width:1.0;" x1="322.5" x2="322.5" y1="2069.4382" y2="2128.4529"/><polygon fill="#000000" points="318.5,2118.4529,322.5,2128.4529,326.5,2118.4529,322.5,2122.4529" style="stroke:#000000;stroke-width:1.0;"/><line style="stroke:#000000;stroke-width:1.0;" x1="322.5" x2="322.5" y1="2528.1394" y2="2548.1394"/><polygon fill="#000000" points="318.5,2538.1394,322.5,2548.1394,326.5,2538.1394,322.5,2542.1394" style="stroke:#000000;stroke-width:1.0;"/><line style="stroke:#000000;stroke-width:1.0;" x1="322.5" x2="322.5" y1="2597.3074" y2="2617.3074"/><polygon fill="#000000" points="318.5,2607.3074,322.5,2617.3074,326.5,2607.3074,322.5,2611.3074" style="stroke:#000000;stroke-width:1.0;"/><line style="stroke:#000000;stroke-width:1.0;" x1="322.5" x2="322.5" y1="2434.5408" y2="2493.5554"/><polygon fill="#000000" points="318.5,2483.5554,322.5,2493.5554,326.5,2483.5554,322.5,2487.5554" style="stroke:#000000;stroke-width:1.0;"/><line style="stroke:#000000;stroke-width:1.0;" x1="583.5" x2="322.5" y1="715.7947" y2="715.7947"/><line style="stroke:#000000;stroke-width:1.0;" x1="322.5" x2="322.5" y1="715.7947" y2="774.8093"/><polygon fill="#000000" points="318.5,764.8093,322.5,774.8093,326.5,764.8093,322.5,768.8093" style="stroke:#000000;stroke-width:1.0;"/><line style="stroke:#000000;stroke-width:1.0;" x1="749.5" x2="1010.5" y1="715.7947" y2="715.7947"/><line style="stroke:#000000;stroke-width:1.0;" x1="1010.5" x2="1010.5" y1="715.7947" y2="737.7947"/><polygon fill="#000000" points="1006.5,727.7947,1010.5,737.7947,1014.5,727.7947,1010.5,731.7947" style="stroke:#000000;stroke-width:1.0;"/><line style="stroke:#000000;stroke-width:1.0;" x1="322.5" x2="322.5" y1="2666.4753" y2="2696.4753"/><line style="stroke:#000000;stroke-width:1.0;" x1="322.5" x2="654.5" y1="2696.4753" y2="2696.4753"/><polygon fill="#000000" points="644.5,2692.4753,654.5,2696.4753,644.5,2700.4753,648.5,2696.4753" style="stroke:#000000;stroke-width:1.0;"/><line style="stroke:#000000;stroke-width:1.0;" x1="1010.5" x2="1010.5" y1="772.3787" y2="2696.4753"/><line style="stroke:#000000;stroke-width:1.0;" x1="1010.5" x2="678.5" y1="2696.4753" y2="2696.4753"/><polygon fill="#000000" points="688.5,2692.4753,678.5,2696.4753,688.5,2700.4753,684.5,2696.4753" style="stroke:#000000;stroke-width:1.0;"/><line style="stroke:#000000;stroke-width:1.0;" x1="666.5" x2="666.5" y1="671.7947" y2="703.7947"/><polygon fill="#000000" points="662.5,693.7947,666.5,703.7947,670.5,693.7947,666.5,697.7947" style="stroke:#000000;stroke-width:1.0;"/><line style="stroke:#000000;stroke-width:1.0;" x1="666.5" x2="666.5" y1="2708.4753" y2="2728.4753"/><polygon fill="#000000" points="662.5,2718.4753,666.5,2728.4753,670.5,2718.4753,666.5,2722.4753" style="stroke:#000000;stroke-width:1.0;"/><line style="stroke:#000000;stroke-width:1.0;" x1="666.5" x2="666.5" y1="2763.0593" y2="2783.0593"/><polygon fill="#000000" points="662.5,2773.0593,666.5,2783.0593,670.5,2773.0593,666.5,2777.0593" style="stroke:#000000;stroke-width:1.0;"/><!--SRC=[fLZfR-965F_kl-BjLcg1PjKD9DKkUrJ4c8GLHuf9gqf8Q68_O1GpTZr33bNvt_l6umE38TcMB-2PT__UPTwe5QuHee1nOIck0eGhz9TSBA6B2Zt5Gm7lO4ZNq0l21ylwYIuMN21uOH36qdhZcqTtshbqJkVsU32Um0zEgzViTSkNpUoor-jzjC_AbwtiqlxW_6f_B5-U5PosVM6NBy_povPptZktB7d7HSHYjWP6zjzpzGJ_M42V2-RTBUDm8tnRs_xviwlO4a-_VYqPVuIqcP4sNoHjPQIj5qdFCjAp5qdFCzBKQUkPt5KiLfRL_XRUmZJcooN6wCz4pRd7-0dEOSt5Hg6i5-v-iYoA3w6jmNtRQ5olc4GuRSCbAe9QUIkKe4AuZaCFfMmqtgO1RDii2C2zReCzTUTTUvuG3qF1LHZF9vi0q-IPawHjVPhPI9WWyo5WKe6BVszGUDZlpiGY3jVWFac5wskD7ALUlCilGeL0_grKygW_0twFRSWv-btu0gVDz_dzA1JL9AS92Ge_aRfhNaoEW4Ibo1D9aPpoDReAenEOXee5PDOTrbzXdWx89M4O9LfRnJaoIP4dG_AZJ8K-_F2Ub7kXyEKXAmSXMJd5TJGV1twYWQp4HowrnQ3J9fBrwlWJWjucO6Ih8fNmm8KVFip4a3rg4qZza8jfp8JiQfgVSyEgfVs-qJb66PXq3CLk0vo9oyduvXek_ZAfrE-UWEk5CNRvOd4o4nSKrwS8zJ7zJByKilK9PCxeZBZg_D4VNO8zlXbDQzs-E-sFx2dO6qaiTVWAfpFH6NN1lHdM31xmzSiMF9NcLa3KQBWHUfm5qECO-BBTQEHtxw2pHA5C7vnJnXlj0mfpJWDGwmJHYlr20Robwc6QGzOFfvVQn0BMEZ0fJjkMKZNp1TIkc3GafWmZKuQ_rO6QjO3Q4wOAAegusSwg5Xn6EX88eDPyDy1x398w208CwaLDwyyYZE-sN2933TzfqVS-bOZ9JpqmAbYQtyyogcBHmIkPbV-eGD4WwJnIWGjMUCdbUWlEf25irhSOGxZ8uvi65tsW2HUbZ2KhSWXBLfHYtnSxcZCGg2hAaQwCTXAB9FEh8tuaX5kipV_EEZp4keT2AGP7q328xCLb7v4oAgOa8AAd1A0zOqfWFE_3qfxeaQbdMKVAa0exWIXVPQXDji2BEPd5MPlExxc79z3fdq3_kbuLXKBogsTVYlrCF72rIbgMYV8tTpmwhg8l9FSnhs1ITfpUo5NSkqCbuVQf62Ech-lXjJLENdOm7Grz-GSBk6d6xPdudqtuaBeOjQvaZDdXEWe89D_CaAECvSgJsRfghz2xWq4OHliLr-w5CQ3kX-byQHzA-3ARteSyyZPSOonrWqZoytMynXuTJba80OzM7yaNt6DfEkOEcALWE8H5m9RrL-dGiyBE95FxXprX-pEZPADB_XKH9EWcDyx1LX3GUAc9i49CLXcKAQOqjcfltfVP4_gf9ctpnLCnJG-ft7CuSxgG22iZyhYZt-tiSOShnVKw0_UuFE7pXNNyf9n2Dv6_No5LAYeReLarl9GlRQsKSKbNAYm_c6wxFPLMYmccun8sGkVnKYHl6iME-tvFqdEn_LIiAotgffc1FuBBxh5SlEqXnilCzgJ1wTMqb3MjIfjrbfZj8bcBa-BTRjWq4HWFvE6qIJKBVCZwQzhFypKxQxkrcr5_FAfNcMDGlEvsfawLzYgMwgnhzqUkCvcMX1nKM45xJ64f2QrTitTsUzUPPZrKBmRW9vDLzsqJZLqDn-4_8_W3P09SesK7_5TFt9GzaLMyL5UbSjSPEEHLRp8UxhhsvvKpSRRUIk4plGonn-BWkEGqNZiliIPY-IEDrKtoadLCxhDLJeBsAAnu7IZ-4VXa6GpDNm3UJgD822mQ4f7rBm00]--></g></svg>