<svg xmlns="http://www.w3.org/2000/svg" xmlns:xlink="http://www.w3.org/1999/xlink" contentStyleType="text/css" height="2104px" preserveAspectRatio="none" style="width:1505px;height:2104px;background:#FFFFFF;" version="1.1" viewBox="0 0 1505 2104" width="1505px" zoomAndPan="magnify"><defs/><g><text fill="#000000" font-family="Arial" font-size="16" font-weight="bold" lengthAdjust="spacing" textLength="272" x="615" y="35.2695">Probation Classification - Main Flow</text><rect fill="none" height="13.7988" style="stroke:none;stroke-width:1.0;" width="1472" x="15" y="50.3984"/><ellipse cx="200.5" cy="79.1973" fill="#222222" rx="10" ry="10" style="stroke:#222222;stroke-width:1.0;"/><path d="M400,107.2979 L400,122.0967 L380,126.0967 L400,130.0967 L400,144.8955 A0,0 0 0 0 400,144.8955 L537,144.8955 A0,0 0 0 0 537,144.8955 L537,117.2979 L527,107.2979 L400,107.2979 A0,0 0 0 0 400,107.2979 " fill="#FEFFDD" style="stroke:#181818;stroke-width:0.5;"/><path d="M527,107.2979 L527,117.2979 L537,117.2979 L527,107.2979 " fill="#FEFFDD" style="stroke:#181818;stroke-width:0.5;"/><text fill="#000000" font-family="Arial" font-size="12" lengthAdjust="spacing" textLength="116" x="406" y="123.75">Batch size parameter</text><text fill="#000000" font-family="Arial" font-size="12" lengthAdjust="spacing" textLength="113" x="406" y="137.5488">Ex: batchSize = 5000</text><rect fill="#F1F1F1" height="33.7988" rx="12.5" ry="12.5" style="stroke:#181818;stroke-width:0.5;" width="359" x="21" y="109.1973"/><text fill="#000000" font-family="Arial" font-size="12" lengthAdjust="spacing" textLength="339" x="31" y="130.6494">POST /api/classificationJobs/scanningProbationClassification</text><rect fill="#F1F1F1" height="33.7988" rx="12.5" ry="12.5" style="stroke:#181818;stroke-width:0.5;" width="124" x="138.5" y="164.8955"/><text fill="#000000" font-family="Arial" font-size="12" lengthAdjust="spacing" textLength="104" x="148.5" y="186.3477">Execute(batchSize)</text><rect fill="#F1F1F1" height="33.7988" rx="12.5" ry="12.5" style="stroke:#181818;stroke-width:0.5;" width="140" x="130.5" y="218.6943"/><text fill="#000000" font-family="Arial" font-size="12" lengthAdjust="spacing" textLength="120" x="140.5" y="240.1465">Validate batchSize &gt; 0</text><path d="M229.5,262.4932 L229.5,313.8896 L521.5,313.8896 L521.5,272.4932 L511.5,262.4932 L229.5,262.4932 " fill="#FEFFDD" style="stroke:#181818;stroke-width:0.5;"/><path d="M511.5,262.4932 L511.5,272.4932 L521.5,272.4932 L511.5,262.4932 " fill="#FEFFDD" style="stroke:#181818;stroke-width:0.5;"/><text fill="#000000" font-family="Arial" font-size="12" font-weight="bold" lengthAdjust="spacing" textLength="91" x="235.5" y="278.9453">Pagination Loop</text><text fill="#000000" font-family="Arial" font-size="12" lengthAdjust="spacing" textLength="3" x="326.5" y="278.9453">:</text><text fill="#000000" font-family="Arial" font-size="12" lengthAdjust="spacing" textLength="271" x="235.5" y="292.7441">Continue until all probation customers processed</text><text fill="#000000" font-family="Arial" font-size="12" lengthAdjust="spacing" textLength="256" x="235.5" y="306.543">Uses system parameters for progress tracking</text><polygon fill="#F1F1F1" points="183.5,313.8896,217.5,313.8896,229.5,325.8896,217.5,337.8896,183.5,337.8896,171.5,325.8896,183.5,313.8896" style="stroke:#181818;stroke-width:0.5;"/><text fill="#000000" font-family="Arial" font-size="12" lengthAdjust="spacing" textLength="34" x="183.5" y="330.4424">Valid?</text><text fill="#000000" font-family="Arial" font-size="12" lengthAdjust="spacing" textLength="19" x="152.5" y="323.543">yes</text><text fill="#000000" font-family="Arial" font-size="12" lengthAdjust="spacing" textLength="14" x="229.5" y="323.543">no</text><rect fill="#F1F1F1" height="33.7988" rx="12.5" ry="12.5" style="stroke:#181818;stroke-width:0.5;" width="124" x="53.5" y="347.8896"/><text fill="#000000" font-family="Arial" font-size="12" lengthAdjust="spacing" textLength="104" x="63.5" y="369.3418">JobRun(batchSize)</text><rect fill="#F1F1F1" height="33.7988" rx="12.5" ry="12.5" style="stroke:#181818;stroke-width:0.5;" width="176" x="197.5" y="347.8896"/><text fill="#000000" font-family="Arial" font-size="12" lengthAdjust="spacing" textLength="156" x="207.5" y="369.3418">Log Error - Invalid Batch Size</text><ellipse cx="285.5" cy="412.6885" fill="none" rx="11" ry="11" style="stroke:#222222;stroke-width:1.0;"/><ellipse cx="285.5" cy="412.6885" fill="#222222" rx="6" ry="6" style="stroke:#222222;stroke-width:1.0;"/><path d="M286.5,1517.7773 L286.5,1582.9727 L556.5,1582.9727 L556.5,1527.7773 L546.5,1517.7773 L286.5,1517.7773 " fill="#FEFFDD" style="stroke:#181818;stroke-width:0.5;"/><path d="M546.5,1517.7773 L546.5,1527.7773 L556.5,1527.7773 L546.5,1517.7773 " fill="#FEFFDD" style="stroke:#181818;stroke-width:0.5;"/><text fill="#000000" font-family="Arial" font-size="12" font-weight="bold" lengthAdjust="spacing" textLength="88" x="292.5" y="1534.2295">Job Completion</text><text fill="#000000" font-family="Arial" font-size="12" lengthAdjust="spacing" textLength="3" x="380.5" y="1534.2295">:</text><text fill="#000000" font-family="Arial" font-size="12" lengthAdjust="spacing" textLength="192" x="292.5" y="1548.0283">All probation customers processed</text><text fill="#000000" font-family="Arial" font-size="12" lengthAdjust="spacing" textLength="249" x="292.5" y="1561.8271">System parameters updated to latest position</text><text fill="#000000" font-family="Arial" font-size="12" lengthAdjust="spacing" textLength="118" x="292.5" y="1575.626">Ready for next job run</text><path d="M247.5,1602.9727 L247.5,2040.7363 L595.5,2040.7363 L595.5,1612.9727 L585.5,1602.9727 L247.5,1602.9727 " fill="#FEFFDD" style="stroke:#181818;stroke-width:0.5;"/><path d="M585.5,1602.9727 L585.5,1612.9727 L595.5,1612.9727 L585.5,1602.9727 " fill="#FEFFDD" style="stroke:#181818;stroke-width:0.5;"/><text fill="#000000" font-family="Arial" font-size="12" font-weight="bold" lengthAdjust="spacing" textLength="112" x="253.5" y="1619.4248">Key Characteristics</text><text fill="#000000" font-family="Arial" font-size="12" lengthAdjust="spacing" textLength="3" x="365.5" y="1619.4248">:</text><text fill="#000000" font-family="Arial" font-size="12" lengthAdjust="spacing" textLength="3" x="253.5" y="1633.2236">&#160;</text><text fill="#000000" font-family="Arial" font-size="12" lengthAdjust="spacing" textLength="10" x="253.5" y="1647.0225">1.</text><text fill="#000000" font-family="Arial" font-size="12" font-weight="bold" lengthAdjust="spacing" textLength="82" x="266.5" y="1647.0225">Do-While Loop</text><text fill="#000000" font-family="Arial" font-size="12" lengthAdjust="spacing" textLength="81" x="351.5" y="1647.0225">(not recursive):</text><text fill="#000000" font-family="Arial" font-size="12" lengthAdjust="spacing" textLength="124" x="262.5" y="1660.8213">- Simple loop structure</text><text fill="#000000" font-family="Arial" font-size="12" lengthAdjust="spacing" textLength="285" x="262.5" y="1674.6201">- Continues until all probation customers processed</text><text fill="#000000" font-family="Arial" font-size="12" lengthAdjust="spacing" textLength="105" x="262.5" y="1688.4189">- No recursive calls</text><text fill="#000000" font-family="Arial" font-size="12" lengthAdjust="spacing" textLength="3" x="253.5" y="1702.2178">&#160;</text><text fill="#000000" font-family="Arial" font-size="12" lengthAdjust="spacing" textLength="10" x="253.5" y="1716.0166">2.</text><text fill="#000000" font-family="Arial" font-size="12" font-weight="bold" lengthAdjust="spacing" textLength="204" x="266.5" y="1716.0166">Pagination with System Parameters</text><text fill="#000000" font-family="Arial" font-size="12" lengthAdjust="spacing" textLength="3" x="470.5" y="1716.0166">:</text><text fill="#000000" font-family="Arial" font-size="12" lengthAdjust="spacing" textLength="236" x="262.5" y="1729.8154">- LastCustID and LastCategoryID persisted</text><text fill="#000000" font-family="Arial" font-size="12" lengthAdjust="spacing" textLength="118" x="262.5" y="1743.6143">- Survives job restarts</text><text fill="#000000" font-family="Arial" font-size="12" lengthAdjust="spacing" textLength="181" x="262.5" y="1757.4131">- Enables resumable processing</text><text fill="#000000" font-family="Arial" font-size="12" lengthAdjust="spacing" textLength="139" x="262.5" y="1771.2119">- No risk of re-processing</text><text fill="#000000" font-family="Arial" font-size="12" lengthAdjust="spacing" textLength="3" x="253.5" y="1785.0107">&#160;</text><text fill="#000000" font-family="Arial" font-size="12" lengthAdjust="spacing" textLength="10" x="253.5" y="1798.8096">3.</text><text fill="#000000" font-family="Arial" font-size="12" font-weight="bold" lengthAdjust="spacing" textLength="107" x="266.5" y="1798.8096">Simple Processing</text><text fill="#000000" font-family="Arial" font-size="12" lengthAdjust="spacing" textLength="3" x="373.5" y="1798.8096">:</text><text fill="#000000" font-family="Arial" font-size="12" lengthAdjust="spacing" textLength="238" x="262.5" y="1812.6084">- No batch chunking (processes all at once)</text><text fill="#000000" font-family="Arial" font-size="12" lengthAdjust="spacing" textLength="132" x="262.5" y="1826.4072">- No parallel processing</text><text fill="#000000" font-family="Arial" font-size="12" lengthAdjust="spacing" textLength="176" x="262.5" y="1840.2061">- Straightforward sequential flow</text><text fill="#000000" font-family="Arial" font-size="12" lengthAdjust="spacing" textLength="3" x="253.5" y="1854.0049">&#160;</text><text fill="#000000" font-family="Arial" font-size="12" lengthAdjust="spacing" textLength="10" x="253.5" y="1867.8037">4.</text><text fill="#000000" font-family="Arial" font-size="12" font-weight="bold" lengthAdjust="spacing" textLength="97" x="266.5" y="1867.8037">No External Push</text><text fill="#000000" font-family="Arial" font-size="12" lengthAdjust="spacing" textLength="3" x="363.5" y="1867.8037">:</text><text fill="#000000" font-family="Arial" font-size="12" lengthAdjust="spacing" textLength="202" x="262.5" y="1881.6025">- Classification changes internal only</text><text fill="#000000" font-family="Arial" font-size="12" lengthAdjust="spacing" textLength="113" x="262.5" y="1895.4014">- No push to MainDB</text><text fill="#000000" font-family="Arial" font-size="12" lengthAdjust="spacing" textLength="119" x="262.5" y="1909.2002">- No external API calls</text><text fill="#000000" font-family="Arial" font-size="12" lengthAdjust="spacing" textLength="3" x="253.5" y="1922.999">&#160;</text><text fill="#000000" font-family="Arial" font-size="12" lengthAdjust="spacing" textLength="10" x="253.5" y="1936.7979">5.</text><text fill="#000000" font-family="Arial" font-size="12" font-weight="bold" lengthAdjust="spacing" textLength="99" x="266.5" y="1936.7979">Probation Review</text><text fill="#000000" font-family="Arial" font-size="12" lengthAdjust="spacing" textLength="3" x="365.5" y="1936.7979">:</text><text fill="#000000" font-family="Arial" font-size="12" lengthAdjust="spacing" textLength="210" x="262.5" y="1950.5967">- Re-classifies customers in probation</text><text fill="#000000" font-family="Arial" font-size="12" lengthAdjust="spacing" textLength="226" x="262.5" y="1964.3955">- Based on performance during probation</text><text fill="#000000" font-family="Arial" font-size="12" lengthAdjust="spacing" textLength="264" x="262.5" y="1978.1943">- Can upgrade, downgrade, or maintain category</text><text fill="#000000" font-family="Arial" font-size="12" lengthAdjust="spacing" textLength="3" x="253.5" y="1991.9932">&#160;</text><text fill="#000000" font-family="Arial" font-size="12" font-weight="bold" lengthAdjust="spacing" textLength="251" x="253.5" y="2005.792">Comparison with DailyProblemClassification</text><text fill="#000000" font-family="Arial" font-size="12" lengthAdjust="spacing" textLength="3" x="504.5" y="2005.792">:</text><text fill="#000000" font-family="Arial" font-size="12" lengthAdjust="spacing" textLength="327" x="253.5" y="2019.5908">- DailyProblem: Recursive, queue-based, with external push</text><text fill="#000000" font-family="Arial" font-size="12" lengthAdjust="spacing" textLength="289" x="253.5" y="2033.3896">- Probation: Do-while, parameter-based, internal only</text><rect fill="#F1F1F1" height="33.7988" rx="12.5" ry="12.5" style="stroke:#181818;stroke-width:0.5;" width="74" x="163.5" y="1762.3574"/><text fill="#000000" font-family="Arial" font-size="12" lengthAdjust="spacing" textLength="54" x="173.5" y="1783.8096">Complete</text><ellipse cx="200.5" cy="2081.7363" fill="none" rx="11" ry="11" style="stroke:#222222;stroke-width:1.0;"/><ellipse cx="200.5" cy="2081.7363" fill="#222222" rx="6" ry="6" style="stroke:#222222;stroke-width:1.0;"/><line style="stroke:#000000;stroke-width:1.5;" x1="15" x2="15" y1="50.3984" y2="2092.7363"/><line style="stroke:#000000;stroke-width:1.5;" x1="610.5" x2="610.5" y1="50.3984" y2="2092.7363"/><path d="M1018.5,492.6885 L1018.5,500.5879 L998.5,504.5879 L1018.5,508.5879 L1018.5,516.4873 A0,0 0 0 0 1018.5,516.4873 L1172.5,516.4873 A0,0 0 0 0 1172.5,516.4873 L1172.5,502.6885 L1162.5,492.6885 L1018.5,492.6885 A0,0 0 0 0 1018.5,492.6885 " fill="#FEFFDD" style="stroke:#181818;stroke-width:0.5;"/><path d="M1162.5,492.6885 L1162.5,502.6885 L1172.5,502.6885 L1162.5,492.6885 " fill="#FEFFDD" style="stroke:#181818;stroke-width:0.5;"/><text fill="#000000" font-family="Arial" font-size="12" lengthAdjust="spacing" textLength="133" x="1024.5" y="509.1406">Initialize ProbationModel</text><rect fill="#F1F1F1" height="33.7988" rx="12.5" ry="12.5" style="stroke:#181818;stroke-width:0.5;" width="53" x="945.5" y="487.6885"/><text fill="#000000" font-family="Arial" font-size="12" lengthAdjust="spacing" textLength="33" x="955.5" y="509.1406">Start()</text><path d="M1116.5,531.4873 L1116.5,635.9785 L1096.5,639.9785 L1116.5,643.9785 L1116.5,748.4697 A0,0 0 0 0 1116.5,748.4697 L1358.5,748.4697 A0,0 0 0 0 1358.5,748.4697 L1358.5,541.4873 L1348.5,531.4873 L1116.5,531.4873 A0,0 0 0 0 1116.5,531.4873 " fill="#FEFFDD" style="stroke:#181818;stroke-width:0.5;"/><path d="M1348.5,531.4873 L1348.5,541.4873 L1358.5,541.4873 L1348.5,531.4873 " fill="#FEFFDD" style="stroke:#181818;stroke-width:0.5;"/><text fill="#000000" font-family="Arial" font-size="12" font-weight="bold" lengthAdjust="spacing" textLength="143" x="1122.5" y="547.9395">Get Probation Customers</text><text fill="#000000" font-family="Arial" font-size="12" lengthAdjust="spacing" textLength="3" x="1265.5" y="547.9395">:</text><text fill="#000000" font-family="Arial" font-size="12" lengthAdjust="spacing" textLength="198" x="1122.5" y="561.7383">- FROM CTSCustomerClassification</text><text fill="#000000" font-family="Arial" font-size="12" lengthAdjust="spacing" textLength="206" x="1122.5" y="575.5371">- WHERE ProbationEndDate &gt; NOW()</text><text fill="#000000" font-family="Arial" font-size="12" lengthAdjust="spacing" textLength="217" x="1122.5" y="589.3359">- AND CustID &gt; LastCustID (pagination)</text><text fill="#000000" font-family="Arial" font-size="12" lengthAdjust="spacing" textLength="177" x="1122.5" y="603.1348">- ORDER BY CustID, CategoryID</text><text fill="#000000" font-family="Arial" font-size="12" lengthAdjust="spacing" textLength="92" x="1122.5" y="616.9336">- LIMIT batchSize</text><text fill="#000000" font-family="Arial" font-size="12" lengthAdjust="spacing" textLength="3" x="1122.5" y="630.7324">&#160;</text><text fill="#000000" font-family="Arial" font-size="12" font-weight="bold" lengthAdjust="spacing" textLength="146" x="1122.5" y="644.5313">System Parameters Used</text><text fill="#000000" font-family="Arial" font-size="12" lengthAdjust="spacing" textLength="3" x="1268.5" y="644.5313">:</text><text fill="#000000" font-family="Arial" font-size="12" lengthAdjust="spacing" textLength="221" x="1122.5" y="658.3301">- DailyProbation_LastCustID (start point)</text><text fill="#000000" font-family="Arial" font-size="12" lengthAdjust="spacing" textLength="179" x="1122.5" y="672.1289">- DailyProbation_LastCategoryID</text><text fill="#000000" font-family="Arial" font-size="12" lengthAdjust="spacing" textLength="3" x="1122.5" y="685.9277">&#160;</text><text fill="#000000" font-family="Arial" font-size="12" font-weight="bold" lengthAdjust="spacing" textLength="45" x="1122.5" y="699.7266">Returns</text><text fill="#000000" font-family="Arial" font-size="12" lengthAdjust="spacing" textLength="3" x="1167.5" y="699.7266">:</text><text fill="#000000" font-family="Arial" font-size="12" lengthAdjust="spacing" textLength="221" x="1122.5" y="713.5254">- ProbationEntity[] (CustId, SportGroupId)</text><text fill="#000000" font-family="Arial" font-size="12" lengthAdjust="spacing" textLength="174" x="1122.5" y="727.3242">- LastCustID (output parameter)</text><text fill="#000000" font-family="Arial" font-size="12" lengthAdjust="spacing" textLength="197" x="1122.5" y="741.123">- LastCategoryID (output parameter)</text><rect fill="#F1F1F1" height="33.7988" rx="12.5" ry="12.5" style="stroke:#181818;stroke-width:0.5;" width="249" x="847.5" y="623.0791"/><text fill="#000000" font-family="Arial" font-size="12" lengthAdjust="spacing" textLength="229" x="857.5" y="644.5313">GetProbationCustForScanning(batchSize)</text><path d="M707.5,758.4697 L707.5,809.8662 L886.5,809.8662 L886.5,768.4697 L876.5,758.4697 L707.5,758.4697 " fill="#FEFFDD" style="stroke:#181818;stroke-width:0.5;"/><path d="M876.5,758.4697 L876.5,768.4697 L886.5,768.4697 L876.5,758.4697 " fill="#FEFFDD" style="stroke:#181818;stroke-width:0.5;"/><text fill="#000000" font-family="Arial" font-size="12" font-weight="bold" lengthAdjust="spacing" textLength="137" x="713.5" y="774.9219">No probation customers</text><text fill="#000000" font-family="Arial" font-size="12" lengthAdjust="spacing" textLength="3" x="850.5" y="774.9219">:</text><text fill="#000000" font-family="Arial" font-size="12" lengthAdjust="spacing" textLength="137" x="713.5" y="788.7207">All customers processed</text><text fill="#000000" font-family="Arial" font-size="12" lengthAdjust="spacing" textLength="158" x="713.5" y="802.5195">or no customers in probation</text><path d="M1054.5,856.8184 L1054.5,995.8066 L1034.5,999.8066 L1054.5,1003.8066 L1054.5,1142.7949 A0,0 0 0 0 1054.5,1142.7949 L1457.5,1142.7949 A0,0 0 0 0 1457.5,1142.7949 L1457.5,866.8184 L1447.5,856.8184 L1054.5,856.8184 A0,0 0 0 0 1054.5,856.8184 " fill="#FEFFDD" style="stroke:#181818;stroke-width:0.5;"/><path d="M1447.5,856.8184 L1447.5,866.8184 L1457.5,866.8184 L1447.5,856.8184 " fill="#FEFFDD" style="stroke:#181818;stroke-width:0.5;"/><text fill="#000000" font-family="Arial" font-size="12" font-weight="bold" lengthAdjust="spacing" textLength="188" x="1060.5" y="873.2705">Re-Classify Probation Customers</text><text fill="#000000" font-family="Arial" font-size="12" lengthAdjust="spacing" textLength="3" x="1248.5" y="873.2705">:</text><text fill="#000000" font-family="Arial" font-size="12" lengthAdjust="spacing" textLength="255" x="1060.5" y="887.0693">1. Convert CustIDs to comma-separated string</text><text fill="#000000" font-family="Arial" font-size="12" lengthAdjust="spacing" textLength="382" x="1060.5" y="900.8682">2. Call SP: CTS_GeneralNormalClassification_Probation_Preprocess</text><text fill="#000000" font-family="Arial" font-size="12" lengthAdjust="spacing" textLength="3" x="1060.5" y="914.667">&#160;</text><text fill="#000000" font-family="Arial" font-size="12" font-weight="bold" lengthAdjust="spacing" textLength="130" x="1060.5" y="928.4658">Re-Classification Logic</text><text fill="#000000" font-family="Arial" font-size="12" lengthAdjust="spacing" textLength="3" x="1190.5" y="928.4658">:</text><text fill="#000000" font-family="Arial" font-size="12" lengthAdjust="spacing" textLength="192" x="1060.5" y="942.2646">- Get performance during probation</text><text fill="#000000" font-family="Arial" font-size="12" lengthAdjust="spacing" textLength="132" x="1060.5" y="956.0635">- Calculate new metrics:</text><text fill="#000000" font-family="Arial" font-size="12" lengthAdjust="spacing" textLength="149" x="1066.5" y="969.8623">* Turnover during probation</text><text fill="#000000" font-family="Arial" font-size="12" lengthAdjust="spacing" textLength="146" x="1066.5" y="983.6611">* Winloss during probation</text><text fill="#000000" font-family="Arial" font-size="12" lengthAdjust="spacing" textLength="152" x="1066.5" y="997.46">* BetCount during probation</text><text fill="#000000" font-family="Arial" font-size="12" lengthAdjust="spacing" textLength="160" x="1066.5" y="1011.2588">* ActiveDays during probation</text><text fill="#000000" font-family="Arial" font-size="12" lengthAdjust="spacing" textLength="161" x="1060.5" y="1025.0576">- Determine category change:</text><text fill="#000000" font-family="Arial" font-size="12" lengthAdjust="spacing" textLength="171" x="1066.5" y="1038.8564">* PA &#226;&#8224;&#8217; PotentialPA (improved)</text><text fill="#000000" font-family="Arial" font-size="12" lengthAdjust="spacing" textLength="216" x="1066.5" y="1052.6553">* PA &#226;&#8224;&#8217; Normal (significantly improved)</text><text fill="#000000" font-family="Arial" font-size="12" lengthAdjust="spacing" textLength="186" x="1066.5" y="1066.4541">* PotentialPA &#226;&#8224;&#8217; PA (deteriorated)</text><text fill="#000000" font-family="Arial" font-size="12" lengthAdjust="spacing" textLength="197" x="1066.5" y="1080.2529">* PotentialPA &#226;&#8224;&#8217; Normal (improved)</text><text fill="#000000" font-family="Arial" font-size="12" lengthAdjust="spacing" textLength="168" x="1066.5" y="1094.0518">* No change (maintain current)</text><text fill="#000000" font-family="Arial" font-size="12" lengthAdjust="spacing" textLength="204" x="1060.5" y="1107.8506">- Update CTSCustomerClassification</text><text fill="#000000" font-family="Arial" font-size="12" lengthAdjust="spacing" textLength="224" x="1060.5" y="1121.6494">- Complete probation if end date reached</text><text fill="#000000" font-family="Arial" font-size="12" lengthAdjust="spacing" textLength="214" x="1060.5" y="1135.4482">- Extend probation if still PA/PotentialPA</text><rect fill="#F1F1F1" height="33.7988" rx="12.5" ry="12.5" style="stroke:#181818;stroke-width:0.5;" width="125" x="909.5" y="982.9072"/><text fill="#000000" font-family="Arial" font-size="12" lengthAdjust="spacing" textLength="105" x="919.5" y="1004.3594">ClassifyProbation()</text><polygon fill="#F1F1F1" points="898.5,809.8662,1045.5,809.8662,1057.5,821.8662,1045.5,833.8662,898.5,833.8662,886.5,821.8662,898.5,809.8662" style="stroke:#181818;stroke-width:0.5;"/><text fill="#000000" font-family="Arial" font-size="12" lengthAdjust="spacing" textLength="19" x="976" y="845.3184">yes</text><text fill="#000000" font-family="Arial" font-size="12" lengthAdjust="spacing" textLength="147" x="898.5" y="826.4189">Has probation customers?</text><text fill="#000000" font-family="Arial" font-size="12" lengthAdjust="spacing" textLength="14" x="1057.5" y="819.5195">no</text><polygon fill="#F1F1F1" points="972,1162.7949,984,1174.7949,972,1186.7949,960,1174.7949,972,1162.7949" style="stroke:#181818;stroke-width:0.5;"/><path d="M1065,1196.7949 L1065,1294.3867 L1045,1298.3867 L1065,1302.3867 L1065,1399.9785 A0,0 0 0 0 1065,1399.9785 L1358,1399.9785 A0,0 0 0 0 1358,1399.9785 L1358,1206.7949 L1348,1196.7949 L1065,1196.7949 A0,0 0 0 0 1065,1196.7949 " fill="#FEFFDD" style="stroke:#181818;stroke-width:0.5;"/><path d="M1348,1196.7949 L1348,1206.7949 L1358,1206.7949 L1348,1196.7949 " fill="#FEFFDD" style="stroke:#181818;stroke-width:0.5;"/><text fill="#000000" font-family="Arial" font-size="12" font-weight="bold" lengthAdjust="spacing" textLength="157" x="1071" y="1213.2471">Update System Parameters</text><text fill="#000000" font-family="Arial" font-size="12" lengthAdjust="spacing" textLength="3" x="1228" y="1213.2471">:</text><text fill="#000000" font-family="Arial" font-size="12" lengthAdjust="spacing" textLength="205" x="1071" y="1227.0459">1. Update DailyProbation_LastCustID</text><text fill="#000000" font-family="Arial" font-size="12" lengthAdjust="spacing" textLength="187" x="1080" y="1240.8447">- Set to LastCustID from SP output</text><text fill="#000000" font-family="Arial" font-size="12" lengthAdjust="spacing" textLength="228" x="1071" y="1254.6436">2. Update DailyProbation_LastCategoryID</text><text fill="#000000" font-family="Arial" font-size="12" lengthAdjust="spacing" textLength="210" x="1080" y="1268.4424">- Set to LastCategoryID from SP output</text><text fill="#000000" font-family="Arial" font-size="12" lengthAdjust="spacing" textLength="3" x="1071" y="1282.2412">&#160;</text><text fill="#000000" font-family="Arial" font-size="12" font-weight="bold" lengthAdjust="spacing" textLength="101" x="1071" y="1296.04">Return isContinue</text><text fill="#000000" font-family="Arial" font-size="12" lengthAdjust="spacing" textLength="3" x="1172" y="1296.04">:</text><text fill="#000000" font-family="Arial" font-size="12" lengthAdjust="spacing" textLength="272" x="1071" y="1309.8389">- true: CustProbations has data (more to process)</text><text fill="#000000" font-family="Arial" font-size="12" lengthAdjust="spacing" textLength="230" x="1071" y="1323.6377">- false: CustProbations is empty (all done)</text><text fill="#000000" font-family="Arial" font-size="12" lengthAdjust="spacing" textLength="3" x="1071" y="1337.4365">&#160;</text><text fill="#000000" font-family="Arial" font-size="12" font-weight="bold" lengthAdjust="spacing" textLength="94" x="1071" y="1351.2354">Pagination Logic</text><text fill="#000000" font-family="Arial" font-size="12" lengthAdjust="spacing" textLength="3" x="1165" y="1351.2354">:</text><text fill="#000000" font-family="Arial" font-size="12" lengthAdjust="spacing" textLength="136" x="1071" y="1365.0342">Next iteration starts from:</text><text fill="#000000" font-family="Arial" font-size="12" lengthAdjust="spacing" textLength="120" x="1071" y="1378.833">- CustID &gt; LastCustID</text><text fill="#000000" font-family="Arial" font-size="12" lengthAdjust="spacing" textLength="255" x="1071" y="1392.6318">- CategoryID &gt; LastCategoryID (secondary key)</text><rect fill="#F1F1F1" height="33.7988" rx="12.5" ry="12.5" style="stroke:#181818;stroke-width:0.5;" width="146" x="899" y="1281.4873"/><text fill="#000000" font-family="Arial" font-size="12" lengthAdjust="spacing" textLength="126" x="909" y="1302.9395">UpdateLastScanDate()</text><rect fill="#F1F1F1" height="33.7988" rx="12.5" ry="12.5" style="stroke:#181818;stroke-width:0.5;" width="124" x="910" y="1419.9785"/><text fill="#000000" font-family="Arial" font-size="12" lengthAdjust="spacing" textLength="104" x="920" y="1441.4307">Set isContinue flag</text><polygon fill="#F1F1F1" points="972,443.6885,984,455.6885,972,467.6885,960,455.6885,972,443.6885" style="stroke:#181818;stroke-width:0.5;"/><polygon fill="#F1F1F1" points="921.5,1473.7773,1022.5,1473.7773,1034.5,1485.7773,1022.5,1497.7773,921.5,1497.7773,909.5,1485.7773,921.5,1473.7773" style="stroke:#181818;stroke-width:0.5;"/><text fill="#000000" font-family="Arial" font-size="12" lengthAdjust="spacing" textLength="101" x="921.5" y="1490.3301">isContinue = true?</text><text fill="#000000" font-family="Arial" font-size="12" lengthAdjust="spacing" textLength="19" x="1034.5" y="1483.4307">yes</text><line style="stroke:#000000;stroke-width:1.5;" x1="702.5" x2="702.5" y1="50.3984" y2="2092.7363"/><line style="stroke:#000000;stroke-width:1.5;" x1="1486.5" x2="1486.5" y1="50.3984" y2="2092.7363"/><line style="stroke:#181818;stroke-width:1.0;" x1="200.5" x2="200.5" y1="89.1973" y2="109.1973"/><polygon fill="#181818" points="196.5,99.1973,200.5,109.1973,204.5,99.1973,200.5,103.1973" style="stroke:#181818;stroke-width:1.0;"/><line style="stroke:#181818;stroke-width:1.0;" x1="200.5" x2="200.5" y1="142.9961" y2="164.8955"/><polygon fill="#181818" points="196.5,154.8955,200.5,164.8955,204.5,154.8955,200.5,158.8955" style="stroke:#181818;stroke-width:1.0;"/><line style="stroke:#181818;stroke-width:1.0;" x1="200.5" x2="200.5" y1="198.6943" y2="218.6943"/><polygon fill="#181818" points="196.5,208.6943,200.5,218.6943,204.5,208.6943,200.5,212.6943" style="stroke:#181818;stroke-width:1.0;"/><line style="stroke:#181818;stroke-width:1.0;" x1="285.5" x2="285.5" y1="381.6885" y2="401.6885"/><polygon fill="#181818" points="281.5,391.6885,285.5,401.6885,289.5,391.6885,285.5,395.6885" style="stroke:#181818;stroke-width:1.0;"/><line style="stroke:#181818;stroke-width:1.0;" x1="171.5" x2="115.5" y1="325.8896" y2="325.8896"/><line style="stroke:#181818;stroke-width:1.0;" x1="115.5" x2="115.5" y1="325.8896" y2="347.8896"/><polygon fill="#181818" points="111.5,337.8896,115.5,347.8896,119.5,337.8896,115.5,341.8896" style="stroke:#181818;stroke-width:1.0;"/><line style="stroke:#181818;stroke-width:1.0;" x1="229.5" x2="285.5" y1="325.8896" y2="325.8896"/><line style="stroke:#181818;stroke-width:1.0;" x1="285.5" x2="285.5" y1="325.8896" y2="347.8896"/><polygon fill="#181818" points="281.5,337.8896,285.5,347.8896,289.5,337.8896,285.5,341.8896" style="stroke:#181818;stroke-width:1.0;"/><line style="stroke:#181818;stroke-width:1.0;" x1="115.5" x2="115.5" y1="381.6885" y2="428.6885"/><line style="stroke:#181818;stroke-width:1.0;" x1="115.5" x2="972" y1="428.6885" y2="428.6885"/><line style="stroke:#181818;stroke-width:1.0;" x1="972" x2="972" y1="428.6885" y2="443.6885"/><polygon fill="#181818" points="968,433.6885,972,443.6885,976,433.6885,972,437.6885" style="stroke:#181818;stroke-width:1.0;"/><line style="stroke:#181818;stroke-width:1.0;" x1="200.5" x2="200.5" y1="252.4932" y2="313.8896"/><polygon fill="#181818" points="196.5,303.8896,200.5,313.8896,204.5,303.8896,200.5,307.8896" style="stroke:#181818;stroke-width:1.0;"/><line style="stroke:#181818;stroke-width:1.0;" x1="200.5" x2="200.5" y1="1796.1563" y2="2070.7363"/><polygon fill="#181818" points="196.5,2060.7363,200.5,2070.7363,204.5,2060.7363,200.5,2064.7363" style="stroke:#181818;stroke-width:1.0;"/><line style="stroke:#181818;stroke-width:1.0;" x1="972" x2="972" y1="521.4873" y2="623.0791"/><polygon fill="#181818" points="968,613.0791,972,623.0791,976,613.0791,972,617.0791" style="stroke:#181818;stroke-width:1.0;"/><line style="stroke:#181818;stroke-width:1.0;" x1="972" x2="972" y1="833.8662" y2="982.9072"/><polygon fill="#181818" points="968,972.9072,972,982.9072,976,972.9072,972,976.9072" style="stroke:#181818;stroke-width:1.0;"/><line style="stroke:#181818;stroke-width:1.0;" x1="1057.5" x2="1467.5" y1="821.8662" y2="821.8662"/><polygon fill="#181818" points="1463.5,989.8066,1467.5,999.8066,1471.5,989.8066,1467.5,993.8066" style="stroke:#181818;stroke-width:1.0;"/><line style="stroke:#181818;stroke-width:1.0;" x1="1467.5" x2="1467.5" y1="821.8662" y2="1174.7949"/><line style="stroke:#181818;stroke-width:1.0;" x1="1467.5" x2="984" y1="1174.7949" y2="1174.7949"/><polygon fill="#181818" points="994,1170.7949,984,1174.7949,994,1178.7949,990,1174.7949" style="stroke:#181818;stroke-width:1.0;"/><line style="stroke:#181818;stroke-width:1.0;" x1="972" x2="972" y1="1016.7061" y2="1162.7949"/><polygon fill="#181818" points="968,1152.7949,972,1162.7949,976,1152.7949,972,1156.7949" style="stroke:#181818;stroke-width:1.0;"/><line style="stroke:#181818;stroke-width:1.0;" x1="972" x2="972" y1="656.8779" y2="809.8662"/><polygon fill="#181818" points="968,799.8662,972,809.8662,976,799.8662,972,803.8662" style="stroke:#181818;stroke-width:1.0;"/><line style="stroke:#181818;stroke-width:1.0;" x1="972" x2="972" y1="1186.7949" y2="1281.4873"/><polygon fill="#181818" points="968,1271.4873,972,1281.4873,976,1271.4873,972,1275.4873" style="stroke:#181818;stroke-width:1.0;"/><line style="stroke:#181818;stroke-width:1.0;" x1="972" x2="972" y1="1315.2861" y2="1419.9785"/><polygon fill="#181818" points="968,1409.9785,972,1419.9785,976,1409.9785,972,1413.9785" style="stroke:#181818;stroke-width:1.0;"/><line style="stroke:#181818;stroke-width:1.0;" x1="972" x2="972" y1="467.6885" y2="487.6885"/><polygon fill="#181818" points="968,477.6885,972,487.6885,976,477.6885,972,481.6885" style="stroke:#181818;stroke-width:1.0;"/><line style="stroke:#181818;stroke-width:1.0;" x1="1034.5" x2="1406" y1="1485.7773" y2="1485.7773"/><polygon fill="#181818" points="1402,977.209,1406,967.209,1410,977.209,1406,973.209" style="stroke:#181818;stroke-width:1.0;"/><line style="stroke:#181818;stroke-width:1.0;" x1="1406" x2="1406" y1="455.6885" y2="1485.7773"/><line style="stroke:#181818;stroke-width:1.0;" x1="1406" x2="984" y1="455.6885" y2="455.6885"/><polygon fill="#181818" points="994,451.6885,984,455.6885,994,459.6885,990,455.6885" style="stroke:#181818;stroke-width:1.0;"/><line style="stroke:#181818;stroke-width:1.0;" x1="972" x2="972" y1="1453.7773" y2="1473.7773"/><polygon fill="#181818" points="968,1463.7773,972,1473.7773,976,1463.7773,972,1467.7773" style="stroke:#181818;stroke-width:1.0;"/><line style="stroke:#181818;stroke-width:1.0;" x1="972" x2="972" y1="1497.7773" y2="1610.668"/><line style="stroke:#181818;stroke-width:1.0;" x1="972" x2="200.5" y1="1610.668" y2="1610.668"/><line style="stroke:#181818;stroke-width:1.0;" x1="200.5" x2="200.5" y1="1610.668" y2="1762.3574"/><polygon fill="#181818" points="196.5,1752.3574,200.5,1762.3574,204.5,1752.3574,200.5,1756.3574" style="stroke:#181818;stroke-width:1.0;"/><text fill="#000000" font-family="Arial" font-size="12" lengthAdjust="spacing" textLength="14" x="976" y="1539.376">no</text><text fill="#000000" font-family="Arial" font-size="12" lengthAdjust="spacing" textLength="60" x="282.75" y="61.8506">JobService</text><text fill="#000000" font-family="Arial" font-size="12" lengthAdjust="spacing" textLength="82" x="615.5" y="61.8506">Do-While Loop</text><text fill="#000000" font-family="Arial" font-size="12" lengthAdjust="spacing" textLength="73" x="1058" y="61.8506">Service Layer</text><!--SRC=[bLVRRXit47tVhnYWBv9WnKxQz456NDYMdBhrHP2S6aLH1FGk9R6co2t9bQp23_cDlXNzbVv9lgI7tBibkwaH8BPcEDSpPqPEECbfRFGTSq8hEfNCMZ4JSVvddowPK7GczJgAxBrGAJDiINSilfyRdQdaL4jjwAkpyDFGM32Lh8rmZYkQCMbvGvRm6SkaEzFANR4bfsCZcDmjdue_EBr-qn0w7t0j-dQdo6sGr9sMIHGz_g3lfjoiHCmV8-kOST5WV3szeNsMYlsubIvKxRwDcL92pQkQj4jo62djE1anNxY8w8IvU47MnnA2u8uRV3nw6A1848Ketz7RWuE3YAk4_ECe6emUU9mvtgbqkeVHu2ScHS9Wl7vvH0U7KIHcr0d2xxha5gXePyDj5su6Y7YIgPOPZc9JH-aWlz1p6Xc35lNfNAsyZI9ahtq85UjqwYCJCzHggFkt2u7QNMYTFhOpxVN6R2vKZWilx_K6-FWKzHOguvJXVqbCIaehDCKPp2-viVwpc5lB4ppvOBabkx6EB-kYMPeXIgZD3VJ86K0CNMWKpV2KCn_9Oz5Fkc0RRXvzdbFVs4xN9zGAcf2rS82NBsRLqKkTS0bfRHictdDNjnnndsapBQ3Ggk-MXruFJviZL2QT5uXG-hF9zIMTtanBKHjIXTBjzwF9gBOpKidGW-68hgvlEzr2wVXg61oS3o6uODOLVtJIgZcbwlLaE9hGoS-5_XwTmjnScytviD2uEByylwdH5ZujKfhcxHdNxK7NaZgZ8HDoKyNwiHb9639AjL2k-u9sEvZ2xOIxpAX6vHhbm7XlVlcLEi5FiaVJL1lt7YoKdYUbesOSEdDfvcg4jNGgxxlrciZmq_SzixjW_NGU0QEYjNMsEIgtK9Ddso_LNy8FqUjNVivM77NDiyE0Q8hrSidwbll87KymoiPFJFxa3PxuOPoE1nvv7zzpnGsJLzeicMpZxsFTcJ66B9_KmioEMClT06uHSHrZd_mOfDpCl0k5yKmo7qzTjqeHWSMPzE1MV4qekX6nBUt06Tq011hfFcV2wzmA9JMOuWML4-vEiQJSIph7iHChFcGR-toyGm-BfL2SuW8t56F1pNapvl4n_VFtvqz_VVxq9utHQ-Lf1nzsn18MLxp0wBPotXBCZPYhK5tbv8PslcgOhNt1HU8353h0u3yVbFvsURZIHMRKMMBnEx_yuymONiwoByU7D6ofb_aiz5alKudG6gE3OVAp5GmOpk95s0Yv-kZ1ULbBsMAfIEIutqWbFAWc5BysDjxEEKDMEuQtXkunNEnULVu7QqdfXXmbQKEa6Kg-IC43UP4yr_Wjufcyitjv5DNS8jmoFCn-eV8ivvODxDCK8mXcQD3WpEWbI81obeiAQdZ1OfkNjwpMnBd3Sel5ITZoEAZvt9cC3mA9LMujZaNh4S40EcsuTrNqeAJiS45kFHEM-39r6-fueakqujrc5ArpfK5LL_p1aK29SrbOLpPaKmQvOy6MaZhzewr5OdciLSB03lTyytIB37mHwuhGJBBvONdKq3fSNPs6_5qe5HOCiipNI_y8nWwVNBI3SiOEdrvhq2e746dcoHz_mNKstJhCiW2MnFV5axRrozsA0luJpf9DkDsKh-jly6eorJZRdeJr8z_GwGB6OqzP6E-uG7eKeDxhjMxGNiyFjWDLW8KiYBfRp2n0ANnk9A7bDryM0tCygfWdBwFz7sTfU0Ygg7o1xQMqUMXlNhKHjHPkyVpCjYyHV1LwYXMiIOlaQx_J30rT8TvGG9w3iXIE5BkJaE7pREb_BUEkrdqUkB3tf6TGwxVa-FUr3x-esBYIDSB5yt07WlupvGzlN9H5RMoe7a2giTIxZGSU8b9okIEQAUvtttBWOiqCJXF-UvRJDu2Fxv8Xg6zUvTpiUTyeYCQPNJHYUd9lv8l9ys-XhfNSDCF1QuzH_urrUD8GyDB-yVYysTEteQSLAYPy9VYwuHydJ_dz46vVM03GFM404IBwWWF8iuZ2KCqDI_WUU6kjYbynHFNMBS2IXzhh-L5cw729lOgw9L-s2vLdq6zf391CWUezGYioth_p4U_bngeA-Hf6hRjxG1Z8G4zxDIUKZzkjg6S-VAdy5m00]--></g></svg>