<svg xmlns="http://www.w3.org/2000/svg" xmlns:xlink="http://www.w3.org/1999/xlink" contentStyleType="text/css" height="2203px" preserveAspectRatio="none" style="width:1180px;height:2203px;background:#FFFFFF;" version="1.1" viewBox="0 0 1180 2203" width="1180px" zoomAndPan="magnify"><defs/><g><text fill="#000000" font-family="Verdana" font-size="22" font-weight="bold" lengthAdjust="spacing" textLength="831" x="173.125" y="37.1182">Daily Normal Classification By Sport - SP GetNormal Detailed Flow</text><ellipse cx="453.25" cy="62.7373" fill="#FFFFFF" rx="10" ry="10" style="stroke:#000000;stroke-width:1.0;"/><path d="M667.25,89.23 L667.25,106.0293 L647.25,110.0293 L667.25,114.0293 L667.25,130.8286 A0,0 0 0 0 667.25,130.8286 L1173.25,130.8286 A0,0 0 0 0 1173.25,130.8286 L1173.25,99.23 L1163.25,89.23 L667.25,89.23 A0,0 0 0 0 667.25,89.23 " fill="#FFFFFF" style="stroke:#000000;stroke-width:1.0;"/><path d="M1163.25,89.23 L1163.25,99.23 L1173.25,99.23 L1163.25,89.23 " fill="#FFFFFF" style="stroke:#000000;stroke-width:1.0;"/><text fill="#000000" font-family="Verdana" font-size="13" lengthAdjust="spacing" textLength="245" x="673.25" y="107.2998">Database: CTS_DataCenter (MySQL)</text><text fill="#000000" font-family="Verdana" font-size="13" lengthAdjust="spacing" textLength="485" x="673.25" y="123.0991">Parameters: @op_LastCategoryID (OUTPUT), @op_LastCustID (OUTPUT)</text><rect fill="#FFFFFF" height="34.584" rx="12.5" ry="12.5" style="stroke:#000000;stroke-width:1.0;" width="388" x="259.25" y="92.7373"/><text fill="#000000" font-family="Verdana" font-size="12" lengthAdjust="spacing" textLength="368" x="269.25" y="114.8018">CTS_DC_CustClassification_BySport_DailyScan_GetNormal</text><path d="M528.75,140.8286 L528.75,165.5276 L508.75,169.5276 L528.75,173.5276 L528.75,198.2266 A0,0 0 0 0 528.75,198.2266 L780.75,198.2266 A0,0 0 0 0 780.75,198.2266 L780.75,150.8286 L770.75,140.8286 L528.75,140.8286 A0,0 0 0 0 528.75,140.8286 " fill="#FFFFFF" style="stroke:#000000;stroke-width:1.0;"/><path d="M770.75,140.8286 L770.75,150.8286 L780.75,150.8286 L770.75,140.8286 " fill="#FFFFFF" style="stroke:#000000;stroke-width:1.0;"/><text fill="#000000" font-family="Verdana" font-size="13" lengthAdjust="spacing" textLength="181" x="534.75" y="158.8984">CONST_PARENTID_NORMAL</text><text fill="#000000" font-family="Verdana" font-size="13" lengthAdjust="spacing" textLength="231" x="534.75" y="174.6978">CONST_CATEGROUPID_PROBATION</text><text fill="#000000" font-family="Verdana" font-size="13" lengthAdjust="spacing" textLength="189" x="534.75" y="190.4971">CONST_PARENTID_WRAPPER</text><rect fill="#FFFFFF" height="34.584" rx="12.5" ry="12.5" style="stroke:#000000;stroke-width:1.0;" width="111" x="397.75" y="152.2356"/><text fill="#000000" font-family="Verdana" font-size="12" lengthAdjust="spacing" textLength="91" x="407.75" y="174.3">Get Constants</text><path d="M546.25,208.2266 L546.25,264.5242 L526.25,268.5242 L546.25,272.5242 L546.25,328.8218 A0,0 0 0 0 546.25,328.8218 L788.25,328.8218 A0,0 0 0 0 788.25,328.8218 L788.25,218.2266 L778.25,208.2266 L546.25,208.2266 A0,0 0 0 0 546.25,208.2266 " fill="#FFFFFF" style="stroke:#000000;stroke-width:1.0;"/><path d="M778.25,208.2266 L778.25,218.2266 L788.25,218.2266 L778.25,208.2266 " fill="#FFFFFF" style="stroke:#000000;stroke-width:1.0;"/><text fill="#000000" font-family="Verdana" font-size="13" lengthAdjust="spacing" textLength="110" x="552.25" y="226.2964">Temp_Category:</text><text fill="#000000" font-family="Verdana" font-size="13" lengthAdjust="spacing" textLength="160" x="552.25" y="242.0957">- CategoryID, ScanDate</text><text fill="#000000" font-family="Verdana" font-size="13" lengthAdjust="spacing" textLength="191" x="552.25" y="257.895">- PRIMARY KEY (CategoryID)</text><text fill="#000000" font-family="Verdana" font-size="13" lengthAdjust="spacing" textLength="5" x="552.25" y="273.6943">&#160;</text><text fill="#000000" font-family="Verdana" font-size="13" lengthAdjust="spacing" textLength="94" x="552.25" y="289.4937">Temp_Normal:</text><text fill="#000000" font-family="Verdana" font-size="13" lengthAdjust="spacing" textLength="116" x="552.25" y="305.293">- CustID, SportID</text><text fill="#000000" font-family="Verdana" font-size="13" lengthAdjust="spacing" textLength="221" x="552.25" y="321.0923">- PRIMARY KEY (CustID, SportID)</text><rect fill="#FFFFFF" height="34.584" rx="12.5" ry="12.5" style="stroke:#000000;stroke-width:1.0;" width="146" x="380.25" y="251.2322"/><text fill="#000000" font-family="Verdana" font-size="12" lengthAdjust="spacing" textLength="126" x="390.25" y="273.2966">Create Temp Tables</text><path d="M554.75,338.8218 L554.75,403.019 L534.75,407.019 L554.75,411.019 L554.75,475.2163 A0,0 0 0 0 554.75,475.2163 L1143.75,475.2163 A0,0 0 0 0 1143.75,475.2163 L1143.75,348.8218 L1133.75,338.8218 L554.75,338.8218 A0,0 0 0 0 554.75,338.8218 " fill="#FFFFFF" style="stroke:#000000;stroke-width:1.0;"/><path d="M1133.75,338.8218 L1133.75,348.8218 L1143.75,348.8218 L1133.75,338.8218 " fill="#FFFFFF" style="stroke:#000000;stroke-width:1.0;"/><text fill="#000000" font-family="Verdana" font-size="13" lengthAdjust="spacing" textLength="129" x="560.75" y="356.8916">SELECT CategoryID</text><text fill="#000000" font-family="Verdana" font-size="13" lengthAdjust="spacing" textLength="568" x="560.75" y="372.6909">, DATE_SUB(NOW(), INTERVAL ScanIntervalInSecond - 86400 SECOND) AS ScanDate</text><text fill="#000000" font-family="Verdana" font-size="13" lengthAdjust="spacing" textLength="164" x="560.75" y="388.4902">FROM CustomerCategory</text><text fill="#000000" font-family="Verdana" font-size="13" lengthAdjust="spacing" textLength="308" x="560.75" y="404.2896">WHERE ParentID = CONST_PARENTID_NORMAL</text><text fill="#000000" font-family="Verdana" font-size="13" lengthAdjust="spacing" textLength="403" x="570.75" y="420.0889">AND CategoryGroupID &lt;&gt; CONST_CATEGROUPID_PROBATION</text><text fill="#000000" font-family="Verdana" font-size="13" lengthAdjust="spacing" textLength="113" x="570.75" y="435.8882">AND IsActive = 1</text><text fill="#000000" font-family="Verdana" font-size="13" lengthAdjust="spacing" textLength="205" x="570.75" y="451.6875">AND ScanIntervalInSecond &gt; 0</text><text fill="#000000" font-family="Verdana" font-size="13" lengthAdjust="spacing" textLength="195" x="560.75" y="467.4868">INSERT INTO Temp_Category</text><rect fill="#FFFFFF" height="34.584" rx="12.5" ry="12.5" style="stroke:#000000;stroke-width:1.0;" width="163" x="371.75" y="389.7271"/><text fill="#000000" font-family="Verdana" font-size="12" lengthAdjust="spacing" textLength="143" x="381.75" y="411.7915">Get Normal Categories</text><path d="M557.75,485.2163 L557.75,517.8149 L537.75,521.8149 L557.75,525.8149 L557.75,558.4136 A0,0 0 0 0 557.75,558.4136 L899.75,558.4136 A0,0 0 0 0 899.75,558.4136 L899.75,495.2163 L889.75,485.2163 L557.75,485.2163 A0,0 0 0 0 557.75,485.2163 " fill="#FFFFFF" style="stroke:#000000;stroke-width:1.0;"/><path d="M889.75,485.2163 L889.75,495.2163 L899.75,495.2163 L889.75,485.2163 " fill="#FFFFFF" style="stroke:#000000;stroke-width:1.0;"/><text fill="#000000" font-family="Verdana" font-size="13" lengthAdjust="spacing" textLength="321" x="563.75" y="503.2861">SELECT ParameterValue FROM SystemParameter</text><text fill="#000000" font-family="Verdana" font-size="13" lengthAdjust="spacing" textLength="257" x="563.75" y="519.0854">WHERE ParameterID = 113 (BatchSize)</text><text fill="#000000" font-family="Verdana" font-size="13" lengthAdjust="spacing" textLength="294" x="563.75" y="534.8848">WHERE ParameterID = 114 (LastCategoryID)</text><text fill="#000000" font-family="Verdana" font-size="13" lengthAdjust="spacing" textLength="264" x="563.75" y="550.6841">WHERE ParameterID = 115 (LastCustID)</text><rect fill="#FFFFFF" height="34.584" rx="12.5" ry="12.5" style="stroke:#000000;stroke-width:1.0;" width="169" x="368.75" y="504.5229"/><text fill="#000000" font-family="Verdana" font-size="12" lengthAdjust="spacing" textLength="149" x="378.75" y="526.5874">Get System Parameters</text><path d="M561.25,568.4136 L561.25,593.1125 L541.25,597.1125 L561.25,601.1125 L561.25,625.8115 A0,0 0 0 0 561.25,625.8115 L919.25,625.8115 A0,0 0 0 0 919.25,625.8115 L919.25,578.4136 L909.25,568.4136 L561.25,568.4136 A0,0 0 0 0 561.25,568.4136 " fill="#FFFFFF" style="stroke:#000000;stroke-width:1.0;"/><path d="M909.25,568.4136 L909.25,578.4136 L919.25,578.4136 L909.25,568.4136 " fill="#FFFFFF" style="stroke:#000000;stroke-width:1.0;"/><text fill="#000000" font-family="Verdana" font-size="13" lengthAdjust="spacing" textLength="266" x="567.25" y="586.4834">IF LastCategoryID IS NULL OR = 0 THEN</text><text fill="#000000" font-family="Verdana" font-size="13" lengthAdjust="spacing" textLength="317" x="587.25" y="602.2827">SELECT MIN(CategoryID) FROM Temp_Category</text><text fill="#000000" font-family="Verdana" font-size="13" lengthAdjust="spacing" textLength="44" x="567.25" y="618.082">END IF</text><rect fill="#FFFFFF" height="34.584" rx="12.5" ry="12.5" style="stroke:#000000;stroke-width:1.0;" width="176" x="365.25" y="579.8206"/><text fill="#000000" font-family="Verdana" font-size="12" lengthAdjust="spacing" textLength="156" x="375.25" y="601.885">Initialize LastCategoryID</text><path d="M541.25,642.3042 L541.25,659.1035 L521.25,663.1035 L541.25,667.1035 L541.25,683.9028 A0,0 0 0 0 541.25,683.9028 L832.25,683.9028 A0,0 0 0 0 832.25,683.9028 L832.25,652.3042 L822.25,642.3042 L541.25,642.3042 A0,0 0 0 0 541.25,642.3042 " fill="#FFFFFF" style="stroke:#000000;stroke-width:1.0;"/><path d="M822.25,642.3042 L822.25,652.3042 L832.25,652.3042 L822.25,642.3042 " fill="#FFFFFF" style="stroke:#000000;stroke-width:1.0;"/><text fill="#000000" font-family="Verdana" font-size="13" lengthAdjust="spacing" textLength="270" x="547.25" y="660.374">SELECT ScanDate FROM Temp_Category</text><text fill="#000000" font-family="Verdana" font-size="13" lengthAdjust="spacing" textLength="246" x="547.25" y="676.1733">WHERE CategoryID = LastCategoryID</text><rect fill="#FFFFFF" height="34.584" rx="12.5" ry="12.5" style="stroke:#000000;stroke-width:1.0;" width="136" x="385.25" y="645.8115"/><text fill="#000000" font-family="Verdana" font-size="12" lengthAdjust="spacing" textLength="116" x="395.25" y="667.876">Get ScanDateValid</text><path d="M603.25,693.9028 L603.25,892.3943 L583.25,896.3943 L603.25,900.3943 L603.25,1098.8857 A0,0 0 0 0 603.25,1098.8857 L1127.25,1098.8857 A0,0 0 0 0 1127.25,1098.8857 L1127.25,703.9028 L1117.25,693.9028 L603.25,693.9028 A0,0 0 0 0 603.25,693.9028 " fill="#FFFFFF" style="stroke:#000000;stroke-width:1.0;"/><path d="M1117.25,693.9028 L1117.25,703.9028 L1127.25,703.9028 L1117.25,693.9028 " fill="#FFFFFF" style="stroke:#000000;stroke-width:1.0;"/><text fill="#000000" font-family="Verdana" font-size="13" lengthAdjust="spacing" textLength="241" x="609.25" y="711.9727">SELECT tmplc.CustID, tmplc.SportID</text><text fill="#000000" font-family="Verdana" font-size="13" lengthAdjust="spacing" textLength="330" x="609.25" y="727.772">FROM CTSCustomerClassification_BySport AS clss</text><text fill="#000000" font-family="Verdana" font-size="13" lengthAdjust="spacing" textLength="103" x="609.25" y="743.5713">LATERAL JOIN (</text><text fill="#000000" font-family="Verdana" font-size="13" lengthAdjust="spacing" textLength="306" x="629.25" y="759.3706">SELECT cc.CustID, cc.SportID, cc.CategoryID</text><text fill="#000000" font-family="Verdana" font-size="13" lengthAdjust="spacing" textLength="321" x="629.25" y="775.1699">FROM CTSCustomerClassification_BySport AS cc</text><text fill="#000000" font-family="Verdana" font-size="13" lengthAdjust="spacing" textLength="483" x="629.25" y="790.9692">INNER JOIN CustomerCategory AS ca ON ca.CategoryID = cc.CategoryID</text><text fill="#000000" font-family="Verdana" font-size="13" lengthAdjust="spacing" textLength="209" x="629.25" y="806.7686">WHERE cc.CustID = clss.CustID</text><text fill="#000000" font-family="Verdana" font-size="13" lengthAdjust="spacing" textLength="202" x="639.25" y="822.5679">AND cc.SportID = clss.SportID</text><text fill="#000000" font-family="Verdana" font-size="13" lengthAdjust="spacing" textLength="134" x="639.25" y="838.3672">AND ca.IsActive = 1</text><text fill="#000000" font-family="Verdana" font-size="13" lengthAdjust="spacing" textLength="327" x="639.25" y="854.1665">AND ca.ParentID &lt;&gt; CONST_PARENTID_WRAPPER</text><text fill="#000000" font-family="Verdana" font-size="13" lengthAdjust="spacing" textLength="413" x="629.25" y="869.9658">ORDER BY ca.CategoryPriority ASC, cc.LastModifiedDate DESC</text><text fill="#000000" font-family="Verdana" font-size="13" lengthAdjust="spacing" textLength="50" x="629.25" y="885.7651">LIMIT 1</text><text fill="#000000" font-family="Verdana" font-size="13" lengthAdjust="spacing" textLength="70" x="609.25" y="901.5645">) AS tmplc</text><text fill="#000000" font-family="Verdana" font-size="13" lengthAdjust="spacing" textLength="216" x="609.25" y="917.3638">WHERE clss.CustID &gt; LastCustID</text><text fill="#000000" font-family="Verdana" font-size="13" lengthAdjust="spacing" textLength="257" x="619.25" y="933.1631">AND clss.CategoryID = LastCategoryID</text><text fill="#000000" font-family="Verdana" font-size="13" lengthAdjust="spacing" textLength="301" x="619.25" y="948.9624">AND clss.LastScannedDate &lt;= ScanDateValid</text><text fill="#000000" font-family="Verdana" font-size="13" lengthAdjust="spacing" textLength="268" x="619.25" y="964.7617">AND tmplc.CategoryID = LastCategoryID</text><text fill="#000000" font-family="Verdana" font-size="13" lengthAdjust="spacing" textLength="92" x="619.25" y="980.561">AND EXISTS (</text><text fill="#000000" font-family="Verdana" font-size="13" lengthAdjust="spacing" textLength="318" x="639.25" y="996.3604">SELECT 1 FROM CTSCustomerAssociationStatus</text><text fill="#000000" font-family="Verdana" font-size="13" lengthAdjust="spacing" textLength="188" x="639.25" y="1012.1597">WHERE CustID = clss.CustID</text><text fill="#000000" font-family="Verdana" font-size="13" lengthAdjust="spacing" textLength="239" x="649.25" y="1027.959">AND LastTicketDate &gt;= From30Date</text><text fill="#000000" font-family="Verdana" font-size="13" lengthAdjust="spacing" textLength="6" x="619.25" y="1043.7583">)</text><text fill="#000000" font-family="Verdana" font-size="13" lengthAdjust="spacing" textLength="322" x="609.25" y="1059.5576">ORDER BY clss.CategoryID ASC, clss.CustID ASC</text><text fill="#000000" font-family="Verdana" font-size="13" lengthAdjust="spacing" textLength="107" x="609.25" y="1075.3569">LIMIT BatchSize</text><text fill="#000000" font-family="Verdana" font-size="13" lengthAdjust="spacing" textLength="179" x="609.25" y="1091.1563">INSERT INTO Temp_Normal</text><rect fill="#FFFFFF" height="34.584" rx="12.5" ry="12.5" style="stroke:#000000;stroke-width:1.0;" width="260" x="323.25" y="879.1023"/><text fill="#000000" font-family="Verdana" font-size="12" lengthAdjust="spacing" textLength="240" x="333.25" y="901.1667">Get Customers from Current Category</text><path d="M541.75,1165.4448 L541.75,1363.9363 L521.75,1367.9363 L541.75,1371.9363 L541.75,1570.4277 A0,0 0 0 0 541.75,1570.4277 L1065.75,1570.4277 A0,0 0 0 0 1065.75,1570.4277 L1065.75,1175.4448 L1055.75,1165.4448 L541.75,1165.4448 A0,0 0 0 0 541.75,1165.4448 " fill="#FFFFFF" style="stroke:#000000;stroke-width:1.0;"/><path d="M1055.75,1165.4448 L1055.75,1175.4448 L1065.75,1175.4448 L1055.75,1165.4448 " fill="#FFFFFF" style="stroke:#000000;stroke-width:1.0;"/><text fill="#000000" font-family="Verdana" font-size="13" lengthAdjust="spacing" textLength="273" x="547.75" y="1183.5146">SELECT cate.CategoryID, cate.ScanDate</text><text fill="#000000" font-family="Verdana" font-size="13" lengthAdjust="spacing" textLength="204" x="547.75" y="1199.314">FROM Temp_Category AS cate</text><text fill="#000000" font-family="Verdana" font-size="13" lengthAdjust="spacing" textLength="367" x="547.75" y="1215.1133">INNER JOIN CTSCustomerClassification_BySport AS clss</text><text fill="#000000" font-family="Verdana" font-size="13" lengthAdjust="spacing" textLength="256" x="557.75" y="1230.9126">ON clss.CategoryID = cate.CategoryID</text><text fill="#000000" font-family="Verdana" font-size="13" lengthAdjust="spacing" textLength="103" x="547.75" y="1246.7119">LATERAL JOIN (</text><text fill="#000000" font-family="Verdana" font-size="13" lengthAdjust="spacing" textLength="297" x="567.75" y="1262.5112">SELECT cc.CategoryID, cc.LastScannedDate</text><text fill="#000000" font-family="Verdana" font-size="13" lengthAdjust="spacing" textLength="321" x="567.75" y="1278.3105">FROM CTSCustomerClassification_BySport AS cc</text><text fill="#000000" font-family="Verdana" font-size="13" lengthAdjust="spacing" textLength="483" x="567.75" y="1294.1099">INNER JOIN CustomerCategory AS ca ON ca.CategoryID = cc.CategoryID</text><text fill="#000000" font-family="Verdana" font-size="13" lengthAdjust="spacing" textLength="209" x="567.75" y="1309.9092">WHERE cc.CustID = clss.CustID</text><text fill="#000000" font-family="Verdana" font-size="13" lengthAdjust="spacing" textLength="202" x="577.75" y="1325.7085">AND cc.SportID = clss.SportID</text><text fill="#000000" font-family="Verdana" font-size="13" lengthAdjust="spacing" textLength="134" x="577.75" y="1341.5078">AND ca.IsActive = 1</text><text fill="#000000" font-family="Verdana" font-size="13" lengthAdjust="spacing" textLength="327" x="577.75" y="1357.3071">AND ca.ParentID &lt;&gt; CONST_PARENTID_WRAPPER</text><text fill="#000000" font-family="Verdana" font-size="13" lengthAdjust="spacing" textLength="413" x="567.75" y="1373.1064">ORDER BY ca.CategoryPriority ASC, cc.LastModifiedDate DESC</text><text fill="#000000" font-family="Verdana" font-size="13" lengthAdjust="spacing" textLength="50" x="567.75" y="1388.9058">LIMIT 1</text><text fill="#000000" font-family="Verdana" font-size="13" lengthAdjust="spacing" textLength="70" x="547.75" y="1404.7051">) AS tmplc</text><text fill="#000000" font-family="Verdana" font-size="13" lengthAdjust="spacing" textLength="281" x="547.75" y="1420.5044">WHERE cate.CategoryID &gt; LastCategoryID</text><text fill="#000000" font-family="Verdana" font-size="13" lengthAdjust="spacing" textLength="275" x="557.75" y="1436.3037">AND tmplc.CategoryID = cate.CategoryID</text><text fill="#000000" font-family="Verdana" font-size="13" lengthAdjust="spacing" textLength="316" x="557.75" y="1452.103">AND tmplc.LastScannedDate &lt;= cate.ScanDate</text><text fill="#000000" font-family="Verdana" font-size="13" lengthAdjust="spacing" textLength="92" x="557.75" y="1467.9023">AND EXISTS (</text><text fill="#000000" font-family="Verdana" font-size="13" lengthAdjust="spacing" textLength="318" x="577.75" y="1483.7017">SELECT 1 FROM CTSCustomerAssociationStatus</text><text fill="#000000" font-family="Verdana" font-size="13" lengthAdjust="spacing" textLength="188" x="577.75" y="1499.501">WHERE CustID = clss.CustID</text><text fill="#000000" font-family="Verdana" font-size="13" lengthAdjust="spacing" textLength="239" x="587.75" y="1515.3003">AND LastTicketDate &gt;= From30Date</text><text fill="#000000" font-family="Verdana" font-size="13" lengthAdjust="spacing" textLength="6" x="557.75" y="1531.0996">)</text><text fill="#000000" font-family="Verdana" font-size="13" lengthAdjust="spacing" textLength="211" x="547.75" y="1546.8989">ORDER BY cate.CategoryID ASC</text><text fill="#000000" font-family="Verdana" font-size="13" lengthAdjust="spacing" textLength="50" x="547.75" y="1562.6982">LIMIT 1</text><rect fill="#FFFFFF" height="34.584" rx="12.5" ry="12.5" style="stroke:#000000;stroke-width:1.0;" width="137" x="384.75" y="1350.6443"/><text fill="#000000" font-family="Verdana" font-size="12" lengthAdjust="spacing" textLength="117" x="394.75" y="1372.7087">Get Next Category</text><polygon fill="#FFFFFF" points="384.75,1590.4277,521.75,1590.4277,533.75,1602.4277,521.75,1614.4277,384.75,1614.4277,372.75,1602.4277,384.75,1590.4277" style="stroke:#000000;stroke-width:1.0;"/><text fill="#000000" font-family="Verdana" font-size="11" lengthAdjust="spacing" textLength="137" x="384.75" y="1606.8025">NextCategoryID Found?</text><text fill="#000000" font-family="Verdana" font-size="11" lengthAdjust="spacing" textLength="20" x="352.75" y="1600.1182">yes</text><text fill="#000000" font-family="Verdana" font-size="11" lengthAdjust="spacing" textLength="14" x="533.75" y="1600.1182">no</text><path d="M267,1624.4277 L267,1712.324 L247,1716.324 L267,1720.324 L267,1808.2202 A0,0 0 0 0 267,1808.2202 L629,1808.2202 A0,0 0 0 0 629,1808.2202 L629,1634.4277 L619,1624.4277 L267,1624.4277 A0,0 0 0 0 267,1624.4277 " fill="#FFFFFF" style="stroke:#000000;stroke-width:1.0;"/><path d="M619,1624.4277 L619,1634.4277 L629,1634.4277 L619,1624.4277 " fill="#FFFFFF" style="stroke:#000000;stroke-width:1.0;"/><text fill="#000000" font-family="Verdana" font-size="13" lengthAdjust="spacing" textLength="241" x="273" y="1642.4976">SELECT tmplc.CustID, tmplc.SportID</text><text fill="#000000" font-family="Verdana" font-size="13" lengthAdjust="spacing" textLength="330" x="273" y="1658.2969">FROM CTSCustomerClassification_BySport AS clss</text><text fill="#000000" font-family="Verdana" font-size="13" lengthAdjust="spacing" textLength="124" x="273" y="1674.0962">LATERAL JOIN (...)</text><text fill="#000000" font-family="Verdana" font-size="13" lengthAdjust="spacing" textLength="152" x="273" y="1689.8955">WHERE clss.CustID &gt; 0</text><text fill="#000000" font-family="Verdana" font-size="13" lengthAdjust="spacing" textLength="259" x="283" y="1705.6948">AND clss.CategoryID = NextCategoryID</text><text fill="#000000" font-family="Verdana" font-size="13" lengthAdjust="spacing" textLength="331" x="283" y="1721.4941">AND clss.LastScannedDate &lt;= NextScanDateValid</text><text fill="#000000" font-family="Verdana" font-size="13" lengthAdjust="spacing" textLength="270" x="283" y="1737.2935">AND tmplc.CategoryID = NextCategoryID</text><text fill="#000000" font-family="Verdana" font-size="13" lengthAdjust="spacing" textLength="113" x="283" y="1753.0928">AND EXISTS (...)</text><text fill="#000000" font-family="Verdana" font-size="13" lengthAdjust="spacing" textLength="322" x="273" y="1768.8921">ORDER BY clss.CategoryID ASC, clss.CustID ASC</text><text fill="#000000" font-family="Verdana" font-size="13" lengthAdjust="spacing" textLength="107" x="273" y="1784.6914">LIMIT BatchSize</text><text fill="#000000" font-family="Verdana" font-size="13" lengthAdjust="spacing" textLength="179" x="273" y="1800.4907">INSERT INTO Temp_Normal</text><rect fill="#FFFFFF" height="34.584" rx="12.5" ry="12.5" style="stroke:#000000;stroke-width:1.0;" width="241" x="6" y="1699.032"/><text fill="#000000" font-family="Verdana" font-size="12" lengthAdjust="spacing" textLength="221" x="16" y="1721.0964">Get Customers from Next Category</text><rect fill="#FFFFFF" height="34.584" rx="12.5" ry="12.5" style="stroke:#000000;stroke-width:1.0;" width="262" x="649" y="1624.4277"/><text fill="#000000" font-family="Verdana" font-size="12" lengthAdjust="spacing" textLength="242" x="659" y="1646.4922">Set NextCategoryID = LastCategoryID</text><polygon fill="#FFFFFF" points="453.25,1814.2202,465.25,1826.2202,453.25,1838.2202,441.25,1826.2202,453.25,1814.2202" style="stroke:#000000;stroke-width:1.0;"/><polygon fill="#FFFFFF" points="357.75,1118.8857,548.75,1118.8857,560.75,1130.8857,548.75,1142.8857,357.75,1142.8857,345.75,1130.8857,357.75,1118.8857" style="stroke:#000000;stroke-width:1.0;"/><text fill="#000000" font-family="Verdana" font-size="11" lengthAdjust="spacing" textLength="14" x="457.25" y="1153.9448">no</text><text fill="#000000" font-family="Verdana" font-size="11" lengthAdjust="spacing" textLength="191" x="357.75" y="1135.2605">Has Customers in Temp_Normal?</text><polygon fill="#FFFFFF" points="453.25,1858.2202,465.25,1870.2202,453.25,1882.2202,441.25,1870.2202,453.25,1858.2202" style="stroke:#000000;stroke-width:1.0;"/><path d="M532.25,1898.7129 L532.25,1915.5122 L512.25,1919.5122 L532.25,1923.5122 L532.25,1940.3115 A0,0 0 0 0 532.25,1940.3115 L828.25,1940.3115 A0,0 0 0 0 828.25,1940.3115 L828.25,1908.7129 L818.25,1898.7129 L532.25,1898.7129 A0,0 0 0 0 532.25,1898.7129 " fill="#FFFFFF" style="stroke:#000000;stroke-width:1.0;"/><path d="M818.25,1898.7129 L818.25,1908.7129 L828.25,1908.7129 L818.25,1898.7129 " fill="#FFFFFF" style="stroke:#000000;stroke-width:1.0;"/><text fill="#000000" font-family="Verdana" font-size="13" lengthAdjust="spacing" textLength="275" x="538.25" y="1916.7827">SELECT MAX(CustID) FROM Temp_Normal</text><text fill="#000000" font-family="Verdana" font-size="13" lengthAdjust="spacing" textLength="112" x="538.25" y="1932.582">INTO NextCustID</text><rect fill="#FFFFFF" height="34.584" rx="12.5" ry="12.5" style="stroke:#000000;stroke-width:1.0;" width="118" x="394.25" y="1902.2202"/><text fill="#000000" font-family="Verdana" font-size="12" lengthAdjust="spacing" textLength="98" x="404.25" y="1924.2847">Get Max CustID</text><polygon fill="#FFFFFF" points="378.75,1960.3115,527.75,1960.3115,539.75,1972.3115,527.75,1984.3115,378.75,1984.3115,366.75,1972.3115,378.75,1960.3115" style="stroke:#000000;stroke-width:1.0;"/><text fill="#000000" font-family="Verdana" font-size="11" lengthAdjust="spacing" textLength="149" x="378.75" y="1976.6863">NextCustID IS NOT NULL?</text><text fill="#000000" font-family="Verdana" font-size="11" lengthAdjust="spacing" textLength="20" x="346.75" y="1970.002">yes</text><text fill="#000000" font-family="Verdana" font-size="11" lengthAdjust="spacing" textLength="14" x="539.75" y="1970.002">no</text><path d="M311.75,1994.3115 L311.75,2011.1108 L291.75,2015.1108 L311.75,2019.1108 L311.75,2035.9102 A0,0 0 0 0 311.75,2035.9102 L594.75,2035.9102 A0,0 0 0 0 594.75,2035.9102 L594.75,2004.3115 L584.75,1994.3115 L311.75,1994.3115 A0,0 0 0 0 311.75,1994.3115 " fill="#FFFFFF" style="stroke:#000000;stroke-width:1.0;"/><path d="M584.75,1994.3115 L584.75,2004.3115 L594.75,2004.3115 L584.75,1994.3115 " fill="#FFFFFF" style="stroke:#000000;stroke-width:1.0;"/><text fill="#000000" font-family="Verdana" font-size="13" lengthAdjust="spacing" textLength="262" x="317.75" y="2012.3813">@op_LastCategoryID = NextCategoryID</text><text fill="#000000" font-family="Verdana" font-size="13" lengthAdjust="spacing" textLength="202" x="317.75" y="2028.1807">@op_LastCustID = NextCustID</text><rect fill="#FFFFFF" height="34.584" rx="12.5" ry="12.5" style="stroke:#000000;stroke-width:1.0;" width="166" x="125.75" y="1997.8188"/><text fill="#000000" font-family="Verdana" font-size="12" lengthAdjust="spacing" textLength="146" x="135.75" y="2019.8833">Set Output Parameters</text><path d="M800.75,1994.3115 L800.75,2026.9102 L780.75,2030.9102 L800.75,2034.9102 L800.75,2067.5088 A0,0 0 0 0 800.75,2067.5088 L1138.75,2067.5088 A0,0 0 0 0 1138.75,2067.5088 L1138.75,2004.3115 L1128.75,1994.3115 L800.75,1994.3115 A0,0 0 0 0 800.75,1994.3115 " fill="#FFFFFF" style="stroke:#000000;stroke-width:1.0;"/><path d="M1128.75,1994.3115 L1128.75,2004.3115 L1138.75,2004.3115 L1128.75,1994.3115 " fill="#FFFFFF" style="stroke:#000000;stroke-width:1.0;"/><text fill="#000000" font-family="Verdana" font-size="13" lengthAdjust="spacing" textLength="317" x="806.75" y="2012.3813">SELECT MIN(CategoryID) FROM Temp_Category</text><text fill="#000000" font-family="Verdana" font-size="13" lengthAdjust="spacing" textLength="142" x="806.75" y="2028.1807">INTO NextCategoryID</text><text fill="#000000" font-family="Verdana" font-size="13" lengthAdjust="spacing" textLength="262" x="806.75" y="2043.98">@op_LastCategoryID = NextCategoryID</text><text fill="#000000" font-family="Verdana" font-size="13" lengthAdjust="spacing" textLength="136" x="806.75" y="2059.7793">@op_LastCustID = 0</text><rect fill="#FFFFFF" height="34.584" rx="12.5" ry="12.5" style="stroke:#000000;stroke-width:1.0;" width="166" x="614.75" y="2013.6182"/><text fill="#000000" font-family="Verdana" font-size="12" lengthAdjust="spacing" textLength="146" x="624.75" y="2035.6826">Reset to First Category</text><polygon fill="#FFFFFF" points="453.25,2073.5088,465.25,2085.5088,453.25,2097.5088,441.25,2085.5088,453.25,2073.5088" style="stroke:#000000;stroke-width:1.0;"/><path d="M529.25,2114.0015 L529.25,2130.8008 L509.25,2134.8008 L529.25,2138.8008 L529.25,2155.6001 A0,0 0 0 0 529.25,2155.6001 L882.25,2155.6001 A0,0 0 0 0 882.25,2155.6001 L882.25,2124.0015 L872.25,2114.0015 L529.25,2114.0015 A0,0 0 0 0 529.25,2114.0015 " fill="#FFFFFF" style="stroke:#000000;stroke-width:1.0;"/><path d="M872.25,2114.0015 L872.25,2124.0015 L882.25,2124.0015 L872.25,2114.0015 " fill="#FFFFFF" style="stroke:#000000;stroke-width:1.0;"/><text fill="#000000" font-family="Verdana" font-size="13" lengthAdjust="spacing" textLength="332" x="535.25" y="2132.0713">SELECT CustID AS CustId, SportID AS SportGroup</text><text fill="#000000" font-family="Verdana" font-size="13" lengthAdjust="spacing" textLength="130" x="535.25" y="2147.8706">FROM Temp_Normal</text><rect fill="#FFFFFF" height="34.584" rx="12.5" ry="12.5" style="stroke:#000000;stroke-width:1.0;" width="112" x="397.25" y="2117.5088"/><text fill="#000000" font-family="Verdana" font-size="12" lengthAdjust="spacing" textLength="92" x="407.25" y="2139.5732">Return Results</text><ellipse cx="453.25" cy="2186.6001" fill="none" rx="11" ry="11" style="stroke:#000000;stroke-width:1.0;"/><ellipse cx="453.25" cy="2186.6001" fill="#FFFFFF" rx="6" ry="6" style="stroke:#000000;stroke-width:1.0;"/><line style="stroke:#000000;stroke-width:1.0;" x1="453.25" x2="453.25" y1="72.7373" y2="92.7373"/><polygon fill="#000000" points="449.25,82.7373,453.25,92.7373,457.25,82.7373,453.25,86.7373" style="stroke:#000000;stroke-width:1.0;"/><line style="stroke:#000000;stroke-width:1.0;" x1="453.25" x2="453.25" y1="127.3213" y2="152.2356"/><polygon fill="#000000" points="449.25,142.2356,453.25,152.2356,457.25,142.2356,453.25,146.2356" style="stroke:#000000;stroke-width:1.0;"/><line style="stroke:#000000;stroke-width:1.0;" x1="453.25" x2="453.25" y1="186.8196" y2="251.2322"/><polygon fill="#000000" points="449.25,241.2322,453.25,251.2322,457.25,241.2322,453.25,245.2322" style="stroke:#000000;stroke-width:1.0;"/><line style="stroke:#000000;stroke-width:1.0;" x1="453.25" x2="453.25" y1="285.8162" y2="389.7271"/><polygon fill="#000000" points="449.25,379.7271,453.25,389.7271,457.25,379.7271,453.25,383.7271" style="stroke:#000000;stroke-width:1.0;"/><line style="stroke:#000000;stroke-width:1.0;" x1="453.25" x2="453.25" y1="424.311" y2="504.5229"/><polygon fill="#000000" points="449.25,494.5229,453.25,504.5229,457.25,494.5229,453.25,498.5229" style="stroke:#000000;stroke-width:1.0;"/><line style="stroke:#000000;stroke-width:1.0;" x1="453.25" x2="453.25" y1="539.1069" y2="579.8206"/><polygon fill="#000000" points="449.25,569.8206,453.25,579.8206,457.25,569.8206,453.25,573.8206" style="stroke:#000000;stroke-width:1.0;"/><line style="stroke:#000000;stroke-width:1.0;" x1="453.25" x2="453.25" y1="614.4045" y2="645.8115"/><polygon fill="#000000" points="449.25,635.8115,453.25,645.8115,457.25,635.8115,453.25,639.8115" style="stroke:#000000;stroke-width:1.0;"/><line style="stroke:#000000;stroke-width:1.0;" x1="453.25" x2="453.25" y1="680.3955" y2="879.1023"/><polygon fill="#000000" points="449.25,869.1023,453.25,879.1023,457.25,869.1023,453.25,873.1023" style="stroke:#000000;stroke-width:1.0;"/><line style="stroke:#000000;stroke-width:1.0;" x1="372.75" x2="126.5" y1="1602.4277" y2="1602.4277"/><line style="stroke:#000000;stroke-width:1.0;" x1="126.5" x2="126.5" y1="1602.4277" y2="1699.032"/><polygon fill="#000000" points="122.5,1689.032,126.5,1699.032,130.5,1689.032,126.5,1693.032" style="stroke:#000000;stroke-width:1.0;"/><line style="stroke:#000000;stroke-width:1.0;" x1="533.75" x2="780" y1="1602.4277" y2="1602.4277"/><line style="stroke:#000000;stroke-width:1.0;" x1="780" x2="780" y1="1602.4277" y2="1624.4277"/><polygon fill="#000000" points="776,1614.4277,780,1624.4277,784,1614.4277,780,1618.4277" style="stroke:#000000;stroke-width:1.0;"/><line style="stroke:#000000;stroke-width:1.0;" x1="126.5" x2="126.5" y1="1733.616" y2="1826.2202"/><line style="stroke:#000000;stroke-width:1.0;" x1="126.5" x2="441.25" y1="1826.2202" y2="1826.2202"/><polygon fill="#000000" points="431.25,1822.2202,441.25,1826.2202,431.25,1830.2202,435.25,1826.2202" style="stroke:#000000;stroke-width:1.0;"/><line style="stroke:#000000;stroke-width:1.0;" x1="780" x2="780" y1="1659.0117" y2="1826.2202"/><line style="stroke:#000000;stroke-width:1.0;" x1="780" x2="465.25" y1="1826.2202" y2="1826.2202"/><polygon fill="#000000" points="475.25,1822.2202,465.25,1826.2202,475.25,1830.2202,471.25,1826.2202" style="stroke:#000000;stroke-width:1.0;"/><line style="stroke:#000000;stroke-width:1.0;" x1="453.25" x2="453.25" y1="1385.2283" y2="1590.4277"/><polygon fill="#000000" points="449.25,1580.4277,453.25,1590.4277,457.25,1580.4277,453.25,1584.4277" style="stroke:#000000;stroke-width:1.0;"/><line style="stroke:#000000;stroke-width:1.0;" x1="453.25" x2="453.25" y1="1142.8857" y2="1350.6443"/><polygon fill="#000000" points="449.25,1340.6443,453.25,1350.6443,457.25,1340.6443,453.25,1344.6443" style="stroke:#000000;stroke-width:1.0;"/><line style="stroke:#000000;stroke-width:1.0;" x1="560.75" x2="1075.75" y1="1130.8857" y2="1130.8857"/><polygon fill="#000000" points="1071.75,1499.3325,1075.75,1509.3325,1079.75,1499.3325,1075.75,1503.3325" style="stroke:#000000;stroke-width:1.0;"/><line style="stroke:#000000;stroke-width:1.0;" x1="1075.75" x2="1075.75" y1="1130.8857" y2="1870.2202"/><line style="stroke:#000000;stroke-width:1.0;" x1="1075.75" x2="465.25" y1="1870.2202" y2="1870.2202"/><polygon fill="#000000" points="475.25,1866.2202,465.25,1870.2202,475.25,1874.2202,471.25,1870.2202" style="stroke:#000000;stroke-width:1.0;"/><line style="stroke:#000000;stroke-width:1.0;" x1="453.25" x2="453.25" y1="1838.2202" y2="1858.2202"/><polygon fill="#000000" points="449.25,1848.2202,453.25,1858.2202,457.25,1848.2202,453.25,1852.2202" style="stroke:#000000;stroke-width:1.0;"/><line style="stroke:#000000;stroke-width:1.0;" x1="453.25" x2="453.25" y1="913.6863" y2="1118.8857"/><polygon fill="#000000" points="449.25,1108.8857,453.25,1118.8857,457.25,1108.8857,453.25,1112.8857" style="stroke:#000000;stroke-width:1.0;"/><line style="stroke:#000000;stroke-width:1.0;" x1="453.25" x2="453.25" y1="1882.2202" y2="1902.2202"/><polygon fill="#000000" points="449.25,1892.2202,453.25,1902.2202,457.25,1892.2202,453.25,1896.2202" style="stroke:#000000;stroke-width:1.0;"/><line style="stroke:#000000;stroke-width:1.0;" x1="366.75" x2="208.75" y1="1972.3115" y2="1972.3115"/><line style="stroke:#000000;stroke-width:1.0;" x1="208.75" x2="208.75" y1="1972.3115" y2="1997.8188"/><polygon fill="#000000" points="204.75,1987.8188,208.75,1997.8188,212.75,1987.8188,208.75,1991.8188" style="stroke:#000000;stroke-width:1.0;"/><line style="stroke:#000000;stroke-width:1.0;" x1="539.75" x2="697.75" y1="1972.3115" y2="1972.3115"/><line style="stroke:#000000;stroke-width:1.0;" x1="697.75" x2="697.75" y1="1972.3115" y2="2013.6182"/><polygon fill="#000000" points="693.75,2003.6182,697.75,2013.6182,701.75,2003.6182,697.75,2007.6182" style="stroke:#000000;stroke-width:1.0;"/><line style="stroke:#000000;stroke-width:1.0;" x1="208.75" x2="208.75" y1="2032.4028" y2="2085.5088"/><line style="stroke:#000000;stroke-width:1.0;" x1="208.75" x2="441.25" y1="2085.5088" y2="2085.5088"/><polygon fill="#000000" points="431.25,2081.5088,441.25,2085.5088,431.25,2089.5088,435.25,2085.5088" style="stroke:#000000;stroke-width:1.0;"/><line style="stroke:#000000;stroke-width:1.0;" x1="697.75" x2="697.75" y1="2048.2021" y2="2085.5088"/><line style="stroke:#000000;stroke-width:1.0;" x1="697.75" x2="465.25" y1="2085.5088" y2="2085.5088"/><polygon fill="#000000" points="475.25,2081.5088,465.25,2085.5088,475.25,2089.5088,471.25,2085.5088" style="stroke:#000000;stroke-width:1.0;"/><line style="stroke:#000000;stroke-width:1.0;" x1="453.25" x2="453.25" y1="1936.8042" y2="1960.3115"/><polygon fill="#000000" points="449.25,1950.3115,453.25,1960.3115,457.25,1950.3115,453.25,1954.3115" style="stroke:#000000;stroke-width:1.0;"/><line style="stroke:#000000;stroke-width:1.0;" x1="453.25" x2="453.25" y1="2097.5088" y2="2117.5088"/><polygon fill="#000000" points="449.25,2107.5088,453.25,2117.5088,457.25,2107.5088,453.25,2111.5088" style="stroke:#000000;stroke-width:1.0;"/><line style="stroke:#000000;stroke-width:1.0;" x1="453.25" x2="453.25" y1="2152.0928" y2="2175.6001"/><polygon fill="#000000" points="449.25,2165.6001,453.25,2175.6001,457.25,2165.6001,453.25,2169.6001" style="stroke:#000000;stroke-width:1.0;"/><!--SRC=[hLXHSviu47xdL-ozsJE9nvdsRcxS9dSOS4BF1X-Gfddog5XfcCFW0RbNtwy_8O6GG3Xnfdd86BJIxdxxxIU9NyWptc7OfoZ939AG58EDalG8NbxiK0fMYieoUKfYH98yW_aHmdrU4BY4S0stcDHcDYPq5jx28it_DOoIe88OCoiADxQriGubKTVPp8zicGtp5SOesuYrFXXPJZ0KoRTdOW3zin51Nr69Py3MeqyMpWWkOBGwXdylnyneZGgqm_HjEOC_y_rcYQXFHF2tl3YwDepy-sXz7uqlsa4Qb3HWu6mBbMF3cD5GmCepcaH6obuubk-5qMPj1euNkVR6yuELkPH6B3DoRWF_Vaq7ru4_DoFNztGp7m9plNO2sRDLO1epH7YtXmXzJN7VVJMsQJARiLUNq6Pw0HMQ52HS3wq3TsK6Z_2NymYZrewZrgx8iHVhCN0kUArTMxkKQj83iE4FzvXeCWcTfMD5KkpixGNO5C1DU3yVUVx3Y5RCzI8d-6mkMMPkLVdlA7Mp4CSvTNa9l__sVZgbgr5uxJ6OeOh08l1NB9zyXul65njvk7C2fo8EPHDbmlM9oWAOdYqYlItomvxE-7ZpOidvHBSqOv9ynzJ7bVHQcyyDJ9c9wuLE45N9-shDkq27nvBWdTG0Gq0BYyyeFM0E39yiHbHS-3i6pTNLEnZD4OcVm-G_F3vXznv6Qk-TClwrDcPSKYZaPWb9K4gTWRfSBpjtqR40DmJlVha4Fw1EfX3TEKqn11OhrvERWOEXmbnPErNn5Zt4QtvH79Fj4DgDqT3I710fwkjE6Zr5gZbSmbEHx-XZKH5Nh30K1zdjqtZIT2j_ajkQzqSKYXRH2dNLLd5QbcpAaj8zeFtuoNSz67MXZLjliN35VdSw_KpliPZaUfuJSE_TncQM27oF_fyeuEhzyog8a2ixccNz9AnukxRPD6OoZf8TccWQNXeLaYC4fBSdD3FymAQfpX_bTDP5GWMLLBbQ3DUADwjyIs73MqOvsmajiSJINRbH7GQJHyO1YODInbHzsdwKb8gRdE1gnxGQhHeWgmFwUAqsZMHVy_DLQpjVt30A9Se9qbtrc6IMPHudZ4OXGUHGIfFgtZjTSkwoYYLAudymOOdSNCE2Tj-xgTXVAAY6MgaELhnA4iPcNHnU626gUjNdswYa1SaJZEvGASb1aiccVuo17kao66Kv3uplnlY7B1NL-uvSo1rCxIRoaOAzK7PLqRkAiF7kaqpaJZrBOchsUnhcTQ9hUQvNfOuooLd5NPugazuaJJzPdiwHg7DawcMfUfjS_IJ9wigMHheaP5G-D1Ac0tD0RuOO9K_GA9g-AmQLwirgTOPYdQ5QhN9rYgQYQGxi94AGn3MY4gPAPgJ9Y_oGROKW7N7PEjGTQJGYDI1KPvnltj3EgWXrbMKocOnr3QhiebDTA_MaJ8LhQ8g6UjL4tORw0j5VzDVGjfVZ-RkRIXfrbskLKh_RDUCAoN1QudPNOnmAwvtjnEdXGyFMvCdW__bfUeL-rEqqT71UcL_gIwvyFP0YP64pzxmHrJsw7M3t4JzYTv9-Cx0a_0FP7uXoXnjWlkRRnc1TEvywhkLW5NXLQ6S1BcbC98T5KfIlFpQyyawbGdSYwhTaEEqaLbSymEHGP40JEwHa-4j4ms3-Qoi-Rh2F2jLFTlCtrCDFxuH6zMLl_0y0]--></g></svg>