<svg xmlns="http://www.w3.org/2000/svg" xmlns:xlink="http://www.w3.org/1999/xlink" contentStyleType="text/css" height="799px" preserveAspectRatio="none" style="width:1170px;height:799px;background:#FFFFFF;" version="1.1" viewBox="0 0 1170 799" width="1170px" zoomAndPan="magnify"><defs/><g><text fill="#000000" font-family="Verdana" font-size="22" font-weight="bold" lengthAdjust="spacing" textLength="774" x="196.875" y="37.1182">Daily Normal Classification By Sport - Database Flow Diagram</text><ellipse cx="482.75" cy="62.7373" fill="#FFFFFF" rx="10" ry="10" style="stroke:#000000;stroke-width:1.0;"/><rect fill="#FFFFFF" height="34.584" rx="12.5" ry="12.5" style="stroke:#000000;stroke-width:1.0;" width="105" x="430.25" y="92.7373"/><text fill="#000000" font-family="Verdana" font-size="12" lengthAdjust="spacing" textLength="85" x="440.25" y="114.8018">Job Triggered</text><path d="M632.75,137.3213 L632.75,225.2175 L612.75,229.2175 L632.75,233.2175 L632.75,321.1138 A0,0 0 0 0 632.75,321.1138 L1163.75,321.1138 A0,0 0 0 0 1163.75,321.1138 L1163.75,147.3213 L1153.75,137.3213 L632.75,137.3213 A0,0 0 0 0 632.75,137.3213 " fill="#FFFFFF" style="stroke:#000000;stroke-width:1.0;"/><path d="M1153.75,137.3213 L1153.75,147.3213 L1163.75,147.3213 L1153.75,137.3213 " fill="#FFFFFF" style="stroke:#000000;stroke-width:1.0;"/><text fill="#000000" font-family="Verdana" font-size="13" lengthAdjust="spacing" textLength="245" x="638.75" y="155.3911">Database: CTS_DataCenter (MySQL)</text><text fill="#000000" font-family="Verdana" font-size="13" lengthAdjust="spacing" textLength="510" x="638.75" y="171.1904">Stored Procedure: CTS_DC_CustClassification_BySport_DailyScan_GetNormal</text><text fill="#000000" font-family="Verdana" font-size="13" lengthAdjust="spacing" textLength="41" x="638.75" y="186.9897">Input:</text><text fill="#000000" font-family="Verdana" font-size="13" lengthAdjust="spacing" textLength="303" x="638.75" y="202.7891">- SystemParameter (ParameterID = 114, 115)</text><text fill="#000000" font-family="Verdana" font-size="13" lengthAdjust="spacing" textLength="49" x="638.75" y="218.5884">Tables:</text><text fill="#000000" font-family="Verdana" font-size="13" lengthAdjust="spacing" textLength="134" x="638.75" y="234.3877">- CustomerCategory</text><text fill="#000000" font-family="Verdana" font-size="13" lengthAdjust="spacing" textLength="247" x="638.75" y="250.187">- CTSCustomerClassification_BySport</text><text fill="#000000" font-family="Verdana" font-size="13" lengthAdjust="spacing" textLength="286" x="638.75" y="265.9863">- CTSCustomerAssociationStatus (Archive)</text><text fill="#000000" font-family="Verdana" font-size="13" lengthAdjust="spacing" textLength="52" x="638.75" y="281.7856">Output:</text><text fill="#000000" font-family="Verdana" font-size="13" lengthAdjust="spacing" textLength="263" x="638.75" y="297.585">- NormalAccounts (CustID, SportGroup)</text><text fill="#000000" font-family="Verdana" font-size="13" lengthAdjust="spacing" textLength="196" x="638.75" y="313.3843">- LastCategoryID, LastCustID</text><rect fill="#FFFFFF" height="34.584" rx="12.5" ry="12.5" style="stroke:#000000;stroke-width:1.0;" width="260" x="352.75" y="211.9255"/><text fill="#000000" font-family="Verdana" font-size="12" lengthAdjust="spacing" textLength="240" x="362.75" y="233.99">GetCustClassificationForDailyScanning</text><polygon fill="#FFFFFF" points="436.25,341.1138,529.25,341.1138,541.25,353.1138,529.25,365.1138,436.25,365.1138,424.25,353.1138,436.25,341.1138" style="stroke:#000000;stroke-width:1.0;"/><text fill="#000000" font-family="Verdana" font-size="11" lengthAdjust="spacing" textLength="93" x="436.25" y="357.4885">Has Customers?</text><text fill="#000000" font-family="Verdana" font-size="11" lengthAdjust="spacing" textLength="20" x="404.25" y="350.8042">yes</text><text fill="#000000" font-family="Verdana" font-size="11" lengthAdjust="spacing" textLength="14" x="541.25" y="350.8042">no</text><path d="M272,375.1138 L272,494.6086 L252,498.6086 L272,502.6086 L272,622.1035 A0,0 0 0 0 272,622.1035 L755,622.1035 A0,0 0 0 0 755,622.1035 L755,385.1138 L745,375.1138 L272,375.1138 A0,0 0 0 0 272,375.1138 " fill="#FFFFFF" style="stroke:#000000;stroke-width:1.0;"/><path d="M745,375.1138 L745,385.1138 L755,385.1138 L745,375.1138 " fill="#FFFFFF" style="stroke:#000000;stroke-width:1.0;"/><text fill="#000000" font-family="Verdana" font-size="13" lengthAdjust="spacing" textLength="267" x="278" y="393.1836">Database: bodb_VR2Model (SQL Server)</text><text fill="#000000" font-family="Verdana" font-size="13" lengthAdjust="spacing" textLength="462" x="278" y="408.9829">Stored Procedure: CTS_BySportNormalClassification_Daily_Preprocess</text><text fill="#000000" font-family="Verdana" font-size="13" lengthAdjust="spacing" textLength="41" x="278" y="424.7822">Input:</text><text fill="#000000" font-family="Verdana" font-size="13" lengthAdjust="spacing" textLength="108" x="278" y="440.5815">- CustomersXML</text><text fill="#000000" font-family="Verdana" font-size="13" lengthAdjust="spacing" textLength="49" x="278" y="456.3809">Tables:</text><text fill="#000000" font-family="Verdana" font-size="13" lengthAdjust="spacing" textLength="132" x="278" y="472.1802">- custInfo (bodb02)</text><text fill="#000000" font-family="Verdana" font-size="13" lengthAdjust="spacing" textLength="346" x="278" y="487.9795">- CustomerClassification_BySport_ScannedDailyCust</text><text fill="#000000" font-family="Verdana" font-size="13" lengthAdjust="spacing" textLength="337" x="278" y="503.7788">- CustomerClassification_BySport_LatestActiveDay</text><text fill="#000000" font-family="Verdana" font-size="13" lengthAdjust="spacing" textLength="274" x="278" y="519.5781">- CustomerClassification_BySport_Priority</text><text fill="#000000" font-family="Verdana" font-size="13" lengthAdjust="spacing" textLength="247" x="278" y="535.3774">- Normal Pool (via NormalPool_Insert)</text><text fill="#000000" font-family="Verdana" font-size="13" lengthAdjust="spacing" textLength="40" x="278" y="551.1768">Logic:</text><text fill="#000000" font-family="Verdana" font-size="13" lengthAdjust="spacing" textLength="169" x="278" y="566.9761">- Filter disabled accounts</text><text fill="#000000" font-family="Verdana" font-size="13" lengthAdjust="spacing" textLength="158" x="278" y="582.7754">- Filter already scanned</text><text fill="#000000" font-family="Verdana" font-size="13" lengthAdjust="spacing" textLength="175" x="278" y="598.5747">- Filter inactive customers</text><text fill="#000000" font-family="Verdana" font-size="13" lengthAdjust="spacing" textLength="162" x="278" y="614.374">- Insert into Normal Pool</text><rect fill="#FFFFFF" height="34.584" rx="12.5" ry="12.5" style="stroke:#000000;stroke-width:1.0;" width="246" x="6" y="481.3167"/><text fill="#000000" font-family="Verdana" font-size="12" lengthAdjust="spacing" textLength="226" x="16" y="503.3811">PreprocessDailyNormalClassification</text><path d="M210.5,632.1035 L210.5,672.6018 L190.5,676.6018 L210.5,680.6018 L210.5,721.1001 A0,0 0 0 0 210.5,721.1001 L480.5,721.1001 A0,0 0 0 0 480.5,721.1001 L480.5,642.1035 L470.5,632.1035 L210.5,632.1035 A0,0 0 0 0 210.5,632.1035 " fill="#FFFFFF" style="stroke:#000000;stroke-width:1.0;"/><path d="M470.5,632.1035 L470.5,642.1035 L480.5,642.1035 L470.5,632.1035 " fill="#FFFFFF" style="stroke:#000000;stroke-width:1.0;"/><text fill="#000000" font-family="Verdana" font-size="13" lengthAdjust="spacing" textLength="245" x="216.5" y="650.1733">Database: CTS_DataCenter (MySQL)</text><text fill="#000000" font-family="Verdana" font-size="13" lengthAdjust="spacing" textLength="163" x="216.5" y="665.9727">Table: SystemParameter</text><text fill="#000000" font-family="Verdana" font-size="13" lengthAdjust="spacing" textLength="60" x="216.5" y="681.772">Updates:</text><text fill="#000000" font-family="Verdana" font-size="13" lengthAdjust="spacing" textLength="249" x="216.5" y="697.5713">- ParameterID = 114: LastCategoryID</text><text fill="#000000" font-family="Verdana" font-size="13" lengthAdjust="spacing" textLength="219" x="216.5" y="713.3706">- ParameterID = 115: LastCustID</text><rect fill="#FFFFFF" height="34.584" rx="12.5" ry="12.5" style="stroke:#000000;stroke-width:1.0;" width="123" x="67.5" y="659.3098"/><text fill="#000000" font-family="Verdana" font-size="12" lengthAdjust="spacing" textLength="103" x="77.5" y="681.3743">UpdateLastScan</text><path d="M918,375.1138 L918,391.9131 L898,395.9131 L918,399.9131 L918,416.7124 A0,0 0 0 0 918,416.7124 L1107,416.7124 A0,0 0 0 0 1107,416.7124 L1107,385.1138 L1097,375.1138 L918,375.1138 A0,0 0 0 0 918,375.1138 " fill="#FFFFFF" style="stroke:#000000;stroke-width:1.0;"/><path d="M1097,375.1138 L1097,385.1138 L1107,385.1138 L1097,375.1138 " fill="#FFFFFF" style="stroke:#000000;stroke-width:1.0;"/><text fill="#000000" font-family="Verdana" font-size="13" lengthAdjust="spacing" textLength="168" x="924" y="393.1836">Update SystemParameter</text><text fill="#000000" font-family="Verdana" font-size="13" lengthAdjust="spacing" textLength="106" x="924" y="408.9829">Stop processing</text><rect fill="#FFFFFF" height="34.584" rx="12.5" ry="12.5" style="stroke:#000000;stroke-width:1.0;" width="123" x="775" y="378.6211"/><text fill="#000000" font-family="Verdana" font-size="12" lengthAdjust="spacing" textLength="103" x="785" y="400.6855">UpdateLastScan</text><polygon fill="#FFFFFF" points="482.75,727.1001,494.75,739.1001,482.75,751.1001,470.75,739.1001,482.75,727.1001" style="stroke:#000000;stroke-width:1.0;"/><ellipse cx="482.75" cy="782.1001" fill="none" rx="11" ry="11" style="stroke:#000000;stroke-width:1.0;"/><ellipse cx="482.75" cy="782.1001" fill="#FFFFFF" rx="6" ry="6" style="stroke:#000000;stroke-width:1.0;"/><line style="stroke:#000000;stroke-width:1.0;" x1="482.75" x2="482.75" y1="72.7373" y2="92.7373"/><polygon fill="#000000" points="478.75,82.7373,482.75,92.7373,486.75,82.7373,482.75,86.7373" style="stroke:#000000;stroke-width:1.0;"/><line style="stroke:#000000;stroke-width:1.0;" x1="482.75" x2="482.75" y1="127.3213" y2="211.9255"/><polygon fill="#000000" points="478.75,201.9255,482.75,211.9255,486.75,201.9255,482.75,205.9255" style="stroke:#000000;stroke-width:1.0;"/><line style="stroke:#000000;stroke-width:1.0;" x1="129" x2="129" y1="515.9006" y2="659.3098"/><polygon fill="#000000" points="125,649.3098,129,659.3098,133,649.3098,129,653.3098" style="stroke:#000000;stroke-width:1.0;"/><line style="stroke:#000000;stroke-width:1.0;" x1="424.25" x2="129" y1="353.1138" y2="353.1138"/><line style="stroke:#000000;stroke-width:1.0;" x1="129" x2="129" y1="353.1138" y2="481.3167"/><polygon fill="#000000" points="125,471.3167,129,481.3167,133,471.3167,129,475.3167" style="stroke:#000000;stroke-width:1.0;"/><line style="stroke:#000000;stroke-width:1.0;" x1="541.25" x2="836.5" y1="353.1138" y2="353.1138"/><line style="stroke:#000000;stroke-width:1.0;" x1="836.5" x2="836.5" y1="353.1138" y2="378.6211"/><polygon fill="#000000" points="832.5,368.6211,836.5,378.6211,840.5,368.6211,836.5,372.6211" style="stroke:#000000;stroke-width:1.0;"/><line style="stroke:#000000;stroke-width:1.0;" x1="129" x2="129" y1="693.8938" y2="739.1001"/><line style="stroke:#000000;stroke-width:1.0;" x1="129" x2="470.75" y1="739.1001" y2="739.1001"/><polygon fill="#000000" points="460.75,735.1001,470.75,739.1001,460.75,743.1001,464.75,739.1001" style="stroke:#000000;stroke-width:1.0;"/><line style="stroke:#000000;stroke-width:1.0;" x1="836.5" x2="836.5" y1="413.2051" y2="739.1001"/><line style="stroke:#000000;stroke-width:1.0;" x1="836.5" x2="494.75" y1="739.1001" y2="739.1001"/><polygon fill="#000000" points="504.75,735.1001,494.75,739.1001,504.75,743.1001,500.75,739.1001" style="stroke:#000000;stroke-width:1.0;"/><line style="stroke:#000000;stroke-width:1.0;" x1="482.75" x2="482.75" y1="246.5095" y2="341.1138"/><polygon fill="#000000" points="478.75,331.1138,482.75,341.1138,486.75,331.1138,482.75,335.1138" style="stroke:#000000;stroke-width:1.0;"/><line style="stroke:#000000;stroke-width:1.0;" x1="482.75" x2="482.75" y1="751.1001" y2="771.1001"/><polygon fill="#000000" points="478.75,761.1001,482.75,771.1001,486.75,761.1001,482.75,765.1001" style="stroke:#000000;stroke-width:1.0;"/><!--SRC=[bLHDRvj04BtpAwOta1AfYPeBKLKvM4vTsQqRtAetj8OnNWdlejt15V- - -u49s4xaSa3iydRclNap-u5sk4UeAyP5G9mgX2dZLGlVfTgp2fAAQSstF6V4fO2d5j9QAe9R0oEsOHfXLic_CEMiL6mV19gOeY3-9ZUmLhmiKM7n60JnCrBIQ1h7cqdbigKv4uAByZ4GaX3CkHq5O9vZaXYITPhPLOA2K46uRDEVYyY1Kf8c2QoKpB5er16SPES9iwVMyS_wj9aXvhMwM7DHDnIxprj8MqsuNp4Z35tI_dC-XSzmT_VfnhmUF8irsrIeZqTjQhb7bJ32KghskBrE-pyNYPtZ9bhBd3jGIemQ3U54vJj-G9_tHqC3obxA9Czb8yX0RPJvzCQxzgnaKqSTSi5CSJfs5k7M3XsWAC0Q4GHy2-5Nfdiv-ai4fcC4X2rg7obUAQnjwRLsHVKCnkeU7VB4sx6_6rbiijylzqjPO0MXCHTIL0TKKG- -x7DNk4jflSlPAy4-rC3ciL_wptBHRmyjzR3S5aXi9OIMxyVxw4A8DphEzJWMZfA5NdzoOLpIDCd9U3vbxVK7LufBnMbueXlhbPIco0VEkWsxpkP2ew9NIGjPydoeViOhEmO5rxOm1R2kpSuXh5B8YXQq5tqEu88vFQwYhl03Z2TYC2I7X1sYxqsxy0tugovCXMp_sXfVqMllt2MzxV7fzFU_VRfHMvpT2_79UBs3VOY7epUIY9MvNaCXe__IwM5lqZTJL4Ct3-RAFSae2hwrbxYiWty0]--></g></svg>