<svg xmlns="http://www.w3.org/2000/svg" xmlns:xlink="http://www.w3.org/1999/xlink" contentStyleType="text/css" height="1033px" preserveAspectRatio="none" style="width:867px;height:1033px;background:#FFFFFF;" version="1.1" viewBox="0 0 867 1033" width="867px" zoomAndPan="magnify"><defs/><g><text fill="#000000" font-family="Verdana" font-size="22" font-weight="bold" lengthAdjust="spacing" textLength="834" x="15" y="37.1182">Daily Normal Classification By Sport - SP Preprocess Detailed Flow</text><ellipse cx="223.75" cy="62.7373" fill="#FFFFFF" rx="10" ry="10" style="stroke:#000000;stroke-width:1.0;"/><path d="M415.25,89.23 L415.25,106.0293 L395.25,110.0293 L415.25,114.0293 L415.25,130.8286 A0,0 0 0 0 415.25,130.8286 L703.25,130.8286 A0,0 0 0 0 703.25,130.8286 L703.25,99.23 L693.25,89.23 L415.25,89.23 A0,0 0 0 0 415.25,89.23 " fill="#FFFFFF" style="stroke:#000000;stroke-width:1.0;"/><path d="M693.25,89.23 L693.25,99.23 L703.25,99.23 L693.25,89.23 " fill="#FFFFFF" style="stroke:#000000;stroke-width:1.0;"/><text fill="#000000" font-family="Verdana" font-size="13" lengthAdjust="spacing" textLength="267" x="421.25" y="107.2998">Database: bodb_VR2Model (SQL Server)</text><text fill="#000000" font-family="Verdana" font-size="13" lengthAdjust="spacing" textLength="231" x="421.25" y="123.0991">Parameter: @CustomersXML (XML)</text><rect fill="#FFFFFF" height="34.584" rx="12.5" ry="12.5" style="stroke:#000000;stroke-width:1.0;" width="343" x="52.25" y="92.7373"/><text fill="#000000" font-family="Verdana" font-size="12" lengthAdjust="spacing" textLength="323" x="62.25" y="114.8018">CTS_BySportNormalClassification_Daily_Preprocess</text><path d="M311.25,140.8286 L311.25,181.3269 L291.25,185.3269 L311.25,189.3269 L311.25,229.8252 A0,0 0 0 0 311.25,229.8252 L648.25,229.8252 A0,0 0 0 0 648.25,229.8252 L648.25,150.8286 L638.25,140.8286 L311.25,140.8286 A0,0 0 0 0 311.25,140.8286 " fill="#FFFFFF" style="stroke:#000000;stroke-width:1.0;"/><path d="M638.25,140.8286 L638.25,150.8286 L648.25,150.8286 L638.25,140.8286 " fill="#FFFFFF" style="stroke:#000000;stroke-width:1.0;"/><text fill="#000000" font-family="Verdana" font-size="13" lengthAdjust="spacing" textLength="110" x="317.25" y="158.8984">@FunctionId = 3</text><text fill="#000000" font-family="Verdana" font-size="13" lengthAdjust="spacing" textLength="153" x="317.25" y="174.6978">@ToDate = GETDATE()</text><text fill="#000000" font-family="Verdana" font-size="13" lengthAdjust="spacing" textLength="316" x="317.25" y="190.4971">@From30Date = DATEADD(DAY, -29, @ToDate)</text><text fill="#000000" font-family="Verdana" font-size="13" lengthAdjust="spacing" textLength="145" x="317.25" y="206.2964">@Priority_GroupId = 1</text><text fill="#000000" font-family="Verdana" font-size="13" lengthAdjust="spacing" textLength="219" x="317.25" y="222.0957">@Priority_ActionUnknown = 9999</text><rect fill="#FFFFFF" height="34.584" rx="12.5" ry="12.5" style="stroke:#000000;stroke-width:1.0;" width="135" x="156.25" y="168.0349"/><text fill="#000000" font-family="Verdana" font-size="12" lengthAdjust="spacing" textLength="115" x="166.25" y="190.0994">Initialize Variables</text><path d="M313.25,239.8252 L313.25,272.4238 L293.25,276.4238 L313.25,280.4238 L313.25,313.0225 A0,0 0 0 0 313.25,313.0225 L578.25,313.0225 A0,0 0 0 0 578.25,313.0225 L578.25,249.8252 L568.25,239.8252 L313.25,239.8252 A0,0 0 0 0 313.25,239.8252 " fill="#FFFFFF" style="stroke:#000000;stroke-width:1.0;"/><path d="M568.25,239.8252 L568.25,249.8252 L578.25,249.8252 L568.25,239.8252 " fill="#FFFFFF" style="stroke:#000000;stroke-width:1.0;"/><text fill="#000000" font-family="Verdana" font-size="13" lengthAdjust="spacing" textLength="13" x="319.25" y="257.895">1.</text><text fill="#000000" font-family="Verdana" font-size="13" lengthAdjust="spacing" textLength="100" x="337.25" y="257.895">tmpCustomers:</text><text fill="#000000" font-family="Verdana" font-size="13" lengthAdjust="spacing" textLength="95" x="319.25" y="273.6943">- CustId (INT)</text><text fill="#000000" font-family="Verdana" font-size="13" lengthAdjust="spacing" textLength="126" x="319.25" y="289.4937">- SportGroup (INT)</text><text fill="#000000" font-family="Verdana" font-size="13" lengthAdjust="spacing" textLength="244" x="319.25" y="305.293">- PRIMARY KEY (CustId, SportGroup)</text><rect fill="#FFFFFF" height="34.584" rx="12.5" ry="12.5" style="stroke:#000000;stroke-width:1.0;" width="139" x="154.25" y="259.1318"/><text fill="#000000" font-family="Verdana" font-size="12" lengthAdjust="spacing" textLength="119" x="164.25" y="281.1963">Create Temp Table</text><path d="M331.75,323.0225 L331.75,363.5208 L311.75,367.5208 L331.75,371.5208 L331.75,412.019 A0,0 0 0 0 331.75,412.019 L735.75,412.019 A0,0 0 0 0 735.75,412.019 L735.75,333.0225 L725.75,323.0225 L331.75,323.0225 A0,0 0 0 0 331.75,323.0225 " fill="#FFFFFF" style="stroke:#000000;stroke-width:1.0;"/><path d="M725.75,323.0225 L725.75,333.0225 L735.75,333.0225 L725.75,323.0225 " fill="#FFFFFF" style="stroke:#000000;stroke-width:1.0;"/><text fill="#000000" font-family="Verdana" font-size="13" lengthAdjust="spacing" textLength="195" x="337.75" y="341.0923">INSERT INTO #tmpCustomers</text><text fill="#000000" font-family="Verdana" font-size="13" lengthAdjust="spacing" textLength="50" x="337.75" y="356.8916">SELECT</text><text fill="#000000" font-family="Verdana" font-size="13" lengthAdjust="spacing" textLength="258" x="347.75" y="372.6909">T.C.value('./@CustId', 'INT') AS CustId</text><text fill="#000000" font-family="Verdana" font-size="13" lengthAdjust="spacing" textLength="373" x="347.75" y="388.4902">, T.C.value('./@SportGroup', 'SMALLINT') AS SportGroup</text><text fill="#000000" font-family="Verdana" font-size="13" lengthAdjust="spacing" textLength="288" x="337.75" y="404.2896">FROM @CustomersXML.nodes('//r') AS T(C)</text><rect fill="#FFFFFF" height="34.584" rx="12.5" ry="12.5" style="stroke:#000000;stroke-width:1.0;" width="176" x="135.75" y="350.2288"/><text fill="#000000" font-family="Verdana" font-size="12" lengthAdjust="spacing" textLength="156" x="145.75" y="372.2932">Parse XML Customer List</text><path d="M337.75,422.019 L337.75,454.6177 L317.75,458.6177 L337.75,462.6177 L337.75,495.2163 A0,0 0 0 0 337.75,495.2163 L603.75,495.2163 A0,0 0 0 0 603.75,495.2163 L603.75,432.019 L593.75,422.019 L337.75,422.019 A0,0 0 0 0 337.75,422.019 " fill="#FFFFFF" style="stroke:#000000;stroke-width:1.0;"/><path d="M593.75,422.019 L593.75,432.019 L603.75,432.019 L593.75,422.019 " fill="#FFFFFF" style="stroke:#000000;stroke-width:1.0;"/><text fill="#000000" font-family="Verdana" font-size="13" lengthAdjust="spacing" textLength="233" x="343.75" y="440.0889">DELETE FROM #tmpCustomers AS r</text><text fill="#000000" font-family="Verdana" font-size="13" lengthAdjust="spacing" textLength="245" x="343.75" y="455.8882">LEFT JOIN bodb02.dbo.custInfo AS c</text><text fill="#000000" font-family="Verdana" font-size="13" lengthAdjust="spacing" textLength="149" x="353.75" y="471.6875">ON r.CustId = c.custid</text><text fill="#000000" font-family="Verdana" font-size="13" lengthAdjust="spacing" textLength="154" x="343.75" y="487.4868">WHERE c.[Enabled] = 0</text><rect fill="#FFFFFF" height="34.584" rx="12.5" ry="12.5" style="stroke:#000000;stroke-width:1.0;" width="188" x="129.75" y="441.3257"/><text fill="#000000" font-family="Verdana" font-size="12" lengthAdjust="spacing" textLength="168" x="139.75" y="463.3901">Remove Disabled Accounts</text><path d="M360.75,505.2163 L360.75,569.4136 L340.75,573.4136 L360.75,577.4136 L360.75,641.6108 A0,0 0 0 0 360.75,641.6108 L813.75,641.6108 A0,0 0 0 0 813.75,641.6108 L813.75,515.2163 L803.75,505.2163 L360.75,505.2163 A0,0 0 0 0 360.75,505.2163 " fill="#FFFFFF" style="stroke:#000000;stroke-width:1.0;"/><path d="M803.75,505.2163 L803.75,515.2163 L813.75,515.2163 L803.75,505.2163 " fill="#FFFFFF" style="stroke:#000000;stroke-width:1.0;"/><text fill="#000000" font-family="Verdana" font-size="13" lengthAdjust="spacing" textLength="236" x="366.75" y="523.2861">DELETE FROM #tmpCustomers AS a</text><text fill="#000000" font-family="Verdana" font-size="13" lengthAdjust="spacing" textLength="111" x="366.75" y="539.0854">WHERE EXISTS (</text><text fill="#000000" font-family="Verdana" font-size="13" lengthAdjust="spacing" textLength="63" x="386.75" y="554.8848">SELECT 1</text><text fill="#000000" font-family="Verdana" font-size="13" lengthAdjust="spacing" textLength="412" x="386.75" y="570.6841">FROM CustomerClassification_BySport_ScannedDailyCust AS b</text><text fill="#000000" font-family="Verdana" font-size="13" lengthAdjust="spacing" textLength="182" x="386.75" y="586.4834">WHERE a.CustId = b.CustId</text><text fill="#000000" font-family="Verdana" font-size="13" lengthAdjust="spacing" textLength="225" x="396.75" y="602.2827">AND a.SportGroup = b.SportGroup</text><text fill="#000000" font-family="Verdana" font-size="13" lengthAdjust="spacing" textLength="208" x="396.75" y="618.082">AND b.CreatedDate = @ToDate</text><text fill="#000000" font-family="Verdana" font-size="13" lengthAdjust="spacing" textLength="6" x="366.75" y="633.8813">)</text><rect fill="#FFFFFF" height="34.584" rx="12.5" ry="12.5" style="stroke:#000000;stroke-width:1.0;" width="234" x="106.75" y="556.1216"/><text fill="#000000" font-family="Verdana" font-size="12" lengthAdjust="spacing" textLength="214" x="116.75" y="578.186">Remove Scanned Daily Customers</text><path d="M341.75,651.6108 L341.75,715.8081 L321.75,719.8081 L341.75,723.8081 L341.75,788.0054 A0,0 0 0 0 341.75,788.0054 L785.75,788.0054 A0,0 0 0 0 785.75,788.0054 L785.75,661.6108 L775.75,651.6108 L341.75,651.6108 A0,0 0 0 0 341.75,651.6108 " fill="#FFFFFF" style="stroke:#000000;stroke-width:1.0;"/><path d="M775.75,651.6108 L775.75,661.6108 L785.75,661.6108 L775.75,651.6108 " fill="#FFFFFF" style="stroke:#000000;stroke-width:1.0;"/><text fill="#000000" font-family="Verdana" font-size="13" lengthAdjust="spacing" textLength="233" x="347.75" y="669.6807">DELETE FROM #tmpCustomers AS r</text><text fill="#000000" font-family="Verdana" font-size="13" lengthAdjust="spacing" textLength="144" x="347.75" y="685.48">WHERE NOT EXISTS (</text><text fill="#000000" font-family="Verdana" font-size="13" lengthAdjust="spacing" textLength="63" x="367.75" y="701.2793">SELECT 1</text><text fill="#000000" font-family="Verdana" font-size="13" lengthAdjust="spacing" textLength="403" x="367.75" y="717.0786">FROM CustomerClassification_BySport_LatestActiveDay AS c</text><text fill="#000000" font-family="Verdana" font-size="13" lengthAdjust="spacing" textLength="179" x="367.75" y="732.8779">WHERE c.CustId = r.CustId</text><text fill="#000000" font-family="Verdana" font-size="13" lengthAdjust="spacing" textLength="222" x="377.75" y="748.6772">AND c.SportGroup = r.SportGroup</text><text fill="#000000" font-family="Verdana" font-size="13" lengthAdjust="spacing" textLength="261" x="377.75" y="764.4766">AND c.LastTransDate &gt;= @From30Date</text><text fill="#000000" font-family="Verdana" font-size="13" lengthAdjust="spacing" textLength="6" x="347.75" y="780.2759">)</text><rect fill="#FFFFFF" height="34.584" rx="12.5" ry="12.5" style="stroke:#000000;stroke-width:1.0;" width="196" x="125.75" y="702.5161"/><text fill="#000000" font-family="Verdana" font-size="12" lengthAdjust="spacing" textLength="176" x="135.75" y="724.5806">Remove Inactive Customers</text><path d="M288.75,798.0054 L288.75,838.5037 L268.75,842.5037 L288.75,846.5037 L288.75,887.002 A0,0 0 0 0 288.75,887.002 L671.75,887.002 A0,0 0 0 0 671.75,887.002 L671.75,808.0054 L661.75,798.0054 L288.75,798.0054 A0,0 0 0 0 288.75,798.0054 " fill="#FFFFFF" style="stroke:#000000;stroke-width:1.0;"/><path d="M661.75,798.0054 L661.75,808.0054 L671.75,808.0054 L661.75,798.0054 " fill="#FFFFFF" style="stroke:#000000;stroke-width:1.0;"/><text fill="#000000" font-family="Verdana" font-size="13" lengthAdjust="spacing" textLength="362" x="294.75" y="816.0752">SELECT ISNULL(p.[Priority], @Priority_ActionUnknown)</text><text fill="#000000" font-family="Verdana" font-size="13" lengthAdjust="spacing" textLength="340" x="294.75" y="831.8745">FROM CustomerClassification_BySport_Priority AS p</text><text fill="#000000" font-family="Verdana" font-size="13" lengthAdjust="spacing" textLength="252" x="294.75" y="847.6738">WHERE p.GroupId = @Priority_GroupId</text><text fill="#000000" font-family="Verdana" font-size="13" lengthAdjust="spacing" textLength="217" x="304.75" y="863.4731">AND p.FunctionId = @FunctionId</text><text fill="#000000" font-family="Verdana" font-size="13" lengthAdjust="spacing" textLength="59" x="294.75" y="879.2725">@Priority</text><rect fill="#FFFFFF" height="34.584" rx="12.5" ry="12.5" style="stroke:#000000;stroke-width:1.0;" width="90" x="178.75" y="825.2117"/><text fill="#000000" font-family="Verdana" font-size="12" lengthAdjust="spacing" textLength="70" x="188.75" y="847.2761">Get Priority</text><path d="M326.25,897.002 L326.25,937.5002 L306.25,941.5002 L326.25,945.5002 L326.25,985.9985 A0,0 0 0 0 326.25,985.9985 L729.25,985.9985 A0,0 0 0 0 729.25,985.9985 L729.25,907.002 L719.25,897.002 L326.25,897.002 A0,0 0 0 0 326.25,897.002 " fill="#FFFFFF" style="stroke:#000000;stroke-width:1.0;"/><path d="M719.25,897.002 L719.25,907.002 L729.25,907.002 L719.25,897.002 " fill="#FFFFFF" style="stroke:#000000;stroke-width:1.0;"/><text fill="#000000" font-family="Verdana" font-size="13" lengthAdjust="spacing" textLength="382" x="332.25" y="915.0718">EXEC CTS_BySportNormalClassification_NormalPool_Insert</text><text fill="#000000" font-family="Verdana" font-size="13" lengthAdjust="spacing" textLength="185" x="332.25" y="930.8711">@FunctionId = @FunctionId</text><text fill="#000000" font-family="Verdana" font-size="13" lengthAdjust="spacing" textLength="137" x="332.25" y="946.6704">@Priority = @Priority</text><text fill="#000000" font-family="Verdana" font-size="13" lengthAdjust="spacing" textLength="223" x="332.25" y="962.4697">Insert customers into Normal Pool</text><text fill="#000000" font-family="Verdana" font-size="13" lengthAdjust="spacing" textLength="218" x="332.25" y="978.269">for later classification processing</text><rect fill="#FFFFFF" height="34.584" rx="12.5" ry="12.5" style="stroke:#000000;stroke-width:1.0;" width="165" x="141.25" y="924.2083"/><text fill="#000000" font-family="Verdana" font-size="12" lengthAdjust="spacing" textLength="145" x="151.25" y="946.2727">Insert into Normal Pool</text><ellipse cx="223.75" cy="1016.9985" fill="none" rx="11" ry="11" style="stroke:#000000;stroke-width:1.0;"/><ellipse cx="223.75" cy="1016.9985" fill="#FFFFFF" rx="6" ry="6" style="stroke:#000000;stroke-width:1.0;"/><line style="stroke:#000000;stroke-width:1.0;" x1="223.75" x2="223.75" y1="72.7373" y2="92.7373"/><polygon fill="#000000" points="219.75,82.7373,223.75,92.7373,227.75,82.7373,223.75,86.7373" style="stroke:#000000;stroke-width:1.0;"/><line style="stroke:#000000;stroke-width:1.0;" x1="223.75" x2="223.75" y1="127.3213" y2="168.0349"/><polygon fill="#000000" points="219.75,158.0349,223.75,168.0349,227.75,158.0349,223.75,162.0349" style="stroke:#000000;stroke-width:1.0;"/><line style="stroke:#000000;stroke-width:1.0;" x1="223.75" x2="223.75" y1="202.6189" y2="259.1318"/><polygon fill="#000000" points="219.75,249.1318,223.75,259.1318,227.75,249.1318,223.75,253.1318" style="stroke:#000000;stroke-width:1.0;"/><line style="stroke:#000000;stroke-width:1.0;" x1="223.75" x2="223.75" y1="293.7158" y2="350.2288"/><polygon fill="#000000" points="219.75,340.2288,223.75,350.2288,227.75,340.2288,223.75,344.2288" style="stroke:#000000;stroke-width:1.0;"/><line style="stroke:#000000;stroke-width:1.0;" x1="223.75" x2="223.75" y1="384.8127" y2="441.3257"/><polygon fill="#000000" points="219.75,431.3257,223.75,441.3257,227.75,431.3257,223.75,435.3257" style="stroke:#000000;stroke-width:1.0;"/><line style="stroke:#000000;stroke-width:1.0;" x1="223.75" x2="223.75" y1="475.9097" y2="556.1216"/><polygon fill="#000000" points="219.75,546.1216,223.75,556.1216,227.75,546.1216,223.75,550.1216" style="stroke:#000000;stroke-width:1.0;"/><line style="stroke:#000000;stroke-width:1.0;" x1="223.75" x2="223.75" y1="590.7056" y2="702.5161"/><polygon fill="#000000" points="219.75,692.5161,223.75,702.5161,227.75,692.5161,223.75,696.5161" style="stroke:#000000;stroke-width:1.0;"/><line style="stroke:#000000;stroke-width:1.0;" x1="223.75" x2="223.75" y1="737.1001" y2="825.2117"/><polygon fill="#000000" points="219.75,815.2117,223.75,825.2117,227.75,815.2117,223.75,819.2117" style="stroke:#000000;stroke-width:1.0;"/><line style="stroke:#000000;stroke-width:1.0;" x1="223.75" x2="223.75" y1="859.7957" y2="924.2083"/><polygon fill="#000000" points="219.75,914.2083,223.75,924.2083,227.75,914.2083,223.75,918.2083" style="stroke:#000000;stroke-width:1.0;"/><line style="stroke:#000000;stroke-width:1.0;" x1="223.75" x2="223.75" y1="958.7922" y2="1005.9985"/><polygon fill="#000000" points="219.75,995.9985,223.75,1005.9985,227.75,995.9985,223.75,999.9985" style="stroke:#000000;stroke-width:1.0;"/><!--SRC=[hLNVRvim47xdhxXf3o5IIhlsgPawbGBjs0Z9Wjkrggh88MvhZTZ8EAsoltwsWG19gltGU4Z0_kxkky_dktVocIm9v1ccp99KPWHyJBCrn5miSGPUXek2Fj8KIyePNAmXoRcGS03912Q2v8Adf2Z09rAPaGLSPlpLiWg9XRI67afc5sjZKVhhkfkPKBF6pKUBSKb0qATdQO5wV2pn71Ta27E-cCzkfiSZlY0PsCct218YNeZe6-042xmaaeWXd7khGl8b4SNjA09R_VGjmXQWNLlMC6HKKfpHdmHkiA1udf7TkEUNAvPgYk42pk2aN4DSqI7g-of0lei2krzX1L-U75LxUiFrVTjtxmPmS7mwgEqgy4HGBgXSpwu4N-N6_OUj7TT4lcO_67zbQlzKFUqCF45qB4IMEI3DVuV-UxdCDoeCpT81w0KLpmvZrA-MpCaO8ftboJGSkTCx-1hSWLsQ3LhOZfnA-8A0LheE214jv0wbC4w2AL9_QDobPtQJ80eyP5u1aECvBpXR4Rld79wNyNi3w2dRNX_SfCgaGW-sy0rFRPECt2ZQ63PxnlXoEXvroyLXghmAktTuA4eBP7kTTATaoL_K7Q655du1Rfho5PDxAbTbX88oH2TVxLKOI1HS8lWo3cDJt4V7pcBEdLJdnXwvXgLLYkCOX5CTtnca1aFB_Bz_3gQ1MheFc27qe017UmWdAMPCyIqlzuRCtz76hP31RPYW1EoAOds4LJ5lrAtjjov-rHHc5It3IaDrbFd6Gna9DwdFdSxHwyUDVOLe5R96RPrpWrGEpELPLBUrkfi6jU-SGuRLPLGl_wYOQ2aMZz5_KYrIb0lf6cO-NhTBfQc8ZMXYlsXfLpJnjcYf4-528e5POMJxTDRkURlQNH49TJFRaQjAE4pYwoYoS-U-HZuCtcg1VUjFXQdjjI9vI_hSQRhjJWUscanpfzFtMrEWswAxywGWQY1I9dazD2USPpk91xU11xyRYEMYjf-LVlTCepTPjPChUsv9BTrKv3P9Wtha0Z9ra0BIxh2lXZ9bJwrybQlS-WK0]--></g></svg>