<svg xmlns="http://www.w3.org/2000/svg" xmlns:xlink="http://www.w3.org/1999/xlink" contentStyleType="text/css" height="1915px" preserveAspectRatio="none" style="width:2769px;height:1915px;background:#FFFFFF;" version="1.1" viewBox="0 0 2769 1915" width="2769px" zoomAndPan="magnify"><defs/><g><text fill="#000000" font-family="Verdana" font-size="22" font-weight="bold" lengthAdjust="spacing" textLength="712" x="1032.5" y="37.1182">Daily Normal Classification By Sport - Sequence Diagram</text><rect fill="#FFFFFF" height="1619.127" style="stroke:#000000;stroke-width:1.0;" width="10" x="598" y="179.5659"/><rect fill="#FFFFFF" height="1543.729" style="stroke:#000000;stroke-width:1.0;" width="10" x="843" y="209.3652"/><rect fill="#FFFFFF" height="72.5986" style="stroke:#000000;stroke-width:1.0;" width="10" x="1135" y="263.9639"/><rect fill="#FFFFFF" height="389.7891" style="stroke:#000000;stroke-width:1.0;" width="10" x="1135" y="366.3618"/><rect fill="#FFFFFF" height="432.5884" style="stroke:#000000;stroke-width:1.0;" width="10" x="1135" y="810.7495"/><rect fill="#FFFFFF" height="271.7925" style="stroke:#000000;stroke-width:1.0;" width="10" x="1135" y="1273.1372"/><rect fill="#FFFFFF" height="119.1973" style="stroke:#000000;stroke-width:1.0;" width="10" x="1135" y="1590.0977"/><rect fill="#FFFFFF" height="330.1904" style="stroke:#000000;stroke-width:1.0;" width="10" x="1618" y="396.1611"/><rect fill="#FFFFFF" height="278.5918" style="stroke:#000000;stroke-width:1.0;" width="10" x="1618" y="934.9468"/><rect fill="#FFFFFF" height="91.1973" style="stroke:#000000;stroke-width:1.0;" width="10" x="2095" y="1302.9365"/><rect fill="#FFFFFF" height="91.1973" style="stroke:#000000;stroke-width:1.0;" width="10" x="2095" y="1423.9331"/><rect fill="#FFFFFF" height="59.5986" style="stroke:#000000;stroke-width:1.0;" width="10" x="2095" y="1619.897"/><rect fill="#FFFFFF" height="144.5952" style="stroke:#000000;stroke-width:1.0;" width="10" x="2379" y="551.957"/><rect fill="#FFFFFF" height="160.3945" style="stroke:#000000;stroke-width:1.0;" width="10" x="2511" y="1023.3447"/><rect fill="#FFFFFF" height="1499.9297" style="stroke:#000000;stroke-width:1.0;" width="2067" x="696" y="224.3652"/><rect fill="#FFFFFF" height="946.144" style="stroke:#000000;stroke-width:1.0;" width="2047" x="706" y="771.1509"/><rect fill="#FFFFFF" height="164.3652" style="stroke:none;stroke-width:1.0;" width="2047" x="706" y="1552.9297"/><line style="stroke:#000000;stroke-width:1.0;" x1="62" x2="62" y1="147.7666" y2="1816.6929"/><line style="stroke:#000000;stroke-width:1.0;" x1="603" x2="603" y1="147.7666" y2="1816.6929"/><line style="stroke:#000000;stroke-width:1.0;" x1="848" x2="848" y1="147.7666" y2="1816.6929"/><line style="stroke:#000000;stroke-width:1.0;" x1="1140" x2="1140" y1="147.7666" y2="1816.6929"/><line style="stroke:#000000;stroke-width:1.0;" x1="1623" x2="1623" y1="147.7666" y2="1816.6929"/><line style="stroke:#000000;stroke-width:1.0;" x1="2100" x2="2100" y1="147.7666" y2="1816.6929"/><line style="stroke:#000000;stroke-width:1.0;" x1="2384" x2="2384" y1="147.7666" y2="1816.6929"/><line style="stroke:#000000;stroke-width:1.0;" x1="2516" x2="2516" y1="147.7666" y2="1816.6929"/><text fill="#000000" font-family="Verdana" font-size="14" lengthAdjust="spacing" textLength="98" x="10" y="127.8125">Job Scheduler</text><text fill="#000000" font-family="Verdana" font-size="14" lengthAdjust="spacing" textLength="70" x="24" y="144.8271">(External)</text><ellipse cx="62" cy="61.7373" fill="#FFFFFF" rx="8" ry="8" style="stroke:#000000;stroke-width:1.0;"/><path d="M62,69.7373 L62,96.7373 M49,77.7373 L75,77.7373 M62,96.7373 L49,111.7373 M62,96.7373 L75,111.7373 " fill="none" style="stroke:#000000;stroke-width:1.0;"/><text fill="#000000" font-family="Verdana" font-size="14" lengthAdjust="spacing" textLength="98" x="10" y="1829.7681">Job Scheduler</text><text fill="#000000" font-family="Verdana" font-size="14" lengthAdjust="spacing" textLength="70" x="24" y="1846.7827">(External)</text><ellipse cx="62" cy="1858.7222" fill="#FFFFFF" rx="8" ry="8" style="stroke:#000000;stroke-width:1.0;"/><path d="M62,1866.7222 L62,1893.7222 M49,1874.7222 L75,1874.7222 M62,1893.7222 L49,1908.7222 M62,1893.7222 L75,1908.7222 " fill="none" style="stroke:#000000;stroke-width:1.0;"/><rect fill="#FFFFFF" height="48.0293" rx="2.5" ry="2.5" style="stroke:#000000;stroke-width:1.0;" width="186" x="510" y="98.7373"/><text fill="#000000" font-family="Verdana" font-size="14" lengthAdjust="spacing" textLength="172" x="517" y="119.8125">ClassificationBySportJob</text><text fill="#000000" font-family="Verdana" font-size="14" lengthAdjust="spacing" textLength="69" x="568.5" y="136.8271">Controller</text><rect fill="#FFFFFF" height="48.0293" rx="2.5" ry="2.5" style="stroke:#000000;stroke-width:1.0;" width="186" x="510" y="1815.6929"/><text fill="#000000" font-family="Verdana" font-size="14" lengthAdjust="spacing" textLength="172" x="517" y="1836.7681">ClassificationBySportJob</text><text fill="#000000" font-family="Verdana" font-size="14" lengthAdjust="spacing" textLength="69" x="568.5" y="1853.7827">Controller</text><rect fill="#FFFFFF" height="48.0293" rx="2.5" ry="2.5" style="stroke:#000000;stroke-width:1.0;" width="244" x="726" y="98.7373"/><text fill="#000000" font-family="Verdana" font-size="14" lengthAdjust="spacing" textLength="230" x="733" y="119.8125">DailyNormalClassificationBySport</text><text fill="#000000" font-family="Verdana" font-size="14" lengthAdjust="spacing" textLength="74" x="811" y="136.8271">JobService</text><rect fill="#FFFFFF" height="48.0293" rx="2.5" ry="2.5" style="stroke:#000000;stroke-width:1.0;" width="244" x="726" y="1815.6929"/><text fill="#000000" font-family="Verdana" font-size="14" lengthAdjust="spacing" textLength="230" x="733" y="1836.7681">DailyNormalClassificationBySport</text><text fill="#000000" font-family="Verdana" font-size="14" lengthAdjust="spacing" textLength="74" x="811" y="1853.7827">JobService</text><rect fill="#FFFFFF" height="48.0293" rx="2.5" ry="2.5" style="stroke:#000000;stroke-width:1.0;" width="244" x="1018" y="98.7373"/><text fill="#000000" font-family="Verdana" font-size="14" lengthAdjust="spacing" textLength="230" x="1025" y="119.8125">DailyNormalClassificationBySport</text><text fill="#000000" font-family="Verdana" font-size="14" lengthAdjust="spacing" textLength="50" x="1115" y="136.8271">Service</text><rect fill="#FFFFFF" height="48.0293" rx="2.5" ry="2.5" style="stroke:#000000;stroke-width:1.0;" width="244" x="1018" y="1815.6929"/><text fill="#000000" font-family="Verdana" font-size="14" lengthAdjust="spacing" textLength="230" x="1025" y="1836.7681">DailyNormalClassificationBySport</text><text fill="#000000" font-family="Verdana" font-size="14" lengthAdjust="spacing" textLength="50" x="1115" y="1853.7827">Service</text><rect fill="#FFFFFF" height="48.0293" rx="2.5" ry="2.5" style="stroke:#000000;stroke-width:1.0;" width="244" x="1501" y="98.7373"/><text fill="#000000" font-family="Verdana" font-size="14" lengthAdjust="spacing" textLength="230" x="1508" y="119.8125">DailyNormalClassificationBySport</text><text fill="#000000" font-family="Verdana" font-size="14" lengthAdjust="spacing" textLength="81" x="1582.5" y="136.8271">DataAccess</text><rect fill="#FFFFFF" height="48.0293" rx="2.5" ry="2.5" style="stroke:#000000;stroke-width:1.0;" width="244" x="1501" y="1815.6929"/><text fill="#000000" font-family="Verdana" font-size="14" lengthAdjust="spacing" textLength="230" x="1508" y="1836.7681">DailyNormalClassificationBySport</text><text fill="#000000" font-family="Verdana" font-size="14" lengthAdjust="spacing" textLength="81" x="1582.5" y="1853.7827">DataAccess</text><rect fill="#FFFFFF" height="48.0293" rx="2.5" ry="2.5" style="stroke:#000000;stroke-width:1.0;" width="138" x="2031" y="98.7373"/><text fill="#000000" font-family="Verdana" font-size="14" lengthAdjust="spacing" textLength="124" x="2038" y="119.8125">SystemParameter</text><text fill="#000000" font-family="Verdana" font-size="14" lengthAdjust="spacing" textLength="50" x="2075" y="136.8271">Service</text><rect fill="#FFFFFF" height="48.0293" rx="2.5" ry="2.5" style="stroke:#000000;stroke-width:1.0;" width="138" x="2031" y="1815.6929"/><text fill="#000000" font-family="Verdana" font-size="14" lengthAdjust="spacing" textLength="124" x="2038" y="1836.7681">SystemParameter</text><text fill="#000000" font-family="Verdana" font-size="14" lengthAdjust="spacing" textLength="50" x="2075" y="1853.7827">Service</text><text fill="#000000" font-family="Verdana" font-size="14" lengthAdjust="spacing" textLength="48" x="2357" y="127.8125">MySQL</text><text fill="#000000" font-family="Verdana" font-size="14" lengthAdjust="spacing" textLength="118" x="2322" y="144.8271">CTS_DataCenter</text><path d="M2366,77.7373 C2366,67.7373 2384,67.7373 2384,67.7373 C2384,67.7373 2402,67.7373 2402,77.7373 L2402,103.7373 C2402,113.7373 2384,113.7373 2384,113.7373 C2384,113.7373 2366,113.7373 2366,103.7373 L2366,77.7373 " fill="#FFFFFF" style="stroke:#000000;stroke-width:1.5;"/><path d="M2366,77.7373 C2366,87.7373 2384,87.7373 2384,87.7373 C2384,87.7373 2402,87.7373 2402,77.7373 " fill="none" style="stroke:#000000;stroke-width:1.5;"/><text fill="#000000" font-family="Verdana" font-size="14" lengthAdjust="spacing" textLength="48" x="2357" y="1829.7681">MySQL</text><text fill="#000000" font-family="Verdana" font-size="14" lengthAdjust="spacing" textLength="118" x="2322" y="1846.7827">CTS_DataCenter</text><path d="M2366,1859.7222 C2366,1849.7222 2384,1849.7222 2384,1849.7222 C2384,1849.7222 2402,1849.7222 2402,1859.7222 L2402,1885.7222 C2402,1895.7222 2384,1895.7222 2384,1895.7222 C2384,1895.7222 2366,1895.7222 2366,1885.7222 L2366,1859.7222 " fill="#FFFFFF" style="stroke:#000000;stroke-width:1.5;"/><path d="M2366,1859.7222 C2366,1869.7222 2384,1869.7222 2384,1869.7222 C2384,1869.7222 2402,1869.7222 2402,1859.7222 " fill="none" style="stroke:#000000;stroke-width:1.5;"/><text fill="#000000" font-family="Verdana" font-size="14" lengthAdjust="spacing" textLength="80" x="2473" y="127.8125">SQL Server</text><text fill="#000000" font-family="Verdana" font-size="14" lengthAdjust="spacing" textLength="114" x="2456" y="144.8271">bodb_VR2Model</text><path d="M2498,77.7373 C2498,67.7373 2516,67.7373 2516,67.7373 C2516,67.7373 2534,67.7373 2534,77.7373 L2534,103.7373 C2534,113.7373 2516,113.7373 2516,113.7373 C2516,113.7373 2498,113.7373 2498,103.7373 L2498,77.7373 " fill="#FFFFFF" style="stroke:#000000;stroke-width:1.5;"/><path d="M2498,77.7373 C2498,87.7373 2516,87.7373 2516,87.7373 C2516,87.7373 2534,87.7373 2534,77.7373 " fill="none" style="stroke:#000000;stroke-width:1.5;"/><text fill="#000000" font-family="Verdana" font-size="14" lengthAdjust="spacing" textLength="80" x="2473" y="1829.7681">SQL Server</text><text fill="#000000" font-family="Verdana" font-size="14" lengthAdjust="spacing" textLength="114" x="2456" y="1846.7827">bodb_VR2Model</text><path d="M2498,1859.7222 C2498,1849.7222 2516,1849.7222 2516,1849.7222 C2516,1849.7222 2534,1849.7222 2534,1859.7222 L2534,1885.7222 C2534,1895.7222 2516,1895.7222 2516,1895.7222 C2516,1895.7222 2498,1895.7222 2498,1885.7222 L2498,1859.7222 " fill="#FFFFFF" style="stroke:#000000;stroke-width:1.5;"/><path d="M2498,1859.7222 C2498,1869.7222 2516,1869.7222 2516,1869.7222 C2516,1869.7222 2534,1869.7222 2534,1859.7222 " fill="none" style="stroke:#000000;stroke-width:1.5;"/><rect fill="#FFFFFF" height="1619.127" style="stroke:#000000;stroke-width:1.0;" width="10" x="598" y="179.5659"/><rect fill="#FFFFFF" height="1543.729" style="stroke:#000000;stroke-width:1.0;" width="10" x="843" y="209.3652"/><rect fill="#FFFFFF" height="72.5986" style="stroke:#000000;stroke-width:1.0;" width="10" x="1135" y="263.9639"/><rect fill="#FFFFFF" height="389.7891" style="stroke:#000000;stroke-width:1.0;" width="10" x="1135" y="366.3618"/><rect fill="#FFFFFF" height="432.5884" style="stroke:#000000;stroke-width:1.0;" width="10" x="1135" y="810.7495"/><rect fill="#FFFFFF" height="271.7925" style="stroke:#000000;stroke-width:1.0;" width="10" x="1135" y="1273.1372"/><rect fill="#FFFFFF" height="119.1973" style="stroke:#000000;stroke-width:1.0;" width="10" x="1135" y="1590.0977"/><rect fill="#FFFFFF" height="330.1904" style="stroke:#000000;stroke-width:1.0;" width="10" x="1618" y="396.1611"/><rect fill="#FFFFFF" height="278.5918" style="stroke:#000000;stroke-width:1.0;" width="10" x="1618" y="934.9468"/><rect fill="#FFFFFF" height="91.1973" style="stroke:#000000;stroke-width:1.0;" width="10" x="2095" y="1302.9365"/><rect fill="#FFFFFF" height="91.1973" style="stroke:#000000;stroke-width:1.0;" width="10" x="2095" y="1423.9331"/><rect fill="#FFFFFF" height="59.5986" style="stroke:#000000;stroke-width:1.0;" width="10" x="2095" y="1619.897"/><rect fill="#FFFFFF" height="144.5952" style="stroke:#000000;stroke-width:1.0;" width="10" x="2379" y="551.957"/><rect fill="#FFFFFF" height="160.3945" style="stroke:#000000;stroke-width:1.0;" width="10" x="2511" y="1023.3447"/><polygon fill="#000000" points="586,175.5659,596,179.5659,586,183.5659,590,179.5659" style="stroke:#000000;stroke-width:1.0;"/><line style="stroke:#000000;stroke-width:1.0;" x1="62" x2="592" y1="179.5659" y2="179.5659"/><text fill="#000000" font-family="Verdana" font-size="13" lengthAdjust="spacing" textLength="517" x="69" y="174.8364">POST /api/classificationBySportJobs/ScanningDailyNormalClassificationBySport</text><polygon fill="#000000" points="831,205.3652,841,209.3652,831,213.3652,835,209.3652" style="stroke:#000000;stroke-width:1.0;"/><line style="stroke:#000000;stroke-width:1.0;" x1="608" x2="837" y1="209.3652" y2="209.3652"/><text fill="#000000" font-family="Verdana" font-size="13" lengthAdjust="spacing" textLength="65" x="615" y="204.6357">Execute()</text><path d="M696,224.3652 L772,224.3652 L772,232.1646 L762,242.1646 L696,242.1646 L696,224.3652 " fill="#FFFFFF" style="stroke:#000000;stroke-width:1.0;"/><rect fill="none" height="1499.9297" style="stroke:#000000;stroke-width:1.0;" width="2067" x="696" y="224.3652"/><text fill="#000000" font-family="Verdana" font-size="13" font-weight="bold" lengthAdjust="spacing" textLength="31" x="711" y="238.4351">loop</text><text fill="#000000" font-family="Verdana" font-size="11" font-weight="bold" lengthAdjust="spacing" textLength="155" x="787" y="237.4243">[Do-While (isContinue)]</text><polygon fill="#000000" points="1123,259.9639,1133,263.9639,1123,267.9639,1127,263.9639" style="stroke:#000000;stroke-width:1.0;"/><line style="stroke:#000000;stroke-width:1.0;" x1="853" x2="1129" y1="263.9639" y2="263.9639"/><text fill="#000000" font-family="Verdana" font-size="13" lengthAdjust="spacing" textLength="46" x="860" y="259.2344">Start()</text><line style="stroke:#000000;stroke-width:1.0;" x1="1145" x2="1187" y1="293.7632" y2="293.7632"/><line style="stroke:#000000;stroke-width:1.0;" x1="1187" x2="1187" y1="293.7632" y2="306.7632"/><line style="stroke:#000000;stroke-width:1.0;" x1="1146" x2="1187" y1="306.7632" y2="306.7632"/><polygon fill="#000000" points="1156,302.7632,1146,306.7632,1156,310.7632,1152,306.7632" style="stroke:#000000;stroke-width:1.0;"/><text fill="#000000" font-family="Verdana" font-size="13" lengthAdjust="spacing" textLength="248" x="1152" y="289.0337">Initialize NormalAccountBySportModel</text><polygon fill="#000000" points="864,332.5625,854,336.5625,864,340.5625,860,336.5625" style="stroke:#000000;stroke-width:1.0;"/><line style="stroke:#000000;stroke-width:1.0;stroke-dasharray:2.0,2.0;" x1="858" x2="1139" y1="336.5625" y2="336.5625"/><text fill="#000000" font-family="Verdana" font-size="13" lengthAdjust="spacing" textLength="24" x="870" y="331.833">this</text><polygon fill="#000000" points="1123,362.3618,1133,366.3618,1123,370.3618,1127,366.3618" style="stroke:#000000;stroke-width:1.0;"/><line style="stroke:#000000;stroke-width:1.0;" x1="853" x2="1129" y1="366.3618" y2="366.3618"/><text fill="#000000" font-family="Verdana" font-size="13" lengthAdjust="spacing" textLength="263" x="860" y="361.6323">GetCustClassificationForDailyScanning()</text><polygon fill="#000000" points="1606,392.1611,1616,396.1611,1606,400.1611,1610,396.1611" style="stroke:#000000;stroke-width:1.0;"/><line style="stroke:#000000;stroke-width:1.0;" x1="1145" x2="1612" y1="396.1611" y2="396.1611"/><text fill="#000000" font-family="Verdana" font-size="13" lengthAdjust="spacing" textLength="310" x="1152" y="391.4316">GetDailyNormalAccountsClassificationBySport()</text><line style="stroke:#000000;stroke-width:1.0;" x1="1628" x2="1670" y1="425.9604" y2="425.9604"/><line style="stroke:#000000;stroke-width:1.0;" x1="1670" x2="1670" y1="425.9604" y2="438.9604"/><line style="stroke:#000000;stroke-width:1.0;" x1="1629" x2="1670" y1="438.9604" y2="438.9604"/><polygon fill="#000000" points="1639,434.9604,1629,438.9604,1639,442.9604,1635,438.9604" style="stroke:#000000;stroke-width:1.0;"/><text fill="#000000" font-family="Verdana" font-size="13" lengthAdjust="spacing" textLength="394" x="1635" y="421.231">Create GetDailyNormalAccountsClassificationBySportCriteria</text><path d="M1633,451.9604 L1633,508.9604 L1909,508.9604 L1909,461.9604 L1899,451.9604 L1633,451.9604 " fill="#FFFFFF" style="stroke:#000000;stroke-width:1.0;"/><path d="M1899,451.9604 L1899,461.9604 L1909,461.9604 L1899,451.9604 " fill="#FFFFFF" style="stroke:#000000;stroke-width:1.0;"/><text fill="#000000" font-family="Verdana" font-size="13" lengthAdjust="spacing" textLength="150" x="1639" y="470.0303">Get SystemParameter:</text><text fill="#000000" font-family="Verdana" font-size="13" lengthAdjust="spacing" textLength="255" x="1639" y="485.8296">- ParameterID = 114 (LastCategoryID)</text><text fill="#000000" font-family="Verdana" font-size="13" lengthAdjust="spacing" textLength="225" x="1639" y="501.6289">- ParameterID = 115 (LastCustID)</text><polygon fill="#000000" points="2367,547.957,2377,551.957,2367,555.957,2371,551.957" style="stroke:#000000;stroke-width:1.0;"/><line style="stroke:#000000;stroke-width:1.0;" x1="1628" x2="2373" y1="551.957" y2="551.957"/><text fill="#000000" font-family="Verdana" font-size="13" lengthAdjust="spacing" textLength="423" x="1635" y="531.4282">EXEC CTS_DC_CustClassification_BySport_DailyScan_GetNormal</text><text fill="#000000" font-family="Verdana" font-size="13" lengthAdjust="spacing" textLength="376" x="1635" y="547.2275">@op_LastCategoryID OUTPUT, @op_LastCustID OUTPUT</text><path d="M2394,564.957 L2394,652.957 L2668,652.957 L2668,574.957 L2658,564.957 L2394,564.957 " fill="#FFFFFF" style="stroke:#000000;stroke-width:1.0;"/><path d="M2658,564.957 L2658,574.957 L2668,574.957 L2658,564.957 " fill="#FFFFFF" style="stroke:#000000;stroke-width:1.0;"/><text fill="#000000" font-family="Verdana" font-size="13" lengthAdjust="spacing" textLength="121" x="2400" y="583.0269">Stored Procedure:</text><text fill="#000000" font-family="Verdana" font-size="13" lengthAdjust="spacing" textLength="157" x="2400" y="598.8262">- Get normal categories</text><text fill="#000000" font-family="Verdana" font-size="13" lengthAdjust="spacing" textLength="167" x="2400" y="614.6255">- Find customers to scan</text><text fill="#000000" font-family="Verdana" font-size="13" lengthAdjust="spacing" textLength="194" x="2400" y="630.4248">- Return: CustID, SportGroup</text><text fill="#000000" font-family="Verdana" font-size="13" lengthAdjust="spacing" textLength="253" x="2400" y="646.2241">- Output: LastCategoryID, LastCustID</text><polygon fill="#000000" points="1639,692.5522,1629,696.5522,1639,700.5522,1635,696.5522" style="stroke:#000000;stroke-width:1.0;"/><line style="stroke:#000000;stroke-width:1.0;stroke-dasharray:2.0,2.0;" x1="1633" x2="2383" y1="696.5522" y2="696.5522"/><text fill="#000000" font-family="Verdana" font-size="13" lengthAdjust="spacing" textLength="276" x="1645" y="676.0234">ResultSet: NormalAccountBySportEntity[]</text><text fill="#000000" font-family="Verdana" font-size="13" lengthAdjust="spacing" textLength="184" x="1645" y="691.8228">LastCategoryID, LastCustID</text><polygon fill="#000000" points="1156,722.3516,1146,726.3516,1156,730.3516,1152,726.3516" style="stroke:#000000;stroke-width:1.0;"/><line style="stroke:#000000;stroke-width:1.0;stroke-dasharray:2.0,2.0;" x1="1150" x2="1622" y1="726.3516" y2="726.3516"/><text fill="#000000" font-family="Verdana" font-size="13" lengthAdjust="spacing" textLength="189" x="1162" y="721.6221">NormalAccountBySportModel</text><polygon fill="#000000" points="864,752.1509,854,756.1509,864,760.1509,860,756.1509" style="stroke:#000000;stroke-width:1.0;"/><line style="stroke:#000000;stroke-width:1.0;stroke-dasharray:2.0,2.0;" x1="858" x2="1139" y1="756.1509" y2="756.1509"/><text fill="#000000" font-family="Verdana" font-size="13" lengthAdjust="spacing" textLength="24" x="870" y="751.4214">this</text><path d="M706,771.1509 L770,771.1509 L770,778.9502 L760,788.9502 L706,788.9502 L706,771.1509 " fill="#FFFFFF" style="stroke:#000000;stroke-width:1.0;"/><rect fill="none" height="946.144" style="stroke:#000000;stroke-width:1.0;" width="2047" x="706" y="771.1509"/><text fill="#000000" font-family="Verdana" font-size="13" font-weight="bold" lengthAdjust="spacing" textLength="19" x="721" y="785.2207">alt</text><text fill="#000000" font-family="Verdana" font-size="11" font-weight="bold" lengthAdjust="spacing" textLength="109" x="785" y="784.21">[Has Customers]</text><polygon fill="#000000" points="1123,806.7495,1133,810.7495,1123,814.7495,1127,810.7495" style="stroke:#000000;stroke-width:1.0;"/><line style="stroke:#000000;stroke-width:1.0;" x1="853" x2="1129" y1="810.7495" y2="810.7495"/><text fill="#000000" font-family="Verdana" font-size="13" lengthAdjust="spacing" textLength="245" x="860" y="806.02">PreprocessDailyNormalClassification()</text><line style="stroke:#000000;stroke-width:1.0;" x1="1145" x2="1187" y1="840.5488" y2="840.5488"/><line style="stroke:#000000;stroke-width:1.0;" x1="1187" x2="1187" y1="840.5488" y2="853.5488"/><line style="stroke:#000000;stroke-width:1.0;" x1="1146" x2="1187" y1="853.5488" y2="853.5488"/><polygon fill="#000000" points="1156,849.5488,1146,853.5488,1156,857.5488,1152,853.5488" style="stroke:#000000;stroke-width:1.0;"/><text fill="#000000" font-family="Verdana" font-size="13" lengthAdjust="spacing" textLength="218" x="1152" y="835.8193">Convert customers to XML string</text><path d="M1150,866.5488 L1150,907.5488 L1336,907.5488 L1336,876.5488 L1326,866.5488 L1150,866.5488 " fill="#FFFFFF" style="stroke:#000000;stroke-width:1.0;"/><path d="M1326,866.5488 L1326,876.5488 L1336,876.5488 L1326,866.5488 " fill="#FFFFFF" style="stroke:#000000;stroke-width:1.0;"/><text fill="#000000" font-family="Verdana" font-size="13" lengthAdjust="spacing" textLength="165" x="1156" y="884.6187">Serialize NormalAccounts</text><text fill="#000000" font-family="Verdana" font-size="13" lengthAdjust="spacing" textLength="94" x="1156" y="900.418">to XML format</text><polygon fill="#000000" points="1606,930.9468,1616,934.9468,1606,938.9468,1610,934.9468" style="stroke:#000000;stroke-width:1.0;"/><line style="stroke:#000000;stroke-width:1.0;" x1="1145" x2="1612" y1="934.9468" y2="934.9468"/><text fill="#000000" font-family="Verdana" font-size="13" lengthAdjust="spacing" textLength="454" x="1152" y="930.2173">PreprocessDailyNormalAccountsClassificationBySport(customersXML)</text><line style="stroke:#000000;stroke-width:1.0;" x1="1628" x2="1670" y1="964.7461" y2="964.7461"/><line style="stroke:#000000;stroke-width:1.0;" x1="1670" x2="1670" y1="964.7461" y2="977.7461"/><line style="stroke:#000000;stroke-width:1.0;" x1="1629" x2="1670" y1="977.7461" y2="977.7461"/><polygon fill="#000000" points="1639,973.7461,1629,977.7461,1639,981.7461,1635,977.7461" style="stroke:#000000;stroke-width:1.0;"/><text fill="#000000" font-family="Verdana" font-size="13" lengthAdjust="spacing" textLength="443" x="1635" y="960.0166">Create PreprocessDailyNormalAccountsClassificationBySportCriteria</text><polygon fill="#000000" points="2499,1019.3447,2509,1023.3447,2499,1027.3447,2503,1023.3447" style="stroke:#000000;stroke-width:1.0;"/><line style="stroke:#000000;stroke-width:1.0;" x1="1628" x2="2505" y1="1023.3447" y2="1023.3447"/><text fill="#000000" font-family="Verdana" font-size="13" lengthAdjust="spacing" textLength="375" x="1635" y="1002.8159">EXEC CTS_BySportNormalClassification_Daily_Preprocess</text><text fill="#000000" font-family="Verdana" font-size="13" lengthAdjust="spacing" textLength="109" x="1635" y="1018.6152">@CustomersXML</text><path d="M2526,1036.3447 L2526,1156.3447 L2743,1156.3447 L2743,1046.3447 L2733,1036.3447 L2526,1036.3447 " fill="#FFFFFF" style="stroke:#000000;stroke-width:1.0;"/><path d="M2733,1036.3447 L2733,1046.3447 L2743,1046.3447 L2733,1036.3447 " fill="#FFFFFF" style="stroke:#000000;stroke-width:1.0;"/><text fill="#000000" font-family="Verdana" font-size="13" lengthAdjust="spacing" textLength="121" x="2532" y="1054.4146">Stored Procedure:</text><text fill="#000000" font-family="Verdana" font-size="13" lengthAdjust="spacing" textLength="170" x="2532" y="1070.2139">- Parse XML customer list</text><text fill="#000000" font-family="Verdana" font-size="13" lengthAdjust="spacing" textLength="187" x="2532" y="1086.0132">- Remove disabled accounts</text><text fill="#000000" font-family="Verdana" font-size="13" lengthAdjust="spacing" textLength="196" x="2532" y="1101.8125">- Remove scanned customers</text><text fill="#000000" font-family="Verdana" font-size="13" lengthAdjust="spacing" textLength="193" x="2532" y="1117.6118">- Remove inactive customers</text><text fill="#000000" font-family="Verdana" font-size="13" lengthAdjust="spacing" textLength="86" x="2532" y="1133.4111">- Get Priority</text><text fill="#000000" font-family="Verdana" font-size="13" lengthAdjust="spacing" textLength="158" x="2532" y="1149.2104">- Call NormalPool_Insert</text><polygon fill="#000000" points="1639,1179.7393,1629,1183.7393,1639,1187.7393,1635,1183.7393" style="stroke:#000000;stroke-width:1.0;"/><line style="stroke:#000000;stroke-width:1.0;stroke-dasharray:2.0,2.0;" x1="1633" x2="2515" y1="1183.7393" y2="1183.7393"/><text fill="#000000" font-family="Verdana" font-size="13" lengthAdjust="spacing" textLength="55" x="1645" y="1179.0098">Success</text><polygon fill="#000000" points="1156,1209.5386,1146,1213.5386,1156,1217.5386,1152,1213.5386" style="stroke:#000000;stroke-width:1.0;"/><line style="stroke:#000000;stroke-width:1.0;stroke-dasharray:2.0,2.0;" x1="1150" x2="1622" y1="1213.5386" y2="1213.5386"/><text fill="#000000" font-family="Verdana" font-size="13" lengthAdjust="spacing" textLength="27" x="1162" y="1208.8091">void</text><polygon fill="#000000" points="864,1239.3379,854,1243.3379,864,1247.3379,860,1243.3379" style="stroke:#000000;stroke-width:1.0;"/><line style="stroke:#000000;stroke-width:1.0;stroke-dasharray:2.0,2.0;" x1="858" x2="1139" y1="1243.3379" y2="1243.3379"/><text fill="#000000" font-family="Verdana" font-size="13" lengthAdjust="spacing" textLength="24" x="870" y="1238.6084">this</text><polygon fill="#000000" points="1123,1269.1372,1133,1273.1372,1123,1277.1372,1127,1273.1372" style="stroke:#000000;stroke-width:1.0;"/><line style="stroke:#000000;stroke-width:1.0;" x1="853" x2="1129" y1="1273.1372" y2="1273.1372"/><text fill="#000000" font-family="Verdana" font-size="13" lengthAdjust="spacing" textLength="120" x="860" y="1268.4077">UpdateLastScan()</text><polygon fill="#000000" points="2083,1298.9365,2093,1302.9365,2083,1306.9365,2087,1302.9365" style="stroke:#000000;stroke-width:1.0;"/><line style="stroke:#000000;stroke-width:1.0;" x1="1145" x2="2089" y1="1302.9365" y2="1302.9365"/><text fill="#000000" font-family="Verdana" font-size="13" lengthAdjust="spacing" textLength="391" x="1152" y="1298.207">UpdateTimingExecution(LastCategoryID, ParameterID=114)</text><polygon fill="#000000" points="2372,1360.3345,2382,1364.3345,2372,1368.3345,2376,1364.3345" style="stroke:#000000;stroke-width:1.0;"/><line style="stroke:#000000;stroke-width:1.0;" x1="2105" x2="2378" y1="1364.3345" y2="1364.3345"/><text fill="#000000" font-family="Verdana" font-size="13" lengthAdjust="spacing" textLength="173" x="2112" y="1328.0063">UPDATE SystemParameter</text><text fill="#000000" font-family="Verdana" font-size="13" lengthAdjust="spacing" textLength="255" x="2112" y="1343.8057">SET ParameterValue = LastCategoryID</text><text fill="#000000" font-family="Verdana" font-size="13" lengthAdjust="spacing" textLength="175" x="2112" y="1359.605">WHERE ParameterID = 114</text><polygon fill="#000000" points="1156,1390.1338,1146,1394.1338,1156,1398.1338,1152,1394.1338" style="stroke:#000000;stroke-width:1.0;"/><line style="stroke:#000000;stroke-width:1.0;stroke-dasharray:2.0,2.0;" x1="1150" x2="2099" y1="1394.1338" y2="1394.1338"/><text fill="#000000" font-family="Verdana" font-size="13" lengthAdjust="spacing" textLength="27" x="1162" y="1389.4043">void</text><polygon fill="#000000" points="2083,1419.9331,2093,1423.9331,2083,1427.9331,2087,1423.9331" style="stroke:#000000;stroke-width:1.0;"/><line style="stroke:#000000;stroke-width:1.0;" x1="1145" x2="2089" y1="1423.9331" y2="1423.9331"/><text fill="#000000" font-family="Verdana" font-size="13" lengthAdjust="spacing" textLength="361" x="1152" y="1419.2036">UpdateTimingExecution(LastCustID, ParameterID=115)</text><polygon fill="#000000" points="2372,1481.3311,2382,1485.3311,2372,1489.3311,2376,1485.3311" style="stroke:#000000;stroke-width:1.0;"/><line style="stroke:#000000;stroke-width:1.0;" x1="2105" x2="2378" y1="1485.3311" y2="1485.3311"/><text fill="#000000" font-family="Verdana" font-size="13" lengthAdjust="spacing" textLength="173" x="2112" y="1449.0029">UPDATE SystemParameter</text><text fill="#000000" font-family="Verdana" font-size="13" lengthAdjust="spacing" textLength="225" x="2112" y="1464.8022">SET ParameterValue = LastCustID</text><text fill="#000000" font-family="Verdana" font-size="13" lengthAdjust="spacing" textLength="175" x="2112" y="1480.6016">WHERE ParameterID = 115</text><polygon fill="#000000" points="1156,1511.1304,1146,1515.1304,1156,1519.1304,1152,1515.1304" style="stroke:#000000;stroke-width:1.0;"/><line style="stroke:#000000;stroke-width:1.0;stroke-dasharray:2.0,2.0;" x1="1150" x2="2099" y1="1515.1304" y2="1515.1304"/><text fill="#000000" font-family="Verdana" font-size="13" lengthAdjust="spacing" textLength="27" x="1162" y="1510.4009">void</text><polygon fill="#000000" points="864,1540.9297,854,1544.9297,864,1548.9297,860,1544.9297" style="stroke:#000000;stroke-width:1.0;"/><line style="stroke:#000000;stroke-width:1.0;stroke-dasharray:2.0,2.0;" x1="858" x2="1139" y1="1544.9297" y2="1544.9297"/><text fill="#000000" font-family="Verdana" font-size="13" lengthAdjust="spacing" textLength="101" x="870" y="1540.2002">true (continue)</text><line style="stroke:#000000;stroke-width:1.0;stroke-dasharray:2.0,2.0;" x1="706" x2="2753" y1="1553.9297" y2="1553.9297"/><text fill="#000000" font-family="Verdana" font-size="11" font-weight="bold" lengthAdjust="spacing" textLength="102" x="711" y="1564.9888">[No Customers]</text><polygon fill="#000000" points="1123,1586.0977,1133,1590.0977,1123,1594.0977,1127,1590.0977" style="stroke:#000000;stroke-width:1.0;"/><line style="stroke:#000000;stroke-width:1.0;" x1="853" x2="1129" y1="1590.0977" y2="1590.0977"/><text fill="#000000" font-family="Verdana" font-size="13" lengthAdjust="spacing" textLength="120" x="860" y="1585.3682">UpdateLastScan()</text><polygon fill="#000000" points="2083,1615.897,2093,1619.897,2083,1623.897,2087,1619.897" style="stroke:#000000;stroke-width:1.0;"/><line style="stroke:#000000;stroke-width:1.0;" x1="1145" x2="2089" y1="1619.897" y2="1619.897"/><text fill="#000000" font-family="Verdana" font-size="13" lengthAdjust="spacing" textLength="180" x="1152" y="1615.1675">UpdateTimingExecution(...)</text><polygon fill="#000000" points="2372,1645.6963,2382,1649.6963,2372,1653.6963,2376,1649.6963" style="stroke:#000000;stroke-width:1.0;"/><line style="stroke:#000000;stroke-width:1.0;" x1="2105" x2="2378" y1="1649.6963" y2="1649.6963"/><text fill="#000000" font-family="Verdana" font-size="13" lengthAdjust="spacing" textLength="173" x="2112" y="1644.9668">UPDATE SystemParameter</text><polygon fill="#000000" points="1156,1675.4956,1146,1679.4956,1156,1683.4956,1152,1679.4956" style="stroke:#000000;stroke-width:1.0;"/><line style="stroke:#000000;stroke-width:1.0;stroke-dasharray:2.0,2.0;" x1="1150" x2="2099" y1="1679.4956" y2="1679.4956"/><text fill="#000000" font-family="Verdana" font-size="13" lengthAdjust="spacing" textLength="27" x="1162" y="1674.7661">void</text><polygon fill="#000000" points="864,1705.2949,854,1709.2949,864,1713.2949,860,1709.2949" style="stroke:#000000;stroke-width:1.0;"/><line style="stroke:#000000;stroke-width:1.0;stroke-dasharray:2.0,2.0;" x1="858" x2="1139" y1="1709.2949" y2="1709.2949"/><text fill="#000000" font-family="Verdana" font-size="13" lengthAdjust="spacing" textLength="77" x="870" y="1704.5654">false (stop)</text><polygon fill="#000000" points="619,1749.0942,609,1753.0942,619,1757.0942,615,1753.0942" style="stroke:#000000;stroke-width:1.0;"/><line style="stroke:#000000;stroke-width:1.0;stroke-dasharray:2.0,2.0;" x1="613" x2="847" y1="1753.0942" y2="1753.0942"/><text fill="#000000" font-family="Verdana" font-size="13" lengthAdjust="spacing" textLength="120" x="625" y="1748.3647">Task&lt;bool&gt; (true)</text><polygon fill="#000000" points="73,1794.6929,63,1798.6929,73,1802.6929,69,1798.6929" style="stroke:#000000;stroke-width:1.0;"/><line style="stroke:#000000;stroke-width:1.0;stroke-dasharray:2.0,2.0;" x1="67" x2="602" y1="1798.6929" y2="1798.6929"/><text fill="#000000" font-family="Verdana" font-size="13" lengthAdjust="spacing" textLength="87" x="79" y="1778.1641">HTTP 200 OK</text><text fill="#000000" font-family="Verdana" font-size="13" lengthAdjust="spacing" textLength="154" x="79" y="1793.9634">{ success: true/false }</text><!--SRC=[nLTjRzis4FwkNt7B9nl8IriiNuorM2sxJRPayIobBJ0F1Yqn2J6PL4agg3Vil-z8oH8fItRJOgs11BPuVExkkRk7r0_wWQufv1bXFD1CPnGcX6KR-4t8DSaWp8XIx8ubH3F1ORo1A1TImmb4z6D1UOBsZDnBiWu2acWXuUWNiO8eUQ1faL6vu8Ff9qqb9zdm28XgLeASICqIbXEkuSZtCzvOBuYquA7WMeeCTzZzpKyVm4PT1js9jU285b7vo19gWPgVJmLoKRuGOa8qUPqaL2cBqlpqWQADqdGz8qWlrOPCp_L6sPLj22c2h8YYS7IzYNw_GkRYQ6cGGyfrnTvax9YXaOtV0Az4kbg-cx-u5YdDh2d-GEkWhXUSl7B87y7i9ehXZEJiBEcfdJgB4i8vu_U7236jmnw9fcvvW-QxyTtKQmJJJpGfD1qCcurEEODCY1mcukJz0yD-7Z1ba1Wlw300_3Ic1hS6ZJHIFoXDQjWjfdbe_tNjlEHCCvAnlsarDbXBKN1TPMSvzJUtyj4FJ5c3bFPxxWdxBTLXeRJFwniXBUVR0ZmbhQOPBRXJkoejrLd3jWkdfsilpREser1Ii-a9_aB9iAiPiS1Su6R9xXyqYBksQ_D1O6XDqwXUF87wuUK4NiBpvp_2u8eWgHZJlP2RoybmZ_5vPOnLs1fIdjgOUbCVOnD_c8PWPpHSxbPmMQMvhEkun1nANXRyPv4l_G3XvZQUtSR7K2_PSAh7hTACkqWRrob6gECqXPaK2Sw-f2vJXaXUdWr9wPnHvQo_OPXwWhx5cae5Me32s1s3ETM5v5Xn6zznUPwybQB87QERGkU57e6Vup4qYUtIF1dRkNAxQavLaUc88bBNO4vH5VJcZpyN_80VPomhcdPgwexaVX5mmJfcvAiqWcGQBimfkIr0pMcFUimapKsPbUhLw47J-vsEQ-TzyeZgYsUCzhlYm_KLA2rHc-gzVZ-sNLJeNJghFACA_CvOw7h5QvM-aDtUwMHclmBM2QB_3j8wPAd-Sb0PdnwE9v2xFkpvxgXGjQkh0qeDMZOXe025JgwxgPQNX-x2-clxzQOMNBolcA9k6OQCATsocjErUAIGCaLM6SAHhkQepOmgSUf8LRSPupOdscjdz70c6SgWthIMGf9bLQFEXCYMbrpX6FHtf2LcHyEYmcyPP_nz9ZlhxCxXes1f5yo-lZoeHdiKoGFgqP_R7E-ZrCYjEUA-M6hyg_0MDcPhr9VoicY4hAtopa7-4i_yBkUjEtRjst- -FT9lPvFNyHHsh-tJk77sZcG5nOk37ys2lx-OpgUxDv5-dvzJsxu4lfR5wl3s6Jp_7WpQIFhOE_zMxBN7GsA0WyHxxTWpAJHJvaZx_6FxcuxDwUdf_rNOxrIUEs887o3P-U7Qy3GmVu5RYjQxS4pKNp-jKEDVmS2KVXWuOEwRgVjAQpBSlboFu2AEP_3YsJEu-NN1_m5LLF9luCxAUFzrKPqNvVy0]--></g></svg>