<svg xmlns="http://www.w3.org/2000/svg" xmlns:xlink="http://www.w3.org/1999/xlink" contentStyleType="text/css" height="2412px" preserveAspectRatio="none" style="width:1632px;height:2412px;background:#FFFFFF;" version="1.1" viewBox="0 0 1632 2412" width="1632px" zoomAndPan="magnify"><defs/><g><text fill="#000000" font-family="Verdana" font-size="22" font-weight="bold" lengthAdjust="spacing" textLength="728" x="450.5" y="37.1182">Match Monitor - Insert Ticket Detail - Main Flow (6 Steps)</text><ellipse cx="1124" cy="62.7373" fill="#FFFFFF" rx="10" ry="10" style="stroke:#000000;stroke-width:1.0;"/><path d="M1216,82.7373 L1216,131.1353 L1196,135.1353 L1216,139.1353 L1216,187.5332 A0,0 0 0 0 1216,187.5332 L1557,187.5332 A0,0 0 0 0 1557,187.5332 L1557,92.7373 L1547,82.7373 L1216,82.7373 A0,0 0 0 0 1216,82.7373 " fill="#FFFFFF" style="stroke:#000000;stroke-width:1.0;"/><path d="M1547,82.7373 L1547,92.7373 L1557,92.7373 L1547,82.7373 " fill="#FFFFFF" style="stroke:#000000;stroke-width:1.0;"/><text fill="#000000" font-family="Verdana" font-size="13" lengthAdjust="spacing" textLength="270" x="1222" y="100.8071">Live: MatchMonitorInsertTicketDetailLive</text><text fill="#000000" font-family="Verdana" font-size="13" lengthAdjust="spacing" textLength="320" x="1222" y="116.6064">NonLive: MatchMonitorInsertTicketDetailNonLive</text><text fill="#000000" font-family="Verdana" font-size="13" lengthAdjust="spacing" textLength="5" x="1222" y="132.4058">&#160;</text><text fill="#000000" font-family="Verdana" font-size="13" lengthAdjust="spacing" textLength="80" x="1222" y="148.2051">Parameters:</text><text fill="#000000" font-family="Verdana" font-size="13" lengthAdjust="spacing" textLength="177" x="1222" y="164.0044">- batchSize (default 5000)</text><text fill="#000000" font-family="Verdana" font-size="13" lengthAdjust="spacing" textLength="129" x="1222" y="179.8037">- isLive (true/false)</text><rect fill="#FFFFFF" height="34.584" rx="12.5" ry="12.5" style="stroke:#000000;stroke-width:1.0;" width="144" x="1052" y="117.8433"/><text fill="#000000" font-family="Verdana" font-size="12" lengthAdjust="spacing" textLength="124" x="1062" y="139.9077">API Endpoint Called</text><path d="M1205,197.5332 L1205,238.0315 L1185,242.0315 L1205,246.0315 L1205,286.5298 A0,0 0 0 0 1205,286.5298 L1491,286.5298 A0,0 0 0 0 1491,286.5298 L1491,207.5332 L1481,197.5332 L1205,197.5332 A0,0 0 0 0 1205,197.5332 " fill="#FFFFFF" style="stroke:#000000;stroke-width:1.0;"/><path d="M1481,197.5332 L1481,207.5332 L1491,207.5332 L1481,197.5332 " fill="#FFFFFF" style="stroke:#000000;stroke-width:1.0;"/><text fill="#000000" font-family="Verdana" font-size="13" lengthAdjust="spacing" textLength="157" x="1211" y="215.603">Start(batchSize, isLive)</text><text fill="#000000" font-family="Verdana" font-size="13" lengthAdjust="spacing" textLength="5" x="1211" y="231.4023">&#160;</text><text fill="#000000" font-family="Verdana" font-size="13" lengthAdjust="spacing" textLength="108" x="1211" y="247.2017">Set parameters:</text><text fill="#000000" font-family="Verdana" font-size="13" lengthAdjust="spacing" textLength="265" x="1211" y="263.001">- LastScannedSequenceID_ParameterID</text><text fill="#000000" font-family="Verdana" font-size="13" lengthAdjust="spacing" textLength="207" x="1211" y="278.8003">- PoolEnumType (Live/NonLive)</text><rect fill="#FFFFFF" height="34.584" rx="12.5" ry="12.5" style="stroke:#000000;stroke-width:1.0;" width="122" x="1063" y="224.7395"/><text fill="#000000" font-family="Verdana" font-size="12" lengthAdjust="spacing" textLength="102" x="1073" y="246.804">Initialize Service</text><rect fill="#FFFFFF" height="115.2119" style="stroke:#000000;stroke-width:1.0;" width="562" x="1030" y="296.5298"/><path d="M1312,296.5298 L1312,306.5444 L1302,316.5444 L1030,316.5444 " fill="none" style="stroke:#000000;stroke-width:1.0;"/><text fill="#000000" font-family="Verdana" font-size="14" lengthAdjust="spacing" textLength="272" x="1033" y="311.605">Step 1: Get Last Scanned SequenceID</text><path d="M1228,326.5444 L1228,359.1431 L1208,363.1431 L1228,367.1431 L1228,399.7417 A0,0 0 0 0 1228,399.7417 L1582,399.7417 A0,0 0 0 0 1582,399.7417 L1582,336.5444 L1572,326.5444 L1228,326.5444 A0,0 0 0 0 1228,326.5444 " fill="#FFFFFF" style="stroke:#000000;stroke-width:1.0;"/><path d="M1572,326.5444 L1572,336.5444 L1582,336.5444 L1572,326.5444 " fill="#FFFFFF" style="stroke:#000000;stroke-width:1.0;"/><text fill="#000000" font-family="Verdana" font-size="13" lengthAdjust="spacing" textLength="249" x="1234" y="344.6143">Live: MatchMonitorLastScannedTrans</text><text fill="#000000" font-family="Verdana" font-size="13" lengthAdjust="spacing" textLength="333" x="1234" y="360.4136">NonLive: MatchMonitorLastScannedTransNoneLive</text><text fill="#000000" font-family="Verdana" font-size="13" lengthAdjust="spacing" textLength="5" x="1234" y="376.2129">&#160;</text><text fill="#000000" font-family="Verdana" font-size="13" lengthAdjust="spacing" textLength="327" x="1234" y="392.0122">Example: LastScannedSequenceID = 1234567890</text><rect fill="#FFFFFF" height="34.584" rx="12.5" ry="12.5" style="stroke:#000000;stroke-width:1.0;" width="168" x="1040" y="345.8511"/><text fill="#000000" font-family="Verdana" font-size="12" lengthAdjust="spacing" textLength="148" x="1050" y="367.9155">Read SystemParameter</text><rect fill="#FFFFFF" height="230.0078" style="stroke:#000000;stroke-width:1.0;" width="518" x="1019" y="421.7417"/><path d="M1236,421.7417 L1236,431.7563 L1226,441.7563 L1019,441.7563 " fill="none" style="stroke:#000000;stroke-width:1.0;"/><text fill="#000000" font-family="Verdana" font-size="14" lengthAdjust="spacing" textLength="207" x="1022" y="436.8169">Step 2: Get Bettype Settings</text><path d="M1239,451.7563 L1239,492.2546 L1219,496.2546 L1239,500.2546 L1239,540.7529 A0,0 0 0 0 1239,540.7529 L1527,540.7529 A0,0 0 0 0 1527,540.7529 L1527,461.7563 L1517,451.7563 L1239,451.7563 A0,0 0 0 0 1239,451.7563 " fill="#FFFFFF" style="stroke:#000000;stroke-width:1.0;"/><path d="M1517,451.7563 L1517,461.7563 L1527,461.7563 L1517,451.7563 " fill="#FFFFFF" style="stroke:#000000;stroke-width:1.0;"/><text fill="#000000" font-family="Verdana" font-size="13" lengthAdjust="spacing" textLength="60" x="1245" y="469.8262">Filter by:</text><text fill="#000000" font-family="Verdana" font-size="13" lengthAdjust="spacing" textLength="179" x="1245" y="485.6255">- FunctionID = MMBetType</text><text fill="#000000" font-family="Verdana" font-size="13" lengthAdjust="spacing" textLength="151" x="1245" y="501.4248">- Status = 1 (Enabled)</text><text fill="#000000" font-family="Verdana" font-size="13" lengthAdjust="spacing" textLength="5" x="1245" y="517.2241">&#160;</text><text fill="#000000" font-family="Verdana" font-size="13" lengthAdjust="spacing" textLength="267" x="1245" y="533.0234">Get enabled sport/bettype combinations</text><rect fill="#FFFFFF" height="34.584" rx="12.5" ry="12.5" style="stroke:#000000;stroke-width:1.0;" width="190" x="1029" y="478.9626"/><text fill="#000000" font-family="Verdana" font-size="12" lengthAdjust="spacing" textLength="170" x="1039" y="501.0271">Query SportBettypeSetting</text><path d="M1207.5,550.7529 L1207.5,591.2512 L1187.5,595.2512 L1207.5,599.2512 L1207.5,639.7495 A0,0 0 0 0 1207.5,639.7495 L1479.5,639.7495 A0,0 0 0 0 1479.5,639.7495 L1479.5,560.7529 L1469.5,550.7529 L1207.5,550.7529 A0,0 0 0 0 1207.5,550.7529 " fill="#FFFFFF" style="stroke:#000000;stroke-width:1.0;"/><path d="M1469.5,550.7529 L1469.5,560.7529 L1479.5,560.7529 L1469.5,550.7529 " fill="#FFFFFF" style="stroke:#000000;stroke-width:1.0;"/><text fill="#000000" font-family="Verdana" font-size="13" lengthAdjust="spacing" textLength="6" x="1213.5" y="568.8228">[</text><text fill="#000000" font-family="Verdana" font-size="13" lengthAdjust="spacing" textLength="241" x="1223.5" y="584.6221">{"SportTypeID": 1, "BetTypeID": 1},</text><text fill="#000000" font-family="Verdana" font-size="13" lengthAdjust="spacing" textLength="241" x="1223.5" y="600.4214">{"SportTypeID": 1, "BetTypeID": 3},</text><text fill="#000000" font-family="Verdana" font-size="13" lengthAdjust="spacing" textLength="15" x="1223.5" y="616.2207">...</text><text fill="#000000" font-family="Verdana" font-size="13" lengthAdjust="spacing" textLength="6" x="1213.5" y="632.02">]</text><rect fill="#FFFFFF" height="34.584" rx="12.5" ry="12.5" style="stroke:#000000;stroke-width:1.0;" width="127" x="1060.5" y="577.9592"/><text fill="#000000" font-family="Verdana" font-size="12" lengthAdjust="spacing" textLength="107" x="1070.5" y="600.0237">Build JSON String</text><rect fill="#FFFFFF" height="459.001" style="stroke:#000000;stroke-width:1.0;" width="768" x="695" y="661.7495"/><path d="M974,661.7495 L974,671.7642 L964,681.7642 L695,681.7642 " fill="none" style="stroke:#000000;stroke-width:1.0;"/><text fill="#000000" font-family="Verdana" font-size="14" lengthAdjust="spacing" textLength="269" x="698" y="676.8247">Step 3: Get Match Trans from MainDB</text><polygon fill="#FFFFFF" points="1081.5,698.7642,1166.5,698.7642,1178.5,710.7642,1166.5,722.7642,1081.5,722.7642,1069.5,710.7642,1081.5,698.7642" style="stroke:#000000;stroke-width:1.0;"/><text fill="#000000" font-family="Verdana" font-size="11" lengthAdjust="spacing" textLength="85" x="1081.5" y="715.1389">batchSize &gt; 0?</text><text fill="#000000" font-family="Verdana" font-size="11" lengthAdjust="spacing" textLength="20" x="1049.5" y="708.4546">yes</text><text fill="#000000" font-family="Verdana" font-size="11" lengthAdjust="spacing" textLength="14" x="1178.5" y="708.4546">no</text><path d="M1030,732.7642 L1030,796.9614 L1010,800.9614 L1030,804.9614 L1030,869.1587 A0,0 0 0 0 1030,869.1587 L1260,869.1587 A0,0 0 0 0 1260,869.1587 L1260,742.7642 L1250,732.7642 L1030,732.7642 A0,0 0 0 0 1030,732.7642 " fill="#FFFFFF" style="stroke:#000000;stroke-width:1.0;"/><path d="M1250,732.7642 L1250,742.7642 L1260,742.7642 L1250,732.7642 " fill="#FFFFFF" style="stroke:#000000;stroke-width:1.0;"/><text fill="#000000" font-family="Verdana" font-size="13" lengthAdjust="spacing" textLength="80" x="1036" y="750.834">Parameters:</text><text fill="#000000" font-family="Verdana" font-size="13" lengthAdjust="spacing" textLength="209" x="1036" y="766.6333">- @ip_QueryType = 1 (Service)</text><text fill="#000000" font-family="Verdana" font-size="13" lengthAdjust="spacing" textLength="208" x="1036" y="782.4326">- @ip_LastScannedSequenceID</text><text fill="#000000" font-family="Verdana" font-size="13" lengthAdjust="spacing" textLength="160" x="1036" y="798.2319">- @ip_BatchSize = 5000</text><text fill="#000000" font-family="Verdana" font-size="13" lengthAdjust="spacing" textLength="165" x="1036" y="814.0313">- @ip_IsLive = true/false</text><text fill="#000000" font-family="Verdana" font-size="13" lengthAdjust="spacing" textLength="208" x="1036" y="829.8306">- @ip_ListSportBettype = JSON</text><text fill="#000000" font-family="Verdana" font-size="13" lengthAdjust="spacing" textLength="5" x="1036" y="845.6299">&#160;</text><text fill="#000000" font-family="Verdana" font-size="13" lengthAdjust="spacing" textLength="209" x="1036" y="861.4292">Result: List&lt;TicketDetailEntity&gt;</text><rect fill="#FFFFFF" height="34.584" rx="12.5" ry="12.5" style="stroke:#000000;stroke-width:1.0;" width="295" x="715" y="783.6694"/><text fill="#000000" font-family="Verdana" font-size="12" lengthAdjust="spacing" textLength="275" x="725" y="805.7339">Call SP: CTS_DC_MatchMonitor_Details_Get</text><path d="M974,879.1587 L974,974.9546 L954,978.9546 L974,982.9546 L974,1078.7505 A0,0 0 0 0 974,1078.7505 L1308,1078.7505 A0,0 0 0 0 1308,1078.7505 L1308,889.1587 L1298,879.1587 L974,879.1587 A0,0 0 0 0 974,879.1587 " fill="#FFFFFF" style="stroke:#000000;stroke-width:1.0;"/><path d="M1298,879.1587 L1298,889.1587 L1308,889.1587 L1298,879.1587 " fill="#FFFFFF" style="stroke:#000000;stroke-width:1.0;"/><text fill="#000000" font-family="Verdana" font-size="13" lengthAdjust="spacing" textLength="313" x="980" y="897.2285">WHERE SequenceID &gt; LastScannedSequenceID</text><text fill="#000000" font-family="Verdana" font-size="13" lengthAdjust="spacing" textLength="262" x="980" y="913.0278">AND SportType/BettypeID IN (settings)</text><text fill="#000000" font-family="Verdana" font-size="13" lengthAdjust="spacing" textLength="230" x="980" y="928.8271">AND EventStatus = 'running' (Live)</text><text fill="#000000" font-family="Verdana" font-size="13" lengthAdjust="spacing" textLength="244" x="995" y="944.6265">OR EventStatus = 'settled' (NonLive)</text><text fill="#000000" font-family="Verdana" font-size="13" lengthAdjust="spacing" textLength="107" x="980" y="960.4258">LIMIT batchSize</text><text fill="#000000" font-family="Verdana" font-size="13" lengthAdjust="spacing" textLength="5" x="980" y="976.2251">&#160;</text><text fill="#000000" font-family="Verdana" font-size="13" lengthAdjust="spacing" textLength="43" x="980" y="992.0244">Fields:</text><text fill="#000000" font-family="Verdana" font-size="13" lengthAdjust="spacing" textLength="206" x="980" y="1007.8237">- SequenceID, TransID, CustID</text><text fill="#000000" font-family="Verdana" font-size="13" lengthAdjust="spacing" textLength="217" x="980" y="1023.623">- MatchID, LeagueID, SportType</text><text fill="#000000" font-family="Verdana" font-size="13" lengthAdjust="spacing" textLength="161" x="980" y="1039.4224">- Stake, Odds, BetTeam</text><text fill="#000000" font-family="Verdana" font-size="13" lengthAdjust="spacing" textLength="222" x="980" y="1055.2217">- LiveHomeScore, LiveAwayScore</text><text fill="#000000" font-family="Verdana" font-size="13" lengthAdjust="spacing" textLength="181" x="980" y="1071.021">- KickOffTime, EventStatus</text><rect fill="#FFFFFF" height="34.584" rx="12.5" ry="12.5" style="stroke:#000000;stroke-width:1.0;" width="183" x="771" y="961.6626"/><text fill="#000000" font-family="Verdana" font-size="12" lengthAdjust="spacing" textLength="163" x="781" y="983.7271">Fetch Tickets from MainDB</text><rect fill="#FFFFFF" height="34.584" rx="12.5" ry="12.5" style="stroke:#000000;stroke-width:1.0;" width="115" x="1328" y="732.7642"/><text fill="#000000" font-family="Verdana" font-size="12" lengthAdjust="spacing" textLength="95" x="1338" y="754.8286">Skip (no batch)</text><polygon fill="#FFFFFF" points="1124,1084.7505,1136,1096.7505,1124,1108.7505,1112,1096.7505,1124,1084.7505" style="stroke:#000000;stroke-width:1.0;"/><polygon fill="#FFFFFF" points="1083,1140.7505,1165,1140.7505,1177,1152.7505,1165,1164.7505,1083,1164.7505,1071,1152.7505,1083,1140.7505" style="stroke:#000000;stroke-width:1.0;"/><text fill="#000000" font-family="Verdana" font-size="11" lengthAdjust="spacing" textLength="82" x="1083" y="1157.1252">Tickets found?</text><text fill="#000000" font-family="Verdana" font-size="11" lengthAdjust="spacing" textLength="20" x="1051" y="1150.4409">yes</text><text fill="#000000" font-family="Verdana" font-size="11" lengthAdjust="spacing" textLength="14" x="1177" y="1150.4409">no</text><rect fill="#FFFFFF" height="790.9028" style="stroke:#000000;stroke-width:1.0;" width="1444" x="6" y="1174.7505"/><path d="M259,1174.7505 L259,1184.7651 L249,1194.7651 L6,1194.7651 " fill="none" style="stroke:#000000;stroke-width:1.0;"/><text fill="#000000" font-family="Verdana" font-size="14" lengthAdjust="spacing" textLength="243" x="9" y="1189.8257">Step 4: Insert to Staging (Parallel)</text><path d="M806.5,1211.7651 L806.5,1236.4641 L786.5,1240.4641 L806.5,1244.4641 L806.5,1269.1631 A0,0 0 0 0 806.5,1269.1631 L1121.5,1269.1631 A0,0 0 0 0 1121.5,1269.1631 L1121.5,1221.7651 L1111.5,1211.7651 L806.5,1211.7651 A0,0 0 0 0 806.5,1211.7651 " fill="#FFFFFF" style="stroke:#000000;stroke-width:1.0;"/><path d="M1111.5,1211.7651 L1111.5,1221.7651 L1121.5,1221.7651 L1111.5,1211.7651 " fill="#FFFFFF" style="stroke:#000000;stroke-width:1.0;"/><text fill="#000000" font-family="Verdana" font-size="13" lengthAdjust="spacing" textLength="294" x="812.5" y="1229.835">JsonConvert.SerializeObject(TicketStagings)</text><text fill="#000000" font-family="Verdana" font-size="13" lengthAdjust="spacing" textLength="5" x="812.5" y="1245.6343">&#160;</text><text fill="#000000" font-family="Verdana" font-size="13" lengthAdjust="spacing" textLength="222" x="812.5" y="1261.4336">Single JSON string with all tickets</text><rect fill="#FFFFFF" height="34.584" rx="12.5" ry="12.5" style="stroke:#000000;stroke-width:1.0;" width="173" x="613.5" y="1223.1721"/><text fill="#000000" font-family="Verdana" font-size="12" lengthAdjust="spacing" textLength="153" x="623.5" y="1245.2366">Serialize Tickets to JSON</text><path d="M777,1288.9185 L777,1392.614 L757,1396.614 L777,1400.614 L777,1504.3096 A0,0 0 0 0 777,1504.3096 L981,1504.3096 A0,0 0 0 0 981,1504.3096 L981,1298.9185 L971,1288.9185 L777,1288.9185 A0,0 0 0 0 777,1288.9185 " fill="#FFFFFF" style="stroke:#000000;stroke-width:1.0;"/><path d="M971,1288.9185 L971,1298.9185 L981,1298.9185 L971,1288.9185 " fill="#FFFFFF" style="stroke:#000000;stroke-width:1.0;"/><text fill="#000000" font-family="Verdana" font-size="13" lengthAdjust="spacing" textLength="71" x="783" y="1306.9883">Live Pools:</text><text fill="#000000" font-family="Verdana" font-size="13" lengthAdjust="spacing" textLength="145" x="783" y="1322.7876">- 1001: Group Betting</text><text fill="#000000" font-family="Verdana" font-size="13" lengthAdjust="spacing" textLength="183" x="783" y="1338.5869">- 1002: Saba Group Betting</text><text fill="#000000" font-family="Verdana" font-size="13" lengthAdjust="spacing" textLength="107" x="783" y="1354.3862">- 1003: Hedging</text><text fill="#000000" font-family="Verdana" font-size="13" lengthAdjust="spacing" textLength="130" x="783" y="1370.1855">- 1004: Fixed Game</text><text fill="#000000" font-family="Verdana" font-size="13" lengthAdjust="spacing" textLength="5" x="783" y="1385.9849">&#160;</text><text fill="#000000" font-family="Verdana" font-size="13" lengthAdjust="spacing" textLength="96" x="783" y="1401.7842">NonLive Pools:</text><text fill="#000000" font-family="Verdana" font-size="13" lengthAdjust="spacing" textLength="145" x="783" y="1417.5835">- 2001: Group Betting</text><text fill="#000000" font-family="Verdana" font-size="13" lengthAdjust="spacing" textLength="183" x="783" y="1433.3828">- 2002: Saba Group Betting</text><text fill="#000000" font-family="Verdana" font-size="13" lengthAdjust="spacing" textLength="107" x="783" y="1449.1821">- 2003: Hedging</text><text fill="#000000" font-family="Verdana" font-size="13" lengthAdjust="spacing" textLength="115" x="783" y="1464.9814">- 2004: Arbitrage</text><text fill="#000000" font-family="Verdana" font-size="13" lengthAdjust="spacing" textLength="130" x="783" y="1480.7808">- 2005: Fixed Game</text><text fill="#000000" font-family="Verdana" font-size="13" lengthAdjust="spacing" textLength="114" x="783" y="1496.5801">- 2006: Irrigation</text><rect fill="#FFFFFF" height="34.584" rx="12.5" ry="12.5" style="stroke:#000000;stroke-width:1.0;" width="114" x="643" y="1379.322"/><text fill="#000000" font-family="Verdana" font-size="12" lengthAdjust="spacing" textLength="94" x="653" y="1401.3865">Get Pool Types</text><path d="M823,1514.3096 L823,1610.1055 L803,1614.1055 L823,1618.1055 L823,1713.9014 A0,0 0 0 0 823,1713.9014 L1128,1713.9014 A0,0 0 0 0 1128,1713.9014 L1128,1524.3096 L1118,1514.3096 L823,1514.3096 A0,0 0 0 0 823,1514.3096 " fill="#FFFFFF" style="stroke:#000000;stroke-width:1.0;"/><path d="M1118,1514.3096 L1118,1524.3096 L1128,1524.3096 L1118,1514.3096 " fill="#FFFFFF" style="stroke:#000000;stroke-width:1.0;"/><text fill="#000000" font-family="Verdana" font-size="13" lengthAdjust="spacing" textLength="213" x="829" y="1532.3794">Enum.GetValues(PoolEnumType)</text><text fill="#000000" font-family="Verdana" font-size="13" lengthAdjust="spacing" textLength="82" x="839" y="1548.1787">.Cast&lt;int&gt;()</text><text fill="#000000" font-family="Verdana" font-size="13" lengthAdjust="spacing" textLength="79" x="839" y="1563.978">.AsParallel()</text><text fill="#000000" font-family="Verdana" font-size="13" lengthAdjust="spacing" textLength="156" x="839" y="1579.7773">.ForAll(poolType =&gt; ...)</text><text fill="#000000" font-family="Verdana" font-size="13" lengthAdjust="spacing" textLength="5" x="829" y="1595.5767">&#160;</text><text fill="#000000" font-family="Verdana" font-size="13" lengthAdjust="spacing" textLength="159" x="829" y="1611.376">6 parallel executions of:</text><text fill="#000000" font-family="Verdana" font-size="13" lengthAdjust="spacing" textLength="284" x="829" y="1627.1753">SP: CTS_DC_MatchMonitor_Staging_Insert</text><text fill="#000000" font-family="Verdana" font-size="13" lengthAdjust="spacing" textLength="5" x="829" y="1642.9746">&#160;</text><text fill="#000000" font-family="Verdana" font-size="13" lengthAdjust="spacing" textLength="80" x="829" y="1658.7739">Parameters:</text><text fill="#000000" font-family="Verdana" font-size="13" lengthAdjust="spacing" textLength="184" x="829" y="1674.5732">- @ip_LiveIndicator = isLive</text><text fill="#000000" font-family="Verdana" font-size="13" lengthAdjust="spacing" textLength="194" x="829" y="1690.3726">- @ip_PoolType = 1001-2006</text><text fill="#000000" font-family="Verdana" font-size="13" lengthAdjust="spacing" textLength="250" x="829" y="1706.1719">- @ip_TransList = JSON (same for all)</text><rect fill="#FFFFFF" height="34.584" rx="12.5" ry="12.5" style="stroke:#000000;stroke-width:1.0;" width="206" x="597" y="1596.8135"/><text fill="#000000" font-family="Verdana" font-size="12" lengthAdjust="spacing" textLength="186" x="607" y="1618.8779">Insert to All Pools (AsParallel)</text><rect fill="#000000" height="6" rx="2.5" ry="2.5" style="stroke:#000000;stroke-width:1.0;" width="1424" x="16" y="1733.9014"/><rect fill="#FFFFFF" height="49.168" rx="12.5" ry="12.5" style="stroke:#000000;stroke-width:1.0;" width="162" x="28" y="1791.9014"/><text fill="#000000" font-family="Verdana" font-size="12" lengthAdjust="spacing" textLength="142" x="38" y="1813.9658">Insert Pool 1001/2001</text><text fill="#000000" font-family="Verdana" font-size="12" lengthAdjust="spacing" textLength="97" x="38" y="1828.5498">(Group Betting)</text><rect fill="#FFFFFF" height="49.168" rx="12.5" ry="12.5" style="stroke:#000000;stroke-width:1.0;" width="162" x="200" y="1791.9014"/><text fill="#000000" font-family="Verdana" font-size="12" lengthAdjust="spacing" textLength="142" x="210" y="1813.9658">Insert Pool 1002/2002</text><text fill="#000000" font-family="Verdana" font-size="12" lengthAdjust="spacing" textLength="63" x="210" y="1828.5498">(Saba GB)</text><rect fill="#FFFFFF" height="49.168" rx="12.5" ry="12.5" style="stroke:#000000;stroke-width:1.0;" width="162" x="372" y="1791.9014"/><text fill="#000000" font-family="Verdana" font-size="12" lengthAdjust="spacing" textLength="142" x="382" y="1813.9658">Insert Pool 1003/2003</text><text fill="#000000" font-family="Verdana" font-size="12" lengthAdjust="spacing" textLength="62" x="382" y="1828.5498">(Hedging)</text><rect fill="#FFFFFF" height="49.168" rx="12.5" ry="12.5" style="stroke:#000000;stroke-width:1.0;" width="166" x="544" y="1791.9014"/><text fill="#000000" font-family="Verdana" font-size="12" lengthAdjust="spacing" textLength="142" x="554" y="1813.9658">Insert Pool 1004/2004</text><text fill="#000000" font-family="Verdana" font-size="12" lengthAdjust="spacing" textLength="146" x="554" y="1828.5498">(Fixed Game/Arbitrage)</text><polygon fill="#FFFFFF" points="874,1759.9014,912,1759.9014,924,1771.9014,912,1783.9014,874,1783.9014,862,1771.9014,874,1759.9014" style="stroke:#000000;stroke-width:1.0;"/><text fill="#000000" font-family="Verdana" font-size="11" lengthAdjust="spacing" textLength="38" x="874" y="1776.2761">isLive?</text><text fill="#000000" font-family="Verdana" font-size="11" lengthAdjust="spacing" textLength="14" x="848" y="1769.5918">no</text><text fill="#000000" font-family="Verdana" font-size="11" lengthAdjust="spacing" textLength="20" x="924" y="1769.5918">yes</text><rect fill="#FFFFFF" height="49.168" rx="12.5" ry="12.5" style="stroke:#000000;stroke-width:1.0;" width="125" x="748" y="1793.9014"/><text fill="#000000" font-family="Verdana" font-size="12" lengthAdjust="spacing" textLength="105" x="758" y="1815.9658">Insert Pool 2005</text><text fill="#000000" font-family="Verdana" font-size="12" lengthAdjust="spacing" textLength="83" x="758" y="1830.5498">(Fixed Game)</text><rect fill="#FFFFFF" height="34.584" rx="12.5" ry="12.5" style="stroke:#000000;stroke-width:1.0;" width="165" x="893" y="1793.9014"/><text fill="#000000" font-family="Verdana" font-size="12" lengthAdjust="spacing" textLength="145" x="903" y="1815.9658">Skip (Live only 4 pools)</text><polygon fill="#FFFFFF" points="893,1849.0693,905,1861.0693,893,1873.0693,881,1861.0693,893,1849.0693" style="stroke:#000000;stroke-width:1.0;"/><polygon fill="#FFFFFF" points="1232,1759.9014,1270,1759.9014,1282,1771.9014,1270,1783.9014,1232,1783.9014,1220,1771.9014,1232,1759.9014" style="stroke:#000000;stroke-width:1.0;"/><text fill="#000000" font-family="Verdana" font-size="11" lengthAdjust="spacing" textLength="38" x="1232" y="1776.2761">isLive?</text><text fill="#000000" font-family="Verdana" font-size="11" lengthAdjust="spacing" textLength="14" x="1206" y="1769.5918">no</text><text fill="#000000" font-family="Verdana" font-size="11" lengthAdjust="spacing" textLength="20" x="1282" y="1769.5918">yes</text><rect fill="#FFFFFF" height="49.168" rx="12.5" ry="12.5" style="stroke:#000000;stroke-width:1.0;" width="125" x="1106" y="1793.9014"/><text fill="#000000" font-family="Verdana" font-size="12" lengthAdjust="spacing" textLength="105" x="1116" y="1815.9658">Insert Pool 2006</text><text fill="#000000" font-family="Verdana" font-size="12" lengthAdjust="spacing" textLength="68" x="1116" y="1830.5498">(Irrigation)</text><rect fill="#FFFFFF" height="34.584" rx="12.5" ry="12.5" style="stroke:#000000;stroke-width:1.0;" width="165" x="1251" y="1793.9014"/><text fill="#000000" font-family="Verdana" font-size="12" lengthAdjust="spacing" textLength="145" x="1261" y="1815.9658">Skip (Live only 4 pools)</text><polygon fill="#FFFFFF" points="1251,1849.0693,1263,1861.0693,1251,1873.0693,1239,1861.0693,1251,1849.0693" style="stroke:#000000;stroke-width:1.0;"/><rect fill="#000000" height="6" rx="2.5" ry="2.5" style="stroke:#000000;stroke-width:1.0;" width="1424" x="16" y="1893.0693"/><rect fill="#FFFFFF" height="34.584" rx="12.5" ry="12.5" style="stroke:#000000;stroke-width:1.0;" width="130" x="635" y="1919.0693"/><text fill="#000000" font-family="Verdana" font-size="12" lengthAdjust="spacing" textLength="110" x="645" y="1941.1338">All Pools Inserted</text><rect fill="#FFFFFF" height="182.6099" style="stroke:#000000;stroke-width:1.0;" width="682" x="575" y="1975.6533"/><path d="M882,1975.6533 L882,1985.668 L872,1995.668 L575,1995.668 " fill="none" style="stroke:#000000;stroke-width:1.0;"/><text fill="#000000" font-family="Verdana" font-size="14" lengthAdjust="spacing" textLength="297" x="578" y="1990.7285">Step 5: Update Last Scanned SequenceID</text><path d="M835,2005.668 L835,2030.3669 L815,2034.3669 L835,2038.3669 L835,2063.0659 A0,0 0 0 0 835,2063.0659 L1247,2063.0659 A0,0 0 0 0 1247,2063.0659 L1247,2015.668 L1237,2005.668 L835,2005.668 A0,0 0 0 0 835,2005.668 " fill="#FFFFFF" style="stroke:#000000;stroke-width:1.0;"/><path d="M1237,2005.668 L1237,2015.668 L1247,2015.668 L1237,2005.668 " fill="#FFFFFF" style="stroke:#000000;stroke-width:1.0;"/><text fill="#000000" font-family="Verdana" font-size="13" lengthAdjust="spacing" textLength="391" x="841" y="2023.7378">maxSequenceID = TicketStagings.Max(x =&gt; x.SequenceID)</text><text fill="#000000" font-family="Verdana" font-size="13" lengthAdjust="spacing" textLength="5" x="841" y="2039.5371">&#160;</text><text fill="#000000" font-family="Verdana" font-size="13" lengthAdjust="spacing" textLength="144" x="841" y="2055.3364">Example: 1234572890</text><rect fill="#FFFFFF" height="34.584" rx="12.5" ry="12.5" style="stroke:#000000;stroke-width:1.0;" width="230" x="585" y="2017.075"/><text fill="#000000" font-family="Verdana" font-size="12" lengthAdjust="spacing" textLength="210" x="595" y="2039.1394">Get Max SequenceID from Tickets</text><path d="M811,2073.0659 L811,2105.6646 L791,2109.6646 L811,2113.6646 L811,2146.2632 A0,0 0 0 0 811,2146.2632 L1181,2146.2632 A0,0 0 0 0 1181,2146.2632 L1181,2083.0659 L1171,2073.0659 L811,2073.0659 A0,0 0 0 0 811,2073.0659 " fill="#FFFFFF" style="stroke:#000000;stroke-width:1.0;"/><path d="M1171,2073.0659 L1171,2083.0659 L1181,2083.0659 L1171,2073.0659 " fill="#FFFFFF" style="stroke:#000000;stroke-width:1.0;"/><text fill="#000000" font-family="Verdana" font-size="13" lengthAdjust="spacing" textLength="191" x="817" y="2091.1357">SET Value = maxSequenceID</text><text fill="#000000" font-family="Verdana" font-size="13" lengthAdjust="spacing" textLength="146" x="817" y="2106.9351">WHERE ParameterID =</text><text fill="#000000" font-family="Verdana" font-size="13" lengthAdjust="spacing" textLength="278" x="827" y="2122.7344">MatchMonitorLastScannedTrans (Live) OR</text><text fill="#000000" font-family="Verdana" font-size="13" lengthAdjust="spacing" textLength="339" x="827" y="2138.5337">MatchMonitorLastScannedTransNoneLive (NonLive)</text><rect fill="#FFFFFF" height="34.584" rx="12.5" ry="12.5" style="stroke:#000000;stroke-width:1.0;" width="182" x="609" y="2092.3726"/><text fill="#000000" font-family="Verdana" font-size="12" lengthAdjust="spacing" textLength="162" x="619" y="2114.437">Update SystemParameter</text><rect fill="#FFFFFF" height="34.584" rx="12.5" ry="12.5" style="stroke:#000000;stroke-width:1.0;" width="156" x="622" y="2178.2632"/><text fill="#000000" font-family="Verdana" font-size="12" lengthAdjust="spacing" textLength="136" x="632" y="2200.3276">Return Success (true)</text><rect fill="#FFFFFF" height="34.584" rx="12.5" ry="12.5" style="stroke:#000000;stroke-width:1.0;" width="154" x="1471" y="1174.7505"/><text fill="#000000" font-family="Verdana" font-size="12" lengthAdjust="spacing" textLength="134" x="1481" y="1196.8149">No Tickets to Process</text><rect fill="#FFFFFF" height="34.584" rx="12.5" ry="12.5" style="stroke:#000000;stroke-width:1.0;" width="156" x="1470" y="1244.3345"/><text fill="#000000" font-family="Verdana" font-size="12" lengthAdjust="spacing" textLength="136" x="1480" y="1266.3989">Return Success (true)</text><polygon fill="#FFFFFF" points="1124,2218.8472,1136,2230.8472,1124,2242.8472,1112,2230.8472,1124,2218.8472" style="stroke:#000000;stroke-width:1.0;"/><path d="M1155,2252.8472 L1155,2324.9441 L1135,2328.9441 L1155,2332.9441 L1155,2405.041 A0,0 0 0 0 1155,2405.041 L1399,2405.041 A0,0 0 0 0 1399,2405.041 L1399,2262.8472 L1389,2252.8472 L1155,2252.8472 A0,0 0 0 0 1155,2252.8472 " fill="#FFFFFF" style="stroke:#000000;stroke-width:1.0;"/><path d="M1389,2252.8472 L1389,2262.8472 L1399,2262.8472 L1389,2252.8472 " fill="#FFFFFF" style="stroke:#000000;stroke-width:1.0;"/><text fill="#000000" font-family="Verdana" font-size="13" font-weight="bold" lengthAdjust="spacing" textLength="158" x="1161" y="2270.917">Execution Frequency:</text><text fill="#000000" font-family="Verdana" font-size="13" lengthAdjust="spacing" textLength="155" x="1161" y="2286.7163">- Live: Every 5 minutes</text><text fill="#000000" font-family="Verdana" font-size="13" lengthAdjust="spacing" textLength="180" x="1161" y="2302.5156">- NonLive: Every 5 minutes</text><text fill="#000000" font-family="Verdana" font-size="13" lengthAdjust="spacing" textLength="5" x="1161" y="2318.3149">&#160;</text><text fill="#000000" font-family="Verdana" font-size="13" font-weight="bold" lengthAdjust="spacing" textLength="81" x="1161" y="2334.1143">Batch Size:</text><text fill="#000000" font-family="Verdana" font-size="13" lengthAdjust="spacing" textLength="152" x="1161" y="2349.9136">- Default: 5000 tickets</text><text fill="#000000" font-family="Verdana" font-size="13" lengthAdjust="spacing" textLength="5" x="1161" y="2365.7129">&#160;</text><text fill="#000000" font-family="Verdana" font-size="13" font-weight="bold" lengthAdjust="spacing" textLength="80" x="1161" y="2381.5122">Max Delay:</text><text fill="#000000" font-family="Verdana" font-size="13" lengthAdjust="spacing" textLength="223" x="1161" y="2397.3115">- ~5 minutes from ticket creation</text><ellipse cx="1124" cy="2328.9441" fill="none" rx="11" ry="11" style="stroke:#000000;stroke-width:1.0;"/><ellipse cx="1124" cy="2328.9441" fill="#FFFFFF" rx="6" ry="6" style="stroke:#000000;stroke-width:1.0;"/><line style="stroke:#000000;stroke-width:1.0;" x1="1124" x2="1124" y1="72.7373" y2="117.8433"/><polygon fill="#000000" points="1120,107.8433,1124,117.8433,1128,107.8433,1124,111.8433" style="stroke:#000000;stroke-width:1.0;"/><line style="stroke:#000000;stroke-width:1.0;" x1="1124" x2="1124" y1="152.4272" y2="224.7395"/><polygon fill="#000000" points="1120,214.7395,1124,224.7395,1128,214.7395,1124,218.7395" style="stroke:#000000;stroke-width:1.0;"/><line style="stroke:#000000;stroke-width:1.0;" x1="1124" x2="1124" y1="259.3235" y2="345.8511"/><polygon fill="#000000" points="1120,335.8511,1124,345.8511,1128,335.8511,1124,339.8511" style="stroke:#000000;stroke-width:1.0;"/><line style="stroke:#000000;stroke-width:1.0;" x1="1124" x2="1124" y1="513.5466" y2="577.9592"/><polygon fill="#000000" points="1120,567.9592,1124,577.9592,1128,567.9592,1124,571.9592" style="stroke:#000000;stroke-width:1.0;"/><line style="stroke:#000000;stroke-width:1.0;" x1="1124" x2="1124" y1="380.4351" y2="478.9626"/><polygon fill="#000000" points="1120,468.9626,1124,478.9626,1128,468.9626,1124,472.9626" style="stroke:#000000;stroke-width:1.0;"/><line style="stroke:#000000;stroke-width:1.0;" x1="862.5" x2="862.5" y1="818.2534" y2="961.6626"/><polygon fill="#000000" points="858.5,951.6626,862.5,961.6626,866.5,951.6626,862.5,955.6626" style="stroke:#000000;stroke-width:1.0;"/><line style="stroke:#000000;stroke-width:1.0;" x1="1069.5" x2="862.5" y1="710.7642" y2="710.7642"/><line style="stroke:#000000;stroke-width:1.0;" x1="862.5" x2="862.5" y1="710.7642" y2="783.6694"/><polygon fill="#000000" points="858.5,773.6694,862.5,783.6694,866.5,773.6694,862.5,777.6694" style="stroke:#000000;stroke-width:1.0;"/><line style="stroke:#000000;stroke-width:1.0;" x1="1178.5" x2="1385.5" y1="710.7642" y2="710.7642"/><line style="stroke:#000000;stroke-width:1.0;" x1="1385.5" x2="1385.5" y1="710.7642" y2="732.7642"/><polygon fill="#000000" points="1381.5,722.7642,1385.5,732.7642,1389.5,722.7642,1385.5,726.7642" style="stroke:#000000;stroke-width:1.0;"/><line style="stroke:#000000;stroke-width:1.0;" x1="862.5" x2="862.5" y1="996.2466" y2="1096.7505"/><line style="stroke:#000000;stroke-width:1.0;" x1="862.5" x2="1112" y1="1096.7505" y2="1096.7505"/><polygon fill="#000000" points="1102,1092.7505,1112,1096.7505,1102,1100.7505,1106,1096.7505" style="stroke:#000000;stroke-width:1.0;"/><line style="stroke:#000000;stroke-width:1.0;" x1="1385.5" x2="1385.5" y1="767.3481" y2="1096.7505"/><line style="stroke:#000000;stroke-width:1.0;" x1="1385.5" x2="1136" y1="1096.7505" y2="1096.7505"/><polygon fill="#000000" points="1146,1092.7505,1136,1096.7505,1146,1100.7505,1142,1096.7505" style="stroke:#000000;stroke-width:1.0;"/><line style="stroke:#000000;stroke-width:1.0;" x1="1124" x2="1124" y1="612.5432" y2="698.7642"/><polygon fill="#000000" points="1120,688.7642,1124,698.7642,1128,688.7642,1124,692.7642" style="stroke:#000000;stroke-width:1.0;"/><line style="stroke:#000000;stroke-width:1.0;" x1="700" x2="700" y1="1257.7561" y2="1379.322"/><polygon fill="#000000" points="696,1369.322,700,1379.322,704,1369.322,700,1373.322" style="stroke:#000000;stroke-width:1.0;"/><line style="stroke:#000000;stroke-width:1.0;" x1="700" x2="700" y1="1413.906" y2="1596.8135"/><polygon fill="#000000" points="696,1586.8135,700,1596.8135,704,1586.8135,700,1590.8135" style="stroke:#000000;stroke-width:1.0;"/><line style="stroke:#000000;stroke-width:1.0;" x1="862" x2="810.5" y1="1771.9014" y2="1771.9014"/><line style="stroke:#000000;stroke-width:1.0;" x1="810.5" x2="810.5" y1="1771.9014" y2="1793.9014"/><polygon fill="#000000" points="806.5,1783.9014,810.5,1793.9014,814.5,1783.9014,810.5,1787.9014" style="stroke:#000000;stroke-width:1.0;"/><line style="stroke:#000000;stroke-width:1.0;" x1="924" x2="975.5" y1="1771.9014" y2="1771.9014"/><line style="stroke:#000000;stroke-width:1.0;" x1="975.5" x2="975.5" y1="1771.9014" y2="1793.9014"/><polygon fill="#000000" points="971.5,1783.9014,975.5,1793.9014,979.5,1783.9014,975.5,1787.9014" style="stroke:#000000;stroke-width:1.0;"/><line style="stroke:#000000;stroke-width:1.0;" x1="810.5" x2="810.5" y1="1843.0693" y2="1861.0693"/><line style="stroke:#000000;stroke-width:1.0;" x1="810.5" x2="881" y1="1861.0693" y2="1861.0693"/><polygon fill="#000000" points="871,1857.0693,881,1861.0693,871,1865.0693,875,1861.0693" style="stroke:#000000;stroke-width:1.0;"/><line style="stroke:#000000;stroke-width:1.0;" x1="975.5" x2="975.5" y1="1828.4854" y2="1861.0693"/><line style="stroke:#000000;stroke-width:1.0;" x1="975.5" x2="905" y1="1861.0693" y2="1861.0693"/><polygon fill="#000000" points="915,1857.0693,905,1861.0693,915,1865.0693,911,1861.0693" style="stroke:#000000;stroke-width:1.0;"/><line style="stroke:#000000;stroke-width:1.0;" x1="1220" x2="1168.5" y1="1771.9014" y2="1771.9014"/><line style="stroke:#000000;stroke-width:1.0;" x1="1168.5" x2="1168.5" y1="1771.9014" y2="1793.9014"/><polygon fill="#000000" points="1164.5,1783.9014,1168.5,1793.9014,1172.5,1783.9014,1168.5,1787.9014" style="stroke:#000000;stroke-width:1.0;"/><line style="stroke:#000000;stroke-width:1.0;" x1="1282" x2="1333.5" y1="1771.9014" y2="1771.9014"/><line style="stroke:#000000;stroke-width:1.0;" x1="1333.5" x2="1333.5" y1="1771.9014" y2="1793.9014"/><polygon fill="#000000" points="1329.5,1783.9014,1333.5,1793.9014,1337.5,1783.9014,1333.5,1787.9014" style="stroke:#000000;stroke-width:1.0;"/><line style="stroke:#000000;stroke-width:1.0;" x1="1168.5" x2="1168.5" y1="1843.0693" y2="1861.0693"/><line style="stroke:#000000;stroke-width:1.0;" x1="1168.5" x2="1239" y1="1861.0693" y2="1861.0693"/><polygon fill="#000000" points="1229,1857.0693,1239,1861.0693,1229,1865.0693,1233,1861.0693" style="stroke:#000000;stroke-width:1.0;"/><line style="stroke:#000000;stroke-width:1.0;" x1="1333.5" x2="1333.5" y1="1828.4854" y2="1861.0693"/><line style="stroke:#000000;stroke-width:1.0;" x1="1333.5" x2="1263" y1="1861.0693" y2="1861.0693"/><polygon fill="#000000" points="1273,1857.0693,1263,1861.0693,1273,1865.0693,1269,1861.0693" style="stroke:#000000;stroke-width:1.0;"/><line style="stroke:#000000;stroke-width:1.0;" x1="109" x2="109" y1="1739.9014" y2="1791.9014"/><polygon fill="#000000" points="105,1781.9014,109,1791.9014,113,1781.9014,109,1785.9014" style="stroke:#000000;stroke-width:1.0;"/><line style="stroke:#000000;stroke-width:1.0;" x1="281" x2="281" y1="1739.9014" y2="1791.9014"/><polygon fill="#000000" points="277,1781.9014,281,1791.9014,285,1781.9014,281,1785.9014" style="stroke:#000000;stroke-width:1.0;"/><line style="stroke:#000000;stroke-width:1.0;" x1="453" x2="453" y1="1739.9014" y2="1791.9014"/><polygon fill="#000000" points="449,1781.9014,453,1791.9014,457,1781.9014,453,1785.9014" style="stroke:#000000;stroke-width:1.0;"/><line style="stroke:#000000;stroke-width:1.0;" x1="627" x2="627" y1="1739.9014" y2="1791.9014"/><polygon fill="#000000" points="623,1781.9014,627,1791.9014,631,1781.9014,627,1785.9014" style="stroke:#000000;stroke-width:1.0;"/><line style="stroke:#000000;stroke-width:1.0;" x1="893" x2="893" y1="1739.9014" y2="1759.9014"/><polygon fill="#000000" points="889,1749.9014,893,1759.9014,897,1749.9014,893,1753.9014" style="stroke:#000000;stroke-width:1.0;"/><line style="stroke:#000000;stroke-width:1.0;" x1="1251" x2="1251" y1="1739.9014" y2="1759.9014"/><polygon fill="#000000" points="1247,1749.9014,1251,1759.9014,1255,1749.9014,1251,1753.9014" style="stroke:#000000;stroke-width:1.0;"/><line style="stroke:#000000;stroke-width:1.0;" x1="109" x2="109" y1="1841.0693" y2="1893.0693"/><polygon fill="#000000" points="105,1883.0693,109,1893.0693,113,1883.0693,109,1887.0693" style="stroke:#000000;stroke-width:1.0;"/><line style="stroke:#000000;stroke-width:1.0;" x1="281" x2="281" y1="1841.0693" y2="1893.0693"/><polygon fill="#000000" points="277,1883.0693,281,1893.0693,285,1883.0693,281,1887.0693" style="stroke:#000000;stroke-width:1.0;"/><line style="stroke:#000000;stroke-width:1.0;" x1="453" x2="453" y1="1841.0693" y2="1893.0693"/><polygon fill="#000000" points="449,1883.0693,453,1893.0693,457,1883.0693,453,1887.0693" style="stroke:#000000;stroke-width:1.0;"/><line style="stroke:#000000;stroke-width:1.0;" x1="627" x2="627" y1="1841.0693" y2="1893.0693"/><polygon fill="#000000" points="623,1883.0693,627,1893.0693,631,1883.0693,627,1887.0693" style="stroke:#000000;stroke-width:1.0;"/><line style="stroke:#000000;stroke-width:1.0;" x1="893" x2="893" y1="1873.0693" y2="1893.0693"/><polygon fill="#000000" points="889,1883.0693,893,1893.0693,897,1883.0693,893,1887.0693" style="stroke:#000000;stroke-width:1.0;"/><line style="stroke:#000000;stroke-width:1.0;" x1="1251" x2="1251" y1="1873.0693" y2="1893.0693"/><polygon fill="#000000" points="1247,1883.0693,1251,1893.0693,1255,1883.0693,1251,1887.0693" style="stroke:#000000;stroke-width:1.0;"/><line style="stroke:#000000;stroke-width:1.0;" x1="700" x2="700" y1="1631.3975" y2="1733.9014"/><polygon fill="#000000" points="696,1723.9014,700,1733.9014,704,1723.9014,700,1727.9014" style="stroke:#000000;stroke-width:1.0;"/><line style="stroke:#000000;stroke-width:1.0;" x1="700" x2="700" y1="1899.0693" y2="1919.0693"/><polygon fill="#000000" points="696,1909.0693,700,1919.0693,704,1909.0693,700,1913.0693" style="stroke:#000000;stroke-width:1.0;"/><line style="stroke:#000000;stroke-width:1.0;" x1="700" x2="700" y1="2051.6589" y2="2092.3726"/><polygon fill="#000000" points="696,2082.3726,700,2092.3726,704,2082.3726,700,2086.3726" style="stroke:#000000;stroke-width:1.0;"/><line style="stroke:#000000;stroke-width:1.0;" x1="700" x2="700" y1="1953.6533" y2="2017.075"/><polygon fill="#000000" points="696,2007.075,700,2017.075,704,2007.075,700,2011.075" style="stroke:#000000;stroke-width:1.0;"/><line style="stroke:#000000;stroke-width:1.0;" x1="700" x2="700" y1="2126.9565" y2="2178.2632"/><polygon fill="#000000" points="696,2168.2632,700,2178.2632,704,2168.2632,700,2172.2632" style="stroke:#000000;stroke-width:1.0;"/><line style="stroke:#000000;stroke-width:1.0;" x1="1548" x2="1548" y1="1209.3345" y2="1244.3345"/><polygon fill="#000000" points="1544,1234.3345,1548,1244.3345,1552,1234.3345,1548,1238.3345" style="stroke:#000000;stroke-width:1.0;"/><line style="stroke:#000000;stroke-width:1.0;" x1="1071" x2="700" y1="1152.7505" y2="1152.7505"/><line style="stroke:#000000;stroke-width:1.0;" x1="700" x2="700" y1="1152.7505" y2="1223.1721"/><polygon fill="#000000" points="696,1213.1721,700,1223.1721,704,1213.1721,700,1217.1721" style="stroke:#000000;stroke-width:1.0;"/><line style="stroke:#000000;stroke-width:1.0;" x1="1177" x2="1548" y1="1152.7505" y2="1152.7505"/><line style="stroke:#000000;stroke-width:1.0;" x1="1548" x2="1548" y1="1152.7505" y2="1174.7505"/><polygon fill="#000000" points="1544,1164.7505,1548,1174.7505,1552,1164.7505,1548,1168.7505" style="stroke:#000000;stroke-width:1.0;"/><line style="stroke:#000000;stroke-width:1.0;" x1="700" x2="700" y1="2212.8472" y2="2230.8472"/><line style="stroke:#000000;stroke-width:1.0;" x1="700" x2="1112" y1="2230.8472" y2="2230.8472"/><polygon fill="#000000" points="1102,2226.8472,1112,2230.8472,1102,2234.8472,1106,2230.8472" style="stroke:#000000;stroke-width:1.0;"/><line style="stroke:#000000;stroke-width:1.0;" x1="1548" x2="1548" y1="1278.9185" y2="2230.8472"/><line style="stroke:#000000;stroke-width:1.0;" x1="1548" x2="1136" y1="2230.8472" y2="2230.8472"/><polygon fill="#000000" points="1146,2226.8472,1136,2230.8472,1146,2234.8472,1142,2230.8472" style="stroke:#000000;stroke-width:1.0;"/><line style="stroke:#000000;stroke-width:1.0;" x1="1124" x2="1124" y1="1108.7505" y2="1140.7505"/><polygon fill="#000000" points="1120,1130.7505,1124,1140.7505,1128,1130.7505,1124,1134.7505" style="stroke:#000000;stroke-width:1.0;"/><line style="stroke:#000000;stroke-width:1.0;" x1="1124" x2="1124" y1="2242.8472" y2="2317.9441"/><polygon fill="#000000" points="1120,2307.9441,1124,2317.9441,1128,2307.9441,1124,2311.9441" style="stroke:#000000;stroke-width:1.0;"/><!--SRC=[hLTRLzj647xthvZo4fa3nfXBMX5e0Tl1AGQAtFQXxV5PoskpHLwvsXNOpQ6_lJExQzrY4nwImmb8-kO-y-tiT_g1ppZC8oPaJGiTSUWp7Jv0FvP2nmdiGaygdcWOYF2HQsXppKI4h_ie0TqeVWRl60BDvwfUgodD4bsh-UTtFUZ8yJmMKiCbYo8-Fgd9M7D8nFH1rm2knHFthIrdojgnPgmLmY3q9fPlGJiO2k3F7KlOZ6kUA1-VTc54ee7ubuCtvXEMHXgEcirctNmKYWJ1qqdAzoOiKhnUut8Cv306qqE3WaKa7F3aIOIy4aj0KNkPYHsdi6vT2J1hyuexrqpf86HIyd70_qcv37clFSoSxhKDwYwEeuvCPuFb7BqZbNikoA9_g1iB9s89MrG6sFVX8vea4-1iG6va2pwZRl-UCtoxL9hFCgid-A4Krxeg5JmV94mg0rjReIeIGTmLoEG5eBDWitc4OclJ0QUmtpeuF3f-__qFJSHd4Rzy6NFBndp1jQPSOSgra5FbWlqbvSaIWdcSQ8TmW3KHTqM4gO3HqZUFkz1DPKYMZ4FzFYgWShYFM7cTAl8Kl8va8-ppUXuVkSJjMr1aVM_a70pZsKX8HdfLCJGZw5-a8Xh3f-3s1Wqaw_tym_mFy7dBn4K-ON5zsD-1BUUZVNxPUIFo84Cs6WtprrzVoVg1pReb35DZc2Jnp513-y8cNqmWdmmuW-QFTK3EaU0jkRAvyeaW8BZpuN8G3DkNms8N3Urmgo5QEZ7mIYAgisuByvEO3qtPpUoO-hZPhPSmQpklXBZ8d3yrb57wsBFCSGevTPJL2rHVw3j4KbaTnlswvmhv2AS0mH-AZDQHcExbcO4LMiG9-brkycu4IfdVaAVVhphtdG8LO3LU2__yfWrPn-ov052gTmEUSWDMBs0xJrpgR23U9QcK27bdYMi5n7-tzrKeQSCPGMX6RnPwtUlt1ZbtbzFM5JmQ5qgU1x1Zcv7-k4oLBXJKT1Qzl-PicXfe5cAkIBD79F7RyLZj4AKCE9jb7yczgtZ6Wp1E44IFvyziQHupqCzOazl9P21c22a4Mwqantu1JyPk3e97CQT76t7zn8wVcD3iqHnbfOvJEQxEKNKu3_tLoQrZ2ccAnG2FPWLFuwXkfvECyiGTRYlrYASctT15drGiBsFvX9eRcUpjw6yUQkUWCvOrX_iLu3jSBmojAKDhy2pq0z3mQsjwKwSJoz1X25GdjS4nCuc4AlJ4VhD9ns4IftDpEA3HuZSyDW8sOfi1o71NV3ojlCNKTiK2IVqZyauvIDV0LJzQh_ZH-feVhRL-j8mVvyb8w8HDUV7zqHh_p8TZx8a4SsOEdat9phlc72jZ0W7lN6MTio7zjAWqi52_iIZboYlkBldmDowHS3xWKdZc5Lxcoejlkt623dXpL6H9_8mEfafJ7PlLYaI1BtYOcXCLuiagzPjE5TUZGnjiMUUcyuGAsyDv31ajngTkooj1xZ9dJUljKivB04DCHFJk940gHLiuqGdDGNr3JV3perEpAeyP1xAnHxtrf_HAlUEAH7B0fhJRhvTkaNGBfMtxNRnLxe3a3b3ETULRvGv9xX3bylxSorfuanAYFflhZFDMbFc53Uh-adgdTCMrsT9H85mpiB6Cbd08r6qgbp7i-osSEaQdyj7xHavHesIjOOSt7rdh0Dsx05xiObaz8f0dVfsF6GxogvS5Hy1zjYWk3sRVS4V61agOiKLfdIyV3mrKw2reh1UD75QPx-oAOAu2xrlsAh2MjrmeQourQrmBEWCmJ8LkbTmixKg52ndYiXAzTijnwmvkEM-2hov5bTMd49wh7TxOT9f82D8mv4hPoohsH765y6_YuY5-byG4FNbDslGINjlZUQryfztUxgpu5Bg9JS_ItzwkhPOWdnORl5OTmKp8L7DblcGtmIy_6gLccmPQvbQwslOwxflbkh0863ZrN9j7BBFyNwRHDg35GvXmUwPbYViV]--></g></svg>