<svg xmlns="http://www.w3.org/2000/svg" xmlns:xlink="http://www.w3.org/1999/xlink" contentStyleType="text/css" height="2087px" preserveAspectRatio="none" style="width:1087px;height:2087px;background:#FFFFFF;" version="1.1" viewBox="0 0 1087 2087" width="1087px" zoomAndPan="magnify"><defs/><g><text fill="#000000" font-family="Verdana" font-size="22" font-weight="bold" lengthAdjust="spacing" textLength="736" x="174.25" y="37.1182">Daily Problem Classification By Sport - Main Business Flow</text><ellipse cx="303" cy="62.7373" fill="#FFFFFF" rx="10" ry="10" style="stroke:#000000;stroke-width:1.0;"/><path d="M416.5,89.23 L416.5,106.0293 L396.5,110.0293 L416.5,114.0293 L416.5,130.8286 A0,0 0 0 0 416.5,130.8286 L956.5,130.8286 A0,0 0 0 0 956.5,130.8286 L956.5,99.23 L946.5,89.23 L416.5,89.23 A0,0 0 0 0 416.5,89.23 " fill="#FFFFFF" style="stroke:#000000;stroke-width:1.0;"/><path d="M946.5,89.23 L946.5,99.23 L956.5,99.23 L946.5,89.23 " fill="#FFFFFF" style="stroke:#000000;stroke-width:1.0;"/><text fill="#000000" font-family="Verdana" font-size="13" lengthAdjust="spacing" textLength="519" x="422.5" y="107.2998">Endpoint: /api/classificationBySportJobs/ScanDailyProblemClassiciationBySport</text><text fill="#000000" font-family="Verdana" font-size="13" lengthAdjust="spacing" textLength="329" x="422.5" y="123.0991">Parameters: batchInternalSize, batchExternalSize</text><rect fill="#FFFFFF" height="34.584" rx="12.5" ry="12.5" style="stroke:#000000;stroke-width:1.0;" width="187" x="209.5" y="92.7373"/><text fill="#000000" font-family="Verdana" font-size="12" lengthAdjust="spacing" textLength="167" x="219.5" y="114.8018">Job Triggered (HTTP POST)</text><rect fill="#FFFFFF" height="34.584" rx="12.5" ry="12.5" style="stroke:#000000;stroke-width:1.0;" width="594" x="6" y="150.8286"/><text fill="#000000" font-family="Verdana" font-size="12" lengthAdjust="spacing" textLength="574" x="16" y="172.8931">DailyProblemClassificationBySportJobService.Execute(batchInternalSize, batchExternalSize)</text><rect fill="#FFFFFF" height="34.584" rx="12.5" ry="12.5" style="stroke:#000000;stroke-width:1.0;" width="61" x="272.5" y="249.4126"/><text fill="#000000" font-family="Verdana" font-size="12" lengthAdjust="spacing" textLength="41" x="282.5" y="271.4771">Start()</text><rect fill="#FFFFFF" height="34.584" rx="12.5" ry="12.5" style="stroke:#000000;stroke-width:1.0;" width="183" x="211.5" y="303.9966"/><text fill="#000000" font-family="Verdana" font-size="12" lengthAdjust="spacing" textLength="163" x="221.5" y="326.061">Initialize PACustomers list</text><rect fill="#FFFFFF" height="34.584" rx="12.5" ry="12.5" style="stroke:#000000;stroke-width:1.0;" width="282" x="162" y="358.5806"/><text fill="#000000" font-family="Verdana" font-size="12" lengthAdjust="spacing" textLength="262" x="172" y="380.645">GetDailyPAFromQueue(batchInternalSize)</text><path d="M568,403.1646 L568,491.0608 L548,495.0608 L568,499.0608 L568,586.957 A0,0 0 0 0 568,586.957 L1041,586.957 A0,0 0 0 0 1041,586.957 L1041,413.1646 L1031,403.1646 L568,403.1646 A0,0 0 0 0 568,403.1646 " fill="#FFFFFF" style="stroke:#000000;stroke-width:1.0;"/><path d="M1031,403.1646 L1031,413.1646 L1041,413.1646 L1031,403.1646 " fill="#FFFFFF" style="stroke:#000000;stroke-width:1.0;"/><text fill="#000000" font-family="Verdana" font-size="13" lengthAdjust="spacing" textLength="80" x="574" y="421.2344">Parameters:</text><text fill="#000000" font-family="Verdana" font-size="13" lengthAdjust="spacing" textLength="96" x="574" y="437.0337">- ip_BatchSize</text><text fill="#000000" font-family="Verdana" font-size="13" lengthAdjust="spacing" textLength="40" x="574" y="452.833">Logic:</text><text fill="#000000" font-family="Verdana" font-size="13" lengthAdjust="spacing" textLength="452" x="574" y="468.6323">- Get LastScannedTime from SystemParameter (ParameterID = 200)</text><text fill="#000000" font-family="Verdana" font-size="13" lengthAdjust="spacing" textLength="239" x="574" y="484.4316">- Add 24 hours to LastScannedTime</text><text fill="#000000" font-family="Verdana" font-size="13" lengthAdjust="spacing" textLength="237" x="574" y="500.231">- Get customers from DailyPAQueue</text><text fill="#000000" font-family="Verdana" font-size="13" lengthAdjust="spacing" textLength="209" x="574" y="516.0303">- Filter by FlowPADailyScan = 1</text><text fill="#000000" font-family="Verdana" font-size="13" lengthAdjust="spacing" textLength="120" x="574" y="531.8296">- Order by ID ASC</text><text fill="#000000" font-family="Verdana" font-size="13" lengthAdjust="spacing" textLength="133" x="574" y="547.6289">- Limit by batchSize</text><text fill="#000000" font-family="Verdana" font-size="13" lengthAdjust="spacing" textLength="56" x="574" y="563.4282">Returns:</text><text fill="#000000" font-family="Verdana" font-size="13" lengthAdjust="spacing" textLength="140" x="574" y="579.2275">- CustID, SportGroup</text><rect fill="#FFFFFF" height="34.584" rx="12.5" ry="12.5" style="stroke:#000000;stroke-width:1.0;" width="490" x="58" y="477.7688"/><text fill="#000000" font-family="Verdana" font-size="12" lengthAdjust="spacing" textLength="470" x="68" y="499.8333">Call CTS_DC_CustClassification_BySport_DailyScanPA_GetFromQueue [SP]</text><rect fill="#FFFFFF" height="34.584" rx="12.5" ry="12.5" style="stroke:#000000;stroke-width:1.0;" width="504" x="51" y="606.957"/><text fill="#000000" font-family="Verdana" font-size="12" lengthAdjust="spacing" textLength="484" x="61" y="629.0215">GetProblemAccountLosingClassification(BySport_FunctionId.ProblemDailyJob)</text><rect fill="#FFFFFF" height="34.584" rx="12.5" ry="12.5" style="stroke:#000000;stroke-width:1.0;" width="158" x="224" y="661.541"/><text fill="#000000" font-family="Verdana" font-size="12" lengthAdjust="spacing" textLength="138" x="234" y="683.6055">GetPALosingBySport()</text><path d="M519.5,706.125 L519.5,817.7202 L499.5,821.7202 L519.5,825.7202 L519.5,937.3154 A0,0 0 0 0 519.5,937.3154 L877.5,937.3154 A0,0 0 0 0 877.5,937.3154 L877.5,716.125 L867.5,706.125 L519.5,706.125 A0,0 0 0 0 519.5,706.125 " fill="#FFFFFF" style="stroke:#000000;stroke-width:1.0;"/><path d="M867.5,706.125 L867.5,716.125 L877.5,716.125 L867.5,706.125 " fill="#FFFFFF" style="stroke:#000000;stroke-width:1.0;"/><text fill="#000000" font-family="Verdana" font-size="13" lengthAdjust="spacing" textLength="80" x="525.5" y="724.1948">Parameters:</text><text fill="#000000" font-family="Verdana" font-size="13" lengthAdjust="spacing" textLength="155" x="525.5" y="739.9941">- @ListCustInfo (JSON)</text><text fill="#000000" font-family="Verdana" font-size="13" lengthAdjust="spacing" textLength="251" x="525.5" y="755.7935">- @FunctionId = 12 (ProblemDailyJob)</text><text fill="#000000" font-family="Verdana" font-size="13" lengthAdjust="spacing" textLength="40" x="525.5" y="771.5928">Logic:</text><text fill="#000000" font-family="Verdana" font-size="13" lengthAdjust="spacing" textLength="177" x="525.5" y="787.3921">- Parse JSON customer list</text><text fill="#000000" font-family="Verdana" font-size="13" lengthAdjust="spacing" textLength="269" x="525.5" y="803.1914">- Get accumulated data from bodb_dwrs</text><text fill="#000000" font-family="Verdana" font-size="13" lengthAdjust="spacing" textLength="177" x="525.5" y="818.9907">- Calculate WinlossStatus:</text><text fill="#000000" font-family="Verdana" font-size="13" lengthAdjust="spacing" textLength="233" x="535.5" y="834.79">* LOSING (0): WinlossRM &lt; -10000</text><text fill="#000000" font-family="Verdana" font-size="13" lengthAdjust="spacing" textLength="327" x="535.5" y="850.5894">* KEEPSTATE (1): -10000 &lt;= WinlossRM &lt; -5000</text><text fill="#000000" font-family="Verdana" font-size="13" lengthAdjust="spacing" textLength="244" x="535.5" y="866.3887">* WINNING (2): WinlossRM &gt;= -5000</text><text fill="#000000" font-family="Verdana" font-size="13" lengthAdjust="spacing" textLength="56" x="525.5" y="882.188">Returns:</text><text fill="#000000" font-family="Verdana" font-size="13" lengthAdjust="spacing" textLength="140" x="525.5" y="897.9873">- CustID, SportGroup</text><text fill="#000000" font-family="Verdana" font-size="13" lengthAdjust="spacing" textLength="271" x="525.5" y="913.7866">- WinlossStatus, TurnoverRM, WinlossRM</text><text fill="#000000" font-family="Verdana" font-size="13" lengthAdjust="spacing" textLength="157" x="525.5" y="929.5859">- BetCount, ActiveDays</text><rect fill="#FFFFFF" height="34.584" rx="12.5" ry="12.5" style="stroke:#000000;stroke-width:1.0;" width="393" x="106.5" y="804.4282"/><text fill="#000000" font-family="Verdana" font-size="12" lengthAdjust="spacing" textLength="373" x="116.5" y="826.4927">Call CTS_ProblemAccountsClassification_BySport_Daily [SP]</text><path d="M28,947.3154 L28,973.1147 L213,973.1147 L213,957.3154 L203,947.3154 L28,947.3154 " fill="#FFFFFF" style="stroke:#000000;stroke-width:1.0;"/><path d="M203,947.3154 L203,957.3154 L213,957.3154 L203,947.3154 " fill="#FFFFFF" style="stroke:#000000;stroke-width:1.0;"/><text fill="#000000" font-family="Verdana" font-size="13" lengthAdjust="spacing" textLength="164" x="34" y="965.3853">No PA classification data</text><rect fill="#FFFFFF" height="34.584" rx="12.5" ry="12.5" style="stroke:#000000;stroke-width:1.0;" width="196" x="205" y="1021.7991"/><text fill="#000000" font-family="Verdana" font-size="12" lengthAdjust="spacing" textLength="176" x="215" y="1043.8635">Chunk by batchExternalSize</text><rect fill="#FFFFFF" height="34.584" rx="12.5" ry="12.5" style="stroke:#000000;stroke-width:1.0;" width="286" x="160" y="1133.0837"/><text fill="#000000" font-family="Verdana" font-size="12" lengthAdjust="spacing" textLength="266" x="170" y="1155.1482">InsertPAWLClassificationBySport(paBatch)</text><path d="M539.5,1177.6677 L539.5,1289.2629 L519.5,1293.2629 L539.5,1297.2629 L539.5,1408.8582 A0,0 0 0 0 539.5,1408.8582 L1012.5,1408.8582 A0,0 0 0 0 1012.5,1408.8582 L1012.5,1187.6677 L1002.5,1177.6677 L539.5,1177.6677 A0,0 0 0 0 539.5,1177.6677 " fill="#FFFFFF" style="stroke:#000000;stroke-width:1.0;"/><path d="M1002.5,1177.6677 L1002.5,1187.6677 L1012.5,1187.6677 L1002.5,1177.6677 " fill="#FFFFFF" style="stroke:#000000;stroke-width:1.0;"/><text fill="#000000" font-family="Verdana" font-size="13" lengthAdjust="spacing" textLength="80" x="545.5" y="1195.7375">Parameters:</text><text fill="#000000" font-family="Verdana" font-size="13" lengthAdjust="spacing" textLength="188" x="545.5" y="1211.5369">- ip_ProblemAccount (JSON)</text><text fill="#000000" font-family="Verdana" font-size="13" lengthAdjust="spacing" textLength="40" x="545.5" y="1227.3362">Logic:</text><text fill="#000000" font-family="Verdana" font-size="13" lengthAdjust="spacing" textLength="343" x="545.5" y="1243.1355">- Parse JSON with WinlossStatus, TurnoverRM, etc.</text><text fill="#000000" font-family="Verdana" font-size="13" lengthAdjust="spacing" textLength="452" x="545.5" y="1258.9348">- Get current classification from CTSCustomerClassification_BySport</text><text fill="#000000" font-family="Verdana" font-size="13" lengthAdjust="spacing" textLength="356" x="545.5" y="1274.7341">- Determine if data changed based on WinlossStatus:</text><text fill="#000000" font-family="Verdana" font-size="13" lengthAdjust="spacing" textLength="301" x="555.5" y="1290.5334">* LOSING + PA: Update (IsDataChanged = 1)</text><text fill="#000000" font-family="Verdana" font-size="13" lengthAdjust="spacing" textLength="370" x="555.5" y="1306.3328">* LOSING + Probation: No Change (IsDataChanged = 0)</text><text fill="#000000" font-family="Verdana" font-size="13" lengthAdjust="spacing" textLength="335" x="555.5" y="1322.1321">* WINNING + PA: No Change (IsDataChanged = 0)</text><text fill="#000000" font-family="Verdana" font-size="13" lengthAdjust="spacing" textLength="356" x="555.5" y="1337.9314">* WINNING + Probation: Update (IsDataChanged = 1)</text><text fill="#000000" font-family="Verdana" font-size="13" lengthAdjust="spacing" textLength="294" x="545.5" y="1353.7307">- Update classification if IsDataChanged = 1</text><text fill="#000000" font-family="Verdana" font-size="13" lengthAdjust="spacing" textLength="234" x="545.5" y="1369.53">- Insert into History and Log tables</text><text fill="#000000" font-family="Verdana" font-size="13" lengthAdjust="spacing" textLength="56" x="545.5" y="1385.3293">Returns:</text><text fill="#000000" font-family="Verdana" font-size="13" lengthAdjust="spacing" textLength="299" x="545.5" y="1401.1287">- CustID, SportGroup (only changed records)</text><rect fill="#FFFFFF" height="34.584" rx="12.5" ry="12.5" style="stroke:#000000;stroke-width:1.0;" width="433" x="86.5" y="1275.9709"/><text fill="#000000" font-family="Verdana" font-size="12" lengthAdjust="spacing" textLength="413" x="96.5" y="1298.0354">Call CTS_DC_CustClassification_BySport_DailyScanPA_Insert [SP]</text><rect fill="#FFFFFF" height="34.584" rx="12.5" ry="12.5" style="stroke:#000000;stroke-width:1.0;" width="396" x="105" y="1428.8582"/><text fill="#000000" font-family="Verdana" font-size="12" lengthAdjust="spacing" textLength="376" x="115" y="1450.9226">PushCCBySportToExternal(serviceName, batchExternalSize)</text><rect fill="#FFFFFF" height="34.584" rx="12.5" ry="12.5" style="stroke:#000000;stroke-width:1.0;" width="251" x="177.5" y="1483.4421"/><text fill="#000000" font-family="Verdana" font-size="12" lengthAdjust="spacing" textLength="231" x="187.5" y="1505.5066">GetCustomerClassificationBySports()</text><rect fill="#FFFFFF" height="34.584" rx="12.5" ry="12.5" style="stroke:#000000;stroke-width:1.0;" width="222" x="192" y="1538.0261"/><text fill="#000000" font-family="Verdana" font-size="12" lengthAdjust="spacing" textLength="202" x="202" y="1560.0906">RetryPushCCBySportToMainDB()</text><path d="M492,1589.1028 L492,1605.9021 L472,1609.9021 L492,1613.9021 L492,1630.7014 A0,0 0 0 0 492,1630.7014 L665,1630.7014 A0,0 0 0 0 665,1630.7014 L665,1599.1028 L655,1589.1028 L492,1589.1028 A0,0 0 0 0 492,1589.1028 " fill="#FFFFFF" style="stroke:#000000;stroke-width:1.0;"/><path d="M655,1589.1028 L655,1599.1028 L665,1599.1028 L655,1589.1028 " fill="#FFFFFF" style="stroke:#000000;stroke-width:1.0;"/><text fill="#000000" font-family="Verdana" font-size="13" lengthAdjust="spacing" textLength="152" x="498" y="1607.1726">Push to Main Database</text><text fill="#000000" font-family="Verdana" font-size="13" lengthAdjust="spacing" textLength="128" x="498" y="1622.9719">Retry up to 3 times</text><rect fill="#FFFFFF" height="34.584" rx="12.5" ry="12.5" style="stroke:#000000;stroke-width:1.0;" width="338" x="134" y="1592.6101"/><text fill="#000000" font-family="Verdana" font-size="12" lengthAdjust="spacing" textLength="318" x="144" y="1614.6746">UpdateCustomerClassificationBySport [MainDB SP]</text><rect fill="#FFFFFF" height="34.584" rx="12.5" ry="12.5" style="stroke:#000000;stroke-width:1.0;" width="113" x="246.5" y="1076.3831"/><text fill="#000000" font-family="Verdana" font-size="12" lengthAdjust="spacing" textLength="93" x="256.5" y="1098.4475">For each batch</text><polygon fill="#FFFFFF" points="262,1650.7014,344,1650.7014,356,1662.7014,344,1674.7014,262,1674.7014,250,1662.7014,262,1650.7014" style="stroke:#000000;stroke-width:1.0;"/><text fill="#000000" font-family="Verdana" font-size="11" lengthAdjust="spacing" textLength="82" x="262" y="1667.0762">More batches?</text><polygon fill="#FFFFFF" points="225,973.1147,381,973.1147,393,985.1147,381,997.1147,225,997.1147,213,985.1147,225,973.1147" style="stroke:#000000;stroke-width:1.0;"/><text fill="#000000" font-family="Verdana" font-size="11" lengthAdjust="spacing" textLength="20" x="307" y="1008.1738">yes</text><text fill="#000000" font-family="Verdana" font-size="11" lengthAdjust="spacing" textLength="156" x="225" y="989.4895">Has PA Classification Data?</text><text fill="#000000" font-family="Verdana" font-size="11" lengthAdjust="spacing" textLength="14" x="393" y="982.8052">no</text><polygon fill="#FFFFFF" points="303,1694.7014,315,1706.7014,303,1718.7014,291,1706.7014,303,1694.7014" style="stroke:#000000;stroke-width:1.0;"/><rect fill="#FFFFFF" height="34.584" rx="12.5" ry="12.5" style="stroke:#000000;stroke-width:1.0;" width="136" x="235" y="1738.7014"/><text fill="#000000" font-family="Verdana" font-size="12" lengthAdjust="spacing" textLength="116" x="245" y="1760.7659">UpdateComplete()</text><path d="M550.5,1783.2854 L550.5,1847.4827 L530.5,1851.4827 L550.5,1855.4827 L550.5,1919.6799 A0,0 0 0 0 550.5,1919.6799 L1052.5,1919.6799 A0,0 0 0 0 1052.5,1919.6799 L1052.5,1793.2854 L1042.5,1783.2854 L550.5,1783.2854 A0,0 0 0 0 550.5,1783.2854 " fill="#FFFFFF" style="stroke:#000000;stroke-width:1.0;"/><path d="M1042.5,1783.2854 L1042.5,1793.2854 L1052.5,1793.2854 L1042.5,1783.2854 " fill="#FFFFFF" style="stroke:#000000;stroke-width:1.0;"/><text fill="#000000" font-family="Verdana" font-size="13" lengthAdjust="spacing" textLength="80" x="556.5" y="1801.3552">Parameters:</text><text fill="#000000" font-family="Verdana" font-size="13" lengthAdjust="spacing" textLength="161" x="556.5" y="1817.1545">- ip_CustInfoList (JSON)</text><text fill="#000000" font-family="Verdana" font-size="13" lengthAdjust="spacing" textLength="40" x="556.5" y="1832.9539">Logic:</text><text fill="#000000" font-family="Verdana" font-size="13" lengthAdjust="spacing" textLength="177" x="556.5" y="1848.7532">- Parse JSON customer list</text><text fill="#000000" font-family="Verdana" font-size="13" lengthAdjust="spacing" textLength="452" x="556.5" y="1864.5525">- Get LastScannedTime from SystemParameter (ParameterID = 200)</text><text fill="#000000" font-family="Verdana" font-size="13" lengthAdjust="spacing" textLength="99" x="556.5" y="1880.3518">- Add 24 hours</text><text fill="#000000" font-family="Verdana" font-size="13" lengthAdjust="spacing" textLength="328" x="556.5" y="1896.1511">- Delete processed customers from DailyPAQueue</text><text fill="#000000" font-family="Verdana" font-size="13" lengthAdjust="spacing" textLength="481" x="556.5" y="1911.9504">- If no customers: Update SystemParameter with new LastScannedTime</text><rect fill="#FFFFFF" height="34.584" rx="12.5" ry="12.5" style="stroke:#000000;stroke-width:1.0;" width="455" x="75.5" y="1834.1907"/><text fill="#000000" font-family="Verdana" font-size="12" lengthAdjust="spacing" textLength="435" x="85.5" y="1856.2551">Call CTS_DC_CustClassification_BySport_DailyScanPA_Complete [SP]</text><polygon fill="#FFFFFF" points="303,205.4126,315,217.4126,303,229.4126,291,217.4126,303,205.4126" style="stroke:#000000;stroke-width:1.0;"/><polygon fill="#FFFFFF" points="214.5,1939.6799,391.5,1939.6799,403.5,1951.6799,391.5,1963.6799,214.5,1963.6799,202.5,1951.6799,214.5,1939.6799" style="stroke:#000000;stroke-width:1.0;"/><text fill="#000000" font-family="Verdana" font-size="11" lengthAdjust="spacing" textLength="177" x="214.5" y="1956.0547">Has more customers in queue?</text><text fill="#000000" font-family="Verdana" font-size="11" lengthAdjust="spacing" textLength="20" x="403.5" y="1949.3704">yes</text><rect fill="#FFFFFF" height="34.584" rx="12.5" ry="12.5" style="stroke:#000000;stroke-width:1.0;" width="116" x="245" y="2005.3582"/><text fill="#000000" font-family="Verdana" font-size="12" lengthAdjust="spacing" textLength="96" x="255" y="2027.4226">Return Success</text><ellipse cx="303" cy="2070.9421" fill="none" rx="11" ry="11" style="stroke:#000000;stroke-width:1.0;"/><ellipse cx="303" cy="2070.9421" fill="#FFFFFF" rx="6" ry="6" style="stroke:#000000;stroke-width:1.0;"/><line style="stroke:#000000;stroke-width:1.0;" x1="303" x2="303" y1="72.7373" y2="92.7373"/><polygon fill="#000000" points="299,82.7373,303,92.7373,307,82.7373,303,86.7373" style="stroke:#000000;stroke-width:1.0;"/><line style="stroke:#000000;stroke-width:1.0;" x1="303" x2="303" y1="127.3213" y2="150.8286"/><polygon fill="#000000" points="299,140.8286,303,150.8286,307,140.8286,303,144.8286" style="stroke:#000000;stroke-width:1.0;"/><line style="stroke:#000000;stroke-width:1.0;" x1="303" x2="303" y1="283.9966" y2="303.9966"/><polygon fill="#000000" points="299,293.9966,303,303.9966,307,293.9966,303,297.9966" style="stroke:#000000;stroke-width:1.0;"/><line style="stroke:#000000;stroke-width:1.0;" x1="303" x2="303" y1="338.5806" y2="358.5806"/><polygon fill="#000000" points="299,348.5806,303,358.5806,307,348.5806,303,352.5806" style="stroke:#000000;stroke-width:1.0;"/><line style="stroke:#000000;stroke-width:1.0;" x1="303" x2="303" y1="393.1646" y2="477.7688"/><polygon fill="#000000" points="299,467.7688,303,477.7688,307,467.7688,303,471.7688" style="stroke:#000000;stroke-width:1.0;"/><line style="stroke:#000000;stroke-width:1.0;" x1="303" x2="303" y1="512.3528" y2="606.957"/><polygon fill="#000000" points="299,596.957,303,606.957,307,596.957,303,600.957" style="stroke:#000000;stroke-width:1.0;"/><line style="stroke:#000000;stroke-width:1.0;" x1="303" x2="303" y1="641.541" y2="661.541"/><polygon fill="#000000" points="299,651.541,303,661.541,307,651.541,303,655.541" style="stroke:#000000;stroke-width:1.0;"/><line style="stroke:#000000;stroke-width:1.0;" x1="303" x2="303" y1="696.125" y2="804.4282"/><polygon fill="#000000" points="299,794.4282,303,804.4282,307,794.4282,303,798.4282" style="stroke:#000000;stroke-width:1.0;"/><line style="stroke:#000000;stroke-width:1.0;" x1="303" x2="303" y1="1167.6677" y2="1275.9709"/><polygon fill="#000000" points="299,1265.9709,303,1275.9709,307,1265.9709,303,1269.9709" style="stroke:#000000;stroke-width:1.0;"/><line style="stroke:#000000;stroke-width:1.0;" x1="303" x2="303" y1="1310.5549" y2="1428.8582"/><polygon fill="#000000" points="299,1418.8582,303,1428.8582,307,1418.8582,303,1422.8582" style="stroke:#000000;stroke-width:1.0;"/><line style="stroke:#000000;stroke-width:1.0;" x1="303" x2="303" y1="1463.4421" y2="1483.4421"/><polygon fill="#000000" points="299,1473.4421,303,1483.4421,307,1473.4421,303,1477.4421" style="stroke:#000000;stroke-width:1.0;"/><line style="stroke:#000000;stroke-width:1.0;" x1="303" x2="303" y1="1518.0261" y2="1538.0261"/><polygon fill="#000000" points="299,1528.0261,303,1538.0261,307,1528.0261,303,1532.0261" style="stroke:#000000;stroke-width:1.0;"/><line style="stroke:#000000;stroke-width:1.0;" x1="303" x2="303" y1="1572.6101" y2="1592.6101"/><polygon fill="#000000" points="299,1582.6101,303,1592.6101,307,1582.6101,303,1586.6101" style="stroke:#000000;stroke-width:1.0;"/><line style="stroke:#000000;stroke-width:1.0;" x1="303" x2="303" y1="1110.967" y2="1133.0837"/><polygon fill="#000000" points="299,1123.0837,303,1133.0837,307,1123.0837,303,1127.0837" style="stroke:#000000;stroke-width:1.0;"/><line style="stroke:#000000;stroke-width:1.0;" x1="356" x2="1024.5" y1="1662.7014" y2="1662.7014"/><polygon fill="#000000" points="1020.5,1408.5002,1024.5,1398.5002,1028.5,1408.5002,1024.5,1404.5002" style="stroke:#000000;stroke-width:1.0;"/><line style="stroke:#000000;stroke-width:1.0;" x1="1024.5" x2="1024.5" y1="1093.675" y2="1662.7014"/><line style="stroke:#000000;stroke-width:1.0;" x1="1024.5" x2="359.5" y1="1093.675" y2="1093.675"/><polygon fill="#000000" points="369.5,1089.675,359.5,1093.675,369.5,1097.675,365.5,1093.675" style="stroke:#000000;stroke-width:1.0;"/><line style="stroke:#000000;stroke-width:1.0;" x1="303" x2="303" y1="1627.1941" y2="1650.7014"/><polygon fill="#000000" points="299,1640.7014,303,1650.7014,307,1640.7014,303,1644.7014" style="stroke:#000000;stroke-width:1.0;"/><line style="stroke:#000000;stroke-width:1.0;" x1="303" x2="303" y1="1056.3831" y2="1076.3831"/><polygon fill="#000000" points="299,1066.3831,303,1076.3831,307,1066.3831,303,1070.3831" style="stroke:#000000;stroke-width:1.0;"/><line style="stroke:#000000;stroke-width:1.0;" x1="303" x2="303" y1="997.1147" y2="1021.7991"/><polygon fill="#000000" points="299,1011.7991,303,1021.7991,307,1011.7991,303,1015.7991" style="stroke:#000000;stroke-width:1.0;"/><line style="stroke:#000000;stroke-width:1.0;" x1="393" x2="1046.5" y1="985.1147" y2="985.1147"/><polygon fill="#000000" points="1042.5,1351.0623,1046.5,1361.0623,1050.5,1351.0623,1046.5,1355.0623" style="stroke:#000000;stroke-width:1.0;"/><line style="stroke:#000000;stroke-width:1.0;" x1="1046.5" x2="1046.5" y1="985.1147" y2="1706.7014"/><line style="stroke:#000000;stroke-width:1.0;" x1="1046.5" x2="315" y1="1706.7014" y2="1706.7014"/><polygon fill="#000000" points="325,1702.7014,315,1706.7014,325,1710.7014,321,1706.7014" style="stroke:#000000;stroke-width:1.0;"/><line style="stroke:#000000;stroke-width:1.0;" x1="303" x2="303" y1="1674.7014" y2="1694.7014"/><polygon fill="#000000" points="299,1684.7014,303,1694.7014,307,1684.7014,303,1688.7014" style="stroke:#000000;stroke-width:1.0;"/><line style="stroke:#000000;stroke-width:1.0;" x1="303" x2="303" y1="839.0122" y2="973.1147"/><polygon fill="#000000" points="299,963.1147,303,973.1147,307,963.1147,303,967.1147" style="stroke:#000000;stroke-width:1.0;"/><line style="stroke:#000000;stroke-width:1.0;" x1="303" x2="303" y1="1718.7014" y2="1738.7014"/><polygon fill="#000000" points="299,1728.7014,303,1738.7014,307,1728.7014,303,1732.7014" style="stroke:#000000;stroke-width:1.0;"/><line style="stroke:#000000;stroke-width:1.0;" x1="303" x2="303" y1="1773.2854" y2="1834.1907"/><polygon fill="#000000" points="299,1824.1907,303,1834.1907,307,1824.1907,303,1828.1907" style="stroke:#000000;stroke-width:1.0;"/><line style="stroke:#000000;stroke-width:1.0;" x1="303" x2="303" y1="229.4126" y2="249.4126"/><polygon fill="#000000" points="299,239.4126,303,249.4126,307,239.4126,303,243.4126" style="stroke:#000000;stroke-width:1.0;"/><line style="stroke:#000000;stroke-width:1.0;" x1="403.5" x2="1066.5" y1="1951.6799" y2="1951.6799"/><polygon fill="#000000" points="1062.5,1113.0837,1066.5,1103.0837,1070.5,1113.0837,1066.5,1109.0837" style="stroke:#000000;stroke-width:1.0;"/><line style="stroke:#000000;stroke-width:1.0;" x1="1066.5" x2="1066.5" y1="217.4126" y2="1951.6799"/><line style="stroke:#000000;stroke-width:1.0;" x1="1066.5" x2="315" y1="217.4126" y2="217.4126"/><polygon fill="#000000" points="325,213.4126,315,217.4126,325,221.4126,321,217.4126" style="stroke:#000000;stroke-width:1.0;"/><line style="stroke:#000000;stroke-width:1.0;" x1="303" x2="303" y1="1868.7747" y2="1939.6799"/><polygon fill="#000000" points="299,1929.6799,303,1939.6799,307,1929.6799,303,1933.6799" style="stroke:#000000;stroke-width:1.0;"/><line style="stroke:#000000;stroke-width:1.0;" x1="303" x2="303" y1="185.4126" y2="205.4126"/><polygon fill="#000000" points="299,195.4126,303,205.4126,307,195.4126,303,199.4126" style="stroke:#000000;stroke-width:1.0;"/><line style="stroke:#000000;stroke-width:1.0;" x1="303" x2="303" y1="1963.6799" y2="2005.3582"/><polygon fill="#000000" points="299,1995.3582,303,2005.3582,307,1995.3582,303,1999.3582" style="stroke:#000000;stroke-width:1.0;"/><text fill="#000000" font-family="Verdana" font-size="11" lengthAdjust="spacing" textLength="14" x="307" y="1985.5486">no</text><line style="stroke:#000000;stroke-width:1.0;" x1="303" x2="303" y1="2039.9421" y2="2059.9421"/><polygon fill="#000000" points="299,2049.9421,303,2059.9421,307,2049.9421,303,2053.9421" style="stroke:#000000;stroke-width:1.0;"/><!--SRC=[jLTBSzis4BxpLsnlLEjtsmiJ9zNBZb9PLanrVCXqD109MPXI00E0TjHVdmL1YWH9QJprb0Szo7tlzosMF-aDtL984yAufvbEA8m8ItOmbsALq2qC4w8KMxE8Q2Ou37OGfa9gE8KxL851fXYdIi5D8buyJsaYjHTy5YjOIFRqH2MDmV-qMCnXVXykUkyyBZG5VBJH7k0rvd4g6DS1d9EKdKUEjy4kzuNMr7aO4Pv7LWHcuufONJ2tE2UIRAccKWMm8ZhQJ3Z-uIG9sR_qnDuQVwzkUPJ7OABolA3je1rAIEKpY-ZP-3kDCatzr_Z0l3r9KqfiY45eokJZNSYlOCAPPYH1IPZtXvdIOelnGyAKjZ9MxPPg6s7_Hehjbunc7UuhgqEI931SXClHS6cCkXajYvIMkKbJtdb_YHxsfk5hEF-xDDPecxrgfQxTFGMMBWSchBoyrOEfU6AHAud-O4gKDkuvZHSCiRZ6023SAKstUmVWxtzEHd0DLnSNFSTGFuxXwZVOY0phfaNJQCjfj2zoxgueQvwt8tl34kD-jSi1Fk_lYuL1N3gIzpAsWXXWFnmwpwPioxHvjkeeomFLcUID4ff-JKOdbcotKcHfyNYFLWSM1MRxKIGohgS2IVdajjilstsJySZScCHdXLQU4oAxGewnsBTM2hKAh7LWkMxLCO0vQ3g0fqE8CWNvOufaoAl2rmByp-7zhDSKgL8ptRb2q3GIT1HQS3GsC015mLZVGoIdOKFCG8X4KRRD4g9nnCL44ukabOXNo_X5geO6rYpAXU6HyKGeXJD0Puqq0Nw6wNqucTs2Vz4BIj67EtWFfvSNUBN4_noFv-6YlnY3VuaQLWhUNxkwltUfFavcizpLbUFgmtM7V0T8ZyAq572IFO456X7FL3xSdLGU6oe3geS6JYVGnsu-qn7PLSLimv-jyO0X2WTdywmQOLC-zW1FE0x-ZghUVZ1kClxFdexrGLq2jFYoCnk26o61acXZ5IeYJBYY4gdoEEqyBVoKv7Emnft_DfQjdmQ53fBeC8sAuUpIjejCdUneyEE5wSsn_b8TdRNqxUoLag9Vzx2tzC6wbETVTrrQ5aScpoqk8GO9EG-Z3U5FICeLKVY9beyohiQvNn140VoLneQc_aGP00qBOpXGUaSriQPve07C15YjjesBBXib3wtxDsXN8RmwXzDIjD4Ch6LBjwLQm1BNDm6VS4WAkGE214NiW2O8CTLGwPmYtNC4VC7nr2XxAMaaPApguJkZe4PQfDWyKvlXi43CGfGCzvNTtMP8ZkujhKPJH6et4WkpodVbCJUvQpWsA_9eu0gYg2tvKUlmrUf2W_97I8-qH-zc-SatSzCymu2ML1ueO8LHybVGk1svRMhKjPY1Bnk6xmR-dP3KLewgZxORDC69u7FHExmg8gPnF3SWPhZQjTJW7xQkhJT5jSGsJP3g_flsszBActRRSWin6qbxU7PikQzOAlwdLTXp9sMUUYf5X6ziIAhNBi6JDTQeajwFbsPa-Od0wSk1xTizkrrScHDyQx1LnOGO_cP2mIESgU80F_t01RvB1NQGG9X59fLt-DufKky7]--></g></svg>