<svg xmlns="http://www.w3.org/2000/svg" xmlns:xlink="http://www.w3.org/1999/xlink" contentStyleType="text/css" height="1118px" preserveAspectRatio="none" style="width:1041px;height:1118px;background:#FFFFFF;" version="1.1" viewBox="0 0 1041 1118" width="1041px" zoomAndPan="magnify"><defs/><g><text fill="#000000" font-family="Verdana" font-size="22" font-weight="bold" lengthAdjust="spacing" textLength="1008" x="15" y="37.1182">Daily Problem Classification By Sport - SP Get Losing Performance Detailed Flow</text><ellipse cx="321.5" cy="62.7373" fill="#FFFFFF" rx="10" ry="10" style="stroke:#000000;stroke-width:1.0;"/><path d="M509.5,82.7373 L509.5,107.4363 L489.5,111.4363 L509.5,115.4363 L509.5,140.1353 A0,0 0 0 0 509.5,140.1353 L886.5,140.1353 A0,0 0 0 0 886.5,140.1353 L886.5,92.7373 L876.5,82.7373 L509.5,82.7373 A0,0 0 0 0 509.5,82.7373 " fill="#FFFFFF" style="stroke:#000000;stroke-width:1.0;"/><path d="M876.5,82.7373 L876.5,92.7373 L886.5,92.7373 L876.5,82.7373 " fill="#FFFFFF" style="stroke:#000000;stroke-width:1.0;"/><text fill="#000000" font-family="Verdana" font-size="13" lengthAdjust="spacing" textLength="267" x="515.5" y="100.8071">Database: bodb_VR2Model (SQL Server)</text><text fill="#000000" font-family="Verdana" font-size="13" lengthAdjust="spacing" textLength="219" x="515.5" y="116.6064">Tables: Temp Tables, bodb_dwrs</text><text fill="#000000" font-family="Verdana" font-size="13" lengthAdjust="spacing" textLength="356" x="515.5" y="132.4058">Parameters: @ListCustInfo (JSON), @FunctionId = 12</text><rect fill="#FFFFFF" height="34.584" rx="12.5" ry="12.5" style="stroke:#000000;stroke-width:1.0;" width="336" x="153.5" y="94.1443"/><text fill="#000000" font-family="Verdana" font-size="12" lengthAdjust="spacing" textLength="316" x="163.5" y="116.2087">CTS_ProblemAccountsClassification_BySport_Daily</text><path d="M414.5,150.1353 L414.5,293.3291 L394.5,297.3291 L414.5,301.3291 L414.5,444.5229 A0,0 0 0 0 414.5,444.5229 L723.5,444.5229 A0,0 0 0 0 723.5,444.5229 L723.5,160.1353 L713.5,150.1353 L414.5,150.1353 A0,0 0 0 0 414.5,150.1353 " fill="#FFFFFF" style="stroke:#000000;stroke-width:1.0;"/><path d="M713.5,150.1353 L713.5,160.1353 L723.5,160.1353 L713.5,150.1353 " fill="#FFFFFF" style="stroke:#000000;stroke-width:1.0;"/><text fill="#000000" font-family="Verdana" font-size="13" lengthAdjust="spacing" textLength="13" x="420.5" y="168.2051">1.</text><text fill="#000000" font-family="Verdana" font-size="13" lengthAdjust="spacing" textLength="87" x="438.5" y="168.2051">tmpCustInfo:</text><text fill="#000000" font-family="Verdana" font-size="13" lengthAdjust="spacing" textLength="139" x="420.5" y="184.0044">- CustId, SportGroup</text><text fill="#000000" font-family="Verdana" font-size="13" lengthAdjust="spacing" textLength="277" x="420.5" y="199.8037">- CLUSTERED INDEX (CustId, SportGroup)</text><text fill="#000000" font-family="Verdana" font-size="13" lengthAdjust="spacing" textLength="5" x="420.5" y="215.603">&#160;</text><text fill="#000000" font-family="Verdana" font-size="13" lengthAdjust="spacing" textLength="13" x="420.5" y="231.4023">2.</text><text fill="#000000" font-family="Verdana" font-size="13" lengthAdjust="spacing" textLength="89" x="438.5" y="231.4023">tmpRawData:</text><text fill="#000000" font-family="Verdana" font-size="13" lengthAdjust="spacing" textLength="139" x="420.5" y="247.2017">- CustId, SportGroup</text><text fill="#000000" font-family="Verdana" font-size="13" lengthAdjust="spacing" textLength="168" x="420.5" y="263.001">- TurnoverRM, WinlossRM</text><text fill="#000000" font-family="Verdana" font-size="13" lengthAdjust="spacing" textLength="184" x="420.5" y="278.8003">- TurnoverORG, WinlossORG</text><text fill="#000000" font-family="Verdana" font-size="13" lengthAdjust="spacing" textLength="73" x="420.5" y="294.5996">- BetCount</text><text fill="#000000" font-family="Verdana" font-size="13" lengthAdjust="spacing" textLength="288" x="420.5" y="310.3989">- ActiveDaysCustID, ActiveDaysSportGroup</text><text fill="#000000" font-family="Verdana" font-size="13" lengthAdjust="spacing" textLength="251" x="420.5" y="326.1982">- WindaysCustID, WinDaysSportGroup</text><text fill="#000000" font-family="Verdana" font-size="13" lengthAdjust="spacing" textLength="110" x="420.5" y="341.9976">- ProcessedTime</text><text fill="#000000" font-family="Verdana" font-size="13" lengthAdjust="spacing" textLength="244" x="420.5" y="357.7969">- PRIMARY KEY (CustId, SportGroup)</text><text fill="#000000" font-family="Verdana" font-size="13" lengthAdjust="spacing" textLength="5" x="420.5" y="373.5962">&#160;</text><text fill="#000000" font-family="Verdana" font-size="13" lengthAdjust="spacing" textLength="13" x="420.5" y="389.3955">3.</text><text fill="#000000" font-family="Verdana" font-size="13" lengthAdjust="spacing" textLength="215" x="438.5" y="389.3955">tmpCustomerAccummulatedInfo:</text><text fill="#000000" font-family="Verdana" font-size="13" lengthAdjust="spacing" textLength="139" x="420.5" y="405.1948">- CustId, SportGroup</text><text fill="#000000" font-family="Verdana" font-size="13" lengthAdjust="spacing" textLength="168" x="420.5" y="420.9941">- TurnoverRM, WinlossRM</text><text fill="#000000" font-family="Verdana" font-size="13" lengthAdjust="spacing" textLength="157" x="420.5" y="436.7935">- BetCount, ActiveDays</text><rect fill="#FFFFFF" height="34.584" rx="12.5" ry="12.5" style="stroke:#000000;stroke-width:1.0;" width="146" x="248.5" y="280.0371"/><text fill="#000000" font-family="Verdana" font-size="12" lengthAdjust="spacing" textLength="126" x="258.5" y="302.1016">Create Temp Tables</text><path d="M433,454.5229 L433,479.2219 L413,483.2219 L433,487.2219 L433,511.9209 A0,0 0 0 0 433,511.9209 L706,511.9209 A0,0 0 0 0 706,511.9209 L706,464.5229 L696,454.5229 L433,454.5229 A0,0 0 0 0 433,454.5229 " fill="#FFFFFF" style="stroke:#000000;stroke-width:1.0;"/><path d="M696,454.5229 L696,464.5229 L706,464.5229 L696,454.5229 " fill="#FFFFFF" style="stroke:#000000;stroke-width:1.0;"/><text fill="#000000" font-family="Verdana" font-size="13" lengthAdjust="spacing" textLength="182" x="439" y="472.5928">INSERT INTO #tmpCustInfo</text><text fill="#000000" font-family="Verdana" font-size="13" lengthAdjust="spacing" textLength="252" x="439" y="488.3921">SELECT DISTINCT CustID, SportGroup</text><text fill="#000000" font-family="Verdana" font-size="13" lengthAdjust="spacing" textLength="215" x="439" y="504.1914">FROM OPENJSON(@ListCustInfo)</text><rect fill="#FFFFFF" height="34.584" rx="12.5" ry="12.5" style="stroke:#000000;stroke-width:1.0;" width="183" x="230" y="465.9299"/><text fill="#000000" font-family="Verdana" font-size="12" lengthAdjust="spacing" textLength="163" x="240" y="487.9944">Parse JSON Customer List</text><path d="M421,521.9209 L421,570.3188 L401,574.3188 L421,578.3188 L421,626.7168 A0,0 0 0 0 421,626.7168 L848,626.7168 A0,0 0 0 0 848,626.7168 L848,531.9209 L838,521.9209 L421,521.9209 A0,0 0 0 0 421,521.9209 " fill="#FFFFFF" style="stroke:#000000;stroke-width:1.0;"/><path d="M838,521.9209 L838,531.9209 L848,531.9209 L838,521.9209 " fill="#FFFFFF" style="stroke:#000000;stroke-width:1.0;"/><text fill="#000000" font-family="Verdana" font-size="13" lengthAdjust="spacing" textLength="406" x="427" y="539.9907">EXEC bodb_dwrs.dbo.Acc_Rpt_CTS_GetCustAccumulatedInfo</text><text fill="#000000" font-family="Verdana" font-size="13" lengthAdjust="spacing" textLength="228" x="427" y="555.79">@ListCustID, @isResetBalance = 0</text><text fill="#000000" font-family="Verdana" font-size="13" lengthAdjust="spacing" textLength="244" x="427" y="571.5894">Get customer accumulated statistics</text><text fill="#000000" font-family="Verdana" font-size="13" lengthAdjust="spacing" textLength="140" x="427" y="587.3887">from data warehouse</text><text fill="#000000" font-family="Verdana" font-size="13" lengthAdjust="spacing" textLength="184" x="427" y="603.188">INSERT INTO #tmpRawData</text><text fill="#000000" font-family="Verdana" font-size="13" lengthAdjust="spacing" textLength="132" x="427" y="618.9873">(Accumulated data)</text><rect fill="#FFFFFF" height="34.584" rx="12.5" ry="12.5" style="stroke:#000000;stroke-width:1.0;" width="159" x="242" y="557.0269"/><text fill="#000000" font-family="Verdana" font-size="12" lengthAdjust="spacing" textLength="139" x="252" y="579.0913">Get Accumulated Data</text><path d="M414.5,636.7168 L414.5,661.4158 L394.5,665.4158 L414.5,669.4158 L414.5,694.1147 A0,0 0 0 0 414.5,694.1147 L653.5,694.1147 A0,0 0 0 0 653.5,694.1147 L653.5,646.7168 L643.5,636.7168 L414.5,636.7168 A0,0 0 0 0 414.5,636.7168 " fill="#FFFFFF" style="stroke:#000000;stroke-width:1.0;"/><path d="M643.5,636.7168 L643.5,646.7168 L653.5,646.7168 L643.5,636.7168 " fill="#FFFFFF" style="stroke:#000000;stroke-width:1.0;"/><text fill="#000000" font-family="Verdana" font-size="13" lengthAdjust="spacing" textLength="189" x="420.5" y="654.7866">DELETE FROM #tmpRawData</text><text fill="#000000" font-family="Verdana" font-size="13" lengthAdjust="spacing" textLength="218" x="420.5" y="670.5859">WHERE SportGroup NOT IN (145)</text><text fill="#000000" font-family="Verdana" font-size="13" lengthAdjust="spacing" textLength="150" x="420.5" y="686.3853">(Saba VR Soccer only)</text><rect fill="#FFFFFF" height="34.584" rx="12.5" ry="12.5" style="stroke:#000000;stroke-width:1.0;" width="146" x="248.5" y="648.1238"/><text fill="#000000" font-family="Verdana" font-size="12" lengthAdjust="spacing" textLength="126" x="258.5" y="670.1882">Filter by SportGroup</text><path d="M415,704.1147 L415,784.1113 L395,788.1113 L415,792.1113 L415,872.1079 A0,0 0 0 0 415,872.1079 L746,872.1079 A0,0 0 0 0 746,872.1079 L746,714.1147 L736,704.1147 L415,704.1147 A0,0 0 0 0 415,704.1147 " fill="#FFFFFF" style="stroke:#000000;stroke-width:1.0;"/><path d="M736,704.1147 L736,714.1147 L746,714.1147 L736,704.1147 " fill="#FFFFFF" style="stroke:#000000;stroke-width:1.0;"/><text fill="#000000" font-family="Verdana" font-size="13" lengthAdjust="spacing" textLength="310" x="421" y="722.1846">INSERT INTO #tmpCustomerAccummulatedInfo</text><text fill="#000000" font-family="Verdana" font-size="13" lengthAdjust="spacing" textLength="50" x="421" y="737.9839">SELECT</text><text fill="#000000" font-family="Verdana" font-size="13" lengthAdjust="spacing" textLength="43" x="431" y="753.7832">CustId</text><text fill="#000000" font-family="Verdana" font-size="13" lengthAdjust="spacing" textLength="136" x="431" y="769.5825">, 145 AS SportGroup</text><text fill="#000000" font-family="Verdana" font-size="13" lengthAdjust="spacing" textLength="129" x="431" y="785.3818">, SUM(TurnoverRM)</text><text fill="#000000" font-family="Verdana" font-size="13" lengthAdjust="spacing" textLength="119" x="431" y="801.1812">, SUM(WinlossRM)</text><text fill="#000000" font-family="Verdana" font-size="13" lengthAdjust="spacing" textLength="112" x="431" y="816.9805">, SUM(BetCount)</text><text fill="#000000" font-family="Verdana" font-size="13" lengthAdjust="spacing" textLength="169" x="431" y="832.7798">, MAX(ActiveDaysCustID)</text><text fill="#000000" font-family="Verdana" font-size="13" lengthAdjust="spacing" textLength="135" x="421" y="848.5791">FROM #tmpRawData</text><text fill="#000000" font-family="Verdana" font-size="13" lengthAdjust="spacing" textLength="114" x="421" y="864.3784">GROUP BY CustId</text><rect fill="#FFFFFF" height="34.584" rx="12.5" ry="12.5" style="stroke:#000000;stroke-width:1.0;" width="147" x="248" y="770.8193"/><text fill="#000000" font-family="Verdana" font-size="12" lengthAdjust="spacing" textLength="127" x="258" y="792.8838">Sum Data by CustID</text><path d="M422.5,882.1079 L422.5,914.7065 L402.5,918.7065 L422.5,922.7065 L422.5,955.3052 A0,0 0 0 0 422.5,955.3052 L768.5,955.3052 A0,0 0 0 0 768.5,955.3052 L768.5,892.1079 L758.5,882.1079 L422.5,882.1079 A0,0 0 0 0 422.5,882.1079 " fill="#FFFFFF" style="stroke:#000000;stroke-width:1.0;"/><path d="M758.5,882.1079 L758.5,892.1079 L768.5,892.1079 L758.5,882.1079 " fill="#FFFFFF" style="stroke:#000000;stroke-width:1.0;"/><text fill="#000000" font-family="Verdana" font-size="13" lengthAdjust="spacing" textLength="190" x="428.5" y="900.1777">WinlossStatus Classification:</text><text fill="#000000" font-family="Verdana" font-size="13" lengthAdjust="spacing" textLength="231" x="428.5" y="915.9771">- LOSING (0): WinlossRM &lt; -10000</text><text fill="#000000" font-family="Verdana" font-size="13" lengthAdjust="spacing" textLength="325" x="428.5" y="931.7764">- KEEPSTATE (1): -10000 &lt;= WinlossRM &lt; -5000</text><text fill="#000000" font-family="Verdana" font-size="13" lengthAdjust="spacing" textLength="242" x="428.5" y="947.5757">- WINNING (2): WinlossRM &gt;= -5000</text><rect fill="#FFFFFF" height="34.584" rx="12.5" ry="12.5" style="stroke:#000000;stroke-width:1.0;" width="162" x="240.5" y="901.4146"/><text fill="#000000" font-family="Verdana" font-size="12" lengthAdjust="spacing" textLength="142" x="250.5" y="923.479">Classify WinlossStatus</text><path d="M397.5,965.3052 L397.5,1013.7031 L377.5,1017.7031 L397.5,1021.7031 L397.5,1070.1011 A0,0 0 0 0 397.5,1070.1011 L679.5,1070.1011 A0,0 0 0 0 679.5,1070.1011 L679.5,975.3052 L669.5,965.3052 L397.5,965.3052 A0,0 0 0 0 397.5,965.3052 " fill="#FFFFFF" style="stroke:#000000;stroke-width:1.0;"/><path d="M669.5,965.3052 L669.5,975.3052 L679.5,975.3052 L669.5,965.3052 " fill="#FFFFFF" style="stroke:#000000;stroke-width:1.0;"/><text fill="#000000" font-family="Verdana" font-size="13" lengthAdjust="spacing" textLength="50" x="403.5" y="983.375">SELECT</text><text fill="#000000" font-family="Verdana" font-size="13" lengthAdjust="spacing" textLength="127" x="403.5" y="999.1743">CustId, SportGroup</text><text fill="#000000" font-family="Verdana" font-size="13" lengthAdjust="spacing" textLength="103" x="403.5" y="1014.9736">, WinlossStatus</text><text fill="#000000" font-family="Verdana" font-size="13" lengthAdjust="spacing" textLength="166" x="403.5" y="1030.7729">, TurnoverRM, WinlossRM</text><text fill="#000000" font-family="Verdana" font-size="13" lengthAdjust="spacing" textLength="155" x="403.5" y="1046.5723">, BetCount, ActiveDays</text><text fill="#000000" font-family="Verdana" font-size="13" lengthAdjust="spacing" textLength="261" x="403.5" y="1062.3716">FROM #tmpCustomerAccummulatedInfo</text><rect fill="#FFFFFF" height="34.584" rx="12.5" ry="12.5" style="stroke:#000000;stroke-width:1.0;" width="112" x="265.5" y="1000.4111"/><text fill="#000000" font-family="Verdana" font-size="12" lengthAdjust="spacing" textLength="92" x="275.5" y="1022.4756">Return Results</text><ellipse cx="321.5" cy="1101.1011" fill="none" rx="11" ry="11" style="stroke:#000000;stroke-width:1.0;"/><ellipse cx="321.5" cy="1101.1011" fill="#FFFFFF" rx="6" ry="6" style="stroke:#000000;stroke-width:1.0;"/><line style="stroke:#000000;stroke-width:1.0;" x1="321.5" x2="321.5" y1="72.7373" y2="94.1443"/><polygon fill="#000000" points="317.5,84.1443,321.5,94.1443,325.5,84.1443,321.5,88.1443" style="stroke:#000000;stroke-width:1.0;"/><line style="stroke:#000000;stroke-width:1.0;" x1="321.5" x2="321.5" y1="128.7283" y2="280.0371"/><polygon fill="#000000" points="317.5,270.0371,321.5,280.0371,325.5,270.0371,321.5,274.0371" style="stroke:#000000;stroke-width:1.0;"/><line style="stroke:#000000;stroke-width:1.0;" x1="321.5" x2="321.5" y1="314.6211" y2="465.9299"/><polygon fill="#000000" points="317.5,455.9299,321.5,465.9299,325.5,455.9299,321.5,459.9299" style="stroke:#000000;stroke-width:1.0;"/><line style="stroke:#000000;stroke-width:1.0;" x1="321.5" x2="321.5" y1="500.5139" y2="557.0269"/><polygon fill="#000000" points="317.5,547.0269,321.5,557.0269,325.5,547.0269,321.5,551.0269" style="stroke:#000000;stroke-width:1.0;"/><line style="stroke:#000000;stroke-width:1.0;" x1="321.5" x2="321.5" y1="591.6108" y2="648.1238"/><polygon fill="#000000" points="317.5,638.1238,321.5,648.1238,325.5,638.1238,321.5,642.1238" style="stroke:#000000;stroke-width:1.0;"/><line style="stroke:#000000;stroke-width:1.0;" x1="321.5" x2="321.5" y1="682.7078" y2="770.8193"/><polygon fill="#000000" points="317.5,760.8193,321.5,770.8193,325.5,760.8193,321.5,764.8193" style="stroke:#000000;stroke-width:1.0;"/><line style="stroke:#000000;stroke-width:1.0;" x1="321.5" x2="321.5" y1="805.4033" y2="901.4146"/><polygon fill="#000000" points="317.5,891.4146,321.5,901.4146,325.5,891.4146,321.5,895.4146" style="stroke:#000000;stroke-width:1.0;"/><line style="stroke:#000000;stroke-width:1.0;" x1="321.5" x2="321.5" y1="935.9985" y2="1000.4111"/><polygon fill="#000000" points="317.5,990.4111,321.5,1000.4111,325.5,990.4111,321.5,994.4111" style="stroke:#000000;stroke-width:1.0;"/><line style="stroke:#000000;stroke-width:1.0;" x1="321.5" x2="321.5" y1="1034.9951" y2="1090.1011"/><polygon fill="#000000" points="317.5,1080.1011,321.5,1090.1011,325.5,1080.1011,321.5,1084.1011" style="stroke:#000000;stroke-width:1.0;"/><!--SRC=[ZLNRSfim47tdAxRJ5ppZPE9Cy-B6dVX2N5eRN4HkJnuPv8GPG1v9nEE_xugB0UEqyKkGTdLqzkZivejwOmc3NKoZr52HYXdCQ1GVO2Nu9cO9J6CgPRID0geYdiBa06J7XO8B82kOCmKBBgFq5LPCRBb8Q1eW0bE8mKAuZ_dUCAIYGXd3gK_M9Ueu27YMAja6NqyEEVOwP_3TIBbY8ABNDsK0_cPKqGsLR0WR7cxMZzxraeSi1fFyMG1Xufs9NfxeKxn33i5doQvSz8ipuLx8F6L51KsOOWBJxXQHLDDCAZlTSZ1_4TVfzU7kFai3pSeEOGI3QuEb8MX61bOY64Lg3VmEsQygsLMOmtpd0l9rs2y4d0kUxQh0ue7ubcVDm7PcrZEOtSoYiYEqH_TQZlyY-vb8EGhZBVlm5AKnbz9RdiHSRtuCudSPdJ0rrMzKBiUenJkRqOFCxvhr6pkTMn4iR6JYycmQcY5WKhBGZn9MxNdsSkozm6_hvHCow0IUC85-of8aY_5Lmayf_YzTgigR9JPV7xqZ6MYRG7K_Q0jrF60xnF9y_EExBJ_aGM8jhAaFCvlujeCVbLWdLEyzTmdkodBqVMRBghqcATs9kGg527cpT0XPpzQqReJBSCClySpQswcrRax4qDWDc2FR-cAaU1T9Zqcc9ZJEstq4LtcIvX1KYj066Hm02iz7GT5yMy4J294WxAbWRpoJxAnUfSdpcDaiJfzjLNyVnTZBi3aqvElE3rJSjmf5J-6VVcBxDGw3useYO0w-tHIUCmaE7tZqWF0WmBju6XzQ74YMvAfh5eLIdpB4EVis399_GcdaSj47P0LZSkeL7I4FIxCsTw-rVpHwUxloUxsx73-RfmtVg-ruAjxSSnzMC7cfM3OdPJ7W3rMJ4NH2rfsMhUZ9lvogbnSkiPqvc5UzOTsoS0iNWolybKc_BMj5_34-ipd0l286jwFsYPlwm9FjE3diTGlsnwZCQjJYCON20be_YrMtXiPxVJ1s-kqwoxsFHr7__2XglSE75gg9OyBE-0i0]--></g></svg>