<svg xmlns="http://www.w3.org/2000/svg" xmlns:xlink="http://www.w3.org/1999/xlink" contentStyleType="text/css" height="1351px" preserveAspectRatio="none" style="width:912px;height:1351px;background:#FFFFFF;" version="1.1" viewBox="0 0 912 1351" width="912px" zoomAndPan="magnify"><defs/><g><text fill="#000000" font-family="Verdana" font-size="22" font-weight="bold" lengthAdjust="spacing" textLength="786" x="61.5" y="37.1182">Daily Problem Classification By Sport - SP Insert Detailed Flow</text><ellipse cx="194" cy="62.7373" fill="#FFFFFF" rx="10" ry="10" style="stroke:#000000;stroke-width:1.0;"/><path d="M402,82.7373 L402,131.1353 L382,135.1353 L402,139.1353 L402,187.5332 A0,0 0 0 0 402,187.5332 L905,187.5332 A0,0 0 0 0 905,187.5332 L905,92.7373 L895,82.7373 L402,82.7373 A0,0 0 0 0 402,82.7373 " fill="#FFFFFF" style="stroke:#000000;stroke-width:1.0;"/><path d="M895,82.7373 L895,92.7373 L905,92.7373 L895,82.7373 " fill="#FFFFFF" style="stroke:#000000;stroke-width:1.0;"/><text fill="#000000" font-family="Verdana" font-size="13" lengthAdjust="spacing" textLength="245" x="408" y="100.8071">Database: CTS_DataCenter (MySQL)</text><text fill="#000000" font-family="Verdana" font-size="13" lengthAdjust="spacing" textLength="482" x="408" y="116.6064">Tables: Temp Tables, CTSCustomer, CTSCustomerClassification_BySport</text><text fill="#000000" font-family="Verdana" font-size="13" lengthAdjust="spacing" textLength="309" x="408" y="132.4058">CustomerCategory, CustomerCategorySettings</text><text fill="#000000" font-family="Verdana" font-size="13" lengthAdjust="spacing" textLength="442" x="408" y="148.2051">SpecialCustomerClass, CTSCustomerClassification_BySport_History</text><text fill="#000000" font-family="Verdana" font-size="13" lengthAdjust="spacing" textLength="266" x="408" y="164.0044">CTSCustomerClassification_BySport_Log</text><text fill="#000000" font-family="Verdana" font-size="13" lengthAdjust="spacing" textLength="267" x="408" y="179.8037">Parameter: @ip_ProblemAccount (JSON)</text><rect fill="#FFFFFF" height="34.584" rx="12.5" ry="12.5" style="stroke:#000000;stroke-width:1.0;" width="376" x="6" y="117.8433"/><text fill="#000000" font-family="Verdana" font-size="12" lengthAdjust="spacing" textLength="356" x="16" y="139.9077">CTS_DC_CustClassification_BySport_DailyScanPA_Insert</text><path d="M269.5,197.5332 L269.5,261.7305 L249.5,265.7305 L269.5,269.7305 L269.5,333.9277 A0,0 0 0 0 269.5,333.9277 L566.5,333.9277 A0,0 0 0 0 566.5,333.9277 L566.5,207.5332 L556.5,197.5332 L269.5,197.5332 A0,0 0 0 0 269.5,197.5332 " fill="#FFFFFF" style="stroke:#000000;stroke-width:1.0;"/><path d="M556.5,197.5332 L556.5,207.5332 L566.5,207.5332 L556.5,197.5332 " fill="#FFFFFF" style="stroke:#000000;stroke-width:1.0;"/><text fill="#000000" font-family="Verdana" font-size="13" lengthAdjust="spacing" textLength="142" x="275.5" y="215.603">CONST_CATEID_VVIP</text><text fill="#000000" font-family="Verdana" font-size="13" lengthAdjust="spacing" textLength="236" x="275.5" y="231.4023">CONST_CATEID_LICVIPSUSPICIOUS</text><text fill="#000000" font-family="Verdana" font-size="13" lengthAdjust="spacing" textLength="234" x="275.5" y="247.2017">CONST_CATEID_LICVIPDANGEROUS</text><text fill="#000000" font-family="Verdana" font-size="13" lengthAdjust="spacing" textLength="149" x="275.5" y="263.001">CONST_CATEID_LICBA</text><text fill="#000000" font-family="Verdana" font-size="13" lengthAdjust="spacing" textLength="144" x="275.5" y="278.8003">CONST_PARENTID_PA</text><text fill="#000000" font-family="Verdana" font-size="13" lengthAdjust="spacing" textLength="189" x="275.5" y="294.5996">CONST_PARENTID_WRAPPER</text><text fill="#000000" font-family="Verdana" font-size="13" lengthAdjust="spacing" textLength="276" x="275.5" y="310.3989">CONST_REMARKID_PAAFFECTEDBYUPLINE</text><text fill="#000000" font-family="Verdana" font-size="13" lengthAdjust="spacing" textLength="225" x="275.5" y="326.1982">CONST_REMARKID_RESCANROBOT</text><rect fill="#FFFFFF" height="34.584" rx="12.5" ry="12.5" style="stroke:#000000;stroke-width:1.0;" width="111" x="138.5" y="248.4385"/><text fill="#000000" font-family="Verdana" font-size="12" lengthAdjust="spacing" textLength="91" x="148.5" y="270.5029">Get Constants</text><path d="M295.5,343.9277 L295.5,423.9243 L275.5,427.9243 L295.5,431.9243 L295.5,511.9209 A0,0 0 0 0 295.5,511.9209 L645.5,511.9209 A0,0 0 0 0 645.5,511.9209 L645.5,353.9277 L635.5,343.9277 L295.5,343.9277 A0,0 0 0 0 295.5,343.9277 " fill="#FFFFFF" style="stroke:#000000;stroke-width:1.0;"/><path d="M635.5,343.9277 L635.5,353.9277 L645.5,353.9277 L635.5,343.9277 " fill="#FFFFFF" style="stroke:#000000;stroke-width:1.0;"/><text fill="#000000" font-family="Verdana" font-size="13" lengthAdjust="spacing" textLength="67" x="301.5" y="361.9976">Temp_PA:</text><text fill="#000000" font-family="Verdana" font-size="13" lengthAdjust="spacing" textLength="221" x="301.5" y="377.7969">- CustID, CTSCustID, SportGroup</text><text fill="#000000" font-family="Verdana" font-size="13" lengthAdjust="spacing" textLength="227" x="301.5" y="393.5962">- CategoryID, RelevantCategoryID</text><text fill="#000000" font-family="Verdana" font-size="13" lengthAdjust="spacing" textLength="141" x="301.5" y="409.3955">- ParentID, TargetCC</text><text fill="#000000" font-family="Verdana" font-size="13" lengthAdjust="spacing" textLength="215" x="301.5" y="425.1948">- WinlossStatus, IsDataChanged</text><text fill="#000000" font-family="Verdana" font-size="13" lengthAdjust="spacing" textLength="168" x="301.5" y="440.9941">- TurnoverRM, WinlossRM</text><text fill="#000000" font-family="Verdana" font-size="13" lengthAdjust="spacing" textLength="157" x="301.5" y="456.7935">- BetCount, ActiveDays</text><text fill="#000000" font-family="Verdana" font-size="13" lengthAdjust="spacing" textLength="199" x="301.5" y="472.5928">- IsLicenseeVIP, IsLicenseeBA</text><text fill="#000000" font-family="Verdana" font-size="13" lengthAdjust="spacing" textLength="185" x="301.5" y="488.3921">- IsRobot, PerformanceTime</text><text fill="#000000" font-family="Verdana" font-size="13" lengthAdjust="spacing" textLength="329" x="301.5" y="504.1914">- PRIMARY KEY (CustID, SportGroup, CategoryID)</text><rect fill="#FFFFFF" height="34.584" rx="12.5" ry="12.5" style="stroke:#000000;stroke-width:1.0;" width="163" x="112.5" y="410.6323"/><text fill="#000000" font-family="Verdana" font-size="12" lengthAdjust="spacing" textLength="143" x="122.5" y="432.6968">Create Temp_PA Table</text><path d="M356,521.9209 L356,562.4192 L336,566.4192 L356,570.4192 L356,610.9175 A0,0 0 0 0 356,610.9175 L647,610.9175 A0,0 0 0 0 647,610.9175 L647,531.9209 L637,521.9209 L356,521.9209 A0,0 0 0 0 356,521.9209 " fill="#FFFFFF" style="stroke:#000000;stroke-width:1.0;"/><path d="M637,521.9209 L637,531.9209 L647,531.9209 L637,521.9209 " fill="#FFFFFF" style="stroke:#000000;stroke-width:1.0;"/><text fill="#000000" font-family="Verdana" font-size="13" lengthAdjust="spacing" textLength="270" x="362" y="539.9907">JOIN CTSCustomerClassification_BySport</text><text fill="#000000" font-family="Verdana" font-size="13" lengthAdjust="spacing" textLength="155" x="362" y="555.79">ON CustID AND SportID</text><text fill="#000000" font-family="Verdana" font-size="13" lengthAdjust="spacing" textLength="157" x="362" y="571.5894">JOIN CustomerCategory</text><text fill="#000000" font-family="Verdana" font-size="13" lengthAdjust="spacing" textLength="216" x="362" y="587.3887">ON CategoryID AND IsActive = 1</text><text fill="#000000" font-family="Verdana" font-size="13" lengthAdjust="spacing" textLength="252" x="362" y="603.188">AND RelevantCategoryID IS NOT NULL</text><rect fill="#FFFFFF" height="34.584" rx="12.5" ry="12.5" style="stroke:#000000;stroke-width:1.0;" width="284" x="52" y="549.1272"/><text fill="#000000" font-family="Verdana" font-size="12" lengthAdjust="spacing" textLength="264" x="62" y="571.1917">Parse JSON and Get Current Classification</text><path d="M308,620.9175 L308,669.3154 L288,673.3154 L308,677.3154 L308,725.7134 A0,0 0 0 0 308,725.7134 L722,725.7134 A0,0 0 0 0 722,725.7134 L722,630.9175 L712,620.9175 L308,620.9175 A0,0 0 0 0 308,620.9175 " fill="#FFFFFF" style="stroke:#000000;stroke-width:1.0;"/><path d="M712,620.9175 L712,630.9175 L722,630.9175 L712,620.9175 " fill="#FFFFFF" style="stroke:#000000;stroke-width:1.0;"/><text fill="#000000" font-family="Verdana" font-size="13" lengthAdjust="spacing" textLength="40" x="314" y="638.9873">Logic:</text><text fill="#000000" font-family="Verdana" font-size="13" lengthAdjust="spacing" textLength="324" x="314" y="654.7866">- LOSING (0) + PA: Update (IsDataChanged = 1)</text><text fill="#000000" font-family="Verdana" font-size="13" lengthAdjust="spacing" textLength="393" x="314" y="670.5859">- LOSING (0) + Probation: No Change (IsDataChanged = 0)</text><text fill="#000000" font-family="Verdana" font-size="13" lengthAdjust="spacing" textLength="358" x="314" y="686.3853">- WINNING (2) + PA: No Change (IsDataChanged = 0)</text><text fill="#000000" font-family="Verdana" font-size="13" lengthAdjust="spacing" textLength="379" x="314" y="702.1846">- WINNING (2) + Probation: Update (IsDataChanged = 1)</text><text fill="#000000" font-family="Verdana" font-size="13" lengthAdjust="spacing" textLength="339" x="314" y="717.9839">- KEEPSTATE (1): No Change (IsDataChanged = 0)</text><rect fill="#FFFFFF" height="34.584" rx="12.5" ry="12.5" style="stroke:#000000;stroke-width:1.0;" width="188" x="100" y="656.0234"/><text fill="#000000" font-family="Verdana" font-size="12" lengthAdjust="spacing" textLength="168" x="110" y="678.0879">Determine IsDataChanged</text><path d="M300.5,735.7134 L300.5,776.2117 L280.5,780.2117 L300.5,784.2117 L300.5,824.71 A0,0 0 0 0 300.5,824.71 L619.5,824.71 A0,0 0 0 0 619.5,824.71 L619.5,745.7134 L609.5,735.7134 L300.5,735.7134 A0,0 0 0 0 300.5,735.7134 " fill="#FFFFFF" style="stroke:#000000;stroke-width:1.0;"/><path d="M609.5,735.7134 L609.5,745.7134 L619.5,745.7134 L609.5,735.7134 " fill="#FFFFFF" style="stroke:#000000;stroke-width:1.0;"/><text fill="#000000" font-family="Verdana" font-size="13" lengthAdjust="spacing" textLength="157" x="306.5" y="753.7832">DELETE FROM Temp_PA</text><text fill="#000000" font-family="Verdana" font-size="13" lengthAdjust="spacing" textLength="100" x="306.5" y="769.5825">WHERE EXISTS</text><text fill="#000000" font-family="Verdana" font-size="13" lengthAdjust="spacing" textLength="186" x="316.5" y="785.3818">(SELECT 1 FROM CCBySport</text><text fill="#000000" font-family="Verdana" font-size="13" lengthAdjust="spacing" textLength="278" x="321.5" y="801.1812">WHERE CTSCustID = Temp_PA.CTSCustID</text><text fill="#000000" font-family="Verdana" font-size="13" lengthAdjust="spacing" textLength="273" x="331.5" y="816.9805">AND CategoryID = CONST_CATEID_VVIP)</text><rect fill="#FFFFFF" height="34.584" rx="12.5" ry="12.5" style="stroke:#000000;stroke-width:1.0;" width="173" x="107.5" y="762.9197"/><text fill="#000000" font-family="Verdana" font-size="12" lengthAdjust="spacing" textLength="153" x="117.5" y="784.9841">Exclude VVIP Customers</text><path d="M320,834.71 L320,859.4089 L300,863.4089 L320,867.4089 L320,892.1079 A0,0 0 0 0 320,892.1079 L633,892.1079 A0,0 0 0 0 633,892.1079 L633,844.71 L623,834.71 L320,834.71 A0,0 0 0 0 320,834.71 " fill="#FFFFFF" style="stroke:#000000;stroke-width:1.0;"/><path d="M623,834.71 L623,844.71 L633,844.71 L623,834.71 " fill="#FFFFFF" style="stroke:#000000;stroke-width:1.0;"/><text fill="#000000" font-family="Verdana" font-size="13" lengthAdjust="spacing" textLength="292" x="326" y="852.7798">UPDATE CTSCustomerClassification_BySport</text><text fill="#000000" font-family="Verdana" font-size="13" lengthAdjust="spacing" textLength="255" x="326" y="868.5791">SET CategoryID = RelevantCategoryID</text><text fill="#000000" font-family="Verdana" font-size="13" lengthAdjust="spacing" textLength="178" x="326" y="884.3784">WHERE IsDataChanged = 1</text><rect fill="#FFFFFF" height="34.584" rx="12.5" ry="12.5" style="stroke:#000000;stroke-width:1.0;" width="212" x="88" y="846.1169"/><text fill="#000000" font-family="Verdana" font-size="12" lengthAdjust="spacing" textLength="192" x="98" y="868.1814">Update Existing Classifications</text><path d="M288,902.1079 L288,982.1045 L268,986.1045 L288,990.1045 L288,1070.1011 A0,0 0 0 0 288,1070.1011 L603,1070.1011 A0,0 0 0 0 603,1070.1011 L603,912.1079 L593,902.1079 L288,902.1079 A0,0 0 0 0 288,902.1079 " fill="#FFFFFF" style="stroke:#000000;stroke-width:1.0;"/><path d="M593,902.1079 L593,912.1079 L603,912.1079 L593,902.1079 " fill="#FFFFFF" style="stroke:#000000;stroke-width:1.0;"/><text fill="#000000" font-family="Verdana" font-size="13" lengthAdjust="spacing" textLength="188" x="294" y="920.1777">Check SpecialCustomerClass</text><text fill="#000000" font-family="Verdana" font-size="13" lengthAdjust="spacing" textLength="204" x="294" y="935.9771">Determine TargetCC based on:</text><text fill="#000000" font-family="Verdana" font-size="13" lengthAdjust="spacing" textLength="52" x="294" y="951.7764">Priority:</text><text fill="#000000" font-family="Verdana" font-size="13" lengthAdjust="spacing" textLength="229" x="294" y="967.5757">1. SpecialCustomerClass (if exists)</text><text fill="#000000" font-family="Verdana" font-size="13" lengthAdjust="spacing" textLength="254" x="294" y="983.375">2. IsLicenseeVIP + IsDangerProbation:</text><text fill="#000000" font-family="Verdana" font-size="13" lengthAdjust="spacing" textLength="199" x="309" y="999.1743">- Probation: LicVIP Suspicious</text><text fill="#000000" font-family="Verdana" font-size="13" lengthAdjust="spacing" textLength="154" x="309" y="1014.9736">- PA: LicVIP Dangerous</text><text fill="#000000" font-family="Verdana" font-size="13" lengthAdjust="spacing" textLength="175" x="294" y="1030.7729">3. IsLicenseeBA + Priority:</text><text fill="#000000" font-family="Verdana" font-size="13" lengthAdjust="spacing" textLength="150" x="309" y="1046.5723">- Higher priority: LicBA</text><text fill="#000000" font-family="Verdana" font-size="13" lengthAdjust="spacing" textLength="294" x="294" y="1062.3716">4. Default: TargetCC from RelevantCategory</text><rect fill="#FFFFFF" height="34.584" rx="12.5" ry="12.5" style="stroke:#000000;stroke-width:1.0;" width="148" x="120" y="968.8125"/><text fill="#000000" font-family="Verdana" font-size="12" lengthAdjust="spacing" textLength="128" x="130" y="990.877">Determine TargetCC</text><path d="M281,1080.1011 L281,1112.6997 L261,1116.6997 L281,1120.6997 L281,1153.2983 A0,0 0 0 0 281,1153.2983 L620,1153.2983 A0,0 0 0 0 620,1153.2983 L620,1090.1011 L610,1080.1011 L281,1080.1011 A0,0 0 0 0 281,1080.1011 " fill="#FFFFFF" style="stroke:#000000;stroke-width:1.0;"/><path d="M610,1080.1011 L610,1090.1011 L620,1090.1011 L610,1080.1011 " fill="#FFFFFF" style="stroke:#000000;stroke-width:1.0;"/><text fill="#000000" font-family="Verdana" font-size="13" lengthAdjust="spacing" textLength="155" x="287" y="1098.1709">INSERT INTO CCHistory</text><text fill="#000000" font-family="Verdana" font-size="13" lengthAdjust="spacing" textLength="318" x="287" y="1113.9702">(CustID, CTSCustID, SportID, CategoryID, etc.)</text><text fill="#000000" font-family="Verdana" font-size="13" lengthAdjust="spacing" textLength="178" x="287" y="1129.7695">WHERE IsDataChanged = 1</text><text fill="#000000" font-family="Verdana" font-size="13" lengthAdjust="spacing" textLength="306" x="297" y="1145.5688">AND ParentID &lt;&gt; CONST_PARENTID_WRAPPER</text><rect fill="#FFFFFF" height="34.584" rx="12.5" ry="12.5" style="stroke:#000000;stroke-width:1.0;" width="134" x="127" y="1099.4077"/><text fill="#000000" font-family="Verdana" font-size="12" lengthAdjust="spacing" textLength="114" x="137" y="1121.4722">Insert into History</text><path d="M270.5,1163.2983 L270.5,1187.9973 L250.5,1191.9973 L270.5,1195.9973 L270.5,1220.6963 A0,0 0 0 0 270.5,1220.6963 L609.5,1220.6963 A0,0 0 0 0 609.5,1220.6963 L609.5,1173.2983 L599.5,1163.2983 L270.5,1163.2983 A0,0 0 0 0 270.5,1163.2983 " fill="#FFFFFF" style="stroke:#000000;stroke-width:1.0;"/><path d="M599.5,1163.2983 L599.5,1173.2983 L609.5,1173.2983 L599.5,1163.2983 " fill="#FFFFFF" style="stroke:#000000;stroke-width:1.0;"/><text fill="#000000" font-family="Verdana" font-size="13" lengthAdjust="spacing" textLength="132" x="276.5" y="1181.3682">INSERT INTO CCLog</text><text fill="#000000" font-family="Verdana" font-size="13" lengthAdjust="spacing" textLength="318" x="276.5" y="1197.1675">(CustID, CTSCustID, SportID, CategoryID, etc.)</text><text fill="#000000" font-family="Verdana" font-size="13" lengthAdjust="spacing" textLength="176" x="276.5" y="1212.9668">For all records in Temp_PA</text><rect fill="#FFFFFF" height="34.584" rx="12.5" ry="12.5" style="stroke:#000000;stroke-width:1.0;" width="113" x="137.5" y="1174.7053"/><text fill="#000000" font-family="Verdana" font-size="12" lengthAdjust="spacing" textLength="93" x="147.5" y="1196.7698">Insert into Log</text><path d="M302.5,1230.6963 L302.5,1263.2949 L282.5,1267.2949 L302.5,1271.2949 L302.5,1303.8936 A0,0 0 0 0 302.5,1303.8936 L501.5,1303.8936 A0,0 0 0 0 501.5,1303.8936 L501.5,1240.6963 L491.5,1230.6963 L302.5,1230.6963 A0,0 0 0 0 302.5,1230.6963 " fill="#FFFFFF" style="stroke:#000000;stroke-width:1.0;"/><path d="M491.5,1230.6963 L491.5,1240.6963 L501.5,1240.6963 L491.5,1230.6963 " fill="#FFFFFF" style="stroke:#000000;stroke-width:1.0;"/><text fill="#000000" font-family="Verdana" font-size="13" lengthAdjust="spacing" textLength="119" x="308.5" y="1248.7661">SELECT DISTINCT</text><text fill="#000000" font-family="Verdana" font-size="13" lengthAdjust="spacing" textLength="128" x="308.5" y="1264.5654">CustID, SportGroup</text><text fill="#000000" font-family="Verdana" font-size="13" lengthAdjust="spacing" textLength="103" x="308.5" y="1280.3647">FROM Temp_PA</text><text fill="#000000" font-family="Verdana" font-size="13" lengthAdjust="spacing" textLength="178" x="308.5" y="1296.1641">WHERE IsDataChanged = 1</text><rect fill="#FFFFFF" height="34.584" rx="12.5" ry="12.5" style="stroke:#000000;stroke-width:1.0;" width="177" x="105.5" y="1250.0029"/><text fill="#000000" font-family="Verdana" font-size="12" lengthAdjust="spacing" textLength="157" x="115.5" y="1272.0674">Return Changed Records</text><ellipse cx="194" cy="1334.8936" fill="none" rx="11" ry="11" style="stroke:#000000;stroke-width:1.0;"/><ellipse cx="194" cy="1334.8936" fill="#FFFFFF" rx="6" ry="6" style="stroke:#000000;stroke-width:1.0;"/><line style="stroke:#000000;stroke-width:1.0;" x1="194" x2="194" y1="72.7373" y2="117.8433"/><polygon fill="#000000" points="190,107.8433,194,117.8433,198,107.8433,194,111.8433" style="stroke:#000000;stroke-width:1.0;"/><line style="stroke:#000000;stroke-width:1.0;" x1="194" x2="194" y1="152.4272" y2="248.4385"/><polygon fill="#000000" points="190,238.4385,194,248.4385,198,238.4385,194,242.4385" style="stroke:#000000;stroke-width:1.0;"/><line style="stroke:#000000;stroke-width:1.0;" x1="194" x2="194" y1="283.0225" y2="410.6323"/><polygon fill="#000000" points="190,400.6323,194,410.6323,198,400.6323,194,404.6323" style="stroke:#000000;stroke-width:1.0;"/><line style="stroke:#000000;stroke-width:1.0;" x1="194" x2="194" y1="445.2163" y2="549.1272"/><polygon fill="#000000" points="190,539.1272,194,549.1272,198,539.1272,194,543.1272" style="stroke:#000000;stroke-width:1.0;"/><line style="stroke:#000000;stroke-width:1.0;" x1="194" x2="194" y1="583.7112" y2="656.0234"/><polygon fill="#000000" points="190,646.0234,194,656.0234,198,646.0234,194,650.0234" style="stroke:#000000;stroke-width:1.0;"/><line style="stroke:#000000;stroke-width:1.0;" x1="194" x2="194" y1="690.6074" y2="762.9197"/><polygon fill="#000000" points="190,752.9197,194,762.9197,198,752.9197,194,756.9197" style="stroke:#000000;stroke-width:1.0;"/><line style="stroke:#000000;stroke-width:1.0;" x1="194" x2="194" y1="797.5037" y2="846.1169"/><polygon fill="#000000" points="190,836.1169,194,846.1169,198,836.1169,194,840.1169" style="stroke:#000000;stroke-width:1.0;"/><line style="stroke:#000000;stroke-width:1.0;" x1="194" x2="194" y1="880.7009" y2="968.8125"/><polygon fill="#000000" points="190,958.8125,194,968.8125,198,958.8125,194,962.8125" style="stroke:#000000;stroke-width:1.0;"/><line style="stroke:#000000;stroke-width:1.0;" x1="194" x2="194" y1="1003.3965" y2="1099.4077"/><polygon fill="#000000" points="190,1089.4077,194,1099.4077,198,1089.4077,194,1093.4077" style="stroke:#000000;stroke-width:1.0;"/><line style="stroke:#000000;stroke-width:1.0;" x1="194" x2="194" y1="1133.9917" y2="1174.7053"/><polygon fill="#000000" points="190,1164.7053,194,1174.7053,198,1164.7053,194,1168.7053" style="stroke:#000000;stroke-width:1.0;"/><line style="stroke:#000000;stroke-width:1.0;" x1="194" x2="194" y1="1209.2893" y2="1250.0029"/><polygon fill="#000000" points="190,1240.0029,194,1250.0029,198,1240.0029,194,1244.0029" style="stroke:#000000;stroke-width:1.0;"/><line style="stroke:#000000;stroke-width:1.0;" x1="194" x2="194" y1="1284.5869" y2="1323.8936"/><polygon fill="#000000" points="190,1313.8936,194,1323.8936,198,1313.8936,194,1317.8936" style="stroke:#000000;stroke-width:1.0;"/><!--SRC=[dLPBSzis4BxpLsnlqbJMn6bFQfC9HS8sOuba2IgkJngOWcHCAK83Waxqxxi47o9DAVR45ukBRnVx-7ONl-bdlkTmI9d8B2rqoi5b8Zr2gEHJolVWf2pFnLOaJ0kPmVm8z22LXYkW8NXPpl6topNgy0tSfFAxPUMQAMtDd9YkNMVj5Bdk6rdFZyR6sjn44vQ5zheozPULISr1YTspjW3_NARP4ylv38mv_79ufhc2qV98_rcC3IXcw6e-WvZl3_N7fCINLyizLxsFyxuOEos4QRwJwZWPI2ZNMcIxtC3fWIU2fJt3xxXgVIVmM1shAzz4B-JE84Ecs9vZw3Fu8WxhkZvsaiWYqp3wIWD_RF5i0sK6BMjsopKuCiDYP3eVvDK9V1gl7Jicdhl-ziqBXzA5vw2ShcZeELwmefSGhktVakWIO6vtnA4T4J_6W_2iz26omv14dQE8BEtetYZODpV4YOaxVro52yydvr0HeOxjHy4yYBkfS1J7-XbweA6A8OECrASpyt5bAk-vRJdBdwOUjqeMXmPJiw8yZ7ZANp3L9raDmheXOqj8pDIEQyUf3nv4bieyfvhf0ddZvORTpopRyKqDYGkLoHUkekMaWKVB-coEfihIJy1Ej7ZXBZlczP6NBqJ2iQ4ubcVI-QoBKI8Y-IHHD-HgAzMUPGcFnPutFaSUPlGHxiaZZ8RXJpgHzpY7iUOSIYe2GwcXOA7A-5_DaK7slmQU_yukHUELIs3xRkLLdUpAoAkMRNLQbusUbrTfWqzmRI2bS5X4y2ZuGGp-Qh7eHkgMdRWN6U_NRH0NTgz86auj0khvjp3wC8RV0Qa6gyEc9EQePwFqQ7nM0rlUf6C6leGAFTJzqEW-UBvlb3ysr_s2rkdADtsz9oIaCJO-ZAx7RrtMIINvaQJ5XaCvXThg3IUMInO4RTz4mRBfLID_k2CH0VAlH-Dg0W6CA6AT6AuhjEDqwTEgj9sD7jK6fwsiWLQywF3Xqt1qzgAfqqH-u937JV6AzyEmLZW_O_9EwbCIztsvC7Mg00ULEa_WPYmDTyGpJ_uxk-MgWWmiGBcfDu1igJQM4b89VQo-hgTdJS58R86NsSeh8dsSzkSNih0C16DG9pOsvRdgCXILIZmjyeD8X2po3ifkZojJpUaVqzvuD9JlUcsqxp0b-EGuD2UbgNgK_Zd5F6nPaUhPAGrR9VU3qdIJNx-RHAObrA-1GVOzdv8endznW0pklXb6btQJaNLs4jV9TFnJGfmetgmf-FlpfRLy8G0SSMyutpnXVi7n6wc0fIaedaYroV76jlaxxaHSuwQ49hAe0W-ygiU2YwF2yvsuVVETMUuNnipFMWeBTB3-1m00]--></g></svg>