<svg xmlns="http://www.w3.org/2000/svg" xmlns:xlink="http://www.w3.org/1999/xlink" contentStyleType="text/css" height="783px" preserveAspectRatio="none" style="width:4053px;height:783px;background:#FFFFFF;" version="1.1" viewBox="0 0 4053 783" width="4053px" zoomAndPan="magnify"><defs/><g><text fill="#000000" font-family="Verdana" font-size="22" font-weight="bold" lengthAdjust="spacing" textLength="786" x="1632" y="37.1182">Daily Problem Classification By Sport - Database Flow Diagram</text><ellipse cx="2031.5" cy="62.7373" fill="#FFFFFF" rx="10" ry="10" style="stroke:#000000;stroke-width:1.0;"/><rect fill="#FFFFFF" height="34.584" rx="12.5" ry="12.5" style="stroke:#000000;stroke-width:1.0;" width="157" x="1953" y="92.7373"/><text fill="#000000" font-family="Verdana" font-size="12" lengthAdjust="spacing" textLength="137" x="1963" y="114.8018">Job Request Received</text><polygon fill="#FFFFFF" points="213,147.3213,286,147.3213,298,159.3213,286,171.3213,213,171.3213,201,159.3213,213,147.3213" style="stroke:#000000;stroke-width:1.0;"/><text fill="#000000" font-family="Verdana" font-size="11" lengthAdjust="spacing" textLength="130" x="253.5" y="182.3804">GetDailyPAFromQueue</text><text fill="#000000" font-family="Verdana" font-size="11" lengthAdjust="spacing" textLength="73" x="213" y="163.696">Action Type?</text><path d="M436,204.6899 L436,221.4893 L416,225.4893 L436,229.4893 L436,246.2886 A0,0 0 0 0 436,246.2886 L566,246.2886 A0,0 0 0 0 566,246.2886 L566,214.6899 L556,204.6899 L436,204.6899 A0,0 0 0 0 436,204.6899 " fill="#FFFFFF" style="stroke:#000000;stroke-width:1.0;"/><path d="M556,204.6899 L556,214.6899 L566,214.6899 L556,204.6899 " fill="#FFFFFF" style="stroke:#000000;stroke-width:1.0;"/><text fill="#000000" font-family="Verdana" font-size="13" lengthAdjust="spacing" textLength="80" x="442" y="222.7598">Parameters:</text><text fill="#000000" font-family="Verdana" font-size="13" lengthAdjust="spacing" textLength="109" x="442" y="238.5591">- @ip_BatchSize</text><rect fill="#FFFFFF" height="34.584" rx="12.5" ry="12.5" style="stroke:#000000;stroke-width:1.0;" width="333" x="83" y="208.1973"/><text fill="#000000" font-family="Verdana" font-size="12" lengthAdjust="spacing" textLength="313" x="93" y="230.2617">Create PADailyScanFromQueueBySportGetCriteria</text><rect fill="#FFFFFF" height="34.584" rx="12.5" ry="12.5" style="stroke:#000000;stroke-width:1.0;" width="487" x="6" y="281.2886"/><text fill="#000000" font-family="Verdana" font-size="12" lengthAdjust="spacing" textLength="467" x="16" y="303.353">Execute CTS_DC_CustClassification_BySport_DailyScanPA_GetFromQueue</text><path d="M329,350.8726 L329,415.0698 L309,419.0698 L329,423.0698 L329,487.2671 A0,0 0 0 0 329,487.2671 L725,487.2671 A0,0 0 0 0 725,487.2671 L725,360.8726 L715,350.8726 L329,350.8726 A0,0 0 0 0 329,350.8726 " fill="#FFFFFF" style="stroke:#000000;stroke-width:1.0;"/><path d="M715,350.8726 L715,360.8726 L725,360.8726 L715,350.8726 " fill="#FFFFFF" style="stroke:#000000;stroke-width:1.0;"/><text fill="#000000" font-family="Verdana" font-size="13" lengthAdjust="spacing" textLength="40" x="335" y="368.9424">Logic:</text><text fill="#000000" font-family="Verdana" font-size="13" lengthAdjust="spacing" textLength="375" x="335" y="384.7417">- Get LastScannedTime from SystemParameter (ID=200)</text><text fill="#000000" font-family="Verdana" font-size="13" lengthAdjust="spacing" textLength="99" x="335" y="400.541">- Add 24 hours</text><text fill="#000000" font-family="Verdana" font-size="13" lengthAdjust="spacing" textLength="164" x="335" y="416.3403">- Get from DailyPAQueue</text><text fill="#000000" font-family="Verdana" font-size="13" lengthAdjust="spacing" textLength="209" x="335" y="432.1396">- Filter by FlowPADailyScan = 1</text><text fill="#000000" font-family="Verdana" font-size="13" lengthAdjust="spacing" textLength="230" x="335" y="447.939">- Order by ID ASC, Limit batchSize</text><text fill="#000000" font-family="Verdana" font-size="13" lengthAdjust="spacing" textLength="56" x="335" y="463.7383">Returns:</text><text fill="#000000" font-family="Verdana" font-size="13" lengthAdjust="spacing" textLength="140" x="335" y="479.5376">- CustID, SportGroup</text><rect fill="#FFFFFF" height="34.584" rx="12.5" ry="12.5" style="stroke:#000000;stroke-width:1.0;" width="119" x="190" y="401.7778"/><text fill="#000000" font-family="Verdana" font-size="12" lengthAdjust="spacing" textLength="99" x="200" y="423.8423">Process Results</text><rect fill="#FFFFFF" height="34.584" rx="12.5" ry="12.5" style="stroke:#000000;stroke-width:1.0;" width="341" x="79" y="522.2671"/><text fill="#000000" font-family="Verdana" font-size="12" lengthAdjust="spacing" textLength="321" x="89" y="544.3315">Return ProblemAccountInfoFromDailyQueueModel[]</text><polygon fill="#FFFFFF" points="901,147.3213,1018,147.3213,1030,159.3213,1018,171.3213,901,171.3213,889,159.3213,901,147.3213" style="stroke:#000000;stroke-width:1.0;"/><text fill="#000000" font-family="Verdana" font-size="11" lengthAdjust="spacing" textLength="117" x="901" y="163.696">GetPALosingBySport</text><path d="M1162.5,191.3213 L1162.5,216.0203 L1142.5,220.0203 L1162.5,224.0203 L1162.5,248.7192 A0,0 0 0 0 1162.5,248.7192 L1434.5,248.7192 A0,0 0 0 0 1434.5,248.7192 L1434.5,201.3213 L1424.5,191.3213 L1162.5,191.3213 A0,0 0 0 0 1162.5,191.3213 " fill="#FFFFFF" style="stroke:#000000;stroke-width:1.0;"/><path d="M1424.5,191.3213 L1424.5,201.3213 L1434.5,201.3213 L1424.5,191.3213 " fill="#FFFFFF" style="stroke:#000000;stroke-width:1.0;"/><text fill="#000000" font-family="Verdana" font-size="13" lengthAdjust="spacing" textLength="80" x="1168.5" y="209.3911">Parameters:</text><text fill="#000000" font-family="Verdana" font-size="13" lengthAdjust="spacing" textLength="194" x="1168.5" y="225.1904">- @ListCustInfo (JSON array)</text><text fill="#000000" font-family="Verdana" font-size="13" lengthAdjust="spacing" textLength="251" x="1168.5" y="240.9897">- @FunctionId (12 = ProblemDailyJob)</text><rect fill="#FFFFFF" height="34.584" rx="12.5" ry="12.5" style="stroke:#000000;stroke-width:1.0;" width="366" x="776.5" y="202.7283"/><text fill="#000000" font-family="Verdana" font-size="12" lengthAdjust="spacing" textLength="346" x="786.5" y="224.7927">Create ProblemAccountClassificationBySportGetCriteria</text><rect fill="#FFFFFF" height="34.584" rx="12.5" ry="12.5" style="stroke:#000000;stroke-width:1.0;" width="449" x="735" y="283.7192"/><text fill="#000000" font-family="Verdana" font-size="12" lengthAdjust="spacing" textLength="429" x="745" y="305.7837">Execute CTS_ProblemAccountsClassification_BySport_Daily [VR2 DB]</text><path d="M1095,353.3032 L1095,441.1995 L1075,445.1995 L1095,449.1995 L1095,537.0957 A0,0 0 0 0 1095,537.0957 L1453,537.0957 A0,0 0 0 0 1453,537.0957 L1453,363.3032 L1443,353.3032 L1095,353.3032 A0,0 0 0 0 1095,353.3032 " fill="#FFFFFF" style="stroke:#000000;stroke-width:1.0;"/><path d="M1443,353.3032 L1443,363.3032 L1453,363.3032 L1443,353.3032 " fill="#FFFFFF" style="stroke:#000000;stroke-width:1.0;"/><text fill="#000000" font-family="Verdana" font-size="13" lengthAdjust="spacing" textLength="40" x="1101" y="371.373">Logic:</text><text fill="#000000" font-family="Verdana" font-size="13" lengthAdjust="spacing" textLength="177" x="1101" y="387.1724">- Parse JSON customer list</text><text fill="#000000" font-family="Verdana" font-size="13" lengthAdjust="spacing" textLength="269" x="1101" y="402.9717">- Get accumulated data from bodb_dwrs</text><text fill="#000000" font-family="Verdana" font-size="13" lengthAdjust="spacing" textLength="177" x="1101" y="418.771">- Calculate WinlossStatus:</text><text fill="#000000" font-family="Verdana" font-size="13" lengthAdjust="spacing" textLength="233" x="1111" y="434.5703">* LOSING (0): WinlossRM &lt; -10000</text><text fill="#000000" font-family="Verdana" font-size="13" lengthAdjust="spacing" textLength="327" x="1111" y="450.3696">* KEEPSTATE (1): -10000 &lt;= WinlossRM &lt; -5000</text><text fill="#000000" font-family="Verdana" font-size="13" lengthAdjust="spacing" textLength="244" x="1111" y="466.1689">* WINNING (2): WinlossRM &gt;= -5000</text><text fill="#000000" font-family="Verdana" font-size="13" lengthAdjust="spacing" textLength="56" x="1101" y="481.9683">Returns:</text><text fill="#000000" font-family="Verdana" font-size="13" lengthAdjust="spacing" textLength="140" x="1101" y="497.7676">- CustID, SportGroup</text><text fill="#000000" font-family="Verdana" font-size="13" lengthAdjust="spacing" textLength="271" x="1101" y="513.5669">- WinlossStatus, TurnoverRM, WinlossRM</text><text fill="#000000" font-family="Verdana" font-size="13" lengthAdjust="spacing" textLength="157" x="1101" y="529.3662">- BetCount, ActiveDays</text><rect fill="#FFFFFF" height="34.584" rx="12.5" ry="12.5" style="stroke:#000000;stroke-width:1.0;" width="231" x="844" y="427.9075"/><text fill="#000000" font-family="Verdana" font-size="12" lengthAdjust="spacing" textLength="211" x="854" y="449.9719">Process Losing Performance Data</text><rect fill="#FFFFFF" height="34.584" rx="12.5" ry="12.5" style="stroke:#000000;stroke-width:1.0;" width="302" x="808.5" y="572.0957"/><text fill="#000000" font-family="Verdana" font-size="12" lengthAdjust="spacing" textLength="282" x="818.5" y="594.1602">Return ProblemAccountLosingBySportEntity[]</text><polygon fill="#FFFFFF" points="1585.5,147.3213,1770.5,147.3213,1782.5,159.3213,1770.5,171.3213,1585.5,171.3213,1573.5,159.3213,1585.5,147.3213" style="stroke:#000000;stroke-width:1.0;"/><text fill="#000000" font-family="Verdana" font-size="11" lengthAdjust="spacing" textLength="185" x="1585.5" y="163.696">InsertPAWLPerformanceBySport</text><path d="M1878.5,191.3213 L1878.5,208.1206 L1858.5,212.1206 L1878.5,216.1206 L1878.5,232.9199 A0,0 0 0 0 1878.5,232.9199 L2139.5,232.9199 A0,0 0 0 0 2139.5,232.9199 L2139.5,201.3213 L2129.5,191.3213 L1878.5,191.3213 A0,0 0 0 0 1878.5,191.3213 " fill="#FFFFFF" style="stroke:#000000;stroke-width:1.0;"/><path d="M2129.5,191.3213 L2129.5,201.3213 L2139.5,201.3213 L2129.5,191.3213 " fill="#FFFFFF" style="stroke:#000000;stroke-width:1.0;"/><text fill="#000000" font-family="Verdana" font-size="13" lengthAdjust="spacing" textLength="80" x="1884.5" y="209.3911">Parameters:</text><text fill="#000000" font-family="Verdana" font-size="13" lengthAdjust="spacing" textLength="240" x="1884.5" y="225.1904">- @ip_ProblemAccount (JSON array)</text><rect fill="#FFFFFF" height="34.584" rx="12.5" ry="12.5" style="stroke:#000000;stroke-width:1.0;" width="361" x="1497.5" y="194.8286"/><text fill="#000000" font-family="Verdana" font-size="12" lengthAdjust="spacing" textLength="341" x="1507.5" y="216.8931">Create ProblemAccountProbationBySportInsertCriteria</text><path d="M1913,267.9199 L1913,347.9165 L1893,351.9165 L1913,355.9165 L1913,435.9131 A0,0 0 0 0 1913,435.9131 L2386,435.9131 A0,0 0 0 0 2386,435.9131 L2386,277.9199 L2376,267.9199 L1913,267.9199 A0,0 0 0 0 1913,267.9199 " fill="#FFFFFF" style="stroke:#000000;stroke-width:1.0;"/><path d="M2376,267.9199 L2376,277.9199 L2386,277.9199 L2376,267.9199 " fill="#FFFFFF" style="stroke:#000000;stroke-width:1.0;"/><text fill="#000000" font-family="Verdana" font-size="13" lengthAdjust="spacing" textLength="40" x="1919" y="285.9897">Logic:</text><text fill="#000000" font-family="Verdana" font-size="13" lengthAdjust="spacing" textLength="343" x="1919" y="301.7891">- Parse JSON with WinlossStatus, TurnoverRM, etc.</text><text fill="#000000" font-family="Verdana" font-size="13" lengthAdjust="spacing" textLength="452" x="1919" y="317.5884">- Get current classification from CTSCustomerClassification_BySport</text><text fill="#000000" font-family="Verdana" font-size="13" lengthAdjust="spacing" textLength="189" x="1919" y="333.3877">- Determine IsDataChanged:</text><text fill="#000000" font-family="Verdana" font-size="13" lengthAdjust="spacing" textLength="301" x="1929" y="349.187">* LOSING + PA: Update (IsDataChanged = 1)</text><text fill="#000000" font-family="Verdana" font-size="13" lengthAdjust="spacing" textLength="370" x="1929" y="364.9863">* LOSING + Probation: No Change (IsDataChanged = 0)</text><text fill="#000000" font-family="Verdana" font-size="13" lengthAdjust="spacing" textLength="335" x="1929" y="380.7856">* WINNING + PA: No Change (IsDataChanged = 0)</text><text fill="#000000" font-family="Verdana" font-size="13" lengthAdjust="spacing" textLength="356" x="1929" y="396.585">* WINNING + Probation: Update (IsDataChanged = 1)</text><text fill="#000000" font-family="Verdana" font-size="13" lengthAdjust="spacing" textLength="294" x="1919" y="412.3843">- Update classification if IsDataChanged = 1</text><text fill="#000000" font-family="Verdana" font-size="13" lengthAdjust="spacing" textLength="234" x="1919" y="428.1836">- Insert into History and Log tables</text><rect fill="#FFFFFF" height="34.584" rx="12.5" ry="12.5" style="stroke:#000000;stroke-width:1.0;" width="430" x="1463" y="334.6245"/><text fill="#000000" font-family="Verdana" font-size="12" lengthAdjust="spacing" textLength="410" x="1473" y="356.689">Execute CTS_DC_CustClassification_BySport_DailyScanPA_Insert</text><rect fill="#FFFFFF" height="34.584" rx="12.5" ry="12.5" style="stroke:#000000;stroke-width:1.0;" width="180" x="1588" y="470.9131"/><text fill="#000000" font-family="Verdana" font-size="12" lengthAdjust="spacing" textLength="160" x="1598" y="492.9775">Process Insertion Results</text><rect fill="#FFFFFF" height="34.584" rx="12.5" ry="12.5" style="stroke:#000000;stroke-width:1.0;" width="316" x="1520" y="540.4971"/><text fill="#000000" font-family="Verdana" font-size="12" lengthAdjust="spacing" textLength="296" x="1530" y="562.5615">Return InsertPAProbationBySportResultModel[]</text><polygon fill="#FFFFFF" points="2528,147.3213,2676,147.3213,2688,159.3213,2676,171.3213,2528,171.3213,2516,159.3213,2528,147.3213" style="stroke:#000000;stroke-width:1.0;"/><text fill="#000000" font-family="Verdana" font-size="11" lengthAdjust="spacing" textLength="148" x="2528" y="163.696">PushCCBySportToMainDB</text><path d="M2747,191.3213 L2747,223.9199 L2727,227.9199 L2747,231.9199 L2747,264.5186 A0,0 0 0 0 2747,264.5186 L3033,264.5186 A0,0 0 0 0 3033,264.5186 L3033,201.3213 L3023,191.3213 L2747,191.3213 A0,0 0 0 0 2747,191.3213 " fill="#FFFFFF" style="stroke:#000000;stroke-width:1.0;"/><path d="M3023,191.3213 L3023,201.3213 L3033,201.3213 L3023,191.3213 " fill="#FFFFFF" style="stroke:#000000;stroke-width:1.0;"/><text fill="#000000" font-family="Verdana" font-size="13" lengthAdjust="spacing" textLength="45" x="2753" y="209.3911">Query:</text><text fill="#000000" font-family="Verdana" font-size="13" lengthAdjust="spacing" textLength="265" x="2753" y="225.1904">SELECT CustID, SportID, CustomerClass</text><text fill="#000000" font-family="Verdana" font-size="13" lengthAdjust="spacing" textLength="250" x="2753" y="240.9897">FROM CustomerClassification_BySport</text><text fill="#000000" font-family="Verdana" font-size="13" lengthAdjust="spacing" textLength="218" x="2753" y="256.7891">WHERE (CustID, SportID) IN (...)</text><rect fill="#FFFFFF" height="34.584" rx="12.5" ry="12.5" style="stroke:#000000;stroke-width:1.0;" width="250" x="2477" y="210.6279"/><text fill="#000000" font-family="Verdana" font-size="12" lengthAdjust="spacing" textLength="230" x="2487" y="232.6924">Get Customer Classification By Sport</text><rect fill="#FFFFFF" height="34.584" rx="12.5" ry="12.5" style="stroke:#000000;stroke-width:1.0;" width="412" x="2396" y="299.5186"/><text fill="#000000" font-family="Verdana" font-size="12" lengthAdjust="spacing" textLength="392" x="2406" y="321.583">Create CustomerClassificationUpdateBySportToMainDBEntity[]</text><path d="M2818,369.1025 L2818,409.6008 L2798,413.6008 L2818,417.6008 L2818,458.0991 A0,0 0 0 0 2818,458.0991 L3031,458.0991 A0,0 0 0 0 3031,458.0991 L3031,379.1025 L3021,369.1025 L2818,369.1025 A0,0 0 0 0 2818,369.1025 " fill="#FFFFFF" style="stroke:#000000;stroke-width:1.0;"/><path d="M3021,369.1025 L3021,379.1025 L3031,379.1025 L3021,369.1025 " fill="#FFFFFF" style="stroke:#000000;stroke-width:1.0;"/><text fill="#000000" font-family="Verdana" font-size="13" lengthAdjust="spacing" textLength="80" x="2824" y="387.1724">Parameters:</text><text fill="#000000" font-family="Verdana" font-size="13" lengthAdjust="spacing" textLength="192" x="2824" y="402.9717">- @CustClassification (JSON)</text><text fill="#000000" font-family="Verdana" font-size="13" lengthAdjust="spacing" textLength="56" x="2824" y="418.771">Returns:</text><text fill="#000000" font-family="Verdana" font-size="13" lengthAdjust="spacing" textLength="76" x="2824" y="434.5703">- ErrorCode</text><text fill="#000000" font-family="Verdana" font-size="13" lengthAdjust="spacing" textLength="69" x="2824" y="450.3696">- ErrorMsg</text><rect fill="#FFFFFF" height="34.584" rx="12.5" ry="12.5" style="stroke:#000000;stroke-width:1.0;" width="392" x="2406" y="396.3088"/><text fill="#000000" font-family="Verdana" font-size="12" lengthAdjust="spacing" textLength="372" x="2416" y="418.3733">Execute UpdateCustomerClassificationBySport [MainDB SP]</text><rect fill="#FFFFFF" height="34.584" rx="12.5" ry="12.5" style="stroke:#000000;stroke-width:1.0;" width="169" x="2517.5" y="493.0991"/><text fill="#000000" font-family="Verdana" font-size="12" lengthAdjust="spacing" textLength="149" x="2527.5" y="515.1636">Process Update Results</text><rect fill="#FFFFFF" height="34.584" rx="12.5" ry="12.5" style="stroke:#000000;stroke-width:1.0;" width="163" x="2520.5" y="562.6831"/><text fill="#000000" font-family="Verdana" font-size="12" lengthAdjust="spacing" textLength="143" x="2530.5" y="584.7476">Return Success/Failure</text><polygon fill="#FFFFFF" points="3186.5,147.3213,3351.5,147.3213,3363.5,159.3213,3351.5,171.3213,3186.5,171.3213,3174.5,159.3213,3186.5,147.3213" style="stroke:#000000;stroke-width:1.0;"/><text fill="#000000" font-family="Verdana" font-size="11" lengthAdjust="spacing" textLength="165" x="3186.5" y="163.696">CompletePADailyFromQueue</text><text fill="#000000" font-family="Verdana" font-size="11" lengthAdjust="spacing" textLength="77" x="3363.5" y="157.0117">Other Actions</text><path d="M3474.5,191.3213 L3474.5,208.1206 L3454.5,212.1206 L3474.5,216.1206 L3474.5,232.9199 A0,0 0 0 0 3474.5,232.9199 L3708.5,232.9199 A0,0 0 0 0 3708.5,232.9199 L3708.5,201.3213 L3698.5,191.3213 L3474.5,191.3213 A0,0 0 0 0 3474.5,191.3213 " fill="#FFFFFF" style="stroke:#000000;stroke-width:1.0;"/><path d="M3698.5,191.3213 L3698.5,201.3213 L3708.5,201.3213 L3698.5,191.3213 " fill="#FFFFFF" style="stroke:#000000;stroke-width:1.0;"/><text fill="#000000" font-family="Verdana" font-size="13" lengthAdjust="spacing" textLength="80" x="3480.5" y="209.3911">Parameters:</text><text fill="#000000" font-family="Verdana" font-size="13" lengthAdjust="spacing" textLength="213" x="3480.5" y="225.1904">- @ip_CustInfoList (JSON array)</text><rect fill="#FFFFFF" height="34.584" rx="12.5" ry="12.5" style="stroke:#000000;stroke-width:1.0;" width="371" x="3083.5" y="194.8286"/><text fill="#000000" font-family="Verdana" font-size="12" lengthAdjust="spacing" textLength="351" x="3093.5" y="216.8931">Create PADailyScanFromQueueBySportCompleteCriteria</text><rect fill="#FFFFFF" height="34.584" rx="12.5" ry="12.5" style="stroke:#000000;stroke-width:1.0;" width="452" x="3043" y="267.9199"/><text fill="#000000" font-family="Verdana" font-size="12" lengthAdjust="spacing" textLength="432" x="3053" y="289.9844">Execute CTS_DC_CustClassification_BySport_DailyScanPA_Complete</text><path d="M3368,337.5039 L3368,385.9019 L3348,389.9019 L3368,393.9019 L3368,442.2998 A0,0 0 0 0 3368,442.2998 L3870,442.2998 A0,0 0 0 0 3870,442.2998 L3870,347.5039 L3860,337.5039 L3368,337.5039 A0,0 0 0 0 3368,337.5039 " fill="#FFFFFF" style="stroke:#000000;stroke-width:1.0;"/><path d="M3860,337.5039 L3860,347.5039 L3870,347.5039 L3860,337.5039 " fill="#FFFFFF" style="stroke:#000000;stroke-width:1.0;"/><text fill="#000000" font-family="Verdana" font-size="13" lengthAdjust="spacing" textLength="40" x="3374" y="355.5737">Logic:</text><text fill="#000000" font-family="Verdana" font-size="13" lengthAdjust="spacing" textLength="177" x="3374" y="371.373">- Parse JSON customer list</text><text fill="#000000" font-family="Verdana" font-size="13" lengthAdjust="spacing" textLength="375" x="3374" y="387.1724">- Get LastScannedTime from SystemParameter (ID=200)</text><text fill="#000000" font-family="Verdana" font-size="13" lengthAdjust="spacing" textLength="99" x="3374" y="402.9717">- Add 24 hours</text><text fill="#000000" font-family="Verdana" font-size="13" lengthAdjust="spacing" textLength="328" x="3374" y="418.771">- Delete processed customers from DailyPAQueue</text><text fill="#000000" font-family="Verdana" font-size="13" lengthAdjust="spacing" textLength="481" x="3374" y="434.5703">- If no customers: Update SystemParameter with new LastScannedTime</text><rect fill="#FFFFFF" height="34.584" rx="12.5" ry="12.5" style="stroke:#000000;stroke-width:1.0;" width="158" x="3190" y="372.6099"/><text fill="#000000" font-family="Verdana" font-size="12" lengthAdjust="spacing" textLength="138" x="3200" y="394.6743">Update DailyPAQueue</text><rect fill="#FFFFFF" height="34.584" rx="12.5" ry="12.5" style="stroke:#000000;stroke-width:1.0;" width="116" x="3211" y="477.2998"/><text fill="#000000" font-family="Verdana" font-size="12" lengthAdjust="spacing" textLength="96" x="3221" y="499.3643">Return Success</text><rect fill="#FFFFFF" height="34.584" rx="12.5" ry="12.5" style="stroke:#000000;stroke-width:1.0;" width="167" x="3880" y="384.7085"/><text fill="#000000" font-family="Verdana" font-size="12" lengthAdjust="spacing" textLength="147" x="3890" y="406.7729">Handle Other Requests</text><rect fill="#FFFFFF" height="34.584" rx="12.5" ry="12.5" style="stroke:#000000;stroke-width:1.0;" width="163" x="1950" y="646.6797"/><text fill="#000000" font-family="Verdana" font-size="12" lengthAdjust="spacing" textLength="143" x="1960" y="668.7441">Map to Entities/Models</text><rect fill="#FFFFFF" height="34.584" rx="12.5" ry="12.5" style="stroke:#000000;stroke-width:1.0;" width="167" x="1948" y="701.2637"/><text fill="#000000" font-family="Verdana" font-size="12" lengthAdjust="spacing" textLength="147" x="1958" y="723.3281">Return to Service Layer</text><ellipse cx="2031.5" cy="766.8477" fill="none" rx="11" ry="11" style="stroke:#000000;stroke-width:1.0;"/><ellipse cx="2031.5" cy="766.8477" fill="#FFFFFF" rx="6" ry="6" style="stroke:#000000;stroke-width:1.0;"/><line style="stroke:#000000;stroke-width:1.0;" x1="2031.5" x2="2031.5" y1="72.7373" y2="92.7373"/><polygon fill="#000000" points="2027.5,82.7373,2031.5,92.7373,2035.5,82.7373,2031.5,86.7373" style="stroke:#000000;stroke-width:1.0;"/><line style="stroke:#000000;stroke-width:1.0;" x1="249.5" x2="249.5" y1="242.7813" y2="281.2886"/><polygon fill="#000000" points="245.5,271.2886,249.5,281.2886,253.5,271.2886,249.5,275.2886" style="stroke:#000000;stroke-width:1.0;"/><line style="stroke:#000000;stroke-width:1.0;" x1="249.5" x2="249.5" y1="315.8726" y2="401.7778"/><polygon fill="#000000" points="245.5,391.7778,249.5,401.7778,253.5,391.7778,249.5,395.7778" style="stroke:#000000;stroke-width:1.0;"/><line style="stroke:#000000;stroke-width:1.0;" x1="249.5" x2="249.5" y1="436.3618" y2="522.2671"/><polygon fill="#000000" points="245.5,512.2671,249.5,522.2671,253.5,512.2671,249.5,516.2671" style="stroke:#000000;stroke-width:1.0;"/><line style="stroke:#000000;stroke-width:1.0;" x1="959.5" x2="959.5" y1="237.3123" y2="283.7192"/><polygon fill="#000000" points="955.5,273.7192,959.5,283.7192,963.5,273.7192,959.5,277.7192" style="stroke:#000000;stroke-width:1.0;"/><line style="stroke:#000000;stroke-width:1.0;" x1="959.5" x2="959.5" y1="318.3032" y2="427.9075"/><polygon fill="#000000" points="955.5,417.9075,959.5,427.9075,963.5,417.9075,959.5,421.9075" style="stroke:#000000;stroke-width:1.0;"/><line style="stroke:#000000;stroke-width:1.0;" x1="959.5" x2="959.5" y1="462.4915" y2="572.0957"/><polygon fill="#000000" points="955.5,562.0957,959.5,572.0957,963.5,562.0957,959.5,566.0957" style="stroke:#000000;stroke-width:1.0;"/><line style="stroke:#000000;stroke-width:1.0;" x1="1678" x2="1678" y1="229.4126" y2="334.6245"/><polygon fill="#000000" points="1674,324.6245,1678,334.6245,1682,324.6245,1678,328.6245" style="stroke:#000000;stroke-width:1.0;"/><line style="stroke:#000000;stroke-width:1.0;" x1="1678" x2="1678" y1="369.2085" y2="470.9131"/><polygon fill="#000000" points="1674,460.9131,1678,470.9131,1682,460.9131,1678,464.9131" style="stroke:#000000;stroke-width:1.0;"/><line style="stroke:#000000;stroke-width:1.0;" x1="1678" x2="1678" y1="505.4971" y2="540.4971"/><polygon fill="#000000" points="1674,530.4971,1678,540.4971,1682,530.4971,1678,534.4971" style="stroke:#000000;stroke-width:1.0;"/><line style="stroke:#000000;stroke-width:1.0;" x1="2602" x2="2602" y1="245.2119" y2="299.5186"/><polygon fill="#000000" points="2598,289.5186,2602,299.5186,2606,289.5186,2602,293.5186" style="stroke:#000000;stroke-width:1.0;"/><line style="stroke:#000000;stroke-width:1.0;" x1="2602" x2="2602" y1="334.1025" y2="396.3088"/><polygon fill="#000000" points="2598,386.3088,2602,396.3088,2606,386.3088,2602,390.3088" style="stroke:#000000;stroke-width:1.0;"/><line style="stroke:#000000;stroke-width:1.0;" x1="2602" x2="2602" y1="430.8928" y2="493.0991"/><polygon fill="#000000" points="2598,483.0991,2602,493.0991,2606,483.0991,2602,487.0991" style="stroke:#000000;stroke-width:1.0;"/><line style="stroke:#000000;stroke-width:1.0;" x1="2602" x2="2602" y1="527.6831" y2="562.6831"/><polygon fill="#000000" points="2598,552.6831,2602,562.6831,2606,552.6831,2602,556.6831" style="stroke:#000000;stroke-width:1.0;"/><line style="stroke:#000000;stroke-width:1.0;" x1="3269" x2="3269" y1="229.4126" y2="267.9199"/><polygon fill="#000000" points="3265,257.9199,3269,267.9199,3273,257.9199,3269,261.9199" style="stroke:#000000;stroke-width:1.0;"/><line style="stroke:#000000;stroke-width:1.0;" x1="3269" x2="3269" y1="302.5039" y2="372.6099"/><polygon fill="#000000" points="3265,362.6099,3269,372.6099,3273,362.6099,3269,366.6099" style="stroke:#000000;stroke-width:1.0;"/><line style="stroke:#000000;stroke-width:1.0;" x1="3269" x2="3269" y1="407.1938" y2="477.2998"/><polygon fill="#000000" points="3265,467.2998,3269,477.2998,3273,467.2998,3269,471.2998" style="stroke:#000000;stroke-width:1.0;"/><line style="stroke:#000000;stroke-width:1.0;" x1="249.5" x2="249.5" y1="171.3213" y2="208.1973"/><polygon fill="#000000" points="245.5,198.1973,249.5,208.1973,253.5,198.1973,249.5,202.1973" style="stroke:#000000;stroke-width:1.0;"/><line style="stroke:#000000;stroke-width:1.0;" x1="249.5" x2="249.5" y1="556.8511" y2="626.6797"/><polygon fill="#000000" points="245.5,616.6797,249.5,626.6797,253.5,616.6797,249.5,620.6797" style="stroke:#000000;stroke-width:1.0;"/><line style="stroke:#000000;stroke-width:1.0;" x1="959.5" x2="959.5" y1="171.3213" y2="202.7283"/><polygon fill="#000000" points="955.5,192.7283,959.5,202.7283,963.5,192.7283,959.5,196.7283" style="stroke:#000000;stroke-width:1.0;"/><line style="stroke:#000000;stroke-width:1.0;" x1="959.5" x2="959.5" y1="606.6797" y2="626.6797"/><polygon fill="#000000" points="955.5,616.6797,959.5,626.6797,963.5,616.6797,959.5,620.6797" style="stroke:#000000;stroke-width:1.0;"/><line style="stroke:#000000;stroke-width:1.0;" x1="1678" x2="1678" y1="171.3213" y2="194.8286"/><polygon fill="#000000" points="1674,184.8286,1678,194.8286,1682,184.8286,1678,188.8286" style="stroke:#000000;stroke-width:1.0;"/><line style="stroke:#000000;stroke-width:1.0;" x1="1678" x2="1678" y1="575.0811" y2="626.6797"/><polygon fill="#000000" points="1674,616.6797,1678,626.6797,1682,616.6797,1678,620.6797" style="stroke:#000000;stroke-width:1.0;"/><line style="stroke:#000000;stroke-width:1.0;" x1="2602" x2="2602" y1="171.3213" y2="210.6279"/><polygon fill="#000000" points="2598,200.6279,2602,210.6279,2606,200.6279,2602,204.6279" style="stroke:#000000;stroke-width:1.0;"/><line style="stroke:#000000;stroke-width:1.0;" x1="2602" x2="2602" y1="597.2671" y2="626.6797"/><polygon fill="#000000" points="2598,616.6797,2602,626.6797,2606,616.6797,2602,620.6797" style="stroke:#000000;stroke-width:1.0;"/><line style="stroke:#000000;stroke-width:1.0;" x1="3269" x2="3269" y1="171.3213" y2="194.8286"/><polygon fill="#000000" points="3265,184.8286,3269,194.8286,3273,184.8286,3269,188.8286" style="stroke:#000000;stroke-width:1.0;"/><line style="stroke:#000000;stroke-width:1.0;" x1="3269" x2="3269" y1="511.8838" y2="626.6797"/><polygon fill="#000000" points="3265,616.6797,3269,626.6797,3273,616.6797,3269,620.6797" style="stroke:#000000;stroke-width:1.0;"/><line style="stroke:#000000;stroke-width:1.0;" x1="298" x2="889" y1="159.3213" y2="159.3213"/><polygon fill="#000000" points="879,155.3213,889,159.3213,879,163.3213,883,159.3213" style="stroke:#000000;stroke-width:1.0;"/><line style="stroke:#000000;stroke-width:1.0;" x1="1030" x2="1573.5" y1="159.3213" y2="159.3213"/><polygon fill="#000000" points="1563.5,155.3213,1573.5,159.3213,1563.5,163.3213,1567.5,159.3213" style="stroke:#000000;stroke-width:1.0;"/><line style="stroke:#000000;stroke-width:1.0;" x1="1782.5" x2="2516" y1="159.3213" y2="159.3213"/><polygon fill="#000000" points="2506,155.3213,2516,159.3213,2506,163.3213,2510,159.3213" style="stroke:#000000;stroke-width:1.0;"/><line style="stroke:#000000;stroke-width:1.0;" x1="2688" x2="3174.5" y1="159.3213" y2="159.3213"/><polygon fill="#000000" points="3164.5,155.3213,3174.5,159.3213,3164.5,163.3213,3168.5,159.3213" style="stroke:#000000;stroke-width:1.0;"/><line style="stroke:#000000;stroke-width:1.0;" x1="2031.5" x2="2031.5" y1="127.3213" y2="132.3213"/><line style="stroke:#000000;stroke-width:1.0;" x1="2031.5" x2="249.5" y1="132.3213" y2="132.3213"/><line style="stroke:#000000;stroke-width:1.0;" x1="249.5" x2="249.5" y1="132.3213" y2="147.3213"/><polygon fill="#000000" points="245.5,137.3213,249.5,147.3213,253.5,137.3213,249.5,141.3213" style="stroke:#000000;stroke-width:1.0;"/><line style="stroke:#000000;stroke-width:1.0;" x1="3363.5" x2="3963.5" y1="159.3213" y2="159.3213"/><line style="stroke:#000000;stroke-width:1.0;" x1="3963.5" x2="3963.5" y1="159.3213" y2="384.7085"/><polygon fill="#000000" points="3959.5,374.7085,3963.5,384.7085,3967.5,374.7085,3963.5,378.7085" style="stroke:#000000;stroke-width:1.0;"/><line style="stroke:#000000;stroke-width:1.0;" x1="3963.5" x2="3963.5" y1="419.2925" y2="626.6797"/><polygon fill="#000000" points="3959.5,616.6797,3963.5,626.6797,3967.5,616.6797,3963.5,620.6797" style="stroke:#000000;stroke-width:1.0;"/><line style="stroke:#000000;stroke-width:1.0;" x1="249.5" x2="3963.5" y1="626.6797" y2="626.6797"/><line style="stroke:#000000;stroke-width:1.0;" x1="2031.5" x2="2031.5" y1="626.6797" y2="646.6797"/><polygon fill="#000000" points="2027.5,636.6797,2031.5,646.6797,2035.5,636.6797,2031.5,640.6797" style="stroke:#000000;stroke-width:1.0;"/><line style="stroke:#000000;stroke-width:1.0;" x1="2031.5" x2="2031.5" y1="681.2637" y2="701.2637"/><polygon fill="#000000" points="2027.5,691.2637,2031.5,701.2637,2035.5,691.2637,2031.5,695.2637" style="stroke:#000000;stroke-width:1.0;"/><line style="stroke:#000000;stroke-width:1.0;" x1="2031.5" x2="2031.5" y1="735.8477" y2="755.8477"/><polygon fill="#000000" points="2027.5,745.8477,2031.5,755.8477,2035.5,745.8477,2031.5,749.8477" style="stroke:#000000;stroke-width:1.0;"/><!--SRC=[jLTTK-is47tthzY-9IrmWMbVmgMzYPs0RvEGncbvO9YCOYk9PcmhbMIe- -kxaknW6uUc5-eNYBNVU_Pe_PtQqeJ2BYOiTHHJCGMFi3Y7cU2hc2RWnaHAjcOXKOodCCWXs76Xu1Jb55aHIM4KysVm6Da8aZYEL4Gef_ULhs1E_yoeLFWtfEo9HbUEmzRGwOV6r2BVqL-wW06aqBcXolYTzKU29xzbDADT1_3fkO8IHM7MD-T1IDAzn20tiQ2kAvYYWf4hevDoL11iirNcftvc18EZA2Dx-tUdy8NjbWEYmct0_gRcFKqZesvz3_-YOOQst4MmzDobcqbLhyUo266v3sxMNs8y-n1jG3siPaYbn4h8B5RoO9XZlc5XDKAq1MCYbJQTqcZ1i5bhD0v1BXLDzcb1n_UkBy_FknNTVXJ1vO-mvPcG3PF6H55m4sVbVCHYRN2LcyPMwWxNS56HknEH5VCzw0Vk2OnPmXIiQlNKpvogJAIrmkjA-jw9nTADuDckfVfMhqHYFmnvbYe_NNDTNHEL2Nt28ne_FDgQEZIML8CCivprnrooT5Fqo4Aj3ggQwNfhtm-kCKEuw4GnPEXy3UwcG8GWURL7NqPPQiR1Zw1pSOabBc8o-U4GTVy5blKKv5lmX8S_vfVW3HuReBHLWXaLQouIaeRKpFRn8CNyaGPCWY7conF4HOp9Dq17mZ1BiXWB7q643YmALpnQBQFd6aHT4eT64EvP6dCf0qLKLgakmFSmlWlywGrqphkzKcm-WSzmUd6EJqtqr-5m5YpwYo7M6AMj17o-hklzr5IxzwTJu-AovkBdwuRiyG2tXxMaJc21olo9YldavCLBHNo04DJDFG7Dd4_K8xayTbng4p1CaU7pLwFYfv8Ad9RxSGK2nmwD_bMT5sli7NnSD_zwRZw2eMsGtmJmPwQsRpMGgl2iWVim4u9YAc7zAZNenxZTOcJQuwxOydIz4fPIyAKUK7TBqWsDMgVY1xmmU_3xBj8TwzJaDOrt3-YKpUp1b8ELVwrztcsT4kloc_HUt1uHyMafrAWdGlcLLaN9zXnOgZZS8ZbnaGD1B66p0HUPcBRDL4cHLbbxgTtWvSoL4zGS1YlSVa7DChbrtK9mmIUuW7c3whXfw9JOEBI67OGmtemYVq56C1mFtKMTbVG_DUpjfKVpkmaS2Slxs-4SQRLXkGl-53fdPsTjCrlmIBi3szj6MUh4jHzwAzjkfx003zO21BF7_qf6hyd4ib7tBU8V2i65Ynrllfl8pHi0Ao3TYguW2xNCfn4oM2Pe0qSkJtOn1byiQY_hSmjp7zwXIoll8EvorT5hp_z3ssMGHNcAcbNNs0_VMJvuz_QeZXzsjkl8KQLl-UPAxgynfnVPFKqs0p6NKqgVcs4VtXOAR5Km1Pqx18u0-vKcYw-mMwHA_3QqHyLt7MgXJRPsdDw4x01vrSmfe_AJeJmyBztWMK354yFLSanoAgxmCv7ld7y0]--></g></svg>