<svg xmlns="http://www.w3.org/2000/svg" xmlns:xlink="http://www.w3.org/1999/xlink" contentStyleType="text/css" height="2244px" preserveAspectRatio="none" style="width:1115px;height:2244px;background:#FFFFFF;" version="1.1" viewBox="0 0 1115 2244" width="1115px" zoomAndPan="magnify"><defs/><g><text fill="#000000" font-family="Verdana" font-size="22" font-weight="bold" lengthAdjust="spacing" textLength="1082" x="15" y="37.1182">Stored Procedure: CTS_NormalClassification_RealTime_CheckChanges - Detailed Flow</text><rect fill="#FFFFFF" height="2185.1787" style="stroke:#000000;stroke-width:1.0;" width="780" x="167" y="53.7373"/><line style="stroke:#000000;stroke-width:1.0;" x1="167" x2="947" y1="74.752" y2="74.752"/><text fill="#000000" font-family="Verdana" font-size="14" lengthAdjust="spacing" textLength="6" x="313" y="69.8125">"</text><text fill="#000000" font-family="Verdana" font-size="14" font-weight="bold" lengthAdjust="spacing" textLength="432" x="319" y="69.8125">SP: CTS_NormalClassification_RealTime_CheckChanges</text><text fill="#000000" font-family="Verdana" font-size="14" lengthAdjust="spacing" textLength="50" x="751" y="69.8125">" as SP</text><rect fill="#FFFFFF" height="2128.1641" style="stroke:#000000;stroke-width:1.0;" width="760" x="177" y="90.752"/><text fill="#000000" font-family="Verdana" font-size="14" lengthAdjust="spacing" textLength="6" x="381" y="106.8271">"</text><text fill="#000000" font-family="Verdana" font-size="14" font-weight="bold" lengthAdjust="spacing" textLength="71" x="387" y="106.8271">Database</text><text fill="#000000" font-family="Verdana" font-size="14" lengthAdjust="spacing" textLength="275" x="458" y="106.8271">: bodb_VR2Model (SQL Server)" as DB</text><rect fill="#FFFFFF" height="57.0146" style="stroke:#000000;stroke-width:1.0;" width="313" x="193" y="127.7666"/><text fill="#000000" font-family="Verdana" font-size="14" lengthAdjust="spacing" textLength="6" x="203" y="143.8418">"</text><text fill="#000000" font-family="Verdana" font-size="14" font-weight="bold" lengthAdjust="spacing" textLength="63" x="209" y="143.8418">Timeout</text><text fill="#000000" font-family="Verdana" font-size="14" lengthAdjust="spacing" textLength="224" x="272" y="143.8418">: 300-600 seconds" as Timeout</text><ellipse cx="349.5" cy="229.7813" fill="#FFFFFF" rx="10" ry="10" style="stroke:#000000;stroke-width:1.0;"/><rect fill="#FFFFFF" height="177.6099" style="stroke:#000000;stroke-width:1.0;" width="561" x="240.5" y="274.7813"/><path d="M428.5,274.7813 L428.5,284.7959 L418.5,294.7959 L240.5,294.7959 " fill="none" style="stroke:#000000;stroke-width:1.0;"/><text fill="#000000" font-family="Verdana" font-size="14" lengthAdjust="spacing" textLength="178" x="243.5" y="289.8564">Input/Output Parameters</text><path d="M468.5,311.7959 L468.5,368.0935 L448.5,372.0935 L468.5,376.0935 L468.5,432.3911 A0,0 0 0 0 468.5,432.3911 L791.5,432.3911 A0,0 0 0 0 791.5,432.3911 L791.5,321.7959 L781.5,311.7959 L468.5,311.7959 A0,0 0 0 0 468.5,311.7959 " fill="#FFFFFF" style="stroke:#000000;stroke-width:1.0;"/><path d="M781.5,311.7959 L781.5,321.7959 L791.5,321.7959 L781.5,311.7959 " fill="#FFFFFF" style="stroke:#000000;stroke-width:1.0;"/><text fill="#000000" font-family="Verdana" font-size="13" lengthAdjust="spacing" textLength="302" x="474.5" y="329.8657">@NextScannedDateTime1 DATETIME OUTPUT</text><text fill="#000000" font-family="Verdana" font-size="13" lengthAdjust="spacing" textLength="302" x="474.5" y="345.665">@NextScannedDateTime2 DATETIME OUTPUT</text><text fill="#000000" font-family="Verdana" font-size="13" lengthAdjust="spacing" textLength="302" x="474.5" y="361.4644">@NextScannedDateTime3 DATETIME OUTPUT</text><text fill="#000000" font-family="Verdana" font-size="13" lengthAdjust="spacing" textLength="302" x="474.5" y="377.2637">@NextScannedDateTime4 DATETIME OUTPUT</text><text fill="#000000" font-family="Verdana" font-size="13" lengthAdjust="spacing" textLength="5" x="474.5" y="393.063">&#160;</text><text fill="#000000" font-family="Verdana" font-size="13" lengthAdjust="spacing" textLength="239" x="474.5" y="408.8623">Purpose: Track next scan time slots</text><text fill="#000000" font-family="Verdana" font-size="13" lengthAdjust="spacing" textLength="265" x="474.5" y="424.6616">for optimization (sliding window/parallel)</text><rect fill="#FFFFFF" height="34.584" rx="12.5" ry="12.5" style="stroke:#000000;stroke-width:1.0;" width="198" x="250.5" y="354.8015"/><text fill="#000000" font-family="Verdana" font-size="12" lengthAdjust="spacing" textLength="178" x="260.5" y="376.866">Declare OUTPUT parameters</text><rect fill="#FFFFFF" height="317.4058" style="stroke:#000000;stroke-width:1.0;" width="616.5" x="205.5" y="487.3911"/><path d="M414.5,487.3911 L414.5,497.4058 L404.5,507.4058 L205.5,507.4058 " fill="none" style="stroke:#000000;stroke-width:1.0;"/><text fill="#000000" font-family="Verdana" font-size="14" lengthAdjust="spacing" textLength="199" x="208.5" y="502.4663">Detect Transaction Changes</text><path d="M488,524.4058 L488,564.9041 L468,568.9041 L488,572.9041 L488,613.4023 A0,0 0 0 0 488,613.4023 L812,613.4023 A0,0 0 0 0 812,613.4023 L812,534.4058 L802,524.4058 L488,524.4058 A0,0 0 0 0 488,524.4058 " fill="#FFFFFF" style="stroke:#000000;stroke-width:1.0;"/><path d="M802,524.4058 L802,534.4058 L812,534.4058 L802,524.4058 " fill="#FFFFFF" style="stroke:#000000;stroke-width:1.0;"/><text fill="#000000" font-family="Verdana" font-size="13" lengthAdjust="spacing" textLength="93" x="494" y="542.4756">Possible logic:</text><text fill="#000000" font-family="Verdana" font-size="13" lengthAdjust="spacing" textLength="233" x="494" y="558.2749">- Check transaction log/audit table</text><text fill="#000000" font-family="Verdana" font-size="13" lengthAdjust="spacing" textLength="303" x="494" y="574.0742">- Compare LastTicketDate with previous scan</text><text fill="#000000" font-family="Verdana" font-size="13" lengthAdjust="spacing" textLength="224" x="494" y="589.8735">- Use change data capture (CDC)</text><text fill="#000000" font-family="Verdana" font-size="13" lengthAdjust="spacing" textLength="228" x="494" y="605.6729">- Query betting transaction tables</text><rect fill="#FFFFFF" height="34.584" rx="12.5" ry="12.5" style="stroke:#000000;stroke-width:1.0;" width="237" x="231" y="551.6121"/><text fill="#000000" font-family="Verdana" font-size="12" lengthAdjust="spacing" textLength="217" x="241" y="573.6765">Query changes from tracking table</text><path d="M503.5,648.4023 L503.5,712.5996 L483.5,716.5996 L503.5,720.5996 L503.5,784.7969 A0,0 0 0 0 503.5,784.7969 L755.5,784.7969 A0,0 0 0 0 755.5,784.7969 L755.5,658.4023 L745.5,648.4023 L503.5,648.4023 A0,0 0 0 0 503.5,648.4023 " fill="#FFFFFF" style="stroke:#000000;stroke-width:1.0;"/><path d="M745.5,648.4023 L745.5,658.4023 L755.5,658.4023 L745.5,648.4023 " fill="#FFFFFF" style="stroke:#000000;stroke-width:1.0;"/><text fill="#000000" font-family="Verdana" font-size="13" lengthAdjust="spacing" textLength="94" x="509.5" y="666.4722">Business Rule:</text><text fill="#000000" font-family="Verdana" font-size="13" lengthAdjust="spacing" textLength="195" x="509.5" y="682.2715">- Member: Regular customers</text><text fill="#000000" font-family="Verdana" font-size="13" lengthAdjust="spacing" textLength="231" x="509.5" y="698.0708">- Agency: Agency-level customers</text><text fill="#000000" font-family="Verdana" font-size="13" lengthAdjust="spacing" textLength="5" x="509.5" y="713.8701">&#160;</text><text fill="#000000" font-family="Verdana" font-size="13" lengthAdjust="spacing" textLength="115" x="509.5" y="729.6694">Criteria might be:</text><text fill="#000000" font-family="Verdana" font-size="13" lengthAdjust="spacing" textLength="141" x="509.5" y="745.4688">- Customer type field</text><text fill="#000000" font-family="Verdana" font-size="13" lengthAdjust="spacing" textLength="148" x="509.5" y="761.2681">- Role/Permission level</text><text fill="#000000" font-family="Verdana" font-size="13" lengthAdjust="spacing" textLength="204" x="509.5" y="777.0674">- Specific customer categories</text><rect fill="#FFFFFF" height="34.584" rx="12.5" ry="12.5" style="stroke:#000000;stroke-width:1.0;" width="268" x="215.5" y="699.3076"/><text fill="#000000" font-family="Verdana" font-size="12" lengthAdjust="spacing" textLength="248" x="225.5" y="721.3721">Separate Member vs Agency customers</text><rect fill="#FFFFFF" height="683.5229" style="stroke:#000000;stroke-width:1.0;" width="572.5" x="187" y="839.7969"/><path d="M382,839.7969 L382,849.8115 L372,859.8115 L187,859.8115 " fill="none" style="stroke:#000000;stroke-width:1.0;"/><text fill="#000000" font-family="Verdana" font-size="14" lengthAdjust="spacing" textLength="185" x="190" y="854.8721">Calculate Next Scan Times</text><path d="M479.5,876.8115 L479.5,1012.1057 L459.5,1016.1057 L479.5,1020.1057 L479.5,1155.3999 A0,0 0 0 0 479.5,1155.3999 L749.5,1155.3999 A0,0 0 0 0 749.5,1155.3999 L749.5,886.8115 L739.5,876.8115 L479.5,876.8115 A0,0 0 0 0 479.5,876.8115 " fill="#FFFFFF" style="stroke:#000000;stroke-width:1.0;"/><path d="M739.5,876.8115 L739.5,886.8115 L749.5,886.8115 L739.5,876.8115 " fill="#FFFFFF" style="stroke:#000000;stroke-width:1.0;"/><text fill="#000000" font-family="Verdana" font-size="13" lengthAdjust="spacing" textLength="129" x="485.5" y="894.8813">Possible strategies:</text><text fill="#000000" font-family="Verdana" font-size="13" lengthAdjust="spacing" textLength="5" x="485.5" y="910.6807">&#160;</text><text fill="#000000" font-family="Verdana" font-size="13" font-weight="bold" lengthAdjust="spacing" textLength="194" x="485.5" y="926.48">Strategy 1: Sliding Window</text><text fill="#000000" font-family="Verdana" font-size="13" lengthAdjust="spacing" textLength="160" x="485.5" y="942.2793">- Slot1: Current + 5 min</text><text fill="#000000" font-family="Verdana" font-size="13" lengthAdjust="spacing" textLength="168" x="485.5" y="958.0786">- Slot2: Current + 10 min</text><text fill="#000000" font-family="Verdana" font-size="13" lengthAdjust="spacing" textLength="168" x="485.5" y="973.8779">- Slot3: Current + 15 min</text><text fill="#000000" font-family="Verdana" font-size="13" lengthAdjust="spacing" textLength="168" x="485.5" y="989.6772">- Slot4: Current + 20 min</text><text fill="#000000" font-family="Verdana" font-size="13" lengthAdjust="spacing" textLength="5" x="485.5" y="1005.4766">&#160;</text><text fill="#000000" font-family="Verdana" font-size="13" font-weight="bold" lengthAdjust="spacing" textLength="171" x="485.5" y="1021.2759">Strategy 2: Time-based</text><text fill="#000000" font-family="Verdana" font-size="13" lengthAdjust="spacing" textLength="152" x="485.5" y="1037.0752">- Slot1: Next 00:00:00</text><text fill="#000000" font-family="Verdana" font-size="13" lengthAdjust="spacing" textLength="152" x="485.5" y="1052.8745">- Slot2: Next 06:00:00</text><text fill="#000000" font-family="Verdana" font-size="13" lengthAdjust="spacing" textLength="152" x="485.5" y="1068.6738">- Slot3: Next 12:00:00</text><text fill="#000000" font-family="Verdana" font-size="13" lengthAdjust="spacing" textLength="152" x="485.5" y="1084.4731">- Slot4: Next 18:00:00</text><text fill="#000000" font-family="Verdana" font-size="13" lengthAdjust="spacing" textLength="5" x="485.5" y="1100.2725">&#160;</text><text fill="#000000" font-family="Verdana" font-size="13" font-weight="bold" lengthAdjust="spacing" textLength="171" x="485.5" y="1116.0718">Strategy 3: Load-based</text><text fill="#000000" font-family="Verdana" font-size="13" lengthAdjust="spacing" textLength="249" x="485.5" y="1131.8711">- Distribute based on customer count</text><text fill="#000000" font-family="Verdana" font-size="13" lengthAdjust="spacing" textLength="161" x="485.5" y="1147.6704">- Balance database load</text><rect fill="#FFFFFF" height="34.584" rx="12.5" ry="12.5" style="stroke:#000000;stroke-width:1.0;" width="220" x="239.5" y="998.8137"/><text fill="#000000" font-family="Verdana" font-size="12" lengthAdjust="spacing" textLength="200" x="249.5" y="1020.8782">Calculate 4 next scan time slots</text><rect fill="#FFFFFF" height="34.584" rx="12.5" ry="12.5" style="stroke:#000000;stroke-width:1.0;" width="172" x="263.5" y="1190.3999"/><text fill="#000000" font-family="Verdana" font-size="12" lengthAdjust="spacing" textLength="152" x="273.5" y="1212.4644">Set OUTPUT parameters</text><rect fill="#FFFFFF" height="34.584" rx="12.5" ry="12.5" style="stroke:#000000;stroke-width:1.0;" width="305" x="197" y="1259.9839"/><text fill="#000000" font-family="Verdana" font-size="12" lengthAdjust="spacing" textLength="285" x="207" y="1282.0483">@NextScannedDateTime1 = calculated_time1</text><rect fill="#FFFFFF" height="34.584" rx="12.5" ry="12.5" style="stroke:#000000;stroke-width:1.0;" width="305" x="197" y="1329.5679"/><text fill="#000000" font-family="Verdana" font-size="12" lengthAdjust="spacing" textLength="285" x="207" y="1351.6323">@NextScannedDateTime2 = calculated_time2</text><rect fill="#FFFFFF" height="34.584" rx="12.5" ry="12.5" style="stroke:#000000;stroke-width:1.0;" width="305" x="197" y="1399.1519"/><text fill="#000000" font-family="Verdana" font-size="12" lengthAdjust="spacing" textLength="285" x="207" y="1421.2163">@NextScannedDateTime3 = calculated_time3</text><rect fill="#FFFFFF" height="34.584" rx="12.5" ry="12.5" style="stroke:#000000;stroke-width:1.0;" width="305" x="197" y="1468.7358"/><text fill="#000000" font-family="Verdana" font-size="12" lengthAdjust="spacing" textLength="285" x="207" y="1490.8003">@NextScannedDateTime4 = calculated_time4</text><rect fill="#FFFFFF" height="583.5962" style="stroke:#000000;stroke-width:1.0;" width="738" x="189" y="1558.3198"/><path d="M333,1558.3198 L333,1568.3345 L323,1578.3345 L189,1578.3345 " fill="none" style="stroke:#000000;stroke-width:1.0;"/><text fill="#000000" font-family="Verdana" font-size="14" lengthAdjust="spacing" textLength="134" x="192" y="1573.395">Return Result Sets</text><path d="M510,1595.3345 L510,1659.5317 L490,1663.5317 L510,1667.5317 L510,1731.729 A0,0 0 0 0 510,1731.729 L753,1731.729 A0,0 0 0 0 753,1731.729 L753,1605.3345 L743,1595.3345 L510,1595.3345 A0,0 0 0 0 510,1595.3345 " fill="#FFFFFF" style="stroke:#000000;stroke-width:1.0;"/><path d="M743,1595.3345 L743,1605.3345 L753,1605.3345 L743,1595.3345 " fill="#FFFFFF" style="stroke:#000000;stroke-width:1.0;"/><text fill="#000000" font-family="Verdana" font-size="13" lengthAdjust="spacing" textLength="50" x="516" y="1613.4043">SELECT</text><text fill="#000000" font-family="Verdana" font-size="13" lengthAdjust="spacing" textLength="48" x="526" y="1629.2036">CustId,</text><text fill="#000000" font-family="Verdana" font-size="13" lengthAdjust="spacing" textLength="100" x="526" y="1645.0029">LastTicketDate</text><text fill="#000000" font-family="Verdana" font-size="13" lengthAdjust="spacing" textLength="148" x="516" y="1660.8022">FROM [tracking_table]</text><text fill="#000000" font-family="Verdana" font-size="13" lengthAdjust="spacing" textLength="222" x="516" y="1676.6016">WHERE CustomerType = 'Member'</text><text fill="#000000" font-family="Verdana" font-size="13" lengthAdjust="spacing" textLength="139" x="526" y="1692.4009">AND HasChanges = 1</text><text fill="#000000" font-family="Verdana" font-size="13" lengthAdjust="spacing" textLength="5" x="516" y="1708.2002">&#160;</text><text fill="#000000" font-family="Verdana" font-size="13" lengthAdjust="spacing" textLength="186" x="516" y="1723.9995">Purpose: Update Archive DB</text><rect fill="#FFFFFF" height="34.584" rx="12.5" ry="12.5" style="stroke:#000000;stroke-width:1.0;" width="281" x="209" y="1646.2397"/><text fill="#000000" font-family="Verdana" font-size="12" lengthAdjust="spacing" textLength="261" x="219" y="1668.3042">Prepare ResultSet 1 - Member Customers</text><path d="M507.5,1766.729 L507.5,1830.9263 L487.5,1834.9263 L507.5,1838.9263 L507.5,1903.1235 A0,0 0 0 0 507.5,1903.1235 L748.5,1903.1235 A0,0 0 0 0 748.5,1903.1235 L748.5,1776.729 L738.5,1766.729 L507.5,1766.729 A0,0 0 0 0 507.5,1766.729 " fill="#FFFFFF" style="stroke:#000000;stroke-width:1.0;"/><path d="M738.5,1766.729 L738.5,1776.729 L748.5,1776.729 L738.5,1766.729 " fill="#FFFFFF" style="stroke:#000000;stroke-width:1.0;"/><text fill="#000000" font-family="Verdana" font-size="13" lengthAdjust="spacing" textLength="50" x="513.5" y="1784.7988">SELECT</text><text fill="#000000" font-family="Verdana" font-size="13" lengthAdjust="spacing" textLength="48" x="523.5" y="1800.5981">CustId,</text><text fill="#000000" font-family="Verdana" font-size="13" lengthAdjust="spacing" textLength="100" x="523.5" y="1816.3975">LastTicketDate</text><text fill="#000000" font-family="Verdana" font-size="13" lengthAdjust="spacing" textLength="148" x="513.5" y="1832.1968">FROM [tracking_table]</text><text fill="#000000" font-family="Verdana" font-size="13" lengthAdjust="spacing" textLength="220" x="513.5" y="1847.9961">WHERE CustomerType = 'Agency'</text><text fill="#000000" font-family="Verdana" font-size="13" lengthAdjust="spacing" textLength="139" x="523.5" y="1863.7954">AND HasChanges = 1</text><text fill="#000000" font-family="Verdana" font-size="13" lengthAdjust="spacing" textLength="5" x="513.5" y="1879.5947">&#160;</text><text fill="#000000" font-family="Verdana" font-size="13" lengthAdjust="spacing" textLength="186" x="513.5" y="1895.394">Purpose: Update Archive DB</text><rect fill="#FFFFFF" height="34.584" rx="12.5" ry="12.5" style="stroke:#000000;stroke-width:1.0;" width="276" x="211.5" y="1817.6343"/><text fill="#000000" font-family="Verdana" font-size="12" lengthAdjust="spacing" textLength="256" x="221.5" y="1839.6987">Prepare ResultSet 2 - Agency Customers</text><path d="M520,1938.1235 L520,2026.0198 L500,2030.0198 L520,2034.0198 L520,2121.916 A0,0 0 0 0 520,2121.916 L917,2121.916 A0,0 0 0 0 917,2121.916 L917,1948.1235 L907,1938.1235 L520,1938.1235 A0,0 0 0 0 520,1938.1235 " fill="#FFFFFF" style="stroke:#000000;stroke-width:1.0;"/><path d="M907,1938.1235 L907,1948.1235 L917,1948.1235 L907,1938.1235 " fill="#FFFFFF" style="stroke:#000000;stroke-width:1.0;"/><text fill="#000000" font-family="Verdana" font-size="13" font-weight="bold" lengthAdjust="spacing" textLength="69" x="526" y="1956.1934">Key Logic</text><text fill="#000000" font-family="Verdana" font-size="13" lengthAdjust="spacing" textLength="6" x="595" y="1956.1934">:</text><text fill="#000000" font-family="Verdana" font-size="13" lengthAdjust="spacing" textLength="299" x="526" y="1971.9927">1. Detect transaction changes for customers</text><text fill="#000000" font-family="Verdana" font-size="13" lengthAdjust="spacing" textLength="376" x="526" y="1987.792">2. Separate Member and Agency for different processing</text><text fill="#000000" font-family="Verdana" font-size="13" lengthAdjust="spacing" textLength="338" x="526" y="2003.5913">3. Calculate 4 next scan time slots for optimization</text><text fill="#000000" font-family="Verdana" font-size="13" lengthAdjust="spacing" textLength="296" x="526" y="2019.3906">4. Return customer lists with LastTicketDate</text><text fill="#000000" font-family="Verdana" font-size="13" lengthAdjust="spacing" textLength="5" x="526" y="2035.1899">&#160;</text><text fill="#000000" font-family="Verdana" font-size="13" font-weight="bold" lengthAdjust="spacing" textLength="120" x="526" y="2050.9893">Tables Accessed</text><text fill="#000000" font-family="Verdana" font-size="13" lengthAdjust="spacing" textLength="54" x="651" y="2050.9893">(Likely):</text><text fill="#000000" font-family="Verdana" font-size="13" lengthAdjust="spacing" textLength="175" x="526" y="2066.7886">- CustomerTransactionLog</text><text fill="#000000" font-family="Verdana" font-size="13" lengthAdjust="spacing" textLength="99" x="526" y="2082.5879">- TicketHistory</text><text fill="#000000" font-family="Verdana" font-size="13" lengthAdjust="spacing" textLength="205" x="526" y="2098.3872">- CustomerAssociationChanges</text><text fill="#000000" font-family="Verdana" font-size="13" lengthAdjust="spacing" textLength="261" x="526" y="2114.1865">- SystemParameter (for last scan time)</text><rect fill="#FFFFFF" height="34.584" rx="12.5" ry="12.5" style="stroke:#000000;stroke-width:1.0;" width="301" x="199" y="2012.7278"/><text fill="#000000" font-family="Verdana" font-size="12" lengthAdjust="spacing" textLength="281" x="209" y="2034.7922">Return 2 ResultSets + 4 OUTPUT parameters</text><ellipse cx="349.5" cy="2187.916" fill="none" rx="11" ry="11" style="stroke:#000000;stroke-width:1.0;"/><ellipse cx="349.5" cy="2187.916" fill="#FFFFFF" rx="6" ry="6" style="stroke:#000000;stroke-width:1.0;"/><line style="stroke:#000000;stroke-width:1.0;" x1="349.5" x2="349.5" y1="164.7813" y2="219.7813"/><polygon fill="#000000" points="345.5,209.7813,349.5,219.7813,353.5,209.7813,349.5,213.7813" style="stroke:#000000;stroke-width:1.0;"/><line style="stroke:#000000;stroke-width:1.0;" x1="349.5" x2="349.5" y1="239.7813" y2="354.8015"/><polygon fill="#000000" points="345.5,344.8015,349.5,354.8015,353.5,344.8015,349.5,348.8015" style="stroke:#000000;stroke-width:1.0;"/><line style="stroke:#000000;stroke-width:1.0;" x1="349.5" x2="349.5" y1="586.196" y2="699.3076"/><polygon fill="#000000" points="345.5,689.3076,349.5,699.3076,353.5,689.3076,349.5,693.3076" style="stroke:#000000;stroke-width:1.0;"/><line style="stroke:#000000;stroke-width:1.0;" x1="349.5" x2="349.5" y1="389.3855" y2="551.6121"/><polygon fill="#000000" points="345.5,541.6121,349.5,551.6121,353.5,541.6121,349.5,545.6121" style="stroke:#000000;stroke-width:1.0;"/><line style="stroke:#000000;stroke-width:1.0;" x1="349.5" x2="349.5" y1="1033.3977" y2="1190.3999"/><polygon fill="#000000" points="345.5,1180.3999,349.5,1190.3999,353.5,1180.3999,349.5,1184.3999" style="stroke:#000000;stroke-width:1.0;"/><line style="stroke:#000000;stroke-width:1.0;" x1="349.5" x2="349.5" y1="1224.9839" y2="1259.9839"/><polygon fill="#000000" points="345.5,1249.9839,349.5,1259.9839,353.5,1249.9839,349.5,1253.9839" style="stroke:#000000;stroke-width:1.0;"/><line style="stroke:#000000;stroke-width:1.0;" x1="349.5" x2="349.5" y1="1294.5679" y2="1329.5679"/><polygon fill="#000000" points="345.5,1319.5679,349.5,1329.5679,353.5,1319.5679,349.5,1323.5679" style="stroke:#000000;stroke-width:1.0;"/><line style="stroke:#000000;stroke-width:1.0;" x1="349.5" x2="349.5" y1="1364.1519" y2="1399.1519"/><polygon fill="#000000" points="345.5,1389.1519,349.5,1399.1519,353.5,1389.1519,349.5,1393.1519" style="stroke:#000000;stroke-width:1.0;"/><line style="stroke:#000000;stroke-width:1.0;" x1="349.5" x2="349.5" y1="1433.7358" y2="1468.7358"/><polygon fill="#000000" points="345.5,1458.7358,349.5,1468.7358,353.5,1458.7358,349.5,1462.7358" style="stroke:#000000;stroke-width:1.0;"/><line style="stroke:#000000;stroke-width:1.0;" x1="349.5" x2="349.5" y1="733.8916" y2="998.8137"/><polygon fill="#000000" points="345.5,988.8137,349.5,998.8137,353.5,988.8137,349.5,992.8137" style="stroke:#000000;stroke-width:1.0;"/><line style="stroke:#000000;stroke-width:1.0;" x1="349.5" x2="349.5" y1="1680.8237" y2="1817.6343"/><polygon fill="#000000" points="345.5,1807.6343,349.5,1817.6343,353.5,1807.6343,349.5,1811.6343" style="stroke:#000000;stroke-width:1.0;"/><line style="stroke:#000000;stroke-width:1.0;" x1="349.5" x2="349.5" y1="1852.2183" y2="2012.7278"/><polygon fill="#000000" points="345.5,2002.7278,349.5,2012.7278,353.5,2002.7278,349.5,2006.7278" style="stroke:#000000;stroke-width:1.0;"/><line style="stroke:#000000;stroke-width:1.0;" x1="349.5" x2="349.5" y1="1503.3198" y2="1646.2397"/><polygon fill="#000000" points="345.5,1636.2397,349.5,1646.2397,353.5,1636.2397,349.5,1640.2397" style="stroke:#000000;stroke-width:1.0;"/><line style="stroke:#000000;stroke-width:1.0;" x1="349.5" x2="349.5" y1="2047.3118" y2="2176.916"/><polygon fill="#000000" points="345.5,2166.916,349.5,2176.916,353.5,2166.916,349.5,2170.916" style="stroke:#000000;stroke-width:1.0;"/><!--SRC=[pLPPR-Cs47xNhvZcPHEtINnrKMWHe8xjHOBcy5fAzw4e35eQsqHeKI0ffsxH_zuXHSk7x2toKA11427yvlpc8Byp2rmYv8BnB33S28J8I8KfZ9HCC2qKXj2FeycJL4ic-e9fpMSyOORBR3969cA-n4b_WSbhVy6oEMguX04QnWKP-IpaMn0aJALmrcX4e_VQQZJEW6c8Hl1N0A0mCNHCCPAn0JDioZGs6Y5CPJgT_3fkFyeK1Pn7NnuWGhL2TU7K1xU7ojQHB8pLxJIRbn-RJT2Oo2pLJi73mTz1e0rJ9WXo-ijjd71sd-M5kNuk37rWn1HRea55YZR4S829O0hX-IKUlSIGL_WdGZDf41IVBmpzOtz-Vi8_J9ImBCEK4aBhk0M3NZoCxn-7tiWtPDllaEsyGxPxGjP_HeNAfQREY1LBNY4Z0w390XZI1IsaqLvo9XN8d8xvdwxCSAu5JtasXpUUfVBjsX8a18eBKi0iTHHPtdS8fswYsbbVcMQ9E_FjuJd_Kg1QG-BRRwRa4emDpBgX9X5ubFkHfFOZ48ISyoJqfvVW-iyQgBoHm3KhKcvAQrj9kSnjhH-ODZ5FNj5O_YWpiu1SuOhBGZjUAeqNZJvEIAb_8M6veH63y_wWVr59bVbCqHYNmKuaph_UfShL98pGyaY-7t4vHGKh3RqvPWcnKcWZbwVwxxRGF4EjOLm8t59GMWbXZFE2kdbhf98ehOV-UobmHODtAEO_VSLf03Y3fVLCUUrmxJN0h7E46KUHLjXO2hmUeLfogfEjWlLHeL6EYLqUbLFYqk1SAhxFptuhzPb8A2DYmJOzsAvtmxxff2tUFThLtsuaRMmDvXH1kCy0hRuIMaChXCXFm5St0Ot6DYToGNY_K0ep0z_3ZqHPjWUtT-5MiuPtzl2wVdSNR-_grqCbNvQRIxjbqtgOZi5cCtI_Xq6MuCSZOCU3hVOHiBi1Vze3wx6HbGV9qbfi0qv5uDE2IkGWeAflEqGMcQb4RvbWML8EefMbCMVfiT4onvTvU7nvtr0Z-YPA9xPpMYU5stNXzadXJbsuSrAuMnVkVZgOXJ7IwibendKXQ1JGR8PWfD2jjHAn-RUgdL1DxF5HY8OFmtwygHSuwVlqX-h__KtfZp-Fdn_Xjyt6dhWTzxl7ljuDnyFAQMotn0ryA6FvK9djFGtWZkdD0-G6MYVkgvSyjSFTKyc2hx1y61pKkvvzkzft_u_iorZ-c-nzKxItwMjQ5DrZ4q3TjCT0e_4BhcagwJAbTnKTjAx0NzsxLrXrJSlzUwLz1OUt6AFOFF5MEkMp6RhLbTktAItTR4wAdIlujxLTUuQGMlSAVBBLVX2qF7HvVTTAvHACtVKBlSHwjti7pX_uAuhrXSrtUvtjF5M83mULnkx8WrJhFU6UrZBXBYnVGWT7QsrmMRqluTpcG4_cdUGkWgfwz4wLUV0F]--></g></svg>