<svg xmlns="http://www.w3.org/2000/svg" xmlns:xlink="http://www.w3.org/1999/xlink" contentStyleType="text/css" height="2328px" preserveAspectRatio="none" style="width:2187px;height:2328px;background:#FFFFFF;" version="1.1" viewBox="0 0 2187 2328" width="2187px" zoomAndPan="magnify"><defs/><g><text fill="#000000" font-family="Verdana" font-size="22" font-weight="bold" lengthAdjust="spacing" textLength="731" x="731.5" y="37.1182">Realtime Check Change Classification - Sequence Diagram</text><rect fill="#FFFFFF" height="2016.0874" style="stroke:#000000;stroke-width:1.0;" width="10" x="421" y="195.3652"/><rect fill="#FFFFFF" height="1940.6895" style="stroke:#000000;stroke-width:1.0;" width="10" x="599" y="225.1646"/><rect fill="#FFFFFF" height="412.5884" style="stroke:#000000;stroke-width:1.0;" width="10" x="970" y="254.9639"/><rect fill="#FFFFFF" height="590.1543" style="stroke:#000000;stroke-width:1.0;" width="10" x="970" y="697.3516"/><rect fill="#FFFFFF" height="450.7598" style="stroke:#000000;stroke-width:1.0;" width="10" x="970" y="1317.3052"/><rect fill="#FFFFFF" height="338.1904" style="stroke:#000000;stroke-width:1.0;" width="10" x="970" y="1797.8643"/><rect fill="#FFFFFF" height="352.9897" style="stroke:#000000;stroke-width:1.0;" width="10" x="1296" y="284.7632"/><rect fill="#FFFFFF" height="262.7925" style="stroke:#000000;stroke-width:1.0;" width="10" x="1296" y="878.1475"/><rect fill="#FFFFFF" height="147.9966" style="stroke:#000000;stroke-width:1.0;" width="10" x="1296" y="1482.3018"/><rect fill="#FFFFFF" height="278.5918" style="stroke:#000000;stroke-width:1.0;" width="10" x="1296" y="1827.6636"/><rect fill="#FFFFFF" height="191.9932" style="stroke:#000000;stroke-width:1.0;" width="10" x="1768" y="373.1611"/><rect fill="#FFFFFF" height="144.5952" style="stroke:#000000;stroke-width:1.0;" width="10" x="1768" y="1931.8608"/><rect fill="#FFFFFF" height="128.7959" style="stroke:#000000;stroke-width:1.0;" width="10" x="1885.5" y="982.3447"/><rect fill="#FFFFFF" height="29.7993" style="stroke:#000000;stroke-width:1.0;" width="10" x="1885.5" y="1570.6997"/><rect fill="#FFFFFF" height="546.355" style="stroke:#000000;stroke-width:1.0;" width="1319" x="861" y="712.3516"/><rect fill="#FFFFFF" height="420.5884" style="stroke:#000000;stroke-width:1.0;" width="1299" x="871" y="779.9502"/><rect fill="#FFFFFF" height="51.168" style="stroke:none;stroke-width:1.0;" width="1319" x="861" y="1207.5386"/><rect fill="#FFFFFF" height="406.9604" style="stroke:#000000;stroke-width:1.0;" width="1097" x="861" y="1332.3052"/><rect fill="#FFFFFF" height="281.1938" style="stroke:#000000;stroke-width:1.0;" width="1077" x="871" y="1399.9038"/><rect fill="#FFFFFF" height="51.168" style="stroke:none;stroke-width:1.0;" width="1097" x="861" y="1688.0977"/><line style="stroke:#000000;stroke-width:1.0;" x1="62" x2="62" y1="147.7666" y2="2229.4526"/><line style="stroke:#000000;stroke-width:1.0;" x1="426" x2="426" y1="147.7666" y2="2229.4526"/><line style="stroke:#000000;stroke-width:1.0;" x1="604" x2="604" y1="147.7666" y2="2229.4526"/><line style="stroke:#000000;stroke-width:1.0;" x1="975" x2="975" y1="147.7666" y2="2229.4526"/><line style="stroke:#000000;stroke-width:1.0;" x1="1301" x2="1301" y1="147.7666" y2="2229.4526"/><line style="stroke:#000000;stroke-width:1.0;" x1="1773" x2="1773" y1="147.7666" y2="2229.4526"/><line style="stroke:#000000;stroke-width:1.0;" x1="1890" x2="1890" y1="147.7666" y2="2229.4526"/><text fill="#000000" font-family="Verdana" font-size="14" lengthAdjust="spacing" textLength="98" x="10" y="127.8125">Job Scheduler</text><text fill="#000000" font-family="Verdana" font-size="14" lengthAdjust="spacing" textLength="70" x="24" y="144.8271">(External)</text><ellipse cx="62" cy="61.7373" fill="#FFFFFF" rx="8" ry="8" style="stroke:#000000;stroke-width:1.0;"/><path d="M62,69.7373 L62,96.7373 M49,77.7373 L75,77.7373 M62,96.7373 L49,111.7373 M62,96.7373 L75,111.7373 " fill="none" style="stroke:#000000;stroke-width:1.0;"/><text fill="#000000" font-family="Verdana" font-size="14" lengthAdjust="spacing" textLength="98" x="10" y="2242.5278">Job Scheduler</text><text fill="#000000" font-family="Verdana" font-size="14" lengthAdjust="spacing" textLength="70" x="24" y="2259.5425">(External)</text><ellipse cx="62" cy="2271.4819" fill="#FFFFFF" rx="8" ry="8" style="stroke:#000000;stroke-width:1.0;"/><path d="M62,2279.4819 L62,2306.4819 M49,2287.4819 L75,2287.4819 M62,2306.4819 L49,2321.4819 M62,2306.4819 L75,2321.4819 " fill="none" style="stroke:#000000;stroke-width:1.0;"/><rect fill="#FFFFFF" height="48.0293" rx="2.5" ry="2.5" style="stroke:#000000;stroke-width:1.0;" width="128" x="362" y="98.7373"/><text fill="#000000" font-family="Verdana" font-size="14" lengthAdjust="spacing" textLength="114" x="369" y="119.8125">ClassificationJob</text><text fill="#000000" font-family="Verdana" font-size="14" lengthAdjust="spacing" textLength="69" x="391.5" y="136.8271">Controller</text><rect fill="#FFFFFF" height="48.0293" rx="2.5" ry="2.5" style="stroke:#000000;stroke-width:1.0;" width="128" x="362" y="2228.4526"/><text fill="#000000" font-family="Verdana" font-size="14" lengthAdjust="spacing" textLength="114" x="369" y="2249.5278">ClassificationJob</text><text fill="#000000" font-family="Verdana" font-size="14" lengthAdjust="spacing" textLength="69" x="391.5" y="2266.5425">Controller</text><rect fill="#FFFFFF" height="48.0293" rx="2.5" ry="2.5" style="stroke:#000000;stroke-width:1.0;" width="168" x="520" y="98.7373"/><text fill="#000000" font-family="Verdana" font-size="14" lengthAdjust="spacing" textLength="154" x="527" y="119.8125">RealtimeCheckChange</text><text fill="#000000" font-family="Verdana" font-size="14" lengthAdjust="spacing" textLength="74" x="567" y="136.8271">JobService</text><rect fill="#FFFFFF" height="48.0293" rx="2.5" ry="2.5" style="stroke:#000000;stroke-width:1.0;" width="168" x="520" y="2228.4526"/><text fill="#000000" font-family="Verdana" font-size="14" lengthAdjust="spacing" textLength="154" x="527" y="2249.5278">RealtimeCheckChange</text><text fill="#000000" font-family="Verdana" font-size="14" lengthAdjust="spacing" textLength="74" x="567" y="2266.5425">JobService</text><rect fill="#FFFFFF" height="48.0293" rx="2.5" ry="2.5" style="stroke:#000000;stroke-width:1.0;" width="168" x="891" y="98.7373"/><text fill="#000000" font-family="Verdana" font-size="14" lengthAdjust="spacing" textLength="154" x="898" y="119.8125">RealtimeCheckChange</text><text fill="#000000" font-family="Verdana" font-size="14" lengthAdjust="spacing" textLength="50" x="950" y="136.8271">Service</text><rect fill="#FFFFFF" height="48.0293" rx="2.5" ry="2.5" style="stroke:#000000;stroke-width:1.0;" width="168" x="891" y="2228.4526"/><text fill="#000000" font-family="Verdana" font-size="14" lengthAdjust="spacing" textLength="154" x="898" y="2249.5278">RealtimeCheckChange</text><text fill="#000000" font-family="Verdana" font-size="14" lengthAdjust="spacing" textLength="50" x="950" y="2266.5425">Service</text><rect fill="#FFFFFF" height="48.0293" rx="2.5" ry="2.5" style="stroke:#000000;stroke-width:1.0;" width="168" x="1217" y="98.7373"/><text fill="#000000" font-family="Verdana" font-size="14" lengthAdjust="spacing" textLength="154" x="1224" y="119.8125">RealtimeCheckChange</text><text fill="#000000" font-family="Verdana" font-size="14" lengthAdjust="spacing" textLength="81" x="1260.5" y="136.8271">DataAccess</text><rect fill="#FFFFFF" height="48.0293" rx="2.5" ry="2.5" style="stroke:#000000;stroke-width:1.0;" width="168" x="1217" y="2228.4526"/><text fill="#000000" font-family="Verdana" font-size="14" lengthAdjust="spacing" textLength="154" x="1224" y="2249.5278">RealtimeCheckChange</text><text fill="#000000" font-family="Verdana" font-size="14" lengthAdjust="spacing" textLength="81" x="1260.5" y="2266.5425">DataAccess</text><text fill="#000000" font-family="Verdana" font-size="14" lengthAdjust="spacing" textLength="80" x="1730" y="127.8125">SQL Server</text><text fill="#000000" font-family="Verdana" font-size="14" lengthAdjust="spacing" textLength="114" x="1713" y="144.8271">bodb_VR2Model</text><path d="M1755,77.7373 C1755,67.7373 1773,67.7373 1773,67.7373 C1773,67.7373 1791,67.7373 1791,77.7373 L1791,103.7373 C1791,113.7373 1773,113.7373 1773,113.7373 C1773,113.7373 1755,113.7373 1755,103.7373 L1755,77.7373 " fill="#FFFFFF" style="stroke:#000000;stroke-width:1.5;"/><path d="M1755,77.7373 C1755,87.7373 1773,87.7373 1773,87.7373 C1773,87.7373 1791,87.7373 1791,77.7373 " fill="none" style="stroke:#000000;stroke-width:1.5;"/><text fill="#000000" font-family="Verdana" font-size="14" lengthAdjust="spacing" textLength="80" x="1730" y="2242.5278">SQL Server</text><text fill="#000000" font-family="Verdana" font-size="14" lengthAdjust="spacing" textLength="114" x="1713" y="2259.5425">bodb_VR2Model</text><path d="M1755,2272.4819 C1755,2262.4819 1773,2262.4819 1773,2262.4819 C1773,2262.4819 1791,2262.4819 1791,2272.4819 L1791,2298.4819 C1791,2308.4819 1773,2308.4819 1773,2308.4819 C1773,2308.4819 1755,2308.4819 1755,2298.4819 L1755,2272.4819 " fill="#FFFFFF" style="stroke:#000000;stroke-width:1.5;"/><path d="M1755,2272.4819 C1755,2282.4819 1773,2282.4819 1773,2282.4819 C1773,2282.4819 1791,2282.4819 1791,2272.4819 " fill="none" style="stroke:#000000;stroke-width:1.5;"/><text fill="#000000" font-family="Verdana" font-size="14" lengthAdjust="spacing" textLength="48" x="1863.5" y="127.8125">MySQL</text><text fill="#000000" font-family="Verdana" font-size="14" lengthAdjust="spacing" textLength="89" x="1843" y="144.8271">CTS_Archive</text><path d="M1872.5,77.7373 C1872.5,67.7373 1890.5,67.7373 1890.5,67.7373 C1890.5,67.7373 1908.5,67.7373 1908.5,77.7373 L1908.5,103.7373 C1908.5,113.7373 1890.5,113.7373 1890.5,113.7373 C1890.5,113.7373 1872.5,113.7373 1872.5,103.7373 L1872.5,77.7373 " fill="#FFFFFF" style="stroke:#000000;stroke-width:1.5;"/><path d="M1872.5,77.7373 C1872.5,87.7373 1890.5,87.7373 1890.5,87.7373 C1890.5,87.7373 1908.5,87.7373 1908.5,77.7373 " fill="none" style="stroke:#000000;stroke-width:1.5;"/><text fill="#000000" font-family="Verdana" font-size="14" lengthAdjust="spacing" textLength="48" x="1863.5" y="2242.5278">MySQL</text><text fill="#000000" font-family="Verdana" font-size="14" lengthAdjust="spacing" textLength="89" x="1843" y="2259.5425">CTS_Archive</text><path d="M1872.5,2272.4819 C1872.5,2262.4819 1890.5,2262.4819 1890.5,2262.4819 C1890.5,2262.4819 1908.5,2262.4819 1908.5,2272.4819 L1908.5,2298.4819 C1908.5,2308.4819 1890.5,2308.4819 1890.5,2308.4819 C1890.5,2308.4819 1872.5,2308.4819 1872.5,2298.4819 L1872.5,2272.4819 " fill="#FFFFFF" style="stroke:#000000;stroke-width:1.5;"/><path d="M1872.5,2272.4819 C1872.5,2282.4819 1890.5,2282.4819 1890.5,2282.4819 C1890.5,2282.4819 1908.5,2282.4819 1908.5,2272.4819 " fill="none" style="stroke:#000000;stroke-width:1.5;"/><rect fill="#FFFFFF" height="2016.0874" style="stroke:#000000;stroke-width:1.0;" width="10" x="421" y="195.3652"/><rect fill="#FFFFFF" height="1940.6895" style="stroke:#000000;stroke-width:1.0;" width="10" x="599" y="225.1646"/><rect fill="#FFFFFF" height="412.5884" style="stroke:#000000;stroke-width:1.0;" width="10" x="970" y="254.9639"/><rect fill="#FFFFFF" height="590.1543" style="stroke:#000000;stroke-width:1.0;" width="10" x="970" y="697.3516"/><rect fill="#FFFFFF" height="450.7598" style="stroke:#000000;stroke-width:1.0;" width="10" x="970" y="1317.3052"/><rect fill="#FFFFFF" height="338.1904" style="stroke:#000000;stroke-width:1.0;" width="10" x="970" y="1797.8643"/><rect fill="#FFFFFF" height="352.9897" style="stroke:#000000;stroke-width:1.0;" width="10" x="1296" y="284.7632"/><rect fill="#FFFFFF" height="262.7925" style="stroke:#000000;stroke-width:1.0;" width="10" x="1296" y="878.1475"/><rect fill="#FFFFFF" height="147.9966" style="stroke:#000000;stroke-width:1.0;" width="10" x="1296" y="1482.3018"/><rect fill="#FFFFFF" height="278.5918" style="stroke:#000000;stroke-width:1.0;" width="10" x="1296" y="1827.6636"/><rect fill="#FFFFFF" height="191.9932" style="stroke:#000000;stroke-width:1.0;" width="10" x="1768" y="373.1611"/><rect fill="#FFFFFF" height="144.5952" style="stroke:#000000;stroke-width:1.0;" width="10" x="1768" y="1931.8608"/><rect fill="#FFFFFF" height="128.7959" style="stroke:#000000;stroke-width:1.0;" width="10" x="1885.5" y="982.3447"/><rect fill="#FFFFFF" height="29.7993" style="stroke:#000000;stroke-width:1.0;" width="10" x="1885.5" y="1570.6997"/><polygon fill="#000000" points="409,191.3652,419,195.3652,409,199.3652,413,195.3652" style="stroke:#000000;stroke-width:1.0;"/><line style="stroke:#000000;stroke-width:1.0;" x1="62" x2="415" y1="195.3652" y2="195.3652"/><text fill="#000000" font-family="Verdana" font-size="13" lengthAdjust="spacing" textLength="340" x="69" y="174.8364">POST /api/classificationJobs/realtimeCheckChanges</text><text fill="#000000" font-family="Verdana" font-size="13" lengthAdjust="spacing" textLength="65" x="69" y="190.6357">batchSize</text><polygon fill="#000000" points="587,221.1646,597,225.1646,587,229.1646,591,225.1646" style="stroke:#000000;stroke-width:1.0;"/><line style="stroke:#000000;stroke-width:1.0;" x1="431" x2="593" y1="225.1646" y2="225.1646"/><text fill="#000000" font-family="Verdana" font-size="13" lengthAdjust="spacing" textLength="130" x="438" y="220.4351">Execute(batchSize)</text><polygon fill="#000000" points="958,250.9639,968,254.9639,958,258.9639,962,254.9639" style="stroke:#000000;stroke-width:1.0;"/><line style="stroke:#000000;stroke-width:1.0;" x1="609" x2="964" y1="254.9639" y2="254.9639"/><text fill="#000000" font-family="Verdana" font-size="13" lengthAdjust="spacing" textLength="101" x="616" y="250.2344">CheckChange()</text><polygon fill="#000000" points="1284,280.7632,1294,284.7632,1284,288.7632,1288,284.7632" style="stroke:#000000;stroke-width:1.0;"/><line style="stroke:#000000;stroke-width:1.0;" x1="980" x2="1290" y1="284.7632" y2="284.7632"/><text fill="#000000" font-family="Verdana" font-size="13" lengthAdjust="spacing" textLength="101" x="987" y="280.0337">CheckChange()</text><line style="stroke:#000000;stroke-width:1.0;" x1="1306" x2="1348" y1="314.5625" y2="314.5625"/><line style="stroke:#000000;stroke-width:1.0;" x1="1348" x2="1348" y1="314.5625" y2="327.5625"/><line style="stroke:#000000;stroke-width:1.0;" x1="1307" x2="1348" y1="327.5625" y2="327.5625"/><polygon fill="#000000" points="1317,323.5625,1307,327.5625,1317,331.5625,1313,327.5625" style="stroke:#000000;stroke-width:1.0;"/><text fill="#000000" font-family="Verdana" font-size="13" lengthAdjust="spacing" textLength="240" x="1313" y="309.833">Create RealtimeCheckChangeCriteria</text><polygon fill="#000000" points="1756,369.1611,1766,373.1611,1756,377.1611,1760,373.1611" style="stroke:#000000;stroke-width:1.0;"/><line style="stroke:#000000;stroke-width:1.0;" x1="1306" x2="1762" y1="373.1611" y2="373.1611"/><text fill="#000000" font-family="Verdana" font-size="13" lengthAdjust="spacing" textLength="374" x="1313" y="352.6323">EXEC CTS_NormalClassification_RealTime_CheckChanges</text><text fill="#000000" font-family="Verdana" font-size="13" lengthAdjust="spacing" textLength="244" x="1313" y="368.4316">@NextScannedDateTime1-4 OUTPUT</text><path d="M1783,386.1611 L1783,506.1611 L2107,506.1611 L2107,396.1611 L2097,386.1611 L1783,386.1611 " fill="#FFFFFF" style="stroke:#000000;stroke-width:1.0;"/><path d="M2097,386.1611 L2097,396.1611 L2107,396.1611 L2097,386.1611 " fill="#FFFFFF" style="stroke:#000000;stroke-width:1.0;"/><text fill="#000000" font-family="Verdana" font-size="13" lengthAdjust="spacing" textLength="121" x="1789" y="404.231">Stored Procedure:</text><text fill="#000000" font-family="Verdana" font-size="13" lengthAdjust="spacing" textLength="303" x="1789" y="420.0303">- Detect customers with transaction changes</text><text fill="#000000" font-family="Verdana" font-size="13" lengthAdjust="spacing" textLength="202" x="1789" y="435.8296">- Separate Member vs Agency</text><text fill="#000000" font-family="Verdana" font-size="13" lengthAdjust="spacing" textLength="149" x="1789" y="451.6289">- Return 2 ResultSets:</text><text fill="#000000" font-family="Verdana" font-size="13" lengthAdjust="spacing" textLength="145" x="1799" y="467.4282">* CustInfos (Member)</text><text fill="#000000" font-family="Verdana" font-size="13" lengthAdjust="spacing" textLength="192" x="1799" y="483.2275">* CustInfosAgency (Agency)</text><text fill="#000000" font-family="Verdana" font-size="13" lengthAdjust="spacing" textLength="210" x="1789" y="499.0269">- Output 4 next scan time slots</text><polygon fill="#000000" points="1317,561.1543,1307,565.1543,1317,569.1543,1313,565.1543" style="stroke:#000000;stroke-width:1.0;"/><line style="stroke:#000000;stroke-width:1.0;stroke-dasharray:2.0,2.0;" x1="1311" x2="1772" y1="565.1543" y2="565.1543"/><text fill="#000000" font-family="Verdana" font-size="13" lengthAdjust="spacing" textLength="218" x="1323" y="528.8262">ResultSet 1: CustInfos (Member)</text><text fill="#000000" font-family="Verdana" font-size="13" lengthAdjust="spacing" textLength="265" x="1323" y="544.6255">ResultSet 2: CustInfosAgency (Agency)</text><text fill="#000000" font-family="Verdana" font-size="13" lengthAdjust="spacing" textLength="172" x="1323" y="560.4248">NextScannedDateTime1-4</text><line style="stroke:#000000;stroke-width:1.0;" x1="1306" x2="1348" y1="594.9536" y2="594.9536"/><line style="stroke:#000000;stroke-width:1.0;" x1="1348" x2="1348" y1="594.9536" y2="607.9536"/><line style="stroke:#000000;stroke-width:1.0;" x1="1307" x2="1348" y1="607.9536" y2="607.9536"/><polygon fill="#000000" points="1317,603.9536,1307,607.9536,1317,611.9536,1313,607.9536" style="stroke:#000000;stroke-width:1.0;"/><text fill="#000000" font-family="Verdana" font-size="13" lengthAdjust="spacing" textLength="233" x="1313" y="590.2241">Map to RealtimeCheckChangeModel</text><polygon fill="#000000" points="991,633.7529,981,637.7529,991,641.7529,987,637.7529" style="stroke:#000000;stroke-width:1.0;"/><line style="stroke:#000000;stroke-width:1.0;stroke-dasharray:2.0,2.0;" x1="985" x2="1300" y1="637.7529" y2="637.7529"/><text fill="#000000" font-family="Verdana" font-size="13" lengthAdjust="spacing" textLength="182" x="997" y="633.0234">RealtimeCheckChangeModel</text><polygon fill="#000000" points="620,663.5522,610,667.5522,620,671.5522,616,667.5522" style="stroke:#000000;stroke-width:1.0;"/><line style="stroke:#000000;stroke-width:1.0;stroke-dasharray:2.0,2.0;" x1="614" x2="974" y1="667.5522" y2="667.5522"/><text fill="#000000" font-family="Verdana" font-size="13" lengthAdjust="spacing" textLength="182" x="626" y="662.8228">RealtimeCheckChangeModel</text><polygon fill="#000000" points="958,693.3516,968,697.3516,958,701.3516,962,697.3516" style="stroke:#000000;stroke-width:1.0;"/><line style="stroke:#000000;stroke-width:1.0;" x1="609" x2="964" y1="697.3516" y2="697.3516"/><text fill="#000000" font-family="Verdana" font-size="13" lengthAdjust="spacing" textLength="293" x="616" y="692.6221">UpdateLastTransDate(CustInfos, batchSize)</text><path d="M861,712.3516 L925,712.3516 L925,720.1509 L915,730.1509 L861,730.1509 L861,712.3516 " fill="#FFFFFF" style="stroke:#000000;stroke-width:1.0;"/><rect fill="none" height="546.355" style="stroke:#000000;stroke-width:1.0;" width="1319" x="861" y="712.3516"/><text fill="#000000" font-family="Verdana" font-size="13" font-weight="bold" lengthAdjust="spacing" textLength="19" x="876" y="726.4214">alt</text><text fill="#000000" font-family="Verdana" font-size="11" font-weight="bold" lengthAdjust="spacing" textLength="165" x="940" y="725.4106">[Has Member Customers]</text><line style="stroke:#000000;stroke-width:1.0;" x1="980" x2="1022" y1="751.9502" y2="751.9502"/><line style="stroke:#000000;stroke-width:1.0;" x1="1022" x2="1022" y1="751.9502" y2="764.9502"/><line style="stroke:#000000;stroke-width:1.0;" x1="981" x2="1022" y1="764.9502" y2="764.9502"/><polygon fill="#000000" points="991,760.9502,981,764.9502,991,768.9502,987,764.9502" style="stroke:#000000;stroke-width:1.0;"/><text fill="#000000" font-family="Verdana" font-size="13" lengthAdjust="spacing" textLength="199" x="987" y="747.2207">Chunk CustInfos by batchSize</text><path d="M871,779.9502 L947,779.9502 L947,787.7495 L937,797.7495 L871,797.7495 L871,779.9502 " fill="#FFFFFF" style="stroke:#000000;stroke-width:1.0;"/><rect fill="none" height="420.5884" style="stroke:#000000;stroke-width:1.0;" width="1299" x="871" y="779.9502"/><text fill="#000000" font-family="Verdana" font-size="13" font-weight="bold" lengthAdjust="spacing" textLength="31" x="886" y="794.02">loop</text><text fill="#000000" font-family="Verdana" font-size="11" font-weight="bold" lengthAdjust="spacing" textLength="109" x="962" y="793.0093">[For each batch]</text><line style="stroke:#000000;stroke-width:1.0;" x1="980" x2="1022" y1="835.3481" y2="835.3481"/><line style="stroke:#000000;stroke-width:1.0;" x1="1022" x2="1022" y1="835.3481" y2="848.3481"/><line style="stroke:#000000;stroke-width:1.0;" x1="981" x2="1022" y1="848.3481" y2="848.3481"/><polygon fill="#000000" points="991,844.3481,981,848.3481,991,852.3481,987,848.3481" style="stroke:#000000;stroke-width:1.0;"/><text fill="#000000" font-family="Verdana" font-size="13" lengthAdjust="spacing" textLength="155" x="987" y="814.8193">Serialize batch to JSON</text><text fill="#000000" font-family="Verdana" font-size="13" lengthAdjust="spacing" textLength="206" x="987" y="830.6187">[{CustId, LastTicketDate}, ...]</text><polygon fill="#000000" points="1284,874.1475,1294,878.1475,1284,882.1475,1288,878.1475" style="stroke:#000000;stroke-width:1.0;"/><line style="stroke:#000000;stroke-width:1.0;" x1="980" x2="1290" y1="878.1475" y2="878.1475"/><text fill="#000000" font-family="Verdana" font-size="13" lengthAdjust="spacing" textLength="221" x="987" y="873.418">UpdateLastTransDate(jsonString)</text><line style="stroke:#000000;stroke-width:1.0;" x1="1306" x2="1348" y1="923.7461" y2="923.7461"/><line style="stroke:#000000;stroke-width:1.0;" x1="1348" x2="1348" y1="923.7461" y2="936.7461"/><line style="stroke:#000000;stroke-width:1.0;" x1="1307" x2="1348" y1="936.7461" y2="936.7461"/><polygon fill="#000000" points="1317,932.7461,1307,936.7461,1317,940.7461,1313,936.7461" style="stroke:#000000;stroke-width:1.0;"/><text fill="#000000" font-family="Verdana" font-size="13" lengthAdjust="spacing" textLength="345" x="1313" y="903.2173">Create UpdateAssociationCustomerLastTransCriteria</text><text fill="#000000" font-family="Verdana" font-size="13" lengthAdjust="spacing" textLength="148" x="1313" y="919.0166">CustInfos = jsonString</text><polygon fill="#000000" points="1873.5,978.3447,1883.5,982.3447,1873.5,986.3447,1877.5,982.3447" style="stroke:#000000;stroke-width:1.0;"/><line style="stroke:#000000;stroke-width:1.0;" x1="1306" x2="1879.5" y1="982.3447" y2="982.3447"/><text fill="#000000" font-family="Verdana" font-size="13" lengthAdjust="spacing" textLength="404" x="1313" y="961.8159">EXEC CTS_Arc_CustomerAssociation_LastTicketDate_Update</text><text fill="#000000" font-family="Verdana" font-size="13" lengthAdjust="spacing" textLength="139" x="1313" y="977.6152">@ip_CustInfo (JSON)</text><path d="M1900,995.3447 L1900,1083.3447 L2160,1083.3447 L2160,1005.3447 L2150,995.3447 L1900,995.3447 " fill="#FFFFFF" style="stroke:#000000;stroke-width:1.0;"/><path d="M2150,995.3447 L2150,1005.3447 L2160,1005.3447 L2150,995.3447 " fill="#FFFFFF" style="stroke:#000000;stroke-width:1.0;"/><text fill="#000000" font-family="Verdana" font-size="13" lengthAdjust="spacing" textLength="121" x="1906" y="1013.4146">Stored Procedure:</text><text fill="#000000" font-family="Verdana" font-size="13" lengthAdjust="spacing" textLength="126" x="1906" y="1029.2139">- Parse JSON array</text><text fill="#000000" font-family="Verdana" font-size="13" lengthAdjust="spacing" textLength="239" x="1906" y="1045.0132">- Update CustomerAssociation table</text><text fill="#000000" font-family="Verdana" font-size="13" lengthAdjust="spacing" textLength="140" x="1906" y="1060.8125">- Set LastTicketDate</text><text fill="#000000" font-family="Verdana" font-size="13" lengthAdjust="spacing" textLength="151" x="1906" y="1076.6118">- Track betting history</text><polygon fill="#000000" points="1317,1107.1406,1307,1111.1406,1317,1115.1406,1313,1111.1406" style="stroke:#000000;stroke-width:1.0;"/><line style="stroke:#000000;stroke-width:1.0;stroke-dasharray:2.0,2.0;" x1="1311" x2="1889.5" y1="1111.1406" y2="1111.1406"/><text fill="#000000" font-family="Verdana" font-size="13" lengthAdjust="spacing" textLength="55" x="1323" y="1106.4111">Success</text><polygon fill="#000000" points="991,1136.9399,981,1140.9399,991,1144.9399,987,1140.9399" style="stroke:#000000;stroke-width:1.0;"/><line style="stroke:#000000;stroke-width:1.0;stroke-dasharray:2.0,2.0;" x1="985" x2="1300" y1="1140.9399" y2="1140.9399"/><text fill="#000000" font-family="Verdana" font-size="13" lengthAdjust="spacing" textLength="27" x="997" y="1136.2104">void</text><line style="stroke:#000000;stroke-width:1.0;" x1="980" x2="1022" y1="1175.1389" y2="1175.1389"/><line style="stroke:#000000;stroke-width:1.0;" x1="1022" x2="1022" y1="1175.1389" y2="1188.1389"/><line style="stroke:#000000;stroke-width:1.0;" x1="981" x2="1022" y1="1188.1389" y2="1188.1389"/><polygon fill="#000000" points="991,1184.1389,981,1188.1389,991,1192.1389,987,1188.1389" style="stroke:#000000;stroke-width:1.0;"/><text fill="#000000" font-family="Verdana" font-size="13" lengthAdjust="spacing" textLength="133" x="987" y="1170.4094">Thread.Sleep(10ms)</text><path d="M1142,1153.9399 L1142,1194.9399 L1302,1194.9399 L1302,1163.9399 L1292,1153.9399 L1142,1153.9399 " fill="#FFFFFF" style="stroke:#000000;stroke-width:1.0;"/><path d="M1292,1153.9399 L1292,1163.9399 L1302,1163.9399 L1292,1153.9399 " fill="#FFFFFF" style="stroke:#000000;stroke-width:1.0;"/><text fill="#000000" font-family="Verdana" font-size="13" lengthAdjust="spacing" textLength="139" x="1148" y="1172.0098">Throttling to prevent</text><text fill="#000000" font-family="Verdana" font-size="13" lengthAdjust="spacing" textLength="122" x="1148" y="1187.8091">database overload</text><line style="stroke:#000000;stroke-width:1.0;stroke-dasharray:2.0,2.0;" x1="861" x2="2180" y1="1208.5386" y2="1208.5386"/><text fill="#000000" font-family="Verdana" font-size="11" font-weight="bold" lengthAdjust="spacing" textLength="158" x="866" y="1219.5977">[No Member Customers]</text><path d="M985,1227.9072 L985,1252.9072 L1140,1252.9072 L1140,1237.9072 L1130,1227.9072 L985,1227.9072 " fill="#FFFFFF" style="stroke:#000000;stroke-width:1.0;"/><path d="M1130,1227.9072 L1130,1237.9072 L1140,1237.9072 L1130,1227.9072 " fill="#FFFFFF" style="stroke:#000000;stroke-width:1.0;"/><text fill="#000000" font-family="Verdana" font-size="13" lengthAdjust="spacing" textLength="134" x="991" y="1245.9771">Skip Member update</text><polygon fill="#000000" points="620,1283.5059,610,1287.5059,620,1291.5059,616,1287.5059" style="stroke:#000000;stroke-width:1.0;"/><line style="stroke:#000000;stroke-width:1.0;stroke-dasharray:2.0,2.0;" x1="614" x2="974" y1="1287.5059" y2="1287.5059"/><text fill="#000000" font-family="Verdana" font-size="13" lengthAdjust="spacing" textLength="284" x="626" y="1282.7764">IRealtimeCheckChangeClassificationService</text><polygon fill="#000000" points="958,1313.3052,968,1317.3052,958,1321.3052,962,1317.3052" style="stroke:#000000;stroke-width:1.0;"/><line style="stroke:#000000;stroke-width:1.0;" x1="609" x2="964" y1="1317.3052" y2="1317.3052"/><text fill="#000000" font-family="Verdana" font-size="13" lengthAdjust="spacing" textLength="342" x="616" y="1312.5757">UpdateLastTransDate(CustInfosAgency, batchSize)</text><path d="M861,1332.3052 L925,1332.3052 L925,1340.1045 L915,1350.1045 L861,1350.1045 L861,1332.3052 " fill="#FFFFFF" style="stroke:#000000;stroke-width:1.0;"/><rect fill="none" height="406.9604" style="stroke:#000000;stroke-width:1.0;" width="1097" x="861" y="1332.3052"/><text fill="#000000" font-family="Verdana" font-size="13" font-weight="bold" lengthAdjust="spacing" textLength="19" x="876" y="1346.375">alt</text><text fill="#000000" font-family="Verdana" font-size="11" font-weight="bold" lengthAdjust="spacing" textLength="161" x="940" y="1345.3643">[Has Agency Customers]</text><line style="stroke:#000000;stroke-width:1.0;" x1="980" x2="1022" y1="1371.9038" y2="1371.9038"/><line style="stroke:#000000;stroke-width:1.0;" x1="1022" x2="1022" y1="1371.9038" y2="1384.9038"/><line style="stroke:#000000;stroke-width:1.0;" x1="981" x2="1022" y1="1384.9038" y2="1384.9038"/><polygon fill="#000000" points="991,1380.9038,981,1384.9038,991,1388.9038,987,1384.9038" style="stroke:#000000;stroke-width:1.0;"/><text fill="#000000" font-family="Verdana" font-size="13" lengthAdjust="spacing" textLength="248" x="987" y="1367.1743">Chunk CustInfosAgency by batchSize</text><path d="M871,1399.9038 L947,1399.9038 L947,1407.7031 L937,1417.7031 L871,1417.7031 L871,1399.9038 " fill="#FFFFFF" style="stroke:#000000;stroke-width:1.0;"/><rect fill="none" height="281.1938" style="stroke:#000000;stroke-width:1.0;" width="1077" x="871" y="1399.9038"/><text fill="#000000" font-family="Verdana" font-size="13" font-weight="bold" lengthAdjust="spacing" textLength="31" x="886" y="1413.9736">loop</text><text fill="#000000" font-family="Verdana" font-size="11" font-weight="bold" lengthAdjust="spacing" textLength="109" x="962" y="1412.9629">[For each batch]</text><line style="stroke:#000000;stroke-width:1.0;" x1="980" x2="1022" y1="1439.5024" y2="1439.5024"/><line style="stroke:#000000;stroke-width:1.0;" x1="1022" x2="1022" y1="1439.5024" y2="1452.5024"/><line style="stroke:#000000;stroke-width:1.0;" x1="981" x2="1022" y1="1452.5024" y2="1452.5024"/><polygon fill="#000000" points="991,1448.5024,981,1452.5024,991,1456.5024,987,1452.5024" style="stroke:#000000;stroke-width:1.0;"/><text fill="#000000" font-family="Verdana" font-size="13" lengthAdjust="spacing" textLength="155" x="987" y="1434.7729">Serialize batch to JSON</text><polygon fill="#000000" points="1284,1478.3018,1294,1482.3018,1284,1486.3018,1288,1482.3018" style="stroke:#000000;stroke-width:1.0;"/><line style="stroke:#000000;stroke-width:1.0;" x1="980" x2="1290" y1="1482.3018" y2="1482.3018"/><text fill="#000000" font-family="Verdana" font-size="13" lengthAdjust="spacing" textLength="221" x="987" y="1477.5723">UpdateLastTransDate(jsonString)</text><line style="stroke:#000000;stroke-width:1.0;" x1="1306" x2="1348" y1="1512.1011" y2="1512.1011"/><line style="stroke:#000000;stroke-width:1.0;" x1="1348" x2="1348" y1="1512.1011" y2="1525.1011"/><line style="stroke:#000000;stroke-width:1.0;" x1="1307" x2="1348" y1="1525.1011" y2="1525.1011"/><polygon fill="#000000" points="1317,1521.1011,1307,1525.1011,1317,1529.1011,1313,1525.1011" style="stroke:#000000;stroke-width:1.0;"/><text fill="#000000" font-family="Verdana" font-size="13" lengthAdjust="spacing" textLength="345" x="1313" y="1507.3716">Create UpdateAssociationCustomerLastTransCriteria</text><polygon fill="#000000" points="1873.5,1566.6997,1883.5,1570.6997,1873.5,1574.6997,1877.5,1570.6997" style="stroke:#000000;stroke-width:1.0;"/><line style="stroke:#000000;stroke-width:1.0;" x1="1306" x2="1879.5" y1="1570.6997" y2="1570.6997"/><text fill="#000000" font-family="Verdana" font-size="13" lengthAdjust="spacing" textLength="404" x="1313" y="1550.1709">EXEC CTS_Arc_CustomerAssociation_LastTicketDate_Update</text><text fill="#000000" font-family="Verdana" font-size="13" lengthAdjust="spacing" textLength="139" x="1313" y="1565.9702">@ip_CustInfo (JSON)</text><polygon fill="#000000" points="1317,1596.499,1307,1600.499,1317,1604.499,1313,1600.499" style="stroke:#000000;stroke-width:1.0;"/><line style="stroke:#000000;stroke-width:1.0;stroke-dasharray:2.0,2.0;" x1="1311" x2="1889.5" y1="1600.499" y2="1600.499"/><text fill="#000000" font-family="Verdana" font-size="13" lengthAdjust="spacing" textLength="55" x="1323" y="1595.7695">Success</text><polygon fill="#000000" points="991,1626.2983,981,1630.2983,991,1634.2983,987,1630.2983" style="stroke:#000000;stroke-width:1.0;"/><line style="stroke:#000000;stroke-width:1.0;stroke-dasharray:2.0,2.0;" x1="985" x2="1300" y1="1630.2983" y2="1630.2983"/><text fill="#000000" font-family="Verdana" font-size="13" lengthAdjust="spacing" textLength="27" x="997" y="1625.5688">void</text><line style="stroke:#000000;stroke-width:1.0;" x1="980" x2="1022" y1="1660.0977" y2="1660.0977"/><line style="stroke:#000000;stroke-width:1.0;" x1="1022" x2="1022" y1="1660.0977" y2="1673.0977"/><line style="stroke:#000000;stroke-width:1.0;" x1="981" x2="1022" y1="1673.0977" y2="1673.0977"/><polygon fill="#000000" points="991,1669.0977,981,1673.0977,991,1677.0977,987,1673.0977" style="stroke:#000000;stroke-width:1.0;"/><text fill="#000000" font-family="Verdana" font-size="13" lengthAdjust="spacing" textLength="133" x="987" y="1655.3682">Thread.Sleep(10ms)</text><line style="stroke:#000000;stroke-width:1.0;stroke-dasharray:2.0,2.0;" x1="861" x2="1958" y1="1689.0977" y2="1689.0977"/><text fill="#000000" font-family="Verdana" font-size="11" font-weight="bold" lengthAdjust="spacing" textLength="154" x="866" y="1700.1567">[No Agency Customers]</text><path d="M985,1708.4663 L985,1733.4663 L1138,1733.4663 L1138,1718.4663 L1128,1708.4663 L985,1708.4663 " fill="#FFFFFF" style="stroke:#000000;stroke-width:1.0;"/><path d="M1128,1708.4663 L1128,1718.4663 L1138,1718.4663 L1128,1708.4663 " fill="#FFFFFF" style="stroke:#000000;stroke-width:1.0;"/><text fill="#000000" font-family="Verdana" font-size="13" lengthAdjust="spacing" textLength="132" x="991" y="1726.5361">Skip Agency update</text><polygon fill="#000000" points="620,1764.0649,610,1768.0649,620,1772.0649,616,1768.0649" style="stroke:#000000;stroke-width:1.0;"/><line style="stroke:#000000;stroke-width:1.0;stroke-dasharray:2.0,2.0;" x1="614" x2="974" y1="1768.0649" y2="1768.0649"/><text fill="#000000" font-family="Verdana" font-size="13" lengthAdjust="spacing" textLength="284" x="626" y="1763.3354">IRealtimeCheckChangeClassificationService</text><polygon fill="#000000" points="958,1793.8643,968,1797.8643,958,1801.8643,962,1797.8643" style="stroke:#000000;stroke-width:1.0;"/><line style="stroke:#000000;stroke-width:1.0;" x1="609" x2="964" y1="1797.8643" y2="1797.8643"/><text fill="#000000" font-family="Verdana" font-size="13" lengthAdjust="spacing" textLength="319" x="616" y="1793.1348">UpdateNextScanCheckChange(realtimeChanges)</text><polygon fill="#000000" points="1284,1823.6636,1294,1827.6636,1284,1831.6636,1288,1827.6636" style="stroke:#000000;stroke-width:1.0;"/><line style="stroke:#000000;stroke-width:1.0;" x1="980" x2="1290" y1="1827.6636" y2="1827.6636"/><text fill="#000000" font-family="Verdana" font-size="13" lengthAdjust="spacing" textLength="297" x="987" y="1822.9341">UpdateNextScanCheckChange(nextScanned)</text><line style="stroke:#000000;stroke-width:1.0;" x1="1306" x2="1348" y1="1873.2622" y2="1873.2622"/><line style="stroke:#000000;stroke-width:1.0;" x1="1348" x2="1348" y1="1873.2622" y2="1886.2622"/><line style="stroke:#000000;stroke-width:1.0;" x1="1307" x2="1348" y1="1886.2622" y2="1886.2622"/><polygon fill="#000000" points="1317,1882.2622,1307,1886.2622,1317,1890.2622,1313,1886.2622" style="stroke:#000000;stroke-width:1.0;"/><text fill="#000000" font-family="Verdana" font-size="13" lengthAdjust="spacing" textLength="350" x="1313" y="1852.7334">Create RealtimeCheckChangeUpdateNextScanCriteria</text><text fill="#000000" font-family="Verdana" font-size="13" lengthAdjust="spacing" textLength="172" x="1313" y="1868.5327">NextScannedDateTime1-4</text><polygon fill="#000000" points="1756,1927.8608,1766,1931.8608,1756,1935.8608,1760,1931.8608" style="stroke:#000000;stroke-width:1.0;"/><line style="stroke:#000000;stroke-width:1.0;" x1="1306" x2="1762" y1="1931.8608" y2="1931.8608"/><text fill="#000000" font-family="Verdana" font-size="13" lengthAdjust="spacing" textLength="443" x="1313" y="1911.332">EXEC CTS_NormalClassification_RealTime_UpdateNextScannedTime</text><text fill="#000000" font-family="Verdana" font-size="13" lengthAdjust="spacing" textLength="185" x="1313" y="1927.1313">@NextScannedDateTime1-4</text><path d="M1783,1944.8608 L1783,2048.8608 L2001,2048.8608 L2001,1954.8608 L1991,1944.8608 L1783,1944.8608 " fill="#FFFFFF" style="stroke:#000000;stroke-width:1.0;"/><path d="M1991,1944.8608 L1991,1954.8608 L2001,1954.8608 L1991,1944.8608 " fill="#FFFFFF" style="stroke:#000000;stroke-width:1.0;"/><text fill="#000000" font-family="Verdana" font-size="13" lengthAdjust="spacing" textLength="121" x="1789" y="1962.9307">Stored Procedure:</text><text fill="#000000" font-family="Verdana" font-size="13" lengthAdjust="spacing" textLength="197" x="1789" y="1978.73">- Save 4 next scan time slots</text><text fill="#000000" font-family="Verdana" font-size="13" lengthAdjust="spacing" textLength="122" x="1789" y="1994.5293">- Optimization for:</text><text fill="#000000" font-family="Verdana" font-size="13" lengthAdjust="spacing" textLength="110" x="1799" y="2010.3286">* Sliding window</text><text fill="#000000" font-family="Verdana" font-size="13" lengthAdjust="spacing" textLength="135" x="1799" y="2026.1279">* Parallel processing</text><text fill="#000000" font-family="Verdana" font-size="13" lengthAdjust="spacing" textLength="112" x="1799" y="2041.9272">* Load balancing</text><polygon fill="#000000" points="1317,2072.4561,1307,2076.4561,1317,2080.4561,1313,2076.4561" style="stroke:#000000;stroke-width:1.0;"/><line style="stroke:#000000;stroke-width:1.0;stroke-dasharray:2.0,2.0;" x1="1311" x2="1772" y1="2076.4561" y2="2076.4561"/><text fill="#000000" font-family="Verdana" font-size="13" lengthAdjust="spacing" textLength="55" x="1323" y="2071.7266">Success</text><polygon fill="#000000" points="991,2102.2554,981,2106.2554,991,2110.2554,987,2106.2554" style="stroke:#000000;stroke-width:1.0;"/><line style="stroke:#000000;stroke-width:1.0;stroke-dasharray:2.0,2.0;" x1="985" x2="1300" y1="2106.2554" y2="2106.2554"/><text fill="#000000" font-family="Verdana" font-size="13" lengthAdjust="spacing" textLength="27" x="997" y="2101.5259">void</text><polygon fill="#000000" points="620,2132.0547,610,2136.0547,620,2140.0547,616,2136.0547" style="stroke:#000000;stroke-width:1.0;"/><line style="stroke:#000000;stroke-width:1.0;stroke-dasharray:2.0,2.0;" x1="614" x2="974" y1="2136.0547" y2="2136.0547"/><text fill="#000000" font-family="Verdana" font-size="13" lengthAdjust="spacing" textLength="284" x="626" y="2131.3252">IRealtimeCheckChangeClassificationService</text><polygon fill="#000000" points="442,2161.854,432,2165.854,442,2169.854,438,2165.854" style="stroke:#000000;stroke-width:1.0;"/><line style="stroke:#000000;stroke-width:1.0;stroke-dasharray:2.0,2.0;" x1="436" x2="603" y1="2165.854" y2="2165.854"/><text fill="#000000" font-family="Verdana" font-size="13" lengthAdjust="spacing" textLength="120" x="448" y="2161.1245">Task&lt;bool&gt; (true)</text><polygon fill="#000000" points="73,2207.4526,63,2211.4526,73,2215.4526,69,2211.4526" style="stroke:#000000;stroke-width:1.0;"/><line style="stroke:#000000;stroke-width:1.0;stroke-dasharray:2.0,2.0;" x1="67" x2="425" y1="2211.4526" y2="2211.4526"/><text fill="#000000" font-family="Verdana" font-size="13" lengthAdjust="spacing" textLength="87" x="79" y="2190.9238">HTTP 200 OK</text><text fill="#000000" font-family="Verdana" font-size="13" lengthAdjust="spacing" textLength="117" x="79" y="2206.7231">{ success: true }</text><!--SRC=[tLXjK-Cs4FxkNx7bIvCR0XpbKwQzAGrqxgwy5OTEPvfEHh4Nek98FaaES3VttxlocsJ7vc1efozy2BAy- -pgqUvgvQ_C4bS8QSAu20mt2S8biiHmcfmiCRgbNoPkw25XMlDh7Z73fO0HXFWXGn4X775sezWg25Xaf8Ajzt81ORJ4E4jGpSJW-DwW4YmPRW7JxasGCcLun5Cc36mruGbY9YPI62KJ4iqLtMDJit8tzxPmTcO1GbHh7c6kwnwVeEihFbthY1bs64MeTQxe7eEOXWkc4RR2dqzoH4lBGiQB-I-N-wSonYHNeOUZ7ppfqmUI9ngcuVnGHKk-BbmgnoGQr5p2w8t7pnWkpiCfxBAKxqPjNlMksdHVap_CHCkGVqIxZNpD3FgC1sviRJa-nt1yZr5cS50331s2ntlmDOG6KtWz1izmu2GiRWtgYGmyl1hCqt5Czwfvcn6uyOOo4MDS-7jO4yKfX3bhAUSRHWJyUZm1kqjdKgrOqepakOMR4joyIVVtPtXlmeW9WJ6XeXLvFJg0ywlfnTNKkLu4XP0qLFncQK1UbtD0Vo4b7CPmeMH4WQ1mdC-Eu0WDHWQYJ1kvGgNXZfib6CM4jiYKlr7XI2aV8WMuDNUAgmLjyPh2x8QI-w5yVuacKmBsQQ2pn8HeT64Au1LCoCexSIqr30hruUQh0Wq6nVzX2NkUcJGpS022o01DR41UU7GYZGvGn60N7kJhXL5hksfNyf3Qy64cdC3-kDUJcUZUY236rXuy4ZcdB0KZko8dp-w6fX_blGgUSJzswwXlfU1JSDfvI9nSfR6tvoTCcwcD4Cj2NruMAWtHGKtjDdJLWDem-GXlgO2LzYPLS1QHt5a4Cd7hRUtYmHd8bVAVHCeKVgI3XzQwB0JA-Ej63Mqc9mHHoDgDUn-Udyt4RvzoK_5sGGMFRj7O1NxUXfsTdTzhq2vqFngwEFf3In4QnSNDi5Rlsk8D6ryiLuMrGwrbnFEAK_5QEr1LhvbmL7u7pgCUM_KvurKucfjN-9x9UPEmUU4J5JcUpYkRCB0iTwpUdMVLgsQrstpVN_cgln5SC4Ldg3K9J2dsq7fTXdx7Me2EtmHRuhQ8DDVO4Y2YgLLQe354A2mvmIfdiwvarKIzfesg5cRDGF0oU9E8pftpOtqjUTm5zLZ4TUNCT4d15k-42M8wUBstqiEEpMfGGXhIcCIoGGcMAboZQ4hKZOwaVYYHBEwcYnu2J4ZiJ7PNZcQqLDMcNiqjJokzBD_qe672mlVMrNTTlK3ZUA_CFL9elwaBRNdqlBpG5a1FBBUbrMUNsrBlRosw__cQ-g-hdV-Jok9dVMS0Fo7hIxr_9kiFwgot_INO1XDiQwaVJ_Yg6VKlCkw-bhVipxWEzMCAr_J-XVUabhswx-XfiLzocsgQ8c0xstkjUkbzAcHhxBkcb5UPbARunwA5k9RANO_2XCVs6BpZ8fPtzJGrA8okqmcTZT9Iu1gnLt12fo4LoeI9o4v_uI9K9VRZDvQDv7tc7UDbMU47VUjRnPJfssyNKYPlO61KHcUP1-1_GF0_GTZLL1y_nl1sEhs0_RqzEFzf9Zw1pafcB1nyzl6yJnf_0W00]--></g></svg>