<svg xmlns="http://www.w3.org/2000/svg" xmlns:xlink="http://www.w3.org/1999/xlink" contentStyleType="text/css" height="1887px" preserveAspectRatio="none" style="width:1120px;height:1887px;background:#FFFFFF;" version="1.1" viewBox="0 0 1120 1887" width="1120px" zoomAndPan="magnify"><defs/><g><text fill="#000000" font-family="Verdana" font-size="22" font-weight="bold" lengthAdjust="spacing" textLength="680" x="218.5" y="37.1182">Realtime Check Change Classification - Database Flow</text><ellipse cx="540" cy="62.7373" fill="#FFFFFF" rx="10" ry="10" style="stroke:#000000;stroke-width:1.0;"/><rect fill="#FFFFFF" height="363.5884" style="stroke:#000000;stroke-width:1.0;" width="782" x="332" y="82.7373"/><path d="M495,82.7373 L495,92.752 L485,102.752 L332,102.752 " fill="none" style="stroke:#000000;stroke-width:1.0;"/><text fill="#000000" font-family="Verdana" font-size="14" lengthAdjust="spacing" textLength="153" x="335" y="97.8125">Step 1: CheckChange</text><path d="M758,112.752 L758,176.9492 L738,180.9492 L758,184.9492 L758,249.1465 A0,0 0 0 0 758,249.1465 L1104,249.1465 A0,0 0 0 0 1104,249.1465 L1104,122.752 L1094,112.752 L758,112.752 A0,0 0 0 0 758,112.752 " fill="#FFFFFF" style="stroke:#000000;stroke-width:1.0;"/><path d="M1094,112.752 L1094,122.752 L1104,122.752 L1094,112.752 " fill="#FFFFFF" style="stroke:#000000;stroke-width:1.0;"/><text fill="#000000" font-family="Verdana" font-size="13" font-weight="bold" lengthAdjust="spacing" textLength="69" x="764" y="130.8218">Database</text><text fill="#000000" font-family="Verdana" font-size="13" lengthAdjust="spacing" textLength="205" x="833" y="130.8218">: bodb_VR2Model (SQL Server)</text><text fill="#000000" font-family="Verdana" font-size="13" font-weight="bold" lengthAdjust="spacing" textLength="59" x="764" y="146.6211">Timeout</text><text fill="#000000" font-family="Verdana" font-size="13" lengthAdjust="spacing" textLength="125" x="823" y="146.6211">: 300-600 seconds</text><text fill="#000000" font-family="Verdana" font-size="13" lengthAdjust="spacing" textLength="5" x="764" y="162.4204">&#160;</text><text fill="#000000" font-family="Verdana" font-size="13" font-weight="bold" lengthAdjust="spacing" textLength="139" x="764" y="178.2197">Output Parameters</text><text fill="#000000" font-family="Verdana" font-size="13" lengthAdjust="spacing" textLength="6" x="903" y="178.2197">:</text><text fill="#000000" font-family="Verdana" font-size="13" lengthAdjust="spacing" textLength="325" x="764" y="194.019">- @NextScannedDateTime1 (DateTime, OUTPUT)</text><text fill="#000000" font-family="Verdana" font-size="13" lengthAdjust="spacing" textLength="325" x="764" y="209.8184">- @NextScannedDateTime2 (DateTime, OUTPUT)</text><text fill="#000000" font-family="Verdana" font-size="13" lengthAdjust="spacing" textLength="325" x="764" y="225.6177">- @NextScannedDateTime3 (DateTime, OUTPUT)</text><text fill="#000000" font-family="Verdana" font-size="13" lengthAdjust="spacing" textLength="325" x="764" y="241.417">- @NextScannedDateTime4 (DateTime, OUTPUT)</text><rect fill="#FFFFFF" height="34.584" rx="12.5" ry="12.5" style="stroke:#000000;stroke-width:1.0;" width="396" x="342" y="163.6572"/><text fill="#000000" font-family="Verdana" font-size="12" lengthAdjust="spacing" textLength="376" x="352" y="185.7217">Call SP: CTS_NormalClassification_RealTime_CheckChanges</text><path d="M632.5,259.1465 L632.5,315.4441 L612.5,319.4441 L632.5,323.4441 L632.5,379.7417 A0,0 0 0 0 632.5,379.7417 L940.5,379.7417 A0,0 0 0 0 940.5,379.7417 L940.5,269.1465 L930.5,259.1465 L632.5,259.1465 A0,0 0 0 0 632.5,259.1465 " fill="#FFFFFF" style="stroke:#000000;stroke-width:1.0;"/><path d="M930.5,259.1465 L930.5,269.1465 L940.5,269.1465 L930.5,259.1465 " fill="#FFFFFF" style="stroke:#000000;stroke-width:1.0;"/><text fill="#000000" font-family="Verdana" font-size="13" font-weight="bold" lengthAdjust="spacing" textLength="238" x="638.5" y="277.2163">ResultSet 1: CustInfos (Member)</text><text fill="#000000" font-family="Verdana" font-size="13" lengthAdjust="spacing" textLength="89" x="638.5" y="293.0156">- CustId (int)</text><text fill="#000000" font-family="Verdana" font-size="13" lengthAdjust="spacing" textLength="191" x="638.5" y="308.8149">- LastTicketDate (DateTime)</text><text fill="#000000" font-family="Verdana" font-size="13" lengthAdjust="spacing" textLength="5" x="638.5" y="324.6143">&#160;</text><text fill="#000000" font-family="Verdana" font-size="13" font-weight="bold" lengthAdjust="spacing" textLength="287" x="638.5" y="340.4136">ResultSet 2: CustInfosAgency (Agency)</text><text fill="#000000" font-family="Verdana" font-size="13" lengthAdjust="spacing" textLength="89" x="638.5" y="356.2129">- CustId (int)</text><text fill="#000000" font-family="Verdana" font-size="13" lengthAdjust="spacing" textLength="191" x="638.5" y="372.0122">- LastTicketDate (DateTime)</text><rect fill="#FFFFFF" height="34.584" rx="12.5" ry="12.5" style="stroke:#000000;stroke-width:1.0;" width="145" x="467.5" y="302.1521"/><text fill="#000000" font-family="Verdana" font-size="12" lengthAdjust="spacing" textLength="125" x="477.5" y="324.2166">Return 2 ResultSets</text><rect fill="#FFFFFF" height="34.584" rx="12.5" ry="12.5" style="stroke:#000000;stroke-width:1.0;" width="231" x="424.5" y="399.7417"/><text fill="#000000" font-family="Verdana" font-size="12" lengthAdjust="spacing" textLength="211" x="434.5" y="421.8062">Extract NextScannedDateTime1-4</text><rect fill="#FFFFFF" height="577.7563" style="stroke:#000000;stroke-width:1.0;" width="890" x="6" y="456.3257"/><path d="M292,456.3257 L292,466.3403 L282,476.3403 L6,476.3403 " fill="none" style="stroke:#000000;stroke-width:1.0;"/><text fill="#000000" font-family="Verdana" font-size="14" lengthAdjust="spacing" textLength="276" x="9" y="471.4009">Step 2: Update Member LastTransDate</text><polygon fill="#FFFFFF" points="468.5,493.3403,611.5,493.3403,623.5,505.3403,611.5,517.3403,468.5,517.3403,456.5,505.3403,468.5,493.3403" style="stroke:#000000;stroke-width:1.0;"/><text fill="#000000" font-family="Verdana" font-size="11" lengthAdjust="spacing" textLength="143" x="468.5" y="509.7151">Has Member Customers?</text><text fill="#000000" font-family="Verdana" font-size="11" lengthAdjust="spacing" textLength="20" x="436.5" y="503.0308">yes</text><text fill="#000000" font-family="Verdana" font-size="11" lengthAdjust="spacing" textLength="14" x="623.5" y="503.0308">no</text><rect fill="#FFFFFF" height="34.584" rx="12.5" ry="12.5" style="stroke:#000000;stroke-width:1.0;" width="207" x="123.5" y="527.3403"/><text fill="#000000" font-family="Verdana" font-size="12" lengthAdjust="spacing" textLength="187" x="133.5" y="549.4048">Chunk CustInfos into batches</text><path d="M310,626.5083 L310,674.9063 L290,678.9063 L310,682.9063 L310,731.3042 A0,0 0 0 0 310,731.3042 L734,731.3042 A0,0 0 0 0 734,731.3042 L734,636.5083 L724,626.5083 L310,626.5083 A0,0 0 0 0 310,626.5083 " fill="#FFFFFF" style="stroke:#000000;stroke-width:1.0;"/><path d="M724,626.5083 L724,636.5083 L734,636.5083 L724,626.5083 " fill="#FFFFFF" style="stroke:#000000;stroke-width:1.0;"/><text fill="#000000" font-family="Verdana" font-size="13" lengthAdjust="spacing" textLength="91" x="316" y="644.5781">JSON Format:</text><text fill="#000000" font-family="Verdana" font-size="13" lengthAdjust="spacing" textLength="6" x="316" y="660.3774">[</text><text fill="#000000" font-family="Verdana" font-size="13" lengthAdjust="spacing" textLength="393" x="326" y="676.1768">{"CustId": 123, "LastTicketDate": "2024-01-01 10:00:00"},</text><text fill="#000000" font-family="Verdana" font-size="13" lengthAdjust="spacing" textLength="393" x="326" y="691.9761">{"CustId": 456, "LastTicketDate": "2024-01-01 11:00:00"},</text><text fill="#000000" font-family="Verdana" font-size="13" lengthAdjust="spacing" textLength="15" x="326" y="707.7754">...</text><text fill="#000000" font-family="Verdana" font-size="13" lengthAdjust="spacing" textLength="6" x="316" y="723.5747">]</text><rect fill="#FFFFFF" height="34.584" rx="12.5" ry="12.5" style="stroke:#000000;stroke-width:1.0;" width="126" x="164" y="661.6143"/><text fill="#000000" font-family="Verdana" font-size="12" lengthAdjust="spacing" textLength="106" x="174" y="683.6787">Serialize to JSON</text><path d="M456,741.3042 L456,813.4011 L436,817.4011 L456,821.4011 L456,893.498 A0,0 0 0 0 456,893.498 L786,893.498 A0,0 0 0 0 786,893.498 L786,751.3042 L776,741.3042 L456,741.3042 A0,0 0 0 0 456,741.3042 " fill="#FFFFFF" style="stroke:#000000;stroke-width:1.0;"/><path d="M776,741.3042 L776,751.3042 L786,751.3042 L776,741.3042 " fill="#FFFFFF" style="stroke:#000000;stroke-width:1.0;"/><text fill="#000000" font-family="Verdana" font-size="13" font-weight="bold" lengthAdjust="spacing" textLength="69" x="462" y="759.374">Database</text><text fill="#000000" font-family="Verdana" font-size="13" lengthAdjust="spacing" textLength="157" x="531" y="759.374">: CTS_Archive (MySQL)</text><text fill="#000000" font-family="Verdana" font-size="13" font-weight="bold" lengthAdjust="spacing" textLength="85" x="462" y="775.1733">Parameters</text><text fill="#000000" font-family="Verdana" font-size="13" lengthAdjust="spacing" textLength="6" x="547" y="775.1733">:</text><text fill="#000000" font-family="Verdana" font-size="13" lengthAdjust="spacing" textLength="193" x="462" y="790.9727">- @ip_CustInfo (JSON string)</text><text fill="#000000" font-family="Verdana" font-size="13" lengthAdjust="spacing" textLength="5" x="462" y="806.772">&#160;</text><text fill="#000000" font-family="Verdana" font-size="13" font-weight="bold" lengthAdjust="spacing" textLength="38" x="462" y="822.5713">Logic</text><text fill="#000000" font-family="Verdana" font-size="13" lengthAdjust="spacing" textLength="6" x="500" y="822.5713">:</text><text fill="#000000" font-family="Verdana" font-size="13" lengthAdjust="spacing" textLength="126" x="462" y="838.3706">- Parse JSON array</text><text fill="#000000" font-family="Verdana" font-size="13" lengthAdjust="spacing" textLength="206" x="462" y="854.1699">- UPDATE CustomerAssociation</text><text fill="#000000" font-family="Verdana" font-size="13" lengthAdjust="spacing" textLength="299" x="472" y="869.9692">SET LastTicketDate = parsed.LastTicketDate</text><text fill="#000000" font-family="Verdana" font-size="13" lengthAdjust="spacing" textLength="205" x="472" y="885.7686">WHERE CustId = parsed.CustId</text><rect fill="#FFFFFF" height="34.584" rx="12.5" ry="12.5" style="stroke:#000000;stroke-width:1.0;" width="418" x="18" y="800.1091"/><text fill="#000000" font-family="Verdana" font-size="12" lengthAdjust="spacing" textLength="398" x="28" y="822.1736">Call SP: CTS_Arc_CustomerAssociation_LastTicketDate_Update</text><rect fill="#FFFFFF" height="34.584" rx="12.5" ry="12.5" style="stroke:#000000;stroke-width:1.0;" width="93" x="180.5" y="913.498"/><text fill="#000000" font-family="Verdana" font-size="12" lengthAdjust="spacing" textLength="73" x="190.5" y="935.5625">Sleep 10ms</text><rect fill="#FFFFFF" height="34.584" rx="12.5" ry="12.5" style="stroke:#000000;stroke-width:1.0;" width="113" x="170.5" y="581.9243"/><text fill="#000000" font-family="Verdana" font-size="12" lengthAdjust="spacing" textLength="93" x="180.5" y="603.9888">For each batch</text><polygon fill="#FFFFFF" points="186,968.082,268,968.082,280,980.082,268,992.082,186,992.082,174,980.082,186,968.082" style="stroke:#000000;stroke-width:1.0;"/><text fill="#000000" font-family="Verdana" font-size="11" lengthAdjust="spacing" textLength="82" x="186" y="984.4568">More batches?</text><rect fill="#FFFFFF" height="34.584" rx="12.5" ry="12.5" style="stroke:#000000;stroke-width:1.0;" width="46" x="830" y="527.3403"/><text fill="#000000" font-family="Verdana" font-size="12" lengthAdjust="spacing" textLength="26" x="840" y="549.4048">Skip</text><polygon fill="#FFFFFF" points="540,998.082,552,1010.082,540,1022.082,528,1010.082,540,998.082" style="stroke:#000000;stroke-width:1.0;"/><rect fill="#FFFFFF" height="413.4419" style="stroke:#000000;stroke-width:1.0;" width="761" x="66.5" y="1044.082"/><path d="M348.5,1044.082 L348.5,1054.0967 L338.5,1064.0967 L66.5,1064.0967 " fill="none" style="stroke:#000000;stroke-width:1.0;"/><text fill="#000000" font-family="Verdana" font-size="14" lengthAdjust="spacing" textLength="272" x="69.5" y="1059.1572">Step 3: Update Agency LastTransDate</text><polygon fill="#FFFFFF" points="470.5,1081.0967,609.5,1081.0967,621.5,1093.0967,609.5,1105.0967,470.5,1105.0967,458.5,1093.0967,470.5,1081.0967" style="stroke:#000000;stroke-width:1.0;"/><text fill="#000000" font-family="Verdana" font-size="11" lengthAdjust="spacing" textLength="139" x="470.5" y="1097.4714">Has Agency Customers?</text><text fill="#000000" font-family="Verdana" font-size="11" lengthAdjust="spacing" textLength="20" x="438.5" y="1090.7871">yes</text><text fill="#000000" font-family="Verdana" font-size="11" lengthAdjust="spacing" textLength="14" x="621.5" y="1090.7871">no</text><rect fill="#FFFFFF" height="34.584" rx="12.5" ry="12.5" style="stroke:#000000;stroke-width:1.0;" width="252" x="169.5" y="1115.0967"/><text fill="#000000" font-family="Verdana" font-size="12" lengthAdjust="spacing" textLength="232" x="179.5" y="1137.1611">Chunk CustInfosAgency into batches</text><rect fill="#FFFFFF" height="34.584" rx="12.5" ry="12.5" style="stroke:#000000;stroke-width:1.0;" width="126" x="232.5" y="1224.2646"/><text fill="#000000" font-family="Verdana" font-size="12" lengthAdjust="spacing" textLength="106" x="242.5" y="1246.3291">Serialize to JSON</text><path d="M524.5,1275.3413 L524.5,1292.1406 L504.5,1296.1406 L524.5,1300.1406 L524.5,1316.9399 A0,0 0 0 0 524.5,1316.9399 L717.5,1316.9399 A0,0 0 0 0 717.5,1316.9399 L717.5,1285.3413 L707.5,1275.3413 L524.5,1275.3413 A0,0 0 0 0 524.5,1275.3413 " fill="#FFFFFF" style="stroke:#000000;stroke-width:1.0;"/><path d="M707.5,1275.3413 L707.5,1285.3413 L717.5,1285.3413 L707.5,1275.3413 " fill="#FFFFFF" style="stroke:#000000;stroke-width:1.0;"/><text fill="#000000" font-family="Verdana" font-size="13" font-weight="bold" lengthAdjust="spacing" textLength="134" x="530.5" y="1293.4111">Same SP as Step 2</text><text fill="#000000" font-family="Verdana" font-size="13" lengthAdjust="spacing" textLength="172" x="530.5" y="1309.2104">but for Agency customers</text><rect fill="#FFFFFF" height="34.584" rx="12.5" ry="12.5" style="stroke:#000000;stroke-width:1.0;" width="418" x="86.5" y="1278.8486"/><text fill="#000000" font-family="Verdana" font-size="12" lengthAdjust="spacing" textLength="398" x="96.5" y="1300.9131">Call SP: CTS_Arc_CustomerAssociation_LastTicketDate_Update</text><rect fill="#FFFFFF" height="34.584" rx="12.5" ry="12.5" style="stroke:#000000;stroke-width:1.0;" width="93" x="249" y="1336.9399"/><text fill="#000000" font-family="Verdana" font-size="12" lengthAdjust="spacing" textLength="73" x="259" y="1359.0044">Sleep 10ms</text><rect fill="#FFFFFF" height="34.584" rx="12.5" ry="12.5" style="stroke:#000000;stroke-width:1.0;" width="113" x="239" y="1169.6807"/><text fill="#000000" font-family="Verdana" font-size="12" lengthAdjust="spacing" textLength="93" x="249" y="1191.7451">For each batch</text><polygon fill="#FFFFFF" points="254.5,1391.5239,336.5,1391.5239,348.5,1403.5239,336.5,1415.5239,254.5,1415.5239,242.5,1403.5239,254.5,1391.5239" style="stroke:#000000;stroke-width:1.0;"/><text fill="#000000" font-family="Verdana" font-size="11" lengthAdjust="spacing" textLength="82" x="254.5" y="1407.8987">More batches?</text><rect fill="#FFFFFF" height="34.584" rx="12.5" ry="12.5" style="stroke:#000000;stroke-width:1.0;" width="46" x="761.5" y="1115.0967"/><text fill="#000000" font-family="Verdana" font-size="12" lengthAdjust="spacing" textLength="26" x="771.5" y="1137.1611">Skip</text><polygon fill="#FFFFFF" points="540,1421.5239,552,1433.5239,540,1445.5239,528,1433.5239,540,1421.5239" style="stroke:#000000;stroke-width:1.0;"/><rect fill="#FFFFFF" height="257.4058" style="stroke:#000000;stroke-width:1.0;" width="807" x="300" y="1467.5239"/><path d="M541,1467.5239 L541,1477.5386 L531,1487.5386 L300,1487.5386 " fill="none" style="stroke:#000000;stroke-width:1.0;"/><text fill="#000000" font-family="Verdana" font-size="14" lengthAdjust="spacing" textLength="231" x="303" y="1482.5991">Step 4: Update Next Scan Times</text><path d="M790,1497.5386 L790,1601.2341 L770,1605.2341 L790,1609.2341 L790,1712.9297 A0,0 0 0 0 790,1712.9297 L1097,1712.9297 A0,0 0 0 0 1097,1712.9297 L1097,1507.5386 L1087,1497.5386 L790,1497.5386 A0,0 0 0 0 790,1497.5386 " fill="#FFFFFF" style="stroke:#000000;stroke-width:1.0;"/><path d="M1087,1497.5386 L1087,1507.5386 L1097,1507.5386 L1087,1497.5386 " fill="#FFFFFF" style="stroke:#000000;stroke-width:1.0;"/><text fill="#000000" font-family="Verdana" font-size="13" font-weight="bold" lengthAdjust="spacing" textLength="69" x="796" y="1515.6084">Database</text><text fill="#000000" font-family="Verdana" font-size="13" lengthAdjust="spacing" textLength="205" x="865" y="1515.6084">: bodb_VR2Model (SQL Server)</text><text fill="#000000" font-family="Verdana" font-size="13" font-weight="bold" lengthAdjust="spacing" textLength="59" x="796" y="1531.4077">Timeout</text><text fill="#000000" font-family="Verdana" font-size="13" lengthAdjust="spacing" textLength="94" x="855" y="1531.4077">: 300 seconds</text><text fill="#000000" font-family="Verdana" font-size="13" lengthAdjust="spacing" textLength="5" x="796" y="1547.207">&#160;</text><text fill="#000000" font-family="Verdana" font-size="13" font-weight="bold" lengthAdjust="spacing" textLength="85" x="796" y="1563.0063">Parameters</text><text fill="#000000" font-family="Verdana" font-size="13" lengthAdjust="spacing" textLength="6" x="881" y="1563.0063">:</text><text fill="#000000" font-family="Verdana" font-size="13" lengthAdjust="spacing" textLength="261" x="796" y="1578.8057">- @NextScannedDateTime1 (DateTime)</text><text fill="#000000" font-family="Verdana" font-size="13" lengthAdjust="spacing" textLength="261" x="796" y="1594.605">- @NextScannedDateTime2 (DateTime)</text><text fill="#000000" font-family="Verdana" font-size="13" lengthAdjust="spacing" textLength="261" x="796" y="1610.4043">- @NextScannedDateTime3 (DateTime)</text><text fill="#000000" font-family="Verdana" font-size="13" lengthAdjust="spacing" textLength="261" x="796" y="1626.2036">- @NextScannedDateTime4 (DateTime)</text><text fill="#000000" font-family="Verdana" font-size="13" lengthAdjust="spacing" textLength="5" x="796" y="1642.0029">&#160;</text><text fill="#000000" font-family="Verdana" font-size="13" font-weight="bold" lengthAdjust="spacing" textLength="38" x="796" y="1657.8022">Logic</text><text fill="#000000" font-family="Verdana" font-size="13" lengthAdjust="spacing" textLength="6" x="834" y="1657.8022">:</text><text fill="#000000" font-family="Verdana" font-size="13" lengthAdjust="spacing" textLength="281" x="796" y="1673.6016">- Update SystemParameter or similar table</text><text fill="#000000" font-family="Verdana" font-size="13" lengthAdjust="spacing" textLength="220" x="796" y="1689.4009">- Save 4 time slots for next scan</text><text fill="#000000" font-family="Verdana" font-size="13" lengthAdjust="spacing" textLength="286" x="796" y="1705.2002">- Enable sliding window or parallel scanning</text><rect fill="#FFFFFF" height="34.584" rx="12.5" ry="12.5" style="stroke:#000000;stroke-width:1.0;" width="460" x="310" y="1587.9421"/><text fill="#000000" font-family="Verdana" font-size="12" lengthAdjust="spacing" textLength="440" x="320" y="1610.0066">Call SP: CTS_NormalClassification_RealTime_UpdateNextScannedTime</text><path d="M600,1734.9297 L600,1783.3276 L580,1787.3276 L600,1791.3276 L600,1839.7256 A0,0 0 0 0 600,1839.7256 L986,1839.7256 A0,0 0 0 0 986,1839.7256 L986,1744.9297 L976,1734.9297 L600,1734.9297 A0,0 0 0 0 600,1734.9297 " fill="#FFFFFF" style="stroke:#000000;stroke-width:1.0;"/><path d="M976,1734.9297 L976,1744.9297 L986,1744.9297 L976,1734.9297 " fill="#FFFFFF" style="stroke:#000000;stroke-width:1.0;"/><text fill="#000000" font-family="Verdana" font-size="13" font-weight="bold" lengthAdjust="spacing" textLength="76" x="606" y="1752.9995">Key Points</text><text fill="#000000" font-family="Verdana" font-size="13" lengthAdjust="spacing" textLength="6" x="682" y="1752.9995">:</text><text fill="#000000" font-family="Verdana" font-size="13" lengthAdjust="spacing" textLength="13" x="606" y="1768.7988">1.</text><text fill="#000000" font-family="Verdana" font-size="13" font-weight="bold" lengthAdjust="spacing" textLength="90" x="624" y="1768.7988">2 Databases</text><text fill="#000000" font-family="Verdana" font-size="13" lengthAdjust="spacing" textLength="257" x="714" y="1768.7988">: VR2 (SQL Server) + Archive (MySQL)</text><text fill="#000000" font-family="Verdana" font-size="13" lengthAdjust="spacing" textLength="13" x="606" y="1784.5981">2.</text><text fill="#000000" font-family="Verdana" font-size="13" font-weight="bold" lengthAdjust="spacing" textLength="125" x="624" y="1784.5981">Batch Processing</text><text fill="#000000" font-family="Verdana" font-size="13" lengthAdjust="spacing" textLength="196" x="749" y="1784.5981">: Prevents database overload</text><text fill="#000000" font-family="Verdana" font-size="13" lengthAdjust="spacing" textLength="13" x="606" y="1800.3975">3.</text><text fill="#000000" font-family="Verdana" font-size="13" font-weight="bold" lengthAdjust="spacing" textLength="70" x="624" y="1800.3975">Throttling</text><text fill="#000000" font-family="Verdana" font-size="13" lengthAdjust="spacing" textLength="204" x="694" y="1800.3975">: 10ms sleep between batches</text><text fill="#000000" font-family="Verdana" font-size="13" lengthAdjust="spacing" textLength="13" x="606" y="1816.1968">4.</text><text fill="#000000" font-family="Verdana" font-size="13" font-weight="bold" lengthAdjust="spacing" textLength="131" x="624" y="1816.1968">JSON Serialization</text><text fill="#000000" font-family="Verdana" font-size="13" lengthAdjust="spacing" textLength="166" x="755" y="1816.1968">: Efficient batch updates</text><text fill="#000000" font-family="Verdana" font-size="13" lengthAdjust="spacing" textLength="13" x="606" y="1831.9961">5.</text><text fill="#000000" font-family="Verdana" font-size="13" font-weight="bold" lengthAdjust="spacing" textLength="88" x="624" y="1831.9961">4 Time Slots</text><text fill="#000000" font-family="Verdana" font-size="13" lengthAdjust="spacing" textLength="234" x="712" y="1831.9961">: Advanced scheduling optimization</text><rect fill="#FFFFFF" height="34.584" rx="12.5" ry="12.5" style="stroke:#000000;stroke-width:1.0;" width="80" x="500" y="1770.0356"/><text fill="#000000" font-family="Verdana" font-size="12" lengthAdjust="spacing" textLength="60" x="510" y="1792.1001">Complete</text><ellipse cx="540" cy="1870.7256" fill="none" rx="11" ry="11" style="stroke:#000000;stroke-width:1.0;"/><ellipse cx="540" cy="1870.7256" fill="#FFFFFF" rx="6" ry="6" style="stroke:#000000;stroke-width:1.0;"/><line style="stroke:#000000;stroke-width:1.0;" x1="540" x2="540" y1="198.2412" y2="302.1521"/><polygon fill="#000000" points="536,292.1521,540,302.1521,544,292.1521,540,296.1521" style="stroke:#000000;stroke-width:1.0;"/><line style="stroke:#000000;stroke-width:1.0;" x1="540" x2="540" y1="336.7361" y2="399.7417"/><polygon fill="#000000" points="536,389.7417,540,399.7417,544,389.7417,540,393.7417" style="stroke:#000000;stroke-width:1.0;"/><line style="stroke:#000000;stroke-width:1.0;" x1="540" x2="540" y1="72.7373" y2="163.6572"/><polygon fill="#000000" points="536,153.6572,540,163.6572,544,153.6572,540,157.6572" style="stroke:#000000;stroke-width:1.0;"/><line style="stroke:#000000;stroke-width:1.0;" x1="227" x2="227" y1="696.1982" y2="800.1091"/><polygon fill="#000000" points="223,790.1091,227,800.1091,231,790.1091,227,794.1091" style="stroke:#000000;stroke-width:1.0;"/><line style="stroke:#000000;stroke-width:1.0;" x1="227" x2="227" y1="834.6931" y2="913.498"/><polygon fill="#000000" points="223,903.498,227,913.498,231,903.498,227,907.498" style="stroke:#000000;stroke-width:1.0;"/><line style="stroke:#000000;stroke-width:1.0;" x1="227" x2="227" y1="616.5083" y2="661.6143"/><polygon fill="#000000" points="223,651.6143,227,661.6143,231,651.6143,227,655.6143" style="stroke:#000000;stroke-width:1.0;"/><line style="stroke:#000000;stroke-width:1.0;" x1="280" x2="798" y1="980.082" y2="980.082"/><polygon fill="#000000" points="794,789.6492,798,779.6492,802,789.6492,798,785.6492" style="stroke:#000000;stroke-width:1.0;"/><line style="stroke:#000000;stroke-width:1.0;" x1="798" x2="798" y1="599.2163" y2="980.082"/><line style="stroke:#000000;stroke-width:1.0;" x1="798" x2="283.5" y1="599.2163" y2="599.2163"/><polygon fill="#000000" points="293.5,595.2163,283.5,599.2163,293.5,603.2163,289.5,599.2163" style="stroke:#000000;stroke-width:1.0;"/><line style="stroke:#000000;stroke-width:1.0;" x1="227" x2="227" y1="948.082" y2="968.082"/><polygon fill="#000000" points="223,958.082,227,968.082,231,958.082,227,962.082" style="stroke:#000000;stroke-width:1.0;"/><line style="stroke:#000000;stroke-width:1.0;" x1="227" x2="227" y1="561.9243" y2="581.9243"/><polygon fill="#000000" points="223,571.9243,227,581.9243,231,571.9243,227,575.9243" style="stroke:#000000;stroke-width:1.0;"/><line style="stroke:#000000;stroke-width:1.0;" x1="456.5" x2="227" y1="505.3403" y2="505.3403"/><line style="stroke:#000000;stroke-width:1.0;" x1="227" x2="227" y1="505.3403" y2="527.3403"/><polygon fill="#000000" points="223,517.3403,227,527.3403,231,517.3403,227,521.3403" style="stroke:#000000;stroke-width:1.0;"/><line style="stroke:#000000;stroke-width:1.0;" x1="623.5" x2="853" y1="505.3403" y2="505.3403"/><line style="stroke:#000000;stroke-width:1.0;" x1="853" x2="853" y1="505.3403" y2="527.3403"/><polygon fill="#000000" points="849,517.3403,853,527.3403,857,517.3403,853,521.3403" style="stroke:#000000;stroke-width:1.0;"/><line style="stroke:#000000;stroke-width:1.0;" x1="227" x2="227" y1="992.082" y2="1010.082"/><line style="stroke:#000000;stroke-width:1.0;" x1="227" x2="528" y1="1010.082" y2="1010.082"/><polygon fill="#000000" points="518,1006.082,528,1010.082,518,1014.082,522,1010.082" style="stroke:#000000;stroke-width:1.0;"/><line style="stroke:#000000;stroke-width:1.0;" x1="853" x2="853" y1="561.9243" y2="1010.082"/><line style="stroke:#000000;stroke-width:1.0;" x1="853" x2="552" y1="1010.082" y2="1010.082"/><polygon fill="#000000" points="562,1006.082,552,1010.082,562,1014.082,558,1010.082" style="stroke:#000000;stroke-width:1.0;"/><line style="stroke:#000000;stroke-width:1.0;" x1="540" x2="540" y1="434.3257" y2="493.3403"/><polygon fill="#000000" points="536,483.3403,540,493.3403,544,483.3403,540,487.3403" style="stroke:#000000;stroke-width:1.0;"/><line style="stroke:#000000;stroke-width:1.0;" x1="295.5" x2="295.5" y1="1258.8486" y2="1278.8486"/><polygon fill="#000000" points="291.5,1268.8486,295.5,1278.8486,299.5,1268.8486,295.5,1272.8486" style="stroke:#000000;stroke-width:1.0;"/><line style="stroke:#000000;stroke-width:1.0;" x1="295.5" x2="295.5" y1="1313.4326" y2="1336.9399"/><polygon fill="#000000" points="291.5,1326.9399,295.5,1336.9399,299.5,1326.9399,295.5,1330.9399" style="stroke:#000000;stroke-width:1.0;"/><line style="stroke:#000000;stroke-width:1.0;" x1="295.5" x2="295.5" y1="1204.2646" y2="1224.2646"/><polygon fill="#000000" points="291.5,1214.2646,295.5,1224.2646,299.5,1214.2646,295.5,1218.2646" style="stroke:#000000;stroke-width:1.0;"/><line style="stroke:#000000;stroke-width:1.0;" x1="348.5" x2="729.5" y1="1403.5239" y2="1403.5239"/><polygon fill="#000000" points="725.5,1303.4946,729.5,1293.4946,733.5,1303.4946,729.5,1299.4946" style="stroke:#000000;stroke-width:1.0;"/><line style="stroke:#000000;stroke-width:1.0;" x1="729.5" x2="729.5" y1="1186.9727" y2="1403.5239"/><line style="stroke:#000000;stroke-width:1.0;" x1="729.5" x2="352" y1="1186.9727" y2="1186.9727"/><polygon fill="#000000" points="362,1182.9727,352,1186.9727,362,1190.9727,358,1186.9727" style="stroke:#000000;stroke-width:1.0;"/><line style="stroke:#000000;stroke-width:1.0;" x1="295.5" x2="295.5" y1="1371.5239" y2="1391.5239"/><polygon fill="#000000" points="291.5,1381.5239,295.5,1391.5239,299.5,1381.5239,295.5,1385.5239" style="stroke:#000000;stroke-width:1.0;"/><line style="stroke:#000000;stroke-width:1.0;" x1="295.5" x2="295.5" y1="1149.6807" y2="1169.6807"/><polygon fill="#000000" points="291.5,1159.6807,295.5,1169.6807,299.5,1159.6807,295.5,1163.6807" style="stroke:#000000;stroke-width:1.0;"/><line style="stroke:#000000;stroke-width:1.0;" x1="458.5" x2="295.5" y1="1093.0967" y2="1093.0967"/><line style="stroke:#000000;stroke-width:1.0;" x1="295.5" x2="295.5" y1="1093.0967" y2="1115.0967"/><polygon fill="#000000" points="291.5,1105.0967,295.5,1115.0967,299.5,1105.0967,295.5,1109.0967" style="stroke:#000000;stroke-width:1.0;"/><line style="stroke:#000000;stroke-width:1.0;" x1="621.5" x2="784.5" y1="1093.0967" y2="1093.0967"/><line style="stroke:#000000;stroke-width:1.0;" x1="784.5" x2="784.5" y1="1093.0967" y2="1115.0967"/><polygon fill="#000000" points="780.5,1105.0967,784.5,1115.0967,788.5,1105.0967,784.5,1109.0967" style="stroke:#000000;stroke-width:1.0;"/><line style="stroke:#000000;stroke-width:1.0;" x1="295.5" x2="295.5" y1="1415.5239" y2="1433.5239"/><line style="stroke:#000000;stroke-width:1.0;" x1="295.5" x2="528" y1="1433.5239" y2="1433.5239"/><polygon fill="#000000" points="518,1429.5239,528,1433.5239,518,1437.5239,522,1433.5239" style="stroke:#000000;stroke-width:1.0;"/><line style="stroke:#000000;stroke-width:1.0;" x1="784.5" x2="784.5" y1="1149.6807" y2="1433.5239"/><line style="stroke:#000000;stroke-width:1.0;" x1="784.5" x2="552" y1="1433.5239" y2="1433.5239"/><polygon fill="#000000" points="562,1429.5239,552,1433.5239,562,1437.5239,558,1433.5239" style="stroke:#000000;stroke-width:1.0;"/><line style="stroke:#000000;stroke-width:1.0;" x1="540" x2="540" y1="1022.082" y2="1081.0967"/><polygon fill="#000000" points="536,1071.0967,540,1081.0967,544,1071.0967,540,1075.0967" style="stroke:#000000;stroke-width:1.0;"/><line style="stroke:#000000;stroke-width:1.0;" x1="540" x2="540" y1="1445.5239" y2="1587.9421"/><polygon fill="#000000" points="536,1577.9421,540,1587.9421,544,1577.9421,540,1581.9421" style="stroke:#000000;stroke-width:1.0;"/><line style="stroke:#000000;stroke-width:1.0;" x1="540" x2="540" y1="1622.5261" y2="1770.0356"/><polygon fill="#000000" points="536,1760.0356,540,1770.0356,544,1760.0356,540,1764.0356" style="stroke:#000000;stroke-width:1.0;"/><line style="stroke:#000000;stroke-width:1.0;" x1="540" x2="540" y1="1804.6196" y2="1859.7256"/><polygon fill="#000000" points="536,1849.7256,540,1859.7256,544,1849.7256,540,1853.7256" style="stroke:#000000;stroke-width:1.0;"/><!--SRC=[nLPRR-9657xdLvpo13GWRhiFZgejpH9jsrpOcBGFLOK6-u17CJFMp12MhlQ_xpc-nIOaJTgkQbbWpvplpBb-Fj-v23S8IIoaQZZfOeGR5B6Jj7WMON17lqAjwIKMrigL38IJMa4NtWidbi8YdCTwrsXO9unhD1BwbQb4qtUOmC3Br6HQcl2v0U2TYJW6VqPRStznfSr6n7Nr2xPXJZOiAc1xIbYb7OAHwyZH2r-TJc58f-F1KeVBnMytmqiTOWmj_-C5-6ZkqRHBSLQhjuwbH_r-zss_3nO3hKARYvIIrrkNR1tCX14RT6WiOVBDBlnuXP-S7mYbC2GBaDKEe5Kydi3rxNnsEsy_2nY-5Z1wBM1y780gJ4FPIDtrRj1jZO8XvTvkO-UZUohOfK2QsQrrFwkLjj2wnCsIejpfbDQaco6qf78F9bu8w-Ook4F7LZtOrZwC_SCvmyevapMgO0-jxFzVdNOGWUadPqJWu5XMk-FJnfV7fKs6tIOXAywSpuupGbb6PgKkLz3w86mXmLRg3LNIkpPGuobexT5czdfdqLRTLK9AdcXO2XT4MUNdmJ6Oe73WdMi3A88e4ybTzgZOfOZbNmW4_iM_lZhDTnwbaYyMW7FkF-TLbl-eF0DyRcQnRNem68vEe5cFAYqtX_tXkDiVq0s3ljVdk_dbv2ajupTl_rRBuBYMNgzNUVypVwwaib93TPQPc61HH7zYhGvaHZHrCnPPGfyDMfrmSjsHlAVwkjmJuRHhiiV88-zMcIoAR4ChJOLrHgfrLK5DruLUo-1G3Hr079p2XJ5YNzkydRsVpATmnF5QMFtf_B1NVe245OUz-deDzlk7wSsqwBmIaBq_dne_Hlusz3TvPUT5lOjap67K1elAVvVsQamkjfJEEyM_aybfri9oTQmpHsLdveJnJ6Vc4g_ep1pnt_RdDozQdygG50EvdB5NIPvyBUaxjoABSz-28Xh_Qnh7PHgPbO5f6PYGxUl7Y4nFXTnvzLlC4q_D4lzeY7ZnyF3YeU75myAZ3_81-NIBrFXxwt1JkWTKH5PkP2mCK1XZBELzGHGvXdIojB5sDYqunPcrP4OfDrKC8n4P4Xd2JgfGxrWjbGSbdDB0uehsgbznAX_lJ6-I6BaJQbdjT7x5FSmqDMmU_46F5eVb1CkhG4ckvHU-XyUyFcJWJrpIC3CwGAerjMRqpE0zadu8YwbOav9O2oR24QFcaT7EnRayzmovoEspHBT38foyKqX-pF8fenTqaLOpuwOhgcr99sNYi4sJmA0t31gd_G4-XvV59-6zK0665B88mosV3ZgX5EGg6sNyQ7xNIUCh]--></g></svg>