<svg xmlns="http://www.w3.org/2000/svg" xmlns:xlink="http://www.w3.org/1999/xlink" contentStyleType="text/css" height="1944px" preserveAspectRatio="none" style="width:951px;height:1944px;background:#FFFFFF;" version="1.1" viewBox="0 0 951 1944" width="951px" zoomAndPan="magnify"><defs/><g><text fill="#000000" font-family="Verdana" font-size="22" font-weight="bold" lengthAdjust="spacing" textLength="743" x="102.5" y="37.1182">Realtime Check Change Classification - Main Business Flow</text><ellipse cx="336.5" cy="62.7373" fill="#FFFFFF" rx="10" ry="10" style="stroke:#000000;stroke-width:1.0;"/><path d="M450,89.23 L450,106.0293 L430,110.0293 L450,114.0293 L450,130.8286 A0,0 0 0 0 450,130.8286 L838,130.8286 A0,0 0 0 0 838,130.8286 L838,99.23 L828,89.23 L450,89.23 A0,0 0 0 0 450,89.23 " fill="#FFFFFF" style="stroke:#000000;stroke-width:1.0;"/><path d="M828,89.23 L828,99.23 L838,99.23 L828,89.23 " fill="#FFFFFF" style="stroke:#000000;stroke-width:1.0;"/><text fill="#000000" font-family="Verdana" font-size="13" lengthAdjust="spacing" textLength="367" x="456" y="107.2998">Endpoint: /api/classificationJobs/realtimeCheckChanges</text><text fill="#000000" font-family="Verdana" font-size="13" lengthAdjust="spacing" textLength="177" x="456" y="123.0991">Parameter: batchSize (int)</text><rect fill="#FFFFFF" height="34.584" rx="12.5" ry="12.5" style="stroke:#000000;stroke-width:1.0;" width="187" x="243" y="92.7373"/><text fill="#000000" font-family="Verdana" font-size="12" lengthAdjust="spacing" textLength="167" x="253" y="114.8018">Job Triggered (HTTP POST)</text><rect fill="#FFFFFF" height="34.584" rx="12.5" ry="12.5" style="stroke:#000000;stroke-width:1.0;" width="434" x="119.5" y="150.8286"/><text fill="#000000" font-family="Verdana" font-size="12" lengthAdjust="spacing" textLength="414" x="129.5" y="172.8931">RealtimeCheckChangeClassificationJobService.Execute(batchSize)</text><rect fill="#FFFFFF" height="34.584" rx="12.5" ry="12.5" style="stroke:#000000;stroke-width:1.0;" width="117" x="278" y="205.4126"/><text fill="#000000" font-family="Verdana" font-size="12" lengthAdjust="spacing" textLength="97" x="288" y="227.4771">CheckChange()</text><path d="M557,249.9966 L557,377.3911 L537,381.3911 L557,385.3911 L557,512.7856 A0,0 0 0 0 557,512.7856 L928,512.7856 A0,0 0 0 0 928,512.7856 L928,259.9966 L918,249.9966 L557,249.9966 A0,0 0 0 0 557,249.9966 " fill="#FFFFFF" style="stroke:#000000;stroke-width:1.0;"/><path d="M918,249.9966 L918,259.9966 L928,259.9966 L918,249.9966 " fill="#FFFFFF" style="stroke:#000000;stroke-width:1.0;"/><text fill="#000000" font-family="Verdana" font-size="13" lengthAdjust="spacing" textLength="267" x="563" y="268.0664">Database: bodb_VR2Model (SQL Server)</text><text fill="#000000" font-family="Verdana" font-size="13" lengthAdjust="spacing" textLength="178" x="563" y="283.8657">Timeout: 300-600 seconds</text><text fill="#000000" font-family="Verdana" font-size="13" lengthAdjust="spacing" textLength="5" x="563" y="299.665">&#160;</text><text fill="#000000" font-family="Verdana" font-size="13" lengthAdjust="spacing" textLength="131" x="563" y="315.4644">Output Parameters:</text><text fill="#000000" font-family="Verdana" font-size="13" lengthAdjust="spacing" textLength="182" x="563" y="331.2637">- @NextScannedDateTime1</text><text fill="#000000" font-family="Verdana" font-size="13" lengthAdjust="spacing" textLength="182" x="563" y="347.063">- @NextScannedDateTime2</text><text fill="#000000" font-family="Verdana" font-size="13" lengthAdjust="spacing" textLength="182" x="563" y="362.8623">- @NextScannedDateTime3</text><text fill="#000000" font-family="Verdana" font-size="13" lengthAdjust="spacing" textLength="182" x="563" y="378.6616">- @NextScannedDateTime4</text><text fill="#000000" font-family="Verdana" font-size="13" lengthAdjust="spacing" textLength="5" x="563" y="394.4609">&#160;</text><text fill="#000000" font-family="Verdana" font-size="13" lengthAdjust="spacing" textLength="144" x="563" y="410.2603">Returns 2 ResultSets:</text><text fill="#000000" font-family="Verdana" font-size="13" lengthAdjust="spacing" textLength="303" x="563" y="426.0596">- ResultSet 1: CustInfos (Member customers)</text><text fill="#000000" font-family="Verdana" font-size="13" lengthAdjust="spacing" textLength="57" x="573" y="441.8589">* CustId</text><text fill="#000000" font-family="Verdana" font-size="13" lengthAdjust="spacing" textLength="114" x="573" y="457.6582">* LastTicketDate</text><text fill="#000000" font-family="Verdana" font-size="13" lengthAdjust="spacing" textLength="350" x="563" y="473.4575">- ResultSet 2: CustInfosAgency (Agency customers)</text><text fill="#000000" font-family="Verdana" font-size="13" lengthAdjust="spacing" textLength="57" x="573" y="489.2568">* CustId</text><text fill="#000000" font-family="Verdana" font-size="13" lengthAdjust="spacing" textLength="114" x="573" y="505.0562">* LastTicketDate</text><rect fill="#FFFFFF" height="34.584" rx="12.5" ry="12.5" style="stroke:#000000;stroke-width:1.0;" width="401" x="136" y="364.0991"/><text fill="#000000" font-family="Verdana" font-size="12" lengthAdjust="spacing" textLength="381" x="146" y="386.1636">Call CTS_NormalClassification_RealTime_CheckChanges [SP]</text><rect fill="#FFFFFF" height="552.7361" style="stroke:#000000;stroke-width:1.0;" width="939" x="6" y="522.7856"/><path d="M234,522.7856 L234,532.8003 L224,542.8003 L6,542.8003 " fill="none" style="stroke:#000000;stroke-width:1.0;"/><text fill="#000000" font-family="Verdana" font-size="14" lengthAdjust="spacing" textLength="218" x="9" y="537.8608">Update Member LastTransDate</text><path d="M16,552.8003 L16,578.5996 L253,578.5996 L253,562.8003 L243,552.8003 L16,552.8003 " fill="#FFFFFF" style="stroke:#000000;stroke-width:1.0;"/><path d="M243,552.8003 L243,562.8003 L253,562.8003 L243,552.8003 " fill="#FFFFFF" style="stroke:#000000;stroke-width:1.0;"/><text fill="#000000" font-family="Verdana" font-size="13" lengthAdjust="spacing" textLength="216" x="22" y="570.8701">No Member customers to update</text><rect fill="#FFFFFF" height="34.584" rx="12.5" ry="12.5" style="stroke:#000000;stroke-width:1.0;" width="209" x="232" y="627.2839"/><text fill="#000000" font-family="Verdana" font-size="12" lengthAdjust="spacing" textLength="189" x="242" y="649.3484">Chunk CustInfos by batchSize</text><rect fill="#FFFFFF" height="34.584" rx="12.5" ry="12.5" style="stroke:#000000;stroke-width:1.0;" width="165" x="254" y="736.4519"/><text fill="#000000" font-family="Verdana" font-size="12" lengthAdjust="spacing" textLength="145" x="264" y="758.5164">Serialize batch to JSON</text><path d="M568,781.0359 L568,845.2332 L548,849.2332 L568,853.2332 L568,917.4304 A0,0 0 0 0 568,917.4304 L895,917.4304 A0,0 0 0 0 895,917.4304 L895,791.0359 L885,781.0359 L568,781.0359 A0,0 0 0 0 568,781.0359 " fill="#FFFFFF" style="stroke:#000000;stroke-width:1.0;"/><path d="M885,781.0359 L885,791.0359 L895,791.0359 L885,781.0359 " fill="#FFFFFF" style="stroke:#000000;stroke-width:1.0;"/><text fill="#000000" font-family="Verdana" font-size="13" lengthAdjust="spacing" textLength="219" x="574" y="799.1057">Database: CTS_Archive (MySQL)</text><text fill="#000000" font-family="Verdana" font-size="13" lengthAdjust="spacing" textLength="80" x="574" y="814.905">Parameters:</text><text fill="#000000" font-family="Verdana" font-size="13" lengthAdjust="spacing" textLength="151" x="574" y="830.7043">- @ip_CustInfo (JSON)</text><text fill="#000000" font-family="Verdana" font-size="13" lengthAdjust="spacing" textLength="5" x="574" y="846.5037">&#160;</text><text fill="#000000" font-family="Verdana" font-size="13" lengthAdjust="spacing" textLength="40" x="574" y="862.303">Logic:</text><text fill="#000000" font-family="Verdana" font-size="13" lengthAdjust="spacing" textLength="126" x="574" y="878.1023">- Parse JSON array</text><text fill="#000000" font-family="Verdana" font-size="13" lengthAdjust="spacing" textLength="306" x="574" y="893.9016">- Update CustomerAssociation.LastTicketDate</text><text fill="#000000" font-family="Verdana" font-size="13" lengthAdjust="spacing" textLength="217" x="574" y="909.7009">- Track customer betting history</text><rect fill="#FFFFFF" height="34.584" rx="12.5" ry="12.5" style="stroke:#000000;stroke-width:1.0;" width="423" x="125" y="831.9412"/><text fill="#000000" font-family="Verdana" font-size="12" lengthAdjust="spacing" textLength="403" x="135" y="854.0056">Call CTS_Arc_CustomerAssociation_LastTicketDate_Update [SP]</text><path d="M430,933.9231 L430,950.7224 L410,954.7224 L430,958.7224 L430,975.5217 A0,0 0 0 0 430,975.5217 L590,975.5217 A0,0 0 0 0 590,975.5217 L590,943.9231 L580,933.9231 L430,933.9231 A0,0 0 0 0 430,933.9231 " fill="#FFFFFF" style="stroke:#000000;stroke-width:1.0;"/><path d="M580,933.9231 L580,943.9231 L590,943.9231 L580,933.9231 " fill="#FFFFFF" style="stroke:#000000;stroke-width:1.0;"/><text fill="#000000" font-family="Verdana" font-size="13" lengthAdjust="spacing" textLength="139" x="436" y="951.9929">Throttling to prevent</text><text fill="#000000" font-family="Verdana" font-size="13" lengthAdjust="spacing" textLength="122" x="436" y="967.7922">database overload</text><rect fill="#FFFFFF" height="34.584" rx="12.5" ry="12.5" style="stroke:#000000;stroke-width:1.0;" width="147" x="263" y="937.4304"/><text fill="#000000" font-family="Verdana" font-size="12" lengthAdjust="spacing" textLength="127" x="273" y="959.4949">Thread.Sleep(10ms)</text><rect fill="#FFFFFF" height="34.584" rx="12.5" ry="12.5" style="stroke:#000000;stroke-width:1.0;" width="113" x="280" y="681.8679"/><text fill="#000000" font-family="Verdana" font-size="12" lengthAdjust="spacing" textLength="93" x="290" y="703.9324">For each batch</text><polygon fill="#FFFFFF" points="295.5,995.5217,377.5,995.5217,389.5,1007.5217,377.5,1019.5217,295.5,1019.5217,283.5,1007.5217,295.5,995.5217" style="stroke:#000000;stroke-width:1.0;"/><text fill="#000000" font-family="Verdana" font-size="11" lengthAdjust="spacing" textLength="82" x="295.5" y="1011.8965">More batches?</text><polygon fill="#FFFFFF" points="265,578.5996,408,578.5996,420,590.5996,408,602.5996,265,602.5996,253,590.5996,265,578.5996" style="stroke:#000000;stroke-width:1.0;"/><text fill="#000000" font-family="Verdana" font-size="11" lengthAdjust="spacing" textLength="20" x="340.5" y="613.6587">yes</text><text fill="#000000" font-family="Verdana" font-size="11" lengthAdjust="spacing" textLength="143" x="265" y="594.9744">Has Member Customers?</text><text fill="#000000" font-family="Verdana" font-size="11" lengthAdjust="spacing" textLength="14" x="420" y="588.29">no</text><polygon fill="#FFFFFF" points="336.5,1039.5217,348.5,1051.5217,336.5,1063.5217,324.5,1051.5217,336.5,1039.5217" style="stroke:#000000;stroke-width:1.0;"/><rect fill="#FFFFFF" height="476.6409" style="stroke:#000000;stroke-width:1.0;" width="817" x="10" y="1085.5217"/><path d="M234,1085.5217 L234,1095.5364 L224,1105.5364 L10,1105.5364 " fill="none" style="stroke:#000000;stroke-width:1.0;"/><text fill="#000000" font-family="Verdana" font-size="14" lengthAdjust="spacing" textLength="214" x="13" y="1100.5969">Update Agency LastTransDate</text><path d="M20,1115.5364 L20,1141.3357 L255,1141.3357 L255,1125.5364 L245,1115.5364 L20,1115.5364 " fill="#FFFFFF" style="stroke:#000000;stroke-width:1.0;"/><path d="M245,1115.5364 L245,1125.5364 L255,1125.5364 L245,1115.5364 " fill="#FFFFFF" style="stroke:#000000;stroke-width:1.0;"/><text fill="#000000" font-family="Verdana" font-size="13" lengthAdjust="spacing" textLength="214" x="26" y="1133.6062">No Agency customers to update</text><rect fill="#FFFFFF" height="34.584" rx="12.5" ry="12.5" style="stroke:#000000;stroke-width:1.0;" width="254" x="209.5" y="1190.02"/><text fill="#000000" font-family="Verdana" font-size="12" lengthAdjust="spacing" textLength="234" x="219.5" y="1212.0845">Chunk CustInfosAgency by batchSize</text><rect fill="#FFFFFF" height="34.584" rx="12.5" ry="12.5" style="stroke:#000000;stroke-width:1.0;" width="165" x="254" y="1299.188"/><text fill="#000000" font-family="Verdana" font-size="12" lengthAdjust="spacing" textLength="145" x="264" y="1321.2524">Serialize batch to JSON</text><path d="M568,1365.98 L568,1382.7793 L548,1386.7793 L568,1390.7793 L568,1407.5786 A0,0 0 0 0 568,1407.5786 L774,1407.5786 A0,0 0 0 0 774,1407.5786 L774,1375.98 L764,1365.98 L568,1365.98 A0,0 0 0 0 568,1365.98 " fill="#FFFFFF" style="stroke:#000000;stroke-width:1.0;"/><path d="M764,1365.98 L764,1375.98 L774,1375.98 L764,1365.98 " fill="#FFFFFF" style="stroke:#000000;stroke-width:1.0;"/><text fill="#000000" font-family="Verdana" font-size="13" lengthAdjust="spacing" textLength="185" x="574" y="1384.0498">Same SP as Member update</text><text fill="#000000" font-family="Verdana" font-size="13" lengthAdjust="spacing" textLength="172" x="574" y="1399.8491">but for Agency customers</text><rect fill="#FFFFFF" height="34.584" rx="12.5" ry="12.5" style="stroke:#000000;stroke-width:1.0;" width="423" x="125" y="1369.4873"/><text fill="#000000" font-family="Verdana" font-size="12" lengthAdjust="spacing" textLength="403" x="135" y="1391.5518">Call CTS_Arc_CustomerAssociation_LastTicketDate_Update [SP]</text><rect fill="#FFFFFF" height="34.584" rx="12.5" ry="12.5" style="stroke:#000000;stroke-width:1.0;" width="147" x="263" y="1427.5786"/><text fill="#000000" font-family="Verdana" font-size="12" lengthAdjust="spacing" textLength="127" x="273" y="1449.6431">Thread.Sleep(10ms)</text><rect fill="#FFFFFF" height="34.584" rx="12.5" ry="12.5" style="stroke:#000000;stroke-width:1.0;" width="113" x="280" y="1244.604"/><text fill="#000000" font-family="Verdana" font-size="12" lengthAdjust="spacing" textLength="93" x="290" y="1266.6685">For each batch</text><polygon fill="#FFFFFF" points="295.5,1482.1626,377.5,1482.1626,389.5,1494.1626,377.5,1506.1626,295.5,1506.1626,283.5,1494.1626,295.5,1482.1626" style="stroke:#000000;stroke-width:1.0;"/><text fill="#000000" font-family="Verdana" font-size="11" lengthAdjust="spacing" textLength="82" x="295.5" y="1498.5374">More batches?</text><polygon fill="#FFFFFF" points="267,1141.3357,406,1141.3357,418,1153.3357,406,1165.3357,267,1165.3357,255,1153.3357,267,1141.3357" style="stroke:#000000;stroke-width:1.0;"/><text fill="#000000" font-family="Verdana" font-size="11" lengthAdjust="spacing" textLength="20" x="340.5" y="1176.3948">yes</text><text fill="#000000" font-family="Verdana" font-size="11" lengthAdjust="spacing" textLength="139" x="267" y="1157.7104">Has Agency Customers?</text><text fill="#000000" font-family="Verdana" font-size="11" lengthAdjust="spacing" textLength="14" x="418" y="1151.0261">no</text><polygon fill="#FFFFFF" points="336.5,1526.1626,348.5,1538.1626,336.5,1550.1626,324.5,1538.1626,336.5,1526.1626" style="stroke:#000000;stroke-width:1.0;"/><rect fill="#FFFFFF" height="34.584" rx="12.5" ry="12.5" style="stroke:#000000;stroke-width:1.0;" width="222" x="225.5" y="1582.1626"/><text fill="#000000" font-family="Verdana" font-size="12" lengthAdjust="spacing" textLength="202" x="235.5" y="1604.2271">UpdateNextScanCheckChange()</text><path d="M589,1626.7466 L589,1730.4421 L569,1734.4421 L589,1738.4421 L589,1842.1377 A0,0 0 0 0 589,1842.1377 L877,1842.1377 A0,0 0 0 0 877,1842.1377 L877,1636.7466 L867,1626.7466 L589,1626.7466 A0,0 0 0 0 589,1626.7466 " fill="#FFFFFF" style="stroke:#000000;stroke-width:1.0;"/><path d="M867,1626.7466 L867,1636.7466 L877,1636.7466 L867,1626.7466 " fill="#FFFFFF" style="stroke:#000000;stroke-width:1.0;"/><text fill="#000000" font-family="Verdana" font-size="13" lengthAdjust="spacing" textLength="267" x="595" y="1644.8164">Database: bodb_VR2Model (SQL Server)</text><text fill="#000000" font-family="Verdana" font-size="13" lengthAdjust="spacing" textLength="80" x="595" y="1660.6157">Parameters:</text><text fill="#000000" font-family="Verdana" font-size="13" lengthAdjust="spacing" textLength="182" x="595" y="1676.415">- @NextScannedDateTime1</text><text fill="#000000" font-family="Verdana" font-size="13" lengthAdjust="spacing" textLength="182" x="595" y="1692.2144">- @NextScannedDateTime2</text><text fill="#000000" font-family="Verdana" font-size="13" lengthAdjust="spacing" textLength="182" x="595" y="1708.0137">- @NextScannedDateTime3</text><text fill="#000000" font-family="Verdana" font-size="13" lengthAdjust="spacing" textLength="182" x="595" y="1723.813">- @NextScannedDateTime4</text><text fill="#000000" font-family="Verdana" font-size="13" lengthAdjust="spacing" textLength="5" x="595" y="1739.6123">&#160;</text><text fill="#000000" font-family="Verdana" font-size="13" lengthAdjust="spacing" textLength="40" x="595" y="1755.4116">Logic:</text><text fill="#000000" font-family="Verdana" font-size="13" lengthAdjust="spacing" textLength="220" x="595" y="1771.2109">- Save 4 time slots for next scan</text><text fill="#000000" font-family="Verdana" font-size="13" lengthAdjust="spacing" textLength="160" x="595" y="1787.0103">- Optimization strategy:</text><text fill="#000000" font-family="Verdana" font-size="13" lengthAdjust="spacing" textLength="173" x="605" y="1802.8096">* Sliding window scanning</text><text fill="#000000" font-family="Verdana" font-size="13" lengthAdjust="spacing" textLength="197" x="605" y="1818.6089">* Parallel time slot processing</text><text fill="#000000" font-family="Verdana" font-size="13" lengthAdjust="spacing" textLength="112" x="605" y="1834.4082">* Load balancing</text><rect fill="#FFFFFF" height="34.584" rx="12.5" ry="12.5" style="stroke:#000000;stroke-width:1.0;" width="465" x="104" y="1717.1501"/><text fill="#000000" font-family="Verdana" font-size="12" lengthAdjust="spacing" textLength="445" x="114" y="1739.2146">Call CTS_NormalClassification_RealTime_UpdateNextScannedTime [SP]</text><rect fill="#FFFFFF" height="34.584" rx="12.5" ry="12.5" style="stroke:#000000;stroke-width:1.0;" width="116" x="278.5" y="1862.1377"/><text fill="#000000" font-family="Verdana" font-size="12" lengthAdjust="spacing" textLength="96" x="288.5" y="1884.2021">Return Success</text><ellipse cx="336.5" cy="1927.7217" fill="none" rx="11" ry="11" style="stroke:#000000;stroke-width:1.0;"/><ellipse cx="336.5" cy="1927.7217" fill="#FFFFFF" rx="6" ry="6" style="stroke:#000000;stroke-width:1.0;"/><line style="stroke:#000000;stroke-width:1.0;" x1="336.5" x2="336.5" y1="72.7373" y2="92.7373"/><polygon fill="#000000" points="332.5,82.7373,336.5,92.7373,340.5,82.7373,336.5,86.7373" style="stroke:#000000;stroke-width:1.0;"/><line style="stroke:#000000;stroke-width:1.0;" x1="336.5" x2="336.5" y1="127.3213" y2="150.8286"/><polygon fill="#000000" points="332.5,140.8286,336.5,150.8286,340.5,140.8286,336.5,144.8286" style="stroke:#000000;stroke-width:1.0;"/><line style="stroke:#000000;stroke-width:1.0;" x1="336.5" x2="336.5" y1="185.4126" y2="205.4126"/><polygon fill="#000000" points="332.5,195.4126,336.5,205.4126,340.5,195.4126,336.5,199.4126" style="stroke:#000000;stroke-width:1.0;"/><line style="stroke:#000000;stroke-width:1.0;" x1="336.5" x2="336.5" y1="239.9966" y2="364.0991"/><polygon fill="#000000" points="332.5,354.0991,336.5,364.0991,340.5,354.0991,336.5,358.0991" style="stroke:#000000;stroke-width:1.0;"/><line style="stroke:#000000;stroke-width:1.0;" x1="336.5" x2="336.5" y1="771.0359" y2="831.9412"/><polygon fill="#000000" points="332.5,821.9412,336.5,831.9412,340.5,821.9412,336.5,825.9412" style="stroke:#000000;stroke-width:1.0;"/><line style="stroke:#000000;stroke-width:1.0;" x1="336.5" x2="336.5" y1="866.5251" y2="937.4304"/><polygon fill="#000000" points="332.5,927.4304,336.5,937.4304,340.5,927.4304,336.5,931.4304" style="stroke:#000000;stroke-width:1.0;"/><line style="stroke:#000000;stroke-width:1.0;" x1="336.5" x2="336.5" y1="716.4519" y2="736.4519"/><polygon fill="#000000" points="332.5,726.4519,336.5,736.4519,340.5,726.4519,336.5,730.4519" style="stroke:#000000;stroke-width:1.0;"/><line style="stroke:#000000;stroke-width:1.0;" x1="389.5" x2="907" y1="1007.5217" y2="1007.5217"/><polygon fill="#000000" points="903,860.0945,907,850.0945,911,860.0945,907,856.0945" style="stroke:#000000;stroke-width:1.0;"/><line style="stroke:#000000;stroke-width:1.0;" x1="907" x2="907" y1="699.1599" y2="1007.5217"/><line style="stroke:#000000;stroke-width:1.0;" x1="907" x2="393" y1="699.1599" y2="699.1599"/><polygon fill="#000000" points="403,695.1599,393,699.1599,403,703.1599,399,699.1599" style="stroke:#000000;stroke-width:1.0;"/><line style="stroke:#000000;stroke-width:1.0;" x1="336.5" x2="336.5" y1="972.0144" y2="995.5217"/><polygon fill="#000000" points="332.5,985.5217,336.5,995.5217,340.5,985.5217,336.5,989.5217" style="stroke:#000000;stroke-width:1.0;"/><line style="stroke:#000000;stroke-width:1.0;" x1="336.5" x2="336.5" y1="661.8679" y2="681.8679"/><polygon fill="#000000" points="332.5,671.8679,336.5,681.8679,340.5,671.8679,336.5,675.8679" style="stroke:#000000;stroke-width:1.0;"/><line style="stroke:#000000;stroke-width:1.0;" x1="336.5" x2="336.5" y1="602.5996" y2="627.2839"/><polygon fill="#000000" points="332.5,617.2839,336.5,627.2839,340.5,617.2839,336.5,621.2839" style="stroke:#000000;stroke-width:1.0;"/><line style="stroke:#000000;stroke-width:1.0;" x1="420" x2="929" y1="590.5996" y2="590.5996"/><polygon fill="#000000" points="925,802.6565,929,812.6565,933,802.6565,929,806.6565" style="stroke:#000000;stroke-width:1.0;"/><line style="stroke:#000000;stroke-width:1.0;" x1="929" x2="929" y1="590.5996" y2="1051.5217"/><line style="stroke:#000000;stroke-width:1.0;" x1="929" x2="348.5" y1="1051.5217" y2="1051.5217"/><polygon fill="#000000" points="358.5,1047.5217,348.5,1051.5217,358.5,1055.5217,354.5,1051.5217" style="stroke:#000000;stroke-width:1.0;"/><line style="stroke:#000000;stroke-width:1.0;" x1="336.5" x2="336.5" y1="1019.5217" y2="1039.5217"/><polygon fill="#000000" points="332.5,1029.5217,336.5,1039.5217,340.5,1029.5217,336.5,1033.5217" style="stroke:#000000;stroke-width:1.0;"/><line style="stroke:#000000;stroke-width:1.0;" x1="336.5" x2="336.5" y1="398.6831" y2="578.5996"/><polygon fill="#000000" points="332.5,568.5996,336.5,578.5996,340.5,568.5996,336.5,572.5996" style="stroke:#000000;stroke-width:1.0;"/><line style="stroke:#000000;stroke-width:1.0;" x1="336.5" x2="336.5" y1="1333.772" y2="1369.4873"/><polygon fill="#000000" points="332.5,1359.4873,336.5,1369.4873,340.5,1359.4873,336.5,1363.4873" style="stroke:#000000;stroke-width:1.0;"/><line style="stroke:#000000;stroke-width:1.0;" x1="336.5" x2="336.5" y1="1404.0713" y2="1427.5786"/><polygon fill="#000000" points="332.5,1417.5786,336.5,1427.5786,340.5,1417.5786,336.5,1421.5786" style="stroke:#000000;stroke-width:1.0;"/><line style="stroke:#000000;stroke-width:1.0;" x1="336.5" x2="336.5" y1="1279.188" y2="1299.188"/><polygon fill="#000000" points="332.5,1289.188,336.5,1299.188,340.5,1289.188,336.5,1293.188" style="stroke:#000000;stroke-width:1.0;"/><line style="stroke:#000000;stroke-width:1.0;" x1="389.5" x2="786" y1="1494.1626" y2="1494.1626"/><polygon fill="#000000" points="782,1394.1333,786,1384.1333,790,1394.1333,786,1390.1333" style="stroke:#000000;stroke-width:1.0;"/><line style="stroke:#000000;stroke-width:1.0;" x1="786" x2="786" y1="1261.896" y2="1494.1626"/><line style="stroke:#000000;stroke-width:1.0;" x1="786" x2="393" y1="1261.896" y2="1261.896"/><polygon fill="#000000" points="403,1257.896,393,1261.896,403,1265.896,399,1261.896" style="stroke:#000000;stroke-width:1.0;"/><line style="stroke:#000000;stroke-width:1.0;" x1="336.5" x2="336.5" y1="1462.1626" y2="1482.1626"/><polygon fill="#000000" points="332.5,1472.1626,336.5,1482.1626,340.5,1472.1626,336.5,1476.1626" style="stroke:#000000;stroke-width:1.0;"/><line style="stroke:#000000;stroke-width:1.0;" x1="336.5" x2="336.5" y1="1224.604" y2="1244.604"/><polygon fill="#000000" points="332.5,1234.604,336.5,1244.604,340.5,1234.604,336.5,1238.604" style="stroke:#000000;stroke-width:1.0;"/><line style="stroke:#000000;stroke-width:1.0;" x1="336.5" x2="336.5" y1="1165.3357" y2="1190.02"/><polygon fill="#000000" points="332.5,1180.02,336.5,1190.02,340.5,1180.02,336.5,1184.02" style="stroke:#000000;stroke-width:1.0;"/><line style="stroke:#000000;stroke-width:1.0;" x1="418" x2="808" y1="1153.3357" y2="1153.3357"/><polygon fill="#000000" points="804,1339.4873,808,1349.4873,812,1339.4873,808,1343.4873" style="stroke:#000000;stroke-width:1.0;"/><line style="stroke:#000000;stroke-width:1.0;" x1="808" x2="808" y1="1153.3357" y2="1538.1626"/><line style="stroke:#000000;stroke-width:1.0;" x1="808" x2="348.5" y1="1538.1626" y2="1538.1626"/><polygon fill="#000000" points="358.5,1534.1626,348.5,1538.1626,358.5,1542.1626,354.5,1538.1626" style="stroke:#000000;stroke-width:1.0;"/><line style="stroke:#000000;stroke-width:1.0;" x1="336.5" x2="336.5" y1="1506.1626" y2="1526.1626"/><polygon fill="#000000" points="332.5,1516.1626,336.5,1526.1626,340.5,1516.1626,336.5,1520.1626" style="stroke:#000000;stroke-width:1.0;"/><line style="stroke:#000000;stroke-width:1.0;" x1="336.5" x2="336.5" y1="1063.5217" y2="1141.3357"/><polygon fill="#000000" points="332.5,1131.3357,336.5,1141.3357,340.5,1131.3357,336.5,1135.3357" style="stroke:#000000;stroke-width:1.0;"/><line style="stroke:#000000;stroke-width:1.0;" x1="336.5" x2="336.5" y1="1550.1626" y2="1582.1626"/><polygon fill="#000000" points="332.5,1572.1626,336.5,1582.1626,340.5,1572.1626,336.5,1576.1626" style="stroke:#000000;stroke-width:1.0;"/><line style="stroke:#000000;stroke-width:1.0;" x1="336.5" x2="336.5" y1="1616.7466" y2="1717.1501"/><polygon fill="#000000" points="332.5,1707.1501,336.5,1717.1501,340.5,1707.1501,336.5,1711.1501" style="stroke:#000000;stroke-width:1.0;"/><line style="stroke:#000000;stroke-width:1.0;" x1="336.5" x2="336.5" y1="1751.7341" y2="1862.1377"/><polygon fill="#000000" points="332.5,1852.1377,336.5,1862.1377,340.5,1852.1377,336.5,1856.1377" style="stroke:#000000;stroke-width:1.0;"/><line style="stroke:#000000;stroke-width:1.0;" x1="336.5" x2="336.5" y1="1896.7217" y2="1916.7217"/><polygon fill="#000000" points="332.5,1906.7217,336.5,1916.7217,340.5,1906.7217,336.5,1910.7217" style="stroke:#000000;stroke-width:1.0;"/><!--SRC=[rLPBSzCm4BxxLomzESoqJH_3mJr02Ur0fuzG1ouCar7aJQof8daakMtAyDzPsN9gfvaCBHp0XyJMlhvTVRlIAvVZ7A6GJAZ82ISHhf599sXna2E_eL-cPlGXcRLYAZXpGYlOXWkoWFUb5GgjXLEfxwB8EcPSb9pf2OoCcCtGO0Rnnz5e2CEhTDGxYfHs22JANGJqdAYiq4Av17PP8NPv9mYviRiceAd0r5XiPJfaXitHeKbWmXpFK_6049ElNeGg0nyeYfBhf-Q3rI0fcbl1SUVa7ddfC5ww8xnHqhACQG4W6J0fOJ1AnvVQp9di-XlxY2EAE6uZXc_fyBitNiaVu0DpRC8iKXOwcuo_NkzVw0mbnEddS_38qFI2glUgIwhLGR-__QRV1ujSgym6SVYxAbrHkiVos2G8jk7T9Twxb3EbCAEuw1tkRPJkRvGUR9GUTd5TeokDih1FRxQKBaNNWhPSWxq41gLrdzHKMuWlS3v10vnMz9oIQMe1yBfMoreBvyowaU0tw3o6DRxtMxwFPwZu0kBm_y88ZrGhYFgYwesjBqL6KWZOAnl3bFKcM_23hCIKkeBPHcFGn7xR0-f71V420mwYNwbkMXMPB1xfVXGjwskmGEOWETK6aF6yLWh84-AHOD8tIBKCJiDPUdLvrCYNZ3usVDoWERPMSr6JkfltE2JOaDe_JuZT9NTmdejRQjAB1P6xrz9xIjP0Ar6CczGXzf3RLgtNSpqJl6jBFYrMQG8pXYqwmf30cbHtrfAejg9Tf87OC0Kcw9nGCyW5BPWcm98HeRQZd4POjfDAn2BUwyzjRsF9I5qx9xrVsgN2u2sgjZmB9GLDaq5gbgqB6zXmbmlfowrDs7WaXddIIhAFbQwB-GJ6fORLjlDOogfcqKemUXNJwESw_eVEsi3_eF4C_WUB_weBKk8sf4DuRFXMAUjdGXDxIg1NXz4pEVN7-xuQ_pVsFQdBq1m0Bpukksxe7F6hV-NS_EUEmiwqsYP-q50yXEhEPQLsjgA28ZTWoSzIxweW5V5GNy2iC-HyjaXQfrCgHUO7nvrGcRwhZ1LzjpHyAQIaCYs3qOZHd6vmNRrp6Yn47SaKhmMTAvK_o24jkRSxeakVBg9V]--></g></svg>