<svg xmlns="http://www.w3.org/2000/svg" xmlns:xlink="http://www.w3.org/1999/xlink" contentStyleType="text/css" height="2335px" preserveAspectRatio="none" style="width:1153px;height:2335px;background:#FFFFFF;" version="1.1" viewBox="0 0 1153 2335" width="1153px" zoomAndPan="magnify"><defs/><g><text fill="#000000" font-family="Verdana" font-size="22" font-weight="bold" lengthAdjust="spacing" textLength="1120" x="15" y="37.1182">Stored Procedure: CTS_Arc_CustomerAssociation_LastTicketDate_Update - Detailed Flow</text><rect fill="#FFFFFF" height="2275.8506" style="stroke:#000000;stroke-width:1.0;" width="881.25" x="135.375" y="53.7373"/><line style="stroke:#000000;stroke-width:1.0;" x1="135.375" x2="1016.625" y1="74.752" y2="74.752"/><text fill="#000000" font-family="Verdana" font-size="14" lengthAdjust="spacing" textLength="6" x="318.5" y="69.8125">"</text><text fill="#000000" font-family="Verdana" font-size="14" font-weight="bold" lengthAdjust="spacing" textLength="459" x="324.5" y="69.8125">SP: CTS_Arc_CustomerAssociation_LastTicketDate_Update</text><text fill="#000000" font-family="Verdana" font-size="14" lengthAdjust="spacing" textLength="50" x="783.5" y="69.8125">" as SP</text><rect fill="#FFFFFF" height="2218.8359" style="stroke:#000000;stroke-width:1.0;" width="861.25" x="145.375" y="90.752"/><text fill="#000000" font-family="Verdana" font-size="14" lengthAdjust="spacing" textLength="6" x="428.5" y="106.8271">"</text><text fill="#000000" font-family="Verdana" font-size="14" font-weight="bold" lengthAdjust="spacing" textLength="71" x="434.5" y="106.8271">Database</text><text fill="#000000" font-family="Verdana" font-size="14" lengthAdjust="spacing" textLength="218" x="505.5" y="106.8271">: CTS_Archive (MySQL)" as DB</text><rect fill="#FFFFFF" height="57.0146" style="stroke:#000000;stroke-width:1.0;" width="393" x="274.625" y="127.7666"/><text fill="#000000" font-family="Verdana" font-size="14" lengthAdjust="spacing" textLength="6" x="284.625" y="143.8418">"</text><text fill="#000000" font-family="Verdana" font-size="14" font-weight="bold" lengthAdjust="spacing" textLength="60" x="290.625" y="143.8418">Schema</text><text fill="#000000" font-family="Verdana" font-size="14" lengthAdjust="spacing" textLength="307" x="350.625" y="143.8418">: CTS_Archive.ctsServiceAdmin" as Schema</text><ellipse cx="471.125" cy="229.7813" fill="#FFFFFF" rx="10" ry="10" style="stroke:#000000;stroke-width:1.0;"/><rect fill="#FFFFFF" height="319.8037" style="stroke:#000000;stroke-width:1.0;" width="558" x="359.625" y="274.7813"/><path d="M491.625,274.7813 L491.625,284.7959 L481.625,294.7959 L359.625,294.7959 " fill="none" style="stroke:#000000;stroke-width:1.0;"/><text fill="#000000" font-family="Verdana" font-size="14" lengthAdjust="spacing" textLength="122" x="362.625" y="289.8564">Input Parameters</text><path d="M592.625,311.7959 L592.625,439.1904 L572.625,443.1904 L592.625,447.1904 L592.625,574.585 A0,0 0 0 0 592.625,574.585 L907.625,574.585 A0,0 0 0 0 907.625,574.585 L907.625,321.7959 L897.625,311.7959 L592.625,311.7959 A0,0 0 0 0 592.625,311.7959 " fill="#FFFFFF" style="stroke:#000000;stroke-width:1.0;"/><path d="M897.625,311.7959 L897.625,321.7959 L907.625,321.7959 L897.625,311.7959 " fill="#FFFFFF" style="stroke:#000000;stroke-width:1.0;"/><text fill="#000000" font-family="Verdana" font-size="13" lengthAdjust="spacing" textLength="258" x="598.625" y="329.8657">Parameter: @ip_CustInfo (TEXT/JSON)</text><text fill="#000000" font-family="Verdana" font-size="13" lengthAdjust="spacing" textLength="5" x="598.625" y="345.665">&#160;</text><text fill="#000000" font-family="Verdana" font-size="13" lengthAdjust="spacing" textLength="91" x="598.625" y="361.4644">JSON Format:</text><text fill="#000000" font-family="Verdana" font-size="13" lengthAdjust="spacing" textLength="6" x="598.625" y="377.2637">[</text><text fill="#000000" font-family="Verdana" font-size="13" lengthAdjust="spacing" textLength="8" x="608.625" y="393.063">{</text><text fill="#000000" font-family="Verdana" font-size="13" lengthAdjust="spacing" textLength="93" x="618.625" y="408.8623">"CustId": 123,</text><text fill="#000000" font-family="Verdana" font-size="13" lengthAdjust="spacing" textLength="274" x="618.625" y="424.6616">"LastTicketDate": "2024-01-01 10:30:00"</text><text fill="#000000" font-family="Verdana" font-size="13" lengthAdjust="spacing" textLength="13" x="608.625" y="440.4609">},</text><text fill="#000000" font-family="Verdana" font-size="13" lengthAdjust="spacing" textLength="8" x="608.625" y="456.2603">{</text><text fill="#000000" font-family="Verdana" font-size="13" lengthAdjust="spacing" textLength="93" x="618.625" y="472.0596">"CustId": 456,</text><text fill="#000000" font-family="Verdana" font-size="13" lengthAdjust="spacing" textLength="274" x="618.625" y="487.8589">"LastTicketDate": "2024-01-01 11:45:00"</text><text fill="#000000" font-family="Verdana" font-size="13" lengthAdjust="spacing" textLength="13" x="608.625" y="503.6582">},</text><text fill="#000000" font-family="Verdana" font-size="13" lengthAdjust="spacing" textLength="15" x="608.625" y="519.4575">...</text><text fill="#000000" font-family="Verdana" font-size="13" lengthAdjust="spacing" textLength="6" x="598.625" y="535.2568">]</text><text fill="#000000" font-family="Verdana" font-size="13" lengthAdjust="spacing" textLength="5" x="598.625" y="551.0562">&#160;</text><text fill="#000000" font-family="Verdana" font-size="13" lengthAdjust="spacing" textLength="280" x="598.625" y="566.8555">Purpose: Batch update multiple customers</text><rect fill="#FFFFFF" height="34.584" rx="12.5" ry="12.5" style="stroke:#000000;stroke-width:1.0;" width="203" x="369.625" y="425.8984"/><text fill="#000000" font-family="Verdana" font-size="12" lengthAdjust="spacing" textLength="183" x="379.625" y="447.9629">Receive @ip_CustInfo (JSON)</text><rect fill="#FFFFFF" height="425.603" style="stroke:#000000;stroke-width:1.0;" width="619.5" x="377.125" y="629.585"/><path d="M505.125,629.585 L505.125,639.5996 L495.125,649.5996 L377.125,649.5996 " fill="none" style="stroke:#000000;stroke-width:1.0;"/><text fill="#000000" font-family="Verdana" font-size="14" lengthAdjust="spacing" textLength="118" x="380.125" y="644.6602">Parse JSON Data</text><path d="M575.125,666.5996 L575.125,699.1982 L555.125,703.1982 L575.125,707.1982 L575.125,739.7969 A0,0 0 0 0 575.125,739.7969 L894.125,739.7969 A0,0 0 0 0 894.125,739.7969 L894.125,676.5996 L884.125,666.5996 L575.125,666.5996 A0,0 0 0 0 575.125,666.5996 " fill="#FFFFFF" style="stroke:#000000;stroke-width:1.0;"/><path d="M884.125,666.5996 L884.125,676.5996 L894.125,676.5996 L884.125,666.5996 " fill="#FFFFFF" style="stroke:#000000;stroke-width:1.0;"/><text fill="#000000" font-family="Verdana" font-size="13" lengthAdjust="spacing" textLength="298" x="581.125" y="684.6694">CREATE TEMPORARY TABLE Temp_CustInfo (</text><text fill="#000000" font-family="Verdana" font-size="13" lengthAdjust="spacing" textLength="76" x="591.125" y="700.4688">CustId INT,</text><text fill="#000000" font-family="Verdana" font-size="13" lengthAdjust="spacing" textLength="173" x="591.125" y="716.2681">LastTicketDate DATETIME</text><text fill="#000000" font-family="Verdana" font-size="13" lengthAdjust="spacing" textLength="12" x="581.125" y="732.0674">);</text><rect fill="#FFFFFF" height="34.584" rx="12.5" ry="12.5" style="stroke:#000000;stroke-width:1.0;" width="168" x="387.125" y="685.9063"/><text fill="#000000" font-family="Verdana" font-size="12" lengthAdjust="spacing" textLength="148" x="397.125" y="707.9707">Create temporary table</text><path d="M555.625,774.7969 L555.625,854.7935 L535.625,858.7935 L555.625,862.7935 L555.625,942.79 A0,0 0 0 0 555.625,942.79 L986.625,942.79 A0,0 0 0 0 986.625,942.79 L986.625,784.7969 L976.625,774.7969 L555.625,774.7969 A0,0 0 0 0 555.625,774.7969 " fill="#FFFFFF" style="stroke:#000000;stroke-width:1.0;"/><path d="M976.625,774.7969 L976.625,784.7969 L986.625,784.7969 L976.625,774.7969 " fill="#FFFFFF" style="stroke:#000000;stroke-width:1.0;"/><text fill="#000000" font-family="Verdana" font-size="13" lengthAdjust="spacing" textLength="159" x="561.625" y="792.8667">MySQL JSON Functions:</text><text fill="#000000" font-family="Verdana" font-size="13" lengthAdjust="spacing" textLength="107" x="561.625" y="808.666">- JSON_TABLE()</text><text fill="#000000" font-family="Verdana" font-size="13" lengthAdjust="spacing" textLength="127" x="561.625" y="824.4653">- JSON_EXTRACT()</text><text fill="#000000" font-family="Verdana" font-size="13" lengthAdjust="spacing" textLength="130" x="561.625" y="840.2646">- JSON_UNQUOTE()</text><text fill="#000000" font-family="Verdana" font-size="13" lengthAdjust="spacing" textLength="5" x="561.625" y="856.064">&#160;</text><text fill="#000000" font-family="Verdana" font-size="13" lengthAdjust="spacing" textLength="191" x="561.625" y="871.8633">INSERT INTO Temp_CustInfo</text><text fill="#000000" font-family="Verdana" font-size="13" lengthAdjust="spacing" textLength="50" x="561.625" y="887.6626">SELECT</text><text fill="#000000" font-family="Verdana" font-size="13" lengthAdjust="spacing" textLength="291" x="571.625" y="903.4619">JSON_EXTRACT(item, '$.CustId') AS CustId,</text><text fill="#000000" font-family="Verdana" font-size="13" lengthAdjust="spacing" textLength="400" x="571.625" y="919.2612">JSON_EXTRACT(item, '$.LastTicketDate') AS LastTicketDate</text><text fill="#000000" font-family="Verdana" font-size="13" lengthAdjust="spacing" textLength="366" x="561.625" y="935.0605">FROM JSON_TABLE(@ip_CustInfo, '$[*]' COLUMNS(...))</text><rect fill="#FFFFFF" height="34.584" rx="12.5" ry="12.5" style="stroke:#000000;stroke-width:1.0;" width="129" x="406.625" y="841.5015"/><text fill="#000000" font-family="Verdana" font-size="12" lengthAdjust="spacing" textLength="109" x="416.625" y="863.5659">Parse JSON array</text><path d="M567.125,977.79 L567.125,1002.489 L547.125,1006.489 L567.125,1010.489 L567.125,1035.188 A0,0 0 0 0 567.125,1035.188 L747.125,1035.188 A0,0 0 0 0 747.125,1035.188 L747.125,987.79 L737.125,977.79 L567.125,977.79 A0,0 0 0 0 567.125,977.79 " fill="#FFFFFF" style="stroke:#000000;stroke-width:1.0;"/><path d="M737.125,977.79 L737.125,987.79 L747.125,987.79 L737.125,977.79 " fill="#FFFFFF" style="stroke:#000000;stroke-width:1.0;"/><text fill="#000000" font-family="Verdana" font-size="13" lengthAdjust="spacing" textLength="159" x="573.125" y="995.8599">- Check for NULL values</text><text fill="#000000" font-family="Verdana" font-size="13" lengthAdjust="spacing" textLength="148" x="573.125" y="1011.6592">- Validate date format</text><text fill="#000000" font-family="Verdana" font-size="13" lengthAdjust="spacing" textLength="147" x="573.125" y="1027.4585">- Ensure CustId exists</text><rect fill="#FFFFFF" height="34.584" rx="12.5" ry="12.5" style="stroke:#000000;stroke-width:1.0;" width="152" x="395.125" y="989.197"/><text fill="#000000" font-family="Verdana" font-size="12" lengthAdjust="spacing" textLength="132" x="405.125" y="1011.2615">Validate parsed data</text><rect fill="#FFFFFF" height="317.4058" style="stroke:#000000;stroke-width:1.0;" width="514" x="379.125" y="1090.188"/><path d="M635.125,1090.188 L635.125,1100.2026 L625.125,1110.2026 L379.125,1110.2026 " fill="none" style="stroke:#000000;stroke-width:1.0;"/><text fill="#000000" font-family="Verdana" font-size="14" lengthAdjust="spacing" textLength="246" x="382.125" y="1105.2632">Update CustomerAssociation Table</text><path d="M572.125,1127.2026 L572.125,1207.1992 L552.125,1211.1992 L572.125,1215.1992 L572.125,1295.1958 A0,0 0 0 0 572.125,1295.1958 L883.125,1295.1958 A0,0 0 0 0 883.125,1295.1958 L883.125,1137.2026 L873.125,1127.2026 L572.125,1127.2026 A0,0 0 0 0 572.125,1127.2026 " fill="#FFFFFF" style="stroke:#000000;stroke-width:1.0;"/><path d="M873.125,1127.2026 L873.125,1137.2026 L883.125,1137.2026 L873.125,1127.2026 " fill="#FFFFFF" style="stroke:#000000;stroke-width:1.0;"/><text fill="#000000" font-family="Verdana" font-size="13" lengthAdjust="spacing" textLength="238" x="578.125" y="1145.2725">UPDATE CustomerAssociation AS ca</text><text fill="#000000" font-family="Verdana" font-size="13" lengthAdjust="spacing" textLength="221" x="578.125" y="1161.0718">INNER JOIN Temp_CustInfo AS tc</text><text fill="#000000" font-family="Verdana" font-size="13" lengthAdjust="spacing" textLength="169" x="588.125" y="1176.8711">ON ca.CustId = tc.CustId</text><text fill="#000000" font-family="Verdana" font-size="13" lengthAdjust="spacing" textLength="290" x="578.125" y="1192.6704">SET ca.LastTicketDate = tc.LastTicketDate</text><text fill="#000000" font-family="Verdana" font-size="13" lengthAdjust="spacing" textLength="265" x="578.125" y="1208.4697">WHERE tc.LastTicketDate IS NOT NULL;</text><text fill="#000000" font-family="Verdana" font-size="13" lengthAdjust="spacing" textLength="5" x="578.125" y="1224.269">&#160;</text><text fill="#000000" font-family="Verdana" font-size="13" lengthAdjust="spacing" textLength="58" x="578.125" y="1240.0684">Purpose:</text><text fill="#000000" font-family="Verdana" font-size="13" lengthAdjust="spacing" textLength="185" x="578.125" y="1255.8677">- Track last betting activity</text><text fill="#000000" font-family="Verdana" font-size="13" lengthAdjust="spacing" textLength="271" x="578.125" y="1271.667">- Used for Customer Association analysis</text><text fill="#000000" font-family="Verdana" font-size="13" lengthAdjust="spacing" textLength="207" x="578.125" y="1287.4663">- Important for fraud detection</text><rect fill="#FFFFFF" height="34.584" rx="12.5" ry="12.5" style="stroke:#000000;stroke-width:1.0;" width="162" x="390.125" y="1193.9072"/><text fill="#000000" font-family="Verdana" font-size="12" lengthAdjust="spacing" textLength="142" x="400.125" y="1215.9717">Execute batch UPDATE</text><path d="M573.125,1330.1958 L573.125,1354.8948 L553.125,1358.8948 L573.125,1362.8948 L573.125,1387.5938 A0,0 0 0 0 573.125,1387.5938 L874.125,1387.5938 A0,0 0 0 0 874.125,1387.5938 L874.125,1340.1958 L864.125,1330.1958 L573.125,1330.1958 A0,0 0 0 0 573.125,1330.1958 " fill="#FFFFFF" style="stroke:#000000;stroke-width:1.0;"/><path d="M864.125,1330.1958 L864.125,1340.1958 L874.125,1340.1958 L864.125,1330.1958 " fill="#FFFFFF" style="stroke:#000000;stroke-width:1.0;"/><text fill="#000000" font-family="Verdana" font-size="13" lengthAdjust="spacing" textLength="280" x="579.125" y="1348.2656">SELECT ROW_COUNT() AS UpdatedCount;</text><text fill="#000000" font-family="Verdana" font-size="13" lengthAdjust="spacing" textLength="5" x="579.125" y="1364.0649">&#160;</text><text fill="#000000" font-family="Verdana" font-size="13" lengthAdjust="spacing" textLength="174" x="579.125" y="1379.8643">For logging and monitoring</text><rect fill="#FFFFFF" height="34.584" rx="12.5" ry="12.5" style="stroke:#000000;stroke-width:1.0;" width="164" x="389.125" y="1341.6028"/><text fill="#000000" font-family="Verdana" font-size="12" lengthAdjust="spacing" textLength="144" x="399.125" y="1363.6672">Get affected row count</text><rect fill="#FFFFFF" height="289.0078" style="stroke:#000000;stroke-width:1.0;" width="614" x="155.375" y="1442.5938"/><path d="M425.375,1442.5938 L425.375,1452.6084 L415.375,1462.6084 L155.375,1462.6084 " fill="none" style="stroke:#000000;stroke-width:1.0;"/><text fill="#000000" font-family="Verdana" font-size="14" lengthAdjust="spacing" textLength="260" x="158.375" y="1457.6689">Handle Missing Customers (Optional)</text><polygon fill="#FFFFFF" points="416.125,1479.6084,526.125,1479.6084,538.125,1491.6084,526.125,1503.6084,416.125,1503.6084,404.125,1491.6084,416.125,1479.6084" style="stroke:#000000;stroke-width:1.0;"/><text fill="#000000" font-family="Verdana" font-size="11" lengthAdjust="spacing" textLength="110" x="416.125" y="1495.9832">Insert if not exists?</text><text fill="#000000" font-family="Verdana" font-size="11" lengthAdjust="spacing" textLength="20" x="384.125" y="1489.2988">yes</text><text fill="#000000" font-family="Verdana" font-size="11" lengthAdjust="spacing" textLength="14" x="538.125" y="1489.2988">no</text><path d="M335.375,1513.6084 L335.375,1593.605 L315.375,1597.605 L335.375,1601.605 L335.375,1681.6016 A0,0 0 0 0 335.375,1681.6016 L624.375,1681.6016 A0,0 0 0 0 624.375,1681.6016 L624.375,1523.6084 L614.375,1513.6084 L335.375,1513.6084 A0,0 0 0 0 335.375,1513.6084 " fill="#FFFFFF" style="stroke:#000000;stroke-width:1.0;"/><path d="M614.375,1513.6084 L614.375,1523.6084 L624.375,1523.6084 L614.375,1513.6084 " fill="#FFFFFF" style="stroke:#000000;stroke-width:1.0;"/><text fill="#000000" font-family="Verdana" font-size="13" lengthAdjust="spacing" textLength="228" x="341.375" y="1531.6782">INSERT INTO CustomerAssociation</text><text fill="#000000" font-family="Verdana" font-size="13" lengthAdjust="spacing" textLength="258" x="351.375" y="1547.4775">(CustId, LastTicketDate, CreatedDate)</text><text fill="#000000" font-family="Verdana" font-size="13" lengthAdjust="spacing" textLength="50" x="341.375" y="1563.2769">SELECT</text><text fill="#000000" font-family="Verdana" font-size="13" lengthAdjust="spacing" textLength="67" x="351.375" y="1579.0762">tc.CustId,</text><text fill="#000000" font-family="Verdana" font-size="13" lengthAdjust="spacing" textLength="124" x="351.375" y="1594.8755">tc.LastTicketDate,</text><text fill="#000000" font-family="Verdana" font-size="13" lengthAdjust="spacing" textLength="44" x="351.375" y="1610.6748">NOW()</text><text fill="#000000" font-family="Verdana" font-size="13" lengthAdjust="spacing" textLength="184" x="341.375" y="1626.4741">FROM Temp_CustInfo AS tc</text><text fill="#000000" font-family="Verdana" font-size="13" lengthAdjust="spacing" textLength="253" x="341.375" y="1642.2734">LEFT JOIN CustomerAssociation AS ca</text><text fill="#000000" font-family="Verdana" font-size="13" lengthAdjust="spacing" textLength="169" x="351.375" y="1658.0728">ON tc.CustId = ca.CustId</text><text fill="#000000" font-family="Verdana" font-size="13" lengthAdjust="spacing" textLength="177" x="341.375" y="1673.8721">WHERE ca.CustId IS NULL;</text><rect fill="#FFFFFF" height="34.584" rx="12.5" ry="12.5" style="stroke:#000000;stroke-width:1.0;" width="140" x="175.375" y="1580.313"/><text fill="#000000" font-family="Verdana" font-size="12" lengthAdjust="spacing" textLength="120" x="185.375" y="1602.3774">Insert new records</text><rect fill="#FFFFFF" height="34.584" rx="12.5" ry="12.5" style="stroke:#000000;stroke-width:1.0;" width="105" x="644.375" y="1513.6084"/><text fill="#000000" font-family="Verdana" font-size="12" lengthAdjust="spacing" textLength="85" x="654.375" y="1535.6729">Skip insertion</text><polygon fill="#FFFFFF" points="471.125,1687.6016,483.125,1699.6016,471.125,1711.6016,459.125,1699.6016,471.125,1687.6016" style="stroke:#000000;stroke-width:1.0;"/><rect fill="#FFFFFF" height="168.1973" style="stroke:#000000;stroke-width:1.0;" width="619" x="374.625" y="1766.6016"/><path d="M440.625,1766.6016 L440.625,1776.6162 L430.625,1786.6162 L374.625,1786.6162 " fill="none" style="stroke:#000000;stroke-width:1.0;"/><text fill="#000000" font-family="Verdana" font-size="14" lengthAdjust="spacing" textLength="56" x="377.625" y="1781.6768">Cleanup</text><path d="M568.625,1808.0085 L568.625,1816.9082 L548.625,1820.9082 L568.625,1824.9082 L568.625,1833.8079 A0,0 0 0 0 568.625,1833.8079 L938.625,1833.8079 A0,0 0 0 0 938.625,1833.8079 L938.625,1818.0085 L928.625,1808.0085 L568.625,1808.0085 A0,0 0 0 0 568.625,1808.0085 " fill="#FFFFFF" style="stroke:#000000;stroke-width:1.0;"/><path d="M928.625,1808.0085 L928.625,1818.0085 L938.625,1818.0085 L928.625,1808.0085 " fill="#FFFFFF" style="stroke:#000000;stroke-width:1.0;"/><text fill="#000000" font-family="Verdana" font-size="13" lengthAdjust="spacing" textLength="349" x="574.625" y="1826.0784">DROP TEMPORARY TABLE IF EXISTS Temp_CustInfo;</text><rect fill="#FFFFFF" height="34.584" rx="12.5" ry="12.5" style="stroke:#000000;stroke-width:1.0;" width="155" x="393.625" y="1803.6162"/><text fill="#000000" font-family="Verdana" font-size="12" lengthAdjust="spacing" textLength="135" x="403.625" y="1825.6807">Drop temporary table</text><path d="M577.625,1873.2002 L577.625,1889.9995 L557.625,1893.9995 L577.625,1897.9995 L577.625,1914.7988 A0,0 0 0 0 577.625,1914.7988 L983.625,1914.7988 A0,0 0 0 0 983.625,1914.7988 L983.625,1883.2002 L973.625,1873.2002 L577.625,1873.2002 A0,0 0 0 0 577.625,1873.2002 " fill="#FFFFFF" style="stroke:#000000;stroke-width:1.0;"/><path d="M973.625,1873.2002 L973.625,1883.2002 L983.625,1883.2002 L973.625,1873.2002 " fill="#FFFFFF" style="stroke:#000000;stroke-width:1.0;"/><text fill="#000000" font-family="Verdana" font-size="13" lengthAdjust="spacing" textLength="178" x="583.625" y="1891.27">INSERT INTO OperationLog</text><text fill="#000000" font-family="Verdana" font-size="13" lengthAdjust="spacing" textLength="385" x="583.625" y="1907.0693">VALUES (NOW(), 'UpdateLastTicketDate', UpdatedCount);</text><rect fill="#FFFFFF" height="34.584" rx="12.5" ry="12.5" style="stroke:#000000;stroke-width:1.0;" width="173" x="384.625" y="1876.7075"/><text fill="#000000" font-family="Verdana" font-size="12" lengthAdjust="spacing" textLength="153" x="394.625" y="1898.772">Log operation (optional)</text><path d="M548.625,1969.7988 L548.625,2097.1934 L528.625,2101.1934 L548.625,2105.1934 L548.625,2232.5879 A0,0 0 0 0 548.625,2232.5879 L830.625,2232.5879 A0,0 0 0 0 830.625,2232.5879 L830.625,1979.7988 L820.625,1969.7988 L548.625,1969.7988 A0,0 0 0 0 548.625,1969.7988 " fill="#FFFFFF" style="stroke:#000000;stroke-width:1.0;"/><path d="M820.625,1969.7988 L820.625,1979.7988 L830.625,1979.7988 L820.625,1969.7988 " fill="#FFFFFF" style="stroke:#000000;stroke-width:1.0;"/><text fill="#000000" font-family="Verdana" font-size="13" font-weight="bold" lengthAdjust="spacing" textLength="69" x="554.625" y="1987.8687">Key Logic</text><text fill="#000000" font-family="Verdana" font-size="13" lengthAdjust="spacing" textLength="6" x="623.625" y="1987.8687">:</text><text fill="#000000" font-family="Verdana" font-size="13" lengthAdjust="spacing" textLength="238" x="554.625" y="2003.668">1. Parse JSON array into temp table</text><text fill="#000000" font-family="Verdana" font-size="13" lengthAdjust="spacing" textLength="172" x="554.625" y="2019.4673">2. Batch UPDATE via JOIN</text><text fill="#000000" font-family="Verdana" font-size="13" lengthAdjust="spacing" textLength="261" x="554.625" y="2035.2666">3. Optionally INSERT missing customers</text><text fill="#000000" font-family="Verdana" font-size="13" lengthAdjust="spacing" textLength="218" x="554.625" y="2051.0659">4. Track operation for monitoring</text><text fill="#000000" font-family="Verdana" font-size="13" lengthAdjust="spacing" textLength="5" x="554.625" y="2066.8652">&#160;</text><text fill="#000000" font-family="Verdana" font-size="13" font-weight="bold" lengthAdjust="spacing" textLength="120" x="554.625" y="2082.6646">Tables Accessed</text><text fill="#000000" font-family="Verdana" font-size="13" lengthAdjust="spacing" textLength="6" x="674.625" y="2082.6646">:</text><text fill="#000000" font-family="Verdana" font-size="13" lengthAdjust="spacing" textLength="246" x="554.625" y="2098.4639">- CustomerAssociation (MAIN TABLE)</text><text fill="#000000" font-family="Verdana" font-size="13" lengthAdjust="spacing" textLength="90" x="564.625" y="2114.2632">* CustId (PK)</text><text fill="#000000" font-family="Verdana" font-size="13" lengthAdjust="spacing" textLength="186" x="564.625" y="2130.0625">* LastTicketDate (Updated)</text><text fill="#000000" font-family="Verdana" font-size="13" lengthAdjust="spacing" textLength="184" x="564.625" y="2145.8618">* Other association fields...</text><text fill="#000000" font-family="Verdana" font-size="13" lengthAdjust="spacing" textLength="5" x="554.625" y="2161.6611">&#160;</text><text fill="#000000" font-family="Verdana" font-size="13" font-weight="bold" lengthAdjust="spacing" textLength="93" x="554.625" y="2177.4604">Performance</text><text fill="#000000" font-family="Verdana" font-size="13" lengthAdjust="spacing" textLength="6" x="647.625" y="2177.4604">:</text><text fill="#000000" font-family="Verdana" font-size="13" lengthAdjust="spacing" textLength="247" x="554.625" y="2193.2598">- Single UPDATE with JOIN (efficient)</text><text fill="#000000" font-family="Verdana" font-size="13" lengthAdjust="spacing" textLength="261" x="554.625" y="2209.0591">- Temporary table for batch processing</text><text fill="#000000" font-family="Verdana" font-size="13" lengthAdjust="spacing" textLength="218" x="554.625" y="2224.8584">- Index on CustId for fast lookup</text><rect fill="#FFFFFF" height="34.584" rx="12.5" ry="12.5" style="stroke:#000000;stroke-width:1.0;" width="115" x="413.625" y="2083.9014"/><text fill="#000000" font-family="Verdana" font-size="12" lengthAdjust="spacing" textLength="95" x="423.625" y="2105.9658">Return success</text><ellipse cx="471.125" cy="2278.5879" fill="none" rx="11" ry="11" style="stroke:#000000;stroke-width:1.0;"/><ellipse cx="471.125" cy="2278.5879" fill="#FFFFFF" rx="6" ry="6" style="stroke:#000000;stroke-width:1.0;"/><line style="stroke:#000000;stroke-width:1.0;" x1="471.125" x2="471.125" y1="164.7813" y2="219.7813"/><polygon fill="#000000" points="467.125,209.7813,471.125,219.7813,475.125,209.7813,471.125,213.7813" style="stroke:#000000;stroke-width:1.0;"/><line style="stroke:#000000;stroke-width:1.0;" x1="471.125" x2="471.125" y1="239.7813" y2="425.8984"/><polygon fill="#000000" points="467.125,415.8984,471.125,425.8984,475.125,415.8984,471.125,419.8984" style="stroke:#000000;stroke-width:1.0;"/><line style="stroke:#000000;stroke-width:1.0;" x1="471.125" x2="471.125" y1="720.4902" y2="841.5015"/><polygon fill="#000000" points="467.125,831.5015,471.125,841.5015,475.125,831.5015,471.125,835.5015" style="stroke:#000000;stroke-width:1.0;"/><line style="stroke:#000000;stroke-width:1.0;" x1="471.125" x2="471.125" y1="876.0854" y2="989.197"/><polygon fill="#000000" points="467.125,979.197,471.125,989.197,475.125,979.197,471.125,983.197" style="stroke:#000000;stroke-width:1.0;"/><line style="stroke:#000000;stroke-width:1.0;" x1="471.125" x2="471.125" y1="460.4824" y2="685.9063"/><polygon fill="#000000" points="467.125,675.9063,471.125,685.9063,475.125,675.9063,471.125,679.9063" style="stroke:#000000;stroke-width:1.0;"/><line style="stroke:#000000;stroke-width:1.0;" x1="471.125" x2="471.125" y1="1228.4912" y2="1341.6028"/><polygon fill="#000000" points="467.125,1331.6028,471.125,1341.6028,475.125,1331.6028,471.125,1335.6028" style="stroke:#000000;stroke-width:1.0;"/><line style="stroke:#000000;stroke-width:1.0;" x1="471.125" x2="471.125" y1="1023.781" y2="1193.9072"/><polygon fill="#000000" points="467.125,1183.9072,471.125,1193.9072,475.125,1183.9072,471.125,1187.9072" style="stroke:#000000;stroke-width:1.0;"/><line style="stroke:#000000;stroke-width:1.0;" x1="404.125" x2="245.375" y1="1491.6084" y2="1491.6084"/><line style="stroke:#000000;stroke-width:1.0;" x1="245.375" x2="245.375" y1="1491.6084" y2="1580.313"/><polygon fill="#000000" points="241.375,1570.313,245.375,1580.313,249.375,1570.313,245.375,1574.313" style="stroke:#000000;stroke-width:1.0;"/><line style="stroke:#000000;stroke-width:1.0;" x1="538.125" x2="696.875" y1="1491.6084" y2="1491.6084"/><line style="stroke:#000000;stroke-width:1.0;" x1="696.875" x2="696.875" y1="1491.6084" y2="1513.6084"/><polygon fill="#000000" points="692.875,1503.6084,696.875,1513.6084,700.875,1503.6084,696.875,1507.6084" style="stroke:#000000;stroke-width:1.0;"/><line style="stroke:#000000;stroke-width:1.0;" x1="245.375" x2="245.375" y1="1614.897" y2="1699.6016"/><line style="stroke:#000000;stroke-width:1.0;" x1="245.375" x2="459.125" y1="1699.6016" y2="1699.6016"/><polygon fill="#000000" points="449.125,1695.6016,459.125,1699.6016,449.125,1703.6016,453.125,1699.6016" style="stroke:#000000;stroke-width:1.0;"/><line style="stroke:#000000;stroke-width:1.0;" x1="696.875" x2="696.875" y1="1548.1924" y2="1699.6016"/><line style="stroke:#000000;stroke-width:1.0;" x1="696.875" x2="483.125" y1="1699.6016" y2="1699.6016"/><polygon fill="#000000" points="493.125,1695.6016,483.125,1699.6016,493.125,1703.6016,489.125,1699.6016" style="stroke:#000000;stroke-width:1.0;"/><line style="stroke:#000000;stroke-width:1.0;" x1="471.125" x2="471.125" y1="1376.1868" y2="1479.6084"/><polygon fill="#000000" points="467.125,1469.6084,471.125,1479.6084,475.125,1469.6084,471.125,1473.6084" style="stroke:#000000;stroke-width:1.0;"/><line style="stroke:#000000;stroke-width:1.0;" x1="471.125" x2="471.125" y1="1838.2002" y2="1876.7075"/><polygon fill="#000000" points="467.125,1866.7075,471.125,1876.7075,475.125,1866.7075,471.125,1870.7075" style="stroke:#000000;stroke-width:1.0;"/><line style="stroke:#000000;stroke-width:1.0;" x1="471.125" x2="471.125" y1="1711.6016" y2="1803.6162"/><polygon fill="#000000" points="467.125,1793.6162,471.125,1803.6162,475.125,1793.6162,471.125,1797.6162" style="stroke:#000000;stroke-width:1.0;"/><line style="stroke:#000000;stroke-width:1.0;" x1="471.125" x2="471.125" y1="1911.2915" y2="2083.9014"/><polygon fill="#000000" points="467.125,2073.9014,471.125,2083.9014,475.125,2073.9014,471.125,2077.9014" style="stroke:#000000;stroke-width:1.0;"/><line style="stroke:#000000;stroke-width:1.0;" x1="471.125" x2="471.125" y1="2118.4854" y2="2267.5879"/><polygon fill="#000000" points="467.125,2257.5879,471.125,2267.5879,475.125,2257.5879,471.125,2261.5879" style="stroke:#000000;stroke-width:1.0;"/><!--SRC=[dLTjRzis4FxkNt4p1aGs72zltGSNm-OuokhMjbnBRZeKXS58T4945WMIIc8C_UyxKfGiAMgppGWicNSytZttt1tpaxgdEmffJ5ZIKKp557p51OrWANX8eqpG4Km2VpCMuMQIISLtL8obv24ZYl5aCoDI1InyeEgAABfPfn4-u1Ykg28iHZlNCN_gT48Y8kZs-_xoVvZhzxj09FXB-Bi386YeI7A7dg8zr2AtHA9AQVUUFL9mvdl_uwndzbrTDdVv8KPD6dk6eP8-5OyifEDenvByJAFP-TRfI4M4wdHI_6RQLUXEapHJi2I2xAYYGdQDUwCL3QbsuG-McX2doPQ3yzxt5hstA4yuuYFOtRt27_fJ6XWrjWJkv-0NiyzgseTUWcikTaIDxD8N-mJZGl7f6bjHTmIdP-U3gg0ECofqpqxEBevFJl4FJaz6voUZavDkkUFRu1Nx5sz-_G_sJqSNRxvdVpWSslUlzQYNcKYvH3PU4XNUGvOJRPV5YgMOrT2IIQ8wJI83iqvR9Ly8jAGvUfesDbqJGRKXHNSf5qJi0GaLqzPCJLRkE70XSETBRpLU_GN1-7A6lt5h9MrbA3awC5q4X_3gmC0LsWkcSzVA3K5AxqteeuhNH0YoR_NCiDqI8qj27Qyik75irZV6LwTNNqI6hSQJeBcyNdnSUy51spwc2zzT1JeWhnwqbVlkp9q4K0PREu8XmWCu-dcOmtBKWx5l8HgyigCEMhwplcODNA-yUJNQQZrfIr_wNuzWuitMyuNl8DDwlPTuVo8nCzHADV0Hu3jfnVmO9lSqV80j5x1OpsRmIEACob9Q6Z9VMrElfT1D9BRMWYBqcKdr0-RQhjhIC27GRBLKTfzfcA7UhQcGzLApgzNrNDHg3w4DIPdlXRk2zzvqqU0uAgcmJ1gIBYGshV0RIknxoOf0onlCDtgjIRnvvwxSbrAO-h3m0WFrs_RMKA8R28A9YN4_t5AbM78718lYaQbzgRFMoTMvAr20AWma8V5UiaCsfxezu0HHPizMa0ofWLtRrDfB5lr95P3j5iLuYk1F4F8iKQt9i5Mpycus4s-zm6BK-EOfZoR5jagusFeXvdTt9YmyTiSJXZCRVtwVGUzG4Rlad4cfjnKnIt2yL6kGk9UJY6t1cIQI2gLVqP8bv-yzmAj20iwUohmjZAnQGf_qTEKYahcZBoAiTuuMrbL6XsDRGgF01v3twKZ_w9NwpOu31_ODweiDSnNXmhjn3XPD2_aHssVkTP3Nn6lbOskZz0WvNzP9gPAp_L0_ckKbmokaeZ5E0IVX5dl_WQN0J0BmM3issBQHzKbCIPAbjZrS2Px-gpbtjVAMBwRSz1hSprC_yElej4oi6Ry3dbAH8-BmWc2jPrMPuHMRq88LVnhFrguFZaaIjl2yB1e3OL2hbleGHK3mHgOoaO3Cmf1A96dDYNx_0zq3diX2l13YmkaGcZCNaLRSG9UZXbfdGtiHiRtqaH732XIT3w4egdXV1BYpbLUzfrmCRQSweAMRIwsUZOUcoKiO6_zfbFjvt4f0PpxMxLgdBATAlnWopl93iTBeh8w5hn1xMEa2Rxy7grj6uqZcTpFZqP8ACz6Ia1RU-CnShoqUJqpTvsNYqEsMXOnYPenUK6UW2JcVMAd-byF0P1IdIKIV0K-t0PZ6gtjwpFb3bdRA7EFTdAUTVm00]--></g></svg>