<svg xmlns="http://www.w3.org/2000/svg" xmlns:xlink="http://www.w3.org/1999/xlink" contentStyleType="text/css" height="2494px" preserveAspectRatio="none" style="width:1765px;height:2494px;background:#FFFFFF;" version="1.1" viewBox="0 0 1765 2494" width="1765px" zoomAndPan="magnify"><defs/><g><text fill="#000000" font-family="Verdana" font-size="22" font-weight="bold" lengthAdjust="spacing" textLength="596" x="583" y="37.1182">Fixed Game Detection - Detection Criteria Logic</text><ellipse cx="1364.125" cy="62.7373" fill="#FFFFFF" rx="10" ry="10" style="stroke:#000000;stroke-width:1.0;"/><rect fill="#FFFFFF" height="49.168" rx="12.5" ry="12.5" style="stroke:#000000;stroke-width:1.0;" width="353" x="1187.625" y="92.7373"/><text fill="#000000" font-family="Verdana" font-size="12" lengthAdjust="spacing" textLength="183" x="1197.625" y="114.8018">Load all tickets for match key</text><text fill="#000000" font-family="Verdana" font-size="12" lengthAdjust="spacing" textLength="333" x="1197.625" y="129.3857">(MatchID, ScoreDiff, BettypeID, BetID, HDP, Betteam)</text><rect fill="#FFFFFF" height="49.168" rx="12.5" ry="12.5" style="stroke:#000000;stroke-width:1.0;" width="176" x="1276.125" y="161.9053"/><text fill="#000000" font-family="Verdana" font-size="12" lengthAdjust="spacing" textLength="147" x="1286.125" y="183.9697">Read rule settings from</text><text fill="#000000" font-family="Verdana" font-size="12" lengthAdjust="spacing" textLength="156" x="1286.125" y="198.5537">MatchMonitorRuleSetting</text><rect fill="#FFFFFF" height="267.5625" style="stroke:#000000;stroke-width:1.0;" width="544.5" x="1187.625" y="221.0732"/><path d="M1299.625,221.0732 L1299.625,231.0879 L1289.625,241.0879 L1187.625,241.0879 " fill="none" style="stroke:#000000;stroke-width:1.0;"/><text fill="#000000" font-family="Verdana" font-size="14" font-weight="bold" lengthAdjust="spacing" textLength="102" x="1190.625" y="236.1484">Rule Settings</text><rect fill="#FFFFFF" height="49.168" rx="12.5" ry="12.5" style="stroke:#000000;stroke-width:1.0;" width="148" x="1290.125" y="258.0879"/><text fill="#000000" font-family="Verdana" font-size="12" lengthAdjust="spacing" textLength="104" x="1300.125" y="280.1523">RuleGroupID = 2</text><text fill="#000000" font-family="Verdana" font-size="12" lengthAdjust="spacing" textLength="128" x="1300.125" y="294.7363">(Fixed Game Detect)</text><rect fill="#FFFFFF" height="34.584" rx="12.5" ry="12.5" style="stroke:#000000;stroke-width:1.0;" width="333" x="1197.625" y="327.2559"/><text fill="#000000" font-family="Verdana" font-size="12" lengthAdjust="spacing" textLength="313" x="1207.625" y="349.3203">SportType (1=Soccer, 2=Basketball, 43=E-Sports)</text><path d="M1445.125,371.8398 L1445.125,420.2378 L1425.125,424.2378 L1445.125,428.2378 L1445.125,476.6357 A0,0 0 0 0 1445.125,476.6357 L1722.125,476.6357 A0,0 0 0 0 1722.125,476.6357 L1722.125,381.8398 L1712.125,371.8398 L1445.125,371.8398 A0,0 0 0 0 1445.125,371.8398 " fill="#FFFFFF" style="stroke:#000000;stroke-width:1.0;"/><path d="M1712.125,371.8398 L1712.125,381.8398 L1722.125,381.8398 L1712.125,371.8398 " fill="#FFFFFF" style="stroke:#000000;stroke-width:1.0;"/><text fill="#000000" font-family="Verdana" font-size="13" font-weight="bold" lengthAdjust="spacing" textLength="110" x="1451.125" y="389.9097">Default Values:</text><text fill="#000000" font-family="Verdana" font-size="13" lengthAdjust="spacing" textLength="114" x="1451.125" y="405.709">- TotalTicket: 40</text><text fill="#000000" font-family="Verdana" font-size="13" lengthAdjust="spacing" textLength="220" x="1451.125" y="421.5083">- TimeStep: 420 seconds (7 min)</text><text fill="#000000" font-family="Verdana" font-size="13" lengthAdjust="spacing" textLength="113" x="1451.125" y="437.3076">- HighStake: 500</text><text fill="#000000" font-family="Verdana" font-size="13" lengthAdjust="spacing" textLength="256" x="1451.125" y="453.1069">- HighStakeTicketPercent: 0.35 (35%)</text><text fill="#000000" font-family="Verdana" font-size="13" lengthAdjust="spacing" textLength="164" x="1451.125" y="468.9063">- OddsSpread: 10 (10%)</text><rect fill="#FFFFFF" height="34.584" rx="12.5" ry="12.5" style="stroke:#000000;stroke-width:1.0;" width="122" x="1303.125" y="406.9458"/><text fill="#000000" font-family="Verdana" font-size="12" lengthAdjust="spacing" textLength="102" x="1313.125" y="429.0103">Reason = 3 (FG)</text><rect fill="#FFFFFF" height="63.752" rx="12.5" ry="12.5" style="stroke:#000000;stroke-width:1.0;" width="260" x="1234.125" y="508.6357"/><text fill="#000000" font-family="Verdana" font-size="12" lengthAdjust="spacing" textLength="185" x="1244.125" y="530.7002">Load tickets into Temp_Trans</text><text fill="#000000" font-family="Verdana" font-size="12" lengthAdjust="spacing" textLength="240" x="1244.125" y="545.2842">(TimeToSecond, TransID, SequenceID,</text><text fill="#000000" font-family="Verdana" font-size="12" lengthAdjust="spacing" textLength="217" x="1244.125" y="559.8682">CustID, Stake, Odds, SignNumber)</text><rect fill="#FFFFFF" height="49.168" rx="12.5" ry="12.5" style="stroke:#000000;stroke-width:1.0;" width="213" x="1257.625" y="592.3877"/><text fill="#000000" font-family="Verdana" font-size="12" lengthAdjust="spacing" textLength="193" x="1267.625" y="614.4521">Group tickets by time windows</text><text fill="#000000" font-family="Verdana" font-size="12" lengthAdjust="spacing" textLength="154" x="1267.625" y="629.0361">using TimeStep intervals</text><rect fill="#FFFFFF" height="520.2705" style="stroke:#000000;stroke-width:1.0;" width="382" x="1173.125" y="651.5557"/><path d="M1321.125,651.5557 L1321.125,661.5703 L1311.125,671.5703 L1173.125,671.5703 " fill="none" style="stroke:#000000;stroke-width:1.0;"/><text fill="#000000" font-family="Verdana" font-size="14" font-weight="bold" lengthAdjust="spacing" textLength="138" x="1176.125" y="666.6309">Group Calculation</text><rect fill="#FFFFFF" height="34.584" rx="12.5" ry="12.5" style="stroke:#000000;stroke-width:1.0;" width="226" x="1251.125" y="688.5703"/><text fill="#000000" font-family="Verdana" font-size="12" lengthAdjust="spacing" textLength="206" x="1261.125" y="710.6348">For each time window, calculate:</text><rect fill="#FFFFFF" height="34.584" rx="12.5" ry="12.5" style="stroke:#000000;stroke-width:1.0;" width="166" x="1281.125" y="743.1543"/><text fill="#000000" font-family="Verdana" font-size="12" lengthAdjust="spacing" textLength="146" x="1291.125" y="765.2188">TotalTicket = COUNT(*)</text><rect fill="#FFFFFF" height="34.584" rx="12.5" ry="12.5" style="stroke:#000000;stroke-width:1.0;" width="362" x="1183.125" y="797.7383"/><text fill="#000000" font-family="Verdana" font-size="12" lengthAdjust="spacing" textLength="342" x="1193.125" y="819.8027">TotalHighStake = COUNT(WHERE Stake &gt;= HighStake)</text><rect fill="#FFFFFF" height="34.584" rx="12.5" ry="12.5" style="stroke:#000000;stroke-width:1.0;" width="158" x="1285.125" y="852.3223"/><text fill="#000000" font-family="Verdana" font-size="12" lengthAdjust="spacing" textLength="138" x="1295.125" y="874.3867">MinOdds = MIN(Odds)</text><rect fill="#FFFFFF" height="34.584" rx="12.5" ry="12.5" style="stroke:#000000;stroke-width:1.0;" width="164" x="1282.125" y="906.9063"/><text fill="#000000" font-family="Verdana" font-size="12" lengthAdjust="spacing" textLength="144" x="1292.125" y="928.9707">MaxOdds = MAX(Odds)</text><rect fill="#FFFFFF" height="34.584" rx="12.5" ry="12.5" style="stroke:#000000;stroke-width:1.0;" width="326" x="1201.125" y="961.4902"/><text fill="#000000" font-family="Verdana" font-size="12" lengthAdjust="spacing" textLength="306" x="1211.125" y="983.5547">MinNegativeOdds = MIN(Odds WHERE Odds &lt; 0)</text><rect fill="#FFFFFF" height="34.584" rx="12.5" ry="12.5" style="stroke:#000000;stroke-width:1.0;" width="319" x="1204.625" y="1016.0742"/><text fill="#000000" font-family="Verdana" font-size="12" lengthAdjust="spacing" textLength="299" x="1214.625" y="1038.1387">MinPositiveOdds = MIN(Odds WHERE Odds &gt; 0)</text><rect fill="#FFFFFF" height="34.584" rx="12.5" ry="12.5" style="stroke:#000000;stroke-width:1.0;" width="242" x="1243.125" y="1070.6582"/><text fill="#000000" font-family="Verdana" font-size="12" lengthAdjust="spacing" textLength="222" x="1253.125" y="1092.7227">MinSignNumber = MIN(SIGN(Odds))</text><rect fill="#FFFFFF" height="34.584" rx="12.5" ry="12.5" style="stroke:#000000;stroke-width:1.0;" width="248" x="1240.125" y="1125.2422"/><text fill="#000000" font-family="Verdana" font-size="12" lengthAdjust="spacing" textLength="228" x="1250.125" y="1147.3066">MaxSignNumber = MAX(SIGN(Odds))</text><rect fill="#FFFFFF" height="599.3325" style="stroke:#000000;stroke-width:1.0;" width="1753" x="6" y="1181.8262"/><path d="M136,1181.8262 L136,1191.8408 L126,1201.8408 L6,1201.8408 " fill="none" style="stroke:#000000;stroke-width:1.0;"/><text fill="#000000" font-family="Verdana" font-size="14" font-weight="bold" lengthAdjust="spacing" textLength="120" x="9" y="1196.9014">Detection Rules</text><polygon fill="#FFFFFF" points="1274.625,1218.8408,1453.625,1218.8408,1465.625,1230.8408,1453.625,1242.8408,1274.625,1242.8408,1262.625,1230.8408,1274.625,1218.8408" style="stroke:#000000;stroke-width:1.0;"/><text fill="#000000" font-family="Verdana" font-size="11" lengthAdjust="spacing" textLength="179" x="1274.625" y="1235.2156">TotalTicket &gt; Rule_TotalTicket?</text><text fill="#000000" font-family="Verdana" font-size="11" lengthAdjust="spacing" textLength="20" x="1242.625" y="1228.5313">yes</text><text fill="#000000" font-family="Verdana" font-size="11" lengthAdjust="spacing" textLength="14" x="1465.625" y="1228.5313">no</text><polygon fill="#FFFFFF" points="893.25,1252.8408,1254.25,1252.8408,1266.25,1264.8408,1254.25,1276.8408,893.25,1276.8408,881.25,1264.8408,893.25,1252.8408" style="stroke:#000000;stroke-width:1.0;"/><text fill="#000000" font-family="Verdana" font-size="11" lengthAdjust="spacing" textLength="361" x="893.25" y="1269.2156">(TotalHighStake / TotalTicket) &gt; Rule_HighStakeTicketPercent?</text><text fill="#000000" font-family="Verdana" font-size="11" lengthAdjust="spacing" textLength="20" x="861.25" y="1262.5313">yes</text><text fill="#000000" font-family="Verdana" font-size="11" lengthAdjust="spacing" textLength="14" x="1266.25" y="1262.5313">no</text><path d="M827,1286.8408 L827,1344.2388 L1044,1344.2388 L1044,1296.8408 L1034,1286.8408 L827,1286.8408 " fill="#FFFFFF" style="stroke:#000000;stroke-width:1.0;"/><path d="M1034,1286.8408 L1034,1296.8408 L1044,1296.8408 L1034,1286.8408 " fill="#FFFFFF" style="stroke:#000000;stroke-width:1.0;"/><text fill="#000000" font-family="Verdana" font-size="13" font-weight="bold" lengthAdjust="spacing" textLength="171" x="833" y="1304.9106">Rule A: Same Sign Odds</text><text fill="#000000" font-family="Verdana" font-size="13" lengthAdjust="spacing" textLength="171" x="833" y="1320.71">All bets on same outcome</text><text fill="#000000" font-family="Verdana" font-size="13" lengthAdjust="spacing" textLength="196" x="833" y="1336.5093">(e.g., all bets on Home team)</text><polygon fill="#FFFFFF" points="610,1344.2388,815,1344.2388,827,1356.2388,815,1368.2388,610,1368.2388,598,1356.2388,610,1344.2388" style="stroke:#000000;stroke-width:1.0;"/><text fill="#000000" font-family="Verdana" font-size="11" lengthAdjust="spacing" textLength="205" x="610" y="1360.6135">MinSignNumber = MaxSignNumber?</text><text fill="#000000" font-family="Verdana" font-size="11" lengthAdjust="spacing" textLength="95" x="503" y="1353.9292">yes - Same Sign</text><text fill="#000000" font-family="Verdana" font-size="11" lengthAdjust="spacing" textLength="112" x="827" y="1353.9292">no - Different Signs</text><rect fill="#FFFFFF" height="49.168" rx="12.5" ry="12.5" style="stroke:#000000;stroke-width:1.0;" width="287" x="236.5" y="1378.2388"/><text fill="#000000" font-family="Verdana" font-size="12" lengthAdjust="spacing" textLength="145" x="246.5" y="1400.3032">Calculate OddsSpread:</text><text fill="#000000" font-family="Verdana" font-size="12" lengthAdjust="spacing" textLength="267" x="246.5" y="1414.8872">ABS(ABS(MaxOdds) - ABS(MinOdds)) * 100</text><polygon fill="#FFFFFF" points="278,1447.4067,482,1447.4067,494,1459.4067,482,1471.4067,278,1471.4067,266,1459.4067,278,1447.4067" style="stroke:#000000;stroke-width:1.0;"/><text fill="#000000" font-family="Verdana" font-size="11" lengthAdjust="spacing" textLength="204" x="278" y="1463.7815">OddsSpread &gt;= Rule_OddsSpread?</text><text fill="#000000" font-family="Verdana" font-size="11" lengthAdjust="spacing" textLength="20" x="246" y="1457.0972">yes</text><text fill="#000000" font-family="Verdana" font-size="11" lengthAdjust="spacing" textLength="14" x="494" y="1457.0972">no</text><polygon fill="#FFFFFF" points="125,1481.4067,329,1481.4067,341,1493.4067,329,1505.4067,125,1505.4067,113,1493.4067,125,1481.4067" style="stroke:#000000;stroke-width:1.0;"/><text fill="#000000" font-family="Verdana" font-size="11" lengthAdjust="spacing" textLength="204" x="125" y="1497.7815">TimeToSecond &gt;= FromTransDate?</text><text fill="#000000" font-family="Verdana" font-size="11" lengthAdjust="spacing" textLength="20" x="93" y="1491.0972">yes</text><text fill="#000000" font-family="Verdana" font-size="11" lengthAdjust="spacing" textLength="14" x="341" y="1491.0972">no</text><rect fill="#FFFFFF" height="49.168" rx="12.5" ry="12.5" style="stroke:#000000;stroke-width:1.0;" width="170" x="18" y="1515.4067"/><text fill="#000000" font-family="Verdana" font-size="12" lengthAdjust="spacing" textLength="125" x="28" y="1537.4712">Add time window to</text><text fill="#000000" font-family="Verdana" font-size="12" lengthAdjust="spacing" textLength="150" x="28" y="1552.0552">Temp_FixedTransRange</text><rect fill="#FFFFFF" height="34.584" rx="12.5" ry="12.5" style="stroke:#000000;stroke-width:1.0;" width="147" x="29.5" y="1584.5747"/><text fill="#000000" font-family="Verdana" font-size="12" lengthAdjust="spacing" textLength="127" x="39.5" y="1606.6392">DETECTED by Rule A</text><rect fill="#FFFFFF" height="34.584" rx="12.5" ry="12.5" style="stroke:#000000;stroke-width:1.0;" width="104" x="299" y="1515.4067"/><text fill="#000000" font-family="Verdana" font-size="12" lengthAdjust="spacing" textLength="84" x="309" y="1537.4712">Skip (too old)</text><polygon fill="#FFFFFF" points="227,1625.1587,239,1637.1587,227,1649.1587,215,1637.1587,227,1625.1587" style="stroke:#000000;stroke-width:1.0;"/><rect fill="#FFFFFF" height="34.584" rx="12.5" ry="12.5" style="stroke:#000000;stroke-width:1.0;" width="200" x="433" y="1481.4067"/><text fill="#000000" font-family="Verdana" font-size="12" lengthAdjust="spacing" textLength="180" x="443" y="1503.4712">Skip (odds spread too small)</text><polygon fill="#FFFFFF" points="380,1655.1587,392,1667.1587,380,1679.1587,368,1667.1587,380,1655.1587" style="stroke:#000000;stroke-width:1.0;"/><rect fill="#FFFFFF" height="49.168" rx="12.5" ry="12.5" style="stroke:#000000;stroke-width:1.0;" width="430" x="830" y="1378.2388"/><text fill="#000000" font-family="Verdana" font-size="12" lengthAdjust="spacing" textLength="145" x="840" y="1400.3032">Calculate OddsSpread:</text><text fill="#000000" font-family="Verdana" font-size="12" lengthAdjust="spacing" textLength="410" x="840" y="1414.8872">((1 - ABS(MinNegativeOdds)) + (1 - ABS(MinPositiveOdds))) * 100</text><polygon fill="#FFFFFF" points="943,1447.4067,1147,1447.4067,1159,1459.4067,1147,1471.4067,943,1471.4067,931,1459.4067,943,1447.4067" style="stroke:#000000;stroke-width:1.0;"/><text fill="#000000" font-family="Verdana" font-size="11" lengthAdjust="spacing" textLength="204" x="943" y="1463.7815">OddsSpread &gt;= Rule_OddsSpread?</text><text fill="#000000" font-family="Verdana" font-size="11" lengthAdjust="spacing" textLength="20" x="911" y="1457.0972">yes</text><text fill="#000000" font-family="Verdana" font-size="11" lengthAdjust="spacing" textLength="14" x="1159" y="1457.0972">no</text><polygon fill="#FFFFFF" points="790,1481.4067,994,1481.4067,1006,1493.4067,994,1505.4067,790,1505.4067,778,1493.4067,790,1481.4067" style="stroke:#000000;stroke-width:1.0;"/><text fill="#000000" font-family="Verdana" font-size="11" lengthAdjust="spacing" textLength="204" x="790" y="1497.7815">TimeToSecond &gt;= FromTransDate?</text><text fill="#000000" font-family="Verdana" font-size="11" lengthAdjust="spacing" textLength="20" x="758" y="1491.0972">yes</text><text fill="#000000" font-family="Verdana" font-size="11" lengthAdjust="spacing" textLength="14" x="1006" y="1491.0972">no</text><rect fill="#FFFFFF" height="49.168" rx="12.5" ry="12.5" style="stroke:#000000;stroke-width:1.0;" width="170" x="683" y="1515.4067"/><text fill="#000000" font-family="Verdana" font-size="12" lengthAdjust="spacing" textLength="125" x="693" y="1537.4712">Add time window to</text><text fill="#000000" font-family="Verdana" font-size="12" lengthAdjust="spacing" textLength="150" x="693" y="1552.0552">Temp_FixedTransRange</text><rect fill="#FFFFFF" height="34.584" rx="12.5" ry="12.5" style="stroke:#000000;stroke-width:1.0;" width="147" x="694.5" y="1584.5747"/><text fill="#000000" font-family="Verdana" font-size="12" lengthAdjust="spacing" textLength="127" x="704.5" y="1606.6392">DETECTED by Rule B</text><rect fill="#FFFFFF" height="34.584" rx="12.5" ry="12.5" style="stroke:#000000;stroke-width:1.0;" width="104" x="964" y="1515.4067"/><text fill="#000000" font-family="Verdana" font-size="12" lengthAdjust="spacing" textLength="84" x="974" y="1537.4712">Skip (too old)</text><polygon fill="#FFFFFF" points="892,1625.1587,904,1637.1587,892,1649.1587,880,1637.1587,892,1625.1587" style="stroke:#000000;stroke-width:1.0;"/><rect fill="#FFFFFF" height="34.584" rx="12.5" ry="12.5" style="stroke:#000000;stroke-width:1.0;" width="200" x="1098" y="1481.4067"/><text fill="#000000" font-family="Verdana" font-size="12" lengthAdjust="spacing" textLength="180" x="1108" y="1503.4712">Skip (odds spread too small)</text><polygon fill="#FFFFFF" points="1045,1655.1587,1057,1667.1587,1045,1679.1587,1033,1667.1587,1045,1655.1587" style="stroke:#000000;stroke-width:1.0;"/><polygon fill="#FFFFFF" points="712.5,1685.1587,724.5,1697.1587,712.5,1709.1587,700.5,1697.1587,712.5,1685.1587" style="stroke:#000000;stroke-width:1.0;"/><rect fill="#FFFFFF" height="34.584" rx="12.5" ry="12.5" style="stroke:#000000;stroke-width:1.0;" width="194" x="1338" y="1286.8408"/><text fill="#000000" font-family="Verdana" font-size="12" lengthAdjust="spacing" textLength="174" x="1348" y="1308.9053">Skip (high stake % too low)</text><polygon fill="#FFFFFF" points="1073.75,1715.1587,1085.75,1727.1587,1073.75,1739.1587,1061.75,1727.1587,1073.75,1715.1587" style="stroke:#000000;stroke-width:1.0;"/><rect fill="#FFFFFF" height="34.584" rx="12.5" ry="12.5" style="stroke:#000000;stroke-width:1.0;" width="185" x="1562" y="1252.8408"/><text fill="#000000" font-family="Verdana" font-size="12" lengthAdjust="spacing" textLength="165" x="1572" y="1274.9053">Skip (total tickets too low)</text><polygon fill="#FFFFFF" points="1364.125,1745.1587,1376.125,1757.1587,1364.125,1769.1587,1352.125,1757.1587,1364.125,1745.1587" style="stroke:#000000;stroke-width:1.0;"/><rect fill="#FFFFFF" height="439.2705" style="stroke:#000000;stroke-width:1.0;" width="381.5" x="1163.125" y="1791.1587"/><path d="M1280.125,1791.1587 L1280.125,1801.1733 L1270.125,1811.1733 L1163.125,1811.1733 " fill="none" style="stroke:#000000;stroke-width:1.0;"/><text fill="#000000" font-family="Verdana" font-size="14" font-weight="bold" lengthAdjust="spacing" textLength="107" x="1166.125" y="1806.2339">Output Result</text><rect fill="#FFFFFF" height="49.168" rx="12.5" ry="12.5" style="stroke:#000000;stroke-width:1.0;" width="195" x="1266.625" y="1828.1733"/><text fill="#000000" font-family="Verdana" font-size="12" lengthAdjust="spacing" textLength="175" x="1276.625" y="1850.2378">Join detected time windows</text><text fill="#000000" font-family="Verdana" font-size="12" lengthAdjust="spacing" textLength="122" x="1276.625" y="1864.8218">with original tickets</text><rect fill="#FFFFFF" height="34.584" rx="12.5" ry="12.5" style="stroke:#000000;stroke-width:1.0;" width="341" x="1193.625" y="1897.3413"/><text fill="#000000" font-family="Verdana" font-size="12" lengthAdjust="spacing" textLength="321" x="1203.625" y="1919.4058">GROUP_CONCAT(DISTINCT TransID) AS TransIDList</text><rect fill="#FFFFFF" height="34.584" rx="12.5" ry="12.5" style="stroke:#000000;stroke-width:1.0;" width="329" x="1199.625" y="1951.9253"/><text fill="#000000" font-family="Verdana" font-size="12" lengthAdjust="spacing" textLength="309" x="1209.625" y="1973.9897">GROUP_CONCAT(DISTINCT CustID) AS CustIDList</text><polygon fill="#FFFFFF" points="1290.125,2006.5093,1438.125,2006.5093,1450.125,2018.5093,1438.125,2030.5093,1290.125,2030.5093,1278.125,2018.5093,1290.125,2006.5093" style="stroke:#000000;stroke-width:1.0;"/><text fill="#000000" font-family="Verdana" font-size="11" lengthAdjust="spacing" textLength="148" x="1290.125" y="2022.884">TransIDList IS NOT NULL?</text><text fill="#000000" font-family="Verdana" font-size="11" lengthAdjust="spacing" textLength="20" x="1258.125" y="2016.1997">yes</text><text fill="#000000" font-family="Verdana" font-size="11" lengthAdjust="spacing" textLength="14" x="1450.125" y="2016.1997">no</text><rect fill="#FFFFFF" height="78.3359" rx="12.5" ry="12.5" style="stroke:#000000;stroke-width:1.0;" width="170" x="1183.125" y="2040.5093"/><text fill="#000000" font-family="Verdana" font-size="12" lengthAdjust="spacing" textLength="150" x="1193.125" y="2062.5737">Return detection result:</text><text fill="#000000" font-family="Verdana" font-size="12" lengthAdjust="spacing" textLength="81" x="1193.125" y="2077.1577">- Reason = 3</text><text fill="#000000" font-family="Verdana" font-size="12" lengthAdjust="spacing" textLength="80" x="1193.125" y="2091.7417">- TransIDList</text><text fill="#000000" font-family="Verdana" font-size="12" lengthAdjust="spacing" textLength="74" x="1193.125" y="2106.3257">- CustIDList</text><rect fill="#FFFFFF" height="34.584" rx="12.5" ry="12.5" style="stroke:#000000;stroke-width:1.0;" width="132" x="1202.125" y="2153.8452"/><text fill="#000000" font-family="Verdana" font-size="12" lengthAdjust="spacing" textLength="112" x="1212.125" y="2175.9097">MATCH DETECTED</text><rect fill="#FFFFFF" height="34.584" rx="12.5" ry="12.5" style="stroke:#000000;stroke-width:1.0;" width="98" x="1411.125" y="2040.5093"/><text fill="#000000" font-family="Verdana" font-size="12" lengthAdjust="spacing" textLength="78" x="1421.125" y="2062.5737">Return NULL</text><rect fill="#FFFFFF" height="34.584" rx="12.5" ry="12.5" style="stroke:#000000;stroke-width:1.0;" width="115" x="1402.625" y="2110.0933"/><text fill="#000000" font-family="Verdana" font-size="12" lengthAdjust="spacing" textLength="95" x="1412.625" y="2132.1577">NO DETECTION</text><polygon fill="#FFFFFF" points="1364.125,2194.4292,1376.125,2206.4292,1364.125,2218.4292,1352.125,2206.4292,1364.125,2194.4292" style="stroke:#000000;stroke-width:1.0;"/><path d="M1395.125,2240.4292 L1395.125,2487.4189 L1714.125,2487.4189 L1714.125,2250.4292 L1704.125,2240.4292 L1395.125,2240.4292 " fill="#FFFFFF" style="stroke:#000000;stroke-width:1.0;"/><path d="M1704.125,2240.4292 L1704.125,2250.4292 L1714.125,2250.4292 L1704.125,2240.4292 " fill="#FFFFFF" style="stroke:#000000;stroke-width:1.0;"/><text fill="#000000" font-family="Verdana" font-size="13" font-weight="bold" lengthAdjust="spacing" textLength="142" x="1401.125" y="2258.499">Example Detection:</text><text fill="#000000" font-family="Verdana" font-size="13" lengthAdjust="spacing" textLength="5" x="1401.125" y="2274.2983">&#160;</text><text fill="#000000" font-family="Verdana" font-size="13" font-weight="bold" lengthAdjust="spacing" textLength="44" x="1401.125" y="2290.0977">Input:</text><text fill="#000000" font-family="Verdana" font-size="13" lengthAdjust="spacing" textLength="163" x="1401.125" y="2305.897">- 45 tickets in 7 minutes</text><text fill="#000000" font-family="Verdana" font-size="13" lengthAdjust="spacing" textLength="206" x="1401.125" y="2321.6963">- 18 tickets with Stake &gt;= 500</text><text fill="#000000" font-family="Verdana" font-size="13" lengthAdjust="spacing" textLength="285" x="1401.125" y="2337.4956">- All bets on Home team (odds: 1.83-1.87)</text><text fill="#000000" font-family="Verdana" font-size="13" lengthAdjust="spacing" textLength="5" x="1401.125" y="2353.2949">&#160;</text><text fill="#000000" font-family="Verdana" font-size="13" font-weight="bold" lengthAdjust="spacing" textLength="57" x="1401.125" y="2369.0942">Checks:</text><text fill="#000000" font-family="Verdana" font-size="13" lengthAdjust="spacing" textLength="187" x="1401.125" y="2384.8936">- TotalTicket (45) &gt; 40 &#226;&#339;&#8220;</text><text fill="#000000" font-family="Verdana" font-size="13" lengthAdjust="spacing" textLength="255" x="1401.125" y="2400.6929">- HighStakePercent (40%) &gt; 35% &#226;&#339;&#8220;</text><text fill="#000000" font-family="Verdana" font-size="13" lengthAdjust="spacing" textLength="298" x="1401.125" y="2416.4922">- OddsSpread: ABS(1.87 - 1.83) * 100 = 4%</text><text fill="#000000" font-family="Verdana" font-size="13" lengthAdjust="spacing" textLength="165" x="1411.125" y="2432.2915">(may need recalculation)</text><text fill="#000000" font-family="Verdana" font-size="13" lengthAdjust="spacing" textLength="148" x="1401.125" y="2448.0908">- Same Sign: Yes &#226;&#339;&#8220;</text><text fill="#000000" font-family="Verdana" font-size="13" lengthAdjust="spacing" textLength="5" x="1401.125" y="2463.8901">&#160;</text><text fill="#000000" font-family="Verdana" font-size="13" font-weight="bold" lengthAdjust="spacing" textLength="50" x="1401.125" y="2479.6895">Result:</text><text fill="#000000" font-family="Verdana" font-size="13" lengthAdjust="spacing" textLength="228" x="1456.125" y="2479.6895">DETECTED (if OddsSpread passes)</text><ellipse cx="1364.125" cy="2363.9241" fill="none" rx="11" ry="11" style="stroke:#000000;stroke-width:1.0;"/><ellipse cx="1364.125" cy="2363.9241" fill="#FFFFFF" rx="6" ry="6" style="stroke:#000000;stroke-width:1.0;"/><line style="stroke:#000000;stroke-width:1.0;" x1="1364.125" x2="1364.125" y1="72.7373" y2="92.7373"/><polygon fill="#000000" points="1360.125,82.7373,1364.125,92.7373,1368.125,82.7373,1364.125,86.7373" style="stroke:#000000;stroke-width:1.0;"/><line style="stroke:#000000;stroke-width:1.0;" x1="1364.125" x2="1364.125" y1="141.9053" y2="161.9053"/><polygon fill="#000000" points="1360.125,151.9053,1364.125,161.9053,1368.125,151.9053,1364.125,155.9053" style="stroke:#000000;stroke-width:1.0;"/><line style="stroke:#000000;stroke-width:1.0;" x1="1364.125" x2="1364.125" y1="307.2559" y2="327.2559"/><polygon fill="#000000" points="1360.125,317.2559,1364.125,327.2559,1368.125,317.2559,1364.125,321.2559" style="stroke:#000000;stroke-width:1.0;"/><line style="stroke:#000000;stroke-width:1.0;" x1="1364.125" x2="1364.125" y1="361.8398" y2="406.9458"/><polygon fill="#000000" points="1360.125,396.9458,1364.125,406.9458,1368.125,396.9458,1364.125,400.9458" style="stroke:#000000;stroke-width:1.0;"/><line style="stroke:#000000;stroke-width:1.0;" x1="1364.125" x2="1364.125" y1="211.0732" y2="258.0879"/><polygon fill="#000000" points="1360.125,248.0879,1364.125,258.0879,1368.125,248.0879,1364.125,252.0879" style="stroke:#000000;stroke-width:1.0;"/><line style="stroke:#000000;stroke-width:1.0;" x1="1364.125" x2="1364.125" y1="441.5298" y2="508.6357"/><polygon fill="#000000" points="1360.125,498.6357,1364.125,508.6357,1368.125,498.6357,1364.125,502.6357" style="stroke:#000000;stroke-width:1.0;"/><line style="stroke:#000000;stroke-width:1.0;" x1="1364.125" x2="1364.125" y1="572.3877" y2="592.3877"/><polygon fill="#000000" points="1360.125,582.3877,1364.125,592.3877,1368.125,582.3877,1364.125,586.3877" style="stroke:#000000;stroke-width:1.0;"/><line style="stroke:#000000;stroke-width:1.0;" x1="1364.125" x2="1364.125" y1="723.1543" y2="743.1543"/><polygon fill="#000000" points="1360.125,733.1543,1364.125,743.1543,1368.125,733.1543,1364.125,737.1543" style="stroke:#000000;stroke-width:1.0;"/><line style="stroke:#000000;stroke-width:1.0;" x1="1364.125" x2="1364.125" y1="777.7383" y2="797.7383"/><polygon fill="#000000" points="1360.125,787.7383,1364.125,797.7383,1368.125,787.7383,1364.125,791.7383" style="stroke:#000000;stroke-width:1.0;"/><line style="stroke:#000000;stroke-width:1.0;" x1="1364.125" x2="1364.125" y1="832.3223" y2="852.3223"/><polygon fill="#000000" points="1360.125,842.3223,1364.125,852.3223,1368.125,842.3223,1364.125,846.3223" style="stroke:#000000;stroke-width:1.0;"/><line style="stroke:#000000;stroke-width:1.0;" x1="1364.125" x2="1364.125" y1="886.9063" y2="906.9063"/><polygon fill="#000000" points="1360.125,896.9063,1364.125,906.9063,1368.125,896.9063,1364.125,900.9063" style="stroke:#000000;stroke-width:1.0;"/><line style="stroke:#000000;stroke-width:1.0;" x1="1364.125" x2="1364.125" y1="941.4902" y2="961.4902"/><polygon fill="#000000" points="1360.125,951.4902,1364.125,961.4902,1368.125,951.4902,1364.125,955.4902" style="stroke:#000000;stroke-width:1.0;"/><line style="stroke:#000000;stroke-width:1.0;" x1="1364.125" x2="1364.125" y1="996.0742" y2="1016.0742"/><polygon fill="#000000" points="1360.125,1006.0742,1364.125,1016.0742,1368.125,1006.0742,1364.125,1010.0742" style="stroke:#000000;stroke-width:1.0;"/><line style="stroke:#000000;stroke-width:1.0;" x1="1364.125" x2="1364.125" y1="1050.6582" y2="1070.6582"/><polygon fill="#000000" points="1360.125,1060.6582,1364.125,1070.6582,1368.125,1060.6582,1364.125,1064.6582" style="stroke:#000000;stroke-width:1.0;"/><line style="stroke:#000000;stroke-width:1.0;" x1="1364.125" x2="1364.125" y1="1105.2422" y2="1125.2422"/><polygon fill="#000000" points="1360.125,1115.2422,1364.125,1125.2422,1368.125,1115.2422,1364.125,1119.2422" style="stroke:#000000;stroke-width:1.0;"/><line style="stroke:#000000;stroke-width:1.0;" x1="1364.125" x2="1364.125" y1="641.5557" y2="688.5703"/><polygon fill="#000000" points="1360.125,678.5703,1364.125,688.5703,1368.125,678.5703,1364.125,682.5703" style="stroke:#000000;stroke-width:1.0;"/><line style="stroke:#000000;stroke-width:1.0;" x1="103" x2="103" y1="1564.5747" y2="1584.5747"/><polygon fill="#000000" points="99,1574.5747,103,1584.5747,107,1574.5747,103,1578.5747" style="stroke:#000000;stroke-width:1.0;"/><line style="stroke:#000000;stroke-width:1.0;" x1="113" x2="103" y1="1493.4067" y2="1493.4067"/><line style="stroke:#000000;stroke-width:1.0;" x1="103" x2="103" y1="1493.4067" y2="1515.4067"/><polygon fill="#000000" points="99,1505.4067,103,1515.4067,107,1505.4067,103,1509.4067" style="stroke:#000000;stroke-width:1.0;"/><line style="stroke:#000000;stroke-width:1.0;" x1="341" x2="351" y1="1493.4067" y2="1493.4067"/><line style="stroke:#000000;stroke-width:1.0;" x1="351" x2="351" y1="1493.4067" y2="1515.4067"/><polygon fill="#000000" points="347,1505.4067,351,1515.4067,355,1505.4067,351,1509.4067" style="stroke:#000000;stroke-width:1.0;"/><line style="stroke:#000000;stroke-width:1.0;" x1="103" x2="103" y1="1619.1587" y2="1637.1587"/><line style="stroke:#000000;stroke-width:1.0;" x1="103" x2="215" y1="1637.1587" y2="1637.1587"/><polygon fill="#000000" points="205,1633.1587,215,1637.1587,205,1641.1587,209,1637.1587" style="stroke:#000000;stroke-width:1.0;"/><line style="stroke:#000000;stroke-width:1.0;" x1="351" x2="351" y1="1549.9907" y2="1637.1587"/><line style="stroke:#000000;stroke-width:1.0;" x1="351" x2="239" y1="1637.1587" y2="1637.1587"/><polygon fill="#000000" points="249,1633.1587,239,1637.1587,249,1641.1587,245,1637.1587" style="stroke:#000000;stroke-width:1.0;"/><line style="stroke:#000000;stroke-width:1.0;" x1="266" x2="227" y1="1459.4067" y2="1459.4067"/><line style="stroke:#000000;stroke-width:1.0;" x1="227" x2="227" y1="1459.4067" y2="1481.4067"/><polygon fill="#000000" points="223,1471.4067,227,1481.4067,231,1471.4067,227,1475.4067" style="stroke:#000000;stroke-width:1.0;"/><line style="stroke:#000000;stroke-width:1.0;" x1="494" x2="533" y1="1459.4067" y2="1459.4067"/><line style="stroke:#000000;stroke-width:1.0;" x1="533" x2="533" y1="1459.4067" y2="1481.4067"/><polygon fill="#000000" points="529,1471.4067,533,1481.4067,537,1471.4067,533,1475.4067" style="stroke:#000000;stroke-width:1.0;"/><line style="stroke:#000000;stroke-width:1.0;" x1="227" x2="227" y1="1649.1587" y2="1667.1587"/><line style="stroke:#000000;stroke-width:1.0;" x1="227" x2="368" y1="1667.1587" y2="1667.1587"/><polygon fill="#000000" points="358,1663.1587,368,1667.1587,358,1671.1587,362,1667.1587" style="stroke:#000000;stroke-width:1.0;"/><line style="stroke:#000000;stroke-width:1.0;" x1="533" x2="533" y1="1515.9907" y2="1667.1587"/><line style="stroke:#000000;stroke-width:1.0;" x1="533" x2="392" y1="1667.1587" y2="1667.1587"/><polygon fill="#000000" points="402,1663.1587,392,1667.1587,402,1671.1587,398,1667.1587" style="stroke:#000000;stroke-width:1.0;"/><line style="stroke:#000000;stroke-width:1.0;" x1="380" x2="380" y1="1427.4067" y2="1447.4067"/><polygon fill="#000000" points="376,1437.4067,380,1447.4067,384,1437.4067,380,1441.4067" style="stroke:#000000;stroke-width:1.0;"/><line style="stroke:#000000;stroke-width:1.0;" x1="768" x2="768" y1="1564.5747" y2="1584.5747"/><polygon fill="#000000" points="764,1574.5747,768,1584.5747,772,1574.5747,768,1578.5747" style="stroke:#000000;stroke-width:1.0;"/><line style="stroke:#000000;stroke-width:1.0;" x1="778" x2="768" y1="1493.4067" y2="1493.4067"/><line style="stroke:#000000;stroke-width:1.0;" x1="768" x2="768" y1="1493.4067" y2="1515.4067"/><polygon fill="#000000" points="764,1505.4067,768,1515.4067,772,1505.4067,768,1509.4067" style="stroke:#000000;stroke-width:1.0;"/><line style="stroke:#000000;stroke-width:1.0;" x1="1006" x2="1016" y1="1493.4067" y2="1493.4067"/><line style="stroke:#000000;stroke-width:1.0;" x1="1016" x2="1016" y1="1493.4067" y2="1515.4067"/><polygon fill="#000000" points="1012,1505.4067,1016,1515.4067,1020,1505.4067,1016,1509.4067" style="stroke:#000000;stroke-width:1.0;"/><line style="stroke:#000000;stroke-width:1.0;" x1="768" x2="768" y1="1619.1587" y2="1637.1587"/><line style="stroke:#000000;stroke-width:1.0;" x1="768" x2="880" y1="1637.1587" y2="1637.1587"/><polygon fill="#000000" points="870,1633.1587,880,1637.1587,870,1641.1587,874,1637.1587" style="stroke:#000000;stroke-width:1.0;"/><line style="stroke:#000000;stroke-width:1.0;" x1="1016" x2="1016" y1="1549.9907" y2="1637.1587"/><line style="stroke:#000000;stroke-width:1.0;" x1="1016" x2="904" y1="1637.1587" y2="1637.1587"/><polygon fill="#000000" points="914,1633.1587,904,1637.1587,914,1641.1587,910,1637.1587" style="stroke:#000000;stroke-width:1.0;"/><line style="stroke:#000000;stroke-width:1.0;" x1="931" x2="892" y1="1459.4067" y2="1459.4067"/><line style="stroke:#000000;stroke-width:1.0;" x1="892" x2="892" y1="1459.4067" y2="1481.4067"/><polygon fill="#000000" points="888,1471.4067,892,1481.4067,896,1471.4067,892,1475.4067" style="stroke:#000000;stroke-width:1.0;"/><line style="stroke:#000000;stroke-width:1.0;" x1="1159" x2="1198" y1="1459.4067" y2="1459.4067"/><line style="stroke:#000000;stroke-width:1.0;" x1="1198" x2="1198" y1="1459.4067" y2="1481.4067"/><polygon fill="#000000" points="1194,1471.4067,1198,1481.4067,1202,1471.4067,1198,1475.4067" style="stroke:#000000;stroke-width:1.0;"/><line style="stroke:#000000;stroke-width:1.0;" x1="892" x2="892" y1="1649.1587" y2="1667.1587"/><line style="stroke:#000000;stroke-width:1.0;" x1="892" x2="1033" y1="1667.1587" y2="1667.1587"/><polygon fill="#000000" points="1023,1663.1587,1033,1667.1587,1023,1671.1587,1027,1667.1587" style="stroke:#000000;stroke-width:1.0;"/><line style="stroke:#000000;stroke-width:1.0;" x1="1198" x2="1198" y1="1515.9907" y2="1667.1587"/><line style="stroke:#000000;stroke-width:1.0;" x1="1198" x2="1057" y1="1667.1587" y2="1667.1587"/><polygon fill="#000000" points="1067,1663.1587,1057,1667.1587,1067,1671.1587,1063,1667.1587" style="stroke:#000000;stroke-width:1.0;"/><line style="stroke:#000000;stroke-width:1.0;" x1="1045" x2="1045" y1="1427.4067" y2="1447.4067"/><polygon fill="#000000" points="1041,1437.4067,1045,1447.4067,1049,1437.4067,1045,1441.4067" style="stroke:#000000;stroke-width:1.0;"/><line style="stroke:#000000;stroke-width:1.0;" x1="598" x2="380" y1="1356.2388" y2="1356.2388"/><line style="stroke:#000000;stroke-width:1.0;" x1="380" x2="380" y1="1356.2388" y2="1378.2388"/><polygon fill="#000000" points="376,1368.2388,380,1378.2388,384,1368.2388,380,1372.2388" style="stroke:#000000;stroke-width:1.0;"/><line style="stroke:#000000;stroke-width:1.0;" x1="827" x2="1045" y1="1356.2388" y2="1356.2388"/><line style="stroke:#000000;stroke-width:1.0;" x1="1045" x2="1045" y1="1356.2388" y2="1378.2388"/><polygon fill="#000000" points="1041,1368.2388,1045,1378.2388,1049,1368.2388,1045,1372.2388" style="stroke:#000000;stroke-width:1.0;"/><line style="stroke:#000000;stroke-width:1.0;" x1="380" x2="380" y1="1679.1587" y2="1697.1587"/><line style="stroke:#000000;stroke-width:1.0;" x1="380" x2="700.5" y1="1697.1587" y2="1697.1587"/><polygon fill="#000000" points="690.5,1693.1587,700.5,1697.1587,690.5,1701.1587,694.5,1697.1587" style="stroke:#000000;stroke-width:1.0;"/><line style="stroke:#000000;stroke-width:1.0;" x1="1045" x2="1045" y1="1679.1587" y2="1697.1587"/><line style="stroke:#000000;stroke-width:1.0;" x1="1045" x2="724.5" y1="1697.1587" y2="1697.1587"/><polygon fill="#000000" points="734.5,1693.1587,724.5,1697.1587,734.5,1701.1587,730.5,1697.1587" style="stroke:#000000;stroke-width:1.0;"/><line style="stroke:#000000;stroke-width:1.0;" x1="881.25" x2="712.5" y1="1264.8408" y2="1264.8408"/><line style="stroke:#000000;stroke-width:1.0;" x1="712.5" x2="712.5" y1="1264.8408" y2="1344.2388"/><polygon fill="#000000" points="708.5,1334.2388,712.5,1344.2388,716.5,1334.2388,712.5,1338.2388" style="stroke:#000000;stroke-width:1.0;"/><line style="stroke:#000000;stroke-width:1.0;" x1="1266.25" x2="1435" y1="1264.8408" y2="1264.8408"/><line style="stroke:#000000;stroke-width:1.0;" x1="1435" x2="1435" y1="1264.8408" y2="1286.8408"/><polygon fill="#000000" points="1431,1276.8408,1435,1286.8408,1439,1276.8408,1435,1280.8408" style="stroke:#000000;stroke-width:1.0;"/><line style="stroke:#000000;stroke-width:1.0;" x1="712.5" x2="712.5" y1="1709.1587" y2="1727.1587"/><line style="stroke:#000000;stroke-width:1.0;" x1="712.5" x2="1061.75" y1="1727.1587" y2="1727.1587"/><polygon fill="#000000" points="1051.75,1723.1587,1061.75,1727.1587,1051.75,1731.1587,1055.75,1727.1587" style="stroke:#000000;stroke-width:1.0;"/><line style="stroke:#000000;stroke-width:1.0;" x1="1435" x2="1435" y1="1321.4248" y2="1727.1587"/><line style="stroke:#000000;stroke-width:1.0;" x1="1435" x2="1085.75" y1="1727.1587" y2="1727.1587"/><polygon fill="#000000" points="1095.75,1723.1587,1085.75,1727.1587,1095.75,1731.1587,1091.75,1727.1587" style="stroke:#000000;stroke-width:1.0;"/><line style="stroke:#000000;stroke-width:1.0;" x1="1262.625" x2="1073.75" y1="1230.8408" y2="1230.8408"/><line style="stroke:#000000;stroke-width:1.0;" x1="1073.75" x2="1073.75" y1="1230.8408" y2="1252.8408"/><polygon fill="#000000" points="1069.75,1242.8408,1073.75,1252.8408,1077.75,1242.8408,1073.75,1246.8408" style="stroke:#000000;stroke-width:1.0;"/><line style="stroke:#000000;stroke-width:1.0;" x1="1465.625" x2="1654.5" y1="1230.8408" y2="1230.8408"/><line style="stroke:#000000;stroke-width:1.0;" x1="1654.5" x2="1654.5" y1="1230.8408" y2="1252.8408"/><polygon fill="#000000" points="1650.5,1242.8408,1654.5,1252.8408,1658.5,1242.8408,1654.5,1246.8408" style="stroke:#000000;stroke-width:1.0;"/><line style="stroke:#000000;stroke-width:1.0;" x1="1073.75" x2="1073.75" y1="1739.1587" y2="1757.1587"/><line style="stroke:#000000;stroke-width:1.0;" x1="1073.75" x2="1352.125" y1="1757.1587" y2="1757.1587"/><polygon fill="#000000" points="1342.125,1753.1587,1352.125,1757.1587,1342.125,1761.1587,1346.125,1757.1587" style="stroke:#000000;stroke-width:1.0;"/><line style="stroke:#000000;stroke-width:1.0;" x1="1654.5" x2="1654.5" y1="1287.4248" y2="1757.1587"/><line style="stroke:#000000;stroke-width:1.0;" x1="1654.5" x2="1376.125" y1="1757.1587" y2="1757.1587"/><polygon fill="#000000" points="1386.125,1753.1587,1376.125,1757.1587,1386.125,1761.1587,1382.125,1757.1587" style="stroke:#000000;stroke-width:1.0;"/><line style="stroke:#000000;stroke-width:1.0;" x1="1364.125" x2="1364.125" y1="1159.8262" y2="1218.8408"/><polygon fill="#000000" points="1360.125,1208.8408,1364.125,1218.8408,1368.125,1208.8408,1364.125,1212.8408" style="stroke:#000000;stroke-width:1.0;"/><line style="stroke:#000000;stroke-width:1.0;" x1="1364.125" x2="1364.125" y1="1877.3413" y2="1897.3413"/><polygon fill="#000000" points="1360.125,1887.3413,1364.125,1897.3413,1368.125,1887.3413,1364.125,1891.3413" style="stroke:#000000;stroke-width:1.0;"/><line style="stroke:#000000;stroke-width:1.0;" x1="1364.125" x2="1364.125" y1="1931.9253" y2="1951.9253"/><polygon fill="#000000" points="1360.125,1941.9253,1364.125,1951.9253,1368.125,1941.9253,1364.125,1945.9253" style="stroke:#000000;stroke-width:1.0;"/><line style="stroke:#000000;stroke-width:1.0;" x1="1268.125" x2="1268.125" y1="2118.8452" y2="2153.8452"/><polygon fill="#000000" points="1264.125,2143.8452,1268.125,2153.8452,1272.125,2143.8452,1268.125,2147.8452" style="stroke:#000000;stroke-width:1.0;"/><line style="stroke:#000000;stroke-width:1.0;" x1="1460.125" x2="1460.125" y1="2075.0933" y2="2110.0933"/><polygon fill="#000000" points="1456.125,2100.0933,1460.125,2110.0933,1464.125,2100.0933,1460.125,2104.0933" style="stroke:#000000;stroke-width:1.0;"/><line style="stroke:#000000;stroke-width:1.0;" x1="1278.125" x2="1268.125" y1="2018.5093" y2="2018.5093"/><line style="stroke:#000000;stroke-width:1.0;" x1="1268.125" x2="1268.125" y1="2018.5093" y2="2040.5093"/><polygon fill="#000000" points="1264.125,2030.5093,1268.125,2040.5093,1272.125,2030.5093,1268.125,2034.5093" style="stroke:#000000;stroke-width:1.0;"/><line style="stroke:#000000;stroke-width:1.0;" x1="1450.125" x2="1460.125" y1="2018.5093" y2="2018.5093"/><line style="stroke:#000000;stroke-width:1.0;" x1="1460.125" x2="1460.125" y1="2018.5093" y2="2040.5093"/><polygon fill="#000000" points="1456.125,2030.5093,1460.125,2040.5093,1464.125,2030.5093,1460.125,2034.5093" style="stroke:#000000;stroke-width:1.0;"/><line style="stroke:#000000;stroke-width:1.0;" x1="1268.125" x2="1268.125" y1="2188.4292" y2="2206.4292"/><line style="stroke:#000000;stroke-width:1.0;" x1="1268.125" x2="1352.125" y1="2206.4292" y2="2206.4292"/><polygon fill="#000000" points="1342.125,2202.4292,1352.125,2206.4292,1342.125,2210.4292,1346.125,2206.4292" style="stroke:#000000;stroke-width:1.0;"/><line style="stroke:#000000;stroke-width:1.0;" x1="1460.125" x2="1460.125" y1="2144.6772" y2="2206.4292"/><line style="stroke:#000000;stroke-width:1.0;" x1="1460.125" x2="1376.125" y1="2206.4292" y2="2206.4292"/><polygon fill="#000000" points="1386.125,2202.4292,1376.125,2206.4292,1386.125,2210.4292,1382.125,2206.4292" style="stroke:#000000;stroke-width:1.0;"/><line style="stroke:#000000;stroke-width:1.0;" x1="1364.125" x2="1364.125" y1="1986.5093" y2="2006.5093"/><polygon fill="#000000" points="1360.125,1996.5093,1364.125,2006.5093,1368.125,1996.5093,1364.125,2000.5093" style="stroke:#000000;stroke-width:1.0;"/><line style="stroke:#000000;stroke-width:1.0;" x1="1364.125" x2="1364.125" y1="1769.1587" y2="1828.1733"/><polygon fill="#000000" points="1360.125,1818.1733,1364.125,1828.1733,1368.125,1818.1733,1364.125,1822.1733" style="stroke:#000000;stroke-width:1.0;"/><line style="stroke:#000000;stroke-width:1.0;" x1="1364.125" x2="1364.125" y1="2218.4292" y2="2352.9241"/><polygon fill="#000000" points="1360.125,2342.9241,1364.125,2352.9241,1368.125,2342.9241,1364.125,2346.9241" style="stroke:#000000;stroke-width:1.0;"/><!--SRC=[xLVhQkj64FwlfvWU2CYkdJetpi6fKtnBufBOmL9wWK3OI6jdYRohersT99G3VOV-xQ- -IkcBz4awkxgjPIUXXVuf5SIHTcQ-cPtRpdwXxkcAGXmHnXt5L4JXb3tH4Cu8Be-eee5YWaFRUXycJD644RWGInOuZbGaKOxJlH0a1195e5ZmG9M4XKXWHLHm3m_q-OQxb_fzCcg15uY4ZjXYqO81LUevfdeLN_M_yz5Ljap9gd6Ck7EAk4cAfabSPNo9o8bOtN23ToauKoAP8ztBo2WJeqNC6FkksTGao6cosNm7Fpc0JrUldoKYZISZwC4-6hYnTTHlMBrO9Cf7Ey7TwtaY26ZIWltUW4ZSw1tkkGM71xrns_39GWeDbsX23mx0FJtBLyqF5uf2mfRtodpgfzaSqGL98mNVaIYbijjibhGs-4AHo3T-xS9XnwQm5VKKZN5vluCU2WGF9RZlOSLum-8xHssU8W-q2qUTpZP21dz5au1orDBPFJW2z-1enqQPXQ7quWGZqeMz3dgZavCf3yskdCz59XHPmBWIuDDLVEidX4jqipRP5vunjGLcrMG5_PXI7kXSkE73L9fiC9QrZ5xyO4i-JLTtD369OO9NwhbxnbUCt2FZeNX4FQd4W9V-qNRGv1E9P3q_CfWXYO8q8dhHof5JJ65AC8Cjw1O4EI_jMZ7jMZ72c0zdrrFVRHQvO8Ybgqlwz-VZ-JZR99pqgbWKOfUCwwqZ_-LawkhNaaAU2ah_XtKAurEwn9ryeZLPoDIPrw-XOmbS2SdU43XP4wX2aRDxaxFSGCl2TIwqSuthSoqGLOlHfMcLAbk0Qtltn33SMalVD00x6GVtcSegNxMSM_FyLtOjDGgexKMm7RMCkArcmoNsvcqSB29FDnXDNSTyeJ7OJzxC-jqAmmJ7wXNsqyTcVATh0rqgjO18LI1MT2kpItUNkotJm0kPS-G5quSt9CfwhnCs5hf5PL6xUzpm_i1pzL-Uo0rqZFdCChxHW2PscCxnsmgq-ojaNKOcfDNIos6q8Uokf45EyOmnlMc4fhyDORRQ3qExKu0IDzoqFdEo6BGvuKjw_3B4QEoFX_vufFjP5kpjp3IIU1fnyOertWEBmLL2W8Z2nWimF6GBv- -1vy12TmMPELqhaIlCdIrgjgjmjkdJSmQE1JJ1uZFPBVzfYGowDQJNwcIGv_kTKFT5ZSZNYaJgmiWBfFhgFvBdVwDIN7UlAWwxjMEHV0asqMxZZVzBg2YXmN-lX3PNdDSrvnhliN10cfDmnwYCnAEbi8BTH2cTWSTdENMjGsJYzNDzbgeuLJ2d4iTRQxZwLZ0EeJdqQLWRtXwPBaKiSyOhRVQqTJQVNL_T3cVJOTztHnFFdqo7VZ5CDg3l5UyNJAhZrsIoKTE8PA-LH3LzL5WmyM0wys5wVN6nFQTny5TfKcnDEo4nMyTIRaDrAT1V5gx-hElFvgY-Fpo78gcFNufEhbIRPGbFPxdaP3QjnKWg4JlE8X94tupgVRNP73-HLHnPjy3YIfBJ9noZMgoruV386ld1t3zIbRVHDknzAAacjEN8Mrn6sclJIZbvP3M2butT3mTj_7dVi4qOtjFWGLOss4EYUtYanxl33lp-sn-__FdphqxjlfCFUSY8bnZanAjEZTM-xUWEg_NhlQ0jUM_5E1xkvDvsL-GPECLKJcXGtIOQELWviNNXHnm3RKtvRh82mTsKmGONayzgp36HKcTQUQRy1G00]--></g></svg>