<svg xmlns="http://www.w3.org/2000/svg" xmlns:xlink="http://www.w3.org/1999/xlink" contentStyleType="text/css" height="2445px" preserveAspectRatio="none" style="width:2061px;height:2445px;background:#FFFFFF;" version="1.1" viewBox="0 0 2061 2445" width="2061px" zoomAndPan="magnify"><defs/><g><text fill="#000000" font-family="Verdana" font-size="22" font-weight="bold" lengthAdjust="spacing" textLength="535" x="761.75" y="37.1182">Fixed Game Detection - Sequence Diagram</text><rect fill="#FFFFFF" height="2138.916" style="stroke:#000000;stroke-width:1.0;" width="10" x="403.5" y="206.3506"/><rect fill="#FFFFFF" height="372.1904" style="stroke:#000000;stroke-width:1.0;" width="10" x="791.5" y="236.1499"/><rect fill="#FFFFFF" height="635.7822" style="stroke:#000000;stroke-width:1.0;" width="10" x="791.5" y="706.7383"/><rect fill="#FFFFFF" height="489.1577" style="stroke:#000000;stroke-width:1.0;" width="10" x="791.5" y="1440.9185"/><rect fill="#FFFFFF" height="297.7925" style="stroke:#000000;stroke-width:1.0;" width="10" x="791.5" y="2017.6748"/><rect fill="#FFFFFF" height="312.5918" style="stroke:#000000;stroke-width:1.0;" width="10" x="1179.5" y="265.9492"/><rect fill="#FFFFFF" height="576.1836" style="stroke:#000000;stroke-width:1.0;" width="10" x="1179.5" y="736.5376"/><rect fill="#FFFFFF" height="429.5591" style="stroke:#000000;stroke-width:1.0;" width="10" x="1179.5" y="1470.7178"/><rect fill="#FFFFFF" height="238.1938" style="stroke:#000000;stroke-width:1.0;" width="10" x="1179.5" y="2047.4741"/><rect fill="#FFFFFF" height="237.1938" style="stroke:#000000;stroke-width:1.0;" width="10" x="1595.5" y="311.5479"/><rect fill="#FFFFFF" height="469.187" style="stroke:#000000;stroke-width:1.0;" width="10" x="1595.5" y="813.7349"/><rect fill="#FFFFFF" height="322.5625" style="stroke:#000000;stroke-width:1.0;" width="10" x="1595.5" y="1547.915"/><rect fill="#FFFFFF" height="162.7959" style="stroke:#000000;stroke-width:1.0;" width="10" x="1595.5" y="2093.0728"/><rect fill="#FFFFFF" height="1277.9365" style="stroke:#000000;stroke-width:1.0;" width="1757" x="287.5" y="667.1396"/><rect fill="#FFFFFF" height="536.7563" style="stroke:#000000;stroke-width:1.0;" width="1539" x="297.5" y="1401.3198"/><rect fill="#FFFFFF" height="220.1646" style="stroke:#000000;stroke-width:1.0;" width="298" x="1528.5" y="1621.5137"/><rect fill="#FFFFFF" height="100.9673" style="stroke:none;stroke-width:1.0;" width="298" x="1528.5" y="1740.7109"/><line style="stroke:#000000;stroke-width:1.0;" x1="69" x2="69" y1="130.752" y2="2363.2666"/><line style="stroke:#000000;stroke-width:1.0;" x1="408.5" x2="408.5" y1="130.752" y2="2363.2666"/><line style="stroke:#000000;stroke-width:1.0;" x1="796.5" x2="796.5" y1="130.752" y2="2363.2666"/><line style="stroke:#000000;stroke-width:1.0;" x1="1184" x2="1184" y1="130.752" y2="2363.2666"/><line style="stroke:#000000;stroke-width:1.0;" x1="1600.5" x2="1600.5" y1="130.752" y2="2363.2666"/><text fill="#000000" font-family="Verdana" font-size="14" lengthAdjust="spacing" textLength="113" x="10" y="127.8125">Background Job</text><ellipse cx="69.5" cy="61.7373" fill="#FFFFFF" rx="8" ry="8" style="stroke:#000000;stroke-width:1.0;"/><path d="M69.5,69.7373 L69.5,96.7373 M56.5,77.7373 L82.5,77.7373 M69.5,96.7373 L56.5,111.7373 M69.5,96.7373 L82.5,111.7373 " fill="none" style="stroke:#000000;stroke-width:1.0;"/><text fill="#000000" font-family="Verdana" font-size="14" lengthAdjust="spacing" textLength="113" x="10" y="2376.3418">Background Job</text><ellipse cx="69.5" cy="2388.2813" fill="#FFFFFF" rx="8" ry="8" style="stroke:#000000;stroke-width:1.0;"/><path d="M69.5,2396.2813 L69.5,2423.2813 M56.5,2404.2813 L82.5,2404.2813 M69.5,2423.2813 L56.5,2438.2813 M69.5,2423.2813 L82.5,2438.2813 " fill="none" style="stroke:#000000;stroke-width:1.0;"/><rect fill="#FFFFFF" height="31.0146" rx="2.5" ry="2.5" style="stroke:#000000;stroke-width:1.0;" width="182" x="317.5" y="98.7373"/><text fill="#000000" font-family="Verdana" font-size="14" lengthAdjust="spacing" textLength="168" x="324.5" y="119.8125">MatchMonitorJobService</text><rect fill="#FFFFFF" height="31.0146" rx="2.5" ry="2.5" style="stroke:#000000;stroke-width:1.0;" width="182" x="317.5" y="2362.2666"/><text fill="#000000" font-family="Verdana" font-size="14" lengthAdjust="spacing" textLength="168" x="324.5" y="2383.3418">MatchMonitorJobService</text><rect fill="#FFFFFF" height="31.0146" rx="2.5" ry="2.5" style="stroke:#000000;stroke-width:1.0;" width="166" x="713.5" y="98.7373"/><text fill="#000000" font-family="Verdana" font-size="14" lengthAdjust="spacing" textLength="152" x="720.5" y="119.8125">MatchMonitorServices</text><rect fill="#FFFFFF" height="31.0146" rx="2.5" ry="2.5" style="stroke:#000000;stroke-width:1.0;" width="166" x="713.5" y="2362.2666"/><text fill="#000000" font-family="Verdana" font-size="14" lengthAdjust="spacing" textLength="152" x="720.5" y="2383.3418">MatchMonitorServices</text><rect fill="#FFFFFF" height="31.0146" rx="2.5" ry="2.5" style="stroke:#000000;stroke-width:1.0;" width="189" x="1090" y="98.7373"/><text fill="#000000" font-family="Verdana" font-size="14" lengthAdjust="spacing" textLength="175" x="1097" y="119.8125">MatchMonitorDataAccess</text><rect fill="#FFFFFF" height="31.0146" rx="2.5" ry="2.5" style="stroke:#000000;stroke-width:1.0;" width="189" x="1090" y="2362.2666"/><text fill="#000000" font-family="Verdana" font-size="14" lengthAdjust="spacing" textLength="175" x="1097" y="2383.3418">MatchMonitorDataAccess</text><text fill="#000000" font-family="Verdana" font-size="14" lengthAdjust="spacing" textLength="118" x="1538.5" y="127.8125">CTS_DataCenter</text><path d="M1582.5,77.7373 C1582.5,67.7373 1600.5,67.7373 1600.5,67.7373 C1600.5,67.7373 1618.5,67.7373 1618.5,77.7373 L1618.5,103.7373 C1618.5,113.7373 1600.5,113.7373 1600.5,113.7373 C1600.5,113.7373 1582.5,113.7373 1582.5,103.7373 L1582.5,77.7373 " fill="#FFFFFF" style="stroke:#000000;stroke-width:1.5;"/><path d="M1582.5,77.7373 C1582.5,87.7373 1600.5,87.7373 1600.5,87.7373 C1600.5,87.7373 1618.5,87.7373 1618.5,77.7373 " fill="none" style="stroke:#000000;stroke-width:1.5;"/><text fill="#000000" font-family="Verdana" font-size="14" lengthAdjust="spacing" textLength="118" x="1538.5" y="2376.3418">CTS_DataCenter</text><path d="M1582.5,2389.2813 C1582.5,2379.2813 1600.5,2379.2813 1600.5,2379.2813 C1600.5,2379.2813 1618.5,2379.2813 1618.5,2389.2813 L1618.5,2415.2813 C1618.5,2425.2813 1600.5,2425.2813 1600.5,2425.2813 C1600.5,2425.2813 1582.5,2425.2813 1582.5,2415.2813 L1582.5,2389.2813 " fill="#FFFFFF" style="stroke:#000000;stroke-width:1.5;"/><path d="M1582.5,2389.2813 C1582.5,2399.2813 1600.5,2399.2813 1600.5,2399.2813 C1600.5,2399.2813 1618.5,2399.2813 1618.5,2389.2813 " fill="none" style="stroke:#000000;stroke-width:1.5;"/><rect fill="#FFFFFF" height="2138.916" style="stroke:#000000;stroke-width:1.0;" width="10" x="403.5" y="206.3506"/><rect fill="#FFFFFF" height="372.1904" style="stroke:#000000;stroke-width:1.0;" width="10" x="791.5" y="236.1499"/><rect fill="#FFFFFF" height="635.7822" style="stroke:#000000;stroke-width:1.0;" width="10" x="791.5" y="706.7383"/><rect fill="#FFFFFF" height="489.1577" style="stroke:#000000;stroke-width:1.0;" width="10" x="791.5" y="1440.9185"/><rect fill="#FFFFFF" height="297.7925" style="stroke:#000000;stroke-width:1.0;" width="10" x="791.5" y="2017.6748"/><rect fill="#FFFFFF" height="312.5918" style="stroke:#000000;stroke-width:1.0;" width="10" x="1179.5" y="265.9492"/><rect fill="#FFFFFF" height="576.1836" style="stroke:#000000;stroke-width:1.0;" width="10" x="1179.5" y="736.5376"/><rect fill="#FFFFFF" height="429.5591" style="stroke:#000000;stroke-width:1.0;" width="10" x="1179.5" y="1470.7178"/><rect fill="#FFFFFF" height="238.1938" style="stroke:#000000;stroke-width:1.0;" width="10" x="1179.5" y="2047.4741"/><rect fill="#FFFFFF" height="237.1938" style="stroke:#000000;stroke-width:1.0;" width="10" x="1595.5" y="311.5479"/><rect fill="#FFFFFF" height="469.187" style="stroke:#000000;stroke-width:1.0;" width="10" x="1595.5" y="813.7349"/><rect fill="#FFFFFF" height="322.5625" style="stroke:#000000;stroke-width:1.0;" width="10" x="1595.5" y="1547.915"/><rect fill="#FFFFFF" height="162.7959" style="stroke:#000000;stroke-width:1.0;" width="10" x="1595.5" y="2093.0728"/><rect fill="#FFFFFF" height="3" style="stroke:#FFFFFF;stroke-width:1.0;" width="2049.5" x="5" y="161.6516"/><line style="stroke:#000000;stroke-width:0.5;" x1="5" x2="2054.5" y1="161.6516" y2="161.6516"/><line style="stroke:#000000;stroke-width:0.5;" x1="5" x2="2054.5" y1="164.6516" y2="164.6516"/><rect fill="#FFFFFF" height="23.7993" style="stroke:#000000;stroke-width:1.0;" width="254" x="902.75" y="150.752"/><text fill="#000000" font-family="Verdana" font-size="13" font-weight="bold" lengthAdjust="spacing" textLength="236" x="908.75" y="167.8218">Phase 1: Get Matches to Process</text><polygon fill="#000000" points="391.5,202.3506,401.5,206.3506,391.5,210.3506,395.5,206.3506" style="stroke:#000000;stroke-width:1.0;"/><line style="stroke:#000000;stroke-width:1.0;" x1="69.5" x2="397.5" y1="206.3506" y2="206.3506"/><text fill="#000000" font-family="Verdana" font-size="13" lengthAdjust="spacing" textLength="315" x="76.5" y="201.6211">ProcessRuleFixedGame(isLive, numberOfThread)</text><polygon fill="#000000" points="779.5,232.1499,789.5,236.1499,779.5,240.1499,783.5,236.1499" style="stroke:#000000;stroke-width:1.0;"/><line style="stroke:#000000;stroke-width:1.0;" x1="413.5" x2="785.5" y1="236.1499" y2="236.1499"/><text fill="#000000" font-family="Verdana" font-size="13" lengthAdjust="spacing" textLength="209" x="420.5" y="231.4204">GetMatchRuleFixedGame(isLive)</text><polygon fill="#000000" points="1167.5,261.9492,1177.5,265.9492,1167.5,269.9492,1171.5,265.9492" style="stroke:#000000;stroke-width:1.0;"/><line style="stroke:#000000;stroke-width:1.0;" x1="801.5" x2="1173.5" y1="265.9492" y2="265.9492"/><text fill="#000000" font-family="Verdana" font-size="13" lengthAdjust="spacing" textLength="209" x="808.5" y="261.2197">GetMatchRuleFixedGame(isLive)</text><polygon fill="#000000" points="1583.5,307.5479,1593.5,311.5479,1583.5,315.5479,1587.5,311.5479" style="stroke:#000000;stroke-width:1.0;"/><line style="stroke:#000000;stroke-width:1.0;" x1="1189.5" x2="1589.5" y1="311.5479" y2="311.5479"/><text fill="#000000" font-family="Verdana" font-size="13" lengthAdjust="spacing" textLength="324" x="1196.5" y="291.019">CALL CTS_DC_MatchMonitor_RuleFixedGame_Get</text><text fill="#000000" font-family="Verdana" font-size="13" lengthAdjust="spacing" textLength="268" x="1196.5" y="306.8184">(ip_LiveIndicator, @op_MaxSequenceID)</text><line style="stroke:#000000;stroke-width:1.0;" x1="1605.5" x2="1647.5" y1="357.1465" y2="357.1465"/><line style="stroke:#000000;stroke-width:1.0;" x1="1647.5" x2="1647.5" y1="357.1465" y2="370.1465"/><line style="stroke:#000000;stroke-width:1.0;" x1="1606.5" x2="1647.5" y1="370.1465" y2="370.1465"/><polygon fill="#000000" points="1616.5,366.1465,1606.5,370.1465,1616.5,374.1465,1612.5,370.1465" style="stroke:#000000;stroke-width:1.0;"/><text fill="#000000" font-family="Verdana" font-size="13" lengthAdjust="spacing" textLength="153" x="1612.5" y="336.6177">Read SystemParameter</text><text fill="#000000" font-family="Verdana" font-size="13" lengthAdjust="spacing" textLength="130" x="1612.5" y="352.417">for LastSequenceID</text><line style="stroke:#000000;stroke-width:1.0;" x1="1605.5" x2="1647.5" y1="415.7451" y2="415.7451"/><line style="stroke:#000000;stroke-width:1.0;" x1="1647.5" x2="1647.5" y1="415.7451" y2="428.7451"/><line style="stroke:#000000;stroke-width:1.0;" x1="1606.5" x2="1647.5" y1="428.7451" y2="428.7451"/><polygon fill="#000000" points="1616.5,424.7451,1606.5,428.7451,1616.5,432.7451,1612.5,428.7451" style="stroke:#000000;stroke-width:1.0;"/><text fill="#000000" font-family="Verdana" font-size="13" lengthAdjust="spacing" textLength="130" x="1612.5" y="395.2163">Query staging table</text><text fill="#000000" font-family="Verdana" font-size="13" lengthAdjust="spacing" textLength="305" x="1612.5" y="411.0156">MatchMonitorStagingFixedGame[Live/NonLive]</text><line style="stroke:#000000;stroke-width:1.0;" x1="1605.5" x2="1647.5" y1="474.3438" y2="474.3438"/><line style="stroke:#000000;stroke-width:1.0;" x1="1647.5" x2="1647.5" y1="474.3438" y2="487.3438"/><line style="stroke:#000000;stroke-width:1.0;" x1="1606.5" x2="1647.5" y1="487.3438" y2="487.3438"/><polygon fill="#000000" points="1616.5,483.3438,1606.5,487.3438,1616.5,491.3438,1612.5,487.3438" style="stroke:#000000;stroke-width:1.0;"/><text fill="#000000" font-family="Verdana" font-size="13" lengthAdjust="spacing" textLength="201" x="1612.5" y="453.8149">GROUP BY MatchID, ScoreDiff,</text><text fill="#000000" font-family="Verdana" font-size="13" lengthAdjust="spacing" textLength="213" x="1612.5" y="469.6143">BettypeID, BetID, HDP, Betteam</text><polygon fill="#000000" points="1200.5,544.7417,1190.5,548.7417,1200.5,552.7417,1196.5,548.7417" style="stroke:#000000;stroke-width:1.0;"/><line style="stroke:#000000;stroke-width:1.0;stroke-dasharray:2.0,2.0;" x1="1194.5" x2="1599.5" y1="548.7417" y2="548.7417"/><text fill="#000000" font-family="Verdana" font-size="13" lengthAdjust="spacing" textLength="49" x="1206.5" y="512.4136">Return:</text><text fill="#000000" font-family="Verdana" font-size="13" lengthAdjust="spacing" textLength="117" x="1206.5" y="528.2129">- MaxSequenceID</text><text fill="#000000" font-family="Verdana" font-size="13" lengthAdjust="spacing" textLength="134" x="1206.5" y="544.0122">- List of match keys</text><polygon fill="#000000" points="812.5,574.541,802.5,578.541,812.5,582.541,808.5,578.541" style="stroke:#000000;stroke-width:1.0;"/><line style="stroke:#000000;stroke-width:1.0;stroke-dasharray:2.0,2.0;" x1="806.5" x2="1183.5" y1="578.541" y2="578.541"/><text fill="#000000" font-family="Verdana" font-size="13" lengthAdjust="spacing" textLength="225" x="818.5" y="573.8115">MatchMonitorRuleFixedGameModel</text><polygon fill="#000000" points="424.5,604.3403,414.5,608.3403,424.5,612.3403,420.5,608.3403" style="stroke:#000000;stroke-width:1.0;"/><line style="stroke:#000000;stroke-width:1.0;stroke-dasharray:2.0,2.0;" x1="418.5" x2="795.5" y1="608.3403" y2="608.3403"/><text fill="#000000" font-family="Verdana" font-size="13" lengthAdjust="spacing" textLength="225" x="430.5" y="603.6108">MatchMonitorRuleFixedGameModel</text><rect fill="#FFFFFF" height="3" style="stroke:#FFFFFF;stroke-width:1.0;" width="2049.5" x="5" y="637.24"/><line style="stroke:#000000;stroke-width:0.5;" x1="5" x2="2054.5" y1="637.24" y2="637.24"/><line style="stroke:#000000;stroke-width:0.5;" x1="5" x2="2054.5" y1="640.24" y2="640.24"/><rect fill="#FFFFFF" height="23.7993" style="stroke:#000000;stroke-width:1.0;" width="300" x="879.75" y="626.3403"/><text fill="#000000" font-family="Verdana" font-size="13" font-weight="bold" lengthAdjust="spacing" textLength="282" x="885.75" y="643.4102">Phase 2: Process Each Match (Parallel)</text><path d="M287.5,667.1396 L363.5,667.1396 L363.5,674.939 L353.5,684.939 L287.5,684.939 L287.5,667.1396 " fill="#FFFFFF" style="stroke:#000000;stroke-width:1.0;"/><rect fill="none" height="1277.9365" style="stroke:#000000;stroke-width:1.0;" width="1757" x="287.5" y="667.1396"/><text fill="#000000" font-family="Verdana" font-size="13" font-weight="bold" lengthAdjust="spacing" textLength="31" x="302.5" y="681.2095">loop</text><text fill="#000000" font-family="Verdana" font-size="11" font-weight="bold" lengthAdjust="spacing" textLength="179" x="378.5" y="680.1987">[For each match (parallel)]</text><polygon fill="#000000" points="779.5,702.7383,789.5,706.7383,779.5,710.7383,783.5,706.7383" style="stroke:#000000;stroke-width:1.0;"/><line style="stroke:#000000;stroke-width:1.0;" x1="413.5" x2="785.5" y1="706.7383" y2="706.7383"/><text fill="#000000" font-family="Verdana" font-size="13" lengthAdjust="spacing" textLength="359" x="420.5" y="702.0088">ProcessRuleFixedGame(isLive, maxTransId, matchInfo)</text><polygon fill="#000000" points="1167.5,732.5376,1177.5,736.5376,1167.5,740.5376,1171.5,736.5376" style="stroke:#000000;stroke-width:1.0;"/><line style="stroke:#000000;stroke-width:1.0;" x1="801.5" x2="1173.5" y1="736.5376" y2="736.5376"/><text fill="#000000" font-family="Verdana" font-size="13" lengthAdjust="spacing" textLength="359" x="808.5" y="731.8081">ProcessRuleFixedGame(isLive, maxTransId, matchInfo)</text><polygon fill="#000000" points="1583.5,809.7349,1593.5,813.7349,1583.5,817.7349,1587.5,813.7349" style="stroke:#000000;stroke-width:1.0;"/><line style="stroke:#000000;stroke-width:1.0;" x1="1189.5" x2="1589.5" y1="813.7349" y2="813.7349"/><text fill="#000000" font-family="Verdana" font-size="13" lengthAdjust="spacing" textLength="352" x="1196.5" y="761.6074">CALL CTS_DC_MatchMonitor_RuleFixedGame_Process</text><text fill="#000000" font-family="Verdana" font-size="13" lengthAdjust="spacing" textLength="249" x="1196.5" y="777.4067">(ip_LiveIndicator, ip_MaxSequenceID,</text><text fill="#000000" font-family="Verdana" font-size="13" lengthAdjust="spacing" textLength="263" x="1196.5" y="793.2061">ip_MatchID, ip_ScoreDiff, ip_BettypeID,</text><text fill="#000000" font-family="Verdana" font-size="13" lengthAdjust="spacing" textLength="200" x="1196.5" y="809.0054">ip_BetID, ip_HDP, ip_Betteam)</text><line style="stroke:#000000;stroke-width:1.0;" x1="1605.5" x2="1647.5" y1="879.5325" y2="879.5325"/><line style="stroke:#000000;stroke-width:1.0;" x1="1647.5" x2="1647.5" y1="879.5325" y2="892.5325"/><line style="stroke:#000000;stroke-width:1.0;" x1="1606.5" x2="1647.5" y1="892.5325" y2="892.5325"/><polygon fill="#000000" points="1616.5,888.5325,1606.5,892.5325,1616.5,896.5325,1612.5,892.5325" style="stroke:#000000;stroke-width:1.0;"/><text fill="#000000" font-family="Verdana" font-size="13" lengthAdjust="spacing" textLength="110" x="1612.5" y="859.0037">Get rule settings</text><text fill="#000000" font-family="Verdana" font-size="13" lengthAdjust="spacing" textLength="199" x="1612.5" y="874.803">from MatchMonitorRuleSetting</text><path d="M1833,826.7349 L1833,914.7349 L2024,914.7349 L2024,836.7349 L2014,826.7349 L1833,826.7349 " fill="#FFFFFF" style="stroke:#000000;stroke-width:1.0;"/><path d="M2014,826.7349 L2014,836.7349 L2024,836.7349 L2014,826.7349 " fill="#FFFFFF" style="stroke:#000000;stroke-width:1.0;"/><text fill="#000000" font-family="Verdana" font-size="13" lengthAdjust="spacing" textLength="74" x="1839" y="844.8047">- TimeStep</text><text fill="#000000" font-family="Verdana" font-size="13" lengthAdjust="spacing" textLength="87" x="1839" y="860.604">- TotalTicket</text><text fill="#000000" font-family="Verdana" font-size="13" lengthAdjust="spacing" textLength="78" x="1839" y="876.4033">- HighStake</text><text fill="#000000" font-family="Verdana" font-size="13" lengthAdjust="spacing" textLength="170" x="1839" y="892.2026">- HighStakeTicketPercent</text><text fill="#000000" font-family="Verdana" font-size="13" lengthAdjust="spacing" textLength="91" x="1839" y="908.002">- OddsSpread</text><line style="stroke:#000000;stroke-width:1.0;" x1="1605.5" x2="1647.5" y1="942.5308" y2="942.5308"/><line style="stroke:#000000;stroke-width:1.0;" x1="1647.5" x2="1647.5" y1="942.5308" y2="955.5308"/><line style="stroke:#000000;stroke-width:1.0;" x1="1606.5" x2="1647.5" y1="955.5308" y2="955.5308"/><polygon fill="#000000" points="1616.5,951.5308,1606.5,955.5308,1616.5,959.5308,1612.5,955.5308" style="stroke:#000000;stroke-width:1.0;"/><text fill="#000000" font-family="Verdana" font-size="13" lengthAdjust="spacing" textLength="197" x="1612.5" y="937.8013">Load tickets into Temp_Trans</text><line style="stroke:#000000;stroke-width:1.0;" x1="1605.5" x2="1647.5" y1="985.3301" y2="985.3301"/><line style="stroke:#000000;stroke-width:1.0;" x1="1647.5" x2="1647.5" y1="985.3301" y2="998.3301"/><line style="stroke:#000000;stroke-width:1.0;" x1="1606.5" x2="1647.5" y1="998.3301" y2="998.3301"/><polygon fill="#000000" points="1616.5,994.3301,1606.5,998.3301,1616.5,1002.3301,1612.5,998.3301" style="stroke:#000000;stroke-width:1.0;"/><text fill="#000000" font-family="Verdana" font-size="13" lengthAdjust="spacing" textLength="237" x="1612.5" y="980.6006">Group tickets by TimeStep windows</text><line style="stroke:#000000;stroke-width:1.0;" x1="1605.5" x2="1647.5" y1="1075.5273" y2="1075.5273"/><line style="stroke:#000000;stroke-width:1.0;" x1="1647.5" x2="1647.5" y1="1075.5273" y2="1088.5273"/><line style="stroke:#000000;stroke-width:1.0;" x1="1606.5" x2="1647.5" y1="1088.5273" y2="1088.5273"/><polygon fill="#000000" points="1616.5,1084.5273,1606.5,1088.5273,1616.5,1092.5273,1612.5,1088.5273" style="stroke:#000000;stroke-width:1.0;"/><text fill="#000000" font-family="Verdana" font-size="13" lengthAdjust="spacing" textLength="146" x="1612.5" y="1023.3999">Apply detection rules:</text><text fill="#000000" font-family="Verdana" font-size="13" lengthAdjust="spacing" textLength="167" x="1612.5" y="1039.1992">- TotalTicket &gt; threshold</text><text fill="#000000" font-family="Verdana" font-size="13" lengthAdjust="spacing" textLength="209" x="1612.5" y="1054.9985">- HighStakePercent &gt; threshold</text><text fill="#000000" font-family="Verdana" font-size="13" lengthAdjust="spacing" textLength="180" x="1612.5" y="1070.7979">- OddsSpread &gt;= threshold</text><line style="stroke:#000000;stroke-width:1.0;" x1="1605.5" x2="1647.5" y1="1134.126" y2="1134.126"/><line style="stroke:#000000;stroke-width:1.0;" x1="1647.5" x2="1647.5" y1="1134.126" y2="1147.126"/><line style="stroke:#000000;stroke-width:1.0;" x1="1606.5" x2="1647.5" y1="1147.126" y2="1147.126"/><polygon fill="#000000" points="1616.5,1143.126,1606.5,1147.126,1616.5,1151.126,1612.5,1147.126" style="stroke:#000000;stroke-width:1.0;"/><text fill="#000000" font-family="Verdana" font-size="13" lengthAdjust="spacing" textLength="152" x="1612.5" y="1113.5972">Check Same Sign Odds</text><text fill="#000000" font-family="Verdana" font-size="13" lengthAdjust="spacing" textLength="182" x="1612.5" y="1129.3965">(all bets on same outcome)</text><line style="stroke:#000000;stroke-width:1.0;" x1="1605.5" x2="1647.5" y1="1192.7246" y2="1192.7246"/><line style="stroke:#000000;stroke-width:1.0;" x1="1647.5" x2="1647.5" y1="1192.7246" y2="1205.7246"/><line style="stroke:#000000;stroke-width:1.0;" x1="1606.5" x2="1647.5" y1="1205.7246" y2="1205.7246"/><polygon fill="#000000" points="1616.5,1201.7246,1606.5,1205.7246,1616.5,1209.7246,1612.5,1205.7246" style="stroke:#000000;stroke-width:1.0;"/><text fill="#000000" font-family="Verdana" font-size="13" lengthAdjust="spacing" textLength="173" x="1612.5" y="1172.1958">Check Different Sign Odds</text><text fill="#000000" font-family="Verdana" font-size="13" lengthAdjust="spacing" textLength="166" x="1612.5" y="1187.9951">(bets on both outcomes)</text><polygon fill="#000000" points="1200.5,1278.9219,1190.5,1282.9219,1200.5,1286.9219,1196.5,1282.9219" style="stroke:#000000;stroke-width:1.0;"/><line style="stroke:#000000;stroke-width:1.0;stroke-dasharray:2.0,2.0;" x1="1194.5" x2="1599.5" y1="1282.9219" y2="1282.9219"/><text fill="#000000" font-family="Verdana" font-size="13" lengthAdjust="spacing" textLength="164" x="1206.5" y="1230.7944">Return detected tickets:</text><text fill="#000000" font-family="Verdana" font-size="13" lengthAdjust="spacing" textLength="59" x="1206.5" y="1246.5938">- Reason</text><text fill="#000000" font-family="Verdana" font-size="13" lengthAdjust="spacing" textLength="86" x="1206.5" y="1262.3931">- TransIDList</text><text fill="#000000" font-family="Verdana" font-size="13" lengthAdjust="spacing" textLength="79" x="1206.5" y="1278.1924">- CustIDList</text><polygon fill="#000000" points="812.5,1308.7212,802.5,1312.7212,812.5,1316.7212,808.5,1312.7212" style="stroke:#000000;stroke-width:1.0;"/><line style="stroke:#000000;stroke-width:1.0;stroke-dasharray:2.0,2.0;" x1="806.5" x2="1183.5" y1="1312.7212" y2="1312.7212"/><text fill="#000000" font-family="Verdana" font-size="13" lengthAdjust="spacing" textLength="335" x="818.5" y="1307.9917">IEnumerable&lt;MatchCompleteRuleFixedGameModel&gt;</text><polygon fill="#000000" points="424.5,1338.5205,414.5,1342.5205,424.5,1346.5205,420.5,1342.5205" style="stroke:#000000;stroke-width:1.0;"/><line style="stroke:#000000;stroke-width:1.0;stroke-dasharray:2.0,2.0;" x1="418.5" x2="795.5" y1="1342.5205" y2="1342.5205"/><text fill="#000000" font-family="Verdana" font-size="13" lengthAdjust="spacing" textLength="335" x="430.5" y="1337.791">IEnumerable&lt;MatchCompleteRuleFixedGameModel&gt;</text><rect fill="#FFFFFF" height="3" style="stroke:#FFFFFF;stroke-width:1.0;" width="2049.5" x="5" y="1371.4202"/><line style="stroke:#000000;stroke-width:0.5;" x1="5" x2="2054.5" y1="1371.4202" y2="1371.4202"/><line style="stroke:#000000;stroke-width:0.5;" x1="5" x2="2054.5" y1="1374.4202" y2="1374.4202"/><rect fill="#FFFFFF" height="23.7993" style="stroke:#000000;stroke-width:1.0;" width="209" x="925.25" y="1360.5205"/><text fill="#000000" font-family="Verdana" font-size="13" font-weight="bold" lengthAdjust="spacing" textLength="191" x="931.25" y="1377.5903">Phase 3: Complete &amp; Save</text><path d="M297.5,1401.3198 L361.5,1401.3198 L361.5,1409.1191 L351.5,1419.1191 L297.5,1419.1191 L297.5,1401.3198 " fill="#FFFFFF" style="stroke:#000000;stroke-width:1.0;"/><rect fill="none" height="536.7563" style="stroke:#000000;stroke-width:1.0;" width="1539" x="297.5" y="1401.3198"/><text fill="#000000" font-family="Verdana" font-size="13" font-weight="bold" lengthAdjust="spacing" textLength="19" x="312.5" y="1415.3896">alt</text><text fill="#000000" font-family="Verdana" font-size="11" font-weight="bold" lengthAdjust="spacing" textLength="145" x="376.5" y="1414.3789">[Has detected tickets]</text><polygon fill="#000000" points="779.5,1436.9185,789.5,1440.9185,779.5,1444.9185,783.5,1440.9185" style="stroke:#000000;stroke-width:1.0;"/><line style="stroke:#000000;stroke-width:1.0;" x1="413.5" x2="785.5" y1="1440.9185" y2="1440.9185"/><text fill="#000000" font-family="Verdana" font-size="13" lengthAdjust="spacing" textLength="281" x="420.5" y="1436.189">CompleteTransRuleFixedGame(parameters)</text><polygon fill="#000000" points="1167.5,1466.7178,1177.5,1470.7178,1167.5,1474.7178,1171.5,1470.7178" style="stroke:#000000;stroke-width:1.0;"/><line style="stroke:#000000;stroke-width:1.0;" x1="801.5" x2="1173.5" y1="1470.7178" y2="1470.7178"/><text fill="#000000" font-family="Verdana" font-size="13" lengthAdjust="spacing" textLength="236" x="808.5" y="1465.9883">CompleteTransRuleFixedGame(para)</text><polygon fill="#000000" points="1583.5,1543.915,1593.5,1547.915,1583.5,1551.915,1587.5,1547.915" style="stroke:#000000;stroke-width:1.0;"/><line style="stroke:#000000;stroke-width:1.0;" x1="1189.5" x2="1589.5" y1="1547.915" y2="1547.915"/><text fill="#000000" font-family="Verdana" font-size="13" lengthAdjust="spacing" textLength="362" x="1196.5" y="1495.7876">CALL CTS_DC_MatchMonitor_RuleFixedGame_Complete</text><text fill="#000000" font-family="Verdana" font-size="13" lengthAdjust="spacing" textLength="249" x="1196.5" y="1511.5869">(ip_LiveIndicator, ip_MaxSequenceID,</text><text fill="#000000" font-family="Verdana" font-size="13" lengthAdjust="spacing" textLength="263" x="1196.5" y="1527.3862">ip_MatchID, ip_ScoreDiff, ip_BettypeID,</text><text fill="#000000" font-family="Verdana" font-size="13" lengthAdjust="spacing" textLength="304" x="1196.5" y="1543.1855">ip_BetID, ip_HDP, ip_Betteam, ip_TransGroup)</text><line style="stroke:#000000;stroke-width:1.0;" x1="1605.5" x2="1647.5" y1="1593.5137" y2="1593.5137"/><line style="stroke:#000000;stroke-width:1.0;" x1="1647.5" x2="1647.5" y1="1593.5137" y2="1606.5137"/><line style="stroke:#000000;stroke-width:1.0;" x1="1606.5" x2="1647.5" y1="1606.5137" y2="1606.5137"/><polygon fill="#000000" points="1616.5,1602.5137,1606.5,1606.5137,1616.5,1610.5137,1612.5,1606.5137" style="stroke:#000000;stroke-width:1.0;"/><text fill="#000000" font-family="Verdana" font-size="13" lengthAdjust="spacing" textLength="142" x="1612.5" y="1572.9849">Check if match exists</text><text fill="#000000" font-family="Verdana" font-size="13" lengthAdjust="spacing" textLength="150" x="1612.5" y="1588.7842">in MatchMonitorDetails</text><path d="M1528.5,1621.5137 L1592.5,1621.5137 L1592.5,1629.313 L1582.5,1639.313 L1528.5,1639.313 L1528.5,1621.5137 " fill="#FFFFFF" style="stroke:#000000;stroke-width:1.0;"/><rect fill="none" height="220.1646" style="stroke:#000000;stroke-width:1.0;" width="298" x="1528.5" y="1621.5137"/><text fill="#000000" font-family="Verdana" font-size="13" font-weight="bold" lengthAdjust="spacing" textLength="19" x="1543.5" y="1635.5835">alt</text><text fill="#000000" font-family="Verdana" font-size="11" font-weight="bold" lengthAdjust="spacing" textLength="93" x="1607.5" y="1634.5728">[Match exists]</text><line style="stroke:#000000;stroke-width:1.0;" x1="1605.5" x2="1647.5" y1="1676.9116" y2="1676.9116"/><line style="stroke:#000000;stroke-width:1.0;" x1="1647.5" x2="1647.5" y1="1676.9116" y2="1689.9116"/><line style="stroke:#000000;stroke-width:1.0;" x1="1606.5" x2="1647.5" y1="1689.9116" y2="1689.9116"/><polygon fill="#000000" points="1616.5,1685.9116,1606.5,1689.9116,1616.5,1693.9116,1612.5,1689.9116" style="stroke:#000000;stroke-width:1.0;"/><text fill="#000000" font-family="Verdana" font-size="13" lengthAdjust="spacing" textLength="122" x="1612.5" y="1656.3828">Merge new tickets</text><text fill="#000000" font-family="Verdana" font-size="13" lengthAdjust="spacing" textLength="192" x="1612.5" y="1672.1821">with existing tickets (UNION)</text><line style="stroke:#000000;stroke-width:1.0;" x1="1605.5" x2="1647.5" y1="1719.7109" y2="1719.7109"/><line style="stroke:#000000;stroke-width:1.0;" x1="1647.5" x2="1647.5" y1="1719.7109" y2="1732.7109"/><line style="stroke:#000000;stroke-width:1.0;" x1="1606.5" x2="1647.5" y1="1732.7109" y2="1732.7109"/><polygon fill="#000000" points="1616.5,1728.7109,1606.5,1732.7109,1616.5,1736.7109,1612.5,1732.7109" style="stroke:#000000;stroke-width:1.0;"/><text fill="#000000" font-family="Verdana" font-size="13" lengthAdjust="spacing" textLength="191" x="1612.5" y="1714.9814">UPDATE MatchMonitorDetails</text><line style="stroke:#000000;stroke-width:1.0;stroke-dasharray:2.0,2.0;" x1="1528.5" x2="1826.5" y1="1741.7109" y2="1741.7109"/><text fill="#000000" font-family="Verdana" font-size="11" font-weight="bold" lengthAdjust="spacing" textLength="118" x="1533.5" y="1752.77">[Match not exists]</text><line style="stroke:#000000;stroke-width:1.0;" x1="1605.5" x2="1647.5" y1="1777.8789" y2="1777.8789"/><line style="stroke:#000000;stroke-width:1.0;" x1="1647.5" x2="1647.5" y1="1777.8789" y2="1790.8789"/><line style="stroke:#000000;stroke-width:1.0;" x1="1606.5" x2="1647.5" y1="1790.8789" y2="1790.8789"/><polygon fill="#000000" points="1616.5,1786.8789,1606.5,1790.8789,1616.5,1794.8789,1612.5,1790.8789" style="stroke:#000000;stroke-width:1.0;"/><text fill="#000000" font-family="Verdana" font-size="13" lengthAdjust="spacing" textLength="143" x="1612.5" y="1773.1494">INSERT MatchMonitor</text><line style="stroke:#000000;stroke-width:1.0;" x1="1605.5" x2="1647.5" y1="1820.6782" y2="1820.6782"/><line style="stroke:#000000;stroke-width:1.0;" x1="1647.5" x2="1647.5" y1="1820.6782" y2="1833.6782"/><line style="stroke:#000000;stroke-width:1.0;" x1="1606.5" x2="1647.5" y1="1833.6782" y2="1833.6782"/><polygon fill="#000000" points="1616.5,1829.6782,1606.5,1833.6782,1616.5,1837.6782,1612.5,1833.6782" style="stroke:#000000;stroke-width:1.0;"/><text fill="#000000" font-family="Verdana" font-size="13" lengthAdjust="spacing" textLength="187" x="1612.5" y="1815.9487">INSERT MatchMonitorDetails</text><polygon fill="#000000" points="1200.5,1866.4775,1190.5,1870.4775,1200.5,1874.4775,1196.5,1870.4775" style="stroke:#000000;stroke-width:1.0;"/><line style="stroke:#000000;stroke-width:1.0;stroke-dasharray:2.0,2.0;" x1="1194.5" x2="1599.5" y1="1870.4775" y2="1870.4775"/><text fill="#000000" font-family="Verdana" font-size="13" lengthAdjust="spacing" textLength="55" x="1206.5" y="1865.748">Success</text><polygon fill="#000000" points="812.5,1896.2769,802.5,1900.2769,812.5,1904.2769,808.5,1900.2769" style="stroke:#000000;stroke-width:1.0;"/><line style="stroke:#000000;stroke-width:1.0;stroke-dasharray:2.0,2.0;" x1="806.5" x2="1183.5" y1="1900.2769" y2="1900.2769"/><text fill="#000000" font-family="Verdana" font-size="13" lengthAdjust="spacing" textLength="55" x="818.5" y="1895.5474">Success</text><polygon fill="#000000" points="424.5,1926.0762,414.5,1930.0762,424.5,1934.0762,420.5,1930.0762" style="stroke:#000000;stroke-width:1.0;"/><line style="stroke:#000000;stroke-width:1.0;stroke-dasharray:2.0,2.0;" x1="418.5" x2="795.5" y1="1930.0762" y2="1930.0762"/><text fill="#000000" font-family="Verdana" font-size="13" lengthAdjust="spacing" textLength="55" x="430.5" y="1925.3467">Success</text><rect fill="#FFFFFF" height="3" style="stroke:#FFFFFF;stroke-width:1.0;" width="2049.5" x="5" y="1972.9758"/><line style="stroke:#000000;stroke-width:0.5;" x1="5" x2="2054.5" y1="1972.9758" y2="1972.9758"/><line style="stroke:#000000;stroke-width:0.5;" x1="5" x2="2054.5" y1="1975.9758" y2="1975.9758"/><rect fill="#FFFFFF" height="23.7993" style="stroke:#000000;stroke-width:1.0;" width="184" x="937.75" y="1962.0762"/><text fill="#000000" font-family="Verdana" font-size="13" font-weight="bold" lengthAdjust="spacing" textLength="166" x="943.75" y="1979.146">Phase 4: Clean Staging</text><polygon fill="#000000" points="779.5,2013.6748,789.5,2017.6748,779.5,2021.6748,783.5,2017.6748" style="stroke:#000000;stroke-width:1.0;"/><line style="stroke:#000000;stroke-width:1.0;" x1="413.5" x2="785.5" y1="2017.6748" y2="2017.6748"/><text fill="#000000" font-family="Verdana" font-size="13" lengthAdjust="spacing" textLength="333" x="420.5" y="2012.9453">CleanTransRuleFixedGame(isLive, maxSequenceID)</text><polygon fill="#000000" points="1167.5,2043.4741,1177.5,2047.4741,1167.5,2051.4741,1171.5,2047.4741" style="stroke:#000000;stroke-width:1.0;"/><line style="stroke:#000000;stroke-width:1.0;" x1="801.5" x2="1173.5" y1="2047.4741" y2="2047.4741"/><text fill="#000000" font-family="Verdana" font-size="13" lengthAdjust="spacing" textLength="333" x="808.5" y="2042.7446">CleanTransRuleFixedGame(isLive, maxSequenceID)</text><polygon fill="#000000" points="1583.5,2089.0728,1593.5,2093.0728,1583.5,2097.0728,1587.5,2093.0728" style="stroke:#000000;stroke-width:1.0;"/><line style="stroke:#000000;stroke-width:1.0;" x1="1189.5" x2="1589.5" y1="2093.0728" y2="2093.0728"/><text fill="#000000" font-family="Verdana" font-size="13" lengthAdjust="spacing" textLength="387" x="1196.5" y="2072.5439">CALL CTS_DC_MatchMonitor_RuleFixedGame_StagingClean</text><text fill="#000000" font-family="Verdana" font-size="13" lengthAdjust="spacing" textLength="250" x="1196.5" y="2088.3433">(ip_LiveIndicator, ip_MaxSequenceID)</text><line style="stroke:#000000;stroke-width:1.0;" x1="1605.5" x2="1647.5" y1="2154.4707" y2="2154.4707"/><line style="stroke:#000000;stroke-width:1.0;" x1="1647.5" x2="1647.5" y1="2154.4707" y2="2167.4707"/><line style="stroke:#000000;stroke-width:1.0;" x1="1606.5" x2="1647.5" y1="2167.4707" y2="2167.4707"/><polygon fill="#000000" points="1616.5,2163.4707,1606.5,2167.4707,1616.5,2171.4707,1612.5,2167.4707" style="stroke:#000000;stroke-width:1.0;"/><text fill="#000000" font-family="Verdana" font-size="13" lengthAdjust="spacing" textLength="91" x="1612.5" y="2118.1426">DELETE FROM</text><text fill="#000000" font-family="Verdana" font-size="13" lengthAdjust="spacing" textLength="305" x="1612.5" y="2133.9419">MatchMonitorStagingFixedGame[Live/NonLive]</text><text fill="#000000" font-family="Verdana" font-size="13" lengthAdjust="spacing" textLength="263" x="1612.5" y="2149.7412">WHERE SequenceID &lt;= MaxSequenceID</text><line style="stroke:#000000;stroke-width:1.0;" x1="1605.5" x2="1647.5" y1="2213.0693" y2="2213.0693"/><line style="stroke:#000000;stroke-width:1.0;" x1="1647.5" x2="1647.5" y1="2213.0693" y2="2226.0693"/><line style="stroke:#000000;stroke-width:1.0;" x1="1606.5" x2="1647.5" y1="2226.0693" y2="2226.0693"/><polygon fill="#000000" points="1616.5,2222.0693,1606.5,2226.0693,1616.5,2230.0693,1612.5,2226.0693" style="stroke:#000000;stroke-width:1.0;"/><text fill="#000000" font-family="Verdana" font-size="13" lengthAdjust="spacing" textLength="173" x="1612.5" y="2192.5405">UPDATE SystemParameter</text><text fill="#000000" font-family="Verdana" font-size="13" lengthAdjust="spacing" textLength="258" x="1612.5" y="2208.3398">SET ParameterValue = MaxSequenceID</text><polygon fill="#000000" points="1200.5,2251.8687,1190.5,2255.8687,1200.5,2259.8687,1196.5,2255.8687" style="stroke:#000000;stroke-width:1.0;"/><line style="stroke:#000000;stroke-width:1.0;stroke-dasharray:2.0,2.0;" x1="1194.5" x2="1599.5" y1="2255.8687" y2="2255.8687"/><text fill="#000000" font-family="Verdana" font-size="13" lengthAdjust="spacing" textLength="55" x="1206.5" y="2251.1392">Success</text><polygon fill="#000000" points="812.5,2281.668,802.5,2285.668,812.5,2289.668,808.5,2285.668" style="stroke:#000000;stroke-width:1.0;"/><line style="stroke:#000000;stroke-width:1.0;stroke-dasharray:2.0,2.0;" x1="806.5" x2="1183.5" y1="2285.668" y2="2285.668"/><text fill="#000000" font-family="Verdana" font-size="13" lengthAdjust="spacing" textLength="55" x="818.5" y="2280.9385">Success</text><polygon fill="#000000" points="424.5,2311.4673,414.5,2315.4673,424.5,2319.4673,420.5,2315.4673" style="stroke:#000000;stroke-width:1.0;"/><line style="stroke:#000000;stroke-width:1.0;stroke-dasharray:2.0,2.0;" x1="418.5" x2="795.5" y1="2315.4673" y2="2315.4673"/><text fill="#000000" font-family="Verdana" font-size="13" lengthAdjust="spacing" textLength="55" x="430.5" y="2310.7378">Success</text><polygon fill="#000000" points="80.5,2341.2666,70.5,2345.2666,80.5,2349.2666,76.5,2345.2666" style="stroke:#000000;stroke-width:1.0;"/><line style="stroke:#000000;stroke-width:1.0;stroke-dasharray:2.0,2.0;" x1="74.5" x2="407.5" y1="2345.2666" y2="2345.2666"/><text fill="#000000" font-family="Verdana" font-size="13" lengthAdjust="spacing" textLength="147" x="86.5" y="2340.5371">Return true (Success)</text><!--SRC=[lLTTR-f647tthvZceI9IegeVJz4bgi4aeO90CMbLbGejzW2hsBkklIJXttTs_S7Q69BSApNIlTYxCsTdPi-SNN-djXWZ917Zmb5SHGXt_0r3k6SqxA72G74fu1fy_7U78g11pZOfYns71KgcSD5ZmVCcbJiHmczoTG4iqxzEmbB50vumeU1Yp5Im7Kl1oOCcVKnVU82bRV5wsgKmo8p3kzOUKymDo3otzrmdf94Lon0k-dD_gUVxA1Ic-NpFSRfTc6wrmOytS8yA31nce2HCKwcXeDjr78eLhc-ja6_AwTakGbCuNRSEpqRy1Qz0xE8LffFrV9iY2ozrnVWBKsWdxHoUDNO5J66OADgGBQGAniBmt0-xKt4SppLElHlekwCHc1BrbtP5bpMK9M4lH8SdImqs524F61bTmQyo8RUtaYb3prw8gkproeLcL0xmzvd2UCg8JCIpT27MHASHozG1mFRvVOVf7ZB5DbniW3OqmeMeiIIVgkByMuVtmwCK-lSV6-f-DdcQGk-lV9-7tXNuWKpHu-lrrKBqKAbzWdgO7lNFWpSrpmerxpLEKUKPgbqgRXRY6cg9wu4HpnJ8DSHw3NZ6VUQ4MA-7Qu2gBRUJgLLyB4ECQjwkjU4DHduSfU9EHV-VAaB3W57K1WiwUe-Y2ADBqmMHb0dSqLwXDidJwoIbYGFqTuBJPvibPc_pb8bi65xbe4CYH0vt5B4UDFyrMF_D2r1XA-nFzqMnUcjly4Ph4C_CKC4_UZvGKByTI6WC2oBIa-5YOK1qRCRVi-8_y9qaBQLG8ICdQX4ASPtA-8WgVZvjl8Kak9HljigywhzhcFCOVOM9FIGLY-OyU4RRy84SgH-ViMqijvvY6f0AMmQJCCpyH4kb6KGwKNGKRHcD90c8CZWPS44wFSSuMPhzRQq07L19vR3QLvd0AnUXV6rrSfCasaDO7OAwX9bfTYjfk0L5yfvjPHJggIhB8h_c_259kEqUfjhMxsynU0PVdyG-tmZZIkIYFeELJeD2olIatAb0ndXv6aFJ2bCTZGrKWgoasfOWMGEb9dH5BR0glIa6YNacXIcBQIzFAvz-xUyobRyPkBhwrThC5edXW8vDJBM-Vp44xSiuYMZXOp6xFS9rMwIXeO_VWd-aFvLo_aobBd3WUzgp5zHQMTcnIC43NJQQ1QpOVq8nIqnJsRgi9UN1MMpPIQ6iWcWHp7VmMv2B4jT0FwsKvRB_grIQPvEeKOEst7ejkJLQYPSdEhuHiQcDkAZfADsP6O-oOo1DWR7bMKtKLnbZka4G-5fIP25UkIgSpCsd4B7Eq-DmydXv0kPfwhdpmTd8C2BUvX6Hp9wFQlZe3sRp6jp7BOyM5c5xdGjI-ZjpUw-cZeNZY7rspvnpTyzqH4Cdpi3OtQMJqVyEbwXVY2eHCW75XRJyT6ZjRstOqdpMdQNrEdtgsl-rU5_r7L3aPzRyK2UV_1xm1gC1iVLkDXb_vaw_47y-36O3EAm0NxhrcxYzIj4JHzyT_c0ErUiVBDgHThUXDEZvpcs-pUpCjRt5lFKJCNUhJcILKhITmldIzhQ-CVy3]--></g></svg>