<svg xmlns="http://www.w3.org/2000/svg" xmlns:xlink="http://www.w3.org/1999/xlink" contentStyleType="text/css" height="1711px" preserveAspectRatio="none" style="width:1957px;height:1711px;background:#FFFFFF;" version="1.1" viewBox="0 0 1957 1711" width="1957px" zoomAndPan="magnify"><defs/><g><text fill="#000000" font-family="Verdana" font-size="22" font-weight="bold" lengthAdjust="spacing" textLength="428" x="763" y="37.1182">Fixed Game Detection - Main Flow</text><ellipse cx="1279.25" cy="62.7373" fill="#FFFFFF" rx="10" ry="10" style="stroke:#000000;stroke-width:1.0;"/><rect fill="#FFFFFF" height="49.168" rx="12.5" ry="12.5" style="stroke:#000000;stroke-width:1.0;" width="192" x="1183.25" y="92.7373"/><text fill="#000000" font-family="Verdana" font-size="12" lengthAdjust="spacing" textLength="85" x="1193.25" y="114.8018">Job Triggered</text><text fill="#000000" font-family="Verdana" font-size="12" lengthAdjust="spacing" textLength="172" x="1193.25" y="129.3857">(Every 5 minutes)&#171;Stage1&#187;</text><rect fill="#FFFFFF" height="429.4385" style="stroke:#000000;stroke-width:1.0;" width="564" x="1064.75" y="151.9053"/><path d="M1240.75,151.9053 L1240.75,161.9199 L1230.75,171.9199 L1064.75,171.9199 " fill="none" style="stroke:#000000;stroke-width:1.0;"/><text fill="#000000" font-family="Verdana" font-size="14" font-weight="bold" lengthAdjust="spacing" textLength="166" x="1067.75" y="166.9805">Phase 1: Get Matches</text><rect fill="#FFFFFF" height="34.584" rx="12.5" ry="12.5" style="stroke:#000000;stroke-width:1.0;" width="409" x="1074.75" y="188.9199"/><text fill="#000000" font-family="Verdana" font-size="12" lengthAdjust="spacing" textLength="389" x="1084.75" y="210.9844">Call SP: CTS_DC_MatchMonitor_RuleFixedGame_Get&#171;Stage1&#187;</text><path d="M1411.75,247.2886 L1411.75,264.0879 L1391.75,268.0879 L1411.75,272.0879 L1411.75,288.8872 A0,0 0 0 0 1411.75,288.8872 L1618.75,288.8872 A0,0 0 0 0 1618.75,288.8872 L1618.75,257.2886 L1608.75,247.2886 L1411.75,247.2886 A0,0 0 0 0 1411.75,247.2886 " fill="#FFFFFF" style="stroke:#000000;stroke-width:1.0;"/><path d="M1608.75,247.2886 L1608.75,257.2886 L1618.75,257.2886 L1608.75,247.2886 " fill="#FFFFFF" style="stroke:#000000;stroke-width:1.0;"/><text fill="#000000" font-family="Verdana" font-size="13" lengthAdjust="spacing" textLength="161" x="1417.75" y="265.3584">Live: ParameterID = 100</text><text fill="#000000" font-family="Verdana" font-size="13" lengthAdjust="spacing" textLength="186" x="1417.75" y="281.1577">NonLive: ParameterID = 101</text><rect fill="#FFFFFF" height="49.168" rx="12.5" ry="12.5" style="stroke:#000000;stroke-width:1.0;" width="225" x="1166.75" y="243.5039"/><text fill="#000000" font-family="Verdana" font-size="12" lengthAdjust="spacing" textLength="139" x="1176.75" y="265.5684">Read last SequenceID</text><text fill="#000000" font-family="Verdana" font-size="12" lengthAdjust="spacing" textLength="205" x="1176.75" y="280.1523">from SystemParameter&#171;Stage1&#187;</text><path d="M1411.75,316.4565 L1411.75,333.2559 L1391.75,337.2559 L1411.75,341.2559 L1411.75,358.0552 A0,0 0 0 0 1411.75,358.0552 L1618.75,358.0552 A0,0 0 0 0 1618.75,358.0552 L1618.75,326.4565 L1608.75,316.4565 L1411.75,316.4565 A0,0 0 0 0 1411.75,316.4565 " fill="#FFFFFF" style="stroke:#000000;stroke-width:1.0;"/><path d="M1608.75,316.4565 L1608.75,326.4565 L1618.75,326.4565 L1608.75,316.4565 " fill="#FFFFFF" style="stroke:#000000;stroke-width:1.0;"/><text fill="#000000" font-family="Verdana" font-size="13" lengthAdjust="spacing" textLength="161" x="1417.75" y="334.5264">Live: ParameterID = 126</text><text fill="#000000" font-family="Verdana" font-size="13" lengthAdjust="spacing" textLength="186" x="1417.75" y="350.3257">NonLive: ParameterID = 127</text><rect fill="#FFFFFF" height="49.168" rx="12.5" ry="12.5" style="stroke:#000000;stroke-width:1.0;" width="225" x="1166.75" y="312.6719"/><text fill="#000000" font-family="Verdana" font-size="12" lengthAdjust="spacing" textLength="90" x="1176.75" y="334.7363">Get batch size</text><text fill="#000000" font-family="Verdana" font-size="12" lengthAdjust="spacing" textLength="205" x="1176.75" y="349.3203">from SystemParameter&#171;Stage1&#187;</text><rect fill="#FFFFFF" height="49.168" rx="12.5" ry="12.5" style="stroke:#000000;stroke-width:1.0;" width="372" x="1093.25" y="381.8398"/><text fill="#000000" font-family="Verdana" font-size="12" lengthAdjust="spacing" textLength="125" x="1103.25" y="403.9043">Query staging table</text><text fill="#000000" font-family="Verdana" font-size="12" lengthAdjust="spacing" textLength="352" x="1103.25" y="418.4883">MatchMonitorStagingFixedGame[Live/NonLive]&#171;Stage1&#187;</text><rect fill="#FFFFFF" height="49.168" rx="12.5" ry="12.5" style="stroke:#000000;stroke-width:1.0;" width="282" x="1138.25" y="451.0078"/><text fill="#000000" font-family="Verdana" font-size="12" lengthAdjust="spacing" textLength="180" x="1148.25" y="473.0723">Group by: MatchID, ScoreDiff</text><text fill="#000000" font-family="Verdana" font-size="12" lengthAdjust="spacing" textLength="262" x="1148.25" y="487.6563">BettypeID, BetID, HDP, Betteam&#171;Stage1&#187;</text><rect fill="#FFFFFF" height="49.168" rx="12.5" ry="12.5" style="stroke:#000000;stroke-width:1.0;" width="210" x="1174.25" y="520.1758"/><text fill="#000000" font-family="Verdana" font-size="12" lengthAdjust="spacing" textLength="166" x="1184.25" y="542.2402">Return distinct match keys</text><text fill="#000000" font-family="Verdana" font-size="12" lengthAdjust="spacing" textLength="190" x="1184.25" y="556.8242">and MaxSequenceID&#171;Stage1&#187;</text><polygon fill="#FFFFFF" points="1208.25,601.3438,1350.25,601.3438,1362.25,613.3438,1350.25,625.3438,1208.25,625.3438,1196.25,613.3438,1208.25,601.3438" style="stroke:#000000;stroke-width:1.0;"/><text fill="#000000" font-family="Verdana" font-size="11" lengthAdjust="spacing" textLength="142" x="1208.25" y="617.7185">Has matches to process?</text><text fill="#000000" font-family="Verdana" font-size="11" lengthAdjust="spacing" textLength="20" x="1176.25" y="611.0342">yes</text><text fill="#000000" font-family="Verdana" font-size="11" lengthAdjust="spacing" textLength="14" x="1362.25" y="611.0342">no</text><rect fill="#FFFFFF" height="257.5806" style="stroke:#000000;stroke-width:1.0;" width="1710" x="6" y="635.3438"/><path d="M318,635.3438 L318,645.3584 L308,655.3584 L6,655.3584 " fill="none" style="stroke:#000000;stroke-width:1.0;"/><text fill="#000000" font-family="Verdana" font-size="14" font-weight="bold" lengthAdjust="spacing" textLength="302" x="9" y="650.4189">Phase 2: Process Each Match (Parallel)</text><path d="M1426,742.9424 L1426,800.3403 L1706,800.3403 L1706,752.9424 L1696,742.9424 L1426,742.9424 " fill="#FFFFFF" style="stroke:#000000;stroke-width:1.0;"/><path d="M1696,742.9424 L1696,752.9424 L1706,752.9424 L1696,742.9424 " fill="#FFFFFF" style="stroke:#000000;stroke-width:1.0;"/><text fill="#000000" font-family="Verdana" font-size="13" font-weight="bold" lengthAdjust="spacing" textLength="154" x="1432" y="761.0122">Processing in parallel</text><text fill="#000000" font-family="Verdana" font-size="13" lengthAdjust="spacing" textLength="226" x="1432" y="776.8115">- Number of threads: Configurable</text><text fill="#000000" font-family="Verdana" font-size="13" lengthAdjust="spacing" textLength="259" x="1432" y="792.6108">- Each match processed independently</text><rect fill="#000000" height="6" rx="2.5" ry="2.5" style="stroke:#000000;stroke-width:1.0;" width="1390" x="16" y="672.3584"/><rect fill="#FFFFFF" height="34.584" rx="12.5" ry="12.5" style="stroke:#000000;stroke-width:1.0;" width="130" x="181" y="698.3584"/><text fill="#000000" font-family="Verdana" font-size="12" lengthAdjust="spacing" textLength="110" x="191" y="720.4229">Match 1&#171;Stage2&#187;</text><rect fill="#FFFFFF" height="34.584" rx="12.5" ry="12.5" style="stroke:#000000;stroke-width:1.0;" width="436" x="28" y="754.3494"/><text fill="#000000" font-family="Verdana" font-size="12" lengthAdjust="spacing" textLength="416" x="38" y="776.4138">Call SP: CTS_DC_MatchMonitor_RuleFixedGame_Process&#171;Stage2&#187;</text><rect fill="#FFFFFF" height="34.584" rx="12.5" ry="12.5" style="stroke:#000000;stroke-width:1.0;" width="249" x="121.5" y="820.3403"/><text fill="#000000" font-family="Verdana" font-size="12" lengthAdjust="spacing" textLength="229" x="131.5" y="842.4048">Detect suspicious patterns&#171;Stage2&#187;</text><rect fill="#FFFFFF" height="34.584" rx="12.5" ry="12.5" style="stroke:#000000;stroke-width:1.0;" width="130" x="645" y="698.3584"/><text fill="#000000" font-family="Verdana" font-size="12" lengthAdjust="spacing" textLength="110" x="655" y="720.4229">Match 2&#171;Stage2&#187;</text><rect fill="#FFFFFF" height="34.584" rx="12.5" ry="12.5" style="stroke:#000000;stroke-width:1.0;" width="436" x="492" y="754.3494"/><text fill="#000000" font-family="Verdana" font-size="12" lengthAdjust="spacing" textLength="416" x="502" y="776.4138">Call SP: CTS_DC_MatchMonitor_RuleFixedGame_Process&#171;Stage2&#187;</text><rect fill="#FFFFFF" height="34.584" rx="12.5" ry="12.5" style="stroke:#000000;stroke-width:1.0;" width="249" x="585.5" y="820.3403"/><text fill="#000000" font-family="Verdana" font-size="12" lengthAdjust="spacing" textLength="229" x="595.5" y="842.4048">Detect suspicious patterns&#171;Stage2&#187;</text><rect fill="#FFFFFF" height="34.584" rx="12.5" ry="12.5" style="stroke:#000000;stroke-width:1.0;" width="131" x="1108.5" y="698.3584"/><text fill="#000000" font-family="Verdana" font-size="12" lengthAdjust="spacing" textLength="111" x="1118.5" y="720.4229">Match N&#171;Stage2&#187;</text><rect fill="#FFFFFF" height="34.584" rx="12.5" ry="12.5" style="stroke:#000000;stroke-width:1.0;" width="436" x="956" y="754.3494"/><text fill="#000000" font-family="Verdana" font-size="12" lengthAdjust="spacing" textLength="416" x="966" y="776.4138">Call SP: CTS_DC_MatchMonitor_RuleFixedGame_Process&#171;Stage2&#187;</text><rect fill="#FFFFFF" height="34.584" rx="12.5" ry="12.5" style="stroke:#000000;stroke-width:1.0;" width="249" x="1049.5" y="820.3403"/><text fill="#000000" font-family="Verdana" font-size="12" lengthAdjust="spacing" textLength="229" x="1059.5" y="842.4048">Detect suspicious patterns&#171;Stage2&#187;</text><rect fill="#000000" height="6" rx="2.5" ry="2.5" style="stroke:#000000;stroke-width:1.0;" width="1390" x="16" y="874.9243"/><rect fill="#FFFFFF" height="444.5186" style="stroke:#000000;stroke-width:1.0;" width="681" x="287.25" y="902.9243"/><path d="M501.25,902.9243 L501.25,912.939 L491.25,922.939 L287.25,922.939 " fill="none" style="stroke:#000000;stroke-width:1.0;"/><text fill="#000000" font-family="Verdana" font-size="14" font-weight="bold" lengthAdjust="spacing" textLength="204" x="290.25" y="917.9995">Phase 3: Complete &amp; Save</text><rect fill="#FFFFFF" height="34.584" rx="12.5" ry="12.5" style="stroke:#000000;stroke-width:1.0;" width="237" x="591.5" y="939.939"/><text fill="#000000" font-family="Verdana" font-size="12" lengthAdjust="spacing" textLength="217" x="601.5" y="962.0034">For each detected match&#171;Stage3&#187;</text><polygon fill="#FFFFFF" points="631.5,994.5229,788.5,994.5229,800.5,1006.5229,788.5,1018.5229,631.5,1018.5229,619.5,1006.5229,631.5,994.5229" style="stroke:#000000;stroke-width:1.0;"/><text fill="#000000" font-family="Verdana" font-size="11" lengthAdjust="spacing" textLength="157" x="631.5" y="1010.8977">Match has detected tickets?</text><text fill="#000000" font-family="Verdana" font-size="11" lengthAdjust="spacing" textLength="20" x="599.5" y="1004.2134">yes</text><text fill="#000000" font-family="Verdana" font-size="11" lengthAdjust="spacing" textLength="14" x="800.5" y="1004.2134">no</text><rect fill="#FFFFFF" height="34.584" rx="12.5" ry="12.5" style="stroke:#000000;stroke-width:1.0;" width="447" x="322.75" y="1028.5229"/><text fill="#000000" font-family="Verdana" font-size="12" lengthAdjust="spacing" textLength="427" x="332.75" y="1050.5874">Call SP: CTS_DC_MatchMonitor_RuleFixedGame_Complete&#171;Stage3&#187;</text><polygon fill="#FFFFFF" points="442.25,1083.1069,650.25,1083.1069,662.25,1095.1069,650.25,1107.1069,442.25,1107.1069,430.25,1095.1069,442.25,1083.1069" style="stroke:#000000;stroke-width:1.0;"/><text fill="#000000" font-family="Verdana" font-size="11" lengthAdjust="spacing" textLength="208" x="442.25" y="1099.4817">Match exists in MatchMonitorDetails?</text><text fill="#000000" font-family="Verdana" font-size="11" lengthAdjust="spacing" textLength="20" x="410.25" y="1092.7974">yes</text><text fill="#000000" font-family="Verdana" font-size="11" lengthAdjust="spacing" textLength="14" x="662.25" y="1092.7974">no</text><rect fill="#FFFFFF" height="49.168" rx="12.5" ry="12.5" style="stroke:#000000;stroke-width:1.0;" width="206" x="317.25" y="1117.1069"/><text fill="#000000" font-family="Verdana" font-size="12" lengthAdjust="spacing" textLength="115" x="327.25" y="1139.1714">Merge new tickets</text><text fill="#000000" font-family="Verdana" font-size="12" lengthAdjust="spacing" textLength="186" x="327.25" y="1153.7554">with existing tickets&#171;Stage3&#187;</text><rect fill="#FFFFFF" height="34.584" rx="12.5" ry="12.5" style="stroke:#000000;stroke-width:1.0;" width="194" x="575.25" y="1117.1069"/><text fill="#000000" font-family="Verdana" font-size="12" lengthAdjust="spacing" textLength="174" x="585.25" y="1139.1714">Insert new record&#171;Stage3&#187;</text><polygon fill="#FFFFFF" points="546.25,1172.2749,558.25,1184.2749,546.25,1196.2749,534.25,1184.2749,546.25,1172.2749" style="stroke:#000000;stroke-width:1.0;"/><rect fill="#FFFFFF" height="34.584" rx="12.5" ry="12.5" style="stroke:#000000;stroke-width:1.0;" width="251" x="420.75" y="1216.2749"/><text fill="#000000" font-family="Verdana" font-size="12" lengthAdjust="spacing" textLength="231" x="430.75" y="1238.3394">Update MatchMonitor table&#171;Stage3&#187;</text><rect fill="#FFFFFF" height="34.584" rx="12.5" ry="12.5" style="stroke:#000000;stroke-width:1.0;" width="294" x="399.25" y="1270.8589"/><text fill="#000000" font-family="Verdana" font-size="12" lengthAdjust="spacing" textLength="274" x="409.25" y="1292.9233">Update MatchMonitorDetails table&#171;Stage3&#187;</text><rect fill="#FFFFFF" height="34.584" rx="12.5" ry="12.5" style="stroke:#000000;stroke-width:1.0;" width="149" x="799.25" y="1028.5229"/><text fill="#000000" font-family="Verdana" font-size="12" lengthAdjust="spacing" textLength="129" x="809.25" y="1050.5874">Skip match&#171;Stage3&#187;</text><polygon fill="#FFFFFF" points="710,1311.4429,722,1323.4429,710,1335.4429,698,1323.4429,710,1311.4429" style="stroke:#000000;stroke-width:1.0;"/><rect fill="#FFFFFF" height="221.9346" style="stroke:#000000;stroke-width:1.0;" width="711.5" x="464.5" y="1357.4429"/><path d="M653.5,1357.4429 L653.5,1367.4575 L643.5,1377.4575 L464.5,1377.4575 " fill="none" style="stroke:#000000;stroke-width:1.0;"/><text fill="#000000" font-family="Verdana" font-size="14" font-weight="bold" lengthAdjust="spacing" textLength="179" x="467.5" y="1372.5181">Phase 4: Clean Staging</text><rect fill="#FFFFFF" height="34.584" rx="12.5" ry="12.5" style="stroke:#000000;stroke-width:1.0;" width="471" x="474.5" y="1394.4575"/><text fill="#000000" font-family="Verdana" font-size="12" lengthAdjust="spacing" textLength="451" x="484.5" y="1416.522">Call SP: CTS_DC_MatchMonitor_RuleFixedGame_StagingClean&#171;Stage4&#187;</text><path d="M828,1460.7258 L828,1469.6255 L808,1473.6255 L828,1477.6255 L828,1486.5251 A0,0 0 0 0 828,1486.5251 L1166,1486.5251 A0,0 0 0 0 1166,1486.5251 L1166,1470.7258 L1156,1460.7258 L828,1460.7258 A0,0 0 0 0 828,1460.7258 " fill="#FFFFFF" style="stroke:#000000;stroke-width:1.0;"/><path d="M1156,1460.7258 L1156,1470.7258 L1166,1470.7258 L1156,1460.7258 " fill="#FFFFFF" style="stroke:#000000;stroke-width:1.0;"/><text fill="#000000" font-family="Verdana" font-size="13" lengthAdjust="spacing" textLength="317" x="834" y="1478.7957">DELETE WHERE SequenceID &lt;= MaxSequenceID</text><rect fill="#FFFFFF" height="49.168" rx="12.5" ry="12.5" style="stroke:#000000;stroke-width:1.0;" width="196" x="612" y="1449.0415"/><text fill="#000000" font-family="Verdana" font-size="12" lengthAdjust="spacing" textLength="155" x="622" y="1471.106">Delete processed tickets</text><text fill="#000000" font-family="Verdana" font-size="12" lengthAdjust="spacing" textLength="176" x="622" y="1485.6899">from staging table&#171;Stage4&#187;</text><rect fill="#FFFFFF" height="49.168" rx="12.5" ry="12.5" style="stroke:#000000;stroke-width:1.0;" width="246" x="587" y="1518.2095"/><text fill="#000000" font-family="Verdana" font-size="12" lengthAdjust="spacing" textLength="162" x="597" y="1540.2739">Update SystemParameter</text><text fill="#000000" font-family="Verdana" font-size="12" lengthAdjust="spacing" textLength="226" x="597" y="1554.8579">with new LastSequenceID&#171;Stage4&#187;</text><rect fill="#FFFFFF" height="34.584" rx="12.5" ry="12.5" style="stroke:#000000;stroke-width:1.0;" width="225" x="1726" y="635.3438"/><text fill="#000000" font-family="Verdana" font-size="12" lengthAdjust="spacing" textLength="205" x="1736" y="657.4082">No matches to process&#171;Stage4&#187;</text><polygon fill="#FFFFFF" points="1279.25,1585.3774,1291.25,1597.3774,1279.25,1609.3774,1267.25,1597.3774,1279.25,1585.3774" style="stroke:#000000;stroke-width:1.0;"/><rect fill="#FFFFFF" height="34.584" rx="12.5" ry="12.5" style="stroke:#000000;stroke-width:1.0;" width="171" x="1193.75" y="1629.3774"/><text fill="#000000" font-family="Verdana" font-size="12" lengthAdjust="spacing" textLength="151" x="1203.75" y="1651.4419">Job completed&#171;Stage4&#187;</text><ellipse cx="1279.25" cy="1694.9614" fill="none" rx="11" ry="11" style="stroke:#000000;stroke-width:1.0;"/><ellipse cx="1279.25" cy="1694.9614" fill="#FFFFFF" rx="6" ry="6" style="stroke:#000000;stroke-width:1.0;"/><line style="stroke:#000000;stroke-width:1.0;" x1="1279.25" x2="1279.25" y1="72.7373" y2="92.7373"/><polygon fill="#000000" points="1275.25,82.7373,1279.25,92.7373,1283.25,82.7373,1279.25,86.7373" style="stroke:#000000;stroke-width:1.0;"/><line style="stroke:#000000;stroke-width:1.0;" x1="1279.25" x2="1279.25" y1="223.5039" y2="243.5039"/><polygon fill="#000000" points="1275.25,233.5039,1279.25,243.5039,1283.25,233.5039,1279.25,237.5039" style="stroke:#000000;stroke-width:1.0;"/><line style="stroke:#000000;stroke-width:1.0;" x1="1279.25" x2="1279.25" y1="292.6719" y2="312.6719"/><polygon fill="#000000" points="1275.25,302.6719,1279.25,312.6719,1283.25,302.6719,1279.25,306.6719" style="stroke:#000000;stroke-width:1.0;"/><line style="stroke:#000000;stroke-width:1.0;" x1="1279.25" x2="1279.25" y1="361.8398" y2="381.8398"/><polygon fill="#000000" points="1275.25,371.8398,1279.25,381.8398,1283.25,371.8398,1279.25,375.8398" style="stroke:#000000;stroke-width:1.0;"/><line style="stroke:#000000;stroke-width:1.0;" x1="1279.25" x2="1279.25" y1="431.0078" y2="451.0078"/><polygon fill="#000000" points="1275.25,441.0078,1279.25,451.0078,1283.25,441.0078,1279.25,445.0078" style="stroke:#000000;stroke-width:1.0;"/><line style="stroke:#000000;stroke-width:1.0;" x1="1279.25" x2="1279.25" y1="500.1758" y2="520.1758"/><polygon fill="#000000" points="1275.25,510.1758,1279.25,520.1758,1283.25,510.1758,1279.25,514.1758" style="stroke:#000000;stroke-width:1.0;"/><line style="stroke:#000000;stroke-width:1.0;" x1="1279.25" x2="1279.25" y1="141.9053" y2="188.9199"/><polygon fill="#000000" points="1275.25,178.9199,1279.25,188.9199,1283.25,178.9199,1279.25,182.9199" style="stroke:#000000;stroke-width:1.0;"/><line style="stroke:#000000;stroke-width:1.0;" x1="246" x2="246" y1="732.9424" y2="754.3494"/><polygon fill="#000000" points="242,744.3494,246,754.3494,250,744.3494,246,748.3494" style="stroke:#000000;stroke-width:1.0;"/><line style="stroke:#000000;stroke-width:1.0;" x1="246" x2="246" y1="788.9333" y2="820.3403"/><polygon fill="#000000" points="242,810.3403,246,820.3403,250,810.3403,246,814.3403" style="stroke:#000000;stroke-width:1.0;"/><line style="stroke:#000000;stroke-width:1.0;" x1="710" x2="710" y1="732.9424" y2="754.3494"/><polygon fill="#000000" points="706,744.3494,710,754.3494,714,744.3494,710,748.3494" style="stroke:#000000;stroke-width:1.0;"/><line style="stroke:#000000;stroke-width:1.0;" x1="710" x2="710" y1="788.9333" y2="820.3403"/><polygon fill="#000000" points="706,810.3403,710,820.3403,714,810.3403,710,814.3403" style="stroke:#000000;stroke-width:1.0;"/><line style="stroke:#000000;stroke-width:1.0;" x1="1174" x2="1174" y1="732.9424" y2="754.3494"/><polygon fill="#000000" points="1170,744.3494,1174,754.3494,1178,744.3494,1174,748.3494" style="stroke:#000000;stroke-width:1.0;"/><line style="stroke:#000000;stroke-width:1.0;" x1="1174" x2="1174" y1="788.9333" y2="820.3403"/><polygon fill="#000000" points="1170,810.3403,1174,820.3403,1178,810.3403,1174,814.3403" style="stroke:#000000;stroke-width:1.0;"/><line style="stroke:#000000;stroke-width:1.0;" x1="246" x2="246" y1="678.3584" y2="698.3584"/><polygon fill="#000000" points="242,688.3584,246,698.3584,250,688.3584,246,692.3584" style="stroke:#000000;stroke-width:1.0;"/><line style="stroke:#000000;stroke-width:1.0;" x1="710" x2="710" y1="678.3584" y2="698.3584"/><polygon fill="#000000" points="706,688.3584,710,698.3584,714,688.3584,710,692.3584" style="stroke:#000000;stroke-width:1.0;"/><line style="stroke:#000000;stroke-width:1.0;" x1="1174" x2="1174" y1="678.3584" y2="698.3584"/><polygon fill="#000000" points="1170,688.3584,1174,698.3584,1178,688.3584,1174,692.3584" style="stroke:#000000;stroke-width:1.0;"/><line style="stroke:#000000;stroke-width:1.0;" x1="246" x2="246" y1="854.9243" y2="874.9243"/><polygon fill="#000000" points="242,864.9243,246,874.9243,250,864.9243,246,868.9243" style="stroke:#000000;stroke-width:1.0;"/><line style="stroke:#000000;stroke-width:1.0;" x1="710" x2="710" y1="854.9243" y2="874.9243"/><polygon fill="#000000" points="706,864.9243,710,874.9243,714,864.9243,710,868.9243" style="stroke:#000000;stroke-width:1.0;"/><line style="stroke:#000000;stroke-width:1.0;" x1="1174" x2="1174" y1="854.9243" y2="874.9243"/><polygon fill="#000000" points="1170,864.9243,1174,874.9243,1178,864.9243,1174,868.9243" style="stroke:#000000;stroke-width:1.0;"/><line style="stroke:#000000;stroke-width:1.0;" x1="430.25" x2="420.25" y1="1095.1069" y2="1095.1069"/><line style="stroke:#000000;stroke-width:1.0;" x1="420.25" x2="420.25" y1="1095.1069" y2="1117.1069"/><polygon fill="#000000" points="416.25,1107.1069,420.25,1117.1069,424.25,1107.1069,420.25,1111.1069" style="stroke:#000000;stroke-width:1.0;"/><line style="stroke:#000000;stroke-width:1.0;" x1="662.25" x2="672.25" y1="1095.1069" y2="1095.1069"/><line style="stroke:#000000;stroke-width:1.0;" x1="672.25" x2="672.25" y1="1095.1069" y2="1117.1069"/><polygon fill="#000000" points="668.25,1107.1069,672.25,1117.1069,676.25,1107.1069,672.25,1111.1069" style="stroke:#000000;stroke-width:1.0;"/><line style="stroke:#000000;stroke-width:1.0;" x1="420.25" x2="420.25" y1="1166.2749" y2="1184.2749"/><line style="stroke:#000000;stroke-width:1.0;" x1="420.25" x2="534.25" y1="1184.2749" y2="1184.2749"/><polygon fill="#000000" points="524.25,1180.2749,534.25,1184.2749,524.25,1188.2749,528.25,1184.2749" style="stroke:#000000;stroke-width:1.0;"/><line style="stroke:#000000;stroke-width:1.0;" x1="672.25" x2="672.25" y1="1151.6909" y2="1184.2749"/><line style="stroke:#000000;stroke-width:1.0;" x1="672.25" x2="558.25" y1="1184.2749" y2="1184.2749"/><polygon fill="#000000" points="568.25,1180.2749,558.25,1184.2749,568.25,1188.2749,564.25,1184.2749" style="stroke:#000000;stroke-width:1.0;"/><line style="stroke:#000000;stroke-width:1.0;" x1="546.25" x2="546.25" y1="1063.1069" y2="1083.1069"/><polygon fill="#000000" points="542.25,1073.1069,546.25,1083.1069,550.25,1073.1069,546.25,1077.1069" style="stroke:#000000;stroke-width:1.0;"/><line style="stroke:#000000;stroke-width:1.0;" x1="546.25" x2="546.25" y1="1196.2749" y2="1216.2749"/><polygon fill="#000000" points="542.25,1206.2749,546.25,1216.2749,550.25,1206.2749,546.25,1210.2749" style="stroke:#000000;stroke-width:1.0;"/><line style="stroke:#000000;stroke-width:1.0;" x1="546.25" x2="546.25" y1="1250.8589" y2="1270.8589"/><polygon fill="#000000" points="542.25,1260.8589,546.25,1270.8589,550.25,1260.8589,546.25,1264.8589" style="stroke:#000000;stroke-width:1.0;"/><line style="stroke:#000000;stroke-width:1.0;" x1="619.5" x2="546.25" y1="1006.5229" y2="1006.5229"/><line style="stroke:#000000;stroke-width:1.0;" x1="546.25" x2="546.25" y1="1006.5229" y2="1028.5229"/><polygon fill="#000000" points="542.25,1018.5229,546.25,1028.5229,550.25,1018.5229,546.25,1022.5229" style="stroke:#000000;stroke-width:1.0;"/><line style="stroke:#000000;stroke-width:1.0;" x1="800.5" x2="873.75" y1="1006.5229" y2="1006.5229"/><line style="stroke:#000000;stroke-width:1.0;" x1="873.75" x2="873.75" y1="1006.5229" y2="1028.5229"/><polygon fill="#000000" points="869.75,1018.5229,873.75,1028.5229,877.75,1018.5229,873.75,1022.5229" style="stroke:#000000;stroke-width:1.0;"/><line style="stroke:#000000;stroke-width:1.0;" x1="546.25" x2="546.25" y1="1305.4429" y2="1323.4429"/><line style="stroke:#000000;stroke-width:1.0;" x1="546.25" x2="698" y1="1323.4429" y2="1323.4429"/><polygon fill="#000000" points="688,1319.4429,698,1323.4429,688,1327.4429,692,1323.4429" style="stroke:#000000;stroke-width:1.0;"/><line style="stroke:#000000;stroke-width:1.0;" x1="873.75" x2="873.75" y1="1063.1069" y2="1323.4429"/><line style="stroke:#000000;stroke-width:1.0;" x1="873.75" x2="722" y1="1323.4429" y2="1323.4429"/><polygon fill="#000000" points="732,1319.4429,722,1323.4429,732,1327.4429,728,1323.4429" style="stroke:#000000;stroke-width:1.0;"/><line style="stroke:#000000;stroke-width:1.0;" x1="710" x2="710" y1="974.5229" y2="994.5229"/><polygon fill="#000000" points="706,984.5229,710,994.5229,714,984.5229,710,988.5229" style="stroke:#000000;stroke-width:1.0;"/><line style="stroke:#000000;stroke-width:1.0;" x1="710" x2="710" y1="880.9243" y2="939.939"/><polygon fill="#000000" points="706,929.939,710,939.939,714,929.939,710,933.939" style="stroke:#000000;stroke-width:1.0;"/><line style="stroke:#000000;stroke-width:1.0;" x1="710" x2="710" y1="1429.0415" y2="1449.0415"/><polygon fill="#000000" points="706,1439.0415,710,1449.0415,714,1439.0415,710,1443.0415" style="stroke:#000000;stroke-width:1.0;"/><line style="stroke:#000000;stroke-width:1.0;" x1="710" x2="710" y1="1498.2095" y2="1518.2095"/><polygon fill="#000000" points="706,1508.2095,710,1518.2095,714,1508.2095,710,1512.2095" style="stroke:#000000;stroke-width:1.0;"/><line style="stroke:#000000;stroke-width:1.0;" x1="710" x2="710" y1="1335.4429" y2="1394.4575"/><polygon fill="#000000" points="706,1384.4575,710,1394.4575,714,1384.4575,710,1388.4575" style="stroke:#000000;stroke-width:1.0;"/><line style="stroke:#000000;stroke-width:1.0;" x1="1196.25" x2="710" y1="613.3438" y2="613.3438"/><line style="stroke:#000000;stroke-width:1.0;" x1="710" x2="710" y1="613.3438" y2="672.3584"/><polygon fill="#000000" points="706,662.3584,710,672.3584,714,662.3584,710,666.3584" style="stroke:#000000;stroke-width:1.0;"/><line style="stroke:#000000;stroke-width:1.0;" x1="1362.25" x2="1838.5" y1="613.3438" y2="613.3438"/><line style="stroke:#000000;stroke-width:1.0;" x1="1838.5" x2="1838.5" y1="613.3438" y2="635.3438"/><polygon fill="#000000" points="1834.5,625.3438,1838.5,635.3438,1842.5,625.3438,1838.5,629.3438" style="stroke:#000000;stroke-width:1.0;"/><line style="stroke:#000000;stroke-width:1.0;" x1="710" x2="710" y1="1567.3774" y2="1597.3774"/><line style="stroke:#000000;stroke-width:1.0;" x1="710" x2="1267.25" y1="1597.3774" y2="1597.3774"/><polygon fill="#000000" points="1257.25,1593.3774,1267.25,1597.3774,1257.25,1601.3774,1261.25,1597.3774" style="stroke:#000000;stroke-width:1.0;"/><line style="stroke:#000000;stroke-width:1.0;" x1="1838.5" x2="1838.5" y1="669.9277" y2="1597.3774"/><line style="stroke:#000000;stroke-width:1.0;" x1="1838.5" x2="1291.25" y1="1597.3774" y2="1597.3774"/><polygon fill="#000000" points="1301.25,1593.3774,1291.25,1597.3774,1301.25,1601.3774,1297.25,1597.3774" style="stroke:#000000;stroke-width:1.0;"/><line style="stroke:#000000;stroke-width:1.0;" x1="1279.25" x2="1279.25" y1="569.3438" y2="601.3438"/><polygon fill="#000000" points="1275.25,591.3438,1279.25,601.3438,1283.25,591.3438,1279.25,595.3438" style="stroke:#000000;stroke-width:1.0;"/><line style="stroke:#000000;stroke-width:1.0;" x1="1279.25" x2="1279.25" y1="1609.3774" y2="1629.3774"/><polygon fill="#000000" points="1275.25,1619.3774,1279.25,1629.3774,1283.25,1619.3774,1279.25,1623.3774" style="stroke:#000000;stroke-width:1.0;"/><line style="stroke:#000000;stroke-width:1.0;" x1="1279.25" x2="1279.25" y1="1663.9614" y2="1683.9614"/><polygon fill="#000000" points="1275.25,1673.9614,1279.25,1683.9614,1283.25,1673.9614,1279.25,1677.9614" style="stroke:#000000;stroke-width:1.0;"/><!--SRC=[rLPHRzis47xNhxXsmEOOArRRMRSgQOT5afCCIPf56VOm3mOjdHp2CgcHL1Alo7_lKP8jAPKITDZ3fXTRujtnEtxVtV65kS4rGfOoBXp3JOemvVSOmp6ZppuQZ0oN0bx1ELd0D9LtZlCDBIHS84GobKexB-BoDRp- -JWOpRqFPn-kuAjWCXrF_VRYUBiudKxVUlljnSbsqVinUEEzRI_krvwUT-GvZbvnaJ75ri08uYqt6_Ze03r7B5ejbSn5x5buXuUXOKiSlN_VmlU4wNXhEdxMTB8rdJnhkhyrhJ9n7YW7mvHn7FSNkO1hnPTBL1ZFn22uHRM1xs7DHMvGxzKv73WE9Kr4ML9U3eUNDqmZZ5muHaCKcUW6zN3uiZeArsDf2k6b2zvrEFUzUM5nBWKtKislyXGBiYtNSmhGtCQwbp6kaCMGCcqWnBzo516U-ZEHABc6SACDhYyj2wGKzTXVI8D0QTsOujK-P_mMNTXvdFhm3aQlN-_MBwJeDXaL9YZY8ce3daryOTC2pV_6VnVO-CspmCO_z07xDRSa4iLBBfPWs28bT4q2md9fHy4VTeFlget-x2RZc7ILmMBZbcIV-jz264c5Fa-IcJX2OpOPsg_qr_wS-9V5VuDitKUloPM0c6l3HMHWNPpb2ZTw9XXbTSxkQzwR8KY_F8712TEb3sem4Z8b8zJwfpsWpY9Wi27v5Xjro7PCfrcQGy1eqo8b6DWJJbDCzseXsoUHQhLxAQ2NzgEwR0_Qwr-W_Wf7RwYo4uBETSOZBdDD-T2XAj7fOg42MzgUsW5u_7y3VF7V0sphhIM8tP-EshOFQQu4O8kH9bbMYMmuR9czWejylK05CY41AsfzcfAJ8k7BNDaIVcHTwBOicKhvD3kvY34ZX2XCkcb1thM8Xxe2EmfZOlTSPoaT2NmD8Rl5TYcuKwa0xTPnSMgqPu6Xdae7dn-CBTQIJzgZTZGyMg7fADX_Gl8MTHUG5fWs8BodxgCjBStOf0Z6qoUGbH95jKGGUBVDP2RkkAbY5fst_Dm72LCwy86G7Q5FXKPbYjWAgSl6lJ54p9F-HDtVifWHbStaoe7G5x3BepgEViVkJDnmnRD-UTJGdvRaFj6V8XDGJQr7Wlm2ZLG1YcZrtQX3iDGIYWge2sl7S37aMwErAr9FA_23i-0wWDzFWgkWSQU1mtVjOTTTkMs85K-FxXkL1ArmpkZYzDdytA5ySDgakHUoOvWslKg-oYjZL5LRt3IWIwNCd4y0]--></g></svg>