<svg xmlns="http://www.w3.org/2000/svg" xmlns:xlink="http://www.w3.org/1999/xlink" contentStyleType="text/css" height="2791px" preserveAspectRatio="none" style="width:1097px;height:2791px;background:#FFFFFF;" version="1.1" viewBox="0 0 1097 2791" width="1097px" zoomAndPan="magnify"><defs/><g><text fill="#000000" font-family="Verdana" font-size="22" font-weight="bold" lengthAdjust="spacing" textLength="1064" x="15" y="37.1182">Stored Procedure: CTS_DC_CustClassification_Realtime_GetCategory - Detailed Flow</text><rect fill="#FFFFFF" height="2732.0454" style="stroke:#000000;stroke-width:1.0;" width="832" x="132" y="53.7373"/><line style="stroke:#000000;stroke-width:1.0;" x1="132" x2="964" y1="74.752" y2="74.752"/><text fill="#000000" font-family="Verdana" font-size="14" lengthAdjust="spacing" textLength="6" x="308.5" y="69.8125">"</text><text fill="#000000" font-family="Verdana" font-size="14" font-weight="bold" lengthAdjust="spacing" textLength="423" x="314.5" y="69.8125">SP: CTS_DC_CustClassification_Realtime_GetCategory</text><text fill="#000000" font-family="Verdana" font-size="14" lengthAdjust="spacing" textLength="50" x="737.5" y="69.8125">" as SP</text><rect fill="#FFFFFF" height="2675.0308" style="stroke:#000000;stroke-width:1.0;" width="812" x="142" y="90.752"/><text fill="#000000" font-family="Verdana" font-size="14" lengthAdjust="spacing" textLength="6" x="386" y="106.8271">"</text><text fill="#000000" font-family="Verdana" font-size="14" font-weight="bold" lengthAdjust="spacing" textLength="71" x="392" y="106.8271">Database</text><text fill="#000000" font-family="Verdana" font-size="14" lengthAdjust="spacing" textLength="247" x="463" y="106.8271">: CTS_DataCenter (MySQL)" as DB</text><rect fill="#FFFFFF" height="57.0146" style="stroke:#000000;stroke-width:1.0;" width="279" x="160" y="127.7666"/><text fill="#000000" font-family="Verdana" font-size="14" lengthAdjust="spacing" textLength="6" x="170" y="143.8418">"</text><text fill="#000000" font-family="Verdana" font-size="14" font-weight="bold" lengthAdjust="spacing" textLength="63" x="176" y="143.8418">Timeout</text><text fill="#000000" font-family="Verdana" font-size="14" lengthAdjust="spacing" textLength="190" x="239" y="143.8418">: 300 seconds" as Timeout</text><ellipse cx="299.5" cy="229.7813" fill="#FFFFFF" rx="10" ry="10" style="stroke:#000000;stroke-width:1.0;"/><rect fill="#FFFFFF" height="130.2119" style="stroke:#000000;stroke-width:1.0;" width="529" x="177" y="274.7813"/><path d="M309,274.7813 L309,284.7959 L299,294.7959 L177,294.7959 " fill="none" style="stroke:#000000;stroke-width:1.0;"/><text fill="#000000" font-family="Verdana" font-size="14" lengthAdjust="spacing" textLength="122" x="180" y="289.8564">Input Parameters</text><path d="M432,311.7959 L432,344.3945 L412,348.3945 L432,352.3945 L432,384.9932 A0,0 0 0 0 432,384.9932 L696,384.9932 A0,0 0 0 0 696,384.9932 L696,321.7959 L686,311.7959 L432,311.7959 A0,0 0 0 0 432,311.7959 " fill="#FFFFFF" style="stroke:#000000;stroke-width:1.0;"/><path d="M686,311.7959 L686,321.7959 L696,321.7959 L686,311.7959 " fill="#FFFFFF" style="stroke:#000000;stroke-width:1.0;"/><text fill="#000000" font-family="Verdana" font-size="13" lengthAdjust="spacing" textLength="161" x="438" y="329.8657">Parameter: @ip_CustIDs</text><text fill="#000000" font-family="Verdana" font-size="13" lengthAdjust="spacing" textLength="243" x="438" y="345.665">Format: "123,456,789,1011,1213,..."</text><text fill="#000000" font-family="Verdana" font-size="13" lengthAdjust="spacing" textLength="5" x="438" y="361.4644">&#160;</text><text fill="#000000" font-family="Verdana" font-size="13" lengthAdjust="spacing" textLength="212" x="438" y="377.2637">Comma-separated customer IDs</text><rect fill="#FFFFFF" height="34.584" rx="12.5" ry="12.5" style="stroke:#000000;stroke-width:1.0;" width="225" x="187" y="331.1025"/><text fill="#000000" font-family="Verdana" font-size="12" lengthAdjust="spacing" textLength="205" x="197" y="353.167">Receive @ip_CustIDs (VARCHAR)</text><rect fill="#FFFFFF" height="380.603" style="stroke:#000000;stroke-width:1.0;" width="564" x="190" y="439.9932"/><path d="M341,439.9932 L341,450.0078 L331,460.0078 L190,460.0078 " fill="none" style="stroke:#000000;stroke-width:1.0;"/><text fill="#000000" font-family="Verdana" font-size="14" lengthAdjust="spacing" textLength="141" x="193" y="455.0684">Parse Customer IDs</text><path d="M403.5,477.0078 L403.5,501.7068 L383.5,505.7068 L403.5,509.7068 L403.5,534.4058 A0,0 0 0 0 403.5,534.4058 L735.5,534.4058 A0,0 0 0 0 735.5,534.4058 L735.5,487.0078 L725.5,477.0078 L403.5,477.0078 A0,0 0 0 0 403.5,477.0078 " fill="#FFFFFF" style="stroke:#000000;stroke-width:1.0;"/><path d="M725.5,477.0078 L725.5,487.0078 L735.5,487.0078 L725.5,477.0078 " fill="#FFFFFF" style="stroke:#000000;stroke-width:1.0;"/><text fill="#000000" font-family="Verdana" font-size="13" lengthAdjust="spacing" textLength="311" x="409.5" y="495.0776">CREATE TEMPORARY TABLE Temp_Customers (</text><text fill="#000000" font-family="Verdana" font-size="13" lengthAdjust="spacing" textLength="93" x="419.5" y="510.877">CustId BIGINT</text><text fill="#000000" font-family="Verdana" font-size="13" lengthAdjust="spacing" textLength="12" x="409.5" y="526.6763">);</text><rect fill="#FFFFFF" height="34.584" rx="12.5" ry="12.5" style="stroke:#000000;stroke-width:1.0;" width="168" x="215.5" y="488.4148"/><text fill="#000000" font-family="Verdana" font-size="12" lengthAdjust="spacing" textLength="148" x="225.5" y="510.4792">Create temporary table</text><path d="M419,569.4058 L419,681.001 L399,685.001 L419,689.001 L419,800.5962 A0,0 0 0 0 419,800.5962 L744,800.5962 A0,0 0 0 0 744,800.5962 L744,579.4058 L734,569.4058 L419,569.4058 A0,0 0 0 0 419,569.4058 " fill="#FFFFFF" style="stroke:#000000;stroke-width:1.0;"/><path d="M734,569.4058 L734,579.4058 L744,579.4058 L734,569.4058 " fill="#FFFFFF" style="stroke:#000000;stroke-width:1.0;"/><text fill="#000000" font-family="Verdana" font-size="13" lengthAdjust="spacing" textLength="162" x="425" y="587.4756">-- Split string by comma</text><text fill="#000000" font-family="Verdana" font-size="13" lengthAdjust="spacing" textLength="264" x="425" y="603.2749">INSERT INTO Temp_Customers (CustId)</text><text fill="#000000" font-family="Verdana" font-size="13" lengthAdjust="spacing" textLength="50" x="425" y="619.0742">SELECT</text><text fill="#000000" font-family="Verdana" font-size="13" lengthAdjust="spacing" textLength="294" x="435" y="634.8735">CAST(TRIM(value) AS UNSIGNED) AS CustId</text><text fill="#000000" font-family="Verdana" font-size="13" lengthAdjust="spacing" textLength="48" x="425" y="650.6729">FROM (</text><text fill="#000000" font-family="Verdana" font-size="13" lengthAdjust="spacing" textLength="125" x="435" y="666.4722">-- String split logic</text><text fill="#000000" font-family="Verdana" font-size="13" lengthAdjust="spacing" textLength="288" x="435" y="682.2715">-- Using SUBSTRING_INDEX or JSON_TABLE</text><text fill="#000000" font-family="Verdana" font-size="13" lengthAdjust="spacing" textLength="104" x="425" y="698.0708">) AS parsed_ids</text><text fill="#000000" font-family="Verdana" font-size="13" lengthAdjust="spacing" textLength="283" x="425" y="713.8701">WHERE value IS NOT NULL AND value != '';</text><text fill="#000000" font-family="Verdana" font-size="13" lengthAdjust="spacing" textLength="5" x="425" y="729.6694">&#160;</text><text fill="#000000" font-family="Verdana" font-size="13" lengthAdjust="spacing" textLength="154" x="425" y="745.4688">MySQL String Splitting:</text><text fill="#000000" font-family="Verdana" font-size="13" lengthAdjust="spacing" textLength="183" x="425" y="761.2681">- SUBSTRING_INDEX in loop</text><text fill="#000000" font-family="Verdana" font-size="13" lengthAdjust="spacing" textLength="192" x="425" y="777.0674">- JSON_TABLE (MySQL 8.0+)</text><text fill="#000000" font-family="Verdana" font-size="13" lengthAdjust="spacing" textLength="152" x="425" y="792.8667">- Custom split function</text><rect fill="#FFFFFF" height="34.584" rx="12.5" ry="12.5" style="stroke:#000000;stroke-width:1.0;" width="199" x="200" y="667.709"/><text fill="#000000" font-family="Verdana" font-size="12" lengthAdjust="spacing" textLength="179" x="210" y="689.7734">Parse comma-separated IDs</text><rect fill="#FFFFFF" height="304.0044" style="stroke:#000000;stroke-width:1.0;" width="648" x="184.5" y="855.5962"/><path d="M373.5,855.5962 L373.5,865.6108 L363.5,875.6108 L184.5,875.6108 " fill="none" style="stroke:#000000;stroke-width:1.0;"/><text fill="#000000" font-family="Verdana" font-size="14" lengthAdjust="spacing" textLength="179" x="187.5" y="870.6714">Get Current Classification</text><path d="M424.5,892.6108 L424.5,1012.1057 L404.5,1016.1057 L424.5,1020.1057 L424.5,1139.6006 A0,0 0 0 0 424.5,1139.6006 L822.5,1139.6006 A0,0 0 0 0 822.5,1139.6006 L822.5,902.6108 L812.5,892.6108 L424.5,892.6108 A0,0 0 0 0 424.5,892.6108 " fill="#FFFFFF" style="stroke:#000000;stroke-width:1.0;"/><path d="M812.5,892.6108 L812.5,902.6108 L822.5,902.6108 L812.5,892.6108 " fill="#FFFFFF" style="stroke:#000000;stroke-width:1.0;"/><text fill="#000000" font-family="Verdana" font-size="13" lengthAdjust="spacing" textLength="50" x="430.5" y="910.6807">SELECT</text><text fill="#000000" font-family="Verdana" font-size="13" lengthAdjust="spacing" textLength="67" x="440.5" y="926.48">tc.CustId,</text><text fill="#000000" font-family="Verdana" font-size="13" lengthAdjust="spacing" textLength="100" x="440.5" y="942.2793">cc.CategoryID,</text><text fill="#000000" font-family="Verdana" font-size="13" lengthAdjust="spacing" textLength="89" x="440.5" y="958.0786">cat.ParentID,</text><text fill="#000000" font-family="Verdana" font-size="13" lengthAdjust="spacing" textLength="152" x="440.5" y="973.8779">cc.RelevantCategoryID</text><text fill="#000000" font-family="Verdana" font-size="13" lengthAdjust="spacing" textLength="170" x="430.5" y="989.6772">INTO #TempClassification</text><text fill="#000000" font-family="Verdana" font-size="13" lengthAdjust="spacing" textLength="174" x="430.5" y="1005.4766">FROM Temp_Customers tc</text><text fill="#000000" font-family="Verdana" font-size="13" lengthAdjust="spacing" textLength="268" x="430.5" y="1021.2759">LEFT JOIN CTSCustomerClassification cc</text><text fill="#000000" font-family="Verdana" font-size="13" lengthAdjust="spacing" textLength="169" x="440.5" y="1037.0752">ON tc.CustId = cc.CustId</text><text fill="#000000" font-family="Verdana" font-size="13" lengthAdjust="spacing" textLength="221" x="430.5" y="1052.8745">LEFT JOIN CustomerCategory cat</text><text fill="#000000" font-family="Verdana" font-size="13" lengthAdjust="spacing" textLength="245" x="440.5" y="1068.6738">ON cc.CategoryID = cat.CategoryID;</text><text fill="#000000" font-family="Verdana" font-size="13" lengthAdjust="spacing" textLength="5" x="430.5" y="1084.4731">&#160;</text><text fill="#000000" font-family="Verdana" font-size="13" font-weight="bold" lengthAdjust="spacing" textLength="47" x="430.5" y="1100.2725">Tables</text><text fill="#000000" font-family="Verdana" font-size="13" lengthAdjust="spacing" textLength="6" x="477.5" y="1100.2725">:</text><text fill="#000000" font-family="Verdana" font-size="13" lengthAdjust="spacing" textLength="377" x="430.5" y="1116.0718">- CTSCustomerClassification: Current customer category</text><text fill="#000000" font-family="Verdana" font-size="13" lengthAdjust="spacing" textLength="345" x="430.5" y="1131.8711">- CustomerCategory: Category hierarchy (ParentID)</text><rect fill="#FFFFFF" height="34.584" rx="12.5" ry="12.5" style="stroke:#000000;stroke-width:1.0;" width="210" x="194.5" y="998.8137"/><text fill="#000000" font-family="Verdana" font-size="12" lengthAdjust="spacing" textLength="190" x="204.5" y="1020.8782">Query customer classifications</text><rect fill="#FFFFFF" height="288.2051" style="stroke:#000000;stroke-width:1.0;" width="771" x="173" y="1194.6006"/><path d="M340,1194.6006 L340,1204.6152 L330,1214.6152 L173,1214.6152 " fill="none" style="stroke:#000000;stroke-width:1.0;"/><text fill="#000000" font-family="Verdana" font-size="14" lengthAdjust="spacing" textLength="157" x="176" y="1209.6758">Categorize Customers</text><path d="M436,1231.6152 L436,1343.2104 L416,1347.2104 L436,1351.2104 L436,1462.8057 A0,0 0 0 0 436,1462.8057 L934,1462.8057 A0,0 0 0 0 934,1462.8057 L934,1241.6152 L924,1231.6152 L436,1231.6152 A0,0 0 0 0 436,1231.6152 " fill="#FFFFFF" style="stroke:#000000;stroke-width:1.0;"/><path d="M924,1231.6152 L924,1241.6152 L934,1241.6152 L924,1231.6152 " fill="#FFFFFF" style="stroke:#000000;stroke-width:1.0;"/><text fill="#000000" font-family="Verdana" font-size="13" font-weight="bold" lengthAdjust="spacing" textLength="100" x="442" y="1249.6851">Business Rule</text><text fill="#000000" font-family="Verdana" font-size="13" lengthAdjust="spacing" textLength="6" x="542" y="1249.6851">:</text><text fill="#000000" font-family="Verdana" font-size="13" lengthAdjust="spacing" textLength="5" x="442" y="1265.4844">&#160;</text><text fill="#000000" font-family="Verdana" font-size="13" font-weight="bold" lengthAdjust="spacing" textLength="135" x="442" y="1281.2837">Normal Customers</text><text fill="#000000" font-family="Verdana" font-size="13" lengthAdjust="spacing" textLength="6" x="577" y="1281.2837">:</text><text fill="#000000" font-family="Verdana" font-size="13" lengthAdjust="spacing" textLength="280" x="442" y="1297.083">- Classification IS NULL (new/unclassified)</text><text fill="#000000" font-family="Verdana" font-size="13" lengthAdjust="spacing" textLength="292" x="442" y="1312.8823">- OR ParentID = CONST_PARENTID_NORMAL</text><text fill="#000000" font-family="Verdana" font-size="13" lengthAdjust="spacing" textLength="5" x="442" y="1328.6816">&#160;</text><text fill="#000000" font-family="Verdana" font-size="13" font-weight="bold" lengthAdjust="spacing" textLength="102" x="442" y="1344.481">PA Customers</text><text fill="#000000" font-family="Verdana" font-size="13" lengthAdjust="spacing" textLength="6" x="544" y="1344.481">:</text><text fill="#000000" font-family="Verdana" font-size="13" lengthAdjust="spacing" textLength="477" x="442" y="1360.2803">- ParentID IN (CONST_PARENTID_PA, CONST_PARENTID_POTENTIALPA)</text><text fill="#000000" font-family="Verdana" font-size="13" lengthAdjust="spacing" textLength="264" x="442" y="1376.0796">- AND RelevantCategoryID IS NOT NULL</text><text fill="#000000" font-family="Verdana" font-size="13" lengthAdjust="spacing" textLength="5" x="442" y="1391.8789">&#160;</text><text fill="#000000" font-family="Verdana" font-size="13" font-weight="bold" lengthAdjust="spacing" textLength="74" x="442" y="1407.6782">Constants</text><text fill="#000000" font-family="Verdana" font-size="13" lengthAdjust="spacing" textLength="78" x="521" y="1407.6782">(examples):</text><text fill="#000000" font-family="Verdana" font-size="13" lengthAdjust="spacing" textLength="220" x="442" y="1423.4775">- CONST_PARENTID_NORMAL = 1</text><text fill="#000000" font-family="Verdana" font-size="13" lengthAdjust="spacing" textLength="183" x="442" y="1439.2769">- CONST_PARENTID_PA = 2</text><text fill="#000000" font-family="Verdana" font-size="13" lengthAdjust="spacing" textLength="257" x="442" y="1455.0762">- CONST_PARENTID_POTENTIALPA = 3</text><rect fill="#FFFFFF" height="34.584" rx="12.5" ry="12.5" style="stroke:#000000;stroke-width:1.0;" width="233" x="183" y="1329.9185"/><text fill="#000000" font-family="Verdana" font-size="12" lengthAdjust="spacing" textLength="213" x="193" y="1351.9829">Separate Normal vs PA customers</text><rect fill="#FFFFFF" height="513.3843" style="stroke:#000000;stroke-width:1.0;" width="776" x="152" y="1517.8057"/><path d="M296,1517.8057 L296,1527.8203 L286,1537.8203 L152,1537.8203 " fill="none" style="stroke:#000000;stroke-width:1.0;"/><text fill="#000000" font-family="Verdana" font-size="14" lengthAdjust="spacing" textLength="134" x="155" y="1532.8809">Return Result Sets</text><path d="M457,1554.8203 L457,1634.8169 L437,1638.8169 L457,1642.8169 L457,1722.8135 A0,0 0 0 0 457,1722.8135 L917,1722.8135 A0,0 0 0 0 917,1722.8135 L917,1564.8203 L907,1554.8203 L457,1554.8203 A0,0 0 0 0 457,1554.8203 " fill="#FFFFFF" style="stroke:#000000;stroke-width:1.0;"/><path d="M907,1554.8203 L907,1564.8203 L917,1564.8203 L907,1554.8203 " fill="#FFFFFF" style="stroke:#000000;stroke-width:1.0;"/><text fill="#000000" font-family="Verdana" font-size="13" lengthAdjust="spacing" textLength="98" x="463" y="1572.8901">SELECT CustId</text><text fill="#000000" font-family="Verdana" font-size="13" lengthAdjust="spacing" textLength="174" x="463" y="1588.6895">FROM #TempClassification</text><text fill="#000000" font-family="Verdana" font-size="13" lengthAdjust="spacing" textLength="57" x="463" y="1604.4888">WHERE (</text><text fill="#000000" font-family="Verdana" font-size="13" lengthAdjust="spacing" textLength="130" x="473" y="1620.2881">CategoryID IS NULL</text><text fill="#000000" font-family="Verdana" font-size="13" lengthAdjust="spacing" textLength="280" x="473" y="1636.0874">OR ParentID = CONST_PARENTID_NORMAL</text><text fill="#000000" font-family="Verdana" font-size="13" lengthAdjust="spacing" textLength="6" x="463" y="1651.8867">)</text><text fill="#000000" font-family="Verdana" font-size="13" lengthAdjust="spacing" textLength="119" x="463" y="1667.686">ORDER BY CustId;</text><text fill="#000000" font-family="Verdana" font-size="13" lengthAdjust="spacing" textLength="5" x="463" y="1683.4854">&#160;</text><text fill="#000000" font-family="Verdana" font-size="13" font-weight="bold" lengthAdjust="spacing" textLength="59" x="463" y="1699.2847">Purpose</text><text fill="#000000" font-family="Verdana" font-size="13" lengthAdjust="spacing" textLength="161" x="522" y="1699.2847">: Insert into Normal Pool</text><text fill="#000000" font-family="Verdana" font-size="13" font-weight="bold" lengthAdjust="spacing" textLength="71" x="463" y="1715.084">Next Step</text><text fill="#000000" font-family="Verdana" font-size="13" lengthAdjust="spacing" textLength="368" x="534" y="1715.084">: CTS_GeneralNormalClassification_Realtime_Preprocess</text><rect fill="#FFFFFF" height="34.584" rx="12.5" ry="12.5" style="stroke:#000000;stroke-width:1.0;" width="275" x="162" y="1621.5249"/><text fill="#000000" font-family="Verdana" font-size="12" lengthAdjust="spacing" textLength="255" x="172" y="1643.5894">Prepare ResultSet 1 - Normal Customers</text><path d="M443,1757.8135 L443,1845.7097 L423,1849.7097 L443,1853.7097 L443,1941.606 A0,0 0 0 0 443,1941.606 L918,1941.606 A0,0 0 0 0 918,1941.606 L918,1767.8135 L908,1757.8135 L443,1757.8135 A0,0 0 0 0 443,1757.8135 " fill="#FFFFFF" style="stroke:#000000;stroke-width:1.0;"/><path d="M908,1757.8135 L908,1767.8135 L918,1767.8135 L908,1757.8135 " fill="#FFFFFF" style="stroke:#000000;stroke-width:1.0;"/><text fill="#000000" font-family="Verdana" font-size="13" lengthAdjust="spacing" textLength="98" x="449" y="1775.8833">SELECT CustId</text><text fill="#000000" font-family="Verdana" font-size="13" lengthAdjust="spacing" textLength="174" x="449" y="1791.6826">FROM #TempClassification</text><text fill="#000000" font-family="Verdana" font-size="13" lengthAdjust="spacing" textLength="138" x="449" y="1807.4819">WHERE ParentID IN (</text><text fill="#000000" font-family="Verdana" font-size="13" lengthAdjust="spacing" textLength="149" x="459" y="1823.2813">CONST_PARENTID_PA,</text><text fill="#000000" font-family="Verdana" font-size="13" lengthAdjust="spacing" textLength="218" x="459" y="1839.0806">CONST_PARENTID_POTENTIALPA</text><text fill="#000000" font-family="Verdana" font-size="13" lengthAdjust="spacing" textLength="6" x="449" y="1854.8799">)</text><text fill="#000000" font-family="Verdana" font-size="13" lengthAdjust="spacing" textLength="252" x="449" y="1870.6792">AND RelevantCategoryID IS NOT NULL</text><text fill="#000000" font-family="Verdana" font-size="13" lengthAdjust="spacing" textLength="119" x="449" y="1886.4785">ORDER BY CustId;</text><text fill="#000000" font-family="Verdana" font-size="13" lengthAdjust="spacing" textLength="5" x="449" y="1902.2778">&#160;</text><text fill="#000000" font-family="Verdana" font-size="13" font-weight="bold" lengthAdjust="spacing" textLength="59" x="449" y="1918.0771">Purpose</text><text fill="#000000" font-family="Verdana" font-size="13" lengthAdjust="spacing" textLength="223" x="508" y="1918.0771">: Insert into PA Daily Scan Queue</text><text fill="#000000" font-family="Verdana" font-size="13" font-weight="bold" lengthAdjust="spacing" textLength="71" x="449" y="1933.8765">Next Step</text><text fill="#000000" font-family="Verdana" font-size="13" lengthAdjust="spacing" textLength="383" x="520" y="1933.8765">: CTS_DC_CustClassification_DailyScanPA_InsertToQueue</text><rect fill="#FFFFFF" height="34.584" rx="12.5" ry="12.5" style="stroke:#000000;stroke-width:1.0;" width="247" x="176" y="1832.4177"/><text fill="#000000" font-family="Verdana" font-size="12" lengthAdjust="spacing" textLength="227" x="186" y="1854.4822">Prepare ResultSet 2 - PA Customers</text><rect fill="#FFFFFF" height="34.584" rx="12.5" ry="12.5" style="stroke:#000000;stroke-width:1.0;" width="145" x="227" y="1976.606"/><text fill="#000000" font-family="Verdana" font-size="12" lengthAdjust="spacing" textLength="125" x="237" y="1998.6704">Return 2 ResultSets</text><rect fill="#FFFFFF" height="622.5928" style="stroke:#000000;stroke-width:1.0;" width="621" x="208.5" y="2066.1899"/><path d="M274.5,2066.1899 L274.5,2076.2046 L264.5,2086.2046 L208.5,2086.2046 " fill="none" style="stroke:#000000;stroke-width:1.0;"/><text fill="#000000" font-family="Verdana" font-size="14" lengthAdjust="spacing" textLength="56" x="211.5" y="2081.2651">Cleanup</text><path d="M399,2113.2046 L399,2154.8032 L801,2154.8032 L801,2123.2046 L791,2113.2046 L399,2113.2046 " fill="#FFFFFF" style="stroke:#000000;stroke-width:1.0;"/><path d="M791,2113.2046 L791,2123.2046 L801,2123.2046 L791,2113.2046 " fill="#FFFFFF" style="stroke:#000000;stroke-width:1.0;"/><text fill="#000000" font-family="Verdana" font-size="13" lengthAdjust="spacing" textLength="362" x="405" y="2131.2744">DROP TEMPORARY TABLE IF EXISTS Temp_Customers;</text><text fill="#000000" font-family="Verdana" font-size="13" lengthAdjust="spacing" textLength="381" x="405" y="2147.0737">DROP TEMPORARY TABLE IF EXISTS #TempClassification;</text><path d="M390.5,2174.8032 L390.5,2658.7827 L809.5,2658.7827 L809.5,2184.8032 L799.5,2174.8032 L390.5,2174.8032 " fill="#FFFFFF" style="stroke:#000000;stroke-width:1.0;"/><path d="M799.5,2174.8032 L799.5,2184.8032 L809.5,2184.8032 L799.5,2174.8032 " fill="#FFFFFF" style="stroke:#000000;stroke-width:1.0;"/><text fill="#000000" font-family="Verdana" font-size="13" font-weight="bold" lengthAdjust="spacing" textLength="69" x="396.5" y="2192.873">Key Logic</text><text fill="#000000" font-family="Verdana" font-size="13" lengthAdjust="spacing" textLength="6" x="465.5" y="2192.873">:</text><text fill="#000000" font-family="Verdana" font-size="13" lengthAdjust="spacing" textLength="270" x="396.5" y="2208.6724">1. Parse comma-separated customer IDs</text><text fill="#000000" font-family="Verdana" font-size="13" lengthAdjust="spacing" textLength="398" x="396.5" y="2224.4717">2. Get current classification from CTSCustomerClassification</text><text fill="#000000" font-family="Verdana" font-size="13" lengthAdjust="spacing" textLength="311" x="396.5" y="2240.271">3. Join with CustomerCategory to get ParentID</text><text fill="#000000" font-family="Verdana" font-size="13" lengthAdjust="spacing" textLength="336" x="396.5" y="2256.0703">4. Categorize into Normal vs PA based on ParentID</text><text fill="#000000" font-family="Verdana" font-size="13" lengthAdjust="spacing" textLength="212" x="396.5" y="2271.8696">5. Return 2 separate result sets</text><text fill="#000000" font-family="Verdana" font-size="13" lengthAdjust="spacing" textLength="5" x="396.5" y="2287.6689">&#160;</text><text fill="#000000" font-family="Verdana" font-size="13" font-weight="bold" lengthAdjust="spacing" textLength="120" x="396.5" y="2303.4683">Tables Accessed</text><text fill="#000000" font-family="Verdana" font-size="13" lengthAdjust="spacing" textLength="6" x="516.5" y="2303.4683">:</text><text fill="#000000" font-family="Verdana" font-size="13" lengthAdjust="spacing" textLength="238" x="396.5" y="2319.2676">- CTSCustomerClassification (READ)</text><text fill="#000000" font-family="Verdana" font-size="13" lengthAdjust="spacing" textLength="90" x="406.5" y="2335.0669">* CustId (PK)</text><text fill="#000000" font-family="Verdana" font-size="13" lengthAdjust="spacing" textLength="121" x="406.5" y="2350.8662">* CategoryID (FK)</text><text fill="#000000" font-family="Verdana" font-size="13" lengthAdjust="spacing" textLength="145" x="406.5" y="2366.6655">* RelevantCategoryID</text><text fill="#000000" font-family="Verdana" font-size="13" lengthAdjust="spacing" textLength="185" x="396.5" y="2382.4648">- CustomerCategory (READ)</text><text fill="#000000" font-family="Verdana" font-size="13" lengthAdjust="spacing" textLength="121" x="406.5" y="2398.2642">* CategoryID (PK)</text><text fill="#000000" font-family="Verdana" font-size="13" lengthAdjust="spacing" textLength="214" x="406.5" y="2414.0635">* ParentID (Category hierarchy)</text><text fill="#000000" font-family="Verdana" font-size="13" lengthAdjust="spacing" textLength="110" x="406.5" y="2429.8628">* CategoryName</text><text fill="#000000" font-family="Verdana" font-size="13" lengthAdjust="spacing" textLength="5" x="396.5" y="2445.6621">&#160;</text><text fill="#000000" font-family="Verdana" font-size="13" font-weight="bold" lengthAdjust="spacing" textLength="142" x="396.5" y="2461.4614">Category Hierarchy</text><text fill="#000000" font-family="Verdana" font-size="13" lengthAdjust="spacing" textLength="6" x="538.5" y="2461.4614">:</text><text fill="#000000" font-family="Verdana" font-size="13" lengthAdjust="spacing" textLength="24" x="396.5" y="2477.2607">```</text><text fill="#000000" font-family="Verdana" font-size="13" lengthAdjust="spacing" textLength="30" x="396.5" y="2493.0601">Root</text><text fill="#000000" font-family="Verdana" font-size="13" lengthAdjust="spacing" textLength="199" x="396.5" y="2508.8594">&#226;&#8221;&#339;&#226;&#8221;&#8364; Normal (ParentID = 1)</text><text fill="#000000" font-family="Verdana" font-size="13" lengthAdjust="spacing" textLength="185" x="396.5" y="2524.6587">&#226;&#8221;&#8218;  &#226;&#8221;&#339;&#226;&#8221;&#8364; Normal Platinum</text><text fill="#000000" font-family="Verdana" font-size="13" lengthAdjust="spacing" textLength="158" x="396.5" y="2540.458">&#226;&#8221;&#8218;  &#226;&#8221;&#339;&#226;&#8221;&#8364; Normal Gold</text><text fill="#000000" font-family="Verdana" font-size="13" lengthAdjust="spacing" textLength="89" x="396.5" y="2556.2573">&#226;&#8221;&#8218;  &#226;&#8221;&#8221;&#226;&#8221;&#8364; ...</text><text fill="#000000" font-family="Verdana" font-size="13" lengthAdjust="spacing" textLength="172" x="396.5" y="2572.0566">&#226;&#8221;&#339;&#226;&#8221;&#8364; PA (ParentID = 2)</text><text fill="#000000" font-family="Verdana" font-size="13" lengthAdjust="spacing" textLength="161" x="396.5" y="2587.856">&#226;&#8221;&#8218;  &#226;&#8221;&#339;&#226;&#8221;&#8364; PA High Risk</text><text fill="#000000" font-family="Verdana" font-size="13" lengthAdjust="spacing" textLength="89" x="396.5" y="2603.6553">&#226;&#8221;&#8218;  &#226;&#8221;&#8221;&#226;&#8221;&#8364; ...</text><text fill="#000000" font-family="Verdana" font-size="13" lengthAdjust="spacing" textLength="223" x="396.5" y="2619.4546">&#226;&#8221;&#8221;&#226;&#8221;&#8364; PotentialPA (ParentID = 3)</text><text fill="#000000" font-family="Verdana" font-size="13" lengthAdjust="spacing" textLength="62" x="411.5" y="2635.2539">&#226;&#8221;&#8221;&#226;&#8221;&#8364; ...</text><text fill="#000000" font-family="Verdana" font-size="13" lengthAdjust="spacing" textLength="24" x="396.5" y="2651.0532">```</text><rect fill="#FFFFFF" height="34.584" rx="12.5" ry="12.5" style="stroke:#000000;stroke-width:1.0;" width="162" x="218.5" y="2368.7017"/><text fill="#000000" font-family="Verdana" font-size="12" lengthAdjust="spacing" textLength="142" x="228.5" y="2390.7661">Drop temporary tables</text><ellipse cx="299.5" cy="2734.7827" fill="none" rx="11" ry="11" style="stroke:#000000;stroke-width:1.0;"/><ellipse cx="299.5" cy="2734.7827" fill="#FFFFFF" rx="6" ry="6" style="stroke:#000000;stroke-width:1.0;"/><line style="stroke:#000000;stroke-width:1.0;" x1="299.5" x2="299.5" y1="164.7813" y2="219.7813"/><polygon fill="#000000" points="295.5,209.7813,299.5,219.7813,303.5,209.7813,299.5,213.7813" style="stroke:#000000;stroke-width:1.0;"/><line style="stroke:#000000;stroke-width:1.0;" x1="299.5" x2="299.5" y1="239.7813" y2="331.1025"/><polygon fill="#000000" points="295.5,321.1025,299.5,331.1025,303.5,321.1025,299.5,325.1025" style="stroke:#000000;stroke-width:1.0;"/><line style="stroke:#000000;stroke-width:1.0;" x1="299.5" x2="299.5" y1="522.9988" y2="667.709"/><polygon fill="#000000" points="295.5,657.709,299.5,667.709,303.5,657.709,299.5,661.709" style="stroke:#000000;stroke-width:1.0;"/><line style="stroke:#000000;stroke-width:1.0;" x1="299.5" x2="299.5" y1="365.6865" y2="488.4148"/><polygon fill="#000000" points="295.5,478.4148,299.5,488.4148,303.5,478.4148,299.5,482.4148" style="stroke:#000000;stroke-width:1.0;"/><line style="stroke:#000000;stroke-width:1.0;" x1="299.5" x2="299.5" y1="702.293" y2="998.8137"/><polygon fill="#000000" points="295.5,988.8137,299.5,998.8137,303.5,988.8137,299.5,992.8137" style="stroke:#000000;stroke-width:1.0;"/><line style="stroke:#000000;stroke-width:1.0;" x1="299.5" x2="299.5" y1="1033.3977" y2="1329.9185"/><polygon fill="#000000" points="295.5,1319.9185,299.5,1329.9185,303.5,1319.9185,299.5,1323.9185" style="stroke:#000000;stroke-width:1.0;"/><line style="stroke:#000000;stroke-width:1.0;" x1="299.5" x2="299.5" y1="1656.1089" y2="1832.4177"/><polygon fill="#000000" points="295.5,1822.4177,299.5,1832.4177,303.5,1822.4177,299.5,1826.4177" style="stroke:#000000;stroke-width:1.0;"/><line style="stroke:#000000;stroke-width:1.0;" x1="299.5" x2="299.5" y1="1867.0017" y2="1976.606"/><polygon fill="#000000" points="295.5,1966.606,299.5,1976.606,303.5,1966.606,299.5,1970.606" style="stroke:#000000;stroke-width:1.0;"/><line style="stroke:#000000;stroke-width:1.0;" x1="299.5" x2="299.5" y1="1364.5024" y2="1621.5249"/><polygon fill="#000000" points="295.5,1611.5249,299.5,1621.5249,303.5,1611.5249,299.5,1615.5249" style="stroke:#000000;stroke-width:1.0;"/><line style="stroke:#000000;stroke-width:1.0;" x1="299.5" x2="299.5" y1="2011.1899" y2="2368.7017"/><polygon fill="#000000" points="295.5,2358.7017,299.5,2368.7017,303.5,2358.7017,299.5,2362.7017" style="stroke:#000000;stroke-width:1.0;"/><line style="stroke:#000000;stroke-width:1.0;" x1="299.5" x2="299.5" y1="2403.2856" y2="2723.7827"/><polygon fill="#000000" points="295.5,2713.7827,299.5,2723.7827,303.5,2713.7827,299.5,2717.7827" style="stroke:#000000;stroke-width:1.0;"/><!--SRC=[jLTVRvn647-_Jp5n7y9TprVVEMdJio8L0xP9pa00jydJPGCR6vK318iJjweKzIlqhL9V-jnlKVMBv9Dq5bZ-7KHEfLhMtR4xC_kRcT_C3W_O3TrHI48IH1CMi922m-AK-c2biKVzFALhK5ndgofR9S-O4f8i2zu67c5176rjIa8MxEZsd3A5C7eTftTm22fb90ZHo5aOlvjCF9BwS32RETRdsfhD3e1au5ZmymGWfHuZqJLYH6CgOUGDoUXiLXd5PuL6ZAOWNTuvBpRJGbKzxIkwU4QSCwvtV7G46VNYoCyAuMfhyijaaZ6IiiaamS-0muC3FKfo1XP9oOxYAQZ1CQrjwj7Wbi9tGL9ufQiPID_Bjd8XszCJb8XYHY4DhcyOFl2_siIwhLHjdiNfZh0r72nNn_D7Zx-UV_Fas_doQBcSBrVBu_bYiJYe9Ail9Txjo6564Ia6pGSFpSKxZ49faqP-WO3xr786CMGKb9PivOwIKZG3ZEwIE2MOJOnoI0VzK6nDTZLmjKlBj6Nx5RZowGQVKNKhB6CiAcaeJjDzEDNFTSEjLei8rHWBfzObDg_d5q8SH75u24uI1WmobWRHDRovArMhRTrmDDl5BzVSGrO2cbQIZhRH51SQkBBZIgwjNqgt9Cpf56G7hWn7FpSqjNWerKNURFEovIj7LUB92d1XV1ruxTshZ6ywLwSE7c6SRtL3rLv2dC8pnpIsHIH5YFXP2O-9lmrymPCVBZHRWm8Pw0uOfWl6rMO3ig5Mgm-UmiE79rso58KXa1LXO_XhBKAvXoU847cSrFiDkAh8uCdYwCjflLy6j_BvRHvvd6tZBCHAHvKqnRA5RZUesFWYfqZ1cj9UHsQO3_qqCczH9cfUBtcuL3KONMqj4xP0xY6Opggti6b8Rqd46gMQNCYgBpYjkkZRdEYHZWaMRBGp5vwPki6xbzZlci6pQnYcqNW2JmiNslHhMHEcH3j6Msqh7UUv9VIwMUZn1RibB_yCcsMJup6uwpgNJS8gmps2DEXGH-2y2IWs7E_c3YIHXUauTIgruAUcYuaMvbGz0mpUIqEupS2IQqp3h9dDJdEiI9fbOESXRVojzojZzM6Ta7JJnkkHrw8KqNTVOH5KkzHl2iMqGJY9EL1Cmt6tbcnhXgkhMyEqB-LD7m3wC7XuRGUJB_KiMVAyRzmoNVv3tbXo0uTtZNsMjnjB7us2zOTtAaCe8D7tP9SWJQQja0ovXAuknoJGlQUm6jrjKAFOyJWlRChoD49diZnau50cM66bd1Qqsi4DME8n_Qn-ggNiz_lnqY_RS-lkwmQr2IXy1XL4lanRrMmuVLKXsgjPAq-Jk9oCz2YZASC-pcBXgnN7OSDg-XwZn6WYngXp6c4PXgNis8J6Oyd7momRkBttuhpY99N_hnXtwD_4UwyEHhSQPlN2VE-Y-8_vm9YeE2RVWUEH2F2go-buNePdvaAVgrlojZJjni9GBozLOQoQn60YUZqrf2JAawfWr3HE-dFWSEvKsxJsna3z3BINkkCwlHlmv7vA0sa_wLLz1yTizfpUmOQFMMLpN2vWU93i3SYh1V0nn1DNLxULlqrnd1czyL3zU07FOXoJtWNiPl_knInVKrPp5EKVBQ1rTRNhihoc-2kD3tXoI-Vn0khi2J_mdQReS1dciSomkAj1zdXbKh-CmoSkR91mWbTBki_4U2vPp-kLXlJIMRqwE0tjt-mzuorJpG5rxKhxKq1Vqy1t9k5eBNqXf4jVNxz-ZPzs77D6_Ftdnmz__FDRyVNnrxz4cALMirrEXTp73x-FQbWXHYlAT_UHFOz3VryE_sj1V8CR08UPRmDRVHeOIbyWxy4EiX_lVLfxsSBIYLX0mjwvnrNl6x73urjN8BuYuvl1lm00]--></g></svg>