<svg xmlns="http://www.w3.org/2000/svg" xmlns:xlink="http://www.w3.org/1999/xlink" contentStyleType="text/css" height="2052px" preserveAspectRatio="none" style="width:1707px;height:2052px;background:#FFFFFF;" version="1.1" viewBox="0 0 1707 2052" width="1707px" zoomAndPan="magnify"><defs/><g><text fill="#000000" font-family="Verdana" font-size="22" font-weight="bold" lengthAdjust="spacing" textLength="559" x="572.5" y="37.1182">Realtime Classification - Main Business Flow</text><ellipse cx="845" cy="62.7373" fill="#FFFFFF" rx="10" ry="10" style="stroke:#000000;stroke-width:1.0;"/><path d="M958.5,82.7373 L958.5,115.3359 L938.5,119.3359 L958.5,123.3359 L958.5,155.9346 A0,0 0 0 0 958.5,155.9346 L1397.5,155.9346 A0,0 0 0 0 1397.5,155.9346 L1397.5,92.7373 L1387.5,82.7373 L958.5,82.7373 A0,0 0 0 0 958.5,82.7373 " fill="#FFFFFF" style="stroke:#000000;stroke-width:1.0;"/><path d="M1387.5,82.7373 L1387.5,92.7373 L1397.5,92.7373 L1387.5,82.7373 " fill="#FFFFFF" style="stroke:#000000;stroke-width:1.0;"/><text fill="#000000" font-family="Verdana" font-size="13" lengthAdjust="spacing" textLength="418" x="964.5" y="100.8071">Endpoint: /api/classificationJobs/scanningRealtimeClassification</text><text fill="#000000" font-family="Verdana" font-size="13" lengthAdjust="spacing" textLength="80" x="964.5" y="116.6064">Parameters:</text><text fill="#000000" font-family="Verdana" font-size="13" lengthAdjust="spacing" textLength="164" x="964.5" y="132.4058">- batchExternalSize (int)</text><text fill="#000000" font-family="Verdana" font-size="13" lengthAdjust="spacing" textLength="261" x="964.5" y="148.2051">- batchInternalSize (int, default: 5000)</text><rect fill="#FFFFFF" height="34.584" rx="12.5" ry="12.5" style="stroke:#000000;stroke-width:1.0;" width="187" x="751.5" y="102.0439"/><text fill="#000000" font-family="Verdana" font-size="12" lengthAdjust="spacing" textLength="167" x="761.5" y="124.1084">Job Triggered (HTTP POST)</text><rect fill="#FFFFFF" height="34.584" rx="12.5" ry="12.5" style="stroke:#000000;stroke-width:1.0;" width="518" x="586" y="175.9346"/><text fill="#000000" font-family="Verdana" font-size="12" lengthAdjust="spacing" textLength="498" x="596" y="197.999">RealtimeClassificationJobService.Execute(batchExternalSize, batchInternalSize)</text><rect fill="#FFFFFF" height="34.584" rx="12.5" ry="12.5" style="stroke:#000000;stroke-width:1.0;" width="61" x="814.5" y="230.5186"/><text fill="#000000" font-family="Verdana" font-size="12" lengthAdjust="spacing" textLength="41" x="824.5" y="252.583">Start()</text><rect fill="#FFFFFF" height="34.584" rx="12.5" ry="12.5" style="stroke:#000000;stroke-width:1.0;" width="350" x="670" y="285.1025"/><text fill="#000000" font-family="Verdana" font-size="12" lengthAdjust="spacing" textLength="330" x="680" y="307.167">Initialize customers and customerCategories models</text><rect fill="#FFFFFF" height="34.584" rx="12.5" ry="12.5" style="stroke:#000000;stroke-width:1.0;" width="202" x="744" y="339.6865"/><text fill="#000000" font-family="Verdana" font-size="12" lengthAdjust="spacing" textLength="182" x="754" y="361.751">GetNewPlaceBetCustomers()</text><path d="M1082,384.2705 L1082,503.7654 L1062,507.7654 L1082,511.7654 L1082,631.2603 A0,0 0 0 0 1082,631.2603 L1521,631.2603 A0,0 0 0 0 1521,631.2603 L1521,394.2705 L1511,384.2705 L1082,384.2705 A0,0 0 0 0 1082,384.2705 " fill="#FFFFFF" style="stroke:#000000;stroke-width:1.0;"/><path d="M1511,384.2705 L1511,394.2705 L1521,394.2705 L1511,384.2705 " fill="#FFFFFF" style="stroke:#000000;stroke-width:1.0;"/><text fill="#000000" font-family="Verdana" font-size="13" lengthAdjust="spacing" textLength="267" x="1088" y="402.3403">Database: bodb_VR2Model (SQL Server)</text><text fill="#000000" font-family="Verdana" font-size="13" lengthAdjust="spacing" textLength="147" x="1088" y="418.1396">Timeout: 300 seconds</text><text fill="#000000" font-family="Verdana" font-size="13" lengthAdjust="spacing" textLength="5" x="1088" y="433.939">&#160;</text><text fill="#000000" font-family="Verdana" font-size="13" lengthAdjust="spacing" textLength="80" x="1088" y="449.7383">Parameters:</text><text fill="#000000" font-family="Verdana" font-size="13" lengthAdjust="spacing" textLength="192" x="1088" y="465.5376">- @ScannedMaxId (OUTPUT)</text><text fill="#000000" font-family="Verdana" font-size="13" lengthAdjust="spacing" textLength="5" x="1088" y="481.3369">&#160;</text><text fill="#000000" font-family="Verdana" font-size="13" lengthAdjust="spacing" textLength="40" x="1088" y="497.1362">Logic:</text><text fill="#000000" font-family="Verdana" font-size="13" lengthAdjust="spacing" textLength="418" x="1088" y="512.9355">- Get TOP 20000 from CustomerClassification_RealtimeChanges</text><text fill="#000000" font-family="Verdana" font-size="13" lengthAdjust="spacing" textLength="120" x="1088" y="528.7349">- Order by ID ASC</text><text fill="#000000" font-family="Verdana" font-size="13" lengthAdjust="spacing" textLength="168" x="1088" y="544.5342">- Return: CustId, SportId</text><text fill="#000000" font-family="Verdana" font-size="13" lengthAdjust="spacing" textLength="230" x="1088" y="560.3335">- Output: ScannedMaxId (MAX ID)</text><text fill="#000000" font-family="Verdana" font-size="13" lengthAdjust="spacing" textLength="5" x="1088" y="576.1328">&#160;</text><text fill="#000000" font-family="Verdana" font-size="13" lengthAdjust="spacing" textLength="56" x="1088" y="591.9321">Returns:</text><text fill="#000000" font-family="Verdana" font-size="13" lengthAdjust="spacing" textLength="285" x="1088" y="607.7314">- CustomerNewPlaceBets (CustId, SportId)</text><text fill="#000000" font-family="Verdana" font-size="13" lengthAdjust="spacing" textLength="108" x="1088" y="623.5308">- ScannedMaxId</text><rect fill="#FFFFFF" height="34.584" rx="12.5" ry="12.5" style="stroke:#000000;stroke-width:1.0;" width="434" x="628" y="490.4734"/><text fill="#000000" font-family="Verdana" font-size="12" lengthAdjust="spacing" textLength="414" x="638" y="512.5378">Call CTS_GeneralNormalClassification_RealTime_GetChanges [SP]</text><path d="M536.5,641.2603 L536.5,667.0596 L786.5,667.0596 L786.5,651.2603 L776.5,641.2603 L536.5,641.2603 " fill="#FFFFFF" style="stroke:#000000;stroke-width:1.0;"/><path d="M776.5,641.2603 L776.5,651.2603 L786.5,651.2603 L776.5,641.2603 " fill="#FFFFFF" style="stroke:#000000;stroke-width:1.0;"/><text fill="#000000" font-family="Verdana" font-size="13" lengthAdjust="spacing" textLength="229" x="542.5" y="659.3301">No customers with new place bets</text><rect fill="#FFFFFF" height="34.584" rx="12.5" ry="12.5" style="stroke:#000000;stroke-width:1.0;" width="263" x="713.5" y="715.7439"/><text fill="#000000" font-family="Verdana" font-size="12" lengthAdjust="spacing" textLength="243" x="723.5" y="737.8083">Chunk customers by batchInternalSize</text><rect fill="#FFFFFF" height="34.584" rx="12.5" ry="12.5" style="stroke:#000000;stroke-width:1.0;" width="232" x="729" y="824.9119"/><text fill="#000000" font-family="Verdana" font-size="12" lengthAdjust="spacing" textLength="212" x="739" y="846.9763">GetCustomerCategory(custBatch)</text><path d="M1063,869.4958 L1063,973.1914 L1043,977.1914 L1063,981.1914 L1063,1084.887 A0,0 0 0 0 1063,1084.887 L1410,1084.887 A0,0 0 0 0 1410,1084.887 L1410,879.4958 L1400,869.4958 L1063,869.4958 A0,0 0 0 0 1063,869.4958 " fill="#FFFFFF" style="stroke:#000000;stroke-width:1.0;"/><path d="M1400,869.4958 L1400,879.4958 L1410,879.4958 L1400,869.4958 " fill="#FFFFFF" style="stroke:#000000;stroke-width:1.0;"/><text fill="#000000" font-family="Verdana" font-size="13" lengthAdjust="spacing" textLength="245" x="1069" y="887.5657">Database: CTS_DataCenter (MySQL)</text><text fill="#000000" font-family="Verdana" font-size="13" lengthAdjust="spacing" textLength="80" x="1069" y="903.365">Parameters:</text><text fill="#000000" font-family="Verdana" font-size="13" lengthAdjust="spacing" textLength="218" x="1069" y="919.1643">- ip_CustIDs (comma-separated)</text><text fill="#000000" font-family="Verdana" font-size="13" lengthAdjust="spacing" textLength="5" x="1069" y="934.9636">&#160;</text><text fill="#000000" font-family="Verdana" font-size="13" lengthAdjust="spacing" textLength="40" x="1069" y="950.7629">Logic:</text><text fill="#000000" font-family="Verdana" font-size="13" lengthAdjust="spacing" textLength="178" x="1069" y="966.5623">- Get current classification</text><text fill="#000000" font-family="Verdana" font-size="13" lengthAdjust="spacing" textLength="161" x="1069" y="982.3616">- Categorize customers:</text><text fill="#000000" font-family="Verdana" font-size="13" lengthAdjust="spacing" textLength="264" x="1079" y="998.1609">* NULL or Normal &#226;&#8224;&#8217; CustomerCategory</text><text fill="#000000" font-family="Verdana" font-size="13" lengthAdjust="spacing" textLength="301" x="1079" y="1013.9602">* PA or PotentialPA &#226;&#8224;&#8217; CustomerPADailyScan</text><text fill="#000000" font-family="Verdana" font-size="13" lengthAdjust="spacing" textLength="5" x="1069" y="1029.7595">&#160;</text><text fill="#000000" font-family="Verdana" font-size="13" lengthAdjust="spacing" textLength="56" x="1069" y="1045.5588">Returns:</text><text fill="#000000" font-family="Verdana" font-size="13" lengthAdjust="spacing" textLength="305" x="1069" y="1061.3582">- ResultSet 1: CustomerCategory (CustId list)</text><text fill="#000000" font-family="Verdana" font-size="13" lengthAdjust="spacing" textLength="326" x="1069" y="1077.1575">- ResultSet 2: CustomerPADailyScan (CustId list)</text><rect fill="#FFFFFF" height="34.584" rx="12.5" ry="12.5" style="stroke:#000000;stroke-width:1.0;" width="396" x="647" y="959.8994"/><text fill="#000000" font-family="Verdana" font-size="12" lengthAdjust="spacing" textLength="376" x="657" y="981.9639">Call CTS_DC_CustClassification_Realtime_GetCategory [SP]</text><rect fill="#FFFFFF" height="34.584" rx="12.5" ry="12.5" style="stroke:#000000;stroke-width:1.0;" width="261" x="714.5" y="1104.887"/><text fill="#000000" font-family="Verdana" font-size="12" lengthAdjust="spacing" textLength="241" x="724.5" y="1126.9514">Add to customerCategories collections</text><rect fill="#FFFFFF" height="34.584" rx="12.5" ry="12.5" style="stroke:#000000;stroke-width:1.0;" width="115" x="787.5" y="770.3279"/><text fill="#000000" font-family="Verdana" font-size="12" lengthAdjust="spacing" textLength="95" x="797.5" y="792.3923">For each chunk</text><polygon fill="#FFFFFF" points="806,1159.4709,884,1159.4709,896,1171.4709,884,1183.4709,806,1183.4709,794,1171.4709,806,1159.4709" style="stroke:#000000;stroke-width:1.0;"/><text fill="#000000" font-family="Verdana" font-size="11" lengthAdjust="spacing" textLength="78" x="806" y="1175.8457">More chunks?</text><rect fill="#FFFFFF" height="498.3584" style="stroke:#000000;stroke-width:1.0;" width="1670" x="6" y="1206.9873"/><path d="M143,1206.9873 L143,1217.002 L133,1227.002 L6,1227.002 " fill="none" style="stroke:#000000;stroke-width:1.0;"/><text fill="#000000" font-family="Verdana" font-size="14" lengthAdjust="spacing" textLength="127" x="9" y="1222.0625">Parallel Processing</text><rect fill="#000000" height="6" rx="2.5" ry="2.5" style="stroke:#000000;stroke-width:1.0;" width="1650" x="16" y="1244.002"/><rect fill="#FFFFFF" height="34.584" rx="12.5" ry="12.5" style="stroke:#000000;stroke-width:1.0;" width="360" x="60" y="1270.002"/><text fill="#000000" font-family="Verdana" font-size="12" lengthAdjust="spacing" textLength="340" x="70" y="1292.0664">PreprocessCustomerClassRealtime(batchInternalSize)</text><rect fill="#FFFFFF" height="34.584" rx="12.5" ry="12.5" style="stroke:#000000;stroke-width:1.0;" width="317" x="81.5" y="1332.4856"/><text fill="#000000" font-family="Verdana" font-size="12" lengthAdjust="spacing" textLength="297" x="91.5" y="1354.55">Chunk CustomerCategory by batchInternalSize</text><path d="M472,1447.4529 L472,1527.4495 L452,1531.4495 L472,1535.4495 L472,1615.446 A0,0 0 0 0 472,1615.446 L811,1615.446 A0,0 0 0 0 811,1615.446 L811,1457.4529 L801,1447.4529 L472,1447.4529 A0,0 0 0 0 472,1447.4529 " fill="#FFFFFF" style="stroke:#000000;stroke-width:1.0;"/><path d="M801,1447.4529 L801,1457.4529 L811,1457.4529 L801,1447.4529 " fill="#FFFFFF" style="stroke:#000000;stroke-width:1.0;"/><text fill="#000000" font-family="Verdana" font-size="13" lengthAdjust="spacing" textLength="267" x="478" y="1465.5227">Database: bodb_VR2Model (SQL Server)</text><text fill="#000000" font-family="Verdana" font-size="13" lengthAdjust="spacing" textLength="80" x="478" y="1481.322">Parameters:</text><text fill="#000000" font-family="Verdana" font-size="13" lengthAdjust="spacing" textLength="227" x="478" y="1497.1213">- @ListCustId (comma-separated)</text><text fill="#000000" font-family="Verdana" font-size="13" lengthAdjust="spacing" textLength="5" x="478" y="1512.9207">&#160;</text><text fill="#000000" font-family="Verdana" font-size="13" lengthAdjust="spacing" textLength="40" x="478" y="1528.72">Logic:</text><text fill="#000000" font-family="Verdana" font-size="13" lengthAdjust="spacing" textLength="209" x="478" y="1544.5193">- Get Priority from Priority table</text><text fill="#000000" font-family="Verdana" font-size="13" lengthAdjust="spacing" textLength="158" x="478" y="1560.3186">- Call NormalPool_Insert</text><text fill="#000000" font-family="Verdana" font-size="13" lengthAdjust="spacing" textLength="235" x="478" y="1576.1179">- Insert customers into Normal Pool</text><text fill="#000000" font-family="Verdana" font-size="13" lengthAdjust="spacing" textLength="5" x="478" y="1591.9172">&#160;</text><text fill="#000000" font-family="Verdana" font-size="13" lengthAdjust="spacing" textLength="318" x="478" y="1607.7166">Purpose: Queue for NormalAccountClassification</text><rect fill="#FFFFFF" height="34.584" rx="12.5" ry="12.5" style="stroke:#000000;stroke-width:1.0;" width="424" x="28" y="1514.1575"/><text fill="#000000" font-family="Verdana" font-size="12" lengthAdjust="spacing" textLength="404" x="38" y="1536.2219">Call CTS_GeneralNormalClassification_Realtime_Preprocess [SP]</text><rect fill="#FFFFFF" height="34.584" rx="12.5" ry="12.5" style="stroke:#000000;stroke-width:1.0;" width="115" x="182.5" y="1394.9692"/><text fill="#000000" font-family="Verdana" font-size="12" lengthAdjust="spacing" textLength="95" x="192.5" y="1417.0337">For each chunk</text><polygon fill="#FFFFFF" points="201,1643.3457,279,1643.3457,291,1655.3457,279,1667.3457,201,1667.3457,189,1655.3457,201,1643.3457" style="stroke:#000000;stroke-width:1.0;"/><text fill="#000000" font-family="Verdana" font-size="11" lengthAdjust="spacing" textLength="78" x="201" y="1659.7205">More chunks?</text><rect fill="#FFFFFF" height="34.584" rx="12.5" ry="12.5" style="stroke:#000000;stroke-width:1.0;" width="297" x="931" y="1277.9016"/><text fill="#000000" font-family="Verdana" font-size="12" lengthAdjust="spacing" textLength="277" x="941" y="1299.9661">InsertPADailyScanQueue(batchInternalSize)</text><rect fill="#FFFFFF" height="34.584" rx="12.5" ry="12.5" style="stroke:#000000;stroke-width:1.0;" width="335" x="912" y="1340.3853"/><text fill="#000000" font-family="Verdana" font-size="12" lengthAdjust="spacing" textLength="315" x="922" y="1362.4497">Chunk CustomerPADailyScan by batchInternalSize</text><path d="M1316,1455.3525 L1316,1527.4495 L1296,1531.4495 L1316,1535.4495 L1316,1607.5464 A0,0 0 0 0 1316,1607.5464 L1638,1607.5464 A0,0 0 0 0 1638,1607.5464 L1638,1465.3525 L1628,1455.3525 L1316,1455.3525 A0,0 0 0 0 1316,1455.3525 " fill="#FFFFFF" style="stroke:#000000;stroke-width:1.0;"/><path d="M1628,1455.3525 L1628,1465.3525 L1638,1465.3525 L1628,1455.3525 " fill="#FFFFFF" style="stroke:#000000;stroke-width:1.0;"/><text fill="#000000" font-family="Verdana" font-size="13" lengthAdjust="spacing" textLength="245" x="1322" y="1473.4224">Database: CTS_DataCenter (MySQL)</text><text fill="#000000" font-family="Verdana" font-size="13" lengthAdjust="spacing" textLength="80" x="1322" y="1489.2217">Parameters:</text><text fill="#000000" font-family="Verdana" font-size="13" lengthAdjust="spacing" textLength="218" x="1322" y="1505.021">- ip_CustIDs (comma-separated)</text><text fill="#000000" font-family="Verdana" font-size="13" lengthAdjust="spacing" textLength="5" x="1322" y="1520.8203">&#160;</text><text fill="#000000" font-family="Verdana" font-size="13" lengthAdjust="spacing" textLength="40" x="1322" y="1536.6196">Logic:</text><text fill="#000000" font-family="Verdana" font-size="13" lengthAdjust="spacing" textLength="193" x="1322" y="1552.4189">- INSERT INTO DailyPAQueue</text><text fill="#000000" font-family="Verdana" font-size="13" lengthAdjust="spacing" textLength="186" x="1322" y="1568.2183">- Set CreatedTime = NOW()</text><text fill="#000000" font-family="Verdana" font-size="13" lengthAdjust="spacing" textLength="5" x="1322" y="1584.0176">&#160;</text><text fill="#000000" font-family="Verdana" font-size="13" lengthAdjust="spacing" textLength="301" x="1322" y="1599.8169">Purpose: Queue for DailyProblemClassification</text><rect fill="#FFFFFF" height="34.584" rx="12.5" ry="12.5" style="stroke:#000000;stroke-width:1.0;" width="433" x="863" y="1514.1575"/><text fill="#000000" font-family="Verdana" font-size="12" lengthAdjust="spacing" textLength="413" x="873" y="1536.2219">Call CTS_DC_CustClassification_DailyScanPA_InsertToQueue [SP]</text><rect fill="#FFFFFF" height="34.584" rx="12.5" ry="12.5" style="stroke:#000000;stroke-width:1.0;" width="115" x="1022" y="1402.8689"/><text fill="#000000" font-family="Verdana" font-size="12" lengthAdjust="spacing" textLength="95" x="1032" y="1424.9333">For each chunk</text><polygon fill="#FFFFFF" points="1040.5,1635.446,1118.5,1635.446,1130.5,1647.446,1118.5,1659.446,1040.5,1659.446,1028.5,1647.446,1040.5,1635.446" style="stroke:#000000;stroke-width:1.0;"/><text fill="#000000" font-family="Verdana" font-size="11" lengthAdjust="spacing" textLength="78" x="1040.5" y="1651.8208">More chunks?</text><rect fill="#000000" height="6" rx="2.5" ry="2.5" style="stroke:#000000;stroke-width:1.0;" width="1650" x="16" y="1687.3457"/><polygon fill="#FFFFFF" points="798.5,667.0596,891.5,667.0596,903.5,679.0596,891.5,691.0596,798.5,691.0596,786.5,679.0596,798.5,667.0596" style="stroke:#000000;stroke-width:1.0;"/><text fill="#000000" font-family="Verdana" font-size="11" lengthAdjust="spacing" textLength="20" x="849" y="702.1187">yes</text><text fill="#000000" font-family="Verdana" font-size="11" lengthAdjust="spacing" textLength="93" x="798.5" y="683.4343">Has Customers?</text><text fill="#000000" font-family="Verdana" font-size="11" lengthAdjust="spacing" textLength="14" x="903.5" y="676.75">no</text><polygon fill="#FFFFFF" points="845,1725.3457,857,1737.3457,845,1749.3457,833,1737.3457,845,1725.3457" style="stroke:#000000;stroke-width:1.0;"/><rect fill="#FFFFFF" height="34.584" rx="12.5" ry="12.5" style="stroke:#000000;stroke-width:1.0;" width="205" x="742.5" y="1769.3457"/><text fill="#000000" font-family="Verdana" font-size="12" lengthAdjust="spacing" textLength="185" x="752.5" y="1791.4102">CompleteCustomerRealtime()</text><path d="M1073,1813.9297 L1073,1878.127 L1053,1882.127 L1073,1886.127 L1073,1950.3242 A0,0 0 0 0 1073,1950.3242 L1361,1950.3242 A0,0 0 0 0 1361,1950.3242 L1361,1823.9297 L1351,1813.9297 L1073,1813.9297 A0,0 0 0 0 1073,1813.9297 " fill="#FFFFFF" style="stroke:#000000;stroke-width:1.0;"/><path d="M1351,1813.9297 L1351,1823.9297 L1361,1823.9297 L1351,1813.9297 " fill="#FFFFFF" style="stroke:#000000;stroke-width:1.0;"/><text fill="#000000" font-family="Verdana" font-size="13" lengthAdjust="spacing" textLength="267" x="1079" y="1831.9995">Database: bodb_VR2Model (SQL Server)</text><text fill="#000000" font-family="Verdana" font-size="13" lengthAdjust="spacing" textLength="80" x="1079" y="1847.7988">Parameters:</text><text fill="#000000" font-family="Verdana" font-size="13" lengthAdjust="spacing" textLength="121" x="1079" y="1863.5981">- @ScannedMaxId</text><text fill="#000000" font-family="Verdana" font-size="13" lengthAdjust="spacing" textLength="5" x="1079" y="1879.3975">&#160;</text><text fill="#000000" font-family="Verdana" font-size="13" lengthAdjust="spacing" textLength="40" x="1079" y="1895.1968">Logic:</text><text fill="#000000" font-family="Verdana" font-size="13" lengthAdjust="spacing" textLength="219" x="1079" y="1910.9961">- DELETE FROM RealtimeChanges</text><text fill="#000000" font-family="Verdana" font-size="13" lengthAdjust="spacing" textLength="214" x="1079" y="1926.7954">- WHERE ID &lt;= @ScannedMaxId</text><text fill="#000000" font-family="Verdana" font-size="13" lengthAdjust="spacing" textLength="210" x="1079" y="1942.5947">- Prevents duplicate processing</text><rect fill="#FFFFFF" height="34.584" rx="12.5" ry="12.5" style="stroke:#000000;stroke-width:1.0;" width="416" x="637" y="1864.835"/><text fill="#000000" font-family="Verdana" font-size="12" lengthAdjust="spacing" textLength="396" x="647" y="1886.8994">Call CTS_GeneralNormalClassification_RealTime_Complete [SP]</text><rect fill="#FFFFFF" height="34.584" rx="12.5" ry="12.5" style="stroke:#000000;stroke-width:1.0;" width="116" x="787" y="1970.3242"/><text fill="#000000" font-family="Verdana" font-size="12" lengthAdjust="spacing" textLength="96" x="797" y="1992.3887">Return Success</text><ellipse cx="845" cy="2035.9082" fill="none" rx="11" ry="11" style="stroke:#000000;stroke-width:1.0;"/><ellipse cx="845" cy="2035.9082" fill="#FFFFFF" rx="6" ry="6" style="stroke:#000000;stroke-width:1.0;"/><line style="stroke:#000000;stroke-width:1.0;" x1="845" x2="845" y1="72.7373" y2="102.0439"/><polygon fill="#000000" points="841,92.0439,845,102.0439,849,92.0439,845,96.0439" style="stroke:#000000;stroke-width:1.0;"/><line style="stroke:#000000;stroke-width:1.0;" x1="845" x2="845" y1="136.6279" y2="175.9346"/><polygon fill="#000000" points="841,165.9346,845,175.9346,849,165.9346,845,169.9346" style="stroke:#000000;stroke-width:1.0;"/><line style="stroke:#000000;stroke-width:1.0;" x1="845" x2="845" y1="210.5186" y2="230.5186"/><polygon fill="#000000" points="841,220.5186,845,230.5186,849,220.5186,845,224.5186" style="stroke:#000000;stroke-width:1.0;"/><line style="stroke:#000000;stroke-width:1.0;" x1="845" x2="845" y1="265.1025" y2="285.1025"/><polygon fill="#000000" points="841,275.1025,845,285.1025,849,275.1025,845,279.1025" style="stroke:#000000;stroke-width:1.0;"/><line style="stroke:#000000;stroke-width:1.0;" x1="845" x2="845" y1="319.6865" y2="339.6865"/><polygon fill="#000000" points="841,329.6865,845,339.6865,849,329.6865,845,333.6865" style="stroke:#000000;stroke-width:1.0;"/><line style="stroke:#000000;stroke-width:1.0;" x1="845" x2="845" y1="374.2705" y2="490.4734"/><polygon fill="#000000" points="841,480.4734,845,490.4734,849,480.4734,845,484.4734" style="stroke:#000000;stroke-width:1.0;"/><line style="stroke:#000000;stroke-width:1.0;" x1="845" x2="845" y1="859.4958" y2="959.8994"/><polygon fill="#000000" points="841,949.8994,845,959.8994,849,949.8994,845,953.8994" style="stroke:#000000;stroke-width:1.0;"/><line style="stroke:#000000;stroke-width:1.0;" x1="845" x2="845" y1="994.4834" y2="1104.887"/><polygon fill="#000000" points="841,1094.887,845,1104.887,849,1094.887,845,1098.887" style="stroke:#000000;stroke-width:1.0;"/><line style="stroke:#000000;stroke-width:1.0;" x1="845" x2="845" y1="804.9119" y2="824.9119"/><polygon fill="#000000" points="841,814.9119,845,824.9119,849,814.9119,845,818.9119" style="stroke:#000000;stroke-width:1.0;"/><line style="stroke:#000000;stroke-width:1.0;" x1="896" x2="1422" y1="1171.4709" y2="1171.4709"/><polygon fill="#000000" points="1418,984.5454,1422,974.5454,1426,984.5454,1422,980.5454" style="stroke:#000000;stroke-width:1.0;"/><line style="stroke:#000000;stroke-width:1.0;" x1="1422" x2="1422" y1="787.6199" y2="1171.4709"/><line style="stroke:#000000;stroke-width:1.0;" x1="1422" x2="902.5" y1="787.6199" y2="787.6199"/><polygon fill="#000000" points="912.5,783.6199,902.5,787.6199,912.5,791.6199,908.5,787.6199" style="stroke:#000000;stroke-width:1.0;"/><line style="stroke:#000000;stroke-width:1.0;" x1="845" x2="845" y1="1139.4709" y2="1159.4709"/><polygon fill="#000000" points="841,1149.4709,845,1159.4709,849,1149.4709,845,1153.4709" style="stroke:#000000;stroke-width:1.0;"/><line style="stroke:#000000;stroke-width:1.0;" x1="845" x2="845" y1="750.3279" y2="770.3279"/><polygon fill="#000000" points="841,760.3279,845,770.3279,849,760.3279,845,764.3279" style="stroke:#000000;stroke-width:1.0;"/><line style="stroke:#000000;stroke-width:1.0;" x1="240" x2="240" y1="1304.5859" y2="1332.4856"/><polygon fill="#000000" points="236,1322.4856,240,1332.4856,244,1322.4856,240,1326.4856" style="stroke:#000000;stroke-width:1.0;"/><line style="stroke:#000000;stroke-width:1.0;" x1="240" x2="240" y1="1429.5532" y2="1514.1575"/><polygon fill="#000000" points="236,1504.1575,240,1514.1575,244,1504.1575,240,1508.1575" style="stroke:#000000;stroke-width:1.0;"/><line style="stroke:#000000;stroke-width:1.0;" x1="291" x2="823" y1="1655.3457" y2="1655.3457"/><polygon fill="#000000" points="819,1538.8035,823,1528.8035,827,1538.8035,823,1534.8035" style="stroke:#000000;stroke-width:1.0;"/><line style="stroke:#000000;stroke-width:1.0;" x1="823" x2="823" y1="1412.2612" y2="1655.3457"/><line style="stroke:#000000;stroke-width:1.0;" x1="823" x2="297.5" y1="1412.2612" y2="1412.2612"/><polygon fill="#000000" points="307.5,1408.2612,297.5,1412.2612,307.5,1416.2612,303.5,1412.2612" style="stroke:#000000;stroke-width:1.0;"/><line style="stroke:#000000;stroke-width:1.0;" x1="240" x2="240" y1="1548.7415" y2="1643.3457"/><polygon fill="#000000" points="236,1633.3457,240,1643.3457,244,1633.3457,240,1637.3457" style="stroke:#000000;stroke-width:1.0;"/><line style="stroke:#000000;stroke-width:1.0;" x1="240" x2="240" y1="1367.0696" y2="1394.9692"/><polygon fill="#000000" points="236,1384.9692,240,1394.9692,244,1384.9692,240,1388.9692" style="stroke:#000000;stroke-width:1.0;"/><line style="stroke:#000000;stroke-width:1.0;" x1="1079.5" x2="1079.5" y1="1312.4856" y2="1340.3853"/><polygon fill="#000000" points="1075.5,1330.3853,1079.5,1340.3853,1083.5,1330.3853,1079.5,1334.3853" style="stroke:#000000;stroke-width:1.0;"/><line style="stroke:#000000;stroke-width:1.0;" x1="1079.5" x2="1079.5" y1="1437.4529" y2="1514.1575"/><polygon fill="#000000" points="1075.5,1504.1575,1079.5,1514.1575,1083.5,1504.1575,1079.5,1508.1575" style="stroke:#000000;stroke-width:1.0;"/><line style="stroke:#000000;stroke-width:1.0;" x1="1130.5" x2="1650" y1="1647.446" y2="1647.446"/><polygon fill="#000000" points="1646,1538.8035,1650,1528.8035,1654,1538.8035,1650,1534.8035" style="stroke:#000000;stroke-width:1.0;"/><line style="stroke:#000000;stroke-width:1.0;" x1="1650" x2="1650" y1="1420.1609" y2="1647.446"/><line style="stroke:#000000;stroke-width:1.0;" x1="1650" x2="1137" y1="1420.1609" y2="1420.1609"/><polygon fill="#000000" points="1147,1416.1609,1137,1420.1609,1147,1424.1609,1143,1420.1609" style="stroke:#000000;stroke-width:1.0;"/><line style="stroke:#000000;stroke-width:1.0;" x1="1079.5" x2="1079.5" y1="1548.7415" y2="1635.446"/><polygon fill="#000000" points="1075.5,1625.446,1079.5,1635.446,1083.5,1625.446,1079.5,1629.446" style="stroke:#000000;stroke-width:1.0;"/><line style="stroke:#000000;stroke-width:1.0;" x1="1079.5" x2="1079.5" y1="1374.9692" y2="1402.8689"/><polygon fill="#000000" points="1075.5,1392.8689,1079.5,1402.8689,1083.5,1392.8689,1079.5,1396.8689" style="stroke:#000000;stroke-width:1.0;"/><line style="stroke:#000000;stroke-width:1.0;" x1="240" x2="240" y1="1250.002" y2="1270.002"/><polygon fill="#000000" points="236,1260.002,240,1270.002,244,1260.002,240,1264.002" style="stroke:#000000;stroke-width:1.0;"/><line style="stroke:#000000;stroke-width:1.0;" x1="1079.5" x2="1079.5" y1="1250.002" y2="1277.9016"/><polygon fill="#000000" points="1075.5,1267.9016,1079.5,1277.9016,1083.5,1267.9016,1079.5,1271.9016" style="stroke:#000000;stroke-width:1.0;"/><line style="stroke:#000000;stroke-width:1.0;" x1="240" x2="240" y1="1667.3457" y2="1687.3457"/><polygon fill="#000000" points="236,1677.3457,240,1687.3457,244,1677.3457,240,1681.3457" style="stroke:#000000;stroke-width:1.0;"/><line style="stroke:#000000;stroke-width:1.0;" x1="1079.5" x2="1079.5" y1="1659.446" y2="1687.3457"/><polygon fill="#000000" points="1075.5,1677.3457,1079.5,1687.3457,1083.5,1677.3457,1079.5,1681.3457" style="stroke:#000000;stroke-width:1.0;"/><line style="stroke:#000000;stroke-width:1.0;" x1="845" x2="845" y1="1183.4709" y2="1244.002"/><polygon fill="#000000" points="841,1234.002,845,1244.002,849,1234.002,845,1238.002" style="stroke:#000000;stroke-width:1.0;"/><line style="stroke:#000000;stroke-width:1.0;" x1="845" x2="845" y1="691.0596" y2="715.7439"/><polygon fill="#000000" points="841,705.7439,845,715.7439,849,705.7439,845,709.7439" style="stroke:#000000;stroke-width:1.0;"/><line style="stroke:#000000;stroke-width:1.0;" x1="903.5" x2="1686" y1="679.0596" y2="679.0596"/><polygon fill="#000000" points="1682,1186.9873,1686,1196.9873,1690,1186.9873,1686,1190.9873" style="stroke:#000000;stroke-width:1.0;"/><line style="stroke:#000000;stroke-width:1.0;" x1="1686" x2="1686" y1="679.0596" y2="1737.3457"/><line style="stroke:#000000;stroke-width:1.0;" x1="1686" x2="857" y1="1737.3457" y2="1737.3457"/><polygon fill="#000000" points="867,1733.3457,857,1737.3457,867,1741.3457,863,1737.3457" style="stroke:#000000;stroke-width:1.0;"/><line style="stroke:#000000;stroke-width:1.0;" x1="845" x2="845" y1="1693.3457" y2="1725.3457"/><polygon fill="#000000" points="841,1715.3457,845,1725.3457,849,1715.3457,845,1719.3457" style="stroke:#000000;stroke-width:1.0;"/><line style="stroke:#000000;stroke-width:1.0;" x1="845" x2="845" y1="525.0574" y2="667.0596"/><polygon fill="#000000" points="841,657.0596,845,667.0596,849,657.0596,845,661.0596" style="stroke:#000000;stroke-width:1.0;"/><line style="stroke:#000000;stroke-width:1.0;" x1="845" x2="845" y1="1749.3457" y2="1769.3457"/><polygon fill="#000000" points="841,1759.3457,845,1769.3457,849,1759.3457,845,1763.3457" style="stroke:#000000;stroke-width:1.0;"/><line style="stroke:#000000;stroke-width:1.0;" x1="845" x2="845" y1="1803.9297" y2="1864.835"/><polygon fill="#000000" points="841,1854.835,845,1864.835,849,1854.835,845,1858.835" style="stroke:#000000;stroke-width:1.0;"/><line style="stroke:#000000;stroke-width:1.0;" x1="845" x2="845" y1="1899.4189" y2="1970.3242"/><polygon fill="#000000" points="841,1960.3242,845,1970.3242,849,1960.3242,845,1964.3242" style="stroke:#000000;stroke-width:1.0;"/><line style="stroke:#000000;stroke-width:1.0;" x1="845" x2="845" y1="2004.9082" y2="2024.9082"/><polygon fill="#000000" points="841,2014.9082,845,2024.9082,849,2014.9082,845,2018.9082" style="stroke:#000000;stroke-width:1.0;"/><!--SRC=[hLVRRjj647tNLqpp91PshQRe2zsWbIavKQ4B8z9DWQ8mLkH8MeJQ5NQNiTMYG7wZRqL_fN-IB-aiRw98oOu32mB4ozpddDdHLsQD6uHjmhZe66uIX3con71ww2LCQxxa4JDS2ZY72Gd1LQgvGAtXEf5tdOusJ9cE-xDSGAZuQeKAO-Y-2KCV_5aGEfST8Gq2lLgR3j1dAEAjvCAuSC6s_28wS49cz8MEc11ShCf03kF8ZFXCiGqQLDhDxizXmKoq7jxJ8y6IWF-1q2KdJltjI3JUda6CIvOc5CltlLxFwQ28mORRwRZ7dLDy0QeFFC9lXlSOfGQxBSTdRMzKXOuRs4frwHB07GbkE4ji856gZTnG9i38UtddCOChgJXgsCWO4sqjl4OpnJi_OH5UeV5AnSAcnv84l32uVOq25KkcKcrOSXZ_hKqhfBH8o7Xh9bRauBV0_zrQQ3GAOC0CMp2DBYnalBZzPVvoOcE1Rl1s3BOEg9n2rDgKAHNokruFD4PInBfuLVmqMsRRybDWMutnXDsF23Mpcz2_2Pr3lR5SyMYlGd53EFFX9JMi1qibDr0MuaYgMGVpD2iBCnMZWiKEHWFe1rxrV8ucLSBDp8tYCmYsKj75NYyrMvlXOSoJ_gzag15pRggMQ1bYhNqQkWrFJYLUTq4Fzx3aI-8MqvKz_QC3n601tHrg9qF1EXNlQw2YF5jmjCschy8jCWFkjLI0B5f3P7Mp82pKl4CexhhMw9MrbU4j4wimD_1khVo95cHeAynKSBEV5kGEOPTPfZiFRVHKx1qXpwc9ja6L5v1lit160wfo93SRTgvnIx86uxfwxV80PdkeHQbIv1oYzWogUbjGjSxbkY60hs5wCnu3bJdd9FptxwUF_tpw-3SqQznGy_jMoQSY2JikwBQbwVS7Z2SxYvZZYJMmM69TqzWBAC5ltLOG9J0XuTeu9_HUkiT2EAfQmRS0JJ-EmSXZeowIIOAHhR2-t0FqRitfMEfEfC8SeeJw7C7KKZgpxE7qmYA1b1FmbOpeUABpumNycRbSIlM-zEsJpLpWO6gKGEqU6zrb-WMtMkKwHR56AnwWMvDDZqtmZ5FxL0ueTP9MJvpe3rEicDzZQdFHyOTure3aKRxjEUShJd0mktowLtSKUO8jXQncUQ5yAPFRaT2eJ4iiVroRYtJyovAELl7XQFrKRQKjsziKKxI8AdJxKIHJORnJuw61_SSmdOCLsCgkOmKgyj1h9CjYU0fIwmHzVh0U7_sLHxzVz2IKUV6-0AoFdWEF0VKppuFFn-be6Wpd8Vs4CyXIzVjPTYr1EoizXTQJtP7W5KndxxhEa-6MEr6IEB1vFhHPXM8y_cL7AYsQ92Uaqru7fxB6dZjkrY3mplvnY10MjCxKznIwu4jQM3svsIRKaXA8rPZzaesrDFOi- -gZs-Y3I-XWE1w6GxYUpoPmQiryzsOu7zeTyuTNHosVqsJ33mHe3N6wJMowz3-iEhmErZutFyGXI2Fx-fB-TSbjvty0]--></g></svg>