<svg xmlns="http://www.w3.org/2000/svg" xmlns:xlink="http://www.w3.org/1999/xlink" contentStyleType="text/css" height="2134px" preserveAspectRatio="none" style="width:1931px;height:2134px;background:#FFFFFF;" version="1.1" viewBox="0 0 1931 2134" width="1931px" zoomAndPan="magnify"><defs/><g><text fill="#000000" font-family="Verdana" font-size="22" font-weight="bold" lengthAdjust="spacing" textLength="496" x="716" y="37.1182">Realtime Classification - Database Flow</text><ellipse cx="974.5" cy="62.7373" fill="#FFFFFF" rx="10" ry="10" style="stroke:#000000;stroke-width:1.0;"/><rect fill="#FFFFFF" height="245.8071" style="stroke:#000000;stroke-width:1.0;" width="764" x="750" y="82.7373"/><path d="M1027,82.7373 L1027,92.752 L1017,102.752 L750,102.752 " fill="none" style="stroke:#000000;stroke-width:1.0;"/><text fill="#000000" font-family="Verdana" font-size="14" lengthAdjust="spacing" textLength="267" x="753" y="97.8125">Step 1: Get New Place Bet Customers</text><path d="M1209,112.752 L1209,153.2502 L1189,157.2502 L1209,161.2502 L1209,201.7485 A0,0 0 0 0 1209,201.7485 L1504,201.7485 A0,0 0 0 0 1504,201.7485 L1504,122.752 L1494,112.752 L1209,112.752 A0,0 0 0 0 1209,112.752 " fill="#FFFFFF" style="stroke:#000000;stroke-width:1.0;"/><path d="M1494,112.752 L1494,122.752 L1504,122.752 L1494,112.752 " fill="#FFFFFF" style="stroke:#000000;stroke-width:1.0;"/><text fill="#000000" font-family="Verdana" font-size="13" font-weight="bold" lengthAdjust="spacing" textLength="69" x="1215" y="130.8218">Database</text><text fill="#000000" font-family="Verdana" font-size="13" lengthAdjust="spacing" textLength="205" x="1284" y="130.8218">: bodb_VR2Model (SQL Server)</text><text fill="#000000" font-family="Verdana" font-size="13" font-weight="bold" lengthAdjust="spacing" textLength="59" x="1215" y="146.6211">Timeout</text><text fill="#000000" font-family="Verdana" font-size="13" lengthAdjust="spacing" textLength="94" x="1274" y="146.6211">: 300 seconds</text><text fill="#000000" font-family="Verdana" font-size="13" lengthAdjust="spacing" textLength="5" x="1215" y="162.4204">&#160;</text><text fill="#000000" font-family="Verdana" font-size="13" font-weight="bold" lengthAdjust="spacing" textLength="139" x="1215" y="178.2197">Output Parameters</text><text fill="#000000" font-family="Verdana" font-size="13" lengthAdjust="spacing" textLength="6" x="1354" y="178.2197">:</text><text fill="#000000" font-family="Verdana" font-size="13" lengthAdjust="spacing" textLength="247" x="1215" y="194.019">- @ScannedMaxId (BIGINT, OUTPUT)</text><rect fill="#FFFFFF" height="34.584" rx="12.5" ry="12.5" style="stroke:#000000;stroke-width:1.0;" width="429" x="760" y="139.9583"/><text fill="#000000" font-family="Verdana" font-size="12" lengthAdjust="spacing" textLength="409" x="770" y="162.0227">Call SP: CTS_GeneralNormalClassification_RealTime_GetChanges</text><path d="M1112,211.7485 L1112,260.1465 L1092,264.1465 L1112,268.1465 L1112,316.5444 A0,0 0 0 0 1112,316.5444 L1365,316.5444 A0,0 0 0 0 1365,316.5444 L1365,221.7485 L1355,211.7485 L1112,211.7485 A0,0 0 0 0 1112,211.7485 " fill="#FFFFFF" style="stroke:#000000;stroke-width:1.0;"/><path d="M1355,211.7485 L1355,221.7485 L1365,221.7485 L1355,211.7485 " fill="#FFFFFF" style="stroke:#000000;stroke-width:1.0;"/><text fill="#000000" font-family="Verdana" font-size="13" font-weight="bold" lengthAdjust="spacing" textLength="69" x="1118" y="229.8184">ResultSet</text><text fill="#000000" font-family="Verdana" font-size="13" lengthAdjust="spacing" textLength="6" x="1187" y="229.8184">:</text><text fill="#000000" font-family="Verdana" font-size="13" lengthAdjust="spacing" textLength="117" x="1118" y="245.6177">- CustId (BIGINT)</text><text fill="#000000" font-family="Verdana" font-size="13" lengthAdjust="spacing" textLength="101" x="1118" y="261.417">- SportId (INT)</text><text fill="#000000" font-family="Verdana" font-size="13" lengthAdjust="spacing" textLength="5" x="1118" y="277.2163">&#160;</text><text fill="#000000" font-family="Verdana" font-size="13" font-weight="bold" lengthAdjust="spacing" textLength="92" x="1118" y="293.0156">Max Records</text><text fill="#000000" font-family="Verdana" font-size="13" lengthAdjust="spacing" textLength="140" x="1210" y="293.0156">: 20000 (TOP 20000)</text><text fill="#000000" font-family="Verdana" font-size="13" font-weight="bold" lengthAdjust="spacing" textLength="63" x="1118" y="308.8149">Ordering</text><text fill="#000000" font-family="Verdana" font-size="13" lengthAdjust="spacing" textLength="57" x="1181" y="308.8149">: ID ASC</text><rect fill="#FFFFFF" height="34.584" rx="12.5" ry="12.5" style="stroke:#000000;stroke-width:1.0;" width="235" x="857" y="246.8545"/><text fill="#000000" font-family="Verdana" font-size="12" lengthAdjust="spacing" textLength="215" x="867" y="268.9189">Return ResultSet + ScannedMaxId</text><rect fill="#FFFFFF" height="663.939" style="stroke:#000000;stroke-width:1.0;" width="952" x="435.75" y="338.5444"/><path d="M660.75,338.5444 L660.75,348.5591 L650.75,358.5591 L435.75,358.5591 " fill="none" style="stroke:#000000;stroke-width:1.0;"/><text fill="#000000" font-family="Verdana" font-size="14" lengthAdjust="spacing" textLength="215" x="438.75" y="353.6196">Step 2: Categorize Customers</text><polygon fill="#FFFFFF" points="928,375.5591,1021,375.5591,1033,387.5591,1021,399.5591,928,399.5591,916,387.5591,928,375.5591" style="stroke:#000000;stroke-width:1.0;"/><text fill="#000000" font-family="Verdana" font-size="11" lengthAdjust="spacing" textLength="93" x="928" y="391.9338">Has Customers?</text><text fill="#000000" font-family="Verdana" font-size="11" lengthAdjust="spacing" textLength="20" x="896" y="385.2495">yes</text><text fill="#000000" font-family="Verdana" font-size="11" lengthAdjust="spacing" textLength="14" x="1033" y="385.2495">no</text><rect fill="#FFFFFF" height="34.584" rx="12.5" ry="12.5" style="stroke:#000000;stroke-width:1.0;" width="336" x="483.25" y="409.5591"/><text fill="#000000" font-family="Verdana" font-size="12" lengthAdjust="spacing" textLength="316" x="493.25" y="431.6235">Chunk customers into batches (batchInternalSize)</text><path d="M807.25,523.1194 L807.25,532.019 L787.25,536.019 L807.25,540.019 L807.25,548.9187 A0,0 0 0 0 807.25,548.9187 L1058.25,548.9187 A0,0 0 0 0 1058.25,548.9187 L1058.25,533.1194 L1048.25,523.1194 L807.25,523.1194 A0,0 0 0 0 807.25,523.1194 " fill="#FFFFFF" style="stroke:#000000;stroke-width:1.0;"/><path d="M1048.25,523.1194 L1048.25,533.1194 L1058.25,533.1194 L1048.25,523.1194 " fill="#FFFFFF" style="stroke:#000000;stroke-width:1.0;"/><text fill="#000000" font-family="Verdana" font-size="13" lengthAdjust="spacing" textLength="230" x="813.25" y="541.1892">Example: "123,456,789,1011,1213"</text><rect fill="#FFFFFF" height="34.584" rx="12.5" ry="12.5" style="stroke:#000000;stroke-width:1.0;" width="272" x="515.25" y="518.7271"/><text fill="#000000" font-family="Verdana" font-size="12" lengthAdjust="spacing" textLength="252" x="525.25" y="540.7915">Join CustIds to comma-separated string</text><path d="M866.75,563.311 L866.75,603.8093 L846.75,607.8093 L866.75,611.8093 L866.75,652.3076 A0,0 0 0 0 866.75,652.3076 L1183.75,652.3076 A0,0 0 0 0 1183.75,652.3076 L1183.75,573.311 L1173.75,563.311 L866.75,563.311 A0,0 0 0 0 866.75,563.311 " fill="#FFFFFF" style="stroke:#000000;stroke-width:1.0;"/><path d="M1173.75,563.311 L1173.75,573.311 L1183.75,573.311 L1173.75,563.311 " fill="#FFFFFF" style="stroke:#000000;stroke-width:1.0;"/><text fill="#000000" font-family="Verdana" font-size="13" font-weight="bold" lengthAdjust="spacing" textLength="69" x="872.75" y="581.3809">Database</text><text fill="#000000" font-family="Verdana" font-size="13" lengthAdjust="spacing" textLength="183" x="941.75" y="581.3809">: CTS_DataCenter (MySQL)</text><text fill="#000000" font-family="Verdana" font-size="13" font-weight="bold" lengthAdjust="spacing" textLength="59" x="872.75" y="597.1802">Timeout</text><text fill="#000000" font-family="Verdana" font-size="13" lengthAdjust="spacing" textLength="94" x="931.75" y="597.1802">: 300 seconds</text><text fill="#000000" font-family="Verdana" font-size="13" lengthAdjust="spacing" textLength="5" x="872.75" y="612.9795">&#160;</text><text fill="#000000" font-family="Verdana" font-size="13" font-weight="bold" lengthAdjust="spacing" textLength="85" x="872.75" y="628.7788">Parameters</text><text fill="#000000" font-family="Verdana" font-size="13" lengthAdjust="spacing" textLength="6" x="957.75" y="628.7788">:</text><text fill="#000000" font-family="Verdana" font-size="13" lengthAdjust="spacing" textLength="296" x="872.75" y="644.5781">- @ip_CustIDs (VARCHAR): "123,456,789,..."</text><rect fill="#FFFFFF" height="34.584" rx="12.5" ry="12.5" style="stroke:#000000;stroke-width:1.0;" width="391" x="455.75" y="590.5173"/><text fill="#000000" font-family="Verdana" font-size="12" lengthAdjust="spacing" textLength="371" x="465.75" y="612.5818">Call SP: CTS_DC_CustClassification_Realtime_GetCategory</text><path d="M743.75,662.3076 L743.75,758.1035 L723.75,762.1035 L743.75,766.1035 L743.75,861.8994 A0,0 0 0 0 743.75,861.8994 L1149.75,861.8994 A0,0 0 0 0 1149.75,861.8994 L1149.75,672.3076 L1139.75,662.3076 L743.75,662.3076 A0,0 0 0 0 743.75,662.3076 " fill="#FFFFFF" style="stroke:#000000;stroke-width:1.0;"/><path d="M1139.75,662.3076 L1139.75,672.3076 L1149.75,672.3076 L1139.75,662.3076 " fill="#FFFFFF" style="stroke:#000000;stroke-width:1.0;"/><text fill="#000000" font-family="Verdana" font-size="13" font-weight="bold" lengthAdjust="spacing" textLength="229" x="749.75" y="680.3774">ResultSet 1: CustomerCategory</text><text fill="#000000" font-family="Verdana" font-size="13" lengthAdjust="spacing" textLength="129" x="983.75" y="680.3774">(Normal customers)</text><text fill="#000000" font-family="Verdana" font-size="13" lengthAdjust="spacing" textLength="117" x="749.75" y="696.1768">- CustId (BIGINT)</text><text fill="#000000" font-family="Verdana" font-size="13" lengthAdjust="spacing" textLength="5" x="749.75" y="711.9761">&#160;</text><text fill="#000000" font-family="Verdana" font-size="13" font-weight="bold" lengthAdjust="spacing" textLength="252" x="749.75" y="727.7754">ResultSet 2: CustomerPADailyScan</text><text fill="#000000" font-family="Verdana" font-size="13" lengthAdjust="spacing" textLength="102" x="1006.75" y="727.7754">(PA customers)</text><text fill="#000000" font-family="Verdana" font-size="13" lengthAdjust="spacing" textLength="117" x="749.75" y="743.5747">- CustId (BIGINT)</text><text fill="#000000" font-family="Verdana" font-size="13" lengthAdjust="spacing" textLength="5" x="749.75" y="759.374">&#160;</text><text fill="#000000" font-family="Verdana" font-size="13" font-weight="bold" lengthAdjust="spacing" textLength="149" x="749.75" y="775.1733">Categorization Logic</text><text fill="#000000" font-family="Verdana" font-size="13" lengthAdjust="spacing" textLength="6" x="898.75" y="775.1733">:</text><text fill="#000000" font-family="Verdana" font-size="13" lengthAdjust="spacing" textLength="385" x="749.75" y="790.9727">- NULL or Normal (ParentID = CONST_PARENTID_NORMAL)</text><text fill="#000000" font-family="Verdana" font-size="13" lengthAdjust="spacing" textLength="146" x="759.75" y="806.772">&#226;&#8224;&#8217; CustomerCategory</text><text fill="#000000" font-family="Verdana" font-size="13" lengthAdjust="spacing" textLength="323" x="749.75" y="822.5713">- PA or PotentialPA (ParentID IN PA/PotentialPA)</text><text fill="#000000" font-family="Verdana" font-size="13" lengthAdjust="spacing" textLength="252" x="759.75" y="838.3706">AND RelevantCategoryID IS NOT NULL</text><text fill="#000000" font-family="Verdana" font-size="13" lengthAdjust="spacing" textLength="167" x="759.75" y="854.1699">&#226;&#8224;&#8217; CustomerPADailyScan</text><rect fill="#FFFFFF" height="34.584" rx="12.5" ry="12.5" style="stroke:#000000;stroke-width:1.0;" width="145" x="578.75" y="744.8115"/><text fill="#000000" font-family="Verdana" font-size="12" lengthAdjust="spacing" textLength="125" x="588.75" y="766.876">Return 2 ResultSets</text><rect fill="#FFFFFF" height="34.584" rx="12.5" ry="12.5" style="stroke:#000000;stroke-width:1.0;" width="210" x="546.25" y="881.8994"/><text fill="#000000" font-family="Verdana" font-size="12" lengthAdjust="spacing" textLength="190" x="556.25" y="903.9639">Collect to customerCategories</text><rect fill="#FFFFFF" height="34.584" rx="12.5" ry="12.5" style="stroke:#000000;stroke-width:1.0;" width="113" x="594.75" y="464.1431"/><text fill="#000000" font-family="Verdana" font-size="12" lengthAdjust="spacing" textLength="93" x="604.75" y="486.2075">For each batch</text><polygon fill="#FFFFFF" points="610.25,936.4834,692.25,936.4834,704.25,948.4834,692.25,960.4834,610.25,960.4834,598.25,948.4834,610.25,936.4834" style="stroke:#000000;stroke-width:1.0;"/><text fill="#000000" font-family="Verdana" font-size="11" lengthAdjust="spacing" textLength="82" x="610.25" y="952.8582">More batches?</text><rect fill="#FFFFFF" height="34.584" rx="12.5" ry="12.5" style="stroke:#000000;stroke-width:1.0;" width="140" x="1227.75" y="409.5591"/><text fill="#000000" font-family="Verdana" font-size="12" lengthAdjust="spacing" textLength="120" x="1237.75" y="431.6235">Skip categorization</text><polygon fill="#FFFFFF" points="974.5,966.4834,986.5,978.4834,974.5,990.4834,962.5,978.4834,974.5,966.4834" style="stroke:#000000;stroke-width:1.0;"/><rect fill="#FFFFFF" height="660.24" style="stroke:#000000;stroke-width:1.0;" width="1919" x="6" y="1012.4834"/><path d="M201,1012.4834 L201,1022.498 L191,1032.498 L6,1032.498 " fill="none" style="stroke:#000000;stroke-width:1.0;"/><text fill="#000000" font-family="Verdana" font-size="14" lengthAdjust="spacing" textLength="185" x="9" y="1027.5586">Step 3: Parallel Processing</text><line style="stroke:#000000;stroke-width:1.5;" x1="576.25" x2="1559" y1="1049.498" y2="1049.498"/><rect fill="#FFFFFF" height="34.584" rx="12.5" ry="12.5" style="stroke:#000000;stroke-width:1.0;" width="189" x="481.75" y="1069.498"/><text fill="#000000" font-family="Verdana" font-size="12" lengthAdjust="spacing" textLength="169" x="491.75" y="1091.5625">Process Normal Customers</text><polygon fill="#FFFFFF" points="507.25,1131.9817,645.25,1131.9817,657.25,1143.9817,645.25,1155.9817,507.25,1155.9817,495.25,1143.9817,507.25,1131.9817" style="stroke:#000000;stroke-width:1.0;"/><text fill="#000000" font-family="Verdana" font-size="11" lengthAdjust="spacing" textLength="138" x="507.25" y="1148.3564">Has Normal Customers?</text><text fill="#000000" font-family="Verdana" font-size="11" lengthAdjust="spacing" textLength="20" x="475.25" y="1141.6721">yes</text><text fill="#000000" font-family="Verdana" font-size="11" lengthAdjust="spacing" textLength="14" x="657.25" y="1141.6721">no</text><rect fill="#FFFFFF" height="34.584" rx="12.5" ry="12.5" style="stroke:#000000;stroke-width:1.0;" width="317" x="69" y="1165.9817"/><text fill="#000000" font-family="Verdana" font-size="12" lengthAdjust="spacing" textLength="297" x="79" y="1188.0461">Chunk CustomerCategory by batchInternalSize</text><rect fill="#FFFFFF" height="34.584" rx="12.5" ry="12.5" style="stroke:#000000;stroke-width:1.0;" width="272" x="91.5" y="1290.949"/><text fill="#000000" font-family="Verdana" font-size="12" lengthAdjust="spacing" textLength="252" x="101.5" y="1313.0134">Join CustIds to comma-separated string</text><path d="M457,1343.4326 L457,1447.1282 L437,1451.1282 L457,1455.1282 L457,1558.8237 A0,0 0 0 0 457,1558.8237 L858,1558.8237 A0,0 0 0 0 858,1558.8237 L858,1353.4326 L848,1343.4326 L457,1343.4326 A0,0 0 0 0 457,1343.4326 " fill="#FFFFFF" style="stroke:#000000;stroke-width:1.0;"/><path d="M848,1343.4326 L848,1353.4326 L858,1353.4326 L848,1343.4326 " fill="#FFFFFF" style="stroke:#000000;stroke-width:1.0;"/><text fill="#000000" font-family="Verdana" font-size="13" font-weight="bold" lengthAdjust="spacing" textLength="69" x="463" y="1361.5024">Database</text><text fill="#000000" font-family="Verdana" font-size="13" lengthAdjust="spacing" textLength="205" x="532" y="1361.5024">: bodb_VR2Model (SQL Server)</text><text fill="#000000" font-family="Verdana" font-size="13" font-weight="bold" lengthAdjust="spacing" textLength="59" x="463" y="1377.3018">Timeout</text><text fill="#000000" font-family="Verdana" font-size="13" lengthAdjust="spacing" textLength="94" x="522" y="1377.3018">: 300 seconds</text><text fill="#000000" font-family="Verdana" font-size="13" lengthAdjust="spacing" textLength="5" x="463" y="1393.1011">&#160;</text><text fill="#000000" font-family="Verdana" font-size="13" font-weight="bold" lengthAdjust="spacing" textLength="85" x="463" y="1408.9004">Parameters</text><text fill="#000000" font-family="Verdana" font-size="13" lengthAdjust="spacing" textLength="6" x="548" y="1408.9004">:</text><text fill="#000000" font-family="Verdana" font-size="13" lengthAdjust="spacing" textLength="263" x="463" y="1424.6997">- @ListCustId (VARCHAR): "123,456,..."</text><text fill="#000000" font-family="Verdana" font-size="13" lengthAdjust="spacing" textLength="5" x="463" y="1440.499">&#160;</text><text fill="#000000" font-family="Verdana" font-size="13" font-weight="bold" lengthAdjust="spacing" textLength="38" x="463" y="1456.2983">Logic</text><text fill="#000000" font-family="Verdana" font-size="13" lengthAdjust="spacing" textLength="6" x="501" y="1456.2983">:</text><text fill="#000000" font-family="Verdana" font-size="13" lengthAdjust="spacing" textLength="157" x="463" y="1472.0977">- Parse customer ID list</text><text fill="#000000" font-family="Verdana" font-size="13" lengthAdjust="spacing" textLength="327" x="463" y="1487.897">- Get Priority from CustomerClassification_Priority</text><text fill="#000000" font-family="Verdana" font-size="13" lengthAdjust="spacing" textLength="92" x="473" y="1503.6963">* GroupId = 1</text><text fill="#000000" font-family="Verdana" font-size="13" lengthAdjust="spacing" textLength="183" x="473" y="1519.4956">* FunctionId = 1 (Realtime)</text><text fill="#000000" font-family="Verdana" font-size="13" lengthAdjust="spacing" textLength="380" x="463" y="1535.2949">- Call CTS_GeneralNormalClassification_NormalPool_Insert</text><text fill="#000000" font-family="Verdana" font-size="13" lengthAdjust="spacing" textLength="263" x="463" y="1551.0942">- INSERT INTO Normal Pool with Priority</text><rect fill="#FFFFFF" height="34.584" rx="12.5" ry="12.5" style="stroke:#000000;stroke-width:1.0;" width="419" x="18" y="1433.8362"/><text fill="#000000" font-family="Verdana" font-size="12" lengthAdjust="spacing" textLength="399" x="28" y="1455.9006">Call SP: CTS_GeneralNormalClassification_Realtime_Preprocess</text><rect fill="#FFFFFF" height="34.584" rx="12.5" ry="12.5" style="stroke:#000000;stroke-width:1.0;" width="113" x="171" y="1228.4653"/><text fill="#000000" font-family="Verdana" font-size="12" lengthAdjust="spacing" textLength="93" x="181" y="1250.5298">For each batch</text><polygon fill="#FFFFFF" points="186.5,1586.7234,268.5,1586.7234,280.5,1598.7234,268.5,1610.7234,186.5,1610.7234,174.5,1598.7234,186.5,1586.7234" style="stroke:#000000;stroke-width:1.0;"/><text fill="#000000" font-family="Verdana" font-size="11" lengthAdjust="spacing" textLength="82" x="186.5" y="1603.0981">More batches?</text><rect fill="#FFFFFF" height="34.584" rx="12.5" ry="12.5" style="stroke:#000000;stroke-width:1.0;" width="46" x="902" y="1165.9817"/><text fill="#000000" font-family="Verdana" font-size="12" lengthAdjust="spacing" textLength="26" x="912" y="1188.0461">Skip</text><polygon fill="#FFFFFF" points="576.25,1616.7234,588.25,1628.7234,576.25,1640.7234,564.25,1628.7234,576.25,1616.7234" style="stroke:#000000;stroke-width:1.0;"/><rect fill="#FFFFFF" height="34.584" rx="12.5" ry="12.5" style="stroke:#000000;stroke-width:1.0;" width="161" x="1478.5" y="1077.3977"/><text fill="#000000" font-family="Verdana" font-size="12" lengthAdjust="spacing" textLength="141" x="1488.5" y="1099.4622">Process PA Customers</text><polygon fill="#FFFFFF" points="1503,1139.8813,1615,1139.8813,1627,1151.8813,1615,1163.8813,1503,1163.8813,1491,1151.8813,1503,1139.8813" style="stroke:#000000;stroke-width:1.0;"/><text fill="#000000" font-family="Verdana" font-size="11" lengthAdjust="spacing" textLength="112" x="1503" y="1156.2561">Has PA Customers?</text><text fill="#000000" font-family="Verdana" font-size="11" lengthAdjust="spacing" textLength="20" x="1471" y="1149.5718">yes</text><text fill="#000000" font-family="Verdana" font-size="11" lengthAdjust="spacing" textLength="14" x="1627" y="1149.5718">no</text><rect fill="#FFFFFF" height="34.584" rx="12.5" ry="12.5" style="stroke:#000000;stroke-width:1.0;" width="335" x="1042.5" y="1173.8813"/><text fill="#000000" font-family="Verdana" font-size="12" lengthAdjust="spacing" textLength="315" x="1052.5" y="1195.9458">Chunk CustomerPADailyScan by batchInternalSize</text><rect fill="#FFFFFF" height="34.584" rx="12.5" ry="12.5" style="stroke:#000000;stroke-width:1.0;" width="272" x="1074" y="1298.8486"/><text fill="#000000" font-family="Verdana" font-size="12" lengthAdjust="spacing" textLength="252" x="1084" y="1320.9131">Join CustIds to comma-separated string</text><path d="M1444,1351.3323 L1444,1447.1282 L1424,1451.1282 L1444,1455.1282 L1444,1550.9241 A0,0 0 0 0 1444,1550.9241 L1841,1550.9241 A0,0 0 0 0 1841,1550.9241 L1841,1361.3323 L1831,1351.3323 L1444,1351.3323 A0,0 0 0 0 1444,1351.3323 " fill="#FFFFFF" style="stroke:#000000;stroke-width:1.0;"/><path d="M1831,1351.3323 L1831,1361.3323 L1841,1361.3323 L1831,1351.3323 " fill="#FFFFFF" style="stroke:#000000;stroke-width:1.0;"/><text fill="#000000" font-family="Verdana" font-size="13" font-weight="bold" lengthAdjust="spacing" textLength="69" x="1450" y="1369.4021">Database</text><text fill="#000000" font-family="Verdana" font-size="13" lengthAdjust="spacing" textLength="183" x="1519" y="1369.4021">: CTS_DataCenter (MySQL)</text><text fill="#000000" font-family="Verdana" font-size="13" font-weight="bold" lengthAdjust="spacing" textLength="59" x="1450" y="1385.2014">Timeout</text><text fill="#000000" font-family="Verdana" font-size="13" lengthAdjust="spacing" textLength="94" x="1509" y="1385.2014">: 300 seconds</text><text fill="#000000" font-family="Verdana" font-size="13" lengthAdjust="spacing" textLength="5" x="1450" y="1401.0007">&#160;</text><text fill="#000000" font-family="Verdana" font-size="13" font-weight="bold" lengthAdjust="spacing" textLength="85" x="1450" y="1416.8">Parameters</text><text fill="#000000" font-family="Verdana" font-size="13" lengthAdjust="spacing" textLength="6" x="1535" y="1416.8">:</text><text fill="#000000" font-family="Verdana" font-size="13" lengthAdjust="spacing" textLength="267" x="1450" y="1432.5994">- @ip_CustIDs (VARCHAR): "123,456,..."</text><text fill="#000000" font-family="Verdana" font-size="13" lengthAdjust="spacing" textLength="5" x="1450" y="1448.3987">&#160;</text><text fill="#000000" font-family="Verdana" font-size="13" font-weight="bold" lengthAdjust="spacing" textLength="38" x="1450" y="1464.198">Logic</text><text fill="#000000" font-family="Verdana" font-size="13" lengthAdjust="spacing" textLength="6" x="1488" y="1464.198">:</text><text fill="#000000" font-family="Verdana" font-size="13" lengthAdjust="spacing" textLength="157" x="1450" y="1479.9973">- Parse customer ID list</text><text fill="#000000" font-family="Verdana" font-size="13" lengthAdjust="spacing" textLength="376" x="1450" y="1495.7966">- INSERT INTO CTSCustomerClassification_DailyPAQueue</text><text fill="#000000" font-family="Verdana" font-size="13" lengthAdjust="spacing" textLength="57" x="1460" y="1511.5959">* CustId</text><text fill="#000000" font-family="Verdana" font-size="13" lengthAdjust="spacing" textLength="160" x="1460" y="1527.3953">* CreatedTime = NOW()</text><text fill="#000000" font-family="Verdana" font-size="13" lengthAdjust="spacing" textLength="275" x="1450" y="1543.1946">- Queue for DailyProblemClassification job</text><rect fill="#FFFFFF" height="34.584" rx="12.5" ry="12.5" style="stroke:#000000;stroke-width:1.0;" width="428" x="996" y="1433.8362"/><text fill="#000000" font-family="Verdana" font-size="12" lengthAdjust="spacing" textLength="408" x="1006" y="1455.9006">Call SP: CTS_DC_CustClassification_DailyScanPA_InsertToQueue</text><rect fill="#FFFFFF" height="34.584" rx="12.5" ry="12.5" style="stroke:#000000;stroke-width:1.0;" width="113" x="1153.5" y="1236.365"/><text fill="#000000" font-family="Verdana" font-size="12" lengthAdjust="spacing" textLength="93" x="1163.5" y="1258.4294">For each batch</text><polygon fill="#FFFFFF" points="1169,1578.8237,1251,1578.8237,1263,1590.8237,1251,1602.8237,1169,1602.8237,1157,1590.8237,1169,1578.8237" style="stroke:#000000;stroke-width:1.0;"/><text fill="#000000" font-family="Verdana" font-size="11" lengthAdjust="spacing" textLength="82" x="1169" y="1595.1985">More batches?</text><rect fill="#FFFFFF" height="34.584" rx="12.5" ry="12.5" style="stroke:#000000;stroke-width:1.0;" width="46" x="1867" y="1173.8813"/><text fill="#000000" font-family="Verdana" font-size="12" lengthAdjust="spacing" textLength="26" x="1877" y="1195.9458">Skip</text><polygon fill="#FFFFFF" points="1559,1608.8237,1571,1620.8237,1559,1632.8237,1547,1620.8237,1559,1608.8237" style="stroke:#000000;stroke-width:1.0;"/><line style="stroke:#000000;stroke-width:1.5;" x1="576.25" x2="1559" y1="1660.7234" y2="1660.7234"/><rect fill="#FFFFFF" height="273.2051" style="stroke:#000000;stroke-width:1.0;" width="847" x="759" y="1682.7234"/><path d="M973,1682.7234 L973,1692.738 L963,1702.738 L759,1702.738 " fill="none" style="stroke:#000000;stroke-width:1.0;"/><text fill="#000000" font-family="Verdana" font-size="14" lengthAdjust="spacing" textLength="204" x="762" y="1697.7986">Step 4: Complete Processing</text><path d="M1200,1712.738 L1200,1824.3333 L1180,1828.3333 L1200,1832.3333 L1200,1943.9285 A0,0 0 0 0 1200,1943.9285 L1596,1943.9285 A0,0 0 0 0 1596,1943.9285 L1596,1722.738 L1586,1712.738 L1200,1712.738 A0,0 0 0 0 1200,1712.738 " fill="#FFFFFF" style="stroke:#000000;stroke-width:1.0;"/><path d="M1586,1712.738 L1586,1722.738 L1596,1722.738 L1586,1712.738 " fill="#FFFFFF" style="stroke:#000000;stroke-width:1.0;"/><text fill="#000000" font-family="Verdana" font-size="13" font-weight="bold" lengthAdjust="spacing" textLength="69" x="1206" y="1730.8079">Database</text><text fill="#000000" font-family="Verdana" font-size="13" lengthAdjust="spacing" textLength="205" x="1275" y="1730.8079">: bodb_VR2Model (SQL Server)</text><text fill="#000000" font-family="Verdana" font-size="13" font-weight="bold" lengthAdjust="spacing" textLength="59" x="1206" y="1746.6072">Timeout</text><text fill="#000000" font-family="Verdana" font-size="13" lengthAdjust="spacing" textLength="94" x="1265" y="1746.6072">: 300 seconds</text><text fill="#000000" font-family="Verdana" font-size="13" lengthAdjust="spacing" textLength="5" x="1206" y="1762.4065">&#160;</text><text fill="#000000" font-family="Verdana" font-size="13" font-weight="bold" lengthAdjust="spacing" textLength="85" x="1206" y="1778.2058">Parameters</text><text fill="#000000" font-family="Verdana" font-size="13" lengthAdjust="spacing" textLength="6" x="1291" y="1778.2058">:</text><text fill="#000000" font-family="Verdana" font-size="13" lengthAdjust="spacing" textLength="183" x="1206" y="1794.0051">- @ScannedMaxId (BIGINT)</text><text fill="#000000" font-family="Verdana" font-size="13" lengthAdjust="spacing" textLength="5" x="1206" y="1809.8044">&#160;</text><text fill="#000000" font-family="Verdana" font-size="13" font-weight="bold" lengthAdjust="spacing" textLength="38" x="1206" y="1825.6038">Logic</text><text fill="#000000" font-family="Verdana" font-size="13" lengthAdjust="spacing" textLength="6" x="1244" y="1825.6038">:</text><text fill="#000000" font-family="Verdana" font-size="13" lengthAdjust="spacing" textLength="375" x="1206" y="1841.4031">- DELETE FROM CustomerClassification_RealtimeChanges</text><text fill="#000000" font-family="Verdana" font-size="13" lengthAdjust="spacing" textLength="214" x="1206" y="1857.2024">- WHERE ID &lt;= @ScannedMaxId</text><text fill="#000000" font-family="Verdana" font-size="13" lengthAdjust="spacing" textLength="5" x="1206" y="1873.0017">&#160;</text><text fill="#000000" font-family="Verdana" font-size="13" font-weight="bold" lengthAdjust="spacing" textLength="59" x="1206" y="1888.801">Purpose</text><text fill="#000000" font-family="Verdana" font-size="13" lengthAdjust="spacing" textLength="6" x="1265" y="1888.801">:</text><text fill="#000000" font-family="Verdana" font-size="13" lengthAdjust="spacing" textLength="189" x="1206" y="1904.6003">- Remove processed records</text><text fill="#000000" font-family="Verdana" font-size="13" lengthAdjust="spacing" textLength="203" x="1206" y="1920.3997">- Prevent duplicate processing</text><text fill="#000000" font-family="Verdana" font-size="13" lengthAdjust="spacing" textLength="223" x="1206" y="1936.199">- Clean up RealtimeChanges table</text><rect fill="#FFFFFF" height="34.584" rx="12.5" ry="12.5" style="stroke:#000000;stroke-width:1.0;" width="411" x="769" y="1811.0413"/><text fill="#000000" font-family="Verdana" font-size="12" lengthAdjust="spacing" textLength="391" x="779" y="1833.1057">Call SP: CTS_GeneralNormalClassification_RealTime_Complete</text><path d="M1034.5,1965.9285 L1034.5,2022.2261 L1014.5,2026.2261 L1034.5,2030.2261 L1034.5,2086.5237 A0,0 0 0 0 1034.5,2086.5237 L1465.5,2086.5237 A0,0 0 0 0 1465.5,2086.5237 L1465.5,1975.9285 L1455.5,1965.9285 L1034.5,1965.9285 A0,0 0 0 0 1034.5,1965.9285 " fill="#FFFFFF" style="stroke:#000000;stroke-width:1.0;"/><path d="M1455.5,1965.9285 L1455.5,1975.9285 L1465.5,1975.9285 L1455.5,1965.9285 " fill="#FFFFFF" style="stroke:#000000;stroke-width:1.0;"/><text fill="#000000" font-family="Verdana" font-size="13" font-weight="bold" lengthAdjust="spacing" textLength="76" x="1040.5" y="1983.9983">Key Points</text><text fill="#000000" font-family="Verdana" font-size="13" lengthAdjust="spacing" textLength="6" x="1116.5" y="1983.9983">:</text><text fill="#000000" font-family="Verdana" font-size="13" lengthAdjust="spacing" textLength="13" x="1040.5" y="1999.7976">1.</text><text fill="#000000" font-family="Verdana" font-size="13" font-weight="bold" lengthAdjust="spacing" textLength="90" x="1058.5" y="1999.7976">2 Databases</text><text fill="#000000" font-family="Verdana" font-size="13" lengthAdjust="spacing" textLength="283" x="1148.5" y="1999.7976">: VR2 (SQL Server) + DataCenter (MySQL)</text><text fill="#000000" font-family="Verdana" font-size="13" lengthAdjust="spacing" textLength="13" x="1040.5" y="2015.5969">2.</text><text fill="#000000" font-family="Verdana" font-size="13" font-weight="bold" lengthAdjust="spacing" textLength="125" x="1058.5" y="2015.5969">Batch Processing</text><text fill="#000000" font-family="Verdana" font-size="13" lengthAdjust="spacing" textLength="186" x="1183.5" y="2015.5969">: Prevents memory overflow</text><text fill="#000000" font-family="Verdana" font-size="13" lengthAdjust="spacing" textLength="13" x="1040.5" y="2031.3962">3.</text><text fill="#000000" font-family="Verdana" font-size="13" font-weight="bold" lengthAdjust="spacing" textLength="130" x="1058.5" y="2031.3962">Parallel Execution</text><text fill="#000000" font-family="Verdana" font-size="13" lengthAdjust="spacing" textLength="262" x="1188.5" y="2031.3962">: Normal and PA paths run concurrently</text><text fill="#000000" font-family="Verdana" font-size="13" lengthAdjust="spacing" textLength="13" x="1040.5" y="2047.1956">4.</text><text fill="#000000" font-family="Verdana" font-size="13" font-weight="bold" lengthAdjust="spacing" textLength="117" x="1058.5" y="2047.1956">TOP 20000 Limit</text><text fill="#000000" font-family="Verdana" font-size="13" lengthAdjust="spacing" textLength="164" x="1175.5" y="2047.1956">: Incremental processing</text><text fill="#000000" font-family="Verdana" font-size="13" lengthAdjust="spacing" textLength="13" x="1040.5" y="2062.9949">5.</text><text fill="#000000" font-family="Verdana" font-size="13" font-weight="bold" lengthAdjust="spacing" textLength="91" x="1058.5" y="2062.9949">Dual Routing</text><text fill="#000000" font-family="Verdana" font-size="13" lengthAdjust="spacing" textLength="280" x="1149.5" y="2062.9949">: Normal &#226;&#8224;&#8217; Normal Pool, PA &#226;&#8224;&#8217; PA Queue</text><text fill="#000000" font-family="Verdana" font-size="13" lengthAdjust="spacing" textLength="13" x="1040.5" y="2078.7942">6.</text><text fill="#000000" font-family="Verdana" font-size="13" font-weight="bold" lengthAdjust="spacing" textLength="107" x="1058.5" y="2078.7942">ScannedMaxId</text><text fill="#000000" font-family="Verdana" font-size="13" lengthAdjust="spacing" textLength="210" x="1165.5" y="2078.7942">: Tracks completion for cleanup</text><rect fill="#FFFFFF" height="34.584" rx="12.5" ry="12.5" style="stroke:#000000;stroke-width:1.0;" width="80" x="934.5" y="2008.9341"/><text fill="#000000" font-family="Verdana" font-size="12" lengthAdjust="spacing" textLength="60" x="944.5" y="2030.9985">Complete</text><ellipse cx="974.5" cy="2117.5237" fill="none" rx="11" ry="11" style="stroke:#000000;stroke-width:1.0;"/><ellipse cx="974.5" cy="2117.5237" fill="#FFFFFF" rx="6" ry="6" style="stroke:#000000;stroke-width:1.0;"/><line style="stroke:#000000;stroke-width:1.0;" x1="974.5" x2="974.5" y1="174.5422" y2="246.8545"/><polygon fill="#000000" points="970.5,236.8545,974.5,246.8545,978.5,236.8545,974.5,240.8545" style="stroke:#000000;stroke-width:1.0;"/><line style="stroke:#000000;stroke-width:1.0;" x1="974.5" x2="974.5" y1="72.7373" y2="139.9583"/><polygon fill="#000000" points="970.5,129.9583,974.5,139.9583,978.5,129.9583,974.5,133.9583" style="stroke:#000000;stroke-width:1.0;"/><line style="stroke:#000000;stroke-width:1.0;" x1="651.25" x2="651.25" y1="553.311" y2="590.5173"/><polygon fill="#000000" points="647.25,580.5173,651.25,590.5173,655.25,580.5173,651.25,584.5173" style="stroke:#000000;stroke-width:1.0;"/><line style="stroke:#000000;stroke-width:1.0;" x1="651.25" x2="651.25" y1="625.1013" y2="744.8115"/><polygon fill="#000000" points="647.25,734.8115,651.25,744.8115,655.25,734.8115,651.25,738.8115" style="stroke:#000000;stroke-width:1.0;"/><line style="stroke:#000000;stroke-width:1.0;" x1="651.25" x2="651.25" y1="779.3955" y2="881.8994"/><polygon fill="#000000" points="647.25,871.8994,651.25,881.8994,655.25,871.8994,651.25,875.8994" style="stroke:#000000;stroke-width:1.0;"/><line style="stroke:#000000;stroke-width:1.0;" x1="651.25" x2="651.25" y1="498.7271" y2="518.7271"/><polygon fill="#000000" points="647.25,508.7271,651.25,518.7271,655.25,508.7271,651.25,512.7271" style="stroke:#000000;stroke-width:1.0;"/><line style="stroke:#000000;stroke-width:1.0;" x1="704.25" x2="1195.75" y1="948.4834" y2="948.4834"/><polygon fill="#000000" points="1191.75,707.4592,1195.75,697.4592,1199.75,707.4592,1195.75,703.4592" style="stroke:#000000;stroke-width:1.0;"/><line style="stroke:#000000;stroke-width:1.0;" x1="1195.75" x2="1195.75" y1="481.4351" y2="948.4834"/><line style="stroke:#000000;stroke-width:1.0;" x1="1195.75" x2="707.75" y1="481.4351" y2="481.4351"/><polygon fill="#000000" points="717.75,477.4351,707.75,481.4351,717.75,485.4351,713.75,481.4351" style="stroke:#000000;stroke-width:1.0;"/><line style="stroke:#000000;stroke-width:1.0;" x1="651.25" x2="651.25" y1="916.4834" y2="936.4834"/><polygon fill="#000000" points="647.25,926.4834,651.25,936.4834,655.25,926.4834,651.25,930.4834" style="stroke:#000000;stroke-width:1.0;"/><line style="stroke:#000000;stroke-width:1.0;" x1="651.25" x2="651.25" y1="444.1431" y2="464.1431"/><polygon fill="#000000" points="647.25,454.1431,651.25,464.1431,655.25,454.1431,651.25,458.1431" style="stroke:#000000;stroke-width:1.0;"/><line style="stroke:#000000;stroke-width:1.0;" x1="916" x2="651.25" y1="387.5591" y2="387.5591"/><line style="stroke:#000000;stroke-width:1.0;" x1="651.25" x2="651.25" y1="387.5591" y2="409.5591"/><polygon fill="#000000" points="647.25,399.5591,651.25,409.5591,655.25,399.5591,651.25,403.5591" style="stroke:#000000;stroke-width:1.0;"/><line style="stroke:#000000;stroke-width:1.0;" x1="1033" x2="1297.75" y1="387.5591" y2="387.5591"/><line style="stroke:#000000;stroke-width:1.0;" x1="1297.75" x2="1297.75" y1="387.5591" y2="409.5591"/><polygon fill="#000000" points="1293.75,399.5591,1297.75,409.5591,1301.75,399.5591,1297.75,403.5591" style="stroke:#000000;stroke-width:1.0;"/><line style="stroke:#000000;stroke-width:1.0;" x1="651.25" x2="651.25" y1="960.4834" y2="978.4834"/><line style="stroke:#000000;stroke-width:1.0;" x1="651.25" x2="962.5" y1="978.4834" y2="978.4834"/><polygon fill="#000000" points="952.5,974.4834,962.5,978.4834,952.5,982.4834,956.5,978.4834" style="stroke:#000000;stroke-width:1.0;"/><line style="stroke:#000000;stroke-width:1.0;" x1="1297.75" x2="1297.75" y1="444.1431" y2="978.4834"/><line style="stroke:#000000;stroke-width:1.0;" x1="1297.75" x2="986.5" y1="978.4834" y2="978.4834"/><polygon fill="#000000" points="996.5,974.4834,986.5,978.4834,996.5,982.4834,992.5,978.4834" style="stroke:#000000;stroke-width:1.0;"/><line style="stroke:#000000;stroke-width:1.0;" x1="974.5" x2="974.5" y1="281.4385" y2="375.5591"/><polygon fill="#000000" points="970.5,365.5591,974.5,375.5591,978.5,365.5591,974.5,369.5591" style="stroke:#000000;stroke-width:1.0;"/><line style="stroke:#000000;stroke-width:1.0;" x1="227.5" x2="227.5" y1="1325.533" y2="1433.8362"/><polygon fill="#000000" points="223.5,1423.8362,227.5,1433.8362,231.5,1423.8362,227.5,1427.8362" style="stroke:#000000;stroke-width:1.0;"/><line style="stroke:#000000;stroke-width:1.0;" x1="227.5" x2="227.5" y1="1263.0493" y2="1290.949"/><polygon fill="#000000" points="223.5,1280.949,227.5,1290.949,231.5,1280.949,227.5,1284.949" style="stroke:#000000;stroke-width:1.0;"/><line style="stroke:#000000;stroke-width:1.0;" x1="280.5" x2="870" y1="1598.7234" y2="1598.7234"/><polygon fill="#000000" points="866,1423.6902,870,1413.6902,874,1423.6902,870,1419.6902" style="stroke:#000000;stroke-width:1.0;"/><line style="stroke:#000000;stroke-width:1.0;" x1="870" x2="870" y1="1245.7573" y2="1598.7234"/><line style="stroke:#000000;stroke-width:1.0;" x1="870" x2="284" y1="1245.7573" y2="1245.7573"/><polygon fill="#000000" points="294,1241.7573,284,1245.7573,294,1249.7573,290,1245.7573" style="stroke:#000000;stroke-width:1.0;"/><line style="stroke:#000000;stroke-width:1.0;" x1="227.5" x2="227.5" y1="1468.4202" y2="1586.7234"/><polygon fill="#000000" points="223.5,1576.7234,227.5,1586.7234,231.5,1576.7234,227.5,1580.7234" style="stroke:#000000;stroke-width:1.0;"/><line style="stroke:#000000;stroke-width:1.0;" x1="227.5" x2="227.5" y1="1200.5657" y2="1228.4653"/><polygon fill="#000000" points="223.5,1218.4653,227.5,1228.4653,231.5,1218.4653,227.5,1222.4653" style="stroke:#000000;stroke-width:1.0;"/><line style="stroke:#000000;stroke-width:1.0;" x1="495.25" x2="227.5" y1="1143.9817" y2="1143.9817"/><line style="stroke:#000000;stroke-width:1.0;" x1="227.5" x2="227.5" y1="1143.9817" y2="1165.9817"/><polygon fill="#000000" points="223.5,1155.9817,227.5,1165.9817,231.5,1155.9817,227.5,1159.9817" style="stroke:#000000;stroke-width:1.0;"/><line style="stroke:#000000;stroke-width:1.0;" x1="657.25" x2="925" y1="1143.9817" y2="1143.9817"/><line style="stroke:#000000;stroke-width:1.0;" x1="925" x2="925" y1="1143.9817" y2="1165.9817"/><polygon fill="#000000" points="921,1155.9817,925,1165.9817,929,1155.9817,925,1159.9817" style="stroke:#000000;stroke-width:1.0;"/><line style="stroke:#000000;stroke-width:1.0;" x1="227.5" x2="227.5" y1="1610.7234" y2="1628.7234"/><line style="stroke:#000000;stroke-width:1.0;" x1="227.5" x2="564.25" y1="1628.7234" y2="1628.7234"/><polygon fill="#000000" points="554.25,1624.7234,564.25,1628.7234,554.25,1632.7234,558.25,1628.7234" style="stroke:#000000;stroke-width:1.0;"/><line style="stroke:#000000;stroke-width:1.0;" x1="925" x2="925" y1="1200.5657" y2="1628.7234"/><line style="stroke:#000000;stroke-width:1.0;" x1="925" x2="588.25" y1="1628.7234" y2="1628.7234"/><polygon fill="#000000" points="598.25,1624.7234,588.25,1628.7234,598.25,1632.7234,594.25,1628.7234" style="stroke:#000000;stroke-width:1.0;"/><line style="stroke:#000000;stroke-width:1.0;" x1="576.25" x2="576.25" y1="1104.082" y2="1131.9817"/><polygon fill="#000000" points="572.25,1121.9817,576.25,1131.9817,580.25,1121.9817,576.25,1125.9817" style="stroke:#000000;stroke-width:1.0;"/><line style="stroke:#000000;stroke-width:1.0;" x1="1210" x2="1210" y1="1333.4326" y2="1433.8362"/><polygon fill="#000000" points="1206,1423.8362,1210,1433.8362,1214,1423.8362,1210,1427.8362" style="stroke:#000000;stroke-width:1.0;"/><line style="stroke:#000000;stroke-width:1.0;" x1="1210" x2="1210" y1="1270.949" y2="1298.8486"/><polygon fill="#000000" points="1206,1288.8486,1210,1298.8486,1214,1288.8486,1210,1292.8486" style="stroke:#000000;stroke-width:1.0;"/><line style="stroke:#000000;stroke-width:1.0;" x1="1263" x2="1853" y1="1590.8237" y2="1590.8237"/><polygon fill="#000000" points="1849,1423.6902,1853,1413.6902,1857,1423.6902,1853,1419.6902" style="stroke:#000000;stroke-width:1.0;"/><line style="stroke:#000000;stroke-width:1.0;" x1="1853" x2="1853" y1="1253.657" y2="1590.8237"/><line style="stroke:#000000;stroke-width:1.0;" x1="1853" x2="1266.5" y1="1253.657" y2="1253.657"/><polygon fill="#000000" points="1276.5,1249.657,1266.5,1253.657,1276.5,1257.657,1272.5,1253.657" style="stroke:#000000;stroke-width:1.0;"/><line style="stroke:#000000;stroke-width:1.0;" x1="1210" x2="1210" y1="1468.4202" y2="1578.8237"/><polygon fill="#000000" points="1206,1568.8237,1210,1578.8237,1214,1568.8237,1210,1572.8237" style="stroke:#000000;stroke-width:1.0;"/><line style="stroke:#000000;stroke-width:1.0;" x1="1210" x2="1210" y1="1208.4653" y2="1236.365"/><polygon fill="#000000" points="1206,1226.365,1210,1236.365,1214,1226.365,1210,1230.365" style="stroke:#000000;stroke-width:1.0;"/><line style="stroke:#000000;stroke-width:1.0;" x1="1491" x2="1210" y1="1151.8813" y2="1151.8813"/><line style="stroke:#000000;stroke-width:1.0;" x1="1210" x2="1210" y1="1151.8813" y2="1173.8813"/><polygon fill="#000000" points="1206,1163.8813,1210,1173.8813,1214,1163.8813,1210,1167.8813" style="stroke:#000000;stroke-width:1.0;"/><line style="stroke:#000000;stroke-width:1.0;" x1="1627" x2="1890" y1="1151.8813" y2="1151.8813"/><line style="stroke:#000000;stroke-width:1.0;" x1="1890" x2="1890" y1="1151.8813" y2="1173.8813"/><polygon fill="#000000" points="1886,1163.8813,1890,1173.8813,1894,1163.8813,1890,1167.8813" style="stroke:#000000;stroke-width:1.0;"/><line style="stroke:#000000;stroke-width:1.0;" x1="1210" x2="1210" y1="1602.8237" y2="1620.8237"/><line style="stroke:#000000;stroke-width:1.0;" x1="1210" x2="1547" y1="1620.8237" y2="1620.8237"/><polygon fill="#000000" points="1537,1616.8237,1547,1620.8237,1537,1624.8237,1541,1620.8237" style="stroke:#000000;stroke-width:1.0;"/><line style="stroke:#000000;stroke-width:1.0;" x1="1890" x2="1890" y1="1208.4653" y2="1620.8237"/><line style="stroke:#000000;stroke-width:1.0;" x1="1890" x2="1571" y1="1620.8237" y2="1620.8237"/><polygon fill="#000000" points="1581,1616.8237,1571,1620.8237,1581,1624.8237,1577,1620.8237" style="stroke:#000000;stroke-width:1.0;"/><line style="stroke:#000000;stroke-width:1.0;" x1="1559" x2="1559" y1="1111.9817" y2="1139.8813"/><polygon fill="#000000" points="1555,1129.8813,1559,1139.8813,1563,1129.8813,1559,1133.8813" style="stroke:#000000;stroke-width:1.0;"/><line style="stroke:#000000;stroke-width:1.0;" x1="576.25" x2="576.25" y1="1050.998" y2="1069.498"/><polygon fill="#000000" points="572.25,1059.498,576.25,1069.498,580.25,1059.498,576.25,1063.498" style="stroke:#000000;stroke-width:1.0;"/><line style="stroke:#000000;stroke-width:1.0;" x1="1559" x2="1559" y1="1050.998" y2="1077.3977"/><polygon fill="#000000" points="1555,1067.3977,1559,1077.3977,1563,1067.3977,1559,1071.3977" style="stroke:#000000;stroke-width:1.0;"/><line style="stroke:#000000;stroke-width:1.0;" x1="576.25" x2="576.25" y1="1640.7234" y2="1660.7234"/><polygon fill="#000000" points="572.25,1650.7234,576.25,1660.7234,580.25,1650.7234,576.25,1654.7234" style="stroke:#000000;stroke-width:1.0;"/><line style="stroke:#000000;stroke-width:1.0;" x1="1559" x2="1559" y1="1632.8237" y2="1660.7234"/><polygon fill="#000000" points="1555,1650.7234,1559,1660.7234,1563,1650.7234,1559,1654.7234" style="stroke:#000000;stroke-width:1.0;"/><line style="stroke:#000000;stroke-width:1.0;" x1="974.5" x2="974.5" y1="990.4834" y2="1049.498"/><polygon fill="#000000" points="970.5,1039.498,974.5,1049.498,978.5,1039.498,974.5,1043.498" style="stroke:#000000;stroke-width:1.0;"/><line style="stroke:#000000;stroke-width:1.0;" x1="974.5" x2="974.5" y1="1662.2234" y2="1811.0413"/><polygon fill="#000000" points="970.5,1801.0413,974.5,1811.0413,978.5,1801.0413,974.5,1805.0413" style="stroke:#000000;stroke-width:1.0;"/><line style="stroke:#000000;stroke-width:1.0;" x1="974.5" x2="974.5" y1="1845.6252" y2="2008.9341"/><polygon fill="#000000" points="970.5,1998.9341,974.5,2008.9341,978.5,1998.9341,974.5,2002.9341" style="stroke:#000000;stroke-width:1.0;"/><line style="stroke:#000000;stroke-width:1.0;" x1="974.5" x2="974.5" y1="2043.5181" y2="2106.5237"/><polygon fill="#000000" points="970.5,2096.5237,974.5,2106.5237,978.5,2096.5237,974.5,2100.5237" style="stroke:#000000;stroke-width:1.0;"/><!--SRC=[pLZTSjf65BxdAKvz9OZZ6koaBQudnO1jMWmAKf9BPX5hs6QrgrcjRDDEP_8QlUlqLVecUPAUrRy4CN4xwPGB6sdFdl_lspryfTVKfn1mmaH3Cyqfp2ZXck7BFYTXo6wPHpIJ0fx3W6Yo8265Ioxl6urG4wKRZG3_ibZYmD4qW7ONhgY62Rq7cnEFmWK-zQDGIv-gy01-RG1q-uHpSEmkz5rdVaK5LOHFfF89hrgT6szSz0Q5T7zDn8g6PwX0I4r1iTLQuuFvj5gPTwrM5nPokPY_dNLkv99oi9pNOt2ekgEgcOiRfJBIHlha-1X2wacn3DFbN6eQwI3IO1D5VAhHVvHF5v_33uv7XA3B6_8mMe9rCReQJTn3cBvnxJUkiKJ5ClQq4MlipgYEbC04Xn7N3cRb6PGrV2AkNBniskIpiDdCtpk1LF52wMsk2QsWSK-gfGa3EiVu0SkTsidN8ZTJjQIAYPMH6WsWv_JBmVosNVCE5f9ekfAA_KBhnMQtO5sJi7ZzgWdOTWAi3GqJezt-EXBlmSiaW0ajOK6qjwOXMF6NaS3y2y8TDD4yQ-IHAHfGeg5xAHLGugsJRMaitHyb4scsGa2TdlHzyZoa604wl8HGcq3FKl6jz9lFy87u0QTTE6XtJWvFNxmy_ERRxmxRn-tsORlJFZb8HKl5BcMzskc3_jpuigF7TTRZIHetZtfKRVPOCJxtgSaGM3SRxFTcHVpHPYzvcqZlwlQquraG1p0QO5NUzcRzwzwiMKlCqT7HdfIaEEWKI0ZtX5j01jabwwCiLQqMM0bt50tKhBYz6orRSHTMEeKLkpSWZ6yCK8qXk_SlZUGuILXrB5VCgwTvycOy1cpdD2eB2uArHIIUGtywSTovtPiD9-veC9zCPpUzIh41_lhpuuS_FdxuVIjH5HiO25gmCTz2CyBniJ0pck3orwMrge7UP82bu_IEYBnVpIu79bCtTlvnVqeftOCToJdrT8pRQYoCfYsJelz-pV3eicwaeXbjl8ePcEDnPGcPqeppdWNWLIfmbb0Rkzt5QoVTcFhH2mwsaXv5s8fLGcjXm5dIfTrqAQjNJdGbbif8i2wopOKv6zRB1uiDR37XMJLbZvBXa-cmrBfFEx5ZDhFHcIGnXRwT-7xowVtPj5R1tcFK5fFRc24rfoZUGMubOjkfUmUKOw0HXJsOzQyvJpdQgGcP6vEj67Qbti2jadvH_MfsCw7AVhGELqf60Nf-3ksjjSj8U6PtiWnMLg9cpOkunllgcxoqfUJpaGYfgeSocZZ3cOl_t6dMxKOOxfbUmvRxDUJlWNCTq2caa_vAK9m24yZAN6ahy4IEUmoQvUNFW6M9nVv7oDnzmyWzjNjfqLpvEg8HVI8ozrurlW0gzrmvlYGgowsCeNy2ad5oxLwSpote9HNTVgsegQf95K9oCdrdrR4OguDRx9P4lv8BJltQJFQpN7n991cLoJ6tusmynNQGvcACVLC_6__1V9Vf-Y-dkoUCTLl3LAslS3eUZeVk42vdqvjFaNV6k-aWcszzTpsS3KqFVdzUjRxbSAG26ISXtpkZlhp32Jwf01A5IYQyN02FuJk4AomZhAIv-sIoMArYdkGKQImAeEOYODOvhKr_tQ9MbKgrMZ_H3P8z3czfGjj7-BAJ_t0GZvrOk4hDS0hUIIaTi_V2j6oflOo2DA0GV0mThqKOlherlqW0d1obLOrlRCC7waKcyMPNUXGHZ0E9FY1w7OAA1FAiy29bBhxSd4gdHaC-4iEO-Ipkef7m5FLH2dLKylV2R1X4-7g63PUwc1hBRxwbS_3GcCyNy7l66o-DedBnZI9N4UzzQ0u3at03FiC8dgbM53JoeZImtOB6tm00]--></g></svg>