<svg xmlns="http://www.w3.org/2000/svg" xmlns:xlink="http://www.w3.org/1999/xlink" contentStyleType="text/css" height="2891px" preserveAspectRatio="none" style="width:1164px;height:2891px;background:#FFFFFF;" version="1.1" viewBox="0 0 1164 2891" width="1164px" zoomAndPan="magnify"><defs/><g><text fill="#000000" font-family="Verdana" font-size="22" font-weight="bold" lengthAdjust="spacing" textLength="1131" x="15" y="37.1182">Stored Procedure: CTS_GeneralNormalClassification_Realtime_Preprocess - Detailed Flow</text><rect fill="#FFFFFF" height="2831.4287" style="stroke:#000000;stroke-width:1.0;" width="958" x="102.5" y="53.7373"/><line style="stroke:#000000;stroke-width:1.0;" x1="102.5" x2="1060.5" y1="74.752" y2="74.752"/><text fill="#000000" font-family="Verdana" font-size="14" lengthAdjust="spacing" textLength="6" x="324" y="69.8125">"</text><text fill="#000000" font-family="Verdana" font-size="14" font-weight="bold" lengthAdjust="spacing" textLength="459" x="330" y="69.8125">SP: CTS_GeneralNormalClassification_Realtime_Preprocess</text><text fill="#000000" font-family="Verdana" font-size="14" lengthAdjust="spacing" textLength="50" x="789" y="69.8125">" as SP</text><rect fill="#FFFFFF" height="2774.4141" style="stroke:#000000;stroke-width:1.0;" width="938" x="112.5" y="90.752"/><text fill="#000000" font-family="Verdana" font-size="14" lengthAdjust="spacing" textLength="6" x="405.5" y="106.8271">"</text><text fill="#000000" font-family="Verdana" font-size="14" font-weight="bold" lengthAdjust="spacing" textLength="71" x="411.5" y="106.8271">Database</text><text fill="#000000" font-family="Verdana" font-size="14" lengthAdjust="spacing" textLength="275" x="482.5" y="106.8271">: bodb_VR2Model (SQL Server)" as DB</text><rect fill="#FFFFFF" height="57.0146" style="stroke:#000000;stroke-width:1.0;" width="279" x="307.5" y="127.7666"/><text fill="#000000" font-family="Verdana" font-size="14" lengthAdjust="spacing" textLength="6" x="317.5" y="143.8418">"</text><text fill="#000000" font-family="Verdana" font-size="14" font-weight="bold" lengthAdjust="spacing" textLength="63" x="323.5" y="143.8418">Timeout</text><text fill="#000000" font-family="Verdana" font-size="14" lengthAdjust="spacing" textLength="190" x="386.5" y="143.8418">: 300 seconds" as Timeout</text><ellipse cx="447" cy="229.7813" fill="#FFFFFF" rx="10" ry="10" style="stroke:#000000;stroke-width:1.0;"/><rect fill="#FFFFFF" height="130.2119" style="stroke:#000000;stroke-width:1.0;" width="627" x="327" y="274.7813"/><path d="M459,274.7813 L459,284.7959 L449,294.7959 L327,294.7959 " fill="none" style="stroke:#000000;stroke-width:1.0;"/><text fill="#000000" font-family="Verdana" font-size="14" lengthAdjust="spacing" textLength="122" x="330" y="289.8564">Input Parameters</text><path d="M577,311.7959 L577,344.3945 L557,348.3945 L577,352.3945 L577,384.9932 A0,0 0 0 0 577,384.9932 L944,384.9932 A0,0 0 0 0 944,384.9932 L944,321.7959 L934,311.7959 L577,311.7959 A0,0 0 0 0 577,311.7959 " fill="#FFFFFF" style="stroke:#000000;stroke-width:1.0;"/><path d="M934,311.7959 L934,321.7959 L944,321.7959 L934,311.7959 " fill="#FFFFFF" style="stroke:#000000;stroke-width:1.0;"/><text fill="#000000" font-family="Verdana" font-size="13" lengthAdjust="spacing" textLength="157" x="583" y="329.8657">Parameter: @ListCustId</text><text fill="#000000" font-family="Verdana" font-size="13" lengthAdjust="spacing" textLength="243" x="583" y="345.665">Format: "123,456,789,1011,1213,..."</text><text fill="#000000" font-family="Verdana" font-size="13" lengthAdjust="spacing" textLength="5" x="583" y="361.4644">&#160;</text><text fill="#000000" font-family="Verdana" font-size="13" lengthAdjust="spacing" textLength="346" x="583" y="377.2637">Comma-separated customer IDs (Normal customers)</text><rect fill="#FFFFFF" height="34.584" rx="12.5" ry="12.5" style="stroke:#000000;stroke-width:1.0;" width="220" x="337" y="331.1025"/><text fill="#000000" font-family="Verdana" font-size="12" lengthAdjust="spacing" textLength="200" x="347" y="353.167">Receive @ListCustId (VARCHAR)</text><rect fill="#FFFFFF" height="317.4058" style="stroke:#000000;stroke-width:1.0;" width="530" x="330" y="439.9932"/><path d="M481,439.9932 L481,450.0078 L471,460.0078 L330,460.0078 " fill="none" style="stroke:#000000;stroke-width:1.0;"/><text fill="#000000" font-family="Verdana" font-size="14" lengthAdjust="spacing" textLength="141" x="333" y="455.0684">Parse Customer IDs</text><path d="M551,477.0078 L551,501.7068 L531,505.7068 L551,509.7068 L551,534.4058 A0,0 0 0 0 551,534.4058 L789,534.4058 A0,0 0 0 0 789,534.4058 L789,487.0078 L779,477.0078 L551,477.0078 A0,0 0 0 0 551,477.0078 " fill="#FFFFFF" style="stroke:#000000;stroke-width:1.0;"/><path d="M779,477.0078 L779,487.0078 L789,487.0078 L779,477.0078 " fill="#FFFFFF" style="stroke:#000000;stroke-width:1.0;"/><text fill="#000000" font-family="Verdana" font-size="13" lengthAdjust="spacing" textLength="217" x="557" y="495.0776">CREATE TABLE #tmpCustomers (</text><text fill="#000000" font-family="Verdana" font-size="13" lengthAdjust="spacing" textLength="93" x="567" y="510.877">CustId BIGINT</text><text fill="#000000" font-family="Verdana" font-size="13" lengthAdjust="spacing" textLength="12" x="557" y="526.6763">);</text><rect fill="#FFFFFF" height="34.584" rx="12.5" ry="12.5" style="stroke:#000000;stroke-width:1.0;" width="168" x="363" y="488.4148"/><text fill="#000000" font-family="Verdana" font-size="12" lengthAdjust="spacing" textLength="148" x="373" y="510.4792">Create temporary table</text><path d="M574,569.4058 L574,649.4023 L554,653.4023 L574,657.4023 L574,737.3989 A0,0 0 0 0 574,737.3989 L850,737.3989 A0,0 0 0 0 850,737.3989 L850,579.4058 L840,569.4058 L574,569.4058 A0,0 0 0 0 574,569.4058 " fill="#FFFFFF" style="stroke:#000000;stroke-width:1.0;"/><path d="M840,569.4058 L840,579.4058 L850,579.4058 L840,569.4058 " fill="#FFFFFF" style="stroke:#000000;stroke-width:1.0;"/><text fill="#000000" font-family="Verdana" font-size="13" lengthAdjust="spacing" textLength="233" x="580" y="587.4756">-- Split string by comma and insert</text><text fill="#000000" font-family="Verdana" font-size="13" lengthAdjust="spacing" textLength="255" x="580" y="603.2749">INSERT INTO #tmpCustomers (CustId)</text><text fill="#000000" font-family="Verdana" font-size="13" lengthAdjust="spacing" textLength="211" x="580" y="619.0742">SELECT CAST(value AS BIGINT)</text><text fill="#000000" font-family="Verdana" font-size="13" lengthAdjust="spacing" textLength="249" x="580" y="634.8735">FROM STRING_SPLIT(@ListCustId, ',')</text><text fill="#000000" font-family="Verdana" font-size="13" lengthAdjust="spacing" textLength="167" x="580" y="650.6729">WHERE TRIM(value) != '';</text><text fill="#000000" font-family="Verdana" font-size="13" lengthAdjust="spacing" textLength="5" x="580" y="666.4722">&#160;</text><text fill="#000000" font-family="Verdana" font-size="13" lengthAdjust="spacing" textLength="183" x="580" y="682.2715">SQL Server String Splitting:</text><text fill="#000000" font-family="Verdana" font-size="13" lengthAdjust="spacing" textLength="244" x="580" y="698.0708">- STRING_SPLIT (SQL Server 2016+)</text><text fill="#000000" font-family="Verdana" font-size="13" lengthAdjust="spacing" textLength="199" x="580" y="713.8701">- XML parsing (older versions)</text><text fill="#000000" font-family="Verdana" font-size="13" lengthAdjust="spacing" textLength="152" x="580" y="729.6694">- Custom split function</text><rect fill="#FFFFFF" height="34.584" rx="12.5" ry="12.5" style="stroke:#000000;stroke-width:1.0;" width="214" x="340" y="636.1104"/><text fill="#000000" font-family="Verdana" font-size="12" lengthAdjust="spacing" textLength="194" x="350" y="658.1748">Parse comma-separated string</text><rect fill="#FFFFFF" height="469.187" style="stroke:#000000;stroke-width:1.0;" width="784.5" x="122.5" y="792.3989"/><path d="M211.5,792.3989 L211.5,802.4136 L201.5,812.4136 L122.5,812.4136 " fill="none" style="stroke:#000000;stroke-width:1.0;"/><text fill="#000000" font-family="Verdana" font-size="14" lengthAdjust="spacing" textLength="79" x="125.5" y="807.4741">Get Priority</text><path d="M538,829.4136 L538,964.7078 L518,968.7078 L538,972.7078 L538,1108.002 A0,0 0 0 0 538,1108.002 L897,1108.002 A0,0 0 0 0 897,1108.002 L897,839.4136 L887,829.4136 L538,829.4136 A0,0 0 0 0 538,829.4136 " fill="#FFFFFF" style="stroke:#000000;stroke-width:1.0;"/><path d="M887,829.4136 L887,839.4136 L897,839.4136 L887,829.4136 " fill="#FFFFFF" style="stroke:#000000;stroke-width:1.0;"/><text fill="#000000" font-family="Verdana" font-size="13" lengthAdjust="spacing" textLength="156" x="544" y="847.4834">DECLARE @Priority INT;</text><text fill="#000000" font-family="Verdana" font-size="13" lengthAdjust="spacing" textLength="5" x="544" y="863.2827">&#160;</text><text fill="#000000" font-family="Verdana" font-size="13" lengthAdjust="spacing" textLength="224" x="544" y="879.082">SELECT TOP 1 @Priority = Priority</text><text fill="#000000" font-family="Verdana" font-size="13" lengthAdjust="spacing" textLength="244" x="544" y="894.8813">FROM CustomerClassification_Priority</text><text fill="#000000" font-family="Verdana" font-size="13" lengthAdjust="spacing" textLength="338" x="544" y="910.6807">WHERE GroupId = 1          -- General Classification</text><text fill="#000000" font-family="Verdana" font-size="13" lengthAdjust="spacing" textLength="300" x="554" y="926.48">AND FunctionId = 1       -- Realtime Function</text><text fill="#000000" font-family="Verdana" font-size="13" lengthAdjust="spacing" textLength="162" x="544" y="942.2793">ORDER BY Priority DESC;</text><text fill="#000000" font-family="Verdana" font-size="13" lengthAdjust="spacing" textLength="5" x="544" y="958.0786">&#160;</text><text fill="#000000" font-family="Verdana" font-size="13" font-weight="bold" lengthAdjust="spacing" textLength="59" x="544" y="973.8779">Purpose</text><text fill="#000000" font-family="Verdana" font-size="13" lengthAdjust="spacing" textLength="6" x="603" y="973.8779">:</text><text fill="#000000" font-family="Verdana" font-size="13" lengthAdjust="spacing" textLength="249" x="544" y="989.6772">- Priority determines processing order</text><text fill="#000000" font-family="Verdana" font-size="13" lengthAdjust="spacing" textLength="221" x="544" y="1005.4766">- Higher priority = processed first</text><text fill="#000000" font-family="Verdana" font-size="13" lengthAdjust="spacing" textLength="273" x="544" y="1021.2759">- Realtime customers have higher priority</text><text fill="#000000" font-family="Verdana" font-size="13" lengthAdjust="spacing" textLength="5" x="544" y="1037.0752">&#160;</text><text fill="#000000" font-family="Verdana" font-size="13" font-weight="bold" lengthAdjust="spacing" textLength="111" x="544" y="1052.8745">Table Structure</text><text fill="#000000" font-family="Verdana" font-size="13" lengthAdjust="spacing" textLength="6" x="655" y="1052.8745">:</text><text fill="#000000" font-family="Verdana" font-size="13" lengthAdjust="spacing" textLength="202" x="544" y="1068.6738">- GroupId: Classification group</text><text fill="#000000" font-family="Verdana" font-size="13" lengthAdjust="spacing" textLength="185" x="544" y="1084.4731">- FunctionId: Function type</text><text fill="#000000" font-family="Verdana" font-size="13" lengthAdjust="spacing" textLength="230" x="544" y="1100.2725">- Priority: Processing priority value</text><rect fill="#FFFFFF" height="34.584" rx="12.5" ry="12.5" style="stroke:#000000;stroke-width:1.0;" width="142" x="376" y="951.4158"/><text fill="#000000" font-family="Verdana" font-size="12" lengthAdjust="spacing" textLength="122" x="386" y="973.4802">Query Priority table</text><polygon fill="#FFFFFF" points="402,1143.002,492,1143.002,504,1155.002,492,1167.002,402,1167.002,390,1155.002,402,1143.002" style="stroke:#000000;stroke-width:1.0;"/><text fill="#000000" font-family="Verdana" font-size="11" lengthAdjust="spacing" textLength="90" x="402" y="1159.3767">Priority IS NULL</text><text fill="#000000" font-family="Verdana" font-size="11" lengthAdjust="spacing" textLength="20" x="370" y="1152.6924">yes</text><text fill="#000000" font-family="Verdana" font-size="11" lengthAdjust="spacing" textLength="14" x="504" y="1152.6924">no</text><path d="M299.5,1181.3943 L299.5,1190.2939 L279.5,1194.2939 L299.5,1198.2939 L299.5,1207.1936 A0,0 0 0 0 299.5,1207.1936 L586.5,1207.1936 A0,0 0 0 0 586.5,1207.1936 L586.5,1191.3943 L576.5,1181.3943 L299.5,1181.3943 A0,0 0 0 0 299.5,1181.3943 " fill="#FFFFFF" style="stroke:#000000;stroke-width:1.0;"/><path d="M576.5,1181.3943 L576.5,1191.3943 L586.5,1191.3943 L576.5,1181.3943 " fill="#FFFFFF" style="stroke:#000000;stroke-width:1.0;"/><text fill="#000000" font-family="Verdana" font-size="13" lengthAdjust="spacing" textLength="266" x="305.5" y="1199.4641">SET @Priority = 100;  -- Default priority</text><rect fill="#FFFFFF" height="34.584" rx="12.5" ry="12.5" style="stroke:#000000;stroke-width:1.0;" width="137" x="142.5" y="1177.002"/><text fill="#000000" font-family="Verdana" font-size="12" lengthAdjust="spacing" textLength="117" x="152.5" y="1199.0664">Set default Priority</text><rect fill="#FFFFFF" height="34.584" rx="12.5" ry="12.5" style="stroke:#000000;stroke-width:1.0;" width="153" x="606.5" y="1177.002"/><text fill="#000000" font-family="Verdana" font-size="12" lengthAdjust="spacing" textLength="133" x="616.5" y="1199.0664">Use retrieved Priority</text><polygon fill="#FFFFFF" points="447,1217.5859,459,1229.5859,447,1241.5859,435,1229.5859,447,1217.5859" style="stroke:#000000;stroke-width:1.0;"/><rect fill="#FFFFFF" height="585.9941" style="stroke:#000000;stroke-width:1.0;" width="702" x="338.5" y="1296.5859"/><path d="M510.5,1296.5859 L510.5,1306.6006 L500.5,1316.6006 L338.5,1316.6006 " fill="none" style="stroke:#000000;stroke-width:1.0;"/><text fill="#000000" font-family="Verdana" font-size="14" lengthAdjust="spacing" textLength="162" x="341.5" y="1311.6611">Insert into Normal Pool</text><path d="M559,1333.6006 L559,1413.5972 L539,1417.5972 L559,1421.5972 L559,1501.5938 A0,0 0 0 0 559,1501.5938 L959,1501.5938 A0,0 0 0 0 959,1501.5938 L959,1343.6006 L949,1333.6006 L559,1333.6006 A0,0 0 0 0 559,1333.6006 " fill="#FFFFFF" style="stroke:#000000;stroke-width:1.0;"/><path d="M949,1333.6006 L949,1343.6006 L959,1343.6006 L949,1333.6006 " fill="#FFFFFF" style="stroke:#000000;stroke-width:1.0;"/><text fill="#000000" font-family="Verdana" font-size="13" lengthAdjust="spacing" textLength="379" x="565" y="1351.6704">EXEC CTS_GeneralNormalClassification_NormalPool_Insert</text><text fill="#000000" font-family="Verdana" font-size="13" lengthAdjust="spacing" textLength="226" x="575" y="1367.4697">@CustomerList = #tmpCustomers,</text><text fill="#000000" font-family="Verdana" font-size="13" lengthAdjust="spacing" textLength="142" x="575" y="1383.269">@Priority = @Priority,</text><text fill="#000000" font-family="Verdana" font-size="13" lengthAdjust="spacing" textLength="219" x="575" y="1399.0684">@FunctionId = 1,      -- Realtime</text><text fill="#000000" font-family="Verdana" font-size="13" lengthAdjust="spacing" textLength="210" x="575" y="1414.8677">@GroupId = 1;         -- General</text><text fill="#000000" font-family="Verdana" font-size="13" lengthAdjust="spacing" textLength="5" x="565" y="1430.667">&#160;</text><text fill="#000000" font-family="Verdana" font-size="13" font-weight="bold" lengthAdjust="spacing" textLength="59" x="565" y="1446.4663">Purpose</text><text fill="#000000" font-family="Verdana" font-size="13" lengthAdjust="spacing" textLength="6" x="624" y="1446.4663">:</text><text fill="#000000" font-family="Verdana" font-size="13" lengthAdjust="spacing" textLength="235" x="565" y="1462.2656">- Insert customers into Normal Pool</text><text fill="#000000" font-family="Verdana" font-size="13" lengthAdjust="spacing" textLength="292" x="565" y="1478.0649">- Queue for NormalAccountClassification job</text><text fill="#000000" font-family="Verdana" font-size="13" lengthAdjust="spacing" textLength="242" x="565" y="1493.8643">- Assign priority for processing order</text><rect fill="#FFFFFF" height="34.584" rx="12.5" ry="12.5" style="stroke:#000000;stroke-width:1.0;" width="184" x="355" y="1400.3052"/><text fill="#000000" font-family="Verdana" font-size="12" lengthAdjust="spacing" textLength="164" x="365" y="1422.3696">Call NormalPool_Insert SP</text><path d="M565.5,1536.5938 L565.5,1695.5869 L545.5,1699.5869 L565.5,1703.5869 L565.5,1862.5801 A0,0 0 0 0 565.5,1862.5801 L1030.5,1862.5801 A0,0 0 0 0 1030.5,1862.5801 L1030.5,1546.5938 L1020.5,1536.5938 L565.5,1536.5938 A0,0 0 0 0 565.5,1536.5938 " fill="#FFFFFF" style="stroke:#000000;stroke-width:1.0;"/><path d="M1020.5,1536.5938 L1020.5,1546.5938 L1030.5,1546.5938 L1020.5,1536.5938 " fill="#FFFFFF" style="stroke:#000000;stroke-width:1.0;"/><text fill="#000000" font-family="Verdana" font-size="13" lengthAdjust="spacing" textLength="190" x="571.5" y="1554.6636">Inside NormalPool_Insert SP:</text><text fill="#000000" font-family="Verdana" font-size="13" lengthAdjust="spacing" textLength="5" x="571.5" y="1570.4629">&#160;</text><text fill="#000000" font-family="Verdana" font-size="13" lengthAdjust="spacing" textLength="318" x="571.5" y="1586.2622">INSERT INTO CustomerClassification_NormalPool</text><text fill="#000000" font-family="Verdana" font-size="13" lengthAdjust="spacing" textLength="434" x="581.5" y="1602.0615">(CustId, Priority, FunctionId, GroupId, CreatedDate, IsProcessed)</text><text fill="#000000" font-family="Verdana" font-size="13" lengthAdjust="spacing" textLength="50" x="571.5" y="1617.8608">SELECT</text><text fill="#000000" font-family="Verdana" font-size="13" lengthAdjust="spacing" textLength="67" x="581.5" y="1633.6602">tc.CustId,</text><text fill="#000000" font-family="Verdana" font-size="13" lengthAdjust="spacing" textLength="64" x="581.5" y="1649.4595">@Priority,</text><text fill="#000000" font-family="Verdana" font-size="13" lengthAdjust="spacing" textLength="88" x="581.5" y="1665.2588">@FunctionId,</text><text fill="#000000" font-family="Verdana" font-size="13" lengthAdjust="spacing" textLength="69" x="581.5" y="1681.0581">@GroupId,</text><text fill="#000000" font-family="Verdana" font-size="13" lengthAdjust="spacing" textLength="78" x="581.5" y="1696.8574">GETDATE(),</text><text fill="#000000" font-family="Verdana" font-size="13" lengthAdjust="spacing" textLength="204" x="581.5" y="1712.6567">0           -- Not yet processed</text><text fill="#000000" font-family="Verdana" font-size="13" lengthAdjust="spacing" textLength="165" x="571.5" y="1728.4561">FROM #tmpCustomers tc</text><text fill="#000000" font-family="Verdana" font-size="13" lengthAdjust="spacing" textLength="320" x="571.5" y="1744.2554">LEFT JOIN CustomerClassification_NormalPool np</text><text fill="#000000" font-family="Verdana" font-size="13" lengthAdjust="spacing" textLength="169" x="581.5" y="1760.0547">ON tc.CustId = np.CustId</text><text fill="#000000" font-family="Verdana" font-size="13" lengthAdjust="spacing" textLength="159" x="581.5" y="1775.854">AND np.IsProcessed = 0</text><text fill="#000000" font-family="Verdana" font-size="13" lengthAdjust="spacing" textLength="314" x="571.5" y="1791.6533">WHERE np.CustId IS NULL;  -- Avoid duplicates</text><text fill="#000000" font-family="Verdana" font-size="13" lengthAdjust="spacing" textLength="5" x="571.5" y="1807.4526">&#160;</text><text fill="#000000" font-family="Verdana" font-size="13" font-weight="bold" lengthAdjust="spacing" textLength="151" x="571.5" y="1823.252">Duplicate Prevention</text><text fill="#000000" font-family="Verdana" font-size="13" lengthAdjust="spacing" textLength="6" x="722.5" y="1823.252">:</text><text fill="#000000" font-family="Verdana" font-size="13" lengthAdjust="spacing" textLength="339" x="571.5" y="1839.0513">- LEFT JOIN to check existing unprocessed records</text><text fill="#000000" font-family="Verdana" font-size="13" lengthAdjust="spacing" textLength="224" x="571.5" y="1854.8506">- Only insert if not already in pool</text><rect fill="#FFFFFF" height="34.584" rx="12.5" ry="12.5" style="stroke:#000000;stroke-width:1.0;" width="197" x="348.5" y="1682.2949"/><text fill="#000000" font-family="Verdana" font-size="12" lengthAdjust="spacing" textLength="177" x="358.5" y="1704.3594">Insert into NormalPool table</text><rect fill="#FFFFFF" height="161.8105" style="stroke:#000000;stroke-width:1.0;" width="334" x="383" y="1917.5801"/><path d="M524,1917.5801 L524,1927.5947 L514,1937.5947 L383,1937.5947 " fill="none" style="stroke:#000000;stroke-width:1.0;"/><text fill="#000000" font-family="Verdana" font-size="14" lengthAdjust="spacing" textLength="131" x="386" y="1932.6553">Logging (Optional)</text><path d="M521,1954.5947 L521,2002.9927 L501,2006.9927 L521,2010.9927 L521,2059.3906 A0,0 0 0 0 521,2059.3906 L707,2059.3906 A0,0 0 0 0 707,2059.3906 L707,1964.5947 L697,1954.5947 L521,1954.5947 A0,0 0 0 0 521,1954.5947 " fill="#FFFFFF" style="stroke:#000000;stroke-width:1.0;"/><path d="M697,1954.5947 L697,1964.5947 L707,1964.5947 L697,1954.5947 " fill="#FFFFFF" style="stroke:#000000;stroke-width:1.0;"/><text fill="#000000" font-family="Verdana" font-size="13" lengthAdjust="spacing" textLength="165" x="527" y="1972.6646">INSERT INTO ProcessLog</text><text fill="#000000" font-family="Verdana" font-size="13" lengthAdjust="spacing" textLength="62" x="527" y="1988.4639">VALUES (</text><text fill="#000000" font-family="Verdana" font-size="13" lengthAdjust="spacing" textLength="78" x="537" y="2004.2632">GETDATE(),</text><text fill="#000000" font-family="Verdana" font-size="13" lengthAdjust="spacing" textLength="108" x="537" y="2020.0625">@@ROWCOUNT,</text><text fill="#000000" font-family="Verdana" font-size="13" lengthAdjust="spacing" textLength="59" x="537" y="2035.8618">@Priority</text><text fill="#000000" font-family="Verdana" font-size="13" lengthAdjust="spacing" textLength="12" x="527" y="2051.6611">);</text><rect fill="#FFFFFF" height="34.584" rx="12.5" ry="12.5" style="stroke:#000000;stroke-width:1.0;" width="108" x="393" y="1989.7007"/><text fill="#000000" font-family="Verdana" font-size="12" lengthAdjust="spacing" textLength="88" x="403" y="2011.7651">Log operation</text><rect fill="#FFFFFF" height="91.5986" style="stroke:#000000;stroke-width:1.0;" width="412" x="359.5" y="2114.3906"/><path d="M425.5,2114.3906 L425.5,2124.4053 L415.5,2134.4053 L359.5,2134.4053 " fill="none" style="stroke:#000000;stroke-width:1.0;"/><text fill="#000000" font-family="Verdana" font-size="14" lengthAdjust="spacing" textLength="56" x="362.5" y="2129.4658">Cleanup</text><path d="M544.5,2155.7976 L544.5,2164.6973 L524.5,2168.6973 L544.5,2172.6973 L544.5,2181.5969 A0,0 0 0 0 544.5,2181.5969 L761.5,2181.5969 A0,0 0 0 0 761.5,2181.5969 L761.5,2165.7976 L751.5,2155.7976 L544.5,2155.7976 A0,0 0 0 0 544.5,2155.7976 " fill="#FFFFFF" style="stroke:#000000;stroke-width:1.0;"/><path d="M751.5,2155.7976 L751.5,2165.7976 L761.5,2165.7976 L751.5,2155.7976 " fill="#FFFFFF" style="stroke:#000000;stroke-width:1.0;"/><text fill="#000000" font-family="Verdana" font-size="13" lengthAdjust="spacing" textLength="196" x="550.5" y="2173.8674">DROP TABLE #tmpCustomers;</text><rect fill="#FFFFFF" height="34.584" rx="12.5" ry="12.5" style="stroke:#000000;stroke-width:1.0;" width="155" x="369.5" y="2151.4053"/><text fill="#000000" font-family="Verdana" font-size="12" lengthAdjust="spacing" textLength="135" x="379.5" y="2173.4697">Drop temporary table</text><path d="M524.5,2240.9893 L524.5,2510.5776 L504.5,2514.5776 L524.5,2518.5776 L524.5,2788.166 A0,0 0 0 0 524.5,2788.166 L942.5,2788.166 A0,0 0 0 0 942.5,2788.166 L942.5,2250.9893 L932.5,2240.9893 L524.5,2240.9893 A0,0 0 0 0 524.5,2240.9893 " fill="#FFFFFF" style="stroke:#000000;stroke-width:1.0;"/><path d="M932.5,2240.9893 L932.5,2250.9893 L942.5,2250.9893 L932.5,2240.9893 " fill="#FFFFFF" style="stroke:#000000;stroke-width:1.0;"/><text fill="#000000" font-family="Verdana" font-size="13" font-weight="bold" lengthAdjust="spacing" textLength="69" x="530.5" y="2259.0591">Key Logic</text><text fill="#000000" font-family="Verdana" font-size="13" lengthAdjust="spacing" textLength="6" x="599.5" y="2259.0591">:</text><text fill="#000000" font-family="Verdana" font-size="13" lengthAdjust="spacing" textLength="270" x="530.5" y="2274.8584">1. Parse comma-separated customer IDs</text><text fill="#000000" font-family="Verdana" font-size="13" lengthAdjust="spacing" textLength="397" x="530.5" y="2290.6577">2. Get Priority from Priority table (GroupId=1, FunctionId=1)</text><text fill="#000000" font-family="Verdana" font-size="13" lengthAdjust="spacing" textLength="336" x="530.5" y="2306.457">3. Call NormalPool_Insert to add customers to pool</text><text fill="#000000" font-family="Verdana" font-size="13" lengthAdjust="spacing" textLength="298" x="530.5" y="2322.2563">4. Prevent duplicates (check IsProcessed=0)</text><text fill="#000000" font-family="Verdana" font-size="13" lengthAdjust="spacing" textLength="248" x="530.5" y="2338.0557">5. Assign priority for processing order</text><text fill="#000000" font-family="Verdana" font-size="13" lengthAdjust="spacing" textLength="5" x="530.5" y="2353.855">&#160;</text><text fill="#000000" font-family="Verdana" font-size="13" font-weight="bold" lengthAdjust="spacing" textLength="120" x="530.5" y="2369.6543">Tables Accessed</text><text fill="#000000" font-family="Verdana" font-size="13" lengthAdjust="spacing" textLength="6" x="650.5" y="2369.6543">:</text><text fill="#000000" font-family="Verdana" font-size="13" lengthAdjust="spacing" textLength="265" x="530.5" y="2385.4536">- CustomerClassification_Priority (READ)</text><text fill="#000000" font-family="Verdana" font-size="13" lengthAdjust="spacing" textLength="148" x="540.5" y="2401.2529">* GroupId (General=1)</text><text fill="#000000" font-family="Verdana" font-size="13" lengthAdjust="spacing" textLength="173" x="540.5" y="2417.0522">* FunctionId (Realtime=1)</text><text fill="#000000" font-family="Verdana" font-size="13" lengthAdjust="spacing" textLength="198" x="540.5" y="2432.8516">* Priority (Processing priority)</text><text fill="#000000" font-family="Verdana" font-size="13" lengthAdjust="spacing" textLength="5" x="530.5" y="2448.6509">&#160;</text><text fill="#000000" font-family="Verdana" font-size="13" lengthAdjust="spacing" textLength="304" x="530.5" y="2464.4502">- CustomerClassification_NormalPool (INSERT)</text><text fill="#000000" font-family="Verdana" font-size="13" lengthAdjust="spacing" textLength="90" x="540.5" y="2480.2495">* CustId (PK)</text><text fill="#000000" font-family="Verdana" font-size="13" lengthAdjust="spacing" textLength="186" x="540.5" y="2496.0488">* Priority (Processing order)</text><text fill="#000000" font-family="Verdana" font-size="13" lengthAdjust="spacing" textLength="206" x="540.5" y="2511.8481">* FunctionId (Source function)</text><text fill="#000000" font-family="Verdana" font-size="13" lengthAdjust="spacing" textLength="210" x="540.5" y="2527.6475">* GroupId (Classification group)</text><text fill="#000000" font-family="Verdana" font-size="13" lengthAdjust="spacing" textLength="185" x="540.5" y="2543.4468">* CreatedDate (Timestamp)</text><text fill="#000000" font-family="Verdana" font-size="13" lengthAdjust="spacing" textLength="272" x="540.5" y="2559.2461">* IsProcessed (0=Pending, 1=Processed)</text><text fill="#000000" font-family="Verdana" font-size="13" lengthAdjust="spacing" textLength="5" x="530.5" y="2575.0454">&#160;</text><text fill="#000000" font-family="Verdana" font-size="13" font-weight="bold" lengthAdjust="spacing" textLength="117" x="530.5" y="2590.8447">Processing Flow</text><text fill="#000000" font-family="Verdana" font-size="13" lengthAdjust="spacing" textLength="6" x="647.5" y="2590.8447">:</text><text fill="#000000" font-family="Verdana" font-size="13" lengthAdjust="spacing" textLength="24" x="530.5" y="2606.644">```</text><text fill="#000000" font-family="Verdana" font-size="13" lengthAdjust="spacing" textLength="374" x="530.5" y="2622.4434">Realtime &#226;&#8224;&#8217; Normal Pool &#226;&#8224;&#8217; NormalAccountClassification</text><text fill="#000000" font-family="Verdana" font-size="13" lengthAdjust="spacing" textLength="22" x="650.5" y="2638.2427">&#226;&#8224;&#8220;</text><text fill="#000000" font-family="Verdana" font-size="13" lengthAdjust="spacing" textLength="138" x="620.5" y="2654.042">Classification Applied</text><text fill="#000000" font-family="Verdana" font-size="13" lengthAdjust="spacing" textLength="22" x="650.5" y="2669.8413">&#226;&#8224;&#8220;</text><text fill="#000000" font-family="Verdana" font-size="13" lengthAdjust="spacing" textLength="102" x="620.5" y="2685.6406">Push to MainDB</text><text fill="#000000" font-family="Verdana" font-size="13" lengthAdjust="spacing" textLength="24" x="530.5" y="2701.4399">```</text><text fill="#000000" font-family="Verdana" font-size="13" lengthAdjust="spacing" textLength="5" x="530.5" y="2717.2393">&#160;</text><text fill="#000000" font-family="Verdana" font-size="13" font-weight="bold" lengthAdjust="spacing" textLength="112" x="530.5" y="2733.0386">Priority System</text><text fill="#000000" font-family="Verdana" font-size="13" lengthAdjust="spacing" textLength="6" x="642.5" y="2733.0386">:</text><text fill="#000000" font-family="Verdana" font-size="13" lengthAdjust="spacing" textLength="221" x="530.5" y="2748.8379">- Higher priority = processed first</text><text fill="#000000" font-family="Verdana" font-size="13" lengthAdjust="spacing" textLength="243" x="530.5" y="2764.6372">- Realtime typically higher than Daily</text><text fill="#000000" font-family="Verdana" font-size="13" lengthAdjust="spacing" textLength="319" x="530.5" y="2780.4365">- Ensures timely processing of active customers</text><rect fill="#FFFFFF" height="34.584" rx="12.5" ry="12.5" style="stroke:#000000;stroke-width:1.0;" width="115" x="389.5" y="2497.2856"/><text fill="#000000" font-family="Verdana" font-size="12" lengthAdjust="spacing" textLength="95" x="399.5" y="2519.3501">Return success</text><ellipse cx="447" cy="2834.166" fill="none" rx="11" ry="11" style="stroke:#000000;stroke-width:1.0;"/><ellipse cx="447" cy="2834.166" fill="#FFFFFF" rx="6" ry="6" style="stroke:#000000;stroke-width:1.0;"/><line style="stroke:#000000;stroke-width:1.0;" x1="447" x2="447" y1="164.7813" y2="219.7813"/><polygon fill="#000000" points="443,209.7813,447,219.7813,451,209.7813,447,213.7813" style="stroke:#000000;stroke-width:1.0;"/><line style="stroke:#000000;stroke-width:1.0;" x1="447" x2="447" y1="239.7813" y2="331.1025"/><polygon fill="#000000" points="443,321.1025,447,331.1025,451,321.1025,447,325.1025" style="stroke:#000000;stroke-width:1.0;"/><line style="stroke:#000000;stroke-width:1.0;" x1="447" x2="447" y1="522.9988" y2="636.1104"/><polygon fill="#000000" points="443,626.1104,447,636.1104,451,626.1104,447,630.1104" style="stroke:#000000;stroke-width:1.0;"/><line style="stroke:#000000;stroke-width:1.0;" x1="447" x2="447" y1="365.6865" y2="488.4148"/><polygon fill="#000000" points="443,478.4148,447,488.4148,451,478.4148,447,482.4148" style="stroke:#000000;stroke-width:1.0;"/><line style="stroke:#000000;stroke-width:1.0;" x1="390" x2="211" y1="1155.002" y2="1155.002"/><line style="stroke:#000000;stroke-width:1.0;" x1="211" x2="211" y1="1155.002" y2="1177.002"/><polygon fill="#000000" points="207,1167.002,211,1177.002,215,1167.002,211,1171.002" style="stroke:#000000;stroke-width:1.0;"/><line style="stroke:#000000;stroke-width:1.0;" x1="504" x2="683" y1="1155.002" y2="1155.002"/><line style="stroke:#000000;stroke-width:1.0;" x1="683" x2="683" y1="1155.002" y2="1177.002"/><polygon fill="#000000" points="679,1167.002,683,1177.002,687,1167.002,683,1171.002" style="stroke:#000000;stroke-width:1.0;"/><line style="stroke:#000000;stroke-width:1.0;" x1="211" x2="211" y1="1211.5859" y2="1229.5859"/><line style="stroke:#000000;stroke-width:1.0;" x1="211" x2="435" y1="1229.5859" y2="1229.5859"/><polygon fill="#000000" points="425,1225.5859,435,1229.5859,425,1233.5859,429,1229.5859" style="stroke:#000000;stroke-width:1.0;"/><line style="stroke:#000000;stroke-width:1.0;" x1="683" x2="683" y1="1211.5859" y2="1229.5859"/><line style="stroke:#000000;stroke-width:1.0;" x1="683" x2="459" y1="1229.5859" y2="1229.5859"/><polygon fill="#000000" points="469,1225.5859,459,1229.5859,469,1233.5859,465,1229.5859" style="stroke:#000000;stroke-width:1.0;"/><line style="stroke:#000000;stroke-width:1.0;" x1="447" x2="447" y1="985.9998" y2="1143.002"/><polygon fill="#000000" points="443,1133.002,447,1143.002,451,1133.002,447,1137.002" style="stroke:#000000;stroke-width:1.0;"/><line style="stroke:#000000;stroke-width:1.0;" x1="447" x2="447" y1="670.6943" y2="951.4158"/><polygon fill="#000000" points="443,941.4158,447,951.4158,451,941.4158,447,945.4158" style="stroke:#000000;stroke-width:1.0;"/><line style="stroke:#000000;stroke-width:1.0;" x1="447" x2="447" y1="1434.8892" y2="1682.2949"/><polygon fill="#000000" points="443,1672.2949,447,1682.2949,451,1672.2949,447,1676.2949" style="stroke:#000000;stroke-width:1.0;"/><line style="stroke:#000000;stroke-width:1.0;" x1="447" x2="447" y1="1241.5859" y2="1400.3052"/><polygon fill="#000000" points="443,1390.3052,447,1400.3052,451,1390.3052,447,1394.3052" style="stroke:#000000;stroke-width:1.0;"/><line style="stroke:#000000;stroke-width:1.0;" x1="447" x2="447" y1="1716.8789" y2="1989.7007"/><polygon fill="#000000" points="443,1979.7007,447,1989.7007,451,1979.7007,447,1983.7007" style="stroke:#000000;stroke-width:1.0;"/><line style="stroke:#000000;stroke-width:1.0;" x1="447" x2="447" y1="2024.2847" y2="2151.4053"/><polygon fill="#000000" points="443,2141.4053,447,2151.4053,451,2141.4053,447,2145.4053" style="stroke:#000000;stroke-width:1.0;"/><line style="stroke:#000000;stroke-width:1.0;" x1="447" x2="447" y1="2185.9893" y2="2497.2856"/><polygon fill="#000000" points="443,2487.2856,447,2497.2856,451,2487.2856,447,2491.2856" style="stroke:#000000;stroke-width:1.0;"/><line style="stroke:#000000;stroke-width:1.0;" x1="447" x2="447" y1="2531.8696" y2="2823.166"/><polygon fill="#000000" points="443,2813.166,447,2823.166,451,2813.166,447,2817.166" style="stroke:#000000;stroke-width:1.0;"/><!--SRC=[dLZDRjj64BxhAQRkmPGg2vATfAqC0LOasb4ZIuf89-d9MPChcIt59RXBjq9H8AzHe8UYhz8toPDqbbmkbnIT6D71bdTdXlFppJT3VoFkwOv2798WQeb0X1GSmHBgmofX7lNJX0vXuZgtLpIY2GaNBDcHS18IpeDDu14HiEXsJKaeWXszNIKqbcgSmmbCgI11Y9OkG_PRg-MHn8UZJiTPVPN1JkS820Td1N-q01Bg2H9jqLkqE2M2t15EEvqXt37_xlRj-lIQ-JG4otap1uSc3pHfP-hJbtLb5n_3KY5rp_fzuDHZaSypONNL-hFLue8aejMAyMSWFOIZMHId0bOa8JigQ88Qqg_XcdeqUA1mCG-ucAHSp7omtexNarVZTViS9I8cA2J1zbxW7_AZJGnD9NLvARCZXd0qE3thFdl-ellz3pzs1_t1e3iu7PnrUxtUaP9KloPijoCddAAdH63kFRJ6TZI1sPI3bITR7_8sQj78pvoIOHhneLkSmiHGLn5E4egMGT1Tp1AIx06J7zB6q2PhU-pQu8vVpctuLkpYmXoweaG0L99Upgvc2rUTPfdIZcN13NE7l5fyN2H1j6ry-ia9E74O22K3T_jS6mWQ3Y9Eaq9ojd3ijOk_t6NTpToxjX9qxBazSM4oTbphWOGfXR6ZF2z4BjVBQt3SzMnnTUkivZFNCghQXUFkSI7vxfMznkIiPzUvhJPyCuBZu_DgGKi4OsDcSMH12VmsB0AjFCy4FPps1o- -QskvzzTpmCnnQSPYeOyIACMnuBmKogC7dkLkaqQU1CJZGBcYs0P9m990x1L4tgGKSL4SVWOWKtio7sCIBhGiPhAUW3pdxd850qDmfEsRYIygL-EJccYU-Qk4fJ4YRuHszGT1euW9gZOqNiUBALogh5IqKRNWBIsWj9RhgRs6bp-NEPdQpgGMQAUpIfEOPJocYw4LV4aHko2Y71GZoYAo16keXLzXQh6aSPaZ9OgDiWaIhZkZT5HJ0TmJfAtxgeMwWwwifCHXwWcS3AQZAfl3MjfWAy-rL9cueVuEOX_JWu27-G3AmzGHPOrom0t11gmIGGuiRkRpDk1aYy3QKmNjeOD0zUc6f649sBm41xYKg7ChO1lq- -TPYQVAGYL5XZiqH9Qo8gOUUeD_9HGRbpvaCxLyBEe4crelpJ9MGd8I31HNhnWB2-ObOQYEvUcjadPMZRrblxSdNnoq1zPq0YwALfBiXGcey6At53DofByRrzLEwHvqIYbfjEDvGpi-eLTKFaf8r_Ee9P6WaBitB56tOyzZQIHgqFs5tMcDCLvienA8KhUX3sipwx2UqetF428g13vjBFAmcW5pPZt2UgKLdMMhc4EwL4PBTeicxa8-v7tSh6WNPdnLq4Xj46gxmkifouV8Q4H3zw3mvScLxKvnRx3QvL4VAXIzO0BsL9JqPiw0wWGNdhgRsvSk_BISBRwSBeXY_UJbeWmEiHd5lSg2biy3F3MIX6BzogJHIWKvvLGoVc213twAWnPTeBmEyMbnWzL2-eYaboRUouWGNjuzzNu5-ZjsgmHa6fNKZ_ikufDhlMKKxjK29AaJGGWan8BxyXJY72-FJFivsswpxM4PomCIjXKvuGMm63jL7ZTZsq2ioXKggSktu_cDxHXhOGC8ZWlIADyAZWqSNQoNxoRBcuNRWC76lR8QsIIa94fZ5SuqOV6JTjpf6XUJXWst_YHyCy2H6G5FFUduUQjYgTDvJVU0wGYylCA37ZGllEP2ZtAdFJ0NCDWakBfLDo-mL8UD1cQtZmQocSzwyCXOGKmHtpVO50yKDfxr2aGQw0KhXw3H2AE-VCJptbFPiwLt30vZBxUHf-FaIviTMFYkCStfgQDNEqiDZpnMUMFC8wk0KtbRMcjOFjgvXoTFu0yhntfXjdWFNBt-x8EoD3Gvwh0qyQZUnG-YR5gvzBDB9WTBlj7Yg-nEtvgiPVL7AxcKHDik34OLoiyAOtWgt-Zpmdpuy05_wdNolty_VVpdqyU_pAbRFsmSjYruzAFK_suKgOK-ZX6ErFzQQwkKtqkSNvCWolvLa8UdmbSbS_OSYQ70vLDsRcFVnbqNVGsHWDMgBUv915CIXFjCq8uuBjROR2YCGcQJR81W-H-CdRsb2QQ59t7hVm00]--></g></svg>