<svg xmlns="http://www.w3.org/2000/svg" xmlns:xlink="http://www.w3.org/1999/xlink" contentStyleType="text/css" height="1987px" preserveAspectRatio="none" style="width:1181px;height:1987px;background:#FFFFFF;" version="1.1" viewBox="0 0 1181 1987" width="1181px" zoomAndPan="magnify"><defs/><g><text fill="#000000" font-family="Verdana" font-size="22" font-weight="bold" lengthAdjust="spacing" textLength="1148" x="15" y="37.1182">Stored Procedure: CTS_GeneralNormalClassification_RealTime_GetChanges - Detailed Flow</text><rect fill="#FFFFFF" height="1927.6421" style="stroke:#000000;stroke-width:1.0;" width="701" x="239.5" y="53.7373"/><line style="stroke:#000000;stroke-width:1.0;" x1="239.5" x2="940.5" y1="74.752" y2="74.752"/><text fill="#000000" font-family="Verdana" font-size="14" lengthAdjust="spacing" textLength="6" x="327" y="69.8125">"</text><text fill="#000000" font-family="Verdana" font-size="14" font-weight="bold" lengthAdjust="spacing" textLength="470" x="333" y="69.8125">SP: CTS_GeneralNormalClassification_RealTime_GetChanges</text><text fill="#000000" font-family="Verdana" font-size="14" lengthAdjust="spacing" textLength="50" x="803" y="69.8125">" as SP</text><rect fill="#FFFFFF" height="1870.6274" style="stroke:#000000;stroke-width:1.0;" width="681" x="249.5" y="90.752"/><text fill="#000000" font-family="Verdana" font-size="14" lengthAdjust="spacing" textLength="6" x="414" y="106.8271">"</text><text fill="#000000" font-family="Verdana" font-size="14" font-weight="bold" lengthAdjust="spacing" textLength="71" x="420" y="106.8271">Database</text><text fill="#000000" font-family="Verdana" font-size="14" lengthAdjust="spacing" textLength="275" x="491" y="106.8271">: bodb_VR2Model (SQL Server)" as DB</text><rect fill="#FFFFFF" height="57.0146" style="stroke:#000000;stroke-width:1.0;" width="279" x="271.5" y="127.7666"/><text fill="#000000" font-family="Verdana" font-size="14" lengthAdjust="spacing" textLength="6" x="281.5" y="143.8418">"</text><text fill="#000000" font-family="Verdana" font-size="14" font-weight="bold" lengthAdjust="spacing" textLength="63" x="287.5" y="143.8418">Timeout</text><text fill="#000000" font-family="Verdana" font-size="14" lengthAdjust="spacing" textLength="190" x="350.5" y="143.8418">: 300 seconds" as Timeout</text><ellipse cx="411" cy="229.7813" fill="#FFFFFF" rx="10" ry="10" style="stroke:#000000;stroke-width:1.0;"/><rect fill="#FFFFFF" height="130.2119" style="stroke:#000000;stroke-width:1.0;" width="507" x="305.5" y="274.7813"/><path d="M493.5,274.7813 L493.5,284.7959 L483.5,294.7959 L305.5,294.7959 " fill="none" style="stroke:#000000;stroke-width:1.0;"/><text fill="#000000" font-family="Verdana" font-size="14" lengthAdjust="spacing" textLength="178" x="308.5" y="289.8564">Input/Output Parameters</text><path d="M526.5,311.7959 L526.5,344.3945 L506.5,348.3945 L526.5,352.3945 L526.5,384.9932 A0,0 0 0 0 526.5,384.9932 L802.5,384.9932 A0,0 0 0 0 802.5,384.9932 L802.5,321.7959 L792.5,311.7959 L526.5,311.7959 A0,0 0 0 0 526.5,311.7959 " fill="#FFFFFF" style="stroke:#000000;stroke-width:1.0;"/><path d="M792.5,311.7959 L792.5,321.7959 L802.5,321.7959 L792.5,311.7959 " fill="#FFFFFF" style="stroke:#000000;stroke-width:1.0;"/><text fill="#000000" font-family="Verdana" font-size="13" lengthAdjust="spacing" textLength="218" x="532.5" y="329.8657">@ScannedMaxId BIGINT OUTPUT</text><text fill="#000000" font-family="Verdana" font-size="13" lengthAdjust="spacing" textLength="5" x="532.5" y="345.665">&#160;</text><text fill="#000000" font-family="Verdana" font-size="13" lengthAdjust="spacing" textLength="255" x="532.5" y="361.4644">Purpose: Track maximum ID processed</text><text fill="#000000" font-family="Verdana" font-size="13" lengthAdjust="spacing" textLength="179" x="532.5" y="377.2637">for completion and cleanup</text><rect fill="#FFFFFF" height="34.584" rx="12.5" ry="12.5" style="stroke:#000000;stroke-width:1.0;" width="191" x="315.5" y="331.1025"/><text fill="#000000" font-family="Verdana" font-size="12" lengthAdjust="spacing" textLength="171" x="325.5" y="353.167">Declare OUTPUT parameter</text><rect fill="#FFFFFF" height="583.5962" style="stroke:#000000;stroke-width:1.0;" width="578" x="297" y="439.9932"/><path d="M516,439.9932 L516,450.0078 L506,460.0078 L297,460.0078 " fill="none" style="stroke:#000000;stroke-width:1.0;"/><text fill="#000000" font-family="Verdana" font-size="14" lengthAdjust="spacing" textLength="209" x="300" y="455.0684">Get New Place Bet Customers</text><path d="M532.5,477.0078 L532.5,517.5061 L512.5,521.5061 L532.5,525.5061 L532.5,566.0044 A0,0 0 0 0 532.5,566.0044 L741.5,566.0044 A0,0 0 0 0 741.5,566.0044 L741.5,487.0078 L731.5,477.0078 L532.5,477.0078 A0,0 0 0 0 532.5,477.0078 " fill="#FFFFFF" style="stroke:#000000;stroke-width:1.0;"/><path d="M731.5,477.0078 L731.5,487.0078 L741.5,487.0078 L731.5,477.0078 " fill="#FFFFFF" style="stroke:#000000;stroke-width:1.0;"/><text fill="#000000" font-family="Verdana" font-size="13" lengthAdjust="spacing" textLength="188" x="538.5" y="495.0776">CREATE TABLE #tmpResult (</text><text fill="#000000" font-family="Verdana" font-size="13" lengthAdjust="spacing" textLength="69" x="548.5" y="510.877">ID BIGINT,</text><text fill="#000000" font-family="Verdana" font-size="13" lengthAdjust="spacing" textLength="98" x="548.5" y="526.6763">CustId BIGINT,</text><text fill="#000000" font-family="Verdana" font-size="13" lengthAdjust="spacing" textLength="77" x="548.5" y="542.4756">SportId INT</text><text fill="#000000" font-family="Verdana" font-size="13" lengthAdjust="spacing" textLength="6" x="538.5" y="558.2749">)</text><rect fill="#FFFFFF" height="34.584" rx="12.5" ry="12.5" style="stroke:#000000;stroke-width:1.0;" width="203" x="309.5" y="504.2141"/><text fill="#000000" font-family="Verdana" font-size="12" lengthAdjust="spacing" textLength="183" x="319.5" y="526.2786">Create temp table for results</text><path d="M535,601.0044 L535,744.1982 L515,748.1982 L535,752.1982 L535,895.3921 A0,0 0 0 0 535,895.3921 L865,895.3921 A0,0 0 0 0 865,895.3921 L865,611.0044 L855,601.0044 L535,601.0044 A0,0 0 0 0 535,601.0044 " fill="#FFFFFF" style="stroke:#000000;stroke-width:1.0;"/><path d="M855,601.0044 L855,611.0044 L865,611.0044 L855,601.0044 " fill="#FFFFFF" style="stroke:#000000;stroke-width:1.0;"/><text fill="#000000" font-family="Verdana" font-size="13" lengthAdjust="spacing" textLength="166" x="541" y="619.0742">INSERT INTO #tmpResult</text><text fill="#000000" font-family="Verdana" font-size="13" lengthAdjust="spacing" textLength="127" x="541" y="634.8735">SELECT TOP 20000</text><text fill="#000000" font-family="Verdana" font-size="13" lengthAdjust="spacing" textLength="19" x="551" y="650.6729">ID,</text><text fill="#000000" font-family="Verdana" font-size="13" lengthAdjust="spacing" textLength="48" x="551" y="666.4722">CustId,</text><text fill="#000000" font-family="Verdana" font-size="13" lengthAdjust="spacing" textLength="49" x="551" y="682.2715">SportId</text><text fill="#000000" font-family="Verdana" font-size="13" lengthAdjust="spacing" textLength="309" x="541" y="698.0708">FROM CustomerClassification_RealtimeChanges</text><text fill="#000000" font-family="Verdana" font-size="13" lengthAdjust="spacing" textLength="122" x="541" y="713.8701">ORDER BY ID ASC;</text><text fill="#000000" font-family="Verdana" font-size="13" lengthAdjust="spacing" textLength="5" x="541" y="729.6694">&#160;</text><text fill="#000000" font-family="Verdana" font-size="13" font-weight="bold" lengthAdjust="spacing" textLength="59" x="541" y="745.4688">Purpose</text><text fill="#000000" font-family="Verdana" font-size="13" lengthAdjust="spacing" textLength="6" x="600" y="745.4688">:</text><text fill="#000000" font-family="Verdana" font-size="13" lengthAdjust="spacing" textLength="247" x="541" y="761.2681">- Get customers with new place bets</text><text fill="#000000" font-family="Verdana" font-size="13" lengthAdjust="spacing" textLength="216" x="541" y="777.0674">- Limit to 20000 for performance</text><text fill="#000000" font-family="Verdana" font-size="13" lengthAdjust="spacing" textLength="246" x="541" y="792.8667">- Order by ID to process sequentially</text><text fill="#000000" font-family="Verdana" font-size="13" lengthAdjust="spacing" textLength="5" x="541" y="808.666">&#160;</text><text fill="#000000" font-family="Verdana" font-size="13" font-weight="bold" lengthAdjust="spacing" textLength="111" x="541" y="824.4653">Table Structure</text><text fill="#000000" font-family="Verdana" font-size="13" lengthAdjust="spacing" textLength="6" x="652" y="824.4653">:</text><text fill="#000000" font-family="Verdana" font-size="13" lengthAdjust="spacing" textLength="240" x="541" y="840.2646">- ID (PK, IDENTITY): Incremental ID</text><text fill="#000000" font-family="Verdana" font-size="13" lengthAdjust="spacing" textLength="147" x="541" y="856.064">- CustId: Customer ID</text><text fill="#000000" font-family="Verdana" font-size="13" lengthAdjust="spacing" textLength="199" x="541" y="871.8633">- SportId: Sport ID of the bet</text><text fill="#000000" font-family="Verdana" font-size="13" lengthAdjust="spacing" textLength="249" x="541" y="887.6626">- CreatedDate: When bet was placed</text><rect fill="#FFFFFF" height="34.584" rx="12.5" ry="12.5" style="stroke:#000000;stroke-width:1.0;" width="208" x="307" y="730.9063"/><text fill="#000000" font-family="Verdana" font-size="12" lengthAdjust="spacing" textLength="188" x="317" y="752.9707">Query RealtimeChanges table</text><path d="M518,930.3921 L518,962.9907 L498,966.9907 L518,970.9907 L518,1003.5894 A0,0 0 0 0 518,1003.5894 L797,1003.5894 A0,0 0 0 0 797,1003.5894 L797,940.3921 L787,930.3921 L518,930.3921 A0,0 0 0 0 518,930.3921 " fill="#FFFFFF" style="stroke:#000000;stroke-width:1.0;"/><path d="M787,930.3921 L787,940.3921 L797,940.3921 L787,930.3921 " fill="#FFFFFF" style="stroke:#000000;stroke-width:1.0;"/><text fill="#000000" font-family="Verdana" font-size="13" lengthAdjust="spacing" textLength="238" x="524" y="948.4619">SELECT @ScannedMaxId = MAX(ID)</text><text fill="#000000" font-family="Verdana" font-size="13" lengthAdjust="spacing" textLength="123" x="524" y="964.2612">FROM #tmpResult;</text><text fill="#000000" font-family="Verdana" font-size="13" lengthAdjust="spacing" textLength="5" x="524" y="980.0605">&#160;</text><text fill="#000000" font-family="Verdana" font-size="13" lengthAdjust="spacing" textLength="258" x="524" y="995.8599">Used later to delete processed records</text><rect fill="#FFFFFF" height="34.584" rx="12.5" ry="12.5" style="stroke:#000000;stroke-width:1.0;" width="174" x="324" y="949.6987"/><text fill="#000000" font-family="Verdana" font-size="12" lengthAdjust="spacing" textLength="154" x="334" y="971.7632">Calculate ScannedMaxId</text><rect fill="#FFFFFF" height="294.5918" style="stroke:#000000;stroke-width:1.0;" width="661" x="259.5" y="1058.5894"/><path d="M395.5,1058.5894 L395.5,1068.604 L385.5,1078.604 L259.5,1078.604 " fill="none" style="stroke:#000000;stroke-width:1.0;"/><text fill="#000000" font-family="Verdana" font-size="14" lengthAdjust="spacing" textLength="126" x="262.5" y="1073.6646">Return Result Set</text><path d="M572.5,1095.604 L572.5,1175.6006 L552.5,1179.6006 L572.5,1183.6006 L572.5,1263.5972 A0,0 0 0 0 572.5,1263.5972 L910.5,1263.5972 A0,0 0 0 0 910.5,1263.5972 L910.5,1105.604 L900.5,1095.604 L572.5,1095.604 A0,0 0 0 0 572.5,1095.604 " fill="#FFFFFF" style="stroke:#000000;stroke-width:1.0;"/><path d="M900.5,1095.604 L900.5,1105.604 L910.5,1105.604 L900.5,1095.604 " fill="#FFFFFF" style="stroke:#000000;stroke-width:1.0;"/><text fill="#000000" font-family="Verdana" font-size="13" lengthAdjust="spacing" textLength="119" x="578.5" y="1113.6738">SELECT DISTINCT</text><text fill="#000000" font-family="Verdana" font-size="13" lengthAdjust="spacing" textLength="48" x="588.5" y="1129.4731">CustId,</text><text fill="#000000" font-family="Verdana" font-size="13" lengthAdjust="spacing" textLength="49" x="588.5" y="1145.2725">SportId</text><text fill="#000000" font-family="Verdana" font-size="13" lengthAdjust="spacing" textLength="117" x="578.5" y="1161.0718">FROM #tmpResult</text><text fill="#000000" font-family="Verdana" font-size="13" lengthAdjust="spacing" textLength="178" x="578.5" y="1176.8711">ORDER BY CustId, SportId;</text><text fill="#000000" font-family="Verdana" font-size="13" lengthAdjust="spacing" textLength="5" x="578.5" y="1192.6704">&#160;</text><text fill="#000000" font-family="Verdana" font-size="13" font-weight="bold" lengthAdjust="spacing" textLength="111" x="578.5" y="1208.4697">Why DISTINCT?</text><text fill="#000000" font-family="Verdana" font-size="13" lengthAdjust="spacing" textLength="281" x="578.5" y="1224.269">- Same customer might have multiple bets</text><text fill="#000000" font-family="Verdana" font-size="13" lengthAdjust="spacing" textLength="317" x="578.5" y="1240.0684">- We only need to process each customer once</text><text fill="#000000" font-family="Verdana" font-size="13" lengthAdjust="spacing" textLength="274" x="578.5" y="1255.8677">- SportId included for sport-specific logic</text><rect fill="#FFFFFF" height="34.584" rx="12.5" ry="12.5" style="stroke:#000000;stroke-width:1.0;" width="283" x="269.5" y="1162.3086"/><text fill="#000000" font-family="Verdana" font-size="12" lengthAdjust="spacing" textLength="263" x="279.5" y="1184.373">Prepare result set with distinct customers</text><rect fill="#FFFFFF" height="34.584" rx="12.5" ry="12.5" style="stroke:#000000;stroke-width:1.0;" width="263" x="279.5" y="1298.5972"/><text fill="#000000" font-family="Verdana" font-size="12" lengthAdjust="spacing" textLength="243" x="289.5" y="1320.6616">Return ResultSet + OUTPUT parameter</text><rect fill="#FFFFFF" height="496.1982" style="stroke:#000000;stroke-width:1.0;" width="546" x="323.5" y="1388.1812"/><path d="M389.5,1388.1812 L389.5,1398.1958 L379.5,1408.1958 L323.5,1408.1958 " fill="none" style="stroke:#000000;stroke-width:1.0;"/><text fill="#000000" font-family="Verdana" font-size="14" lengthAdjust="spacing" textLength="56" x="326.5" y="1403.2563">Cleanup</text><path d="M580,1435.1958 L580,1460.9951 L768,1460.9951 L768,1445.1958 L758,1435.1958 L580,1435.1958 " fill="#FFFFFF" style="stroke:#000000;stroke-width:1.0;"/><path d="M758,1435.1958 L758,1445.1958 L768,1445.1958 L758,1435.1958 " fill="#FFFFFF" style="stroke:#000000;stroke-width:1.0;"/><text fill="#000000" font-family="Verdana" font-size="13" lengthAdjust="spacing" textLength="167" x="586" y="1453.2656">DROP TABLE #tmpResult;</text><path d="M498.5,1480.9951 L498.5,1854.3794 L849.5,1854.3794 L849.5,1490.9951 L839.5,1480.9951 L498.5,1480.9951 " fill="#FFFFFF" style="stroke:#000000;stroke-width:1.0;"/><path d="M839.5,1480.9951 L839.5,1490.9951 L849.5,1490.9951 L839.5,1480.9951 " fill="#FFFFFF" style="stroke:#000000;stroke-width:1.0;"/><text fill="#000000" font-family="Verdana" font-size="13" font-weight="bold" lengthAdjust="spacing" textLength="69" x="504.5" y="1499.0649">Key Logic</text><text fill="#000000" font-family="Verdana" font-size="13" lengthAdjust="spacing" textLength="6" x="573.5" y="1499.0649">:</text><text fill="#000000" font-family="Verdana" font-size="13" lengthAdjust="spacing" textLength="322" x="504.5" y="1514.8643">1. Get TOP 20000 records from RealtimeChanges</text><text fill="#000000" font-family="Verdana" font-size="13" lengthAdjust="spacing" textLength="285" x="504.5" y="1530.6636">2. Order by ID ASC (sequential processing)</text><text fill="#000000" font-family="Verdana" font-size="13" lengthAdjust="spacing" textLength="322" x="504.5" y="1546.4629">3. Return DISTINCT customers (CustId, SportId)</text><text fill="#000000" font-family="Verdana" font-size="13" lengthAdjust="spacing" textLength="244" x="504.5" y="1562.2622">4. Output ScannedMaxId for cleanup</text><text fill="#000000" font-family="Verdana" font-size="13" lengthAdjust="spacing" textLength="5" x="504.5" y="1578.0615">&#160;</text><text fill="#000000" font-family="Verdana" font-size="13" font-weight="bold" lengthAdjust="spacing" textLength="120" x="504.5" y="1593.8608">Tables Accessed</text><text fill="#000000" font-family="Verdana" font-size="13" lengthAdjust="spacing" textLength="6" x="624.5" y="1593.8608">:</text><text fill="#000000" font-family="Verdana" font-size="13" lengthAdjust="spacing" textLength="330" x="504.5" y="1609.6602">- CustomerClassification_RealtimeChanges (READ)</text><text fill="#000000" font-family="Verdana" font-size="13" lengthAdjust="spacing" textLength="134" x="514.5" y="1625.4595">* ID (PK, IDENTITY)</text><text fill="#000000" font-family="Verdana" font-size="13" lengthAdjust="spacing" textLength="176" x="514.5" y="1641.2588">* CustId (FK to Customer)</text><text fill="#000000" font-family="Verdana" font-size="13" lengthAdjust="spacing" textLength="161" x="514.5" y="1657.0581">* SportId (Sport of bet)</text><text fill="#000000" font-family="Verdana" font-size="13" lengthAdjust="spacing" textLength="185" x="514.5" y="1672.8574">* CreatedDate (Timestamp)</text><text fill="#000000" font-family="Verdana" font-size="13" lengthAdjust="spacing" textLength="5" x="504.5" y="1688.6567">&#160;</text><text fill="#000000" font-family="Verdana" font-size="13" font-weight="bold" lengthAdjust="spacing" textLength="93" x="504.5" y="1704.4561">Performance</text><text fill="#000000" font-family="Verdana" font-size="13" lengthAdjust="spacing" textLength="6" x="597.5" y="1704.4561">:</text><text fill="#000000" font-family="Verdana" font-size="13" lengthAdjust="spacing" textLength="232" x="504.5" y="1720.2554">- TOP 20000: Limits memory usage</text><text fill="#000000" font-family="Verdana" font-size="13" lengthAdjust="spacing" textLength="190" x="504.5" y="1736.0547">- INDEX on ID: Fast ordering</text><text fill="#000000" font-family="Verdana" font-size="13" lengthAdjust="spacing" textLength="217" x="504.5" y="1751.854">- DISTINCT: Removes duplicates</text><text fill="#000000" font-family="Verdana" font-size="13" lengthAdjust="spacing" textLength="238" x="504.5" y="1767.6533">- Temp table: Avoids multiple scans</text><text fill="#000000" font-family="Verdana" font-size="13" lengthAdjust="spacing" textLength="5" x="504.5" y="1783.4526">&#160;</text><text fill="#000000" font-family="Verdana" font-size="13" font-weight="bold" lengthAdjust="spacing" textLength="51" x="504.5" y="1799.252">Trigger</text><text fill="#000000" font-family="Verdana" font-size="13" lengthAdjust="spacing" textLength="6" x="555.5" y="1799.252">:</text><text fill="#000000" font-family="Verdana" font-size="13" lengthAdjust="spacing" textLength="247" x="504.5" y="1815.0513">- Records inserted by betting system</text><text fill="#000000" font-family="Verdana" font-size="13" lengthAdjust="spacing" textLength="166" x="504.5" y="1830.8506">- On each new place bet</text><text fill="#000000" font-family="Verdana" font-size="13" lengthAdjust="spacing" textLength="165" x="504.5" y="1846.6499">- Real-time data capture</text><rect fill="#FFFFFF" height="34.584" rx="12.5" ry="12.5" style="stroke:#000000;stroke-width:1.0;" width="155" x="333.5" y="1627.4956"/><text fill="#000000" font-family="Verdana" font-size="12" lengthAdjust="spacing" textLength="135" x="343.5" y="1649.5601">Drop temporary table</text><ellipse cx="411" cy="1930.3794" fill="none" rx="11" ry="11" style="stroke:#000000;stroke-width:1.0;"/><ellipse cx="411" cy="1930.3794" fill="#FFFFFF" rx="6" ry="6" style="stroke:#000000;stroke-width:1.0;"/><line style="stroke:#000000;stroke-width:1.0;" x1="411" x2="411" y1="164.7813" y2="219.7813"/><polygon fill="#000000" points="407,209.7813,411,219.7813,415,209.7813,411,213.7813" style="stroke:#000000;stroke-width:1.0;"/><line style="stroke:#000000;stroke-width:1.0;" x1="411" x2="411" y1="239.7813" y2="331.1025"/><polygon fill="#000000" points="407,321.1025,411,331.1025,415,321.1025,411,325.1025" style="stroke:#000000;stroke-width:1.0;"/><line style="stroke:#000000;stroke-width:1.0;" x1="411" x2="411" y1="538.7981" y2="730.9063"/><polygon fill="#000000" points="407,720.9063,411,730.9063,415,720.9063,411,724.9063" style="stroke:#000000;stroke-width:1.0;"/><line style="stroke:#000000;stroke-width:1.0;" x1="411" x2="411" y1="765.4902" y2="949.6987"/><polygon fill="#000000" points="407,939.6987,411,949.6987,415,939.6987,411,943.6987" style="stroke:#000000;stroke-width:1.0;"/><line style="stroke:#000000;stroke-width:1.0;" x1="411" x2="411" y1="365.6865" y2="504.2141"/><polygon fill="#000000" points="407,494.2141,411,504.2141,415,494.2141,411,498.2141" style="stroke:#000000;stroke-width:1.0;"/><line style="stroke:#000000;stroke-width:1.0;" x1="411" x2="411" y1="1196.8926" y2="1298.5972"/><polygon fill="#000000" points="407,1288.5972,411,1298.5972,415,1288.5972,411,1292.5972" style="stroke:#000000;stroke-width:1.0;"/><line style="stroke:#000000;stroke-width:1.0;" x1="411" x2="411" y1="984.2827" y2="1162.3086"/><polygon fill="#000000" points="407,1152.3086,411,1162.3086,415,1152.3086,411,1156.3086" style="stroke:#000000;stroke-width:1.0;"/><line style="stroke:#000000;stroke-width:1.0;" x1="411" x2="411" y1="1333.1812" y2="1627.4956"/><polygon fill="#000000" points="407,1617.4956,411,1627.4956,415,1617.4956,411,1621.4956" style="stroke:#000000;stroke-width:1.0;"/><line style="stroke:#000000;stroke-width:1.0;" x1="411" x2="411" y1="1662.0796" y2="1919.3794"/><polygon fill="#000000" points="407,1909.3794,411,1919.3794,415,1909.3794,411,1913.3794" style="stroke:#000000;stroke-width:1.0;"/><!--SRC=[dLPHSwCs47xdLspJ5uTUqZJN9pATri7E3HF7ve0qTqyP1JOsKo5HIIJdkUb_xme4ndQkqzOF8KWhwTjll_t4TsQ35KBDMIayKngEa1gfi81OoHoBHc40OPO-Va21Yl6bL1NZ8MTQbyzbpamfnME2Z6TbXHHamWqJQzHm1ZCqhEIqqmsNhvwNCrN0YU-dyV_QqFTFW6b8O_Zg0IZC3GqJMjfnnWnxOXfzFu0dMJmz_fvStia2EKpIZmj8KRsWEcsNpwuF5zjZP6FislSN5w0nbwBGRR2RylxoF6sOCfvNqz_I8eIJIDID-N7L67f0p1IhqA2YXHPUCCESCuMmki_Y-mpgVlwA9eKq2AfSRmozsDzlQSw4mEAEVOaAk8u-HClChNGHxX4tgfQQ2f8fbly15VjILaq5qGngMoojiN2Hpr91BgkQOukMYG9oZamqDGKWlLaGDh5HHiGrBF4LOivoX6jw2njjPBNBAbJ82Bl1gWQYd0YqvoZK3JVwpTJ2P3xDvf1DhnTp-DvKTT86myJDWmNVPVnk6BB73aJiXjDQAZjEWsxiT9nCorBmiK6r1QiVGzNhnTY2VHDWj4pdIMRtN8tmkSbqlfY76MIh62ulw3S2VOZs2APxlqbMTmEFRwXyXDAjM2MpUGBNdoqpqpIysfU0xpiHa63Tq1dOokLzhU2rD1iGLCYwBUGJ6Zr4BiggD61abqzRlXhLi-r1aUCGjb85AdZQMWmKxDH5pV5dWyAKZFFj8QoirKDgL9CRCeqnFDfa4j- -e-TycKNPvzC08f4hyXrX6AVX8RBZCXW86yyvNeFk7xkfV0PoBvlWReDMeGKv0dN9mmQ5dOLNQkQMZE9OC27ZUSEjhCTT-APMd1pss_KNk9j-caIpqt71TqewADyzjIZOqvJbbIoAJ67NlDQPf2hqjtiqGI9NWEkY58thp5XXRVscwqKgbEbaK9JQb28VoUEVCfj5QHOjm-o_QFkeQGRzkiNzeYCXFsosmuc_-lwkq6IL0rweB4pOi1U4YWufoTBs9Vs080NVakA9m95OaUMRtJPoBE_UIOWPtXIqpFQ1jeDdkiRSTYXmkIxpOxdi5O3uXn_UyFZzceMTyVOtWv9rww1ICNAgRplJB27REJJEgmDfxAto_LlSmi82xzhlf_FM6WR_wlK5pqfMS6m_b-TxdK_k0vDTp_VCbc9jnVx-71mPVH577ZGvABvTy3FjtbsNUmtKNbN3tUGDNg9XcdTjqILpzYzj52PqvxXsz8-znusxEsPoSsirq-_Sp_O2cNHUGqP3aXkMxZm69lORWJuEglgq1n_l_BG7FXGWw0nOGuMLfEetcgsn3OcMi_adKYa13U26QJhKLeAuRgTxYWFYl98lb6NHrDmoq1QEZXZkv02cBxAa8W_jeebkFN1BQbcZwg4bJX6bqAWeArjwofLCOmrwgqceRTXATFsqTwsu3HW_i_H3GPzXaBFQshytY9G-dMJj_Gq0]--></g></svg>