<svg xmlns="http://www.w3.org/2000/svg" xmlns:xlink="http://www.w3.org/1999/xlink" contentStyleType="text/css" height="1750px" preserveAspectRatio="none" style="width:891px;height:1750px;background:#FFFFFF;" version="1.1" viewBox="0 0 891 1750" width="891px" zoomAndPan="magnify"><defs/><g><text fill="#000000" font-family="Verdana" font-size="22" font-weight="bold" lengthAdjust="spacing" textLength="830" x="29" y="37.1182">Normal Account Classification By Sport - SP Classify Detailed Flow</text><ellipse cx="187" cy="62.7373" fill="#FFFFFF" rx="10" ry="10" style="stroke:#000000;stroke-width:1.0;"/><path d="M388,89.23 L388,106.0293 L368,110.0293 L388,114.0293 L388,130.8286 A0,0 0 0 0 388,130.8286 L676,130.8286 A0,0 0 0 0 676,130.8286 L676,99.23 L666,89.23 L388,89.23 A0,0 0 0 0 388,89.23 " fill="#FFFFFF" style="stroke:#000000;stroke-width:1.0;"/><path d="M666,89.23 L666,99.23 L676,99.23 L666,89.23 " fill="#FFFFFF" style="stroke:#000000;stroke-width:1.0;"/><text fill="#000000" font-family="Verdana" font-size="13" lengthAdjust="spacing" textLength="267" x="394" y="107.2998">Database: bodb_VR2Model (SQL Server)</text><text fill="#000000" font-family="Verdana" font-size="13" lengthAdjust="spacing" textLength="231" x="394" y="123.0991">Parameter: @CustomersXML (XML)</text><rect fill="#FFFFFF" height="34.584" rx="12.5" ry="12.5" style="stroke:#000000;stroke-width:1.0;" width="362" x="6" y="92.7373"/><text fill="#000000" font-family="Verdana" font-size="12" lengthAdjust="spacing" textLength="342" x="16" y="114.8018">CTS_BySportNormalClassification_NormalPool_Classify</text><path d="M278,140.8286 L278,212.9255 L258,216.9255 L278,220.9255 L278,293.0225 A0,0 0 0 0 278,293.0225 L525,293.0225 A0,0 0 0 0 525,293.0225 L525,150.8286 L515,140.8286 L278,140.8286 A0,0 0 0 0 278,140.8286 " fill="#FFFFFF" style="stroke:#000000;stroke-width:1.0;"/><path d="M515,140.8286 L515,150.8286 L525,150.8286 L515,140.8286 " fill="#FFFFFF" style="stroke:#000000;stroke-width:1.0;"/><text fill="#000000" font-family="Verdana" font-size="13" lengthAdjust="spacing" textLength="138" x="284" y="158.8984">Category Constants:</text><text fill="#000000" font-family="Verdana" font-size="13" lengthAdjust="spacing" textLength="150" x="284" y="174.6978">- CATEGORY_NULL = 0</text><text fill="#000000" font-family="Verdana" font-size="13" lengthAdjust="spacing" textLength="180" x="284" y="190.4971">- CATEGORY_NEW = 40100</text><text fill="#000000" font-family="Verdana" font-size="13" lengthAdjust="spacing" textLength="204" x="284" y="206.2964">- CATEGORY_NORMAL = 40300</text><text fill="#000000" font-family="Verdana" font-size="13" lengthAdjust="spacing" textLength="188" x="284" y="222.0957">- CATEGORY_GOOD = 40200</text><text fill="#000000" font-family="Verdana" font-size="13" lengthAdjust="spacing" textLength="226" x="284" y="237.895">- CATEGORY_PROBATION = 40400</text><text fill="#000000" font-family="Verdana" font-size="13" lengthAdjust="spacing" textLength="196" x="284" y="253.6943">- CATEGORY_SMART = 40500</text><text fill="#000000" font-family="Verdana" font-size="13" lengthAdjust="spacing" textLength="189" x="284" y="269.4937">- CATEGORY_RISKY = 40600</text><text fill="#000000" font-family="Verdana" font-size="13" lengthAdjust="spacing" textLength="185" x="284" y="285.293">- CATEGORY_CCRESET = -1</text><rect fill="#FFFFFF" height="34.584" rx="12.5" ry="12.5" style="stroke:#000000;stroke-width:1.0;" width="142" x="116" y="199.6335"/><text fill="#000000" font-family="Verdana" font-size="12" lengthAdjust="spacing" textLength="122" x="126" y="221.698">Initialize Constants</text><path d="M280,303.0225 L280,422.5173 L260,426.5173 L280,430.5173 L280,550.0122 A0,0 0 0 0 280,550.0122 L608,550.0122 A0,0 0 0 0 608,550.0122 L608,313.0225 L598,303.0225 L280,303.0225 A0,0 0 0 0 280,303.0225 " fill="#FFFFFF" style="stroke:#000000;stroke-width:1.0;"/><path d="M598,303.0225 L598,313.0225 L608,313.0225 L598,303.0225 " fill="#FFFFFF" style="stroke:#000000;stroke-width:1.0;"/><text fill="#000000" font-family="Verdana" font-size="13" lengthAdjust="spacing" textLength="13" x="286" y="321.0923">1.</text><text fill="#000000" font-family="Verdana" font-size="13" lengthAdjust="spacing" textLength="100" x="304" y="321.0923">tmpCustomers:</text><text fill="#000000" font-family="Verdana" font-size="13" lengthAdjust="spacing" textLength="139" x="286" y="336.8916">- CustId, SportGroup</text><text fill="#000000" font-family="Verdana" font-size="13" lengthAdjust="spacing" textLength="257" x="286" y="352.6909">- CurrentCategoryId, IsCheckBetCount</text><text fill="#000000" font-family="Verdana" font-size="13" lengthAdjust="spacing" textLength="307" x="286" y="368.4902">- IsProbationLastDay, IsPlaceBetWithin30Days</text><text fill="#000000" font-family="Verdana" font-size="13" lengthAdjust="spacing" textLength="5" x="286" y="384.2896">&#160;</text><text fill="#000000" font-family="Verdana" font-size="13" lengthAdjust="spacing" textLength="13" x="286" y="400.0889">2.</text><text fill="#000000" font-family="Verdana" font-size="13" lengthAdjust="spacing" textLength="89" x="304" y="400.0889">tmpRawData:</text><text fill="#000000" font-family="Verdana" font-size="13" lengthAdjust="spacing" textLength="139" x="286" y="415.8882">- CustId, SportGroup</text><text fill="#000000" font-family="Verdana" font-size="13" lengthAdjust="spacing" textLength="168" x="286" y="431.6875">- TurnoverRM, WinlossRM</text><text fill="#000000" font-family="Verdana" font-size="13" lengthAdjust="spacing" textLength="194" x="286" y="447.4868">- BetCount, ActiveDays, etc.</text><text fill="#000000" font-family="Verdana" font-size="13" lengthAdjust="spacing" textLength="5" x="286" y="463.2861">&#160;</text><text fill="#000000" font-family="Verdana" font-size="13" lengthAdjust="spacing" textLength="13" x="286" y="479.0854">3.</text><text fill="#000000" font-family="Verdana" font-size="13" lengthAdjust="spacing" textLength="215" x="304" y="479.0854">tmpCustomerAccummulatedInfo:</text><text fill="#000000" font-family="Verdana" font-size="13" lengthAdjust="spacing" textLength="139" x="286" y="494.8848">- CustId, SportGroup</text><text fill="#000000" font-family="Verdana" font-size="13" lengthAdjust="spacing" textLength="245" x="286" y="510.6841">- CurrentCategoryId, NewCategoryId</text><text fill="#000000" font-family="Verdana" font-size="13" lengthAdjust="spacing" textLength="221" x="286" y="526.4834">- TurnoverRM, WinlossRM, Margin</text><text fill="#000000" font-family="Verdana" font-size="13" lengthAdjust="spacing" textLength="253" x="286" y="542.2827">- BetCount, ActiveDays, WinDaysRate</text><rect fill="#FFFFFF" height="34.584" rx="12.5" ry="12.5" style="stroke:#000000;stroke-width:1.0;" width="146" x="114" y="409.2253"/><text fill="#000000" font-family="Verdana" font-size="12" lengthAdjust="spacing" textLength="126" x="124" y="431.2898">Create Temp Tables</text><path d="M295,560.0122 L295,600.5105 L275,604.5105 L295,608.5105 L295,649.0088 A0,0 0 0 0 295,649.0088 L596,649.0088 A0,0 0 0 0 596,649.0088 L596,570.0122 L586,560.0122 L295,560.0122 A0,0 0 0 0 295,560.0122 " fill="#FFFFFF" style="stroke:#000000;stroke-width:1.0;"/><path d="M586,560.0122 L586,570.0122 L596,570.0122 L586,560.0122 " fill="#FFFFFF" style="stroke:#000000;stroke-width:1.0;"/><text fill="#000000" font-family="Verdana" font-size="13" lengthAdjust="spacing" textLength="195" x="301" y="578.082">INSERT INTO #tmpCustomers</text><text fill="#000000" font-family="Verdana" font-size="13" lengthAdjust="spacing" textLength="182" x="301" y="593.8813">SELECT CustId, SportGroup</text><text fill="#000000" font-family="Verdana" font-size="13" lengthAdjust="spacing" textLength="255" x="326" y="609.6807">, CurrentCategoryId, IsCheckBetCount</text><text fill="#000000" font-family="Verdana" font-size="13" lengthAdjust="spacing" textLength="137" x="326" y="625.48">, IsProbationLastDay</text><text fill="#000000" font-family="Verdana" font-size="13" lengthAdjust="spacing" textLength="230" x="301" y="641.2793">FROM @CustomersXML.nodes('//r')</text><rect fill="#FFFFFF" height="34.584" rx="12.5" ry="12.5" style="stroke:#000000;stroke-width:1.0;" width="176" x="99" y="587.2185"/><text fill="#000000" font-family="Verdana" font-size="12" lengthAdjust="spacing" textLength="156" x="109" y="609.283">Parse XML Customer List</text><path d="M304.5,659.0088 L304.5,691.6074 L284.5,695.6074 L304.5,699.6074 L304.5,732.2061 A0,0 0 0 0 304.5,732.2061 L867.5,732.2061 A0,0 0 0 0 867.5,732.2061 L867.5,669.0088 L857.5,659.0088 L304.5,659.0088 A0,0 0 0 0 304.5,659.0088 " fill="#FFFFFF" style="stroke:#000000;stroke-width:1.0;"/><path d="M857.5,659.0088 L857.5,669.0088 L867.5,669.0088 L857.5,659.0088 " fill="#FFFFFF" style="stroke:#000000;stroke-width:1.0;"/><text fill="#000000" font-family="Verdana" font-size="13" lengthAdjust="spacing" textLength="200" x="310.5" y="677.0786">DELETE FROM #tmpCustomers</text><text fill="#000000" font-family="Verdana" font-size="13" lengthAdjust="spacing" textLength="191" x="310.5" y="692.8779">WHERE IsCheckBetCount = 1</text><text fill="#000000" font-family="Verdana" font-size="13" lengthAdjust="spacing" textLength="206" x="320.5" y="708.6772">AND CurrentCategoryId NOT IN</text><text fill="#000000" font-family="Verdana" font-size="13" lengthAdjust="spacing" textLength="512" x="340.5" y="724.4766">(CATEGORY_NULL, CATEGORY_NEW, CATEGORY_NORMAL, CATEGORY_GOOD)</text><rect fill="#FFFFFF" height="34.584" rx="12.5" ry="12.5" style="stroke:#000000;stroke-width:1.0;" width="195" x="89.5" y="678.3154"/><text fill="#000000" font-family="Verdana" font-size="12" lengthAdjust="spacing" textLength="175" x="99.5" y="700.3799">Filter Realtime Classification</text><path d="M311,742.2061 L311,774.8047 L291,778.8047 L311,782.8047 L311,815.4033 A0,0 0 0 0 311,815.4033 L738,815.4033 A0,0 0 0 0 738,815.4033 L738,752.2061 L728,742.2061 L311,742.2061 A0,0 0 0 0 311,742.2061 " fill="#FFFFFF" style="stroke:#000000;stroke-width:1.0;"/><path d="M728,742.2061 L728,752.2061 L738,752.2061 L728,742.2061 " fill="#FFFFFF" style="stroke:#000000;stroke-width:1.0;"/><text fill="#000000" font-family="Verdana" font-size="13" lengthAdjust="spacing" textLength="264" x="317" y="760.2759">Build @ListCustIds from #tmpCustomers</text><text fill="#000000" font-family="Verdana" font-size="13" lengthAdjust="spacing" textLength="406" x="317" y="776.0752">EXEC bodb_dwrs.dbo.Acc_Rpt_CTS_GetCustAccumulatedInfo</text><text fill="#000000" font-family="Verdana" font-size="13" lengthAdjust="spacing" textLength="333" x="317" y="791.8745">@ListCustID = @ListCustIds, @isResetBalance = 0</text><text fill="#000000" font-family="Verdana" font-size="13" lengthAdjust="spacing" textLength="184" x="317" y="807.6738">INSERT INTO #tmpRawData</text><rect fill="#FFFFFF" height="34.584" rx="12.5" ry="12.5" style="stroke:#000000;stroke-width:1.0;" width="208" x="83" y="761.5127"/><text fill="#000000" font-family="Verdana" font-size="12" lengthAdjust="spacing" textLength="188" x="93" y="783.5771">Get Accumulated Performance</text><path d="M284.5,825.4033 L284.5,850.1023 L264.5,854.1023 L284.5,858.1023 L284.5,882.8013 A0,0 0 0 0 284.5,882.8013 L538.5,882.8013 A0,0 0 0 0 538.5,882.8013 L538.5,835.4033 L528.5,825.4033 L284.5,825.4033 A0,0 0 0 0 284.5,825.4033 " fill="#FFFFFF" style="stroke:#000000;stroke-width:1.0;"/><path d="M528.5,825.4033 L528.5,835.4033 L538.5,835.4033 L528.5,825.4033 " fill="#FFFFFF" style="stroke:#000000;stroke-width:1.0;"/><text fill="#000000" font-family="Verdana" font-size="13" lengthAdjust="spacing" textLength="189" x="290.5" y="843.4731">DELETE FROM #tmpRawData</text><text fill="#000000" font-family="Verdana" font-size="13" lengthAdjust="spacing" textLength="139" x="290.5" y="859.2725">WHERE BetCount = 0</text><text fill="#000000" font-family="Verdana" font-size="13" lengthAdjust="spacing" textLength="218" x="305.5" y="875.0718">OR SportGroup = SPORT_PARLAY</text><rect fill="#FFFFFF" height="34.584" rx="12.5" ry="12.5" style="stroke:#000000;stroke-width:1.0;" width="155" x="109.5" y="836.8103"/><text fill="#000000" font-family="Verdana" font-size="12" lengthAdjust="spacing" textLength="135" x="119.5" y="858.8748">Filter No Performance</text><path d="M302,892.8013 L302,972.7979 L282,976.7979 L302,980.7979 L302,1060.7944 A0,0 0 0 0 302,1060.7944 L664,1060.7944 A0,0 0 0 0 664,1060.7944 L664,902.8013 L654,892.8013 L302,892.8013 A0,0 0 0 0 302,892.8013 " fill="#FFFFFF" style="stroke:#000000;stroke-width:1.0;"/><path d="M654,892.8013 L654,902.8013 L664,902.8013 L654,892.8013 " fill="#FFFFFF" style="stroke:#000000;stroke-width:1.0;"/><text fill="#000000" font-family="Verdana" font-size="13" lengthAdjust="spacing" textLength="310" x="308" y="910.8711">INSERT INTO #tmpCustomerAccummulatedInfo</text><text fill="#000000" font-family="Verdana" font-size="13" lengthAdjust="spacing" textLength="182" x="308" y="926.6704">SELECT CustId, SportGroup</text><text fill="#000000" font-family="Verdana" font-size="13" lengthAdjust="spacing" textLength="166" x="333" y="942.4697">, TurnoverRM, WinlossRM</text><text fill="#000000" font-family="Verdana" font-size="13" lengthAdjust="spacing" textLength="277" x="333" y="958.269">, Margin = WinlossRM / TurnoverRM * 100</text><text fill="#000000" font-family="Verdana" font-size="13" lengthAdjust="spacing" textLength="155" x="333" y="974.0684">, BetCount, ActiveDays</text><text fill="#000000" font-family="Verdana" font-size="13" lengthAdjust="spacing" textLength="316" x="333" y="989.8677">, WinDaysRate = (WinDays / ActiveDays) * 100</text><text fill="#000000" font-family="Verdana" font-size="13" lengthAdjust="spacing" textLength="255" x="333" y="1005.667">, CurrentCategoryId, IsCheckBetCount</text><text fill="#000000" font-family="Verdana" font-size="13" lengthAdjust="spacing" textLength="137" x="333" y="1021.4663">, IsProbationLastDay</text><text fill="#000000" font-family="Verdana" font-size="13" lengthAdjust="spacing" textLength="135" x="308" y="1037.2656">FROM #tmpRawData</text><text fill="#000000" font-family="Verdana" font-size="13" lengthAdjust="spacing" textLength="183" x="308" y="1053.0649">INNER JOIN #tmpCustomers</text><rect fill="#FFFFFF" height="34.584" rx="12.5" ry="12.5" style="stroke:#000000;stroke-width:1.0;" width="190" x="92" y="959.5059"/><text fill="#000000" font-family="Verdana" font-size="12" lengthAdjust="spacing" textLength="170" x="102" y="981.5703">Calculate Accumulated Info</text><path d="M316.5,1070.7944 L316.5,1103.3931 L296.5,1107.3931 L316.5,1111.3931 L316.5,1143.9917 A0,0 0 0 0 316.5,1143.9917 L704.5,1143.9917 A0,0 0 0 0 704.5,1143.9917 L704.5,1080.7944 L694.5,1070.7944 L316.5,1070.7944 A0,0 0 0 0 316.5,1070.7944 " fill="#FFFFFF" style="stroke:#000000;stroke-width:1.0;"/><path d="M694.5,1070.7944 L694.5,1080.7944 L704.5,1080.7944 L694.5,1070.7944 " fill="#FFFFFF" style="stroke:#000000;stroke-width:1.0;"/><text fill="#000000" font-family="Verdana" font-size="13" lengthAdjust="spacing" textLength="161" x="322.5" y="1088.8643">UPDATE #tmpCustomers</text><text fill="#000000" font-family="Verdana" font-size="13" lengthAdjust="spacing" textLength="216" x="322.5" y="1104.6636">SET IsPlaceBetWithin30Days = 1</text><text fill="#000000" font-family="Verdana" font-size="13" lengthAdjust="spacing" textLength="367" x="322.5" y="1120.4629">FROM CustomerClassification_BySport_LatestActiveDay</text><text fill="#000000" font-family="Verdana" font-size="13" lengthAdjust="spacing" textLength="254" x="322.5" y="1136.2622">WHERE LastTransDate &gt;= From30Date</text><rect fill="#FFFFFF" height="34.584" rx="12.5" ry="12.5" style="stroke:#000000;stroke-width:1.0;" width="219" x="77.5" y="1090.1011"/><text fill="#000000" font-family="Verdana" font-size="12" lengthAdjust="spacing" textLength="199" x="87.5" y="1112.1655">Check Place Bet Within 30 Days</text><path d="M285,1153.9917 L285,1202.3896 L265,1206.3896 L285,1210.3896 L285,1258.7876 A0,0 0 0 0 285,1258.7876 L884,1258.7876 A0,0 0 0 0 884,1258.7876 L884,1163.9917 L874,1153.9917 L285,1153.9917 A0,0 0 0 0 285,1153.9917 " fill="#FFFFFF" style="stroke:#000000;stroke-width:1.0;"/><path d="M874,1153.9917 L874,1163.9917 L884,1163.9917 L874,1153.9917 " fill="#FFFFFF" style="stroke:#000000;stroke-width:1.0;"/><text fill="#000000" font-family="Verdana" font-size="13" lengthAdjust="spacing" textLength="315" x="291" y="1172.0615">DELETE FROM #tmpCustomerAccummulatedInfo</text><text fill="#000000" font-family="Verdana" font-size="13" lengthAdjust="spacing" textLength="191" x="291" y="1187.8608">WHERE IsCheckBetCount = 1</text><text fill="#000000" font-family="Verdana" font-size="13" lengthAdjust="spacing" textLength="38" x="301" y="1203.6602">AND (</text><text fill="#000000" font-family="Verdana" font-size="13" lengthAdjust="spacing" textLength="517" x="321" y="1219.4595">(CurrentCategoryId = CATEGORY_GOOD AND BetCount - LastBetCount &lt; 100)</text><text fill="#000000" font-family="Verdana" font-size="13" lengthAdjust="spacing" textLength="548" x="321" y="1235.2588">OR (CurrentCategoryId = CATEGORY_NORMAL AND BetCount - LastBetCount &lt; 20)</text><text fill="#000000" font-family="Verdana" font-size="13" lengthAdjust="spacing" textLength="6" x="301" y="1251.0581">)</text><rect fill="#FFFFFF" height="34.584" rx="12.5" ry="12.5" style="stroke:#000000;stroke-width:1.0;" width="156" x="109" y="1189.0977"/><text fill="#000000" font-family="Verdana" font-size="12" lengthAdjust="spacing" textLength="136" x="119" y="1211.1621">Filter BetCount Check</text><path d="M322,1268.7876 L322,1332.9849 L302,1336.9849 L322,1340.9849 L322,1405.1821 A0,0 0 0 0 322,1405.1821 L768,1405.1821 A0,0 0 0 0 768,1405.1821 L768,1278.7876 L758,1268.7876 L322,1268.7876 A0,0 0 0 0 322,1268.7876 " fill="#FFFFFF" style="stroke:#000000;stroke-width:1.0;"/><path d="M758,1268.7876 L758,1278.7876 L768,1278.7876 L758,1268.7876 " fill="#FFFFFF" style="stroke:#000000;stroke-width:1.0;"/><text fill="#000000" font-family="Verdana" font-size="13" lengthAdjust="spacing" textLength="391" x="328" y="1286.8574">UPDATE CustomerClassification_BySport_ScannedDailyCust</text><text fill="#000000" font-family="Verdana" font-size="13" lengthAdjust="spacing" textLength="213" x="328" y="1302.6567">SET CreatedDate = CurrentDate</text><text fill="#000000" font-family="Verdana" font-size="13" lengthAdjust="spacing" textLength="340" x="328" y="1318.4561">WHERE EXISTS in #tmpCustomerAccummulatedInfo</text><text fill="#000000" font-family="Verdana" font-size="13" lengthAdjust="spacing" textLength="5" x="328" y="1334.2554">&#160;</text><text fill="#000000" font-family="Verdana" font-size="13" lengthAdjust="spacing" textLength="425" x="328" y="1350.0547">INSERT INTO CustomerClassification_BySport_ScannedDailyCust</text><text fill="#000000" font-family="Verdana" font-size="13" lengthAdjust="spacing" textLength="272" x="328" y="1365.854">SELECT CustId, SportGroup, CurrentDate</text><text fill="#000000" font-family="Verdana" font-size="13" lengthAdjust="spacing" textLength="261" x="328" y="1381.6533">FROM #tmpCustomerAccummulatedInfo</text><text fill="#000000" font-family="Verdana" font-size="13" lengthAdjust="spacing" textLength="272" x="328" y="1397.4526">WHERE NOT EXISTS in ScannedDailyCust</text><rect fill="#FFFFFF" height="34.584" rx="12.5" ry="12.5" style="stroke:#000000;stroke-width:1.0;" width="230" x="72" y="1319.6929"/><text fill="#000000" font-family="Verdana" font-size="12" lengthAdjust="spacing" textLength="210" x="82" y="1341.7573">Update Scanned Daily Customers</text><path d="M275,1415.1821 L275,1447.7808 L255,1451.7808 L275,1455.7808 L275,1488.3794 A0,0 0 0 0 275,1488.3794 L528,1488.3794 A0,0 0 0 0 528,1488.3794 L528,1425.1821 L518,1415.1821 L275,1415.1821 A0,0 0 0 0 275,1415.1821 " fill="#FFFFFF" style="stroke:#000000;stroke-width:1.0;"/><path d="M518,1415.1821 L518,1425.1821 L528,1425.1821 L518,1415.1821 " fill="#FFFFFF" style="stroke:#000000;stroke-width:1.0;"/><text fill="#000000" font-family="Verdana" font-size="13" lengthAdjust="spacing" textLength="197" x="281" y="1433.252">UPDATE #tmpRelatedCustInfo</text><text fill="#000000" font-family="Verdana" font-size="13" lengthAdjust="spacing" textLength="232" x="281" y="1449.0513">SET SRecommend = c.srecommend</text><text fill="#000000" font-family="Verdana" font-size="13" lengthAdjust="spacing" textLength="130" x="291" y="1464.8506">, SiteName = c.Site</text><text fill="#000000" font-family="Verdana" font-size="13" lengthAdjust="spacing" textLength="222" x="281" y="1480.6499">FROM bodb02.dbo.Customer AS c</text><rect fill="#FFFFFF" height="34.584" rx="12.5" ry="12.5" style="stroke:#000000;stroke-width:1.0;" width="136" x="119" y="1434.4888"/><text fill="#000000" font-family="Verdana" font-size="12" lengthAdjust="spacing" textLength="116" x="129" y="1456.5532">Get Customer Info</text><path d="M301,1498.3794 L301,1562.5767 L281,1566.5767 L301,1570.5767 L301,1634.7739 A0,0 0 0 0 301,1634.7739 L615,1634.7739 A0,0 0 0 0 615,1634.7739 L615,1508.3794 L605,1498.3794 L301,1498.3794 A0,0 0 0 0 301,1498.3794 " fill="#FFFFFF" style="stroke:#000000;stroke-width:1.0;"/><path d="M605,1498.3794 L605,1508.3794 L615,1508.3794 L605,1498.3794 " fill="#FFFFFF" style="stroke:#000000;stroke-width:1.0;"/><text fill="#000000" font-family="Verdana" font-size="13" lengthAdjust="spacing" textLength="131" x="307" y="1516.4492">Classification Rules:</text><text fill="#000000" font-family="Verdana" font-size="13" lengthAdjust="spacing" textLength="286" x="307" y="1532.2485">- Based on TurnoverRM, WinlossRM, Margin</text><text fill="#000000" font-family="Verdana" font-size="13" lengthAdjust="spacing" textLength="253" x="307" y="1548.0479">- BetCount, ActiveDays, WinDaysRate</text><text fill="#000000" font-family="Verdana" font-size="13" lengthAdjust="spacing" textLength="271" x="307" y="1563.8472">- CurrentCategoryId, IsProbationLastDay</text><text fill="#000000" font-family="Verdana" font-size="13" lengthAdjust="spacing" textLength="293" x="307" y="1579.6465">- IsCheckBetCount, IsPlaceBetWithin30Days</text><text fill="#000000" font-family="Verdana" font-size="13" lengthAdjust="spacing" textLength="277" x="307" y="1595.4458">- Special rules for Probation, Smart, Risky</text><text fill="#000000" font-family="Verdana" font-size="13" lengthAdjust="spacing" textLength="276" x="307" y="1611.2451">UPDATE #tmpCustomerAccummulatedInfo</text><text fill="#000000" font-family="Verdana" font-size="13" lengthAdjust="spacing" textLength="231" x="307" y="1627.0444">SET NewCategoryId = (calculated)</text><rect fill="#FFFFFF" height="34.584" rx="12.5" ry="12.5" style="stroke:#000000;stroke-width:1.0;" width="188" x="93" y="1549.2847"/><text fill="#000000" font-family="Verdana" font-size="12" lengthAdjust="spacing" textLength="168" x="103" y="1571.3491">Determine NewCategoryId</text><path d="M304.5,1644.7739 L304.5,1669.4729 L284.5,1673.4729 L304.5,1677.4729 L304.5,1702.1719 A0,0 0 0 0 304.5,1702.1719 L533.5,1702.1719 A0,0 0 0 0 533.5,1702.1719 L533.5,1654.7739 L523.5,1644.7739 L304.5,1644.7739 A0,0 0 0 0 304.5,1644.7739 " fill="#FFFFFF" style="stroke:#000000;stroke-width:1.0;"/><path d="M523.5,1644.7739 L523.5,1654.7739 L533.5,1654.7739 L523.5,1644.7739 " fill="#FFFFFF" style="stroke:#000000;stroke-width:1.0;"/><text fill="#000000" font-family="Verdana" font-size="13" lengthAdjust="spacing" textLength="139" x="310.5" y="1662.8438">Update or Insert into</text><text fill="#000000" font-family="Verdana" font-size="13" lengthAdjust="spacing" textLength="208" x="310.5" y="1678.6431">CustomerClassification_BySport</text><text fill="#000000" font-family="Verdana" font-size="13" lengthAdjust="spacing" textLength="134" x="310.5" y="1694.4424">with NewCategoryId</text><rect fill="#FFFFFF" height="34.584" rx="12.5" ry="12.5" style="stroke:#000000;stroke-width:1.0;" width="195" x="89.5" y="1656.1809"/><text fill="#000000" font-family="Verdana" font-size="12" lengthAdjust="spacing" textLength="175" x="99.5" y="1678.2454">Update/Insert Classification</text><ellipse cx="187" cy="1733.1719" fill="none" rx="11" ry="11" style="stroke:#000000;stroke-width:1.0;"/><ellipse cx="187" cy="1733.1719" fill="#FFFFFF" rx="6" ry="6" style="stroke:#000000;stroke-width:1.0;"/><line style="stroke:#000000;stroke-width:1.0;" x1="187" x2="187" y1="72.7373" y2="92.7373"/><polygon fill="#000000" points="183,82.7373,187,92.7373,191,82.7373,187,86.7373" style="stroke:#000000;stroke-width:1.0;"/><line style="stroke:#000000;stroke-width:1.0;" x1="187" x2="187" y1="127.3213" y2="199.6335"/><polygon fill="#000000" points="183,189.6335,187,199.6335,191,189.6335,187,193.6335" style="stroke:#000000;stroke-width:1.0;"/><line style="stroke:#000000;stroke-width:1.0;" x1="187" x2="187" y1="234.2175" y2="409.2253"/><polygon fill="#000000" points="183,399.2253,187,409.2253,191,399.2253,187,403.2253" style="stroke:#000000;stroke-width:1.0;"/><line style="stroke:#000000;stroke-width:1.0;" x1="187" x2="187" y1="443.8093" y2="587.2185"/><polygon fill="#000000" points="183,577.2185,187,587.2185,191,577.2185,187,581.2185" style="stroke:#000000;stroke-width:1.0;"/><line style="stroke:#000000;stroke-width:1.0;" x1="187" x2="187" y1="621.8025" y2="678.3154"/><polygon fill="#000000" points="183,668.3154,187,678.3154,191,668.3154,187,672.3154" style="stroke:#000000;stroke-width:1.0;"/><line style="stroke:#000000;stroke-width:1.0;" x1="187" x2="187" y1="712.8994" y2="761.5127"/><polygon fill="#000000" points="183,751.5127,187,761.5127,191,751.5127,187,755.5127" style="stroke:#000000;stroke-width:1.0;"/><line style="stroke:#000000;stroke-width:1.0;" x1="187" x2="187" y1="796.0967" y2="836.8103"/><polygon fill="#000000" points="183,826.8103,187,836.8103,191,826.8103,187,830.8103" style="stroke:#000000;stroke-width:1.0;"/><line style="stroke:#000000;stroke-width:1.0;" x1="187" x2="187" y1="871.3943" y2="959.5059"/><polygon fill="#000000" points="183,949.5059,187,959.5059,191,949.5059,187,953.5059" style="stroke:#000000;stroke-width:1.0;"/><line style="stroke:#000000;stroke-width:1.0;" x1="187" x2="187" y1="994.0898" y2="1090.1011"/><polygon fill="#000000" points="183,1080.1011,187,1090.1011,191,1080.1011,187,1084.1011" style="stroke:#000000;stroke-width:1.0;"/><line style="stroke:#000000;stroke-width:1.0;" x1="187" x2="187" y1="1124.6851" y2="1189.0977"/><polygon fill="#000000" points="183,1179.0977,187,1189.0977,191,1179.0977,187,1183.0977" style="stroke:#000000;stroke-width:1.0;"/><line style="stroke:#000000;stroke-width:1.0;" x1="187" x2="187" y1="1223.6816" y2="1319.6929"/><polygon fill="#000000" points="183,1309.6929,187,1319.6929,191,1309.6929,187,1313.6929" style="stroke:#000000;stroke-width:1.0;"/><line style="stroke:#000000;stroke-width:1.0;" x1="187" x2="187" y1="1354.2769" y2="1434.4888"/><polygon fill="#000000" points="183,1424.4888,187,1434.4888,191,1424.4888,187,1428.4888" style="stroke:#000000;stroke-width:1.0;"/><line style="stroke:#000000;stroke-width:1.0;" x1="187" x2="187" y1="1469.0728" y2="1549.2847"/><polygon fill="#000000" points="183,1539.2847,187,1549.2847,191,1539.2847,187,1543.2847" style="stroke:#000000;stroke-width:1.0;"/><line style="stroke:#000000;stroke-width:1.0;" x1="187" x2="187" y1="1583.8687" y2="1656.1809"/><polygon fill="#000000" points="183,1646.1809,187,1656.1809,191,1646.1809,187,1650.1809" style="stroke:#000000;stroke-width:1.0;"/><line style="stroke:#000000;stroke-width:1.0;" x1="187" x2="187" y1="1690.7649" y2="1722.1719"/><polygon fill="#000000" points="183,1712.1719,187,1722.1719,191,1712.1719,187,1716.1719" style="stroke:#000000;stroke-width:1.0;"/><!--SRC=[hLTRK-is47xFhzXE7qxe60XmsWTQEYIEeMuJEvLDWQUCi0LeZYyPIJbC-kkxaY_n9GdqpCa3WxMhrTw-JwiVr2jB6QmIohE1uYfXuEKYfGcCeoXVPmhiX4h9dtb45Sypc6mWMEL2mJ44YqguWIbJb2SiXfiaVniCfA923IxjC5XEDaQ_iDesjYmM5tcUB2jBlmwoN34G_ELL3G1_Kwhe4vNi4fxo-6dv3pcVvp5BO1ZyFOE0YQzC71d51HKqPOg9IxYsrrBbAHFoOJw38Vuv6h0i1crwCBXqCwuuJVY_3EmyGryp9NldsbInbrnijYgNPlqOx77etFhaSUdTpMPm1QFUkdEFovz7PwE-o2VpySn8B_hIMz-V6jbvNxOW_cGSkhvd53xt5OBvc8H6-7DVIDpWhqSZ_AKlj6tY18xUUtpMp9Cj62O1GfQk8AHF2UjdwKULhkfarmd21JUsYaQv5VbwLGk4O9cgKgjrN6c_ikZBX2bRjrkfwCg5o9zCayoeL5EwqPgBX4OCDU-vUkNPnGYNfTbGkqBec-wNTnq9roBBiNF8t89xdYMvb6HUoYfNB8I0ub-PFiK2fgAJzbbLs0YKTPgk4mmgThFd_5kouB6txUSX7osOK_62M3taAshhVmXQR9OJ0I8PQ4HKhiECIzMhgUi53dQIwuL-kxv66ZWpnmxtHMT-raSBNMhtgssaDyIVjw5yaY7qvV3JwQdur4Bq3KyG-40OJHH7FclpJ9zJC8RGAGxeHtZ_XqEShhy8ZhFIvx4txGS8dgzJjWqBXYsUi5hqO7KPmMgJG2kuMwR0D5dHOx1WubaJPnQnNcIJDKzYkDPrBIeauLdawOuedGV7BYWrVXFo97xAJ_2G9LcffQPjF5JhDyxLlMrsRgrhicgUPS4rbuH9fYOqqVxLxDZjgHAeEshevGS3x9QkChGjNADYeweSFcaqAWg2XK_2vM9CPkF75kFH93BHjXAk8_ymIhfqy77Gx2UbKg60FhfVI-6qiGj-Wkh6AJVieeUcl44KQ7LOVgBHhVfHt-ht0tUtWAxdEGJ-z5slqx3D4kc3m5m5EZueBWEu685sjrUckyKKWRMJny8zLqeDTUDZjQipkfHZpNA6MT0mAVFLw4CTRIXe9gSwlRzVmGq2KP_GPkMoxUkkDV5zcB5sTjj726pOOgeUcrrrXXAzfRPqR6AhFt_J3NBKi8TeEsood88E6pslRRROy6uLwtm64SqonEOKnyvDNQIzzN-dYgKrOqohrXrIZ43nj4186PGfuJRHpeCRX05W4xvRcHvpV9jVUyZ4wZduV_f5Ns3RK7edTowaUeJOIOuDr15c3ZFURkamX82mA4zJRVOAeXCfgiz1nHm1Lyp3aTx8zSSs97rlZSxDfLKxCWuWQdevrM-1b6UiFLtr1_ts0uUiSSwjPhW9FZnYmDNlCumTc89takHn5yG7fs1yaQrOX0yR43e6m3iKQhEOpXJVP1OGBhzizb7ZdiihRATGtnLHTLF6Ez1vwcQI2VNU65P2ETTDPFHvfeeZ3yF2gBnX-9svUUi7xbuD_WC0]--></g></svg>