<svg xmlns="http://www.w3.org/2000/svg" xmlns:xlink="http://www.w3.org/1999/xlink" contentStyleType="text/css" height="2371px" preserveAspectRatio="none" style="width:2682px;height:2371px;background:#FFFFFF;" version="1.1" viewBox="0 0 2682 2371" width="2682px" zoomAndPan="magnify"><defs/><g><text fill="#000000" font-family="Verdana" font-size="22" font-weight="bold" lengthAdjust="spacing" textLength="749" x="970" y="37.1182">Normal Account Classification By Sport - Sequence Diagram</text><rect fill="#FFFFFF" height="2059.1167" style="stroke:#000000;stroke-width:1.0;" width="10" x="562" y="195.3652"/><rect fill="#FFFFFF" height="1991.7188" style="stroke:#000000;stroke-width:1.0;" width="10" x="819" y="225.1646"/><rect fill="#FFFFFF" height="353.9897" style="stroke:#000000;stroke-width:1.0;" width="10" x="1232" y="254.9639"/><rect fill="#FFFFFF" height="322.3911" style="stroke:#000000;stroke-width:1.0;" width="10" x="1232" y="850.3481"/><rect fill="#FFFFFF" height="306.5918" style="stroke:#000000;stroke-width:1.0;" width="10" x="1232" y="1391.3345"/><rect fill="#FFFFFF" height="290.7925" style="stroke:#000000;stroke-width:1.0;" width="10" x="1232" y="1822.1235"/><rect fill="#FFFFFF" height="294.3911" style="stroke:#000000;stroke-width:1.0;" width="10" x="1645" y="284.7632"/><rect fill="#FFFFFF" height="262.7925" style="stroke:#000000;stroke-width:1.0;" width="10" x="1645" y="880.1475"/><rect fill="#FFFFFF" height="246.9932" style="stroke:#000000;stroke-width:1.0;" width="10" x="1645" y="1421.1338"/><rect fill="#FFFFFF" height="231.1938" style="stroke:#000000;stroke-width:1.0;" width="10" x="1645" y="1851.9229"/><rect fill="#FFFFFF" height="176.1938" style="stroke:#000000;stroke-width:1.0;" width="10" x="2067" y="373.1611"/><rect fill="#FFFFFF" height="128.7959" style="stroke:#000000;stroke-width:1.0;" width="10" x="2067" y="1509.5317"/><rect fill="#FFFFFF" height="112.9966" style="stroke:#000000;stroke-width:1.0;" width="10" x="2067" y="1940.3208"/><rect fill="#FFFFFF" height="144.5952" style="stroke:#000000;stroke-width:1.0;" width="10" x="2199" y="968.5454"/><rect fill="#FFFFFF" height="1585.9297" style="stroke:#000000;stroke-width:1.0;" width="2221" x="454" y="623.9536"/><rect fill="#FFFFFF" height="1436.3638" style="stroke:#000000;stroke-width:1.0;" width="2005" x="660" y="691.5522"/><rect fill="#FFFFFF" height="1404.5645" style="stroke:#000000;stroke-width:1.0;" width="1985" x="670" y="716.3516"/><rect fill="#FFFFFF" height="45.168" style="stroke:none;stroke-width:1.0;" width="2221" x="454" y="2164.7153"/><line style="stroke:#000000;stroke-width:1.0;" x1="62" x2="62" y1="147.7666" y2="2272.4819"/><line style="stroke:#000000;stroke-width:1.0;" x1="567" x2="567" y1="147.7666" y2="2272.4819"/><line style="stroke:#000000;stroke-width:1.0;" x1="824" x2="824" y1="147.7666" y2="2272.4819"/><line style="stroke:#000000;stroke-width:1.0;" x1="1237" x2="1237" y1="147.7666" y2="2272.4819"/><line style="stroke:#000000;stroke-width:1.0;" x1="1650" x2="1650" y1="147.7666" y2="2272.4819"/><line style="stroke:#000000;stroke-width:1.0;" x1="2072" x2="2072" y1="147.7666" y2="2272.4819"/><line style="stroke:#000000;stroke-width:1.0;" x1="2204" x2="2204" y1="147.7666" y2="2272.4819"/><text fill="#000000" font-family="Verdana" font-size="14" lengthAdjust="spacing" textLength="98" x="10" y="127.8125">Job Scheduler</text><text fill="#000000" font-family="Verdana" font-size="14" lengthAdjust="spacing" textLength="70" x="24" y="144.8271">(External)</text><ellipse cx="62" cy="61.7373" fill="#FFFFFF" rx="8" ry="8" style="stroke:#000000;stroke-width:1.0;"/><path d="M62,69.7373 L62,96.7373 M49,77.7373 L75,77.7373 M62,96.7373 L49,111.7373 M62,96.7373 L75,111.7373 " fill="none" style="stroke:#000000;stroke-width:1.0;"/><text fill="#000000" font-family="Verdana" font-size="14" lengthAdjust="spacing" textLength="98" x="10" y="2285.5571">Job Scheduler</text><text fill="#000000" font-family="Verdana" font-size="14" lengthAdjust="spacing" textLength="70" x="24" y="2302.5718">(External)</text><ellipse cx="62" cy="2314.5112" fill="#FFFFFF" rx="8" ry="8" style="stroke:#000000;stroke-width:1.0;"/><path d="M62,2322.5112 L62,2349.5112 M49,2330.5112 L75,2330.5112 M62,2349.5112 L49,2364.5112 M62,2349.5112 L75,2364.5112 " fill="none" style="stroke:#000000;stroke-width:1.0;"/><rect fill="#FFFFFF" height="48.0293" rx="2.5" ry="2.5" style="stroke:#000000;stroke-width:1.0;" width="186" x="474" y="98.7373"/><text fill="#000000" font-family="Verdana" font-size="14" lengthAdjust="spacing" textLength="172" x="481" y="119.8125">ClassificationBySportJob</text><text fill="#000000" font-family="Verdana" font-size="14" lengthAdjust="spacing" textLength="69" x="532.5" y="136.8271">Controller</text><rect fill="#FFFFFF" height="48.0293" rx="2.5" ry="2.5" style="stroke:#000000;stroke-width:1.0;" width="186" x="474" y="2271.4819"/><text fill="#000000" font-family="Verdana" font-size="14" lengthAdjust="spacing" textLength="172" x="481" y="2292.5571">ClassificationBySportJob</text><text fill="#000000" font-family="Verdana" font-size="14" lengthAdjust="spacing" textLength="69" x="532.5" y="2309.5718">Controller</text><rect fill="#FFFFFF" height="48.0293" rx="2.5" ry="2.5" style="stroke:#000000;stroke-width:1.0;" width="268" x="690" y="98.7373"/><text fill="#000000" font-family="Verdana" font-size="14" lengthAdjust="spacing" textLength="254" x="697" y="119.8125">NormalAccountClassificationBySport</text><text fill="#000000" font-family="Verdana" font-size="14" lengthAdjust="spacing" textLength="74" x="787" y="136.8271">JobService</text><rect fill="#FFFFFF" height="48.0293" rx="2.5" ry="2.5" style="stroke:#000000;stroke-width:1.0;" width="268" x="690" y="2271.4819"/><text fill="#000000" font-family="Verdana" font-size="14" lengthAdjust="spacing" textLength="254" x="697" y="2292.5571">NormalAccountClassificationBySport</text><text fill="#000000" font-family="Verdana" font-size="14" lengthAdjust="spacing" textLength="74" x="787" y="2309.5718">JobService</text><rect fill="#FFFFFF" height="48.0293" rx="2.5" ry="2.5" style="stroke:#000000;stroke-width:1.0;" width="268" x="1103" y="98.7373"/><text fill="#000000" font-family="Verdana" font-size="14" lengthAdjust="spacing" textLength="254" x="1110" y="119.8125">NormalAccountClassificationBySport</text><text fill="#000000" font-family="Verdana" font-size="14" lengthAdjust="spacing" textLength="50" x="1212" y="136.8271">Service</text><rect fill="#FFFFFF" height="48.0293" rx="2.5" ry="2.5" style="stroke:#000000;stroke-width:1.0;" width="268" x="1103" y="2271.4819"/><text fill="#000000" font-family="Verdana" font-size="14" lengthAdjust="spacing" textLength="254" x="1110" y="2292.5571">NormalAccountClassificationBySport</text><text fill="#000000" font-family="Verdana" font-size="14" lengthAdjust="spacing" textLength="50" x="1212" y="2309.5718">Service</text><rect fill="#FFFFFF" height="48.0293" rx="2.5" ry="2.5" style="stroke:#000000;stroke-width:1.0;" width="268" x="1516" y="98.7373"/><text fill="#000000" font-family="Verdana" font-size="14" lengthAdjust="spacing" textLength="254" x="1523" y="119.8125">NormalAccountClassificationBySport</text><text fill="#000000" font-family="Verdana" font-size="14" lengthAdjust="spacing" textLength="81" x="1609.5" y="136.8271">DataAccess</text><rect fill="#FFFFFF" height="48.0293" rx="2.5" ry="2.5" style="stroke:#000000;stroke-width:1.0;" width="268" x="1516" y="2271.4819"/><text fill="#000000" font-family="Verdana" font-size="14" lengthAdjust="spacing" textLength="254" x="1523" y="2292.5571">NormalAccountClassificationBySport</text><text fill="#000000" font-family="Verdana" font-size="14" lengthAdjust="spacing" textLength="81" x="1609.5" y="2309.5718">DataAccess</text><text fill="#000000" font-family="Verdana" font-size="14" lengthAdjust="spacing" textLength="80" x="2029" y="127.8125">SQL Server</text><text fill="#000000" font-family="Verdana" font-size="14" lengthAdjust="spacing" textLength="114" x="2012" y="144.8271">bodb_VR2Model</text><path d="M2054,77.7373 C2054,67.7373 2072,67.7373 2072,67.7373 C2072,67.7373 2090,67.7373 2090,77.7373 L2090,103.7373 C2090,113.7373 2072,113.7373 2072,113.7373 C2072,113.7373 2054,113.7373 2054,103.7373 L2054,77.7373 " fill="#FFFFFF" style="stroke:#000000;stroke-width:1.5;"/><path d="M2054,77.7373 C2054,87.7373 2072,87.7373 2072,87.7373 C2072,87.7373 2090,87.7373 2090,77.7373 " fill="none" style="stroke:#000000;stroke-width:1.5;"/><text fill="#000000" font-family="Verdana" font-size="14" lengthAdjust="spacing" textLength="80" x="2029" y="2285.5571">SQL Server</text><text fill="#000000" font-family="Verdana" font-size="14" lengthAdjust="spacing" textLength="114" x="2012" y="2302.5718">bodb_VR2Model</text><path d="M2054,2315.5112 C2054,2305.5112 2072,2305.5112 2072,2305.5112 C2072,2305.5112 2090,2305.5112 2090,2315.5112 L2090,2341.5112 C2090,2351.5112 2072,2351.5112 2072,2351.5112 C2072,2351.5112 2054,2351.5112 2054,2341.5112 L2054,2315.5112 " fill="#FFFFFF" style="stroke:#000000;stroke-width:1.5;"/><path d="M2054,2315.5112 C2054,2325.5112 2072,2325.5112 2072,2325.5112 C2072,2325.5112 2090,2325.5112 2090,2315.5112 " fill="none" style="stroke:#000000;stroke-width:1.5;"/><text fill="#000000" font-family="Verdana" font-size="14" lengthAdjust="spacing" textLength="48" x="2177" y="127.8125">MySQL</text><text fill="#000000" font-family="Verdana" font-size="14" lengthAdjust="spacing" textLength="118" x="2142" y="144.8271">CTS_DataCenter</text><path d="M2186,77.7373 C2186,67.7373 2204,67.7373 2204,67.7373 C2204,67.7373 2222,67.7373 2222,77.7373 L2222,103.7373 C2222,113.7373 2204,113.7373 2204,113.7373 C2204,113.7373 2186,113.7373 2186,103.7373 L2186,77.7373 " fill="#FFFFFF" style="stroke:#000000;stroke-width:1.5;"/><path d="M2186,77.7373 C2186,87.7373 2204,87.7373 2204,87.7373 C2204,87.7373 2222,87.7373 2222,77.7373 " fill="none" style="stroke:#000000;stroke-width:1.5;"/><text fill="#000000" font-family="Verdana" font-size="14" lengthAdjust="spacing" textLength="48" x="2177" y="2285.5571">MySQL</text><text fill="#000000" font-family="Verdana" font-size="14" lengthAdjust="spacing" textLength="118" x="2142" y="2302.5718">CTS_DataCenter</text><path d="M2186,2315.5112 C2186,2305.5112 2204,2305.5112 2204,2305.5112 C2204,2305.5112 2222,2305.5112 2222,2315.5112 L2222,2341.5112 C2222,2351.5112 2204,2351.5112 2204,2351.5112 C2204,2351.5112 2186,2351.5112 2186,2341.5112 L2186,2315.5112 " fill="#FFFFFF" style="stroke:#000000;stroke-width:1.5;"/><path d="M2186,2315.5112 C2186,2325.5112 2204,2325.5112 2204,2325.5112 C2204,2325.5112 2222,2325.5112 2222,2315.5112 " fill="none" style="stroke:#000000;stroke-width:1.5;"/><rect fill="#FFFFFF" height="2059.1167" style="stroke:#000000;stroke-width:1.0;" width="10" x="562" y="195.3652"/><rect fill="#FFFFFF" height="1991.7188" style="stroke:#000000;stroke-width:1.0;" width="10" x="819" y="225.1646"/><rect fill="#FFFFFF" height="353.9897" style="stroke:#000000;stroke-width:1.0;" width="10" x="1232" y="254.9639"/><rect fill="#FFFFFF" height="322.3911" style="stroke:#000000;stroke-width:1.0;" width="10" x="1232" y="850.3481"/><rect fill="#FFFFFF" height="306.5918" style="stroke:#000000;stroke-width:1.0;" width="10" x="1232" y="1391.3345"/><rect fill="#FFFFFF" height="290.7925" style="stroke:#000000;stroke-width:1.0;" width="10" x="1232" y="1822.1235"/><rect fill="#FFFFFF" height="294.3911" style="stroke:#000000;stroke-width:1.0;" width="10" x="1645" y="284.7632"/><rect fill="#FFFFFF" height="262.7925" style="stroke:#000000;stroke-width:1.0;" width="10" x="1645" y="880.1475"/><rect fill="#FFFFFF" height="246.9932" style="stroke:#000000;stroke-width:1.0;" width="10" x="1645" y="1421.1338"/><rect fill="#FFFFFF" height="231.1938" style="stroke:#000000;stroke-width:1.0;" width="10" x="1645" y="1851.9229"/><rect fill="#FFFFFF" height="176.1938" style="stroke:#000000;stroke-width:1.0;" width="10" x="2067" y="373.1611"/><rect fill="#FFFFFF" height="128.7959" style="stroke:#000000;stroke-width:1.0;" width="10" x="2067" y="1509.5317"/><rect fill="#FFFFFF" height="112.9966" style="stroke:#000000;stroke-width:1.0;" width="10" x="2067" y="1940.3208"/><rect fill="#FFFFFF" height="144.5952" style="stroke:#000000;stroke-width:1.0;" width="10" x="2199" y="968.5454"/><polygon fill="#000000" points="550,191.3652,560,195.3652,550,199.3652,554,195.3652" style="stroke:#000000;stroke-width:1.0;"/><line style="stroke:#000000;stroke-width:1.0;" x1="62" x2="556" y1="195.3652" y2="195.3652"/><text fill="#000000" font-family="Verdana" font-size="13" lengthAdjust="spacing" textLength="481" x="69" y="174.8364">POST /api/classificationBySportJobs/NormalAccountClassificationBySport</text><text fill="#000000" font-family="Verdana" font-size="13" lengthAdjust="spacing" textLength="116" x="69" y="190.6357">batchInternalSize</text><polygon fill="#000000" points="807,221.1646,817,225.1646,807,229.1646,811,225.1646" style="stroke:#000000;stroke-width:1.0;"/><line style="stroke:#000000;stroke-width:1.0;" x1="572" x2="813" y1="225.1646" y2="225.1646"/><text fill="#000000" font-family="Verdana" font-size="13" lengthAdjust="spacing" textLength="181" x="579" y="220.4351">Execute(batchInternalSize)</text><polygon fill="#000000" points="1220,250.9639,1230,254.9639,1220,258.9639,1224,254.9639" style="stroke:#000000;stroke-width:1.0;"/><line style="stroke:#000000;stroke-width:1.0;" x1="829" x2="1226" y1="254.9639" y2="254.9639"/><text fill="#000000" font-family="Verdana" font-size="13" lengthAdjust="spacing" textLength="175" x="836" y="250.2344">GetNormalPoolCustomers()</text><polygon fill="#000000" points="1633,280.7632,1643,284.7632,1633,288.7632,1637,284.7632" style="stroke:#000000;stroke-width:1.0;"/><line style="stroke:#000000;stroke-width:1.0;" x1="1242" x2="1639" y1="284.7632" y2="284.7632"/><text fill="#000000" font-family="Verdana" font-size="13" lengthAdjust="spacing" textLength="175" x="1249" y="280.0337">GetNormalPoolCustomers()</text><line style="stroke:#000000;stroke-width:1.0;" x1="1655" x2="1697" y1="314.5625" y2="314.5625"/><line style="stroke:#000000;stroke-width:1.0;" x1="1697" x2="1697" y1="314.5625" y2="327.5625"/><line style="stroke:#000000;stroke-width:1.0;" x1="1656" x2="1697" y1="327.5625" y2="327.5625"/><polygon fill="#000000" points="1666,323.5625,1656,327.5625,1666,331.5625,1662,327.5625" style="stroke:#000000;stroke-width:1.0;"/><text fill="#000000" font-family="Verdana" font-size="13" lengthAdjust="spacing" textLength="304" x="1662" y="309.833">Create GetNormalPoolCustomerBySportCriteria</text><polygon fill="#000000" points="2055,369.1611,2065,373.1611,2055,377.1611,2059,373.1611" style="stroke:#000000;stroke-width:1.0;"/><line style="stroke:#000000;stroke-width:1.0;" x1="1655" x2="2061" y1="373.1611" y2="373.1611"/><text fill="#000000" font-family="Verdana" font-size="13" lengthAdjust="spacing" textLength="366" x="1662" y="352.6323">EXEC CTS_BySportNormalClassification_NormalPool_Get</text><text fill="#000000" font-family="Verdana" font-size="13" lengthAdjust="spacing" textLength="168" x="1662" y="368.4316">@ScannedMaxId OUTPUT</text><path d="M2082,386.1611 L2082,506.1611 L2419,506.1611 L2419,396.1611 L2409,386.1611 L2082,386.1611 " fill="#FFFFFF" style="stroke:#000000;stroke-width:1.0;"/><path d="M2409,386.1611 L2409,396.1611 L2419,396.1611 L2409,386.1611 " fill="#FFFFFF" style="stroke:#000000;stroke-width:1.0;"/><text fill="#000000" font-family="Verdana" font-size="13" lengthAdjust="spacing" textLength="121" x="2088" y="404.231">Stored Procedure:</text><text fill="#000000" font-family="Verdana" font-size="13" lengthAdjust="spacing" textLength="311" x="2088" y="420.0303">- Get ScannedMaxId (MAX ID from NormalPool)</text><text fill="#000000" font-family="Verdana" font-size="13" lengthAdjust="spacing" textLength="258" x="2088" y="435.8296">- Get LastScannedRow from Parameter</text><text fill="#000000" font-family="Verdana" font-size="13" lengthAdjust="spacing" textLength="185" x="2088" y="451.6289">- Get TOP 20000 customers</text><text fill="#000000" font-family="Verdana" font-size="13" lengthAdjust="spacing" textLength="209" x="2088" y="467.4282">- Filter by ID &lt;= ScannedMaxId</text><text fill="#000000" font-family="Verdana" font-size="13" lengthAdjust="spacing" textLength="190" x="2088" y="483.2275">- Filter by RowVersion check</text><text fill="#000000" font-family="Verdana" font-size="13" lengthAdjust="spacing" textLength="316" x="2088" y="499.0269">- Return: CustId, SportGroup, IsCheckBetCount</text><polygon fill="#000000" points="1666,545.355,1656,549.355,1666,553.355,1662,549.355" style="stroke:#000000;stroke-width:1.0;"/><line style="stroke:#000000;stroke-width:1.0;stroke-dasharray:2.0,2.0;" x1="1660" x2="2071" y1="549.355" y2="549.355"/><text fill="#000000" font-family="Verdana" font-size="13" lengthAdjust="spacing" textLength="333" x="1672" y="528.8262">ResultSet: GetNormalPoolCustomerBySportEntity[]</text><text fill="#000000" font-family="Verdana" font-size="13" lengthAdjust="spacing" textLength="96" x="1672" y="544.6255">ScannedMaxId</text><polygon fill="#000000" points="1253,575.1543,1243,579.1543,1253,583.1543,1249,579.1543" style="stroke:#000000;stroke-width:1.0;"/><line style="stroke:#000000;stroke-width:1.0;stroke-dasharray:2.0,2.0;" x1="1247" x2="1649" y1="579.1543" y2="579.1543"/><text fill="#000000" font-family="Verdana" font-size="13" lengthAdjust="spacing" textLength="246" x="1259" y="574.4248">GetNormalPoolCustomerBySportModel</text><polygon fill="#000000" points="840,604.9536,830,608.9536,840,612.9536,836,608.9536" style="stroke:#000000;stroke-width:1.0;"/><line style="stroke:#000000;stroke-width:1.0;stroke-dasharray:2.0,2.0;" x1="834" x2="1236" y1="608.9536" y2="608.9536"/><text fill="#000000" font-family="Verdana" font-size="13" lengthAdjust="spacing" textLength="246" x="846" y="604.2241">GetNormalPoolCustomerBySportModel</text><path d="M454,623.9536 L518,623.9536 L518,631.7529 L508,641.7529 L454,641.7529 L454,623.9536 " fill="#FFFFFF" style="stroke:#000000;stroke-width:1.0;"/><rect fill="none" height="1585.9297" style="stroke:#000000;stroke-width:1.0;" width="2221" x="454" y="623.9536"/><text fill="#000000" font-family="Verdana" font-size="13" font-weight="bold" lengthAdjust="spacing" textLength="19" x="469" y="638.0234">alt</text><text fill="#000000" font-family="Verdana" font-size="11" font-weight="bold" lengthAdjust="spacing" textLength="109" x="533" y="637.0127">[Has Customers]</text><line style="stroke:#000000;stroke-width:1.0;" x1="829" x2="871" y1="663.5522" y2="663.5522"/><line style="stroke:#000000;stroke-width:1.0;" x1="871" x2="871" y1="663.5522" y2="676.5522"/><line style="stroke:#000000;stroke-width:1.0;" x1="830" x2="871" y1="676.5522" y2="676.5522"/><polygon fill="#000000" points="840,672.5522,830,676.5522,840,680.5522,836,676.5522" style="stroke:#000000;stroke-width:1.0;"/><text fill="#000000" font-family="Verdana" font-size="13" lengthAdjust="spacing" textLength="255" x="836" y="658.8228">Chunk customers by batchInternalSize</text><path d="M660,691.5522 L729,691.5522 L729,699.3516 L719,709.3516 L660,709.3516 L660,691.5522 " fill="#FFFFFF" style="stroke:#000000;stroke-width:1.0;"/><rect fill="none" height="1436.3638" style="stroke:#000000;stroke-width:1.0;" width="2005" x="660" y="691.5522"/><text fill="#000000" font-family="Verdana" font-size="13" font-weight="bold" lengthAdjust="spacing" textLength="24" x="675" y="705.6221">par</text><text fill="#000000" font-family="Verdana" font-size="11" font-weight="bold" lengthAdjust="spacing" textLength="215" x="744" y="704.6113">[Parallel Processing (5 threads)]</text><path d="M670,716.3516 L746,716.3516 L746,724.1509 L736,734.1509 L670,734.1509 L670,716.3516 " fill="#FFFFFF" style="stroke:#000000;stroke-width:1.0;"/><rect fill="none" height="1404.5645" style="stroke:#000000;stroke-width:1.0;" width="1985" x="670" y="716.3516"/><text fill="#000000" font-family="Verdana" font-size="13" font-weight="bold" lengthAdjust="spacing" textLength="31" x="685" y="730.4214">loop</text><text fill="#000000" font-family="Verdana" font-size="11" font-weight="bold" lengthAdjust="spacing" textLength="112" x="761" y="729.4106">[For each chunk]</text><line style="stroke:#000000;stroke-width:1.0;" x1="829" x2="871" y1="755.9502" y2="755.9502"/><line style="stroke:#000000;stroke-width:1.0;" x1="871" x2="871" y1="755.9502" y2="768.9502"/><line style="stroke:#000000;stroke-width:1.0;" x1="830" x2="871" y1="768.9502" y2="768.9502"/><polygon fill="#000000" points="840,764.9502,830,768.9502,840,772.9502,836,768.9502" style="stroke:#000000;stroke-width:1.0;"/><text fill="#000000" font-family="Verdana" font-size="13" lengthAdjust="spacing" textLength="185" x="836" y="751.2207">Serialize customers to JSON</text><path d="M834,781.9502 L834,822.9502 L1031,822.9502 L1031,791.9502 L1021,781.9502 L834,781.9502 " fill="#FFFFFF" style="stroke:#000000;stroke-width:1.0;"/><path d="M1021,781.9502 L1021,791.9502 L1031,791.9502 L1021,781.9502 " fill="#FFFFFF" style="stroke:#000000;stroke-width:1.0;"/><text fill="#000000" font-family="Verdana" font-size="13" lengthAdjust="spacing" textLength="176" x="840" y="800.02">Create custSportList JSON</text><text fill="#000000" font-family="Verdana" font-size="13" lengthAdjust="spacing" textLength="174" x="840" y="815.8193">from NormalPoolCustomers</text><polygon fill="#000000" points="1220,846.3481,1230,850.3481,1220,854.3481,1224,850.3481" style="stroke:#000000;stroke-width:1.0;"/><line style="stroke:#000000;stroke-width:1.0;" x1="829" x2="1226" y1="850.3481" y2="850.3481"/><text fill="#000000" font-family="Verdana" font-size="13" lengthAdjust="spacing" textLength="294" x="836" y="845.6187">GetCurrentCustomerCategory(custSportList)</text><polygon fill="#000000" points="1633,876.1475,1643,880.1475,1633,884.1475,1637,880.1475" style="stroke:#000000;stroke-width:1.0;"/><line style="stroke:#000000;stroke-width:1.0;" x1="1242" x2="1639" y1="880.1475" y2="880.1475"/><text fill="#000000" font-family="Verdana" font-size="13" lengthAdjust="spacing" textLength="294" x="1249" y="875.418">GetCurrentCustomerCategory(custSportList)</text><line style="stroke:#000000;stroke-width:1.0;" x1="1655" x2="1697" y1="909.9468" y2="909.9468"/><line style="stroke:#000000;stroke-width:1.0;" x1="1697" x2="1697" y1="909.9468" y2="922.9468"/><line style="stroke:#000000;stroke-width:1.0;" x1="1656" x2="1697" y1="922.9468" y2="922.9468"/><polygon fill="#000000" points="1666,918.9468,1656,922.9468,1666,926.9468,1662,922.9468" style="stroke:#000000;stroke-width:1.0;"/><text fill="#000000" font-family="Verdana" font-size="13" lengthAdjust="spacing" textLength="324" x="1662" y="905.2173">Create GetCurrentNormalCategoryBySportCriteria</text><polygon fill="#000000" points="2187,964.5454,2197,968.5454,2187,972.5454,2191,968.5454" style="stroke:#000000;stroke-width:1.0;"/><line style="stroke:#000000;stroke-width:1.0;" x1="1655" x2="2193" y1="968.5454" y2="968.5454"/><text fill="#000000" font-family="Verdana" font-size="13" lengthAdjust="spacing" textLength="416" x="1662" y="948.0166">EXEC CTS_DC_CustClassification_BySport_GetCurrentCategory</text><text fill="#000000" font-family="Verdana" font-size="13" lengthAdjust="spacing" textLength="149" x="1662" y="963.8159">@ip_CustSport (JSON)</text><path d="M2214,981.5454 L2214,1085.5454 L2645,1085.5454 L2645,991.5454 L2635,981.5454 L2214,981.5454 " fill="#FFFFFF" style="stroke:#000000;stroke-width:1.0;"/><path d="M2635,981.5454 L2635,991.5454 L2645,991.5454 L2635,981.5454 " fill="#FFFFFF" style="stroke:#000000;stroke-width:1.0;"/><text fill="#000000" font-family="Verdana" font-size="13" lengthAdjust="spacing" textLength="121" x="2220" y="999.6152">Stored Procedure:</text><text fill="#000000" font-family="Verdana" font-size="13" lengthAdjust="spacing" textLength="177" x="2220" y="1015.4146">- Parse JSON customer list</text><text fill="#000000" font-family="Verdana" font-size="13" lengthAdjust="spacing" textLength="138" x="2220" y="1031.2139">- Validate customers</text><text fill="#000000" font-family="Verdana" font-size="13" lengthAdjust="spacing" textLength="190" x="2220" y="1047.0132">- Get latest normal category</text><text fill="#000000" font-family="Verdana" font-size="13" lengthAdjust="spacing" textLength="177" x="2220" y="1062.8125">- Check Probation LastDay</text><text fill="#000000" font-family="Verdana" font-size="13" lengthAdjust="spacing" textLength="410" x="2220" y="1078.6118">Returns: CustID, SportGroup, CategoryID, IsProbationLastDay</text><polygon fill="#000000" points="1666,1109.1406,1656,1113.1406,1666,1117.1406,1662,1113.1406" style="stroke:#000000;stroke-width:1.0;"/><line style="stroke:#000000;stroke-width:1.0;stroke-dasharray:2.0,2.0;" x1="1660" x2="2203" y1="1113.1406" y2="1113.1406"/><text fill="#000000" font-family="Verdana" font-size="13" lengthAdjust="spacing" textLength="353" x="1672" y="1108.4111">ResultSet: GetCurrentNormalCategoryBySportEntity[]</text><polygon fill="#000000" points="1253,1138.9399,1243,1142.9399,1253,1146.9399,1249,1142.9399" style="stroke:#000000;stroke-width:1.0;"/><line style="stroke:#000000;stroke-width:1.0;stroke-dasharray:2.0,2.0;" x1="1247" x2="1649" y1="1142.9399" y2="1142.9399"/><text fill="#000000" font-family="Verdana" font-size="13" lengthAdjust="spacing" textLength="365" x="1259" y="1138.2104">IEnumerable&lt;GetCurrentNormalCategoryBySportEntity&gt;</text><polygon fill="#000000" points="840,1168.7393,830,1172.7393,840,1176.7393,836,1172.7393" style="stroke:#000000;stroke-width:1.0;"/><line style="stroke:#000000;stroke-width:1.0;stroke-dasharray:2.0,2.0;" x1="834" x2="1236" y1="1172.7393" y2="1172.7393"/><text fill="#000000" font-family="Verdana" font-size="13" lengthAdjust="spacing" textLength="365" x="846" y="1168.0098">IEnumerable&lt;GetCurrentNormalCategoryBySportEntity&gt;</text><line style="stroke:#000000;stroke-width:1.0;" x1="829" x2="871" y1="1202.5386" y2="1202.5386"/><line style="stroke:#000000;stroke-width:1.0;" x1="871" x2="871" y1="1202.5386" y2="1215.5386"/><line style="stroke:#000000;stroke-width:1.0;" x1="830" x2="871" y1="1215.5386" y2="1215.5386"/><polygon fill="#000000" points="840,1211.5386,830,1215.5386,840,1219.5386,836,1215.5386" style="stroke:#000000;stroke-width:1.0;"/><text fill="#000000" font-family="Verdana" font-size="13" lengthAdjust="spacing" textLength="340" x="836" y="1197.8091">Join NormalPoolCustomers with CustomerCategories</text><path d="M834,1228.5386 L834,1269.5386 L1188,1269.5386 L1188,1238.5386 L1178,1228.5386 L834,1228.5386 " fill="#FFFFFF" style="stroke:#000000;stroke-width:1.0;"/><path d="M1178,1228.5386 L1178,1238.5386 L1188,1238.5386 L1178,1228.5386 " fill="#FFFFFF" style="stroke:#000000;stroke-width:1.0;"/><text fill="#000000" font-family="Verdana" font-size="13" lengthAdjust="spacing" textLength="203" x="840" y="1246.6084">Join on CustID and SportGroup</text><text fill="#000000" font-family="Verdana" font-size="13" lengthAdjust="spacing" textLength="333" x="840" y="1262.4077">Create GetCurrentCustomerCategoryBySportModel</text><line style="stroke:#000000;stroke-width:1.0;" x1="829" x2="871" y1="1296.9365" y2="1296.9365"/><line style="stroke:#000000;stroke-width:1.0;" x1="871" x2="871" y1="1296.9365" y2="1309.9365"/><line style="stroke:#000000;stroke-width:1.0;" x1="830" x2="871" y1="1309.9365" y2="1309.9365"/><polygon fill="#000000" points="840,1305.9365,830,1309.9365,840,1313.9365,836,1309.9365" style="stroke:#000000;stroke-width:1.0;"/><text fill="#000000" font-family="Verdana" font-size="13" lengthAdjust="spacing" textLength="103" x="836" y="1292.207">Convert to XML</text><path d="M834,1322.9365 L834,1363.9365 L1008,1363.9365 L1008,1332.9365 L998,1322.9365 L834,1322.9365 " fill="#FFFFFF" style="stroke:#000000;stroke-width:1.0;"/><path d="M998,1322.9365 L998,1332.9365 L1008,1332.9365 L998,1322.9365 " fill="#FFFFFF" style="stroke:#000000;stroke-width:1.0;"/><text fill="#000000" font-family="Verdana" font-size="13" lengthAdjust="spacing" textLength="153" x="840" y="1341.0063">Serialize customerInfos</text><text fill="#000000" font-family="Verdana" font-size="13" lengthAdjust="spacing" textLength="94" x="840" y="1356.8057">to XML format</text><polygon fill="#000000" points="1220,1387.3345,1230,1391.3345,1220,1395.3345,1224,1391.3345" style="stroke:#000000;stroke-width:1.0;"/><line style="stroke:#000000;stroke-width:1.0;" x1="829" x2="1226" y1="1391.3345" y2="1391.3345"/><text fill="#000000" font-family="Verdana" font-size="13" lengthAdjust="spacing" textLength="297" x="836" y="1386.605">ClassifyNormalPoolCustomers(customersXML)</text><polygon fill="#000000" points="1633,1417.1338,1643,1421.1338,1633,1425.1338,1637,1421.1338" style="stroke:#000000;stroke-width:1.0;"/><line style="stroke:#000000;stroke-width:1.0;" x1="1242" x2="1639" y1="1421.1338" y2="1421.1338"/><text fill="#000000" font-family="Verdana" font-size="13" lengthAdjust="spacing" textLength="297" x="1249" y="1416.4043">ClassifyNormalPoolCustomers(customersXML)</text><line style="stroke:#000000;stroke-width:1.0;" x1="1655" x2="1697" y1="1450.9331" y2="1450.9331"/><line style="stroke:#000000;stroke-width:1.0;" x1="1697" x2="1697" y1="1450.9331" y2="1463.9331"/><line style="stroke:#000000;stroke-width:1.0;" x1="1656" x2="1697" y1="1463.9331" y2="1463.9331"/><polygon fill="#000000" points="1666,1459.9331,1656,1463.9331,1666,1467.9331,1662,1463.9331" style="stroke:#000000;stroke-width:1.0;"/><text fill="#000000" font-family="Verdana" font-size="13" lengthAdjust="spacing" textLength="331" x="1662" y="1446.2036">Create ClassifyNormalPoolCustomerBySportCriteria</text><polygon fill="#000000" points="2055,1505.5317,2065,1509.5317,2055,1513.5317,2059,1509.5317" style="stroke:#000000;stroke-width:1.0;"/><line style="stroke:#000000;stroke-width:1.0;" x1="1655" x2="2061" y1="1509.5317" y2="1509.5317"/><text fill="#000000" font-family="Verdana" font-size="13" lengthAdjust="spacing" textLength="393" x="1662" y="1489.0029">EXEC CTS_BySportNormalClassification_NormalPool_Classify</text><text fill="#000000" font-family="Verdana" font-size="13" lengthAdjust="spacing" textLength="109" x="1662" y="1504.8022">@CustomersXML</text><path d="M2082,1522.5317 L2082,1610.5317 L2314,1610.5317 L2314,1532.5317 L2304,1522.5317 L2082,1522.5317 " fill="#FFFFFF" style="stroke:#000000;stroke-width:1.0;"/><path d="M2304,1522.5317 L2304,1532.5317 L2314,1532.5317 L2304,1522.5317 " fill="#FFFFFF" style="stroke:#000000;stroke-width:1.0;"/><text fill="#000000" font-family="Verdana" font-size="13" lengthAdjust="spacing" textLength="121" x="2088" y="1540.6016">Stored Procedure:</text><text fill="#000000" font-family="Verdana" font-size="13" lengthAdjust="spacing" textLength="170" x="2088" y="1556.4009">- Parse XML customer list</text><text fill="#000000" font-family="Verdana" font-size="13" lengthAdjust="spacing" textLength="211" x="2088" y="1572.2002">- Get accumulated performance</text><text fill="#000000" font-family="Verdana" font-size="13" lengthAdjust="spacing" textLength="163" x="2088" y="1587.9995">- Calculate classification</text><text fill="#000000" font-family="Verdana" font-size="13" lengthAdjust="spacing" textLength="153" x="2088" y="1603.7988">- Update/Insert results</text><polygon fill="#000000" points="1666,1634.3276,1656,1638.3276,1666,1642.3276,1662,1638.3276" style="stroke:#000000;stroke-width:1.0;"/><line style="stroke:#000000;stroke-width:1.0;stroke-dasharray:2.0,2.0;" x1="1660" x2="2071" y1="1638.3276" y2="1638.3276"/><text fill="#000000" font-family="Verdana" font-size="13" lengthAdjust="spacing" textLength="55" x="1672" y="1633.5981">Success</text><polygon fill="#000000" points="1253,1664.127,1243,1668.127,1253,1672.127,1249,1668.127" style="stroke:#000000;stroke-width:1.0;"/><line style="stroke:#000000;stroke-width:1.0;stroke-dasharray:2.0,2.0;" x1="1247" x2="1649" y1="1668.127" y2="1668.127"/><text fill="#000000" font-family="Verdana" font-size="13" lengthAdjust="spacing" textLength="27" x="1259" y="1663.3975">void</text><polygon fill="#000000" points="840,1693.9263,830,1697.9263,840,1701.9263,836,1697.9263" style="stroke:#000000;stroke-width:1.0;"/><line style="stroke:#000000;stroke-width:1.0;stroke-dasharray:2.0,2.0;" x1="834" x2="1236" y1="1697.9263" y2="1697.9263"/><text fill="#000000" font-family="Verdana" font-size="13" lengthAdjust="spacing" textLength="24" x="846" y="1693.1968">this</text><line style="stroke:#000000;stroke-width:1.0;" x1="829" x2="871" y1="1727.7256" y2="1727.7256"/><line style="stroke:#000000;stroke-width:1.0;" x1="871" x2="871" y1="1727.7256" y2="1740.7256"/><line style="stroke:#000000;stroke-width:1.0;" x1="830" x2="871" y1="1740.7256" y2="1740.7256"/><polygon fill="#000000" points="840,1736.7256,830,1740.7256,840,1744.7256,836,1740.7256" style="stroke:#000000;stroke-width:1.0;"/><text fill="#000000" font-family="Verdana" font-size="13" lengthAdjust="spacing" textLength="235" x="836" y="1722.9961">Convert customerInfoClears to XML</text><path d="M834,1753.7256 L834,1794.7256 L1041,1794.7256 L1041,1763.7256 L1031,1753.7256 L834,1753.7256 " fill="#FFFFFF" style="stroke:#000000;stroke-width:1.0;"/><path d="M1031,1753.7256 L1031,1763.7256 L1041,1763.7256 L1031,1753.7256 " fill="#FFFFFF" style="stroke:#000000;stroke-width:1.0;"/><text fill="#000000" font-family="Verdana" font-size="13" lengthAdjust="spacing" textLength="186" x="840" y="1771.7954">Serialize customerInfoClears</text><text fill="#000000" font-family="Verdana" font-size="13" lengthAdjust="spacing" textLength="94" x="840" y="1787.5947">to XML format</text><polygon fill="#000000" points="1220,1818.1235,1230,1822.1235,1220,1826.1235,1224,1822.1235" style="stroke:#000000;stroke-width:1.0;"/><line style="stroke:#000000;stroke-width:1.0;" x1="829" x2="1226" y1="1822.1235" y2="1822.1235"/><text fill="#000000" font-family="Verdana" font-size="13" lengthAdjust="spacing" textLength="384" x="836" y="1817.394">ClearNormalPoolCustomers(customersXML, scannedMaxId)</text><polygon fill="#000000" points="1633,1847.9229,1643,1851.9229,1633,1855.9229,1637,1851.9229" style="stroke:#000000;stroke-width:1.0;"/><line style="stroke:#000000;stroke-width:1.0;" x1="1242" x2="1639" y1="1851.9229" y2="1851.9229"/><text fill="#000000" font-family="Verdana" font-size="13" lengthAdjust="spacing" textLength="384" x="1249" y="1847.1934">ClearNormalPoolCustomers(customersXML, scannedMaxId)</text><line style="stroke:#000000;stroke-width:1.0;" x1="1655" x2="1697" y1="1881.7222" y2="1881.7222"/><line style="stroke:#000000;stroke-width:1.0;" x1="1697" x2="1697" y1="1881.7222" y2="1894.7222"/><line style="stroke:#000000;stroke-width:1.0;" x1="1656" x2="1697" y1="1894.7222" y2="1894.7222"/><polygon fill="#000000" points="1666,1890.7222,1656,1894.7222,1666,1898.7222,1662,1894.7222" style="stroke:#000000;stroke-width:1.0;"/><text fill="#000000" font-family="Verdana" font-size="13" lengthAdjust="spacing" textLength="314" x="1662" y="1876.9927">Create ClearNormalPoolCustomerBySportCriteria</text><polygon fill="#000000" points="2055,1936.3208,2065,1940.3208,2055,1944.3208,2059,1940.3208" style="stroke:#000000;stroke-width:1.0;"/><line style="stroke:#000000;stroke-width:1.0;" x1="1655" x2="2061" y1="1940.3208" y2="1940.3208"/><text fill="#000000" font-family="Verdana" font-size="13" lengthAdjust="spacing" textLength="376" x="1662" y="1919.792">EXEC CTS_BySportNormalClassification_NormalPool_Clear</text><text fill="#000000" font-family="Verdana" font-size="13" lengthAdjust="spacing" textLength="228" x="1662" y="1935.5913">@CustomersXML, @ScannedMaxId</text><path d="M2082,1953.3208 L2082,2026.3208 L2304,2026.3208 L2304,1963.3208 L2294,1953.3208 L2082,1953.3208 " fill="#FFFFFF" style="stroke:#000000;stroke-width:1.0;"/><path d="M2294,1953.3208 L2294,1963.3208 L2304,1963.3208 L2294,1953.3208 " fill="#FFFFFF" style="stroke:#000000;stroke-width:1.0;"/><text fill="#000000" font-family="Verdana" font-size="13" lengthAdjust="spacing" textLength="121" x="2088" y="1971.3906">Stored Procedure:</text><text fill="#000000" font-family="Verdana" font-size="13" lengthAdjust="spacing" textLength="170" x="2088" y="1987.1899">- Parse XML customer list</text><text fill="#000000" font-family="Verdana" font-size="13" lengthAdjust="spacing" textLength="164" x="2088" y="2002.9893">- Delete from NormalPool</text><text fill="#000000" font-family="Verdana" font-size="13" lengthAdjust="spacing" textLength="201" x="2088" y="2018.7886">- WHERE ID &lt;= ScannedMaxId</text><polygon fill="#000000" points="1666,2049.3174,1656,2053.3174,1666,2057.3174,1662,2053.3174" style="stroke:#000000;stroke-width:1.0;"/><line style="stroke:#000000;stroke-width:1.0;stroke-dasharray:2.0,2.0;" x1="1660" x2="2071" y1="2053.3174" y2="2053.3174"/><text fill="#000000" font-family="Verdana" font-size="13" lengthAdjust="spacing" textLength="55" x="1672" y="2048.5879">Success</text><polygon fill="#000000" points="1253,2079.1167,1243,2083.1167,1253,2087.1167,1249,2083.1167" style="stroke:#000000;stroke-width:1.0;"/><line style="stroke:#000000;stroke-width:1.0;stroke-dasharray:2.0,2.0;" x1="1247" x2="1649" y1="2083.1167" y2="2083.1167"/><text fill="#000000" font-family="Verdana" font-size="13" lengthAdjust="spacing" textLength="27" x="1259" y="2078.3872">void</text><polygon fill="#000000" points="840,2108.916,830,2112.916,840,2116.916,836,2112.916" style="stroke:#000000;stroke-width:1.0;"/><line style="stroke:#000000;stroke-width:1.0;stroke-dasharray:2.0,2.0;" x1="834" x2="1236" y1="2112.916" y2="2112.916"/><text fill="#000000" font-family="Verdana" font-size="13" lengthAdjust="spacing" textLength="24" x="846" y="2108.1865">this</text><polygon fill="#000000" points="583,2152.7153,573,2156.7153,583,2160.7153,579,2156.7153" style="stroke:#000000;stroke-width:1.0;"/><line style="stroke:#000000;stroke-width:1.0;stroke-dasharray:2.0,2.0;" x1="577" x2="818" y1="2156.7153" y2="2156.7153"/><text fill="#000000" font-family="Verdana" font-size="13" lengthAdjust="spacing" textLength="120" x="589" y="2151.9858">Task&lt;bool&gt; (true)</text><line style="stroke:#000000;stroke-width:1.0;stroke-dasharray:2.0,2.0;" x1="454" x2="2675" y1="2165.7153" y2="2165.7153"/><text fill="#000000" font-family="Verdana" font-size="11" font-weight="bold" lengthAdjust="spacing" textLength="102" x="459" y="2176.7744">[No Customers]</text><polygon fill="#000000" points="583,2197.8833,573,2201.8833,583,2205.8833,579,2201.8833" style="stroke:#000000;stroke-width:1.0;"/><line style="stroke:#000000;stroke-width:1.0;stroke-dasharray:2.0,2.0;" x1="577" x2="818" y1="2201.8833" y2="2201.8833"/><text fill="#000000" font-family="Verdana" font-size="13" lengthAdjust="spacing" textLength="124" x="589" y="2197.1538">Task&lt;bool&gt; (false)</text><polygon fill="#000000" points="73,2250.4819,63,2254.4819,73,2258.4819,69,2254.4819" style="stroke:#000000;stroke-width:1.0;"/><line style="stroke:#000000;stroke-width:1.0;stroke-dasharray:2.0,2.0;" x1="67" x2="566" y1="2254.4819" y2="2254.4819"/><text fill="#000000" font-family="Verdana" font-size="13" lengthAdjust="spacing" textLength="87" x="79" y="2233.9531">HTTP 200 OK</text><text fill="#000000" font-family="Verdana" font-size="13" lengthAdjust="spacing" textLength="154" x="79" y="2249.7524">{ success: true/false }</text><!--SRC=[xLXDR-Cs4BthLqnpie4OAHRe9KY3NSlUZTDaxKPEDa1J6BH4nqHeqYMfRDoY_ts7acnHNuwJU1SzL8T4jaPlXZDltj3yoSpfWiAI4oOymmody5cg1U7m8GnbB0pud6ZDPYmaXaa1tHK4IwaCT22WVyLKX1HwZDmhil0y4XgfuE1SJY48vpIAELLtejL_CbG9mji7G7J-n5iIPLZ8bWJT71JzT5U95qIw4xuKHacERoJlvn-B06dSMTYrQ7S2yGAg7bb84wZyuykXN9nNW_I88MX1jKvmyezUXBTJeYaS1BzV90viAgSocavkhjvToeZov1NyqEiwrfShjCUSZOE9HVEfC5dUqCpRv1uwfquYZs4q3CPmH9RiA6oeWpxQPK5JOiBvGAJr3jZVr7A2FH93tRfv-RqD92_3CVIVQ1WRsge0jNCafsnUVc-HDZ2Vg4d37Kd9_LWRkQ1AjnoG3OBpUfx_NH2SQddvVHd7LzGQry9bQVCLmtKoKa99IeiPkUtxOEkPMQSmnVnFSkm9UheJxuEG246ZI_8qY61uFHvTZ_F8Kz88YRUAtSyDo5ds7U0LO1FJ24PAXaWMHO-JRpjs2L20RLr-k8L13sPABY2FeEtONn1jidUkvDVKSaHGB2YksB4R3qVmxcUy85odEdlwaN4qXUdAUZhvjH11nGHztE2hLgYGwU53Pd15JQm4rWAn1z5Xgc2Vb8oNXp3GlhNiKkDRNdjKH60puoK9WKwfd5TKnzm4r1nlBMbVe9Yk_lWJTSADDwAb6XHA_Yo1C_2a-rqibuaREfSQwqM0c-OWtC2P5Tr2LOfDvthnvx5uo6jeQrAL10kH_46zJDY0Gi1JlY6dnJsqVW4pnxw9TCebUt4fb_0Hnmj6ESVgef_Di-qn1RQtE3fsuZ8IpeFXvm92iHySaO7IbRMqHKlITy6qgSBPgzGPnIokhmtZt2-thCqjgHyhXHA_1lOnhdkfLgr2REq2MAN8ZMwRbV4jRXsoDdhUHKwp638vp28eA-eMK5TQU_x4hgKagXdOn5bmvWO5bYsJLzBDKCjMlscztIqiApribb_twjYcmM5ldMuu3HnJNcDwWzIFrdIjaY-NO8v6o6EHRl_2RAKrnebUslYcwPRGQdoFL2rJrTMPxFQAihlEfFr-e3TWTLYr_V6iD6-ZnrgT2uYkddPtewRRZ8E-Y36xPChfoKxkJnkzxz0WJIg_loYULOTcmJsNJDIf7dnbPWubqM1Klqw54oz8lvHTG90bES6QDBjPkmgZy2toN1Y7Kk2-tTXnStjvyRfrLiVNGCnajOjJ7p2pUJVx6J2P7gxgDi8REK6dUnumRtIxbm7J7CFk8-QL6_YrQnmolhFQ-iNcs_PwObMVlsp6M4ezDsBiz21X62zYEqCYM5ALi53Ki1d71-5XOWZ5dverfjTBExcE1aBR9bA9lk-mTwhVkGTnbHEL_VYBPVzHikXx2BcPC_qTf7ajIAwK-9oIT4kyPurAWN-CKA6dv-JY4BJpMsplchMl2FOaNxNX_03jGhybuJg4zvKVxVz97UjHJj5dwKTRZU6Ni_vLl-ayudzfSje7a-2v_ol71wLpo37H3oTJpFefj8oAQTkZNDipwIqd45iWPWJVRjip7VTqmpq_T4yYRVBM1wJ7S3OU9sTICFpjJlm3EiwAPSCwIe3XNnVLET_y1W00]--></g></svg>