<svg xmlns="http://www.w3.org/2000/svg" xmlns:xlink="http://www.w3.org/1999/xlink" contentStyleType="text/css" height="664px" preserveAspectRatio="none" style="width:1049px;height:664px;background:#FFFFFF;" version="1.1" viewBox="0 0 1049 664" width="1049px" zoomAndPan="magnify"><defs/><g><text fill="#000000" font-family="Verdana" font-size="22" font-weight="bold" lengthAdjust="spacing" textLength="799" x="123.625" y="37.1182">Normal Account Classification By Sport - SP Clear Detailed Flow</text><ellipse cx="408.75" cy="62.7373" fill="#FFFFFF" rx="10" ry="10" style="stroke:#000000;stroke-width:1.0;"/><path d="M602.25,89.23 L602.25,106.0293 L582.25,110.0293 L602.25,114.0293 L602.25,130.8286 A0,0 0 0 0 602.25,130.8286 L1042.25,130.8286 A0,0 0 0 0 1042.25,130.8286 L1042.25,99.23 L1032.25,89.23 L602.25,89.23 A0,0 0 0 0 602.25,89.23 " fill="#FFFFFF" style="stroke:#000000;stroke-width:1.0;"/><path d="M1032.25,89.23 L1032.25,99.23 L1042.25,99.23 L1032.25,89.23 " fill="#FFFFFF" style="stroke:#000000;stroke-width:1.0;"/><text fill="#000000" font-family="Verdana" font-size="13" lengthAdjust="spacing" textLength="267" x="608.25" y="107.2998">Database: bodb_VR2Model (SQL Server)</text><text fill="#000000" font-family="Verdana" font-size="13" lengthAdjust="spacing" textLength="419" x="608.25" y="123.0991">Parameters: @CustomersXML (XML), @ScannedMaxId (BIGINT)</text><rect fill="#FFFFFF" height="34.584" rx="12.5" ry="12.5" style="stroke:#000000;stroke-width:1.0;" width="347" x="235.25" y="92.7373"/><text fill="#000000" font-family="Verdana" font-size="12" lengthAdjust="spacing" textLength="327" x="245.25" y="114.8018">CTS_BySportNormalClassification_NormalPool_Clear</text><path d="M501.75,140.8286 L501.75,197.1262 L481.75,201.1262 L501.75,205.1262 L501.75,261.4238 A0,0 0 0 0 501.75,261.4238 L766.75,261.4238 A0,0 0 0 0 766.75,261.4238 L766.75,150.8286 L756.75,140.8286 L501.75,140.8286 A0,0 0 0 0 501.75,140.8286 " fill="#FFFFFF" style="stroke:#000000;stroke-width:1.0;"/><path d="M756.75,140.8286 L756.75,150.8286 L766.75,150.8286 L756.75,140.8286 " fill="#FFFFFF" style="stroke:#000000;stroke-width:1.0;"/><text fill="#000000" font-family="Verdana" font-size="13" lengthAdjust="spacing" textLength="13" x="507.75" y="158.8984">1.</text><text fill="#000000" font-family="Verdana" font-size="13" lengthAdjust="spacing" textLength="100" x="525.75" y="158.8984">tmpCustomers:</text><text fill="#000000" font-family="Verdana" font-size="13" lengthAdjust="spacing" textLength="95" x="507.75" y="174.6978">- CustId (INT)</text><text fill="#000000" font-family="Verdana" font-size="13" lengthAdjust="spacing" textLength="169" x="507.75" y="190.4971">- SportGroup (SMALLINT)</text><text fill="#000000" font-family="Verdana" font-size="13" lengthAdjust="spacing" textLength="244" x="507.75" y="206.2964">- PRIMARY KEY (CustId, SportGroup)</text><text fill="#000000" font-family="Verdana" font-size="13" lengthAdjust="spacing" textLength="5" x="507.75" y="222.0957">&#160;</text><text fill="#000000" font-family="Verdana" font-size="13" lengthAdjust="spacing" textLength="13" x="507.75" y="237.895">2.</text><text fill="#000000" font-family="Verdana" font-size="13" lengthAdjust="spacing" textLength="52" x="525.75" y="237.895">tmpIDs:</text><text fill="#000000" font-family="Verdana" font-size="13" lengthAdjust="spacing" textLength="181" x="507.75" y="253.6943">- ID (BIGINT PRIMARY KEY)</text><rect fill="#FFFFFF" height="34.584" rx="12.5" ry="12.5" style="stroke:#000000;stroke-width:1.0;" width="146" x="335.75" y="183.8342"/><text fill="#000000" font-family="Verdana" font-size="12" lengthAdjust="spacing" textLength="126" x="345.75" y="205.8987">Create Temp Tables</text><path d="M516.75,271.4238 L516.75,296.1228 L496.75,300.1228 L516.75,304.1228 L516.75,328.8218 A0,0 0 0 0 516.75,328.8218 L767.75,328.8218 A0,0 0 0 0 767.75,328.8218 L767.75,281.4238 L757.75,271.4238 L516.75,271.4238 A0,0 0 0 0 516.75,271.4238 " fill="#FFFFFF" style="stroke:#000000;stroke-width:1.0;"/><path d="M757.75,271.4238 L757.75,281.4238 L767.75,281.4238 L757.75,271.4238 " fill="#FFFFFF" style="stroke:#000000;stroke-width:1.0;"/><text fill="#000000" font-family="Verdana" font-size="13" lengthAdjust="spacing" textLength="195" x="522.75" y="289.4937">INSERT INTO #tmpCustomers</text><text fill="#000000" font-family="Verdana" font-size="13" lengthAdjust="spacing" textLength="182" x="522.75" y="305.293">SELECT CustId, SportGroup</text><text fill="#000000" font-family="Verdana" font-size="13" lengthAdjust="spacing" textLength="230" x="522.75" y="321.0923">FROM @CustomersXML.nodes('//r')</text><rect fill="#FFFFFF" height="34.584" rx="12.5" ry="12.5" style="stroke:#000000;stroke-width:1.0;" width="176" x="320.75" y="282.8308"/><text fill="#000000" font-family="Verdana" font-size="12" lengthAdjust="spacing" textLength="156" x="330.75" y="304.8953">Parse XML Customer List</text><polygon fill="#FFFFFF" points="325.25,348.8218,492.25,348.8218,504.25,360.8218,492.25,372.8218,325.25,372.8218,313.25,360.8218,325.25,348.8218" style="stroke:#000000;stroke-width:1.0;"/><text fill="#000000" font-family="Verdana" font-size="11" lengthAdjust="spacing" textLength="167" x="325.25" y="365.1965">ScannedMaxId IS NOT NULL?</text><text fill="#000000" font-family="Verdana" font-size="11" lengthAdjust="spacing" textLength="20" x="293.25" y="358.5122">yes</text><text fill="#000000" font-family="Verdana" font-size="11" lengthAdjust="spacing" textLength="14" x="504.25" y="358.5122">no</text><path d="M174.5,382.8218 L174.5,439.1194 L154.5,443.1194 L174.5,447.1194 L174.5,503.417 A0,0 0 0 0 174.5,503.417 L560.5,503.417 A0,0 0 0 0 560.5,503.417 L560.5,392.8218 L550.5,382.8218 L174.5,382.8218 A0,0 0 0 0 174.5,382.8218 " fill="#FFFFFF" style="stroke:#000000;stroke-width:1.0;"/><path d="M550.5,382.8218 L550.5,392.8218 L560.5,392.8218 L550.5,382.8218 " fill="#FFFFFF" style="stroke:#000000;stroke-width:1.0;"/><text fill="#000000" font-family="Verdana" font-size="13" lengthAdjust="spacing" textLength="147" x="180.5" y="400.8916">INSERT INTO #tmpIDs</text><text fill="#000000" font-family="Verdana" font-size="13" lengthAdjust="spacing" textLength="82" x="180.5" y="416.6909">SELECT p.ID</text><text fill="#000000" font-family="Verdana" font-size="13" lengthAdjust="spacing" textLength="365" x="180.5" y="432.4902">FROM CustomerClassification_BySport_NormalPool AS p</text><text fill="#000000" font-family="Verdana" font-size="13" lengthAdjust="spacing" textLength="217" x="180.5" y="448.2896">INNER JOIN #tmpCustomers AS t</text><text fill="#000000" font-family="Verdana" font-size="13" lengthAdjust="spacing" textLength="153" x="190.5" y="464.0889">ON t.CustId = p.CustId</text><text fill="#000000" font-family="Verdana" font-size="13" lengthAdjust="spacing" textLength="223" x="185.5" y="479.8882">AND p.SportGroup = t.SportGroup</text><text fill="#000000" font-family="Verdana" font-size="13" lengthAdjust="spacing" textLength="215" x="180.5" y="495.6875">WHERE p.ID &lt;= @ScannedMaxId</text><rect fill="#FFFFFF" height="34.584" rx="12.5" ry="12.5" style="stroke:#000000;stroke-width:1.0;" width="129" x="25.5" y="425.8274"/><text fill="#000000" font-family="Verdana" font-size="12" lengthAdjust="spacing" textLength="109" x="35.5" y="447.8918">Get IDs to Delete</text><path d="M194,513.417 L194,546.0156 L174,550.0156 L194,554.0156 L194,586.6143 A0,0 0 0 0 194,586.6143 L657,586.6143 A0,0 0 0 0 657,586.6143 L657,523.417 L647,513.417 L194,513.417 A0,0 0 0 0 194,513.417 " fill="#FFFFFF" style="stroke:#000000;stroke-width:1.0;"/><path d="M647,513.417 L647,523.417 L657,523.417 L647,513.417 " fill="#FFFFFF" style="stroke:#000000;stroke-width:1.0;"/><text fill="#000000" font-family="Verdana" font-size="13" lengthAdjust="spacing" textLength="383" x="200" y="531.4868">DELETE FROM CustomerClassification_BySport_NormalPool</text><text fill="#000000" font-family="Verdana" font-size="13" lengthAdjust="spacing" textLength="131" x="200" y="547.2861">FROM #tmpIDs AS r</text><text fill="#000000" font-family="Verdana" font-size="13" lengthAdjust="spacing" textLength="442" x="200" y="563.0854">INNER LOOP JOIN CustomerClassification_BySport_NormalPool AS c</text><text fill="#000000" font-family="Verdana" font-size="13" lengthAdjust="spacing" textLength="94" x="210" y="578.8848">ON r.ID = c.ID</text><rect fill="#FFFFFF" height="34.584" rx="12.5" ry="12.5" style="stroke:#000000;stroke-width:1.0;" width="168" x="6" y="532.7236"/><text fill="#000000" font-family="Verdana" font-size="12" lengthAdjust="spacing" textLength="148" x="16" y="554.7881">Delete from NormalPool</text><rect fill="#FFFFFF" height="34.584" rx="12.5" ry="12.5" style="stroke:#000000;stroke-width:1.0;" width="101" x="677" y="382.8218"/><text fill="#000000" font-family="Verdana" font-size="12" lengthAdjust="spacing" textLength="81" x="687" y="404.8862">Skip deletion</text><polygon fill="#FFFFFF" points="408.75,592.6143,420.75,604.6143,408.75,616.6143,396.75,604.6143,408.75,592.6143" style="stroke:#000000;stroke-width:1.0;"/><ellipse cx="408.75" cy="647.6143" fill="none" rx="11" ry="11" style="stroke:#000000;stroke-width:1.0;"/><ellipse cx="408.75" cy="647.6143" fill="#FFFFFF" rx="6" ry="6" style="stroke:#000000;stroke-width:1.0;"/><line style="stroke:#000000;stroke-width:1.0;" x1="408.75" x2="408.75" y1="72.7373" y2="92.7373"/><polygon fill="#000000" points="404.75,82.7373,408.75,92.7373,412.75,82.7373,408.75,86.7373" style="stroke:#000000;stroke-width:1.0;"/><line style="stroke:#000000;stroke-width:1.0;" x1="408.75" x2="408.75" y1="127.3213" y2="183.8342"/><polygon fill="#000000" points="404.75,173.8342,408.75,183.8342,412.75,173.8342,408.75,177.8342" style="stroke:#000000;stroke-width:1.0;"/><line style="stroke:#000000;stroke-width:1.0;" x1="408.75" x2="408.75" y1="218.4182" y2="282.8308"/><polygon fill="#000000" points="404.75,272.8308,408.75,282.8308,412.75,272.8308,408.75,276.8308" style="stroke:#000000;stroke-width:1.0;"/><line style="stroke:#000000;stroke-width:1.0;" x1="90" x2="90" y1="460.4114" y2="532.7236"/><polygon fill="#000000" points="86,522.7236,90,532.7236,94,522.7236,90,526.7236" style="stroke:#000000;stroke-width:1.0;"/><line style="stroke:#000000;stroke-width:1.0;" x1="313.25" x2="90" y1="360.8218" y2="360.8218"/><line style="stroke:#000000;stroke-width:1.0;" x1="90" x2="90" y1="360.8218" y2="425.8274"/><polygon fill="#000000" points="86,415.8274,90,425.8274,94,415.8274,90,419.8274" style="stroke:#000000;stroke-width:1.0;"/><line style="stroke:#000000;stroke-width:1.0;" x1="504.25" x2="727.5" y1="360.8218" y2="360.8218"/><line style="stroke:#000000;stroke-width:1.0;" x1="727.5" x2="727.5" y1="360.8218" y2="382.8218"/><polygon fill="#000000" points="723.5,372.8218,727.5,382.8218,731.5,372.8218,727.5,376.8218" style="stroke:#000000;stroke-width:1.0;"/><line style="stroke:#000000;stroke-width:1.0;" x1="90" x2="90" y1="567.3076" y2="604.6143"/><line style="stroke:#000000;stroke-width:1.0;" x1="90" x2="396.75" y1="604.6143" y2="604.6143"/><polygon fill="#000000" points="386.75,600.6143,396.75,604.6143,386.75,608.6143,390.75,604.6143" style="stroke:#000000;stroke-width:1.0;"/><line style="stroke:#000000;stroke-width:1.0;" x1="727.5" x2="727.5" y1="417.4058" y2="604.6143"/><line style="stroke:#000000;stroke-width:1.0;" x1="727.5" x2="420.75" y1="604.6143" y2="604.6143"/><polygon fill="#000000" points="430.75,600.6143,420.75,604.6143,430.75,608.6143,426.75,604.6143" style="stroke:#000000;stroke-width:1.0;"/><line style="stroke:#000000;stroke-width:1.0;" x1="408.75" x2="408.75" y1="317.4148" y2="348.8218"/><polygon fill="#000000" points="404.75,338.8218,408.75,348.8218,412.75,338.8218,408.75,342.8218" style="stroke:#000000;stroke-width:1.0;"/><line style="stroke:#000000;stroke-width:1.0;" x1="408.75" x2="408.75" y1="616.6143" y2="636.6143"/><polygon fill="#000000" points="404.75,626.6143,408.75,636.6143,412.75,626.6143,408.75,630.6143" style="stroke:#000000;stroke-width:1.0;"/><!--SRC=[bLHDZvim5BppArxLmn9fDolrI1fray2cj7mLquyzHGuuNQi68zlPDl- -jaa89ErXEIJelUTvC-CHRzGpgGcq3DF6KLGn0WaNDMQmA4k-RnIi69QIxcY95UKDB0-0MYuKt07AT9DW0JvHc39ImIFZlnr7AYoKuwqAj5aUx707EKRQTCMCSxQnC3EduOg0e3-VbGFwyR72Moo91rjURJVVydSnhmW35ts9017nGiJ43cPOu9ee8gG73wkzLBpMxp_Y25pzCxc51rJYfY5LZF-45RZBS1qcnSGXJGLcfwF92eBryeBKBHHuouYyelDMrMqFxjdI7PY2WRHuNSagNWk-RpNJU155WrwMX_4YVuBFmHEutTdRmO5khDyM-lsUq3_H7cAC96WN906Z-iGI8YhLbOumGK5UwByY7MkoNHH4mQg0Qsws-vYdyTZYQQFlHBetz_VYPaY7xhJweUiXWYGj8FaQHHyce6FNW7iWifFihOdI6YKehjF4z5tERFs2-h_ewrDzxqY-dOP-NxEKJuml8dYCvo2Ai43G3dObGGwVqZ0PEsMcpem0qWJKz1Y5kLxVlPu75eclguDWpFNyXRNc-Vuno0DB7zxFnwcrCxszVKoypYtO2Lx3MSP_tVErGqNmIbF6NXvDDnw82wUYDCqwkrvbU3csKXZzSoXFjzYh9am7t6tuCJFe5ssXClerzCnaZ-xCruUtpby0]--></g></svg>