<svg xmlns="http://www.w3.org/2000/svg" xmlns:xlink="http://www.w3.org/1999/xlink" contentStyleType="text/css" height="1361px" preserveAspectRatio="none" style="width:1068px;height:1361px;background:#FFFFFF;" version="1.1" viewBox="0 0 1068 1361" width="1068px" zoomAndPan="magnify"><defs/><g><text fill="#000000" font-family="Verdana" font-size="22" font-weight="bold" lengthAdjust="spacing" textLength="983" x="41" y="37.1182">Normal Account Classification By Sport - SP GetCurrentCategory Detailed Flow</text><ellipse cx="197" cy="62.7373" fill="#FFFFFF" rx="10" ry="10" style="stroke:#000000;stroke-width:1.0;"/><path d="M408,89.23 L408,106.0293 L388,110.0293 L408,114.0293 L408,130.8286 A0,0 0 0 0 408,130.8286 L674,130.8286 A0,0 0 0 0 674,130.8286 L674,99.23 L664,89.23 L408,89.23 A0,0 0 0 0 408,89.23 " fill="#FFFFFF" style="stroke:#000000;stroke-width:1.0;"/><path d="M664,89.23 L664,99.23 L674,99.23 L664,89.23 " fill="#FFFFFF" style="stroke:#000000;stroke-width:1.0;"/><text fill="#000000" font-family="Verdana" font-size="13" lengthAdjust="spacing" textLength="245" x="414" y="107.2998">Database: CTS_DataCenter (MySQL)</text><text fill="#000000" font-family="Verdana" font-size="13" lengthAdjust="spacing" textLength="227" x="414" y="123.0991">Parameter: @ip_CustSport (JSON)</text><rect fill="#FFFFFF" height="34.584" rx="12.5" ry="12.5" style="stroke:#000000;stroke-width:1.0;" width="382" x="6" y="92.7373"/><text fill="#000000" font-family="Verdana" font-size="12" lengthAdjust="spacing" textLength="362" x="16" y="114.8018">CTS_DC_CustClassification_BySport_GetCurrentCategory</text><path d="M272.5,140.8286 L272.5,165.5276 L252.5,169.5276 L272.5,173.5276 L272.5,198.2266 A0,0 0 0 0 272.5,198.2266 L482.5,198.2266 A0,0 0 0 0 482.5,198.2266 L482.5,150.8286 L472.5,140.8286 L272.5,140.8286 A0,0 0 0 0 272.5,140.8286 " fill="#FFFFFF" style="stroke:#000000;stroke-width:1.0;"/><path d="M472.5,140.8286 L472.5,150.8286 L482.5,150.8286 L472.5,140.8286 " fill="#FFFFFF" style="stroke:#000000;stroke-width:1.0;"/><text fill="#000000" font-family="Verdana" font-size="13" lengthAdjust="spacing" textLength="182" x="278.5" y="158.8984">CONST_GROUP_PROBATION</text><text fill="#000000" font-family="Verdana" font-size="13" lengthAdjust="spacing" textLength="181" x="278.5" y="174.6978">CONST_PARENTID_NORMAL</text><text fill="#000000" font-family="Verdana" font-size="13" lengthAdjust="spacing" textLength="189" x="278.5" y="190.4971">CONST_PARENTID_WRAPPER</text><rect fill="#FFFFFF" height="34.584" rx="12.5" ry="12.5" style="stroke:#000000;stroke-width:1.0;" width="111" x="141.5" y="152.2356"/><text fill="#000000" font-family="Verdana" font-size="12" lengthAdjust="spacing" textLength="91" x="151.5" y="174.3">Get Constants</text><path d="M290,208.2266 L290,311.9221 L270,315.9221 L290,319.9221 L290,423.6177 A0,0 0 0 0 290,423.6177 L556,423.6177 A0,0 0 0 0 556,423.6177 L556,218.2266 L546,208.2266 L290,208.2266 A0,0 0 0 0 290,208.2266 " fill="#FFFFFF" style="stroke:#000000;stroke-width:1.0;"/><path d="M546,208.2266 L546,218.2266 L556,218.2266 L546,208.2266 " fill="#FFFFFF" style="stroke:#000000;stroke-width:1.0;"/><text fill="#000000" font-family="Verdana" font-size="13" lengthAdjust="spacing" textLength="80" x="296" y="226.2964">Temp_Cust:</text><text fill="#000000" font-family="Verdana" font-size="13" lengthAdjust="spacing" textLength="140" x="296" y="242.0957">- CustID, SportGroup</text><text fill="#000000" font-family="Verdana" font-size="13" lengthAdjust="spacing" textLength="245" x="296" y="257.895">- PRIMARY KEY (CustID, SportGroup)</text><text fill="#000000" font-family="Verdana" font-size="13" lengthAdjust="spacing" textLength="5" x="296" y="273.6943">&#160;</text><text fill="#000000" font-family="Verdana" font-size="13" lengthAdjust="spacing" textLength="123" x="296" y="289.4937">Temp_InvalidCust:</text><text fill="#000000" font-family="Verdana" font-size="13" lengthAdjust="spacing" textLength="56" x="296" y="305.293">- CustID</text><text fill="#000000" font-family="Verdana" font-size="13" lengthAdjust="spacing" textLength="161" x="296" y="321.0923">- PRIMARY KEY (CustID)</text><text fill="#000000" font-family="Verdana" font-size="13" lengthAdjust="spacing" textLength="5" x="296" y="336.8916">&#160;</text><text fill="#000000" font-family="Verdana" font-size="13" lengthAdjust="spacing" textLength="140" x="296" y="352.6909">Temp_CustCategory:</text><text fill="#000000" font-family="Verdana" font-size="13" lengthAdjust="spacing" textLength="140" x="296" y="368.4902">- CustID, SportGroup</text><text fill="#000000" font-family="Verdana" font-size="13" lengthAdjust="spacing" textLength="208" x="296" y="384.2896">- CategoryID, CategoryGroupID</text><text fill="#000000" font-family="Verdana" font-size="13" lengthAdjust="spacing" textLength="232" x="296" y="400.0889">- IsProbationLastDay, CreatedDate</text><text fill="#000000" font-family="Verdana" font-size="13" lengthAdjust="spacing" textLength="245" x="296" y="415.8882">- PRIMARY KEY (CustID, SportGroup)</text><rect fill="#FFFFFF" height="34.584" rx="12.5" ry="12.5" style="stroke:#000000;stroke-width:1.0;" width="146" x="124" y="298.6301"/><text fill="#000000" font-family="Verdana" font-size="12" lengthAdjust="spacing" textLength="126" x="134" y="320.6946">Create Temp Tables</text><path d="M308.5,433.6177 L308.5,458.3167 L288.5,462.3167 L308.5,466.3167 L308.5,491.0156 A0,0 0 0 0 308.5,491.0156 L589.5,491.0156 A0,0 0 0 0 589.5,491.0156 L589.5,443.6177 L579.5,433.6177 L308.5,433.6177 A0,0 0 0 0 308.5,433.6177 " fill="#FFFFFF" style="stroke:#000000;stroke-width:1.0;"/><path d="M579.5,433.6177 L579.5,443.6177 L589.5,443.6177 L579.5,433.6177 " fill="#FFFFFF" style="stroke:#000000;stroke-width:1.0;"/><text fill="#000000" font-family="Verdana" font-size="13" lengthAdjust="spacing" textLength="165" x="314.5" y="451.6875">INSERT INTO Temp_Cust</text><text fill="#000000" font-family="Verdana" font-size="13" lengthAdjust="spacing" textLength="252" x="314.5" y="467.4868">SELECT DISTINCT CustID, SportGroup</text><text fill="#000000" font-family="Verdana" font-size="13" lengthAdjust="spacing" textLength="260" x="314.5" y="483.2861">FROM JSON_TABLE(@ip_CustSport, ...)</text><rect fill="#FFFFFF" height="34.584" rx="12.5" ry="12.5" style="stroke:#000000;stroke-width:1.0;" width="183" x="105.5" y="445.0247"/><text fill="#000000" font-family="Verdana" font-size="12" lengthAdjust="spacing" textLength="163" x="115.5" y="467.0891">Parse JSON Customer List</text><path d="M288.5,501.0156 L288.5,573.1125 L268.5,577.1125 L288.5,581.1125 L288.5,653.2095 A0,0 0 0 0 288.5,653.2095 L703.5,653.2095 A0,0 0 0 0 703.5,653.2095 L703.5,511.0156 L693.5,501.0156 L288.5,501.0156 A0,0 0 0 0 288.5,501.0156 " fill="#FFFFFF" style="stroke:#000000;stroke-width:1.0;"/><path d="M693.5,501.0156 L693.5,511.0156 L703.5,511.0156 L693.5,501.0156 " fill="#FFFFFF" style="stroke:#000000;stroke-width:1.0;"/><text fill="#000000" font-family="Verdana" font-size="13" lengthAdjust="spacing" textLength="208" x="294.5" y="519.0854">INSERT INTO Temp_InvalidCust</text><text fill="#000000" font-family="Verdana" font-size="13" lengthAdjust="spacing" textLength="129" x="294.5" y="534.8848">SELECT tmp.CustID</text><text fill="#000000" font-family="Verdana" font-size="13" lengthAdjust="spacing" textLength="169" x="294.5" y="550.6841">FROM Temp_Cust AS tmp</text><text fill="#000000" font-family="Verdana" font-size="13" lengthAdjust="spacing" textLength="197" x="294.5" y="566.4834">LEFT JOIN CTSCustomer AS c</text><text fill="#000000" font-family="Verdana" font-size="13" lengthAdjust="spacing" textLength="320" x="304.5" y="582.2827">ON c.CustID = tmp.CustID AND c.CustSubID = 0</text><text fill="#000000" font-family="Verdana" font-size="13" lengthAdjust="spacing" textLength="164" x="294.5" y="598.082">WHERE c.CustID IS NULL</text><text fill="#000000" font-family="Verdana" font-size="13" lengthAdjust="spacing" textLength="5" x="294.5" y="613.8813">&#160;</text><text fill="#000000" font-family="Verdana" font-size="13" lengthAdjust="spacing" textLength="170" x="294.5" y="629.6807">DELETE FROM Temp_Cust</text><text fill="#000000" font-family="Verdana" font-size="13" lengthAdjust="spacing" textLength="394" x="294.5" y="645.48">WHERE CustID IN (SELECT CustID FROM Temp_InvalidCust)</text><rect fill="#FFFFFF" height="34.584" rx="12.5" ry="12.5" style="stroke:#000000;stroke-width:1.0;" width="143" x="125.5" y="559.8206"/><text fill="#000000" font-family="Verdana" font-size="12" lengthAdjust="spacing" textLength="123" x="135.5" y="581.885">Validate Customers</text><path d="M315,663.2095 L315,822.2026 L295,826.2026 L315,830.2026 L315,989.1958 A0,0 0 0 0 315,989.1958 L726,989.1958 A0,0 0 0 0 726,989.1958 L726,673.2095 L716,663.2095 L315,663.2095 A0,0 0 0 0 315,663.2095 " fill="#FFFFFF" style="stroke:#000000;stroke-width:1.0;"/><path d="M716,663.2095 L716,673.2095 L726,673.2095 L716,663.2095 " fill="#FFFFFF" style="stroke:#000000;stroke-width:1.0;"/><text fill="#000000" font-family="Verdana" font-size="13" lengthAdjust="spacing" textLength="225" x="321" y="681.2793">INSERT INTO Temp_CustCategory</text><text fill="#000000" font-family="Verdana" font-size="13" lengthAdjust="spacing" textLength="259" x="321" y="697.0786">SELECT tmpc.CustID, tmpc.SportGroup</text><text fill="#000000" font-family="Verdana" font-size="13" lengthAdjust="spacing" textLength="288" x="346" y="712.8779">, tmplc.CategoryID, tmplc.CategoryGroupID</text><text fill="#000000" font-family="Verdana" font-size="13" lengthAdjust="spacing" textLength="134" x="346" y="728.6772">, tmplc.CreatedDate</text><text fill="#000000" font-family="Verdana" font-size="13" lengthAdjust="spacing" textLength="177" x="321" y="744.4766">FROM Temp_Cust AS tmpc</text><text fill="#000000" font-family="Verdana" font-size="13" lengthAdjust="spacing" textLength="103" x="321" y="760.2759">LATERAL JOIN (</text><text fill="#000000" font-family="Verdana" font-size="13" lengthAdjust="spacing" textLength="306" x="341" y="776.0752">SELECT cc.CustID, cc.SportID, cc.CategoryID</text><text fill="#000000" font-family="Verdana" font-size="13" lengthAdjust="spacing" textLength="345" x="366" y="791.8745">, ca.CategoryGroupID, cc.CreatedDate, ca.ParentID</text><text fill="#000000" font-family="Verdana" font-size="13" lengthAdjust="spacing" textLength="321" x="341" y="807.6738">FROM CTSCustomerClassification_BySport AS cc</text><text fill="#000000" font-family="Verdana" font-size="13" lengthAdjust="spacing" textLength="245" x="341" y="823.4731">INNER JOIN CustomerCategory AS ca</text><text fill="#000000" font-family="Verdana" font-size="13" lengthAdjust="spacing" textLength="233" x="351" y="839.2725">ON ca.CategoryID = cc.CategoryID</text><text fill="#000000" font-family="Verdana" font-size="13" lengthAdjust="spacing" textLength="217" x="341" y="855.0718">WHERE tmpc.CustID = cc.CustID</text><text fill="#000000" font-family="Verdana" font-size="13" lengthAdjust="spacing" textLength="234" x="351" y="870.8711">AND tmpc.SportGroup = cc.SportID</text><text fill="#000000" font-family="Verdana" font-size="13" lengthAdjust="spacing" textLength="134" x="351" y="886.6704">AND ca.IsActive = 1</text><text fill="#000000" font-family="Verdana" font-size="13" lengthAdjust="spacing" textLength="327" x="351" y="902.4697">AND ca.ParentID &lt;&gt; CONST_PARENTID_WRAPPER</text><text fill="#000000" font-family="Verdana" font-size="13" lengthAdjust="spacing" textLength="229" x="341" y="918.269">ORDER BY ca.CategoryPriority ASC</text><text fill="#000000" font-family="Verdana" font-size="13" lengthAdjust="spacing" textLength="184" x="376" y="934.0684">, cc.LastModifiedDate DESC</text><text fill="#000000" font-family="Verdana" font-size="13" lengthAdjust="spacing" textLength="50" x="341" y="949.8677">LIMIT 1</text><text fill="#000000" font-family="Verdana" font-size="13" lengthAdjust="spacing" textLength="47" x="321" y="965.667">) tmplc</text><text fill="#000000" font-family="Verdana" font-size="13" lengthAdjust="spacing" textLength="349" x="321" y="981.4663">WHERE tmplc.ParentID = CONST_PARENTID_NORMAL</text><rect fill="#FFFFFF" height="34.584" rx="12.5" ry="12.5" style="stroke:#000000;stroke-width:1.0;" width="196" x="99" y="808.9106"/><text fill="#000000" font-family="Verdana" font-size="12" lengthAdjust="spacing" textLength="176" x="109" y="830.9751">Get Latest Normal Category</text><path d="M285,999.1958 L285,1063.3931 L265,1067.3931 L285,1071.3931 L285,1135.5903 A0,0 0 0 0 285,1135.5903 L1061,1135.5903 A0,0 0 0 0 1061,1135.5903 L1061,1009.1958 L1051,999.1958 L285,999.1958 A0,0 0 0 0 285,999.1958 " fill="#FFFFFF" style="stroke:#000000;stroke-width:1.0;"/><path d="M1051,999.1958 L1051,1009.1958 L1061,1009.1958 L1051,999.1958 " fill="#FFFFFF" style="stroke:#000000;stroke-width:1.0;"/><text fill="#000000" font-family="Verdana" font-size="13" lengthAdjust="spacing" textLength="261" x="291" y="1017.2656">UPDATE Temp_CustCategory AS tmpCc</text><text fill="#000000" font-family="Verdana" font-size="13" lengthAdjust="spacing" textLength="177" x="291" y="1033.0649">INNER JOIN StaticList AS s</text><text fill="#000000" font-family="Verdana" font-size="13" lengthAdjust="spacing" textLength="341" x="301" y="1048.8643">ON s.ListID = 23 AND s.ItemID = tmpCc.SportGroup</text><text fill="#000000" font-family="Verdana" font-size="13" lengthAdjust="spacing" textLength="230" x="291" y="1064.6636">SET tmpCc.IsProbationLastDay = (</text><text fill="#000000" font-family="Verdana" font-size="13" lengthAdjust="spacing" textLength="735" x="311" y="1080.4629">CASE WHEN tmpCc.CreatedDate &lt;= DATE_SUB(CurrentDate, INTERVAL CAST(s.ItemValue AS UNSIGNED) DAY)</text><text fill="#000000" font-family="Verdana" font-size="13" lengthAdjust="spacing" textLength="129" x="311" y="1096.2622">THEN 1 ELSE 0 END</text><text fill="#000000" font-family="Verdana" font-size="13" lengthAdjust="spacing" textLength="6" x="291" y="1112.0615">)</text><text fill="#000000" font-family="Verdana" font-size="13" lengthAdjust="spacing" textLength="411" x="291" y="1127.8608">WHERE tmpCc.CategoryGroupID = CONST_GROUP_PROBATION</text><rect fill="#FFFFFF" height="34.584" rx="12.5" ry="12.5" style="stroke:#000000;stroke-width:1.0;" width="136" x="129" y="1050.1011"/><text fill="#000000" font-family="Verdana" font-size="12" lengthAdjust="spacing" textLength="116" x="139" y="1072.1655">Get Probation Info</text><path d="M273,1145.5903 L273,1225.5869 L253,1229.5869 L273,1233.5869 L273,1313.5835 A0,0 0 0 0 273,1313.5835 L804,1313.5835 A0,0 0 0 0 804,1313.5835 L804,1155.5903 L794,1145.5903 L273,1145.5903 A0,0 0 0 0 273,1145.5903 " fill="#FFFFFF" style="stroke:#000000;stroke-width:1.0;"/><path d="M794,1145.5903 L794,1155.5903 L804,1155.5903 L794,1145.5903 " fill="#FFFFFF" style="stroke:#000000;stroke-width:1.0;"/><text fill="#000000" font-family="Verdana" font-size="13" lengthAdjust="spacing" textLength="228" x="279" y="1163.6602">SELECT DISTINCT tmpCust.CustID</text><text fill="#000000" font-family="Verdana" font-size="13" lengthAdjust="spacing" textLength="144" x="304" y="1179.4595">, tmpCust.SportGroup</text><text fill="#000000" font-family="Verdana" font-size="13" lengthAdjust="spacing" textLength="309" x="304" y="1195.2588">, CASE WHEN tmpCc.CategoryGroupID IS NULL</text><text fill="#000000" font-family="Verdana" font-size="13" lengthAdjust="spacing" textLength="382" x="339" y="1211.0581">THEN 0 ELSE tmpCc.CategoryGroupID END AS CategoryID</text><text fill="#000000" font-family="Verdana" font-size="13" lengthAdjust="spacing" textLength="324" x="304" y="1226.8574">, CASE WHEN tmpCc.IsProbationLastDay IS NULL</text><text fill="#000000" font-family="Verdana" font-size="13" lengthAdjust="spacing" textLength="450" x="339" y="1242.6567">THEN 0 ELSE tmpCc.IsProbationLastDay END AS IsProbationLastDay</text><text fill="#000000" font-family="Verdana" font-size="13" lengthAdjust="spacing" textLength="199" x="279" y="1258.4561">FROM Temp_Cust AS tmpCust</text><text fill="#000000" font-family="Verdana" font-size="13" lengthAdjust="spacing" textLength="276" x="279" y="1274.2554">LEFT JOIN Temp_CustCategory AS tmpCc</text><text fill="#000000" font-family="Verdana" font-size="13" lengthAdjust="spacing" textLength="238" x="289" y="1290.0547">ON tmpCc.CustID = tmpCust.CustID</text><text fill="#000000" font-family="Verdana" font-size="13" lengthAdjust="spacing" textLength="306" x="284" y="1305.854">AND tmpCc.SportGroup = tmpCust.SportGroup</text><rect fill="#FFFFFF" height="34.584" rx="12.5" ry="12.5" style="stroke:#000000;stroke-width:1.0;" width="112" x="141" y="1212.2949"/><text fill="#000000" font-family="Verdana" font-size="12" lengthAdjust="spacing" textLength="92" x="151" y="1234.3594">Return Results</text><ellipse cx="197" cy="1344.5835" fill="none" rx="11" ry="11" style="stroke:#000000;stroke-width:1.0;"/><ellipse cx="197" cy="1344.5835" fill="#FFFFFF" rx="6" ry="6" style="stroke:#000000;stroke-width:1.0;"/><line style="stroke:#000000;stroke-width:1.0;" x1="197" x2="197" y1="72.7373" y2="92.7373"/><polygon fill="#000000" points="193,82.7373,197,92.7373,201,82.7373,197,86.7373" style="stroke:#000000;stroke-width:1.0;"/><line style="stroke:#000000;stroke-width:1.0;" x1="197" x2="197" y1="127.3213" y2="152.2356"/><polygon fill="#000000" points="193,142.2356,197,152.2356,201,142.2356,197,146.2356" style="stroke:#000000;stroke-width:1.0;"/><line style="stroke:#000000;stroke-width:1.0;" x1="197" x2="197" y1="186.8196" y2="298.6301"/><polygon fill="#000000" points="193,288.6301,197,298.6301,201,288.6301,197,292.6301" style="stroke:#000000;stroke-width:1.0;"/><line style="stroke:#000000;stroke-width:1.0;" x1="197" x2="197" y1="333.2141" y2="445.0247"/><polygon fill="#000000" points="193,435.0247,197,445.0247,201,435.0247,197,439.0247" style="stroke:#000000;stroke-width:1.0;"/><line style="stroke:#000000;stroke-width:1.0;" x1="197" x2="197" y1="479.6086" y2="559.8206"/><polygon fill="#000000" points="193,549.8206,197,559.8206,201,549.8206,197,553.8206" style="stroke:#000000;stroke-width:1.0;"/><line style="stroke:#000000;stroke-width:1.0;" x1="197" x2="197" y1="594.4045" y2="808.9106"/><polygon fill="#000000" points="193,798.9106,197,808.9106,201,798.9106,197,802.9106" style="stroke:#000000;stroke-width:1.0;"/><line style="stroke:#000000;stroke-width:1.0;" x1="197" x2="197" y1="843.4946" y2="1050.1011"/><polygon fill="#000000" points="193,1040.1011,197,1050.1011,201,1040.1011,197,1044.1011" style="stroke:#000000;stroke-width:1.0;"/><line style="stroke:#000000;stroke-width:1.0;" x1="197" x2="197" y1="1084.6851" y2="1212.2949"/><polygon fill="#000000" points="193,1202.2949,197,1212.2949,201,1202.2949,197,1206.2949" style="stroke:#000000;stroke-width:1.0;"/><line style="stroke:#000000;stroke-width:1.0;" x1="197" x2="197" y1="1246.8789" y2="1333.5835"/><polygon fill="#000000" points="193,1323.5835,197,1333.5835,201,1323.5835,197,1327.5835" style="stroke:#000000;stroke-width:1.0;"/><!--SRC=[ZLPTZviw47tdLqpV4caRRM_VqkxL9U3TqXB31T9gdo8lSLia0X4uhVBlEpO674oqvIM4-JepvtZWZVZ9ZnnE9IigHnIYv43hviXASFEyFbS2l9ArRV6zo9aewWes5qXFTIFWBQGnF77XdPk6Ly9ZWl-ecmluNB2Yv0TuBElVZjCArWXdxMNftlVsthaLrmdtculAjxTJVN2gMd1eYXy_XGDu-Kom5zRoDQXq-Cz3Tzx0Odj9_m-NoYbc3JjoVBg6_ugJgjW1NdnE8xfqU7K0cTTnrbWIlBf2Y9LehMfUHDDi_vH4ktWV9z76pOA86fROJGZD0dzFesJhXdEMRuaRnoGnQteDn_OWuySJPEobv7PXQLEur-hlMv3tWN_N3VwfgSydROYJOEicp_25FCF2zke6CkOCgb-iB0vswjlffYaKWPgVL-7rZjBOtolxK35euwP-KK88MIjyTa5FDQ43qil_jarZlaX_oq5IhN3LHvH7MBJ2cd90Kv9a-9D5OslAafAGU1duGPe556zkzFUOH5jLQ9-vcv0ihjHs1wlLwWhOLpbwINqFgtqTaa6OYKmSJok3E0LaQ07SL3eeIqWUC_WS1LGUc64Sw90hCm1EATUfuC782oxrjIKzloZZlGhvzeaaP8m9Kg2xC1n5uYF2Z4mW6P5z78M5RaO_6IECfgtJ6k80iKMzecukYbbkU-_99FjUxhe_4vBLfKmbEXfwldvYglewP2BcMQuwDa8t8uaRTdmjXbGQQJxYp3LAVJ-Y6ijt478s1TW5Z9YK3nuPNAD6k09fA6P-OoiTvKDGG2b9jDZwkFwT83sPWKxAZXd0KLxpZNIYCLZIdgFukqlATK9Vvwa7DN75ua7hvgBunT7jdMtjHm8V_xsrquTU4X_xtZoR7SLDKJU5a8rxrwGeMlALN7RR-e0pxNZ0SsDuXi4so3IiPISavseQAAm1uSEDrz7av0nx5eBgUssTc5tie_pimw8LwkNEXEDKOBPSRbRfqexxf5t9XmhOF-_LFDjL8FYntp2UTSPIacc3_Jh0cF4eU6vAv12eTZU431yVG7QmJtURXVwEw0IEIu0aN_5SONIswB3WBZvpYNj7q-294d-9mS_BeL0cQxm34cAzUo2qqy_ocWJFElu35zEF1eEBX8jpKq72stCvyz4nVVV8EaY7fVYxmJA_iAnHJP2QYzkyLEVtNUVpaJWDERcvhMENdI7qxolF1ElYjkNsSXrUGEFBy1MLAndhverNeyM3NZhUPElC43FoZulnvFm1]--></g></svg>