<svg xmlns="http://www.w3.org/2000/svg" xmlns:xlink="http://www.w3.org/1999/xlink" contentStyleType="text/css" height="1648px" preserveAspectRatio="none" style="width:1287px;height:1648px;background:#FFFFFF;" version="1.1" viewBox="0 0 1287 1648" width="1287px" zoomAndPan="magnify"><defs/><g><text fill="#000000" font-family="Verdana" font-size="22" font-weight="bold" lengthAdjust="spacing" textLength="761" x="261.625" y="37.1182">Normal Account Classification By Sport - Main Business Flow</text><ellipse cx="637.75" cy="62.7373" fill="#FFFFFF" rx="10" ry="10" style="stroke:#000000;stroke-width:1.0;"/><path d="M751.25,89.23 L751.25,106.0293 L731.25,110.0293 L751.25,114.0293 L751.25,130.8286 A0,0 0 0 0 751.25,130.8286 L1280.25,130.8286 A0,0 0 0 0 1280.25,130.8286 L1280.25,99.23 L1270.25,89.23 L751.25,89.23 A0,0 0 0 0 751.25,89.23 " fill="#FFFFFF" style="stroke:#000000;stroke-width:1.0;"/><path d="M1270.25,89.23 L1270.25,99.23 L1280.25,99.23 L1270.25,89.23 " fill="#FFFFFF" style="stroke:#000000;stroke-width:1.0;"/><text fill="#000000" font-family="Verdana" font-size="13" lengthAdjust="spacing" textLength="508" x="757.25" y="107.2998">Endpoint: /api/classificationBySportJobs/NormalAccountClassificationBySport</text><text fill="#000000" font-family="Verdana" font-size="13" lengthAdjust="spacing" textLength="300" x="757.25" y="123.0991">Parameter: batchInternalSize (default: 5000)</text><rect fill="#FFFFFF" height="34.584" rx="12.5" ry="12.5" style="stroke:#000000;stroke-width:1.0;" width="187" x="544.25" y="92.7373"/><text fill="#000000" font-family="Verdana" font-size="12" lengthAdjust="spacing" textLength="167" x="554.25" y="114.8018">Job Triggered (HTTP POST)</text><rect fill="#FFFFFF" height="34.584" rx="12.5" ry="12.5" style="stroke:#000000;stroke-width:1.0;" width="485" x="395.25" y="150.8286"/><text fill="#000000" font-family="Verdana" font-size="12" lengthAdjust="spacing" textLength="465" x="405.25" y="172.8931">NormalAccountClassificationBySportJobService.Execute(batchInternalSize)</text><path d="M753.25,195.4126 L753.25,322.8071 L733.25,326.8071 L753.25,330.8071 L753.25,458.2017 A0,0 0 0 0 753.25,458.2017 L1193.25,458.2017 A0,0 0 0 0 1193.25,458.2017 L1193.25,205.4126 L1183.25,195.4126 L753.25,195.4126 A0,0 0 0 0 753.25,195.4126 " fill="#FFFFFF" style="stroke:#000000;stroke-width:1.0;"/><path d="M1183.25,195.4126 L1183.25,205.4126 L1193.25,205.4126 L1183.25,195.4126 " fill="#FFFFFF" style="stroke:#000000;stroke-width:1.0;"/><text fill="#000000" font-family="Verdana" font-size="13" lengthAdjust="spacing" textLength="389" x="759.25" y="213.4824">Call CTS_BySportNormalClassification_NormalPool_Get [SP]</text><text fill="#000000" font-family="Verdana" font-size="13" lengthAdjust="spacing" textLength="267" x="759.25" y="229.2817">Database: bodb_VR2Model (SQL Server)</text><text fill="#000000" font-family="Verdana" font-size="13" lengthAdjust="spacing" textLength="80" x="759.25" y="245.0811">Parameters:</text><text fill="#000000" font-family="Verdana" font-size="13" lengthAdjust="spacing" textLength="192" x="759.25" y="260.8804">- @ScannedMaxId (OUTPUT)</text><text fill="#000000" font-family="Verdana" font-size="13" lengthAdjust="spacing" textLength="40" x="759.25" y="276.6797">Logic:</text><text fill="#000000" font-family="Verdana" font-size="13" lengthAdjust="spacing" textLength="311" x="759.25" y="292.479">- Get ScannedMaxId from NormalPool (MAX ID)</text><text fill="#000000" font-family="Verdana" font-size="13" lengthAdjust="spacing" textLength="296" x="759.25" y="308.2783">- Get LastScannedRow from Parameter table</text><text fill="#000000" font-family="Verdana" font-size="13" lengthAdjust="spacing" textLength="295" x="759.25" y="324.0776">- Get TOP 20000 customers from NormalPool</text><text fill="#000000" font-family="Verdana" font-size="13" lengthAdjust="spacing" textLength="194" x="759.25" y="339.877">- Filter: ID &lt;= ScannedMaxId</text><text fill="#000000" font-family="Verdana" font-size="13" lengthAdjust="spacing" textLength="362" x="759.25" y="355.6763">- Filter: No changes in CustomerClassification_BySport</text><text fill="#000000" font-family="Verdana" font-size="13" lengthAdjust="spacing" textLength="227" x="769.25" y="371.4756">(RowVersion &lt;= LastScannedRow)</text><text fill="#000000" font-family="Verdana" font-size="13" lengthAdjust="spacing" textLength="203" x="759.25" y="387.2749">- Group by CustId, SportGroup</text><text fill="#000000" font-family="Verdana" font-size="13" lengthAdjust="spacing" textLength="208" x="759.25" y="403.0742">- Order by Priority ASC, ID ASC</text><text fill="#000000" font-family="Verdana" font-size="13" lengthAdjust="spacing" textLength="56" x="759.25" y="418.8735">Returns:</text><text fill="#000000" font-family="Verdana" font-size="13" lengthAdjust="spacing" textLength="419" x="759.25" y="434.6729">- NormalPoolCustomers (CustId, SportGroup, IsCheckBetCount)</text><text fill="#000000" font-family="Verdana" font-size="13" lengthAdjust="spacing" textLength="108" x="759.25" y="450.4722">- ScannedMaxId</text><rect fill="#FFFFFF" height="34.584" rx="12.5" ry="12.5" style="stroke:#000000;stroke-width:1.0;" width="191" x="542.25" y="309.5151"/><text fill="#000000" font-family="Verdana" font-size="12" lengthAdjust="spacing" textLength="171" x="552.25" y="331.5796">GetNormalPoolCustomers()</text><polygon fill="#FFFFFF" points="591.25,478.2017,684.25,478.2017,696.25,490.2017,684.25,502.2017,591.25,502.2017,579.25,490.2017,591.25,478.2017" style="stroke:#000000;stroke-width:1.0;"/><text fill="#000000" font-family="Verdana" font-size="11" lengthAdjust="spacing" textLength="93" x="591.25" y="494.5764">Has Customers?</text><text fill="#000000" font-family="Verdana" font-size="11" lengthAdjust="spacing" textLength="20" x="559.25" y="487.8921">yes</text><text fill="#000000" font-family="Verdana" font-size="11" lengthAdjust="spacing" textLength="14" x="696.25" y="487.8921">no</text><rect fill="#FFFFFF" height="34.584" rx="12.5" ry="12.5" style="stroke:#000000;stroke-width:1.0;" width="263" x="99" y="512.2017"/><text fill="#000000" font-family="Verdana" font-size="12" lengthAdjust="spacing" textLength="243" x="109" y="534.2661">Chunk customers by batchInternalSize</text><path d="M357,563.2783 L357,580.0776 L337,584.0776 L357,588.0776 L357,604.877 A0,0 0 0 0 357,604.877 L563,604.877 A0,0 0 0 0 563,604.877 L563,573.2783 L553,563.2783 L357,563.2783 A0,0 0 0 0 357,563.2783 " fill="#FFFFFF" style="stroke:#000000;stroke-width:1.0;"/><path d="M553,563.2783 L553,573.2783 L563,573.2783 L553,563.2783 " fill="#FFFFFF" style="stroke:#000000;stroke-width:1.0;"/><text fill="#000000" font-family="Verdana" font-size="13" lengthAdjust="spacing" textLength="169" x="363" y="581.3481">Process chunks in parallel</text><text fill="#000000" font-family="Verdana" font-size="13" lengthAdjust="spacing" textLength="185" x="363" y="597.1475">WithDegreeOfParallelism = 5</text><rect fill="#FFFFFF" height="34.584" rx="12.5" ry="12.5" style="stroke:#000000;stroke-width:1.0;" width="213" x="124" y="566.7856"/><text fill="#000000" font-family="Verdana" font-size="12" lengthAdjust="spacing" textLength="193" x="134" y="588.8501">Parallel Processing (5 threads)</text><path d="M401,669.4609 L401,765.2568 L381,769.2568 L401,773.2568 L401,869.0527 A0,0 0 0 0 401,869.0527 L932,869.0527 A0,0 0 0 0 932,869.0527 L932,679.4609 L922,669.4609 L401,669.4609 A0,0 0 0 0 401,669.4609 " fill="#FFFFFF" style="stroke:#000000;stroke-width:1.0;"/><path d="M922,669.4609 L922,679.4609 L932,679.4609 L922,669.4609 " fill="#FFFFFF" style="stroke:#000000;stroke-width:1.0;"/><text fill="#000000" font-family="Verdana" font-size="13" lengthAdjust="spacing" textLength="185" x="407" y="687.5308">Serialize customers to JSON</text><text fill="#000000" font-family="Verdana" font-size="13" lengthAdjust="spacing" textLength="439" x="407" y="703.3301">Call CTS_DC_CustClassification_BySport_GetCurrentCategory [SP]</text><text fill="#000000" font-family="Verdana" font-size="13" lengthAdjust="spacing" textLength="245" x="407" y="719.1294">Database: CTS_DataCenter (MySQL)</text><text fill="#000000" font-family="Verdana" font-size="13" lengthAdjust="spacing" textLength="80" x="407" y="734.9287">Parameters:</text><text fill="#000000" font-family="Verdana" font-size="13" lengthAdjust="spacing" textLength="161" x="407" y="750.728">- @ip_CustSport (JSON)</text><text fill="#000000" font-family="Verdana" font-size="13" lengthAdjust="spacing" textLength="40" x="407" y="766.5273">Logic:</text><text fill="#000000" font-family="Verdana" font-size="13" lengthAdjust="spacing" textLength="177" x="407" y="782.3267">- Parse JSON customer list</text><text fill="#000000" font-family="Verdana" font-size="13" lengthAdjust="spacing" textLength="174" x="407" y="798.126">- Validate customers exist</text><text fill="#000000" font-family="Verdana" font-size="13" lengthAdjust="spacing" textLength="316" x="407" y="813.9253">- Get latest normal category for each customer</text><text fill="#000000" font-family="Verdana" font-size="13" lengthAdjust="spacing" textLength="224" x="407" y="829.7246">- Check Probation LastDay status</text><text fill="#000000" font-family="Verdana" font-size="13" lengthAdjust="spacing" textLength="56" x="407" y="845.5239">Returns:</text><text fill="#000000" font-family="Verdana" font-size="13" lengthAdjust="spacing" textLength="510" x="407" y="861.3232">- CustomerCategories (CustID, SportGroup, CategoryID, IsProbationLastDay)</text><rect fill="#FFFFFF" height="34.584" rx="12.5" ry="12.5" style="stroke:#000000;stroke-width:1.0;" width="301" x="80" y="751.9648"/><text fill="#000000" font-family="Verdana" font-size="12" lengthAdjust="spacing" textLength="281" x="90" y="774.0293">GetCurrentCustomerCategory(custSportList)</text><path d="M426.5,879.0527 L426.5,927.4507 L406.5,931.4507 L426.5,935.4507 L426.5,983.8486 A0,0 0 0 0 426.5,983.8486 L706.5,983.8486 A0,0 0 0 0 706.5,983.8486 L706.5,889.0527 L696.5,879.0527 L426.5,879.0527 A0,0 0 0 0 426.5,879.0527 " fill="#FFFFFF" style="stroke:#000000;stroke-width:1.0;"/><path d="M696.5,879.0527 L696.5,889.0527 L706.5,889.0527 L696.5,879.0527 " fill="#FFFFFF" style="stroke:#000000;stroke-width:1.0;"/><text fill="#000000" font-family="Verdana" font-size="13" lengthAdjust="spacing" textLength="203" x="432.5" y="897.1226">Join on CustID and SportGroup</text><text fill="#000000" font-family="Verdana" font-size="13" lengthAdjust="spacing" textLength="61" x="432.5" y="912.9219">Combine:</text><text fill="#000000" font-family="Verdana" font-size="13" lengthAdjust="spacing" textLength="140" x="432.5" y="928.7212">- CustID, SportGroup</text><text fill="#000000" font-family="Verdana" font-size="13" lengthAdjust="spacing" textLength="259" x="432.5" y="944.5205">- CategoryID (from CustomerCategory)</text><text fill="#000000" font-family="Verdana" font-size="13" lengthAdjust="spacing" textLength="139" x="432.5" y="960.3198">- IsProbationLastDay</text><text fill="#000000" font-family="Verdana" font-size="13" lengthAdjust="spacing" textLength="247" x="432.5" y="976.1191">- IsCheckBetCount (from NormalPool)</text><rect fill="#FFFFFF" height="34.584" rx="12.5" ry="12.5" style="stroke:#000000;stroke-width:1.0;" width="352" x="54.5" y="914.1587"/><text fill="#000000" font-family="Verdana" font-size="12" lengthAdjust="spacing" textLength="332" x="64.5" y="936.2231">Join NormalPoolCustomers with CustomerCategories</text><path d="M416.5,993.8486 L416.5,1121.2432 L396.5,1125.2432 L416.5,1129.2432 L416.5,1256.6377 A0,0 0 0 0 416.5,1256.6377 L853.5,1256.6377 A0,0 0 0 0 853.5,1256.6377 L853.5,1003.8486 L843.5,993.8486 L416.5,993.8486 A0,0 0 0 0 416.5,993.8486 " fill="#FFFFFF" style="stroke:#000000;stroke-width:1.0;"/><path d="M843.5,993.8486 L843.5,1003.8486 L853.5,1003.8486 L843.5,993.8486 " fill="#FFFFFF" style="stroke:#000000;stroke-width:1.0;"/><text fill="#000000" font-family="Verdana" font-size="13" lengthAdjust="spacing" textLength="103" x="422.5" y="1011.9185">Convert to XML</text><text fill="#000000" font-family="Verdana" font-size="13" lengthAdjust="spacing" textLength="416" x="422.5" y="1027.7178">Call CTS_BySportNormalClassification_NormalPool_Classify [SP]</text><text fill="#000000" font-family="Verdana" font-size="13" lengthAdjust="spacing" textLength="267" x="422.5" y="1043.5171">Database: bodb_VR2Model (SQL Server)</text><text fill="#000000" font-family="Verdana" font-size="13" lengthAdjust="spacing" textLength="80" x="422.5" y="1059.3164">Parameters:</text><text fill="#000000" font-family="Verdana" font-size="13" lengthAdjust="spacing" textLength="165" x="422.5" y="1075.1157">- @CustomersXML (XML)</text><text fill="#000000" font-family="Verdana" font-size="13" lengthAdjust="spacing" textLength="40" x="422.5" y="1090.915">Logic:</text><text fill="#000000" font-family="Verdana" font-size="13" lengthAdjust="spacing" textLength="170" x="422.5" y="1106.7144">- Parse XML customer list</text><text fill="#000000" font-family="Verdana" font-size="13" lengthAdjust="spacing" textLength="340" x="422.5" y="1122.5137">- Filter by IsCheckBetCount and CurrentCategoryId</text><text fill="#000000" font-family="Verdana" font-size="13" lengthAdjust="spacing" textLength="246" x="422.5" y="1138.313">- Get accumulated performance data</text><text fill="#000000" font-family="Verdana" font-size="13" lengthAdjust="spacing" textLength="199" x="422.5" y="1154.1123">- Calculate classification rules</text><text fill="#000000" font-family="Verdana" font-size="13" lengthAdjust="spacing" textLength="255" x="422.5" y="1169.9116">- Determine NewCategoryId based on:</text><text fill="#000000" font-family="Verdana" font-size="13" lengthAdjust="spacing" textLength="223" x="432.5" y="1185.7109">* TurnoverRM, WinlossRM, Margin</text><text fill="#000000" font-family="Verdana" font-size="13" lengthAdjust="spacing" textLength="159" x="432.5" y="1201.5103">* BetCount, ActiveDays</text><text fill="#000000" font-family="Verdana" font-size="13" lengthAdjust="spacing" textLength="273" x="432.5" y="1217.3096">* CurrentCategoryId, IsProbationLastDay</text><text fill="#000000" font-family="Verdana" font-size="13" lengthAdjust="spacing" textLength="295" x="432.5" y="1233.1089">* IsCheckBetCount, IsPlaceBetWithin30Days</text><text fill="#000000" font-family="Verdana" font-size="13" lengthAdjust="spacing" textLength="243" x="422.5" y="1248.9082">- Update/Insert classification results</text><rect fill="#FFFFFF" height="34.584" rx="12.5" ry="12.5" style="stroke:#000000;stroke-width:1.0;" width="332" x="64.5" y="1107.9512"/><text fill="#000000" font-family="Verdana" font-size="12" lengthAdjust="spacing" textLength="312" x="74.5" y="1130.0156">ClassifyNormalPoolCustomers(customerInfosXML)</text><path d="M475,1266.6377 L475,1354.5339 L455,1358.5339 L475,1362.5339 L475,1450.4302 A0,0 0 0 0 475,1450.4302 L895,1450.4302 A0,0 0 0 0 895,1450.4302 L895,1276.6377 L885,1266.6377 L475,1266.6377 A0,0 0 0 0 475,1266.6377 " fill="#FFFFFF" style="stroke:#000000;stroke-width:1.0;"/><path d="M885,1266.6377 L885,1276.6377 L895,1276.6377 L885,1266.6377 " fill="#FFFFFF" style="stroke:#000000;stroke-width:1.0;"/><text fill="#000000" font-family="Verdana" font-size="13" lengthAdjust="spacing" textLength="103" x="481" y="1284.7075">Convert to XML</text><text fill="#000000" font-family="Verdana" font-size="13" lengthAdjust="spacing" textLength="399" x="481" y="1300.5068">Call CTS_BySportNormalClassification_NormalPool_Clear [SP]</text><text fill="#000000" font-family="Verdana" font-size="13" lengthAdjust="spacing" textLength="267" x="481" y="1316.3062">Database: bodb_VR2Model (SQL Server)</text><text fill="#000000" font-family="Verdana" font-size="13" lengthAdjust="spacing" textLength="80" x="481" y="1332.1055">Parameters:</text><text fill="#000000" font-family="Verdana" font-size="13" lengthAdjust="spacing" textLength="165" x="481" y="1347.9048">- @CustomersXML (XML)</text><text fill="#000000" font-family="Verdana" font-size="13" lengthAdjust="spacing" textLength="183" x="481" y="1363.7041">- @ScannedMaxId (BIGINT)</text><text fill="#000000" font-family="Verdana" font-size="13" lengthAdjust="spacing" textLength="40" x="481" y="1379.5034">Logic:</text><text fill="#000000" font-family="Verdana" font-size="13" lengthAdjust="spacing" textLength="170" x="481" y="1395.3027">- Parse XML customer list</text><text fill="#000000" font-family="Verdana" font-size="13" lengthAdjust="spacing" textLength="164" x="481" y="1411.1021">- Delete from NormalPool</text><text fill="#000000" font-family="Verdana" font-size="13" lengthAdjust="spacing" textLength="201" x="481" y="1426.9014">- WHERE ID &lt;= ScannedMaxId</text><text fill="#000000" font-family="Verdana" font-size="13" lengthAdjust="spacing" textLength="217" x="481" y="1442.7007">- AND CustId, SportGroup match</text><rect fill="#FFFFFF" height="34.584" rx="12.5" ry="12.5" style="stroke:#000000;stroke-width:1.0;" width="449" x="6" y="1341.2419"/><text fill="#000000" font-family="Verdana" font-size="12" lengthAdjust="spacing" textLength="429" x="16" y="1363.3064">ClearNormalPoolCustomers(customerInfoClearsXML, scannedMaxId)</text><rect fill="#FFFFFF" height="34.584" rx="12.5" ry="12.5" style="stroke:#000000;stroke-width:1.0;" width="175" x="143" y="624.877"/><text fill="#000000" font-family="Verdana" font-size="12" lengthAdjust="spacing" textLength="155" x="153" y="646.9414">For each chunk (Parallel)</text><polygon fill="#FFFFFF" points="191.5,1470.4302,269.5,1470.4302,281.5,1482.4302,269.5,1494.4302,191.5,1494.4302,179.5,1482.4302,191.5,1470.4302" style="stroke:#000000;stroke-width:1.0;"/><text fill="#000000" font-family="Verdana" font-size="11" lengthAdjust="spacing" textLength="78" x="191.5" y="1486.8049">More chunks?</text><text fill="#000000" font-family="Verdana" font-size="11" lengthAdjust="spacing" textLength="20" x="281.5" y="1480.1206">yes</text><rect fill="#FFFFFF" height="34.584" rx="12.5" ry="12.5" style="stroke:#000000;stroke-width:1.0;" width="160" x="150.5" y="1536.1084"/><text fill="#000000" font-family="Verdana" font-size="12" lengthAdjust="spacing" textLength="140" x="160.5" y="1558.1729">Return true (continue)</text><rect fill="#FFFFFF" height="34.584" rx="12.5" ry="12.5" style="stroke:#000000;stroke-width:1.0;" width="138" x="976" y="512.2017"/><text fill="#000000" font-family="Verdana" font-size="12" lengthAdjust="spacing" textLength="118" x="986" y="534.2661">Return false (stop)</text><polygon fill="#FFFFFF" points="637.75,1576.6924,649.75,1588.6924,637.75,1600.6924,625.75,1588.6924,637.75,1576.6924" style="stroke:#000000;stroke-width:1.0;"/><ellipse cx="637.75" cy="1631.6924" fill="none" rx="11" ry="11" style="stroke:#000000;stroke-width:1.0;"/><ellipse cx="637.75" cy="1631.6924" fill="#FFFFFF" rx="6" ry="6" style="stroke:#000000;stroke-width:1.0;"/><line style="stroke:#000000;stroke-width:1.0;" x1="637.75" x2="637.75" y1="72.7373" y2="92.7373"/><polygon fill="#000000" points="633.75,82.7373,637.75,92.7373,641.75,82.7373,637.75,86.7373" style="stroke:#000000;stroke-width:1.0;"/><line style="stroke:#000000;stroke-width:1.0;" x1="637.75" x2="637.75" y1="127.3213" y2="150.8286"/><polygon fill="#000000" points="633.75,140.8286,637.75,150.8286,641.75,140.8286,637.75,144.8286" style="stroke:#000000;stroke-width:1.0;"/><line style="stroke:#000000;stroke-width:1.0;" x1="637.75" x2="637.75" y1="185.4126" y2="309.5151"/><polygon fill="#000000" points="633.75,299.5151,637.75,309.5151,641.75,299.5151,637.75,303.5151" style="stroke:#000000;stroke-width:1.0;"/><line style="stroke:#000000;stroke-width:1.0;" x1="230.5" x2="230.5" y1="546.7856" y2="566.7856"/><polygon fill="#000000" points="226.5,556.7856,230.5,566.7856,234.5,556.7856,230.5,560.7856" style="stroke:#000000;stroke-width:1.0;"/><line style="stroke:#000000;stroke-width:1.0;" x1="230.5" x2="230.5" y1="786.5488" y2="914.1587"/><polygon fill="#000000" points="226.5,904.1587,230.5,914.1587,234.5,904.1587,230.5,908.1587" style="stroke:#000000;stroke-width:1.0;"/><line style="stroke:#000000;stroke-width:1.0;" x1="230.5" x2="230.5" y1="948.7427" y2="1107.9512"/><polygon fill="#000000" points="226.5,1097.9512,230.5,1107.9512,234.5,1097.9512,230.5,1101.9512" style="stroke:#000000;stroke-width:1.0;"/><line style="stroke:#000000;stroke-width:1.0;" x1="230.5" x2="230.5" y1="1142.5352" y2="1341.2419"/><polygon fill="#000000" points="226.5,1331.2419,230.5,1341.2419,234.5,1331.2419,230.5,1335.2419" style="stroke:#000000;stroke-width:1.0;"/><line style="stroke:#000000;stroke-width:1.0;" x1="230.5" x2="230.5" y1="659.4609" y2="751.9648"/><polygon fill="#000000" points="226.5,741.9648,230.5,751.9648,234.5,741.9648,230.5,745.9648" style="stroke:#000000;stroke-width:1.0;"/><line style="stroke:#000000;stroke-width:1.0;" x1="281.5" x2="944" y1="1482.4302" y2="1482.4302"/><polygon fill="#000000" points="940,1054.7996,944,1044.7996,948,1054.7996,944,1050.7996" style="stroke:#000000;stroke-width:1.0;"/><line style="stroke:#000000;stroke-width:1.0;" x1="944" x2="944" y1="642.1689" y2="1482.4302"/><line style="stroke:#000000;stroke-width:1.0;" x1="944" x2="318" y1="642.1689" y2="642.1689"/><polygon fill="#000000" points="328,638.1689,318,642.1689,328,646.1689,324,642.1689" style="stroke:#000000;stroke-width:1.0;"/><line style="stroke:#000000;stroke-width:1.0;" x1="230.5" x2="230.5" y1="1375.8259" y2="1470.4302"/><polygon fill="#000000" points="226.5,1460.4302,230.5,1470.4302,234.5,1460.4302,230.5,1464.4302" style="stroke:#000000;stroke-width:1.0;"/><line style="stroke:#000000;stroke-width:1.0;" x1="230.5" x2="230.5" y1="601.3696" y2="624.877"/><polygon fill="#000000" points="226.5,614.877,230.5,624.877,234.5,614.877,230.5,618.877" style="stroke:#000000;stroke-width:1.0;"/><line style="stroke:#000000;stroke-width:1.0;" x1="230.5" x2="230.5" y1="1494.4302" y2="1536.1084"/><polygon fill="#000000" points="226.5,1526.1084,230.5,1536.1084,234.5,1526.1084,230.5,1530.1084" style="stroke:#000000;stroke-width:1.0;"/><text fill="#000000" font-family="Verdana" font-size="11" lengthAdjust="spacing" textLength="14" x="234.5" y="1516.2988">no</text><line style="stroke:#000000;stroke-width:1.0;" x1="579.25" x2="230.5" y1="490.2017" y2="490.2017"/><line style="stroke:#000000;stroke-width:1.0;" x1="230.5" x2="230.5" y1="490.2017" y2="512.2017"/><polygon fill="#000000" points="226.5,502.2017,230.5,512.2017,234.5,502.2017,230.5,506.2017" style="stroke:#000000;stroke-width:1.0;"/><line style="stroke:#000000;stroke-width:1.0;" x1="696.25" x2="1045" y1="490.2017" y2="490.2017"/><line style="stroke:#000000;stroke-width:1.0;" x1="1045" x2="1045" y1="490.2017" y2="512.2017"/><polygon fill="#000000" points="1041,502.2017,1045,512.2017,1049,502.2017,1045,506.2017" style="stroke:#000000;stroke-width:1.0;"/><line style="stroke:#000000;stroke-width:1.0;" x1="230.5" x2="230.5" y1="1570.6924" y2="1588.6924"/><line style="stroke:#000000;stroke-width:1.0;" x1="230.5" x2="625.75" y1="1588.6924" y2="1588.6924"/><polygon fill="#000000" points="615.75,1584.6924,625.75,1588.6924,615.75,1592.6924,619.75,1588.6924" style="stroke:#000000;stroke-width:1.0;"/><line style="stroke:#000000;stroke-width:1.0;" x1="1045" x2="1045" y1="546.7856" y2="1588.6924"/><line style="stroke:#000000;stroke-width:1.0;" x1="1045" x2="649.75" y1="1588.6924" y2="1588.6924"/><polygon fill="#000000" points="659.75,1584.6924,649.75,1588.6924,659.75,1592.6924,655.75,1588.6924" style="stroke:#000000;stroke-width:1.0;"/><line style="stroke:#000000;stroke-width:1.0;" x1="637.75" x2="637.75" y1="344.0991" y2="478.2017"/><polygon fill="#000000" points="633.75,468.2017,637.75,478.2017,641.75,468.2017,637.75,472.2017" style="stroke:#000000;stroke-width:1.0;"/><line style="stroke:#000000;stroke-width:1.0;" x1="637.75" x2="637.75" y1="1600.6924" y2="1620.6924"/><polygon fill="#000000" points="633.75,1610.6924,637.75,1620.6924,641.75,1610.6924,637.75,1614.6924" style="stroke:#000000;stroke-width:1.0;"/><!--SRC=[nLVRRXit47tNLqpVLeKS6odyeZHfxPMToB0kjMGdG548rEv88aAH2v8RM_tw3hdtNINoGz7kYwNrcIlFuOn-iZlS8oI2STcpt0g4gT9x9k0gYbGgBOI26SCtF6AMAmdN1rWaIbiuWmdPm7Lgk4HZu5QevrxFMAPjRtYdrh3KVBj5ZJ44dvRBESndYsN_NKygYq3_sjaUq7CZuqHnQOTmpX9-7ZMYNHzyBF9cphEqygp2Op3lRyuqswD5FOGriz5kBEcpP6B1_qO8OjomL52moukBYtuFPGmkdrvlUDezPR50_Or7-ERc1QFKOj29GFNrXX_HPjxcIeamDLRjKPkWMtl8X81mkLZb4JAhPl1LvMf5Zk7FnVmlRpnYbgsPGQfJnUlLqyFRYOfHGB3uunvSegZxpOwOeVz-1hyl8YObnXFsCgRJcJqkvu_B37oljZmgS2vU0xhHQWzLGX1Chhx0UDIluU-PiRdDWthEBCeCW58MM4ClPtDuIqTn0L7HftQG77tBXJ_KyGX-VT_8gWMOAeXsJ6xH0D6pQ7-hgNN600IKwHE5TlmcvyqIokAqIXDO7xpBSJp8PE3VveYPZgb4GimrLvhR0rmjme7BcFvwp0FQLClo78wm18AkUt9XmXr6Nw_HXewUHKgDBbHSvXjI73DbxUQtFf3C9GG7D9djCDobyckjwPHrXyplF3J3koCKWkWrroeYkNEvXU2It6faiUbdq1QzFVaoE1q9nVCdakIUIiXdRdSZt6h4sQO8myqUtiEbnvI5bTbeJ91P6Dug3SYYNUOTWiAwN_fsMWnJhP4qNJ21MTmgVGXSyRx9zzpOl8BlLE4UaXHdmjqYLTUiWhl5RDh0bQ8UXIiNypZpLhN4yeGgQHTF9N7lZxw5wCw7T7SWbVSRuBRCYuVapXEVINPl1oxZfcbDz9KL-JFeooiB1ZeNsu8zKKzYgg3M5NpfmfpO1S6CfVxw-H8LPM_AKymzj4mzzHsHrja4Sl8SiGFGgB6fQO0R-gfvQ1uznq9cewRCYfDmxyUcZ9W7h7hMO6J9Ii-tEvfbHtNzJ2m_aiX9sdc7Ahl8w2PX5BfryPJ4K_irZU9ZnJSBRGFAgY7mTszRAVsMGRSr7K3ZkihTLbrvLITptHoEZTA2AMEvKURBvFwqUaCbQI1QfrZ27nViAwTmaTYFz7fY9Bz2isMnb2u4hiRNIjOP_4YnsQ1qDtxxd1ovMfTIFbwRGcPHbEvJ9-SO4jGRrniP8T0zm3ha4f57GdEp0vqAD2tmoBLYJno6AJvN6O3hQKmYQDOBy3CiIUwAslem6T0SaK8PupvEcDxIFjj65uKEQBcr_1iISqq7r6d0u1JXdLMhbTv6i0ZfXPjlNFvoqObs1e-9kphFnz8uRhOxX8PMLVCwhI3JfuJYGOvE0p2rnU4_rWxbyByAfxFzNey_ZgVBVqrT8nIKrz4bjW9z_dJpSFEzLRQ2NKr7HxPDsBj5xJWjyiteUSVfXrmmKHhppOjMG6vg2-3P1wdg-rqsES7gbEmY9IsNgVirWu9g3gJgDs0RvbzJ5nA7aJ7Vk9z-Akdz0m00]--></g></svg>