<svg xmlns="http://www.w3.org/2000/svg" xmlns:xlink="http://www.w3.org/1999/xlink" contentStyleType="text/css" height="1343px" preserveAspectRatio="none" style="width:1109px;height:1343px;background:#FFFFFF;" version="1.1" viewBox="0 0 1109 1343" width="1109px" zoomAndPan="magnify"><defs/><g><text fill="#000000" font-family="Verdana" font-size="22" font-weight="bold" lengthAdjust="spacing" textLength="811" x="147.5" y="37.1182">Normal Account Classification By Sport - Database Flow Diagram</text><ellipse cx="517.5" cy="62.7373" fill="#FFFFFF" rx="10" ry="10" style="stroke:#000000;stroke-width:1.0;"/><rect fill="#FFFFFF" height="34.584" rx="12.5" ry="12.5" style="stroke:#000000;stroke-width:1.0;" width="105" x="465" y="92.7373"/><text fill="#000000" font-family="Verdana" font-size="12" lengthAdjust="spacing" textLength="85" x="475" y="114.8018">Job Triggered</text><path d="M628,137.3213 L628,209.4182 L608,213.4182 L628,217.4182 L628,289.5151 A0,0 0 0 0 628,289.5151 L1102,289.5151 A0,0 0 0 0 1102,289.5151 L1102,147.3213 L1092,137.3213 L628,137.3213 A0,0 0 0 0 628,137.3213 " fill="#FFFFFF" style="stroke:#000000;stroke-width:1.0;"/><path d="M1092,137.3213 L1092,147.3213 L1102,147.3213 L1092,137.3213 " fill="#FFFFFF" style="stroke:#000000;stroke-width:1.0;"/><text fill="#000000" font-family="Verdana" font-size="13" lengthAdjust="spacing" textLength="267" x="634" y="155.3911">Database: bodb_VR2Model (SQL Server)</text><text fill="#000000" font-family="Verdana" font-size="13" lengthAdjust="spacing" textLength="453" x="634" y="171.1904">Stored Procedure: CTS_BySportNormalClassification_NormalPool_Get</text><text fill="#000000" font-family="Verdana" font-size="13" lengthAdjust="spacing" textLength="49" x="634" y="186.9897">Tables:</text><text fill="#000000" font-family="Verdana" font-size="13" lengthAdjust="spacing" textLength="299" x="634" y="202.7891">- CustomerClassification_BySport_NormalPool</text><text fill="#000000" font-family="Verdana" font-size="13" lengthAdjust="spacing" textLength="220" x="634" y="218.5884">- CustomerClassification_BySport</text><text fill="#000000" font-family="Verdana" font-size="13" lengthAdjust="spacing" textLength="235" x="634" y="234.3877">- CustomerClassification_Parameter</text><text fill="#000000" font-family="Verdana" font-size="13" lengthAdjust="spacing" textLength="52" x="634" y="250.187">Output:</text><text fill="#000000" font-family="Verdana" font-size="13" lengthAdjust="spacing" textLength="419" x="634" y="265.9863">- NormalPoolCustomers (CustId, SportGroup, IsCheckBetCount)</text><text fill="#000000" font-family="Verdana" font-size="13" lengthAdjust="spacing" textLength="108" x="634" y="281.7856">- ScannedMaxId</text><rect fill="#FFFFFF" height="34.584" rx="12.5" ry="12.5" style="stroke:#000000;stroke-width:1.0;" width="181" x="427" y="196.1262"/><text fill="#000000" font-family="Verdana" font-size="12" lengthAdjust="spacing" textLength="161" x="437" y="218.1907">GetNormalPoolCustomers</text><polygon fill="#FFFFFF" points="471,309.5151,564,309.5151,576,321.5151,564,333.5151,471,333.5151,459,321.5151,471,309.5151" style="stroke:#000000;stroke-width:1.0;"/><text fill="#000000" font-family="Verdana" font-size="11" lengthAdjust="spacing" textLength="93" x="471" y="325.8899">Has Customers?</text><text fill="#000000" font-family="Verdana" font-size="11" lengthAdjust="spacing" textLength="20" x="439" y="319.2056">yes</text><text fill="#000000" font-family="Verdana" font-size="11" lengthAdjust="spacing" textLength="14" x="576" y="319.2056">no</text><rect fill="#FFFFFF" height="34.584" rx="12.5" ry="12.5" style="stroke:#000000;stroke-width:1.0;" width="263" x="6" y="343.5151"/><text fill="#000000" font-family="Verdana" font-size="12" lengthAdjust="spacing" textLength="243" x="16" y="365.5796">Chunk customers by batchInternalSize</text><rect fill="#FFFFFF" height="34.584" rx="12.5" ry="12.5" style="stroke:#000000;stroke-width:1.0;" width="213" x="31" y="398.0991"/><text fill="#000000" font-family="Verdana" font-size="12" lengthAdjust="spacing" textLength="193" x="41" y="420.1636">Parallel Processing (5 threads)</text><path d="M262,497.2671 L262,585.1633 L242,589.1633 L262,593.1633 L262,681.0596 A0,0 0 0 0 262,681.0596 L793,681.0596 A0,0 0 0 0 793,681.0596 L793,507.2671 L783,497.2671 L262,497.2671 A0,0 0 0 0 262,497.2671 " fill="#FFFFFF" style="stroke:#000000;stroke-width:1.0;"/><path d="M783,497.2671 L783,507.2671 L793,507.2671 L783,497.2671 " fill="#FFFFFF" style="stroke:#000000;stroke-width:1.0;"/><text fill="#000000" font-family="Verdana" font-size="13" lengthAdjust="spacing" textLength="245" x="268" y="515.3369">Database: CTS_DataCenter (MySQL)</text><text fill="#000000" font-family="Verdana" font-size="13" lengthAdjust="spacing" textLength="503" x="268" y="531.1362">Stored Procedure: CTS_DC_CustClassification_BySport_GetCurrentCategory</text><text fill="#000000" font-family="Verdana" font-size="13" lengthAdjust="spacing" textLength="41" x="268" y="546.9355">Input:</text><text fill="#000000" font-family="Verdana" font-size="13" lengthAdjust="spacing" textLength="152" x="268" y="562.7349">- CustSportList (JSON)</text><text fill="#000000" font-family="Verdana" font-size="13" lengthAdjust="spacing" textLength="49" x="268" y="578.5342">Tables:</text><text fill="#000000" font-family="Verdana" font-size="13" lengthAdjust="spacing" textLength="101" x="268" y="594.3335">- CTSCustomer</text><text fill="#000000" font-family="Verdana" font-size="13" lengthAdjust="spacing" textLength="247" x="268" y="610.1328">- CTSCustomerClassification_BySport</text><text fill="#000000" font-family="Verdana" font-size="13" lengthAdjust="spacing" textLength="134" x="268" y="625.9321">- CustomerCategory</text><text fill="#000000" font-family="Verdana" font-size="13" lengthAdjust="spacing" textLength="75" x="268" y="641.7314">- StaticList</text><text fill="#000000" font-family="Verdana" font-size="13" lengthAdjust="spacing" textLength="52" x="268" y="657.5308">Output:</text><text fill="#000000" font-family="Verdana" font-size="13" lengthAdjust="spacing" textLength="510" x="268" y="673.3301">- CustomerCategories (CustID, SportGroup, CategoryID, IsProbationLastDay)</text><rect fill="#FFFFFF" height="34.584" rx="12.5" ry="12.5" style="stroke:#000000;stroke-width:1.0;" width="209" x="33" y="571.8713"/><text fill="#000000" font-family="Verdana" font-size="12" lengthAdjust="spacing" textLength="189" x="43" y="593.9358">GetCurrentCustomerCategory</text><path d="M237.5,691.0596 L237.5,731.5579 L217.5,735.5579 L237.5,739.5579 L237.5,780.0562 A0,0 0 0 0 237.5,780.0562 L598.5,780.0562 A0,0 0 0 0 598.5,780.0562 L598.5,701.0596 L588.5,691.0596 L237.5,691.0596 A0,0 0 0 0 237.5,691.0596 " fill="#FFFFFF" style="stroke:#000000;stroke-width:1.0;"/><path d="M588.5,691.0596 L588.5,701.0596 L598.5,701.0596 L588.5,691.0596 " fill="#FFFFFF" style="stroke:#000000;stroke-width:1.0;"/><text fill="#000000" font-family="Verdana" font-size="13" lengthAdjust="spacing" textLength="340" x="243.5" y="709.1294">Join NormalPoolCustomers with CustomerCategories</text><text fill="#000000" font-family="Verdana" font-size="13" lengthAdjust="spacing" textLength="182" x="243.5" y="724.9287">Create customerInfos with:</text><text fill="#000000" font-family="Verdana" font-size="13" lengthAdjust="spacing" textLength="140" x="243.5" y="740.728">- CustID, SportGroup</text><text fill="#000000" font-family="Verdana" font-size="13" lengthAdjust="spacing" textLength="223" x="243.5" y="756.5273">- CategoryID, IsProbationLastDay</text><text fill="#000000" font-family="Verdana" font-size="13" lengthAdjust="spacing" textLength="125" x="243.5" y="772.3267">- IsCheckBetCount</text><rect fill="#FFFFFF" height="34.584" rx="12.5" ry="12.5" style="stroke:#000000;stroke-width:1.0;" width="160" x="57.5" y="718.2659"/><text fill="#000000" font-family="Verdana" font-size="12" lengthAdjust="spacing" textLength="140" x="67.5" y="740.3303">Join and Prepare Data</text><path d="M261,790.0562 L261,909.551 L241,913.551 L261,917.551 L261,1037.0459 A0,0 0 0 0 261,1037.0459 L762,1037.0459 A0,0 0 0 0 762,1037.0459 L762,800.0562 L752,790.0562 L261,790.0562 A0,0 0 0 0 261,790.0562 " fill="#FFFFFF" style="stroke:#000000;stroke-width:1.0;"/><path d="M752,790.0562 L752,800.0562 L762,800.0562 L752,790.0562 " fill="#FFFFFF" style="stroke:#000000;stroke-width:1.0;"/><text fill="#000000" font-family="Verdana" font-size="13" lengthAdjust="spacing" textLength="267" x="267" y="808.126">Database: bodb_VR2Model (SQL Server)</text><text fill="#000000" font-family="Verdana" font-size="13" lengthAdjust="spacing" textLength="480" x="267" y="823.9253">Stored Procedure: CTS_BySportNormalClassification_NormalPool_Classify</text><text fill="#000000" font-family="Verdana" font-size="13" lengthAdjust="spacing" textLength="41" x="267" y="839.7246">Input:</text><text fill="#000000" font-family="Verdana" font-size="13" lengthAdjust="spacing" textLength="108" x="267" y="855.5239">- CustomersXML</text><text fill="#000000" font-family="Verdana" font-size="13" lengthAdjust="spacing" textLength="49" x="267" y="871.3232">Tables:</text><text fill="#000000" font-family="Verdana" font-size="13" lengthAdjust="spacing" textLength="337" x="267" y="887.1226">- CustomerClassification_BySport_LatestActiveDay</text><text fill="#000000" font-family="Verdana" font-size="13" lengthAdjust="spacing" textLength="289" x="267" y="902.9219">- CustomerClassification_BySport_BetCount</text><text fill="#000000" font-family="Verdana" font-size="13" lengthAdjust="spacing" textLength="346" x="267" y="918.7212">- CustomerClassification_BySport_ScannedDailyCust</text><text fill="#000000" font-family="Verdana" font-size="13" lengthAdjust="spacing" textLength="216" x="267" y="934.5205">- bodb_dwrs (Accumulated Info)</text><text fill="#000000" font-family="Verdana" font-size="13" lengthAdjust="spacing" textLength="156" x="267" y="950.3198">- bodb02.dbo.Customer</text><text fill="#000000" font-family="Verdana" font-size="13" lengthAdjust="spacing" textLength="40" x="267" y="966.1191">Logic:</text><text fill="#000000" font-family="Verdana" font-size="13" lengthAdjust="spacing" textLength="211" x="267" y="981.9185">- Get accumulated performance</text><text fill="#000000" font-family="Verdana" font-size="13" lengthAdjust="spacing" textLength="199" x="267" y="997.7178">- Calculate classification rules</text><text fill="#000000" font-family="Verdana" font-size="13" lengthAdjust="spacing" textLength="184" x="267" y="1013.5171">- Determine NewCategoryId</text><text fill="#000000" font-family="Verdana" font-size="13" lengthAdjust="spacing" textLength="194" x="267" y="1029.3164">- Update/Insert classification</text><rect fill="#FFFFFF" height="34.584" rx="12.5" ry="12.5" style="stroke:#000000;stroke-width:1.0;" width="207" x="34" y="896.259"/><text fill="#000000" font-family="Verdana" font-size="12" lengthAdjust="spacing" textLength="187" x="44" y="918.3235">ClassifyNormalPoolCustomers</text><path d="M253.5,1047.0459 L253.5,1127.0425 L233.5,1131.0425 L253.5,1135.0425 L253.5,1215.0391 A0,0 0 0 0 253.5,1215.0391 L737.5,1215.0391 A0,0 0 0 0 737.5,1215.0391 L737.5,1057.0459 L727.5,1047.0459 L253.5,1047.0459 A0,0 0 0 0 253.5,1047.0459 " fill="#FFFFFF" style="stroke:#000000;stroke-width:1.0;"/><path d="M727.5,1047.0459 L727.5,1057.0459 L737.5,1057.0459 L727.5,1047.0459 " fill="#FFFFFF" style="stroke:#000000;stroke-width:1.0;"/><text fill="#000000" font-family="Verdana" font-size="13" lengthAdjust="spacing" textLength="267" x="259.5" y="1065.1157">Database: bodb_VR2Model (SQL Server)</text><text fill="#000000" font-family="Verdana" font-size="13" lengthAdjust="spacing" textLength="463" x="259.5" y="1080.915">Stored Procedure: CTS_BySportNormalClassification_NormalPool_Clear</text><text fill="#000000" font-family="Verdana" font-size="13" lengthAdjust="spacing" textLength="41" x="259.5" y="1096.7144">Input:</text><text fill="#000000" font-family="Verdana" font-size="13" lengthAdjust="spacing" textLength="108" x="259.5" y="1112.5137">- CustomersXML</text><text fill="#000000" font-family="Verdana" font-size="13" lengthAdjust="spacing" textLength="108" x="259.5" y="1128.313">- ScannedMaxId</text><text fill="#000000" font-family="Verdana" font-size="13" lengthAdjust="spacing" textLength="49" x="259.5" y="1144.1123">Tables:</text><text fill="#000000" font-family="Verdana" font-size="13" lengthAdjust="spacing" textLength="299" x="259.5" y="1159.9116">- CustomerClassification_BySport_NormalPool</text><text fill="#000000" font-family="Verdana" font-size="13" lengthAdjust="spacing" textLength="40" x="259.5" y="1175.7109">Logic:</text><text fill="#000000" font-family="Verdana" font-size="13" lengthAdjust="spacing" textLength="199" x="259.5" y="1191.5103">- Delete processed customers</text><text fill="#000000" font-family="Verdana" font-size="13" lengthAdjust="spacing" textLength="201" x="259.5" y="1207.3096">- WHERE ID &lt;= ScannedMaxId</text><rect fill="#FFFFFF" height="34.584" rx="12.5" ry="12.5" style="stroke:#000000;stroke-width:1.0;" width="192" x="41.5" y="1113.7505"/><text fill="#000000" font-family="Verdana" font-size="12" lengthAdjust="spacing" textLength="172" x="51.5" y="1135.8149">ClearNormalPoolCustomers</text><rect fill="#FFFFFF" height="34.584" rx="12.5" ry="12.5" style="stroke:#000000;stroke-width:1.0;" width="115" x="80" y="452.6831"/><text fill="#000000" font-family="Verdana" font-size="12" lengthAdjust="spacing" textLength="95" x="90" y="474.7476">For each chunk</text><polygon fill="#FFFFFF" points="98.5,1235.0391,176.5,1235.0391,188.5,1247.0391,176.5,1259.0391,98.5,1259.0391,86.5,1247.0391,98.5,1235.0391" style="stroke:#000000;stroke-width:1.0;"/><text fill="#000000" font-family="Verdana" font-size="11" lengthAdjust="spacing" textLength="78" x="98.5" y="1251.4138">More chunks?</text><text fill="#000000" font-family="Verdana" font-size="11" lengthAdjust="spacing" textLength="20" x="188.5" y="1244.7295">yes</text><rect fill="#FFFFFF" height="34.584" rx="12.5" ry="12.5" style="stroke:#000000;stroke-width:1.0;" width="121" x="837" y="343.5151"/><text fill="#000000" font-family="Verdana" font-size="12" lengthAdjust="spacing" textLength="101" x="847" y="365.5796">Stop Processing</text><polygon fill="#FFFFFF" points="517.5,1271.2173,529.5,1283.2173,517.5,1295.2173,505.5,1283.2173,517.5,1271.2173" style="stroke:#000000;stroke-width:1.0;"/><text fill="#000000" font-family="Verdana" font-size="11" lengthAdjust="spacing" textLength="14" x="491.5" y="1280.9077">no</text><ellipse cx="517.5" cy="1326.2173" fill="none" rx="11" ry="11" style="stroke:#000000;stroke-width:1.0;"/><ellipse cx="517.5" cy="1326.2173" fill="#FFFFFF" rx="6" ry="6" style="stroke:#000000;stroke-width:1.0;"/><line style="stroke:#000000;stroke-width:1.0;" x1="517.5" x2="517.5" y1="72.7373" y2="92.7373"/><polygon fill="#000000" points="513.5,82.7373,517.5,92.7373,521.5,82.7373,517.5,86.7373" style="stroke:#000000;stroke-width:1.0;"/><line style="stroke:#000000;stroke-width:1.0;" x1="517.5" x2="517.5" y1="127.3213" y2="196.1262"/><polygon fill="#000000" points="513.5,186.1262,517.5,196.1262,521.5,186.1262,517.5,190.1262" style="stroke:#000000;stroke-width:1.0;"/><line style="stroke:#000000;stroke-width:1.0;" x1="137.5" x2="137.5" y1="378.0991" y2="398.0991"/><polygon fill="#000000" points="133.5,388.0991,137.5,398.0991,141.5,388.0991,137.5,392.0991" style="stroke:#000000;stroke-width:1.0;"/><line style="stroke:#000000;stroke-width:1.0;" x1="137.5" x2="137.5" y1="606.4553" y2="718.2659"/><polygon fill="#000000" points="133.5,708.2659,137.5,718.2659,141.5,708.2659,137.5,712.2659" style="stroke:#000000;stroke-width:1.0;"/><line style="stroke:#000000;stroke-width:1.0;" x1="137.5" x2="137.5" y1="752.8499" y2="896.259"/><polygon fill="#000000" points="133.5,886.259,137.5,896.259,141.5,886.259,137.5,890.259" style="stroke:#000000;stroke-width:1.0;"/><line style="stroke:#000000;stroke-width:1.0;" x1="137.5" x2="137.5" y1="930.843" y2="1113.7505"/><polygon fill="#000000" points="133.5,1103.7505,137.5,1113.7505,141.5,1103.7505,137.5,1107.7505" style="stroke:#000000;stroke-width:1.0;"/><line style="stroke:#000000;stroke-width:1.0;" x1="137.5" x2="137.5" y1="487.2671" y2="571.8713"/><polygon fill="#000000" points="133.5,561.8713,137.5,571.8713,141.5,561.8713,137.5,565.8713" style="stroke:#000000;stroke-width:1.0;"/><line style="stroke:#000000;stroke-width:1.0;" x1="188.5" x2="805" y1="1247.0391" y2="1247.0391"/><polygon fill="#000000" points="801,851.0071,805,841.0071,809,851.0071,805,847.0071" style="stroke:#000000;stroke-width:1.0;"/><line style="stroke:#000000;stroke-width:1.0;" x1="805" x2="805" y1="469.9751" y2="1247.0391"/><line style="stroke:#000000;stroke-width:1.0;" x1="805" x2="195" y1="469.9751" y2="469.9751"/><polygon fill="#000000" points="205,465.9751,195,469.9751,205,473.9751,201,469.9751" style="stroke:#000000;stroke-width:1.0;"/><line style="stroke:#000000;stroke-width:1.0;" x1="137.5" x2="137.5" y1="1148.3345" y2="1235.0391"/><polygon fill="#000000" points="133.5,1225.0391,137.5,1235.0391,141.5,1225.0391,137.5,1229.0391" style="stroke:#000000;stroke-width:1.0;"/><line style="stroke:#000000;stroke-width:1.0;" x1="137.5" x2="137.5" y1="432.6831" y2="452.6831"/><polygon fill="#000000" points="133.5,442.6831,137.5,452.6831,141.5,442.6831,137.5,446.6831" style="stroke:#000000;stroke-width:1.0;"/><line style="stroke:#000000;stroke-width:1.0;" x1="459" x2="137.5" y1="321.5151" y2="321.5151"/><line style="stroke:#000000;stroke-width:1.0;" x1="137.5" x2="137.5" y1="321.5151" y2="343.5151"/><polygon fill="#000000" points="133.5,333.5151,137.5,343.5151,141.5,333.5151,137.5,337.5151" style="stroke:#000000;stroke-width:1.0;"/><line style="stroke:#000000;stroke-width:1.0;" x1="576" x2="897.5" y1="321.5151" y2="321.5151"/><line style="stroke:#000000;stroke-width:1.0;" x1="897.5" x2="897.5" y1="321.5151" y2="343.5151"/><polygon fill="#000000" points="893.5,333.5151,897.5,343.5151,901.5,333.5151,897.5,337.5151" style="stroke:#000000;stroke-width:1.0;"/><line style="stroke:#000000;stroke-width:1.0;" x1="137.5" x2="137.5" y1="1259.0391" y2="1283.2173"/><line style="stroke:#000000;stroke-width:1.0;" x1="137.5" x2="505.5" y1="1283.2173" y2="1283.2173"/><polygon fill="#000000" points="495.5,1279.2173,505.5,1283.2173,495.5,1287.2173,499.5,1283.2173" style="stroke:#000000;stroke-width:1.0;"/><line style="stroke:#000000;stroke-width:1.0;" x1="897.5" x2="897.5" y1="378.0991" y2="1283.2173"/><line style="stroke:#000000;stroke-width:1.0;" x1="897.5" x2="529.5" y1="1283.2173" y2="1283.2173"/><polygon fill="#000000" points="539.5,1279.2173,529.5,1283.2173,539.5,1287.2173,535.5,1283.2173" style="stroke:#000000;stroke-width:1.0;"/><line style="stroke:#000000;stroke-width:1.0;" x1="517.5" x2="517.5" y1="230.7102" y2="309.5151"/><polygon fill="#000000" points="513.5,299.5151,517.5,309.5151,521.5,299.5151,517.5,303.5151" style="stroke:#000000;stroke-width:1.0;"/><line style="stroke:#000000;stroke-width:1.0;" x1="517.5" x2="517.5" y1="1295.2173" y2="1315.2173"/><polygon fill="#000000" points="513.5,1305.2173,517.5,1315.2173,521.5,1305.2173,517.5,1309.2173" style="stroke:#000000;stroke-width:1.0;"/><!--SRC=[rLPDSvim4BtpAxOtF9EadSpqOlTZ4iW76Rj9G_fnymXO6qraYP54NFhhAu71G8Z3J4xbPCFRrTE-9-s-qobk4396A7SqrGpXcv0Rmk0iZaNEDNYCA4LND2QQ2Wxd1OIPa1gEmIUQH4GXN3An1P-IjIGRnr6QIErCRqG43vAkroWncJdEz0frbVfE2ERbIeiDIZLpkD081fXg1ynJPvr2999e-VF-T24IPE26t-SGedn2EIc1eHOcCzn94MEIInFWFOJBywAaLwtKvRxSBxyqPCea3oHYgARbxsEeMVNYTZbRyQFmXq5tn5GBDSeITflhBDSrZu4wWMj_1ibHLVuhAVBi20BbfHW_dgFsh5YJNNmO4yunMP0_GU8WJy3Ms77e2jnheXf6wki4ZFuSt09L5Jlrqfm_Gjmi6nKG4Hsd0JTKEM4X_Okp4bhXxJOOC_gKEfWDyZMu7qrQYIHHanPKOeP4m_HII40Ifn3RfSfFPIOZYPTBYLmt5ICQrq8MimRKyqhzx3rZBM3_UMZvWhieZ6qc7V2mRtnlQPTzGVaMjnsdJig0D-BLJwLx6JsdIeDx4zv-wn9fUwyLzX3M-t_vom73TGcqozZx76eJ75jodGzj9xwOYs9jIBzho7ej-pvGfiPHoN1EbFP9iTz_OyhwnTu7Du9o8DmgX1cHMAhxgWNAgA5piwKw7Q3V2VQCMKtMslK1NuagSAWCtItt0GVttmFtJk-Ouko4BmPlqj6dv9MRzV196Nd3rap77PHo1xyNyp47vF0bFJSAA7qMQ_g4pql-Il0pAKP5xQvRdr1MM6WlkgnsihLtk6cg-IPdXc82rcMJ0UY7qvCa4YU3by1Sh6dSBuYvd82q4cSeLrO77kCpTxAu147SxUeoPxqZOTgxRKuRoir4WDl6rqaFzIDBpAVt0LTeXe9ksd66HYB_1pSRcc-mSgydlzdblL7ae3zyP4PAoAe6RKhGTFSUyDVrnVq513vy-ZnCjwFZhfzlKsg6HdTXYbjrT3jLKDMQAOw_S35pa9b9qUKxoq-D6bbhPfZPCOMkxFGeCkSV]--></g></svg>