<svg xmlns="http://www.w3.org/2000/svg" xmlns:xlink="http://www.w3.org/1999/xlink" contentStyleType="text/css" height="1864px" preserveAspectRatio="none" style="width:1224px;height:1864px;background:#FFFFFF;" version="1.1" viewBox="0 0 1224 1864" width="1224px" zoomAndPan="magnify"><defs/><g><text fill="#000000" font-family="Verdana" font-size="22" font-weight="bold" lengthAdjust="spacing" textLength="608" x="306.5" y="37.1182">Normal Account Insert By Sport - Database Flow</text><ellipse cx="247" cy="62.7373" fill="#FFFFFF" rx="10" ry="10" style="stroke:#000000;stroke-width:1.0;"/><rect fill="#FFFFFF" height="34.584" rx="12.5" ry="12.5" style="stroke:#000000;stroke-width:1.0;" width="330" x="82" y="92.7373"/><text fill="#000000" font-family="Verdana" font-size="12" lengthAdjust="spacing" textLength="310" x="92" y="114.8018">NormalAccountInsertBySportJobService.Execute()</text><rect fill="#FFFFFF" height="34.584" rx="12.5" ry="12.5" style="stroke:#000000;stroke-width:1.0;" width="227" x="133.5" y="147.3213"/><text fill="#000000" font-family="Verdana" font-size="12" lengthAdjust="spacing" textLength="207" x="143.5" y="169.3857">GetNormalClassificationBySport()</text><rect fill="#FFFFFF" height="313.2051" style="stroke:#000000;stroke-width:1.0;" width="1186" x="32" y="191.9053"/><path d="M253,191.9053 L253,201.9199 L243,211.9199 L32,211.9199 " fill="none" style="stroke:#000000;stroke-width:1.0;"/><text fill="#000000" font-family="Verdana" font-size="14" lengthAdjust="spacing" textLength="211" x="35" y="206.9805">SQL Server (bodb_VR2Model)</text><path d="M472,221.9199 L472,278.2175 L452,282.2175 L472,286.2175 L472,342.5151 A0,0 0 0 0 472,342.5151 L1208,342.5151 A0,0 0 0 0 1208,342.5151 L1208,231.9199 L1198,221.9199 L472,221.9199 A0,0 0 0 0 472,221.9199 " fill="#FFFFFF" style="stroke:#000000;stroke-width:1.0;"/><path d="M1198,221.9199 L1198,231.9199 L1208,231.9199 L1198,221.9199 " fill="#FFFFFF" style="stroke:#000000;stroke-width:1.0;"/><text fill="#000000" font-family="Verdana" font-size="13" lengthAdjust="spacing" textLength="226" x="478" y="239.9897">Input: @ScannedMaxId (OUTPUT)</text><text fill="#000000" font-family="Verdana" font-size="13" lengthAdjust="spacing" textLength="461" x="478" y="255.7891">Gets last scanned RowVersion from CustomerClassification_Parameter</text><text fill="#000000" font-family="Verdana" font-size="13" lengthAdjust="spacing" textLength="451" x="478" y="271.5884">Gets next scanned RowVersion from CustomerClassification_BySport</text><text fill="#000000" font-family="Verdana" font-size="13" lengthAdjust="spacing" textLength="436" x="478" y="287.3877">Selects TOP 10000 records where RowVersion &gt; LastScannedRow</text><text fill="#000000" font-family="Verdana" font-size="13" lengthAdjust="spacing" textLength="249" x="478" y="303.187">AND RowVersion &lt;= NextScannedRow</text><text fill="#000000" font-family="Verdana" font-size="13" lengthAdjust="spacing" textLength="715" x="478" y="318.9863">Returns: CustId, SportGroup, CategoryId, TurnoverRM, WinlossRM, BetCount, ActiveDays, PerformanceTime</text><text fill="#000000" font-family="Verdana" font-size="13" lengthAdjust="spacing" textLength="289" x="478" y="334.7856">Output: @ScannedMaxId (Max RowVersion)</text><rect fill="#FFFFFF" height="34.584" rx="12.5" ry="12.5" style="stroke:#000000;stroke-width:1.0;" width="410" x="42" y="264.9255"/><text fill="#000000" font-family="Verdana" font-size="12" lengthAdjust="spacing" textLength="390" x="52" y="286.99">Call SP: CTS_BySportNormalClassification_NormalAccount_Get</text><path d="M395,352.5151 L395,385.1138 L375,389.1138 L395,393.1138 L395,425.7124 A0,0 0 0 0 395,425.7124 L920,425.7124 A0,0 0 0 0 920,425.7124 L920,362.5151 L910,352.5151 L395,352.5151 A0,0 0 0 0 395,352.5151 " fill="#FFFFFF" style="stroke:#000000;stroke-width:1.0;"/><path d="M910,352.5151 L910,362.5151 L920,362.5151 L910,352.5151 " fill="#FFFFFF" style="stroke:#000000;stroke-width:1.0;"/><text fill="#000000" font-family="Verdana" font-size="13" lengthAdjust="spacing" textLength="255" x="401" y="370.585">Table: CustomerClassification_BySport</text><text fill="#000000" font-family="Verdana" font-size="13" lengthAdjust="spacing" textLength="504" x="401" y="386.3843">Filter: RowVersion &gt; LastScannedRow AND RowVersion &lt;= NextScannedRow</text><text fill="#000000" font-family="Verdana" font-size="13" lengthAdjust="spacing" textLength="175" x="401" y="402.1836">Order by: RowVersion ASC</text><text fill="#000000" font-family="Verdana" font-size="13" lengthAdjust="spacing" textLength="113" x="401" y="417.9829">Limit: TOP 10000</text><rect fill="#FFFFFF" height="34.584" rx="12.5" ry="12.5" style="stroke:#000000;stroke-width:1.0;" width="256" x="119" y="371.8218"/><text fill="#000000" font-family="Verdana" font-size="12" lengthAdjust="spacing" textLength="236" x="129" y="393.8862">Read CustomerClassification_BySport</text><path d="M403.5,435.7124 L403.5,460.4114 L383.5,464.4114 L403.5,468.4114 L403.5,493.1104 A0,0 0 0 0 403.5,493.1104 L708.5,493.1104 A0,0 0 0 0 708.5,493.1104 L708.5,445.7124 L698.5,435.7124 L403.5,435.7124 A0,0 0 0 0 403.5,435.7124 " fill="#FFFFFF" style="stroke:#000000;stroke-width:1.0;"/><path d="M698.5,435.7124 L698.5,445.7124 L708.5,445.7124 L698.5,435.7124 " fill="#FFFFFF" style="stroke:#000000;stroke-width:1.0;"/><text fill="#000000" font-family="Verdana" font-size="13" lengthAdjust="spacing" textLength="270" x="409.5" y="453.7822">Table: CustomerClassification_Parameter</text><text fill="#000000" font-family="Verdana" font-size="13" lengthAdjust="spacing" textLength="284" x="409.5" y="469.5815">DataId = 2 (BYSPORT_LASTSCANNEDROW)</text><text fill="#000000" font-family="Verdana" font-size="13" lengthAdjust="spacing" textLength="199" x="409.5" y="485.3809">Get: Value (LastScannedRow)</text><rect fill="#FFFFFF" height="34.584" rx="12.5" ry="12.5" style="stroke:#000000;stroke-width:1.0;" width="273" x="110.5" y="447.1194"/><text fill="#000000" font-family="Verdana" font-size="12" lengthAdjust="spacing" textLength="253" x="120.5" y="469.1838">Read CustomerClassification_Parameter</text><rect fill="#FFFFFF" height="1007.9778" style="stroke:#000000;stroke-width:1.0;" width="893.5" x="6" y="571.6694"/><path d="M152,571.6694 L152,581.6841 L142,591.6841 L6,591.6841 " fill="none" style="stroke:#000000;stroke-width:1.0;"/><text fill="#000000" font-family="Verdana" font-size="14" lengthAdjust="spacing" textLength="136" x="9" y="586.7446">Process Customers</text><rect fill="#FFFFFF" height="34.584" rx="12.5" ry="12.5" style="stroke:#000000;stroke-width:1.0;" width="303" x="95.5" y="608.6841"/><text fill="#000000" font-family="Verdana" font-size="12" lengthAdjust="spacing" textLength="283" x="105.5" y="630.7485">Chunk customers (batchInternalSize = 5000)</text><rect fill="#FFFFFF" height="34.584" rx="12.5" ry="12.5" style="stroke:#000000;stroke-width:1.0;" width="209" x="142.5" y="663.2681"/><text fill="#000000" font-family="Verdana" font-size="12" lengthAdjust="spacing" textLength="189" x="152.5" y="685.3325">Process in parallel (4 threads)</text><rect fill="#FFFFFF" height="708.3679" style="stroke:#000000;stroke-width:1.0;" width="873.5" x="16" y="707.8521"/><path d="M311,707.8521 L311,717.8667 L301,727.8667 L16,727.8667 " fill="none" style="stroke:#000000;stroke-width:1.0;"/><text fill="#000000" font-family="Verdana" font-size="14" lengthAdjust="spacing" textLength="285" x="19" y="722.9272">For Normal Accounts (CategoryId != -1)</text><rect fill="#FFFFFF" height="566.2473" style="stroke:#000000;stroke-width:1.0;" width="853.5" x="26" y="737.8667"/><path d="M219,737.8667 L219,747.8813 L209,757.8813 L26,757.8813 " fill="none" style="stroke:#000000;stroke-width:1.0;"/><text fill="#000000" font-family="Verdana" font-size="14" lengthAdjust="spacing" textLength="183" x="29" y="752.9419">MySQL (CTS_DataCenter)</text><path d="M439,774.374 L439,791.1733 L419,795.1733 L439,799.1733 L439,815.9727 A0,0 0 0 0 439,815.9727 L726,815.9727 A0,0 0 0 0 726,815.9727 L726,784.374 L716,774.374 L439,774.374 A0,0 0 0 0 439,774.374 " fill="#FFFFFF" style="stroke:#000000;stroke-width:1.0;"/><path d="M716,774.374 L716,784.374 L726,784.374 L716,774.374 " fill="#FFFFFF" style="stroke:#000000;stroke-width:1.0;"/><text fill="#000000" font-family="Verdana" font-size="13" lengthAdjust="spacing" textLength="266" x="445" y="792.4438">InputFlowID: 332 (BySportInsertNormal)</text><text fill="#000000" font-family="Verdana" font-size="13" lengthAdjust="spacing" textLength="231" x="445" y="808.2432">CustInfo: JSON array of customers</text><rect fill="#FFFFFF" height="34.584" rx="12.5" ry="12.5" style="stroke:#000000;stroke-width:1.0;" width="344" x="75" y="777.8813"/><text fill="#000000" font-family="Verdana" font-size="12" lengthAdjust="spacing" textLength="324" x="85" y="799.9458">Call SP: CTS_DC_CustClassification_BySport_Insert</text><path d="M466.5,825.9727 L466.5,858.5713 L446.5,862.5713 L466.5,866.5713 L466.5,899.1699 A0,0 0 0 0 466.5,899.1699 L869.5,899.1699 A0,0 0 0 0 869.5,899.1699 L869.5,835.9727 L859.5,825.9727 L466.5,825.9727 A0,0 0 0 0 466.5,825.9727 " fill="#FFFFFF" style="stroke:#000000;stroke-width:1.0;"/><path d="M859.5,825.9727 L859.5,835.9727 L869.5,835.9727 L859.5,825.9727 " fill="#FFFFFF" style="stroke:#000000;stroke-width:1.0;"/><text fill="#000000" font-family="Verdana" font-size="13" lengthAdjust="spacing" textLength="339" x="472.5" y="844.0425">Parse JSON and insert into Temp_NewClassification</text><text fill="#000000" font-family="Verdana" font-size="13" lengthAdjust="spacing" textLength="274" x="472.5" y="859.8418">Join with CTSCustomer to get CTSCustID</text><text fill="#000000" font-family="Verdana" font-size="13" lengthAdjust="spacing" textLength="382" x="472.5" y="875.6411">Join with SpecialCustomerClass_BySport to get SpecialCC</text><text fill="#000000" font-family="Verdana" font-size="13" lengthAdjust="spacing" textLength="315" x="472.5" y="891.4404">Mark IsExistPA if customer has PA classification</text><rect fill="#FFFFFF" height="34.584" rx="12.5" ry="12.5" style="stroke:#000000;stroke-width:1.0;" width="399" x="47.5" y="845.2793"/><text fill="#000000" font-family="Verdana" font-size="12" lengthAdjust="spacing" textLength="379" x="57.5" y="867.3438">Call SP: CTS_DC_CustClassification_BySport_Insert_GetInfo</text><path d="M478,909.1699 L478,941.7686 L458,945.7686 L478,949.7686 L478,982.3672 A0,0 0 0 0 478,982.3672 L742,982.3672 A0,0 0 0 0 742,982.3672 L742,919.1699 L732,909.1699 L478,909.1699 A0,0 0 0 0 478,909.1699 " fill="#FFFFFF" style="stroke:#000000;stroke-width:1.0;"/><path d="M732,909.1699 L732,919.1699 L742,919.1699 L732,909.1699 " fill="#FFFFFF" style="stroke:#000000;stroke-width:1.0;"/><text fill="#000000" font-family="Verdana" font-size="13" lengthAdjust="spacing" textLength="168" x="484" y="927.2397">For Normal accounts only</text><text fill="#000000" font-family="Verdana" font-size="13" lengthAdjust="spacing" textLength="243" x="484" y="943.0391">Get TargetCC from CategoryMapping</text><text fill="#000000" font-family="Verdana" font-size="13" lengthAdjust="spacing" textLength="166" x="484" y="958.8384">Calculate IsDataChanged</text><text fill="#000000" font-family="Verdana" font-size="13" lengthAdjust="spacing" textLength="141" x="484" y="974.6377">Set IsReturnData = 1</text><rect fill="#FFFFFF" height="34.584" rx="12.5" ry="12.5" style="stroke:#000000;stroke-width:1.0;" width="422" x="36" y="928.4766"/><text fill="#000000" font-family="Verdana" font-size="12" lengthAdjust="spacing" textLength="402" x="46" y="950.541">Call SP: CTS_DC_CustClassification_BySport_Insert_PreProcess</text><path d="M467.5,992.3672 L467.5,1017.0662 L447.5,1021.0662 L467.5,1025.0662 L467.5,1049.7651 A0,0 0 0 0 467.5,1049.7651 L820.5,1049.7651 A0,0 0 0 0 820.5,1049.7651 L820.5,1002.3672 L810.5,992.3672 L467.5,992.3672 A0,0 0 0 0 467.5,992.3672 " fill="#FFFFFF" style="stroke:#000000;stroke-width:1.0;"/><path d="M810.5,992.3672 L810.5,1002.3672 L820.5,1002.3672 L810.5,992.3672 " fill="#FFFFFF" style="stroke:#000000;stroke-width:1.0;"/><text fill="#000000" font-family="Verdana" font-size="13" lengthAdjust="spacing" textLength="332" x="473.5" y="1010.437">Insert/Update CTSCustomerClassification_BySport</text><text fill="#000000" font-family="Verdana" font-size="13" lengthAdjust="spacing" textLength="158" x="473.5" y="1026.2363">Insert into History table</text><text fill="#000000" font-family="Verdana" font-size="13" lengthAdjust="spacing" textLength="135" x="473.5" y="1042.0356">Insert into Log table</text><rect fill="#FFFFFF" height="34.584" rx="12.5" ry="12.5" style="stroke:#000000;stroke-width:1.0;" width="401" x="46.5" y="1003.7742"/><text fill="#000000" font-family="Verdana" font-size="12" lengthAdjust="spacing" textLength="381" x="56.5" y="1025.8386">Call SP: CTS_DC_CustClassification_BySport_Insert_Process</text><path d="M473,1066.2578 L473,1083.0571 L453,1087.0571 L473,1091.0571 L473,1107.8564 A0,0 0 0 0 473,1107.8564 L781,1107.8564 A0,0 0 0 0 781,1107.8564 L781,1076.2578 L771,1066.2578 L473,1066.2578 A0,0 0 0 0 473,1066.2578 " fill="#FFFFFF" style="stroke:#000000;stroke-width:1.0;"/><path d="M771,1066.2578 L771,1076.2578 L781,1076.2578 L771,1066.2578 " fill="#FFFFFF" style="stroke:#000000;stroke-width:1.0;"/><text fill="#000000" font-family="Verdana" font-size="13" lengthAdjust="spacing" textLength="287" x="479" y="1084.3276">Update CTSCustomerClassification_BySport</text><text fill="#000000" font-family="Verdana" font-size="13" lengthAdjust="spacing" textLength="141" x="479" y="1100.127">Set LastModifiedDate</text><rect fill="#FFFFFF" height="34.584" rx="12.5" ry="12.5" style="stroke:#000000;stroke-width:1.0;" width="412" x="41" y="1069.7651"/><text fill="#000000" font-family="Verdana" font-size="12" lengthAdjust="spacing" textLength="392" x="51" y="1091.8296">Call SP: CTS_DC_CustClassification_BySport_Insert_Complete</text><path d="M408,1124.3491 L408,1141.1484 L388,1145.1484 L408,1149.1484 L408,1165.9478 A0,0 0 0 0 408,1165.9478 L769,1165.9478 A0,0 0 0 0 769,1165.9478 L769,1134.3491 L759,1124.3491 L408,1124.3491 A0,0 0 0 0 408,1124.3491 " fill="#FFFFFF" style="stroke:#000000;stroke-width:1.0;"/><path d="M759,1124.3491 L759,1134.3491 L769,1134.3491 L759,1124.3491 " fill="#FFFFFF" style="stroke:#000000;stroke-width:1.0;"/><text fill="#000000" font-family="Verdana" font-size="13" lengthAdjust="spacing" textLength="195" x="414" y="1142.4189">Insert new or update existing</text><text fill="#000000" font-family="Verdana" font-size="13" lengthAdjust="spacing" textLength="340" x="414" y="1158.2183">Fields: CustID, SportID, CategoryID, ParentID, etc.</text><rect fill="#FFFFFF" height="34.584" rx="12.5" ry="12.5" style="stroke:#000000;stroke-width:1.0;" width="282" x="106" y="1127.8564"/><text fill="#000000" font-family="Verdana" font-size="12" lengthAdjust="spacing" textLength="262" x="116" y="1149.9209">Write CTSCustomerClassification_BySport</text><path d="M434,1195.9314 L434,1212.7307 L414,1216.7307 L434,1220.7307 L434,1237.53 A0,0 0 0 0 434,1237.53 L672,1237.53 A0,0 0 0 0 672,1237.53 L672,1205.9314 L662,1195.9314 L434,1195.9314 A0,0 0 0 0 434,1195.9314 " fill="#FFFFFF" style="stroke:#000000;stroke-width:1.0;"/><path d="M662,1195.9314 L662,1205.9314 L672,1205.9314 L662,1195.9314 " fill="#FFFFFF" style="stroke:#000000;stroke-width:1.0;"/><text fill="#000000" font-family="Verdana" font-size="13" lengthAdjust="spacing" textLength="136" x="440" y="1214.0012">Insert history record</text><text fill="#000000" font-family="Verdana" font-size="13" lengthAdjust="spacing" textLength="217" x="440" y="1229.8005">Fields: ActionType, Remark, etc.</text><rect fill="#FFFFFF" height="34.584" rx="12.5" ry="12.5" style="stroke:#000000;stroke-width:1.0;" width="334" x="80" y="1199.4387"/><text fill="#000000" font-family="Verdana" font-size="12" lengthAdjust="spacing" textLength="314" x="90" y="1221.5032">Write CTSCustomerClassification_BySport_History</text><path d="M423.5,1261.9224 L423.5,1270.822 L403.5,1274.822 L423.5,1278.822 L423.5,1287.7217 A0,0 0 0 0 423.5,1287.7217 L554.5,1287.7217 A0,0 0 0 0 554.5,1287.7217 L554.5,1271.9224 L544.5,1261.9224 L423.5,1261.9224 A0,0 0 0 0 423.5,1261.9224 " fill="#FFFFFF" style="stroke:#000000;stroke-width:1.0;"/><path d="M544.5,1261.9224 L544.5,1271.9224 L554.5,1271.9224 L544.5,1261.9224 " fill="#FFFFFF" style="stroke:#000000;stroke-width:1.0;"/><text fill="#000000" font-family="Verdana" font-size="13" lengthAdjust="spacing" textLength="110" x="429.5" y="1279.9922">Insert log record</text><rect fill="#FFFFFF" height="34.584" rx="12.5" ry="12.5" style="stroke:#000000;stroke-width:1.0;" width="313" x="90.5" y="1257.53"/><text fill="#000000" font-family="Verdana" font-size="12" lengthAdjust="spacing" textLength="293" x="100.5" y="1279.5945">Write CTSCustomerClassification_BySport_Log</text><rect fill="#FFFFFF" height="90.106" style="stroke:#000000;stroke-width:1.0;" width="482" x="142.5" y="1314.114"/><path d="M209.5,1314.114 L209.5,1324.1287 L199.5,1334.1287 L142.5,1334.1287 " fill="none" style="stroke:#000000;stroke-width:1.0;"/><text fill="#000000" font-family="Verdana" font-size="14" lengthAdjust="spacing" textLength="57" x="145.5" y="1329.1892">Main DB</text><path d="M361.5,1350.6213 L361.5,1367.4207 L341.5,1371.4207 L361.5,1375.4207 L361.5,1392.22 A0,0 0 0 0 361.5,1392.22 L614.5,1392.22 A0,0 0 0 0 614.5,1392.22 L614.5,1360.6213 L604.5,1350.6213 L361.5,1350.6213 A0,0 0 0 0 361.5,1350.6213 " fill="#FFFFFF" style="stroke:#000000;stroke-width:1.0;"/><path d="M604.5,1350.6213 L604.5,1360.6213 L614.5,1360.6213 L604.5,1350.6213 " fill="#FFFFFF" style="stroke:#000000;stroke-width:1.0;"/><text fill="#000000" font-family="Verdana" font-size="13" lengthAdjust="spacing" textLength="232" x="367.5" y="1368.6912">Push classification data to Main DB</text><text fill="#000000" font-family="Verdana" font-size="13" lengthAdjust="spacing" textLength="197" x="367.5" y="1384.4905">Batch size: batchExternalSize</text><rect fill="#FFFFFF" height="34.584" rx="12.5" ry="12.5" style="stroke:#000000;stroke-width:1.0;" width="189" x="152.5" y="1354.1287"/><text fill="#000000" font-family="Verdana" font-size="12" lengthAdjust="spacing" textLength="169" x="162.5" y="1376.1931">PushCCBySportToMainDB()</text><rect fill="#FFFFFF" height="141.4272" style="stroke:#000000;stroke-width:1.0;" width="487" x="132.5" y="1426.22"/><path d="M386.5,1426.22 L386.5,1436.2346 L376.5,1446.2346 L132.5,1446.2346 " fill="none" style="stroke:#000000;stroke-width:1.0;"/><text fill="#000000" font-family="Verdana" font-size="14" lengthAdjust="spacing" textLength="244" x="135.5" y="1441.2952">For Special CC (CategoryId == -1)</text><rect fill="#FFFFFF" height="99.4126" style="stroke:#000000;stroke-width:1.0;" width="467" x="142.5" y="1456.2346"/><path d="M209.5,1456.2346 L209.5,1466.2493 L199.5,1476.2493 L142.5,1476.2493 " fill="none" style="stroke:#000000;stroke-width:1.0;"/><text fill="#000000" font-family="Verdana" font-size="14" lengthAdjust="spacing" textLength="57" x="145.5" y="1471.3098">Main DB</text><path d="M361.5,1486.2493 L361.5,1510.9482 L341.5,1514.9482 L361.5,1518.9482 L361.5,1543.6472 A0,0 0 0 0 361.5,1543.6472 L599.5,1543.6472 A0,0 0 0 0 599.5,1543.6472 L599.5,1496.2493 L589.5,1486.2493 L361.5,1486.2493 A0,0 0 0 0 361.5,1486.2493 " fill="#FFFFFF" style="stroke:#000000;stroke-width:1.0;"/><path d="M589.5,1486.2493 L589.5,1496.2493 L599.5,1496.2493 L589.5,1486.2493 " fill="#FFFFFF" style="stroke:#000000;stroke-width:1.0;"/><text fill="#000000" font-family="Verdana" font-size="13" lengthAdjust="spacing" textLength="217" x="367.5" y="1504.3191">Push Special CC data to Main DB</text><text fill="#000000" font-family="Verdana" font-size="13" lengthAdjust="spacing" textLength="193" x="367.5" y="1520.1184">No insert to CTS_DataCenter</text><text fill="#000000" font-family="Verdana" font-size="13" lengthAdjust="spacing" textLength="141" x="367.5" y="1535.9177">Only push to Main DB</text><rect fill="#FFFFFF" height="34.584" rx="12.5" ry="12.5" style="stroke:#000000;stroke-width:1.0;" width="189" x="152.5" y="1497.6563"/><text fill="#000000" font-family="Verdana" font-size="12" lengthAdjust="spacing" textLength="169" x="162.5" y="1519.7207">PushCCBySportToMainDB()</text><rect fill="#FFFFFF" height="182.6099" style="stroke:#000000;stroke-width:1.0;" width="793" x="13" y="1589.6472"/><path d="M234,1589.6472 L234,1599.6619 L224,1609.6619 L13,1609.6619 " fill="none" style="stroke:#000000;stroke-width:1.0;"/><text fill="#000000" font-family="Verdana" font-size="14" lengthAdjust="spacing" textLength="211" x="16" y="1604.7224">SQL Server (bodb_VR2Model)</text><path d="M491,1619.6619 L491,1652.2605 L471,1656.2605 L491,1660.2605 L491,1692.8591 A0,0 0 0 0 491,1692.8591 L796,1692.8591 A0,0 0 0 0 796,1692.8591 L796,1629.6619 L786,1619.6619 L491,1619.6619 A0,0 0 0 0 491,1619.6619 " fill="#FFFFFF" style="stroke:#000000;stroke-width:1.0;"/><path d="M786,1619.6619 L786,1629.6619 L796,1629.6619 L786,1619.6619 " fill="#FFFFFF" style="stroke:#000000;stroke-width:1.0;"/><text fill="#000000" font-family="Verdana" font-size="13" lengthAdjust="spacing" textLength="155" x="497" y="1637.7317">Input: @ScannedMaxId</text><text fill="#000000" font-family="Verdana" font-size="13" lengthAdjust="spacing" textLength="282" x="497" y="1653.531">Updates CustomerClassification_Parameter</text><text fill="#000000" font-family="Verdana" font-size="13" lengthAdjust="spacing" textLength="199" x="497" y="1669.3303">Sets Value = @ScannedMaxId</text><text fill="#000000" font-family="Verdana" font-size="13" lengthAdjust="spacing" textLength="284" x="497" y="1685.1296">DataId = 2 (BYSPORT_LASTSCANNEDROW)</text><rect fill="#FFFFFF" height="34.584" rx="12.5" ry="12.5" style="stroke:#000000;stroke-width:1.0;" width="448" x="23" y="1638.9685"/><text fill="#000000" font-family="Verdana" font-size="12" lengthAdjust="spacing" textLength="428" x="33" y="1661.033">Call SP: CTS_BySportNormalClassification_NormalAccount_Complete</text><path d="M410.5,1702.8591 L410.5,1727.5581 L390.5,1731.5581 L410.5,1735.5581 L410.5,1760.2571 A0,0 0 0 0 410.5,1760.2571 L701.5,1760.2571 A0,0 0 0 0 701.5,1760.2571 L701.5,1712.8591 L691.5,1702.8591 L410.5,1702.8591 A0,0 0 0 0 410.5,1702.8591 " fill="#FFFFFF" style="stroke:#000000;stroke-width:1.0;"/><path d="M691.5,1702.8591 L691.5,1712.8591 L701.5,1712.8591 L691.5,1702.8591 " fill="#FFFFFF" style="stroke:#000000;stroke-width:1.0;"/><text fill="#000000" font-family="Verdana" font-size="13" lengthAdjust="spacing" textLength="270" x="416.5" y="1720.929">Table: CustomerClassification_Parameter</text><text fill="#000000" font-family="Verdana" font-size="13" lengthAdjust="spacing" textLength="71" x="416.5" y="1736.7283">DataId = 2</text><text fill="#000000" font-family="Verdana" font-size="13" lengthAdjust="spacing" textLength="164" x="416.5" y="1752.5276">Value = @ScannedMaxId</text><rect fill="#FFFFFF" height="34.584" rx="12.5" ry="12.5" style="stroke:#000000;stroke-width:1.0;" width="287" x="103.5" y="1714.2661"/><text fill="#000000" font-family="Verdana" font-size="12" lengthAdjust="spacing" textLength="267" x="113.5" y="1736.3306">Update CustomerClassification_Parameter</text><polygon fill="#FFFFFF" points="202,525.1104,292,525.1104,304,537.1104,292,549.1104,202,549.1104,190,537.1104,202,525.1104" style="stroke:#000000;stroke-width:1.0;"/><text fill="#000000" font-family="Verdana" font-size="11" lengthAdjust="spacing" textLength="20" x="251" y="560.1694">yes</text><text fill="#000000" font-family="Verdana" font-size="11" lengthAdjust="spacing" textLength="90" x="202" y="541.4851">Has customers?</text><text fill="#000000" font-family="Verdana" font-size="11" lengthAdjust="spacing" textLength="14" x="304" y="534.8008">no</text><polygon fill="#FFFFFF" points="247,1792.2571,259,1804.2571,247,1816.2571,235,1804.2571,247,1792.2571" style="stroke:#000000;stroke-width:1.0;"/><ellipse cx="247" cy="1847.2571" fill="none" rx="11" ry="11" style="stroke:#000000;stroke-width:1.0;"/><ellipse cx="247" cy="1847.2571" fill="#FFFFFF" rx="6" ry="6" style="stroke:#000000;stroke-width:1.0;"/><line style="stroke:#000000;stroke-width:1.0;" x1="247" x2="247" y1="72.7373" y2="92.7373"/><polygon fill="#000000" points="243,82.7373,247,92.7373,251,82.7373,247,86.7373" style="stroke:#000000;stroke-width:1.0;"/><line style="stroke:#000000;stroke-width:1.0;" x1="247" x2="247" y1="127.3213" y2="147.3213"/><polygon fill="#000000" points="243,137.3213,247,147.3213,251,137.3213,247,141.3213" style="stroke:#000000;stroke-width:1.0;"/><line style="stroke:#000000;stroke-width:1.0;" x1="247" x2="247" y1="299.5095" y2="371.8218"/><polygon fill="#000000" points="243,361.8218,247,371.8218,251,361.8218,247,365.8218" style="stroke:#000000;stroke-width:1.0;"/><line style="stroke:#000000;stroke-width:1.0;" x1="247" x2="247" y1="406.4058" y2="447.1194"/><polygon fill="#000000" points="243,437.1194,247,447.1194,251,437.1194,247,441.1194" style="stroke:#000000;stroke-width:1.0;"/><line style="stroke:#000000;stroke-width:1.0;" x1="247" x2="247" y1="181.9053" y2="264.9255"/><polygon fill="#000000" points="243,254.9255,247,264.9255,251,254.9255,247,258.9255" style="stroke:#000000;stroke-width:1.0;"/><line style="stroke:#000000;stroke-width:1.0;" x1="247" x2="247" y1="643.2681" y2="663.2681"/><polygon fill="#000000" points="243,653.2681,247,663.2681,251,653.2681,247,657.2681" style="stroke:#000000;stroke-width:1.0;"/><line style="stroke:#000000;stroke-width:1.0;" x1="247" x2="247" y1="812.4653" y2="845.2793"/><polygon fill="#000000" points="243,835.2793,247,845.2793,251,835.2793,247,839.2793" style="stroke:#000000;stroke-width:1.0;"/><line style="stroke:#000000;stroke-width:1.0;" x1="247" x2="247" y1="879.8633" y2="928.4766"/><polygon fill="#000000" points="243,918.4766,247,928.4766,251,918.4766,247,922.4766" style="stroke:#000000;stroke-width:1.0;"/><line style="stroke:#000000;stroke-width:1.0;" x1="247" x2="247" y1="963.0605" y2="1003.7742"/><polygon fill="#000000" points="243,993.7742,247,1003.7742,251,993.7742,247,997.7742" style="stroke:#000000;stroke-width:1.0;"/><line style="stroke:#000000;stroke-width:1.0;" x1="247" x2="247" y1="1038.3582" y2="1069.7651"/><polygon fill="#000000" points="243,1059.7651,247,1069.7651,251,1059.7651,247,1063.7651" style="stroke:#000000;stroke-width:1.0;"/><line style="stroke:#000000;stroke-width:1.0;" x1="247" x2="247" y1="1104.3491" y2="1127.8564"/><polygon fill="#000000" points="243,1117.8564,247,1127.8564,251,1117.8564,247,1121.8564" style="stroke:#000000;stroke-width:1.0;"/><line style="stroke:#000000;stroke-width:1.0;" x1="247" x2="247" y1="1162.4404" y2="1199.4387"/><polygon fill="#000000" points="243,1189.4387,247,1199.4387,251,1189.4387,247,1193.4387" style="stroke:#000000;stroke-width:1.0;"/><line style="stroke:#000000;stroke-width:1.0;" x1="247" x2="247" y1="1234.0227" y2="1257.53"/><polygon fill="#000000" points="243,1247.53,247,1257.53,251,1247.53,247,1251.53" style="stroke:#000000;stroke-width:1.0;"/><line style="stroke:#000000;stroke-width:1.0;" x1="247" x2="247" y1="1292.114" y2="1354.1287"/><polygon fill="#000000" points="243,1344.1287,247,1354.1287,251,1344.1287,247,1348.1287" style="stroke:#000000;stroke-width:1.0;"/><line style="stroke:#000000;stroke-width:1.0;" x1="247" x2="247" y1="697.8521" y2="777.8813"/><polygon fill="#000000" points="243,767.8813,247,777.8813,251,767.8813,247,771.8813" style="stroke:#000000;stroke-width:1.0;"/><line style="stroke:#000000;stroke-width:1.0;" x1="247" x2="247" y1="1388.7126" y2="1497.6563"/><polygon fill="#000000" points="243,1487.6563,247,1497.6563,251,1487.6563,247,1491.6563" style="stroke:#000000;stroke-width:1.0;"/><line style="stroke:#000000;stroke-width:1.0;" x1="247" x2="247" y1="1673.5525" y2="1714.2661"/><polygon fill="#000000" points="243,1704.2661,247,1714.2661,251,1704.2661,247,1708.2661" style="stroke:#000000;stroke-width:1.0;"/><line style="stroke:#000000;stroke-width:1.0;" x1="247" x2="247" y1="1532.2402" y2="1638.9685"/><polygon fill="#000000" points="243,1628.9685,247,1638.9685,251,1628.9685,247,1632.9685" style="stroke:#000000;stroke-width:1.0;"/><line style="stroke:#000000;stroke-width:1.0;" x1="247" x2="247" y1="549.1104" y2="608.6841"/><polygon fill="#000000" points="243,598.6841,247,608.6841,251,598.6841,247,602.6841" style="stroke:#000000;stroke-width:1.0;"/><line style="stroke:#000000;stroke-width:1.0;" x1="304" x2="909.5" y1="537.1104" y2="537.1104"/><polygon fill="#000000" points="905.5,1175.9478,909.5,1185.9478,913.5,1175.9478,909.5,1179.9478" style="stroke:#000000;stroke-width:1.0;"/><line style="stroke:#000000;stroke-width:1.0;" x1="909.5" x2="909.5" y1="537.1104" y2="1804.2571"/><line style="stroke:#000000;stroke-width:1.0;" x1="909.5" x2="259" y1="1804.2571" y2="1804.2571"/><polygon fill="#000000" points="269,1800.2571,259,1804.2571,269,1808.2571,265,1804.2571" style="stroke:#000000;stroke-width:1.0;"/><line style="stroke:#000000;stroke-width:1.0;" x1="247" x2="247" y1="1748.8501" y2="1792.2571"/><polygon fill="#000000" points="243,1782.2571,247,1792.2571,251,1782.2571,247,1786.2571" style="stroke:#000000;stroke-width:1.0;"/><line style="stroke:#000000;stroke-width:1.0;" x1="247" x2="247" y1="481.7034" y2="525.1104"/><polygon fill="#000000" points="243,515.1104,247,525.1104,251,515.1104,247,519.1104" style="stroke:#000000;stroke-width:1.0;"/><line style="stroke:#000000;stroke-width:1.0;" x1="247" x2="247" y1="1816.2571" y2="1836.2571"/><polygon fill="#000000" points="243,1826.2571,247,1836.2571,251,1826.2571,247,1830.2571" style="stroke:#000000;stroke-width:1.0;"/><!--SRC=[lLXBS-964BxhL_JkILInctWtkU0u2GXx5vTv1CbsvKGDKWDJAsPKCwF59EN_dXuaG1ZnTDQwMCZTttH__PJUcGbE4PAOSU4ORcA4ZbHJ5aCz36Kg3BI4HcMWCGS_aNJp0PhCi27J23Und3cEDamPnwbbUhbQfjMOBtHkvT17zPs7-F7w2SFKe5kv98qlQ38bBsPQyn4FcU5Iv5eBcOImkNq8x_s_xi32e09tAAFXuA7_gIqZZ2lluLy7wAfvB8x1xzN02_n13bDsmc33rW7PSRa04D8WA3wUcCLFUxL4afeQ_Ec7J0YCskof5O7RlGzwzq5b9KK86kW80pgJWxwSFQ3IrlAHabFmKcta5DKBGtfCiIaQL9jG0fzEXihzNG7v66D8M46t1nS_qmKAGwaY3RC9AYp2_WvtP7lk8ZrVOTGxpQBSRrVG8SjA1FjeKYLqRM5SAwfcoV95oJIfWiSCZgMQs-S1YKcAORzTXKSkOgcrlMsWyMmigfHtXd_79flhAlHGZMoaH8W1d-Bgj6vgog92VmhMPj514It2klYHPKaVMNI0n9tf4B1XZBLZGt33OmfjRH_LnrFSLH6b_d2-0LVtlPN07Pzo8cKLxtFyN-NZcGnivxFj5XISA_W4RkDllzVj1uExkX_uNhtJkMxskuyRPLI31nQd2EucJI-2-UmuV0JkLwOXp0tHVrI0cfa0Tuuw4oyqZvwI8MgzCbilUqRMDoQf-BP6elx2J3Xf2V93iDZd_o3P_ojHMhbSAoqXkR07KUV16DnVo0P5_Eg2vEgcOC-DL2yQBPswhXDuTmKVBYf58ry0jEUs7xgsqLc6FRJ6RYbiTyMcDx0Sb2Vk86lRbriO9NbGl1PDqaw3LhC6dp_RI6U06LxcQALKTT4ln4ZMuDRlTe0fnUOWH-jWR6bjP7Jn-XyyjwF0MdCo0vJtD10p5yW-dWrDBeo40AV9e8EppODBKMub9TECcuarU9cgG1XZDCj7hUO1LJ_1aDF4AnReqiqbrbB6AyLgC_KDMlhwYMlJgmDVHmCcL77qADplomyDKKzXNdedHwbGTMnPTLB4yr9XIWLgTeheyhnyyERrsMP9miMuF9zP7AOn2HA1YyASC376g5JMfnDQEXkTLfQQpCLRStaUaPdwJ_T9P3qj9Ek1WRYDaTN8Lyeq8XQC7Iu7fU_aU8Va3oNBazCafjbsCbkleiacYPs5jEgI0aQKAA_o-r7nOsmvCoLeSvq1LLcQkOosXUmgbHkESRHS6PlvocXlLdEGxgcnqcYpTsZ2Zs_W-23FnNC9cEIfd2tRUnstgwuKmJp1AYtGK-gwR-SbrT2v7iPKVZkyApNqsTbfSd6XeJTGQ3PADvXUgYUUbviUI2lQRBYLqwSquRoONH3PnajD9J-_LAzXrq7Gj0VMOB4QNZ-jLyDJINW-k1ZcqnbexXHtmgk3E-5RKLWmy1ZwEdAv497WviPQAj-baGo9FMWFy54iFwzVUqxwal2QhmdROs87fMMV5fpjkQ6FVzVAvuNEtw6kzc2VybgsHVMQe-LeE-fjSWyNfxvLRhgmyNY_xnk-F3iOqzhk2bbnw1zyPBzcoSJv3m00]--></g></svg>