<svg xmlns="http://www.w3.org/2000/svg" xmlns:xlink="http://www.w3.org/1999/xlink" contentStyleType="text/css" height="394px" preserveAspectRatio="none" style="width:1193px;height:394px;background:#FFFFFF;" version="1.1" viewBox="0 0 1193 394" width="1193px" zoomAndPan="magnify"><defs/><g><text fill="#000000" font-family="Verdana" font-size="22" font-weight="bold" lengthAdjust="spacing" textLength="694" x="248" y="37.1182">Normal Account Insert By Sport - SP Complete Detailed</text><ellipse cx="477" cy="62.7373" fill="#FFFFFF" rx="10" ry="10" style="stroke:#000000;stroke-width:1.0;"/><path d="M721,89.23 L721,106.0293 L701,110.0293 L721,114.0293 L721,130.8286 A0,0 0 0 0 721,130.8286 L1009,130.8286 A0,0 0 0 0 1009,130.8286 L1009,99.23 L999,89.23 L721,89.23 A0,0 0 0 0 721,89.23 " fill="#FFFFFF" style="stroke:#000000;stroke-width:1.0;"/><path d="M999,89.23 L999,99.23 L1009,99.23 L999,89.23 " fill="#FFFFFF" style="stroke:#000000;stroke-width:1.0;"/><text fill="#000000" font-family="Verdana" font-size="13" lengthAdjust="spacing" textLength="267" x="727" y="107.2998">Database: bodb_VR2Model (SQL Server)</text><text fill="#000000" font-family="Verdana" font-size="13" lengthAdjust="spacing" textLength="155" x="727" y="123.0991">Input: @ScannedMaxId</text><rect fill="#FFFFFF" height="34.584" rx="12.5" ry="12.5" style="stroke:#000000;stroke-width:1.0;" width="448" x="253" y="92.7373"/><text fill="#000000" font-family="Verdana" font-size="12" lengthAdjust="spacing" textLength="428" x="263" y="114.8018">Call SP: CTS_BySportNormalClassification_NormalAccount_Complete</text><polygon fill="#FFFFFF" points="388.5,150.8286,565.5,150.8286,577.5,162.8286,565.5,174.8286,388.5,174.8286,376.5,162.8286,388.5,150.8286" style="stroke:#000000;stroke-width:1.0;"/><text fill="#000000" font-family="Verdana" font-size="11" lengthAdjust="spacing" textLength="177" x="388.5" y="167.2034">@ScannedMaxId IS NOT NULL?</text><text fill="#000000" font-family="Verdana" font-size="11" lengthAdjust="spacing" textLength="20" x="356.5" y="160.519">yes</text><text fill="#000000" font-family="Verdana" font-size="11" lengthAdjust="spacing" textLength="14" x="577.5" y="160.519">no</text><path d="M313,184.8286 L313,217.4272 L293,221.4272 L313,225.4272 L313,258.0259 A0,0 0 0 0 313,258.0259 L737,258.0259 A0,0 0 0 0 737,258.0259 L737,194.8286 L727,184.8286 L313,184.8286 A0,0 0 0 0 313,184.8286 " fill="#FFFFFF" style="stroke:#000000;stroke-width:1.0;"/><path d="M727,184.8286 L727,194.8286 L737,194.8286 L727,184.8286 " fill="#FFFFFF" style="stroke:#000000;stroke-width:1.0;"/><text fill="#000000" font-family="Verdana" font-size="13" lengthAdjust="spacing" textLength="270" x="319" y="202.8984">Table: CustomerClassification_Parameter</text><text fill="#000000" font-family="Verdana" font-size="13" lengthAdjust="spacing" textLength="284" x="319" y="218.6978">DataId = 2 (BYSPORT_LASTSCANNEDROW)</text><text fill="#000000" font-family="Verdana" font-size="13" lengthAdjust="spacing" textLength="403" x="319" y="234.4971">Update: Value = CONVERT(VARCHAR(200), @ScannedMaxId)</text><text fill="#000000" font-family="Verdana" font-size="13" lengthAdjust="spacing" textLength="176" x="319" y="250.2964">Lock: ROWLOCK, UPDLOCK</text><rect fill="#FFFFFF" height="34.584" rx="12.5" ry="12.5" style="stroke:#000000;stroke-width:1.0;" width="287" x="6" y="204.1353"/><text fill="#000000" font-family="Verdana" font-size="12" lengthAdjust="spacing" textLength="267" x="16" y="226.1997">Update CustomerClassification_Parameter</text><path d="M271,274.5186 L271,291.3179 L251,295.3179 L271,299.3179 L271,316.1172 A0,0 0 0 0 271,316.1172 L553,316.1172 A0,0 0 0 0 553,316.1172 L553,284.5186 L543,274.5186 L271,274.5186 A0,0 0 0 0 271,274.5186 " fill="#FFFFFF" style="stroke:#000000;stroke-width:1.0;"/><path d="M543,274.5186 L543,284.5186 L553,284.5186 L543,274.5186 " fill="#FFFFFF" style="stroke:#000000;stroke-width:1.0;"/><text fill="#000000" font-family="Verdana" font-size="13" lengthAdjust="spacing" textLength="228" x="277" y="292.5884">This marks the progress of the job</text><text fill="#000000" font-family="Verdana" font-size="13" lengthAdjust="spacing" textLength="261" x="277" y="308.3877">Next run will start from this RowVersion</text><rect fill="#FFFFFF" height="34.584" rx="12.5" ry="12.5" style="stroke:#000000;stroke-width:1.0;" width="203" x="48" y="278.0259"/><text fill="#000000" font-family="Verdana" font-size="12" lengthAdjust="spacing" textLength="183" x="58" y="300.0903">Set last scanned RowVersion</text><path d="M872,189.2209 L872,198.1206 L852,202.1206 L872,206.1206 L872,215.0203 A0,0 0 0 0 872,215.0203 L1186,215.0203 A0,0 0 0 0 1186,215.0203 L1186,199.2209 L1176,189.2209 L872,189.2209 A0,0 0 0 0 872,189.2209 " fill="#FFFFFF" style="stroke:#000000;stroke-width:1.0;"/><path d="M1176,189.2209 L1176,199.2209 L1186,199.2209 L1176,189.2209 " fill="#FFFFFF" style="stroke:#000000;stroke-width:1.0;"/><text fill="#000000" font-family="Verdana" font-size="13" lengthAdjust="spacing" textLength="293" x="878" y="207.2908">If ScannedMaxId is NULL, no update needed</text><rect fill="#FFFFFF" height="34.584" rx="12.5" ry="12.5" style="stroke:#000000;stroke-width:1.0;" width="95" x="757" y="184.8286"/><text fill="#000000" font-family="Verdana" font-size="12" lengthAdjust="spacing" textLength="75" x="767" y="206.8931">Skip update</text><polygon fill="#FFFFFF" points="477,322.1172,489,334.1172,477,346.1172,465,334.1172,477,322.1172" style="stroke:#000000;stroke-width:1.0;"/><ellipse cx="477" cy="377.1172" fill="none" rx="11" ry="11" style="stroke:#000000;stroke-width:1.0;"/><ellipse cx="477" cy="377.1172" fill="#FFFFFF" rx="6" ry="6" style="stroke:#000000;stroke-width:1.0;"/><line style="stroke:#000000;stroke-width:1.0;" x1="477" x2="477" y1="72.7373" y2="92.7373"/><polygon fill="#000000" points="473,82.7373,477,92.7373,481,82.7373,477,86.7373" style="stroke:#000000;stroke-width:1.0;"/><line style="stroke:#000000;stroke-width:1.0;" x1="149.5" x2="149.5" y1="238.7192" y2="278.0259"/><polygon fill="#000000" points="145.5,268.0259,149.5,278.0259,153.5,268.0259,149.5,272.0259" style="stroke:#000000;stroke-width:1.0;"/><line style="stroke:#000000;stroke-width:1.0;" x1="376.5" x2="149.5" y1="162.8286" y2="162.8286"/><line style="stroke:#000000;stroke-width:1.0;" x1="149.5" x2="149.5" y1="162.8286" y2="204.1353"/><polygon fill="#000000" points="145.5,194.1353,149.5,204.1353,153.5,194.1353,149.5,198.1353" style="stroke:#000000;stroke-width:1.0;"/><line style="stroke:#000000;stroke-width:1.0;" x1="577.5" x2="804.5" y1="162.8286" y2="162.8286"/><line style="stroke:#000000;stroke-width:1.0;" x1="804.5" x2="804.5" y1="162.8286" y2="184.8286"/><polygon fill="#000000" points="800.5,174.8286,804.5,184.8286,808.5,174.8286,804.5,178.8286" style="stroke:#000000;stroke-width:1.0;"/><line style="stroke:#000000;stroke-width:1.0;" x1="149.5" x2="149.5" y1="312.6099" y2="334.1172"/><line style="stroke:#000000;stroke-width:1.0;" x1="149.5" x2="465" y1="334.1172" y2="334.1172"/><polygon fill="#000000" points="455,330.1172,465,334.1172,455,338.1172,459,334.1172" style="stroke:#000000;stroke-width:1.0;"/><line style="stroke:#000000;stroke-width:1.0;" x1="804.5" x2="804.5" y1="219.4126" y2="334.1172"/><line style="stroke:#000000;stroke-width:1.0;" x1="804.5" x2="489" y1="334.1172" y2="334.1172"/><polygon fill="#000000" points="499,330.1172,489,334.1172,499,338.1172,495,334.1172" style="stroke:#000000;stroke-width:1.0;"/><line style="stroke:#000000;stroke-width:1.0;" x1="477" x2="477" y1="127.3213" y2="150.8286"/><polygon fill="#000000" points="473,140.8286,477,150.8286,481,140.8286,477,144.8286" style="stroke:#000000;stroke-width:1.0;"/><line style="stroke:#000000;stroke-width:1.0;" x1="477" x2="477" y1="346.1172" y2="366.1172"/><polygon fill="#000000" points="473,356.1172,477,366.1172,481,356.1172,477,360.1172" style="stroke:#000000;stroke-width:1.0;"/><!--SRC=[XLB1Zjem4BtxArvlGQBIYcDMLGjXfQ9c0ur3gfwG8PF5nR4Zs-akVrydOLcnqge-ZUqtRzwycK_-I0sXLK9gvgLNXCpOHYZC3mVJQO-LTcGz5cVmreJWC_W6YMbQHPwm92-aeeenvuNrZCM9K2f0OYG5totEGz98cIZXdApbGNXfz6vyl9JPlJBUCsq2hvLFHyyGpb9uiHUEOknDjT-L-UpHLAGGyPyfEDc_P2S3SANRpiVunWz2QweUnSkgOgGhz8ICoHhHpHzM7DcwGBPDqwyJ12CqeZEvaItUjfK8GfBEUTEGVIT-8wneWbnxFw3VQUvF8VOgYFvV_XNVznb4VS4CqU8ttwppOfVEUS6JUPOzBFFrhyaLEsgBKGhLKKX9rbdva1THES-Jx_CycjtTJQQtJhmbf-PmYX7uqdNoOuhjPja7m_VLhVuosi398qZtS2CPSlDSadMXYOzRFqg7HjYJwrr5QysJ9UTWwk7-n-olq8nUF6odyIp3sWmxXDgQ9W03nrkjMtca727IvZ8gVf8jki6J3pMjQjmCFx3tWvy6x2KLcgWActnRILUoxfVRjEmV]--></g></svg>