<svg xmlns="http://www.w3.org/2000/svg" xmlns:xlink="http://www.w3.org/1999/xlink" contentStyleType="text/css" height="1579px" preserveAspectRatio="none" style="width:2728px;height:1579px;background:#FFFFFF;" version="1.1" viewBox="0 0 2728 1579" width="2728px" zoomAndPan="magnify"><defs/><g><text fill="#000000" font-family="Verdana" font-size="22" font-weight="bold" lengthAdjust="spacing" textLength="659" x="1038.75" y="37.1182">Normal Account Insert By Sport - Sequence Diagram</text><rect fill="#FFFFFF" height="1300.772" style="stroke:#000000;stroke-width:1.0;" width="10" x="387.5" y="164.5659"/><rect fill="#FFFFFF" height="148.9966" style="stroke:#000000;stroke-width:1.0;" width="10" x="811.5" y="219.1646"/><rect fill="#FFFFFF" height="251.3945" style="stroke:#000000;stroke-width:1.0;" width="10" x="811.5" y="557.957"/><rect fill="#FFFFFF" height="180.7959" style="stroke:#000000;stroke-width:1.0;" width="10" x="811.5" y="1240.7427"/><rect fill="#FFFFFF" height="89.3979" style="stroke:#000000;stroke-width:1.0;" width="10" x="1160.5" y="248.9639"/><rect fill="#FFFFFF" height="89.3979" style="stroke:#000000;stroke-width:1.0;" width="10" x="1160.5" y="1295.3413"/><rect fill="#FFFFFF" height="148.9966" style="stroke:#000000;stroke-width:1.0;" width="10" x="1498.5" y="630.5557"/><rect fill="#FFFFFF" height="89.3979" style="stroke:#000000;stroke-width:1.0;" width="10" x="1889.5" y="660.355"/><rect fill="#FFFFFF" height="89.3979" style="stroke:#000000;stroke-width:1.0;" width="10" x="2194.5" y="906.7495"/><rect fill="#FFFFFF" height="89.3979" style="stroke:#000000;stroke-width:1.0;" width="10" x="2194.5" y="1107.5454"/><rect fill="#FFFFFF" height="29.7993" style="stroke:#000000;stroke-width:1.0;" width="10" x="2382.5" y="278.7632"/><rect fill="#FFFFFF" height="29.7993" style="stroke:#000000;stroke-width:1.0;" width="10" x="2382.5" y="1325.1406"/><rect fill="#FFFFFF" height="29.7993" style="stroke:#000000;stroke-width:1.0;" width="10" x="2526.5" y="690.1543"/><rect fill="#FFFFFF" height="29.7993" style="stroke:#000000;stroke-width:1.0;" width="10" x="2636" y="936.5488"/><rect fill="#FFFFFF" height="29.7993" style="stroke:#000000;stroke-width:1.0;" width="10" x="2636" y="1137.3447"/><rect fill="#FFFFFF" height="1256.9727" style="stroke:#000000;stroke-width:1.0;" width="2537" x="185.5" y="179.5659"/><rect fill="#FFFFFF" height="1046.3774" style="stroke:#000000;stroke-width:1.0;" width="2517" x="195.5" y="383.1611"/><rect fill="#FFFFFF" height="718.3843" style="stroke:#000000;stroke-width:1.0;" width="2497" x="205.5" y="493.5591"/><rect fill="#FFFFFF" height="492.7891" style="stroke:#000000;stroke-width:1.0;" width="2477" x="215.5" y="518.3584"/><rect fill="#FFFFFF" height="179.7959" style="stroke:#000000;stroke-width:1.0;" width="2457" x="225.5" y="824.3516"/><rect fill="#FFFFFF" height="179.7959" style="stroke:#000000;stroke-width:1.0;" width="2457" x="225.5" y="1025.1475"/><rect fill="#FFFFFF" height="136.9966" style="stroke:#000000;stroke-width:1.0;" width="1802" x="661.5" y="1255.7427"/><line style="stroke:#000000;stroke-width:1.0;" x1="59" x2="59" y1="132.7666" y2="1483.3379"/><line style="stroke:#000000;stroke-width:1.0;" x1="392.5" x2="392.5" y1="132.7666" y2="1483.3379"/><line style="stroke:#000000;stroke-width:1.0;" x1="816.5" x2="816.5" y1="132.7666" y2="1483.3379"/><line style="stroke:#000000;stroke-width:1.0;" x1="1165" x2="1165" y1="132.7666" y2="1483.3379"/><line style="stroke:#000000;stroke-width:1.0;" x1="1503" x2="1503" y1="132.7666" y2="1483.3379"/><line style="stroke:#000000;stroke-width:1.0;" x1="1894.5" x2="1894.5" y1="132.7666" y2="1483.3379"/><line style="stroke:#000000;stroke-width:1.0;" x1="2199.5" x2="2199.5" y1="132.7666" y2="1483.3379"/><line style="stroke:#000000;stroke-width:1.0;" x1="2387.5" x2="2387.5" y1="132.7666" y2="1483.3379"/><line style="stroke:#000000;stroke-width:1.0;" x1="2531.5" x2="2531.5" y1="132.7666" y2="1483.3379"/><line style="stroke:#000000;stroke-width:1.0;" x1="2640.5" x2="2640.5" y1="132.7666" y2="1483.3379"/><text fill="#000000" font-family="Verdana" font-size="14" lengthAdjust="spacing" textLength="93" x="10" y="129.8271">JobScheduler</text><ellipse cx="59.5" cy="63.752" fill="#FFFFFF" rx="8" ry="8" style="stroke:#000000;stroke-width:1.0;"/><path d="M59.5,71.752 L59.5,98.752 M46.5,79.752 L72.5,79.752 M59.5,98.752 L46.5,113.752 M59.5,98.752 L72.5,113.752 " fill="none" style="stroke:#000000;stroke-width:1.0;"/><text fill="#000000" font-family="Verdana" font-size="14" lengthAdjust="spacing" textLength="93" x="10" y="1496.4131">JobScheduler</text><ellipse cx="59.5" cy="1508.3525" fill="#FFFFFF" rx="8" ry="8" style="stroke:#000000;stroke-width:1.0;"/><path d="M59.5,1516.3525 L59.5,1543.3525 M46.5,1524.3525 L72.5,1524.3525 M59.5,1543.3525 L46.5,1558.3525 M59.5,1543.3525 L72.5,1558.3525 " fill="none" style="stroke:#000000;stroke-width:1.0;"/><rect fill="#FFFFFF" height="31.0146" rx="2.5" ry="2.5" style="stroke:#000000;stroke-width:1.0;" width="294" x="245.5" y="100.752"/><text fill="#000000" font-family="Verdana" font-size="14" lengthAdjust="spacing" textLength="280" x="252.5" y="121.8271">NormalAccountInsertBySportJobService</text><rect fill="#FFFFFF" height="31.0146" rx="2.5" ry="2.5" style="stroke:#000000;stroke-width:1.0;" width="294" x="245.5" y="1482.3379"/><text fill="#000000" font-family="Verdana" font-size="14" lengthAdjust="spacing" textLength="280" x="252.5" y="1503.4131">NormalAccountInsertBySportJobService</text><rect fill="#FFFFFF" height="31.0146" rx="2.5" ry="2.5" style="stroke:#000000;stroke-width:1.0;" width="270" x="681.5" y="100.752"/><text fill="#000000" font-family="Verdana" font-size="14" lengthAdjust="spacing" textLength="256" x="688.5" y="121.8271">NormalAccountInsertBySportService</text><rect fill="#FFFFFF" height="31.0146" rx="2.5" ry="2.5" style="stroke:#000000;stroke-width:1.0;" width="270" x="681.5" y="1482.3379"/><text fill="#000000" font-family="Verdana" font-size="14" lengthAdjust="spacing" textLength="256" x="688.5" y="1503.4131">NormalAccountInsertBySportService</text><rect fill="#FFFFFF" height="31.0146" rx="2.5" ry="2.5" style="stroke:#000000;stroke-width:1.0;" width="301" x="1015" y="100.752"/><text fill="#000000" font-family="Verdana" font-size="14" lengthAdjust="spacing" textLength="287" x="1022" y="121.8271">NormalAccountInsertBySportDataAccess</text><rect fill="#FFFFFF" height="31.0146" rx="2.5" ry="2.5" style="stroke:#000000;stroke-width:1.0;" width="301" x="1015" y="1482.3379"/><text fill="#000000" font-family="Verdana" font-size="14" lengthAdjust="spacing" textLength="287" x="1022" y="1503.4131">NormalAccountInsertBySportDataAccess</text><rect fill="#FFFFFF" height="31.0146" rx="2.5" ry="2.5" style="stroke:#000000;stroke-width:1.0;" width="315" x="1346" y="100.752"/><text fill="#000000" font-family="Verdana" font-size="14" lengthAdjust="spacing" textLength="301" x="1353" y="121.8271">BaseCustomerClassificationBySportService</text><rect fill="#FFFFFF" height="31.0146" rx="2.5" ry="2.5" style="stroke:#000000;stroke-width:1.0;" width="315" x="1346" y="1482.3379"/><text fill="#000000" font-family="Verdana" font-size="14" lengthAdjust="spacing" textLength="301" x="1353" y="1503.4131">BaseCustomerClassificationBySportService</text><rect fill="#FFFFFF" height="31.0146" rx="2.5" ry="2.5" style="stroke:#000000;stroke-width:1.0;" width="346" x="1721.5" y="100.752"/><text fill="#000000" font-family="Verdana" font-size="14" lengthAdjust="spacing" textLength="332" x="1728.5" y="121.8271">BaseCustomerClassificationBySportDataAccess</text><rect fill="#FFFFFF" height="31.0146" rx="2.5" ry="2.5" style="stroke:#000000;stroke-width:1.0;" width="346" x="1721.5" y="1482.3379"/><text fill="#000000" font-family="Verdana" font-size="14" lengthAdjust="spacing" textLength="332" x="1728.5" y="1503.4131">BaseCustomerClassificationBySportDataAccess</text><rect fill="#FFFFFF" height="31.0146" rx="2.5" ry="2.5" style="stroke:#000000;stroke-width:1.0;" width="204" x="2097.5" y="100.752"/><text fill="#000000" font-family="Verdana" font-size="14" lengthAdjust="spacing" textLength="190" x="2104.5" y="121.8271">CustClassToMainDBService</text><rect fill="#FFFFFF" height="31.0146" rx="2.5" ry="2.5" style="stroke:#000000;stroke-width:1.0;" width="204" x="2097.5" y="1482.3379"/><text fill="#000000" font-family="Verdana" font-size="14" lengthAdjust="spacing" textLength="190" x="2104.5" y="1503.4131">CustClassToMainDBService</text><text fill="#000000" font-family="Verdana" font-size="14" lengthAdjust="spacing" textLength="80" x="2344.5" y="112.8125">SQL Server</text><text fill="#000000" font-family="Verdana" font-size="14" lengthAdjust="spacing" textLength="126" x="2321.5" y="129.8271">(bodb_VR2Model)</text><path d="M2369.5,62.7373 C2369.5,52.7373 2387.5,52.7373 2387.5,52.7373 C2387.5,52.7373 2405.5,52.7373 2405.5,62.7373 L2405.5,88.7373 C2405.5,98.7373 2387.5,98.7373 2387.5,98.7373 C2387.5,98.7373 2369.5,98.7373 2369.5,88.7373 L2369.5,62.7373 " fill="#FFFFFF" style="stroke:#000000;stroke-width:1.5;"/><path d="M2369.5,62.7373 C2369.5,72.7373 2387.5,72.7373 2387.5,72.7373 C2387.5,72.7373 2405.5,72.7373 2405.5,62.7373 " fill="none" style="stroke:#000000;stroke-width:1.5;"/><text fill="#000000" font-family="Verdana" font-size="14" lengthAdjust="spacing" textLength="80" x="2344.5" y="1496.4131">SQL Server</text><text fill="#000000" font-family="Verdana" font-size="14" lengthAdjust="spacing" textLength="126" x="2321.5" y="1513.4277">(bodb_VR2Model)</text><path d="M2369.5,1526.3672 C2369.5,1516.3672 2387.5,1516.3672 2387.5,1516.3672 C2387.5,1516.3672 2405.5,1516.3672 2405.5,1526.3672 L2405.5,1552.3672 C2405.5,1562.3672 2387.5,1562.3672 2387.5,1562.3672 C2387.5,1562.3672 2369.5,1562.3672 2369.5,1552.3672 L2369.5,1526.3672 " fill="#FFFFFF" style="stroke:#000000;stroke-width:1.5;"/><path d="M2369.5,1526.3672 C2369.5,1536.3672 2387.5,1536.3672 2387.5,1536.3672 C2387.5,1536.3672 2405.5,1536.3672 2405.5,1526.3672 " fill="none" style="stroke:#000000;stroke-width:1.5;"/><text fill="#000000" font-family="Verdana" font-size="14" lengthAdjust="spacing" textLength="48" x="2504.5" y="112.8125">MySQL</text><text fill="#000000" font-family="Verdana" font-size="14" lengthAdjust="spacing" textLength="130" x="2463.5" y="129.8271">(CTS_DataCenter)</text><path d="M2513.5,62.7373 C2513.5,52.7373 2531.5,52.7373 2531.5,52.7373 C2531.5,52.7373 2549.5,52.7373 2549.5,62.7373 L2549.5,88.7373 C2549.5,98.7373 2531.5,98.7373 2531.5,98.7373 C2531.5,98.7373 2513.5,98.7373 2513.5,88.7373 L2513.5,62.7373 " fill="#FFFFFF" style="stroke:#000000;stroke-width:1.5;"/><path d="M2513.5,62.7373 C2513.5,72.7373 2531.5,72.7373 2531.5,72.7373 C2531.5,72.7373 2549.5,72.7373 2549.5,62.7373 " fill="none" style="stroke:#000000;stroke-width:1.5;"/><text fill="#000000" font-family="Verdana" font-size="14" lengthAdjust="spacing" textLength="48" x="2504.5" y="1496.4131">MySQL</text><text fill="#000000" font-family="Verdana" font-size="14" lengthAdjust="spacing" textLength="130" x="2463.5" y="1513.4277">(CTS_DataCenter)</text><path d="M2513.5,1526.3672 C2513.5,1516.3672 2531.5,1516.3672 2531.5,1516.3672 C2531.5,1516.3672 2549.5,1516.3672 2549.5,1526.3672 L2549.5,1552.3672 C2549.5,1562.3672 2531.5,1562.3672 2531.5,1562.3672 C2531.5,1562.3672 2513.5,1562.3672 2513.5,1552.3672 L2513.5,1526.3672 " fill="#FFFFFF" style="stroke:#000000;stroke-width:1.5;"/><path d="M2513.5,1526.3672 C2513.5,1536.3672 2531.5,1536.3672 2531.5,1536.3672 C2531.5,1536.3672 2549.5,1536.3672 2549.5,1526.3672 " fill="none" style="stroke:#000000;stroke-width:1.5;"/><text fill="#000000" font-family="Verdana" font-size="14" lengthAdjust="spacing" textLength="57" x="2609.5" y="129.8271">Main DB</text><path d="M2623,79.752 C2623,69.752 2641,69.752 2641,69.752 C2641,69.752 2659,69.752 2659,79.752 L2659,105.752 C2659,115.752 2641,115.752 2641,115.752 C2641,115.752 2623,115.752 2623,105.752 L2623,79.752 " fill="#FFFFFF" style="stroke:#000000;stroke-width:1.5;"/><path d="M2623,79.752 C2623,89.752 2641,89.752 2641,89.752 C2641,89.752 2659,89.752 2659,79.752 " fill="none" style="stroke:#000000;stroke-width:1.5;"/><text fill="#000000" font-family="Verdana" font-size="14" lengthAdjust="spacing" textLength="57" x="2609.5" y="1496.4131">Main DB</text><path d="M2623,1509.3525 C2623,1499.3525 2641,1499.3525 2641,1499.3525 C2641,1499.3525 2659,1499.3525 2659,1509.3525 L2659,1535.3525 C2659,1545.3525 2641,1545.3525 2641,1545.3525 C2641,1545.3525 2623,1545.3525 2623,1535.3525 L2623,1509.3525 " fill="#FFFFFF" style="stroke:#000000;stroke-width:1.5;"/><path d="M2623,1509.3525 C2623,1519.3525 2641,1519.3525 2641,1519.3525 C2641,1519.3525 2659,1519.3525 2659,1509.3525 " fill="none" style="stroke:#000000;stroke-width:1.5;"/><rect fill="#FFFFFF" height="1300.772" style="stroke:#000000;stroke-width:1.0;" width="10" x="387.5" y="164.5659"/><rect fill="#FFFFFF" height="148.9966" style="stroke:#000000;stroke-width:1.0;" width="10" x="811.5" y="219.1646"/><rect fill="#FFFFFF" height="251.3945" style="stroke:#000000;stroke-width:1.0;" width="10" x="811.5" y="557.957"/><rect fill="#FFFFFF" height="180.7959" style="stroke:#000000;stroke-width:1.0;" width="10" x="811.5" y="1240.7427"/><rect fill="#FFFFFF" height="89.3979" style="stroke:#000000;stroke-width:1.0;" width="10" x="1160.5" y="248.9639"/><rect fill="#FFFFFF" height="89.3979" style="stroke:#000000;stroke-width:1.0;" width="10" x="1160.5" y="1295.3413"/><rect fill="#FFFFFF" height="148.9966" style="stroke:#000000;stroke-width:1.0;" width="10" x="1498.5" y="630.5557"/><rect fill="#FFFFFF" height="89.3979" style="stroke:#000000;stroke-width:1.0;" width="10" x="1889.5" y="660.355"/><rect fill="#FFFFFF" height="89.3979" style="stroke:#000000;stroke-width:1.0;" width="10" x="2194.5" y="906.7495"/><rect fill="#FFFFFF" height="89.3979" style="stroke:#000000;stroke-width:1.0;" width="10" x="2194.5" y="1107.5454"/><rect fill="#FFFFFF" height="29.7993" style="stroke:#000000;stroke-width:1.0;" width="10" x="2382.5" y="278.7632"/><rect fill="#FFFFFF" height="29.7993" style="stroke:#000000;stroke-width:1.0;" width="10" x="2382.5" y="1325.1406"/><rect fill="#FFFFFF" height="29.7993" style="stroke:#000000;stroke-width:1.0;" width="10" x="2526.5" y="690.1543"/><rect fill="#FFFFFF" height="29.7993" style="stroke:#000000;stroke-width:1.0;" width="10" x="2636" y="936.5488"/><rect fill="#FFFFFF" height="29.7993" style="stroke:#000000;stroke-width:1.0;" width="10" x="2636" y="1137.3447"/><polygon fill="#000000" points="375.5,160.5659,385.5,164.5659,375.5,168.5659,379.5,164.5659" style="stroke:#000000;stroke-width:1.0;"/><line style="stroke:#000000;stroke-width:1.0;" x1="59.5" x2="381.5" y1="164.5659" y2="164.5659"/><text fill="#000000" font-family="Verdana" font-size="13" lengthAdjust="spacing" textLength="309" x="66.5" y="159.8364">Execute(batchExternalSize, batchInternalSize)</text><path d="M185.5,179.5659 L261.5,179.5659 L261.5,187.3652 L251.5,197.3652 L185.5,197.3652 L185.5,179.5659 " fill="#FFFFFF" style="stroke:#000000;stroke-width:1.0;"/><rect fill="none" height="1256.9727" style="stroke:#000000;stroke-width:1.0;" width="2537" x="185.5" y="179.5659"/><text fill="#000000" font-family="Verdana" font-size="13" font-weight="bold" lengthAdjust="spacing" textLength="31" x="200.5" y="193.6357">loop</text><text fill="#000000" font-family="Verdana" font-size="11" font-weight="bold" lengthAdjust="spacing" textLength="152" x="276.5" y="192.625">[do-while (isContinue)]</text><polygon fill="#000000" points="799.5,215.1646,809.5,219.1646,799.5,223.1646,803.5,219.1646" style="stroke:#000000;stroke-width:1.0;"/><line style="stroke:#000000;stroke-width:1.0;" x1="397.5" x2="805.5" y1="219.1646" y2="219.1646"/><text fill="#000000" font-family="Verdana" font-size="13" lengthAdjust="spacing" textLength="217" x="404.5" y="214.4351">GetNormalClassificationBySport()</text><polygon fill="#000000" points="1148.5,244.9639,1158.5,248.9639,1148.5,252.9639,1152.5,248.9639" style="stroke:#000000;stroke-width:1.0;"/><line style="stroke:#000000;stroke-width:1.0;" x1="821.5" x2="1154.5" y1="248.9639" y2="248.9639"/><text fill="#000000" font-family="Verdana" font-size="13" lengthAdjust="spacing" textLength="213" x="828.5" y="244.2344">GetNormalClasificationAccount()</text><polygon fill="#000000" points="2370.5,274.7632,2380.5,278.7632,2370.5,282.7632,2374.5,278.7632" style="stroke:#000000;stroke-width:1.0;"/><line style="stroke:#000000;stroke-width:1.0;" x1="1170.5" x2="2376.5" y1="278.7632" y2="278.7632"/><text fill="#000000" font-family="Verdana" font-size="13" lengthAdjust="spacing" textLength="355" x="1177.5" y="274.0337">CTS_BySportNormalClassification_NormalAccount_Get</text><polygon fill="#000000" points="1181.5,304.5625,1171.5,308.5625,1181.5,312.5625,1177.5,308.5625" style="stroke:#000000;stroke-width:1.0;"/><line style="stroke:#000000;stroke-width:1.0;stroke-dasharray:2.0,2.0;" x1="1175.5" x2="2386.5" y1="308.5625" y2="308.5625"/><text fill="#000000" font-family="Verdana" font-size="13" lengthAdjust="spacing" textLength="229" x="1187.5" y="303.833">NormalAccount list, ScannedMaxId</text><polygon fill="#000000" points="832.5,334.3618,822.5,338.3618,832.5,342.3618,828.5,338.3618" style="stroke:#000000;stroke-width:1.0;"/><line style="stroke:#000000;stroke-width:1.0;stroke-dasharray:2.0,2.0;" x1="826.5" x2="1164.5" y1="338.3618" y2="338.3618"/><text fill="#000000" font-family="Verdana" font-size="13" lengthAdjust="spacing" textLength="212" x="838.5" y="333.6323">GetNormalAccountBySportModel</text><polygon fill="#000000" points="408.5,364.1611,398.5,368.1611,408.5,372.1611,404.5,368.1611" style="stroke:#000000;stroke-width:1.0;"/><line style="stroke:#000000;stroke-width:1.0;stroke-dasharray:2.0,2.0;" x1="402.5" x2="815.5" y1="368.1611" y2="368.1611"/><text fill="#000000" font-family="Verdana" font-size="13" lengthAdjust="spacing" textLength="120" x="414.5" y="363.4316">newClassifications</text><path d="M195.5,383.1611 L259.5,383.1611 L259.5,390.9604 L249.5,400.9604 L195.5,400.9604 L195.5,383.1611 " fill="#FFFFFF" style="stroke:#000000;stroke-width:1.0;"/><rect fill="none" height="1046.3774" style="stroke:#000000;stroke-width:1.0;" width="2517" x="195.5" y="383.1611"/><text fill="#000000" font-family="Verdana" font-size="13" font-weight="bold" lengthAdjust="spacing" textLength="19" x="210.5" y="397.231">alt</text><text fill="#000000" font-family="Verdana" font-size="11" font-weight="bold" lengthAdjust="spacing" textLength="139" x="274.5" y="396.2202">[Has NormalAccount]</text><line style="stroke:#000000;stroke-width:1.0;" x1="397.5" x2="439.5" y1="422.7598" y2="422.7598"/><line style="stroke:#000000;stroke-width:1.0;" x1="439.5" x2="439.5" y1="422.7598" y2="435.7598"/><line style="stroke:#000000;stroke-width:1.0;" x1="398.5" x2="439.5" y1="435.7598" y2="435.7598"/><polygon fill="#000000" points="408.5,431.7598,398.5,435.7598,408.5,439.7598,404.5,435.7598" style="stroke:#000000;stroke-width:1.0;"/><text fill="#000000" font-family="Verdana" font-size="13" lengthAdjust="spacing" textLength="246" x="404.5" y="418.0303">Chunk customers (batchInternalSize)</text><line style="stroke:#000000;stroke-width:1.0;" x1="397.5" x2="439.5" y1="465.5591" y2="465.5591"/><line style="stroke:#000000;stroke-width:1.0;" x1="439.5" x2="439.5" y1="465.5591" y2="478.5591"/><line style="stroke:#000000;stroke-width:1.0;" x1="398.5" x2="439.5" y1="478.5591" y2="478.5591"/><polygon fill="#000000" points="408.5,474.5591,398.5,478.5591,408.5,482.5591,404.5,478.5591" style="stroke:#000000;stroke-width:1.0;"/><text fill="#000000" font-family="Verdana" font-size="13" lengthAdjust="spacing" textLength="249" x="404.5" y="460.8296">Process chunks in parallel (4 threads)</text><path d="M205.5,493.5591 L274.5,493.5591 L274.5,501.3584 L264.5,511.3584 L205.5,511.3584 L205.5,493.5591 " fill="#FFFFFF" style="stroke:#000000;stroke-width:1.0;"/><rect fill="none" height="718.3843" style="stroke:#000000;stroke-width:1.0;" width="2497" x="205.5" y="493.5591"/><text fill="#000000" font-family="Verdana" font-size="13" font-weight="bold" lengthAdjust="spacing" textLength="24" x="220.5" y="507.6289">par</text><text fill="#000000" font-family="Verdana" font-size="11" font-weight="bold" lengthAdjust="spacing" textLength="113" x="289.5" y="506.6182">[For Each Chunk]</text><path d="M215.5,518.3584 L279.5,518.3584 L279.5,526.1577 L269.5,536.1577 L215.5,536.1577 L215.5,518.3584 " fill="#FFFFFF" style="stroke:#000000;stroke-width:1.0;"/><rect fill="none" height="492.7891" style="stroke:#000000;stroke-width:1.0;" width="2477" x="215.5" y="518.3584"/><text fill="#000000" font-family="Verdana" font-size="13" font-weight="bold" lengthAdjust="spacing" textLength="19" x="230.5" y="532.4282">alt</text><text fill="#000000" font-family="Verdana" font-size="11" font-weight="bold" lengthAdjust="spacing" textLength="246" x="294.5" y="531.4175">[CategoryId != -1 (Normal Accounts)]</text><polygon fill="#000000" points="799.5,553.957,809.5,557.957,799.5,561.957,803.5,557.957" style="stroke:#000000;stroke-width:1.0;"/><line style="stroke:#000000;stroke-width:1.0;" x1="397.5" x2="805.5" y1="557.957" y2="557.957"/><text fill="#000000" font-family="Verdana" font-size="13" lengthAdjust="spacing" textLength="362" x="404.5" y="553.2275">InsertNormalClassificationBySport(custs, serviceName)</text><line style="stroke:#000000;stroke-width:1.0;" x1="821.5" x2="863.5" y1="587.7563" y2="587.7563"/><line style="stroke:#000000;stroke-width:1.0;" x1="863.5" x2="863.5" y1="587.7563" y2="600.7563"/><line style="stroke:#000000;stroke-width:1.0;" x1="822.5" x2="863.5" y1="600.7563" y2="600.7563"/><polygon fill="#000000" points="832.5,596.7563,822.5,600.7563,832.5,604.7563,828.5,600.7563" style="stroke:#000000;stroke-width:1.0;"/><text fill="#000000" font-family="Verdana" font-size="13" lengthAdjust="spacing" textLength="112" x="828.5" y="583.0269">Serialize to JSON</text><polygon fill="#000000" points="1486.5,626.5557,1496.5,630.5557,1486.5,634.5557,1490.5,630.5557" style="stroke:#000000;stroke-width:1.0;"/><line style="stroke:#000000;stroke-width:1.0;" x1="821.5" x2="1492.5" y1="630.5557" y2="630.5557"/><text fill="#000000" font-family="Verdana" font-size="13" lengthAdjust="spacing" textLength="527" x="828.5" y="625.8262">InsertCustomerClassificationBySport(BySportInsertNormal, model, serviceName)</text><polygon fill="#000000" points="1877.5,656.355,1887.5,660.355,1877.5,664.355,1881.5,660.355" style="stroke:#000000;stroke-width:1.0;"/><line style="stroke:#000000;stroke-width:1.0;" x1="1508.5" x2="1883.5" y1="660.355" y2="660.355"/><text fill="#000000" font-family="Verdana" font-size="13" lengthAdjust="spacing" textLength="362" x="1515.5" y="655.6255">InsertCustomerClassificationBySport(inputFlow, model)</text><polygon fill="#000000" points="2514.5,686.1543,2524.5,690.1543,2514.5,694.1543,2518.5,690.1543" style="stroke:#000000;stroke-width:1.0;"/><line style="stroke:#000000;stroke-width:1.0;" x1="1899.5" x2="2520.5" y1="690.1543" y2="690.1543"/><text fill="#000000" font-family="Verdana" font-size="13" lengthAdjust="spacing" textLength="284" x="1906.5" y="685.4248">CTS_DC_CustClassification_BySport_Insert</text><polygon fill="#000000" points="1910.5,715.9536,1900.5,719.9536,1910.5,723.9536,1906.5,719.9536" style="stroke:#000000;stroke-width:1.0;"/><line style="stroke:#000000;stroke-width:1.0;stroke-dasharray:2.0,2.0;" x1="1904.5" x2="2530.5" y1="719.9536" y2="719.9536"/><text fill="#000000" font-family="Verdana" font-size="13" lengthAdjust="spacing" textLength="161" x="1916.5" y="715.2241">CustInfos, ErrorMessage</text><polygon fill="#000000" points="1519.5,745.7529,1509.5,749.7529,1519.5,753.7529,1515.5,749.7529" style="stroke:#000000;stroke-width:1.0;"/><line style="stroke:#000000;stroke-width:1.0;stroke-dasharray:2.0,2.0;" x1="1513.5" x2="1893.5" y1="749.7529" y2="749.7529"/><text fill="#000000" font-family="Verdana" font-size="13" lengthAdjust="spacing" textLength="255" x="1525.5" y="745.0234">ResultInsertClassificationBySportModel</text><polygon fill="#000000" points="832.5,775.5522,822.5,779.5522,832.5,783.5522,828.5,779.5522" style="stroke:#000000;stroke-width:1.0;"/><line style="stroke:#000000;stroke-width:1.0;stroke-dasharray:2.0,2.0;" x1="826.5" x2="1502.5" y1="779.5522" y2="779.5522"/><text fill="#000000" font-family="Verdana" font-size="13" lengthAdjust="spacing" textLength="37" x="838.5" y="774.8228">result</text><polygon fill="#000000" points="408.5,805.3516,398.5,809.3516,408.5,813.3516,404.5,809.3516" style="stroke:#000000;stroke-width:1.0;"/><line style="stroke:#000000;stroke-width:1.0;stroke-dasharray:2.0,2.0;" x1="402.5" x2="815.5" y1="809.3516" y2="809.3516"/><text fill="#000000" font-family="Verdana" font-size="13" lengthAdjust="spacing" textLength="175" x="414.5" y="804.6221">resultInsertNormalAccount</text><path d="M225.5,824.3516 L289.5,824.3516 L289.5,832.1509 L279.5,842.1509 L225.5,842.1509 L225.5,824.3516 " fill="#FFFFFF" style="stroke:#000000;stroke-width:1.0;"/><rect fill="none" height="179.7959" style="stroke:#000000;stroke-width:1.0;" width="2457" x="225.5" y="824.3516"/><text fill="#000000" font-family="Verdana" font-size="13" font-weight="bold" lengthAdjust="spacing" textLength="19" x="240.5" y="838.4214">alt</text><text fill="#000000" font-family="Verdana" font-size="11" font-weight="bold" lengthAdjust="spacing" textLength="108" x="304.5" y="837.4106">[Insert Success]</text><line style="stroke:#000000;stroke-width:1.0;" x1="397.5" x2="439.5" y1="863.9502" y2="863.9502"/><line style="stroke:#000000;stroke-width:1.0;" x1="439.5" x2="439.5" y1="863.9502" y2="876.9502"/><line style="stroke:#000000;stroke-width:1.0;" x1="398.5" x2="439.5" y1="876.9502" y2="876.9502"/><polygon fill="#000000" points="408.5,872.9502,398.5,876.9502,408.5,880.9502,404.5,876.9502" style="stroke:#000000;stroke-width:1.0;"/><text fill="#000000" font-family="Verdana" font-size="13" lengthAdjust="spacing" textLength="323" x="404.5" y="859.2207">Transform to InsertNormalAccountCustInfoEntity</text><polygon fill="#000000" points="2182.5,902.7495,2192.5,906.7495,2182.5,910.7495,2186.5,906.7495" style="stroke:#000000;stroke-width:1.0;"/><line style="stroke:#000000;stroke-width:1.0;" x1="397.5" x2="2188.5" y1="906.7495" y2="906.7495"/><text fill="#000000" font-family="Verdana" font-size="13" lengthAdjust="spacing" textLength="447" x="404.5" y="902.02">PushCCBySportToMainDB(pushCC, serviceName, batchExternalSize)</text><polygon fill="#000000" points="2624,932.5488,2634,936.5488,2624,940.5488,2628,936.5488" style="stroke:#000000;stroke-width:1.0;"/><line style="stroke:#000000;stroke-width:1.0;" x1="2204.5" x2="2630" y1="936.5488" y2="936.5488"/><text fill="#000000" font-family="Verdana" font-size="13" lengthAdjust="spacing" textLength="156" x="2211.5" y="931.8193">Push classification data</text><polygon fill="#000000" points="2215.5,962.3481,2205.5,966.3481,2215.5,970.3481,2211.5,966.3481" style="stroke:#000000;stroke-width:1.0;"/><line style="stroke:#000000;stroke-width:1.0;stroke-dasharray:2.0,2.0;" x1="2209.5" x2="2640" y1="966.3481" y2="966.3481"/><text fill="#000000" font-family="Verdana" font-size="13" lengthAdjust="spacing" textLength="55" x="2221.5" y="961.6187">Success</text><polygon fill="#000000" points="408.5,992.1475,398.5,996.1475,408.5,1000.1475,404.5,996.1475" style="stroke:#000000;stroke-width:1.0;"/><line style="stroke:#000000;stroke-width:1.0;stroke-dasharray:2.0,2.0;" x1="402.5" x2="2198.5" y1="996.1475" y2="996.1475"/><text fill="#000000" font-family="Verdana" font-size="13" lengthAdjust="spacing" textLength="55" x="414.5" y="991.418">Success</text><path d="M225.5,1025.1475 L289.5,1025.1475 L289.5,1032.9468 L279.5,1042.9468 L225.5,1042.9468 L225.5,1025.1475 " fill="#FFFFFF" style="stroke:#000000;stroke-width:1.0;"/><rect fill="none" height="179.7959" style="stroke:#000000;stroke-width:1.0;" width="2457" x="225.5" y="1025.1475"/><text fill="#000000" font-family="Verdana" font-size="13" font-weight="bold" lengthAdjust="spacing" textLength="19" x="240.5" y="1039.2173">alt</text><text fill="#000000" font-family="Verdana" font-size="11" font-weight="bold" lengthAdjust="spacing" textLength="208" x="304.5" y="1038.2065">[CategoryId == -1 (Special CC)]</text><line style="stroke:#000000;stroke-width:1.0;" x1="397.5" x2="439.5" y1="1064.7461" y2="1064.7461"/><line style="stroke:#000000;stroke-width:1.0;" x1="439.5" x2="439.5" y1="1064.7461" y2="1077.7461"/><line style="stroke:#000000;stroke-width:1.0;" x1="398.5" x2="439.5" y1="1077.7461" y2="1077.7461"/><polygon fill="#000000" points="408.5,1073.7461,398.5,1077.7461,408.5,1081.7461,404.5,1077.7461" style="stroke:#000000;stroke-width:1.0;"/><text fill="#000000" font-family="Verdana" font-size="13" lengthAdjust="spacing" textLength="323" x="404.5" y="1060.0166">Transform to InsertNormalAccountCustInfoEntity</text><polygon fill="#000000" points="2182.5,1103.5454,2192.5,1107.5454,2182.5,1111.5454,2186.5,1107.5454" style="stroke:#000000;stroke-width:1.0;"/><line style="stroke:#000000;stroke-width:1.0;" x1="397.5" x2="2188.5" y1="1107.5454" y2="1107.5454"/><text fill="#000000" font-family="Verdana" font-size="13" lengthAdjust="spacing" textLength="535" x="404.5" y="1102.8159">PushCCBySportToMainDB(pushCCListSpecialCC, serviceName, batchExternalSize)</text><polygon fill="#000000" points="2624,1133.3447,2634,1137.3447,2624,1141.3447,2628,1137.3447" style="stroke:#000000;stroke-width:1.0;"/><line style="stroke:#000000;stroke-width:1.0;" x1="2204.5" x2="2630" y1="1137.3447" y2="1137.3447"/><text fill="#000000" font-family="Verdana" font-size="13" lengthAdjust="spacing" textLength="141" x="2211.5" y="1132.6152">Push Special CC data</text><polygon fill="#000000" points="2215.5,1163.144,2205.5,1167.144,2215.5,1171.144,2211.5,1167.144" style="stroke:#000000;stroke-width:1.0;"/><line style="stroke:#000000;stroke-width:1.0;stroke-dasharray:2.0,2.0;" x1="2209.5" x2="2640" y1="1167.144" y2="1167.144"/><text fill="#000000" font-family="Verdana" font-size="13" lengthAdjust="spacing" textLength="55" x="2221.5" y="1162.4146">Success</text><polygon fill="#000000" points="408.5,1192.9434,398.5,1196.9434,408.5,1200.9434,404.5,1196.9434" style="stroke:#000000;stroke-width:1.0;"/><line style="stroke:#000000;stroke-width:1.0;stroke-dasharray:2.0,2.0;" x1="402.5" x2="2198.5" y1="1196.9434" y2="1196.9434"/><text fill="#000000" font-family="Verdana" font-size="13" lengthAdjust="spacing" textLength="55" x="414.5" y="1192.2139">Success</text><polygon fill="#000000" points="799.5,1236.7427,809.5,1240.7427,799.5,1244.7427,803.5,1240.7427" style="stroke:#000000;stroke-width:1.0;"/><line style="stroke:#000000;stroke-width:1.0;" x1="397.5" x2="805.5" y1="1240.7427" y2="1240.7427"/><text fill="#000000" font-family="Verdana" font-size="13" lengthAdjust="spacing" textLength="395" x="404.5" y="1236.0132">CompleteNormalAccountBySport(ScannedMaxId, isSuccess)</text><path d="M661.5,1255.7427 L725.5,1255.7427 L725.5,1263.542 L715.5,1273.542 L661.5,1273.542 L661.5,1255.7427 " fill="#FFFFFF" style="stroke:#000000;stroke-width:1.0;"/><rect fill="none" height="136.9966" style="stroke:#000000;stroke-width:1.0;" width="1802" x="661.5" y="1255.7427"/><text fill="#000000" font-family="Verdana" font-size="13" font-weight="bold" lengthAdjust="spacing" textLength="19" x="676.5" y="1269.8125">alt</text><text fill="#000000" font-family="Verdana" font-size="11" font-weight="bold" lengthAdjust="spacing" textLength="128" x="740.5" y="1268.8018">[isSuccess == true]</text><polygon fill="#000000" points="1148.5,1291.3413,1158.5,1295.3413,1148.5,1299.3413,1152.5,1295.3413" style="stroke:#000000;stroke-width:1.0;"/><line style="stroke:#000000;stroke-width:1.0;" x1="821.5" x2="1154.5" y1="1295.3413" y2="1295.3413"/><text fill="#000000" font-family="Verdana" font-size="13" lengthAdjust="spacing" textLength="320" x="828.5" y="1290.6118">CompleteNormalAccountBySport(ScannedMaxId)</text><polygon fill="#000000" points="2370.5,1321.1406,2380.5,1325.1406,2370.5,1329.1406,2374.5,1325.1406" style="stroke:#000000;stroke-width:1.0;"/><line style="stroke:#000000;stroke-width:1.0;" x1="1170.5" x2="2376.5" y1="1325.1406" y2="1325.1406"/><text fill="#000000" font-family="Verdana" font-size="13" lengthAdjust="spacing" textLength="393" x="1177.5" y="1320.4111">CTS_BySportNormalClassification_NormalAccount_Complete</text><polygon fill="#000000" points="1181.5,1350.9399,1171.5,1354.9399,1181.5,1358.9399,1177.5,1354.9399" style="stroke:#000000;stroke-width:1.0;"/><line style="stroke:#000000;stroke-width:1.0;stroke-dasharray:2.0,2.0;" x1="1175.5" x2="2386.5" y1="1354.9399" y2="1354.9399"/><text fill="#000000" font-family="Verdana" font-size="13" lengthAdjust="spacing" textLength="55" x="1187.5" y="1350.2104">Updated</text><polygon fill="#000000" points="832.5,1380.7393,822.5,1384.7393,832.5,1388.7393,828.5,1384.7393" style="stroke:#000000;stroke-width:1.0;"/><line style="stroke:#000000;stroke-width:1.0;stroke-dasharray:2.0,2.0;" x1="826.5" x2="1164.5" y1="1384.7393" y2="1384.7393"/><text fill="#000000" font-family="Verdana" font-size="13" lengthAdjust="spacing" textLength="69" x="838.5" y="1380.0098">Completed</text><polygon fill="#000000" points="408.5,1417.5386,398.5,1421.5386,408.5,1425.5386,404.5,1421.5386" style="stroke:#000000;stroke-width:1.0;"/><line style="stroke:#000000;stroke-width:1.0;stroke-dasharray:2.0,2.0;" x1="402.5" x2="815.5" y1="1421.5386" y2="1421.5386"/><text fill="#000000" font-family="Verdana" font-size="13" lengthAdjust="spacing" textLength="69" x="414.5" y="1416.8091">Completed</text><polygon fill="#000000" points="70.5,1461.3379,60.5,1465.3379,70.5,1469.3379,66.5,1465.3379" style="stroke:#000000;stroke-width:1.0;"/><line style="stroke:#000000;stroke-width:1.0;stroke-dasharray:2.0,2.0;" x1="64.5" x2="391.5" y1="1465.3379" y2="1465.3379"/><text fill="#000000" font-family="Verdana" font-size="13" lengthAdjust="spacing" textLength="105" x="76.5" y="1460.6084">Task Completed</text><!--SRC=[hLTDR-Cs4BthLypcf03seKLF2so1MlQsNiHfTvNjgO11IvEOM9fKIMeJzzUNfBuecPASO0q4aQZXcyUPn-7mdJxY2Q5WXF98KyqGxeKy4GQ_PPaekOOjLoWrhCwG5i8yB275Vqla6SAQaYT9Jb54CYqaV1A7D3jYNZAKKK6afXajY86ugI1hn0fmTNPmTWxAxpJ36o0AkjTh0VpPhvow9fgOSLJApUvU-m0heZ0fbHOdb0aZIj57cX5D1GzGiCP16hCe0pRMVeoHnN4O3s9dyhPU-Gnw8r5k80u62cxIptSkG2Z_uV51v8Vztrz-teaSsMqLlCztrMTlpkviHervyf3kBPa4kKPPsRjllgtn2-kLno6AV4N0ybSllUzXyu9PgJ4-49qTDoy6bnEMqlzm0MveoxkXMwim-frez1KICI4AoCNo-KYDRcEg4i4rvQMn1_FhJAtlrl7lg2jD1DCGLtDRVuqpE-YXTQaP0BPujUA6U5vExNZtwZWsENWFDkGrfH3RVK_MUqDXGBlDfYFUlC5omBq70umglO0q8vnZlYClsznDpt44rsSV374DN2_4gMs8E0X86-E1N3W-zoEWBgXvcQg2mJJyOTJOe-A-NAh3TvKSI_uDidgpAeW3Ufn7-KiA5vZCeYamcyFiOS8OCeX_0NsKI7BL0RKFnWe-ccgw8Tcnej9-QXQLcEK-2NdUvl3k0on_WhXViptOCC-MP5KFfxQ33ODQWAfct9CJNe87K-3_GgxD0oNC11EqW4_fd_TJixoosf2UBAPn_TzVtm9ELd_NhiMlv4CZxrl3pjzKrn2al2ZrHoQUQrepJ0QxP4YcNqPSQQvAo3hPjwT5Lpng4lkAwBZdgiOFFxjHjq672xUkjlnH6C5if1HoPqR9qsNyl5qRTZ5Sqr02Nr2LhCvkCBvTgHdnUqLG_LBKUfREynpox4OO50lfhITShWAEnfnSvfErRLnQXjSxNSiU9E7gqV2oUpN0iidxnXo_-dm5UAz9CRMoLCSagLFND3LnuKPx-xNk3VnsuJRehjDNhnqAcVOiEd8LAyXwwWBRxrpZSCAJI_uW05DfyJVB7FQOlbw5FnOiv7aqzJvrJdsepgcqmCnKVKYIkIFg1yhlpTAxC-rGpVWjEhmohDFwwo8MrjwSDbwlkNczlKrhL-dCrvJ_7CqqCeau5GmrXjhEs6ze5q1LpR3Bs6X9jIfkxQs8jIpxX4Vk15VpwSjch2jkVZ_ekj2m2_lkz_ZjGaVl45yBeqpiruBHAqDe9Q54Zi858kCBPKoLbxWZ9wa5it-HhxGQhBdBcf94r3SFqyFoBgZ_0m00]--></g></svg>