<svg xmlns="http://www.w3.org/2000/svg" xmlns:xlink="http://www.w3.org/1999/xlink" contentStyleType="text/css" height="2089px" preserveAspectRatio="none" style="width:1569px;height:2089px;background:#FFFFFF;" version="1.1" viewBox="0 0 1569 2089" width="1569px" zoomAndPan="magnify"><defs/><g><text fill="#000000" font-family="Verdana" font-size="22" font-weight="bold" lengthAdjust="spacing" textLength="671" x="447.75" y="37.1182">Normal Account Insert By Sport - Main Business Flow</text><ellipse cx="964" cy="62.7373" fill="#FFFFFF" rx="10" ry="10" style="stroke:#000000;stroke-width:1.0;"/><path d="M1088.5,89.23 L1088.5,106.0293 L1068.5,110.0293 L1088.5,114.0293 L1088.5,130.8286 A0,0 0 0 0 1088.5,130.8286 L1438.5,130.8286 A0,0 0 0 0 1438.5,130.8286 L1438.5,99.23 L1428.5,89.23 L1088.5,89.23 A0,0 0 0 0 1088.5,89.23 " fill="#FFFFFF" style="stroke:#000000;stroke-width:1.0;"/><path d="M1428.5,89.23 L1428.5,99.23 L1438.5,99.23 L1428.5,89.23 " fill="#FFFFFF" style="stroke:#000000;stroke-width:1.0;"/><text fill="#000000" font-family="Verdana" font-size="13" lengthAdjust="spacing" textLength="321" x="1094.5" y="107.2998">Service: NormalAccountInsertBySportJobService</text><text fill="#000000" font-family="Verdana" font-size="13" lengthAdjust="spacing" textLength="329" x="1094.5" y="123.0991">Parameters: batchExternalSize, batchInternalSize</text><rect fill="#FFFFFF" height="34.584" rx="12.5" ry="12.5" style="stroke:#000000;stroke-width:1.0;" width="209" x="859.5" y="92.7373"/><text fill="#000000" font-family="Verdana" font-size="12" lengthAdjust="spacing" textLength="189" x="869.5" y="114.8018">Job Triggered (Scheduled Job)</text><rect fill="#FFFFFF" height="34.584" rx="12.5" ry="12.5" style="stroke:#000000;stroke-width:1.0;" width="312" x="808" y="150.8286"/><text fill="#000000" font-family="Verdana" font-size="12" lengthAdjust="spacing" textLength="292" x="818" y="172.8931">Execute(batchExternalSize, batchInternalSize)</text><rect fill="#FFFFFF" height="34.584" rx="12.5" ry="12.5" style="stroke:#000000;stroke-width:1.0;" width="205" x="861.5" y="254.0969"/><text fill="#000000" font-family="Verdana" font-size="12" lengthAdjust="spacing" textLength="185" x="871.5" y="276.1614">Set batchInternalSize = 5000</text><polygon fill="#FFFFFF" points="894.5,205.4126,1033.5,205.4126,1045.5,217.4126,1033.5,229.4126,894.5,229.4126,882.5,217.4126,894.5,205.4126" style="stroke:#000000;stroke-width:1.0;"/><text fill="#000000" font-family="Verdana" font-size="11" lengthAdjust="spacing" textLength="20" x="968" y="240.4717">yes</text><text fill="#000000" font-family="Verdana" font-size="11" lengthAdjust="spacing" textLength="139" x="894.5" y="221.7874">batchInternalSize &lt;= 0?</text><text fill="#000000" font-family="Verdana" font-size="11" lengthAdjust="spacing" textLength="14" x="1045.5" y="215.103">no</text><polygon fill="#FFFFFF" points="964,308.6809,976,320.6809,964,332.6809,952,320.6809,964,308.6809" style="stroke:#000000;stroke-width:1.0;"/><rect fill="#FFFFFF" height="34.584" rx="12.5" ry="12.5" style="stroke:#000000;stroke-width:1.0;" width="105" x="911.5" y="352.6809"/><text fill="#000000" font-family="Verdana" font-size="12" lengthAdjust="spacing" textLength="85" x="921.5" y="374.7454">do-while loop</text><rect fill="#FFFFFF" height="34.584" rx="12.5" ry="12.5" style="stroke:#000000;stroke-width:1.0;" width="307" x="810.5" y="451.2649"/><text fill="#000000" font-family="Verdana" font-size="12" lengthAdjust="spacing" textLength="287" x="820.5" y="473.3293">JobRun(batchExternalSize, batchInternalSize)</text><path d="M1097.5,502.3416 L1097.5,519.1409 L1077.5,523.1409 L1097.5,527.1409 L1097.5,543.9402 A0,0 0 0 0 1097.5,543.9402 L1536.5,543.9402 A0,0 0 0 0 1536.5,543.9402 L1536.5,512.3416 L1526.5,502.3416 L1097.5,502.3416 A0,0 0 0 0 1097.5,502.3416 " fill="#FFFFFF" style="stroke:#000000;stroke-width:1.0;"/><path d="M1526.5,502.3416 L1526.5,512.3416 L1536.5,512.3416 L1526.5,502.3416 " fill="#FFFFFF" style="stroke:#000000;stroke-width:1.0;"/><text fill="#000000" font-family="Verdana" font-size="13" lengthAdjust="spacing" textLength="418" x="1103.5" y="520.4114">Calls SP: CTS_BySportNormalClassification_NormalAccount_Get</text><text fill="#000000" font-family="Verdana" font-size="13" lengthAdjust="spacing" textLength="290" x="1103.5" y="536.2107">Returns: NormalAccount list, ScannedMaxId</text><rect fill="#FFFFFF" height="34.584" rx="12.5" ry="12.5" style="stroke:#000000;stroke-width:1.0;" width="227" x="850.5" y="505.8489"/><text fill="#000000" font-family="Verdana" font-size="12" lengthAdjust="spacing" textLength="207" x="860.5" y="527.9133">GetNormalClassificationBySport()</text><polygon fill="#FFFFFF" points="905.5,563.9402,1022.5,563.9402,1034.5,575.9402,1022.5,587.9402,905.5,587.9402,893.5,575.9402,905.5,563.9402" style="stroke:#000000;stroke-width:1.0;"/><text fill="#000000" font-family="Verdana" font-size="11" lengthAdjust="spacing" textLength="117" x="905.5" y="580.3149">Has NormalAccount?</text><text fill="#000000" font-family="Verdana" font-size="11" lengthAdjust="spacing" textLength="20" x="873.5" y="573.6306">yes</text><text fill="#000000" font-family="Verdana" font-size="11" lengthAdjust="spacing" textLength="14" x="1034.5" y="573.6306">no</text><rect fill="#FFFFFF" height="34.584" rx="12.5" ry="12.5" style="stroke:#000000;stroke-width:1.0;" width="315" x="390.25" y="597.9402"/><text fill="#000000" font-family="Verdana" font-size="12" lengthAdjust="spacing" textLength="295" x="400.25" y="620.0046">Initialize failedThreads (ConcurrentBag&lt;bool&gt;)</text><rect fill="#FFFFFF" height="34.584" rx="12.5" ry="12.5" style="stroke:#000000;stroke-width:1.0;" width="263" x="416.25" y="652.5242"/><text fill="#000000" font-family="Verdana" font-size="12" lengthAdjust="spacing" textLength="243" x="426.25" y="674.5886">Chunk customers by batchInternalSize</text><rect fill="#FFFFFF" height="34.584" rx="12.5" ry="12.5" style="stroke:#000000;stroke-width:1.0;" width="348" x="373.75" y="707.1082"/><text fill="#000000" font-family="Verdana" font-size="12" lengthAdjust="spacing" textLength="328" x="383.75" y="729.1726">Process chunks in parallel (DegreeOfParallelism = 4)</text><rect fill="#FFFFFF" height="1094.0264" style="stroke:#000000;stroke-width:1.0;" width="1244.25" x="6" y="751.6921"/><path d="M127,751.6921 L127,761.7068 L117,771.7068 L6,771.7068 " fill="none" style="stroke:#000000;stroke-width:1.0;"/><text fill="#000000" font-family="Verdana" font-size="14" lengthAdjust="spacing" textLength="111" x="9" y="766.7673">For Each Chunk</text><rect fill="#FFFFFF" height="34.584" rx="12.5" ry="12.5" style="stroke:#000000;stroke-width:1.0;" width="518" x="288.75" y="788.7068"/><text fill="#000000" font-family="Verdana" font-size="12" lengthAdjust="spacing" textLength="498" x="298.75" y="810.7712">InsertNormalClassificationBySport(custBatch, batchExternalSize, failedThreads)</text><path d="M677.75,839.7834 L677.75,856.5828 L657.75,860.5828 L677.75,864.5828 L677.75,881.3821 A0,0 0 0 0 677.75,881.3821 L1041.75,881.3821 A0,0 0 0 0 1041.75,881.3821 L1041.75,849.7834 L1031.75,839.7834 L677.75,839.7834 A0,0 0 0 0 677.75,839.7834 " fill="#FFFFFF" style="stroke:#000000;stroke-width:1.0;"/><path d="M1031.75,839.7834 L1031.75,849.7834 L1041.75,849.7834 L1031.75,839.7834 " fill="#FFFFFF" style="stroke:#000000;stroke-width:1.0;"/><text fill="#000000" font-family="Verdana" font-size="13" lengthAdjust="spacing" textLength="278" x="683.75" y="857.8533">- insertNormalAccounts: CategoryId != -1</text><text fill="#000000" font-family="Verdana" font-size="13" lengthAdjust="spacing" textLength="343" x="683.75" y="873.6526">- specialCCAcounts: CategoryId == -1 (Special CC)</text><rect fill="#FFFFFF" height="34.584" rx="12.5" ry="12.5" style="stroke:#000000;stroke-width:1.0;" width="220" x="437.75" y="843.2908"/><text fill="#000000" font-family="Verdana" font-size="12" lengthAdjust="spacing" textLength="200" x="447.75" y="865.3552">Split customers into two groups</text><rect fill="#FFFFFF" height="34.584" rx="12.5" ry="12.5" style="stroke:#000000;stroke-width:1.0;" width="415" x="340.25" y="901.3821"/><text fill="#000000" font-family="Verdana" font-size="12" lengthAdjust="spacing" textLength="395" x="350.25" y="923.4465">InsertNormaBySport(insertNormalAccounts, batchExternalSize)</text><rect fill="#FFFFFF" height="424.0259" style="stroke:#000000;stroke-width:1.0;" width="1073.25" x="16" y="945.9661"/><path d="M192,945.9661 L192,955.9807 L182,965.9807 L16,965.9807 " fill="none" style="stroke:#000000;stroke-width:1.0;"/><text fill="#000000" font-family="Verdana" font-size="14" lengthAdjust="spacing" textLength="166" x="19" y="961.0413">Insert Normal Accounts</text><rect fill="#FFFFFF" height="34.584" rx="12.5" ry="12.5" style="stroke:#000000;stroke-width:1.0;" width="364" x="365.75" y="982.9807"/><text fill="#000000" font-family="Verdana" font-size="12" lengthAdjust="spacing" textLength="344" x="375.75" y="1005.0452">InsertNormalClassificationBySport(custs, serviceName)</text><rect fill="#FFFFFF" height="34.584" rx="12.5" ry="12.5" style="stroke:#000000;stroke-width:1.0;" width="195" x="450.25" y="1037.5647"/><text fill="#000000" font-family="Verdana" font-size="12" lengthAdjust="spacing" textLength="175" x="460.25" y="1059.6292">Serialize customers to JSON</text><path d="M711.25,1088.6414 L711.25,1105.4407 L691.25,1109.4407 L711.25,1113.4407 L711.25,1130.24 A0,0 0 0 0 711.25,1130.24 L1079.25,1130.24 A0,0 0 0 0 1079.25,1130.24 L1079.25,1098.6414 L1069.25,1088.6414 L711.25,1088.6414 A0,0 0 0 0 711.25,1088.6414 " fill="#FFFFFF" style="stroke:#000000;stroke-width:1.0;"/><path d="M1069.25,1088.6414 L1069.25,1098.6414 L1079.25,1098.6414 L1069.25,1088.6414 " fill="#FFFFFF" style="stroke:#000000;stroke-width:1.0;"/><text fill="#000000" font-family="Verdana" font-size="13" lengthAdjust="spacing" textLength="266" x="717.25" y="1106.7112">InputFlowID: BySportInsertNormal (332)</text><text fill="#000000" font-family="Verdana" font-size="13" lengthAdjust="spacing" textLength="347" x="717.25" y="1122.5105">Calls SP: CTS_DC_CustClassification_BySport_Insert</text><rect fill="#FFFFFF" height="34.584" rx="12.5" ry="12.5" style="stroke:#000000;stroke-width:1.0;" width="287" x="404.25" y="1092.1487"/><text fill="#000000" font-family="Verdana" font-size="12" lengthAdjust="spacing" textLength="267" x="414.25" y="1114.2131">Call InsertCustomerClassificationBySport()</text><polygon fill="#FFFFFF" points="502.75,1150.24,592.75,1150.24,604.75,1162.24,592.75,1174.24,502.75,1174.24,490.75,1162.24,502.75,1150.24" style="stroke:#000000;stroke-width:1.0;"/><text fill="#000000" font-family="Verdana" font-size="11" lengthAdjust="spacing" textLength="90" x="502.75" y="1166.6147">Insert Success?</text><text fill="#000000" font-family="Verdana" font-size="11" lengthAdjust="spacing" textLength="20" x="470.75" y="1159.9304">yes</text><text fill="#000000" font-family="Verdana" font-size="11" lengthAdjust="spacing" textLength="14" x="604.75" y="1159.9304">no</text><rect fill="#FFFFFF" height="34.584" rx="12.5" ry="12.5" style="stroke:#000000;stroke-width:1.0;" width="179" x="162" y="1184.24"/><text fill="#000000" font-family="Verdana" font-size="12" lengthAdjust="spacing" textLength="159" x="172" y="1206.3044">Get CustInfos from result</text><rect fill="#FFFFFF" height="34.584" rx="12.5" ry="12.5" style="stroke:#000000;stroke-width:1.0;" width="325" x="89" y="1238.824"/><text fill="#000000" font-family="Verdana" font-size="12" lengthAdjust="spacing" textLength="305" x="99" y="1260.8884">Transform to InsertNormalAccountCustInfoEntity</text><path d="M495,1297.8003 L495,1306.7 L475,1310.7 L495,1314.7 L495,1323.5996 A0,0 0 0 0 495,1323.5996 L748,1323.5996 A0,0 0 0 0 748,1323.5996 L748,1307.8003 L738,1297.8003 L495,1297.8003 A0,0 0 0 0 495,1297.8003 " fill="#FFFFFF" style="stroke:#000000;stroke-width:1.0;"/><path d="M738,1297.8003 L738,1307.8003 L748,1307.8003 L738,1297.8003 " fill="#FFFFFF" style="stroke:#000000;stroke-width:1.0;"/><text fill="#000000" font-family="Verdana" font-size="13" lengthAdjust="spacing" textLength="232" x="501" y="1315.8701">Push classification data to Main DB</text><rect fill="#FFFFFF" height="34.584" rx="12.5" ry="12.5" style="stroke:#000000;stroke-width:1.0;" width="447" x="28" y="1293.408"/><text fill="#000000" font-family="Verdana" font-size="12" lengthAdjust="spacing" textLength="427" x="38" y="1315.4724">PushCCBySportToMainDB(pushCC, serviceName, batchExternalSize)</text><rect fill="#FFFFFF" height="34.584" rx="12.5" ry="12.5" style="stroke:#000000;stroke-width:1.0;" width="152" x="768" y="1184.24"/><text fill="#000000" font-family="Verdana" font-size="12" lengthAdjust="spacing" textLength="132" x="778" y="1206.3044">Set isSuccess = false</text><polygon fill="#FFFFFF" points="547.75,1333.9919,559.75,1345.9919,547.75,1357.9919,535.75,1345.9919,547.75,1333.9919" style="stroke:#000000;stroke-width:1.0;"/><rect fill="#FFFFFF" height="34.584" rx="12.5" ry="12.5" style="stroke:#000000;stroke-width:1.0;" width="404" x="345.75" y="1389.9919"/><text fill="#000000" font-family="Verdana" font-size="12" lengthAdjust="spacing" textLength="384" x="355.75" y="1412.0564">PushSpecialCCBySport(specialCCAcounts, batchExternalSize)</text><rect fill="#FFFFFF" height="251.8743" style="stroke:#000000;stroke-width:1.0;" width="978" x="262.25" y="1434.5759"/><path d="M384.25,1434.5759 L384.25,1444.5906 L374.25,1454.5906 L262.25,1454.5906 " fill="none" style="stroke:#000000;stroke-width:1.0;"/><text fill="#000000" font-family="Verdana" font-size="14" lengthAdjust="spacing" textLength="112" x="265.25" y="1449.6511">Push Special CC</text><rect fill="#FFFFFF" height="34.584" rx="12.5" ry="12.5" style="stroke:#000000;stroke-width:1.0;" width="325" x="385.25" y="1520.2749"/><text fill="#000000" font-family="Verdana" font-size="12" lengthAdjust="spacing" textLength="305" x="395.25" y="1542.3394">Transform to InsertNormalAccountCustInfoEntity</text><path d="M833.25,1588.8516 L833.25,1605.6509 L813.25,1609.6509 L833.25,1613.6509 L833.25,1630.4502 A0,0 0 0 0 833.25,1630.4502 L1208.25,1630.4502 A0,0 0 0 0 1208.25,1630.4502 L1208.25,1598.8516 L1198.25,1588.8516 L833.25,1588.8516 A0,0 0 0 0 833.25,1588.8516 " fill="#FFFFFF" style="stroke:#000000;stroke-width:1.0;"/><path d="M1198.25,1588.8516 L1198.25,1598.8516 L1208.25,1598.8516 L1198.25,1588.8516 " fill="#FFFFFF" style="stroke:#000000;stroke-width:1.0;"/><text fill="#000000" font-family="Verdana" font-size="13" lengthAdjust="spacing" textLength="217" x="839.25" y="1606.9214">Push Special CC data to Main DB</text><text fill="#000000" font-family="Verdana" font-size="13" lengthAdjust="spacing" textLength="354" x="839.25" y="1622.7207">(No insert to CTS_DataCenter, only push to Main DB)</text><rect fill="#FFFFFF" height="34.584" rx="12.5" ry="12.5" style="stroke:#000000;stroke-width:1.0;" width="531" x="282.25" y="1592.3589"/><text fill="#000000" font-family="Verdana" font-size="12" lengthAdjust="spacing" textLength="511" x="292.25" y="1614.4233">PushCCBySportToMainDB(pushCCListSpecialCC, serviceName, batchExternalSize)</text><polygon fill="#FFFFFF" points="481.25,1471.5906,614.25,1471.5906,626.25,1483.5906,614.25,1495.5906,481.25,1495.5906,469.25,1483.5906,481.25,1471.5906" style="stroke:#000000;stroke-width:1.0;"/><text fill="#000000" font-family="Verdana" font-size="11" lengthAdjust="spacing" textLength="20" x="551.75" y="1506.6497">yes</text><text fill="#000000" font-family="Verdana" font-size="11" lengthAdjust="spacing" textLength="133" x="481.25" y="1487.9653">Has specialCCAcounts?</text><text fill="#000000" font-family="Verdana" font-size="11" lengthAdjust="spacing" textLength="14" x="626.25" y="1481.281">no</text><polygon fill="#FFFFFF" points="547.75,1650.4502,559.75,1662.4502,547.75,1674.4502,535.75,1662.4502,547.75,1650.4502" style="stroke:#000000;stroke-width:1.0;"/><rect fill="#FFFFFF" height="34.584" rx="12.5" ry="12.5" style="stroke:#000000;stroke-width:1.0;" width="184" x="455.75" y="1755.1345"/><text fill="#000000" font-family="Verdana" font-size="12" lengthAdjust="spacing" textLength="164" x="465.75" y="1777.199">Add false to failedThreads</text><polygon fill="#FFFFFF" points="475.75,1706.4502,619.75,1706.4502,631.75,1718.4502,619.75,1730.4502,475.75,1730.4502,463.75,1718.4502,475.75,1706.4502" style="stroke:#000000;stroke-width:1.0;"/><text fill="#000000" font-family="Verdana" font-size="11" lengthAdjust="spacing" textLength="14" x="551.75" y="1741.5093">no</text><text fill="#000000" font-family="Verdana" font-size="11" lengthAdjust="spacing" textLength="144" x="475.75" y="1722.825">Both operations success?</text><text fill="#000000" font-family="Verdana" font-size="11" lengthAdjust="spacing" textLength="20" x="631.75" y="1716.1406">yes</text><polygon fill="#FFFFFF" points="547.75,1809.7185,559.75,1821.7185,547.75,1833.7185,535.75,1821.7185,547.75,1809.7185" style="stroke:#000000;stroke-width:1.0;"/><path d="M803.75,1855.7185 L803.75,1880.4175 L783.75,1884.4175 L803.75,1888.4175 L803.75,1913.1165 A0,0 0 0 0 803.75,1913.1165 L1280.75,1913.1165 A0,0 0 0 0 1280.75,1913.1165 L1280.75,1865.7185 L1270.75,1855.7185 L803.75,1855.7185 A0,0 0 0 0 803.75,1855.7185 " fill="#FFFFFF" style="stroke:#000000;stroke-width:1.0;"/><path d="M1270.75,1855.7185 L1270.75,1865.7185 L1280.75,1865.7185 L1270.75,1855.7185 " fill="#FFFFFF" style="stroke:#000000;stroke-width:1.0;"/><text fill="#000000" font-family="Verdana" font-size="13" lengthAdjust="spacing" textLength="257" x="809.75" y="1873.7883">Only complete if all threads succeeded</text><text fill="#000000" font-family="Verdana" font-size="13" lengthAdjust="spacing" textLength="456" x="809.75" y="1889.5876">Calls SP: CTS_BySportNormalClassification_NormalAccount_Complete</text><text fill="#000000" font-family="Verdana" font-size="13" lengthAdjust="spacing" textLength="376" x="809.75" y="1905.387">Updates: CustomerClassification_Parameter (DataId = 2)</text><rect fill="#FFFFFF" height="34.584" rx="12.5" ry="12.5" style="stroke:#000000;stroke-width:1.0;" width="472" x="311.75" y="1867.1255"/><text fill="#000000" font-family="Verdana" font-size="12" lengthAdjust="spacing" textLength="452" x="321.75" y="1889.1899">CompleteNormalAccountBySport(ScannedMaxId, failedThreads.IsEmpty)</text><rect fill="#FFFFFF" height="34.584" rx="12.5" ry="12.5" style="stroke:#000000;stroke-width:1.0;" width="155" x="470.25" y="1933.1165"/><text fill="#000000" font-family="Verdana" font-size="12" lengthAdjust="spacing" textLength="135" x="480.25" y="1955.1809">Set isContinue = true</text><rect fill="#FFFFFF" height="34.584" rx="12.5" ry="12.5" style="stroke:#000000;stroke-width:1.0;" width="159" x="1300.75" y="597.9402"/><text fill="#000000" font-family="Verdana" font-size="12" lengthAdjust="spacing" textLength="139" x="1310.75" y="620.0046">Set isContinue = false</text><polygon fill="#FFFFFF" points="964,1973.7004,976,1985.7004,964,1997.7004,952,1985.7004,964,1973.7004" style="stroke:#000000;stroke-width:1.0;"/><polygon fill="#FFFFFF" points="964,407.2649,976,419.2649,964,431.2649,952,419.2649,964,407.2649" style="stroke:#000000;stroke-width:1.0;"/><polygon fill="#FFFFFF" points="931,2017.7004,997,2017.7004,1009,2029.7004,997,2041.7004,931,2041.7004,919,2029.7004,931,2017.7004" style="stroke:#000000;stroke-width:1.0;"/><text fill="#000000" font-family="Verdana" font-size="11" lengthAdjust="spacing" textLength="66" x="931" y="2034.0752">isContinue?</text><ellipse cx="964" cy="2072.7004" fill="none" rx="11" ry="11" style="stroke:#000000;stroke-width:1.0;"/><ellipse cx="964" cy="2072.7004" fill="#FFFFFF" rx="6" ry="6" style="stroke:#000000;stroke-width:1.0;"/><line style="stroke:#000000;stroke-width:1.0;" x1="964" x2="964" y1="72.7373" y2="92.7373"/><polygon fill="#000000" points="960,82.7373,964,92.7373,968,82.7373,964,86.7373" style="stroke:#000000;stroke-width:1.0;"/><line style="stroke:#000000;stroke-width:1.0;" x1="964" x2="964" y1="127.3213" y2="150.8286"/><polygon fill="#000000" points="960,140.8286,964,150.8286,968,140.8286,964,144.8286" style="stroke:#000000;stroke-width:1.0;"/><line style="stroke:#000000;stroke-width:1.0;" x1="964" x2="964" y1="229.4126" y2="254.0969"/><polygon fill="#000000" points="960,244.0969,964,254.0969,968,244.0969,964,248.0969" style="stroke:#000000;stroke-width:1.0;"/><line style="stroke:#000000;stroke-width:1.0;" x1="1045.5" x2="1076.5" y1="217.4126" y2="217.4126"/><polygon fill="#000000" points="1072.5,261.3889,1076.5,271.3889,1080.5,261.3889,1076.5,265.3889" style="stroke:#000000;stroke-width:1.0;"/><line style="stroke:#000000;stroke-width:1.0;" x1="1076.5" x2="1076.5" y1="217.4126" y2="320.6809"/><line style="stroke:#000000;stroke-width:1.0;" x1="1076.5" x2="976" y1="320.6809" y2="320.6809"/><polygon fill="#000000" points="986,316.6809,976,320.6809,986,324.6809,982,320.6809" style="stroke:#000000;stroke-width:1.0;"/><line style="stroke:#000000;stroke-width:1.0;" x1="964" x2="964" y1="288.6809" y2="308.6809"/><polygon fill="#000000" points="960,298.6809,964,308.6809,968,298.6809,964,302.6809" style="stroke:#000000;stroke-width:1.0;"/><line style="stroke:#000000;stroke-width:1.0;" x1="964" x2="964" y1="185.4126" y2="205.4126"/><polygon fill="#000000" points="960,195.4126,964,205.4126,968,195.4126,964,199.4126" style="stroke:#000000;stroke-width:1.0;"/><line style="stroke:#000000;stroke-width:1.0;" x1="964" x2="964" y1="332.6809" y2="352.6809"/><polygon fill="#000000" points="960,342.6809,964,352.6809,968,342.6809,964,346.6809" style="stroke:#000000;stroke-width:1.0;"/><line style="stroke:#000000;stroke-width:1.0;" x1="964" x2="964" y1="485.8489" y2="505.8489"/><polygon fill="#000000" points="960,495.8489,964,505.8489,968,495.8489,964,499.8489" style="stroke:#000000;stroke-width:1.0;"/><line style="stroke:#000000;stroke-width:1.0;" x1="547.75" x2="547.75" y1="632.5242" y2="652.5242"/><polygon fill="#000000" points="543.75,642.5242,547.75,652.5242,551.75,642.5242,547.75,646.5242" style="stroke:#000000;stroke-width:1.0;"/><line style="stroke:#000000;stroke-width:1.0;" x1="547.75" x2="547.75" y1="687.1082" y2="707.1082"/><polygon fill="#000000" points="543.75,697.1082,547.75,707.1082,551.75,697.1082,547.75,701.1082" style="stroke:#000000;stroke-width:1.0;"/><line style="stroke:#000000;stroke-width:1.0;" x1="547.75" x2="547.75" y1="823.2908" y2="843.2908"/><polygon fill="#000000" points="543.75,833.2908,547.75,843.2908,551.75,833.2908,547.75,837.2908" style="stroke:#000000;stroke-width:1.0;"/><line style="stroke:#000000;stroke-width:1.0;" x1="547.75" x2="547.75" y1="877.8748" y2="901.3821"/><polygon fill="#000000" points="543.75,891.3821,547.75,901.3821,551.75,891.3821,547.75,895.3821" style="stroke:#000000;stroke-width:1.0;"/><line style="stroke:#000000;stroke-width:1.0;" x1="547.75" x2="547.75" y1="1017.5647" y2="1037.5647"/><polygon fill="#000000" points="543.75,1027.5647,547.75,1037.5647,551.75,1027.5647,547.75,1031.5647" style="stroke:#000000;stroke-width:1.0;"/><line style="stroke:#000000;stroke-width:1.0;" x1="547.75" x2="547.75" y1="1072.1487" y2="1092.1487"/><polygon fill="#000000" points="543.75,1082.1487,547.75,1092.1487,551.75,1082.1487,547.75,1086.1487" style="stroke:#000000;stroke-width:1.0;"/><line style="stroke:#000000;stroke-width:1.0;" x1="251.5" x2="251.5" y1="1218.824" y2="1238.824"/><polygon fill="#000000" points="247.5,1228.824,251.5,1238.824,255.5,1228.824,251.5,1232.824" style="stroke:#000000;stroke-width:1.0;"/><line style="stroke:#000000;stroke-width:1.0;" x1="251.5" x2="251.5" y1="1273.408" y2="1293.408"/><polygon fill="#000000" points="247.5,1283.408,251.5,1293.408,255.5,1283.408,251.5,1287.408" style="stroke:#000000;stroke-width:1.0;"/><line style="stroke:#000000;stroke-width:1.0;" x1="490.75" x2="251.5" y1="1162.24" y2="1162.24"/><line style="stroke:#000000;stroke-width:1.0;" x1="251.5" x2="251.5" y1="1162.24" y2="1184.24"/><polygon fill="#000000" points="247.5,1174.24,251.5,1184.24,255.5,1174.24,251.5,1178.24" style="stroke:#000000;stroke-width:1.0;"/><line style="stroke:#000000;stroke-width:1.0;" x1="604.75" x2="844" y1="1162.24" y2="1162.24"/><line style="stroke:#000000;stroke-width:1.0;" x1="844" x2="844" y1="1162.24" y2="1184.24"/><polygon fill="#000000" points="840,1174.24,844,1184.24,848,1174.24,844,1178.24" style="stroke:#000000;stroke-width:1.0;"/><line style="stroke:#000000;stroke-width:1.0;" x1="251.5" x2="251.5" y1="1327.9919" y2="1345.9919"/><line style="stroke:#000000;stroke-width:1.0;" x1="251.5" x2="535.75" y1="1345.9919" y2="1345.9919"/><polygon fill="#000000" points="525.75,1341.9919,535.75,1345.9919,525.75,1349.9919,529.75,1345.9919" style="stroke:#000000;stroke-width:1.0;"/><line style="stroke:#000000;stroke-width:1.0;" x1="844" x2="844" y1="1218.824" y2="1345.9919"/><line style="stroke:#000000;stroke-width:1.0;" x1="844" x2="559.75" y1="1345.9919" y2="1345.9919"/><polygon fill="#000000" points="569.75,1341.9919,559.75,1345.9919,569.75,1349.9919,565.75,1345.9919" style="stroke:#000000;stroke-width:1.0;"/><line style="stroke:#000000;stroke-width:1.0;" x1="547.75" x2="547.75" y1="1126.7327" y2="1150.24"/><polygon fill="#000000" points="543.75,1140.24,547.75,1150.24,551.75,1140.24,547.75,1144.24" style="stroke:#000000;stroke-width:1.0;"/><line style="stroke:#000000;stroke-width:1.0;" x1="547.75" x2="547.75" y1="935.9661" y2="982.9807"/><polygon fill="#000000" points="543.75,972.9807,547.75,982.9807,551.75,972.9807,547.75,976.9807" style="stroke:#000000;stroke-width:1.0;"/><line style="stroke:#000000;stroke-width:1.0;" x1="547.75" x2="547.75" y1="1357.9919" y2="1389.9919"/><polygon fill="#000000" points="543.75,1379.9919,547.75,1389.9919,551.75,1379.9919,547.75,1383.9919" style="stroke:#000000;stroke-width:1.0;"/><line style="stroke:#000000;stroke-width:1.0;" x1="547.75" x2="547.75" y1="1554.8589" y2="1592.3589"/><polygon fill="#000000" points="543.75,1582.3589,547.75,1592.3589,551.75,1582.3589,547.75,1586.3589" style="stroke:#000000;stroke-width:1.0;"/><line style="stroke:#000000;stroke-width:1.0;" x1="547.75" x2="547.75" y1="1495.5906" y2="1520.2749"/><polygon fill="#000000" points="543.75,1510.2749,547.75,1520.2749,551.75,1510.2749,547.75,1514.2749" style="stroke:#000000;stroke-width:1.0;"/><line style="stroke:#000000;stroke-width:1.0;" x1="626.25" x2="1218.25" y1="1483.5906" y2="1483.5906"/><polygon fill="#000000" points="1214.25,1564.8589,1218.25,1574.8589,1222.25,1564.8589,1218.25,1568.8589" style="stroke:#000000;stroke-width:1.0;"/><line style="stroke:#000000;stroke-width:1.0;" x1="1218.25" x2="1218.25" y1="1483.5906" y2="1662.4502"/><line style="stroke:#000000;stroke-width:1.0;" x1="1218.25" x2="559.75" y1="1662.4502" y2="1662.4502"/><polygon fill="#000000" points="569.75,1658.4502,559.75,1662.4502,569.75,1666.4502,565.75,1662.4502" style="stroke:#000000;stroke-width:1.0;"/><line style="stroke:#000000;stroke-width:1.0;" x1="547.75" x2="547.75" y1="1626.9429" y2="1650.4502"/><polygon fill="#000000" points="543.75,1640.4502,547.75,1650.4502,551.75,1640.4502,547.75,1644.4502" style="stroke:#000000;stroke-width:1.0;"/><line style="stroke:#000000;stroke-width:1.0;" x1="547.75" x2="547.75" y1="1424.5759" y2="1471.5906"/><polygon fill="#000000" points="543.75,1461.5906,547.75,1471.5906,551.75,1461.5906,547.75,1465.5906" style="stroke:#000000;stroke-width:1.0;"/><line style="stroke:#000000;stroke-width:1.0;" x1="547.75" x2="547.75" y1="1730.4502" y2="1755.1345"/><polygon fill="#000000" points="543.75,1745.1345,547.75,1755.1345,551.75,1745.1345,547.75,1749.1345" style="stroke:#000000;stroke-width:1.0;"/><line style="stroke:#000000;stroke-width:1.0;" x1="631.75" x2="649.75" y1="1718.4502" y2="1718.4502"/><polygon fill="#000000" points="645.75,1762.4265,649.75,1772.4265,653.75,1762.4265,649.75,1766.4265" style="stroke:#000000;stroke-width:1.0;"/><line style="stroke:#000000;stroke-width:1.0;" x1="649.75" x2="649.75" y1="1718.4502" y2="1821.7185"/><line style="stroke:#000000;stroke-width:1.0;" x1="649.75" x2="559.75" y1="1821.7185" y2="1821.7185"/><polygon fill="#000000" points="569.75,1817.7185,559.75,1821.7185,569.75,1825.7185,565.75,1821.7185" style="stroke:#000000;stroke-width:1.0;"/><line style="stroke:#000000;stroke-width:1.0;" x1="547.75" x2="547.75" y1="1789.7185" y2="1809.7185"/><polygon fill="#000000" points="543.75,1799.7185,547.75,1809.7185,551.75,1799.7185,547.75,1803.7185" style="stroke:#000000;stroke-width:1.0;"/><line style="stroke:#000000;stroke-width:1.0;" x1="547.75" x2="547.75" y1="1674.4502" y2="1706.4502"/><polygon fill="#000000" points="543.75,1696.4502,547.75,1706.4502,551.75,1696.4502,547.75,1700.4502" style="stroke:#000000;stroke-width:1.0;"/><line style="stroke:#000000;stroke-width:1.0;" x1="547.75" x2="547.75" y1="741.6921" y2="788.7068"/><polygon fill="#000000" points="543.75,778.7068,547.75,788.7068,551.75,778.7068,547.75,782.7068" style="stroke:#000000;stroke-width:1.0;"/><line style="stroke:#000000;stroke-width:1.0;" x1="547.75" x2="547.75" y1="1833.7185" y2="1867.1255"/><polygon fill="#000000" points="543.75,1857.1255,547.75,1867.1255,551.75,1857.1255,547.75,1861.1255" style="stroke:#000000;stroke-width:1.0;"/><line style="stroke:#000000;stroke-width:1.0;" x1="547.75" x2="547.75" y1="1901.7095" y2="1933.1165"/><polygon fill="#000000" points="543.75,1923.1165,547.75,1933.1165,551.75,1923.1165,547.75,1927.1165" style="stroke:#000000;stroke-width:1.0;"/><line style="stroke:#000000;stroke-width:1.0;" x1="893.5" x2="547.75" y1="575.9402" y2="575.9402"/><line style="stroke:#000000;stroke-width:1.0;" x1="547.75" x2="547.75" y1="575.9402" y2="597.9402"/><polygon fill="#000000" points="543.75,587.9402,547.75,597.9402,551.75,587.9402,547.75,591.9402" style="stroke:#000000;stroke-width:1.0;"/><line style="stroke:#000000;stroke-width:1.0;" x1="1034.5" x2="1380.25" y1="575.9402" y2="575.9402"/><line style="stroke:#000000;stroke-width:1.0;" x1="1380.25" x2="1380.25" y1="575.9402" y2="597.9402"/><polygon fill="#000000" points="1376.25,587.9402,1380.25,597.9402,1384.25,587.9402,1380.25,591.9402" style="stroke:#000000;stroke-width:1.0;"/><line style="stroke:#000000;stroke-width:1.0;" x1="547.75" x2="547.75" y1="1967.7004" y2="1985.7004"/><line style="stroke:#000000;stroke-width:1.0;" x1="547.75" x2="952" y1="1985.7004" y2="1985.7004"/><polygon fill="#000000" points="942,1981.7004,952,1985.7004,942,1989.7004,946,1985.7004" style="stroke:#000000;stroke-width:1.0;"/><line style="stroke:#000000;stroke-width:1.0;" x1="1380.25" x2="1380.25" y1="632.5242" y2="1985.7004"/><line style="stroke:#000000;stroke-width:1.0;" x1="1380.25" x2="976" y1="1985.7004" y2="1985.7004"/><polygon fill="#000000" points="986,1981.7004,976,1985.7004,986,1989.7004,982,1985.7004" style="stroke:#000000;stroke-width:1.0;"/><line style="stroke:#000000;stroke-width:1.0;" x1="964" x2="964" y1="540.4329" y2="563.9402"/><polygon fill="#000000" points="960,553.9402,964,563.9402,968,553.9402,964,557.9402" style="stroke:#000000;stroke-width:1.0;"/><line style="stroke:#000000;stroke-width:1.0;" x1="964" x2="964" y1="431.2649" y2="451.2649"/><polygon fill="#000000" points="960,441.2649,964,451.2649,968,441.2649,964,445.2649" style="stroke:#000000;stroke-width:1.0;"/><line style="stroke:#000000;stroke-width:1.0;" x1="1009" x2="1548.5" y1="2029.7004" y2="2029.7004"/><polygon fill="#000000" points="1544.5,1216.4097,1548.5,1206.4097,1552.5,1216.4097,1548.5,1212.4097" style="stroke:#000000;stroke-width:1.0;"/><line style="stroke:#000000;stroke-width:1.0;" x1="1548.5" x2="1548.5" y1="419.2649" y2="2029.7004"/><line style="stroke:#000000;stroke-width:1.0;" x1="1548.5" x2="976" y1="419.2649" y2="419.2649"/><polygon fill="#000000" points="986,415.2649,976,419.2649,986,423.2649,982,419.2649" style="stroke:#000000;stroke-width:1.0;"/><line style="stroke:#000000;stroke-width:1.0;" x1="964" x2="964" y1="1997.7004" y2="2017.7004"/><polygon fill="#000000" points="960,2007.7004,964,2017.7004,968,2007.7004,964,2011.7004" style="stroke:#000000;stroke-width:1.0;"/><line style="stroke:#000000;stroke-width:1.0;" x1="964" x2="964" y1="387.2649" y2="407.2649"/><polygon fill="#000000" points="960,397.2649,964,407.2649,968,397.2649,964,401.2649" style="stroke:#000000;stroke-width:1.0;"/><line style="stroke:#000000;stroke-width:1.0;" x1="964" x2="964" y1="2041.7004" y2="2061.7004"/><polygon fill="#000000" points="960,2051.7004,964,2061.7004,968,2051.7004,964,2055.7004" style="stroke:#000000;stroke-width:1.0;"/><!--SRC=[jLVVRzis47xNNt7jammaGxPkBtQp8fRJJSMQ69NtR33IsI96am99BN67_kyxIhIj7qpc0AiU0bk-EzvztyUxonjRuWwX4epBo78h4EwKtZ41DtckQcaXbGQrXVaUiahHXqluJBOmhmsNQ0ny5EenYenbsaRJJ-e1LffljwYnW3ZBIongGH_fXyaiaieYqC-bZO2U3FNVFCUfFzAVs1uutpV7aP-tQZoMJBCTMjHc2W_CvkNj4tsHJ6JyArwqhr9vUXMXBC2T6aNJsoVCQulnENwKAzz0F7eFxw_XwiC423K9yHxDf4bhcg4T1u5h-ENgwceMeJ08iLGJbmxVK2w5kdmiEO4jbAfcaSOAMOk9W_1BBS_Did7v3MsBO2AOCNp3SsQvaXx2s9iDm7TFmeGma2sdaAoojRSFXLht65hJWSSONz3MMfe1YI2uiHUGvKnAB3wpfxHeF8vyk2_D7uVpxypqtSSGDuMcablEXCDsmmY-ObLgP8M1E54ohxL6QUTi-_v1AV6hBxjnJCfQ_WLvRQpQaNZWOJz6isE-r2ftsiwTcm6IUqN24m85n0lSQiJxpTA_uMP7HF_SEUtuWPpeIX5yyFQZqd3ByXAQJDx2FqSZNvZJ_4iakjpdBkMBaF1xQ7HIwQNJAhKIt7QGuD8gi8yAjbhLbUcx1YHpU2x9yvIpfurKa32BMwNtQG5lhk7onu2ZgJ0d5fFa9k1qxPoeSxGsa2IJNeIUVi8LTh0yW1TADO3Z0BWEVRu9zbkZ6TBu2YhfUDFsjJjgQ8E3VKlHNkedieYgJzdzNS3QtMJVgXDl_c8pE9DbzwIoggthykbY2ZvCjqY8txtxQH9qxVUNHR9skGqwYu-uRaEEmWG97v5-Q2IUfwpEtVqDTv4URjJ9m2MLoeqoiD5g1nfDBUmiRB_IJ9eDrUsuICUoEiIwbIIT_JD1bhKfayGNlb9kdYxcSTMyxUdYlpLw9eVDxAJuaFV0Xu9PvYffHlfY7lHzbe7JM0jMwMOYDvuAQf4RHlQp4C4q4hjllhrmkLqHsQ5_73GzR2YlkjeDBATs4xhJXn4rFESCVNrtlVn1S_O8o7SMpmcbiuJZdlXE-K7Xh9ikG9u9khbx0KgAFRWwEg4c_vS8NoKiH_5SsH9KXRgv6qJte8k43fdU54MhR5T2RmptiMxp70cbd-ItyGunJTIk4hJozcHpK7vtlnfi0J-avdPNsNs7ysTuldSivFuOXuIR9TPlLWq8M60HFT_OpryS3yNqWlrPaPhGhG71oRK-BlsqV95ut980dO4paaOqQ46q6rekQxUFMrtx5ZJMpTYwqx5EFFbb7ThzFJuvV9YuVuDK5VqB]--></g></svg>