<svg xmlns="http://www.w3.org/2000/svg" xmlns:xlink="http://www.w3.org/1999/xlink" contentStyleType="text/css" height="1941px" preserveAspectRatio="none" style="width:1394px;height:1941px;background:#FFFFFF;" version="1.1" viewBox="0 0 1394 1941" width="1394px" zoomAndPan="magnify"><defs/><g><text fill="#000000" font-family="Verdana" font-size="22" font-weight="bold" lengthAdjust="spacing" textLength="654" x="368.75" y="37.1182">Normal Account Insert By Sport - SP Insert Detailed</text><ellipse cx="227" cy="62.7373" fill="#FFFFFF" rx="10" ry="10" style="stroke:#000000;stroke-width:1.0;"/><path d="M419,82.7373 L419,107.4363 L399,111.4363 L419,115.4363 L419,140.1353 A0,0 0 0 0 419,140.1353 L706,140.1353 A0,0 0 0 0 706,140.1353 L706,92.7373 L696,82.7373 L419,82.7373 A0,0 0 0 0 419,82.7373 " fill="#FFFFFF" style="stroke:#000000;stroke-width:1.0;"/><path d="M696,82.7373 L696,92.7373 L706,92.7373 L696,82.7373 " fill="#FFFFFF" style="stroke:#000000;stroke-width:1.0;"/><text fill="#000000" font-family="Verdana" font-size="13" lengthAdjust="spacing" textLength="245" x="425" y="100.8071">Database: CTS_DataCenter (MySQL)</text><text fill="#000000" font-family="Verdana" font-size="13" lengthAdjust="spacing" textLength="266" x="425" y="116.6064">InputFlowID: 332 (BySportInsertNormal)</text><text fill="#000000" font-family="Verdana" font-size="13" lengthAdjust="spacing" textLength="231" x="425" y="132.4058">CustInfo: JSON array of customers</text><rect fill="#FFFFFF" height="34.584" rx="12.5" ry="12.5" style="stroke:#000000;stroke-width:1.0;" width="344" x="55" y="94.1443"/><text fill="#000000" font-family="Verdana" font-size="12" lengthAdjust="spacing" textLength="324" x="65" y="116.2087">Call SP: CTS_DC_CustClassification_BySport_Insert</text><rect fill="#FFFFFF" height="427.4238" style="stroke:#000000;stroke-width:1.0;" width="1300" x="17.5" y="150.1353"/><path d="M141.5,150.1353 L141.5,160.1499 L131.5,170.1499 L17.5,170.1499 " fill="none" style="stroke:#000000;stroke-width:1.0;"/><text fill="#000000" font-family="Verdana" font-size="14" lengthAdjust="spacing" textLength="114" x="20.5" y="165.2104">STEP 1: GetInfo</text><path d="M446.5,191.5422 L446.5,200.4419 L426.5,204.4419 L446.5,208.4419 L446.5,217.3416 A0,0 0 0 0 446.5,217.3416 L709.5,217.3416 A0,0 0 0 0 709.5,217.3416 L709.5,201.5422 L699.5,191.5422 L446.5,191.5422 A0,0 0 0 0 446.5,191.5422 " fill="#FFFFFF" style="stroke:#000000;stroke-width:1.0;"/><path d="M699.5,191.5422 L699.5,201.5422 L709.5,201.5422 L699.5,191.5422 " fill="#FFFFFF" style="stroke:#000000;stroke-width:1.0;"/><text fill="#000000" font-family="Verdana" font-size="13" lengthAdjust="spacing" textLength="242" x="452.5" y="209.6121">Parse JSON and prepare temp tables</text><rect fill="#FFFFFF" height="34.584" rx="12.5" ry="12.5" style="stroke:#000000;stroke-width:1.0;" width="399" x="27.5" y="187.1499"/><text fill="#000000" font-family="Verdana" font-size="12" lengthAdjust="spacing" textLength="379" x="37.5" y="209.2144">Call SP: CTS_DC_CustClassification_BySport_Insert_GetInfo</text><path d="M374.5,246.1262 L374.5,255.0259 L354.5,259.0259 L374.5,263.0259 L374.5,271.9255 A0,0 0 0 0 374.5,271.9255 L1307.5,271.9255 A0,0 0 0 0 1307.5,271.9255 L1307.5,256.1262 L1297.5,246.1262 L374.5,246.1262 A0,0 0 0 0 374.5,246.1262 " fill="#FFFFFF" style="stroke:#000000;stroke-width:1.0;"/><path d="M1297.5,246.1262 L1297.5,256.1262 L1307.5,256.1262 L1297.5,246.1262 " fill="#FFFFFF" style="stroke:#000000;stroke-width:1.0;"/><text fill="#000000" font-family="Verdana" font-size="13" lengthAdjust="spacing" textLength="912" x="380.5" y="264.196">Columns: CustID, CTSCustID, SportID, DWCategoryID, TurnoverRM, WinlossRM, BetCount, ActiveDays, PerformanceTime, SpecialCC, etc.</text><rect fill="#FFFFFF" height="34.584" rx="12.5" ry="12.5" style="stroke:#000000;stroke-width:1.0;" width="255" x="99.5" y="241.7339"/><text fill="#000000" font-family="Verdana" font-size="12" lengthAdjust="spacing" textLength="235" x="109.5" y="263.7983">Create Temp_NewClassification table</text><path d="M335,300.7102 L335,309.6099 L315,313.6099 L335,317.6099 L335,326.5095 A0,0 0 0 0 335,326.5095 L1069,326.5095 A0,0 0 0 0 1069,326.5095 L1069,310.7102 L1059,300.7102 L335,300.7102 A0,0 0 0 0 335,300.7102 " fill="#FFFFFF" style="stroke:#000000;stroke-width:1.0;"/><path d="M1059,300.7102 L1059,310.7102 L1069,310.7102 L1059,300.7102 " fill="#FFFFFF" style="stroke:#000000;stroke-width:1.0;"/><text fill="#000000" font-family="Verdana" font-size="13" lengthAdjust="spacing" textLength="713" x="341" y="318.78">Extract: CustID, SportID, DWCategoryID, TurnoverRM, WinlossRM, BetCount, ActiveDays, PerformanceTime</text><rect fill="#FFFFFF" height="34.584" rx="12.5" ry="12.5" style="stroke:#000000;stroke-width:1.0;" width="176" x="139" y="296.3179"/><text fill="#000000" font-family="Verdana" font-size="12" lengthAdjust="spacing" textLength="156" x="149" y="318.3823">Parse JSON customer list</text><path d="M385.5,347.3945 L385.5,364.1938 L365.5,368.1938 L385.5,372.1938 L385.5,388.9932 A0,0 0 0 0 385.5,388.9932 L682.5,388.9932 A0,0 0 0 0 682.5,388.9932 L682.5,357.3945 L672.5,347.3945 L385.5,347.3945 A0,0 0 0 0 385.5,347.3945 " fill="#FFFFFF" style="stroke:#000000;stroke-width:1.0;"/><path d="M672.5,347.3945 L672.5,357.3945 L682.5,357.3945 L672.5,347.3945 " fill="#FFFFFF" style="stroke:#000000;stroke-width:1.0;"/><text fill="#000000" font-family="Verdana" font-size="13" lengthAdjust="spacing" textLength="136" x="391.5" y="365.4644">Table: CTSCustomer</text><text fill="#000000" font-family="Verdana" font-size="13" lengthAdjust="spacing" textLength="276" x="391.5" y="381.2637">Join: CustID = CustID AND CustSubID = 0</text><rect fill="#FFFFFF" height="34.584" rx="12.5" ry="12.5" style="stroke:#000000;stroke-width:1.0;" width="277" x="88.5" y="350.9019"/><text fill="#000000" font-family="Verdana" font-size="12" lengthAdjust="spacing" textLength="257" x="98.5" y="372.9663">Join with CTSCustomer to get CTSCustID</text><path d="M438.5,398.9932 L438.5,423.6921 L418.5,427.6921 L438.5,431.6921 L438.5,456.3911 A0,0 0 0 0 438.5,456.3911 L758.5,456.3911 A0,0 0 0 0 758.5,456.3911 L758.5,408.9932 L748.5,398.9932 L438.5,398.9932 A0,0 0 0 0 438.5,398.9932 " fill="#FFFFFF" style="stroke:#000000;stroke-width:1.0;"/><path d="M748.5,398.9932 L748.5,408.9932 L758.5,408.9932 L748.5,398.9932 " fill="#FFFFFF" style="stroke:#000000;stroke-width:1.0;"/><text fill="#000000" font-family="Verdana" font-size="13" lengthAdjust="spacing" textLength="250" x="444.5" y="417.063">Table: SpecialCustomerClass_BySport</text><text fill="#000000" font-family="Verdana" font-size="13" lengthAdjust="spacing" textLength="299" x="444.5" y="432.8623">Join: CustID = CustID AND SportID = SportID</text><text fill="#000000" font-family="Verdana" font-size="13" lengthAdjust="spacing" textLength="220" x="444.5" y="448.6616">Get: CustomerClass as SpecialCC</text><rect fill="#FFFFFF" height="34.584" rx="12.5" ry="12.5" style="stroke:#000000;stroke-width:1.0;" width="383" x="35.5" y="410.4001"/><text fill="#000000" font-family="Verdana" font-size="12" lengthAdjust="spacing" textLength="363" x="45.5" y="432.4646">Join with SpecialCustomerClass_BySport to get SpecialCC</text><path d="M404.5,480.7834 L404.5,489.6831 L384.5,493.6831 L404.5,497.6831 L404.5,506.5828 A0,0 0 0 0 404.5,506.5828 L1163.5,506.5828 A0,0 0 0 0 1163.5,506.5828 L1163.5,490.7834 L1153.5,480.7834 L404.5,480.7834 A0,0 0 0 0 404.5,480.7834 " fill="#FFFFFF" style="stroke:#000000;stroke-width:1.0;"/><path d="M1153.5,480.7834 L1153.5,490.7834 L1163.5,490.7834 L1153.5,480.7834 " fill="#FFFFFF" style="stroke:#000000;stroke-width:1.0;"/><text fill="#000000" font-family="Verdana" font-size="13" lengthAdjust="spacing" textLength="738" x="410.5" y="498.8533">Check: EXISTS (SELECT 1 FROM CTSCustomerClassification_BySport WHERE ParentID = CONST_PARENTID_PA)</text><rect fill="#FFFFFF" height="34.584" rx="12.5" ry="12.5" style="stroke:#000000;stroke-width:1.0;" width="315" x="69.5" y="476.3911"/><text fill="#000000" font-family="Verdana" font-size="12" lengthAdjust="spacing" textLength="295" x="79.5" y="498.4556">Mark IsExistPA if customer has PA classification</text><path d="M368,535.3674 L368,544.2671 L348,548.2671 L368,552.2671 L368,561.1667 A0,0 0 0 0 368,561.1667 L565,561.1667 A0,0 0 0 0 565,561.1667 L565,545.3674 L555,535.3674 L368,535.3674 A0,0 0 0 0 368,535.3674 " fill="#FFFFFF" style="stroke:#000000;stroke-width:1.0;"/><path d="M555,535.3674 L555,545.3674 L565,545.3674 L555,535.3674 " fill="#FFFFFF" style="stroke:#000000;stroke-width:1.0;"/><text fill="#000000" font-family="Verdana" font-size="13" lengthAdjust="spacing" textLength="176" x="374" y="553.4373">Filter: DWCategoryID &lt;&gt; 0</text><rect fill="#FFFFFF" height="34.584" rx="12.5" ry="12.5" style="stroke:#000000;stroke-width:1.0;" width="242" x="106" y="530.9751"/><text fill="#000000" font-family="Verdana" font-size="12" lengthAdjust="spacing" textLength="222" x="116" y="553.0396">Insert into Temp_NewClassification</text><rect fill="#FFFFFF" height="346.8691" style="stroke:#000000;stroke-width:1.0;" width="933" x="6" y="587.5591"/><path d="M280,587.5591 L280,597.5737 L270,607.5737 L6,607.5737 " fill="none" style="stroke:#000000;stroke-width:1.0;"/><text fill="#000000" font-family="Verdana" font-size="14" lengthAdjust="spacing" textLength="264" x="9" y="602.6343">STEP 2: PreProcess (Only for Normal)</text><path d="M458,628.9661 L458,637.8657 L438,641.8657 L458,645.8657 L458,654.7654 A0,0 0 0 0 458,654.7654 L829,654.7654 A0,0 0 0 0 829,654.7654 L829,638.9661 L819,628.9661 L458,628.9661 A0,0 0 0 0 458,628.9661 " fill="#FFFFFF" style="stroke:#000000;stroke-width:1.0;"/><path d="M819,628.9661 L819,638.9661 L829,638.9661 L819,628.9661 " fill="#FFFFFF" style="stroke:#000000;stroke-width:1.0;"/><text fill="#000000" font-family="Verdana" font-size="13" lengthAdjust="spacing" textLength="350" x="464" y="647.0359">Only called when InputFlowID = BySportInsertNormal</text><rect fill="#FFFFFF" height="34.584" rx="12.5" ry="12.5" style="stroke:#000000;stroke-width:1.0;" width="422" x="16" y="624.5737"/><text fill="#000000" font-family="Verdana" font-size="12" lengthAdjust="spacing" textLength="402" x="26" y="646.6382">Call SP: CTS_DC_CustClassification_BySport_Insert_PreProcess</text><path d="M341.5,683.55 L341.5,692.4497 L321.5,696.4497 L341.5,700.4497 L341.5,709.3494 A0,0 0 0 0 341.5,709.3494 L790.5,709.3494 A0,0 0 0 0 790.5,709.3494 L790.5,693.55 L780.5,683.55 L341.5,683.55 A0,0 0 0 0 341.5,683.55 " fill="#FFFFFF" style="stroke:#000000;stroke-width:1.0;"/><path d="M780.5,683.55 L780.5,693.55 L790.5,693.55 L780.5,683.55 " fill="#FFFFFF" style="stroke:#000000;stroke-width:1.0;"/><text fill="#000000" font-family="Verdana" font-size="13" lengthAdjust="spacing" textLength="428" x="347.5" y="701.6199">Call: CTS_DC_ExcludeCustByCondition('Temp_NewClassification')</text><rect fill="#FFFFFF" height="34.584" rx="12.5" ry="12.5" style="stroke:#000000;stroke-width:1.0;" width="189" x="132.5" y="679.1577"/><text fill="#000000" font-family="Verdana" font-size="12" lengthAdjust="spacing" textLength="169" x="142.5" y="701.2222">Exclude internal customers</text><path d="M343,723.7417 L343,756.3403 L323,760.3403 L343,764.3403 L343,796.939 A0,0 0 0 0 343,796.939 L929,796.939 A0,0 0 0 0 929,796.939 L929,733.7417 L919,723.7417 L343,723.7417 A0,0 0 0 0 343,723.7417 " fill="#FFFFFF" style="stroke:#000000;stroke-width:1.0;"/><path d="M919,723.7417 L919,733.7417 L929,733.7417 L919,723.7417 " fill="#FFFFFF" style="stroke:#000000;stroke-width:1.0;"/><text fill="#000000" font-family="Verdana" font-size="13" lengthAdjust="spacing" textLength="260" x="349" y="741.8115">Get customers with Probation category</text><text fill="#000000" font-family="Verdana" font-size="13" lengthAdjust="spacing" textLength="190" x="349" y="757.6108">Check if pass probation rule:</text><text fill="#000000" font-family="Verdana" font-size="13" lengthAdjust="spacing" textLength="355" x="349" y="773.4102">- ProbationDate &gt;= ToProbationLastDay (2 days ago)</text><text fill="#000000" font-family="Verdana" font-size="13" lengthAdjust="spacing" textLength="565" x="349" y="789.2095">- OR (NewCategory is Probation/Smart/Risky AND ProbationDate &gt; LastProbationDay)</text><rect fill="#FFFFFF" height="34.584" rx="12.5" ry="12.5" style="stroke:#000000;stroke-width:1.0;" width="192" x="131" y="743.0483"/><text fill="#000000" font-family="Verdana" font-size="12" lengthAdjust="spacing" textLength="172" x="141" y="765.1128">Check probation customers</text><path d="M374.5,806.939 L374.5,831.6379 L354.5,835.6379 L374.5,839.6379 L374.5,864.3369 A0,0 0 0 0 374.5,864.3369 L869.5,864.3369 A0,0 0 0 0 869.5,864.3369 L869.5,816.939 L859.5,806.939 L374.5,806.939 A0,0 0 0 0 374.5,806.939 " fill="#FFFFFF" style="stroke:#000000;stroke-width:1.0;"/><path d="M859.5,806.939 L859.5,816.939 L869.5,816.939 L859.5,806.939 " fill="#FFFFFF" style="stroke:#000000;stroke-width:1.0;"/><text fill="#000000" font-family="Verdana" font-size="13" lengthAdjust="spacing" textLength="474" x="380.5" y="825.0088">- CONST_ACTIONTYPE_IGNOREPROBATION (5): Not pass probation rule</text><text fill="#000000" font-family="Verdana" font-size="13" lengthAdjust="spacing" textLength="460" x="380.5" y="840.8081">- CONST_ACTIONTYPE_EXISTEDPA (3): Has existing PA classification</text><text fill="#000000" font-family="Verdana" font-size="13" lengthAdjust="spacing" textLength="278" x="380.5" y="856.6074">Set IsDataChanged = 0, IsReturnData = 0</text><rect fill="#FFFFFF" height="34.584" rx="12.5" ry="12.5" style="stroke:#000000;stroke-width:1.0;" width="255" x="99.5" y="818.3459"/><text fill="#000000" font-family="Verdana" font-size="12" lengthAdjust="spacing" textLength="235" x="109.5" y="840.4104">Set ActionType for ignored customers</text><path d="M409,880.8296 L409,897.6289 L389,901.6289 L409,905.6289 L409,922.4282 A0,0 0 0 0 409,922.4282 L886,922.4282 A0,0 0 0 0 886,922.4282 L886,890.8296 L876,880.8296 L409,880.8296 A0,0 0 0 0 409,880.8296 " fill="#FFFFFF" style="stroke:#000000;stroke-width:1.0;"/><path d="M876,880.8296 L876,890.8296 L886,890.8296 L876,880.8296 " fill="#FFFFFF" style="stroke:#000000;stroke-width:1.0;"/><text fill="#000000" font-family="Verdana" font-size="13" lengthAdjust="spacing" textLength="456" x="415" y="898.8994">If DWCategoryID = Probation AND ProbationDate &lt; LastProbationDay</text><text fill="#000000" font-family="Verdana" font-size="13" lengthAdjust="spacing" textLength="317" x="415" y="914.6987">Set: IsDataChanged = 0, ActionType = UPDATE</text><rect fill="#FFFFFF" height="34.584" rx="12.5" ry="12.5" style="stroke:#000000;stroke-width:1.0;" width="324" x="65" y="884.3369"/><text fill="#000000" font-family="Verdana" font-size="12" lengthAdjust="spacing" textLength="304" x="75" y="906.4014">Update IsDataChanged for probation customers</text><rect fill="#FFFFFF" height="563.4351" style="stroke:#000000;stroke-width:1.0;" width="1093" x="16.5" y="944.4282"/><path d="M141.5,944.4282 L141.5,954.4429 L131.5,964.4429 L16.5,964.4429 " fill="none" style="stroke:#000000;stroke-width:1.0;"/><text fill="#000000" font-family="Verdana" font-size="14" lengthAdjust="spacing" textLength="115" x="19.5" y="959.5034">STEP 3: Process</text><path d="M447.5,985.8352 L447.5,994.7349 L427.5,998.7349 L447.5,1002.7349 L447.5,1011.6345 A0,0 0 0 0 447.5,1011.6345 L668.5,1011.6345 A0,0 0 0 0 668.5,1011.6345 L668.5,995.8352 L658.5,985.8352 L447.5,985.8352 A0,0 0 0 0 447.5,985.8352 " fill="#FFFFFF" style="stroke:#000000;stroke-width:1.0;"/><path d="M658.5,985.8352 L658.5,995.8352 L668.5,995.8352 L658.5,985.8352 " fill="#FFFFFF" style="stroke:#000000;stroke-width:1.0;"/><text fill="#000000" font-family="Verdana" font-size="13" lengthAdjust="spacing" textLength="200" x="453.5" y="1003.905">Process normal account insert</text><rect fill="#FFFFFF" height="34.584" rx="12.5" ry="12.5" style="stroke:#000000;stroke-width:1.0;" width="401" x="26.5" y="981.4429"/><text fill="#000000" font-family="Verdana" font-size="12" lengthAdjust="spacing" textLength="381" x="36.5" y="1003.5073">Call SP: CTS_DC_CustClassification_BySport_Insert_Process</text><path d="M327,1032.5195 L327,1049.3188 L307,1053.3188 L327,1057.3188 L327,1074.1182 A0,0 0 0 0 327,1074.1182 L684,1074.1182 A0,0 0 0 0 684,1074.1182 L684,1042.5195 L674,1032.5195 L327,1032.5195 A0,0 0 0 0 327,1032.5195 " fill="#FFFFFF" style="stroke:#000000;stroke-width:1.0;"/><path d="M674,1032.5195 L674,1042.5195 L684,1042.5195 L674,1032.5195 " fill="#FFFFFF" style="stroke:#000000;stroke-width:1.0;"/><text fill="#000000" font-family="Verdana" font-size="13" lengthAdjust="spacing" textLength="336" x="333" y="1050.5894">Table: CTSCustomerClassification_BySport_History</text><text fill="#000000" font-family="Verdana" font-size="13" lengthAdjust="spacing" textLength="213" x="333" y="1066.3887">Get: Last CategoryID, TargetCC</text><rect fill="#FFFFFF" height="34.584" rx="12.5" ry="12.5" style="stroke:#000000;stroke-width:1.0;" width="160" x="147" y="1036.0269"/><text fill="#000000" font-family="Verdana" font-size="12" lengthAdjust="spacing" textLength="140" x="157" y="1058.0913">Get last history record</text><path d="M366.5,1090.6108 L366.5,1107.4102 L346.5,1111.4102 L366.5,1115.4102 L366.5,1132.2095 A0,0 0 0 0 366.5,1132.2095 L818.5,1132.2095 A0,0 0 0 0 818.5,1132.2095 L818.5,1100.6108 L808.5,1090.6108 L366.5,1090.6108 A0,0 0 0 0 366.5,1090.6108 " fill="#FFFFFF" style="stroke:#000000;stroke-width:1.0;"/><path d="M808.5,1090.6108 L808.5,1100.6108 L818.5,1100.6108 L808.5,1090.6108 " fill="#FFFFFF" style="stroke:#000000;stroke-width:1.0;"/><text fill="#000000" font-family="Verdana" font-size="13" lengthAdjust="spacing" textLength="376" x="372.5" y="1108.6807">If last history TargetCC = -1 OR CategoryID = SpecialCC</text><text fill="#000000" font-family="Verdana" font-size="13" lengthAdjust="spacing" textLength="431" x="372.5" y="1124.48">Set: ActionType = CONST_ACTIONTYPE_RESCAN_CHANGECC (6)</text><rect fill="#FFFFFF" height="34.584" rx="12.5" ry="12.5" style="stroke:#000000;stroke-width:1.0;" width="239" x="107.5" y="1094.1182"/><text fill="#000000" font-family="Verdana" font-size="12" lengthAdjust="spacing" textLength="219" x="117.5" y="1116.1826">Check if need to remove SpecialCC</text><path d="M404.5,1148.7021 L404.5,1165.5015 L384.5,1169.5015 L404.5,1173.5015 L404.5,1190.3008 A0,0 0 0 0 404.5,1190.3008 L680.5,1190.3008 A0,0 0 0 0 680.5,1190.3008 L680.5,1158.7021 L670.5,1148.7021 L404.5,1148.7021 A0,0 0 0 0 404.5,1148.7021 " fill="#FFFFFF" style="stroke:#000000;stroke-width:1.0;"/><path d="M670.5,1148.7021 L670.5,1158.7021 L680.5,1158.7021 L670.5,1148.7021 " fill="#FFFFFF" style="stroke:#000000;stroke-width:1.0;"/><text fill="#000000" font-family="Verdana" font-size="13" lengthAdjust="spacing" textLength="255" x="410.5" y="1166.772">NewCategoryGroupID = DWCategoryID</text><text fill="#000000" font-family="Verdana" font-size="13" lengthAdjust="spacing" textLength="217" x="410.5" y="1182.5713">NewCategoryID = DWCategoryID</text><rect fill="#FFFFFF" height="34.584" rx="12.5" ry="12.5" style="stroke:#000000;stroke-width:1.0;" width="315" x="69.5" y="1152.2095"/><text fill="#000000" font-family="Verdana" font-size="12" lengthAdjust="spacing" textLength="295" x="79.5" y="1174.2739">Set NewCategoryID and NewCategoryGroupID</text><path d="M321,1200.3008 L321,1224.9998 L301,1228.9998 L321,1232.9998 L321,1257.6987 A0,0 0 0 0 321,1257.6987 L635,1257.6987 A0,0 0 0 0 635,1257.6987 L635,1210.3008 L625,1200.3008 L321,1200.3008 A0,0 0 0 0 321,1200.3008 " fill="#FFFFFF" style="stroke:#000000;stroke-width:1.0;"/><path d="M625,1200.3008 L625,1210.3008 L635,1210.3008 L625,1200.3008 " fill="#FFFFFF" style="stroke:#000000;stroke-width:1.0;"/><text fill="#000000" font-family="Verdana" font-size="13" lengthAdjust="spacing" textLength="282" x="327" y="1218.3706">Table: CTSCustomerClassification_BySport</text><text fill="#000000" font-family="Verdana" font-size="13" lengthAdjust="spacing" textLength="293" x="327" y="1234.1699">Join: ParentID = CONST_PARENTID_NORMAL</text><text fill="#000000" font-family="Verdana" font-size="13" lengthAdjust="spacing" textLength="272" x="327" y="1249.9692">Get: OldCategoryID, OldCategoryGroupID</text><rect fill="#FFFFFF" height="34.584" rx="12.5" ry="12.5" style="stroke:#000000;stroke-width:1.0;" width="148" x="153" y="1211.7078"/><text fill="#000000" font-family="Verdana" font-size="12" lengthAdjust="spacing" textLength="128" x="163" y="1233.7722">Get old classification</text><path d="M322,1267.6987 L322,1292.3977 L302,1296.3977 L322,1300.3977 L322,1325.0967 A0,0 0 0 0 322,1325.0967 L828,1325.0967 A0,0 0 0 0 828,1325.0967 L828,1277.6987 L818,1267.6987 L322,1267.6987 A0,0 0 0 0 322,1267.6987 " fill="#FFFFFF" style="stroke:#000000;stroke-width:1.0;"/><path d="M818,1267.6987 L818,1277.6987 L828,1277.6987 L818,1267.6987 " fill="#FFFFFF" style="stroke:#000000;stroke-width:1.0;"/><text fill="#000000" font-family="Verdana" font-size="13" lengthAdjust="spacing" textLength="485" x="328" y="1285.7686">- INSERT (0): IsDataChanged = 1 AND NewCategoryID &lt;&gt; OldCategoryID</text><text fill="#000000" font-family="Verdana" font-size="13" lengthAdjust="spacing" textLength="480" x="328" y="1301.5679">- UPDATE (1): IsDataChanged = 1 AND NewCategoryID = OldCategoryID</text><text fill="#000000" font-family="Verdana" font-size="13" lengthAdjust="spacing" textLength="300" x="328" y="1317.3672">- RESCAN_CHANGECC (6): Remove SpecialCC</text><rect fill="#FFFFFF" height="34.584" rx="12.5" ry="12.5" style="stroke:#000000;stroke-width:1.0;" width="150" x="152" y="1279.1057"/><text fill="#000000" font-family="Verdana" font-size="12" lengthAdjust="spacing" textLength="130" x="162" y="1301.1702">Calculate ActionType</text><path d="M331.5,1341.5894 L331.5,1358.3887 L311.5,1362.3887 L331.5,1366.3887 L331.5,1383.188 A0,0 0 0 0 331.5,1383.188 L1099.5,1383.188 A0,0 0 0 0 1099.5,1383.188 L1099.5,1351.5894 L1089.5,1341.5894 L331.5,1341.5894 A0,0 0 0 0 331.5,1341.5894 " fill="#FFFFFF" style="stroke:#000000;stroke-width:1.0;"/><path d="M1089.5,1341.5894 L1089.5,1351.5894 L1099.5,1351.5894 L1089.5,1341.5894 " fill="#FFFFFF" style="stroke:#000000;stroke-width:1.0;"/><text fill="#000000" font-family="Verdana" font-size="13" lengthAdjust="spacing" textLength="747" x="337.5" y="1359.6592">- CONST_SOURCETYPE_LESSTHAN10TICKETS (1): OldCategoryGroupID = NEW AND NewCategoryGroupID = NEW</text><text fill="#000000" font-family="Verdana" font-size="13" lengthAdjust="spacing" textLength="597" x="337.5" y="1375.4585">- CONST_SOURCETYPE_SAMECATEGORY (0): OldCategoryGroupID = NewCategoryGroupID</text><rect fill="#FFFFFF" height="34.584" rx="12.5" ry="12.5" style="stroke:#000000;stroke-width:1.0;" width="169" x="142.5" y="1345.0967"/><text fill="#000000" font-family="Verdana" font-size="12" lengthAdjust="spacing" textLength="149" x="152.5" y="1367.1611">Calculate SourceTypeID</text><path d="M299,1407.5803 L299,1416.48 L279,1420.48 L299,1424.48 L299,1433.3796 A0,0 0 0 0 299,1433.3796 L782,1433.3796 A0,0 0 0 0 782,1433.3796 L782,1417.5803 L772,1407.5803 L299,1407.5803 A0,0 0 0 0 299,1407.5803 " fill="#FFFFFF" style="stroke:#000000;stroke-width:1.0;"/><path d="M772,1407.5803 L772,1417.5803 L782,1417.5803 L772,1407.5803 " fill="#FFFFFF" style="stroke:#000000;stroke-width:1.0;"/><text fill="#000000" font-family="Verdana" font-size="13" lengthAdjust="spacing" textLength="462" x="305" y="1425.6501">TargetCC = IFNULL(SpecialCC, CustomerClass from CategoryMapping)</text><rect fill="#FFFFFF" height="34.584" rx="12.5" ry="12.5" style="stroke:#000000;stroke-width:1.0;" width="104" x="175" y="1403.188"/><text fill="#000000" font-family="Verdana" font-size="12" lengthAdjust="spacing" textLength="84" x="185" y="1425.2524">Set TargetCC</text><path d="M331.5,1454.2646 L331.5,1471.064 L311.5,1475.064 L331.5,1479.064 L331.5,1495.8633 A0,0 0 0 0 331.5,1495.8633 L903.5,1495.8633 A0,0 0 0 0 903.5,1495.8633 L903.5,1464.2646 L893.5,1454.2646 L331.5,1454.2646 A0,0 0 0 0 331.5,1454.2646 " fill="#FFFFFF" style="stroke:#000000;stroke-width:1.0;"/><path d="M893.5,1454.2646 L893.5,1464.2646 L903.5,1464.2646 L893.5,1454.2646 " fill="#FFFFFF" style="stroke:#000000;stroke-width:1.0;"/><text fill="#000000" font-family="Verdana" font-size="13" lengthAdjust="spacing" textLength="551" x="337.5" y="1472.3345">If ActionType = UPDATE/RESCAN_CHANGECC AND NewCategoryID = OldCategoryID</text><text fill="#000000" font-family="Verdana" font-size="13" lengthAdjust="spacing" textLength="161" x="337.5" y="1488.1338">Set: IsDataChanged = 0</text><rect fill="#FFFFFF" height="34.584" rx="12.5" ry="12.5" style="stroke:#000000;stroke-width:1.0;" width="169" x="142.5" y="1457.772"/><text fill="#000000" font-family="Verdana" font-size="12" lengthAdjust="spacing" textLength="149" x="152.5" y="1479.8364">Update IsDataChanged</text><rect fill="#FFFFFF" height="308.0845" style="stroke:#000000;stroke-width:1.0;" width="1377.5" x="11" y="1517.8633"/><path d="M148,1517.8633 L148,1527.8779 L138,1537.8779 L11,1537.8779 " fill="none" style="stroke:#000000;stroke-width:1.0;"/><text fill="#000000" font-family="Verdana" font-size="14" lengthAdjust="spacing" textLength="127" x="14" y="1532.9385">STEP 4: Complete</text><path d="M453,1559.2703 L453,1568.1699 L433,1572.1699 L453,1576.1699 L453,1585.0696 A0,0 0 0 0 453,1585.0696 L657,1585.0696 A0,0 0 0 0 657,1585.0696 L657,1569.2703 L647,1559.2703 L453,1559.2703 A0,0 0 0 0 453,1559.2703 " fill="#FFFFFF" style="stroke:#000000;stroke-width:1.0;"/><path d="M647,1559.2703 L647,1569.2703 L657,1569.2703 L647,1559.2703 " fill="#FFFFFF" style="stroke:#000000;stroke-width:1.0;"/><text fill="#000000" font-family="Verdana" font-size="13" lengthAdjust="spacing" textLength="183" x="459" y="1577.3401">Insert/Update actual tables</text><rect fill="#FFFFFF" height="34.584" rx="12.5" ry="12.5" style="stroke:#000000;stroke-width:1.0;" width="412" x="21" y="1554.8779"/><text fill="#000000" font-family="Verdana" font-size="12" lengthAdjust="spacing" textLength="392" x="31" y="1576.9424">Call SP: CTS_DC_CustClassification_BySport_Insert_Complete</text><path d="M415.5,1599.4619 L415.5,1639.9602 L395.5,1643.9602 L415.5,1647.9602 L415.5,1688.4585 A0,0 0 0 0 415.5,1688.4585 L1378.5,1688.4585 A0,0 0 0 0 1378.5,1688.4585 L1378.5,1609.4619 L1368.5,1599.4619 L415.5,1599.4619 A0,0 0 0 0 415.5,1599.4619 " fill="#FFFFFF" style="stroke:#000000;stroke-width:1.0;"/><path d="M1368.5,1599.4619 L1368.5,1609.4619 L1378.5,1609.4619 L1368.5,1599.4619 " fill="#FFFFFF" style="stroke:#000000;stroke-width:1.0;"/><text fill="#000000" font-family="Verdana" font-size="13" lengthAdjust="spacing" textLength="282" x="421.5" y="1617.5317">Table: CTSCustomerClassification_BySport</text><text fill="#000000" font-family="Verdana" font-size="13" lengthAdjust="spacing" textLength="240" x="421.5" y="1633.3311">For records with IsDataChanged = 1</text><text fill="#000000" font-family="Verdana" font-size="13" lengthAdjust="spacing" textLength="151" x="421.5" y="1649.1304">- INSERT: If not exists</text><text fill="#000000" font-family="Verdana" font-size="13" lengthAdjust="spacing" textLength="402" x="421.5" y="1664.9297">- UPDATE: If exists (ParentID = CONST_PARENTID_NORMAL)</text><text fill="#000000" font-family="Verdana" font-size="13" lengthAdjust="spacing" textLength="942" x="421.5" y="1680.729">Fields: CustID, SportID, CategoryID, ParentID, TargetCC, TurnoverRM, WinlossRM, BetCount, ActiveDays, PerformanceTime, LastModifiedDate</text><rect fill="#FFFFFF" height="34.584" rx="12.5" ry="12.5" style="stroke:#000000;stroke-width:1.0;" width="337" x="58.5" y="1626.6682"/><text fill="#000000" font-family="Verdana" font-size="12" lengthAdjust="spacing" textLength="317" x="68.5" y="1648.7327">Insert/Update CTSCustomerClassification_BySport</text><path d="M430,1698.4585 L430,1723.1575 L410,1727.1575 L430,1731.1575 L430,1755.8564 A0,0 0 0 0 430,1755.8564 L787,1755.8564 A0,0 0 0 0 787,1755.8564 L787,1708.4585 L777,1698.4585 L430,1698.4585 A0,0 0 0 0 430,1698.4585 " fill="#FFFFFF" style="stroke:#000000;stroke-width:1.0;"/><path d="M777,1698.4585 L777,1708.4585 L787,1708.4585 L777,1698.4585 " fill="#FFFFFF" style="stroke:#000000;stroke-width:1.0;"/><text fill="#000000" font-family="Verdana" font-size="13" lengthAdjust="spacing" textLength="336" x="436" y="1716.5283">Table: CTSCustomerClassification_BySport_History</text><text fill="#000000" font-family="Verdana" font-size="13" lengthAdjust="spacing" textLength="238" x="436" y="1732.3276">Insert history record for all changes</text><text fill="#000000" font-family="Verdana" font-size="13" lengthAdjust="spacing" textLength="289" x="436" y="1748.127">Fields: ActionType, Remark, TargetCC, etc.</text><rect fill="#FFFFFF" height="34.584" rx="12.5" ry="12.5" style="stroke:#000000;stroke-width:1.0;" width="366" x="44" y="1709.8655"/><text fill="#000000" font-family="Verdana" font-size="12" lengthAdjust="spacing" textLength="346" x="54" y="1731.9299">Insert into CTSCustomerClassification_BySport_History</text><path d="M419.5,1772.3491 L419.5,1789.1484 L399.5,1793.1484 L419.5,1797.1484 L419.5,1813.9478 A0,0 0 0 0 419.5,1813.9478 L753.5,1813.9478 A0,0 0 0 0 753.5,1813.9478 L753.5,1782.3491 L743.5,1772.3491 L419.5,1772.3491 A0,0 0 0 0 419.5,1772.3491 " fill="#FFFFFF" style="stroke:#000000;stroke-width:1.0;"/><path d="M743.5,1772.3491 L743.5,1782.3491 L753.5,1782.3491 L743.5,1772.3491 " fill="#FFFFFF" style="stroke:#000000;stroke-width:1.0;"/><text fill="#000000" font-family="Verdana" font-size="13" lengthAdjust="spacing" textLength="313" x="425.5" y="1790.4189">Table: CTSCustomerClassification_BySport_Log</text><text fill="#000000" font-family="Verdana" font-size="13" lengthAdjust="spacing" textLength="110" x="425.5" y="1806.2183">Insert log record</text><rect fill="#FFFFFF" height="34.584" rx="12.5" ry="12.5" style="stroke:#000000;stroke-width:1.0;" width="345" x="54.5" y="1775.8564"/><text fill="#000000" font-family="Verdana" font-size="12" lengthAdjust="spacing" textLength="325" x="64.5" y="1797.9209">Insert into CTSCustomerClassification_BySport_Log</text><path d="M310.5,1835.9478 L310.5,1860.6467 L290.5,1864.6467 L310.5,1868.6467 L310.5,1893.3457 A0,0 0 0 0 310.5,1893.3457 L626.5,1893.3457 A0,0 0 0 0 626.5,1893.3457 L626.5,1845.9478 L616.5,1835.9478 L310.5,1835.9478 A0,0 0 0 0 310.5,1835.9478 " fill="#FFFFFF" style="stroke:#000000;stroke-width:1.0;"/><path d="M616.5,1835.9478 L616.5,1845.9478 L626.5,1845.9478 L616.5,1835.9478 " fill="#FFFFFF" style="stroke:#000000;stroke-width:1.0;"/><text fill="#000000" font-family="Verdana" font-size="13" lengthAdjust="spacing" textLength="295" x="316.5" y="1854.0176">SELECT: CustID, SportGroup, CustomerClass</text><text fill="#000000" font-family="Verdana" font-size="13" lengthAdjust="spacing" textLength="200" x="316.5" y="1869.8169">FROM Temp_NewClassification</text><text fill="#000000" font-family="Verdana" font-size="13" lengthAdjust="spacing" textLength="164" x="316.5" y="1885.6162">WHERE IsReturnData = 1</text><rect fill="#FFFFFF" height="34.584" rx="12.5" ry="12.5" style="stroke:#000000;stroke-width:1.0;" width="127" x="163.5" y="1847.3547"/><text fill="#000000" font-family="Verdana" font-size="12" lengthAdjust="spacing" textLength="107" x="173.5" y="1869.4192">Return CustInfos</text><ellipse cx="227" cy="1924.3457" fill="none" rx="11" ry="11" style="stroke:#000000;stroke-width:1.0;"/><ellipse cx="227" cy="1924.3457" fill="#FFFFFF" rx="6" ry="6" style="stroke:#000000;stroke-width:1.0;"/><line style="stroke:#000000;stroke-width:1.0;" x1="227" x2="227" y1="72.7373" y2="94.1443"/><polygon fill="#000000" points="223,84.1443,227,94.1443,231,84.1443,227,88.1443" style="stroke:#000000;stroke-width:1.0;"/><line style="stroke:#000000;stroke-width:1.0;" x1="227" x2="227" y1="221.7339" y2="241.7339"/><polygon fill="#000000" points="223,231.7339,227,241.7339,231,231.7339,227,235.7339" style="stroke:#000000;stroke-width:1.0;"/><line style="stroke:#000000;stroke-width:1.0;" x1="227" x2="227" y1="276.3179" y2="296.3179"/><polygon fill="#000000" points="223,286.3179,227,296.3179,231,286.3179,227,290.3179" style="stroke:#000000;stroke-width:1.0;"/><line style="stroke:#000000;stroke-width:1.0;" x1="227" x2="227" y1="330.9019" y2="350.9019"/><polygon fill="#000000" points="223,340.9019,227,350.9019,231,340.9019,227,344.9019" style="stroke:#000000;stroke-width:1.0;"/><line style="stroke:#000000;stroke-width:1.0;" x1="227" x2="227" y1="385.4858" y2="410.4001"/><polygon fill="#000000" points="223,400.4001,227,410.4001,231,400.4001,227,404.4001" style="stroke:#000000;stroke-width:1.0;"/><line style="stroke:#000000;stroke-width:1.0;" x1="227" x2="227" y1="444.9841" y2="476.3911"/><polygon fill="#000000" points="223,466.3911,227,476.3911,231,466.3911,227,470.3911" style="stroke:#000000;stroke-width:1.0;"/><line style="stroke:#000000;stroke-width:1.0;" x1="227" x2="227" y1="510.9751" y2="530.9751"/><polygon fill="#000000" points="223,520.9751,227,530.9751,231,520.9751,227,524.9751" style="stroke:#000000;stroke-width:1.0;"/><line style="stroke:#000000;stroke-width:1.0;" x1="227" x2="227" y1="128.7283" y2="187.1499"/><polygon fill="#000000" points="223,177.1499,227,187.1499,231,177.1499,227,181.1499" style="stroke:#000000;stroke-width:1.0;"/><line style="stroke:#000000;stroke-width:1.0;" x1="227" x2="227" y1="659.1577" y2="679.1577"/><polygon fill="#000000" points="223,669.1577,227,679.1577,231,669.1577,227,673.1577" style="stroke:#000000;stroke-width:1.0;"/><line style="stroke:#000000;stroke-width:1.0;" x1="227" x2="227" y1="713.7417" y2="743.0483"/><polygon fill="#000000" points="223,733.0483,227,743.0483,231,733.0483,227,737.0483" style="stroke:#000000;stroke-width:1.0;"/><line style="stroke:#000000;stroke-width:1.0;" x1="227" x2="227" y1="777.6323" y2="818.3459"/><polygon fill="#000000" points="223,808.3459,227,818.3459,231,808.3459,227,812.3459" style="stroke:#000000;stroke-width:1.0;"/><line style="stroke:#000000;stroke-width:1.0;" x1="227" x2="227" y1="852.9299" y2="884.3369"/><polygon fill="#000000" points="223,874.3369,227,884.3369,231,874.3369,227,878.3369" style="stroke:#000000;stroke-width:1.0;"/><line style="stroke:#000000;stroke-width:1.0;" x1="227" x2="227" y1="565.5591" y2="624.5737"/><polygon fill="#000000" points="223,614.5737,227,624.5737,231,614.5737,227,618.5737" style="stroke:#000000;stroke-width:1.0;"/><line style="stroke:#000000;stroke-width:1.0;" x1="227" x2="227" y1="1016.0269" y2="1036.0269"/><polygon fill="#000000" points="223,1026.0269,227,1036.0269,231,1026.0269,227,1030.0269" style="stroke:#000000;stroke-width:1.0;"/><line style="stroke:#000000;stroke-width:1.0;" x1="227" x2="227" y1="1070.6108" y2="1094.1182"/><polygon fill="#000000" points="223,1084.1182,227,1094.1182,231,1084.1182,227,1088.1182" style="stroke:#000000;stroke-width:1.0;"/><line style="stroke:#000000;stroke-width:1.0;" x1="227" x2="227" y1="1128.7021" y2="1152.2095"/><polygon fill="#000000" points="223,1142.2095,227,1152.2095,231,1142.2095,227,1146.2095" style="stroke:#000000;stroke-width:1.0;"/><line style="stroke:#000000;stroke-width:1.0;" x1="227" x2="227" y1="1186.7935" y2="1211.7078"/><polygon fill="#000000" points="223,1201.7078,227,1211.7078,231,1201.7078,227,1205.7078" style="stroke:#000000;stroke-width:1.0;"/><line style="stroke:#000000;stroke-width:1.0;" x1="227" x2="227" y1="1246.2917" y2="1279.1057"/><polygon fill="#000000" points="223,1269.1057,227,1279.1057,231,1269.1057,227,1273.1057" style="stroke:#000000;stroke-width:1.0;"/><line style="stroke:#000000;stroke-width:1.0;" x1="227" x2="227" y1="1313.6897" y2="1345.0967"/><polygon fill="#000000" points="223,1335.0967,227,1345.0967,231,1335.0967,227,1339.0967" style="stroke:#000000;stroke-width:1.0;"/><line style="stroke:#000000;stroke-width:1.0;" x1="227" x2="227" y1="1379.6807" y2="1403.188"/><polygon fill="#000000" points="223,1393.188,227,1403.188,231,1393.188,227,1397.188" style="stroke:#000000;stroke-width:1.0;"/><line style="stroke:#000000;stroke-width:1.0;" x1="227" x2="227" y1="1437.772" y2="1457.772"/><polygon fill="#000000" points="223,1447.772,227,1457.772,231,1447.772,227,1451.772" style="stroke:#000000;stroke-width:1.0;"/><line style="stroke:#000000;stroke-width:1.0;" x1="227" x2="227" y1="918.9209" y2="981.4429"/><polygon fill="#000000" points="223,971.4429,227,981.4429,231,971.4429,227,975.4429" style="stroke:#000000;stroke-width:1.0;"/><line style="stroke:#000000;stroke-width:1.0;" x1="227" x2="227" y1="1589.4619" y2="1626.6682"/><polygon fill="#000000" points="223,1616.6682,227,1626.6682,231,1616.6682,227,1620.6682" style="stroke:#000000;stroke-width:1.0;"/><line style="stroke:#000000;stroke-width:1.0;" x1="227" x2="227" y1="1661.2522" y2="1709.8655"/><polygon fill="#000000" points="223,1699.8655,227,1709.8655,231,1699.8655,227,1703.8655" style="stroke:#000000;stroke-width:1.0;"/><line style="stroke:#000000;stroke-width:1.0;" x1="227" x2="227" y1="1744.4495" y2="1775.8564"/><polygon fill="#000000" points="223,1765.8564,227,1775.8564,231,1765.8564,227,1769.8564" style="stroke:#000000;stroke-width:1.0;"/><line style="stroke:#000000;stroke-width:1.0;" x1="227" x2="227" y1="1492.356" y2="1554.8779"/><polygon fill="#000000" points="223,1544.8779,227,1554.8779,231,1544.8779,227,1548.8779" style="stroke:#000000;stroke-width:1.0;"/><line style="stroke:#000000;stroke-width:1.0;" x1="227" x2="227" y1="1810.4404" y2="1847.3547"/><polygon fill="#000000" points="223,1837.3547,227,1847.3547,231,1837.3547,227,1841.3547" style="stroke:#000000;stroke-width:1.0;"/><line style="stroke:#000000;stroke-width:1.0;" x1="227" x2="227" y1="1881.9387" y2="1913.3457"/><polygon fill="#000000" points="223,1903.3457,227,1913.3457,231,1903.3457,227,1907.3457" style="stroke:#000000;stroke-width:1.0;"/><!--SRC=[jLXBSzis4BxhLsnp2JKZrr7Szi34cP4fscOgKIf9ZvkJ1g5WYHEAu81G74sd_xqBy2q-98zJdIWGsEUttoxuYzZI7OKu944q4848ATYCxqW84zzd-qY05IMK2xWvW1ipVBW0TvalJgaWGKZNWq4Y21U3WMwGCCGDEXYUkveQAsEV22CaIH8y1JuH0OjMDmSbQ9NA-328cA30WyrM301_KoB8LvBGJ0J-CsWaA0TjVd3_cWtL9YkAz-8sPC_ML8Uhg_UWPL9JeQaBwLPfWHKzCHq-kmiR2EVa0Em9V5ndEygJ0OtM88qO369q8f16mXlNCvSmrk6EgjDlu1ybxUKEhZ897zJv8sVbRqbuGZFZq9AOKpI3Wg2x630K8KtKri9A-IUpXLE2uZpSkRBfSzsCz6odLeE5-rsKw6byfYFfJ_wOHX8Vfey6AjWmVf3_l3sFs7VAdVa87eCeP4aY7s-eC2HIHWWP4NodKt98Hh2a_4bc8VAf5-oe54hzW8I6CG8g_5-xVAf48yyGX44YEXqnVmXEV54wyZzOtsNiPnP4y1o8RHuzPQvWiA6Y36YdwPxCa5uzMxoIadENu3f_cDXJzUZklwhbTwSDoyEUAL0OoH6QMrgavfIbVSBEC3tB32vcJyKPh97qI24MI5BQrUNcdF1lO2Nc3mJ8SW91MTMmnVEuvDTgehiQjjJ_feFvj-LwBcYkEJCD3yPmwopcrVoqLpeytfkEAGiPcIfrUc6xtcevSKpRiwRuCEno8MFI8C9Sj1Tofz6tGOYygDTm3Xy_7QFYtoQllTTXoUcICvzYfBL551u0yPvH__0LP5UAxJHRQVDHCbt3yvP6LJB7qBKGULVip1z-k5zJ6JpA8-nP1QTt9nhr5kvavwLNDmU3HMiL8-rjUnxUTkPGeGU9ctrDcVUq6OZtSbTQgCloU9RDEZebkcDP6AKUliUYB7PTb2AciYrykWQF5KipaWZaDj3Umnef3iY63Ij75mveqkDCDGH9AUtItI5-BfqW-NPGTNoa1wJiojgXCr0kkYrfbaNU8QOASi4cOXoHS3fc5rbLJGpFMjZUbwMvikxiXMCkdSNDHAw1zljGHn2Bja3roL5rRqwHBxGhb72Ft44bfmJHfaaYXI3fZPMe2MLBeWqwWOmymYM72cmsyaKVHp_4Qnc-kWGPafS0oNggb_zr1KVDL7rifAhgZDxcJILTr_2md4uyyoIzN4bwKIJmAYRffv6SlQ9qN2NPk1geqrqnbtM7MWLiCRiIvvpwZAzVqA4xZBvFvTKRcWmsr6OGmh7VTlUpej0ZYl77Zi3f3cUMCnequg3cLwu9atOnbjLTmqYziHRfh-MwKIIEwHeJUsNSJ-mx4oLhV_JMUOLDKAUSR2ihTvpjuvx9gBaLBQe2lMrd-wOE5B1mVUvmS2u8ZYQWxd40IMi-cTMniWZNLQHK_cO1wCGC2VrzAAkxJ5yFXrgsQpeUQE-6pN8VAygeHnJdYPff5L4f6u0sFbFKTQUa5cZfu1nX_tG0NBRdEB1Z07gWbTE_ktXm35CXUsQwheUwn-yyo_ZJb1EWzAcP0tJ1DX-FNQkzxDFZJkQcWI6xMpXVqWoqgsY8xgkplD9xu5jGWNLhFyncMkKgLf-vdpZR5Kmn9t6C3N3ualxLnqyjdUJoEF7dWwQzNvriJRzX7RDT7591Nz6RSX7Txgfzbrc8y7gwnnRLVvcl7pb9DZ-FhMvnv4ZRO3Q9DcgvGH-wp2VgJgUafC49wdtw3hHJF3YiN6Xek4vQRl9LPip5bTtqjLycP9kUipL6YAxbc7JELUtiYU3dZnQP6VK9HWsE4iU-IblIY6bPVIF9h7XnhWQmxulCozoUiSthNKOXn-w6R9EvsgXnFPstYozzIUEROdgVFmAMujOZ1bIxrQM__GwetgUt_QCnVrpvZ8W2uy5_]--></g></svg>