<svg xmlns="http://www.w3.org/2000/svg" xmlns:xlink="http://www.w3.org/1999/xlink" contentStyleType="text/css" height="2652px" preserveAspectRatio="none" style="width:1359px;height:2652px;background:#FFFFFF;" version="1.1" viewBox="0 0 1359 2652" width="1359px" zoomAndPan="magnify"><defs/><g><text fill="#000000" font-family="Verdana" font-size="22" font-weight="bold" lengthAdjust="spacing" textLength="782" x="287" y="37.1182">Parlay Group Betting - Association Detection Logic (4 Criteria)</text><ellipse cx="679.5" cy="62.7373" fill="#FFFFFF" rx="10" ry="10" style="stroke:#000000;stroke-width:1.0;"/><rect fill="#FFFFFF" height="49.168" rx="12.5" ry="12.5" style="stroke:#000000;stroke-width:1.0;" width="319" x="520" y="92.7373"/><text fill="#000000" font-family="Verdana" font-size="12" lengthAdjust="spacing" textLength="197" x="530" y="114.8018">Match group from staging table</text><text fill="#000000" font-family="Verdana" font-size="12" lengthAdjust="spacing" textLength="299" x="530" y="129.3857">(MatchID, ScoreDiff, BettypeID, BetID, Betteam)</text><path d="M829.5,164.4746 L829.5,197.0732 L809.5,201.0732 L829.5,205.0732 L829.5,237.6719 A0,0 0 0 0 829.5,237.6719 L1176.5,237.6719 A0,0 0 0 0 1176.5,237.6719 L1176.5,174.4746 L1166.5,164.4746 L829.5,164.4746 A0,0 0 0 0 829.5,164.4746 " fill="#FFFFFF" style="stroke:#000000;stroke-width:1.0;"/><path d="M1166.5,164.4746 L1166.5,174.4746 L1176.5,174.4746 L1166.5,164.4746 " fill="#FFFFFF" style="stroke:#000000;stroke-width:1.0;"/><text fill="#000000" font-family="Verdana" font-size="13" font-weight="bold" lengthAdjust="spacing" textLength="68" x="835.5" y="182.5444">Example:</text><text fill="#000000" font-family="Verdana" font-size="13" lengthAdjust="spacing" textLength="268" x="835.5" y="198.3438">CustIDList: "5001,5002,5003,5004,5005"</text><text fill="#000000" font-family="Verdana" font-size="13" lengthAdjust="spacing" textLength="295" x="835.5" y="214.1431">CTSCustIDList: "1001,1002,1003,1004,1005"</text><text fill="#000000" font-family="Verdana" font-size="13" lengthAdjust="spacing" textLength="326" x="835.5" y="229.9424">TransIDmList: "10001,10002,10003,10004,10005"</text><rect fill="#FFFFFF" height="78.3359" rx="12.5" ry="12.5" style="stroke:#000000;stroke-width:1.0;" width="260" x="549.5" y="161.9053"/><text fill="#000000" font-family="Verdana" font-size="12" lengthAdjust="spacing" textLength="49" x="559.5" y="183.9697">Extract:</text><text fill="#000000" font-family="Verdana" font-size="12" lengthAdjust="spacing" textLength="188" x="559.5" y="198.5537">- CustIDList (MainDB CustIDs)</text><text fill="#000000" font-family="Verdana" font-size="12" lengthAdjust="spacing" textLength="213" x="559.5" y="213.1377">- CTSCustIDList (CTS internal IDs)</text><text fill="#000000" font-family="Verdana" font-size="12" lengthAdjust="spacing" textLength="240" x="559.5" y="227.7217">- TransIDmList (detail transaction IDs)</text><rect fill="#FFFFFF" height="1227.7539" style="stroke:#000000;stroke-width:1.0;" width="1347" x="6" y="250.2412"/><path d="M259,250.2412 L259,260.2559 L249,270.2559 L6,270.2559 " fill="none" style="stroke:#000000;stroke-width:1.0;"/><text fill="#000000" font-family="Verdana" font-size="14" font-weight="bold" lengthAdjust="spacing" textLength="243" x="9" y="265.3164">Round 1: Association Detection</text><rect fill="#FFFFFF" height="34.584" rx="12.5" ry="12.5" style="stroke:#000000;stroke-width:1.0;" width="231" x="564" y="287.2559"/><text fill="#000000" font-family="Verdana" font-size="12" lengthAdjust="spacing" textLength="211" x="574" y="309.3203">Call Association Detection Service</text><path d="M804.5,331.8398 L804.5,459.2344 L784.5,463.2344 L804.5,467.2344 L804.5,594.6289 A0,0 0 0 0 804.5,594.6289 L1102.5,594.6289 A0,0 0 0 0 1102.5,594.6289 L1102.5,341.8398 L1092.5,331.8398 L804.5,331.8398 A0,0 0 0 0 804.5,331.8398 " fill="#FFFFFF" style="stroke:#000000;stroke-width:1.0;"/><path d="M1092.5,331.8398 L1092.5,341.8398 L1102.5,341.8398 L1092.5,331.8398 " fill="#FFFFFF" style="stroke:#000000;stroke-width:1.0;"/><text fill="#000000" font-family="Verdana" font-size="13" font-weight="bold" lengthAdjust="spacing" textLength="240" x="810.5" y="349.9097">4 Detection Criteria (Always On):</text><text fill="#000000" font-family="Verdana" font-size="13" lengthAdjust="spacing" textLength="5" x="810.5" y="365.709">&#160;</text><text fill="#000000" font-family="Verdana" font-size="13" lengthAdjust="spacing" textLength="13" x="810.5" y="381.5083">1.</text><text fill="#000000" font-family="Verdana" font-size="13" font-weight="bold" lengthAdjust="spacing" textLength="112" x="828.5" y="381.5083">IsDevice = true</text><text fill="#000000" font-family="Verdana" font-size="13" lengthAdjust="spacing" textLength="168" x="825.5" y="397.3076">- Same device fingerprint</text><text fill="#000000" font-family="Verdana" font-size="13" lengthAdjust="spacing" textLength="5" x="810.5" y="413.1069">&#160;</text><text fill="#000000" font-family="Verdana" font-size="13" lengthAdjust="spacing" textLength="13" x="810.5" y="428.9063">2.</text><text fill="#000000" font-family="Verdana" font-size="13" font-weight="bold" lengthAdjust="spacing" textLength="79" x="828.5" y="428.9063">IsAI = true</text><text fill="#000000" font-family="Verdana" font-size="13" lengthAdjust="spacing" textLength="155" x="825.5" y="444.7056">- AI-detected similarity</text><text fill="#000000" font-family="Verdana" font-size="13" lengthAdjust="spacing" textLength="5" x="810.5" y="460.5049">&#160;</text><text fill="#000000" font-family="Verdana" font-size="13" lengthAdjust="spacing" textLength="13" x="810.5" y="476.3042">3.</text><text fill="#000000" font-family="Verdana" font-size="13" font-weight="bold" lengthAdjust="spacing" textLength="78" x="828.5" y="476.3042">IsIP = true</text><text fill="#000000" font-family="Verdana" font-size="13" lengthAdjust="spacing" textLength="122" x="825.5" y="492.1035">- Same IP address</text><text fill="#000000" font-family="Verdana" font-size="13" lengthAdjust="spacing" textLength="5" x="810.5" y="507.9028">&#160;</text><text fill="#000000" font-family="Verdana" font-size="13" lengthAdjust="spacing" textLength="13" x="810.5" y="523.7021">4.</text><text fill="#000000" font-family="Verdana" font-size="13" font-weight="bold" lengthAdjust="spacing" textLength="209" x="828.5" y="523.7021">Is3MatchesLast7Days = true</text><text fill="#000000" font-family="Verdana" font-size="13" lengthAdjust="spacing" textLength="262" x="825.5" y="539.5015">- Bet on same 3 matches in last 7 days</text><text fill="#000000" font-family="Verdana" font-size="13" lengthAdjust="spacing" textLength="5" x="810.5" y="555.3008">&#160;</text><text fill="#000000" font-family="Verdana" font-size="13" font-weight="bold" lengthAdjust="spacing" textLength="76" x="810.5" y="571.1001">NOT USED:</text><text fill="#000000" font-family="Verdana" font-size="13" lengthAdjust="spacing" textLength="13" x="810.5" y="586.8994">5.</text><text fill="#000000" font-family="Verdana" font-size="13" lengthAdjust="spacing" text-decoration="wavy underline" textLength="93" x="828.5" y="586.8994">IsIPLast3Days</text><text fill="#000000" font-family="Verdana" font-size="13" lengthAdjust="spacing" textLength="65" x="926.5" y="586.8994">(disabled)</text><rect fill="#FFFFFF" height="34.584" rx="12.5" ry="12.5" style="stroke:#000000;stroke-width:1.0;" width="210" x="574.5" y="445.9424"/><text fill="#000000" font-family="Verdana" font-size="12" lengthAdjust="spacing" textLength="190" x="584.5" y="468.0068">Prepare detection parameters</text><rect fill="#FFFFFF" height="49.168" rx="12.5" ry="12.5" style="stroke:#000000;stroke-width:1.0;" width="339" x="510" y="614.6289"/><text fill="#000000" font-family="Verdana" font-size="12" lengthAdjust="spacing" textLength="167" x="520" y="636.6934">Run association detection:</text><text fill="#000000" font-family="Verdana" font-size="12" lengthAdjust="spacing" textLength="319" x="520" y="651.2773">AssociationDetection.DetectAssociationLv1(param)</text><rect fill="#FFFFFF" height="151.2559" rx="12.5" ry="12.5" style="stroke:#000000;stroke-width:1.0;" width="1327" x="16" y="683.7969"/><text fill="#000000" font-family="Verdana" font-size="12" lengthAdjust="spacing" textLength="935" x="26" y="705.8613">Get association result:\n[{CustID: 5001, GroupID: 1},\n {CustID: 5002, GroupID: 1},\n {CustID: 5003, GroupID: 2},\n {CustID: 5004, GroupID: 0},</text><text fill="#000000" font-family="Verdana" font-size="12" lengthAdjust="spacing" text-decoration="line-through" textLength="278" x="973" y="705.8613">Unassigned\n {CustID: 5005, GroupID: 0}];</text><text fill="#000000" font-family="Verdana" font-size="12" lengthAdjust="spacing" textLength="74" x="1259" y="705.8613">Unassigned</text><text fill="#000000" font-family="Verdana" font-size="12" lengthAdjust="spacing" textLength="4" x="26" y="720.4453">&#160;</text><text fill="#000000" font-family="Verdana" font-size="12" lengthAdjust="spacing" textLength="62" x="26" y="735.0293">note right</text><text fill="#000000" font-family="Verdana" font-size="12" lengthAdjust="spacing" textLength="16" x="26" y="749.6133">&#160;&#160;&#160;&#160;</text><text fill="#000000" font-family="Verdana" font-size="12" font-weight="bold" lengthAdjust="spacing" textLength="141" x="42" y="749.6133">GroupID Assignment:</text><text fill="#000000" font-family="Verdana" font-size="12" lengthAdjust="spacing" textLength="227" x="42" y="764.1973">- GroupID &gt; 0: Detected association</text><text fill="#000000" font-family="Verdana" font-size="12" lengthAdjust="spacing" textLength="227" x="42" y="778.7813">- GroupID = 0: No association found</text><text fill="#000000" font-family="Verdana" font-size="12" lengthAdjust="spacing" textLength="57" x="26" y="793.3652">end note</text><text fill="#000000" font-family="Verdana" font-size="12" lengthAdjust="spacing" textLength="4" x="26" y="807.9492">&#160;</text><text fill="#000000" font-family="Verdana" font-size="12" lengthAdjust="spacing" textLength="239" x="26" y="822.5332">:Call Process SP with CustGroup JSON</text><rect fill="#FFFFFF" height="537.1904" style="stroke:#000000;stroke-width:1.0;" width="417.5" x="460.5" y="845.0527"/><path d="M609.5,845.0527 L609.5,855.0674 L599.5,865.0674 L460.5,865.0674 " fill="none" style="stroke:#000000;stroke-width:1.0;"/><text fill="#000000" font-family="Verdana" font-size="14" font-weight="bold" lengthAdjust="spacing" textLength="139" x="463.5" y="860.1279">Inside Process SP</text><rect fill="#FFFFFF" height="34.584" rx="12.5" ry="12.5" style="stroke:#000000;stroke-width:1.0;" width="340" x="509.5" y="882.0674"/><text fill="#000000" font-family="Verdana" font-size="12" lengthAdjust="spacing" textLength="320" x="519.5" y="904.1318">Parse CustGroup JSON into Temp_CustGroup table</text><rect fill="#FFFFFF" height="49.168" rx="12.5" ry="12.5" style="stroke:#000000;stroke-width:1.0;" width="263" x="548" y="936.6514"/><text fill="#000000" font-family="Verdana" font-size="12" lengthAdjust="spacing" textLength="159" x="558" y="958.7158">Load tickets from staging</text><text fill="#000000" font-family="Verdana" font-size="12" lengthAdjust="spacing" textLength="243" x="558" y="973.2998">JOIN with Temp_CustGroup ON CustID</text><rect fill="#FFFFFF" height="63.752" rx="12.5" ry="12.5" style="stroke:#000000;stroke-width:1.0;" width="241" x="559" y="1005.8193"/><text fill="#000000" font-family="Verdana" font-size="12" lengthAdjust="spacing" textLength="107" x="569" y="1027.8838">Group tickets by:</text><text fill="#000000" font-family="Verdana" font-size="12" lengthAdjust="spacing" textLength="178" x="569" y="1042.4678">- GroupID (from association)</text><text fill="#000000" font-family="Verdana" font-size="12" lengthAdjust="spacing" textLength="221" x="569" y="1057.0518">- TimeStep windows (180 seconds)</text><rect fill="#FFFFFF" height="34.584" rx="12.5" ry="12.5" style="stroke:#000000;stroke-width:1.0;" width="163" x="598" y="1089.5713"/><text fill="#000000" font-family="Verdana" font-size="12" lengthAdjust="spacing" textLength="143" x="608" y="1111.6357">For each time window:</text><polygon fill="#FFFFFF" points="588,1144.1553,771,1144.1553,783,1156.1553,771,1168.1553,588,1168.1553,576,1156.1553,588,1144.1553" style="stroke:#000000;stroke-width:1.0;"/><text fill="#000000" font-family="Verdana" font-size="11" lengthAdjust="spacing" textLength="183" x="588" y="1160.53">COUNT(DISTINCT CustID) &gt; 1?</text><text fill="#000000" font-family="Verdana" font-size="11" lengthAdjust="spacing" textLength="20" x="556" y="1153.8457">yes</text><text fill="#000000" font-family="Verdana" font-size="11" lengthAdjust="spacing" textLength="14" x="783" y="1153.8457">no</text><rect fill="#FFFFFF" height="34.584" rx="12.5" ry="12.5" style="stroke:#000000;stroke-width:1.0;" width="143" x="494.5" y="1178.1553"/><text fill="#000000" font-family="Verdana" font-size="12" lengthAdjust="spacing" textLength="123" x="504.5" y="1200.2197">Mark as valid group</text><rect fill="#FFFFFF" height="92.9199" rx="12.5" ry="12.5" style="stroke:#000000;stroke-width:1.0;" width="171" x="480.5" y="1247.3232"/><text fill="#000000" font-family="Verdana" font-size="12" lengthAdjust="spacing" textLength="151" x="490.5" y="1269.3877">Output complete group:</text><text fill="#000000" font-family="Verdana" font-size="12" lengthAdjust="spacing" textLength="61" x="490.5" y="1283.9717">- GroupID</text><text fill="#000000" font-family="Verdana" font-size="12" lengthAdjust="spacing" textLength="91" x="490.5" y="1298.5557">- TransIDmList</text><text fill="#000000" font-family="Verdana" font-size="12" lengthAdjust="spacing" textLength="74" x="490.5" y="1313.1396">- CustIDList</text><text fill="#000000" font-family="Verdana" font-size="12" lengthAdjust="spacing" textLength="67" x="490.5" y="1327.7236">- RefnoList</text><rect fill="#FFFFFF" height="49.168" rx="12.5" ry="12.5" style="stroke:#000000;stroke-width:1.0;" width="130" x="728" y="1178.1553"/><text fill="#000000" font-family="Verdana" font-size="12" lengthAdjust="spacing" textLength="67" x="738" y="1200.2197">Skip group</text><text fill="#000000" font-family="Verdana" font-size="12" lengthAdjust="spacing" textLength="110" x="738" y="1214.8037">(only 1 customer)</text><polygon fill="#FFFFFF" points="679.5,1346.2432,691.5,1358.2432,679.5,1370.2432,667.5,1358.2432,679.5,1346.2432" style="stroke:#000000;stroke-width:1.0;"/><rect fill="#FFFFFF" height="63.752" rx="12.5" ry="12.5" style="stroke:#000000;stroke-width:1.0;" width="260" x="549.5" y="1402.2432"/><text fill="#000000" font-family="Verdana" font-size="12" lengthAdjust="spacing" textLength="130" x="559.5" y="1424.3076">Get Round 1 results:</text><text fill="#000000" font-family="Verdana" font-size="12" lengthAdjust="spacing" textLength="218" x="559.5" y="1438.8916">- Complete groups (ready to save)</text><text fill="#000000" font-family="Verdana" font-size="12" lengthAdjust="spacing" textLength="240" x="559.5" y="1453.4756">- Reprocess groups (has GroupID = 0)</text><polygon fill="#FFFFFF" points="562.5,1497.9951,796.5,1497.9951,808.5,1509.9951,796.5,1521.9951,562.5,1521.9951,550.5,1509.9951,562.5,1497.9951" style="stroke:#000000;stroke-width:1.0;"/><text fill="#000000" font-family="Verdana" font-size="11" lengthAdjust="spacing" textLength="234" x="562.5" y="1514.3699">Has reprocess groups with GroupID = 0?</text><text fill="#000000" font-family="Verdana" font-size="11" lengthAdjust="spacing" textLength="20" x="530.5" y="1507.6855">yes</text><text fill="#000000" font-family="Verdana" font-size="11" lengthAdjust="spacing" textLength="14" x="808.5" y="1507.6855">no</text><rect fill="#FFFFFF" height="408.7451" style="stroke:#000000;stroke-width:1.0;" width="601" x="249.5" y="1531.9951"/><path d="M510.5,1531.9951 L510.5,1542.0098 L500.5,1552.0098 L249.5,1552.0098 " fill="none" style="stroke:#000000;stroke-width:1.0;"/><text fill="#000000" font-family="Verdana" font-size="14" font-weight="bold" lengthAdjust="spacing" textLength="251" x="252.5" y="1547.0703">Round 2: Reprocess Unassigned</text><path d="M534,1572.7944 L534,1589.5938 L514,1593.5938 L534,1597.5938 L534,1614.3931 A0,0 0 0 0 534,1614.3931 L784,1614.3931 A0,0 0 0 0 784,1614.3931 L784,1582.7944 L774,1572.7944 L534,1572.7944 A0,0 0 0 0 534,1572.7944 " fill="#FFFFFF" style="stroke:#000000;stroke-width:1.0;"/><path d="M774,1572.7944 L774,1582.7944 L784,1582.7944 L774,1572.7944 " fill="#FFFFFF" style="stroke:#000000;stroke-width:1.0;"/><text fill="#000000" font-family="Verdana" font-size="13" font-weight="bold" lengthAdjust="spacing" textLength="68" x="540" y="1590.8643">Example:</text><text fill="#000000" font-family="Verdana" font-size="13" lengthAdjust="spacing" textLength="229" x="540" y="1606.6636">Reprocess CustIDList: "5004,5005"</text><rect fill="#FFFFFF" height="49.168" rx="12.5" ry="12.5" style="stroke:#000000;stroke-width:1.0;" width="215" x="299" y="1569.0098"/><text fill="#000000" font-family="Verdana" font-size="12" lengthAdjust="spacing" textLength="195" x="309" y="1591.0742">Extract unassigned customers:</text><text fill="#000000" font-family="Verdana" font-size="12" lengthAdjust="spacing" textLength="190" x="309" y="1605.6582">CustIDList where GroupID = 0</text><rect fill="#FFFFFF" height="63.752" rx="12.5" ry="12.5" style="stroke:#000000;stroke-width:1.0;" width="294" x="259.5" y="1638.1777"/><text fill="#000000" font-family="Verdana" font-size="12" lengthAdjust="spacing" textLength="206" x="269.5" y="1660.2422">Run association detection again:</text><text fill="#000000" font-family="Verdana" font-size="12" lengthAdjust="spacing" textLength="274" x="269.5" y="1674.8262">AssociationDetection.DetectAssociationLv1(</text><text fill="#000000" font-family="Verdana" font-size="12" lengthAdjust="spacing" textLength="107" x="269.5" y="1689.4102">reprocessParam)</text><rect fill="#FFFFFF" height="63.752" rx="12.5" ry="12.5" style="stroke:#000000;stroke-width:1.0;" width="206" x="303.5" y="1721.9297"/><text fill="#000000" font-family="Verdana" font-size="12" lengthAdjust="spacing" textLength="173" x="313.5" y="1743.9941">Get new association result:</text><text fill="#000000" font-family="Verdana" font-size="12" lengthAdjust="spacing" textLength="186" x="313.5" y="1758.5781">[{CustID: 5004, GroupID: 3},</text><text fill="#000000" font-family="Verdana" font-size="12" lengthAdjust="spacing" textLength="182" x="317.5" y="1773.1621">{CustID: 5005, GroupID: 3}]</text><rect fill="#FFFFFF" height="34.584" rx="12.5" ry="12.5" style="stroke:#000000;stroke-width:1.0;" width="288" x="262.5" y="1805.6816"/><text fill="#000000" font-family="Verdana" font-size="12" lengthAdjust="spacing" textLength="268" x="272.5" y="1827.7461">Call Process SP again with new CustGroup</text><path d="M554.5,1855.543 L554.5,1888.1416 L534.5,1892.1416 L554.5,1896.1416 L554.5,1928.7402 A0,0 0 0 0 554.5,1928.7402 L840.5,1928.7402 A0,0 0 0 0 840.5,1928.7402 L840.5,1865.543 L830.5,1855.543 L554.5,1855.543 A0,0 0 0 0 554.5,1855.543 " fill="#FFFFFF" style="stroke:#000000;stroke-width:1.0;"/><path d="M830.5,1855.543 L830.5,1865.543 L840.5,1865.543 L830.5,1855.543 " fill="#FFFFFF" style="stroke:#000000;stroke-width:1.0;"/><text fill="#000000" font-family="Verdana" font-size="13" font-weight="bold" lengthAdjust="spacing" textLength="126" x="560.5" y="1873.6128">Round 2 Purpose:</text><text fill="#000000" font-family="Verdana" font-size="13" lengthAdjust="spacing" textLength="254" x="560.5" y="1889.4121">Some customers may not be detected</text><text fill="#000000" font-family="Verdana" font-size="13" lengthAdjust="spacing" textLength="265" x="560.5" y="1905.2114">in Round 1 due to timing or partial data.</text><text fill="#000000" font-family="Verdana" font-size="13" lengthAdjust="spacing" textLength="244" x="560.5" y="1921.0107">Round 2 gives them another chance.</text><rect fill="#FFFFFF" height="63.752" rx="12.5" ry="12.5" style="stroke:#000000;stroke-width:1.0;" width="256" x="278.5" y="1860.2656"/><text fill="#000000" font-family="Verdana" font-size="12" lengthAdjust="spacing" textLength="130" x="288.5" y="1882.3301">Get Round 2 results:</text><text fill="#000000" font-family="Verdana" font-size="12" lengthAdjust="spacing" textLength="180" x="288.5" y="1896.9141">- Additional complete groups</text><text fill="#000000" font-family="Verdana" font-size="12" lengthAdjust="spacing" textLength="236" x="288.5" y="1911.498">- Remaining reprocess groups (if any)</text><rect fill="#FFFFFF" height="34.584" rx="12.5" ry="12.5" style="stroke:#000000;stroke-width:1.0;" width="164" x="870.5" y="1531.9951"/><text fill="#000000" font-family="Verdana" font-size="12" lengthAdjust="spacing" textLength="144" x="880.5" y="1554.0596">All customers assigned</text><polygon fill="#FFFFFF" points="679.5,1946.7402,691.5,1958.7402,679.5,1970.7402,667.5,1958.7402,679.5,1946.7402" style="stroke:#000000;stroke-width:1.0;"/><rect fill="#FFFFFF" height="291.1025" style="stroke:#000000;stroke-width:1.0;" width="451" x="454" y="1980.7402"/><path d="M573,1980.7402 L573,1990.7549 L563,2000.7549 L454,2000.7549 " fill="none" style="stroke:#000000;stroke-width:1.0;"/><text fill="#000000" font-family="Verdana" font-size="14" font-weight="bold" lengthAdjust="spacing" textLength="109" x="457" y="1995.8154">Merge Results</text><rect fill="#FFFFFF" height="34.584" rx="12.5" ry="12.5" style="stroke:#000000;stroke-width:1.0;" width="262" x="548.5" y="2017.7549"/><text fill="#000000" font-family="Verdana" font-size="12" lengthAdjust="spacing" textLength="242" x="558.5" y="2039.8193">Combine Round 1 and Round 2 results</text><rect fill="#FFFFFF" height="34.584" rx="12.5" ry="12.5" style="stroke:#000000;stroke-width:1.0;" width="275" x="542" y="2072.3389"/><text fill="#000000" font-family="Verdana" font-size="12" lengthAdjust="spacing" textLength="255" x="552" y="2094.4033">Group by TransIDList to avoid duplicates</text><rect fill="#FFFFFF" height="34.584" rx="12.5" ry="12.5" style="stroke:#000000;stroke-width:1.0;" width="296" x="531.5" y="2126.9229"/><text fill="#000000" font-family="Verdana" font-size="12" lengthAdjust="spacing" textLength="276" x="541.5" y="2148.9873">Assign final GroupID (sequential: 1, 2, 3, ...)</text><rect fill="#FFFFFF" height="78.3359" rx="12.5" ry="12.5" style="stroke:#000000;stroke-width:1.0;" width="431" x="464" y="2181.5068"/><text fill="#000000" font-family="Verdana" font-size="12" lengthAdjust="spacing" textLength="182" x="474" y="2203.5713">Output final detection result:</text><text fill="#000000" font-family="Verdana" font-size="12" lengthAdjust="spacing" textLength="411" x="474" y="2218.1553">[{GroupID: 1, TransIDList: "...", CustIDList: "...", RefnoList: "..."},</text><text fill="#000000" font-family="Verdana" font-size="12" lengthAdjust="spacing" textLength="406" x="478" y="2232.7393">{GroupID: 2, TransIDList: "...", CustIDList: "...", RefnoList: "..."},</text><text fill="#000000" font-family="Verdana" font-size="12" lengthAdjust="spacing" textLength="17" x="478" y="2247.3232">...]</text><rect fill="#FFFFFF" height="49.168" rx="12.5" ry="12.5" style="stroke:#000000;stroke-width:1.0;" width="181" x="589" y="2291.8428"/><text fill="#000000" font-family="Verdana" font-size="12" lengthAdjust="spacing" textLength="112" x="599" y="2313.9072">Save to database</text><text fill="#000000" font-family="Verdana" font-size="12" lengthAdjust="spacing" textLength="161" x="599" y="2328.4912">(Complete &amp; Save phase)</text><path d="M710.5,2351.0107 L710.5,2645.3984 L1063.5,2645.3984 L1063.5,2361.0107 L1053.5,2351.0107 L710.5,2351.0107 " fill="#FFFFFF" style="stroke:#000000;stroke-width:1.0;"/><path d="M1053.5,2351.0107 L1053.5,2361.0107 L1063.5,2361.0107 L1053.5,2351.0107 " fill="#FFFFFF" style="stroke:#000000;stroke-width:1.0;"/><text fill="#000000" font-family="Verdana" font-size="13" font-weight="bold" lengthAdjust="spacing" textLength="330" x="716.5" y="2369.0806">Key Differences from Standard Group Betting:</text><text fill="#000000" font-family="Verdana" font-size="13" lengthAdjust="spacing" textLength="5" x="716.5" y="2384.8799">&#160;</text><text fill="#000000" font-family="Verdana" font-size="13" lengthAdjust="spacing" textLength="13" x="716.5" y="2400.6792">1.</text><text fill="#000000" font-family="Verdana" font-size="13" font-weight="bold" lengthAdjust="spacing" textLength="156" x="734.5" y="2400.6792">4 Criteria instead of 5</text><text fill="#000000" font-family="Verdana" font-size="13" lengthAdjust="spacing" textLength="184" x="731.5" y="2416.4785">- No "IP Last 3 Days" check</text><text fill="#000000" font-family="Verdana" font-size="13" lengthAdjust="spacing" textLength="189" x="731.5" y="2432.2778">- Always use same 4 criteria</text><text fill="#000000" font-family="Verdana" font-size="13" lengthAdjust="spacing" textLength="5" x="716.5" y="2448.0771">&#160;</text><text fill="#000000" font-family="Verdana" font-size="13" lengthAdjust="spacing" textLength="13" x="716.5" y="2463.8765">2.</text><text fill="#000000" font-family="Verdana" font-size="13" font-weight="bold" lengthAdjust="spacing" textLength="227" x="734.5" y="2463.8765">No Sport-Specific Configuration</text><text fill="#000000" font-family="Verdana" font-size="13" lengthAdjust="spacing" textLength="239" x="731.5" y="2479.6758">- Parlay has single rule for all sports</text><text fill="#000000" font-family="Verdana" font-size="13" lengthAdjust="spacing" textLength="281" x="731.5" y="2495.4751">- No MatchDetectAssociationSetting table</text><text fill="#000000" font-family="Verdana" font-size="13" lengthAdjust="spacing" textLength="5" x="716.5" y="2511.2744">&#160;</text><text fill="#000000" font-family="Verdana" font-size="13" lengthAdjust="spacing" textLength="13" x="716.5" y="2527.0737">3.</text><text fill="#000000" font-family="Verdana" font-size="13" font-weight="bold" lengthAdjust="spacing" textLength="147" x="734.5" y="2527.0737">Parlay-Specific Data</text><text fill="#000000" font-family="Verdana" font-size="13" lengthAdjust="spacing" textLength="166" x="731.5" y="2542.873">- Refno: Combo ticket ID</text><text fill="#000000" font-family="Verdana" font-size="13" lengthAdjust="spacing" textLength="221" x="731.5" y="2558.6724">- TransIDm: Detail transaction ID</text><text fill="#000000" font-family="Verdana" font-size="13" lengthAdjust="spacing" textLength="192" x="731.5" y="2574.4717">- Multiple matches per ticket</text><text fill="#000000" font-family="Verdana" font-size="13" lengthAdjust="spacing" textLength="5" x="716.5" y="2590.271">&#160;</text><text fill="#000000" font-family="Verdana" font-size="13" lengthAdjust="spacing" textLength="13" x="716.5" y="2606.0703">4.</text><text fill="#000000" font-family="Verdana" font-size="13" font-weight="bold" lengthAdjust="spacing" textLength="148" x="734.5" y="2606.0703">Same 2-Round Logic</text><text fill="#000000" font-family="Verdana" font-size="13" lengthAdjust="spacing" textLength="213" x="731.5" y="2621.8696">- Round 1: Detect all customers</text><text fill="#000000" font-family="Verdana" font-size="13" lengthAdjust="spacing" textLength="317" x="731.5" y="2637.6689">- Round 2: Reprocess unassigned (GroupID = 0)</text><ellipse cx="679.5" cy="2498.2046" fill="none" rx="11" ry="11" style="stroke:#000000;stroke-width:1.0;"/><ellipse cx="679.5" cy="2498.2046" fill="#FFFFFF" rx="6" ry="6" style="stroke:#000000;stroke-width:1.0;"/><line style="stroke:#000000;stroke-width:1.0;" x1="679.5" x2="679.5" y1="72.7373" y2="92.7373"/><polygon fill="#000000" points="675.5,82.7373,679.5,92.7373,683.5,82.7373,679.5,86.7373" style="stroke:#000000;stroke-width:1.0;"/><line style="stroke:#000000;stroke-width:1.0;" x1="679.5" x2="679.5" y1="141.9053" y2="161.9053"/><polygon fill="#000000" points="675.5,151.9053,679.5,161.9053,683.5,151.9053,679.5,155.9053" style="stroke:#000000;stroke-width:1.0;"/><line style="stroke:#000000;stroke-width:1.0;" x1="679.5" x2="679.5" y1="321.8398" y2="445.9424"/><polygon fill="#000000" points="675.5,435.9424,679.5,445.9424,683.5,435.9424,679.5,439.9424" style="stroke:#000000;stroke-width:1.0;"/><line style="stroke:#000000;stroke-width:1.0;" x1="679.5" x2="679.5" y1="480.5264" y2="614.6289"/><polygon fill="#000000" points="675.5,604.6289,679.5,614.6289,683.5,604.6289,679.5,608.6289" style="stroke:#000000;stroke-width:1.0;"/><line style="stroke:#000000;stroke-width:1.0;" x1="679.5" x2="679.5" y1="663.7969" y2="683.7969"/><polygon fill="#000000" points="675.5,673.7969,679.5,683.7969,683.5,673.7969,679.5,677.7969" style="stroke:#000000;stroke-width:1.0;"/><line style="stroke:#000000;stroke-width:1.0;" x1="679.5" x2="679.5" y1="916.6514" y2="936.6514"/><polygon fill="#000000" points="675.5,926.6514,679.5,936.6514,683.5,926.6514,679.5,930.6514" style="stroke:#000000;stroke-width:1.0;"/><line style="stroke:#000000;stroke-width:1.0;" x1="679.5" x2="679.5" y1="985.8193" y2="1005.8193"/><polygon fill="#000000" points="675.5,995.8193,679.5,1005.8193,683.5,995.8193,679.5,999.8193" style="stroke:#000000;stroke-width:1.0;"/><line style="stroke:#000000;stroke-width:1.0;" x1="679.5" x2="679.5" y1="1069.5713" y2="1089.5713"/><polygon fill="#000000" points="675.5,1079.5713,679.5,1089.5713,683.5,1079.5713,679.5,1083.5713" style="stroke:#000000;stroke-width:1.0;"/><line style="stroke:#000000;stroke-width:1.0;" x1="566" x2="566" y1="1212.7393" y2="1247.3232"/><polygon fill="#000000" points="562,1237.3232,566,1247.3232,570,1237.3232,566,1241.3232" style="stroke:#000000;stroke-width:1.0;"/><line style="stroke:#000000;stroke-width:1.0;" x1="576" x2="566" y1="1156.1553" y2="1156.1553"/><line style="stroke:#000000;stroke-width:1.0;" x1="566" x2="566" y1="1156.1553" y2="1178.1553"/><polygon fill="#000000" points="562,1168.1553,566,1178.1553,570,1168.1553,566,1172.1553" style="stroke:#000000;stroke-width:1.0;"/><line style="stroke:#000000;stroke-width:1.0;" x1="783" x2="793" y1="1156.1553" y2="1156.1553"/><line style="stroke:#000000;stroke-width:1.0;" x1="793" x2="793" y1="1156.1553" y2="1178.1553"/><polygon fill="#000000" points="789,1168.1553,793,1178.1553,797,1168.1553,793,1172.1553" style="stroke:#000000;stroke-width:1.0;"/><line style="stroke:#000000;stroke-width:1.0;" x1="566" x2="566" y1="1340.2432" y2="1358.2432"/><line style="stroke:#000000;stroke-width:1.0;" x1="566" x2="667.5" y1="1358.2432" y2="1358.2432"/><polygon fill="#000000" points="657.5,1354.2432,667.5,1358.2432,657.5,1362.2432,661.5,1358.2432" style="stroke:#000000;stroke-width:1.0;"/><line style="stroke:#000000;stroke-width:1.0;" x1="793" x2="793" y1="1227.3232" y2="1358.2432"/><line style="stroke:#000000;stroke-width:1.0;" x1="793" x2="691.5" y1="1358.2432" y2="1358.2432"/><polygon fill="#000000" points="701.5,1354.2432,691.5,1358.2432,701.5,1362.2432,697.5,1358.2432" style="stroke:#000000;stroke-width:1.0;"/><line style="stroke:#000000;stroke-width:1.0;" x1="679.5" x2="679.5" y1="1124.1553" y2="1144.1553"/><polygon fill="#000000" points="675.5,1134.1553,679.5,1144.1553,683.5,1134.1553,679.5,1138.1553" style="stroke:#000000;stroke-width:1.0;"/><line style="stroke:#000000;stroke-width:1.0;" x1="679.5" x2="679.5" y1="835.0527" y2="882.0674"/><polygon fill="#000000" points="675.5,872.0674,679.5,882.0674,683.5,872.0674,679.5,876.0674" style="stroke:#000000;stroke-width:1.0;"/><line style="stroke:#000000;stroke-width:1.0;" x1="679.5" x2="679.5" y1="1370.2432" y2="1402.2432"/><polygon fill="#000000" points="675.5,1392.2432,679.5,1402.2432,683.5,1392.2432,679.5,1396.2432" style="stroke:#000000;stroke-width:1.0;"/><line style="stroke:#000000;stroke-width:1.0;" x1="679.5" x2="679.5" y1="240.2412" y2="287.2559"/><polygon fill="#000000" points="675.5,277.2559,679.5,287.2559,683.5,277.2559,679.5,281.2559" style="stroke:#000000;stroke-width:1.0;"/><line style="stroke:#000000;stroke-width:1.0;" x1="406.5" x2="406.5" y1="1618.1777" y2="1638.1777"/><polygon fill="#000000" points="402.5,1628.1777,406.5,1638.1777,410.5,1628.1777,406.5,1632.1777" style="stroke:#000000;stroke-width:1.0;"/><line style="stroke:#000000;stroke-width:1.0;" x1="406.5" x2="406.5" y1="1701.9297" y2="1721.9297"/><polygon fill="#000000" points="402.5,1711.9297,406.5,1721.9297,410.5,1711.9297,406.5,1715.9297" style="stroke:#000000;stroke-width:1.0;"/><line style="stroke:#000000;stroke-width:1.0;" x1="406.5" x2="406.5" y1="1785.6816" y2="1805.6816"/><polygon fill="#000000" points="402.5,1795.6816,406.5,1805.6816,410.5,1795.6816,406.5,1799.6816" style="stroke:#000000;stroke-width:1.0;"/><line style="stroke:#000000;stroke-width:1.0;" x1="406.5" x2="406.5" y1="1840.2656" y2="1860.2656"/><polygon fill="#000000" points="402.5,1850.2656,406.5,1860.2656,410.5,1850.2656,406.5,1854.2656" style="stroke:#000000;stroke-width:1.0;"/><line style="stroke:#000000;stroke-width:1.0;" x1="550.5" x2="406.5" y1="1509.9951" y2="1509.9951"/><line style="stroke:#000000;stroke-width:1.0;" x1="406.5" x2="406.5" y1="1509.9951" y2="1569.0098"/><polygon fill="#000000" points="402.5,1559.0098,406.5,1569.0098,410.5,1559.0098,406.5,1563.0098" style="stroke:#000000;stroke-width:1.0;"/><line style="stroke:#000000;stroke-width:1.0;" x1="808.5" x2="952.5" y1="1509.9951" y2="1509.9951"/><line style="stroke:#000000;stroke-width:1.0;" x1="952.5" x2="952.5" y1="1509.9951" y2="1531.9951"/><polygon fill="#000000" points="948.5,1521.9951,952.5,1531.9951,956.5,1521.9951,952.5,1525.9951" style="stroke:#000000;stroke-width:1.0;"/><line style="stroke:#000000;stroke-width:1.0;" x1="406.5" x2="406.5" y1="1924.0176" y2="1958.7402"/><line style="stroke:#000000;stroke-width:1.0;" x1="406.5" x2="667.5" y1="1958.7402" y2="1958.7402"/><polygon fill="#000000" points="657.5,1954.7402,667.5,1958.7402,657.5,1962.7402,661.5,1958.7402" style="stroke:#000000;stroke-width:1.0;"/><line style="stroke:#000000;stroke-width:1.0;" x1="952.5" x2="952.5" y1="1566.5791" y2="1958.7402"/><line style="stroke:#000000;stroke-width:1.0;" x1="952.5" x2="691.5" y1="1958.7402" y2="1958.7402"/><polygon fill="#000000" points="701.5,1954.7402,691.5,1958.7402,701.5,1962.7402,697.5,1958.7402" style="stroke:#000000;stroke-width:1.0;"/><line style="stroke:#000000;stroke-width:1.0;" x1="679.5" x2="679.5" y1="1465.9951" y2="1497.9951"/><polygon fill="#000000" points="675.5,1487.9951,679.5,1497.9951,683.5,1487.9951,679.5,1491.9951" style="stroke:#000000;stroke-width:1.0;"/><line style="stroke:#000000;stroke-width:1.0;" x1="679.5" x2="679.5" y1="2052.3389" y2="2072.3389"/><polygon fill="#000000" points="675.5,2062.3389,679.5,2072.3389,683.5,2062.3389,679.5,2066.3389" style="stroke:#000000;stroke-width:1.0;"/><line style="stroke:#000000;stroke-width:1.0;" x1="679.5" x2="679.5" y1="2106.9229" y2="2126.9229"/><polygon fill="#000000" points="675.5,2116.9229,679.5,2126.9229,683.5,2116.9229,679.5,2120.9229" style="stroke:#000000;stroke-width:1.0;"/><line style="stroke:#000000;stroke-width:1.0;" x1="679.5" x2="679.5" y1="2161.5068" y2="2181.5068"/><polygon fill="#000000" points="675.5,2171.5068,679.5,2181.5068,683.5,2171.5068,679.5,2175.5068" style="stroke:#000000;stroke-width:1.0;"/><line style="stroke:#000000;stroke-width:1.0;" x1="679.5" x2="679.5" y1="1970.7402" y2="2017.7549"/><polygon fill="#000000" points="675.5,2007.7549,679.5,2017.7549,683.5,2007.7549,679.5,2011.7549" style="stroke:#000000;stroke-width:1.0;"/><line style="stroke:#000000;stroke-width:1.0;" x1="679.5" x2="679.5" y1="2259.8428" y2="2291.8428"/><polygon fill="#000000" points="675.5,2281.8428,679.5,2291.8428,683.5,2281.8428,679.5,2285.8428" style="stroke:#000000;stroke-width:1.0;"/><line style="stroke:#000000;stroke-width:1.0;" x1="679.5" x2="679.5" y1="2341.0107" y2="2487.2046"/><polygon fill="#000000" points="675.5,2477.2046,679.5,2487.2046,683.5,2477.2046,679.5,2481.2046" style="stroke:#000000;stroke-width:1.0;"/><!--SRC=[fLXjRzis4FwkNt7pXy4sR2EE4tHGq0rft7NkqiIet4zBCT0IRHEHIPMaaXf5yjjt9FL2IKwtOlwWMER3u_7kkRVyf7TqJo5B2UE1PZgbi2Go9GTu9qMUmHkgDUDR6CEbKY9cH3F1OKurZUstQx5bCVJFu4eoJIKZWo1GcaWT1E47ekCTRAsSZHHxm8Mj4QR9EgLtl6y1Y_a8ebX8EcURpSWUUCYe-HM_5dyq9Vl11Ofy-rLB4klmZe_XAbUuVisK1fJ4-FnDyPCQsELLv2Fm5HX75Jb9eSIi9E5gCTyxI48rOIbeyoDnrpD0F9SBJK6oxKu7W9_XyErNiizI6Ww7zeVwe11wvoSdqn4-JirZPXvdvd7USr1VBKHF3Nfgq5E3dXhqj4Bx2ZgmGpkumxiDPWVb2HXLWo133p1xWzvm-57ak30DZxjmEEp1DtjOU4NIz0K_HrG-i9XUMA13BoN5OoWa5GXVoHxVfF9mBTiv-vrvealcGFyoVIG71RTyK1gsac8-qmdkNAWvDPh0QtHKJZqSViOGeGAeaKLia6jKPXBTtXLsweHTBbuGTBaOkulH11JRivIWceUkd9cJirX-Jo5S9KaYgL9T0MTEmCm60rNNHEbNSsE6u_8m6W2DfepO6UpT9cGsfBWHNa62Mxk738Stjolu5BsT-vOzdy3piz7T73epXpu_OnWmPU8p6LXSnQdQyHzp3iHZIKK034kFFPM79-wRjtJzCErRiWnyGht3g_boqLvvQcBzhsykP4AmiULIatcTFetkEFYhfzzTdNchfvtLCs_rv6c4rXx39uuQiIsdIGjytW1_lcY2_uN-nKuJQmZVKwvzjunBoV0hd8H5f20DFTiSmRuss1lHiE36HFvBRhJHlfGYHbf2j8H7fdSsaxdC_pwwlV6yqyWe2wvOGhtDTH9ngO58HLkoJFOLiABxxEzwmLQ2YovVmsj14j0ilgTQDOh77Nz_kxXnohQ4uHdEGSS45kSL4jS7Mq9As_Nj2PxbN7LWUnffck5XF16F2lhJNqv0qLZmH0sE7VAxa4095ZsDMujjuH4Wss11klrqi-hF5z5gSNErAZGVeCkdlmq0gpA7_e6gWH_zW2LLtgEUy41IbhZIUj50DE6tkSvo3R4mnGfvQ3VuDsyNmMPTDMyVwOOByrAVGrDqRf-BbcxHFSlS2LZQ1KyFC8KOPOazbPwra8biOz-UMh5VrAaYxfKhyWtLqGMIakG0o2H57kZ0QPWLF2mnExIG5nPu-5CG69l_WGko3RTKyk1Tyn-ffgUXTsuTzwquADeLo2j0PH5pFQy_UTnHBAMU5aTOSoIL7Er6oa-jOBi_yHkIJdPeKlh5P0zaYqtN3wNyEruPV-bb_rQW8XCuVVmFbS3FrxDEDZzlh7u-TbGx0zeREJuO3QhCyfAQ1HKQXBrC4aiLx3AROQSSL_TuXEc1EpJi8q49Fmn-nF6b0ijSPa9r210XqMh2ORDmCA9WNVPiHPsgiXAlGZ39gOanJ6D6LyngDWJmJWdHPD9aMQ73bZrW8sB62Ro6mByIuXtXCPqSfzbJqCmZuIKwerQs39YBm2MCPalxWSejHMjQk_iThDYl6QVLFGW-MrvgT1osAAmFPGwqeOZt9Wy2qskIPocBYQQDFQvcc-OIpL4L44M_v5Z6qKJOTum0sn3iDIQJIQF1ATAnsre7aiVkkdSP-JfXrAAitgWPoEwdAa4NlxX0gDkS_oS8ltoswJECCDyQsnW6h8aoyrkLd7y6kvfXugLcNa8dPa6mIGMnmsDdVFgJ7i2CUvZpa215WOyqUel8f3bvbfmEgWcWdZMHiGf7mmJ41ivhxezD6zJ3djkqjTWacyQsXsIayNqDAMQD72beU-apY0kfzN5sHa1PKIQa7aSPZTa6fzqhmJTicqlYngTQPZ4vc_AZK7MSfMMEZmt6ZyaqoeXH3Irjqz_9bL4nTDlkg5R7ZXhkZ5gPERh3ry5wCJHrSosATWUds7gzhFQsh-oEkpNm0tAIeNkh6IF3Y7O2QvNiy697dDEnYpFx3u66GkNqwQvfBL65UHlMAAjUrUpxvRoUS_y1]--></g></svg>