<svg xmlns="http://www.w3.org/2000/svg" xmlns:xlink="http://www.w3.org/1999/xlink" contentStyleType="text/css" height="3034px" preserveAspectRatio="none" style="width:959px;height:3034px;background:#FFFFFF;" version="1.1" viewBox="0 0 959 3034" width="959px" zoomAndPan="magnify"><defs/><g><text fill="#000000" font-family="Verdana" font-size="22" font-weight="bold" lengthAdjust="spacing" textLength="543" x="206.875" y="37.1182">Parlay Group Betting Detection - Main Flow</text><ellipse cx="534.25" cy="62.7373" fill="#FFFFFF" rx="10" ry="10" style="stroke:#000000;stroke-width:1.0;"/><rect fill="#FFFFFF" height="49.168" rx="12.5" ry="12.5" style="stroke:#000000;stroke-width:1.0;" width="192" x="438.25" y="92.7373"/><text fill="#000000" font-family="Verdana" font-size="12" lengthAdjust="spacing" textLength="85" x="448.25" y="114.8018">Job Triggered</text><text fill="#000000" font-family="Verdana" font-size="12" lengthAdjust="spacing" textLength="172" x="448.25" y="129.3857">(Every 5 minutes)&#171;Stage1&#187;</text><rect fill="#FFFFFF" height="464.5444" style="stroke:#000000;stroke-width:1.0;" width="612" x="341.75" y="151.9053"/><path d="M666.75,151.9053 L666.75,161.9199 L656.75,171.9199 L341.75,171.9199 " fill="none" style="stroke:#000000;stroke-width:1.0;"/><text fill="#000000" font-family="Verdana" font-size="14" font-weight="bold" lengthAdjust="spacing" textLength="315" x="344.75" y="166.9805">Phase 1: Get Parlay Tickets from MainDB</text><rect fill="#FFFFFF" height="49.168" rx="12.5" ry="12.5" style="stroke:#000000;stroke-width:1.0;" width="321" x="373.75" y="188.9199"/><text fill="#000000" font-family="Verdana" font-size="12" lengthAdjust="spacing" textLength="301" x="383.75" y="210.9844">Call SP: CTS_MatchMonitorParlay_GetNewTicket</text><text fill="#000000" font-family="Verdana" font-size="12" lengthAdjust="spacing" textLength="202" x="383.75" y="225.5684">(SQL Server - bodb02)&#171;Stage1&#187;</text><rect fill="#FFFFFF" height="34.584" rx="12.5" ry="12.5" style="stroke:#000000;stroke-width:1.0;" width="277" x="395.75" y="258.0879"/><text fill="#000000" font-family="Verdana" font-size="12" lengthAdjust="spacing" textLength="257" x="405.75" y="280.1523">Read last scanned SequenceID&#171;Stage1&#187;</text><path d="M736.75,306.7339 L736.75,355.1318 L716.75,359.1318 L736.75,363.1318 L736.75,411.5298 A0,0 0 0 0 736.75,411.5298 L943.75,411.5298 A0,0 0 0 0 943.75,411.5298 L943.75,316.7339 L933.75,306.7339 L736.75,306.7339 A0,0 0 0 0 736.75,306.7339 " fill="#FFFFFF" style="stroke:#000000;stroke-width:1.0;"/><path d="M933.75,306.7339 L933.75,316.7339 L943.75,316.7339 L933.75,306.7339 " fill="#FFFFFF" style="stroke:#000000;stroke-width:1.0;"/><text fill="#000000" font-family="Verdana" font-size="13" font-weight="bold" lengthAdjust="spacing" textLength="101" x="742.75" y="324.8037">Parlay Filters:</text><text fill="#000000" font-family="Verdana" font-size="13" lengthAdjust="spacing" textLength="110" x="742.75" y="340.603">- Mix Parlay only</text><text fill="#000000" font-family="Verdana" font-size="13" lengthAdjust="spacing" textLength="158" x="742.75" y="356.4023">- Combo 2 or Combo 3+</text><text fill="#000000" font-family="Verdana" font-size="13" lengthAdjust="spacing" textLength="182" x="742.75" y="372.2017">- Exclude internal accounts</text><text fill="#000000" font-family="Verdana" font-size="13" lengthAdjust="spacing" textLength="153" x="742.75" y="388.001">- Exclude specific sites</text><text fill="#000000" font-family="Verdana" font-size="13" lengthAdjust="spacing" textLength="186" x="742.75" y="403.8003">- Exclude cashout accounts</text><rect fill="#FFFFFF" height="92.9199" rx="12.5" ry="12.5" style="stroke:#000000;stroke-width:1.0;" width="365" x="351.75" y="312.6719"/><text fill="#000000" font-family="Verdana" font-size="12" lengthAdjust="spacing" textLength="205" x="361.75" y="334.7363">Query bettrans for Parlay tickets</text><text fill="#000000" font-family="Verdana" font-size="12" lengthAdjust="spacing" textLength="205" x="361.75" y="349.3203">WHERE Betteam = 1 (Mix Parlay)</text><text fill="#000000" font-family="Verdana" font-size="12" lengthAdjust="spacing" textLength="114" x="361.75" y="363.9043">AND BetType = 29</text><text fill="#000000" font-family="Verdana" font-size="12" lengthAdjust="spacing" textLength="114" x="361.75" y="378.4883">AND MatchID = 29</text><text fill="#000000" font-family="Verdana" font-size="12" lengthAdjust="spacing" textLength="345" x="361.75" y="393.0723">AND (BetCheck &amp; 2 = 2 OR BetCheck &amp; 4 = 4)&#171;Stage1&#187;</text><rect fill="#FFFFFF" height="49.168" rx="12.5" ry="12.5" style="stroke:#000000;stroke-width:1.0;" width="261" x="403.75" y="431.5298"/><text fill="#000000" font-family="Verdana" font-size="12" lengthAdjust="spacing" textLength="207" x="413.75" y="453.5942">Get ticket details from bettransm</text><text fill="#000000" font-family="Verdana" font-size="12" lengthAdjust="spacing" textLength="241" x="413.75" y="468.1782">(Multiple matches per Refno)&#171;Stage1&#187;</text><rect fill="#FFFFFF" height="34.584" rx="12.5" ry="12.5" style="stroke:#000000;stroke-width:1.0;" width="280" x="394.25" y="500.6978"/><text fill="#000000" font-family="Verdana" font-size="12" lengthAdjust="spacing" textLength="260" x="404.25" y="522.7622">Filter by Sport/BetType settings&#171;Stage1&#187;</text><rect fill="#FFFFFF" height="49.168" rx="12.5" ry="12.5" style="stroke:#000000;stroke-width:1.0;" width="356" x="356.25" y="555.2817"/><text fill="#000000" font-family="Verdana" font-size="12" lengthAdjust="spacing" textLength="102" x="366.25" y="577.3462">Return ticket list</text><text fill="#000000" font-family="Verdana" font-size="12" lengthAdjust="spacing" textLength="336" x="366.25" y="591.9302">(SequenceID, TransID, Refno, TransIDm, ...)&#171;Stage1&#187;</text><rect fill="#FFFFFF" height="405.1318" style="stroke:#000000;stroke-width:1.0;" width="517" x="275.75" y="626.4497"/><path d="M633.75,626.4497 L633.75,636.4644 L623.75,646.4644 L275.75,646.4644 " fill="none" style="stroke:#000000;stroke-width:1.0;"/><text fill="#000000" font-family="Verdana" font-size="14" font-weight="bold" lengthAdjust="spacing" textLength="348" x="278.75" y="641.5249">Phase 2: Insert into Staging Tables (MySQL)</text><rect fill="#FFFFFF" height="34.584" rx="12.5" ry="12.5" style="stroke:#000000;stroke-width:1.0;" width="223" x="422.75" y="663.4644"/><text fill="#000000" font-family="Verdana" font-size="12" lengthAdjust="spacing" textLength="203" x="432.75" y="685.5288">Group tickets by Refno&#171;Stage2&#187;</text><rect fill="#FFFFFF" height="34.584" rx="12.5" ry="12.5" style="stroke:#000000;stroke-width:1.0;" width="240" x="414.25" y="718.0483"/><text fill="#000000" font-family="Verdana" font-size="12" lengthAdjust="spacing" textLength="220" x="424.25" y="740.1128">For each match in parlay:&#171;Stage2&#187;</text><rect fill="#FFFFFF" height="54.0293" rx="12.5" ry="12.5" style="stroke:#000000;stroke-width:1.0;" width="497" x="285.75" y="772.6323"/><text fill="#000000" font-family="Verdana" font-size="12" lengthAdjust="spacing" textLength="117" x="295.75" y="794.6968">Calculate ScoreDiff</text><text fill="#000000" font-family="Verdana" font-size="16" font-weight="bold" lengthAdjust="spacing" textLength="477" x="295.75" y="813.3022">(LiveHomeScore * 10000) + LiveAwayScore&#171;Stage2&#187;</text><rect fill="#FFFFFF" height="34.584" rx="12.5" ry="12.5" style="stroke:#000000;stroke-width:1.0;" width="307" x="380.75" y="846.6616"/><text fill="#000000" font-family="Verdana" font-size="12" lengthAdjust="spacing" textLength="287" x="390.75" y="868.7261">Convert TransDate to TO_SECONDS&#171;Stage2&#187;</text><rect fill="#FFFFFF" height="49.168" rx="12.5" ry="12.5" style="stroke:#000000;stroke-width:1.0;" width="425" x="321.75" y="901.2456"/><text fill="#000000" font-family="Verdana" font-size="12" lengthAdjust="spacing" textLength="80" x="331.75" y="923.3101">INSERT INTO</text><text fill="#000000" font-family="Verdana" font-size="12" lengthAdjust="spacing" textLength="405" x="331.75" y="937.894">MatchMonitorParlayStagingGroupBetting[Live/NonLive]&#171;Stage2&#187;</text><rect fill="#FFFFFF" height="49.168" rx="12.5" ry="12.5" style="stroke:#000000;stroke-width:1.0;" width="219" x="424.75" y="970.4136"/><text fill="#000000" font-family="Verdana" font-size="12" lengthAdjust="spacing" textLength="162" x="434.75" y="992.478">Update SystemParameter</text><text fill="#000000" font-family="Verdana" font-size="12" lengthAdjust="spacing" textLength="199" x="434.75" y="1007.062">with new SequenceID&#171;Stage2&#187;</text><rect fill="#FFFFFF" height="542.3584" style="stroke:#000000;stroke-width:1.0;" width="592" x="293.25" y="1041.5815"/><path d="M555.25,1041.5815 L555.25,1051.5962 L545.25,1061.5962 L293.25,1061.5962 " fill="none" style="stroke:#000000;stroke-width:1.0;"/><text fill="#000000" font-family="Verdana" font-size="14" font-weight="bold" lengthAdjust="spacing" textLength="252" x="296.25" y="1056.6567">Phase 3: Get Matches to Process</text><rect fill="#FFFFFF" height="34.584" rx="12.5" ry="12.5" style="stroke:#000000;stroke-width:1.0;" width="462" x="303.25" y="1078.5962"/><text fill="#000000" font-family="Verdana" font-size="12" lengthAdjust="spacing" textLength="442" x="313.25" y="1100.6606">Call SP: CTS_DC_MatchMonitorParlay_RuleGroupBetting_Get&#171;Stage3&#187;</text><path d="M668.25,1136.9648 L668.25,1153.7642 L648.25,1157.7642 L668.25,1161.7642 L668.25,1178.5635 A0,0 0 0 0 668.25,1178.5635 L875.25,1178.5635 A0,0 0 0 0 875.25,1178.5635 L875.25,1146.9648 L865.25,1136.9648 L668.25,1136.9648 A0,0 0 0 0 668.25,1136.9648 " fill="#FFFFFF" style="stroke:#000000;stroke-width:1.0;"/><path d="M865.25,1136.9648 L865.25,1146.9648 L875.25,1146.9648 L865.25,1136.9648 " fill="#FFFFFF" style="stroke:#000000;stroke-width:1.0;"/><text fill="#000000" font-family="Verdana" font-size="13" lengthAdjust="spacing" textLength="161" x="674.25" y="1155.0347">Live: ParameterID = 173</text><text fill="#000000" font-family="Verdana" font-size="13" lengthAdjust="spacing" textLength="186" x="674.25" y="1170.834">NonLive: ParameterID = 174</text><rect fill="#FFFFFF" height="49.168" rx="12.5" ry="12.5" style="stroke:#000000;stroke-width:1.0;" width="228" x="420.25" y="1133.1802"/><text fill="#000000" font-family="Verdana" font-size="12" lengthAdjust="spacing" textLength="208" x="430.25" y="1155.2446">Read last processed SequenceID</text><text fill="#000000" font-family="Verdana" font-size="12" lengthAdjust="spacing" textLength="205" x="430.25" y="1169.8286">from SystemParameter&#171;Stage3&#187;</text><rect fill="#FFFFFF" height="49.168" rx="12.5" ry="12.5" style="stroke:#000000;stroke-width:1.0;" width="250" x="409.25" y="1202.3481"/><text fill="#000000" font-family="Verdana" font-size="12" lengthAdjust="spacing" textLength="122" x="419.25" y="1224.4126">Read rule TimeStep</text><text fill="#000000" font-family="Verdana" font-size="12" lengthAdjust="spacing" textLength="230" x="419.25" y="1238.9966">(180 seconds = 3 minutes)&#171;Stage3&#187;</text><rect fill="#FFFFFF" height="49.168" rx="12.5" ry="12.5" style="stroke:#000000;stroke-width:1.0;" width="279" x="394.75" y="1271.5161"/><text fill="#000000" font-family="Verdana" font-size="12" lengthAdjust="spacing" textLength="136" x="404.75" y="1293.5806">Load Temp_OldGroup</text><text fill="#000000" font-family="Verdana" font-size="12" lengthAdjust="spacing" textLength="259" x="404.75" y="1308.1646">(Existing groups still in staging)&#171;Stage3&#187;</text><rect fill="#FFFFFF" height="49.168" rx="12.5" ry="12.5" style="stroke:#000000;stroke-width:1.0;" width="313" x="377.75" y="1340.6841"/><text fill="#000000" font-family="Verdana" font-size="12" lengthAdjust="spacing" textLength="142" x="387.75" y="1362.7485">Calculate time window</text><text fill="#000000" font-family="Verdana" font-size="12" lengthAdjust="spacing" textLength="293" x="387.75" y="1377.3325">MaxTime = MinTransDate + TimeStep&#171;Stage3&#187;</text><rect fill="#FFFFFF" height="92.9199" rx="12.5" ry="12.5" style="stroke:#000000;stroke-width:1.0;" width="318" x="375.25" y="1409.8521"/><text fill="#000000" font-family="Verdana" font-size="12" lengthAdjust="spacing" textLength="125" x="385.25" y="1431.9165">Query staging table</text><text fill="#000000" font-family="Verdana" font-size="12" lengthAdjust="spacing" textLength="253" x="385.25" y="1446.5005">WHERE SequenceID &lt;= MaxSequenceID</text><text fill="#000000" font-family="Verdana" font-size="12" lengthAdjust="spacing" textLength="256" x="385.25" y="1461.0845">GROUP BY MatchID, ScoreDiff, BettypeID,</text><text fill="#000000" font-family="Verdana" font-size="12" lengthAdjust="spacing" textLength="177" x="385.25" y="1475.6685">BetID, Betteam, OldGroupID</text><text fill="#000000" font-family="Verdana" font-size="12" lengthAdjust="spacing" textLength="298" x="385.25" y="1490.2524">HAVING COUNT(DISTINCT CustID) &gt; 1&#171;Stage3&#187;</text><rect fill="#FFFFFF" height="49.168" rx="12.5" ry="12.5" style="stroke:#000000;stroke-width:1.0;" width="402" x="333.25" y="1522.772"/><text fill="#000000" font-family="Verdana" font-size="12" lengthAdjust="spacing" textLength="132" x="343.25" y="1544.8364">Return match groups</text><text fill="#000000" font-family="Verdana" font-size="12" lengthAdjust="spacing" textLength="382" x="343.25" y="1559.4204">(MatchID, CustIDList, CTSCustIDList, TransIDmList)&#171;Stage3&#187;</text><polygon fill="#FFFFFF" points="463.25,1603.9399,605.25,1603.9399,617.25,1615.9399,605.25,1627.9399,463.25,1627.9399,451.25,1615.9399,463.25,1603.9399" style="stroke:#000000;stroke-width:1.0;"/><text fill="#000000" font-family="Verdana" font-size="11" lengthAdjust="spacing" textLength="142" x="463.25" y="1620.3147">Has matches to process?</text><text fill="#000000" font-family="Verdana" font-size="11" lengthAdjust="spacing" textLength="20" x="431.25" y="1613.6304">yes</text><text fill="#000000" font-family="Verdana" font-size="11" lengthAdjust="spacing" textLength="14" x="617.25" y="1613.6304">no</text><rect fill="#FFFFFF" height="597.8657" style="stroke:#000000;stroke-width:1.0;" width="603.5" x="42.5" y="1637.9399"/><path d="M354.5,1637.9399 L354.5,1647.9546 L344.5,1657.9546 L42.5,1657.9546 " fill="none" style="stroke:#000000;stroke-width:1.0;"/><text fill="#000000" font-family="Verdana" font-size="14" font-weight="bold" lengthAdjust="spacing" textLength="302" x="45.5" y="1653.0151">Phase 4: Process Each Match (Parallel)</text><rect fill="#000000" height="6" rx="2.5" ry="2.5" style="stroke:#000000;stroke-width:1.0;" width="475" x="52.5" y="1674.9546"/><rect fill="#FFFFFF" height="34.584" rx="12.5" ry="12.5" style="stroke:#000000;stroke-width:1.0;" width="130" x="66.5" y="1700.9546"/><text fill="#000000" font-family="Verdana" font-size="12" lengthAdjust="spacing" textLength="110" x="76.5" y="1723.019">Match 1&#171;Stage4&#187;</text><rect fill="#FFFFFF" height="34.584" rx="12.5" ry="12.5" style="stroke:#000000;stroke-width:1.0;" width="130" x="224.5" y="1700.9546"/><text fill="#000000" font-family="Verdana" font-size="12" lengthAdjust="spacing" textLength="110" x="234.5" y="1723.019">Match 2&#171;Stage4&#187;</text><rect fill="#FFFFFF" height="34.584" rx="12.5" ry="12.5" style="stroke:#000000;stroke-width:1.0;" width="131" x="382.5" y="1700.9546"/><text fill="#000000" font-family="Verdana" font-size="12" lengthAdjust="spacing" textLength="111" x="392.5" y="1723.019">Match N&#171;Stage4&#187;</text><rect fill="#000000" height="6" rx="2.5" ry="2.5" style="stroke:#000000;stroke-width:1.0;" width="475" x="52.5" y="1755.5386"/><path d="M401,1778.0313 L401,1794.8306 L381,1798.8306 L401,1802.8306 L401,1819.6299 A0,0 0 0 0 401,1819.6299 L636,1819.6299 A0,0 0 0 0 636,1819.6299 L636,1788.0313 L626,1778.0313 L401,1778.0313 A0,0 0 0 0 401,1778.0313 " fill="#FFFFFF" style="stroke:#000000;stroke-width:1.0;"/><path d="M626,1778.0313 L626,1788.0313 L636,1788.0313 L626,1778.0313 " fill="#FFFFFF" style="stroke:#000000;stroke-width:1.0;"/><text fill="#000000" font-family="Verdana" font-size="13" font-weight="bold" lengthAdjust="spacing" textLength="154" x="407" y="1796.1011">Processing in parallel</text><text fill="#000000" font-family="Verdana" font-size="13" lengthAdjust="spacing" textLength="214" x="407" y="1811.9004">Number of threads: Configurable</text><rect fill="#FFFFFF" height="34.584" rx="12.5" ry="12.5" style="stroke:#000000;stroke-width:1.0;" width="182" x="199" y="1781.5386"/><text fill="#000000" font-family="Verdana" font-size="12" lengthAdjust="spacing" textLength="162" x="209" y="1803.603">For each match:&#171;Stage4&#187;</text><rect fill="#FFFFFF" height="63.752" rx="12.5" ry="12.5" style="stroke:#000000;stroke-width:1.0;" width="336" x="122" y="1839.6299"/><text fill="#000000" font-family="Verdana" font-size="12" lengthAdjust="spacing" textLength="196" x="132" y="1861.6943">Round 1: Association Detection</text><text fill="#000000" font-family="Verdana" font-size="12" lengthAdjust="spacing" textLength="206" x="132" y="1876.2783">Call AssociationDetection service</text><text fill="#000000" font-family="Verdana" font-size="12" lengthAdjust="spacing" textLength="316" x="132" y="1890.8623">with 4 criteria (Device, AI, IP, 3 Matches)&#171;Stage4&#187;</text><rect fill="#FFFFFF" height="49.168" rx="12.5" ry="12.5" style="stroke:#000000;stroke-width:1.0;" width="280" x="150" y="1923.3818"/><text fill="#000000" font-family="Verdana" font-size="12" lengthAdjust="spacing" textLength="142" x="160" y="1945.4463">Get association result:</text><text fill="#000000" font-family="Verdana" font-size="12" lengthAdjust="spacing" textLength="260" x="160" y="1960.0303">[{CustID: 123, GroupID: 1}, ...]&#171;Stage4&#187;</text><rect fill="#FFFFFF" height="49.168" rx="12.5" ry="12.5" style="stroke:#000000;stroke-width:1.0;" width="428" x="76" y="1992.5498"/><text fill="#000000" font-family="Verdana" font-size="12" lengthAdjust="spacing" textLength="408" x="86" y="2014.6143">Call SP: CTS_DC_MatchMonitorParlay_RuleGroupBetting_Process</text><text fill="#000000" font-family="Verdana" font-size="12" lengthAdjust="spacing" textLength="195" x="86" y="2029.1982">with CustGroup JSON&#171;Stage4&#187;</text><rect fill="#FFFFFF" height="78.3359" rx="12.5" ry="12.5" style="stroke:#000000;stroke-width:1.0;" width="368" x="106" y="2061.7178"/><text fill="#000000" font-family="Verdana" font-size="12" lengthAdjust="spacing" textLength="117" x="116" y="2083.7822">Inside Process SP:</text><text fill="#000000" font-family="Verdana" font-size="12" lengthAdjust="spacing" textLength="233" x="116" y="2098.3662">- Group tickets by TimeStep windows</text><text fill="#000000" font-family="Verdana" font-size="12" lengthAdjust="spacing" textLength="273" x="116" y="2112.9502">- Filter: Each group must have &gt;1 customer</text><text fill="#000000" font-family="Verdana" font-size="12" lengthAdjust="spacing" textLength="348" x="116" y="2127.5342">- Return complete groups &amp; reprocess groups&#171;Stage4&#187;</text><rect fill="#FFFFFF" height="63.752" rx="12.5" ry="12.5" style="stroke:#000000;stroke-width:1.0;" width="268" x="156" y="2160.0537"/><text fill="#000000" font-family="Verdana" font-size="12" lengthAdjust="spacing" textLength="248" x="166" y="2182.1182">Round 2: Reprocess unassigned tickets</text><text fill="#000000" font-family="Verdana" font-size="12" lengthAdjust="spacing" textLength="181" x="166" y="2196.7021">Re-run Association Detection</text><text fill="#000000" font-family="Verdana" font-size="12" lengthAdjust="spacing" textLength="204" x="166" y="2211.2861">for GroupID = 0 tickets&#171;Stage4&#187;</text><rect fill="#FFFFFF" height="424.2705" style="stroke:#000000;stroke-width:1.0;" width="572.25" x="6" y="2245.8057"/><path d="M220,2245.8057 L220,2255.8203 L210,2265.8203 L6,2265.8203 " fill="none" style="stroke:#000000;stroke-width:1.0;"/><text fill="#000000" font-family="Verdana" font-size="14" font-weight="bold" lengthAdjust="spacing" textLength="204" x="9" y="2260.8809">Phase 5: Complete &amp; Save</text><rect fill="#FFFFFF" height="34.584" rx="12.5" ry="12.5" style="stroke:#000000;stroke-width:1.0;" width="500" x="40" y="2282.8203"/><text fill="#000000" font-family="Verdana" font-size="12" lengthAdjust="spacing" textLength="480" x="50" y="2304.8848">Call SP: CTS_DC_MatchMonitorParlay_RuleGroupBetting_Complete&#171;Stage5&#187;</text><rect fill="#FFFFFF" height="49.168" rx="12.5" ry="12.5" style="stroke:#000000;stroke-width:1.0;" width="201" x="189.5" y="2337.4043"/><text fill="#000000" font-family="Verdana" font-size="12" lengthAdjust="spacing" textLength="181" x="199.5" y="2359.4688">Merge groups by TransIDList</text><text fill="#000000" font-family="Verdana" font-size="12" lengthAdjust="spacing" textLength="173" x="199.5" y="2374.0527">(avoid duplicates)&#171;Stage5&#187;</text><polygon fill="#FFFFFF" points="186,2406.5723,394,2406.5723,406,2418.5723,394,2430.5723,186,2430.5723,174,2418.5723,186,2406.5723" style="stroke:#000000;stroke-width:1.0;"/><text fill="#000000" font-family="Verdana" font-size="11" lengthAdjust="spacing" textLength="208" x="186" y="2422.947">Match exists in MatchMonitorDetails?</text><text fill="#000000" font-family="Verdana" font-size="11" lengthAdjust="spacing" textLength="20" x="154" y="2416.2627">yes</text><text fill="#000000" font-family="Verdana" font-size="11" lengthAdjust="spacing" textLength="14" x="406" y="2416.2627">no</text><rect fill="#FFFFFF" height="49.168" rx="12.5" ry="12.5" style="stroke:#000000;stroke-width:1.0;" width="262" x="19.25" y="2440.5723"/><text fill="#000000" font-family="Verdana" font-size="12" lengthAdjust="spacing" textLength="115" x="29.25" y="2462.6367">Merge new tickets</text><text fill="#000000" font-family="Verdana" font-size="12" lengthAdjust="spacing" textLength="242" x="29.25" y="2477.2207">with existing tickets (UNION)&#171;Stage5&#187;</text><rect fill="#FFFFFF" height="34.584" rx="12.5" ry="12.5" style="stroke:#000000;stroke-width:1.0;" width="261" x="19.75" y="2524.3242"/><text fill="#000000" font-family="Verdana" font-size="12" lengthAdjust="spacing" textLength="241" x="29.75" y="2546.3887">UPDATE MatchMonitorDetails&#171;Stage5&#187;</text><rect fill="#FFFFFF" height="34.584" rx="12.5" ry="12.5" style="stroke:#000000;stroke-width:1.0;" width="214" x="322.75" y="2440.5723"/><text fill="#000000" font-family="Verdana" font-size="12" lengthAdjust="spacing" textLength="194" x="332.75" y="2462.6367">INSERT MatchMonitor&#171;Stage5&#187;</text><rect fill="#FFFFFF" height="34.584" rx="12.5" ry="12.5" style="stroke:#000000;stroke-width:1.0;" width="257" x="301.25" y="2509.7402"/><text fill="#000000" font-family="Verdana" font-size="12" lengthAdjust="spacing" textLength="237" x="311.25" y="2531.8047">INSERT MatchMonitorDetails&#171;Stage5&#187;</text><polygon fill="#FFFFFF" points="290,2564.9082,302,2576.9082,290,2588.9082,278,2576.9082,290,2564.9082" style="stroke:#000000;stroke-width:1.0;"/><rect fill="#FFFFFF" height="49.168" rx="12.5" ry="12.5" style="stroke:#000000;stroke-width:1.0;" width="286" x="147" y="2608.9082"/><text fill="#000000" font-family="Verdana" font-size="12" lengthAdjust="spacing" textLength="136" x="157" y="2630.9727">UPDATE staging table</text><text fill="#000000" font-family="Verdana" font-size="12" lengthAdjust="spacing" textLength="266" x="157" y="2645.5566">SET GroupID for detected tickets&#171;Stage5&#187;</text><rect fill="#FFFFFF" height="221.9346" style="stroke:#000000;stroke-width:1.0;" width="544" x="18" y="2680.0762"/><path d="M207,2680.0762 L207,2690.0908 L197,2700.0908 L18,2700.0908 " fill="none" style="stroke:#000000;stroke-width:1.0;"/><text fill="#000000" font-family="Verdana" font-size="14" font-weight="bold" lengthAdjust="spacing" textLength="179" x="21" y="2695.1514">Phase 6: Clean Staging</text><rect fill="#FFFFFF" height="34.584" rx="12.5" ry="12.5" style="stroke:#000000;stroke-width:1.0;" width="524" x="28" y="2717.0908"/><text fill="#000000" font-family="Verdana" font-size="12" lengthAdjust="spacing" textLength="504" x="38" y="2739.1553">Call SP: CTS_DC_MatchMonitorParlay_RuleGroupBetting_StagingClean&#171;Stage6&#187;</text><rect fill="#FFFFFF" height="49.168" rx="12.5" ry="12.5" style="stroke:#000000;stroke-width:1.0;" width="334" x="123" y="2771.6748"/><text fill="#000000" font-family="Verdana" font-size="12" lengthAdjust="spacing" textLength="173" x="133" y="2793.7393">DELETE FROM staging table</text><text fill="#000000" font-family="Verdana" font-size="12" lengthAdjust="spacing" textLength="314" x="133" y="2808.3232">WHERE SequenceID &lt;= MaxSequenceID&#171;Stage6&#187;</text><rect fill="#FFFFFF" height="49.168" rx="12.5" ry="12.5" style="stroke:#000000;stroke-width:1.0;" width="327" x="126.5" y="2840.8428"/><text fill="#000000" font-family="Verdana" font-size="12" lengthAdjust="spacing" textLength="165" x="136.5" y="2862.9072">UPDATE SystemParameter</text><text fill="#000000" font-family="Verdana" font-size="12" lengthAdjust="spacing" textLength="307" x="136.5" y="2877.4912">SET ParameterValue = MaxSequenceID&#171;Stage6&#187;</text><rect fill="#FFFFFF" height="34.584" rx="12.5" ry="12.5" style="stroke:#000000;stroke-width:1.0;" width="225" x="666" y="1637.9399"/><text fill="#000000" font-family="Verdana" font-size="12" lengthAdjust="spacing" textLength="205" x="676" y="1660.0044">No matches to process&#171;Stage6&#187;</text><polygon fill="#FFFFFF" points="534.25,2908.0107,546.25,2920.0107,534.25,2932.0107,522.25,2920.0107,534.25,2908.0107" style="stroke:#000000;stroke-width:1.0;"/><rect fill="#FFFFFF" height="34.584" rx="12.5" ry="12.5" style="stroke:#000000;stroke-width:1.0;" width="171" x="448.75" y="2952.0107"/><text fill="#000000" font-family="Verdana" font-size="12" lengthAdjust="spacing" textLength="151" x="458.75" y="2974.0752">Job completed&#171;Stage6&#187;</text><ellipse cx="534.25" cy="3017.5947" fill="none" rx="11" ry="11" style="stroke:#000000;stroke-width:1.0;"/><ellipse cx="534.25" cy="3017.5947" fill="#FFFFFF" rx="6" ry="6" style="stroke:#000000;stroke-width:1.0;"/><line style="stroke:#000000;stroke-width:1.0;" x1="534.25" x2="534.25" y1="72.7373" y2="92.7373"/><polygon fill="#000000" points="530.25,82.7373,534.25,92.7373,538.25,82.7373,534.25,86.7373" style="stroke:#000000;stroke-width:1.0;"/><line style="stroke:#000000;stroke-width:1.0;" x1="534.25" x2="534.25" y1="238.0879" y2="258.0879"/><polygon fill="#000000" points="530.25,248.0879,534.25,258.0879,538.25,248.0879,534.25,252.0879" style="stroke:#000000;stroke-width:1.0;"/><line style="stroke:#000000;stroke-width:1.0;" x1="534.25" x2="534.25" y1="292.6719" y2="312.6719"/><polygon fill="#000000" points="530.25,302.6719,534.25,312.6719,538.25,302.6719,534.25,306.6719" style="stroke:#000000;stroke-width:1.0;"/><line style="stroke:#000000;stroke-width:1.0;" x1="534.25" x2="534.25" y1="405.5918" y2="431.5298"/><polygon fill="#000000" points="530.25,421.5298,534.25,431.5298,538.25,421.5298,534.25,425.5298" style="stroke:#000000;stroke-width:1.0;"/><line style="stroke:#000000;stroke-width:1.0;" x1="534.25" x2="534.25" y1="480.6978" y2="500.6978"/><polygon fill="#000000" points="530.25,490.6978,534.25,500.6978,538.25,490.6978,534.25,494.6978" style="stroke:#000000;stroke-width:1.0;"/><line style="stroke:#000000;stroke-width:1.0;" x1="534.25" x2="534.25" y1="535.2817" y2="555.2817"/><polygon fill="#000000" points="530.25,545.2817,534.25,555.2817,538.25,545.2817,534.25,549.2817" style="stroke:#000000;stroke-width:1.0;"/><line style="stroke:#000000;stroke-width:1.0;" x1="534.25" x2="534.25" y1="141.9053" y2="188.9199"/><polygon fill="#000000" points="530.25,178.9199,534.25,188.9199,538.25,178.9199,534.25,182.9199" style="stroke:#000000;stroke-width:1.0;"/><line style="stroke:#000000;stroke-width:1.0;" x1="534.25" x2="534.25" y1="698.0483" y2="718.0483"/><polygon fill="#000000" points="530.25,708.0483,534.25,718.0483,538.25,708.0483,534.25,712.0483" style="stroke:#000000;stroke-width:1.0;"/><line style="stroke:#000000;stroke-width:1.0;" x1="534.25" x2="534.25" y1="752.6323" y2="772.6323"/><polygon fill="#000000" points="530.25,762.6323,534.25,772.6323,538.25,762.6323,534.25,766.6323" style="stroke:#000000;stroke-width:1.0;"/><line style="stroke:#000000;stroke-width:1.0;" x1="534.25" x2="534.25" y1="826.6616" y2="846.6616"/><polygon fill="#000000" points="530.25,836.6616,534.25,846.6616,538.25,836.6616,534.25,840.6616" style="stroke:#000000;stroke-width:1.0;"/><line style="stroke:#000000;stroke-width:1.0;" x1="534.25" x2="534.25" y1="881.2456" y2="901.2456"/><polygon fill="#000000" points="530.25,891.2456,534.25,901.2456,538.25,891.2456,534.25,895.2456" style="stroke:#000000;stroke-width:1.0;"/><line style="stroke:#000000;stroke-width:1.0;" x1="534.25" x2="534.25" y1="950.4136" y2="970.4136"/><polygon fill="#000000" points="530.25,960.4136,534.25,970.4136,538.25,960.4136,534.25,964.4136" style="stroke:#000000;stroke-width:1.0;"/><line style="stroke:#000000;stroke-width:1.0;" x1="534.25" x2="534.25" y1="604.4497" y2="663.4644"/><polygon fill="#000000" points="530.25,653.4644,534.25,663.4644,538.25,653.4644,534.25,657.4644" style="stroke:#000000;stroke-width:1.0;"/><line style="stroke:#000000;stroke-width:1.0;" x1="534.25" x2="534.25" y1="1113.1802" y2="1133.1802"/><polygon fill="#000000" points="530.25,1123.1802,534.25,1133.1802,538.25,1123.1802,534.25,1127.1802" style="stroke:#000000;stroke-width:1.0;"/><line style="stroke:#000000;stroke-width:1.0;" x1="534.25" x2="534.25" y1="1182.3481" y2="1202.3481"/><polygon fill="#000000" points="530.25,1192.3481,534.25,1202.3481,538.25,1192.3481,534.25,1196.3481" style="stroke:#000000;stroke-width:1.0;"/><line style="stroke:#000000;stroke-width:1.0;" x1="534.25" x2="534.25" y1="1251.5161" y2="1271.5161"/><polygon fill="#000000" points="530.25,1261.5161,534.25,1271.5161,538.25,1261.5161,534.25,1265.5161" style="stroke:#000000;stroke-width:1.0;"/><line style="stroke:#000000;stroke-width:1.0;" x1="534.25" x2="534.25" y1="1320.6841" y2="1340.6841"/><polygon fill="#000000" points="530.25,1330.6841,534.25,1340.6841,538.25,1330.6841,534.25,1334.6841" style="stroke:#000000;stroke-width:1.0;"/><line style="stroke:#000000;stroke-width:1.0;" x1="534.25" x2="534.25" y1="1389.8521" y2="1409.8521"/><polygon fill="#000000" points="530.25,1399.8521,534.25,1409.8521,538.25,1399.8521,534.25,1403.8521" style="stroke:#000000;stroke-width:1.0;"/><line style="stroke:#000000;stroke-width:1.0;" x1="534.25" x2="534.25" y1="1502.772" y2="1522.772"/><polygon fill="#000000" points="530.25,1512.772,534.25,1522.772,538.25,1512.772,534.25,1516.772" style="stroke:#000000;stroke-width:1.0;"/><line style="stroke:#000000;stroke-width:1.0;" x1="534.25" x2="534.25" y1="1019.5815" y2="1078.5962"/><polygon fill="#000000" points="530.25,1068.5962,534.25,1078.5962,538.25,1068.5962,534.25,1072.5962" style="stroke:#000000;stroke-width:1.0;"/><line style="stroke:#000000;stroke-width:1.0;" x1="131.5" x2="131.5" y1="1680.9546" y2="1700.9546"/><polygon fill="#000000" points="127.5,1690.9546,131.5,1700.9546,135.5,1690.9546,131.5,1694.9546" style="stroke:#000000;stroke-width:1.0;"/><line style="stroke:#000000;stroke-width:1.0;" x1="289.5" x2="289.5" y1="1680.9546" y2="1700.9546"/><polygon fill="#000000" points="285.5,1690.9546,289.5,1700.9546,293.5,1690.9546,289.5,1694.9546" style="stroke:#000000;stroke-width:1.0;"/><line style="stroke:#000000;stroke-width:1.0;" x1="448" x2="448" y1="1680.9546" y2="1700.9546"/><polygon fill="#000000" points="444,1690.9546,448,1700.9546,452,1690.9546,448,1694.9546" style="stroke:#000000;stroke-width:1.0;"/><line style="stroke:#000000;stroke-width:1.0;" x1="131.5" x2="131.5" y1="1735.5386" y2="1755.5386"/><polygon fill="#000000" points="127.5,1745.5386,131.5,1755.5386,135.5,1745.5386,131.5,1749.5386" style="stroke:#000000;stroke-width:1.0;"/><line style="stroke:#000000;stroke-width:1.0;" x1="289.5" x2="289.5" y1="1735.5386" y2="1755.5386"/><polygon fill="#000000" points="285.5,1745.5386,289.5,1755.5386,293.5,1745.5386,289.5,1749.5386" style="stroke:#000000;stroke-width:1.0;"/><line style="stroke:#000000;stroke-width:1.0;" x1="448" x2="448" y1="1735.5386" y2="1755.5386"/><polygon fill="#000000" points="444,1745.5386,448,1755.5386,452,1745.5386,448,1749.5386" style="stroke:#000000;stroke-width:1.0;"/><line style="stroke:#000000;stroke-width:1.0;" x1="290" x2="290" y1="1761.5386" y2="1781.5386"/><polygon fill="#000000" points="286,1771.5386,290,1781.5386,294,1771.5386,290,1775.5386" style="stroke:#000000;stroke-width:1.0;"/><line style="stroke:#000000;stroke-width:1.0;" x1="290" x2="290" y1="1816.1226" y2="1839.6299"/><polygon fill="#000000" points="286,1829.6299,290,1839.6299,294,1829.6299,290,1833.6299" style="stroke:#000000;stroke-width:1.0;"/><line style="stroke:#000000;stroke-width:1.0;" x1="290" x2="290" y1="1903.3818" y2="1923.3818"/><polygon fill="#000000" points="286,1913.3818,290,1923.3818,294,1913.3818,290,1917.3818" style="stroke:#000000;stroke-width:1.0;"/><line style="stroke:#000000;stroke-width:1.0;" x1="290" x2="290" y1="1972.5498" y2="1992.5498"/><polygon fill="#000000" points="286,1982.5498,290,1992.5498,294,1982.5498,290,1986.5498" style="stroke:#000000;stroke-width:1.0;"/><line style="stroke:#000000;stroke-width:1.0;" x1="290" x2="290" y1="2041.7178" y2="2061.7178"/><polygon fill="#000000" points="286,2051.7178,290,2061.7178,294,2051.7178,290,2055.7178" style="stroke:#000000;stroke-width:1.0;"/><line style="stroke:#000000;stroke-width:1.0;" x1="290" x2="290" y1="2140.0537" y2="2160.0537"/><polygon fill="#000000" points="286,2150.0537,290,2160.0537,294,2150.0537,290,2154.0537" style="stroke:#000000;stroke-width:1.0;"/><line style="stroke:#000000;stroke-width:1.0;" x1="290" x2="290" y1="2317.4043" y2="2337.4043"/><polygon fill="#000000" points="286,2327.4043,290,2337.4043,294,2327.4043,290,2331.4043" style="stroke:#000000;stroke-width:1.0;"/><line style="stroke:#000000;stroke-width:1.0;" x1="150.25" x2="150.25" y1="2489.7402" y2="2524.3242"/><polygon fill="#000000" points="146.25,2514.3242,150.25,2524.3242,154.25,2514.3242,150.25,2518.3242" style="stroke:#000000;stroke-width:1.0;"/><line style="stroke:#000000;stroke-width:1.0;" x1="429.75" x2="429.75" y1="2475.1563" y2="2509.7402"/><polygon fill="#000000" points="425.75,2499.7402,429.75,2509.7402,433.75,2499.7402,429.75,2503.7402" style="stroke:#000000;stroke-width:1.0;"/><line style="stroke:#000000;stroke-width:1.0;" x1="174" x2="150.25" y1="2418.5723" y2="2418.5723"/><line style="stroke:#000000;stroke-width:1.0;" x1="150.25" x2="150.25" y1="2418.5723" y2="2440.5723"/><polygon fill="#000000" points="146.25,2430.5723,150.25,2440.5723,154.25,2430.5723,150.25,2434.5723" style="stroke:#000000;stroke-width:1.0;"/><line style="stroke:#000000;stroke-width:1.0;" x1="406" x2="429.75" y1="2418.5723" y2="2418.5723"/><line style="stroke:#000000;stroke-width:1.0;" x1="429.75" x2="429.75" y1="2418.5723" y2="2440.5723"/><polygon fill="#000000" points="425.75,2430.5723,429.75,2440.5723,433.75,2430.5723,429.75,2434.5723" style="stroke:#000000;stroke-width:1.0;"/><line style="stroke:#000000;stroke-width:1.0;" x1="150.25" x2="150.25" y1="2558.9082" y2="2576.9082"/><line style="stroke:#000000;stroke-width:1.0;" x1="150.25" x2="278" y1="2576.9082" y2="2576.9082"/><polygon fill="#000000" points="268,2572.9082,278,2576.9082,268,2580.9082,272,2576.9082" style="stroke:#000000;stroke-width:1.0;"/><line style="stroke:#000000;stroke-width:1.0;" x1="429.75" x2="429.75" y1="2544.3242" y2="2576.9082"/><line style="stroke:#000000;stroke-width:1.0;" x1="429.75" x2="302" y1="2576.9082" y2="2576.9082"/><polygon fill="#000000" points="312,2572.9082,302,2576.9082,312,2580.9082,308,2576.9082" style="stroke:#000000;stroke-width:1.0;"/><line style="stroke:#000000;stroke-width:1.0;" x1="290" x2="290" y1="2386.5723" y2="2406.5723"/><polygon fill="#000000" points="286,2396.5723,290,2406.5723,294,2396.5723,290,2400.5723" style="stroke:#000000;stroke-width:1.0;"/><line style="stroke:#000000;stroke-width:1.0;" x1="290" x2="290" y1="2588.9082" y2="2608.9082"/><polygon fill="#000000" points="286,2598.9082,290,2608.9082,294,2598.9082,290,2602.9082" style="stroke:#000000;stroke-width:1.0;"/><line style="stroke:#000000;stroke-width:1.0;" x1="290" x2="290" y1="2223.8057" y2="2282.8203"/><polygon fill="#000000" points="286,2272.8203,290,2282.8203,294,2272.8203,290,2276.8203" style="stroke:#000000;stroke-width:1.0;"/><line style="stroke:#000000;stroke-width:1.0;" x1="290" x2="290" y1="2751.6748" y2="2771.6748"/><polygon fill="#000000" points="286,2761.6748,290,2771.6748,294,2761.6748,290,2765.6748" style="stroke:#000000;stroke-width:1.0;"/><line style="stroke:#000000;stroke-width:1.0;" x1="290" x2="290" y1="2820.8428" y2="2840.8428"/><polygon fill="#000000" points="286,2830.8428,290,2840.8428,294,2830.8428,290,2834.8428" style="stroke:#000000;stroke-width:1.0;"/><line style="stroke:#000000;stroke-width:1.0;" x1="290" x2="290" y1="2658.0762" y2="2717.0908"/><polygon fill="#000000" points="286,2707.0908,290,2717.0908,294,2707.0908,290,2711.0908" style="stroke:#000000;stroke-width:1.0;"/><line style="stroke:#000000;stroke-width:1.0;" x1="451.25" x2="290" y1="1615.9399" y2="1615.9399"/><line style="stroke:#000000;stroke-width:1.0;" x1="290" x2="290" y1="1615.9399" y2="1674.9546"/><polygon fill="#000000" points="286,1664.9546,290,1674.9546,294,1664.9546,290,1668.9546" style="stroke:#000000;stroke-width:1.0;"/><line style="stroke:#000000;stroke-width:1.0;" x1="617.25" x2="778.5" y1="1615.9399" y2="1615.9399"/><line style="stroke:#000000;stroke-width:1.0;" x1="778.5" x2="778.5" y1="1615.9399" y2="1637.9399"/><polygon fill="#000000" points="774.5,1627.9399,778.5,1637.9399,782.5,1627.9399,778.5,1631.9399" style="stroke:#000000;stroke-width:1.0;"/><line style="stroke:#000000;stroke-width:1.0;" x1="290" x2="290" y1="2890.0107" y2="2920.0107"/><line style="stroke:#000000;stroke-width:1.0;" x1="290" x2="522.25" y1="2920.0107" y2="2920.0107"/><polygon fill="#000000" points="512.25,2916.0107,522.25,2920.0107,512.25,2924.0107,516.25,2920.0107" style="stroke:#000000;stroke-width:1.0;"/><line style="stroke:#000000;stroke-width:1.0;" x1="778.5" x2="778.5" y1="1672.5239" y2="2920.0107"/><line style="stroke:#000000;stroke-width:1.0;" x1="778.5" x2="546.25" y1="2920.0107" y2="2920.0107"/><polygon fill="#000000" points="556.25,2916.0107,546.25,2920.0107,556.25,2924.0107,552.25,2920.0107" style="stroke:#000000;stroke-width:1.0;"/><line style="stroke:#000000;stroke-width:1.0;" x1="534.25" x2="534.25" y1="1571.9399" y2="1603.9399"/><polygon fill="#000000" points="530.25,1593.9399,534.25,1603.9399,538.25,1593.9399,534.25,1597.9399" style="stroke:#000000;stroke-width:1.0;"/><line style="stroke:#000000;stroke-width:1.0;" x1="534.25" x2="534.25" y1="2932.0107" y2="2952.0107"/><polygon fill="#000000" points="530.25,2942.0107,534.25,2952.0107,538.25,2942.0107,534.25,2946.0107" style="stroke:#000000;stroke-width:1.0;"/><line style="stroke:#000000;stroke-width:1.0;" x1="534.25" x2="534.25" y1="2986.5947" y2="3006.5947"/><polygon fill="#000000" points="530.25,2996.5947,534.25,3006.5947,538.25,2996.5947,534.25,3000.5947" style="stroke:#000000;stroke-width:1.0;"/><!--SRC=[hLXjRziu3FwUNy7R0RkqoxRcfRqjstfe7QVDqBmiSNSuB4EXs4eYr95yjjms6FhVZv9inqwT51lENsgP54LI3nyo_KqkwOf2u1F6Av99dyA8X3vPmqKeuW3EgPICBw139NKb4nnUGnzreUkB-qhb3nJC6QVW2b-4KUKtpomdpjc5NR-nXbV3CVnkDxkDRgSeRAJ2RhVxtceLXSrKQBspJwptHM5hizEopgsYy3WJDktZxd5HU989BRjbMvLATCjuG4Ao0eB1tJ6vXXyLmEUSkBSBJ03tB1NOnuyJIHQqVdfQY6oFQYDLRJohsanLcy-gjbBLrhEgnwdgyREg9wbgaf_A8sP6ab1MAktFOWPEo1OB6b9logls7GtNS0mhncD9euDDPZvKAfXAX902oOl3mz6IH1JgRRYWCiMKmznRAYEOXsAbOTGvFpnyaUIyRH7VXyce3POpkUaJwIxxWZCfGhFx1WqDwBsnWQvClbp1X8Re469o9hpPKQFWZh9f38yfyS0daOJ89PnJ3_Vz6rFkqbwdVCUNM8KvG_27XAE_8an3a2Q4AV_xqXxRkZueukSJrA7QPm-9si6KdmqwIkgi0uhIndlpHOVLw-I-L579MbBt5bv2Gtq7H6ZkMmk_jSe3uq9ImCjPIhrK3-RT-DbblgHXr3uyp6HOkPc38BY_paaiiPe9F1i3DQ_DLpcf_U3wiKU1SRJ9YO_buYAAP5IY4mNKPNFcGiGG82KABecM8fP56vHxEfpS7IZSc6o3HoLXVeARz5PMY85-x4iM86cjL5vf106YOKpdNEo0WaaBpDOm2KGetwOt51cUYtO1ICOXJxtnMQJnbs6eXYM23gaNVNQsNjNWpPit1LSUIykaqOOUZsWeLOe5A7N5kWwP-HXKjRz6i1_aIiMGSu955Oq-TyCzXP3nJYbnboP7U0046WBjSdMiGZVs2I9huegGTjXyFkMVe7h5xkYbM57z5GwXVeJF0Rm29JYx9sijs65Jy3iLd4vBHzd689tXpSIsXeFEf7nJRp2nnmxq1ivmof_IGP8ZdOcaItrJhhmT2Ax-VY-tUXruEhPr9EbgfBWVEriuvVTCBe7J-wVKqDXzRKt3Rlq4V1ZKA1GkZQ9ThDQnoeXj7Fiq7uTYkarpA6Uom1nKuB8frmMo5TksfHBMKFbgGxP3yrFzpsOcJrBwLAMrgtYreo76XPoFc94qm8gflpl2GdC5zoBStTnk8bknNWaquT1LS3FqFPqUrNyUiFXKQQWs5aI02qmlOZeoSDXXQmDgYUx0FUEUk5UeUb3keJDznZVWV9KvNMxDT8VaH92gIDD-iBaC-8XMoKF-TYx6m-iHdF-JTe7QfiHgkfCW4-7NASTt9KsQImtI12WZbsTVUuCBi8RN0wVQwKsSti1om8eZt780fr3VXHnDOOO3JF8KVwQEcFrNcDoQ0cf-cNAPMXNIYpN1vb2z9556lrW12J3_EW0SBJbKrtZ1seMI-ccrqu81Mp6KTWUg2cM-J_qSuwa7k_1jjj116VtwPZhwK506ib1ZRScMnizl6PHjKSWlk9MzRD5kksntzb9IaaapDzbHC3EyhVEIw-cwEkFL37kQc6F6Gwox2Bb6y3bRnA62Pi7Ph4oBpexLJAY6jRCe4YuZ-fgocN_ADOdbP9kV0zYqxfXB4m9jWHjYsmyPWMg7Aa4Dpderw8rgMEy9JnxipONk-oJdHaWZxFBjAV_smy2o3VL6imP9HU3gKRVPx_lD_WeF9-bFWbEdcyRxUJ8Sx3yDkpd3MIT5DvuxvQ_XITjEUIPXf4WfcH6bRIf2Logiy6HOaZiAftLmSO5zE5IwILMxOeL3468eOSMNcBIa3fDF-xqrruz3o3ZR5dEy0xPGmt8syexfwp3ckp2YXkJaJf1GZz9jsoS_RaYfX16E5NQJO5x214CkSi0lNMDgSVFJg2m9VHekiWogkp6yTsMcFN8dc0TU7FZC9RccLMvCyQAX3QeQLgIgD-zfnmoqJqboonira6Jfro2aQGDCKLIz7lI6Wr9tpC0pwfmvTjdfPLkeZvTGnV6vQ2IPnV96TXvOehllGEwnUSbj96vlDTc9xMGOKtZpDFms6Dq-OJ_OJX15FYKydRV_1wWbbhJPpS_hChXrx2iR0-oEX_sV7YNsMqvIzsJ4LSdBbb-97-l1Pv_TnqeH3-s1A6dr-LtcEit_3L9Myl8A5IIleF8V]--></g></svg>