<svg xmlns="http://www.w3.org/2000/svg" xmlns:xlink="http://www.w3.org/1999/xlink" contentStyleType="text/css" height="2110px" preserveAspectRatio="none" style="width:1139px;height:2110px;background:#FFFFFF;" version="1.1" viewBox="0 0 1139 2110" width="1139px" zoomAndPan="magnify"><defs/><g><text fill="#000000" font-family="Verdana" font-size="22" font-weight="bold" lengthAdjust="spacing" textLength="770" x="180.25" y="37.1182">Parlay Group Betting - Data Flow (MainDB to CTS to Website)</text><!--cluster **MainDB (SQL Server - bodb02)**--><g id="cluster_**MainDB (SQL Server - bodb02)**"><rect fill="#E3F2FD" height="1117.5" rx="2.5" ry="2.5" style="stroke:#000000;stroke-width:1.0;" width="314" x="67.5" y="59.7373"/><text fill="#000000" font-family="Verdana" font-size="14" font-weight="bold" lengthAdjust="spacing" textLength="243" x="103" y="75.8125">MainDB (SQL Server - bodb02)</text></g><!--cluster **Staging Tables (MySQL CTS)**--><g id="cluster_**Staging Tables (MySQL CTS)**"><rect fill="#FFF9C4" height="370" rx="2.5" ry="2.5" style="stroke:#000000;stroke-width:1.0;" width="518" x="405.5" y="883.7373"/><text fill="#000000" font-family="Verdana" font-size="14" font-weight="bold" lengthAdjust="spacing" textLength="224" x="552.5" y="899.8125">Staging Tables (MySQL CTS)</text></g><!--cluster **Result Tables (MySQL CTS)**--><g id="cluster_**Result Tables (MySQL CTS)**"><rect fill="#FFCCBC" height="370" rx="2.5" ry="2.5" style="stroke:#000000;stroke-width:1.0;" width="490" x="400.5" y="1417.7373"/><text fill="#000000" font-family="Verdana" font-size="14" font-weight="bold" lengthAdjust="spacing" textLength="213" x="539" y="1433.8125">Result Tables (MySQL CTS)</text></g><!--cluster **Website - Match Monitor Page**--><g id="cluster_**Website - Match Monitor Page**"><rect fill="#E1BEE7" height="252" rx="2.5" ry="2.5" style="stroke:#000000;stroke-width:1.0;" width="318" x="366.5" y="1852.7373"/><text fill="#000000" font-family="Verdana" font-size="14" font-weight="bold" lengthAdjust="spacing" textLength="233" x="409" y="1868.8125">Website - Match Monitor Page</text></g><!--entity BetTrans--><g id="elem_BetTrans"><path d="M121.5,105.7373 C121.5,95.7373 224.5,95.7373 224.5,95.7373 C224.5,95.7373 327.5,95.7373 327.5,105.7373 L327.5,301.8984 C327.5,311.8984 224.5,311.8984 224.5,311.8984 C224.5,311.8984 121.5,311.8984 121.5,301.8984 L121.5,105.7373 " fill="#BBDEFB" style="stroke:#000000;stroke-width:1.0;"/><path d="M121.5,105.7373 C121.5,115.7373 224.5,115.7373 224.5,115.7373 C224.5,115.7373 327.5,115.7373 327.5,105.7373 " fill="none" style="stroke:#000000;stroke-width:1.0;"/><text fill="#000000" font-family="Verdana" font-size="14" font-weight="bold" lengthAdjust="spacing" textLength="65" x="131.5" y="133.8125">bettrans</text><text fill="#000000" font-family="Verdana" font-size="14" lengthAdjust="spacing" textLength="5" x="131.5" y="150.8271">&#160;</text><text fill="#000000" font-family="Verdana" font-size="14" lengthAdjust="spacing" textLength="125" x="131.5" y="167.8418">- sequenceid (PK)</text><text fill="#000000" font-family="Verdana" font-size="14" lengthAdjust="spacing" textLength="61" x="131.5" y="184.8564">- transid</text><text fill="#000000" font-family="Verdana" font-size="14" lengthAdjust="spacing" textLength="49" x="131.5" y="201.8711">- refno</text><text fill="#000000" font-family="Verdana" font-size="14" lengthAdjust="spacing" textLength="54" x="131.5" y="218.8857">- custid</text><text fill="#000000" font-family="Verdana" font-size="14" lengthAdjust="spacing" textLength="80" x="131.5" y="235.9004">- transdate</text><text fill="#000000" font-family="Verdana" font-size="14" lengthAdjust="spacing" textLength="186" x="131.5" y="252.915">- betteam = 1 (Mix Parlay)</text><text fill="#000000" font-family="Verdana" font-size="14" lengthAdjust="spacing" textLength="105" x="131.5" y="269.9297">- bettype = 29</text><text fill="#000000" font-family="Verdana" font-size="14" lengthAdjust="spacing" textLength="106" x="131.5" y="286.9443">- matchid = 29</text><text fill="#000000" font-family="Verdana" font-size="14" lengthAdjust="spacing" textLength="161" x="131.5" y="303.959">- BetCheck (bit 2 or 3)</text></g><!--entity BetTransM--><g id="elem_BetTransM"><path d="M211,481.7373 C211,471.7373 278.5,471.7373 278.5,471.7373 C278.5,471.7373 346,471.7373 346,481.7373 L346,643.8691 C346,653.8691 278.5,653.8691 278.5,653.8691 C278.5,653.8691 211,653.8691 211,643.8691 L211,481.7373 " fill="#BBDEFB" style="stroke:#000000;stroke-width:1.0;"/><path d="M211,481.7373 C211,491.7373 278.5,491.7373 278.5,491.7373 C278.5,491.7373 346,491.7373 346,481.7373 " fill="none" style="stroke:#000000;stroke-width:1.0;"/><text fill="#000000" font-family="Verdana" font-size="14" font-weight="bold" lengthAdjust="spacing" textLength="79" x="221" y="509.8125">bettransm</text><text fill="#000000" font-family="Verdana" font-size="14" lengthAdjust="spacing" textLength="5" x="221" y="526.8271">&#160;</text><text fill="#000000" font-family="Verdana" font-size="14" lengthAdjust="spacing" textLength="84" x="221" y="543.8418">- refno (FK)</text><text fill="#000000" font-family="Verdana" font-size="14" lengthAdjust="spacing" textLength="115" x="221" y="560.8564">- transid (detail)</text><text fill="#000000" font-family="Verdana" font-size="14" lengthAdjust="spacing" textLength="67" x="221" y="577.8711">- matchid</text><text fill="#000000" font-family="Verdana" font-size="14" lengthAdjust="spacing" textLength="66" x="221" y="594.8857">- bettype</text><text fill="#000000" font-family="Verdana" font-size="14" lengthAdjust="spacing" textLength="47" x="221" y="611.9004">- betid</text><text fill="#000000" font-family="Verdana" font-size="14" lengthAdjust="spacing" textLength="70" x="221" y="628.915">- betteam</text><text fill="#000000" font-family="Verdana" font-size="14" lengthAdjust="spacing" textLength="101" x="221" y="645.9297">- LiveIndicator</text></g><!--entity Match--><g id="elem_Match"><path d="M84,1006.2373 C84,996.2373 149.5,996.2373 149.5,996.2373 C149.5,996.2373 215,996.2373 215,1006.2373 L215,1151.3545 C215,1161.3545 149.5,1161.3545 149.5,1161.3545 C149.5,1161.3545 84,1161.3545 84,1151.3545 L84,1006.2373 " fill="#BBDEFB" style="stroke:#000000;stroke-width:1.0;"/><path d="M84,1006.2373 C84,1016.2373 149.5,1016.2373 149.5,1016.2373 C149.5,1016.2373 215,1016.2373 215,1006.2373 " fill="none" style="stroke:#000000;stroke-width:1.0;"/><text fill="#000000" font-family="Verdana" font-size="14" font-weight="bold" lengthAdjust="spacing" textLength="47" x="94" y="1034.3125">match</text><text fill="#000000" font-family="Verdana" font-size="14" lengthAdjust="spacing" textLength="5" x="94" y="1051.3271">&#160;</text><text fill="#000000" font-family="Verdana" font-size="14" lengthAdjust="spacing" textLength="67" x="94" y="1068.3418">- matchid</text><text fill="#000000" font-family="Verdana" font-size="14" lengthAdjust="spacing" textLength="81" x="94" y="1085.3564">- sporttype</text><text fill="#000000" font-family="Verdana" font-size="14" lengthAdjust="spacing" textLength="111" x="94" y="1102.3711">- livehomescore</text><text fill="#000000" font-family="Verdana" font-size="14" lengthAdjust="spacing" textLength="107" x="94" y="1119.3857">- liveawayscore</text><text fill="#000000" font-family="Verdana" font-size="14" lengthAdjust="spacing" textLength="82" x="94" y="1136.4004">- eventdate</text><text fill="#000000" font-family="Verdana" font-size="14" lengthAdjust="spacing" textLength="96" x="94" y="1153.415">- eventstatus</text></g><!--entity League--><g id="elem_League"><path d="M250,1040.2373 C250,1030.2373 307.5,1030.2373 307.5,1030.2373 C307.5,1030.2373 365,1030.2373 365,1040.2373 L365,1117.2959 C365,1127.2959 307.5,1127.2959 307.5,1127.2959 C307.5,1127.2959 250,1127.2959 250,1117.2959 L250,1040.2373 " fill="#BBDEFB" style="stroke:#000000;stroke-width:1.0;"/><path d="M250,1040.2373 C250,1050.2373 307.5,1050.2373 307.5,1050.2373 C307.5,1050.2373 365,1050.2373 365,1040.2373 " fill="none" style="stroke:#000000;stroke-width:1.0;"/><text fill="#000000" font-family="Verdana" font-size="14" font-weight="bold" lengthAdjust="spacing" textLength="51" x="260" y="1068.3125">league</text><text fill="#000000" font-family="Verdana" font-size="14" lengthAdjust="spacing" textLength="5" x="260" y="1085.3271">&#160;</text><text fill="#000000" font-family="Verdana" font-size="14" lengthAdjust="spacing" textLength="69" x="260" y="1102.3418">- leagueid</text><text fill="#000000" font-family="Verdana" font-size="14" lengthAdjust="spacing" textLength="95" x="260" y="1119.3564">- leaguename</text></g><!--entity StagingLive--><g id="elem_StagingLive"><path d="M422,929.7373 C422,919.7373 534.5,919.7373 534.5,919.7373 C534.5,919.7373 647,919.7373 647,929.7373 L647,1227.9863 C647,1237.9863 534.5,1237.9863 534.5,1237.9863 C534.5,1237.9863 422,1237.9863 422,1227.9863 L422,929.7373 " fill="#FFF59D" style="stroke:#000000;stroke-width:1.0;"/><path d="M422,929.7373 C422,939.7373 534.5,939.7373 534.5,939.7373 C534.5,939.7373 647,939.7373 647,929.7373 " fill="none" style="stroke:#000000;stroke-width:1.0;"/><rect fill="#000000" height="3.5" style="stroke:#000000;stroke-width:0.0;" width="3.5" x="441" y="950.752"/><text fill="#000000" font-family="Verdana" font-size="14" lengthAdjust="spacing" textLength="189" x="448" y="957.8125">MatchMonitorParlayStaging</text><text fill="#000000" font-family="Verdana" font-size="14" lengthAdjust="spacing" textLength="140" x="432" y="974.8271">GroupBettingLive**</text><text fill="#000000" font-family="Verdana" font-size="14" lengthAdjust="spacing" textLength="5" x="432" y="991.8418">&#160;</text><text fill="#000000" font-family="Verdana" font-size="14" lengthAdjust="spacing" textLength="131" x="432" y="1008.8564">- SequenceID (PK)</text><text fill="#000000" font-family="Verdana" font-size="14" lengthAdjust="spacing" textLength="68" x="432" y="1025.8711">- TransID</text><text fill="#000000" font-family="Verdana" font-size="14" lengthAdjust="spacing" textLength="53" x="432" y="1042.8857">- Refno</text><text fill="#000000" font-family="Verdana" font-size="14" lengthAdjust="spacing" textLength="135" x="432" y="1059.9004">- TransIDm (detail)</text><text fill="#000000" font-family="Verdana" font-size="14" lengthAdjust="spacing" textLength="69" x="432" y="1076.915">- MatchID</text><text fill="#000000" font-family="Verdana" font-size="14" lengthAdjust="spacing" textLength="86" x="432" y="1093.9297">- SportType</text><text fill="#000000" font-family="Verdana" font-size="14" lengthAdjust="spacing" textLength="76" x="432" y="1110.9443">- ScoreDiff</text><text fill="#000000" font-family="Verdana" font-size="14" lengthAdjust="spacing" textLength="83" x="432" y="1127.959">- BettypeID</text><text fill="#000000" font-family="Verdana" font-size="14" lengthAdjust="spacing" textLength="52" x="432" y="1144.9736">- BetID</text><text fill="#000000" font-family="Verdana" font-size="14" lengthAdjust="spacing" textLength="71" x="432" y="1161.9883">- Betteam</text><text fill="#000000" font-family="Verdana" font-size="14" lengthAdjust="spacing" textLength="61" x="432" y="1179.0029">- CustID</text><text fill="#000000" font-family="Verdana" font-size="14" lengthAdjust="spacing" textLength="90" x="432" y="1196.0176">- CTSCustID</text><text fill="#000000" font-family="Verdana" font-size="14" lengthAdjust="spacing" textLength="155" x="432" y="1213.0322">- TransDateToSecond</text><text fill="#000000" font-family="Verdana" font-size="14" lengthAdjust="spacing" textLength="72" x="432" y="1230.0469">- GroupID</text></g><!--entity StagingNonLive--><g id="elem_StagingNonLive"><path d="M682,1040.2373 C682,1030.2373 794.5,1030.2373 794.5,1030.2373 C794.5,1030.2373 907,1030.2373 907,1040.2373 L907,1117.2959 C907,1127.2959 794.5,1127.2959 794.5,1127.2959 C794.5,1127.2959 682,1127.2959 682,1117.2959 L682,1040.2373 " fill="#FFF59D" style="stroke:#000000;stroke-width:1.0;"/><path d="M682,1040.2373 C682,1050.2373 794.5,1050.2373 794.5,1050.2373 C794.5,1050.2373 907,1050.2373 907,1040.2373 " fill="none" style="stroke:#000000;stroke-width:1.0;"/><rect fill="#000000" height="3.5" style="stroke:#000000;stroke-width:0.0;" width="3.5" x="701" y="1061.252"/><text fill="#000000" font-family="Verdana" font-size="14" lengthAdjust="spacing" textLength="189" x="708" y="1068.3125">MatchMonitorParlayStaging</text><text fill="#000000" font-family="Verdana" font-size="14" lengthAdjust="spacing" textLength="168" x="692" y="1085.3271">GroupBettingNonLive**</text><text fill="#000000" font-family="Verdana" font-size="14" lengthAdjust="spacing" textLength="5" x="692" y="1102.3418">&#160;</text><text fill="#000000" font-family="Verdana" font-size="14" lengthAdjust="spacing" textLength="174" x="692" y="1119.3564">(Same structure as Live)</text></g><!--entity TableMatch--><g id="elem_TableMatch"><path d="M417,1472.2373 C417,1462.2373 525.5,1462.2373 525.5,1462.2373 C525.5,1462.2373 634,1462.2373 634,1472.2373 L634,1753.4717 C634,1763.4717 525.5,1763.4717 525.5,1763.4717 C525.5,1763.4717 417,1763.4717 417,1753.4717 L417,1472.2373 " fill="#FFAB91" style="stroke:#000000;stroke-width:1.0;"/><path d="M417,1472.2373 C417,1482.2373 525.5,1482.2373 525.5,1482.2373 C525.5,1482.2373 634,1482.2373 634,1472.2373 " fill="none" style="stroke:#000000;stroke-width:1.0;"/><text fill="#000000" font-family="Verdana" font-size="14" font-weight="bold" lengthAdjust="spacing" textLength="106" x="427" y="1500.3125">MatchMonitor</text><text fill="#000000" font-family="Verdana" font-size="14" lengthAdjust="spacing" textLength="5" x="427" y="1517.3271">&#160;</text><text fill="#000000" font-family="Verdana" font-size="14" lengthAdjust="spacing" textLength="69" x="427" y="1534.3418">- MatchID</text><text fill="#000000" font-family="Verdana" font-size="14" lengthAdjust="spacing" textLength="114" x="427" y="1551.3564">- IsMajorLeague</text><text fill="#000000" font-family="Verdana" font-size="14" lengthAdjust="spacing" textLength="83" x="427" y="1568.3711">- BettypeID</text><text fill="#000000" font-family="Verdana" font-size="14" lengthAdjust="spacing" textLength="52" x="427" y="1585.3857">- BetID</text><text fill="#000000" font-family="Verdana" font-size="14" lengthAdjust="spacing" textLength="101" x="427" y="1602.4004">- LiveIndicator</text><text fill="#000000" font-family="Verdana" font-size="14" lengthAdjust="spacing" textLength="85" x="427" y="1619.415">- EventDate</text><text fill="#000000" font-family="Verdana" font-size="14" lengthAdjust="spacing" textLength="94" x="427" y="1636.4297">- KickOffTime</text><text fill="#000000" font-family="Verdana" font-size="14" lengthAdjust="spacing" textLength="99" x="427" y="1653.4443">- EventStatus</text><text fill="#000000" font-family="Verdana" font-size="14" lengthAdjust="spacing" textLength="68" x="427" y="1670.459">- HomeID</text><text fill="#000000" font-family="Verdana" font-size="14" lengthAdjust="spacing" textLength="65" x="427" y="1687.4736">- AwayID</text><text fill="#000000" font-family="Verdana" font-size="14" lengthAdjust="spacing" textLength="78" x="427" y="1704.4883">- LeagueID</text><text fill="#000000" font-family="Verdana" font-size="14" lengthAdjust="spacing" textLength="101" x="427" y="1721.5029">- LeagueName</text><text fill="#000000" font-family="Verdana" font-size="14" lengthAdjust="spacing" textLength="83" x="427" y="1738.5176">- Sporttype</text><text fill="#000000" font-family="Verdana" font-size="14" lengthAdjust="spacing" textLength="7" x="427" y="1755.5322">-</text><text fill="#000000" font-family="Verdana" font-size="14" font-weight="bold" lengthAdjust="spacing" textLength="185" x="439" y="1755.5322">Reason = 5 (Parlay GB)</text></g><!--entity TableDetail--><g id="elem_TableDetail"><path d="M669,1463.7373 C669,1453.7373 771.5,1453.7373 771.5,1453.7373 C771.5,1453.7373 874,1453.7373 874,1463.7373 L874,1761.9863 C874,1771.9863 771.5,1771.9863 771.5,1771.9863 C771.5,1771.9863 669,1771.9863 669,1761.9863 L669,1463.7373 " fill="#FFAB91" style="stroke:#000000;stroke-width:1.0;"/><path d="M669,1463.7373 C669,1473.7373 771.5,1473.7373 771.5,1473.7373 C771.5,1473.7373 874,1473.7373 874,1463.7373 " fill="none" style="stroke:#000000;stroke-width:1.0;"/><text fill="#000000" font-family="Verdana" font-size="14" font-weight="bold" lengthAdjust="spacing" textLength="157" x="679" y="1491.8125">MatchMonitorDetails</text><text fill="#000000" font-family="Verdana" font-size="14" lengthAdjust="spacing" textLength="5" x="679" y="1508.8271">&#160;</text><text fill="#000000" font-family="Verdana" font-size="14" lengthAdjust="spacing" textLength="63" x="679" y="1525.8418">- ID (PK)</text><text fill="#000000" font-family="Verdana" font-size="14" lengthAdjust="spacing" textLength="69" x="679" y="1542.8564">- MatchID</text><text fill="#000000" font-family="Verdana" font-size="14" lengthAdjust="spacing" textLength="114" x="679" y="1559.8711">- IsMajorLeague</text><text fill="#000000" font-family="Verdana" font-size="14" lengthAdjust="spacing" textLength="101" x="679" y="1576.8857">- LiveIndicator</text><text fill="#000000" font-family="Verdana" font-size="14" lengthAdjust="spacing" textLength="76" x="679" y="1593.9004">- ScoreDiff</text><text fill="#000000" font-family="Verdana" font-size="14" lengthAdjust="spacing" textLength="83" x="679" y="1610.915">- BettypeID</text><text fill="#000000" font-family="Verdana" font-size="14" lengthAdjust="spacing" textLength="52" x="679" y="1627.9297">- BetID</text><text fill="#000000" font-family="Verdana" font-size="14" lengthAdjust="spacing" textLength="71" x="679" y="1644.9443">- Betteam</text><text fill="#000000" font-family="Verdana" font-size="14" lengthAdjust="spacing" textLength="85" x="679" y="1661.959">- EventDate</text><text fill="#000000" font-family="Verdana" font-size="14" lengthAdjust="spacing" textLength="119" x="679" y="1678.9736">- LiveHomeScore</text><text fill="#000000" font-family="Verdana" font-size="14" lengthAdjust="spacing" textLength="116" x="679" y="1695.9883">- LiveAwayScore</text><text fill="#000000" font-family="Verdana" font-size="14" lengthAdjust="spacing" textLength="7" x="679" y="1713.0029">-</text><text fill="#000000" font-family="Verdana" font-size="14" font-weight="bold" lengthAdjust="spacing" textLength="81" x="691" y="1713.0029">ListCustID</text><text fill="#000000" font-family="Verdana" font-size="14" lengthAdjust="spacing" textLength="7" x="679" y="1730.0176">-</text><text fill="#000000" font-family="Verdana" font-size="14" font-weight="bold" lengthAdjust="spacing" textLength="90" x="691" y="1730.0176">ListTransID</text><text fill="#000000" font-family="Verdana" font-size="14" lengthAdjust="spacing" textLength="78" x="786" y="1730.0176">(Refno list)</text><text fill="#000000" font-family="Verdana" font-size="14" lengthAdjust="spacing" textLength="7" x="679" y="1747.0322">-</text><text fill="#000000" font-family="Verdana" font-size="14" font-weight="bold" lengthAdjust="spacing" textLength="89" x="691" y="1747.0322">Reason = 5</text><text fill="#000000" font-family="Verdana" font-size="14" lengthAdjust="spacing" textLength="7" x="679" y="1764.0469">-</text><text fill="#000000" font-family="Verdana" font-size="14" font-weight="bold" lengthAdjust="spacing" textLength="67" x="691" y="1764.0469">GroupID</text></g><!--entity WebPage--><g id="elem_WebPage"><rect fill="#CE93D8" height="200.1465" rx="2.5" ry="2.5" style="stroke:#000000;stroke-width:1.0;" width="285" x="383" y="1888.7373"/><rect fill="#CE93D8" height="10" style="stroke:#000000;stroke-width:1.0;" width="15" x="648" y="1893.7373"/><rect fill="#CE93D8" height="2" style="stroke:#000000;stroke-width:1.0;" width="4" x="646" y="1895.7373"/><rect fill="#CE93D8" height="2" style="stroke:#000000;stroke-width:1.0;" width="4" x="646" y="1899.7373"/><text fill="#000000" font-family="Verdana" font-size="14" lengthAdjust="spacing" textLength="137" x="398" y="1922.8125">Match Monitor Page</text><text fill="#000000" font-family="Verdana" font-size="14" lengthAdjust="spacing" textLength="5" x="398" y="1939.8271">&#160;</text><text fill="#000000" font-family="Verdana" font-size="14" lengthAdjust="spacing" textLength="206" x="398" y="1956.8418">- Display dangerous matches</text><text fill="#000000" font-family="Verdana" font-size="14" lengthAdjust="spacing" textLength="197" x="398" y="1973.8564">- Show customer CC status</text><text fill="#000000" font-family="Verdana" font-size="14" lengthAdjust="spacing" textLength="149" x="398" y="1990.8711">- Verify Parlay tickets</text><text fill="#000000" font-family="Verdana" font-size="14" lengthAdjust="spacing" textLength="168" x="398" y="2007.8857">- Mark Problem Account</text><text fill="#000000" font-family="Verdana" font-size="14" lengthAdjust="spacing" textLength="5" x="398" y="2024.9004">&#160;</text><text fill="#000000" font-family="Verdana" font-size="14" font-weight="bold" lengthAdjust="spacing" textLength="118" x="398" y="2041.915">Parlay-specific:</text><text fill="#000000" font-family="Verdana" font-size="14" lengthAdjust="spacing" textLength="204" x="398" y="2058.9297">- Show Refno (combo ticket)</text><text fill="#000000" font-family="Verdana" font-size="14" lengthAdjust="spacing" textLength="245" x="398" y="2075.9443">- Show multiple matches per ticket</text></g><g id="elem_GMN26"><path d="M398,502.2373 L398,622.8325 L651,622.8325 L651,512.2373 L641,502.2373 L398,502.2373 " fill="#FFFFFF" style="stroke:#000000;stroke-width:1.0;"/><path d="M641,502.2373 L641,512.2373 L651,512.2373 L641,502.2373 " fill="#FFFFFF" style="stroke:#000000;stroke-width:1.0;"/><text fill="#000000" font-family="Verdana" font-size="13" font-weight="bold" lengthAdjust="spacing" textLength="148" x="404" y="520.3071">Parlay Ticket Filters:</text><text fill="#000000" font-family="Verdana" font-size="13" lengthAdjust="spacing" textLength="177" x="404" y="536.1064">- Betteam = 1 (Mix Parlay)</text><text fill="#000000" font-family="Verdana" font-size="13" lengthAdjust="spacing" textLength="202" x="404" y="551.9058">- BetType = 29, MatchID = 29</text><text fill="#000000" font-family="Verdana" font-size="13" lengthAdjust="spacing" textLength="202" x="404" y="567.7051">- BetCheck &amp; 2 = 2 (Combo 2)</text><text fill="#000000" font-family="Verdana" font-size="13" lengthAdjust="spacing" textLength="222" x="414" y="583.5044">OR BetCheck &amp; 4 = 4 (Combo 3+)</text><text fill="#000000" font-family="Verdana" font-size="13" lengthAdjust="spacing" textLength="182" x="404" y="599.3037">- Exclude internal accounts</text><text fill="#000000" font-family="Verdana" font-size="13" lengthAdjust="spacing" textLength="227" x="404" y="615.103">- Exclude specific sites/currencies</text></g><g id="elem_GMN29"><path d="M11,1568.2373 L11,1657.2339 L350,1657.2339 L350,1578.2373 L340,1568.2373 L11,1568.2373 " fill="#FFFFFF" style="stroke:#000000;stroke-width:1.0;"/><path d="M340,1568.2373 L340,1578.2373 L350,1578.2373 L340,1568.2373 " fill="#FFFFFF" style="stroke:#000000;stroke-width:1.0;"/><text fill="#000000" font-family="Verdana" font-size="13" font-weight="bold" lengthAdjust="spacing" textLength="79" x="17" y="1586.3071">Key Fields:</text><text fill="#000000" font-family="Verdana" font-size="13" lengthAdjust="spacing" textLength="162" x="17" y="1602.1064">- Refno: Parlay ticket ID</text><text fill="#000000" font-family="Verdana" font-size="13" lengthAdjust="spacing" textLength="221" x="17" y="1617.9058">- TransIDm: Detail transaction ID</text><text fill="#000000" font-family="Verdana" font-size="13" lengthAdjust="spacing" textLength="309" x="17" y="1633.7051">- GroupID: Association group (0 = unassigned)</text><text fill="#000000" font-family="Verdana" font-size="13" lengthAdjust="spacing" textLength="318" x="17" y="1649.5044">- TransDateToSecond: For time-based grouping</text></g><g id="elem_GMN32"><path d="M703,1936.2373 L703,2041.0332 L990,2041.0332 L990,1946.2373 L980,1936.2373 L703,1936.2373 " fill="#FFFFFF" style="stroke:#000000;stroke-width:1.0;"/><path d="M980,1936.2373 L980,1946.2373 L990,1946.2373 L980,1936.2373 " fill="#FFFFFF" style="stroke:#000000;stroke-width:1.0;"/><text fill="#000000" font-family="Verdana" font-size="13" font-weight="bold" lengthAdjust="spacing" textLength="219" x="709" y="1954.3071">ListTransID contains Refno list</text><text fill="#000000" font-family="Verdana" font-size="13" lengthAdjust="spacing" textLength="266" x="709" y="1970.1064">Each Refno represents one Parlay ticket</text><text fill="#000000" font-family="Verdana" font-size="13" lengthAdjust="spacing" textLength="186" x="709" y="1985.9058">with multiple matches inside</text><text fill="#000000" font-family="Verdana" font-size="13" lengthAdjust="spacing" textLength="5" x="709" y="2001.7051">&#160;</text><text fill="#000000" font-family="Verdana" font-size="13" font-weight="bold" lengthAdjust="spacing" textLength="145" x="709" y="2017.5044">Max 5-minute delay</text><text fill="#000000" font-family="Verdana" font-size="13" lengthAdjust="spacing" textLength="216" x="709" y="2033.3037">from bet placement to detection</text></g><!--link BetTrans to BetTransM--><g id="link_BetTrans_BetTransM"><path d="M240.7,311.8473 C248.41,362.7873 256.6233,417.0747 263.9633,465.6347 " fill="none" id="BetTrans-to-BetTransM" style="stroke:#000000;stroke-width:1.0;"/><polygon fill="#000000" points="264.86,471.5673,267.47,462.0706,264.1127,466.6235,259.5598,463.2662,264.86,471.5673" style="stroke:#000000;stroke-width:1.0;"/><text fill="#000000" font-family="Verdana" font-size="13" font-weight="bold" lengthAdjust="spacing" textLength="34" x="351.5" y="355.8071">JOIN</text><text fill="#000000" font-family="Verdana" font-size="13" lengthAdjust="spacing" textLength="61" x="338" y="371.6064">ON Refno</text><path d="M263.5,380.3359 L263.5,437.3359 L473.5,437.3359 L473.5,390.3359 L463.5,380.3359 L263.5,380.3359 " fill="#FFFFFF" style="stroke:#000000;stroke-width:1.0;"/><path d="M463.5,380.3359 L463.5,390.3359 L473.5,390.3359 L463.5,380.3359 " fill="#FFFFFF" style="stroke:#000000;stroke-width:1.0;"/><text fill="#000000" font-family="Verdana" font-size="13" font-weight="bold" lengthAdjust="spacing" textLength="146" x="269.5" y="398.4058">Phase 1: Get Tickets</text><text fill="#000000" font-family="Verdana" font-size="13" lengthAdjust="spacing" textLength="189" x="269.5" y="414.2051">Each Refno = 1 Parlay ticket</text><text fill="#000000" font-family="Verdana" font-size="13" lengthAdjust="spacing" textLength="179" x="269.5" y="430.0044">Multiple matches per Refno</text></g><!--link BetTransM to Match--><g id="link_BetTransM_Match"><path d="M210.96,652.9373 C205.38,662.9773 200.4,673.3473 196.5,683.7373 C157.83,786.7673 149.1994,908.6378 148.1194,990.2278 " fill="none" id="BetTransM-to-Match" style="stroke:#000000;stroke-width:1.0;"/><polygon fill="#000000" points="148.04,996.2273,152.1588,987.281,148.1062,991.2277,144.1595,987.1752,148.04,996.2273" style="stroke:#000000;stroke-width:1.0;"/><text fill="#000000" font-family="Verdana" font-size="13" font-weight="bold" lengthAdjust="spacing" textLength="34" x="220" y="773.3071">JOIN</text><text fill="#000000" font-family="Verdana" font-size="13" lengthAdjust="spacing" textLength="79" x="197.5" y="789.1064">ON MatchID</text></g><!--link BetTransM to League--><g id="link_BetTransM_League"><path d="M283.58,653.8573 C289.77,763.5573 299.6517,938.7269 304.4817,1024.2469 " fill="none" id="BetTransM-to-League" style="stroke:#000000;stroke-width:1.0;"/><polygon fill="#000000" points="304.82,1030.2373,308.3061,1021.0261,304.5381,1025.2453,300.3189,1021.4772,304.82,1030.2373" style="stroke:#000000;stroke-width:1.0;"/><text fill="#000000" font-family="Verdana" font-size="13" font-weight="bold" lengthAdjust="spacing" textLength="34" x="322" y="773.3071">JOIN</text><text fill="#000000" font-family="Verdana" font-size="13" lengthAdjust="spacing" textLength="85" x="296.5" y="789.1064">ON LeagueID</text></g><!--link BetTransM to StagingLive--><g id="link_BetTransM_StagingLive"><path d="M346.15,626.7773 C362.19,644.1173 378.2,663.6973 390.5,683.7373 C415.72,724.8173 451.4508,823.0692 481.9308,913.8792 " fill="none" id="BetTransM-to-StagingLive" style="stroke:#000000;stroke-width:1.0;"/><polygon fill="#000000" points="483.84,919.5673,484.7683,909.7623,482.249,914.8272,477.1841,912.3079,483.84,919.5673" style="stroke:#000000;stroke-width:1.0;"/><text fill="#000000" font-family="Verdana" font-size="13" font-weight="bold" lengthAdjust="spacing" textLength="51" x="570.5" y="697.8071">INSERT</text><text fill="#000000" font-family="Verdana" font-size="13" lengthAdjust="spacing" textLength="137" x="527.5" y="713.6064">(if LiveIndicator = 1)</text><text fill="#000000" font-family="Verdana" font-size="13" lengthAdjust="spacing" textLength="5" x="593.5" y="729.4058">&#160;</text><text fill="#000000" font-family="Verdana" font-size="13" font-weight="bold" lengthAdjust="spacing" textLength="65" x="563.5" y="745.2051">ScoreDiff</text><text fill="#000000" font-family="Verdana" font-size="17" font-weight="bold" lengthAdjust="spacing" textLength="249" x="471.5" y="765.0259">(LiveHomeScore * 10000)</text><text fill="#000000" font-family="Verdana" font-size="13" lengthAdjust="spacing" textLength="114" x="544" y="781.665">+ LiveAwayScore</text><path d="M470.5,790.3945 L470.5,863.3945 L721.5,863.3945 L721.5,800.3945 L711.5,790.3945 L470.5,790.3945 " fill="#FFFFFF" style="stroke:#000000;stroke-width:1.0;"/><path d="M711.5,790.3945 L711.5,800.3945 L721.5,800.3945 L711.5,790.3945 " fill="#FFFFFF" style="stroke:#000000;stroke-width:1.0;"/><text fill="#000000" font-family="Verdana" font-size="13" font-weight="bold" lengthAdjust="spacing" textLength="169" x="476.5" y="808.4644">Phase 2: Insert Staging</text><text fill="#000000" font-family="Verdana" font-size="13" lengthAdjust="spacing" textLength="218" x="476.5" y="824.2637">- One record per match in parlay</text><text fill="#000000" font-family="Verdana" font-size="13" lengthAdjust="spacing" textLength="228" x="476.5" y="840.063">- TransIDm = detail transaction ID</text><text fill="#000000" font-family="Verdana" font-size="13" lengthAdjust="spacing" textLength="230" x="476.5" y="855.8623">- TransDateToSecond for grouping</text></g><!--link BetTransM to StagingNonLive--><g id="link_BetTransM_StagingNonLive"><path d="M346.02,633.4073 C356.83,641.4373 368.45,648.5873 380.5,653.7373 C452.89,684.6773 675.95,630.0173 733.5,683.7373 C829.39,773.2373 817.6628,940.1987 804.6228,1023.9787 " fill="none" id="BetTransM-to-StagingNonLive" style="stroke:#000000;stroke-width:1.0;"/><polygon fill="#000000" points="803.7,1029.9073,809.0366,1021.6296,804.469,1024.9668,801.1317,1020.3992,803.7,1029.9073" style="stroke:#000000;stroke-width:1.0;"/><text fill="#000000" font-family="Verdana" font-size="13" font-weight="bold" lengthAdjust="spacing" textLength="51" x="853.5" y="773.3071">INSERT</text><text fill="#000000" font-family="Verdana" font-size="13" lengthAdjust="spacing" textLength="137" x="810.5" y="789.1064">(if LiveIndicator = 0)</text></g><!--link StagingLive to TableMatch--><g id="link_StagingLive_TableMatch"><path d="M421.63,1235.2473 C409.12,1245.5573 395.72,1254.6373 381.5,1261.7373 C366.97,1268.9973 246.67,1257.9373 235.5,1269.7373 C195.17,1312.3373 195.29,1359.0173 235.5,1401.7373 C245.57,1412.4373 354.49,1402.9073 367.5,1409.7373 C392.13,1422.6773 410.0901,1436.9386 429.3101,1457.7586 " fill="none" id="StagingLive-to-TableMatch" style="stroke:#000000;stroke-width:1.0;"/><polygon fill="#000000" points="433.38,1462.1673,430.2143,1452.8411,429.9885,1458.4934,424.3361,1458.2676,433.38,1462.1673" style="stroke:#000000;stroke-width:1.0;"/><text fill="#000000" font-family="Verdana" font-size="13" font-weight="bold" lengthAdjust="spacing" textLength="116" x="312" y="1283.8071">INSERT/UPDATE</text><text fill="#000000" font-family="Verdana" font-size="13" lengthAdjust="spacing" textLength="74" x="333" y="1299.6064">Reason = 5</text><path d="M240.5,1308.3359 L240.5,1396.3359 L499.5,1396.3359 L499.5,1318.3359 L489.5,1308.3359 L240.5,1308.3359 " fill="#FFFFFF" style="stroke:#000000;stroke-width:1.0;"/><path d="M489.5,1308.3359 L489.5,1318.3359 L499.5,1318.3359 L489.5,1308.3359 " fill="#FFFFFF" style="stroke:#000000;stroke-width:1.0;"/><text fill="#000000" font-family="Verdana" font-size="13" font-weight="bold" lengthAdjust="spacing" textLength="228" x="246.5" y="1326.4058">Phase 3-5: Process &amp; Complete</text><text fill="#000000" font-family="Verdana" font-size="13" lengthAdjust="spacing" textLength="5" x="246.5" y="1342.2051">&#160;</text><text fill="#000000" font-family="Verdana" font-size="13" lengthAdjust="spacing" textLength="238" x="246.5" y="1358.0044">1. Association Detection (4 criteria)</text><text fill="#000000" font-family="Verdana" font-size="13" lengthAdjust="spacing" textLength="192" x="246.5" y="1373.8037">2. Group by TimeStep (180s)</text><text fill="#000000" font-family="Verdana" font-size="13" lengthAdjust="spacing" textLength="165" x="246.5" y="1389.603">3. Save detected groups</text></g><!--link StagingLive to TableDetail--><g id="link_StagingLive_TableDetail"><path d="M520.22,1237.9073 C517.74,1307.0273 521.58,1377.7973 544.5,1401.7373 C560.99,1418.9573 631.23,1397.1773 651.5,1409.7373 C669.88,1421.1273 682.0485,1431.7668 695.7285,1448.9168 " fill="none" id="StagingLive-to-TableDetail" style="stroke:#000000;stroke-width:1.0;"/><polygon fill="#000000" points="699.47,1453.6073,696.9848,1444.0772,696.3521,1449.6985,690.7307,1449.0658,699.47,1453.6073" style="stroke:#000000;stroke-width:1.0;"/><text fill="#000000" font-family="Verdana" font-size="13" font-weight="bold" lengthAdjust="spacing" textLength="116" x="590" y="1333.3071">INSERT/UPDATE</text><text fill="#000000" font-family="Verdana" font-size="13" lengthAdjust="spacing" textLength="205" x="545.5" y="1349.1064">ListCustID, ListTransID (Refno)</text></g><!--link StagingNonLive to TableMatch--><g id="link_StagingNonLive_TableMatch"><path d="M792.01,1127.5373 C787.11,1212.6073 774.95,1383.1173 755.5,1401.7373 C738.76,1417.7673 671.32,1397.7173 651.5,1409.7373 C629.76,1422.9173 614.8426,1436.6496 599.1726,1457.1596 " fill="none" id="StagingNonLive-to-TableMatch" style="stroke:#000000;stroke-width:1.0;"/><polygon fill="#000000" points="595.53,1461.9273,604.1724,1457.2041,598.5655,1457.9542,597.8155,1452.3473,595.53,1461.9273" style="stroke:#000000;stroke-width:1.0;"/><text fill="#000000" font-family="Verdana" font-size="13" font-weight="bold" lengthAdjust="spacing" textLength="116" x="780.5" y="1333.3071">INSERT/UPDATE</text><text fill="#000000" font-family="Verdana" font-size="13" lengthAdjust="spacing" textLength="74" x="801.5" y="1349.1064">Reason = 5</text></g><!--link StagingNonLive to TableDetail--><g id="link_StagingNonLive_TableDetail"><path d="M835.2,1127.6073 C863.29,1163.9673 898.24,1216.6173 913.5,1269.7373 C929.7,1326.1273 930.68,1345.6473 913.5,1401.7373 C904.64,1430.6673 893.445,1454.1038 877.205,1480.3738 " fill="none" id="StagingNonLive-to-TableDetail" style="stroke:#000000;stroke-width:1.0;"/><polygon fill="#000000" points="874.05,1485.4773,882.1848,1479.9253,876.6792,1481.2244,875.3801,1475.7187,874.05,1485.4773" style="stroke:#000000;stroke-width:1.0;"/><text fill="#000000" font-family="Verdana" font-size="13" font-weight="bold" lengthAdjust="spacing" textLength="116" x="971" y="1333.3071">INSERT/UPDATE</text><text fill="#000000" font-family="Verdana" font-size="13" lengthAdjust="spacing" textLength="205" x="926.5" y="1349.1064">ListCustID, ListTransID (Refno)</text></g><!--link TableMatch to WebPage--><g id="link_TableMatch_WebPage"><path d="M525.5,1763.4373 C525.5,1805.5273 525.5,1844.2473 525.5,1882.5873 " fill="none" id="TableMatch-to-WebPage" style="stroke:#000000;stroke-width:1.0;"/><polygon fill="#000000" points="525.5,1888.5873,529.5,1879.5873,525.5,1883.5873,521.5,1879.5873,525.5,1888.5873" style="stroke:#000000;stroke-width:1.0;"/><text fill="#000000" font-family="Verdana" font-size="13" font-weight="bold" lengthAdjust="spacing" textLength="53" x="540.5" y="1817.8071">SELECT</text><text fill="#000000" font-family="Verdana" font-size="13" lengthAdjust="spacing" textLength="81" x="526.5" y="1833.6064">(Match List)</text></g><!--link TableDetail to WebPage--><g id="link_TableDetail_WebPage"><path d="M668.96,1769.6373 C642.46,1809.9273 617.9467,1847.1842 593.9567,1883.6642 " fill="none" id="TableDetail-to-WebPage" style="stroke:#000000;stroke-width:1.0;"/><polygon fill="#000000" points="590.66,1888.6773,598.9472,1883.3554,593.4073,1884.4997,592.263,1878.9598,590.66,1888.6773" style="stroke:#000000;stroke-width:1.0;"/><text fill="#000000" font-family="Verdana" font-size="13" font-weight="bold" lengthAdjust="spacing" textLength="53" x="698" y="1817.8071">SELECT</text><text fill="#000000" font-family="Verdana" font-size="13" lengthAdjust="spacing" textLength="158" x="645.5" y="1833.6064">(Ticket Details + Refno)</text></g><!--link BetTrans to GMN26--><g id="link_BetTrans_GMN26"><path d="M327.78,233.9173 C383.31,254.9373 448.09,289.0673 486.5,341.7373 C520.3,388.0873 527.72,454.3773 527.96,502.0573 " fill="none" id="BetTrans-GMN26" style="stroke:#000000;stroke-width:1.0;stroke-dasharray:7.0,7.0;"/></g><!--link StagingLive to GMN29--><g id="link_StagingLive_GMN29"><path d="M421.71,1235.4073 C409.18,1245.6773 395.75,1254.7073 381.5,1261.7373 C363.64,1270.5473 216.71,1255.7973 202.5,1269.7373 C122.85,1347.8473 148.07,1494.9973 167.27,1568.1573 " fill="none" id="StagingLive-GMN29" style="stroke:#000000;stroke-width:1.0;stroke-dasharray:7.0,7.0;"/></g><!--link TableDetail to GMN32--><g id="link_TableDetail_GMN32"><path d="M817.58,1771.9173 C820.1,1782.6473 822.44,1793.3273 824.5,1803.7373 C833.25,1847.9173 839.01,1898.8073 842.43,1935.8473 " fill="none" id="TableDetail-GMN32" style="stroke:#000000;stroke-width:1.0;stroke-dasharray:7.0,7.0;"/></g><!--SRC=[hLXPRzj647xNhvWuG2egKUApZGMuW4HIZcfTDPK4HLCKAt9bRqrnLUugYL7qltTcTqbHikLKTlIGS0_EySqt1_rCN_CvXqNAH5RJGgSSnYnFsIsSvtAvW0xNMcHNq8I0QGRTL7w1-W0l1ntG4ln9HFzzv5CbDFTgjHyWu3EHSOXbAdDLUvROvQ3T6mQTF_rHVtG9pyEZxc4tA0-ZIVkyDpmlJhlTxgb_N9wEBqT-64N5gVys_D4_BK_zqM3S3oVXwcNVx_ZbySTmfVIW4uO_aObdE_pmEjaEGNlIxhIZ4EhHhts8miiFuQMtgwoSnvfbLmZoNgFXKBJoUFwPvuZoL2RJ_KElqTXRX-oV6k0lmHXCcJAlJp4oESjKe_4f-vGrGV6_bpoBkKYWFhxmQCkSYuGUSpxB93t4IwNjbZb5YPmM98spEPp10SPNV7Kiy8gpsmN7iyDJMi-PZgzHJR56ZlZNFBw1-bHeE0IPmv6t1qpHoOIqmFDE9mYx7UF4La_cXIl6MAXtrxo0Ui8r4wbNCQ5YdNjSxQ4tzDWNdtalIqJCjCpNZ1eyR9LHKLXKqQSMCYyrfYZzMiwvYcLURh0lxBRSu9zvfWkKpK9fffVAc38WiG-RaN9sjUI57NPb3R7F6Pjp8wjlbgMmVnz1T9U7W4plXn7ou3VavjD87cbsHVLZmgOfLoZobkYEPSDGV3tnxtBSu3EGcS3OMK8wUPyoKvvSTQ8O5mX5BWrwGPa69jgzW1ulYpHmU_CrLXbrzc94KPwuA4SKp43CPexj57rx3HVbGy4u7pFCRgARguNHY4MKJsJ4OvcP61elUe49e7EDd34ryEGqk9yI_nELeSnMmDGZv0aedIzZlSov8GmUUbNDxeLI-MCeT1b6x_kJxycWIwwMgTv2e8tg_p232efKmjnJ0_QNp6tkR8_kMX6XZP0IEN1PVI7Ycz5iDX5pNfv59ibf-GxBWvNInhhWv1bzrUSXioz7rUf2pZCbCwoq9yXcrvSxndCCcu74bP1kjzqvFVWsNmB3zh9fLBBa8LJk-BzRHgoXHR88awYeaBH1q9GRZKPVA6qpXmmjTbpEDXfGDtcCnLPfRnEeuWsNMbMihFCbM8_XDyuJKMyIFedHRbe2Xpcuq63BlU9axcfciNoEvNmXCuGGVh_xWerZ8DI2o96W4ewEAzknk65WT8r36_LzH3q7tmTLalC3pyNijXZvD1APQsNPaD_0E9U8sXpQSIoNcIPLZOQzsrGB7ekPY5iMRwF3HgMEzawb4-QLXtFCOh5019nbi41ZxAK_A4A82lc30rvuUXIyVLHqQ4Y3Rd_q4R4TlwDfxQ05vo7Mevv_4KwYNIMMyqkp-NDbRcWXlNuPzORa-cXetQvb4aEA54n5TcF2Xb1TKmQI2HmBc0MtqJ278SCuMhnev5eBWBamk0ykgubd2P2sMcrb4XbeoR5Xd4lhZQjkMDYuMvIbxuByOGjwGvoJ9qMNVopurk9gToIphMmol2vcwmMA4FKiMSiwHHVFeBvMVA011_lumxi0BzVhqFPmab-PuhakJ78HRS88lpSmqMMUc62Pm878O662wowLWySPsCd3phSirWArzOBgjUgq03Dqx8fg6ghSIe6DJlvjeFQzxnBie-P9g_XGWnTbMzvLT3N8v4wbmwrSUVD-Z0Q4vD6gwc-FbpKjbp5NYap3OffopLtKp3y7hw6jb8m5Cq70Di5jEEh74ETOgdF1F7FpyBNxBfxU0lNxIFC5r0_UxYjxVlGQ8eR69qO4Jsp4L2LUzxhe6jEzFgvwuIkeT47N0xrIOX7p7N7RzlQJJ7eIex3zmRXzlZDvAawJ5qK_8G-Yi1_wDWVi1RBQgrKTVU0LMxd1ZKvOAHxjvd0q2NTkGeRPKwcnVOESbMse8Bdj7Cx6haYHhQfLrgJEbk_wrV6a-BH_LVGAirfTiD_sB_337lUXxflkVcWb0E2KKhbpZ7UEYpj7BmiruTSuNIOSYo5Qbx4Kc9qerCPvCLG0pKVgJRpCS_oM4xoQG1jmLFB98NB1Rn47dYOL64p4MkjjTgFOOarkkHZVNvBTGDbQgnKclw6-ZtulCwQKkCfuucqhuYteIXfwvhn9mtboNq7VyA_2KUTVDUDGA9xWWB8QYEyE63bVv5pHNnwmGF9xPeqlGb_VdSy4_TM5hweaVKXyXPFcN6HBJIKEfJXbinoDdIAaE8J6V4wZgfQk229AA-_-0m00]--></g></svg>