<svg xmlns="http://www.w3.org/2000/svg" xmlns:xlink="http://www.w3.org/1999/xlink" contentStyleType="text/css" height="2438px" preserveAspectRatio="none" style="width:2289px;height:2438px;background:#FFFFFF;" version="1.1" viewBox="0 0 2289 2438" width="2289px" zoomAndPan="magnify"><defs/><g><text fill="#000000" font-family="Verdana" font-size="22" font-weight="bold" lengthAdjust="spacing" textLength="635" x="830.5" y="37.1182">Normal Account Classification - Sequence Diagram</text><rect fill="#FFFFFF" height="2126.0254" style="stroke:#000000;stroke-width:1.0;" width="10" x="457" y="195.3652"/><rect fill="#FFFFFF" height="2050.6274" style="stroke:#000000;stroke-width:1.0;" width="10" x="667" y="225.1646"/><rect fill="#E9967A" height="547.187" style="stroke:#000000;stroke-width:1.0;" width="10" x="672" y="1459.1338"/><rect fill="#FFFFFF" height="380.9897" style="stroke:#000000;stroke-width:1.0;" width="10" x="1048" y="329.5625"/><rect fill="#FFFFFF" height="380.9897" style="stroke:#000000;stroke-width:1.0;" width="10" x="1048" y="891.3481"/><rect fill="#E9967A" height="216.3945" style="stroke:#000000;stroke-width:1.0;" width="10" x="1048" y="1552.5317"/><rect fill="#E9967A" height="164.7959" style="stroke:#000000;stroke-width:1.0;" width="10" x="1048" y="1841.5249"/><rect fill="#FFFFFF" height="321.3911" style="stroke:#000000;stroke-width:1.0;" width="10" x="1431" y="359.3618"/><rect fill="#FFFFFF" height="278.5918" style="stroke:#000000;stroke-width:1.0;" width="10" x="1431" y="963.9468"/><rect fill="#E9967A" height="156.7959" style="stroke:#000000;stroke-width:1.0;" width="10" x="1431" y="1582.3311"/><rect fill="#E9967A" height="105.1973" style="stroke:#000000;stroke-width:1.0;" width="10" x="1431" y="1871.3242"/><rect fill="#FFFFFF" height="160.3945" style="stroke:#000000;stroke-width:1.0;" width="10" x="1850" y="447.7598"/><rect fill="#E9967A" height="81.3979" style="stroke:#000000;stroke-width:1.0;" width="10" x="1850" y="1627.9297"/><rect fill="#E9967A" height="29.7993" style="stroke:#000000;stroke-width:1.0;" width="10" x="1850" y="1916.9229"/><rect fill="#FFFFFF" height="144.5952" style="stroke:#000000;stroke-width:1.0;" width="10" x="1982" y="1068.144"/><rect fill="#FFFFFF" height="60.5986" style="stroke:#000000;stroke-width:1.0;" width="417" x="547" y="240.1646"/><rect fill="#FFFFFF" height="1521.4404" style="stroke:#000000;stroke-width:1.0;" width="1745" x="537" y="725.5522"/><rect fill="#FFFFFF" height="487.187" style="stroke:#000000;stroke-width:1.0;" width="1725" x="547" y="793.1509"/><rect fill="#FFFFFF" height="777.2896" style="stroke:#000000;stroke-width:1.0;" width="1562" x="547" y="1411.5352"/><rect fill="#FFFFFF" height="58.168" style="stroke:none;stroke-width:1.0;" width="1562" x="547" y="2014.3208"/><rect fill="#FFFFFF" height="58.168" style="stroke:none;stroke-width:1.0;" width="1562" x="547" y="2072.4888"/><rect fill="#FFFFFF" height="58.168" style="stroke:none;stroke-width:1.0;" width="1562" x="547" y="2130.6567"/><rect fill="#FFFFFF" height="51.168" style="stroke:none;stroke-width:1.0;" width="1745" x="537" y="2195.8247"/><line style="stroke:#000000;stroke-width:1.0;" x1="62" x2="62" y1="147.7666" y2="2339.3906"/><line style="stroke:#000000;stroke-width:1.0;" x1="462" x2="462" y1="147.7666" y2="2339.3906"/><line style="stroke:#000000;stroke-width:1.0;" x1="672" x2="672" y1="147.7666" y2="2339.3906"/><line style="stroke:#000000;stroke-width:1.0;" x1="1053" x2="1053" y1="147.7666" y2="2339.3906"/><line style="stroke:#000000;stroke-width:1.0;" x1="1436" x2="1436" y1="147.7666" y2="2339.3906"/><line style="stroke:#000000;stroke-width:1.0;" x1="1855" x2="1855" y1="147.7666" y2="2339.3906"/><line style="stroke:#000000;stroke-width:1.0;" x1="1987" x2="1987" y1="147.7666" y2="2339.3906"/><text fill="#000000" font-family="Verdana" font-size="14" lengthAdjust="spacing" textLength="98" x="10" y="127.8125">Job Scheduler</text><text fill="#000000" font-family="Verdana" font-size="14" lengthAdjust="spacing" textLength="70" x="24" y="144.8271">(External)</text><ellipse cx="62" cy="61.7373" fill="#FFFFFF" rx="8" ry="8" style="stroke:#000000;stroke-width:1.0;"/><path d="M62,69.7373 L62,96.7373 M49,77.7373 L75,77.7373 M62,96.7373 L49,111.7373 M62,96.7373 L75,111.7373 " fill="none" style="stroke:#000000;stroke-width:1.0;"/><text fill="#000000" font-family="Verdana" font-size="14" lengthAdjust="spacing" textLength="98" x="10" y="2352.4658">Job Scheduler</text><text fill="#000000" font-family="Verdana" font-size="14" lengthAdjust="spacing" textLength="70" x="24" y="2369.4805">(External)</text><ellipse cx="62" cy="2381.4199" fill="#FFFFFF" rx="8" ry="8" style="stroke:#000000;stroke-width:1.0;"/><path d="M62,2389.4199 L62,2416.4199 M49,2397.4199 L75,2397.4199 M62,2416.4199 L49,2431.4199 M62,2416.4199 L75,2431.4199 " fill="none" style="stroke:#000000;stroke-width:1.0;"/><rect fill="#FFFFFF" height="48.0293" rx="2.5" ry="2.5" style="stroke:#000000;stroke-width:1.0;" width="128" x="398" y="98.7373"/><text fill="#000000" font-family="Verdana" font-size="14" lengthAdjust="spacing" textLength="114" x="405" y="119.8125">ClassificationJob</text><text fill="#000000" font-family="Verdana" font-size="14" lengthAdjust="spacing" textLength="69" x="427.5" y="136.8271">Controller</text><rect fill="#FFFFFF" height="48.0293" rx="2.5" ry="2.5" style="stroke:#000000;stroke-width:1.0;" width="128" x="398" y="2338.3906"/><text fill="#000000" font-family="Verdana" font-size="14" lengthAdjust="spacing" textLength="114" x="405" y="2359.4658">ClassificationJob</text><text fill="#000000" font-family="Verdana" font-size="14" lengthAdjust="spacing" textLength="69" x="427.5" y="2376.4805">Controller</text><rect fill="#FFFFFF" height="48.0293" rx="2.5" ry="2.5" style="stroke:#000000;stroke-width:1.0;" width="210" x="567" y="98.7373"/><text fill="#000000" font-family="Verdana" font-size="14" lengthAdjust="spacing" textLength="196" x="574" y="119.8125">NormalAccountClassification</text><text fill="#000000" font-family="Verdana" font-size="14" lengthAdjust="spacing" textLength="74" x="635" y="136.8271">JobService</text><rect fill="#FFFFFF" height="48.0293" rx="2.5" ry="2.5" style="stroke:#000000;stroke-width:1.0;" width="210" x="567" y="2338.3906"/><text fill="#000000" font-family="Verdana" font-size="14" lengthAdjust="spacing" textLength="196" x="574" y="2359.4658">NormalAccountClassification</text><text fill="#000000" font-family="Verdana" font-size="14" lengthAdjust="spacing" textLength="74" x="635" y="2376.4805">JobService</text><rect fill="#FFFFFF" height="48.0293" rx="2.5" ry="2.5" style="stroke:#000000;stroke-width:1.0;" width="210" x="948" y="98.7373"/><text fill="#000000" font-family="Verdana" font-size="14" lengthAdjust="spacing" textLength="196" x="955" y="119.8125">NormalAccountClassification</text><text fill="#000000" font-family="Verdana" font-size="14" lengthAdjust="spacing" textLength="50" x="1028" y="136.8271">Service</text><rect fill="#FFFFFF" height="48.0293" rx="2.5" ry="2.5" style="stroke:#000000;stroke-width:1.0;" width="210" x="948" y="2338.3906"/><text fill="#000000" font-family="Verdana" font-size="14" lengthAdjust="spacing" textLength="196" x="955" y="2359.4658">NormalAccountClassification</text><text fill="#000000" font-family="Verdana" font-size="14" lengthAdjust="spacing" textLength="50" x="1028" y="2376.4805">Service</text><rect fill="#FFFFFF" height="48.0293" rx="2.5" ry="2.5" style="stroke:#000000;stroke-width:1.0;" width="210" x="1331" y="98.7373"/><text fill="#000000" font-family="Verdana" font-size="14" lengthAdjust="spacing" textLength="196" x="1338" y="119.8125">NormalAccountClassification</text><text fill="#000000" font-family="Verdana" font-size="14" lengthAdjust="spacing" textLength="81" x="1395.5" y="136.8271">DataAccess</text><rect fill="#FFFFFF" height="48.0293" rx="2.5" ry="2.5" style="stroke:#000000;stroke-width:1.0;" width="210" x="1331" y="2338.3906"/><text fill="#000000" font-family="Verdana" font-size="14" lengthAdjust="spacing" textLength="196" x="1338" y="2359.4658">NormalAccountClassification</text><text fill="#000000" font-family="Verdana" font-size="14" lengthAdjust="spacing" textLength="81" x="1395.5" y="2376.4805">DataAccess</text><text fill="#000000" font-family="Verdana" font-size="14" lengthAdjust="spacing" textLength="80" x="1812" y="127.8125">SQL Server</text><text fill="#000000" font-family="Verdana" font-size="14" lengthAdjust="spacing" textLength="114" x="1795" y="144.8271">bodb_VR2Model</text><path d="M1837,77.7373 C1837,67.7373 1855,67.7373 1855,67.7373 C1855,67.7373 1873,67.7373 1873,77.7373 L1873,103.7373 C1873,113.7373 1855,113.7373 1855,113.7373 C1855,113.7373 1837,113.7373 1837,103.7373 L1837,77.7373 " fill="#FFFFFF" style="stroke:#000000;stroke-width:1.5;"/><path d="M1837,77.7373 C1837,87.7373 1855,87.7373 1855,87.7373 C1855,87.7373 1873,87.7373 1873,77.7373 " fill="none" style="stroke:#000000;stroke-width:1.5;"/><text fill="#000000" font-family="Verdana" font-size="14" lengthAdjust="spacing" textLength="80" x="1812" y="2352.4658">SQL Server</text><text fill="#000000" font-family="Verdana" font-size="14" lengthAdjust="spacing" textLength="114" x="1795" y="2369.4805">bodb_VR2Model</text><path d="M1837,2382.4199 C1837,2372.4199 1855,2372.4199 1855,2372.4199 C1855,2372.4199 1873,2372.4199 1873,2382.4199 L1873,2408.4199 C1873,2418.4199 1855,2418.4199 1855,2418.4199 C1855,2418.4199 1837,2418.4199 1837,2408.4199 L1837,2382.4199 " fill="#FFFFFF" style="stroke:#000000;stroke-width:1.5;"/><path d="M1837,2382.4199 C1837,2392.4199 1855,2392.4199 1855,2392.4199 C1855,2392.4199 1873,2392.4199 1873,2382.4199 " fill="none" style="stroke:#000000;stroke-width:1.5;"/><text fill="#000000" font-family="Verdana" font-size="14" lengthAdjust="spacing" textLength="48" x="1960" y="127.8125">MySQL</text><text fill="#000000" font-family="Verdana" font-size="14" lengthAdjust="spacing" textLength="118" x="1925" y="144.8271">CTS_DataCenter</text><path d="M1969,77.7373 C1969,67.7373 1987,67.7373 1987,67.7373 C1987,67.7373 2005,67.7373 2005,77.7373 L2005,103.7373 C2005,113.7373 1987,113.7373 1987,113.7373 C1987,113.7373 1969,113.7373 1969,103.7373 L1969,77.7373 " fill="#FFFFFF" style="stroke:#000000;stroke-width:1.5;"/><path d="M1969,77.7373 C1969,87.7373 1987,87.7373 1987,87.7373 C1987,87.7373 2005,87.7373 2005,77.7373 " fill="none" style="stroke:#000000;stroke-width:1.5;"/><text fill="#000000" font-family="Verdana" font-size="14" lengthAdjust="spacing" textLength="48" x="1960" y="2352.4658">MySQL</text><text fill="#000000" font-family="Verdana" font-size="14" lengthAdjust="spacing" textLength="118" x="1925" y="2369.4805">CTS_DataCenter</text><path d="M1969,2382.4199 C1969,2372.4199 1987,2372.4199 1987,2372.4199 C1987,2372.4199 2005,2372.4199 2005,2382.4199 L2005,2408.4199 C2005,2418.4199 1987,2418.4199 1987,2418.4199 C1987,2418.4199 1969,2418.4199 1969,2408.4199 L1969,2382.4199 " fill="#FFFFFF" style="stroke:#000000;stroke-width:1.5;"/><path d="M1969,2382.4199 C1969,2392.4199 1987,2392.4199 1987,2392.4199 C1987,2392.4199 2005,2392.4199 2005,2382.4199 " fill="none" style="stroke:#000000;stroke-width:1.5;"/><rect fill="#FFFFFF" height="2126.0254" style="stroke:#000000;stroke-width:1.0;" width="10" x="457" y="195.3652"/><rect fill="#FFFFFF" height="2050.6274" style="stroke:#000000;stroke-width:1.0;" width="10" x="667" y="225.1646"/><rect fill="#E9967A" height="547.187" style="stroke:#000000;stroke-width:1.0;" width="10" x="672" y="1459.1338"/><rect fill="#FFFFFF" height="380.9897" style="stroke:#000000;stroke-width:1.0;" width="10" x="1048" y="329.5625"/><rect fill="#FFFFFF" height="380.9897" style="stroke:#000000;stroke-width:1.0;" width="10" x="1048" y="891.3481"/><rect fill="#E9967A" height="216.3945" style="stroke:#000000;stroke-width:1.0;" width="10" x="1048" y="1552.5317"/><rect fill="#E9967A" height="164.7959" style="stroke:#000000;stroke-width:1.0;" width="10" x="1048" y="1841.5249"/><rect fill="#FFFFFF" height="321.3911" style="stroke:#000000;stroke-width:1.0;" width="10" x="1431" y="359.3618"/><rect fill="#FFFFFF" height="278.5918" style="stroke:#000000;stroke-width:1.0;" width="10" x="1431" y="963.9468"/><rect fill="#E9967A" height="156.7959" style="stroke:#000000;stroke-width:1.0;" width="10" x="1431" y="1582.3311"/><rect fill="#E9967A" height="105.1973" style="stroke:#000000;stroke-width:1.0;" width="10" x="1431" y="1871.3242"/><rect fill="#FFFFFF" height="160.3945" style="stroke:#000000;stroke-width:1.0;" width="10" x="1850" y="447.7598"/><rect fill="#E9967A" height="81.3979" style="stroke:#000000;stroke-width:1.0;" width="10" x="1850" y="1627.9297"/><rect fill="#E9967A" height="29.7993" style="stroke:#000000;stroke-width:1.0;" width="10" x="1850" y="1916.9229"/><rect fill="#FFFFFF" height="144.5952" style="stroke:#000000;stroke-width:1.0;" width="10" x="1982" y="1068.144"/><polygon fill="#000000" points="445,191.3652,455,195.3652,445,199.3652,449,195.3652" style="stroke:#000000;stroke-width:1.0;"/><line style="stroke:#000000;stroke-width:1.0;" x1="62" x2="451" y1="195.3652" y2="195.3652"/><text fill="#000000" font-family="Verdana" font-size="13" lengthAdjust="spacing" textLength="376" x="69" y="174.8364">POST /api/classificationJobs/normalAccountClassification</text><text fill="#000000" font-family="Verdana" font-size="13" lengthAdjust="spacing" textLength="116" x="69" y="190.6357">batchInternalSize</text><polygon fill="#000000" points="655,221.1646,665,225.1646,655,229.1646,659,225.1646" style="stroke:#000000;stroke-width:1.0;"/><line style="stroke:#000000;stroke-width:1.0;" x1="467" x2="661" y1="225.1646" y2="225.1646"/><text fill="#000000" font-family="Verdana" font-size="13" lengthAdjust="spacing" textLength="181" x="474" y="220.4351">Execute(batchInternalSize)</text><path d="M547,240.1646 L611,240.1646 L611,247.9639 L601,257.9639 L547,257.9639 L547,240.1646 " fill="#FFFFFF" style="stroke:#000000;stroke-width:1.0;"/><rect fill="none" height="60.5986" style="stroke:#000000;stroke-width:1.0;" width="417" x="547" y="240.1646"/><text fill="#000000" font-family="Verdana" font-size="13" font-weight="bold" lengthAdjust="spacing" textLength="19" x="562" y="254.2344">alt</text><text fill="#000000" font-family="Verdana" font-size="11" font-weight="bold" lengthAdjust="spacing" textLength="162" x="626" y="253.2236">[batchInternalSize &lt;= 0]</text><line style="stroke:#000000;stroke-width:1.0;" x1="677" x2="719" y1="279.7632" y2="279.7632"/><line style="stroke:#000000;stroke-width:1.0;" x1="719" x2="719" y1="279.7632" y2="292.7632"/><line style="stroke:#000000;stroke-width:1.0;" x1="678" x2="719" y1="292.7632" y2="292.7632"/><polygon fill="#000000" points="688,288.7632,678,292.7632,688,296.7632,684,292.7632" style="stroke:#000000;stroke-width:1.0;"/><text fill="#000000" font-family="Verdana" font-size="13" lengthAdjust="spacing" textLength="258" x="684" y="275.0337">Set batchInternalSize = 5000 (default)</text><polygon fill="#000000" points="1036,325.5625,1046,329.5625,1036,333.5625,1040,329.5625" style="stroke:#000000;stroke-width:1.0;"/><line style="stroke:#000000;stroke-width:1.0;" x1="677" x2="1042" y1="329.5625" y2="329.5625"/><text fill="#000000" font-family="Verdana" font-size="13" lengthAdjust="spacing" textLength="175" x="684" y="324.833">GetNormalPoolCustomers()</text><polygon fill="#000000" points="1419,355.3618,1429,359.3618,1419,363.3618,1423,359.3618" style="stroke:#000000;stroke-width:1.0;"/><line style="stroke:#000000;stroke-width:1.0;" x1="1058" x2="1425" y1="359.3618" y2="359.3618"/><text fill="#000000" font-family="Verdana" font-size="13" lengthAdjust="spacing" textLength="175" x="1065" y="354.6323">GetNormalPoolCustomers()</text><line style="stroke:#000000;stroke-width:1.0;" x1="1441" x2="1483" y1="389.1611" y2="389.1611"/><line style="stroke:#000000;stroke-width:1.0;" x1="1483" x2="1483" y1="389.1611" y2="402.1611"/><line style="stroke:#000000;stroke-width:1.0;" x1="1442" x2="1483" y1="402.1611" y2="402.1611"/><polygon fill="#000000" points="1452,398.1611,1442,402.1611,1452,406.1611,1448,402.1611" style="stroke:#000000;stroke-width:1.0;"/><text fill="#000000" font-family="Verdana" font-size="13" lengthAdjust="spacing" textLength="252" x="1448" y="384.4316">Create GetNormalPoolCustomerCriteria</text><polygon fill="#000000" points="1838,443.7598,1848,447.7598,1838,451.7598,1842,447.7598" style="stroke:#000000;stroke-width:1.0;"/><line style="stroke:#000000;stroke-width:1.0;" x1="1441" x2="1844" y1="447.7598" y2="447.7598"/><text fill="#000000" font-family="Verdana" font-size="13" lengthAdjust="spacing" textLength="363" x="1448" y="427.231">EXEC CTS_GeneralNormalClassification_NormalPool_Get</text><text fill="#000000" font-family="Verdana" font-size="13" lengthAdjust="spacing" textLength="168" x="1448" y="443.0303">@ScannedMaxId OUTPUT</text><path d="M1865,460.7598 L1865,564.7598 L2180,564.7598 L2180,470.7598 L2170,460.7598 L1865,460.7598 " fill="#FFFFFF" style="stroke:#000000;stroke-width:1.0;"/><path d="M2170,460.7598 L2170,470.7598 L2180,470.7598 L2170,460.7598 " fill="#FFFFFF" style="stroke:#000000;stroke-width:1.0;"/><text fill="#000000" font-family="Verdana" font-size="13" lengthAdjust="spacing" textLength="121" x="1871" y="478.8296">Stored Procedure:</text><text fill="#000000" font-family="Verdana" font-size="13" lengthAdjust="spacing" textLength="238" x="1871" y="494.6289">- Get unprocessed from Normal Pool</text><text fill="#000000" font-family="Verdana" font-size="13" lengthAdjust="spacing" textLength="216" x="1871" y="510.4282">- Order by Priority DESC, ID ASC</text><text fill="#000000" font-family="Verdana" font-size="13" lengthAdjust="spacing" textLength="220" x="1871" y="526.2275">- Return: CustId, IsRealtimeOnly,</text><text fill="#000000" font-family="Verdana" font-size="13" lengthAdjust="spacing" textLength="284" x="1881" y="542.0269">ScanTaggingType, ScanSpecialLicSubType</text><text fill="#000000" font-family="Verdana" font-size="13" lengthAdjust="spacing" textLength="165" x="1871" y="557.8262">- Output: ScannedMaxId</text><polygon fill="#000000" points="1452,604.1543,1442,608.1543,1452,612.1543,1448,608.1543" style="stroke:#000000;stroke-width:1.0;"/><line style="stroke:#000000;stroke-width:1.0;stroke-dasharray:2.0,2.0;" x1="1446" x2="1854" y1="608.1543" y2="608.1543"/><text fill="#000000" font-family="Verdana" font-size="13" lengthAdjust="spacing" textLength="281" x="1458" y="587.6255">ResultSet: GetNormalPoolCustomerEntity[]</text><text fill="#000000" font-family="Verdana" font-size="13" lengthAdjust="spacing" textLength="96" x="1458" y="603.4248">ScannedMaxId</text><line style="stroke:#000000;stroke-width:1.0;" x1="1441" x2="1483" y1="637.9536" y2="637.9536"/><line style="stroke:#000000;stroke-width:1.0;" x1="1483" x2="1483" y1="637.9536" y2="650.9536"/><line style="stroke:#000000;stroke-width:1.0;" x1="1442" x2="1483" y1="650.9536" y2="650.9536"/><polygon fill="#000000" points="1452,646.9536,1442,650.9536,1452,654.9536,1448,650.9536" style="stroke:#000000;stroke-width:1.0;"/><text fill="#000000" font-family="Verdana" font-size="13" lengthAdjust="spacing" textLength="245" x="1448" y="633.2241">Map to GetNormalPoolCustomerModel</text><polygon fill="#000000" points="1069,676.7529,1059,680.7529,1069,684.7529,1065,680.7529" style="stroke:#000000;stroke-width:1.0;"/><line style="stroke:#000000;stroke-width:1.0;stroke-dasharray:2.0,2.0;" x1="1063" x2="1435" y1="680.7529" y2="680.7529"/><text fill="#000000" font-family="Verdana" font-size="13" lengthAdjust="spacing" textLength="194" x="1075" y="676.0234">GetNormalPoolCustomerModel</text><polygon fill="#000000" points="688,706.5522,678,710.5522,688,714.5522,684,710.5522" style="stroke:#000000;stroke-width:1.0;"/><line style="stroke:#000000;stroke-width:1.0;stroke-dasharray:2.0,2.0;" x1="682" x2="1052" y1="710.5522" y2="710.5522"/><text fill="#000000" font-family="Verdana" font-size="13" lengthAdjust="spacing" textLength="194" x="694" y="705.8228">GetNormalPoolCustomerModel</text><path d="M537,725.5522 L601,725.5522 L601,733.3516 L591,743.3516 L537,743.3516 L537,725.5522 " fill="#FFFFFF" style="stroke:#000000;stroke-width:1.0;"/><rect fill="none" height="1521.4404" style="stroke:#000000;stroke-width:1.0;" width="1745" x="537" y="725.5522"/><text fill="#000000" font-family="Verdana" font-size="13" font-weight="bold" lengthAdjust="spacing" textLength="19" x="552" y="739.6221">alt</text><text fill="#000000" font-family="Verdana" font-size="11" font-weight="bold" lengthAdjust="spacing" textLength="109" x="616" y="738.6113">[Has Customers]</text><line style="stroke:#000000;stroke-width:1.0;" x1="677" x2="719" y1="765.1509" y2="765.1509"/><line style="stroke:#000000;stroke-width:1.0;" x1="719" x2="719" y1="765.1509" y2="778.1509"/><line style="stroke:#000000;stroke-width:1.0;" x1="678" x2="719" y1="778.1509" y2="778.1509"/><polygon fill="#000000" points="688,774.1509,678,778.1509,688,782.1509,684,778.1509" style="stroke:#000000;stroke-width:1.0;"/><text fill="#000000" font-family="Verdana" font-size="13" lengthAdjust="spacing" textLength="255" x="684" y="760.4214">Chunk customers by batchInternalSize</text><path d="M547,793.1509 L623,793.1509 L623,800.9502 L613,810.9502 L547,810.9502 L547,793.1509 " fill="#FFFFFF" style="stroke:#000000;stroke-width:1.0;"/><rect fill="none" height="487.187" style="stroke:#000000;stroke-width:1.0;" width="1725" x="547" y="793.1509"/><text fill="#000000" font-family="Verdana" font-size="13" font-weight="bold" lengthAdjust="spacing" textLength="31" x="562" y="807.2207">loop</text><text fill="#000000" font-family="Verdana" font-size="11" font-weight="bold" lengthAdjust="spacing" textLength="112" x="638" y="806.21">[For each chunk]</text><line style="stroke:#000000;stroke-width:1.0;" x1="677" x2="719" y1="848.5488" y2="848.5488"/><line style="stroke:#000000;stroke-width:1.0;" x1="719" x2="719" y1="848.5488" y2="861.5488"/><line style="stroke:#000000;stroke-width:1.0;" x1="678" x2="719" y1="861.5488" y2="861.5488"/><polygon fill="#000000" points="688,857.5488,678,861.5488,688,865.5488,684,861.5488" style="stroke:#000000;stroke-width:1.0;"/><text fill="#000000" font-family="Verdana" font-size="13" lengthAdjust="spacing" textLength="281" x="684" y="828.02">Select CustID and ScanSpecialLicSubType</text><text fill="#000000" font-family="Verdana" font-size="13" lengthAdjust="spacing" textLength="198" x="684" y="843.8193">into GetCurrentCCParamModel</text><polygon fill="#000000" points="1036,887.3481,1046,891.3481,1036,895.3481,1040,891.3481" style="stroke:#000000;stroke-width:1.0;"/><line style="stroke:#000000;stroke-width:1.0;" x1="677" x2="1042" y1="891.3481" y2="891.3481"/><text fill="#000000" font-family="Verdana" font-size="13" lengthAdjust="spacing" textLength="268" x="684" y="886.6187">GetCurrentCustomerCategory(custInfos)</text><line style="stroke:#000000;stroke-width:1.0;" x1="1058" x2="1100" y1="921.1475" y2="921.1475"/><line style="stroke:#000000;stroke-width:1.0;" x1="1100" x2="1100" y1="921.1475" y2="934.1475"/><line style="stroke:#000000;stroke-width:1.0;" x1="1059" x2="1100" y1="934.1475" y2="934.1475"/><polygon fill="#000000" points="1069,930.1475,1059,934.1475,1069,938.1475,1065,934.1475" style="stroke:#000000;stroke-width:1.0;"/><text fill="#000000" font-family="Verdana" font-size="13" lengthAdjust="spacing" textLength="179" x="1065" y="916.418">Serialize custInfos to JSON</text><polygon fill="#000000" points="1419,959.9468,1429,963.9468,1419,967.9468,1423,963.9468" style="stroke:#000000;stroke-width:1.0;"/><line style="stroke:#000000;stroke-width:1.0;" x1="1058" x2="1425" y1="963.9468" y2="963.9468"/><text fill="#000000" font-family="Verdana" font-size="13" lengthAdjust="spacing" textLength="297" x="1065" y="959.2173">GetCurrentCustomerCategory(custInfosJson)</text><line style="stroke:#000000;stroke-width:1.0;" x1="1441" x2="1483" y1="1009.5454" y2="1009.5454"/><line style="stroke:#000000;stroke-width:1.0;" x1="1483" x2="1483" y1="1009.5454" y2="1022.5454"/><line style="stroke:#000000;stroke-width:1.0;" x1="1442" x2="1483" y1="1022.5454" y2="1022.5454"/><polygon fill="#000000" points="1452,1018.5454,1442,1022.5454,1452,1026.5454,1448,1022.5454" style="stroke:#000000;stroke-width:1.0;"/><text fill="#000000" font-family="Verdana" font-size="13" lengthAdjust="spacing" textLength="272" x="1448" y="989.0166">Create GetCurrentNormalCategoryCriteria</text><text fill="#000000" font-family="Verdana" font-size="13" lengthAdjust="spacing" textLength="116" x="1448" y="1004.8159">CustInfos = JSON</text><polygon fill="#000000" points="1970,1064.144,1980,1068.144,1970,1072.144,1974,1068.144" style="stroke:#000000;stroke-width:1.0;"/><line style="stroke:#000000;stroke-width:1.0;" x1="1441" x2="1976" y1="1068.144" y2="1068.144"/><text fill="#000000" font-family="Verdana" font-size="13" lengthAdjust="spacing" textLength="408" x="1448" y="1047.6152">EXEC CTS_DC_CustClassification_Normal_GetCurrentCategory</text><text fill="#000000" font-family="Verdana" font-size="13" lengthAdjust="spacing" textLength="139" x="1448" y="1063.4146">@ip_CustInfo (JSON)</text><path d="M1997,1081.144 L1997,1185.144 L2262,1185.144 L2262,1091.144 L2252,1081.144 L1997,1081.144 " fill="#FFFFFF" style="stroke:#000000;stroke-width:1.0;"/><path d="M2252,1081.144 L2252,1091.144 L2262,1091.144 L2252,1081.144 " fill="#FFFFFF" style="stroke:#000000;stroke-width:1.0;"/><text fill="#000000" font-family="Verdana" font-size="13" lengthAdjust="spacing" textLength="121" x="2003" y="1099.2139">Stored Procedure:</text><text fill="#000000" font-family="Verdana" font-size="13" lengthAdjust="spacing" textLength="177" x="2003" y="1115.0132">- Parse JSON customer list</text><text fill="#000000" font-family="Verdana" font-size="13" lengthAdjust="spacing" textLength="178" x="2003" y="1130.8125">- Get current classification</text><text fill="#000000" font-family="Verdana" font-size="13" lengthAdjust="spacing" textLength="199" x="2003" y="1146.6118">- Return: CustID, CategoryID,</text><text fill="#000000" font-family="Verdana" font-size="13" lengthAdjust="spacing" textLength="234" x="2013" y="1162.4111">IsNewCreated, IsProbationLastDay,</text><text fill="#000000" font-family="Verdana" font-size="13" lengthAdjust="spacing" textLength="120" x="2013" y="1178.2104">IsSpecialLicSubCC</text><polygon fill="#000000" points="1452,1208.7393,1442,1212.7393,1452,1216.7393,1448,1212.7393" style="stroke:#000000;stroke-width:1.0;"/><line style="stroke:#000000;stroke-width:1.0;stroke-dasharray:2.0,2.0;" x1="1446" x2="1986" y1="1212.7393" y2="1212.7393"/><text fill="#000000" font-family="Verdana" font-size="13" lengthAdjust="spacing" textLength="301" x="1458" y="1208.0098">ResultSet: GetCurrentNormalCategoryEntity[]</text><polygon fill="#000000" points="1069,1238.5386,1059,1242.5386,1069,1246.5386,1065,1242.5386" style="stroke:#000000;stroke-width:1.0;"/><line style="stroke:#000000;stroke-width:1.0;stroke-dasharray:2.0,2.0;" x1="1063" x2="1435" y1="1242.5386" y2="1242.5386"/><text fill="#000000" font-family="Verdana" font-size="13" lengthAdjust="spacing" textLength="227" x="1075" y="1237.8091">GetCurrentNormalCategoryEntity[]</text><polygon fill="#000000" points="688,1268.3379,678,1272.3379,688,1276.3379,684,1272.3379" style="stroke:#000000;stroke-width:1.0;"/><line style="stroke:#000000;stroke-width:1.0;stroke-dasharray:2.0,2.0;" x1="682" x2="1052" y1="1272.3379" y2="1272.3379"/><text fill="#000000" font-family="Verdana" font-size="13" lengthAdjust="spacing" textLength="227" x="694" y="1267.6084">GetCurrentNormalCategoryEntity[]</text><line style="stroke:#000000;stroke-width:1.0;" x1="677" x2="719" y1="1340.7358" y2="1340.7358"/><line style="stroke:#000000;stroke-width:1.0;" x1="719" x2="719" y1="1340.7358" y2="1353.7358"/><line style="stroke:#000000;stroke-width:1.0;" x1="678" x2="719" y1="1353.7358" y2="1353.7358"/><polygon fill="#000000" points="688,1349.7358,678,1353.7358,688,1357.7358,684,1353.7358" style="stroke:#000000;stroke-width:1.0;"/><text fill="#000000" font-family="Verdana" font-size="13" lengthAdjust="spacing" textLength="67" x="684" y="1304.4077">LINQ Join:</text><text fill="#000000" font-family="Verdana" font-size="13" lengthAdjust="spacing" textLength="291" x="684" y="1320.207">NormalPoolCustomers + CustomerCategories</text><text fill="#000000" font-family="Verdana" font-size="13" lengthAdjust="spacing" textLength="268" x="684" y="1336.0063">&#226;&#8224;&#8217; GetCurrentCustomerCategoryModel[]</text><line style="stroke:#000000;stroke-width:1.0;" x1="677" x2="719" y1="1383.5352" y2="1383.5352"/><line style="stroke:#000000;stroke-width:1.0;" x1="719" x2="719" y1="1383.5352" y2="1396.5352"/><line style="stroke:#000000;stroke-width:1.0;" x1="678" x2="719" y1="1396.5352" y2="1396.5352"/><polygon fill="#000000" points="688,1392.5352,678,1396.5352,688,1400.5352,684,1396.5352" style="stroke:#000000;stroke-width:1.0;"/><text fill="#000000" font-family="Verdana" font-size="13" lengthAdjust="spacing" textLength="261" x="684" y="1378.8057">Chunk joined data by batchInternalSize</text><path d="M547,1411.5352 L616,1411.5352 L616,1419.3345 L606,1429.3345 L547,1429.3345 L547,1411.5352 " fill="#FFFFFF" style="stroke:#000000;stroke-width:1.0;"/><rect fill="none" height="777.2896" style="stroke:#000000;stroke-width:1.0;" width="1562" x="547" y="1411.5352"/><text fill="#000000" font-family="Verdana" font-size="13" font-weight="bold" lengthAdjust="spacing" textLength="24" x="562" y="1425.605">par</text><text fill="#000000" font-family="Verdana" font-size="11" font-weight="bold" lengthAdjust="spacing" textLength="115" x="631" y="1424.5942">[Process batch 1]</text><line style="stroke:#000000;stroke-width:1.0;" x1="677" x2="724" y1="1446.1338" y2="1446.1338"/><line style="stroke:#000000;stroke-width:1.0;" x1="724" x2="724" y1="1446.1338" y2="1459.1338"/><line style="stroke:#000000;stroke-width:1.0;" x1="683" x2="724" y1="1459.1338" y2="1459.1338"/><polygon fill="#000000" points="693,1455.1338,683,1459.1338,693,1463.1338,689,1459.1338" style="stroke:#000000;stroke-width:1.0;"/><text fill="#000000" font-family="Verdana" font-size="13" lengthAdjust="spacing" textLength="347" x="689" y="1441.4043">[Thread 1] ClassifyBatch(custBatch, scannedMaxId)</text><line style="stroke:#000000;stroke-width:1.0;" x1="682" x2="724" y1="1509.7324" y2="1509.7324"/><line style="stroke:#000000;stroke-width:1.0;" x1="724" x2="724" y1="1509.7324" y2="1522.7324"/><line style="stroke:#000000;stroke-width:1.0;" x1="683" x2="724" y1="1522.7324" y2="1522.7324"/><polygon fill="#000000" points="693,1518.7324,683,1522.7324,693,1526.7324,689,1522.7324" style="stroke:#000000;stroke-width:1.0;"/><text fill="#000000" font-family="Verdana" font-size="13" lengthAdjust="spacing" textLength="148" x="689" y="1489.2036">Serialize batch to XML</text><text fill="#000000" font-family="Verdana" font-size="13" lengthAdjust="spacing" textLength="130" x="689" y="1505.0029">using ToXmlString()</text><polygon fill="#000000" points="1036,1548.5317,1046,1552.5317,1036,1556.5317,1040,1552.5317" style="stroke:#000000;stroke-width:1.0;"/><line style="stroke:#000000;stroke-width:1.0;" x1="682" x2="1042" y1="1552.5317" y2="1552.5317"/><text fill="#000000" font-family="Verdana" font-size="13" lengthAdjust="spacing" textLength="290" x="689" y="1547.8022">ClassifyNormalPoolCustomers(customerXML)</text><polygon fill="#000000" points="1419,1578.3311,1429,1582.3311,1419,1586.3311,1423,1582.3311" style="stroke:#000000;stroke-width:1.0;"/><line style="stroke:#000000;stroke-width:1.0;" x1="1058" x2="1425" y1="1582.3311" y2="1582.3311"/><text fill="#000000" font-family="Verdana" font-size="13" lengthAdjust="spacing" textLength="290" x="1065" y="1577.6016">ClassifyNormalPoolCustomers(customerXML)</text><polygon fill="#000000" points="1838,1623.9297,1848,1627.9297,1838,1631.9297,1842,1627.9297" style="stroke:#000000;stroke-width:1.0;"/><line style="stroke:#000000;stroke-width:1.0;" x1="1441" x2="1844" y1="1627.9297" y2="1627.9297"/><text fill="#000000" font-family="Verdana" font-size="13" lengthAdjust="spacing" textLength="390" x="1448" y="1607.4009">EXEC CTS_GeneralNormalClassification_NormalPool_Classify</text><text fill="#000000" font-family="Verdana" font-size="13" lengthAdjust="spacing" textLength="109" x="1448" y="1623.2002">@CustomersXML</text><path d="M1865,1640.9297 L1865,1681.9297 L2099,1681.9297 L2099,1650.9297 L2089,1640.9297 L1865,1640.9297 " fill="#FFFFFF" style="stroke:#000000;stroke-width:1.0;"/><path d="M2089,1640.9297 L2089,1650.9297 L2099,1650.9297 L2089,1640.9297 " fill="#FFFFFF" style="stroke:#000000;stroke-width:1.0;"/><text fill="#000000" font-family="Verdana" font-size="13" lengthAdjust="spacing" textLength="213" x="1871" y="1658.9995">Parse XML &amp; Apply classification</text><text fill="#000000" font-family="Verdana" font-size="13" lengthAdjust="spacing" textLength="115" x="1871" y="1674.7988">based on all flags</text><polygon fill="#000000" points="1452,1705.3276,1442,1709.3276,1452,1713.3276,1448,1709.3276" style="stroke:#000000;stroke-width:1.0;"/><line style="stroke:#000000;stroke-width:1.0;stroke-dasharray:2.0,2.0;" x1="1446" x2="1854" y1="1709.3276" y2="1709.3276"/><text fill="#000000" font-family="Verdana" font-size="13" lengthAdjust="spacing" textLength="55" x="1458" y="1704.5981">Success</text><polygon fill="#000000" points="1069,1735.127,1059,1739.127,1069,1743.127,1065,1739.127" style="stroke:#000000;stroke-width:1.0;"/><line style="stroke:#000000;stroke-width:1.0;stroke-dasharray:2.0,2.0;" x1="1063" x2="1435" y1="1739.127" y2="1739.127"/><text fill="#000000" font-family="Verdana" font-size="13" lengthAdjust="spacing" textLength="27" x="1075" y="1734.3975">void</text><polygon fill="#000000" points="693,1764.9263,683,1768.9263,693,1772.9263,689,1768.9263" style="stroke:#000000;stroke-width:1.0;"/><line style="stroke:#000000;stroke-width:1.0;stroke-dasharray:2.0,2.0;" x1="687" x2="1052" y1="1768.9263" y2="1768.9263"/><text fill="#000000" font-family="Verdana" font-size="13" lengthAdjust="spacing" textLength="239" x="699" y="1764.1968">INormalAccountClassificationService</text><line style="stroke:#000000;stroke-width:1.0;" x1="682" x2="724" y1="1798.7256" y2="1798.7256"/><line style="stroke:#000000;stroke-width:1.0;" x1="724" x2="724" y1="1798.7256" y2="1811.7256"/><line style="stroke:#000000;stroke-width:1.0;" x1="683" x2="724" y1="1811.7256" y2="1811.7256"/><polygon fill="#000000" points="693,1807.7256,683,1811.7256,693,1815.7256,689,1811.7256" style="stroke:#000000;stroke-width:1.0;"/><text fill="#000000" font-family="Verdana" font-size="13" lengthAdjust="spacing" textLength="265" x="689" y="1793.9961">Join CustIds to comma-separated string</text><polygon fill="#000000" points="1036,1837.5249,1046,1841.5249,1036,1845.5249,1040,1841.5249" style="stroke:#000000;stroke-width:1.0;"/><line style="stroke:#000000;stroke-width:1.0;" x1="682" x2="1042" y1="1841.5249" y2="1841.5249"/><text fill="#000000" font-family="Verdana" font-size="13" lengthAdjust="spacing" textLength="338" x="689" y="1836.7954">ClearNormalPoolCustomers(custIds, scannedMaxId)</text><polygon fill="#000000" points="1419,1867.3242,1429,1871.3242,1419,1875.3242,1423,1871.3242" style="stroke:#000000;stroke-width:1.0;"/><line style="stroke:#000000;stroke-width:1.0;" x1="1058" x2="1425" y1="1871.3242" y2="1871.3242"/><text fill="#000000" font-family="Verdana" font-size="13" lengthAdjust="spacing" textLength="354" x="1065" y="1866.5947">ClearNormalPoolCustomers(custIdList, scannedMaxId)</text><polygon fill="#000000" points="1838,1912.9229,1848,1916.9229,1838,1920.9229,1842,1916.9229" style="stroke:#000000;stroke-width:1.0;"/><line style="stroke:#000000;stroke-width:1.0;" x1="1441" x2="1844" y1="1916.9229" y2="1916.9229"/><text fill="#000000" font-family="Verdana" font-size="13" lengthAdjust="spacing" textLength="373" x="1448" y="1896.394">EXEC CTS_GeneralNormalClassification_NormalPool_Clear</text><text fill="#000000" font-family="Verdana" font-size="13" lengthAdjust="spacing" textLength="198" x="1448" y="1912.1934">@ListCustId, @ScannedMaxId</text><polygon fill="#000000" points="1452,1942.7222,1442,1946.7222,1452,1950.7222,1448,1946.7222" style="stroke:#000000;stroke-width:1.0;"/><line style="stroke:#000000;stroke-width:1.0;stroke-dasharray:2.0,2.0;" x1="1446" x2="1854" y1="1946.7222" y2="1946.7222"/><text fill="#000000" font-family="Verdana" font-size="13" lengthAdjust="spacing" textLength="55" x="1458" y="1941.9927">Success</text><polygon fill="#000000" points="1069,1972.5215,1059,1976.5215,1069,1980.5215,1065,1976.5215" style="stroke:#000000;stroke-width:1.0;"/><line style="stroke:#000000;stroke-width:1.0;stroke-dasharray:2.0,2.0;" x1="1063" x2="1435" y1="1976.5215" y2="1976.5215"/><text fill="#000000" font-family="Verdana" font-size="13" lengthAdjust="spacing" textLength="27" x="1075" y="1971.792">void</text><polygon fill="#000000" points="688,2002.3208,678,2006.3208,688,2010.3208,684,2006.3208" style="stroke:#000000;stroke-width:1.0;"/><line style="stroke:#000000;stroke-width:1.0;stroke-dasharray:2.0,2.0;" x1="682" x2="1052" y1="2006.3208" y2="2006.3208"/><text fill="#000000" font-family="Verdana" font-size="13" lengthAdjust="spacing" textLength="239" x="694" y="2001.5913">INormalAccountClassificationService</text><line style="stroke:#000000;stroke-width:1.0;stroke-dasharray:2.0,2.0;" x1="547" x2="2109" y1="2015.3208" y2="2015.3208"/><text fill="#000000" font-family="Verdana" font-size="11" font-weight="bold" lengthAdjust="spacing" textLength="115" x="552" y="2026.3799">[Process batch 2]</text><line style="stroke:#000000;stroke-width:1.0;" x1="677" x2="719" y1="2051.4888" y2="2051.4888"/><line style="stroke:#000000;stroke-width:1.0;" x1="719" x2="719" y1="2051.4888" y2="2064.4888"/><line style="stroke:#000000;stroke-width:1.0;" x1="678" x2="719" y1="2064.4888" y2="2064.4888"/><polygon fill="#000000" points="688,2060.4888,678,2064.4888,688,2068.4888,684,2064.4888" style="stroke:#000000;stroke-width:1.0;"/><text fill="#000000" font-family="Verdana" font-size="13" lengthAdjust="spacing" textLength="191" x="684" y="2046.7593">[Thread 2] ClassifyBatch(...)</text><path d="M897,2038.1895 L897,2063.1895 L1070,2063.1895 L1070,2048.1895 L1060,2038.1895 L897,2038.1895 " fill="#FFFFFF" style="stroke:#000000;stroke-width:1.0;"/><path d="M1060,2038.1895 L1060,2048.1895 L1070,2048.1895 L1060,2038.1895 " fill="#FFFFFF" style="stroke:#000000;stroke-width:1.0;"/><text fill="#000000" font-family="Verdana" font-size="13" lengthAdjust="spacing" textLength="152" x="903" y="2056.2593">Same flow as Thread 1</text><line style="stroke:#000000;stroke-width:1.0;stroke-dasharray:2.0,2.0;" x1="547" x2="2109" y1="2073.4888" y2="2073.4888"/><text fill="#000000" font-family="Verdana" font-size="11" font-weight="bold" lengthAdjust="spacing" textLength="115" x="552" y="2084.5479">[Process batch 3]</text><line style="stroke:#000000;stroke-width:1.0;" x1="677" x2="719" y1="2109.6567" y2="2109.6567"/><line style="stroke:#000000;stroke-width:1.0;" x1="719" x2="719" y1="2109.6567" y2="2122.6567"/><line style="stroke:#000000;stroke-width:1.0;" x1="678" x2="719" y1="2122.6567" y2="2122.6567"/><polygon fill="#000000" points="688,2118.6567,678,2122.6567,688,2126.6567,684,2122.6567" style="stroke:#000000;stroke-width:1.0;"/><text fill="#000000" font-family="Verdana" font-size="13" lengthAdjust="spacing" textLength="191" x="684" y="2104.9272">[Thread 3] ClassifyBatch(...)</text><path d="M897,2096.3574 L897,2121.3574 L1070,2121.3574 L1070,2106.3574 L1060,2096.3574 L897,2096.3574 " fill="#FFFFFF" style="stroke:#000000;stroke-width:1.0;"/><path d="M1060,2096.3574 L1060,2106.3574 L1070,2106.3574 L1060,2096.3574 " fill="#FFFFFF" style="stroke:#000000;stroke-width:1.0;"/><text fill="#000000" font-family="Verdana" font-size="13" lengthAdjust="spacing" textLength="152" x="903" y="2114.4272">Same flow as Thread 1</text><line style="stroke:#000000;stroke-width:1.0;stroke-dasharray:2.0,2.0;" x1="547" x2="2109" y1="2131.6567" y2="2131.6567"/><text fill="#000000" font-family="Verdana" font-size="11" font-weight="bold" lengthAdjust="spacing" textLength="115" x="552" y="2142.7158">[Process batch 4]</text><line style="stroke:#000000;stroke-width:1.0;" x1="677" x2="719" y1="2167.8247" y2="2167.8247"/><line style="stroke:#000000;stroke-width:1.0;" x1="719" x2="719" y1="2167.8247" y2="2180.8247"/><line style="stroke:#000000;stroke-width:1.0;" x1="678" x2="719" y1="2180.8247" y2="2180.8247"/><polygon fill="#000000" points="688,2176.8247,678,2180.8247,688,2184.8247,684,2180.8247" style="stroke:#000000;stroke-width:1.0;"/><text fill="#000000" font-family="Verdana" font-size="13" lengthAdjust="spacing" textLength="191" x="684" y="2163.0952">[Thread 4] ClassifyBatch(...)</text><path d="M897,2154.5254 L897,2179.5254 L1070,2179.5254 L1070,2164.5254 L1060,2154.5254 L897,2154.5254 " fill="#FFFFFF" style="stroke:#000000;stroke-width:1.0;"/><path d="M1060,2154.5254 L1060,2164.5254 L1070,2164.5254 L1060,2154.5254 " fill="#FFFFFF" style="stroke:#000000;stroke-width:1.0;"/><text fill="#000000" font-family="Verdana" font-size="13" lengthAdjust="spacing" textLength="152" x="903" y="2172.5952">Same flow as Thread 1</text><line style="stroke:#000000;stroke-width:1.0;stroke-dasharray:2.0,2.0;" x1="537" x2="2282" y1="2196.8247" y2="2196.8247"/><text fill="#000000" font-family="Verdana" font-size="11" font-weight="bold" lengthAdjust="spacing" textLength="102" x="542" y="2207.8838">[No Customers]</text><path d="M682,2216.1934 L682,2241.1934 L840,2241.1934 L840,2226.1934 L830,2216.1934 L682,2216.1934 " fill="#FFFFFF" style="stroke:#000000;stroke-width:1.0;"/><path d="M830,2216.1934 L830,2226.1934 L840,2226.1934 L830,2216.1934 " fill="#FFFFFF" style="stroke:#000000;stroke-width:1.0;"/><text fill="#000000" font-family="Verdana" font-size="13" lengthAdjust="spacing" textLength="137" x="688" y="2234.2632">Normal Pool is empty</text><polygon fill="#000000" points="478,2271.792,468,2275.792,478,2279.792,474,2275.792" style="stroke:#000000;stroke-width:1.0;"/><line style="stroke:#000000;stroke-width:1.0;stroke-dasharray:2.0,2.0;" x1="472" x2="671" y1="2275.792" y2="2275.792"/><text fill="#000000" font-family="Verdana" font-size="13" lengthAdjust="spacing" textLength="120" x="484" y="2271.0625">Task&lt;bool&gt; (true)</text><polygon fill="#000000" points="73,2317.3906,63,2321.3906,73,2325.3906,69,2321.3906" style="stroke:#000000;stroke-width:1.0;"/><line style="stroke:#000000;stroke-width:1.0;stroke-dasharray:2.0,2.0;" x1="67" x2="461" y1="2321.3906" y2="2321.3906"/><text fill="#000000" font-family="Verdana" font-size="13" lengthAdjust="spacing" textLength="87" x="79" y="2300.8618">HTTP 200 OK</text><text fill="#000000" font-family="Verdana" font-size="13" lengthAdjust="spacing" textLength="117" x="79" y="2316.6611">{ success: true }</text><!--SRC=[vLZRZjis47tNLqotG6kZkybcitqnag29l4sSxYqhfmWG1mjQujfiP58XgMJTea1-esz5VwL_aY_faBfHikHBc_QbVZ1q6PwvSERCK5_eELrGI6B2kAUPZYcS2xaWCJmEGv5o3NvCb68tB2IQ2Gu74D1tAUKXXI4ZCqaMdaT2BIJiFHTJ2C8vZTAOoWdldTngAZc9-tj0LFN6IuZKB6G9GVIzEZn2JBWlk9OYHb6xiBgjhypipCsimqmCK43bUnPIYr7Txe3X0ko-UaWqmLTKAGjGtNeHNaw9eh0Nl3Yro2PSKn5Dht-yEZeJ4Otj4hmPFd6apvOeZ-4P1zS6pQTSvo6gRd61LqOQ3XuvqHl0vKKmXhiaONV3PjJLNRxEcIdHuNp4i_qCsC_Kx3bxJpHrjyUhhetgAkW3EBcbOQffRmMeNo4vc-IHMCEAB3nu28SUuAyIRIeAQDl2X_3juU4Xz29wGz9OzptA8y_x6W9D4xWtWATKPvjvAKJifqgB1PNAgwifTRHBznnNIZ-SvLK6R8FWv8jNNJTnV4cDS2kSBnb6W976SfjLk26lJdmmgVIKSYf9dAslx_jr1OfYUiA_2qB2EOtEoEqeWekNuykNuyhaB5-vm4l9PdCDuYP_PhOiG8wW4LnA4M9sIZgmJm-CxP3on3nM2WLkf5WK76Gqvs8NCiAicYuHW0dqR0d3ay3VXz4G7WT-BdH5TIevXWL3C8hmfRgYc4biGIzulDotKcW9EZ4cindZi_4oeVlsGP3Ga97ub8L1EZMF2xsfJb8z0DTpaprW_FIiUt3Gs9KhgZ39C1CxDlg48zCkNxz1Yd5H8ze8vPgDFoC9QD4ERncajdPZycPB70FSz2jpk55gso7LIlgPuVEolDPNiZzF-Li82scpzwiqP23iNrxBHzOiFvKIwR2i1BHZ9kGIClgXKTykYOL8u7liN6Zi74AZBi-GzGGJqr1dAJO4WfdGcZuJpdYsGOKn_YN1Rfd5fr3JeSyDSOSlFHEO4RyHgb-2hCHyHKsRZi2GH6nOieGqgVKyk3XV2z3WiursFbU2jzZgPDgAjcs8BzURyrUkjU0-x9QbJm_hBgrY5ntK8SUXVsq0Mcdnsd4wLuiCoPBhGYNqZC8EbyjsNRojysQhI3UD5hy3m2J3MS4eBai7OgPqGyomRfWP3_LXe25OezJXFXIkudLD4f1ip-c7R5yizQA9KujuIfGUakMgVAreVBzyNzAhkrT5D3QmRMiw58HR0ZQORYNIhLdINfYxQUhAz3KSkxCUj_hDdDFaoFi3LC4ucCbo0mUVZivVME71XBSCBF0DDEgTKJNXV_xnwUFldpx-jeOMB0tcvhks7GzC1XCS8UF6oMEhRl4JcehLOJpRq2zmaC-A27VMYi6zBSZ_zNYE2Hx1lJU5TSidPh5bENkr3yhfwIt5xu1_EIJoRK3YXLDrMtMWWh0pmv6iNvtXmI1LED70MBnQn86MUDthRzre2c_QfjA2Hr19TwzPxqn7s_ZxMfswNAluiyo-XPb8xwLzQDQgLTaus6PGrrHS_3BQHb3u2XudIRnSnyhcE1W17iQnJk0c9ZFLJPtj4sgGrdbePVJScWZV2nPzBh8RhJbGDqUQ3hxRieGi_sMd13liX6An80UA8YkOzWNAriyErKE9x4fYLB6H5FvP4QrLVehDVwF-_xYSq62i9MDPSLAhdIntAQp_StuxCiwt4qi3CR99lRqTxT3UZfhjxSwTE_qMBiD0amL52X8Vp6UeeZbscN1_1nFk_pic7EzWml7dCA6Olwmjvw9n-gstXSOccf_p8GIO0hf8zDAh4RtzakKwq_ZeDoRgxOCfhdy4FIrJslVQqwRsySvKGF4LSG3FnkDBE3eyX8iV9lmNK6bUPGOEVdNnd8-1Vm40]--></g></svg>