<svg xmlns="http://www.w3.org/2000/svg" xmlns:xlink="http://www.w3.org/1999/xlink" contentStyleType="text/css" height="2147px" preserveAspectRatio="none" style="width:1104px;height:2147px;background:#FFFFFF;" version="1.1" viewBox="0 0 1104 2147" width="1104px" zoomAndPan="magnify"><defs/><g><text fill="#000000" font-family="Verdana" font-size="22" font-weight="bold" lengthAdjust="spacing" textLength="1071" x="15" y="37.1182">Stored Procedure: CTS_GeneralNormalClassification_NormalPool_Get - Detailed Flow</text><rect fill="#FFFFFF" height="2088.0332" style="stroke:#000000;stroke-width:1.0;" width="719" x="192" y="53.7373"/><line style="stroke:#000000;stroke-width:1.0;" x1="192" x2="911" y1="74.752" y2="74.752"/><text fill="#000000" font-family="Verdana" font-size="14" lengthAdjust="spacing" textLength="6" x="312.5" y="69.8125">"</text><text fill="#000000" font-family="Verdana" font-size="14" font-weight="bold" lengthAdjust="spacing" textLength="422" x="318.5" y="69.8125">SP: CTS_GeneralNormalClassification_NormalPool_Get</text><text fill="#000000" font-family="Verdana" font-size="14" lengthAdjust="spacing" textLength="50" x="740.5" y="69.8125">" as SP</text><rect fill="#FFFFFF" height="2031.0186" style="stroke:#000000;stroke-width:1.0;" width="699" x="202" y="90.752"/><text fill="#000000" font-family="Verdana" font-size="14" lengthAdjust="spacing" textLength="6" x="375.5" y="106.8271">"</text><text fill="#000000" font-family="Verdana" font-size="14" font-weight="bold" lengthAdjust="spacing" textLength="71" x="381.5" y="106.8271">Database</text><text fill="#000000" font-family="Verdana" font-size="14" lengthAdjust="spacing" textLength="275" x="452.5" y="106.8271">: bodb_VR2Model (SQL Server)" as DB</text><rect fill="#FFFFFF" height="57.0146" style="stroke:#000000;stroke-width:1.0;" width="279" x="214" y="127.7666"/><text fill="#000000" font-family="Verdana" font-size="14" lengthAdjust="spacing" textLength="6" x="224" y="143.8418">"</text><text fill="#000000" font-family="Verdana" font-size="14" font-weight="bold" lengthAdjust="spacing" textLength="63" x="230" y="143.8418">Timeout</text><text fill="#000000" font-family="Verdana" font-size="14" lengthAdjust="spacing" textLength="190" x="293" y="143.8418">: 300 seconds" as Timeout</text><ellipse cx="353.5" cy="229.7813" fill="#FFFFFF" rx="10" ry="10" style="stroke:#000000;stroke-width:1.0;"/><rect fill="#FFFFFF" height="130.2119" style="stroke:#000000;stroke-width:1.0;" width="507" x="248" y="274.7813"/><path d="M436,274.7813 L436,284.7959 L426,294.7959 L248,294.7959 " fill="none" style="stroke:#000000;stroke-width:1.0;"/><text fill="#000000" font-family="Verdana" font-size="14" lengthAdjust="spacing" textLength="178" x="251" y="289.8564">Input/Output Parameters</text><path d="M469,311.7959 L469,344.3945 L449,348.3945 L469,352.3945 L469,384.9932 A0,0 0 0 0 469,384.9932 L745,384.9932 A0,0 0 0 0 745,384.9932 L745,321.7959 L735,311.7959 L469,311.7959 A0,0 0 0 0 469,311.7959 " fill="#FFFFFF" style="stroke:#000000;stroke-width:1.0;"/><path d="M735,311.7959 L735,321.7959 L745,321.7959 L735,311.7959 " fill="#FFFFFF" style="stroke:#000000;stroke-width:1.0;"/><text fill="#000000" font-family="Verdana" font-size="13" lengthAdjust="spacing" textLength="218" x="475" y="329.8657">@ScannedMaxId BIGINT OUTPUT</text><text fill="#000000" font-family="Verdana" font-size="13" lengthAdjust="spacing" textLength="5" x="475" y="345.665">&#160;</text><text fill="#000000" font-family="Verdana" font-size="13" lengthAdjust="spacing" textLength="255" x="475" y="361.4644">Purpose: Track maximum ID processed</text><text fill="#000000" font-family="Verdana" font-size="13" lengthAdjust="spacing" textLength="148" x="475" y="377.2637">for cleanup operations</text><rect fill="#FFFFFF" height="34.584" rx="12.5" ry="12.5" style="stroke:#000000;stroke-width:1.0;" width="191" x="258" y="331.1025"/><text fill="#000000" font-family="Verdana" font-size="12" lengthAdjust="spacing" textLength="171" x="268" y="353.167">Declare OUTPUT parameter</text><rect fill="#FFFFFF" height="585.9941" style="stroke:#000000;stroke-width:1.0;" width="634.5" x="256.5" y="439.9932"/><path d="M595.5,439.9932 L595.5,450.0078 L585.5,460.0078 L256.5,460.0078 " fill="none" style="stroke:#000000;stroke-width:1.0;"/><text fill="#000000" font-family="Verdana" font-size="14" lengthAdjust="spacing" textLength="329" x="259.5" y="455.0684">Get Unprocessed Customers from Normal Pool</text><path d="M460,477.0078 L460,675.4993 L440,679.4993 L460,683.4993 L460,881.9907 A0,0 0 0 0 460,881.9907 L881,881.9907 A0,0 0 0 0 881,881.9907 L881,487.0078 L871,477.0078 L460,477.0078 A0,0 0 0 0 460,477.0078 " fill="#FFFFFF" style="stroke:#000000;stroke-width:1.0;"/><path d="M871,477.0078 L871,487.0078 L881,487.0078 L871,477.0078 " fill="#FFFFFF" style="stroke:#000000;stroke-width:1.0;"/><text fill="#000000" font-family="Verdana" font-size="13" lengthAdjust="spacing" textLength="50" x="466" y="495.0776">SELECT</text><text fill="#000000" font-family="Verdana" font-size="13" lengthAdjust="spacing" textLength="19" x="476" y="510.877">ID,</text><text fill="#000000" font-family="Verdana" font-size="13" lengthAdjust="spacing" textLength="48" x="476" y="526.6763">CustId,</text><text fill="#000000" font-family="Verdana" font-size="13" lengthAdjust="spacing" textLength="101" x="476" y="542.4756">IsRealtimeOnly,</text><text fill="#000000" font-family="Verdana" font-size="13" lengthAdjust="spacing" textLength="123" x="476" y="558.2749">ScanTaggingType,</text><text fill="#000000" font-family="Verdana" font-size="13" lengthAdjust="spacing" textLength="161" x="476" y="574.0742">ScanSpecialLicSubType,</text><text fill="#000000" font-family="Verdana" font-size="13" lengthAdjust="spacing" textLength="46" x="476" y="589.8735">Priority</text><text fill="#000000" font-family="Verdana" font-size="13" lengthAdjust="spacing" textLength="113" x="466" y="605.6729">INTO #tmpResult</text><text fill="#000000" font-family="Verdana" font-size="13" lengthAdjust="spacing" textLength="269" x="466" y="621.4722">FROM CustomerClassification_NormalPool</text><text fill="#000000" font-family="Verdana" font-size="13" lengthAdjust="spacing" textLength="157" x="466" y="637.2715">WHERE IsProcessed = 0</text><text fill="#000000" font-family="Verdana" font-size="13" lengthAdjust="spacing" textLength="65" x="466" y="653.0708">ORDER BY</text><text fill="#000000" font-family="Verdana" font-size="13" lengthAdjust="spacing" textLength="253" x="476" y="668.8701">Priority DESC,    -- Higher priority first</text><text fill="#000000" font-family="Verdana" font-size="13" lengthAdjust="spacing" textLength="229" x="476" y="684.6694">ID ASC;          -- Then FIFO order</text><text fill="#000000" font-family="Verdana" font-size="13" lengthAdjust="spacing" textLength="5" x="466" y="700.4688">&#160;</text><text fill="#000000" font-family="Verdana" font-size="13" font-weight="bold" lengthAdjust="spacing" textLength="111" x="466" y="716.2681">Table Structure</text><text fill="#000000" font-family="Verdana" font-size="13" lengthAdjust="spacing" textLength="6" x="577" y="716.2681">:</text><text fill="#000000" font-family="Verdana" font-size="13" lengthAdjust="spacing" textLength="240" x="466" y="732.0674">- ID (PK, IDENTITY): Incremental ID</text><text fill="#000000" font-family="Verdana" font-size="13" lengthAdjust="spacing" textLength="180" x="466" y="747.8667">- CustId (FK): Customer ID</text><text fill="#000000" font-family="Verdana" font-size="13" lengthAdjust="spacing" textLength="230" x="466" y="763.666">- Priority (INT): Processing priority</text><text fill="#000000" font-family="Verdana" font-size="13" lengthAdjust="spacing" textLength="334" x="466" y="779.4653">- IsRealtimeOnly (BIT): Only realtime classification</text><text fill="#000000" font-family="Verdana" font-size="13" lengthAdjust="spacing" textLength="317" x="466" y="795.2646">- ScanTaggingType (INT): Special tagging logic</text><text fill="#000000" font-family="Verdana" font-size="13" lengthAdjust="spacing" textLength="400" x="466" y="811.064">- ScanSpecialLicSubType (INT): 0=No LicSub, 1=Has LicSub</text><text fill="#000000" font-family="Verdana" font-size="13" lengthAdjust="spacing" textLength="303" x="466" y="826.8633">- IsProcessed (BIT): 0=Pending, 1=Processed</text><text fill="#000000" font-family="Verdana" font-size="13" lengthAdjust="spacing" textLength="262" x="466" y="842.6626">- CreatedDate (DATETIME): Timestamp</text><text fill="#000000" font-family="Verdana" font-size="13" lengthAdjust="spacing" textLength="238" x="466" y="858.4619">- FunctionId (INT): Source function</text><text fill="#000000" font-family="Verdana" font-size="13" lengthAdjust="spacing" textLength="242" x="466" y="874.2612">- GroupId (INT): Classification group</text><rect fill="#FFFFFF" height="34.584" rx="12.5" ry="12.5" style="stroke:#000000;stroke-width:1.0;" width="173" x="267" y="662.2073"/><text fill="#000000" font-family="Verdana" font-size="12" lengthAdjust="spacing" textLength="153" x="277" y="684.2717">Query Normal Pool table</text><path d="M460.5,916.9907 L460.5,957.489 L440.5,961.489 L460.5,965.489 L460.5,1005.9873 A0,0 0 0 0 460.5,1005.9873 L749.5,1005.9873 A0,0 0 0 0 749.5,1005.9873 L749.5,926.9907 L739.5,916.9907 L460.5,916.9907 A0,0 0 0 0 460.5,916.9907 " fill="#FFFFFF" style="stroke:#000000;stroke-width:1.0;"/><path d="M739.5,916.9907 L739.5,926.9907 L749.5,926.9907 L739.5,916.9907 " fill="#FFFFFF" style="stroke:#000000;stroke-width:1.0;"/><text fill="#000000" font-family="Verdana" font-size="13" lengthAdjust="spacing" textLength="238" x="466.5" y="935.0605">SELECT @ScannedMaxId = MAX(ID)</text><text fill="#000000" font-family="Verdana" font-size="13" lengthAdjust="spacing" textLength="123" x="466.5" y="950.8599">FROM #tmpResult;</text><text fill="#000000" font-family="Verdana" font-size="13" lengthAdjust="spacing" textLength="5" x="466.5" y="966.6592">&#160;</text><text fill="#000000" font-family="Verdana" font-size="13" lengthAdjust="spacing" textLength="152" x="466.5" y="982.4585">Used later for cleanup:</text><text fill="#000000" font-family="Verdana" font-size="13" lengthAdjust="spacing" textLength="268" x="466.5" y="998.2578">- DELETE WHERE ID &lt;= @ScannedMaxId</text><rect fill="#FFFFFF" height="34.584" rx="12.5" ry="12.5" style="stroke:#000000;stroke-width:1.0;" width="174" x="266.5" y="944.197"/><text fill="#000000" font-family="Verdana" font-size="12" lengthAdjust="spacing" textLength="154" x="276.5" y="966.2615">Calculate ScannedMaxId</text><rect fill="#FFFFFF" height="341.9897" style="stroke:#000000;stroke-width:1.0;" width="591.5" x="212" y="1060.9873"/><path d="M348,1060.9873 L348,1071.002 L338,1081.002 L212,1081.002 " fill="none" style="stroke:#000000;stroke-width:1.0;"/><text fill="#000000" font-family="Verdana" font-size="14" lengthAdjust="spacing" textLength="126" x="215" y="1076.0625">Return Result Set</text><path d="M440.5,1098.002 L440.5,1201.6975 L420.5,1205.6975 L440.5,1209.6975 L440.5,1313.3931 A0,0 0 0 0 440.5,1313.3931 L793.5,1313.3931 A0,0 0 0 0 793.5,1313.3931 L793.5,1108.002 L783.5,1098.002 L440.5,1098.002 A0,0 0 0 0 440.5,1098.002 " fill="#FFFFFF" style="stroke:#000000;stroke-width:1.0;"/><path d="M783.5,1098.002 L783.5,1108.002 L793.5,1108.002 L783.5,1098.002 " fill="#FFFFFF" style="stroke:#000000;stroke-width:1.0;"/><text fill="#000000" font-family="Verdana" font-size="13" lengthAdjust="spacing" textLength="50" x="446.5" y="1116.0718">SELECT</text><text fill="#000000" font-family="Verdana" font-size="13" lengthAdjust="spacing" textLength="48" x="456.5" y="1131.8711">CustId,</text><text fill="#000000" font-family="Verdana" font-size="13" lengthAdjust="spacing" textLength="101" x="456.5" y="1147.6704">IsRealtimeOnly,</text><text fill="#000000" font-family="Verdana" font-size="13" lengthAdjust="spacing" textLength="123" x="456.5" y="1163.4697">ScanTaggingType,</text><text fill="#000000" font-family="Verdana" font-size="13" lengthAdjust="spacing" textLength="156" x="456.5" y="1179.269">ScanSpecialLicSubType</text><text fill="#000000" font-family="Verdana" font-size="13" lengthAdjust="spacing" textLength="117" x="446.5" y="1195.0684">FROM #tmpResult</text><text fill="#000000" font-family="Verdana" font-size="13" lengthAdjust="spacing" textLength="218" x="446.5" y="1210.8677">ORDER BY Priority DESC, ID ASC;</text><text fill="#000000" font-family="Verdana" font-size="13" lengthAdjust="spacing" textLength="5" x="446.5" y="1226.667">&#160;</text><text fill="#000000" font-family="Verdana" font-size="13" font-weight="bold" lengthAdjust="spacing" textLength="128" x="446.5" y="1242.4663">Why these fields?</text><text fill="#000000" font-family="Verdana" font-size="13" lengthAdjust="spacing" textLength="190" x="446.5" y="1258.2656">- CustId: Customer identifier</text><text fill="#000000" font-family="Verdana" font-size="13" lengthAdjust="spacing" textLength="261" x="446.5" y="1274.0649">- IsRealtimeOnly: Skip daily logic if true</text><text fill="#000000" font-family="Verdana" font-size="13" lengthAdjust="spacing" textLength="332" x="446.5" y="1289.8643">- ScanTaggingType: Special tagging requirements</text><text fill="#000000" font-family="Verdana" font-size="13" lengthAdjust="spacing" textLength="310" x="446.5" y="1305.6636">- ScanSpecialLicSubType: LicSub handling flag</text><rect fill="#FFFFFF" height="34.584" rx="12.5" ry="12.5" style="stroke:#000000;stroke-width:1.0;" width="134" x="286.5" y="1188.4055"/><text fill="#000000" font-family="Verdana" font-size="12" lengthAdjust="spacing" textLength="114" x="296.5" y="1210.47">Prepare result set</text><rect fill="#FFFFFF" height="34.584" rx="12.5" ry="12.5" style="stroke:#000000;stroke-width:1.0;" width="263" x="222" y="1348.3931"/><text fill="#000000" font-family="Verdana" font-size="12" lengthAdjust="spacing" textLength="243" x="232" y="1370.4575">Return ResultSet + OUTPUT parameter</text><rect fill="#FFFFFF" height="606.7935" style="stroke:#000000;stroke-width:1.0;" width="531" x="266" y="1437.9771"/><path d="M332,1437.9771 L332,1447.9917 L322,1457.9917 L266,1457.9917 " fill="none" style="stroke:#000000;stroke-width:1.0;"/><text fill="#000000" font-family="Verdana" font-size="14" lengthAdjust="spacing" textLength="56" x="269" y="1453.0522">Cleanup</text><path d="M515,1484.9917 L515,1510.791 L703,1510.791 L703,1494.9917 L693,1484.9917 L515,1484.9917 " fill="#FFFFFF" style="stroke:#000000;stroke-width:1.0;"/><path d="M693,1484.9917 L693,1494.9917 L703,1494.9917 L693,1484.9917 " fill="#FFFFFF" style="stroke:#000000;stroke-width:1.0;"/><text fill="#000000" font-family="Verdana" font-size="13" lengthAdjust="spacing" textLength="167" x="521" y="1503.0615">DROP TABLE #tmpResult;</text><path d="M441,1530.791 L441,2014.7705 L777,2014.7705 L777,1540.791 L767,1530.791 L441,1530.791 " fill="#FFFFFF" style="stroke:#000000;stroke-width:1.0;"/><path d="M767,1530.791 L767,1540.791 L777,1540.791 L767,1530.791 " fill="#FFFFFF" style="stroke:#000000;stroke-width:1.0;"/><text fill="#000000" font-family="Verdana" font-size="13" font-weight="bold" lengthAdjust="spacing" textLength="69" x="447" y="1548.8608">Key Logic</text><text fill="#000000" font-family="Verdana" font-size="13" lengthAdjust="spacing" textLength="6" x="516" y="1548.8608">:</text><text fill="#000000" font-family="Verdana" font-size="13" lengthAdjust="spacing" textLength="315" x="447" y="1564.6602">1. Get unprocessed customers (IsProcessed=0)</text><text fill="#000000" font-family="Verdana" font-size="13" lengthAdjust="spacing" textLength="305" x="447" y="1580.4595">2. Order by Priority DESC (higher priority first)</text><text fill="#000000" font-family="Verdana" font-size="13" lengthAdjust="spacing" textLength="305" x="447" y="1596.2588">3. Then order by ID ASC (FIFO within priority)</text><text fill="#000000" font-family="Verdana" font-size="13" lengthAdjust="spacing" textLength="315" x="447" y="1612.0581">4. Return customer info with classification flags</text><text fill="#000000" font-family="Verdana" font-size="13" lengthAdjust="spacing" textLength="244" x="447" y="1627.8574">5. Output ScannedMaxId for cleanup</text><text fill="#000000" font-family="Verdana" font-size="13" lengthAdjust="spacing" textLength="5" x="447" y="1643.6567">&#160;</text><text fill="#000000" font-family="Verdana" font-size="13" font-weight="bold" lengthAdjust="spacing" textLength="112" x="447" y="1659.4561">Priority System</text><text fill="#000000" font-family="Verdana" font-size="13" lengthAdjust="spacing" textLength="6" x="559" y="1659.4561">:</text><text fill="#000000" font-family="Verdana" font-size="13" lengthAdjust="spacing" textLength="221" x="447" y="1675.2554">- Higher priority = processed first</text><text fill="#000000" font-family="Verdana" font-size="13" lengthAdjust="spacing" textLength="126" x="447" y="1691.0547">- Typical priorities:</text><text fill="#000000" font-family="Verdana" font-size="13" lengthAdjust="spacing" textLength="228" x="457" y="1706.854">* Realtime customers: Priority 200</text><text fill="#000000" font-family="Verdana" font-size="13" lengthAdjust="spacing" textLength="204" x="457" y="1722.6533">* Daily customers: Priority 100</text><text fill="#000000" font-family="Verdana" font-size="13" lengthAdjust="spacing" textLength="136" x="457" y="1738.4526">* Others: Priority 50</text><text fill="#000000" font-family="Verdana" font-size="13" lengthAdjust="spacing" textLength="5" x="447" y="1754.252">&#160;</text><text fill="#000000" font-family="Verdana" font-size="13" font-weight="bold" lengthAdjust="spacing" textLength="120" x="447" y="1770.0513">Tables Accessed</text><text fill="#000000" font-family="Verdana" font-size="13" lengthAdjust="spacing" textLength="6" x="567" y="1770.0513">:</text><text fill="#000000" font-family="Verdana" font-size="13" lengthAdjust="spacing" textLength="290" x="447" y="1785.8506">- CustomerClassification_NormalPool (READ)</text><text fill="#000000" font-family="Verdana" font-size="13" lengthAdjust="spacing" textLength="202" x="457" y="1801.6499">* Main queue for classification</text><text fill="#000000" font-family="Verdana" font-size="13" lengthAdjust="spacing" textLength="216" x="457" y="1817.4492">* Fed by Realtime and Daily jobs</text><text fill="#000000" font-family="Verdana" font-size="13" lengthAdjust="spacing" textLength="156" x="457" y="1833.2485">* Processed by this job</text><text fill="#000000" font-family="Verdana" font-size="13" lengthAdjust="spacing" textLength="5" x="447" y="1849.0479">&#160;</text><text fill="#000000" font-family="Verdana" font-size="13" font-weight="bold" lengthAdjust="spacing" textLength="93" x="447" y="1864.8472">Performance</text><text fill="#000000" font-family="Verdana" font-size="13" lengthAdjust="spacing" textLength="6" x="540" y="1864.8472">:</text><text fill="#000000" font-family="Verdana" font-size="13" lengthAdjust="spacing" textLength="237" x="447" y="1880.6465">- INDEX on IsProcessed, Priority, ID</text><text fill="#000000" font-family="Verdana" font-size="13" lengthAdjust="spacing" textLength="182" x="447" y="1896.4458">- Fast filtering and ordering</text><text fill="#000000" font-family="Verdana" font-size="13" lengthAdjust="spacing" textLength="265" x="447" y="1912.2451">- No record limit (processes all pending)</text><text fill="#000000" font-family="Verdana" font-size="13" lengthAdjust="spacing" textLength="177" x="447" y="1928.0444">- Temp table for result set</text><text fill="#000000" font-family="Verdana" font-size="13" lengthAdjust="spacing" textLength="5" x="447" y="1943.8438">&#160;</text><text fill="#000000" font-family="Verdana" font-size="13" font-weight="bold" lengthAdjust="spacing" textLength="125" x="447" y="1959.6431">Source Functions</text><text fill="#000000" font-family="Verdana" font-size="13" lengthAdjust="spacing" textLength="6" x="572" y="1959.6431">:</text><text fill="#000000" font-family="Verdana" font-size="13" lengthAdjust="spacing" textLength="175" x="447" y="1975.4424">- FunctionId = 1: Realtime</text><text fill="#000000" font-family="Verdana" font-size="13" lengthAdjust="spacing" textLength="151" x="447" y="1991.2417">- FunctionId = 2: Daily</text><text fill="#000000" font-family="Verdana" font-size="13" lengthAdjust="spacing" textLength="164" x="447" y="2007.041">- FunctionId = 3: Others</text><rect fill="#FFFFFF" height="34.584" rx="12.5" ry="12.5" style="stroke:#000000;stroke-width:1.0;" width="155" x="276" y="1732.5891"/><text fill="#000000" font-family="Verdana" font-size="12" lengthAdjust="spacing" textLength="135" x="286" y="1754.6536">Drop temporary table</text><ellipse cx="353.5" cy="2090.7705" fill="none" rx="11" ry="11" style="stroke:#000000;stroke-width:1.0;"/><ellipse cx="353.5" cy="2090.7705" fill="#FFFFFF" rx="6" ry="6" style="stroke:#000000;stroke-width:1.0;"/><line style="stroke:#000000;stroke-width:1.0;" x1="353.5" x2="353.5" y1="164.7813" y2="219.7813"/><polygon fill="#000000" points="349.5,209.7813,353.5,219.7813,357.5,209.7813,353.5,213.7813" style="stroke:#000000;stroke-width:1.0;"/><line style="stroke:#000000;stroke-width:1.0;" x1="353.5" x2="353.5" y1="239.7813" y2="331.1025"/><polygon fill="#000000" points="349.5,321.1025,353.5,331.1025,357.5,321.1025,353.5,325.1025" style="stroke:#000000;stroke-width:1.0;"/><line style="stroke:#000000;stroke-width:1.0;" x1="353.5" x2="353.5" y1="696.7913" y2="944.197"/><polygon fill="#000000" points="349.5,934.197,353.5,944.197,357.5,934.197,353.5,938.197" style="stroke:#000000;stroke-width:1.0;"/><line style="stroke:#000000;stroke-width:1.0;" x1="353.5" x2="353.5" y1="365.6865" y2="662.2073"/><polygon fill="#000000" points="349.5,652.2073,353.5,662.2073,357.5,652.2073,353.5,656.2073" style="stroke:#000000;stroke-width:1.0;"/><line style="stroke:#000000;stroke-width:1.0;" x1="353.5" x2="353.5" y1="1222.9895" y2="1348.3931"/><polygon fill="#000000" points="349.5,1338.3931,353.5,1348.3931,357.5,1338.3931,353.5,1342.3931" style="stroke:#000000;stroke-width:1.0;"/><line style="stroke:#000000;stroke-width:1.0;" x1="353.5" x2="353.5" y1="978.781" y2="1188.4055"/><polygon fill="#000000" points="349.5,1178.4055,353.5,1188.4055,357.5,1178.4055,353.5,1182.4055" style="stroke:#000000;stroke-width:1.0;"/><line style="stroke:#000000;stroke-width:1.0;" x1="353.5" x2="353.5" y1="1382.9771" y2="1732.5891"/><polygon fill="#000000" points="349.5,1722.5891,353.5,1732.5891,357.5,1722.5891,353.5,1726.5891" style="stroke:#000000;stroke-width:1.0;"/><line style="stroke:#000000;stroke-width:1.0;" x1="353.5" x2="353.5" y1="1767.1731" y2="2079.7705"/><polygon fill="#000000" points="349.5,2069.7705,353.5,2079.7705,357.5,2069.7705,353.5,2073.7705" style="stroke:#000000;stroke-width:1.0;"/><!--SRC=[jLPDSzis4BthLspTYypQhcmt5xcQrXOfc-CFCIBT9ASCH48I6f1W0B29fjF_tWK9GgHaf-sXEaWYTvVOVVlUBh_J6vfJA3bXnK0ppId4MaYQGIH5IhDAqZ5Ca_ZZBIse9Fn9o9pmAITAiHLBYMQY-DZSZ8JWwARX57og2UFua1aNNmQ3bCWCZZmlZlxhippl28Y2E88_1m2IffeKQymH7-OJJPP4KSyRmr9aou-_BIuUHKOv3EEt3n1J-GULntMuVxCVdB2SYagRsClH21HDHP6fsjcQ1dyD1aeJgGU34h-PIGwEmgAiz8_pIkCFH4IId6egCT2aD_PfoecaC7zEekS4ojP-XSP2Q0gIhJSQBypdrpWbHK6pH_8rpE0cl0sV4XjfFUnFLCbIA6n38adw2NBobULL3g4FfMcHKZIpdYiX8UMK55K9eaI8JT8AZRJ8wWHCKPrgJBEU2_SKc5PAYnphWPKKEJIj0DCBM-3RYifjzpvW3pXziRuuU0YcILi4OBudxhyvACnsrw5QKC8r8Zyl-7Pttq2KaFMQ5UjaMzA-8IvfoWX_O6bSBVlcI38XcTxQ6uZi7BxNURcWgk9jWhF5_D6L_2eBhVExks0HO9wH0si28skRB_nW0JSVuE1yy8DuUcBkd9x27O939JRDsbPCAjs11wxZwHMu3qOa6rh0B9pDGSYCoZujaCG6UvIhh5ADEaKoMzEfUTemkZ_1t-0f2PCFnsC8YrIYr0kDhGjzvzcq0eQpU_HfqUWwk5g622FwM0Im9QwKtR6zFiBm9ZGHzNzf3KZGBj8kTA_LxMcsoSYpsWHSh5dQ2pgWGHiwcZm9Q6wVmFda3hNTN7NItRNJvZgQH2WMFCc4H7lwGhIm34qpd3ruZ7-T14du662O6HeuBVBIUSwg8ZK56cnjAQAIAOMLDJZFMocgSkVMPoAiZRKhuPe0uodXQSLD6jqnyYqXzkVD11wltmz3_xWhXfr4hlfSUpO8cTDaTyRiwERZ4KdGYiI7doVzuruVGGkAr2sWEHM7jhQJ9fAqDADKDWP5zRyQCl_FO7aPettrxudU2dfVjEysMy2Tgv08ZF9C_U9vUrhio91bg5VaWjF-liIGLPzO2HbksssZ3M0hm8b0NnFMeQGa_LonPZIeRojhR0K46r9atCIkE5aVahFNLEmf_F32IkppODfGgbsaKfIWQLuAIN3XlBva_CKyWkJwvY7O8s-NRhqepxkdMtWmK3K3y_mCp1wiEdimTNjms1aHav4HoyKPpCqmXkMstt4ORbuQy2RcygmPvQ8DRBY1GzVCzYzCRrZXmap0JsTWCKmT5OgLg5tt1cZT0jEtDvXOyrxI4tf7hqrtFC-b7MyLWjp0SBYV9hlt2xUhS2TjIpoPjswCgcOCUB1m4xw5Rxn3w68qicv-pTMNVCwTpnmLqZEz6RN9rqjFmNNQPDOc_uzx78QBuDgEEmyUyNKNFbUqeXQWWvtamGphnbwvif3pDldVnL9Pfzq2MHfTCsMC3cWgLoQ18gLjdk6J7xm7R5k7M2UkpfDcyUBs84eZw1oLOcHcZgx9WnUr7JSRli_YBU0iPng6RQiK48xDQNROSTCnr54ZeRhMtKHjqxIBgTrOgisriy8cS3vsI1mQByODCeUMox5jvi0f4b-hHJdu6m00]--></g></svg>