<svg xmlns="http://www.w3.org/2000/svg" xmlns:xlink="http://www.w3.org/1999/xlink" contentStyleType="text/css" height="2426px" preserveAspectRatio="none" style="width:1929px;height:2426px;background:#FFFFFF;" version="1.1" viewBox="0 0 1929 2426" width="1929px" zoomAndPan="magnify"><defs/><g><text fill="#000000" font-family="Verdana" font-size="22" font-weight="bold" lengthAdjust="spacing" textLength="584" x="671" y="37.1182">Normal Account Classification - Database Flow</text><ellipse cx="973.5" cy="62.7373" fill="#FFFFFF" rx="10" ry="10" style="stroke:#000000;stroke-width:1.0;"/><rect fill="#FFFFFF" height="277.4058" style="stroke:#000000;stroke-width:1.0;" width="723" x="769.5" y="82.7373"/><path d="M1032.5,82.7373 L1032.5,92.752 L1022.5,102.752 L769.5,102.752 " fill="none" style="stroke:#000000;stroke-width:1.0;"/><text fill="#000000" font-family="Verdana" font-size="14" lengthAdjust="spacing" textLength="253" x="772.5" y="97.8125">Step 1: Get Normal Pool Customers</text><path d="M1187.5,112.752 L1187.5,153.2502 L1167.5,157.2502 L1187.5,161.2502 L1187.5,201.7485 A0,0 0 0 0 1187.5,201.7485 L1482.5,201.7485 A0,0 0 0 0 1482.5,201.7485 L1482.5,122.752 L1472.5,112.752 L1187.5,112.752 A0,0 0 0 0 1187.5,112.752 " fill="#FFFFFF" style="stroke:#000000;stroke-width:1.0;"/><path d="M1472.5,112.752 L1472.5,122.752 L1482.5,122.752 L1472.5,112.752 " fill="#FFFFFF" style="stroke:#000000;stroke-width:1.0;"/><text fill="#000000" font-family="Verdana" font-size="13" font-weight="bold" lengthAdjust="spacing" textLength="69" x="1193.5" y="130.8218">Database</text><text fill="#000000" font-family="Verdana" font-size="13" lengthAdjust="spacing" textLength="205" x="1262.5" y="130.8218">: bodb_VR2Model (SQL Server)</text><text fill="#000000" font-family="Verdana" font-size="13" font-weight="bold" lengthAdjust="spacing" textLength="59" x="1193.5" y="146.6211">Timeout</text><text fill="#000000" font-family="Verdana" font-size="13" lengthAdjust="spacing" textLength="94" x="1252.5" y="146.6211">: 300 seconds</text><text fill="#000000" font-family="Verdana" font-size="13" lengthAdjust="spacing" textLength="5" x="1193.5" y="162.4204">&#160;</text><text fill="#000000" font-family="Verdana" font-size="13" font-weight="bold" lengthAdjust="spacing" textLength="139" x="1193.5" y="178.2197">Output Parameters</text><text fill="#000000" font-family="Verdana" font-size="13" lengthAdjust="spacing" textLength="6" x="1332.5" y="178.2197">:</text><text fill="#000000" font-family="Verdana" font-size="13" lengthAdjust="spacing" textLength="247" x="1193.5" y="194.019">- @ScannedMaxId (BIGINT, OUTPUT)</text><rect fill="#FFFFFF" height="34.584" rx="12.5" ry="12.5" style="stroke:#000000;stroke-width:1.0;" width="388" x="779.5" y="139.9583"/><text fill="#000000" font-family="Verdana" font-size="12" lengthAdjust="spacing" textLength="368" x="789.5" y="162.0227">Call SP: CTS_GeneralNormalClassification_NormalPool_Get</text><path d="M1111,211.7485 L1111,275.9458 L1091,279.9458 L1111,283.9458 L1111,348.1431 A0,0 0 0 0 1111,348.1431 L1348,348.1431 A0,0 0 0 0 1348,348.1431 L1348,221.7485 L1338,211.7485 L1111,211.7485 A0,0 0 0 0 1111,211.7485 " fill="#FFFFFF" style="stroke:#000000;stroke-width:1.0;"/><path d="M1338,211.7485 L1338,221.7485 L1348,221.7485 L1338,211.7485 " fill="#FFFFFF" style="stroke:#000000;stroke-width:1.0;"/><text fill="#000000" font-family="Verdana" font-size="13" font-weight="bold" lengthAdjust="spacing" textLength="69" x="1117" y="229.8184">ResultSet</text><text fill="#000000" font-family="Verdana" font-size="13" lengthAdjust="spacing" textLength="6" x="1186" y="229.8184">:</text><text fill="#000000" font-family="Verdana" font-size="13" lengthAdjust="spacing" textLength="117" x="1117" y="245.6177">- CustId (BIGINT)</text><text fill="#000000" font-family="Verdana" font-size="13" lengthAdjust="spacing" textLength="147" x="1117" y="261.417">- IsRealtimeOnly (BIT)</text><text fill="#000000" font-family="Verdana" font-size="13" lengthAdjust="spacing" textLength="170" x="1117" y="277.2163">- ScanTaggingType (INT)</text><text fill="#000000" font-family="Verdana" font-size="13" lengthAdjust="spacing" textLength="208" x="1117" y="293.0156">- ScanSpecialLicSubType (INT)</text><text fill="#000000" font-family="Verdana" font-size="13" lengthAdjust="spacing" textLength="5" x="1117" y="308.8149">&#160;</text><text fill="#000000" font-family="Verdana" font-size="13" font-weight="bold" lengthAdjust="spacing" textLength="63" x="1117" y="324.6143">Ordering</text><text fill="#000000" font-family="Verdana" font-size="13" lengthAdjust="spacing" textLength="153" x="1180" y="324.6143">: Priority DESC, ID ASC</text><text fill="#000000" font-family="Verdana" font-size="13" font-weight="bold" lengthAdjust="spacing" textLength="38" x="1117" y="340.4136">Filter</text><text fill="#000000" font-family="Verdana" font-size="13" lengthAdjust="spacing" textLength="117" x="1155" y="340.4136">: IsProcessed = 0</text><rect fill="#FFFFFF" height="34.584" rx="12.5" ry="12.5" style="stroke:#000000;stroke-width:1.0;" width="235" x="856" y="262.6538"/><text fill="#000000" font-family="Verdana" font-size="12" lengthAdjust="spacing" textLength="215" x="866" y="284.7183">Return ResultSet + ScannedMaxId</text><rect fill="#FFFFFF" height="683.939" style="stroke:#000000;stroke-width:1.0;" width="852" x="451.75" y="370.1431"/><path d="M831.75,370.1431 L831.75,380.1577 L821.75,390.1577 L451.75,390.1577 " fill="none" style="stroke:#000000;stroke-width:1.0;"/><text fill="#000000" font-family="Verdana" font-size="14" lengthAdjust="spacing" textLength="370" x="454.75" y="385.2183">Step 2: Get Current Customer Categories (Batched)</text><polygon fill="#FFFFFF" points="927,407.1577,1020,407.1577,1032,419.1577,1020,431.1577,927,431.1577,915,419.1577,927,407.1577" style="stroke:#000000;stroke-width:1.0;"/><text fill="#000000" font-family="Verdana" font-size="11" lengthAdjust="spacing" textLength="93" x="927" y="423.5325">Has Customers?</text><text fill="#000000" font-family="Verdana" font-size="11" lengthAdjust="spacing" textLength="20" x="895" y="416.8481">yes</text><text fill="#000000" font-family="Verdana" font-size="11" lengthAdjust="spacing" textLength="14" x="1032" y="416.8481">no</text><rect fill="#FFFFFF" height="34.584" rx="12.5" ry="12.5" style="stroke:#000000;stroke-width:1.0;" width="336" x="518.25" y="441.1577"/><text fill="#000000" font-family="Verdana" font-size="12" lengthAdjust="spacing" textLength="316" x="528.25" y="463.2222">Chunk customers into batches (batchInternalSize)</text><rect fill="#FFFFFF" height="34.584" rx="12.5" ry="12.5" style="stroke:#000000;stroke-width:1.0;" width="272" x="550.25" y="550.3257"/><text fill="#000000" font-family="Verdana" font-size="12" lengthAdjust="spacing" textLength="252" x="560.25" y="572.3901">Extract CustID + ScanSpecialLicSubType</text><path d="M769.25,594.9097 L769.25,643.3076 L749.25,647.3076 L769.25,651.3076 L769.25,699.7056 A0,0 0 0 0 769.25,699.7056 L1105.25,699.7056 A0,0 0 0 0 1105.25,699.7056 L1105.25,604.9097 L1095.25,594.9097 L769.25,594.9097 A0,0 0 0 0 769.25,594.9097 " fill="#FFFFFF" style="stroke:#000000;stroke-width:1.0;"/><path d="M1095.25,594.9097 L1095.25,604.9097 L1105.25,604.9097 L1095.25,594.9097 " fill="#FFFFFF" style="stroke:#000000;stroke-width:1.0;"/><text fill="#000000" font-family="Verdana" font-size="13" lengthAdjust="spacing" textLength="91" x="775.25" y="612.9795">JSON Format:</text><text fill="#000000" font-family="Verdana" font-size="13" lengthAdjust="spacing" textLength="6" x="775.25" y="628.7788">[</text><text fill="#000000" font-family="Verdana" font-size="13" lengthAdjust="spacing" textLength="305" x="785.25" y="644.5781">{"CustID": 123, "ScanSpecialLicSubType": 0},</text><text fill="#000000" font-family="Verdana" font-size="13" lengthAdjust="spacing" textLength="305" x="785.25" y="660.3774">{"CustID": 456, "ScanSpecialLicSubType": 1},</text><text fill="#000000" font-family="Verdana" font-size="13" lengthAdjust="spacing" textLength="15" x="785.25" y="676.1768">...</text><text fill="#000000" font-family="Verdana" font-size="13" lengthAdjust="spacing" textLength="6" x="775.25" y="691.9761">]</text><rect fill="#FFFFFF" height="34.584" rx="12.5" ry="12.5" style="stroke:#000000;stroke-width:1.0;" width="126" x="623.25" y="630.0156"/><text fill="#000000" font-family="Verdana" font-size="12" lengthAdjust="spacing" textLength="106" x="633.25" y="652.0801">Serialize to JSON</text><path d="M920.75,709.7056 L920.75,750.2039 L900.75,754.2039 L920.75,758.2039 L920.75,798.7021 A0,0 0 0 0 920.75,798.7021 L1193.75,798.7021 A0,0 0 0 0 1193.75,798.7021 L1193.75,719.7056 L1183.75,709.7056 L920.75,709.7056 A0,0 0 0 0 920.75,709.7056 " fill="#FFFFFF" style="stroke:#000000;stroke-width:1.0;"/><path d="M1183.75,709.7056 L1183.75,719.7056 L1193.75,719.7056 L1183.75,709.7056 " fill="#FFFFFF" style="stroke:#000000;stroke-width:1.0;"/><text fill="#000000" font-family="Verdana" font-size="13" font-weight="bold" lengthAdjust="spacing" textLength="69" x="926.75" y="727.7754">Database</text><text fill="#000000" font-family="Verdana" font-size="13" lengthAdjust="spacing" textLength="183" x="995.75" y="727.7754">: CTS_DataCenter (MySQL)</text><text fill="#000000" font-family="Verdana" font-size="13" font-weight="bold" lengthAdjust="spacing" textLength="59" x="926.75" y="743.5747">Timeout</text><text fill="#000000" font-family="Verdana" font-size="13" lengthAdjust="spacing" textLength="94" x="985.75" y="743.5747">: 300 seconds</text><text fill="#000000" font-family="Verdana" font-size="13" lengthAdjust="spacing" textLength="5" x="926.75" y="759.374">&#160;</text><text fill="#000000" font-family="Verdana" font-size="13" font-weight="bold" lengthAdjust="spacing" textLength="85" x="926.75" y="775.1733">Parameters</text><text fill="#000000" font-family="Verdana" font-size="13" lengthAdjust="spacing" textLength="6" x="1011.75" y="775.1733">:</text><text fill="#000000" font-family="Verdana" font-size="13" lengthAdjust="spacing" textLength="151" x="926.75" y="790.9727">- @ip_CustInfo (JSON)</text><rect fill="#FFFFFF" height="34.584" rx="12.5" ry="12.5" style="stroke:#000000;stroke-width:1.0;" width="429" x="471.75" y="736.9119"/><text fill="#000000" font-family="Verdana" font-size="12" lengthAdjust="spacing" textLength="409" x="481.75" y="758.9763">Call SP: CTS_DC_CustClassification_Normal_GetCurrentCategory</text><path d="M769.25,808.7021 L769.25,857.1001 L749.25,861.1001 L769.25,865.1001 L769.25,913.498 A0,0 0 0 0 769.25,913.498 L1042.25,913.498 A0,0 0 0 0 1042.25,913.498 L1042.25,818.7021 L1032.25,808.7021 L769.25,808.7021 A0,0 0 0 0 769.25,808.7021 " fill="#FFFFFF" style="stroke:#000000;stroke-width:1.0;"/><path d="M1032.25,808.7021 L1032.25,818.7021 L1042.25,818.7021 L1032.25,808.7021 " fill="#FFFFFF" style="stroke:#000000;stroke-width:1.0;"/><text fill="#000000" font-family="Verdana" font-size="13" font-weight="bold" lengthAdjust="spacing" textLength="69" x="775.25" y="826.772">ResultSet</text><text fill="#000000" font-family="Verdana" font-size="13" lengthAdjust="spacing" textLength="6" x="844.25" y="826.772">:</text><text fill="#000000" font-family="Verdana" font-size="13" lengthAdjust="spacing" textLength="118" x="775.25" y="842.5713">- CustID (BIGINT)</text><text fill="#000000" font-family="Verdana" font-size="13" lengthAdjust="spacing" textLength="126" x="775.25" y="858.3706">- CategoryID (INT)</text><text fill="#000000" font-family="Verdana" font-size="13" lengthAdjust="spacing" textLength="217" x="775.25" y="874.1699">- IsNewCreated (TINYINT/BOOL)</text><text fill="#000000" font-family="Verdana" font-size="13" lengthAdjust="spacing" textLength="252" x="775.25" y="889.9692">- IsProbationLastDay (TINYINT/BOOL)</text><text fill="#000000" font-family="Verdana" font-size="13" lengthAdjust="spacing" textLength="245" x="775.25" y="905.7686">- IsSpecialLicSubCC (TINYINT/BOOL)</text><rect fill="#FFFFFF" height="34.584" rx="12.5" ry="12.5" style="stroke:#000000;stroke-width:1.0;" width="126" x="623.25" y="843.8081"/><text fill="#000000" font-family="Verdana" font-size="12" lengthAdjust="spacing" textLength="106" x="633.25" y="865.8726">Return ResultSet</text><rect fill="#FFFFFF" height="34.584" rx="12.5" ry="12.5" style="stroke:#000000;stroke-width:1.0;" width="272" x="550.25" y="933.498"/><text fill="#000000" font-family="Verdana" font-size="12" lengthAdjust="spacing" textLength="252" x="560.25" y="955.5625">Collect to customerCategories collection</text><rect fill="#FFFFFF" height="34.584" rx="12.5" ry="12.5" style="stroke:#000000;stroke-width:1.0;" width="113" x="629.75" y="495.7417"/><text fill="#000000" font-family="Verdana" font-size="12" lengthAdjust="spacing" textLength="93" x="639.75" y="517.8062">For each batch</text><polygon fill="#FFFFFF" points="645.25,988.082,727.25,988.082,739.25,1000.082,727.25,1012.082,645.25,1012.082,633.25,1000.082,645.25,988.082" style="stroke:#000000;stroke-width:1.0;"/><text fill="#000000" font-family="Verdana" font-size="11" lengthAdjust="spacing" textLength="82" x="645.25" y="1004.4568">More batches?</text><rect fill="#FFFFFF" height="34.584" rx="12.5" ry="12.5" style="stroke:#000000;stroke-width:1.0;" width="46" x="1237.75" y="441.1577"/><text fill="#000000" font-family="Verdana" font-size="12" lengthAdjust="spacing" textLength="26" x="1247.75" y="463.2222">Skip</text><polygon fill="#FFFFFF" points="973.5,1018.082,985.5,1030.082,973.5,1042.082,961.5,1030.082,973.5,1018.082" style="stroke:#000000;stroke-width:1.0;"/><rect fill="#FFFFFF" height="296.1904" style="stroke:#000000;stroke-width:1.0;" width="558" x="812" y="1064.082"/><path d="M1086,1064.082 L1086,1074.0967 L1076,1084.0967 L812,1084.0967 " fill="none" style="stroke:#000000;stroke-width:1.0;"/><text fill="#000000" font-family="Verdana" font-size="14" lengthAdjust="spacing" textLength="264" x="815" y="1079.1572">Step 3: Join Data in Application Layer</text><path d="M1033,1094.0967 L1033,1189.8926 L1013,1193.8926 L1033,1197.8926 L1033,1293.6885 A0,0 0 0 0 1033,1293.6885 L1360,1293.6885 A0,0 0 0 0 1360,1293.6885 L1360,1104.0967 L1350,1094.0967 L1033,1094.0967 A0,0 0 0 0 1033,1094.0967 " fill="#FFFFFF" style="stroke:#000000;stroke-width:1.0;"/><path d="M1350,1094.0967 L1350,1104.0967 L1360,1104.0967 L1350,1094.0967 " fill="#FFFFFF" style="stroke:#000000;stroke-width:1.0;"/><text fill="#000000" font-family="Verdana" font-size="13" lengthAdjust="spacing" textLength="139" x="1039" y="1112.1665">normalPoolCustomers</text><text fill="#000000" font-family="Verdana" font-size="13" lengthAdjust="spacing" textLength="172" x="1039" y="1127.9658">.Join(customerCategories,</text><text fill="#000000" font-family="Verdana" font-size="13" lengthAdjust="spacing" textLength="199" x="1049" y="1143.7651">custMain =&gt; custMain.CustId,</text><text fill="#000000" font-family="Verdana" font-size="13" lengthAdjust="spacing" textLength="194" x="1049" y="1159.5645">custCTS =&gt; custCTS.CustID,</text><text fill="#000000" font-family="Verdana" font-size="13" lengthAdjust="spacing" textLength="205" x="1049" y="1175.3638">(custMain, custCTS) =&gt; new {</text><text fill="#000000" font-family="Verdana" font-size="13" lengthAdjust="spacing" textLength="131" x="1059" y="1191.1631">CustId, CategoryId,</text><text fill="#000000" font-family="Verdana" font-size="13" lengthAdjust="spacing" textLength="234" x="1059" y="1206.9624">IsNewCreated, IsProbationLastDay,</text><text fill="#000000" font-family="Verdana" font-size="13" lengthAdjust="spacing" textLength="229" x="1059" y="1222.7617">IsRealtimeOnly, ScanTaggingType,</text><text fill="#000000" font-family="Verdana" font-size="13" lengthAdjust="spacing" textLength="286" x="1059" y="1238.561">ScanSpecialLicSubType, IsSpecialLicSubCC</text><text fill="#000000" font-family="Verdana" font-size="13" lengthAdjust="spacing" textLength="14" x="1049" y="1254.3604">})</text><text fill="#000000" font-family="Verdana" font-size="13" lengthAdjust="spacing" textLength="5" x="1039" y="1270.1597">&#160;</text><text fill="#000000" font-family="Verdana" font-size="13" font-weight="bold" lengthAdjust="spacing" textLength="59" x="1039" y="1285.959">Purpose</text><text fill="#000000" font-family="Verdana" font-size="13" lengthAdjust="spacing" textLength="247" x="1098" y="1285.959">: Combine Pool data + Category data</text><rect fill="#FFFFFF" height="34.584" rx="12.5" ry="12.5" style="stroke:#000000;stroke-width:1.0;" width="79" x="934" y="1176.6006"/><text fill="#000000" font-family="Verdana" font-size="12" lengthAdjust="spacing" textLength="59" x="944" y="1198.665">LINQ Join</text><rect fill="#FFFFFF" height="34.584" rx="12.5" ry="12.5" style="stroke:#000000;stroke-width:1.0;" width="303" x="822" y="1313.6885"/><text fill="#000000" font-family="Verdana" font-size="12" lengthAdjust="spacing" textLength="283" x="832" y="1335.7529">Create GetCurrentCustomerCategoryModel[]</text><rect fill="#FFFFFF" height="877.3413" style="stroke:#000000;stroke-width:1.0;" width="1917" x="6" y="1370.2725"/><path d="M304,1370.2725 L304,1380.2871 L294,1390.2871 L6,1390.2871 " fill="none" style="stroke:#000000;stroke-width:1.0;"/><text fill="#000000" font-family="Verdana" font-size="14" lengthAdjust="spacing" textLength="288" x="9" y="1385.3477">Step 4: Parallel Classification (4 Threads)</text><rect fill="#FFFFFF" height="34.584" rx="12.5" ry="12.5" style="stroke:#000000;stroke-width:1.0;" width="270" x="838.5" y="1407.2871"/><text fill="#000000" font-family="Verdana" font-size="12" lengthAdjust="spacing" textLength="250" x="848.5" y="1429.3516">Chunk joined data by batchInternalSize</text><line style="stroke:#000000;stroke-width:1.5;" x1="225" x2="1631.5" y1="1461.8711" y2="1461.8711"/><rect fill="#FFFFFF" height="34.584" rx="12.5" ry="12.5" style="stroke:#000000;stroke-width:1.0;" width="173" x="138.5" y="1481.8711"/><text fill="#000000" font-family="Verdana" font-size="12" lengthAdjust="spacing" textLength="153" x="148.5" y="1503.9355">Thread 1: Process batch</text><path d="M324,1526.4551 L324,1653.8496 L304,1657.8496 L324,1661.8496 L324,1789.2441 A0,0 0 0 0 324,1789.2441 L727,1789.2441 A0,0 0 0 0 727,1789.2441 L727,1536.4551 L717,1526.4551 L324,1526.4551 A0,0 0 0 0 324,1526.4551 " fill="#FFFFFF" style="stroke:#000000;stroke-width:1.0;"/><path d="M717,1526.4551 L717,1536.4551 L727,1536.4551 L717,1526.4551 " fill="#FFFFFF" style="stroke:#000000;stroke-width:1.0;"/><text fill="#000000" font-family="Verdana" font-size="13" lengthAdjust="spacing" textLength="199" x="330" y="1544.5249">Using ToXmlString() extension</text><text fill="#000000" font-family="Verdana" font-size="13" lengthAdjust="spacing" textLength="5" x="330" y="1560.3242">&#160;</text><text fill="#000000" font-family="Verdana" font-size="13" lengthAdjust="spacing" textLength="84" x="330" y="1576.1235">XML Format:</text><text fill="#000000" font-family="Verdana" font-size="13" lengthAdjust="spacing" textLength="73" x="330" y="1591.9229">&lt;ArrayOfr&gt;</text><text fill="#000000" font-family="Verdana" font-size="13" lengthAdjust="spacing" textLength="23" x="340" y="1607.7222">&lt;r&gt;</text><text fill="#000000" font-family="Verdana" font-size="13" lengthAdjust="spacing" textLength="152" x="350" y="1623.5215">&lt;CustId&gt;123&lt;/CustId&gt;</text><text fill="#000000" font-family="Verdana" font-size="13" lengthAdjust="spacing" textLength="196" x="350" y="1639.3208">&lt;CategoryId&gt;5&lt;/CategoryId&gt;</text><text fill="#000000" font-family="Verdana" font-size="13" lengthAdjust="spacing" textLength="257" x="350" y="1655.1201">&lt;IsNewCreated&gt;false&lt;/IsNewCreated&gt;</text><text fill="#000000" font-family="Verdana" font-size="13" lengthAdjust="spacing" textLength="327" x="350" y="1670.9194">&lt;IsProbationLastDay&gt;false&lt;/IsProbationLastDay&gt;</text><text fill="#000000" font-family="Verdana" font-size="13" lengthAdjust="spacing" textLength="261" x="350" y="1686.7188">&lt;IsRealtimeOnly&gt;true&lt;/IsRealtimeOnly&gt;</text><text fill="#000000" font-family="Verdana" font-size="13" lengthAdjust="spacing" textLength="286" x="350" y="1702.5181">&lt;ScanTaggingType&gt;0&lt;/ScanTaggingType&gt;</text><text fill="#000000" font-family="Verdana" font-size="13" lengthAdjust="spacing" textLength="362" x="350" y="1718.3174">&lt;ScanSpecialLicSubType&gt;0&lt;/ScanSpecialLicSubType&gt;</text><text fill="#000000" font-family="Verdana" font-size="13" lengthAdjust="spacing" textLength="313" x="350" y="1734.1167">&lt;IsSpecialLicSubCC&gt;false&lt;/IsSpecialLicSubCC&gt;</text><text fill="#000000" font-family="Verdana" font-size="13" lengthAdjust="spacing" textLength="29" x="340" y="1749.916">&lt;/r&gt;</text><text fill="#000000" font-family="Verdana" font-size="13" lengthAdjust="spacing" textLength="15" x="340" y="1765.7153">...</text><text fill="#000000" font-family="Verdana" font-size="13" lengthAdjust="spacing" textLength="79" x="330" y="1781.5146">&lt;/ArrayOfr&gt;</text><rect fill="#FFFFFF" height="34.584" rx="12.5" ry="12.5" style="stroke:#000000;stroke-width:1.0;" width="158" x="146" y="1640.5576"/><text fill="#000000" font-family="Verdana" font-size="12" lengthAdjust="spacing" textLength="138" x="156" y="1662.6221">Serialize batch to XML</text><path d="M452,1799.2441 L452,1879.2407 L432,1883.2407 L452,1887.2407 L452,1967.2373 A0,0 0 0 0 452,1967.2373 L747,1967.2373 A0,0 0 0 0 747,1967.2373 L747,1809.2441 L737,1799.2441 L452,1799.2441 A0,0 0 0 0 452,1799.2441 " fill="#FFFFFF" style="stroke:#000000;stroke-width:1.0;"/><path d="M737,1799.2441 L737,1809.2441 L747,1809.2441 L737,1799.2441 " fill="#FFFFFF" style="stroke:#000000;stroke-width:1.0;"/><text fill="#000000" font-family="Verdana" font-size="13" font-weight="bold" lengthAdjust="spacing" textLength="69" x="458" y="1817.314">Database</text><text fill="#000000" font-family="Verdana" font-size="13" lengthAdjust="spacing" textLength="205" x="527" y="1817.314">: bodb_VR2Model (SQL Server)</text><text fill="#000000" font-family="Verdana" font-size="13" font-weight="bold" lengthAdjust="spacing" textLength="59" x="458" y="1833.1133">Timeout</text><text fill="#000000" font-family="Verdana" font-size="13" lengthAdjust="spacing" textLength="94" x="517" y="1833.1133">: 300 seconds</text><text fill="#000000" font-family="Verdana" font-size="13" lengthAdjust="spacing" textLength="5" x="458" y="1848.9126">&#160;</text><text fill="#000000" font-family="Verdana" font-size="13" font-weight="bold" lengthAdjust="spacing" textLength="85" x="458" y="1864.7119">Parameters</text><text fill="#000000" font-family="Verdana" font-size="13" lengthAdjust="spacing" textLength="6" x="543" y="1864.7119">:</text><text fill="#000000" font-family="Verdana" font-size="13" lengthAdjust="spacing" textLength="241" x="458" y="1880.5112">- @CustomersXML (XML/NVARCHAR)</text><text fill="#000000" font-family="Verdana" font-size="13" lengthAdjust="spacing" textLength="5" x="458" y="1896.3105">&#160;</text><text fill="#000000" font-family="Verdana" font-size="13" font-weight="bold" lengthAdjust="spacing" textLength="38" x="458" y="1912.1099">Logic</text><text fill="#000000" font-family="Verdana" font-size="13" lengthAdjust="spacing" textLength="6" x="496" y="1912.1099">:</text><text fill="#000000" font-family="Verdana" font-size="13" lengthAdjust="spacing" textLength="170" x="458" y="1927.9092">- Parse XML customer list</text><text fill="#000000" font-family="Verdana" font-size="13" lengthAdjust="spacing" textLength="174" x="458" y="1943.7085">- Apply classification rules</text><text fill="#000000" font-family="Verdana" font-size="13" lengthAdjust="spacing" textLength="257" x="458" y="1959.5078">- Insert/Update CustomerClassification</text><rect fill="#FFFFFF" height="34.584" rx="12.5" ry="12.5" style="stroke:#000000;stroke-width:1.0;" width="414" x="18" y="1865.9487"/><text fill="#000000" font-family="Verdana" font-size="12" lengthAdjust="spacing" textLength="394" x="28" y="1888.0132">Call SP: CTS_GeneralNormalClassification_NormalPool_Classify</text><rect fill="#FFFFFF" height="34.584" rx="12.5" ry="12.5" style="stroke:#000000;stroke-width:1.0;" width="272" x="89" y="1987.2373"/><text fill="#000000" font-family="Verdana" font-size="12" lengthAdjust="spacing" textLength="252" x="99" y="2009.3018">Join CustIds to comma-separated string</text><path d="M444.5,2031.8213 L444.5,2119.7175 L424.5,2123.7175 L444.5,2127.7175 L444.5,2215.6138 A0,0 0 0 0 444.5,2215.6138 L739.5,2215.6138 A0,0 0 0 0 739.5,2215.6138 L739.5,2041.8213 L729.5,2031.8213 L444.5,2031.8213 A0,0 0 0 0 444.5,2031.8213 " fill="#FFFFFF" style="stroke:#000000;stroke-width:1.0;"/><path d="M729.5,2031.8213 L729.5,2041.8213 L739.5,2041.8213 L729.5,2031.8213 " fill="#FFFFFF" style="stroke:#000000;stroke-width:1.0;"/><text fill="#000000" font-family="Verdana" font-size="13" font-weight="bold" lengthAdjust="spacing" textLength="69" x="450.5" y="2049.8911">Database</text><text fill="#000000" font-family="Verdana" font-size="13" lengthAdjust="spacing" textLength="205" x="519.5" y="2049.8911">: bodb_VR2Model (SQL Server)</text><text fill="#000000" font-family="Verdana" font-size="13" font-weight="bold" lengthAdjust="spacing" textLength="59" x="450.5" y="2065.6904">Timeout</text><text fill="#000000" font-family="Verdana" font-size="13" lengthAdjust="spacing" textLength="94" x="509.5" y="2065.6904">: 300 seconds</text><text fill="#000000" font-family="Verdana" font-size="13" lengthAdjust="spacing" textLength="5" x="450.5" y="2081.4897">&#160;</text><text fill="#000000" font-family="Verdana" font-size="13" font-weight="bold" lengthAdjust="spacing" textLength="85" x="450.5" y="2097.2891">Parameters</text><text fill="#000000" font-family="Verdana" font-size="13" lengthAdjust="spacing" textLength="6" x="535.5" y="2097.2891">:</text><text fill="#000000" font-family="Verdana" font-size="13" lengthAdjust="spacing" textLength="263" x="450.5" y="2113.0884">- @ListCustId (VARCHAR): "123,456,..."</text><text fill="#000000" font-family="Verdana" font-size="13" lengthAdjust="spacing" textLength="183" x="450.5" y="2128.8877">- @ScannedMaxId (BIGINT)</text><text fill="#000000" font-family="Verdana" font-size="13" lengthAdjust="spacing" textLength="5" x="450.5" y="2144.687">&#160;</text><text fill="#000000" font-family="Verdana" font-size="13" font-weight="bold" lengthAdjust="spacing" textLength="38" x="450.5" y="2160.4863">Logic</text><text fill="#000000" font-family="Verdana" font-size="13" lengthAdjust="spacing" textLength="6" x="488.5" y="2160.4863">:</text><text fill="#000000" font-family="Verdana" font-size="13" lengthAdjust="spacing" textLength="184" x="450.5" y="2176.2856">- DELETE FROM Normal Pool</text><text fill="#000000" font-family="Verdana" font-size="13" lengthAdjust="spacing" textLength="210" x="450.5" y="2192.085">- WHERE CustId IN (parsed list)</text><text fill="#000000" font-family="Verdana" font-size="13" lengthAdjust="spacing" textLength="186" x="450.5" y="2207.8843">- OR ID &lt;= @ScannedMaxId</text><rect fill="#FFFFFF" height="34.584" rx="12.5" ry="12.5" style="stroke:#000000;stroke-width:1.0;" width="399" x="25.5" y="2106.4255"/><text fill="#000000" font-family="Verdana" font-size="12" lengthAdjust="spacing" textLength="379" x="35.5" y="2128.49">Call SP: CTS_GeneralNormalClassification_NormalPool_Clear</text><path d="M968,1830.8428 L968,1839.7424 L948,1843.7424 L968,1847.7424 L968,1856.6421 A0,0 0 0 0 968,1856.6421 L1141,1856.6421 A0,0 0 0 0 1141,1856.6421 L1141,1840.8428 L1131,1830.8428 L968,1830.8428 A0,0 0 0 0 968,1830.8428 " fill="#FFFFFF" style="stroke:#000000;stroke-width:1.0;"/><path d="M1131,1830.8428 L1131,1840.8428 L1141,1840.8428 L1131,1830.8428 " fill="#FFFFFF" style="stroke:#000000;stroke-width:1.0;"/><text fill="#000000" font-family="Verdana" font-size="13" lengthAdjust="spacing" textLength="152" x="974" y="1848.9126">Same flow as Thread 1</text><rect fill="#FFFFFF" height="34.584" rx="12.5" ry="12.5" style="stroke:#000000;stroke-width:1.0;" width="173" x="775" y="1826.4504"/><text fill="#000000" font-family="Verdana" font-size="12" lengthAdjust="spacing" textLength="153" x="785" y="1848.5149">Thread 2: Process batch</text><path d="M1362,1830.8428 L1362,1839.7424 L1342,1843.7424 L1362,1847.7424 L1362,1856.6421 A0,0 0 0 0 1362,1856.6421 L1535,1856.6421 A0,0 0 0 0 1535,1856.6421 L1535,1840.8428 L1525,1830.8428 L1362,1830.8428 A0,0 0 0 0 1362,1830.8428 " fill="#FFFFFF" style="stroke:#000000;stroke-width:1.0;"/><path d="M1525,1830.8428 L1525,1840.8428 L1535,1840.8428 L1525,1830.8428 " fill="#FFFFFF" style="stroke:#000000;stroke-width:1.0;"/><text fill="#000000" font-family="Verdana" font-size="13" lengthAdjust="spacing" textLength="152" x="1368" y="1848.9126">Same flow as Thread 1</text><rect fill="#FFFFFF" height="34.584" rx="12.5" ry="12.5" style="stroke:#000000;stroke-width:1.0;" width="173" x="1169" y="1826.4504"/><text fill="#000000" font-family="Verdana" font-size="12" lengthAdjust="spacing" textLength="153" x="1179" y="1848.5149">Thread 3: Process batch</text><path d="M1738,1830.8428 L1738,1839.7424 L1718,1843.7424 L1738,1847.7424 L1738,1856.6421 A0,0 0 0 0 1738,1856.6421 L1911,1856.6421 A0,0 0 0 0 1911,1856.6421 L1911,1840.8428 L1901,1830.8428 L1738,1830.8428 A0,0 0 0 0 1738,1830.8428 " fill="#FFFFFF" style="stroke:#000000;stroke-width:1.0;"/><path d="M1901,1830.8428 L1901,1840.8428 L1911,1840.8428 L1901,1830.8428 " fill="#FFFFFF" style="stroke:#000000;stroke-width:1.0;"/><text fill="#000000" font-family="Verdana" font-size="13" lengthAdjust="spacing" textLength="152" x="1744" y="1848.9126">Same flow as Thread 1</text><rect fill="#FFFFFF" height="34.584" rx="12.5" ry="12.5" style="stroke:#000000;stroke-width:1.0;" width="173" x="1545" y="1826.4504"/><text fill="#000000" font-family="Verdana" font-size="12" lengthAdjust="spacing" textLength="153" x="1555" y="1848.5149">Thread 4: Process batch</text><line style="stroke:#000000;stroke-width:1.5;" x1="225" x2="1631.5" y1="2235.6138" y2="2235.6138"/><path d="M1033.5,2257.6138 L1033.5,2313.9114 L1013.5,2317.9114 L1033.5,2321.9114 L1033.5,2378.209 A0,0 0 0 0 1033.5,2378.209 L1445.5,2378.209 A0,0 0 0 0 1445.5,2378.209 L1445.5,2267.6138 L1435.5,2257.6138 L1033.5,2257.6138 A0,0 0 0 0 1033.5,2257.6138 " fill="#FFFFFF" style="stroke:#000000;stroke-width:1.0;"/><path d="M1435.5,2257.6138 L1435.5,2267.6138 L1445.5,2267.6138 L1435.5,2257.6138 " fill="#FFFFFF" style="stroke:#000000;stroke-width:1.0;"/><text fill="#000000" font-family="Verdana" font-size="13" font-weight="bold" lengthAdjust="spacing" textLength="76" x="1039.5" y="2275.6836">Key Points</text><text fill="#000000" font-family="Verdana" font-size="13" lengthAdjust="spacing" textLength="6" x="1115.5" y="2275.6836">:</text><text fill="#000000" font-family="Verdana" font-size="13" lengthAdjust="spacing" textLength="13" x="1039.5" y="2291.4829">1.</text><text fill="#000000" font-family="Verdana" font-size="13" font-weight="bold" lengthAdjust="spacing" textLength="90" x="1057.5" y="2291.4829">2 Databases</text><text fill="#000000" font-family="Verdana" font-size="13" lengthAdjust="spacing" textLength="283" x="1147.5" y="2291.4829">: VR2 (SQL Server) + DataCenter (MySQL)</text><text fill="#000000" font-family="Verdana" font-size="13" lengthAdjust="spacing" textLength="13" x="1039.5" y="2307.2822">2.</text><text fill="#000000" font-family="Verdana" font-size="13" font-weight="bold" lengthAdjust="spacing" textLength="125" x="1057.5" y="2307.2822">Batch Processing</text><text fill="#000000" font-family="Verdana" font-size="13" lengthAdjust="spacing" textLength="183" x="1182.5" y="2307.2822">: Get Categories in batches</text><text fill="#000000" font-family="Verdana" font-size="13" lengthAdjust="spacing" textLength="13" x="1039.5" y="2323.0815">3.</text><text fill="#000000" font-family="Verdana" font-size="13" font-weight="bold" lengthAdjust="spacing" textLength="114" x="1057.5" y="2323.0815">Application Join</text><text fill="#000000" font-family="Verdana" font-size="13" lengthAdjust="spacing" textLength="149" x="1171.5" y="2323.0815">: LINQ Join in C# layer</text><text fill="#000000" font-family="Verdana" font-size="13" lengthAdjust="spacing" textLength="13" x="1039.5" y="2338.8809">4.</text><text fill="#000000" font-family="Verdana" font-size="13" font-weight="bold" lengthAdjust="spacing" textLength="137" x="1057.5" y="2338.8809">Parallel Processing</text><text fill="#000000" font-family="Verdana" font-size="13" lengthAdjust="spacing" textLength="187" x="1194.5" y="2338.8809">: 4 threads for classification</text><text fill="#000000" font-family="Verdana" font-size="13" lengthAdjust="spacing" textLength="13" x="1039.5" y="2354.6802">5.</text><text fill="#000000" font-family="Verdana" font-size="13" font-weight="bold" lengthAdjust="spacing" textLength="112" x="1057.5" y="2354.6802">3 Data Formats</text><text fill="#000000" font-family="Verdana" font-size="13" lengthAdjust="spacing" textLength="193" x="1169.5" y="2354.6802">: ResultSet &#226;&#8224;&#8217; JSON &#226;&#8224;&#8217; XML</text><text fill="#000000" font-family="Verdana" font-size="13" lengthAdjust="spacing" textLength="13" x="1039.5" y="2370.4795">6.</text><text fill="#000000" font-family="Verdana" font-size="13" font-weight="bold" lengthAdjust="spacing" textLength="95" x="1057.5" y="2370.4795">Dual Cleanup</text><text fill="#000000" font-family="Verdana" font-size="13" lengthAdjust="spacing" textLength="232" x="1152.5" y="2370.4795">: By CustId list AND ScannedMaxId</text><rect fill="#FFFFFF" height="34.584" rx="12.5" ry="12.5" style="stroke:#000000;stroke-width:1.0;" width="80" x="933.5" y="2300.6194"/><text fill="#000000" font-family="Verdana" font-size="12" lengthAdjust="spacing" textLength="60" x="943.5" y="2322.6838">Complete</text><ellipse cx="973.5" cy="2409.209" fill="none" rx="11" ry="11" style="stroke:#000000;stroke-width:1.0;"/><ellipse cx="973.5" cy="2409.209" fill="#FFFFFF" rx="6" ry="6" style="stroke:#000000;stroke-width:1.0;"/><line style="stroke:#000000;stroke-width:1.0;" x1="973.5" x2="973.5" y1="174.5422" y2="262.6538"/><polygon fill="#000000" points="969.5,252.6538,973.5,262.6538,977.5,252.6538,973.5,256.6538" style="stroke:#000000;stroke-width:1.0;"/><line style="stroke:#000000;stroke-width:1.0;" x1="973.5" x2="973.5" y1="72.7373" y2="139.9583"/><polygon fill="#000000" points="969.5,129.9583,973.5,139.9583,977.5,129.9583,973.5,133.9583" style="stroke:#000000;stroke-width:1.0;"/><line style="stroke:#000000;stroke-width:1.0;" x1="686.25" x2="686.25" y1="584.9097" y2="630.0156"/><polygon fill="#000000" points="682.25,620.0156,686.25,630.0156,690.25,620.0156,686.25,624.0156" style="stroke:#000000;stroke-width:1.0;"/><line style="stroke:#000000;stroke-width:1.0;" x1="686.25" x2="686.25" y1="664.5996" y2="736.9119"/><polygon fill="#000000" points="682.25,726.9119,686.25,736.9119,690.25,726.9119,686.25,730.9119" style="stroke:#000000;stroke-width:1.0;"/><line style="stroke:#000000;stroke-width:1.0;" x1="686.25" x2="686.25" y1="771.4958" y2="843.8081"/><polygon fill="#000000" points="682.25,833.8081,686.25,843.8081,690.25,833.8081,686.25,837.8081" style="stroke:#000000;stroke-width:1.0;"/><line style="stroke:#000000;stroke-width:1.0;" x1="686.25" x2="686.25" y1="878.3921" y2="933.498"/><polygon fill="#000000" points="682.25,923.498,686.25,933.498,690.25,923.498,686.25,927.498" style="stroke:#000000;stroke-width:1.0;"/><line style="stroke:#000000;stroke-width:1.0;" x1="686.25" x2="686.25" y1="530.3257" y2="550.3257"/><polygon fill="#000000" points="682.25,540.3257,686.25,550.3257,690.25,540.3257,686.25,544.3257" style="stroke:#000000;stroke-width:1.0;"/><line style="stroke:#000000;stroke-width:1.0;" x1="739.25" x2="1205.75" y1="1000.082" y2="1000.082"/><polygon fill="#000000" points="1201.75,761.5579,1205.75,751.5579,1209.75,761.5579,1205.75,757.5579" style="stroke:#000000;stroke-width:1.0;"/><line style="stroke:#000000;stroke-width:1.0;" x1="1205.75" x2="1205.75" y1="513.0337" y2="1000.082"/><line style="stroke:#000000;stroke-width:1.0;" x1="1205.75" x2="742.75" y1="513.0337" y2="513.0337"/><polygon fill="#000000" points="752.75,509.0337,742.75,513.0337,752.75,517.0337,748.75,513.0337" style="stroke:#000000;stroke-width:1.0;"/><line style="stroke:#000000;stroke-width:1.0;" x1="686.25" x2="686.25" y1="968.082" y2="988.082"/><polygon fill="#000000" points="682.25,978.082,686.25,988.082,690.25,978.082,686.25,982.082" style="stroke:#000000;stroke-width:1.0;"/><line style="stroke:#000000;stroke-width:1.0;" x1="686.25" x2="686.25" y1="475.7417" y2="495.7417"/><polygon fill="#000000" points="682.25,485.7417,686.25,495.7417,690.25,485.7417,686.25,489.7417" style="stroke:#000000;stroke-width:1.0;"/><line style="stroke:#000000;stroke-width:1.0;" x1="915" x2="686.25" y1="419.1577" y2="419.1577"/><line style="stroke:#000000;stroke-width:1.0;" x1="686.25" x2="686.25" y1="419.1577" y2="441.1577"/><polygon fill="#000000" points="682.25,431.1577,686.25,441.1577,690.25,431.1577,686.25,435.1577" style="stroke:#000000;stroke-width:1.0;"/><line style="stroke:#000000;stroke-width:1.0;" x1="1032" x2="1260.75" y1="419.1577" y2="419.1577"/><line style="stroke:#000000;stroke-width:1.0;" x1="1260.75" x2="1260.75" y1="419.1577" y2="441.1577"/><polygon fill="#000000" points="1256.75,431.1577,1260.75,441.1577,1264.75,431.1577,1260.75,435.1577" style="stroke:#000000;stroke-width:1.0;"/><line style="stroke:#000000;stroke-width:1.0;" x1="686.25" x2="686.25" y1="1012.082" y2="1030.082"/><line style="stroke:#000000;stroke-width:1.0;" x1="686.25" x2="961.5" y1="1030.082" y2="1030.082"/><polygon fill="#000000" points="951.5,1026.082,961.5,1030.082,951.5,1034.082,955.5,1030.082" style="stroke:#000000;stroke-width:1.0;"/><line style="stroke:#000000;stroke-width:1.0;" x1="1260.75" x2="1260.75" y1="475.7417" y2="1030.082"/><line style="stroke:#000000;stroke-width:1.0;" x1="1260.75" x2="985.5" y1="1030.082" y2="1030.082"/><polygon fill="#000000" points="995.5,1026.082,985.5,1030.082,995.5,1034.082,991.5,1030.082" style="stroke:#000000;stroke-width:1.0;"/><line style="stroke:#000000;stroke-width:1.0;" x1="973.5" x2="973.5" y1="297.2378" y2="407.1577"/><polygon fill="#000000" points="969.5,397.1577,973.5,407.1577,977.5,397.1577,973.5,401.1577" style="stroke:#000000;stroke-width:1.0;"/><line style="stroke:#000000;stroke-width:1.0;" x1="973.5" x2="973.5" y1="1211.1846" y2="1313.6885"/><polygon fill="#000000" points="969.5,1303.6885,973.5,1313.6885,977.5,1303.6885,973.5,1307.6885" style="stroke:#000000;stroke-width:1.0;"/><line style="stroke:#000000;stroke-width:1.0;" x1="973.5" x2="973.5" y1="1042.082" y2="1176.6006"/><polygon fill="#000000" points="969.5,1166.6006,973.5,1176.6006,977.5,1166.6006,973.5,1170.6006" style="stroke:#000000;stroke-width:1.0;"/><line style="stroke:#000000;stroke-width:1.0;" x1="225" x2="225" y1="1516.4551" y2="1640.5576"/><polygon fill="#000000" points="221,1630.5576,225,1640.5576,229,1630.5576,225,1634.5576" style="stroke:#000000;stroke-width:1.0;"/><line style="stroke:#000000;stroke-width:1.0;" x1="225" x2="225" y1="1675.1416" y2="1865.9487"/><polygon fill="#000000" points="221,1855.9487,225,1865.9487,229,1855.9487,225,1859.9487" style="stroke:#000000;stroke-width:1.0;"/><line style="stroke:#000000;stroke-width:1.0;" x1="225" x2="225" y1="1900.5327" y2="1987.2373"/><polygon fill="#000000" points="221,1977.2373,225,1987.2373,229,1977.2373,225,1981.2373" style="stroke:#000000;stroke-width:1.0;"/><line style="stroke:#000000;stroke-width:1.0;" x1="225" x2="225" y1="2021.8213" y2="2106.4255"/><polygon fill="#000000" points="221,2096.4255,225,2106.4255,229,2096.4255,225,2100.4255" style="stroke:#000000;stroke-width:1.0;"/><line style="stroke:#000000;stroke-width:1.0;" x1="225" x2="225" y1="1463.3711" y2="1481.8711"/><polygon fill="#000000" points="221,1471.8711,225,1481.8711,229,1471.8711,225,1475.8711" style="stroke:#000000;stroke-width:1.0;"/><line style="stroke:#000000;stroke-width:1.0;" x1="861.5" x2="861.5" y1="1463.3711" y2="1826.4504"/><polygon fill="#000000" points="857.5,1816.4504,861.5,1826.4504,865.5,1816.4504,861.5,1820.4504" style="stroke:#000000;stroke-width:1.0;"/><line style="stroke:#000000;stroke-width:1.0;" x1="1255.5" x2="1255.5" y1="1463.3711" y2="1826.4504"/><polygon fill="#000000" points="1251.5,1816.4504,1255.5,1826.4504,1259.5,1816.4504,1255.5,1820.4504" style="stroke:#000000;stroke-width:1.0;"/><line style="stroke:#000000;stroke-width:1.0;" x1="1631.5" x2="1631.5" y1="1463.3711" y2="1826.4504"/><polygon fill="#000000" points="1627.5,1816.4504,1631.5,1826.4504,1635.5,1816.4504,1631.5,1820.4504" style="stroke:#000000;stroke-width:1.0;"/><line style="stroke:#000000;stroke-width:1.0;" x1="225" x2="225" y1="2141.0095" y2="2235.6138"/><polygon fill="#000000" points="221,2225.6138,225,2235.6138,229,2225.6138,225,2229.6138" style="stroke:#000000;stroke-width:1.0;"/><line style="stroke:#000000;stroke-width:1.0;" x1="861.5" x2="861.5" y1="1861.0344" y2="2235.6138"/><polygon fill="#000000" points="857.5,2225.6138,861.5,2235.6138,865.5,2225.6138,861.5,2229.6138" style="stroke:#000000;stroke-width:1.0;"/><line style="stroke:#000000;stroke-width:1.0;" x1="1255.5" x2="1255.5" y1="1861.0344" y2="2235.6138"/><polygon fill="#000000" points="1251.5,2225.6138,1255.5,2235.6138,1259.5,2225.6138,1255.5,2229.6138" style="stroke:#000000;stroke-width:1.0;"/><line style="stroke:#000000;stroke-width:1.0;" x1="1631.5" x2="1631.5" y1="1861.0344" y2="2235.6138"/><polygon fill="#000000" points="1627.5,2225.6138,1631.5,2235.6138,1635.5,2225.6138,1631.5,2229.6138" style="stroke:#000000;stroke-width:1.0;"/><line style="stroke:#000000;stroke-width:1.0;" x1="973.5" x2="973.5" y1="1441.8711" y2="1461.8711"/><polygon fill="#000000" points="969.5,1451.8711,973.5,1461.8711,977.5,1451.8711,973.5,1455.8711" style="stroke:#000000;stroke-width:1.0;"/><line style="stroke:#000000;stroke-width:1.0;" x1="973.5" x2="973.5" y1="1348.2725" y2="1407.2871"/><polygon fill="#000000" points="969.5,1397.2871,973.5,1407.2871,977.5,1397.2871,973.5,1401.2871" style="stroke:#000000;stroke-width:1.0;"/><line style="stroke:#000000;stroke-width:1.0;" x1="973.5" x2="973.5" y1="2237.1138" y2="2300.6194"/><polygon fill="#000000" points="969.5,2290.6194,973.5,2300.6194,977.5,2290.6194,973.5,2294.6194" style="stroke:#000000;stroke-width:1.0;"/><line style="stroke:#000000;stroke-width:1.0;" x1="973.5" x2="973.5" y1="2335.2034" y2="2398.209"/><polygon fill="#000000" points="969.5,2388.209,973.5,2398.209,977.5,2388.209,973.5,2392.209" style="stroke:#000000;stroke-width:1.0;"/><!--SRC=[pLZ9Sjj64BtZAphA1PHfKfjz06awD4ZPTBYPe1odN2dL41XIY440DHX4Hbokyc_abiglv4_y9UaPB1miaftb41rK0FhrRFswNm-_uJTqJo7qYEjhtEKUXNd0ziI3eMq7iS_1z4WKkLlN9jmDV7W88yB9XaGKBhtWLjCYJXZNj13_kn9nP74Qmga1podF1ri6WGTc7F5WJrbq11yq0CCadWVMqW1pRLq_fpvbn4lnvJclquzY38Jn7lhw0QV0tDqDnnVnTtoSB-lus81Du6okNw_EPe53FT2jLrEmAFk5ibO1Nxjx6iHSeCzFJY2YTk0xKMOkK8kOXp679M5aJpak7V6PyI5yPzd4zwap8-yd3kZF9iydytKR5bVhvTLQp4HzHwvKaoCQAyfZviEAHh77BJoS1w2ESCU-2hWwjJZAmvojuliaMb7YSTpRmlSIOLUCOh8rsUrSVxTEGWfwoLLOhP3QBl6chct5cnhcS2hCeGn74OUtP6x0N9x0Q6oPRPYCO6YP1VBIzV3K16uIBLbWqoYY3Zo14_LqFjRPSvQonumPeuA36NF099pkS3uQuTu8js-eqqhPv6v1Vq6Y0ycUjW2vxOEUq2ZTWM7UnFuxi7C4k3uFO2E7mV7amyJ7zVh4iznVQQkd5TjcDAI4Wt4PCA34ladTidqQu_US4JjT9vx0W-R3xELmv28QS0R0-LzQYtbkgOLV_0a0N8eKu8Ro-Qto3F3XA9txo83Ji_Cs7cFJ2j1wyh5zb-F5eyVtE9vM73kTZlB-K_QiK5wXJ3dLH-QrcBCnoKM2Pr7FOftSUpZbl9UZuxj9HHX1doMO-gqI_DwyLvQSefiIFqj-DvIxcFZR07GHezRzHr3D_Yzigo7jbTGVLLC_isL79kmruoIQqrkJ8Oqn1VNrPFuZGhhF5ejf5OUPkf51cPA8ZqXoFxf45jDi1j_5Yy3pA2OEva6UbagAswaL5z9Ja_3snaMPqcS1etdsFfNbraDHqlqWotRhdHlsqZhZRfkApBa1BmFNbuA6jG26OUZbCZSb2MMPJaqdyrSIsLYX_KASYjAJMJh2Hw_lwv17mZP3vOKdW-AvazRsCWY9dMFmCOMC3X0zTsxda9Q0-_HMxY3_oqO-qCHHKrhbHxk11MMigZFjghIeqCPwqgxpfd3vMDERPSp28ClmOBznVPes58u8t8DYE_AzBhlfba0fBEM89B9BUFjJhuaZ5uOKV-IXL-s4z0jOt-3OJjJA6ngfBpzZr373vE8s2THafPUkAqAofHmoqc54ovHfPEgao8yY6T8a4kRDR9eY6Yh8LOIHW7NmPkzPN4YrtWBwdbC_mfLhjLA7GzKKfZzaZ2IBBHiemUoNtl0zfTG0DQVVpPuhW89hWqS8ERoLOIhv1bk2cTplbhvLuLLs7fngbgghIjq1Px7qAdqiUrJ8FJZfTwkVwWurokTkTKDrVPN4EEoiQb03qor5HXNdVhSSoL8frkho_9MTU6P9xkJWtsp9lqASjIy9CyfoKOG5ftNyrvs_7gxC5yDLgscSQR1pxV8GE3JgY73FIpTuRiGLX12A1EnoEM2nHoC5DF4ZodZtAdH4zIbgJidfhdX8MKhJAPBQ6Eptv654iJf9zOvaJlV-TGGfOV-py4tnfFFBJHut0uv4JolQK-JraGflke5zRPn7u-buFORBrMAcNbCLn0ylngjnVjUQp44F1JKSIOUMWbkinBsd_wIydcfmPS47iXCtRRNidpMM_KD43B3mh62Bjst02quk5lUCUFwVZtZnZqSK1v1A7QehzdlxqCEuzpIjHBdZu-zfWiUFDxAC4QST_7XM_DWWlWBohqGzrFx6RlzC-ChhORxgxB8gxvI7_XAJBEiVqUbSEAaje4X2uLIqVm9lVWkUQ0tHuQAJ4Las1-M9Bl3kALi3sEA5qQuc_IFXUfusdgdkolqTVXduyu_Fdtx__EctzF9Nl65HGk_7mdiK4z6HKEB7eV1zbkH45Uo4uNnK-d51AuYeOI4AjRy0]--></g></svg>