<svg xmlns="http://www.w3.org/2000/svg" xmlns:xlink="http://www.w3.org/1999/xlink" contentStyleType="text/css" height="2999px" preserveAspectRatio="none" style="width:1172px;height:2999px;background:#FFFFFF;" version="1.1" viewBox="0 0 1172 2999" width="1172px" zoomAndPan="magnify"><defs/><g><text fill="#000000" font-family="Verdana" font-size="22" font-weight="bold" lengthAdjust="spacing" textLength="1139" x="15" y="37.1182">Stored Procedure: CTS_DC_CustClassification_Normal_GetCurrentCategory - Detailed Flow</text><rect fill="#FFFFFF" height="2939.8345" style="stroke:#000000;stroke-width:1.0;" width="817" x="177" y="53.7373"/><line style="stroke:#000000;stroke-width:1.0;" x1="177" x2="994" y1="74.752" y2="74.752"/><text fill="#000000" font-family="Verdana" font-size="14" lengthAdjust="spacing" textLength="6" x="321.5" y="69.8125">"</text><text fill="#000000" font-family="Verdana" font-size="14" font-weight="bold" lengthAdjust="spacing" textLength="472" x="327.5" y="69.8125">SP: CTS_DC_CustClassification_Normal_GetCurrentCategory</text><text fill="#000000" font-family="Verdana" font-size="14" lengthAdjust="spacing" textLength="50" x="799.5" y="69.8125">" as SP</text><rect fill="#FFFFFF" height="2882.8198" style="stroke:#000000;stroke-width:1.0;" width="797" x="187" y="90.752"/><text fill="#000000" font-family="Verdana" font-size="14" lengthAdjust="spacing" textLength="6" x="423.5" y="106.8271">"</text><text fill="#000000" font-family="Verdana" font-size="14" font-weight="bold" lengthAdjust="spacing" textLength="71" x="429.5" y="106.8271">Database</text><text fill="#000000" font-family="Verdana" font-size="14" lengthAdjust="spacing" textLength="247" x="500.5" y="106.8271">: CTS_DataCenter (MySQL)" as DB</text><rect fill="#FFFFFF" height="57.0146" style="stroke:#000000;stroke-width:1.0;" width="279" x="197" y="127.7666"/><text fill="#000000" font-family="Verdana" font-size="14" lengthAdjust="spacing" textLength="6" x="207" y="143.8418">"</text><text fill="#000000" font-family="Verdana" font-size="14" font-weight="bold" lengthAdjust="spacing" textLength="63" x="213" y="143.8418">Timeout</text><text fill="#000000" font-family="Verdana" font-size="14" lengthAdjust="spacing" textLength="190" x="276" y="143.8418">: 300 seconds" as Timeout</text><ellipse cx="336.5" cy="229.7813" fill="#FFFFFF" rx="10" ry="10" style="stroke:#000000;stroke-width:1.0;"/><rect fill="#FFFFFF" height="209.2085" style="stroke:#000000;stroke-width:1.0;" width="579" x="225" y="274.7813"/><path d="M357,274.7813 L357,284.7959 L347,294.7959 L225,294.7959 " fill="none" style="stroke:#000000;stroke-width:1.0;"/><text fill="#000000" font-family="Verdana" font-size="14" lengthAdjust="spacing" textLength="122" x="228" y="289.8564">Input Parameters</text><path d="M458,311.7959 L458,383.8928 L438,387.8928 L458,391.8928 L458,463.9897 A0,0 0 0 0 458,463.9897 L794,463.9897 A0,0 0 0 0 794,463.9897 L794,321.7959 L784,311.7959 L458,311.7959 A0,0 0 0 0 458,311.7959 " fill="#FFFFFF" style="stroke:#000000;stroke-width:1.0;"/><path d="M784,311.7959 L784,321.7959 L794,321.7959 L784,311.7959 " fill="#FFFFFF" style="stroke:#000000;stroke-width:1.0;"/><text fill="#000000" font-family="Verdana" font-size="13" lengthAdjust="spacing" textLength="166" x="464" y="329.8657">Parameter: @ip_CustInfo</text><text fill="#000000" font-family="Verdana" font-size="13" lengthAdjust="spacing" textLength="131" x="464" y="345.665">Format: JSON Array</text><text fill="#000000" font-family="Verdana" font-size="13" lengthAdjust="spacing" textLength="5" x="464" y="361.4644">&#160;</text><text fill="#000000" font-family="Verdana" font-size="13" lengthAdjust="spacing" textLength="59" x="464" y="377.2637">Example:</text><text fill="#000000" font-family="Verdana" font-size="13" lengthAdjust="spacing" textLength="6" x="464" y="393.063">[</text><text fill="#000000" font-family="Verdana" font-size="13" lengthAdjust="spacing" textLength="305" x="474" y="408.8623">{"CustID": 123, "ScanSpecialLicSubType": 0},</text><text fill="#000000" font-family="Verdana" font-size="13" lengthAdjust="spacing" textLength="305" x="474" y="424.6616">{"CustID": 456, "ScanSpecialLicSubType": 1},</text><text fill="#000000" font-family="Verdana" font-size="13" lengthAdjust="spacing" textLength="15" x="474" y="440.4609">...</text><text fill="#000000" font-family="Verdana" font-size="13" lengthAdjust="spacing" textLength="6" x="464" y="456.2603">]</text><rect fill="#FFFFFF" height="34.584" rx="12.5" ry="12.5" style="stroke:#000000;stroke-width:1.0;" width="203" x="235" y="370.6008"/><text fill="#000000" font-family="Verdana" font-size="12" lengthAdjust="spacing" textLength="183" x="245" y="392.6653">Receive @ip_CustInfo (JSON)</text><rect fill="#FFFFFF" height="380.603" style="stroke:#000000;stroke-width:1.0;" width="731.5" x="242.5" y="518.9897"/><path d="M370.5,518.9897 L370.5,529.0044 L360.5,539.0044 L242.5,539.0044 " fill="none" style="stroke:#000000;stroke-width:1.0;"/><text fill="#000000" font-family="Verdana" font-size="14" lengthAdjust="spacing" textLength="118" x="245.5" y="534.0649">Parse JSON Data</text><path d="M440.5,556.0044 L440.5,588.603 L420.5,592.603 L440.5,596.603 L440.5,629.2017 A0,0 0 0 0 440.5,629.2017 L759.5,629.2017 A0,0 0 0 0 759.5,629.2017 L759.5,566.0044 L749.5,556.0044 L440.5,556.0044 A0,0 0 0 0 440.5,556.0044 " fill="#FFFFFF" style="stroke:#000000;stroke-width:1.0;"/><path d="M749.5,556.0044 L749.5,566.0044 L759.5,566.0044 L749.5,556.0044 " fill="#FFFFFF" style="stroke:#000000;stroke-width:1.0;"/><text fill="#000000" font-family="Verdana" font-size="13" lengthAdjust="spacing" textLength="298" x="446.5" y="574.0742">CREATE TEMPORARY TABLE Temp_CustInfo (</text><text fill="#000000" font-family="Verdana" font-size="13" lengthAdjust="spacing" textLength="99" x="456.5" y="589.8735">CustID BIGINT,</text><text fill="#000000" font-family="Verdana" font-size="13" lengthAdjust="spacing" textLength="184" x="456.5" y="605.6729">ScanSpecialLicSubType INT</text><text fill="#000000" font-family="Verdana" font-size="13" lengthAdjust="spacing" textLength="12" x="446.5" y="621.4722">);</text><rect fill="#FFFFFF" height="34.584" rx="12.5" ry="12.5" style="stroke:#000000;stroke-width:1.0;" width="168" x="252.5" y="575.311"/><text fill="#000000" font-family="Verdana" font-size="12" lengthAdjust="spacing" textLength="148" x="262.5" y="597.3755">Create temporary table</text><path d="M421,664.2017 L421,767.8972 L401,771.8972 L421,775.8972 L421,879.5928 A0,0 0 0 0 421,879.5928 L964,879.5928 A0,0 0 0 0 964,879.5928 L964,674.2017 L954,664.2017 L421,664.2017 A0,0 0 0 0 421,664.2017 " fill="#FFFFFF" style="stroke:#000000;stroke-width:1.0;"/><path d="M954,664.2017 L954,674.2017 L964,674.2017 L954,664.2017 " fill="#FFFFFF" style="stroke:#000000;stroke-width:1.0;"/><text fill="#000000" font-family="Verdana" font-size="13" lengthAdjust="spacing" textLength="159" x="427" y="682.2715">MySQL JSON Functions:</text><text fill="#000000" font-family="Verdana" font-size="13" lengthAdjust="spacing" textLength="5" x="427" y="698.0708">&#160;</text><text fill="#000000" font-family="Verdana" font-size="13" lengthAdjust="spacing" textLength="191" x="427" y="713.8701">INSERT INTO Temp_CustInfo</text><text fill="#000000" font-family="Verdana" font-size="13" lengthAdjust="spacing" textLength="50" x="427" y="729.6694">SELECT</text><text fill="#000000" font-family="Verdana" font-size="13" lengthAdjust="spacing" textLength="293" x="437" y="745.4688">JSON_EXTRACT(item, '$.CustID') AS CustID,</text><text fill="#000000" font-family="Verdana" font-size="13" lengthAdjust="spacing" textLength="512" x="437" y="761.2681">JSON_EXTRACT(item, '$.ScanSpecialLicSubType') AS ScanSpecialLicSubType</text><text fill="#000000" font-family="Verdana" font-size="13" lengthAdjust="spacing" textLength="131" x="427" y="777.0674">FROM JSON_TABLE(</text><text fill="#000000" font-family="Verdana" font-size="13" lengthAdjust="spacing" textLength="93" x="437" y="792.8667">@ip_CustInfo,</text><text fill="#000000" font-family="Verdana" font-size="13" lengthAdjust="spacing" textLength="126" x="447" y="808.666">item JSON PATH '$'</text><text fill="#000000" font-family="Verdana" font-size="13" lengthAdjust="spacing" textLength="6" x="437" y="824.4653">)</text><text fill="#000000" font-family="Verdana" font-size="13" lengthAdjust="spacing" textLength="84" x="427" y="840.2646">) AS parsed;</text><text fill="#000000" font-family="Verdana" font-size="13" lengthAdjust="spacing" textLength="5" x="427" y="856.064">&#160;</text><text fill="#000000" font-family="Verdana" font-size="13" lengthAdjust="spacing" textLength="227" x="427" y="871.8633">Or using loop with JSON_EXTRACT</text><rect fill="#FFFFFF" height="34.584" rx="12.5" ry="12.5" style="stroke:#000000;stroke-width:1.0;" width="129" x="272" y="754.6052"/><text fill="#000000" font-family="Verdana" font-size="12" lengthAdjust="spacing" textLength="109" x="282" y="776.6697">Parse JSON array</text><rect fill="#FFFFFF" height="509.3955" style="stroke:#000000;stroke-width:1.0;" width="619" x="239.5" y="934.5928"/><path d="M502.5,934.5928 L502.5,944.6074 L492.5,954.6074 L239.5,954.6074 " fill="none" style="stroke:#000000;stroke-width:1.0;"/><text fill="#000000" font-family="Verdana" font-size="14" lengthAdjust="spacing" textLength="253" x="242.5" y="949.668">Get Current Customer Classification</text><path d="M443.5,971.6074 L443.5,1193.7979 L423.5,1197.7979 L443.5,1201.7979 L443.5,1423.9883 A0,0 0 0 0 443.5,1423.9883 L848.5,1423.9883 A0,0 0 0 0 848.5,1423.9883 L848.5,981.6074 L838.5,971.6074 L443.5,971.6074 A0,0 0 0 0 443.5,971.6074 " fill="#FFFFFF" style="stroke:#000000;stroke-width:1.0;"/><path d="M838.5,971.6074 L838.5,981.6074 L848.5,981.6074 L838.5,971.6074 " fill="#FFFFFF" style="stroke:#000000;stroke-width:1.0;"/><text fill="#000000" font-family="Verdana" font-size="13" lengthAdjust="spacing" textLength="50" x="449.5" y="989.6772">SELECT</text><text fill="#000000" font-family="Verdana" font-size="13" lengthAdjust="spacing" textLength="68" x="459.5" y="1005.4766">tc.CustID,</text><text fill="#000000" font-family="Verdana" font-size="13" lengthAdjust="spacing" textLength="100" x="459.5" y="1021.2759">cc.CategoryID,</text><text fill="#000000" font-family="Verdana" font-size="13" lengthAdjust="spacing" textLength="35" x="459.5" y="1037.0752">CASE</text><text fill="#000000" font-family="Verdana" font-size="13" lengthAdjust="spacing" textLength="302" x="469.5" y="1052.8745">WHEN cc.CreatedDate &gt;= CURDATE() THEN 1</text><text fill="#000000" font-family="Verdana" font-size="13" lengthAdjust="spacing" textLength="45" x="469.5" y="1068.6738">ELSE 0</text><text fill="#000000" font-family="Verdana" font-size="13" lengthAdjust="spacing" textLength="151" x="459.5" y="1084.4731">END AS IsNewCreated,</text><text fill="#000000" font-family="Verdana" font-size="13" lengthAdjust="spacing" textLength="35" x="459.5" y="1100.2725">CASE</text><text fill="#000000" font-family="Verdana" font-size="13" lengthAdjust="spacing" textLength="327" x="469.5" y="1116.0718">WHEN cc.ProbationEndDate = CURDATE() THEN 1</text><text fill="#000000" font-family="Verdana" font-size="13" lengthAdjust="spacing" textLength="45" x="469.5" y="1131.8711">ELSE 0</text><text fill="#000000" font-family="Verdana" font-size="13" lengthAdjust="spacing" textLength="186" x="459.5" y="1147.6704">END AS IsProbationLastDay,</text><text fill="#000000" font-family="Verdana" font-size="13" lengthAdjust="spacing" textLength="35" x="459.5" y="1163.4697">CASE</text><text fill="#000000" font-family="Verdana" font-size="13" lengthAdjust="spacing" textLength="246" x="469.5" y="1179.269">WHEN tc.ScanSpecialLicSubType = 1</text><text fill="#000000" font-family="Verdana" font-size="13" lengthAdjust="spacing" textLength="359" x="474.5" y="1195.0684">AND cc.SpecialLicSubCategoryID IS NOT NULL THEN 1</text><text fill="#000000" font-family="Verdana" font-size="13" lengthAdjust="spacing" textLength="45" x="469.5" y="1210.8677">ELSE 0</text><text fill="#000000" font-family="Verdana" font-size="13" lengthAdjust="spacing" textLength="174" x="459.5" y="1226.667">END AS IsSpecialLicSubCC</text><text fill="#000000" font-family="Verdana" font-size="13" lengthAdjust="spacing" textLength="124" x="449.5" y="1242.4663">INTO #TempResult</text><text fill="#000000" font-family="Verdana" font-size="13" lengthAdjust="spacing" textLength="161" x="449.5" y="1258.2656">FROM Temp_CustInfo tc</text><text fill="#000000" font-family="Verdana" font-size="13" lengthAdjust="spacing" textLength="268" x="449.5" y="1274.0649">LEFT JOIN CTSCustomerClassification cc</text><text fill="#000000" font-family="Verdana" font-size="13" lengthAdjust="spacing" textLength="176" x="459.5" y="1289.8643">ON tc.CustID = cc.CustId;</text><text fill="#000000" font-family="Verdana" font-size="13" lengthAdjust="spacing" textLength="5" x="449.5" y="1305.6636">&#160;</text><text fill="#000000" font-family="Verdana" font-size="13" font-weight="bold" lengthAdjust="spacing" textLength="47" x="449.5" y="1321.4629">Tables</text><text fill="#000000" font-family="Verdana" font-size="13" lengthAdjust="spacing" textLength="6" x="496.5" y="1321.4629">:</text><text fill="#000000" font-family="Verdana" font-size="13" lengthAdjust="spacing" textLength="377" x="449.5" y="1337.2622">- CTSCustomerClassification: Current customer category</text><text fill="#000000" font-family="Verdana" font-size="13" lengthAdjust="spacing" textLength="90" x="459.5" y="1353.0615">* CustId (PK)</text><text fill="#000000" font-family="Verdana" font-size="13" lengthAdjust="spacing" textLength="267" x="459.5" y="1368.8608">* CategoryID (FK to CustomerCategory)</text><text fill="#000000" font-family="Verdana" font-size="13" lengthAdjust="spacing" textLength="268" x="459.5" y="1384.6602">* CreatedDate (First classification date)</text><text fill="#000000" font-family="Verdana" font-size="13" lengthAdjust="spacing" textLength="302" x="459.5" y="1400.4595">* ProbationEndDate (End of probation period)</text><text fill="#000000" font-family="Verdana" font-size="13" lengthAdjust="spacing" textLength="364" x="459.5" y="1416.2588">* SpecialLicSubCategoryID (Special licensee category)</text><rect fill="#FFFFFF" height="34.584" rx="12.5" ry="12.5" style="stroke:#000000;stroke-width:1.0;" width="174" x="249.5" y="1180.5059"/><text fill="#000000" font-family="Verdana" font-size="12" lengthAdjust="spacing" textLength="154" x="259.5" y="1202.5703">Query classification data</text><rect fill="#FFFFFF" height="288.2051" style="stroke:#000000;stroke-width:1.0;" width="446" x="267" y="1478.9883"/><path d="M475,1478.9883 L475,1489.0029 L465,1499.0029 L267,1499.0029 " fill="none" style="stroke:#000000;stroke-width:1.0;"/><text fill="#000000" font-family="Verdana" font-size="14" lengthAdjust="spacing" textLength="198" x="270" y="1494.0635">Calculate Classification Flags</text><path d="M416,1516.0029 L416,1627.5981 L396,1631.5981 L416,1635.5981 L416,1747.1934 A0,0 0 0 0 416,1747.1934 L703,1747.1934 A0,0 0 0 0 703,1747.1934 L703,1526.0029 L693,1516.0029 L416,1516.0029 A0,0 0 0 0 416,1516.0029 " fill="#FFFFFF" style="stroke:#000000;stroke-width:1.0;"/><path d="M693,1516.0029 L693,1526.0029 L703,1526.0029 L693,1516.0029 " fill="#FFFFFF" style="stroke:#000000;stroke-width:1.0;"/><text fill="#000000" font-family="Verdana" font-size="13" font-weight="bold" lengthAdjust="spacing" textLength="103" x="422" y="1534.0728">IsNewCreated</text><text fill="#000000" font-family="Verdana" font-size="13" lengthAdjust="spacing" textLength="6" x="525" y="1534.0728">:</text><text fill="#000000" font-family="Verdana" font-size="13" lengthAdjust="spacing" textLength="208" x="422" y="1549.8721">- True if CreatedDate = TODAY</text><text fill="#000000" font-family="Verdana" font-size="13" lengthAdjust="spacing" textLength="229" x="422" y="1565.6714">- Indicates first-time classification</text><text fill="#000000" font-family="Verdana" font-size="13" lengthAdjust="spacing" textLength="262" x="422" y="1581.4707">- May trigger welcome/onboarding logic</text><text fill="#000000" font-family="Verdana" font-size="13" lengthAdjust="spacing" textLength="5" x="422" y="1597.27">&#160;</text><text fill="#000000" font-family="Verdana" font-size="13" font-weight="bold" lengthAdjust="spacing" textLength="143" x="422" y="1613.0693">IsProbationLastDay</text><text fill="#000000" font-family="Verdana" font-size="13" lengthAdjust="spacing" textLength="6" x="565" y="1613.0693">:</text><text fill="#000000" font-family="Verdana" font-size="13" lengthAdjust="spacing" textLength="242" x="422" y="1628.8687">- True if ProbationEndDate = TODAY</text><text fill="#000000" font-family="Verdana" font-size="13" lengthAdjust="spacing" textLength="199" x="422" y="1644.668">- Last day of probation period</text><text fill="#000000" font-family="Verdana" font-size="13" lengthAdjust="spacing" textLength="243" x="422" y="1660.4673">- Triggers probation completion logic</text><text fill="#000000" font-family="Verdana" font-size="13" lengthAdjust="spacing" textLength="5" x="422" y="1676.2666">&#160;</text><text fill="#000000" font-family="Verdana" font-size="13" font-weight="bold" lengthAdjust="spacing" textLength="133" x="422" y="1692.0659">IsSpecialLicSubCC</text><text fill="#000000" font-family="Verdana" font-size="13" lengthAdjust="spacing" textLength="6" x="555" y="1692.0659">:</text><text fill="#000000" font-family="Verdana" font-size="13" lengthAdjust="spacing" textLength="256" x="422" y="1707.8652">- True if has special licensee sub-type</text><text fill="#000000" font-family="Verdana" font-size="13" lengthAdjust="spacing" textLength="249" x="422" y="1723.6646">- AND SpecialLicSubCategoryID is set</text><text fill="#000000" font-family="Verdana" font-size="13" lengthAdjust="spacing" textLength="266" x="422" y="1739.4639">- Requires special classification handling</text><rect fill="#FFFFFF" height="34.584" rx="12.5" ry="12.5" style="stroke:#000000;stroke-width:1.0;" width="119" x="277" y="1614.3062"/><text fill="#000000" font-family="Verdana" font-size="12" lengthAdjust="spacing" textLength="99" x="287" y="1636.3706">Determine flags</text><rect fill="#FFFFFF" height="310.3911" style="stroke:#000000;stroke-width:1.0;" width="459" x="259.5" y="1802.1934"/><path d="M395.5,1802.1934 L395.5,1812.208 L385.5,1822.208 L259.5,1822.208 " fill="none" style="stroke:#000000;stroke-width:1.0;"/><text fill="#000000" font-family="Verdana" font-size="14" lengthAdjust="spacing" textLength="126" x="262.5" y="1817.2686">Return Result Set</text><path d="M423.5,1839.208 L423.5,1927.1042 L403.5,1931.1042 L423.5,1935.1042 L423.5,2023.0005 A0,0 0 0 0 423.5,2023.0005 L708.5,2023.0005 A0,0 0 0 0 708.5,2023.0005 L708.5,1849.208 L698.5,1839.208 L423.5,1839.208 A0,0 0 0 0 423.5,1839.208 " fill="#FFFFFF" style="stroke:#000000;stroke-width:1.0;"/><path d="M698.5,1839.208 L698.5,1849.208 L708.5,1849.208 L698.5,1839.208 " fill="#FFFFFF" style="stroke:#000000;stroke-width:1.0;"/><text fill="#000000" font-family="Verdana" font-size="13" lengthAdjust="spacing" textLength="50" x="429.5" y="1857.2778">SELECT</text><text fill="#000000" font-family="Verdana" font-size="13" lengthAdjust="spacing" textLength="49" x="439.5" y="1873.0771">CustID,</text><text fill="#000000" font-family="Verdana" font-size="13" lengthAdjust="spacing" textLength="79" x="439.5" y="1888.8765">CategoryID,</text><text fill="#000000" font-family="Verdana" font-size="13" lengthAdjust="spacing" textLength="97" x="439.5" y="1904.6758">IsNewCreated,</text><text fill="#000000" font-family="Verdana" font-size="13" lengthAdjust="spacing" textLength="132" x="439.5" y="1920.4751">IsProbationLastDay,</text><text fill="#000000" font-family="Verdana" font-size="13" lengthAdjust="spacing" textLength="120" x="439.5" y="1936.2744">IsSpecialLicSubCC</text><text fill="#000000" font-family="Verdana" font-size="13" lengthAdjust="spacing" textLength="128" x="429.5" y="1952.0737">FROM #TempResult</text><text fill="#000000" font-family="Verdana" font-size="13" lengthAdjust="spacing" textLength="120" x="429.5" y="1967.873">ORDER BY CustID;</text><text fill="#000000" font-family="Verdana" font-size="13" lengthAdjust="spacing" textLength="5" x="429.5" y="1983.6724">&#160;</text><text fill="#000000" font-family="Verdana" font-size="13" font-weight="bold" lengthAdjust="spacing" textLength="59" x="429.5" y="1999.4717">Purpose</text><text fill="#000000" font-family="Verdana" font-size="13" lengthAdjust="spacing" textLength="205" x="488.5" y="1999.4717">: Provide classification context</text><text fill="#000000" font-family="Verdana" font-size="13" lengthAdjust="spacing" textLength="180" x="429.5" y="2015.271">for each customer in batch</text><rect fill="#FFFFFF" height="34.584" rx="12.5" ry="12.5" style="stroke:#000000;stroke-width:1.0;" width="134" x="269.5" y="1913.8123"/><text fill="#000000" font-family="Verdana" font-size="12" lengthAdjust="spacing" textLength="114" x="279.5" y="1935.8767">Prepare result set</text><rect fill="#FFFFFF" height="34.584" rx="12.5" ry="12.5" style="stroke:#000000;stroke-width:1.0;" width="126" x="273.5" y="2058.0005"/><text fill="#000000" font-family="Verdana" font-size="12" lengthAdjust="spacing" textLength="106" x="283.5" y="2080.0649">Return ResultSet</text><rect fill="#FFFFFF" height="748.9873" style="stroke:#000000;stroke-width:1.0;" width="621" x="245.5" y="2147.5845"/><path d="M311.5,2147.5845 L311.5,2157.5991 L301.5,2167.5991 L245.5,2167.5991 " fill="none" style="stroke:#000000;stroke-width:1.0;"/><text fill="#000000" font-family="Verdana" font-size="14" lengthAdjust="spacing" textLength="56" x="248.5" y="2162.6597">Cleanup</text><path d="M452,2194.5991 L452,2236.1978 L822,2236.1978 L822,2204.5991 L812,2194.5991 L452,2194.5991 " fill="#FFFFFF" style="stroke:#000000;stroke-width:1.0;"/><path d="M812,2194.5991 L812,2204.5991 L822,2204.5991 L812,2194.5991 " fill="#FFFFFF" style="stroke:#000000;stroke-width:1.0;"/><text fill="#000000" font-family="Verdana" font-size="13" lengthAdjust="spacing" textLength="349" x="458" y="2212.6689">DROP TEMPORARY TABLE IF EXISTS Temp_CustInfo;</text><text fill="#000000" font-family="Verdana" font-size="13" lengthAdjust="spacing" textLength="335" x="458" y="2228.4683">DROP TEMPORARY TABLE IF EXISTS #TempResult;</text><path d="M427.5,2256.1978 L427.5,2866.5718 L846.5,2866.5718 L846.5,2266.1978 L836.5,2256.1978 L427.5,2256.1978 " fill="#FFFFFF" style="stroke:#000000;stroke-width:1.0;"/><path d="M836.5,2256.1978 L836.5,2266.1978 L846.5,2266.1978 L836.5,2256.1978 " fill="#FFFFFF" style="stroke:#000000;stroke-width:1.0;"/><text fill="#000000" font-family="Verdana" font-size="13" font-weight="bold" lengthAdjust="spacing" textLength="69" x="433.5" y="2274.2676">Key Logic</text><text fill="#000000" font-family="Verdana" font-size="13" lengthAdjust="spacing" textLength="6" x="502.5" y="2274.2676">:</text><text fill="#000000" font-family="Verdana" font-size="13" lengthAdjust="spacing" textLength="245" x="433.5" y="2290.0669">1. Parse JSON array of customer info</text><text fill="#000000" font-family="Verdana" font-size="13" lengthAdjust="spacing" textLength="398" x="433.5" y="2305.8662">2. Get current classification from CTSCustomerClassification</text><text fill="#000000" font-family="Verdana" font-size="13" lengthAdjust="spacing" textLength="180" x="433.5" y="2321.6655">3. Calculate dynamic flags:</text><text fill="#000000" font-family="Verdana" font-size="13" lengthAdjust="spacing" textLength="225" x="448.5" y="2337.4648">- IsNewCreated (first-time today)</text><text fill="#000000" font-family="Verdana" font-size="13" lengthAdjust="spacing" textLength="309" x="448.5" y="2353.2642">- IsProbationLastDay (probation ending today)</text><text fill="#000000" font-family="Verdana" font-size="13" lengthAdjust="spacing" textLength="252" x="448.5" y="2369.0635">- IsSpecialLicSubCC (special licensee)</text><text fill="#000000" font-family="Verdana" font-size="13" lengthAdjust="spacing" textLength="333" x="433.5" y="2384.8628">4. Return classification context for each customer</text><text fill="#000000" font-family="Verdana" font-size="13" lengthAdjust="spacing" textLength="5" x="433.5" y="2400.6621">&#160;</text><text fill="#000000" font-family="Verdana" font-size="13" font-weight="bold" lengthAdjust="spacing" textLength="120" x="433.5" y="2416.4614">Tables Accessed</text><text fill="#000000" font-family="Verdana" font-size="13" lengthAdjust="spacing" textLength="6" x="553.5" y="2416.4614">:</text><text fill="#000000" font-family="Verdana" font-size="13" lengthAdjust="spacing" textLength="238" x="433.5" y="2432.2607">- CTSCustomerClassification (READ)</text><text fill="#000000" font-family="Verdana" font-size="13" lengthAdjust="spacing" textLength="90" x="443.5" y="2448.0601">* CustId (PK)</text><text fill="#000000" font-family="Verdana" font-size="13" lengthAdjust="spacing" textLength="218" x="443.5" y="2463.8594">* CategoryID (Current category)</text><text fill="#000000" font-family="Verdana" font-size="13" lengthAdjust="spacing" textLength="233" x="443.5" y="2479.6587">* CreatedDate (First classification)</text><text fill="#000000" font-family="Verdana" font-size="13" lengthAdjust="spacing" textLength="239" x="443.5" y="2495.458">* ProbationEndDate (Probation end)</text><text fill="#000000" font-family="Verdana" font-size="13" lengthAdjust="spacing" textLength="306" x="443.5" y="2511.2573">* SpecialLicSubCategoryID (Special category)</text><text fill="#000000" font-family="Verdana" font-size="13" lengthAdjust="spacing" textLength="5" x="433.5" y="2527.0566">&#160;</text><text fill="#000000" font-family="Verdana" font-size="13" font-weight="bold" lengthAdjust="spacing" textLength="189" x="433.5" y="2542.856">Classification Flags Usage</text><text fill="#000000" font-family="Verdana" font-size="13" lengthAdjust="spacing" textLength="6" x="622.5" y="2542.856">:</text><text fill="#000000" font-family="Verdana" font-size="13" lengthAdjust="spacing" textLength="7" x="433.5" y="2558.6553">-</text><text fill="#000000" font-family="Verdana" font-size="13" font-weight="bold" lengthAdjust="spacing" textLength="103" x="445.5" y="2558.6553">IsNewCreated</text><text fill="#000000" font-family="Verdana" font-size="13" lengthAdjust="spacing" textLength="140" x="548.5" y="2558.6553">: New customer logic</text><text fill="#000000" font-family="Verdana" font-size="13" lengthAdjust="spacing" textLength="204" x="443.5" y="2574.4546">* First-time classification rules</text><text fill="#000000" font-family="Verdana" font-size="13" lengthAdjust="spacing" textLength="132" x="443.5" y="2590.2539">* Welcome bonuses</text><text fill="#000000" font-family="Verdana" font-size="13" lengthAdjust="spacing" textLength="159" x="443.5" y="2606.0532">* Initial risk assessment</text><text fill="#000000" font-family="Verdana" font-size="13" lengthAdjust="spacing" textLength="5" x="433.5" y="2621.8525">&#160;</text><text fill="#000000" font-family="Verdana" font-size="13" lengthAdjust="spacing" textLength="7" x="433.5" y="2637.6519">-</text><text fill="#000000" font-family="Verdana" font-size="13" font-weight="bold" lengthAdjust="spacing" textLength="143" x="445.5" y="2637.6519">IsProbationLastDay</text><text fill="#000000" font-family="Verdana" font-size="13" lengthAdjust="spacing" textLength="149" x="588.5" y="2637.6519">: Probation completion</text><text fill="#000000" font-family="Verdana" font-size="13" lengthAdjust="spacing" textLength="179" x="443.5" y="2653.4512">* Remove probation status</text><text fill="#000000" font-family="Verdana" font-size="13" lengthAdjust="spacing" textLength="215" x="443.5" y="2669.2505">* Apply permanent classification</text><text fill="#000000" font-family="Verdana" font-size="13" lengthAdjust="spacing" textLength="141" x="443.5" y="2685.0498">* Update permissions</text><text fill="#000000" font-family="Verdana" font-size="13" lengthAdjust="spacing" textLength="5" x="433.5" y="2700.8491">&#160;</text><text fill="#000000" font-family="Verdana" font-size="13" lengthAdjust="spacing" textLength="7" x="433.5" y="2716.6484">-</text><text fill="#000000" font-family="Verdana" font-size="13" font-weight="bold" lengthAdjust="spacing" textLength="133" x="445.5" y="2716.6484">IsSpecialLicSubCC</text><text fill="#000000" font-family="Verdana" font-size="13" lengthAdjust="spacing" textLength="117" x="578.5" y="2716.6484">: Special handling</text><text fill="#000000" font-family="Verdana" font-size="13" lengthAdjust="spacing" textLength="219" x="443.5" y="2732.4478">* Special licensee sub-type logic</text><text fill="#000000" font-family="Verdana" font-size="13" lengthAdjust="spacing" textLength="197" x="443.5" y="2748.2471">* Different classification rules</text><text fill="#000000" font-family="Verdana" font-size="13" lengthAdjust="spacing" textLength="178" x="443.5" y="2764.0464">* Compliance requirements</text><text fill="#000000" font-family="Verdana" font-size="13" lengthAdjust="spacing" textLength="5" x="433.5" y="2779.8457">&#160;</text><text fill="#000000" font-family="Verdana" font-size="13" font-weight="bold" lengthAdjust="spacing" textLength="93" x="433.5" y="2795.645">Performance</text><text fill="#000000" font-family="Verdana" font-size="13" lengthAdjust="spacing" textLength="6" x="526.5" y="2795.645">:</text><text fill="#000000" font-family="Verdana" font-size="13" lengthAdjust="spacing" textLength="259" x="433.5" y="2811.4443">- JSON parsing: Fast with JSON_TABLE</text><text fill="#000000" font-family="Verdana" font-size="13" lengthAdjust="spacing" textLength="359" x="433.5" y="2827.2437">- LEFT JOIN: Handles new customers (NULL category)</text><text fill="#000000" font-family="Verdana" font-size="13" lengthAdjust="spacing" textLength="204" x="433.5" y="2843.043">- Index on CustId: Fast lookup</text><text fill="#000000" font-family="Verdana" font-size="13" lengthAdjust="spacing" textLength="341" x="433.5" y="2858.8423">- Batch processing: Efficient for multiple customers</text><rect fill="#FFFFFF" height="34.584" rx="12.5" ry="12.5" style="stroke:#000000;stroke-width:1.0;" width="162" x="255.5" y="2513.2935"/><text fill="#000000" font-family="Verdana" font-size="12" lengthAdjust="spacing" textLength="142" x="265.5" y="2535.3579">Drop temporary tables</text><ellipse cx="336.5" cy="2942.5718" fill="none" rx="11" ry="11" style="stroke:#000000;stroke-width:1.0;"/><ellipse cx="336.5" cy="2942.5718" fill="#FFFFFF" rx="6" ry="6" style="stroke:#000000;stroke-width:1.0;"/><line style="stroke:#000000;stroke-width:1.0;" x1="336.5" x2="336.5" y1="164.7813" y2="219.7813"/><polygon fill="#000000" points="332.5,209.7813,336.5,219.7813,340.5,209.7813,336.5,213.7813" style="stroke:#000000;stroke-width:1.0;"/><line style="stroke:#000000;stroke-width:1.0;" x1="336.5" x2="336.5" y1="239.7813" y2="370.6008"/><polygon fill="#000000" points="332.5,360.6008,336.5,370.6008,340.5,360.6008,336.5,364.6008" style="stroke:#000000;stroke-width:1.0;"/><line style="stroke:#000000;stroke-width:1.0;" x1="336.5" x2="336.5" y1="609.895" y2="754.6052"/><polygon fill="#000000" points="332.5,744.6052,336.5,754.6052,340.5,744.6052,336.5,748.6052" style="stroke:#000000;stroke-width:1.0;"/><line style="stroke:#000000;stroke-width:1.0;" x1="336.5" x2="336.5" y1="405.1848" y2="575.311"/><polygon fill="#000000" points="332.5,565.311,336.5,575.311,340.5,565.311,336.5,569.311" style="stroke:#000000;stroke-width:1.0;"/><line style="stroke:#000000;stroke-width:1.0;" x1="336.5" x2="336.5" y1="789.1892" y2="1180.5059"/><polygon fill="#000000" points="332.5,1170.5059,336.5,1180.5059,340.5,1170.5059,336.5,1174.5059" style="stroke:#000000;stroke-width:1.0;"/><line style="stroke:#000000;stroke-width:1.0;" x1="336.5" x2="336.5" y1="1215.0898" y2="1614.3062"/><polygon fill="#000000" points="332.5,1604.3062,336.5,1614.3062,340.5,1604.3062,336.5,1608.3062" style="stroke:#000000;stroke-width:1.0;"/><line style="stroke:#000000;stroke-width:1.0;" x1="336.5" x2="336.5" y1="1948.3962" y2="2058.0005"/><polygon fill="#000000" points="332.5,2048.0005,336.5,2058.0005,340.5,2048.0005,336.5,2052.0005" style="stroke:#000000;stroke-width:1.0;"/><line style="stroke:#000000;stroke-width:1.0;" x1="336.5" x2="336.5" y1="1648.8901" y2="1913.8123"/><polygon fill="#000000" points="332.5,1903.8123,336.5,1913.8123,340.5,1903.8123,336.5,1907.8123" style="stroke:#000000;stroke-width:1.0;"/><line style="stroke:#000000;stroke-width:1.0;" x1="336.5" x2="336.5" y1="2092.5845" y2="2513.2935"/><polygon fill="#000000" points="332.5,2503.2935,336.5,2513.2935,340.5,2503.2935,336.5,2507.2935" style="stroke:#000000;stroke-width:1.0;"/><line style="stroke:#000000;stroke-width:1.0;" x1="336.5" x2="336.5" y1="2547.8774" y2="2931.5718"/><polygon fill="#000000" points="332.5,2921.5718,336.5,2931.5718,340.5,2921.5718,336.5,2925.5718" style="stroke:#000000;stroke-width:1.0;"/><!--SRC=[dLTjRziu3FwUNy7h3MWIDBbsszs753jSQZjRjZJ9R1VRC0o5wYYfS7uxILuN3FllHzcoBJlEMgmV6jiYAVBXGrBwJTxJY48Q4XRt99CX1Kycd6vWpPE0RZ9E9s3vtgrjtLgPa5P8X61R5X39alXscV28XBUlgRGopcaiBIBfBk5x685D9M4XMfg5oKEl5n2-WPFXq5l_ai7Xy0I806yDtti0d0QIn3lq5YtQH98x8kXmg2tZkuMgb4F_Uk-zNmnoLVkghUYpY2QPL7elpiz1q229Do8Nrakz7xsUa8JBNY_5_qpv22VpECqah0ad4SLTK4FvD75fGDbN2l-mD0zj7cyJwB_rLil19Qx7YQJ0sUvUuelwgmnC6YfwTQQGa1DG-Z3bdEprWlvnlf4e3Ub4ltxMlm3VJt9Bzia4Bfw_E8CJBo2nbzA0aN310Y-xy_SfnTNp7sTTIY___EidIXU6qdWyrizVy9V6cpn6XPa15aOfQ165Iep6ok8K4mkIHcd22V85KnZIJfWirvdw3lZEzNhbJjrFu4-l5lYEgWRCbLD5770rVprV-hMldV40YcY9F4LL23dA4yDreXBGwLxEi49ebiM12bfCcgcQBpt7zTLcgwRRUjrp5exbG-MhCdRhVFJTgUNt6M9q1gVFnaLWfmEOUZh8iqSqEcCk37GkbSnpLzU5nHpf6bgJfVNUfyy-3x-SWhLQt5mllLeQG3bI8BEU-czGyBHQ79ImAsTIXVFciWdQYaCcMBo3C4bIU63olX7bSS9Xxm3TF7ASaWWRGRFDQ1A-poWoBsWimGP9sfdeTfPaC6wd8S1Fkb-Pdwsfvu21ouStpZANpOjWOwjA-FiLM3UkZKpl3y1N0XU6XhD02-VL1sTfAzpcOaaVj977TyE6VfU7wCJ5bh-qOsLbGOIqoVwHVH6axifx1HUcC4nn0tIo8LXZ2NCFbYiVbZUBnTDzRHgpgch4ClnTrQ5BHHPAa_NDfY83lRPmPZwyNSsNQhwKd6fI2fsl75WjQt9We85-RZCS1v1gUWBdZ_uoEcv_Kd4wA3aTQ7YgVOT5NzX0V_rkO7wjSUpFte5CgheeLnhI1YlxCyQ5x2WHQceSCAkF3v1i8IqN8AMS9HjJwLYc-te1GXRGM51QnJauNlCM2OCiL5ktiZ8BoQwSpxQQjH6BAMpLryuY7mxDeZ8pu_EC0jisu7a5_igUVgfavl56RKm5R1Lk8ucdY1PubUmrmQ67M-ymamyq330TVoJnNOB7fABhxLZGvijX-NLvs57eJJULBYPntvKYmrhkcp0aq4SySUIFHznhLLoNT_TukXBj58liRYJh2JJAsy4nXZ0qG6KbwjB_CiPfRRN5rdiIRqA4z3XxN2ep7aFH3i2ZKXDcpIbA8K6A1TpqIOEXFHMwHa9tw_vPUptMplA-TTZELgxjk73rINjpq7hM6K-JuioCUtvbcpPHCTjuXFvMsjic72W9xklsms90LuFxmtDJ0qzFeTQgrf2IE4lBikGutri7mUxYjDtL-k0SE9-1yt7k-LwpULy-JSS0xh95aCRsm-4xkeU5Odr1weinj8-7gfmCTFBZtVCngFD8KFRk9iHRdaJ7MpwglnX3tTes-vX4B2YwbowiKOD9q3VwZaomn0UrM9jQqAyh6-DMJQUjqc8SzDk5gsHVZa4dl9j0XzGfQ5AEFvW60HMYxBO_cO7Gnwk0NVXtEEkQSwwQbeq9zuJfLWeU3hMr2LSfzkWOCnt8e-wQK70Zo8wM01mC8S2tcbfrxnt2xDYS0PuXjbhgGp5Vu2w9Cr5zdSTOZ-WXP-9VlFFYWeWGiiBFqR5nKmDZp0DjqQLHWXVWcbTuTvPPkTyqJSEz6ZCHYG-BGGlTfEfqaKinNCNBbEdFuNmf4s2sUIClXoEc0P_DjblQLPacUfOAav4uK9CWdpKA9b7cSqtvLjtLSRrCODuJrAq6_Pd0J8tR-WAJjw1Sh3fMJk2DyXvh8JOIBQ2VdtTD1kLd3FeDqCM2_zeyNfB-pT9Su4erPPK3LLMv0yuMus8gIbMA4VOwXdchz-bLRQ-7NzBU_m00]--></g></svg>