<svg xmlns="http://www.w3.org/2000/svg" xmlns:xlink="http://www.w3.org/1999/xlink" contentStyleType="text/css" height="2675px" preserveAspectRatio="none" style="width:887px;height:2675px;background:#FFFFFF;" version="1.1" viewBox="0 0 887 2675" width="887px" zoomAndPan="magnify"><defs/><g><text fill="#000000" font-family="Verdana" font-size="22" font-weight="bold" lengthAdjust="spacing" textLength="647" x="118.625" y="37.1182">Normal Account Classification - Main Business Flow</text><ellipse cx="304.75" cy="62.7373" fill="#FFFFFF" rx="10" ry="10" style="stroke:#000000;stroke-width:1.0;"/><path d="M418.25,89.23 L418.25,106.0293 L398.25,110.0293 L418.25,114.0293 L418.25,130.8286 A0,0 0 0 0 418.25,130.8286 L842.25,130.8286 A0,0 0 0 0 842.25,130.8286 L842.25,99.23 L832.25,89.23 L418.25,89.23 A0,0 0 0 0 418.25,89.23 " fill="#FFFFFF" style="stroke:#000000;stroke-width:1.0;"/><path d="M832.25,89.23 L832.25,99.23 L842.25,99.23 L832.25,89.23 " fill="#FFFFFF" style="stroke:#000000;stroke-width:1.0;"/><text fill="#000000" font-family="Verdana" font-size="13" lengthAdjust="spacing" textLength="403" x="424.25" y="107.2998">Endpoint: /api/classificationJobs/normalAccountClassification</text><text fill="#000000" font-family="Verdana" font-size="13" lengthAdjust="spacing" textLength="327" x="424.25" y="123.0991">Parameter: batchInternalSize (int, default: 5000)</text><rect fill="#FFFFFF" height="34.584" rx="12.5" ry="12.5" style="stroke:#000000;stroke-width:1.0;" width="187" x="211.25" y="92.7373"/><text fill="#000000" font-family="Verdana" font-size="12" lengthAdjust="spacing" textLength="167" x="221.25" y="114.8018">Job Triggered (HTTP POST)</text><rect fill="#FFFFFF" height="34.584" rx="12.5" ry="12.5" style="stroke:#000000;stroke-width:1.0;" width="436" x="86.75" y="150.8286"/><text fill="#000000" font-family="Verdana" font-size="12" lengthAdjust="spacing" textLength="416" x="96.75" y="172.8931">NormalAccountClassificationJobService.Execute(batchInternalSize)</text><polygon fill="#FFFFFF" points="238.25,205.4126,371.25,205.4126,383.25,217.4126,371.25,229.4126,238.25,229.4126,226.25,217.4126,238.25,205.4126" style="stroke:#000000;stroke-width:1.0;"/><text fill="#000000" font-family="Verdana" font-size="11" lengthAdjust="spacing" textLength="133" x="238.25" y="221.7874">batchInternalSize &lt;= 0</text><text fill="#000000" font-family="Verdana" font-size="11" lengthAdjust="spacing" textLength="20" x="206.25" y="215.103">yes</text><text fill="#000000" font-family="Verdana" font-size="11" lengthAdjust="spacing" textLength="14" x="383.25" y="215.103">no</text><path d="M231,243.8049 L231,252.7046 L211,256.7046 L231,260.7046 L231,269.6042 A0,0 0 0 0 231,269.6042 L372,269.6042 A0,0 0 0 0 372,269.6042 L372,253.8049 L362,243.8049 L231,243.8049 A0,0 0 0 0 231,243.8049 " fill="#FFFFFF" style="stroke:#000000;stroke-width:1.0;"/><path d="M362,243.8049 L362,253.8049 L372,253.8049 L362,243.8049 " fill="#FFFFFF" style="stroke:#000000;stroke-width:1.0;"/><text fill="#000000" font-family="Verdana" font-size="13" lengthAdjust="spacing" textLength="120" x="237" y="261.8748">Default batch size</text><rect fill="#FFFFFF" height="34.584" rx="12.5" ry="12.5" style="stroke:#000000;stroke-width:1.0;" width="205" x="6" y="239.4126"/><text fill="#000000" font-family="Verdana" font-size="12" lengthAdjust="spacing" textLength="185" x="16" y="261.4771">Set batchInternalSize = 5000</text><rect fill="#FFFFFF" height="34.584" rx="12.5" ry="12.5" style="stroke:#000000;stroke-width:1.0;" width="218" x="392" y="239.4126"/><text fill="#000000" font-family="Verdana" font-size="12" lengthAdjust="spacing" textLength="198" x="402" y="261.4771">Use provided batchInternalSize</text><polygon fill="#FFFFFF" points="304.75,279.9966,316.75,291.9966,304.75,303.9966,292.75,291.9966,304.75,279.9966" style="stroke:#000000;stroke-width:1.0;"/><rect fill="#FFFFFF" height="34.584" rx="12.5" ry="12.5" style="stroke:#000000;stroke-width:1.0;" width="191" x="209.25" y="323.9966"/><text fill="#000000" font-family="Verdana" font-size="12" lengthAdjust="spacing" textLength="171" x="219.25" y="346.061">GetNormalPoolCustomers()</text><path d="M521.25,368.5806 L521.25,503.8748 L501.25,507.8748 L521.25,511.8748 L521.25,647.1689 A0,0 0 0 0 521.25,647.1689 L853.25,647.1689 A0,0 0 0 0 853.25,647.1689 L853.25,378.5806 L843.25,368.5806 L521.25,368.5806 A0,0 0 0 0 521.25,368.5806 " fill="#FFFFFF" style="stroke:#000000;stroke-width:1.0;"/><path d="M843.25,368.5806 L843.25,378.5806 L853.25,378.5806 L843.25,368.5806 " fill="#FFFFFF" style="stroke:#000000;stroke-width:1.0;"/><text fill="#000000" font-family="Verdana" font-size="13" lengthAdjust="spacing" textLength="267" x="527.25" y="386.6504">Database: bodb_VR2Model (SQL Server)</text><text fill="#000000" font-family="Verdana" font-size="13" lengthAdjust="spacing" textLength="147" x="527.25" y="402.4497">Timeout: 300 seconds</text><text fill="#000000" font-family="Verdana" font-size="13" lengthAdjust="spacing" textLength="5" x="527.25" y="418.249">&#160;</text><text fill="#000000" font-family="Verdana" font-size="13" lengthAdjust="spacing" textLength="80" x="527.25" y="434.0483">Parameters:</text><text fill="#000000" font-family="Verdana" font-size="13" lengthAdjust="spacing" textLength="192" x="527.25" y="449.8477">- @ScannedMaxId (OUTPUT)</text><text fill="#000000" font-family="Verdana" font-size="13" lengthAdjust="spacing" textLength="5" x="527.25" y="465.647">&#160;</text><text fill="#000000" font-family="Verdana" font-size="13" lengthAdjust="spacing" textLength="40" x="527.25" y="481.4463">Logic:</text><text fill="#000000" font-family="Verdana" font-size="13" lengthAdjust="spacing" textLength="311" x="527.25" y="497.2456">- Get unprocessed customers from Normal Pool</text><text fill="#000000" font-family="Verdana" font-size="13" lengthAdjust="spacing" textLength="216" x="527.25" y="513.0449">- Order by Priority DESC, ID ASC</text><text fill="#000000" font-family="Verdana" font-size="13" lengthAdjust="spacing" textLength="200" x="527.25" y="528.8442">- Return customer info + flags</text><text fill="#000000" font-family="Verdana" font-size="13" lengthAdjust="spacing" textLength="5" x="527.25" y="544.6436">&#160;</text><text fill="#000000" font-family="Verdana" font-size="13" lengthAdjust="spacing" textLength="56" x="527.25" y="560.4429">Returns:</text><text fill="#000000" font-family="Verdana" font-size="13" lengthAdjust="spacing" textLength="55" x="527.25" y="576.2422">- CustId</text><text fill="#000000" font-family="Verdana" font-size="13" lengthAdjust="spacing" textLength="108" x="527.25" y="592.0415">- IsRealtimeOnly</text><text fill="#000000" font-family="Verdana" font-size="13" lengthAdjust="spacing" textLength="130" x="527.25" y="607.8408">- ScanTaggingType</text><text fill="#000000" font-family="Verdana" font-size="13" lengthAdjust="spacing" textLength="168" x="527.25" y="623.6401">- ScanSpecialLicSubType</text><text fill="#000000" font-family="Verdana" font-size="13" lengthAdjust="spacing" textLength="179" x="527.25" y="639.4395">- ScannedMaxId (OUTPUT)</text><rect fill="#FFFFFF" height="34.584" rx="12.5" ry="12.5" style="stroke:#000000;stroke-width:1.0;" width="393" x="108.25" y="490.5828"/><text fill="#000000" font-family="Verdana" font-size="12" lengthAdjust="spacing" textLength="373" x="118.25" y="512.6472">Call CTS_GeneralNormalClassification_NormalPool_Get [SP]</text><path d="M38.25,657.1689 L38.25,682.9683 L246.25,682.9683 L246.25,667.1689 L236.25,657.1689 L38.25,657.1689 " fill="#FFFFFF" style="stroke:#000000;stroke-width:1.0;"/><path d="M236.25,657.1689 L236.25,667.1689 L246.25,667.1689 L236.25,657.1689 " fill="#FFFFFF" style="stroke:#000000;stroke-width:1.0;"/><text fill="#000000" font-family="Verdana" font-size="13" lengthAdjust="spacing" textLength="187" x="44.25" y="675.2388">No customers in Normal Pool</text><rect fill="#FFFFFF" height="34.584" rx="12.5" ry="12.5" style="stroke:#000000;stroke-width:1.0;" width="263" x="173.25" y="731.6526"/><text fill="#000000" font-family="Verdana" font-size="12" lengthAdjust="spacing" textLength="243" x="183.25" y="753.717">Chunk customers by batchInternalSize</text><path d="M444.25,830.8206 L444.25,855.5195 L424.25,859.5195 L444.25,863.5195 L444.25,888.2185 A0,0 0 0 0 444.25,888.2185 L633.25,888.2185 A0,0 0 0 0 633.25,888.2185 L633.25,840.8206 L623.25,830.8206 L444.25,830.8206 A0,0 0 0 0 444.25,830.8206 " fill="#FFFFFF" style="stroke:#000000;stroke-width:1.0;"/><path d="M623.25,830.8206 L623.25,840.8206 L633.25,840.8206 L623.25,830.8206 " fill="#FFFFFF" style="stroke:#000000;stroke-width:1.0;"/><text fill="#000000" font-family="Verdana" font-size="13" lengthAdjust="spacing" textLength="54" x="450.25" y="848.8904">Extract:</text><text fill="#000000" font-family="Verdana" font-size="13" lengthAdjust="spacing" textLength="56" x="450.25" y="864.6897">- CustID</text><text fill="#000000" font-family="Verdana" font-size="13" lengthAdjust="spacing" textLength="168" x="450.25" y="880.489">- ScanSpecialLicSubType</text><rect fill="#FFFFFF" height="34.584" rx="12.5" ry="12.5" style="stroke:#000000;stroke-width:1.0;" width="239" x="185.25" y="842.2275"/><text fill="#000000" font-family="Verdana" font-size="12" lengthAdjust="spacing" textLength="219" x="195.25" y="864.292">Prepare GetCurrentCCParamModel</text><rect fill="#FFFFFF" height="34.584" rx="12.5" ry="12.5" style="stroke:#000000;stroke-width:1.0;" width="277" x="166.25" y="908.2185"/><text fill="#000000" font-family="Verdana" font-size="12" lengthAdjust="spacing" textLength="257" x="176.25" y="930.283">GetCurrentCustomerCategory(custInfos)</text><rect fill="#FFFFFF" height="34.584" rx="12.5" ry="12.5" style="stroke:#000000;stroke-width:1.0;" width="188" x="210.75" y="962.8025"/><text fill="#000000" font-family="Verdana" font-size="12" lengthAdjust="spacing" textLength="168" x="220.75" y="984.8669">Serialize custInfos to JSON</text><path d="M541.75,1007.3865 L541.75,1142.6807 L521.75,1146.6807 L541.75,1150.6807 L541.75,1285.9749 A0,0 0 0 0 541.75,1285.9749 L807.75,1285.9749 A0,0 0 0 0 807.75,1285.9749 L807.75,1017.3865 L797.75,1007.3865 L541.75,1007.3865 A0,0 0 0 0 541.75,1007.3865 " fill="#FFFFFF" style="stroke:#000000;stroke-width:1.0;"/><path d="M797.75,1007.3865 L797.75,1017.3865 L807.75,1017.3865 L797.75,1007.3865 " fill="#FFFFFF" style="stroke:#000000;stroke-width:1.0;"/><text fill="#000000" font-family="Verdana" font-size="13" lengthAdjust="spacing" textLength="245" x="547.75" y="1025.4563">Database: CTS_DataCenter (MySQL)</text><text fill="#000000" font-family="Verdana" font-size="13" lengthAdjust="spacing" textLength="147" x="547.75" y="1041.2556">Timeout: 300 seconds</text><text fill="#000000" font-family="Verdana" font-size="13" lengthAdjust="spacing" textLength="5" x="547.75" y="1057.0549">&#160;</text><text fill="#000000" font-family="Verdana" font-size="13" lengthAdjust="spacing" textLength="80" x="547.75" y="1072.8542">Parameters:</text><text fill="#000000" font-family="Verdana" font-size="13" lengthAdjust="spacing" textLength="151" x="547.75" y="1088.6536">- @ip_CustInfo (JSON)</text><text fill="#000000" font-family="Verdana" font-size="13" lengthAdjust="spacing" textLength="5" x="547.75" y="1104.4529">&#160;</text><text fill="#000000" font-family="Verdana" font-size="13" lengthAdjust="spacing" textLength="40" x="547.75" y="1120.2522">Logic:</text><text fill="#000000" font-family="Verdana" font-size="13" lengthAdjust="spacing" textLength="177" x="547.75" y="1136.0515">- Parse JSON customer list</text><text fill="#000000" font-family="Verdana" font-size="13" lengthAdjust="spacing" textLength="178" x="547.75" y="1151.8508">- Get current classification</text><text fill="#000000" font-family="Verdana" font-size="13" lengthAdjust="spacing" textLength="161" x="547.75" y="1167.6501">- Get classification flags</text><text fill="#000000" font-family="Verdana" font-size="13" lengthAdjust="spacing" textLength="5" x="547.75" y="1183.4495">&#160;</text><text fill="#000000" font-family="Verdana" font-size="13" lengthAdjust="spacing" textLength="56" x="547.75" y="1199.2488">Returns:</text><text fill="#000000" font-family="Verdana" font-size="13" lengthAdjust="spacing" textLength="56" x="547.75" y="1215.0481">- CustID</text><text fill="#000000" font-family="Verdana" font-size="13" lengthAdjust="spacing" textLength="86" x="547.75" y="1230.8474">- CategoryID</text><text fill="#000000" font-family="Verdana" font-size="13" lengthAdjust="spacing" textLength="104" x="547.75" y="1246.6467">- IsNewCreated</text><text fill="#000000" font-family="Verdana" font-size="13" lengthAdjust="spacing" textLength="139" x="547.75" y="1262.446">- IsProbationLastDay</text><text fill="#000000" font-family="Verdana" font-size="13" lengthAdjust="spacing" textLength="132" x="547.75" y="1278.2454">- IsSpecialLicSubCC</text><rect fill="#FFFFFF" height="34.584" rx="12.5" ry="12.5" style="stroke:#000000;stroke-width:1.0;" width="434" x="87.75" y="1129.3887"/><text fill="#000000" font-family="Verdana" font-size="12" lengthAdjust="spacing" textLength="414" x="97.75" y="1151.4531">Call CTS_DC_CustClassification_Normal_GetCurrentCategory [SP]</text><rect fill="#FFFFFF" height="34.584" rx="12.5" ry="12.5" style="stroke:#000000;stroke-width:1.0;" width="115" x="247.25" y="786.2366"/><text fill="#000000" font-family="Verdana" font-size="12" lengthAdjust="spacing" textLength="95" x="257.25" y="808.301">For each chunk</text><polygon fill="#FFFFFF" points="265.75,1305.9749,343.75,1305.9749,355.75,1317.9749,343.75,1329.9749,265.75,1329.9749,253.75,1317.9749,265.75,1305.9749" style="stroke:#000000;stroke-width:1.0;"/><text fill="#000000" font-family="Verdana" font-size="11" lengthAdjust="spacing" textLength="78" x="265.75" y="1322.3496">More chunks?</text><path d="M441.75,1339.9749 L441.75,1412.0718 L421.75,1416.0718 L441.75,1420.0718 L441.75,1492.1687 A0,0 0 0 0 441.75,1492.1687 L760.75,1492.1687 A0,0 0 0 0 760.75,1492.1687 L760.75,1349.9749 L750.75,1339.9749 L441.75,1339.9749 A0,0 0 0 0 441.75,1339.9749 " fill="#FFFFFF" style="stroke:#000000;stroke-width:1.0;"/><path d="M750.75,1339.9749 L750.75,1349.9749 L760.75,1349.9749 L750.75,1339.9749 " fill="#FFFFFF" style="stroke:#000000;stroke-width:1.0;"/><text fill="#000000" font-family="Verdana" font-size="13" lengthAdjust="spacing" textLength="67" x="447.75" y="1358.0447">LINQ Join:</text><text fill="#000000" font-family="Verdana" font-size="13" lengthAdjust="spacing" textLength="228" x="447.75" y="1373.844">- NormalPoolCustomers (from VR2)</text><text fill="#000000" font-family="Verdana" font-size="13" lengthAdjust="spacing" textLength="270" x="447.75" y="1389.6433">- CustomerCategories (from DataCenter)</text><text fill="#000000" font-family="Verdana" font-size="13" lengthAdjust="spacing" textLength="5" x="447.75" y="1405.4426">&#160;</text><text fill="#000000" font-family="Verdana" font-size="13" lengthAdjust="spacing" textLength="283" x="447.75" y="1421.2419">Result: GetCurrentCustomerCategoryModel</text><text fill="#000000" font-family="Verdana" font-size="13" lengthAdjust="spacing" textLength="138" x="447.75" y="1437.0413">- CustId, CategoryId</text><text fill="#000000" font-family="Verdana" font-size="13" lengthAdjust="spacing" textLength="241" x="447.75" y="1452.8406">- IsNewCreated, IsProbationLastDay</text><text fill="#000000" font-family="Verdana" font-size="13" lengthAdjust="spacing" textLength="236" x="447.75" y="1468.6399">- IsRealtimeOnly, ScanTaggingType</text><text fill="#000000" font-family="Verdana" font-size="13" lengthAdjust="spacing" textLength="298" x="447.75" y="1484.4392">- ScanSpecialLicSubType, IsSpecialLicSubCC</text><rect fill="#FFFFFF" height="34.584" rx="12.5" ry="12.5" style="stroke:#000000;stroke-width:1.0;" width="234" x="187.75" y="1398.7798"/><text fill="#000000" font-family="Verdana" font-size="12" lengthAdjust="spacing" textLength="214" x="197.75" y="1420.8442">Join Pool data with Category data</text><rect fill="#FFFFFF" height="1026.3086" style="stroke:#000000;stroke-width:1.0;" width="771" x="85.25" y="1502.1687"/><path d="M325.25,1502.1687 L325.25,1512.1833 L315.25,1522.1833 L85.25,1522.1833 " fill="none" style="stroke:#000000;stroke-width:1.0;"/><text fill="#000000" font-family="Verdana" font-size="14" lengthAdjust="spacing" textLength="230" x="88.25" y="1517.2439">Parallel Classification (4 Threads)</text><rect fill="#FFFFFF" height="34.584" rx="12.5" ry="12.5" style="stroke:#000000;stroke-width:1.0;" width="270" x="169.75" y="1539.1833"/><text fill="#000000" font-family="Verdana" font-size="12" lengthAdjust="spacing" textLength="250" x="179.75" y="1561.2478">Chunk joined data by batchInternalSize</text><path d="M439.75,1583.7673 L439.75,1624.2656 L419.75,1628.2656 L439.75,1632.2656 L439.75,1672.7639 A0,0 0 0 0 439.75,1672.7639 L690.75,1672.7639 A0,0 0 0 0 690.75,1672.7639 L690.75,1593.7673 L680.75,1583.7673 L439.75,1583.7673 A0,0 0 0 0 439.75,1583.7673 " fill="#FFFFFF" style="stroke:#000000;stroke-width:1.0;"/><path d="M680.75,1583.7673 L680.75,1593.7673 L690.75,1593.7673 L680.75,1583.7673 " fill="#FFFFFF" style="stroke:#000000;stroke-width:1.0;"/><text fill="#000000" font-family="Verdana" font-size="13" lengthAdjust="spacing" textLength="74" x="445.75" y="1601.8372">AsParallel()</text><text fill="#000000" font-family="Verdana" font-size="13" lengthAdjust="spacing" textLength="183" x="445.75" y="1617.6365">.WithDegreeOfParallelism(4)</text><text fill="#000000" font-family="Verdana" font-size="13" lengthAdjust="spacing" textLength="163" x="445.75" y="1633.4358">.ForAll(custBatch =&gt; ...)</text><text fill="#000000" font-family="Verdana" font-size="13" lengthAdjust="spacing" textLength="5" x="445.75" y="1649.2351">&#160;</text><text fill="#000000" font-family="Verdana" font-size="13" lengthAdjust="spacing" textLength="230" x="445.75" y="1665.0344">4 concurrent classification threads</text><rect fill="#FFFFFF" height="34.584" rx="12.5" ry="12.5" style="stroke:#000000;stroke-width:1.0;" width="230" x="189.75" y="1610.9736"/><text fill="#000000" font-family="Verdana" font-size="12" lengthAdjust="spacing" textLength="210" x="199.75" y="1633.0381">Process in parallel with 4 threads</text><path d="M403.75,1737.3479 L403.75,1769.9465 L383.75,1773.9465 L403.75,1777.9465 L403.75,1810.5452 A0,0 0 0 0 403.75,1810.5452 L656.75,1810.5452 A0,0 0 0 0 656.75,1810.5452 L656.75,1747.3479 L646.75,1737.3479 L403.75,1737.3479 A0,0 0 0 0 403.75,1737.3479 " fill="#FFFFFF" style="stroke:#000000;stroke-width:1.0;"/><path d="M646.75,1737.3479 L646.75,1747.3479 L656.75,1747.3479 L646.75,1737.3479 " fill="#FFFFFF" style="stroke:#000000;stroke-width:1.0;"/><text fill="#000000" font-family="Verdana" font-size="13" lengthAdjust="spacing" textLength="232" x="409.75" y="1755.4177">GetCurrentCustomerCategoryModel</text><text fill="#000000" font-family="Verdana" font-size="13" lengthAdjust="spacing" textLength="95" x="409.75" y="1771.217">&#226;&#8224;&#8217; XML String</text><text fill="#000000" font-family="Verdana" font-size="13" lengthAdjust="spacing" textLength="5" x="409.75" y="1787.0164">&#160;</text><text fill="#000000" font-family="Verdana" font-size="13" lengthAdjust="spacing" textLength="199" x="409.75" y="1802.8157">Using ToXmlString() extension</text><rect fill="#FFFFFF" height="34.584" rx="12.5" ry="12.5" style="stroke:#000000;stroke-width:1.0;" width="158" x="225.75" y="1756.6545"/><text fill="#000000" font-family="Verdana" font-size="12" lengthAdjust="spacing" textLength="138" x="235.75" y="1778.719">Serialize batch to XML</text><rect fill="#FFFFFF" height="34.584" rx="12.5" ry="12.5" style="stroke:#000000;stroke-width:1.0;" width="300" x="154.75" y="1830.5452"/><text fill="#000000" font-family="Verdana" font-size="12" lengthAdjust="spacing" textLength="280" x="164.75" y="1852.6096">ClassifyNormalPoolCustomers(customerXML)</text><path d="M534.25,1875.1292 L534.25,2010.4233 L514.25,2014.4233 L534.25,2018.4233 L534.25,2153.7175 A0,0 0 0 0 534.25,2153.7175 L822.25,2153.7175 A0,0 0 0 0 822.25,2153.7175 L822.25,1885.1292 L812.25,1875.1292 L534.25,1875.1292 A0,0 0 0 0 534.25,1875.1292 " fill="#FFFFFF" style="stroke:#000000;stroke-width:1.0;"/><path d="M812.25,1875.1292 L812.25,1885.1292 L822.25,1885.1292 L812.25,1875.1292 " fill="#FFFFFF" style="stroke:#000000;stroke-width:1.0;"/><text fill="#000000" font-family="Verdana" font-size="13" lengthAdjust="spacing" textLength="267" x="540.25" y="1893.199">Database: bodb_VR2Model (SQL Server)</text><text fill="#000000" font-family="Verdana" font-size="13" lengthAdjust="spacing" textLength="147" x="540.25" y="1908.9983">Timeout: 300 seconds</text><text fill="#000000" font-family="Verdana" font-size="13" lengthAdjust="spacing" textLength="5" x="540.25" y="1924.7976">&#160;</text><text fill="#000000" font-family="Verdana" font-size="13" lengthAdjust="spacing" textLength="80" x="540.25" y="1940.5969">Parameters:</text><text fill="#000000" font-family="Verdana" font-size="13" lengthAdjust="spacing" textLength="165" x="540.25" y="1956.3962">- @CustomersXML (XML)</text><text fill="#000000" font-family="Verdana" font-size="13" lengthAdjust="spacing" textLength="5" x="540.25" y="1972.1956">&#160;</text><text fill="#000000" font-family="Verdana" font-size="13" lengthAdjust="spacing" textLength="40" x="540.25" y="1987.9949">Logic:</text><text fill="#000000" font-family="Verdana" font-size="13" lengthAdjust="spacing" textLength="170" x="540.25" y="2003.7942">- Parse XML customer list</text><text fill="#000000" font-family="Verdana" font-size="13" lengthAdjust="spacing" textLength="209" x="540.25" y="2019.5935">- Apply classification based on:</text><text fill="#000000" font-family="Verdana" font-size="13" lengthAdjust="spacing" textLength="141" x="550.25" y="2035.3928">* Current CategoryId</text><text fill="#000000" font-family="Verdana" font-size="13" lengthAdjust="spacing" textLength="106" x="550.25" y="2051.1921">* IsNewCreated</text><text fill="#000000" font-family="Verdana" font-size="13" lengthAdjust="spacing" textLength="141" x="550.25" y="2066.9915">* IsProbationLastDay</text><text fill="#000000" font-family="Verdana" font-size="13" lengthAdjust="spacing" textLength="110" x="550.25" y="2082.7908">* IsRealtimeOnly</text><text fill="#000000" font-family="Verdana" font-size="13" lengthAdjust="spacing" textLength="132" x="550.25" y="2098.5901">* ScanTaggingType</text><text fill="#000000" font-family="Verdana" font-size="13" lengthAdjust="spacing" textLength="170" x="550.25" y="2114.3894">* ScanSpecialLicSubType</text><text fill="#000000" font-family="Verdana" font-size="13" lengthAdjust="spacing" textLength="134" x="550.25" y="2130.1887">* IsSpecialLicSubCC</text><text fill="#000000" font-family="Verdana" font-size="13" lengthAdjust="spacing" textLength="257" x="540.25" y="2145.988">- Insert/Update CustomerClassification</text><rect fill="#FFFFFF" height="34.584" rx="12.5" ry="12.5" style="stroke:#000000;stroke-width:1.0;" width="419" x="95.25" y="1997.1313"/><text fill="#000000" font-family="Verdana" font-size="12" lengthAdjust="spacing" textLength="399" x="105.25" y="2019.1958">Call CTS_GeneralNormalClassification_NormalPool_Classify [SP]</text><rect fill="#FFFFFF" height="34.584" rx="12.5" ry="12.5" style="stroke:#000000;stroke-width:1.0;" width="348" x="130.75" y="2173.7175"/><text fill="#000000" font-family="Verdana" font-size="12" lengthAdjust="spacing" textLength="328" x="140.75" y="2195.782">ClearNormalPoolCustomers(custIds, scannedMaxID)</text><rect fill="#FFFFFF" height="34.584" rx="12.5" ry="12.5" style="stroke:#000000;stroke-width:1.0;" width="269" x="170.25" y="2228.3015"/><text fill="#000000" font-family="Verdana" font-size="12" lengthAdjust="spacing" textLength="249" x="180.25" y="2250.366">Join custIds to comma-separated string</text><path d="M526.75,2272.8855 L526.75,2368.6814 L506.75,2372.6814 L526.75,2376.6814 L526.75,2472.4773 A0,0 0 0 0 526.75,2472.4773 L814.75,2472.4773 A0,0 0 0 0 814.75,2472.4773 L814.75,2282.8855 L804.75,2272.8855 L526.75,2272.8855 A0,0 0 0 0 526.75,2272.8855 " fill="#FFFFFF" style="stroke:#000000;stroke-width:1.0;"/><path d="M804.75,2272.8855 L804.75,2282.8855 L814.75,2282.8855 L804.75,2272.8855 " fill="#FFFFFF" style="stroke:#000000;stroke-width:1.0;"/><text fill="#000000" font-family="Verdana" font-size="13" lengthAdjust="spacing" textLength="267" x="532.75" y="2290.9553">Database: bodb_VR2Model (SQL Server)</text><text fill="#000000" font-family="Verdana" font-size="13" lengthAdjust="spacing" textLength="147" x="532.75" y="2306.7546">Timeout: 300 seconds</text><text fill="#000000" font-family="Verdana" font-size="13" lengthAdjust="spacing" textLength="5" x="532.75" y="2322.554">&#160;</text><text fill="#000000" font-family="Verdana" font-size="13" lengthAdjust="spacing" textLength="80" x="532.75" y="2338.3533">Parameters:</text><text fill="#000000" font-family="Verdana" font-size="13" lengthAdjust="spacing" textLength="227" x="532.75" y="2354.1526">- @ListCustId (comma-separated)</text><text fill="#000000" font-family="Verdana" font-size="13" lengthAdjust="spacing" textLength="121" x="532.75" y="2369.9519">- @ScannedMaxId</text><text fill="#000000" font-family="Verdana" font-size="13" lengthAdjust="spacing" textLength="5" x="532.75" y="2385.7512">&#160;</text><text fill="#000000" font-family="Verdana" font-size="13" lengthAdjust="spacing" textLength="40" x="532.75" y="2401.5505">Logic:</text><text fill="#000000" font-family="Verdana" font-size="13" lengthAdjust="spacing" textLength="184" x="532.75" y="2417.3499">- DELETE FROM Normal Pool</text><text fill="#000000" font-family="Verdana" font-size="13" lengthAdjust="spacing" textLength="161" x="532.75" y="2433.1492">- WHERE CustId IN (list)</text><text fill="#000000" font-family="Verdana" font-size="13" lengthAdjust="spacing" textLength="173" x="532.75" y="2448.9485">- OR ID &lt;= ScannedMaxId</text><text fill="#000000" font-family="Verdana" font-size="13" lengthAdjust="spacing" textLength="157" x="532.75" y="2464.7478">- Dual cleanup strategy</text><rect fill="#FFFFFF" height="34.584" rx="12.5" ry="12.5" style="stroke:#000000;stroke-width:1.0;" width="404" x="102.75" y="2355.3894"/><text fill="#000000" font-family="Verdana" font-size="12" lengthAdjust="spacing" textLength="384" x="112.75" y="2377.4539">Call CTS_GeneralNormalClassification_NormalPool_Clear [SP]</text><rect fill="#FFFFFF" height="34.584" rx="12.5" ry="12.5" style="stroke:#000000;stroke-width:1.0;" width="173" x="218.25" y="1692.7639"/><text fill="#000000" font-family="Verdana" font-size="12" lengthAdjust="spacing" textLength="153" x="228.25" y="1714.8284">For each batch (parallel)</text><polygon fill="#FFFFFF" points="233.75,2492.4773,375.75,2492.4773,387.75,2504.4773,375.75,2516.4773,233.75,2516.4773,221.75,2504.4773,233.75,2492.4773" style="stroke:#000000;stroke-width:1.0;"/><text fill="#000000" font-family="Verdana" font-size="11" lengthAdjust="spacing" textLength="142" x="233.75" y="2508.8521">More batches in parallel?</text><polygon fill="#FFFFFF" points="258.25,682.9683,351.25,682.9683,363.25,694.9683,351.25,706.9683,258.25,706.9683,246.25,694.9683,258.25,682.9683" style="stroke:#000000;stroke-width:1.0;"/><text fill="#000000" font-family="Verdana" font-size="11" lengthAdjust="spacing" textLength="20" x="308.75" y="718.0273">yes</text><text fill="#000000" font-family="Verdana" font-size="11" lengthAdjust="spacing" textLength="93" x="258.25" y="699.343">Has Customers?</text><text fill="#000000" font-family="Verdana" font-size="11" lengthAdjust="spacing" textLength="14" x="363.25" y="692.6587">no</text><polygon fill="#FFFFFF" points="304.75,2548.4773,316.75,2560.4773,304.75,2572.4773,292.75,2560.4773,304.75,2548.4773" style="stroke:#000000;stroke-width:1.0;"/><rect fill="#FFFFFF" height="34.584" rx="12.5" ry="12.5" style="stroke:#000000;stroke-width:1.0;" width="116" x="246.75" y="2592.4773"/><text fill="#000000" font-family="Verdana" font-size="12" lengthAdjust="spacing" textLength="96" x="256.75" y="2614.5417">Return Success</text><ellipse cx="304.75" cy="2658.0613" fill="none" rx="11" ry="11" style="stroke:#000000;stroke-width:1.0;"/><ellipse cx="304.75" cy="2658.0613" fill="#FFFFFF" rx="6" ry="6" style="stroke:#000000;stroke-width:1.0;"/><line style="stroke:#000000;stroke-width:1.0;" x1="304.75" x2="304.75" y1="72.7373" y2="92.7373"/><polygon fill="#000000" points="300.75,82.7373,304.75,92.7373,308.75,82.7373,304.75,86.7373" style="stroke:#000000;stroke-width:1.0;"/><line style="stroke:#000000;stroke-width:1.0;" x1="304.75" x2="304.75" y1="127.3213" y2="150.8286"/><polygon fill="#000000" points="300.75,140.8286,304.75,150.8286,308.75,140.8286,304.75,144.8286" style="stroke:#000000;stroke-width:1.0;"/><line style="stroke:#000000;stroke-width:1.0;" x1="226.25" x2="108.5" y1="217.4126" y2="217.4126"/><line style="stroke:#000000;stroke-width:1.0;" x1="108.5" x2="108.5" y1="217.4126" y2="239.4126"/><polygon fill="#000000" points="104.5,229.4126,108.5,239.4126,112.5,229.4126,108.5,233.4126" style="stroke:#000000;stroke-width:1.0;"/><line style="stroke:#000000;stroke-width:1.0;" x1="383.25" x2="501" y1="217.4126" y2="217.4126"/><line style="stroke:#000000;stroke-width:1.0;" x1="501" x2="501" y1="217.4126" y2="239.4126"/><polygon fill="#000000" points="497,229.4126,501,239.4126,505,229.4126,501,233.4126" style="stroke:#000000;stroke-width:1.0;"/><line style="stroke:#000000;stroke-width:1.0;" x1="108.5" x2="108.5" y1="273.9966" y2="291.9966"/><line style="stroke:#000000;stroke-width:1.0;" x1="108.5" x2="292.75" y1="291.9966" y2="291.9966"/><polygon fill="#000000" points="282.75,287.9966,292.75,291.9966,282.75,295.9966,286.75,291.9966" style="stroke:#000000;stroke-width:1.0;"/><line style="stroke:#000000;stroke-width:1.0;" x1="501" x2="501" y1="273.9966" y2="291.9966"/><line style="stroke:#000000;stroke-width:1.0;" x1="501" x2="316.75" y1="291.9966" y2="291.9966"/><polygon fill="#000000" points="326.75,287.9966,316.75,291.9966,326.75,295.9966,322.75,291.9966" style="stroke:#000000;stroke-width:1.0;"/><line style="stroke:#000000;stroke-width:1.0;" x1="304.75" x2="304.75" y1="185.4126" y2="205.4126"/><polygon fill="#000000" points="300.75,195.4126,304.75,205.4126,308.75,195.4126,304.75,199.4126" style="stroke:#000000;stroke-width:1.0;"/><line style="stroke:#000000;stroke-width:1.0;" x1="304.75" x2="304.75" y1="303.9966" y2="323.9966"/><polygon fill="#000000" points="300.75,313.9966,304.75,323.9966,308.75,313.9966,304.75,317.9966" style="stroke:#000000;stroke-width:1.0;"/><line style="stroke:#000000;stroke-width:1.0;" x1="304.75" x2="304.75" y1="358.5806" y2="490.5828"/><polygon fill="#000000" points="300.75,480.5828,304.75,490.5828,308.75,480.5828,304.75,484.5828" style="stroke:#000000;stroke-width:1.0;"/><line style="stroke:#000000;stroke-width:1.0;" x1="304.75" x2="304.75" y1="876.8115" y2="908.2185"/><polygon fill="#000000" points="300.75,898.2185,304.75,908.2185,308.75,898.2185,304.75,902.2185" style="stroke:#000000;stroke-width:1.0;"/><line style="stroke:#000000;stroke-width:1.0;" x1="304.75" x2="304.75" y1="942.8025" y2="962.8025"/><polygon fill="#000000" points="300.75,952.8025,304.75,962.8025,308.75,952.8025,304.75,956.8025" style="stroke:#000000;stroke-width:1.0;"/><line style="stroke:#000000;stroke-width:1.0;" x1="304.75" x2="304.75" y1="997.3865" y2="1129.3887"/><polygon fill="#000000" points="300.75,1119.3887,304.75,1129.3887,308.75,1119.3887,304.75,1123.3887" style="stroke:#000000;stroke-width:1.0;"/><line style="stroke:#000000;stroke-width:1.0;" x1="304.75" x2="304.75" y1="820.8206" y2="842.2275"/><polygon fill="#000000" points="300.75,832.2275,304.75,842.2275,308.75,832.2275,304.75,836.2275" style="stroke:#000000;stroke-width:1.0;"/><line style="stroke:#000000;stroke-width:1.0;" x1="355.75" x2="819.75" y1="1317.9749" y2="1317.9749"/><polygon fill="#000000" points="815.75,1038.2517,819.75,1028.2517,823.75,1038.2517,819.75,1034.2517" style="stroke:#000000;stroke-width:1.0;"/><line style="stroke:#000000;stroke-width:1.0;" x1="819.75" x2="819.75" y1="803.5286" y2="1317.9749"/><line style="stroke:#000000;stroke-width:1.0;" x1="819.75" x2="362.25" y1="803.5286" y2="803.5286"/><polygon fill="#000000" points="372.25,799.5286,362.25,803.5286,372.25,807.5286,368.25,803.5286" style="stroke:#000000;stroke-width:1.0;"/><line style="stroke:#000000;stroke-width:1.0;" x1="304.75" x2="304.75" y1="1163.9727" y2="1305.9749"/><polygon fill="#000000" points="300.75,1295.9749,304.75,1305.9749,308.75,1295.9749,304.75,1299.9749" style="stroke:#000000;stroke-width:1.0;"/><line style="stroke:#000000;stroke-width:1.0;" x1="304.75" x2="304.75" y1="766.2366" y2="786.2366"/><polygon fill="#000000" points="300.75,776.2366,304.75,786.2366,308.75,776.2366,304.75,780.2366" style="stroke:#000000;stroke-width:1.0;"/><line style="stroke:#000000;stroke-width:1.0;" x1="304.75" x2="304.75" y1="1329.9749" y2="1398.7798"/><polygon fill="#000000" points="300.75,1388.7798,304.75,1398.7798,308.75,1388.7798,304.75,1392.7798" style="stroke:#000000;stroke-width:1.0;"/><line style="stroke:#000000;stroke-width:1.0;" x1="304.75" x2="304.75" y1="1573.7673" y2="1610.9736"/><polygon fill="#000000" points="300.75,1600.9736,304.75,1610.9736,308.75,1600.9736,304.75,1604.9736" style="stroke:#000000;stroke-width:1.0;"/><line style="stroke:#000000;stroke-width:1.0;" x1="304.75" x2="304.75" y1="1791.2385" y2="1830.5452"/><polygon fill="#000000" points="300.75,1820.5452,304.75,1830.5452,308.75,1820.5452,304.75,1824.5452" style="stroke:#000000;stroke-width:1.0;"/><line style="stroke:#000000;stroke-width:1.0;" x1="304.75" x2="304.75" y1="1865.1292" y2="1997.1313"/><polygon fill="#000000" points="300.75,1987.1313,304.75,1997.1313,308.75,1987.1313,304.75,1991.1313" style="stroke:#000000;stroke-width:1.0;"/><line style="stroke:#000000;stroke-width:1.0;" x1="304.75" x2="304.75" y1="2031.7153" y2="2173.7175"/><polygon fill="#000000" points="300.75,2163.7175,304.75,2173.7175,308.75,2163.7175,304.75,2167.7175" style="stroke:#000000;stroke-width:1.0;"/><line style="stroke:#000000;stroke-width:1.0;" x1="304.75" x2="304.75" y1="2208.3015" y2="2228.3015"/><polygon fill="#000000" points="300.75,2218.3015,304.75,2228.3015,308.75,2218.3015,304.75,2222.3015" style="stroke:#000000;stroke-width:1.0;"/><line style="stroke:#000000;stroke-width:1.0;" x1="304.75" x2="304.75" y1="2262.8855" y2="2355.3894"/><polygon fill="#000000" points="300.75,2345.3894,304.75,2355.3894,308.75,2345.3894,304.75,2349.3894" style="stroke:#000000;stroke-width:1.0;"/><line style="stroke:#000000;stroke-width:1.0;" x1="304.75" x2="304.75" y1="1727.3479" y2="1756.6545"/><polygon fill="#000000" points="300.75,1746.6545,304.75,1756.6545,308.75,1746.6545,304.75,1750.6545" style="stroke:#000000;stroke-width:1.0;"/><line style="stroke:#000000;stroke-width:1.0;" x1="387.75" x2="834.25" y1="2504.4773" y2="2504.4773"/><polygon fill="#000000" points="830.25,2119.7666,834.25,2109.7666,838.25,2119.7666,834.25,2115.7666" style="stroke:#000000;stroke-width:1.0;"/><line style="stroke:#000000;stroke-width:1.0;" x1="834.25" x2="834.25" y1="1710.0559" y2="2504.4773"/><line style="stroke:#000000;stroke-width:1.0;" x1="834.25" x2="391.25" y1="1710.0559" y2="1710.0559"/><polygon fill="#000000" points="401.25,1706.0559,391.25,1710.0559,401.25,1714.0559,397.25,1710.0559" style="stroke:#000000;stroke-width:1.0;"/><line style="stroke:#000000;stroke-width:1.0;" x1="304.75" x2="304.75" y1="2389.9734" y2="2492.4773"/><polygon fill="#000000" points="300.75,2482.4773,304.75,2492.4773,308.75,2482.4773,304.75,2486.4773" style="stroke:#000000;stroke-width:1.0;"/><line style="stroke:#000000;stroke-width:1.0;" x1="304.75" x2="304.75" y1="1645.5576" y2="1692.7639"/><polygon fill="#000000" points="300.75,1682.7639,304.75,1692.7639,308.75,1682.7639,304.75,1686.7639" style="stroke:#000000;stroke-width:1.0;"/><line style="stroke:#000000;stroke-width:1.0;" x1="304.75" x2="304.75" y1="1433.3638" y2="1539.1833"/><polygon fill="#000000" points="300.75,1529.1833,304.75,1539.1833,308.75,1529.1833,304.75,1533.1833" style="stroke:#000000;stroke-width:1.0;"/><line style="stroke:#000000;stroke-width:1.0;" x1="304.75" x2="304.75" y1="706.9683" y2="731.6526"/><polygon fill="#000000" points="300.75,721.6526,304.75,731.6526,308.75,721.6526,304.75,725.6526" style="stroke:#000000;stroke-width:1.0;"/><line style="stroke:#000000;stroke-width:1.0;" x1="363.25" x2="866.25" y1="694.9683" y2="694.9683"/><polygon fill="#000000" points="862.25,1606.5649,866.25,1616.5649,870.25,1606.5649,866.25,1610.5649" style="stroke:#000000;stroke-width:1.0;"/><line style="stroke:#000000;stroke-width:1.0;" x1="866.25" x2="866.25" y1="694.9683" y2="2560.4773"/><line style="stroke:#000000;stroke-width:1.0;" x1="866.25" x2="316.75" y1="2560.4773" y2="2560.4773"/><polygon fill="#000000" points="326.75,2556.4773,316.75,2560.4773,326.75,2564.4773,322.75,2560.4773" style="stroke:#000000;stroke-width:1.0;"/><line style="stroke:#000000;stroke-width:1.0;" x1="304.75" x2="304.75" y1="2516.4773" y2="2548.4773"/><polygon fill="#000000" points="300.75,2538.4773,304.75,2548.4773,308.75,2538.4773,304.75,2542.4773" style="stroke:#000000;stroke-width:1.0;"/><line style="stroke:#000000;stroke-width:1.0;" x1="304.75" x2="304.75" y1="525.1667" y2="682.9683"/><polygon fill="#000000" points="300.75,672.9683,304.75,682.9683,308.75,672.9683,304.75,676.9683" style="stroke:#000000;stroke-width:1.0;"/><line style="stroke:#000000;stroke-width:1.0;" x1="304.75" x2="304.75" y1="2572.4773" y2="2592.4773"/><polygon fill="#000000" points="300.75,2582.4773,304.75,2592.4773,308.75,2582.4773,304.75,2586.4773" style="stroke:#000000;stroke-width:1.0;"/><line style="stroke:#000000;stroke-width:1.0;" x1="304.75" x2="304.75" y1="2627.0613" y2="2647.0613"/><polygon fill="#000000" points="300.75,2637.0613,304.75,2647.0613,308.75,2637.0613,304.75,2641.0613" style="stroke:#000000;stroke-width:1.0;"/><!--SRC=[pLVRZjis47ttLqpp9BNExgBTldYRjXlPIHpubfMt2L0K2reQssnbKI2fxBf5WVn6tuh-IlyaNz8XTPUb86bVQYomDZcS6-US6NwcztX0I2B6uu7cEa9O27bW4Lm7WKXZ3Lx4bE9R7Z3DHGoFOKwYy3HLF4Qbu5aaxWS3fPdKWz5BiO6rvBiTIWp1UR5Uhs2rzDVkrI0M6e6szde0z9d4OI9uh4TmpX9-7ZICa1fr7bitSY-QJbWDAoRP0JNA4MoO3lRJcBx7BFBvhmWEgHv2Y5kMHcJZwukB2tU0SGZ6ZS5WjEXNJiPzb6zvW6UJ1mnIZSw9VefdmBTmkW7VF84B5oYfCJX7L2wvEl9HTxZun7frHGAjr02CCx-pGw18cZPAxp5I560ihEvR-fv8yPQ7bF0J8rScPhwbW9-Zpc9U2H5vgTBYW58vhh4_ybWKWRVsxvvZZ995cMGpBNVLSHBJyAE_-gdRUQRPXYcaQn7Xvkw7co_d8iG87F_L34ncKRgvw9eVKAHqFrzTN832GCIXohVoV-Kbgr6-yXY-zmCMnnZEsSEKYcnvkrxThjtckPdOyQ0wOXnEOyfJG2LBYGgA1C1MYaDHyIQsyiXIXYXXSuILv49oVOJnnFU6C1t3jU-LOZUeKncN2e77Mm5Vm3PYkrOecMGj3dCBqx3yELKto29DALd6qR5SDi6ksMx7uztwc61ZtKymu2oQyS1FDoUxNIcg863AzmLJKDR2T-sozVPf_4ijLPIBZWApyKbCa6aOFHCIa57D1kQizMQqeaqcqTo1bqg9X3VFNgijYoihT594H10FMh90Zyg5F67Zsa9_3ieuomiOrUpd8NbCuqx8esDYdDB5AVSgrqwObQJLuBJS12tWfRzSb38bRCRUdT7P2PYxcjtSNecTdj3h6BBgwPU79klWp8y48xSc-W4CrOgl6qivddXYtJT1WcCYTBiLD42LdIMTH43cJ0M1Y2lT43Be2x8KG71Av0snPhEfmwZbJ0jEdHLYb_AajvQdQe7tdgIgnR2riP9YOytFcD9ZTcnjDmhEAvYWLd0v6Extd9gfCnTK-nOEXB0CBTGcgOCQje6GhXRkkTwNVjgbJcATJHUlm1ojAAI3qi6nb4QqwpQOfbRm70kfghBSDbafspZxGMFHs-AoOPNjEgzLcHxsfxTDWCDFOxvXvytKReN-Y8PemZ5rzSXW8OgeAxMc6-SIrdloDLJk8_Wj8uwC1t-cn5Fdi1VMnuG5rQooHaFDmDZC3DbBlYIAjTfxQUzQ5Quv5GhFNjFXCUuaud9Rx7DrS2vhCiIzrr5akUofdHkUV0jdPsULHFdb4eWbkW5P-DT3eYSydqqeJX6bUqgVcGHHvvlvx8ESzt6bPZv___N-tP_lt_rXL8Al9HL8DqVSqeowWxLuSuWoCSS5VD0Ogufx6a6MfqTvNHoxXgQ2wSXysJ3-nHHLc6YqWvxaVD9OzL6DeP6elkPWsqCPk4ctOuBkLtFI8gecOKxtzGWZTPqaqR5TZYRY44JSL0dmEUIrSieubKWFnnUR7-3vGgHZ8gksk_cfkTyteTMDT3UKaXLZXLAVtoR4F5WnUNSRxIrcPBAlagUX6eAgviLnlQPjfygb38W3SJYmnyfCT2Qhe2oi_XC8oBN_Em9cLArPXmEdbG6tBLkVl3yH9-F9RBAUmBERvRpZIL98lNunkPda3HUc2t0CbjfkB6_CGuKUextkaBcK30IK_pXDp4KQ81sxIwbZfB6yZeqUP-URtqslhJzHMxUv4BKd1Hrk1bezSlDtQ_w-yjF0TDIh0PrC1ly0]--></g></svg>