<svg xmlns="http://www.w3.org/2000/svg" xmlns:xlink="http://www.w3.org/1999/xlink" contentStyleType="text/css" height="4037px" preserveAspectRatio="none" style="width:1157px;height:4037px;background:#FFFFFF;" version="1.1" viewBox="0 0 1157 4037" width="1157px" zoomAndPan="magnify"><defs/><g><text fill="#000000" font-family="Verdana" font-size="22" font-weight="bold" lengthAdjust="spacing" textLength="1124" x="15" y="37.1182">Stored Procedure: CTS_GeneralNormalClassification_NormalPool_Classify - Detailed Flow</text><rect fill="#FFFFFF" height="3977.939" style="stroke:#000000;stroke-width:1.0;" width="910" x="123" y="53.7373"/><line style="stroke:#000000;stroke-width:1.0;" x1="123" x2="1033" y1="74.752" y2="74.752"/><text fill="#000000" font-family="Verdana" font-size="14" lengthAdjust="spacing" textLength="6" x="322.5" y="69.8125">"</text><text fill="#000000" font-family="Verdana" font-size="14" font-weight="bold" lengthAdjust="spacing" textLength="455" x="328.5" y="69.8125">SP: CTS_GeneralNormalClassification_NormalPool_Classify</text><text fill="#000000" font-family="Verdana" font-size="14" lengthAdjust="spacing" textLength="50" x="783.5" y="69.8125">" as SP</text><rect fill="#FFFFFF" height="3920.9243" style="stroke:#000000;stroke-width:1.0;" width="890" x="133" y="90.752"/><text fill="#000000" font-family="Verdana" font-size="14" lengthAdjust="spacing" textLength="6" x="402" y="106.8271">"</text><text fill="#000000" font-family="Verdana" font-size="14" font-weight="bold" lengthAdjust="spacing" textLength="71" x="408" y="106.8271">Database</text><text fill="#000000" font-family="Verdana" font-size="14" lengthAdjust="spacing" textLength="275" x="479" y="106.8271">: bodb_VR2Model (SQL Server)" as DB</text><rect fill="#FFFFFF" height="57.0146" style="stroke:#000000;stroke-width:1.0;" width="279" x="159" y="127.7666"/><text fill="#000000" font-family="Verdana" font-size="14" lengthAdjust="spacing" textLength="6" x="169" y="143.8418">"</text><text fill="#000000" font-family="Verdana" font-size="14" font-weight="bold" lengthAdjust="spacing" textLength="63" x="175" y="143.8418">Timeout</text><text fill="#000000" font-family="Verdana" font-size="14" lengthAdjust="spacing" textLength="190" x="238" y="143.8418">: 300 seconds" as Timeout</text><ellipse cx="298.5" cy="229.7813" fill="#FFFFFF" rx="10" ry="10" style="stroke:#000000;stroke-width:1.0;"/><rect fill="#FFFFFF" height="335.603" style="stroke:#000000;stroke-width:1.0;" width="659" x="180.5" y="274.7813"/><path d="M312.5,274.7813 L312.5,284.7959 L302.5,294.7959 L180.5,294.7959 " fill="none" style="stroke:#000000;stroke-width:1.0;"/><text fill="#000000" font-family="Verdana" font-size="14" lengthAdjust="spacing" textLength="122" x="183.5" y="289.8564">Input Parameters</text><path d="M426.5,311.7959 L426.5,447.0901 L406.5,451.0901 L426.5,455.0901 L426.5,590.3843 A0,0 0 0 0 426.5,590.3843 L829.5,590.3843 A0,0 0 0 0 829.5,590.3843 L829.5,321.7959 L819.5,311.7959 L426.5,311.7959 A0,0 0 0 0 426.5,311.7959 " fill="#FFFFFF" style="stroke:#000000;stroke-width:1.0;"/><path d="M819.5,311.7959 L819.5,321.7959 L829.5,321.7959 L819.5,311.7959 " fill="#FFFFFF" style="stroke:#000000;stroke-width:1.0;"/><text fill="#000000" font-family="Verdana" font-size="13" lengthAdjust="spacing" textLength="187" x="432.5" y="329.8657">Parameter: @CustomersXML</text><text fill="#000000" font-family="Verdana" font-size="13" lengthAdjust="spacing" textLength="128" x="432.5" y="345.665">Format: XML String</text><text fill="#000000" font-family="Verdana" font-size="13" lengthAdjust="spacing" textLength="5" x="432.5" y="361.4644">&#160;</text><text fill="#000000" font-family="Verdana" font-size="13" lengthAdjust="spacing" textLength="59" x="432.5" y="377.2637">Example:</text><text fill="#000000" font-family="Verdana" font-size="13" lengthAdjust="spacing" textLength="73" x="432.5" y="393.063">&lt;ArrayOfr&gt;</text><text fill="#000000" font-family="Verdana" font-size="13" lengthAdjust="spacing" textLength="23" x="442.5" y="408.8623">&lt;r&gt;</text><text fill="#000000" font-family="Verdana" font-size="13" lengthAdjust="spacing" textLength="152" x="452.5" y="424.6616">&lt;CustId&gt;123&lt;/CustId&gt;</text><text fill="#000000" font-family="Verdana" font-size="13" lengthAdjust="spacing" textLength="196" x="452.5" y="440.4609">&lt;CategoryId&gt;5&lt;/CategoryId&gt;</text><text fill="#000000" font-family="Verdana" font-size="13" lengthAdjust="spacing" textLength="257" x="452.5" y="456.2603">&lt;IsNewCreated&gt;false&lt;/IsNewCreated&gt;</text><text fill="#000000" font-family="Verdana" font-size="13" lengthAdjust="spacing" textLength="327" x="452.5" y="472.0596">&lt;IsProbationLastDay&gt;false&lt;/IsProbationLastDay&gt;</text><text fill="#000000" font-family="Verdana" font-size="13" lengthAdjust="spacing" textLength="261" x="452.5" y="487.8589">&lt;IsRealtimeOnly&gt;true&lt;/IsRealtimeOnly&gt;</text><text fill="#000000" font-family="Verdana" font-size="13" lengthAdjust="spacing" textLength="286" x="452.5" y="503.6582">&lt;ScanTaggingType&gt;0&lt;/ScanTaggingType&gt;</text><text fill="#000000" font-family="Verdana" font-size="13" lengthAdjust="spacing" textLength="362" x="452.5" y="519.4575">&lt;ScanSpecialLicSubType&gt;0&lt;/ScanSpecialLicSubType&gt;</text><text fill="#000000" font-family="Verdana" font-size="13" lengthAdjust="spacing" textLength="313" x="452.5" y="535.2568">&lt;IsSpecialLicSubCC&gt;false&lt;/IsSpecialLicSubCC&gt;</text><text fill="#000000" font-family="Verdana" font-size="13" lengthAdjust="spacing" textLength="29" x="442.5" y="551.0562">&lt;/r&gt;</text><text fill="#000000" font-family="Verdana" font-size="13" lengthAdjust="spacing" textLength="15" x="442.5" y="566.8555">...</text><text fill="#000000" font-family="Verdana" font-size="13" lengthAdjust="spacing" textLength="79" x="432.5" y="582.6548">&lt;/ArrayOfr&gt;</text><rect fill="#FFFFFF" height="34.584" rx="12.5" ry="12.5" style="stroke:#000000;stroke-width:1.0;" width="216" x="190.5" y="433.7981"/><text fill="#000000" font-family="Verdana" font-size="12" lengthAdjust="spacing" textLength="196" x="200.5" y="455.8625">Receive @CustomersXML (XML)</text><rect fill="#FFFFFF" height="443.8003" style="stroke:#000000;stroke-width:1.0;" width="868" x="145" y="645.3843"/><path d="M265,645.3843 L265,655.3989 L255,665.3989 L145,665.3989 " fill="none" style="stroke:#000000;stroke-width:1.0;"/><text fill="#000000" font-family="Verdana" font-size="14" lengthAdjust="spacing" textLength="110" x="148" y="660.4595">Parse XML Data</text><path d="M402.5,682.3989 L402.5,762.3955 L382.5,766.3955 L402.5,770.3955 L402.5,850.3921 A0,0 0 0 0 402.5,850.3921 L640.5,850.3921 A0,0 0 0 0 640.5,850.3921 L640.5,692.3989 L630.5,682.3989 L402.5,682.3989 A0,0 0 0 0 402.5,682.3989 " fill="#FFFFFF" style="stroke:#000000;stroke-width:1.0;"/><path d="M630.5,682.3989 L630.5,692.3989 L640.5,692.3989 L630.5,682.3989 " fill="#FFFFFF" style="stroke:#000000;stroke-width:1.0;"/><text fill="#000000" font-family="Verdana" font-size="13" lengthAdjust="spacing" textLength="217" x="408.5" y="700.4688">CREATE TABLE #tmpCustomers (</text><text fill="#000000" font-family="Verdana" font-size="13" lengthAdjust="spacing" textLength="98" x="418.5" y="716.2681">CustId BIGINT,</text><text fill="#000000" font-family="Verdana" font-size="13" lengthAdjust="spacing" textLength="106" x="418.5" y="732.0674">CategoryId INT,</text><text fill="#000000" font-family="Verdana" font-size="13" lengthAdjust="spacing" textLength="124" x="418.5" y="747.8667">IsNewCreated BIT,</text><text fill="#000000" font-family="Verdana" font-size="13" lengthAdjust="spacing" textLength="159" x="418.5" y="763.666">IsProbationLastDay BIT,</text><text fill="#000000" font-family="Verdana" font-size="13" lengthAdjust="spacing" textLength="128" x="418.5" y="779.4653">IsRealtimeOnly BIT,</text><text fill="#000000" font-family="Verdana" font-size="13" lengthAdjust="spacing" textLength="151" x="418.5" y="795.2646">ScanTaggingType INT,</text><text fill="#000000" font-family="Verdana" font-size="13" lengthAdjust="spacing" textLength="189" x="418.5" y="811.064">ScanSpecialLicSubType INT,</text><text fill="#000000" font-family="Verdana" font-size="13" lengthAdjust="spacing" textLength="147" x="418.5" y="826.8633">IsSpecialLicSubCC BIT</text><text fill="#000000" font-family="Verdana" font-size="13" lengthAdjust="spacing" textLength="12" x="408.5" y="842.6626">);</text><rect fill="#FFFFFF" height="34.584" rx="12.5" ry="12.5" style="stroke:#000000;stroke-width:1.0;" width="168" x="214.5" y="749.1035"/><text fill="#000000" font-family="Verdana" font-size="12" lengthAdjust="spacing" textLength="148" x="224.5" y="771.168">Create temporary table</text><path d="M462,885.3921 L462,973.2883 L442,977.2883 L462,981.2883 L462,1069.1846 A0,0 0 0 0 462,1069.1846 L1003,1069.1846 A0,0 0 0 0 1003,1069.1846 L1003,895.3921 L993,885.3921 L462,885.3921 A0,0 0 0 0 462,885.3921 " fill="#FFFFFF" style="stroke:#000000;stroke-width:1.0;"/><path d="M993,885.3921 L993,895.3921 L1003,895.3921 L993,885.3921 " fill="#FFFFFF" style="stroke:#000000;stroke-width:1.0;"/><text fill="#000000" font-family="Verdana" font-size="13" lengthAdjust="spacing" textLength="195" x="468" y="903.4619">INSERT INTO #tmpCustomers</text><text fill="#000000" font-family="Verdana" font-size="13" lengthAdjust="spacing" textLength="50" x="468" y="919.2612">SELECT</text><text fill="#000000" font-family="Verdana" font-size="13" lengthAdjust="spacing" textLength="306" x="478" y="935.0605">doc.col.value('CustId[1]', 'BIGINT') AS CustId,</text><text fill="#000000" font-family="Verdana" font-size="13" lengthAdjust="spacing" textLength="344" x="478" y="950.8599">doc.col.value('CategoryId[1]', 'INT') AS CategoryId,</text><text fill="#000000" font-family="Verdana" font-size="13" lengthAdjust="spacing" textLength="381" x="478" y="966.6592">doc.col.value('IsNewCreated[1]', 'BIT') AS IsNewCreated,</text><text fill="#000000" font-family="Verdana" font-size="13" lengthAdjust="spacing" textLength="451" x="478" y="982.4585">doc.col.value('IsProbationLastDay[1]', 'BIT') AS IsProbationLastDay,</text><text fill="#000000" font-family="Verdana" font-size="13" lengthAdjust="spacing" textLength="389" x="478" y="998.2578">doc.col.value('IsRealtimeOnly[1]', 'BIT') AS IsRealtimeOnly,</text><text fill="#000000" font-family="Verdana" font-size="13" lengthAdjust="spacing" textLength="434" x="478" y="1014.0571">doc.col.value('ScanTaggingType[1]', 'INT') AS ScanTaggingType,</text><text fill="#000000" font-family="Verdana" font-size="13" lengthAdjust="spacing" textLength="510" x="478" y="1029.8564">doc.col.value('ScanSpecialLicSubType[1]', 'INT') AS ScanSpecialLicSubType,</text><text fill="#000000" font-family="Verdana" font-size="13" lengthAdjust="spacing" textLength="432" x="478" y="1045.6558">doc.col.value('IsSpecialLicSubCC[1]', 'BIT') AS IsSpecialLicSubCC</text><text fill="#000000" font-family="Verdana" font-size="13" lengthAdjust="spacing" textLength="351" x="468" y="1061.4551">FROM @CustomersXML.nodes('/ArrayOfr/r') doc(col);</text><rect fill="#FFFFFF" height="34.584" rx="12.5" ry="12.5" style="stroke:#000000;stroke-width:1.0;" width="287" x="155" y="959.9963"/><text fill="#000000" font-family="Verdana" font-size="12" lengthAdjust="spacing" textLength="267" x="165" y="982.0608">Parse XML using SQL Server XML functions</text><rect fill="#FFFFFF" height="807.1846" style="stroke:#000000;stroke-width:1.0;" width="793" x="143" y="1124.1846"/><path d="M328,1124.1846 L328,1134.1992 L318,1144.1992 L143,1144.1992 " fill="none" style="stroke:#000000;stroke-width:1.0;"/><text fill="#000000" font-family="Verdana" font-size="14" lengthAdjust="spacing" textLength="175" x="146" y="1139.2598">Apply Classification Logic</text><path d="M464,1161.1992 L464,1422.8879 L444,1426.8879 L464,1430.8879 L464,1692.5767 A0,0 0 0 0 464,1692.5767 L926,1692.5767 A0,0 0 0 0 926,1692.5767 L926,1171.1992 L916,1161.1992 L464,1161.1992 A0,0 0 0 0 464,1161.1992 " fill="#FFFFFF" style="stroke:#000000;stroke-width:1.0;"/><path d="M916,1161.1992 L916,1171.1992 L926,1171.1992 L916,1161.1992 " fill="#FFFFFF" style="stroke:#000000;stroke-width:1.0;"/><text fill="#000000" font-family="Verdana" font-size="13" lengthAdjust="spacing" textLength="196" x="470" y="1179.269">Classification Decision Matrix:</text><text fill="#000000" font-family="Verdana" font-size="13" lengthAdjust="spacing" textLength="5" x="470" y="1195.0684">&#160;</text><text fill="#000000" font-family="Verdana" font-size="13" font-weight="bold" lengthAdjust="spacing" textLength="151" x="470" y="1210.8677">FOR EACH customer:</text><text fill="#000000" font-family="Verdana" font-size="13" lengthAdjust="spacing" textLength="5" x="470" y="1226.667">&#160;</text><text fill="#000000" font-family="Verdana" font-size="13" lengthAdjust="spacing" textLength="13" x="470" y="1242.4663">1.</text><text fill="#000000" font-family="Verdana" font-size="13" font-weight="bold" lengthAdjust="spacing" textLength="158" x="488" y="1242.4663">IsNewCreated = TRUE</text><text fill="#000000" font-family="Verdana" font-size="13" lengthAdjust="spacing" textLength="248" x="485" y="1258.2656">&#226;&#8224;&#8217; Apply new customer classification</text><text fill="#000000" font-family="Verdana" font-size="13" lengthAdjust="spacing" textLength="260" x="485" y="1274.0649">&#226;&#8224;&#8217; Set initial category based on profile</text><text fill="#000000" font-family="Verdana" font-size="13" lengthAdjust="spacing" textLength="188" x="485" y="1289.8643">&#226;&#8224;&#8217; Mark as new for tracking</text><text fill="#000000" font-family="Verdana" font-size="13" lengthAdjust="spacing" textLength="5" x="470" y="1305.6636">&#160;</text><text fill="#000000" font-family="Verdana" font-size="13" lengthAdjust="spacing" textLength="13" x="470" y="1321.4629">2.</text><text fill="#000000" font-family="Verdana" font-size="13" font-weight="bold" lengthAdjust="spacing" textLength="198" x="488" y="1321.4629">IsProbationLastDay = TRUE</text><text fill="#000000" font-family="Verdana" font-size="13" lengthAdjust="spacing" textLength="152" x="485" y="1337.2622">&#226;&#8224;&#8217; Complete probation</text><text fill="#000000" font-family="Verdana" font-size="13" lengthAdjust="spacing" textLength="225" x="485" y="1353.0615">&#226;&#8224;&#8217; Apply permanent classification</text><text fill="#000000" font-family="Verdana" font-size="13" lengthAdjust="spacing" textLength="171" x="485" y="1368.8608">&#226;&#8224;&#8217; Remove probation flag</text><text fill="#000000" font-family="Verdana" font-size="13" lengthAdjust="spacing" textLength="5" x="470" y="1384.6602">&#160;</text><text fill="#000000" font-family="Verdana" font-size="13" lengthAdjust="spacing" textLength="13" x="470" y="1400.4595">3.</text><text fill="#000000" font-family="Verdana" font-size="13" font-weight="bold" lengthAdjust="spacing" textLength="166" x="488" y="1400.4595">IsRealtimeOnly = TRUE</text><text fill="#000000" font-family="Verdana" font-size="13" lengthAdjust="spacing" textLength="211" x="485" y="1416.2588">&#226;&#8224;&#8217; Skip daily classification logic</text><text fill="#000000" font-family="Verdana" font-size="13" lengthAdjust="spacing" textLength="186" x="485" y="1432.0581">&#226;&#8224;&#8217; Only realtime rules apply</text><text fill="#000000" font-family="Verdana" font-size="13" lengthAdjust="spacing" textLength="147" x="485" y="1447.8574">&#226;&#8224;&#8217; Optimize for speed</text><text fill="#000000" font-family="Verdana" font-size="13" lengthAdjust="spacing" textLength="5" x="470" y="1463.6567">&#160;</text><text fill="#000000" font-family="Verdana" font-size="13" lengthAdjust="spacing" textLength="13" x="470" y="1479.4561">4.</text><text fill="#000000" font-family="Verdana" font-size="13" font-weight="bold" lengthAdjust="spacing" textLength="161" x="488" y="1479.4561">ScanTaggingType != 0</text><text fill="#000000" font-family="Verdana" font-size="13" lengthAdjust="spacing" textLength="199" x="485" y="1495.2554">&#226;&#8224;&#8217; Apply special tagging logic</text><text fill="#000000" font-family="Verdana" font-size="13" lengthAdjust="spacing" textLength="277" x="485" y="1511.0547">&#226;&#8224;&#8217; Tag based on ScanTaggingType value</text><text fill="#000000" font-family="Verdana" font-size="13" lengthAdjust="spacing" textLength="157" x="485" y="1526.854">&#226;&#8224;&#8217; Track for monitoring</text><text fill="#000000" font-family="Verdana" font-size="13" lengthAdjust="spacing" textLength="5" x="470" y="1542.6533">&#160;</text><text fill="#000000" font-family="Verdana" font-size="13" lengthAdjust="spacing" textLength="13" x="470" y="1558.4526">5.</text><text fill="#000000" font-family="Verdana" font-size="13" font-weight="bold" lengthAdjust="spacing" textLength="423" x="488" y="1558.4526">ScanSpecialLicSubType = 1 AND IsSpecialLicSubCC = TRUE</text><text fill="#000000" font-family="Verdana" font-size="13" lengthAdjust="spacing" textLength="323" x="485" y="1574.252">&#226;&#8224;&#8217; Apply special licensee sub-type classification</text><text fill="#000000" font-family="Verdana" font-size="13" lengthAdjust="spacing" textLength="224" x="485" y="1590.0513">&#226;&#8224;&#8217; Use alternative category rules</text><text fill="#000000" font-family="Verdana" font-size="13" lengthAdjust="spacing" textLength="157" x="485" y="1605.8506">&#226;&#8224;&#8217; Compliance handling</text><text fill="#000000" font-family="Verdana" font-size="13" lengthAdjust="spacing" textLength="5" x="470" y="1621.6499">&#160;</text><text fill="#000000" font-family="Verdana" font-size="13" lengthAdjust="spacing" textLength="13" x="470" y="1637.4492">6.</text><text fill="#000000" font-family="Verdana" font-size="13" font-weight="bold" lengthAdjust="spacing" textLength="52" x="488" y="1637.4492">Default</text><text fill="#000000" font-family="Verdana" font-size="13" lengthAdjust="spacing" textLength="213" x="485" y="1653.2485">&#226;&#8224;&#8217; Apply standard classification</text><text fill="#000000" font-family="Verdana" font-size="13" lengthAdjust="spacing" textLength="215" x="485" y="1669.0479">&#226;&#8224;&#8217; Based on current CategoryId</text><text fill="#000000" font-family="Verdana" font-size="13" lengthAdjust="spacing" textLength="100" x="485" y="1684.8472">&#226;&#8224;&#8217; Normal flow</text><rect fill="#FFFFFF" height="34.584" rx="12.5" ry="12.5" style="stroke:#000000;stroke-width:1.0;" width="291" x="153" y="1409.5959"/><text fill="#000000" font-family="Verdana" font-size="12" lengthAdjust="spacing" textLength="271" x="163" y="1431.6604">Process each customer with business rules</text><path d="M424,1727.5767 L424,1815.4729 L404,1819.4729 L424,1823.4729 L424,1911.3691 A0,0 0 0 0 424,1911.3691 L698,1911.3691 A0,0 0 0 0 698,1911.3691 L698,1737.5767 L688,1727.5767 L424,1727.5767 A0,0 0 0 0 424,1727.5767 " fill="#FFFFFF" style="stroke:#000000;stroke-width:1.0;"/><path d="M688,1727.5767 L688,1737.5767 L698,1737.5767 L688,1727.5767 " fill="#FFFFFF" style="stroke:#000000;stroke-width:1.0;"/><text fill="#000000" font-family="Verdana" font-size="13" lengthAdjust="spacing" textLength="228" x="430" y="1745.6465">Calculate new category based on:</text><text fill="#000000" font-family="Verdana" font-size="13" lengthAdjust="spacing" textLength="139" x="430" y="1761.4458">- Current CategoryId</text><text fill="#000000" font-family="Verdana" font-size="13" lengthAdjust="spacing" textLength="191" x="430" y="1777.2451">- Customer activity/behavior</text><text fill="#000000" font-family="Verdana" font-size="13" lengthAdjust="spacing" textLength="134" x="430" y="1793.0444">- Classification flags</text><text fill="#000000" font-family="Verdana" font-size="13" lengthAdjust="spacing" textLength="104" x="430" y="1808.8438">- Business rules</text><text fill="#000000" font-family="Verdana" font-size="13" lengthAdjust="spacing" textLength="5" x="430" y="1824.6431">&#160;</text><text fill="#000000" font-family="Verdana" font-size="13" lengthAdjust="spacing" textLength="127" x="430" y="1840.4424">Possible outcomes:</text><text fill="#000000" font-family="Verdana" font-size="13" lengthAdjust="spacing" textLength="161" x="430" y="1856.2417">- Keep current category</text><text fill="#000000" font-family="Verdana" font-size="13" lengthAdjust="spacing" textLength="249" x="430" y="1872.041">- Upgrade category (better behavior)</text><text fill="#000000" font-family="Verdana" font-size="13" lengthAdjust="spacing" textLength="253" x="430" y="1887.8403">- Downgrade category (risk detected)</text><text fill="#000000" font-family="Verdana" font-size="13" lengthAdjust="spacing" textLength="235" x="430" y="1903.6396">- Special category (flags triggered)</text><rect fill="#FFFFFF" height="34.584" rx="12.5" ry="12.5" style="stroke:#000000;stroke-width:1.0;" width="211" x="193" y="1802.1809"/><text fill="#000000" font-family="Verdana" font-size="12" lengthAdjust="spacing" textLength="191" x="203" y="1824.2454">Determine target classification</text><rect fill="#FFFFFF" height="664.9907" style="stroke:#000000;stroke-width:1.0;" width="614.5" x="164.5" y="1966.3691"/><path d="M430.5,1966.3691 L430.5,1976.3838 L420.5,1986.3838 L164.5,1986.3838 " fill="none" style="stroke:#000000;stroke-width:1.0;"/><text fill="#000000" font-family="Verdana" font-size="14" lengthAdjust="spacing" textLength="256" x="167.5" y="1981.4443">Update CustomerClassification Table</text><path d="M391,2003.3838 L391,2209.7749 L371,2213.7749 L391,2217.7749 L391,2424.166 A0,0 0 0 0 391,2424.166 L769,2424.166 A0,0 0 0 0 769,2424.166 L769,2013.3838 L759,2003.3838 L391,2003.3838 A0,0 0 0 0 391,2003.3838 " fill="#FFFFFF" style="stroke:#000000;stroke-width:1.0;"/><path d="M759,2003.3838 L759,2013.3838 L769,2013.3838 L759,2003.3838 " fill="#FFFFFF" style="stroke:#000000;stroke-width:1.0;"/><text fill="#000000" font-family="Verdana" font-size="13" lengthAdjust="spacing" textLength="266" x="397" y="2021.4536">MERGE CustomerClassification AS target</text><text fill="#000000" font-family="Verdana" font-size="13" lengthAdjust="spacing" textLength="222" x="397" y="2037.2529">USING #tmpCustomers AS source</text><text fill="#000000" font-family="Verdana" font-size="13" lengthAdjust="spacing" textLength="224" x="397" y="2053.0522">ON target.CustId = source.CustId</text><text fill="#000000" font-family="Verdana" font-size="13" lengthAdjust="spacing" textLength="5" x="397" y="2068.8516">&#160;</text><text fill="#000000" font-family="Verdana" font-size="13" lengthAdjust="spacing" textLength="148" x="397" y="2084.6509">WHEN MATCHED THEN</text><text fill="#000000" font-family="Verdana" font-size="13" lengthAdjust="spacing" textLength="83" x="407" y="2100.4502">UPDATE SET</text><text fill="#000000" font-family="Verdana" font-size="13" lengthAdjust="spacing" textLength="244" x="417" y="2116.2495">CategoryId = [calculated_category],</text><text fill="#000000" font-family="Verdana" font-size="13" lengthAdjust="spacing" textLength="210" x="417" y="2132.0488">LastModifiedDate = GETDATE(),</text><text fill="#000000" font-family="Verdana" font-size="13" lengthAdjust="spacing" textLength="285" x="417" y="2147.8481">ModifiedBy = 'NormalAccountClassification',</text><text fill="#000000" font-family="Verdana" font-size="13" lengthAdjust="spacing" textLength="265" x="417" y="2163.6475">IsRealtimeOnly = source.IsRealtimeOnly,</text><text fill="#000000" font-family="Verdana" font-size="13" lengthAdjust="spacing" textLength="309" x="417" y="2179.4468">ScanTaggingType = source.ScanTaggingType,</text><text fill="#000000" font-family="Verdana" font-size="13" lengthAdjust="spacing" textLength="204" x="417" y="2195.2461">-- Update other relevant fields</text><text fill="#000000" font-family="Verdana" font-size="13" lengthAdjust="spacing" textLength="5" x="397" y="2211.0454">&#160;</text><text fill="#000000" font-family="Verdana" font-size="13" lengthAdjust="spacing" textLength="181" x="397" y="2226.8447">WHEN NOT MATCHED THEN</text><text fill="#000000" font-family="Verdana" font-size="13" lengthAdjust="spacing" textLength="59" x="407" y="2242.644">INSERT (</text><text fill="#000000" font-family="Verdana" font-size="13" lengthAdjust="spacing" textLength="224" x="417" y="2258.4434">CustId, CategoryId, CreatedDate,</text><text fill="#000000" font-family="Verdana" font-size="13" lengthAdjust="spacing" textLength="229" x="417" y="2274.2427">IsRealtimeOnly, ScanTaggingType,</text><text fill="#000000" font-family="Verdana" font-size="13" lengthAdjust="spacing" textLength="15" x="417" y="2290.042">...</text><text fill="#000000" font-family="Verdana" font-size="13" lengthAdjust="spacing" textLength="6" x="407" y="2305.8413">)</text><text fill="#000000" font-family="Verdana" font-size="13" lengthAdjust="spacing" textLength="62" x="407" y="2321.6406">VALUES (</text><text fill="#000000" font-family="Verdana" font-size="13" lengthAdjust="spacing" textLength="337" x="417" y="2337.4399">source.CustId, [calculated_category], GETDATE(),</text><text fill="#000000" font-family="Verdana" font-size="13" lengthAdjust="spacing" textLength="327" x="417" y="2353.2393">source.IsRealtimeOnly, source.ScanTaggingType,</text><text fill="#000000" font-family="Verdana" font-size="13" lengthAdjust="spacing" textLength="15" x="417" y="2369.0386">...</text><text fill="#000000" font-family="Verdana" font-size="13" lengthAdjust="spacing" textLength="12" x="407" y="2384.8379">);</text><text fill="#000000" font-family="Verdana" font-size="13" lengthAdjust="spacing" textLength="5" x="397" y="2400.6372">&#160;</text><text fill="#000000" font-family="Verdana" font-size="13" font-weight="bold" lengthAdjust="spacing" textLength="59" x="397" y="2416.4365">Purpose</text><text fill="#000000" font-family="Verdana" font-size="13" lengthAdjust="spacing" textLength="222" x="456" y="2416.4365">: Apply classification to database</text><rect fill="#FFFFFF" height="34.584" rx="12.5" ry="12.5" style="stroke:#000000;stroke-width:1.0;" width="145" x="226" y="2196.4829"/><text fill="#000000" font-family="Verdana" font-size="12" lengthAdjust="spacing" textLength="125" x="236" y="2218.5474">Upsert classification</text><path d="M442.5,2459.166 L442.5,2531.2629 L422.5,2535.2629 L442.5,2539.2629 L442.5,2611.3599 A0,0 0 0 0 442.5,2611.3599 L725.5,2611.3599 A0,0 0 0 0 725.5,2611.3599 L725.5,2469.166 L715.5,2459.166 L442.5,2459.166 A0,0 0 0 0 442.5,2459.166 " fill="#FFFFFF" style="stroke:#000000;stroke-width:1.0;"/><path d="M715.5,2459.166 L715.5,2469.166 L725.5,2469.166 L715.5,2459.166 " fill="#FFFFFF" style="stroke:#000000;stroke-width:1.0;"/><text fill="#000000" font-family="Verdana" font-size="13" lengthAdjust="spacing" textLength="262" x="448.5" y="2477.2358">INSERT INTO CustomerClassificationLog</text><text fill="#000000" font-family="Verdana" font-size="13" lengthAdjust="spacing" textLength="50" x="448.5" y="2493.0352">SELECT</text><text fill="#000000" font-family="Verdana" font-size="13" lengthAdjust="spacing" textLength="48" x="458.5" y="2508.8345">CustId,</text><text fill="#000000" font-family="Verdana" font-size="13" lengthAdjust="spacing" textLength="99" x="458.5" y="2524.6338">OldCategoryId,</text><text fill="#000000" font-family="Verdana" font-size="13" lengthAdjust="spacing" textLength="106" x="458.5" y="2540.4331">NewCategoryId,</text><text fill="#000000" font-family="Verdana" font-size="13" lengthAdjust="spacing" textLength="194" x="458.5" y="2556.2324">GETDATE() AS ChangedDate,</text><text fill="#000000" font-family="Verdana" font-size="13" lengthAdjust="spacing" textLength="208" x="448.5" y="2572.0317">FROM [classification_changes];</text><text fill="#000000" font-family="Verdana" font-size="13" lengthAdjust="spacing" textLength="5" x="448.5" y="2587.8311">&#160;</text><text fill="#000000" font-family="Verdana" font-size="13" lengthAdjust="spacing" textLength="238" x="448.5" y="2603.6304">Track classification history for audit</text><rect fill="#FFFFFF" height="34.584" rx="12.5" ry="12.5" style="stroke:#000000;stroke-width:1.0;" width="248" x="174.5" y="2517.9709"/><text fill="#000000" font-family="Verdana" font-size="12" lengthAdjust="spacing" textLength="228" x="184.5" y="2540.0354">Log classification changes (optional)</text><rect fill="#FFFFFF" height="559.541" style="stroke:#000000;stroke-width:1.0;" width="718" x="172.5" y="2666.3599"/><path d="M329.5,2666.3599 L329.5,2676.3745 L319.5,2686.3745 L172.5,2686.3745 " fill="none" style="stroke:#000000;stroke-width:1.0;"/><text fill="#000000" font-family="Verdana" font-size="14" lengthAdjust="spacing" textLength="147" x="175.5" y="2681.4351">Handle Special Cases</text><path d="M424.5,2752.0588 L424.5,2808.3564 L404.5,2812.3564 L424.5,2816.3564 L424.5,2872.6541 A0,0 0 0 0 424.5,2872.6541 L858.5,2872.6541 A0,0 0 0 0 858.5,2872.6541 L858.5,2762.0588 L848.5,2752.0588 L424.5,2752.0588 A0,0 0 0 0 424.5,2752.0588 " fill="#FFFFFF" style="stroke:#000000;stroke-width:1.0;"/><path d="M848.5,2752.0588 L848.5,2762.0588 L858.5,2762.0588 L848.5,2752.0588 " fill="#FFFFFF" style="stroke:#000000;stroke-width:1.0;"/><text fill="#000000" font-family="Verdana" font-size="13" lengthAdjust="spacing" textLength="205" x="430.5" y="2770.1287">UPDATE CustomerClassification</text><text fill="#000000" font-family="Verdana" font-size="13" lengthAdjust="spacing" textLength="413" x="430.5" y="2785.928">SET SpecialLicSubCategoryId = [calculated_special_category]</text><text fill="#000000" font-family="Verdana" font-size="13" lengthAdjust="spacing" textLength="124" x="430.5" y="2801.7273">WHERE CustId IN (</text><text fill="#000000" font-family="Verdana" font-size="13" lengthAdjust="spacing" textLength="249" x="440.5" y="2817.5266">SELECT CustId FROM #tmpCustomers</text><text fill="#000000" font-family="Verdana" font-size="13" lengthAdjust="spacing" textLength="234" x="440.5" y="2833.3259">WHERE ScanSpecialLicSubType = 1</text><text fill="#000000" font-family="Verdana" font-size="13" lengthAdjust="spacing" textLength="179" x="450.5" y="2849.1252">AND IsSpecialLicSubCC = 1</text><text fill="#000000" font-family="Verdana" font-size="13" lengthAdjust="spacing" textLength="12" x="430.5" y="2864.9246">);</text><rect fill="#FFFFFF" height="34.584" rx="12.5" ry="12.5" style="stroke:#000000;stroke-width:1.0;" width="212" x="192.5" y="2795.0645"/><text fill="#000000" font-family="Verdana" font-size="12" lengthAdjust="spacing" textLength="192" x="202.5" y="2817.1289">Update SpecialLicSubCategory</text><polygon fill="#FFFFFF" points="210.5,2703.3745,386.5,2703.3745,398.5,2715.3745,386.5,2727.3745,210.5,2727.3745,198.5,2715.3745,210.5,2703.3745" style="stroke:#000000;stroke-width:1.0;"/><text fill="#000000" font-family="Verdana" font-size="11" lengthAdjust="spacing" textLength="20" x="302.5" y="2738.4336">yes</text><text fill="#000000" font-family="Verdana" font-size="11" lengthAdjust="spacing" textLength="176" x="210.5" y="2719.7493">Has Special LicSub customers?</text><polygon fill="#FFFFFF" points="298.5,2897.3384,310.5,2909.3384,298.5,2921.3384,286.5,2909.3384,298.5,2897.3384" style="stroke:#000000;stroke-width:1.0;"/><path d="M394.5,3005.0227 L394.5,3077.1196 L374.5,3081.1196 L394.5,3085.1196 L394.5,3157.2166 A0,0 0 0 0 394.5,3157.2166 L679.5,3157.2166 A0,0 0 0 0 679.5,3157.2166 L679.5,3015.0227 L669.5,3005.0227 L394.5,3005.0227 A0,0 0 0 0 394.5,3005.0227 " fill="#FFFFFF" style="stroke:#000000;stroke-width:1.0;"/><path d="M669.5,3005.0227 L669.5,3015.0227 L679.5,3015.0227 L669.5,3005.0227 " fill="#FFFFFF" style="stroke:#000000;stroke-width:1.0;"/><text fill="#000000" font-family="Verdana" font-size="13" lengthAdjust="spacing" textLength="205" x="400.5" y="3023.0925">UPDATE CustomerClassification</text><text fill="#000000" font-family="Verdana" font-size="13" lengthAdjust="spacing" textLength="26" x="400.5" y="3038.8918">SET</text><text fill="#000000" font-family="Verdana" font-size="13" lengthAdjust="spacing" textLength="106" x="410.5" y="3054.6912">IsProbation = 0,</text><text fill="#000000" font-family="Verdana" font-size="13" lengthAdjust="spacing" textLength="173" x="410.5" y="3070.4905">ProbationEndDate = NULL,</text><text fill="#000000" font-family="Verdana" font-size="13" lengthAdjust="spacing" textLength="254" x="410.5" y="3086.2898">ProbationCompletedDate = GETDATE()</text><text fill="#000000" font-family="Verdana" font-size="13" lengthAdjust="spacing" textLength="124" x="400.5" y="3102.0891">WHERE CustId IN (</text><text fill="#000000" font-family="Verdana" font-size="13" lengthAdjust="spacing" textLength="249" x="410.5" y="3117.8884">SELECT CustId FROM #tmpCustomers</text><text fill="#000000" font-family="Verdana" font-size="13" lengthAdjust="spacing" textLength="205" x="410.5" y="3133.6877">WHERE IsProbationLastDay = 1</text><text fill="#000000" font-family="Verdana" font-size="13" lengthAdjust="spacing" textLength="12" x="400.5" y="3149.4871">);</text><rect fill="#FFFFFF" height="34.584" rx="12.5" ry="12.5" style="stroke:#000000;stroke-width:1.0;" width="152" x="222.5" y="3063.8276"/><text fill="#000000" font-family="Verdana" font-size="12" lengthAdjust="spacing" textLength="132" x="232.5" y="3085.8921">Clear probation flags</text><polygon fill="#FFFFFF" points="220,2956.3384,377,2956.3384,389,2968.3384,377,2980.3384,220,2980.3384,208,2968.3384,220,2956.3384" style="stroke:#000000;stroke-width:1.0;"/><text fill="#000000" font-family="Verdana" font-size="11" lengthAdjust="spacing" textLength="20" x="302.5" y="2991.3975">yes</text><text fill="#000000" font-family="Verdana" font-size="11" lengthAdjust="spacing" textLength="157" x="220" y="2972.7131">Has Probation completions?</text><polygon fill="#FFFFFF" points="298.5,3181.9009,310.5,3193.9009,298.5,3205.9009,286.5,3193.9009,298.5,3181.9009" style="stroke:#000000;stroke-width:1.0;"/><rect fill="#FFFFFF" height="91.5986" style="stroke:#000000;stroke-width:1.0;" width="412" x="211" y="3260.9009"/><path d="M277,3260.9009 L277,3270.9155 L267,3280.9155 L211,3280.9155 " fill="none" style="stroke:#000000;stroke-width:1.0;"/><text fill="#000000" font-family="Verdana" font-size="14" lengthAdjust="spacing" textLength="56" x="214" y="3275.9761">Cleanup</text><path d="M396,3302.3079 L396,3311.2075 L376,3315.2075 L396,3319.2075 L396,3328.1072 A0,0 0 0 0 396,3328.1072 L613,3328.1072 A0,0 0 0 0 613,3328.1072 L613,3312.3079 L603,3302.3079 L396,3302.3079 A0,0 0 0 0 396,3302.3079 " fill="#FFFFFF" style="stroke:#000000;stroke-width:1.0;"/><path d="M603,3302.3079 L603,3312.3079 L613,3312.3079 L603,3302.3079 " fill="#FFFFFF" style="stroke:#000000;stroke-width:1.0;"/><text fill="#000000" font-family="Verdana" font-size="13" lengthAdjust="spacing" textLength="196" x="402" y="3320.3777">DROP TABLE #tmpCustomers;</text><rect fill="#FFFFFF" height="34.584" rx="12.5" ry="12.5" style="stroke:#000000;stroke-width:1.0;" width="155" x="221" y="3297.9155"/><text fill="#000000" font-family="Verdana" font-size="12" lengthAdjust="spacing" textLength="135" x="231" y="3319.98">Drop temporary table</text><path d="M376,3387.4995 L376,3657.0879 L356,3661.0879 L376,3665.0879 L376,3934.6763 A0,0 0 0 0 376,3934.6763 L762,3934.6763 A0,0 0 0 0 762,3934.6763 L762,3397.4995 L752,3387.4995 L376,3387.4995 A0,0 0 0 0 376,3387.4995 " fill="#FFFFFF" style="stroke:#000000;stroke-width:1.0;"/><path d="M752,3387.4995 L752,3397.4995 L762,3397.4995 L752,3387.4995 " fill="#FFFFFF" style="stroke:#000000;stroke-width:1.0;"/><text fill="#000000" font-family="Verdana" font-size="13" font-weight="bold" lengthAdjust="spacing" textLength="69" x="382" y="3405.5693">Key Logic</text><text fill="#000000" font-family="Verdana" font-size="13" lengthAdjust="spacing" textLength="6" x="451" y="3405.5693">:</text><text fill="#000000" font-family="Verdana" font-size="13" lengthAdjust="spacing" textLength="365" x="382" y="3421.3687">1. Parse XML customer data with all classification flags</text><text fill="#000000" font-family="Verdana" font-size="13" lengthAdjust="spacing" textLength="339" x="382" y="3437.168">2. Apply complex classification rules based on flags</text><text fill="#000000" font-family="Verdana" font-size="13" lengthAdjust="spacing" textLength="315" x="382" y="3452.9673">3. Calculate target category for each customer</text><text fill="#000000" font-family="Verdana" font-size="13" lengthAdjust="spacing" textLength="342" x="382" y="3468.7666">4. MERGE (upsert) into CustomerClassification table</text><text fill="#000000" font-family="Verdana" font-size="13" lengthAdjust="spacing" textLength="287" x="382" y="3484.5659">5. Handle special cases (LicSub, Probation)</text><text fill="#000000" font-family="Verdana" font-size="13" lengthAdjust="spacing" textLength="192" x="382" y="3500.3652">6. Log changes for audit trail</text><text fill="#000000" font-family="Verdana" font-size="13" lengthAdjust="spacing" textLength="5" x="382" y="3516.1646">&#160;</text><text fill="#000000" font-family="Verdana" font-size="13" font-weight="bold" lengthAdjust="spacing" textLength="197" x="382" y="3531.9639">Classification Rules Priority</text><text fill="#000000" font-family="Verdana" font-size="13" lengthAdjust="spacing" textLength="6" x="579" y="3531.9639">:</text><text fill="#000000" font-family="Verdana" font-size="13" lengthAdjust="spacing" textLength="226" x="382" y="3547.7632">1. IsNewCreated (highest priority)</text><text fill="#000000" font-family="Verdana" font-size="13" lengthAdjust="spacing" textLength="145" x="382" y="3563.5625">2. IsProbationLastDay</text><text fill="#000000" font-family="Verdana" font-size="13" lengthAdjust="spacing" textLength="313" x="382" y="3579.3618">3. IsSpecialLicSubCC + ScanSpecialLicSubType</text><text fill="#000000" font-family="Verdana" font-size="13" lengthAdjust="spacing" textLength="136" x="382" y="3595.1611">4. ScanTaggingType</text><text fill="#000000" font-family="Verdana" font-size="13" lengthAdjust="spacing" textLength="279" x="382" y="3610.9604">5. Standard classification (lowest priority)</text><text fill="#000000" font-family="Verdana" font-size="13" lengthAdjust="spacing" textLength="5" x="382" y="3626.7598">&#160;</text><text fill="#000000" font-family="Verdana" font-size="13" font-weight="bold" lengthAdjust="spacing" textLength="120" x="382" y="3642.5591">Tables Accessed</text><text fill="#000000" font-family="Verdana" font-size="13" lengthAdjust="spacing" textLength="6" x="502" y="3642.5591">:</text><text fill="#000000" font-family="Verdana" font-size="13" lengthAdjust="spacing" textLength="260" x="382" y="3658.3584">- CustomerClassification (READ/WRITE)</text><text fill="#000000" font-family="Verdana" font-size="13" lengthAdjust="spacing" textLength="172" x="392" y="3674.1577">* Main classification table</text><text fill="#000000" font-family="Verdana" font-size="13" lengthAdjust="spacing" textLength="267" x="392" y="3689.957">* Stores current and historical category</text><text fill="#000000" font-family="Verdana" font-size="13" lengthAdjust="spacing" textLength="243" x="382" y="3705.7563">- CustomerClassificationLog (WRITE)</text><text fill="#000000" font-family="Verdana" font-size="13" lengthAdjust="spacing" textLength="78" x="392" y="3721.5557">* Audit trail</text><text fill="#000000" font-family="Verdana" font-size="13" lengthAdjust="spacing" textLength="220" x="392" y="3737.355">* Track all classification changes</text><text fill="#000000" font-family="Verdana" font-size="13" lengthAdjust="spacing" textLength="5" x="382" y="3753.1543">&#160;</text><text fill="#000000" font-family="Verdana" font-size="13" font-weight="bold" lengthAdjust="spacing" textLength="93" x="382" y="3768.9536">Performance</text><text fill="#000000" font-family="Verdana" font-size="13" lengthAdjust="spacing" textLength="6" x="475" y="3768.9536">:</text><text fill="#000000" font-family="Verdana" font-size="13" lengthAdjust="spacing" textLength="317" x="382" y="3784.7529">- XML parsing: SQL Server XML functions (fast)</text><text fill="#000000" font-family="Verdana" font-size="13" lengthAdjust="spacing" textLength="243" x="382" y="3800.5522">- MERGE: Single operation for upsert</text><text fill="#000000" font-family="Verdana" font-size="13" lengthAdjust="spacing" textLength="210" x="382" y="3816.3516">- Temp table: Batch processing</text><text fill="#000000" font-family="Verdana" font-size="13" lengthAdjust="spacing" textLength="299" x="382" y="3832.1509">- Indexes on CustId: Fast lookup and update</text><text fill="#000000" font-family="Verdana" font-size="13" lengthAdjust="spacing" textLength="5" x="382" y="3847.9502">&#160;</text><text fill="#000000" font-family="Verdana" font-size="13" font-weight="bold" lengthAdjust="spacing" textLength="121" x="382" y="3863.7495">Business Impact</text><text fill="#000000" font-family="Verdana" font-size="13" lengthAdjust="spacing" textLength="6" x="503" y="3863.7495">:</text><text fill="#000000" font-family="Verdana" font-size="13" lengthAdjust="spacing" textLength="213" x="382" y="3879.5488">- Determines customer risk level</text><text fill="#000000" font-family="Verdana" font-size="13" lengthAdjust="spacing" textLength="150" x="382" y="3895.3481">- Affects betting limits</text><text fill="#000000" font-family="Verdana" font-size="13" lengthAdjust="spacing" textLength="174" x="382" y="3911.1475">- Triggers monitoring rules</text><text fill="#000000" font-family="Verdana" font-size="13" lengthAdjust="spacing" textLength="207" x="382" y="3926.9468">- Impacts customer experience</text><rect fill="#FFFFFF" height="34.584" rx="12.5" ry="12.5" style="stroke:#000000;stroke-width:1.0;" width="115" x="241" y="3643.7959"/><text fill="#000000" font-family="Verdana" font-size="12" lengthAdjust="spacing" textLength="95" x="251" y="3665.8604">Return success</text><ellipse cx="298.5" cy="3980.6763" fill="none" rx="11" ry="11" style="stroke:#000000;stroke-width:1.0;"/><ellipse cx="298.5" cy="3980.6763" fill="#FFFFFF" rx="6" ry="6" style="stroke:#000000;stroke-width:1.0;"/><line style="stroke:#000000;stroke-width:1.0;" x1="298.5" x2="298.5" y1="164.7813" y2="219.7813"/><polygon fill="#000000" points="294.5,209.7813,298.5,219.7813,302.5,209.7813,298.5,213.7813" style="stroke:#000000;stroke-width:1.0;"/><line style="stroke:#000000;stroke-width:1.0;" x1="298.5" x2="298.5" y1="239.7813" y2="433.7981"/><polygon fill="#000000" points="294.5,423.7981,298.5,433.7981,302.5,423.7981,298.5,427.7981" style="stroke:#000000;stroke-width:1.0;"/><line style="stroke:#000000;stroke-width:1.0;" x1="298.5" x2="298.5" y1="783.6875" y2="959.9963"/><polygon fill="#000000" points="294.5,949.9963,298.5,959.9963,302.5,949.9963,298.5,953.9963" style="stroke:#000000;stroke-width:1.0;"/><line style="stroke:#000000;stroke-width:1.0;" x1="298.5" x2="298.5" y1="468.3821" y2="749.1035"/><polygon fill="#000000" points="294.5,739.1035,298.5,749.1035,302.5,739.1035,298.5,743.1035" style="stroke:#000000;stroke-width:1.0;"/><line style="stroke:#000000;stroke-width:1.0;" x1="298.5" x2="298.5" y1="1444.1799" y2="1802.1809"/><polygon fill="#000000" points="294.5,1792.1809,298.5,1802.1809,302.5,1792.1809,298.5,1796.1809" style="stroke:#000000;stroke-width:1.0;"/><line style="stroke:#000000;stroke-width:1.0;" x1="298.5" x2="298.5" y1="994.5803" y2="1409.5959"/><polygon fill="#000000" points="294.5,1399.5959,298.5,1409.5959,302.5,1399.5959,298.5,1403.5959" style="stroke:#000000;stroke-width:1.0;"/><line style="stroke:#000000;stroke-width:1.0;" x1="298.5" x2="298.5" y1="2231.0669" y2="2517.9709"/><polygon fill="#000000" points="294.5,2507.9709,298.5,2517.9709,302.5,2507.9709,298.5,2511.9709" style="stroke:#000000;stroke-width:1.0;"/><line style="stroke:#000000;stroke-width:1.0;" x1="298.5" x2="298.5" y1="1836.7649" y2="2196.4829"/><polygon fill="#000000" points="294.5,2186.4829,298.5,2196.4829,302.5,2186.4829,298.5,2190.4829" style="stroke:#000000;stroke-width:1.0;"/><line style="stroke:#000000;stroke-width:1.0;" x1="298.5" x2="298.5" y1="2727.3745" y2="2795.0645"/><polygon fill="#000000" points="294.5,2785.0645,298.5,2795.0645,302.5,2785.0645,298.5,2789.0645" style="stroke:#000000;stroke-width:1.0;"/><line style="stroke:#000000;stroke-width:1.0;" x1="398.5" x2="868.5" y1="2715.3745" y2="2715.3745"/><polygon fill="#000000" points="864.5,2802.3564,868.5,2812.3564,872.5,2802.3564,868.5,2806.3564" style="stroke:#000000;stroke-width:1.0;"/><line style="stroke:#000000;stroke-width:1.0;" x1="868.5" x2="868.5" y1="2715.3745" y2="2909.3384"/><line style="stroke:#000000;stroke-width:1.0;" x1="868.5" x2="310.5" y1="2909.3384" y2="2909.3384"/><polygon fill="#000000" points="320.5,2905.3384,310.5,2909.3384,320.5,2913.3384,316.5,2909.3384" style="stroke:#000000;stroke-width:1.0;"/><line style="stroke:#000000;stroke-width:1.0;" x1="298.5" x2="298.5" y1="2829.6484" y2="2897.3384"/><polygon fill="#000000" points="294.5,2887.3384,298.5,2897.3384,302.5,2887.3384,298.5,2891.3384" style="stroke:#000000;stroke-width:1.0;"/><line style="stroke:#000000;stroke-width:1.0;" x1="298.5" x2="298.5" y1="2980.3384" y2="3063.8276"/><polygon fill="#000000" points="294.5,3053.8276,298.5,3063.8276,302.5,3053.8276,298.5,3057.8276" style="stroke:#000000;stroke-width:1.0;"/><line style="stroke:#000000;stroke-width:1.0;" x1="389" x2="689.5" y1="2968.3384" y2="2968.3384"/><polygon fill="#000000" points="685.5,3071.1196,689.5,3081.1196,693.5,3071.1196,689.5,3075.1196" style="stroke:#000000;stroke-width:1.0;"/><line style="stroke:#000000;stroke-width:1.0;" x1="689.5" x2="689.5" y1="2968.3384" y2="3193.9009"/><line style="stroke:#000000;stroke-width:1.0;" x1="689.5" x2="310.5" y1="3193.9009" y2="3193.9009"/><polygon fill="#000000" points="320.5,3189.9009,310.5,3193.9009,320.5,3197.9009,316.5,3193.9009" style="stroke:#000000;stroke-width:1.0;"/><line style="stroke:#000000;stroke-width:1.0;" x1="298.5" x2="298.5" y1="3098.4116" y2="3181.9009"/><polygon fill="#000000" points="294.5,3171.9009,298.5,3181.9009,302.5,3171.9009,298.5,3175.9009" style="stroke:#000000;stroke-width:1.0;"/><line style="stroke:#000000;stroke-width:1.0;" x1="298.5" x2="298.5" y1="2921.3384" y2="2956.3384"/><polygon fill="#000000" points="294.5,2946.3384,298.5,2956.3384,302.5,2946.3384,298.5,2950.3384" style="stroke:#000000;stroke-width:1.0;"/><line style="stroke:#000000;stroke-width:1.0;" x1="298.5" x2="298.5" y1="2552.5549" y2="2703.3745"/><polygon fill="#000000" points="294.5,2693.3745,298.5,2703.3745,302.5,2693.3745,298.5,2697.3745" style="stroke:#000000;stroke-width:1.0;"/><line style="stroke:#000000;stroke-width:1.0;" x1="298.5" x2="298.5" y1="3205.9009" y2="3297.9155"/><polygon fill="#000000" points="294.5,3287.9155,298.5,3297.9155,302.5,3287.9155,298.5,3291.9155" style="stroke:#000000;stroke-width:1.0;"/><line style="stroke:#000000;stroke-width:1.0;" x1="298.5" x2="298.5" y1="3332.4995" y2="3643.7959"/><polygon fill="#000000" points="294.5,3633.7959,298.5,3643.7959,302.5,3633.7959,298.5,3637.7959" style="stroke:#000000;stroke-width:1.0;"/><line style="stroke:#000000;stroke-width:1.0;" x1="298.5" x2="298.5" y1="3678.3799" y2="3969.6763"/><polygon fill="#000000" points="294.5,3959.6763,298.5,3969.6763,302.5,3959.6763,298.5,3963.6763" style="stroke:#000000;stroke-width:1.0;"/><!--SRC=[jLdRRkD64dtNLrHc7onfVHdFRFP1CtOYInnRY2nh9JbPO30mscHB9aoHH7VJjh88aD_8ss9_PVyaNxBL5rwwISg3HU87csHLTLVNzLJx6_50jnJIY8HnHuGYeh0K2QC1p5dYqo1ZT02ZrVBkaiQKaMYMi2s9HX7XF5o7FX5X4j_fZ_CaYUuCPGT7CAQ2X16kz2bAdZiTdx00tlJxo_d_jM2__mO8X-KS_jK1ODGN9DwWjhZYc0XoJpZjzmTmdmJtTpyktbqd0OsWk_p759QKFL7MK-BZ2rTu5MvfaWaf-_xjM-3KJ-A0AsP3wlpIwN11cEXqKlmTIWtXpIHECm5pmiYM2ifGGkerM52VXayKlXzbN2HR9FppUWfT_DNxWFGu4HHOk7aG-29_YWK6jeWXVvA640EGYom52-ED8PW_tWlPfX4TcDUFGyR8xcRDpiq7_5HvnZUvnoGuFttt_kE9URR8HD1DmdRu-LjaAD-gJ1C-eyyZHf4QdAz9nEd74-kRpOo1TA_SEYLSZCck5AbHRC459P507zp4qUvSi4p9M1-h_4kVn2kosQ2DLhkKdh_zUE9-SjcNAVL34ar3VvdTLuNg15ipYpuQbITo2QKRJYf-E3u-pXrsKlKOZGCL8JBYAg66CSAf2W4PwIRGjAr1q6sQCC9sW3aGqSOO6osyuSg3rV1Ywi5Vn3Oj0WswXKuw6E1YSZcPhGxBpqK8WFMzwcyKiYYkMrrwrOKspN6OlMMZOroj70V8vGrLvLzXOPL1WzAo6SSzeImNwkCwYtrv3jveribiwIrMKe4Rswg6llIctcW5XN91uX_xINJyHAACTW-qmJ-VVZauX0DjzeCU39V64uUjSeL7Z6mfM51QXQjkAxOsubNQdWLSxzQNSJdsB5ODXVf2LMhh8axCk4Pno7kNgKLNqs8rfZt7SwAnVaA78Q_wYvjhknqSnzZFUFUWA1Sd39V0_RgudntPTkqOfYaccTrUOPfiGj_K4TNcEGTA_0VmpPRm78e7k9T98MaiYsXp3ZWBZ_4qN3vS4snMBmExMVNxdsuMu0r7LyL6WtxVvZazHZQhk9p1Qd7h5Npuyz___Fxhlt__zJVGXulfSwcuRodK8BEa0i8OhKCYy4t2W4GF0Q3UAKlMY5aQvAu9UvIWGEwsJXW8Hlp7MZz-fzMlLS0zXnWbieEZNTDSgFMaAKKq4DDOl7xC1TqcJvKrOHqHHzVtMbUh6k_HS_aOfX0WejivkqCamwb1Ggt8pF8wY838WpJnfiWK_aoLRNbAQM0h-pUfhDiUlZc3jti2W-lamiweH5hrn2NB273tKBdS92JzhxJT9XXEIHsRVPkhN6zQPt0AmzcueL-z6ktveQBGfp6d57XsVoJaeg_6n2tsEdG6PJ5oO70KuQzSqnQQ8Obz2Wya3gBQ4VykZpYcQv95Of_E2BS32VzVLV4YTuEVCIO3lUnf3TnwJC3GnlcYrjl74bLliO2X_zc6kZdJNCv8v6UHn5MggBZb8QzdHzYZMzGxWhni0q7iy1IAtSazVI1FOS9A5Zj_P6hoWdXXLLtRtlC4vH3c0OubFcx2Iur-e3Gjh9PhNb1lqmqZGSNbtNigq3wGwzOhMCV9S-moiv0_Ge06zR4YbwmcU2kCwYXO6yFDXZBDsjAORjD0sZctbcEIbGIpfaFTffoohtBVjRUuzDgMn7wh0y4mtoudiqi73YCFJpBcvmb_CpConmOUdncwURUzyzELDuFhuMfqvOrXXIz5oDxEnnA1BxrLPOweGEip-EpdeHVSvURySbZXbfq4Xrey3mt6qd9dSEcjvBBTNfKlvxcGnVn0PyZGzvCi5hP13gfIjJPWZjc6mUfGlH1f1LmOCJ8GbTiJyO31nsX4dmZ6AoeS1Rp1chERLRD53VZkLksfSNCL1eC14T9WxSSzX3qwbxCQZX35qu_3wQstjBQt0kEmnQ7DFciszbSOr5BkWuksvXbB4tqjekkmqxT5WlrSNvtKooTYH9VVnoQmmHxUJLBvJgBUgtDHSoxYsYqpaZlxt4H1qrGZuM73vyAuQXfIsZgktviG5QcBNKq6v7KKD8YWqtZHp1Hq_smRxiuOxelZ8GqX72C_X6WnBAKIMP0i24Lx2RsIFPaMLNY4VZJNKE4QkbVojioGDBmeK3B_hWUOW35qTvJhe1wOnBJnYB6nrhlcwAAkDNkv7DozLVEwjSfdm4sPCCKQM0qMNdv9CPbPcMU2o12L1vhcyNAPLb1MuOHMW7RgfbmbS_0nNEiCodrGp0BWQwGlBnGQ732AA64EOET_WEMjibSgWz2vMaaAWXVdxMLsEvqsikGJIwqF_JdUQXodNdU2dIlIkd6M6aWnPadwLLTduyNDlEdYp9su1migCXOZ6FVbDFsXqx6MwlT_e3izTcCrxgWnjxnxAePNMOtrw4sYo2qCEKh44TDKS-M65vTFprd5F9EBuRHNejiS4UUuJHORwmAWeoOkZQUwcG9WFHoRiMEqe2jbmeuQUanPuWKuvB9dw0GwBAD8HWlE3whFcCPIr3mvNOUHpgD-tzbgeGuuPuXQ4LqNzhGk3ReFQ7dA1UQJPkjfozLZIPkcdkT_RQuIsZ1EIzRdNZPFET35ySHLHPrBWLm4dIfaQA1FSjHcuUx26uvFVbfCLfvEj3vSap2kDNNZ24bN_ydXnLI0wfdsWinHTKWuQc_KqBMs75hkaLzq5si8MEFL_BHpojQoaU8qcPzK1Z_cgBnw7RJUlU9GWPxgAG4LaCWQgl_U92bb9ZSmS7IKAhOLPhOsn00dIe5ndUfRBZt07i4a3kWBMWP5THqQm2VS1A8aUSnIPQXCzSDS-M8ecsnJdElo0nGp9Y-JMCrAY6jff5Y6wpLEJPYGE6-fIuXm6mgkrTHZ4g_S81H3tv7PgR8mVS7pXXJjrobAJmTfQUT_]--></g></svg>