<svg xmlns="http://www.w3.org/2000/svg" xmlns:xlink="http://www.w3.org/1999/xlink" contentStyleType="text/css" height="1521px" preserveAspectRatio="none" style="width:1250px;height:1521px;background:#FFFFFF;" version="1.1" viewBox="0 0 1250 1521" width="1250px" zoomAndPan="magnify"><defs/><g><text fill="#000000" font-family="sans-serif" font-size="14" font-weight="bold" lengthAdjust="spacing" textLength="309" x="463.5" y="24.5332">Match Monitor - Data Lineage Flow (4 Steps)</text><!--cluster **STEP 1: Ticket Detection**--><g id="cluster_**STEP 1: Ticket Detection**"><rect fill="#E3F2FD" height="195" rx="2.5" ry="2.5" style="stroke:#181818;stroke-width:1.0;" width="537" x="326" y="45.6094"/><text fill="#000000" font-family="sans-serif" font-size="14" font-weight="bold" lengthAdjust="spacing" textLength="169" x="510" y="62.1426">STEP 1: Ticket Detection</text></g><!--cluster **STEP 2: Ticket Labeling (Reason = GB)**--><g id="cluster_**STEP 2: Ticket Labeling (Reason = GB)**"><rect fill="#C8E6C9" height="204" rx="2.5" ry="2.5" style="stroke:#181818;stroke-width:1.0;" width="664" x="246" y="323.6094"/><text fill="#000000" font-family="sans-serif" font-size="14" font-weight="bold" lengthAdjust="spacing" textLength="265" x="445.5" y="340.1426">STEP 2: Ticket Labeling (Reason = GB)</text></g><!--cluster **STEP 3: General Customer Classification**--><g id="cluster_**STEP 3: General Customer Classification**"><rect fill="#FFF9C4" height="231" rx="2.5" ry="2.5" style="stroke:#181818;stroke-width:1.0;" width="300" x="7" y="647.6094"/><text fill="#000000" font-family="sans-serif" font-size="14" font-weight="bold" lengthAdjust="spacing" textLength="281" x="16.5" y="664.1426">STEP 3: General Customer Classification</text></g><!--cluster **STEP 4: Sport-Specific Customer Classification**--><g id="cluster_**STEP 4: Sport-Specific Customer Classification**"><rect fill="#FFCCBC" height="231" rx="2.5" ry="2.5" style="stroke:#181818;stroke-width:1.0;" width="350" x="331" y="647.6094"/><text fill="#000000" font-family="sans-serif" font-size="14" font-weight="bold" lengthAdjust="spacing" textLength="324" x="344" y="664.1426">STEP 4: Sport-Specific Customer Classification</text></g><!--cluster **Database - Customer Classification**--><g id="cluster_**Database - Customer Classification**"><rect fill="#F5F5F5" height="258" rx="2.5" ry="2.5" style="stroke:#181818;stroke-width:1.0;" width="380" x="301" y="961.6094"/><text fill="#000000" font-family="sans-serif" font-size="14" font-weight="bold" lengthAdjust="spacing" textLength="244" x="369" y="978.1426">Database - Customer Classification</text></g><!--cluster **Website - Match Monitor Page**--><g id="cluster_**Website - Match Monitor Page**"><rect fill="#E1BEE7" height="230" rx="2.5" ry="2.5" style="stroke:#181818;stroke-width:1.0;" width="236" x="806" y="1285.6094"/><text fill="#000000" font-family="sans-serif" font-size="14" font-weight="bold" lengthAdjust="spacing" textLength="211" x="818.5" y="1302.1426">Website - Match Monitor Page</text></g><!--cluster **External Database (MainDB)**--><g id="cluster_**External Database (MainDB)**"><rect fill="#ECEFF1" height="204" rx="2.5" ry="2.5" style="stroke:#181818;stroke-width:1.0;" width="283" x="961" y="988.6094"/><text fill="#000000" font-family="sans-serif" font-size="14" font-weight="bold" lengthAdjust="spacing" textLength="195" x="1005" y="1005.1426">External Database (MainDB)</text></g><!--entity JobGB--><g id="elem_JobGB"><rect fill="#BBDEFB" height="143.2656" rx="2.5" ry="2.5" style="stroke:#181818;stroke-width:0.5;" width="218" x="342" y="81.6094"/><text fill="#000000" font-family="sans-serif" font-size="14" font-weight="bold" lengthAdjust="spacing" textLength="171" x="352" y="106.1426">Group Betting Detection</text><text fill="#000000" font-family="sans-serif" font-size="14" font-style="italic" lengthAdjust="spacing" textLength="198" x="352" y="123.752">md/MatchMonitor/GroupBetting</text><text fill="#000000" font-family="sans-serif" font-size="14" lengthAdjust="spacing" textLength="4" x="352" y="141.3613">&#160;</text><text fill="#000000" font-family="sans-serif" font-size="14" lengthAdjust="spacing" textLength="194" x="352" y="158.9707">- Detect group betting patterns</text><text fill="#000000" font-family="sans-serif" font-size="14" lengthAdjust="spacing" textLength="139" x="352" y="176.5801">- 5 association criteria</text><text fill="#000000" font-family="sans-serif" font-size="14" lengthAdjust="spacing" textLength="67" x="352" y="194.1895">- All sports</text><text fill="#000000" font-family="sans-serif" font-size="14" lengthAdjust="spacing" textLength="139" x="352" y="211.7988">- Run every 5 minutes</text></g><!--entity JobSabaGB--><g id="elem_JobSabaGB"><rect fill="#BBDEFB" height="143.2656" rx="2.5" ry="2.5" style="stroke:#181818;stroke-width:0.5;" width="251" x="595.5" y="81.6094"/><text fill="#000000" font-family="sans-serif" font-size="14" font-weight="bold" lengthAdjust="spacing" textLength="209" x="605.5" y="106.1426">Saba Group Betting Detection</text><text fill="#000000" font-family="sans-serif" font-size="14" font-style="italic" lengthAdjust="spacing" textLength="231" x="605.5" y="123.752">md/MatchMonitor/SabaGroupBetting</text><text fill="#000000" font-family="sans-serif" font-size="14" lengthAdjust="spacing" textLength="4" x="605.5" y="141.3613">&#160;</text><text fill="#000000" font-family="sans-serif" font-size="14" lengthAdjust="spacing" textLength="175" x="605.5" y="158.9707">- Detect Saba group betting</text><text fill="#000000" font-family="sans-serif" font-size="14" lengthAdjust="spacing" textLength="139" x="605.5" y="176.5801">- 4 association criteria</text><text fill="#000000" font-family="sans-serif" font-size="14" lengthAdjust="spacing" textLength="120" x="605.5" y="194.1895">- Saba Soccer only</text><text fill="#000000" font-family="sans-serif" font-size="14" lengthAdjust="spacing" textLength="139" x="605.5" y="211.7988">- Run every 5 minutes</text></g><!--entity TableMatch--><g id="elem_TableMatch"><path d="M262.5,369.6094 C262.5,359.6094 347,359.6094 347,359.6094 C347,359.6094 431.5,359.6094 431.5,369.6094 L431.5,501.875 C431.5,511.875 347,511.875 347,511.875 C347,511.875 262.5,511.875 262.5,501.875 L262.5,369.6094 " fill="#A5D6A7" style="stroke:#181818;stroke-width:0.5;"/><path d="M262.5,369.6094 C262.5,379.6094 347,379.6094 347,379.6094 C347,379.6094 431.5,379.6094 431.5,369.6094 " fill="none" style="stroke:#181818;stroke-width:0.5;"/><text fill="#000000" font-family="sans-serif" font-size="14" font-weight="bold" lengthAdjust="spacing" textLength="125" x="272.5" y="398.1426">CTSMatchMonitor</text><text fill="#000000" font-family="sans-serif" font-size="14" lengthAdjust="spacing" textLength="4" x="272.5" y="415.752">&#160;</text><text fill="#000000" font-family="sans-serif" font-size="14" lengthAdjust="spacing" textLength="92" x="272.5" y="433.3613">- MatchID (PK)</text><text fill="#000000" font-family="sans-serif" font-size="14" lengthAdjust="spacing" textLength="149" x="272.5" y="450.9707">- SportType, BetTypeID</text><text fill="#000000" font-family="sans-serif" font-size="14" lengthAdjust="spacing" textLength="5" x="272.5" y="468.5801">-</text><text fill="#000000" font-family="sans-serif" font-size="14" font-weight="bold" lengthAdjust="spacing" textLength="96" x="281.5" y="468.5801">Reason = 'GB'</text><text fill="#000000" font-family="sans-serif" font-size="14" lengthAdjust="spacing" textLength="84" x="272.5" y="486.1895">- FraudTrans</text><text fill="#000000" font-family="sans-serif" font-size="14" lengthAdjust="spacing" textLength="145" x="272.5" y="503.7988">- EventDate, ScanDate</text></g><!--entity TableDetail--><g id="elem_TableDetail"><path d="M708.5,369.6094 C708.5,359.6094 801,359.6094 801,359.6094 C801,359.6094 893.5,359.6094 893.5,369.6094 L893.5,501.875 C893.5,511.875 801,511.875 801,511.875 C801,511.875 708.5,511.875 708.5,501.875 L708.5,369.6094 " fill="#A5D6A7" style="stroke:#181818;stroke-width:0.5;"/><path d="M708.5,369.6094 C708.5,379.6094 801,379.6094 801,379.6094 C801,379.6094 893.5,379.6094 893.5,369.6094 " fill="none" style="stroke:#181818;stroke-width:0.5;"/><text fill="#000000" font-family="sans-serif" font-size="14" font-weight="bold" lengthAdjust="spacing" textLength="165" x="718.5" y="398.1426">CTSMatchMonitorDetail</text><text fill="#000000" font-family="sans-serif" font-size="14" lengthAdjust="spacing" textLength="4" x="718.5" y="415.752">&#160;</text><text fill="#000000" font-family="sans-serif" font-size="14" lengthAdjust="spacing" textLength="145" x="718.5" y="433.3613">- ID (PK), MatchID (FK)</text><text fill="#000000" font-family="sans-serif" font-size="14" lengthAdjust="spacing" textLength="109" x="718.5" y="450.9707">- CustID, TransID</text><text fill="#000000" font-family="sans-serif" font-size="14" lengthAdjust="spacing" textLength="5" x="718.5" y="468.5801">-</text><text fill="#000000" font-family="sans-serif" font-size="14" font-weight="bold" lengthAdjust="spacing" textLength="96" x="727.5" y="468.5801">Reason = 'GB'</text><text fill="#000000" font-family="sans-serif" font-size="14" lengthAdjust="spacing" textLength="74" x="718.5" y="486.1895">- BetChoice</text><text fill="#000000" font-family="sans-serif" font-size="14" lengthAdjust="spacing" textLength="73" x="718.5" y="503.7988">- VerifiedBy</text></g><g id="elem_GMN8"><path d="M467,414.1094 L467,431.6094 L431.93,435.6094 L467,439.6094 L467,456.8125 A0,0 0 0 0 467,456.8125 L673,456.8125 A0,0 0 0 0 673,456.8125 L673,424.1094 L663,414.1094 L467,414.1094 A0,0 0 0 0 467,414.1094 " fill="#FEFFDD" style="stroke:#181818;stroke-width:0.5;"/><path d="M663,414.1094 L663,424.1094 L673,424.1094 L663,414.1094 " fill="#FEFFDD" style="stroke:#181818;stroke-width:0.5;"/><text fill="#000000" font-family="sans-serif" font-size="13" lengthAdjust="spacing" textLength="168" x="473" y="432.6045">All tickets detected in Step 1</text><text fill="#000000" font-family="sans-serif" font-size="13" lengthAdjust="spacing" textLength="185" x="473" y="448.9561">are marked with Reason = "GB"</text></g><!--entity JobGeneral--><g id="elem_JobGeneral"><rect fill="#FFF59D" height="179.1543" rx="2.5" ry="2.5" style="stroke:#181818;stroke-width:0.5;" width="268" x="23" y="683.6094"/><text fill="#000000" font-family="sans-serif" font-size="14" font-weight="bold" lengthAdjust="spacing" textLength="200" x="33" y="708.1426">Match Monitor Classification</text><text fill="#000000" font-family="sans-serif" font-size="14" font-style="italic" lengthAdjust="spacing" textLength="248" x="33" y="725.752">md/General/MatchMonitorClassification</text><text fill="#000000" font-family="sans-serif" font-size="14" lengthAdjust="spacing" textLength="4" x="33" y="743.3613">&#160;</text><text fill="#000000" font-family="sans-serif" font-size="14" lengthAdjust="spacing" textLength="223" x="33" y="760.9707">- Classify customers with GB tickets</text><text fill="#000000" font-family="sans-serif" font-size="14" lengthAdjust="spacing" textLength="115" x="33" y="778.5801">- CategoryName =</text><text fill="#000000" font-family="sans-serif" font-size="14" lengthAdjust="spacing" textLength="8" x="33" y="796.8594">&#160;&#160;</text><text fill="#000000" font-family="monospace" font-size="14" lengthAdjust="spacing" textLength="216" x="41" y="795.7314">System&#160;Detect&#160;Group&#160;Betting</text><text fill="#000000" font-family="sans-serif" font-size="14" lengthAdjust="spacing" textLength="145" x="33" y="814.4688">- Cross-sport detection</text><text fill="#000000" font-family="sans-serif" font-size="14" lengthAdjust="spacing" textLength="182" x="33" y="832.0781">- One match at a time (FIFO)</text><text fill="#000000" font-family="sans-serif" font-size="14" lengthAdjust="spacing" textLength="139" x="33" y="849.6875">- Run every 5 minutes</text></g><!--entity JobBySport--><g id="elem_JobBySport"><rect fill="#FFAB91" height="179.1543" rx="2.5" ry="2.5" style="stroke:#181818;stroke-width:0.5;" width="317" x="347.5" y="683.6094"/><text fill="#000000" font-family="sans-serif" font-size="14" font-weight="bold" lengthAdjust="spacing" textLength="263" x="357.5" y="708.1426">Match Monitor Classification By Sport</text><text fill="#000000" font-family="sans-serif" font-size="14" font-style="italic" lengthAdjust="spacing" textLength="297" x="357.5" y="725.752">md/BySport/MatchMonitorClassificationBySport</text><text fill="#000000" font-family="sans-serif" font-size="14" lengthAdjust="spacing" textLength="4" x="357.5" y="743.3613">&#160;</text><text fill="#000000" font-family="sans-serif" font-size="14" lengthAdjust="spacing" textLength="223" x="357.5" y="760.9707">- Classify customers with GB tickets</text><text fill="#000000" font-family="sans-serif" font-size="14" lengthAdjust="spacing" textLength="115" x="357.5" y="778.5801">- CategoryName =</text><text fill="#000000" font-family="sans-serif" font-size="14" lengthAdjust="spacing" textLength="8" x="357.5" y="796.8594">&#160;&#160;</text><text fill="#000000" font-family="monospace" font-size="14" lengthAdjust="spacing" textLength="256" x="365.5" y="795.7314">Saba&#160;System&#160;Detect&#160;Group&#160;Betting</text><text fill="#000000" font-family="sans-serif" font-size="14" lengthAdjust="spacing" textLength="190" x="357.5" y="814.4688">- Sport-specific (Saba Soccer)</text><text fill="#000000" font-family="sans-serif" font-size="14" lengthAdjust="spacing" textLength="174" x="357.5" y="832.0781">- Multiple matches (parallel)</text><text fill="#000000" font-family="sans-serif" font-size="14" lengthAdjust="spacing" textLength="139" x="357.5" y="849.6875">- Run every 5 minutes</text></g><!--entity TableCust--><g id="elem_TableCust"><path d="M317,1007.6094 C317,997.6094 491,997.6094 491,997.6094 C491,997.6094 665,997.6094 665,1007.6094 L665,1194.043 C665,1204.043 491,1204.043 491,1204.043 C491,1204.043 317,1204.043 317,1194.043 L317,1007.6094 " fill="#E0E0E0" style="stroke:#181818;stroke-width:0.5;"/><path d="M317,1007.6094 C317,1017.6094 491,1017.6094 491,1017.6094 C491,1017.6094 665,1017.6094 665,1007.6094 " fill="none" style="stroke:#181818;stroke-width:0.5;"/><text fill="#000000" font-family="sans-serif" font-size="14" font-weight="bold" lengthAdjust="spacing" textLength="189" x="327" y="1036.1426">CTSCustomerClassification</text><text fill="#000000" font-family="sans-serif" font-size="14" lengthAdjust="spacing" textLength="4" x="327" y="1053.752">&#160;</text><text fill="#000000" font-family="sans-serif" font-size="14" lengthAdjust="spacing" textLength="83" x="327" y="1071.3613">- CustID (PK)</text><text fill="#000000" font-family="sans-serif" font-size="14" lengthAdjust="spacing" textLength="5" x="327" y="1088.9707">-</text><text fill="#000000" font-family="sans-serif" font-size="14" font-weight="bold" lengthAdjust="spacing" textLength="77" x="336" y="1088.9707">CategoryID</text><text fill="#000000" font-family="sans-serif" font-size="14" lengthAdjust="spacing" textLength="61" x="417" y="1088.9707">(CC type)</text><text fill="#000000" font-family="sans-serif" font-size="14" lengthAdjust="spacing" textLength="5" x="327" y="1106.5801">-</text><text fill="#000000" font-family="sans-serif" font-size="14" font-weight="bold" lengthAdjust="spacing" textLength="106" x="336" y="1106.5801">CategoryName:</text><text fill="#000000" font-family="sans-serif" font-size="14" lengthAdjust="spacing" textLength="5" x="335" y="1124.8594">-</text><text fill="#000000" font-family="monospace" font-size="14" lengthAdjust="spacing" textLength="216" x="344" y="1123.7314">System&#160;Detect&#160;Group&#160;Betting</text><text fill="#000000" font-family="sans-serif" font-size="14" lengthAdjust="spacing" textLength="51" x="564" y="1124.8594">(Step 3)</text><text fill="#000000" font-family="sans-serif" font-size="14" lengthAdjust="spacing" textLength="5" x="335" y="1143.1387">-</text><text fill="#000000" font-family="monospace" font-size="14" lengthAdjust="spacing" textLength="256" x="344" y="1142.0107">Saba&#160;System&#160;Detect&#160;Group&#160;Betting</text><text fill="#000000" font-family="sans-serif" font-size="14" lengthAdjust="spacing" textLength="51" x="604" y="1143.1387">(Step 4)</text><text fill="#000000" font-family="sans-serif" font-size="14" lengthAdjust="spacing" textLength="96" x="327" y="1160.748">- SportGroupID</text><text fill="#000000" font-family="sans-serif" font-size="14" lengthAdjust="spacing" textLength="158" x="327" y="1178.3574">- IsPA (Problem Account)</text><text fill="#000000" font-family="sans-serif" font-size="14" lengthAdjust="spacing" textLength="119" x="327" y="1195.9668">- LastModifiedDate</text></g><!--entity WebPage--><g id="elem_WebPage"><rect fill="#CE93D8" height="178.4844" rx="2.5" ry="2.5" style="stroke:#181818;stroke-width:0.5;" width="204" x="822" y="1321.6094"/><text fill="#000000" font-family="sans-serif" font-size="14" font-weight="bold" lengthAdjust="spacing" textLength="141" x="832" y="1346.1426">Match Monitor Page</text><text fill="#000000" font-family="sans-serif" font-size="14" font-style="italic" lengthAdjust="spacing" textLength="143" x="832" y="1363.752">Website/MatchMonitor</text><text fill="#000000" font-family="sans-serif" font-size="14" lengthAdjust="spacing" textLength="4" x="832" y="1381.3613">&#160;</text><text fill="#000000" font-family="sans-serif" font-size="14" lengthAdjust="spacing" textLength="184" x="832" y="1398.9707">- Display dangerous matches</text><text fill="#000000" font-family="sans-serif" font-size="14" lengthAdjust="spacing" textLength="171" x="832" y="1416.5801">- Show customer CC status</text><text fill="#000000" font-family="sans-serif" font-size="14" lengthAdjust="spacing" textLength="126" x="832" y="1434.1895">- Verify transactions</text><text fill="#000000" font-family="sans-serif" font-size="14" lengthAdjust="spacing" textLength="151" x="832" y="1451.7988">- Mark Problem Account</text><text fill="#000000" font-family="sans-serif" font-size="14" lengthAdjust="spacing" textLength="4" x="832" y="1469.4082">&#160;</text><text fill="#000000" font-family="sans-serif" font-size="14" font-weight="bold" lengthAdjust="spacing" textLength="135" x="832" y="1487.0176">Max 5-minute delay</text></g><!--entity DBMatchInfo--><g id="elem_DBMatchInfo"><path d="M977.5,1034.6094 C977.5,1024.6094 1034,1024.6094 1034,1024.6094 C1034,1024.6094 1090.5,1024.6094 1090.5,1034.6094 L1090.5,1166.875 C1090.5,1176.875 1034,1176.875 1034,1176.875 C1034,1176.875 977.5,1176.875 977.5,1166.875 L977.5,1034.6094 " fill="#CFD8DC" style="stroke:#181818;stroke-width:0.5;"/><path d="M977.5,1034.6094 C977.5,1044.6094 1034,1044.6094 1034,1044.6094 C1034,1044.6094 1090.5,1044.6094 1090.5,1034.6094 " fill="none" style="stroke:#181818;stroke-width:0.5;"/><text fill="#000000" font-family="sans-serif" font-size="14" font-weight="bold" lengthAdjust="spacing" textLength="74" x="987.5" y="1063.1426">Match Info</text><text fill="#000000" font-family="sans-serif" font-size="14" lengthAdjust="spacing" textLength="4" x="987.5" y="1080.752">&#160;</text><text fill="#000000" font-family="sans-serif" font-size="14" lengthAdjust="spacing" textLength="60" x="987.5" y="1098.3613">- MatchID</text><text fill="#000000" font-family="sans-serif" font-size="14" lengthAdjust="spacing" textLength="81" x="987.5" y="1115.9707">- HomeName</text><text fill="#000000" font-family="sans-serif" font-size="14" lengthAdjust="spacing" textLength="78" x="987.5" y="1133.5801">- AwayName</text><text fill="#000000" font-family="sans-serif" font-size="14" lengthAdjust="spacing" textLength="93" x="987.5" y="1151.1895">- LeagueName</text><text fill="#000000" font-family="sans-serif" font-size="14" lengthAdjust="spacing" textLength="85" x="987.5" y="1168.7988">- KickOffTime</text></g><!--entity DBTrans--><g id="elem_DBTrans"><path d="M1126,1034.6094 C1126,1024.6094 1177,1024.6094 1177,1024.6094 C1177,1024.6094 1228,1024.6094 1228,1034.6094 L1228,1166.875 C1228,1176.875 1177,1176.875 1177,1176.875 C1177,1176.875 1126,1176.875 1126,1166.875 L1126,1034.6094 " fill="#CFD8DC" style="stroke:#181818;stroke-width:0.5;"/><path d="M1126,1034.6094 C1126,1044.6094 1177,1044.6094 1177,1044.6094 C1177,1044.6094 1228,1044.6094 1228,1034.6094 " fill="none" style="stroke:#181818;stroke-width:0.5;"/><text fill="#000000" font-family="sans-serif" font-size="14" font-weight="bold" lengthAdjust="spacing" textLength="82" x="1136" y="1063.1426">Transaction</text><text fill="#000000" font-family="sans-serif" font-size="14" lengthAdjust="spacing" textLength="4" x="1136" y="1080.752">&#160;</text><text fill="#000000" font-family="sans-serif" font-size="14" lengthAdjust="spacing" textLength="59" x="1136" y="1098.3613">- TransID</text><text fill="#000000" font-family="sans-serif" font-size="14" lengthAdjust="spacing" textLength="51" x="1136" y="1115.9707">- CustID</text><text fill="#000000" font-family="sans-serif" font-size="14" lengthAdjust="spacing" textLength="78" x="1136" y="1133.5801">- BetAmount</text><text fill="#000000" font-family="sans-serif" font-size="14" lengthAdjust="spacing" textLength="74" x="1136" y="1151.1895">- BetChoice</text><text fill="#000000" font-family="sans-serif" font-size="14" lengthAdjust="spacing" textLength="47" x="1136" y="1168.7988">- IsVoid</text></g><g id="elem_GMN37"><path d="M345.5,1364.6094 L345.5,1456.3672 A0,0 0 0 0 345.5,1456.3672 L636.5,1456.3672 A0,0 0 0 0 636.5,1456.3672 L636.5,1374.6094 L626.5,1364.6094 L495,1364.6094 L491,1203.7394 L487,1364.6094 L345.5,1364.6094 A0,0 0 0 0 345.5,1364.6094 " fill="#FEFFDD" style="stroke:#181818;stroke-width:0.5;"/><path d="M626.5,1364.6094 L626.5,1374.6094 L636.5,1374.6094 L626.5,1364.6094 " fill="#FEFFDD" style="stroke:#181818;stroke-width:0.5;"/><text fill="#000000" font-family="sans-serif" font-size="13" font-weight="bold" lengthAdjust="spacing" textLength="104" x="351.5" y="1383.1045">Important Notes:</text><text fill="#000000" font-family="sans-serif" font-size="13" lengthAdjust="spacing" textLength="270" x="351.5" y="1399.4561">- Step 3 &amp; 4 both may classify same customer</text><text fill="#000000" font-family="sans-serif" font-size="13" lengthAdjust="spacing" textLength="242" x="351.5" y="1415.8076">- Step 4 (sport-specific) takes precedence</text><text fill="#000000" font-family="sans-serif" font-size="13" lengthAdjust="spacing" textLength="210" x="351.5" y="1432.1592">- Max 5-minute delay between steps</text><text fill="#000000" font-family="sans-serif" font-size="13" lengthAdjust="spacing" textLength="268" x="351.5" y="1448.5107">- Match visible on page after Step 2 completes</text></g><!--link JobGB to TableMatch--><g id="link_JobGB_TableMatch"><path d="M390.31,224.6394 C383.62,234.8894 377.59,245.6794 373,256.6094 C359.51,288.7094 353.4323,320.6487 350.2023,353.2087 " fill="none" id="JobGB-to-TableMatch" style="stroke:#181818;stroke-width:1.0;"/><polygon fill="#181818" points="349.61,359.1794,354.4789,350.6182,350.1036,354.2038,346.518,349.8285,349.61,359.1794" style="stroke:#181818;stroke-width:1.0;"/><text fill="#000000" font-family="sans-serif" font-size="13" font-weight="bold" lengthAdjust="spacing" textLength="72" x="388" y="271.1045">STEP 1 to 2</text><text fill="#000000" font-family="sans-serif" font-size="13" lengthAdjust="spacing" textLength="100" x="374" y="287.4561">INSERT matches</text><text fill="#000000" font-family="sans-serif" font-size="13" lengthAdjust="spacing" textLength="56" x="396" y="303.8076">Reason =</text><text fill="#000000" font-family="sans-serif" font-size="13" lengthAdjust="spacing" textLength="19" x="329.9533" y="348.6314">GB</text></g><!--link JobGB to TableDetail--><g id="link_JobGB_TableDetail"><path d="M474.54,224.6494 C487.83,259.9094 504.78,297.2494 520,307.6094 C535.72,318.3094 673.76,307.5794 691,315.6094 C712.55,325.6394 727.7765,337.6233 743.9765,355.0633 " fill="none" id="JobGB-to-TableDetail" style="stroke:#181818;stroke-width:1.0;"/><polygon fill="#181818" points="748.06,359.4594,744.8655,350.143,744.6571,355.796,739.0041,355.5876,748.06,359.4594" style="stroke:#181818;stroke-width:1.0;"/><text fill="#000000" font-family="sans-serif" font-size="13" font-weight="bold" lengthAdjust="spacing" textLength="72" x="529.5" y="271.1045">STEP 1 to 2</text><text fill="#000000" font-family="sans-serif" font-size="13" lengthAdjust="spacing" textLength="89" x="521" y="287.4561">INSERT tickets</text><text fill="#000000" font-family="sans-serif" font-size="13" lengthAdjust="spacing" textLength="56" x="537.5" y="303.8076">Reason =</text><text fill="#000000" font-family="sans-serif" font-size="13" lengthAdjust="spacing" textLength="19" x="722.9136" y="348.6752">GB</text></g><!--link JobSabaGB to TableMatch--><g id="link_JobSabaGB_TableMatch"><path d="M671,224.8094 C663.58,235.4394 656.06,246.2894 649,256.6094 C633.61,279.0894 638.7,294.1794 615,307.6094 C582.87,325.8194 482.17,299.3694 449,315.6094 C428.35,325.7194 414.137,337.5743 399.107,355.0143 " fill="none" id="JobSabaGB-to-TableMatch" style="stroke:#181818;stroke-width:1.0;"/><polygon fill="#181818" points="395.19,359.5594,404.0955,355.3531,398.4541,355.7718,398.0354,350.1305,395.19,359.5594" style="stroke:#181818;stroke-width:1.0;"/><text fill="#000000" font-family="sans-serif" font-size="13" font-weight="bold" lengthAdjust="spacing" textLength="72" x="664" y="271.1045">STEP 1 to 2</text><text fill="#000000" font-family="sans-serif" font-size="13" lengthAdjust="spacing" textLength="100" x="650" y="287.4561">INSERT matches</text><text fill="#000000" font-family="sans-serif" font-size="13" lengthAdjust="spacing" textLength="56" x="672" y="303.8076">Reason =</text><text fill="#000000" font-family="sans-serif" font-size="13" lengthAdjust="spacing" textLength="19" x="379.9985" y="348.7851">GB</text></g><!--link JobSabaGB to TableDetail--><g id="link_JobSabaGB_TableDetail"><path d="M748.52,224.8594 C752.25,235.4294 755.87,246.2494 759,256.6094 C769.1,290.0394 776.9552,321.7552 784.1352,353.7252 " fill="none" id="JobSabaGB-to-TableDetail" style="stroke:#181818;stroke-width:1.0;"/><polygon fill="#181818" points="785.45,359.5794,787.3806,349.9216,784.3544,354.7009,779.5751,351.6746,785.45,359.5794" style="stroke:#181818;stroke-width:1.0;"/><text fill="#000000" font-family="sans-serif" font-size="13" font-weight="bold" lengthAdjust="spacing" textLength="72" x="781.5" y="271.1045">STEP 1 to 2</text><text fill="#000000" font-family="sans-serif" font-size="13" lengthAdjust="spacing" textLength="89" x="773" y="287.4561">INSERT tickets</text><text fill="#000000" font-family="sans-serif" font-size="13" lengthAdjust="spacing" textLength="56" x="789.5" y="303.8076">Reason =</text><text fill="#000000" font-family="sans-serif" font-size="13" lengthAdjust="spacing" textLength="19" x="763.9841" y="348.807">GB</text></g><!--link TableMatch to JobGeneral--><g id="link_TableMatch_JobGeneral"><path d="M262.43,494.5894 C246.13,509.0094 230.56,525.5594 219,543.6094 C192.17,585.4894 177.9972,632.9401 169.3072,677.5501 " fill="none" id="TableMatch-to-JobGeneral" style="stroke:#181818;stroke-width:1.0;stroke-dasharray:7.0,7.0;"/><polygon fill="#181818" points="168.16,683.4394,173.807,675.3702,169.116,678.5316,165.9546,673.8406,168.16,683.4394" style="stroke:#181818;stroke-width:1.0;"/><text fill="#000000" font-family="sans-serif" font-size="13" font-weight="bold" lengthAdjust="spacing" textLength="72" x="248" y="576.6045">STEP 2 to 3</text><text fill="#000000" font-family="sans-serif" font-size="13" lengthAdjust="spacing" textLength="90" x="239" y="592.9561">READ matches</text><text fill="#000000" font-family="sans-serif" font-size="13" lengthAdjust="spacing" textLength="128" x="220" y="609.3076">WHERE Reason='GB'</text></g><!--link TableDetail to JobGeneral--><g id="link_TableDetail_JobGeneral"><path d="M730.99,511.6294 C718.59,521.2094 705.1,529.7094 691,535.6094 C663.27,547.1994 580.69,526.4794 556,543.6094 C520.85,567.9894 552.35,607.5094 517,631.6094 C499.91,643.2594 350.45,632.5794 331,639.6094 C303.33,649.6094 281.302,662.1661 257.292,679.7361 " fill="none" id="TableDetail-to-JobGeneral" style="stroke:#181818;stroke-width:1.0;stroke-dasharray:7.0,7.0;"/><polygon fill="#181818" points="252.45,683.2794,262.0752,681.1925,256.485,680.3266,257.3508,674.7364,252.45,683.2794" style="stroke:#181818;stroke-width:1.0;"/><text fill="#000000" font-family="sans-serif" font-size="13" font-weight="bold" lengthAdjust="spacing" textLength="72" x="585" y="576.6045">STEP 2 to 3</text><text fill="#000000" font-family="sans-serif" font-size="13" lengthAdjust="spacing" textLength="79" x="581.5" y="592.9561">READ tickets</text><text fill="#000000" font-family="sans-serif" font-size="13" lengthAdjust="spacing" textLength="128" x="557" y="609.3076">WHERE Reason='GB'</text></g><!--link JobGeneral to TableCust--><g id="link_JobGeneral_TableCust"><path d="M247.83,862.6194 C290.61,904.3194 337.5926,950.1122 382.0126,993.3922 " fill="none" id="JobGeneral-to-TableCust" style="stroke:#181818;stroke-width:1.0;"/><polygon fill="#181818" points="386.31,997.5794,382.6553,988.4337,382.7288,994.0901,377.0724,994.1636,386.31,997.5794" style="stroke:#181818;stroke-width:1.0;"/><text fill="#000000" font-family="sans-serif" font-size="13" font-weight="bold" lengthAdjust="spacing" textLength="45" x="339.5" y="909.1045">STEP 3</text><text fill="#000000" font-family="sans-serif" font-size="13" lengthAdjust="spacing" textLength="74" x="325" y="925.4561">UPDATE CC</text><text fill="#000000" font-family="sans-serif" font-size="13" lengthAdjust="spacing" textLength="4" x="360" y="941.8076">&#160;</text><text fill="#000000" font-family="sans-serif" font-size="13" lengthAdjust="spacing" textLength="87" x="288.4273" y="970.3431">System Detect</text><text fill="#000000" font-family="sans-serif" font-size="13" lengthAdjust="spacing" textLength="80" x="291.9273" y="986.6947">Group Betting</text></g><!--link TableMatch to JobBySport--><g id="link_TableMatch_JobBySport"><path d="M351.45,511.7594 C355.97,549.2594 365,594.4294 383,631.6094 C391.76,649.6994 399.7849,662.5501 412.5349,678.7901 " fill="none" id="TableMatch-to-JobBySport" style="stroke:#181818;stroke-width:1.0;stroke-dasharray:7.0,7.0;"/><polygon fill="#181818" points="416.24,683.5094,413.8285,673.9603,413.1524,679.5766,407.5361,678.9005,416.24,683.5094" style="stroke:#181818;stroke-width:1.0;"/><text fill="#000000" font-family="sans-serif" font-size="13" font-weight="bold" lengthAdjust="spacing" textLength="72" x="412" y="558.1045">STEP 2 to 4</text><text fill="#000000" font-family="sans-serif" font-size="13" lengthAdjust="spacing" textLength="90" x="403" y="574.4561">READ matches</text><text fill="#000000" font-family="sans-serif" font-size="13" lengthAdjust="spacing" textLength="128" x="384" y="590.8076">WHERE Reason='GB'</text><text fill="#000000" font-family="sans-serif" font-size="13" lengthAdjust="spacing" textLength="90" x="403" y="607.1592">AND SportType</text><text fill="#000000" font-family="sans-serif" font-size="17" font-weight="bold" lengthAdjust="spacing" textLength="107" x="394.5" y="627.6631">'Saba Soccer'</text></g><!--link TableDetail to JobBySport--><g id="link_TableDetail_JobBySport"><path d="M769.14,511.7294 C750.65,550.0994 724.9,596.0494 694,631.6094 C677.96,650.0594 663.7523,663.766 644.2923,679.786 " fill="none" id="TableDetail-to-JobBySport" style="stroke:#181818;stroke-width:1.0;stroke-dasharray:7.0,7.0;"/><polygon fill="#181818" points="639.66,683.5994,649.1507,680.9674,643.5202,680.4215,644.0661,674.7911,639.66,683.5994" style="stroke:#181818;stroke-width:1.0;"/><text fill="#000000" font-family="sans-serif" font-size="13" font-weight="bold" lengthAdjust="spacing" textLength="72" x="780" y="576.6045">STEP 2 to 4</text><text fill="#000000" font-family="sans-serif" font-size="13" lengthAdjust="spacing" textLength="79" x="776.5" y="592.9561">READ tickets</text><text fill="#000000" font-family="sans-serif" font-size="13" lengthAdjust="spacing" textLength="128" x="752" y="609.3076">WHERE Reason='GB'</text></g><!--link JobBySport to TableCust--><g id="link_JobBySport_TableCust"><path d="M501.92,862.6194 C500,904.3194 497.977,948.3058 495.977,991.5858 " fill="none" id="JobBySport-to-TableCust" style="stroke:#181818;stroke-width:1.0;"/><polygon fill="#181818" points="495.7,997.5794,500.1112,988.7736,495.9308,992.5847,492.1197,988.4043,495.7,997.5794" style="stroke:#181818;stroke-width:1.0;"/><text fill="#000000" font-family="sans-serif" font-size="13" font-weight="bold" lengthAdjust="spacing" textLength="45" x="516.5" y="909.1045">STEP 4</text><text fill="#000000" font-family="sans-serif" font-size="13" lengthAdjust="spacing" textLength="74" x="502" y="925.4561">UPDATE CC</text><text fill="#000000" font-family="sans-serif" font-size="13" lengthAdjust="spacing" textLength="4" x="537" y="941.8076">&#160;</text><text fill="#000000" font-family="sans-serif" font-size="13" lengthAdjust="spacing" textLength="121" x="500.4881" y="970.3431">Saba System Detect</text><text fill="#000000" font-family="sans-serif" font-size="13" lengthAdjust="spacing" textLength="80" x="520.9881" y="986.6947">Group Betting</text></g><!--link TableMatch to WebPage--><g id="link_TableMatch_WebPage"><path d="M410.85,511.6594 C422.53,521.3094 435.37,529.8194 449,535.6094 C473.76,546.1294 669.92,526.8894 691,543.6094 C722.18,568.3394 850.846,1100.3412 901.906,1315.7312 " fill="none" id="TableMatch-to-WebPage" style="stroke:#181818;stroke-width:1.0;"/><polygon fill="#181818" points="903.29,1321.5694,905.1061,1311.8894,902.1367,1316.7042,897.3219,1313.7347,903.29,1321.5694" style="stroke:#181818;stroke-width:1.0;"/><text fill="#000000" font-family="sans-serif" font-size="13" font-weight="bold" lengthAdjust="spacing" textLength="50" x="819.5" y="917.6045">SELECT</text><text fill="#000000" font-family="sans-serif" font-size="13" lengthAdjust="spacing" textLength="69" x="810" y="933.9561">(Match List)</text></g><!--link TableDetail to WebPage--><g id="link_TableDetail_WebPage"><path d="M872.33,511.7494 C878.98,521.8794 884.8,532.5994 889,543.6094 C991.21,811.6194 961.4343,1154.7263 939.1343,1315.5163 " fill="none" id="TableDetail-to-WebPage" style="stroke:#181818;stroke-width:1.0;"/><polygon fill="#181818" points="938.31,1321.4594,943.5085,1313.0942,938.9969,1316.5068,935.5843,1311.9952,938.31,1321.4594" style="stroke:#181818;stroke-width:1.0;"/><text fill="#000000" font-family="sans-serif" font-size="13" font-weight="bold" lengthAdjust="spacing" textLength="50" x="978.5" y="917.6045">SELECT</text><text fill="#000000" font-family="sans-serif" font-size="13" lengthAdjust="spacing" textLength="87" x="960" y="933.9561">(Ticket Details)</text></g><!--link TableCust to WebPage--><g id="link_TableCust_WebPage"><path d="M514.03,1203.8394 C524.56,1229.0994 539.85,1253.4994 562,1269.6094 C578.6,1281.6794 634.23,1272.1194 654,1277.6094 C712.07,1293.7294 767.4151,1319.3287 816.4751,1345.6987 " fill="none" id="TableCust-to-WebPage" style="stroke:#181818;stroke-width:1.0;"/><polygon fill="#181818" points="821.76,1348.5394,815.7264,1340.7551,817.3559,1346.1721,811.9388,1347.8016,821.76,1348.5394" style="stroke:#181818;stroke-width:1.0;"/><text fill="#000000" font-family="sans-serif" font-size="13" font-weight="bold" lengthAdjust="spacing" textLength="50" x="602" y="1250.1045">SELECT</text><text fill="#000000" font-family="sans-serif" font-size="13" lengthAdjust="spacing" textLength="128" x="563" y="1266.4561">(Customer CC Status)</text></g><!--link DBMatchInfo to WebPage--><g id="link_DBMatchInfo_WebPage"><path d="M1007.09,1176.9594 C991.51,1220.5894 973.8276,1270.0888 957.5276,1315.7388 " fill="none" id="DBMatchInfo-to-WebPage" style="stroke:#181818;stroke-width:1.0;"/><polygon fill="#181818" points="955.51,1321.3894,962.3035,1314.2586,957.1914,1316.6805,954.7694,1311.5684,955.51,1321.3894" style="stroke:#181818;stroke-width:1.0;"/><text fill="#000000" font-family="sans-serif" font-size="13" font-weight="bold" lengthAdjust="spacing" textLength="50" x="995" y="1250.1045">SELECT</text><text fill="#000000" font-family="sans-serif" font-size="13" lengthAdjust="spacing" textLength="68" x="986" y="1266.4561">(Match Info)</text></g><!--link DBTrans to WebPage--><g id="link_DBTrans_WebPage"><path d="M1140.48,1176.7894 C1130.83,1194.0794 1119.78,1211.9794 1108,1227.6094 C1083.25,1260.4394 1056.984,1288.8588 1027.924,1317.2188 " fill="none" id="DBTrans-to-WebPage" style="stroke:#181818;stroke-width:1.0;"/><polygon fill="#181818" points="1023.63,1321.4094,1032.8648,1317.9862,1027.2084,1317.9172,1027.2773,1312.2608,1023.63,1321.4094" style="stroke:#181818;stroke-width:1.0;"/><text fill="#000000" font-family="sans-serif" font-size="13" font-weight="bold" lengthAdjust="spacing" textLength="50" x="1109.5" y="1250.1045">SELECT</text><text fill="#000000" font-family="sans-serif" font-size="13" lengthAdjust="spacing" textLength="69" x="1100" y="1266.4561">(All Tickets)</text></g><!--SRC=[hLXRRzf857xdLnnHQGkeD9k4j4sahkJBc7fBWCLkim-y36O2tXWRUOQcQBN_VSyPNx1p8o4bKcIOSxz-OnMgIC0bLy4IBfCuL4aANR2vuZ08Oy4N0fmekOLM3pmbrhBTQCYRC5xpbAyWI5Rh91QnyjGMfQGYK3nUHA92CkF1pI9DDl7SIYAKVRiCLVLSBlaykGtZ1LppI8f6uoryVi47oJsVZU7u0dpN-ifyi9dFBDyT3LyggRGUcfrEAJGCReG2MoWy3PEuqsd26tRgd3Ws_Di0_EX_PI28ju_khi4KIf5R5TPfV7IqcX_fOEUnFjB4EUtHqJIUnjsS1HPQpYoNi-PAYJIMH706NCea23d9XI35aAOXfnCZYa2karHfkiac1l53f5laM8NnHWdPH5RuCvdrJNXZcZPpp4UyyFYCmujS8OudtD42QpxHOUzHLpIzbmI1I269e-qUXxJsdLF_7Lf99sKb3GoJ3TnX__M5T58Mqe3FH4InR4q4b-ZnP-YRRLrLrYVsmJglLjKSkt36fPPZ-Lurs9G12eZ-pRMXDVxQra6ZtFlRjNX7MQC7rwRVEvrItzk- -PROk-2aV3FtKvuL5Vk1cSV6HrOlu34zwTZwV1Q9R42yCSxi3yR7Prc8MUTXLDYPc_XkPx2J6Mnjf7BjTw3DUC9MzCPQ9c4WwCjth97hKCpDxSx2JDzz4-D4uMGA5qi5oNN56Nr87sePfRCZOQvBLSmXZFMuW-EIZAS2LZozmSFRK2sXjB7PDvkQIiHphUtmsZkzW3uRiean0EkRvuyksGIiWU5vhkDQngyPQgH3n2BbaOvziiBsiY9iGenemCiPvpZEkTLxTCRL5yPT_dmwv7fgKw9EMeo8_DSj1Bb9CWioDdIU6as59Rb8qksGhmHydiO0pQQtbKgiYXbJcrVDfcPA4ocxUYRcwKMzT32AAQ7a1bV0KGyARJckCshl6vrv-2X6P-VsuUdkNO0t7atyhZTc5gNuboURD93dNMyj0ehwdfnRbcaTb7CmjvccCldcLdz_8la5nUjhG6-AVOMG1K8MWMXLzelE-EKcKk4woej2I6WHGeaY4UqhYDmH2g1XdXyVL12suHkcuJ5eFTBvxLTLWrqCwkxJ5N16Vq_ie8BvViVlXdcvZ90ZpvPhTphecGKADzATCyha1Ka0D6vFGsFMQ2gVjalglQdFMNgxzQW9ibNZoh61vgO9ReKL6460G5LfoW6NwZAPwpLJNuNa96B0t-dle5HVCHF6Hf-zAg5NOYOHAq7t3dOV8sBFGEgnoTZ7PpPpnaMTcykj8xi2o8Lo7V4jraIy41X4MRIA3kqIRmb1MLiMICNLHfRhUWkALZpNyrTcs2MzWJkn9qLat4yuwsPTXaCRTP9Bc02qZan5iCJEJ-rF1uMV_UspoH1NRD5ohye3-qce7BT1sM6jInx6TWxgcCKSvpZFGhMNilYxyNLo1yhHunUC8RM5HlItV5iy3_0-jYbFlk9K75rV-xYuT71iCnE1CZ50Zlt9jXxkOt-NY49v1NvbJPnZBcELPUKE07FbzoISvrerRwdna9HCs43FEE-BE_Qmf9t1w0eyzjStDhHUd1xQhXgwWKgo9uJVvTK5_abck5Zedb6ibKPs7UhYFJJk_b75knTGt0H9rWa5onrwREBl2hyE0n-GbEFInqMLowqkgh6xq_mYonwITh1rUP1FoY1NS6LGXmQfu7DPMUEDYX_loPZtVrHXLMcBbdrAjaoOOUySk_h29Yp7tv_fXj2ekl82YQLlzoKM_g5NLxfMoibMTwvHKLCBhDuIfMAjyziO9mx3qJYDwrjk6jTtrWFHBO5SYLyE2t81LUeXwJqZoDFO6Dgx- -KKVwqWg4Tpi4_XCtBGsvC3QCbQQDgDYjudajAxbvHxOEAXpE0Eqlio3paYH3rSgm4lb1RhIgja0sRvfBAL4Gr2gTgriErXsxsBGcAPisgNzZ1QbQtiwQtSRbINnRFC9KfYowRz7XQwKsVcqWl35- -3uSXdteldlhxfpnA5lfPNVN9TxxzEnrrHGN24FqCab0WvzK4tRtJu3Nh4lSGUs1OLjWL9zuoYyAeClNjb1uhVuBLXZVX0p4KSY9pyFfgX5s2tGiI8aSHQbcGKvX-X3D5kmB9UKs3vDUABOXeGWekmC6MZVDVmFm00]--></g></svg>