<svg xmlns="http://www.w3.org/2000/svg" xmlns:xlink="http://www.w3.org/1999/xlink" contentStyleType="text/css" height="2480px" preserveAspectRatio="none" style="width:2609px;height:2480px;background:#FFFFFF;" version="1.1" viewBox="0 0 2609 2480" width="2609px" zoomAndPan="magnify"><defs/><g><text fill="#000000" font-family="Verdana" font-size="22" font-weight="bold" lengthAdjust="spacing" textLength="984" x="816.5" y="37.1182">Match Monitor Saba Group Betting - Sequence Diagram (Updated 2025-11-19)</text><rect fill="#FFFFFF" height="1956.7412" style="stroke:#000000;stroke-width:1.0;" width="10" x="563" y="231.9639"/><rect fill="#FFFFFF" height="1897.1426" style="stroke:#000000;stroke-width:1.0;" width="10" x="1008" y="261.7632"/><rect fill="#FFFFFF" height="567.1802" style="stroke:#000000;stroke-width:1.0;" width="10" x="1350" y="291.5625"/><rect fill="#FFFFFF" height="251.5918" style="stroke:#000000;stroke-width:1.0;" width="10" x="1350" y="1877.5146"/><rect fill="#FFFFFF" height="868.7754" style="stroke:#000000;stroke-width:1.0;" width="10" x="1532" y="971.9399"/><rect fill="#FFFFFF" height="105.1973" style="stroke:#000000;stroke-width:1.0;" width="10" x="1972" y="1235.7324"/><rect fill="#FFFFFF" height="270.9897" style="stroke:#000000;stroke-width:1.0;" width="10" x="2194" y="337.1611"/><rect fill="#FFFFFF" height="29.7993" style="stroke:#000000;stroke-width:1.0;" width="10" x="2194" y="1281.3311"/><rect fill="#FFFFFF" height="207.7925" style="stroke:#000000;stroke-width:1.0;" width="10" x="2194" y="1596.1235"/><rect fill="#FFFFFF" height="176.1938" style="stroke:#000000;stroke-width:1.0;" width="10" x="2194" y="1923.1133"/><rect fill="#FFFFFF" height="916.374" style="stroke:#000000;stroke-width:1.0;" width="1676" x="927" y="932.3413"/><rect fill="#FFFFFF" height="350.9897" style="stroke:#000000;stroke-width:1.0;" width="842" x="1429" y="1081.3379"/><rect fill="#FFFFFF" height="69.3979" style="stroke:#000000;stroke-width:1.0;" width="221" x="1537" y="1355.9297"/><rect fill="#FFFFFF" height="271.1904" style="stroke:#000000;stroke-width:1.0;" width="1164" x="1429" y="1540.7256"/><line style="stroke:#000000;stroke-width:1.0;" x1="64" x2="64" y1="132.7666" y2="2384.6982"/><line style="stroke:#000000;stroke-width:1.0;" x1="568" x2="568" y1="132.7666" y2="2384.6982"/><line style="stroke:#000000;stroke-width:1.0;" x1="1013" x2="1013" y1="132.7666" y2="2384.6982"/><line style="stroke:#000000;stroke-width:1.0;" x1="1355" x2="1355" y1="132.7666" y2="2384.6982"/><line style="stroke:#000000;stroke-width:1.0;" x1="1537" x2="1537" y1="132.7666" y2="2384.6982"/><line style="stroke:#000000;stroke-width:1.0;" x1="1976.5" x2="1976.5" y1="132.7666" y2="2384.6982"/><line style="stroke:#000000;stroke-width:1.0;" x1="2199" x2="2199" y1="132.7666" y2="2384.6982"/><text fill="#000000" font-family="Verdana" font-size="14" lengthAdjust="spacing" textLength="98" x="12" y="129.8271">Job Scheduler</text><ellipse cx="64" cy="63.752" fill="#FFFFFF" rx="8" ry="8" style="stroke:#000000;stroke-width:1.0;"/><path d="M64,71.752 L64,98.752 M51,79.752 L77,79.752 M64,98.752 L51,113.752 M64,98.752 L77,113.752 " fill="none" style="stroke:#000000;stroke-width:1.0;"/><text fill="#000000" font-family="Verdana" font-size="14" lengthAdjust="spacing" textLength="98" x="12" y="2397.7734">Job Scheduler</text><ellipse cx="64" cy="2409.7129" fill="#FFFFFF" rx="8" ry="8" style="stroke:#000000;stroke-width:1.0;"/><path d="M64,2417.7129 L64,2444.7129 M51,2425.7129 L77,2425.7129 M64,2444.7129 L51,2459.7129 M64,2444.7129 L77,2459.7129 " fill="none" style="stroke:#000000;stroke-width:1.0;"/><rect fill="#FFFFFF" height="48.0293" rx="2.5" ry="2.5" style="stroke:#000000;stroke-width:1.0;" width="108" x="514" y="83.7373"/><text fill="#000000" font-family="Verdana" font-size="14" lengthAdjust="spacing" textLength="94" x="521" y="104.8125">MatchMonitor</text><text fill="#000000" font-family="Verdana" font-size="14" lengthAdjust="spacing" textLength="69" x="533.5" y="121.8271">Controller</text><rect fill="#FFFFFF" height="48.0293" rx="2.5" ry="2.5" style="stroke:#000000;stroke-width:1.0;" width="108" x="514" y="2383.6982"/><text fill="#000000" font-family="Verdana" font-size="14" lengthAdjust="spacing" textLength="94" x="521" y="2404.7734">MatchMonitor</text><text fill="#000000" font-family="Verdana" font-size="14" lengthAdjust="spacing" textLength="69" x="533.5" y="2421.7881">Controller</text><rect fill="#FFFFFF" height="48.0293" rx="2.5" ry="2.5" style="stroke:#000000;stroke-width:1.0;" width="132" x="947" y="83.7373"/><text fill="#000000" font-family="Verdana" font-size="14" lengthAdjust="spacing" textLength="118" x="954" y="104.8125">MatchMonitorJob</text><text fill="#000000" font-family="Verdana" font-size="14" lengthAdjust="spacing" textLength="50" x="988" y="121.8271">Service</text><rect fill="#FFFFFF" height="48.0293" rx="2.5" ry="2.5" style="stroke:#000000;stroke-width:1.0;" width="132" x="947" y="2383.6982"/><text fill="#000000" font-family="Verdana" font-size="14" lengthAdjust="spacing" textLength="118" x="954" y="2404.7734">MatchMonitorJob</text><text fill="#000000" font-family="Verdana" font-size="14" lengthAdjust="spacing" textLength="50" x="988" y="2421.7881">Service</text><rect fill="#FFFFFF" height="48.0293" rx="2.5" ry="2.5" style="stroke:#000000;stroke-width:1.0;" width="122" x="1294" y="83.7373"/><text fill="#000000" font-family="Verdana" font-size="14" lengthAdjust="spacing" textLength="108" x="1301" y="104.8125">MMRuleSabaGB</text><text fill="#000000" font-family="Verdana" font-size="14" lengthAdjust="spacing" textLength="50" x="1330" y="121.8271">Service</text><rect fill="#FFFFFF" height="48.0293" rx="2.5" ry="2.5" style="stroke:#000000;stroke-width:1.0;" width="122" x="1294" y="2383.6982"/><text fill="#000000" font-family="Verdana" font-size="14" lengthAdjust="spacing" textLength="108" x="1301" y="2404.7734">MMRuleSabaGB</text><text fill="#000000" font-family="Verdana" font-size="14" lengthAdjust="spacing" textLength="50" x="1330" y="2421.7881">Service</text><rect fill="#FFFFFF" height="48.0293" rx="2.5" ry="2.5" style="stroke:#000000;stroke-width:1.0;" width="176" x="1449" y="83.7373"/><text fill="#000000" font-family="Verdana" font-size="14" lengthAdjust="spacing" textLength="162" x="1456" y="104.8125">MMRuleSabaGBProcess</text><text fill="#000000" font-family="Verdana" font-size="14" lengthAdjust="spacing" textLength="50" x="1512" y="121.8271">Service</text><rect fill="#FFFFFF" height="48.0293" rx="2.5" ry="2.5" style="stroke:#000000;stroke-width:1.0;" width="176" x="1449" y="2383.6982"/><text fill="#000000" font-family="Verdana" font-size="14" lengthAdjust="spacing" textLength="162" x="1456" y="2404.7734">MMRuleSabaGBProcess</text><text fill="#000000" font-family="Verdana" font-size="14" lengthAdjust="spacing" textLength="50" x="1512" y="2421.7881">Service</text><rect fill="#FFFFFF" height="48.0293" rx="2.5" ry="2.5" style="stroke:#000000;stroke-width:1.0;" width="161" x="1896.5" y="83.7373"/><text fill="#000000" font-family="Verdana" font-size="14" lengthAdjust="spacing" textLength="147" x="1903.5" y="104.8125">AssociationDetection</text><text fill="#000000" font-family="Verdana" font-size="14" lengthAdjust="spacing" textLength="50" x="1952" y="121.8271">Service</text><rect fill="#FFFFFF" height="48.0293" rx="2.5" ry="2.5" style="stroke:#000000;stroke-width:1.0;" width="161" x="1896.5" y="2383.6982"/><text fill="#000000" font-family="Verdana" font-size="14" lengthAdjust="spacing" textLength="147" x="1903.5" y="2404.7734">AssociationDetection</text><text fill="#000000" font-family="Verdana" font-size="14" lengthAdjust="spacing" textLength="50" x="1952" y="2421.7881">Service</text><text fill="#000000" font-family="Verdana" font-size="14" lengthAdjust="spacing" textLength="48" x="2172" y="112.8125">MySQL</text><text fill="#000000" font-family="Verdana" font-size="14" lengthAdjust="spacing" textLength="118" x="2137" y="129.8271">CTS_DataCenter</text><path d="M2181,62.7373 C2181,52.7373 2199,52.7373 2199,52.7373 C2199,52.7373 2217,52.7373 2217,62.7373 L2217,88.7373 C2217,98.7373 2199,98.7373 2199,98.7373 C2199,98.7373 2181,98.7373 2181,88.7373 L2181,62.7373 " fill="#FFFFFF" style="stroke:#000000;stroke-width:1.5;"/><path d="M2181,62.7373 C2181,72.7373 2199,72.7373 2199,72.7373 C2199,72.7373 2217,72.7373 2217,62.7373 " fill="none" style="stroke:#000000;stroke-width:1.5;"/><text fill="#000000" font-family="Verdana" font-size="14" lengthAdjust="spacing" textLength="48" x="2172" y="2397.7734">MySQL</text><text fill="#000000" font-family="Verdana" font-size="14" lengthAdjust="spacing" textLength="118" x="2137" y="2414.7881">CTS_DataCenter</text><path d="M2181,2427.7275 C2181,2417.7275 2199,2417.7275 2199,2417.7275 C2199,2417.7275 2217,2417.7275 2217,2427.7275 L2217,2453.7275 C2217,2463.7275 2199,2463.7275 2199,2463.7275 C2199,2463.7275 2181,2463.7275 2181,2453.7275 L2181,2427.7275 " fill="#FFFFFF" style="stroke:#000000;stroke-width:1.5;"/><path d="M2181,2427.7275 C2181,2437.7275 2199,2437.7275 2199,2437.7275 C2199,2437.7275 2217,2437.7275 2217,2427.7275 " fill="none" style="stroke:#000000;stroke-width:1.5;"/><rect fill="#FFFFFF" height="1956.7412" style="stroke:#000000;stroke-width:1.0;" width="10" x="563" y="231.9639"/><rect fill="#FFFFFF" height="1897.1426" style="stroke:#000000;stroke-width:1.0;" width="10" x="1008" y="261.7632"/><rect fill="#FFFFFF" height="567.1802" style="stroke:#000000;stroke-width:1.0;" width="10" x="1350" y="291.5625"/><rect fill="#FFFFFF" height="251.5918" style="stroke:#000000;stroke-width:1.0;" width="10" x="1350" y="1877.5146"/><rect fill="#FFFFFF" height="868.7754" style="stroke:#000000;stroke-width:1.0;" width="10" x="1532" y="971.9399"/><rect fill="#FFFFFF" height="105.1973" style="stroke:#000000;stroke-width:1.0;" width="10" x="1972" y="1235.7324"/><rect fill="#FFFFFF" height="270.9897" style="stroke:#000000;stroke-width:1.0;" width="10" x="2194" y="337.1611"/><rect fill="#FFFFFF" height="29.7993" style="stroke:#000000;stroke-width:1.0;" width="10" x="2194" y="1281.3311"/><rect fill="#FFFFFF" height="207.7925" style="stroke:#000000;stroke-width:1.0;" width="10" x="2194" y="1596.1235"/><rect fill="#FFFFFF" height="176.1938" style="stroke:#000000;stroke-width:1.0;" width="10" x="2194" y="1923.1133"/><path d="M10,147.7666 L10,188.7666 L2254,188.7666 L2254,157.7666 L2244,147.7666 L10,147.7666 " fill="#FFFFFF" style="stroke:#000000;stroke-width:1.0;"/><path d="M2244,147.7666 L2244,157.7666 L2254,157.7666 L2244,147.7666 " fill="#FFFFFF" style="stroke:#000000;stroke-width:1.0;"/><text fill="#000000" font-family="Verdana" font-size="13" font-weight="bold" lengthAdjust="spacing" textLength="348" x="953.5" y="165.8364">Staging Phase completed (shared with all rules)</text><text fill="#000000" font-family="Verdana" font-size="13" font-weight="bold" lengthAdjust="spacing" textLength="312" x="953.5" y="181.6357">Focus on Processing Phase (Saba-specific)</text><polygon fill="#000000" points="551,227.9639,561,231.9639,551,235.9639,555,231.9639" style="stroke:#000000;stroke-width:1.0;"/><line style="stroke:#000000;stroke-width:1.0;" x1="64" x2="557" y1="231.9639" y2="231.9639"/><text fill="#000000" font-family="Verdana" font-size="13" lengthAdjust="spacing" textLength="480" x="71" y="211.4351">POST /api/matchmonitor/MatchMonitorProcessRuleSabaGroupBettingLive</text><text fill="#000000" font-family="Verdana" font-size="13" lengthAdjust="spacing" textLength="126" x="71" y="227.2344">numberOfThread=4</text><polygon fill="#000000" points="996,257.7632,1006,261.7632,996,265.7632,1000,261.7632" style="stroke:#000000;stroke-width:1.0;"/><line style="stroke:#000000;stroke-width:1.0;" x1="573" x2="1002" y1="261.7632" y2="261.7632"/><text fill="#000000" font-family="Verdana" font-size="13" lengthAdjust="spacing" textLength="416" x="580" y="257.0337">ProcessRuleSabaGroupBetting(isLive=true, numberOfThread=4)</text><polygon fill="#000000" points="1338,287.5625,1348,291.5625,1338,295.5625,1342,291.5625" style="stroke:#000000;stroke-width:1.0;"/><line style="stroke:#000000;stroke-width:1.0;" x1="1018" x2="1344" y1="291.5625" y2="291.5625"/><text fill="#000000" font-family="Verdana" font-size="13" lengthAdjust="spacing" textLength="225" x="1025" y="286.833">GetMatchRuleSabaGB(isLive=true)</text><polygon fill="#000000" points="2182,333.1611,2192,337.1611,2182,341.1611,2186,337.1611" style="stroke:#000000;stroke-width:1.0;"/><line style="stroke:#000000;stroke-width:1.0;" x1="1360" x2="2188" y1="337.1611" y2="337.1611"/><text fill="#000000" font-family="Verdana" font-size="13" lengthAdjust="spacing" textLength="374" x="1367" y="316.6323">EXEC CTS_DC_MatchMonitor_RuleGroupBettingSaba_Get</text><text fill="#000000" font-family="Verdana" font-size="13" lengthAdjust="spacing" textLength="134" x="1367" y="332.4316">@ip_LiveIndicator=1</text><path d="M2209,350.1611 L2209,581.1611 L2526,581.1611 L2526,360.1611 L2516,350.1611 L2209,350.1611 " fill="#FFFFFF" style="stroke:#000000;stroke-width:1.0;"/><path d="M2516,350.1611 L2516,360.1611 L2526,360.1611 L2516,350.1611 " fill="#FFFFFF" style="stroke:#000000;stroke-width:1.0;"/><text fill="#000000" font-family="Verdana" font-size="13" font-weight="bold" lengthAdjust="spacing" textLength="155" x="2215" y="368.231">Returns 2 result sets:</text><text fill="#000000" font-family="Verdana" font-size="13" lengthAdjust="spacing" textLength="202" x="2215" y="384.0303">1. MatchStagingList (grouped)</text><text fill="#000000" font-family="Verdana" font-size="13" lengthAdjust="spacing" textLength="183" x="2230" y="399.8296">- CustIDList, CTSCustIDList</text><text fill="#000000" font-family="Verdana" font-size="13" lengthAdjust="spacing" textLength="114" x="2230" y="415.6289">- SequenceIDList</text><text fill="#000000" font-family="Verdana" font-size="13" lengthAdjust="spacing" textLength="253" x="2215" y="431.4282">2. CTSCustomerList &#226;&#8224;&#65533; For mapping!</text><text fill="#000000" font-family="Verdana" font-size="13" lengthAdjust="spacing" textLength="137" x="2230" y="447.2275">- CustID, CTSCustID</text><text fill="#000000" font-family="Verdana" font-size="13" lengthAdjust="spacing" textLength="5" x="2215" y="463.0269">&#160;</text><text fill="#000000" font-family="Verdana" font-size="13" font-weight="bold" lengthAdjust="spacing" textLength="115" x="2215" y="478.8262">OUT Parameter:</text><text fill="#000000" font-family="Verdana" font-size="13" lengthAdjust="spacing" textLength="141" x="2215" y="494.6255">- op_MaxSequenceID</text><text fill="#000000" font-family="Verdana" font-size="13" lengthAdjust="spacing" textLength="5" x="2215" y="510.4248">&#160;</text><text fill="#000000" font-family="Verdana" font-size="13" font-weight="bold" lengthAdjust="spacing" textLength="52" x="2215" y="526.2241">Tables:</text><text fill="#000000" font-family="Verdana" font-size="13" lengthAdjust="spacing" textLength="296" x="2215" y="542.0234">- MatchMonitorStagingGroupBettingSabaLive</text><text fill="#000000" font-family="Verdana" font-size="13" lengthAdjust="spacing" textLength="177" x="2215" y="557.8228">- MatchMonitorRuleSetting</text><text fill="#000000" font-family="Verdana" font-size="13" lengthAdjust="spacing" textLength="128" x="2215" y="573.6221">- SystemParameter</text><polygon fill="#000000" points="1371,604.1509,1361,608.1509,1371,612.1509,1367,608.1509" style="stroke:#000000;stroke-width:1.0;"/><line style="stroke:#000000;stroke-width:1.0;stroke-dasharray:2.0,2.0;" x1="1365" x2="2198" y1="608.1509" y2="608.1509"/><text fill="#000000" font-family="Verdana" font-size="13" lengthAdjust="spacing" textLength="351" x="1377" y="603.4214">MaxSequenceID, CTSCustomerList, MatchStagingList</text><path d="M1172,621.1509 L1172,773.1509 L1538,773.1509 L1538,631.1509 L1528,621.1509 L1172,621.1509 " fill="#FFFFFF" style="stroke:#000000;stroke-width:1.0;"/><path d="M1528,621.1509 L1528,631.1509 L1538,631.1509 L1528,621.1509 " fill="#FFFFFF" style="stroke:#000000;stroke-width:1.0;"/><text fill="#000000" font-family="Verdana" font-size="13" font-weight="bold" lengthAdjust="spacing" textLength="219" x="1178" y="639.2207">CREATE MAPPING DICTIONARY</text><text fill="#000000" font-family="Verdana" font-size="13" lengthAdjust="spacing" textLength="5" x="1178" y="655.02">&#160;</text><text fill="#000000" font-family="Verdana" font-size="13" lengthAdjust="spacing" textLength="281" x="1178" y="670.8193">MappingCustDictionary = CTSCustomerList</text><text fill="#000000" font-family="Verdana" font-size="13" lengthAdjust="spacing" textLength="301" x="1198" y="686.6187">.Select(x =&gt; new { x.CustID, x.CTSCustID })</text><text fill="#000000" font-family="Verdana" font-size="13" lengthAdjust="spacing" textLength="67" x="1198" y="702.418">.Distinct()</text><text fill="#000000" font-family="Verdana" font-size="13" lengthAdjust="spacing" textLength="325" x="1198" y="718.2173">.ToDictionary(x =&gt; x.CustID, x =&gt; x.CTSCustID);</text><text fill="#000000" font-family="Verdana" font-size="13" lengthAdjust="spacing" textLength="5" x="1178" y="734.0166">&#160;</text><text fill="#000000" font-family="Verdana" font-size="13" lengthAdjust="spacing" textLength="59" x="1178" y="749.8159">Example:</text><text fill="#000000" font-family="Verdana" font-size="13" lengthAdjust="spacing" textLength="272" x="1178" y="765.6152">{ 101: 5001, 102: 5002, 103: 5003, ... }</text><line style="stroke:#000000;stroke-width:1.0;" x1="1360" x2="1402" y1="800.144" y2="800.144"/><line style="stroke:#000000;stroke-width:1.0;" x1="1402" x2="1402" y1="800.144" y2="813.144"/><line style="stroke:#000000;stroke-width:1.0;" x1="1361" x2="1402" y1="813.144" y2="813.144"/><polygon fill="#000000" points="1371,809.144,1361,813.144,1371,817.144,1367,813.144" style="stroke:#000000;stroke-width:1.0;"/><text fill="#000000" font-family="Verdana" font-size="13" lengthAdjust="spacing" textLength="148" x="1367" y="795.4146">Group matches by key</text><polygon fill="#000000" points="1029,854.7427,1019,858.7427,1029,862.7427,1025,858.7427" style="stroke:#000000;stroke-width:1.0;"/><line style="stroke:#000000;stroke-width:1.0;stroke-dasharray:2.0,2.0;" x1="1023" x2="1354" y1="858.7427" y2="858.7427"/><text fill="#000000" font-family="Verdana" font-size="13" lengthAdjust="spacing" textLength="257" x="1035" y="838.2139">MatchStagingRuleSabaGBProcessModel</text><text fill="#000000" font-family="Verdana" font-size="13" lengthAdjust="spacing" textLength="164" x="1035" y="854.0132">+ MappingCustDictionary</text><line style="stroke:#000000;stroke-width:1.0;" x1="1018" x2="1060" y1="904.3413" y2="904.3413"/><line style="stroke:#000000;stroke-width:1.0;" x1="1060" x2="1060" y1="904.3413" y2="917.3413"/><line style="stroke:#000000;stroke-width:1.0;" x1="1019" x2="1060" y1="917.3413" y2="917.3413"/><polygon fill="#000000" points="1029,913.3413,1019,917.3413,1029,921.3413,1025,917.3413" style="stroke:#000000;stroke-width:1.0;"/><text fill="#000000" font-family="Verdana" font-size="13" lengthAdjust="spacing" textLength="163" x="1025" y="883.8125">Parallel process matches</text><text fill="#000000" font-family="Verdana" font-size="13" lengthAdjust="spacing" textLength="257" x="1025" y="899.6118">AsParallel().WithDegreeOfParallelism(4)</text><path d="M927,932.3413 L1003,932.3413 L1003,940.1406 L993,950.1406 L927,950.1406 L927,932.3413 " fill="#FFFFFF" style="stroke:#000000;stroke-width:1.0;"/><rect fill="none" height="916.374" style="stroke:#000000;stroke-width:1.0;" width="1676" x="927" y="932.3413"/><text fill="#000000" font-family="Verdana" font-size="13" font-weight="bold" lengthAdjust="spacing" textLength="31" x="942" y="946.4111">loop</text><text fill="#000000" font-family="Verdana" font-size="11" font-weight="bold" lengthAdjust="spacing" textLength="179" x="1018" y="945.4004">[For each match (parallel)]</text><polygon fill="#000000" points="1520,967.9399,1530,971.9399,1520,975.9399,1524,971.9399" style="stroke:#000000;stroke-width:1.0;"/><line style="stroke:#000000;stroke-width:1.0;" x1="1018" x2="1526" y1="971.9399" y2="971.9399"/><text fill="#000000" font-family="Verdana" font-size="13" lengthAdjust="spacing" textLength="243" x="1025" y="967.2104">GetInstanceProcessSabaGBService()</text><line style="stroke:#000000;stroke-width:1.0;" x1="1542" x2="1584" y1="1006.1389" y2="1006.1389"/><line style="stroke:#000000;stroke-width:1.0;" x1="1584" x2="1584" y1="1006.1389" y2="1019.1389"/><line style="stroke:#000000;stroke-width:1.0;" x1="1543" x2="1584" y1="1019.1389" y2="1019.1389"/><polygon fill="#000000" points="1553,1015.1389,1543,1019.1389,1553,1023.1389,1549,1019.1389" style="stroke:#000000;stroke-width:1.0;"/><text fill="#000000" font-family="Verdana" font-size="13" lengthAdjust="spacing" textLength="225" x="1549" y="1001.4094">PrepareProcess(matchInfo, isLive,</text><text fill="#000000" font-family="Verdana" font-size="13" font-weight="bold" lengthAdjust="spacing" textLength="170" x="1779" y="1001.4094">mappingCustDictionary</text><text fill="#000000" font-family="Verdana" font-size="13" lengthAdjust="spacing" textLength="6" x="1949" y="1001.4094">)</text><path d="M1977,984.9399 L1977,1025.9399 L2212,1025.9399 L2212,994.9399 L2202,984.9399 L1977,984.9399 " fill="#FFFFFF" style="stroke:#000000;stroke-width:1.0;"/><path d="M2202,984.9399 L2202,994.9399 L2212,994.9399 L2202,984.9399 " fill="#FFFFFF" style="stroke:#000000;stroke-width:1.0;"/><text fill="#000000" font-family="Verdana" font-size="13" font-weight="bold" lengthAdjust="spacing" textLength="212" x="1983" y="1003.0098">Pass MappingCustDictionary!</text><text fill="#000000" font-family="Verdana" font-size="13" lengthAdjust="spacing" textLength="214" x="1983" y="1018.8091">Key difference from standard GB</text><line style="stroke:#000000;stroke-width:1.0;" x1="1542" x2="1584" y1="1053.3379" y2="1053.3379"/><line style="stroke:#000000;stroke-width:1.0;" x1="1584" x2="1584" y1="1053.3379" y2="1066.3379"/><line style="stroke:#000000;stroke-width:1.0;" x1="1543" x2="1584" y1="1066.3379" y2="1066.3379"/><polygon fill="#000000" points="1553,1062.3379,1543,1066.3379,1553,1070.3379,1549,1066.3379" style="stroke:#000000;stroke-width:1.0;"/><text fill="#000000" font-family="Verdana" font-size="13" lengthAdjust="spacing" textLength="111" x="1549" y="1048.6084">ProcessRound1()</text><path d="M1429,1081.3379 L1505,1081.3379 L1505,1089.1372 L1495,1099.1372 L1429,1099.1372 L1429,1081.3379 " fill="#FFFFFF" style="stroke:#000000;stroke-width:1.0;"/><rect fill="none" height="350.9897" style="stroke:#000000;stroke-width:1.0;" width="842" x="1429" y="1081.3379"/><text fill="#000000" font-family="Verdana" font-size="13" font-weight="bold" lengthAdjust="spacing" textLength="31" x="1444" y="1095.4077">loop</text><text fill="#000000" font-family="Verdana" font-size="11" font-weight="bold" lengthAdjust="spacing" textLength="176" x="1520" y="1094.397">[For each customer group]</text><line style="stroke:#000000;stroke-width:1.0;" x1="1542" x2="1584" y1="1156.9348" y2="1156.9348"/><line style="stroke:#000000;stroke-width:1.0;" x1="1584" x2="1584" y1="1156.9348" y2="1169.9348"/><line style="stroke:#000000;stroke-width:1.0;" x1="1543" x2="1584" y1="1169.9348" y2="1169.9348"/><polygon fill="#000000" points="1553,1165.9348,1543,1169.9348,1553,1173.9348,1549,1169.9348" style="stroke:#000000;stroke-width:1.0;"/><text fill="#000000" font-family="Verdana" font-size="13" lengthAdjust="spacing" textLength="303" x="1549" y="1152.2053">DetectAssociation(CTSCustIDList, CustIDList)</text><path d="M1874,1104.1372 L1874,1208.1372 L2089,1208.1372 L2089,1114.1372 L2079,1104.1372 L1874,1104.1372 " fill="#FFFFFF" style="stroke:#000000;stroke-width:1.0;"/><path d="M2079,1104.1372 L2079,1114.1372 L2089,1114.1372 L2079,1104.1372 " fill="#FFFFFF" style="stroke:#000000;stroke-width:1.0;"/><text fill="#000000" font-family="Verdana" font-size="13" font-weight="bold" lengthAdjust="spacing" textLength="135" x="1880" y="1122.207">Simplified params:</text><text fill="#000000" font-family="Verdana" font-size="13" lengthAdjust="spacing" textLength="102" x="1880" y="1138.0063">IsDevice = true</text><text fill="#000000" font-family="Verdana" font-size="13" lengthAdjust="spacing" textLength="72" x="1880" y="1153.8057">IsAI = true</text><text fill="#000000" font-family="Verdana" font-size="13" lengthAdjust="spacing" textLength="71" x="1880" y="1169.605">IsIP = true</text><text fill="#000000" font-family="Verdana" font-size="13" lengthAdjust="spacing" textLength="190" x="1880" y="1185.4043">Is3MatchesLast7Days = true</text><text fill="#000000" font-family="Verdana" font-size="13" lengthAdjust="spacing" textLength="194" x="1880" y="1201.2036">MappingCustDictionary = dict</text><polygon fill="#000000" points="1960,1231.7324,1970,1235.7324,1960,1239.7324,1964,1235.7324" style="stroke:#000000;stroke-width:1.0;"/><line style="stroke:#000000;stroke-width:1.0;" x1="1542" x2="1966" y1="1235.7324" y2="1235.7324"/><text fill="#000000" font-family="Verdana" font-size="13" lengthAdjust="spacing" textLength="172" x="1549" y="1231.0029">DetectAssociation(param)</text><polygon fill="#000000" points="2182,1277.3311,2192,1281.3311,2182,1285.3311,2186,1281.3311" style="stroke:#000000;stroke-width:1.0;"/><line style="stroke:#000000;stroke-width:1.0;" x1="1982" x2="2188" y1="1281.3311" y2="1281.3311"/><text fill="#000000" font-family="Verdana" font-size="13" lengthAdjust="spacing" textLength="167" x="1989" y="1260.8022">Query Association Tables</text><text fill="#000000" font-family="Verdana" font-size="13" lengthAdjust="spacing" textLength="193" x="1989" y="1276.6016">@CTSCustIds, @MappingDict</text><polygon fill="#000000" points="1993,1307.1304,1983,1311.1304,1993,1315.1304,1989,1311.1304" style="stroke:#000000;stroke-width:1.0;"/><line style="stroke:#000000;stroke-width:1.0;stroke-dasharray:2.0,2.0;" x1="1987" x2="2198" y1="1311.1304" y2="1311.1304"/><text fill="#000000" font-family="Verdana" font-size="13" lengthAdjust="spacing" textLength="172" x="1999" y="1306.4009">Associations with GroupID</text><polygon fill="#000000" points="1553,1336.9297,1543,1340.9297,1553,1344.9297,1549,1340.9297" style="stroke:#000000;stroke-width:1.0;"/><line style="stroke:#000000;stroke-width:1.0;stroke-dasharray:2.0,2.0;" x1="1547" x2="1976" y1="1340.9297" y2="1340.9297"/><text fill="#000000" font-family="Verdana" font-size="13" lengthAdjust="spacing" textLength="249" x="1559" y="1336.2002">DetectAssociationMergeGroupEntity[]</text><path d="M1537,1355.9297 L1601,1355.9297 L1601,1363.729 L1591,1373.729 L1537,1373.729 L1537,1355.9297 " fill="#FFFFFF" style="stroke:#000000;stroke-width:1.0;"/><rect fill="none" height="69.3979" style="stroke:#000000;stroke-width:1.0;" width="221" x="1537" y="1355.9297"/><text fill="#000000" font-family="Verdana" font-size="13" font-weight="bold" lengthAdjust="spacing" textLength="19" x="1552" y="1369.9995">alt</text><text fill="#000000" font-family="Verdana" font-size="11" font-weight="bold" lengthAdjust="spacing" textLength="94" x="1616" y="1368.9888">[Has GroupID]</text><path d="M1547,1378.729 L1547,1419.729 L1748,1419.729 L1748,1388.729 L1738,1378.729 L1547,1378.729 " fill="#FFFFFF" style="stroke:#000000;stroke-width:1.0;"/><path d="M1738,1378.729 L1738,1388.729 L1748,1388.729 L1738,1378.729 " fill="#FFFFFF" style="stroke:#000000;stroke-width:1.0;"/><text fill="#000000" font-family="Verdana" font-size="13" lengthAdjust="spacing" textLength="180" x="1553" y="1396.7988">Process in application layer</text><text fill="#000000" font-family="Verdana" font-size="13" lengthAdjust="spacing" textLength="157" x="1553" y="1412.5981">(No SP call for Process)</text><line style="stroke:#000000;stroke-width:1.0;" x1="1542" x2="1584" y1="1461.127" y2="1461.127"/><line style="stroke:#000000;stroke-width:1.0;" x1="1584" x2="1584" y1="1461.127" y2="1474.127"/><line style="stroke:#000000;stroke-width:1.0;" x1="1543" x2="1584" y1="1474.127" y2="1474.127"/><polygon fill="#000000" points="1553,1470.127,1543,1474.127,1553,1478.127,1549,1474.127" style="stroke:#000000;stroke-width:1.0;"/><text fill="#000000" font-family="Verdana" font-size="13" lengthAdjust="spacing" textLength="111" x="1549" y="1456.3975">ProcessRound2()</text><path d="M1682,1447.8276 L1682,1472.8276 L1931,1472.8276 L1931,1457.8276 L1921,1447.8276 L1682,1447.8276 " fill="#FFFFFF" style="stroke:#000000;stroke-width:1.0;"/><path d="M1921,1447.8276 L1921,1457.8276 L1931,1457.8276 L1921,1447.8276 " fill="#FFFFFF" style="stroke:#000000;stroke-width:1.0;"/><text fill="#000000" font-family="Verdana" font-size="13" lengthAdjust="spacing" textLength="228" x="1688" y="1465.8975">Same as Round 1 with refined lists</text><line style="stroke:#000000;stroke-width:1.0;" x1="1542" x2="1584" y1="1508.3259" y2="1508.3259"/><line style="stroke:#000000;stroke-width:1.0;" x1="1584" x2="1584" y1="1508.3259" y2="1521.3259"/><line style="stroke:#000000;stroke-width:1.0;" x1="1543" x2="1584" y1="1521.3259" y2="1521.3259"/><polygon fill="#000000" points="1553,1517.3259,1543,1521.3259,1553,1525.3259,1549,1521.3259" style="stroke:#000000;stroke-width:1.0;"/><text fill="#000000" font-family="Verdana" font-size="13" lengthAdjust="spacing" textLength="178" x="1549" y="1503.5964">Complete(maxSequenceID)</text><path d="M1749,1487.127 L1749,1528.127 L1910,1528.127 L1910,1497.127 L1900,1487.127 L1749,1487.127 " fill="#FFFFFF" style="stroke:#000000;stroke-width:1.0;"/><path d="M1900,1487.127 L1900,1497.127 L1910,1497.127 L1900,1487.127 " fill="#FFFFFF" style="stroke:#000000;stroke-width:1.0;"/><text fill="#000000" font-family="Verdana" font-size="13" lengthAdjust="spacing" textLength="140" x="1755" y="1505.1968">Merge Round 1 and 2</text><text fill="#000000" font-family="Verdana" font-size="13" lengthAdjust="spacing" textLength="99" x="1755" y="1520.9961">Assign GroupID</text><path d="M1429,1540.7256 L1493,1540.7256 L1493,1548.5249 L1483,1558.5249 L1429,1558.5249 L1429,1540.7256 " fill="#FFFFFF" style="stroke:#000000;stroke-width:1.0;"/><rect fill="none" height="271.1904" style="stroke:#000000;stroke-width:1.0;" width="1164" x="1429" y="1540.7256"/><text fill="#000000" font-family="Verdana" font-size="13" font-weight="bold" lengthAdjust="spacing" textLength="19" x="1444" y="1554.7954">alt</text><text fill="#000000" font-family="Verdana" font-size="11" font-weight="bold" lengthAdjust="spacing" textLength="158" x="1508" y="1553.7847">[Has Complete Matches]</text><polygon fill="#000000" points="2182,1592.1235,2192,1596.1235,2182,1600.1235,2186,1596.1235" style="stroke:#000000;stroke-width:1.0;"/><line style="stroke:#000000;stroke-width:1.0;" x1="1542" x2="2188" y1="1596.1235" y2="1596.1235"/><text fill="#000000" font-family="Verdana" font-size="13" lengthAdjust="spacing" textLength="412" x="1549" y="1575.5947">EXEC CTS_DC_MatchMonitor_RuleGroupBettingSaba_Complete</text><text fill="#000000" font-family="Verdana" font-size="13" lengthAdjust="spacing" textLength="234" x="1549" y="1591.394">@ip_LiveIndicator, @ip_TransGroup</text><path d="M2209,1609.1235 L2209,1776.1235 L2583,1776.1235 L2583,1619.1235 L2573,1609.1235 L2209,1609.1235 " fill="#FFFFFF" style="stroke:#000000;stroke-width:1.0;"/><path d="M2573,1609.1235 L2573,1619.1235 L2583,1619.1235 L2573,1609.1235 " fill="#FFFFFF" style="stroke:#000000;stroke-width:1.0;"/><text fill="#000000" font-family="Verdana" font-size="13" font-weight="bold" lengthAdjust="spacing" textLength="85" x="2215" y="1627.1934">Operations:</text><text fill="#000000" font-family="Verdana" font-size="13" lengthAdjust="spacing" textLength="257" x="2215" y="1642.9927">- INSERT/UPDATE MatchMonitorDetails</text><text fill="#000000" font-family="Verdana" font-size="13" lengthAdjust="spacing" textLength="353" x="2215" y="1658.792">- UPDATE MatchMonitorStagingGroupBettingSabaLive</text><text fill="#000000" font-family="Verdana" font-size="13" lengthAdjust="spacing" textLength="198" x="2225" y="1674.5913">SET GroupID = TargetGroupID</text><text fill="#000000" font-family="Verdana" font-size="13" lengthAdjust="spacing" textLength="155" x="2215" y="1690.3906">- INSERT MatchMonitor</text><text fill="#000000" font-family="Verdana" font-size="13" lengthAdjust="spacing" textLength="5" x="2215" y="1706.1899">&#160;</text><text fill="#000000" font-family="Verdana" font-size="13" font-weight="bold" lengthAdjust="spacing" textLength="52" x="2215" y="1721.9893">Tables:</text><text fill="#000000" font-family="Verdana" font-size="13" lengthAdjust="spacing" textLength="227" x="2215" y="1737.7886">- MatchMonitorDetails (Reason=0)</text><text fill="#000000" font-family="Verdana" font-size="13" lengthAdjust="spacing" textLength="102" x="2215" y="1753.5879">- MatchMonitor</text><text fill="#000000" font-family="Verdana" font-size="13" lengthAdjust="spacing" textLength="296" x="2215" y="1769.3872">- MatchMonitorStagingGroupBettingSabaLive</text><polygon fill="#000000" points="1553,1799.916,1543,1803.916,1553,1807.916,1549,1803.916" style="stroke:#000000;stroke-width:1.0;"/><line style="stroke:#000000;stroke-width:1.0;stroke-dasharray:2.0,2.0;" x1="1547" x2="2198" y1="1803.916" y2="1803.916"/><text fill="#000000" font-family="Verdana" font-size="13" lengthAdjust="spacing" textLength="55" x="1559" y="1799.1865">Success</text><polygon fill="#000000" points="1029,1836.7153,1019,1840.7153,1029,1844.7153,1025,1840.7153" style="stroke:#000000;stroke-width:1.0;"/><line style="stroke:#000000;stroke-width:1.0;stroke-dasharray:2.0,2.0;" x1="1023" x2="1536" y1="1840.7153" y2="1840.7153"/><text fill="#000000" font-family="Verdana" font-size="13" lengthAdjust="spacing" textLength="61" x="1035" y="1835.9858">Complete</text><polygon fill="#000000" points="1338,1873.5146,1348,1877.5146,1338,1881.5146,1342,1877.5146" style="stroke:#000000;stroke-width:1.0;"/><line style="stroke:#000000;stroke-width:1.0;" x1="1018" x2="1344" y1="1877.5146" y2="1877.5146"/><text fill="#000000" font-family="Verdana" font-size="13" lengthAdjust="spacing" textLength="313" x="1025" y="1872.7852">CleanTransRuleSabaGB(isLive, maxSequenceID)</text><polygon fill="#000000" points="2182,1919.1133,2192,1923.1133,2182,1927.1133,2186,1923.1133" style="stroke:#000000;stroke-width:1.0;"/><line style="stroke:#000000;stroke-width:1.0;" x1="1360" x2="2188" y1="1923.1133" y2="1923.1133"/><text fill="#000000" font-family="Verdana" font-size="13" lengthAdjust="spacing" textLength="437" x="1367" y="1902.5845">EXEC CTS_DC_MatchMonitor_RuleGroupBettingSaba_StagingClean</text><text fill="#000000" font-family="Verdana" font-size="13" lengthAdjust="spacing" textLength="264" x="1367" y="1918.3838">@ip_LiveIndicator, @ip_MaxSequenceID</text><path d="M2209,1936.1133 L2209,2072.1133 L2526,2072.1133 L2526,1946.1133 L2516,1936.1133 L2209,1936.1133 " fill="#FFFFFF" style="stroke:#000000;stroke-width:1.0;"/><path d="M2516,1936.1133 L2516,1946.1133 L2526,1946.1133 L2516,1936.1133 " fill="#FFFFFF" style="stroke:#000000;stroke-width:1.0;"/><text fill="#000000" font-family="Verdana" font-size="13" font-weight="bold" lengthAdjust="spacing" textLength="71" x="2215" y="1954.1831">Clean-up:</text><text fill="#000000" font-family="Verdana" font-size="13" lengthAdjust="spacing" textLength="172" x="2215" y="1969.9824">- DELETE old transactions</text><text fill="#000000" font-family="Verdana" font-size="13" lengthAdjust="spacing" textLength="140" x="2215" y="1985.7817">- Keep last TimeStep</text><text fill="#000000" font-family="Verdana" font-size="13" lengthAdjust="spacing" textLength="256" x="2215" y="2001.5811">- UPDATE SystemParameter (162/163)</text><text fill="#000000" font-family="Verdana" font-size="13" lengthAdjust="spacing" textLength="5" x="2215" y="2017.3804">&#160;</text><text fill="#000000" font-family="Verdana" font-size="13" font-weight="bold" lengthAdjust="spacing" textLength="52" x="2215" y="2033.1797">Tables:</text><text fill="#000000" font-family="Verdana" font-size="13" lengthAdjust="spacing" textLength="296" x="2215" y="2048.979">- MatchMonitorStagingGroupBettingSabaLive</text><text fill="#000000" font-family="Verdana" font-size="13" lengthAdjust="spacing" textLength="128" x="2215" y="2064.7783">- SystemParameter</text><polygon fill="#000000" points="1371,2095.3071,1361,2099.3071,1371,2103.3071,1367,2099.3071" style="stroke:#000000;stroke-width:1.0;"/><line style="stroke:#000000;stroke-width:1.0;stroke-dasharray:2.0,2.0;" x1="1365" x2="2198" y1="2099.3071" y2="2099.3071"/><text fill="#000000" font-family="Verdana" font-size="13" lengthAdjust="spacing" textLength="86" x="1377" y="2094.5776">Deleted rows</text><polygon fill="#000000" points="1029,2125.1064,1019,2129.1064,1029,2133.1064,1025,2129.1064" style="stroke:#000000;stroke-width:1.0;"/><line style="stroke:#000000;stroke-width:1.0;stroke-dasharray:2.0,2.0;" x1="1023" x2="1354" y1="2129.1064" y2="2129.1064"/><text fill="#000000" font-family="Verdana" font-size="13" lengthAdjust="spacing" textLength="55" x="1035" y="2124.377">Success</text><polygon fill="#000000" points="584,2154.9058,574,2158.9058,584,2162.9058,580,2158.9058" style="stroke:#000000;stroke-width:1.0;"/><line style="stroke:#000000;stroke-width:1.0;stroke-dasharray:2.0,2.0;" x1="578" x2="1012" y1="2158.9058" y2="2158.9058"/><text fill="#000000" font-family="Verdana" font-size="13" lengthAdjust="spacing" textLength="27" x="590" y="2154.1763">true</text><polygon fill="#000000" points="75,2184.7051,65,2188.7051,75,2192.7051,71,2188.7051" style="stroke:#000000;stroke-width:1.0;"/><line style="stroke:#000000;stroke-width:1.0;stroke-dasharray:2.0,2.0;" x1="69" x2="567" y1="2188.7051" y2="2188.7051"/><text fill="#000000" font-family="Verdana" font-size="13" lengthAdjust="spacing" textLength="209" x="81" y="2183.9756">HTTP 200 OK { success: true }</text><path d="M10,2201.7051 L10,2368.7051 L2254,2368.7051 L2254,2211.7051 L2244,2201.7051 L10,2201.7051 " fill="#FFFFFF" style="stroke:#000000;stroke-width:1.0;"/><path d="M2244,2201.7051 L2244,2211.7051 L2254,2211.7051 L2244,2201.7051 " fill="#FFFFFF" style="stroke:#000000;stroke-width:1.0;"/><text fill="#000000" font-family="Verdana" font-size="13" font-weight="bold" lengthAdjust="spacing" textLength="181" x="890.5" y="2219.7749">Key Saba Features Used:</text><text fill="#000000" font-family="Verdana" font-size="13" lengthAdjust="spacing" textLength="412" x="890.5" y="2235.5742">1. &#226;&#339;&#8230; MappingCustDictionary created from CTSCustomerList</text><text fill="#000000" font-family="Verdana" font-size="13" lengthAdjust="spacing" textLength="336" x="890.5" y="2251.3735">2. &#226;&#339;&#8230; Fixed association criteria (no sport config)</text><text fill="#000000" font-family="Verdana" font-size="13" lengthAdjust="spacing" textLength="474" x="890.5" y="2267.1729">3. &#226;&#339;&#8230; Saba-specific tables (MatchMonitorStagingGroupBettingSaba*)</text><text fill="#000000" font-family="Verdana" font-size="13" lengthAdjust="spacing" textLength="385" x="890.5" y="2282.9722">4. &#226;&#339;&#8230; Results saved to MatchMonitorDetails (Reason=0)</text><text fill="#000000" font-family="Verdana" font-size="13" lengthAdjust="spacing" textLength="5" x="890.5" y="2298.7715">&#160;</text><text fill="#000000" font-family="Verdana" font-size="13" font-weight="bold" lengthAdjust="spacing" textLength="139" x="890.5" y="2314.5708">Stored Procedures:</text><text fill="#000000" font-family="Verdana" font-size="13" lengthAdjust="spacing" textLength="347" x="890.5" y="2330.3701">- CTS_DC_MatchMonitor_RuleGroupBettingSaba_Get</text><text fill="#000000" font-family="Verdana" font-size="13" lengthAdjust="spacing" textLength="385" x="890.5" y="2346.1694">- CTS_DC_MatchMonitor_RuleGroupBettingSaba_Complete</text><text fill="#000000" font-family="Verdana" font-size="13" lengthAdjust="spacing" textLength="410" x="890.5" y="2361.9688">- CTS_DC_MatchMonitor_RuleGroupBettingSaba_StagingClean</text><!--SRC=[hLZTRjis5BxtKvpsIixi97RQ3VEGeedbf5wJnerTRCCo18n4syHaKYFfD4OnOE-m5nXsiRSOTb7iHVe2UuKTKf99AOgRTDE5BP4y_-TyFEGZFQSB2cb266zefXCAfqH7SpWLd6aXOKok21nBiKpXa6hD-0pQCAO_BIcFA8ICp2HPGF0cZOccCNHtkq_RdKwxysMpqI2HuV3uQt45usXEusL2vMCWodqrKY8rYrXAk8R7Ld8k-8Bt1TTI90MD-xoR22LTy36LrooYbWW7yiyAqUavYZUs7H-MASpOHqb6KaHKgJ9bFbXBVA2KY1ZHJF2GQXgPbpArNL7GeYzHZg8eTJL-VOA-c8mlGnpiKwvpVuI7ZGONceAufj9vj6Kc09-jhR4cCnElqTomYiGYJQY9KQ3cHEB_MwRdG98491AgvjPMJdSaegK2mGkB78_0cDzMAOtOb4M6Wl8OZ1QDnbe3Q3_pWjM3qTbu0ZiaPJiB4wf55geTFswveBM3JRhbsNR2hka5vyl55PLdqybSKXBlFp6fnQunu_oqQBXteuEBVGys20YOCZBsjLpI5bG5DPqaBvSQxjr8ydAc1yTKMzDSjlWIF7v-fZMy3yCnFEp1uDj17spW-vU-iouDPzy2Gtk9OY_uSvPU6b537hE8uDhzZfE7UM7pHRBPN8EOkaGvftefkO8kIAgMYGP5jUhb-T3PpX0XpwOJfZG4CoEUnasx0fysz9TA3qCpsp9Akq-tf40DRxoxNImM2oejx_U_V_Zbjt_- -XEE43iM94rHwAEg74-6dSeDENipWH51GC8ybuK1RH0fEl36YVT99kGAaz-jzJsTcrprjV5mpMeRy6nLFZjUAKqNQuLSiOI7qAxcJKd3LjKjhLj1QCJK3wsF1LvYPKRspmS7am6S7en6mrV740xxa-7PguFpxtApxSzfvciZDMGMeOXSmNvLao8Ki3sc2I9PS0Fxpu3Jj_0ERhQByE1R4I3ukUbeGkJ0E59vOnFXv6NSF3xvPy6i-PLJU7133AJrxCSxwEnsUl1qTxVJmjUkVUsQrptxkjU2xUrj-Db7h7BDbQlOxdWMiAY2gnNyI5SLYWh4-F6vjLESYfWc5_opUYVxeIoXGXbcIe26IOL0bq2Q2IXKlU07gfWBcjlV8CI7T2OfFPiMmqmj0iIrHY94QeiCXSypUWZIV54MdhByyWPdaMx8bIQOiSMKjJbVa8TuRLbbVro7iJnU9sWaAUfL20cigaC-5It8aBM5ARweS-pMLgQ3mxrrrcrjZGYwhJOUZ_AoCCzBkeAOJQTKsePdAiK2ZCqnaJ4SPmYwJga7sPJjI6B9uqxkgd94ehpem8BjMg6Fiyuw3A_b24g0tFAmsbLXZOloBe9XaU5sZms3IOx56YkBPwX2QbNP1xF3LUOEXlNZmr7z-DvfbiWdHEalGh9ITSlkWYhSzPpwfQYi8rFlGh_xgdEWjTmvQvtJfQwjcFK7YytyzPAYXXvBo3OUtBEBuCIg1SzpoqBV41_cYx5y1odhxR5NMNTdOIpVyCnJtZFg5RvFHfrIESjwa077KyFg-n_gHDHwnvc5ZSOBR6IhEfQpqJGgDSZXF_aqC0xelSHqFiR12LdXdbjT7BmIC1v1PFhUAPPQJjmiBRoLEZZGyFy_eSYxGHMBUWZsUFP25zW5qCbY9kcKSQms16gj7YAjdtVu291UAt4d0jeOhaKZea7NpmWsuwNGt0Qv8e25NCXBTqETFRolBPZNDBTOBZWqaOIhun94rkLuRUlhKEuifJ8hd2gyjM7uQZmud-oy6OMsYV9KnheWB56LzJKBFzP9kcSyc1HkHq2R48oHhgkGGgsIcDAAYeNbHjUngR47WdDAbE3xkyqDYpTCtSVSMpMMGrergyVBo7nlWB2DHLdfcufqQbHOLI36iDnqoEidb72RURUEUIseb5zjQ_UVptkvYwqYTzP6-THpZvEWPTTUfkuy50vE1fZC8ebn6qPxYTrkLJxxaj8KWHQFRHEse6DDqqQf1Yed80WwdtTtEf_lDV-_8zY33baXpQv0f7YhAWUeJRrzaOFtwTChjn-sT_7e_5i4_xx2Q5hSeFJWnMGoWkxkBfozn9EDoiHdpF08ux7phpystmQPHjPUvXrHWiTzFDMyKJJsJldlV__xrm-__757SnL9QY_uR0DSToJiEWv7x0PN4g_PYIJ3s3020HUWKY4rH89FsInBX3r7MxfX0crJ0u9xf4JUwZznhCxjPOO2HQvH7Itk0tNhgpDXRiWiAiJ6MIux7t8Zyr2I4ZgrFmqCN07y2m00]--></g></svg>