<svg xmlns="http://www.w3.org/2000/svg" xmlns:xlink="http://www.w3.org/1999/xlink" contentStyleType="text/css" height="3435px" preserveAspectRatio="none" style="width:1187px;height:3435px;background:#FFFFFF;" version="1.1" viewBox="0 0 1187 3435" width="1187px" zoomAndPan="magnify"><defs/><g><text fill="#000000" font-family="Verdana" font-size="22" font-weight="bold" lengthAdjust="spacing" textLength="1154" x="15" y="37.1182">Match Monitor Saba Group Betting - Simplified Association Detection (Updated 2025-11-19)</text><path d="M121,52.7373 L121,236.5298 L375,236.5298 L375,62.7373 L365,52.7373 L121,52.7373 " fill="#FFFFFF" style="stroke:#000000;stroke-width:1.0;"/><path d="M365,52.7373 L365,62.7373 L375,62.7373 L365,52.7373 " fill="#FFFFFF" style="stroke:#000000;stroke-width:1.0;"/><text fill="#000000" font-family="Verdana" font-size="13" font-weight="bold" lengthAdjust="spacing" textLength="233" x="127" y="70.8071">COMPARISON: Standard vs Saba</text><text fill="#000000" font-family="Verdana" font-size="13" lengthAdjust="spacing" textLength="5" x="127" y="86.6064">&#160;</text><text fill="#000000" font-family="Verdana" font-size="13" lengthAdjust="spacing" textLength="161" x="127" y="102.4058">Standard Group Betting:</text><text fill="#000000" font-family="Verdana" font-size="13" lengthAdjust="spacing" textLength="196" x="127" y="118.2051">- Sport-specific configuration</text><text fill="#000000" font-family="Verdana" font-size="13" lengthAdjust="spacing" textLength="227" x="127" y="134.0044">- 5 detection criteria (conditional)</text><text fill="#000000" font-family="Verdana" font-size="13" lengthAdjust="spacing" textLength="108" x="127" y="149.8037">- Complex setup</text><text fill="#000000" font-family="Verdana" font-size="13" lengthAdjust="spacing" textLength="5" x="127" y="165.603">&#160;</text><text fill="#000000" font-family="Verdana" font-size="13" lengthAdjust="spacing" textLength="134" x="127" y="181.4023">Saba Group Betting:</text><text fill="#000000" font-family="Verdana" font-size="13" lengthAdjust="spacing" textLength="173" x="127" y="197.2017">- No configuration needed</text><text fill="#000000" font-family="Verdana" font-size="13" lengthAdjust="spacing" textLength="225" x="127" y="213.001">- 4 detection criteria (always ON)</text><text fill="#000000" font-family="Verdana" font-size="13" lengthAdjust="spacing" textLength="96" x="127" y="228.8003">- Simple setup</text><ellipse cx="405" cy="144.6335" fill="#FFFFFF" rx="10" ry="10" style="stroke:#000000;stroke-width:1.0;"/><path d="M509.5,246.5298 L509.5,405.5229 L489.5,409.5229 L509.5,413.5229 L509.5,572.5161 A0,0 0 0 0 509.5,572.5161 L835.5,572.5161 A0,0 0 0 0 835.5,572.5161 L835.5,256.5298 L825.5,246.5298 L509.5,246.5298 A0,0 0 0 0 509.5,246.5298 " fill="#FFFFFF" style="stroke:#000000;stroke-width:1.0;"/><path d="M825.5,246.5298 L825.5,256.5298 L835.5,256.5298 L825.5,246.5298 " fill="#FFFFFF" style="stroke:#000000;stroke-width:1.0;"/><text fill="#000000" font-family="Verdana" font-size="13" font-weight="bold" lengthAdjust="spacing" textLength="171" x="515.5" y="264.5996">Sport-Specific Settings:</text><text fill="#000000" font-family="Verdana" font-size="13" lengthAdjust="spacing" textLength="180" x="515.5" y="280.3989">- DeviceSports: "1,2,3,4,5"</text><text fill="#000000" font-family="Verdana" font-size="13" lengthAdjust="spacing" textLength="150" x="515.5" y="296.1982">- AISports: "1,2,3,4,5"</text><text fill="#000000" font-family="Verdana" font-size="13" lengthAdjust="spacing" textLength="149" x="515.5" y="311.9976">- IPSports: "1,2,3,4,5"</text><text fill="#000000" font-family="Verdana" font-size="13" lengthAdjust="spacing" textLength="268" x="515.5" y="327.7969">- 3MatchesLast7DaysSports: "1,2,3,4,5"</text><text fill="#000000" font-family="Verdana" font-size="13" lengthAdjust="spacing" textLength="217" x="515.5" y="343.5962">- IPLast3DaysSports: "1,2,3,4,5"</text><text fill="#000000" font-family="Verdana" font-size="13" lengthAdjust="spacing" textLength="5" x="515.5" y="359.3955">&#160;</text><text fill="#000000" font-family="Verdana" font-size="13" font-weight="bold" lengthAdjust="spacing" textLength="134" x="515.5" y="375.1948">Dynamic Enabling:</text><text fill="#000000" font-family="Verdana" font-size="13" lengthAdjust="spacing" textLength="305" x="515.5" y="390.9941">IsDevice = DeviceSports.Contains(SportType)</text><text fill="#000000" font-family="Verdana" font-size="13" lengthAdjust="spacing" textLength="245" x="515.5" y="406.7935">IsAI = AISports.Contains(SportType)</text><text fill="#000000" font-family="Verdana" font-size="13" lengthAdjust="spacing" textLength="243" x="515.5" y="422.5928">IsIP = IPSports.Contains(SportType)</text><text fill="#000000" font-family="Verdana" font-size="13" lengthAdjust="spacing" textLength="5" x="515.5" y="438.3921">&#160;</text><text fill="#000000" font-family="Verdana" font-size="13" font-weight="bold" lengthAdjust="spacing" textLength="50" x="515.5" y="454.1914">Result:</text><text fill="#000000" font-family="Verdana" font-size="13" lengthAdjust="spacing" textLength="173" x="570.5" y="454.1914">Different criteria per sport</text><text fill="#000000" font-family="Verdana" font-size="13" lengthAdjust="spacing" textLength="5" x="515.5" y="469.9907">&#160;</text><text fill="#000000" font-family="Verdana" font-size="13" font-weight="bold" lengthAdjust="spacing" textLength="72" x="515.5" y="485.79">5 Criteria:</text><text fill="#000000" font-family="Verdana" font-size="13" lengthAdjust="spacing" textLength="184" x="515.5" y="501.5894">&#226;&#339;&#8220; Device (sport-specific)</text><text fill="#000000" font-family="Verdana" font-size="13" lengthAdjust="spacing" textLength="154" x="515.5" y="517.3887">&#226;&#339;&#8220; AI (sport-specific)</text><text fill="#000000" font-family="Verdana" font-size="13" lengthAdjust="spacing" textLength="153" x="515.5" y="533.188">&#226;&#339;&#8220; IP (sport-specific)</text><text fill="#000000" font-family="Verdana" font-size="13" lengthAdjust="spacing" textLength="292" x="515.5" y="548.9873">&#226;&#339;&#8220; 3 Matches Last 7 Days (sport-specific)</text><text fill="#000000" font-family="Verdana" font-size="13" lengthAdjust="spacing" textLength="236" x="515.5" y="564.7866">&#226;&#339;&#8220; IP Last 3 Days (sport-specific)</text><rect fill="#FFFFFF" height="49.168" rx="12.5" ry="12.5" style="stroke:#000000;stroke-width:1.0;" width="169" x="320.5" y="384.939"/><text fill="#000000" font-family="Verdana" font-size="12" lengthAdjust="spacing" textLength="149" x="330.5" y="407.0034">Standard Group Betting</text><text fill="#000000" font-family="Verdana" font-size="12" lengthAdjust="spacing" textLength="85" x="330.5" y="421.5874">Configuration</text><path d="M496.5,582.5161 L496.5,741.5093 L476.5,745.5093 L496.5,749.5093 L496.5,908.5024 A0,0 0 0 0 496.5,908.5024 L787.5,908.5024 A0,0 0 0 0 787.5,908.5024 L787.5,592.5161 L777.5,582.5161 L496.5,582.5161 A0,0 0 0 0 496.5,582.5161 " fill="#FFFFFF" style="stroke:#000000;stroke-width:1.0;"/><path d="M777.5,582.5161 L777.5,592.5161 L787.5,592.5161 L777.5,582.5161 " fill="#FFFFFF" style="stroke:#000000;stroke-width:1.0;"/><text fill="#000000" font-family="Verdana" font-size="13" font-weight="bold" lengthAdjust="spacing" textLength="109" x="502.5" y="600.5859">Fixed Settings:</text><text fill="#000000" font-family="Verdana" font-size="13" lengthAdjust="spacing" textLength="211" x="502.5" y="616.3853">NO sport-specific configuration!</text><text fill="#000000" font-family="Verdana" font-size="13" lengthAdjust="spacing" textLength="5" x="502.5" y="632.1846">&#160;</text><text fill="#000000" font-family="Verdana" font-size="13" font-weight="bold" lengthAdjust="spacing" textLength="119" x="502.5" y="647.9839">Always Enabled:</text><text fill="#000000" font-family="Verdana" font-size="13" lengthAdjust="spacing" textLength="102" x="502.5" y="663.7832">IsDevice = true</text><text fill="#000000" font-family="Verdana" font-size="13" lengthAdjust="spacing" textLength="72" x="502.5" y="679.5825">IsAI = true</text><text fill="#000000" font-family="Verdana" font-size="13" lengthAdjust="spacing" textLength="71" x="502.5" y="695.3818">IsIP = true</text><text fill="#000000" font-family="Verdana" font-size="13" lengthAdjust="spacing" textLength="190" x="502.5" y="711.1812">Is3MatchesLast7Days = true</text><text fill="#000000" font-family="Verdana" font-size="13" lengthAdjust="spacing" textLength="5" x="502.5" y="726.9805">&#160;</text><text fill="#000000" font-family="Verdana" font-size="13" font-weight="bold" lengthAdjust="spacing" textLength="50" x="502.5" y="742.7798">Result:</text><text fill="#000000" font-family="Verdana" font-size="13" lengthAdjust="spacing" textLength="190" x="557.5" y="742.7798">Same criteria for all matches</text><text fill="#000000" font-family="Verdana" font-size="13" lengthAdjust="spacing" textLength="5" x="502.5" y="758.5791">&#160;</text><text fill="#000000" font-family="Verdana" font-size="13" font-weight="bold" lengthAdjust="spacing" textLength="72" x="502.5" y="774.3784">4 Criteria:</text><text fill="#000000" font-family="Verdana" font-size="13" lengthAdjust="spacing" textLength="231" x="502.5" y="790.1777">&#226;&#339;&#8220; Device Detection (always ON)</text><text fill="#000000" font-family="Verdana" font-size="13" lengthAdjust="spacing" textLength="201" x="502.5" y="805.9771">&#226;&#339;&#8220; AI Detection (always ON)</text><text fill="#000000" font-family="Verdana" font-size="13" lengthAdjust="spacing" textLength="200" x="502.5" y="821.7764">&#226;&#339;&#8220; IP Detection (always ON)</text><text fill="#000000" font-family="Verdana" font-size="13" lengthAdjust="spacing" textLength="270" x="502.5" y="837.5757">&#226;&#339;&#8220; 3 Matches Last 7 Days (always ON)</text><text fill="#000000" font-family="Verdana" font-size="13" lengthAdjust="spacing" textLength="210" x="502.5" y="853.375">&#226;&#339;&#8212; IP Last 3 Days (not used)</text><text fill="#000000" font-family="Verdana" font-size="13" lengthAdjust="spacing" textLength="5" x="502.5" y="869.1743">&#160;</text><text fill="#000000" font-family="Verdana" font-size="13" font-weight="bold" lengthAdjust="spacing" textLength="104" x="502.5" y="884.9736">Saba-Specific:</text><text fill="#000000" font-family="Verdana" font-size="13" lengthAdjust="spacing" textLength="222" x="502.5" y="900.7729">+ MappingCustDictionary required</text><rect fill="#FFFFFF" height="49.168" rx="12.5" ry="12.5" style="stroke:#000000;stroke-width:1.0;" width="143" x="333.5" y="720.9253"/><text fill="#000000" font-family="Verdana" font-size="12" lengthAdjust="spacing" textLength="123" x="343.5" y="742.9897">Saba Group Betting</text><text fill="#000000" font-family="Verdana" font-size="12" lengthAdjust="spacing" textLength="85" x="343.5" y="757.5737">Configuration</text><path d="M495,918.5024 L495,959.0007 L475,963.0007 L495,967.0007 L495,1007.499 A0,0 0 0 0 495,1007.499 L786,1007.499 A0,0 0 0 0 786,1007.499 L786,928.5024 L776,918.5024 L495,918.5024 A0,0 0 0 0 495,918.5024 " fill="#FFFFFF" style="stroke:#000000;stroke-width:1.0;"/><path d="M776,918.5024 L776,928.5024 L786,928.5024 L776,918.5024 " fill="#FFFFFF" style="stroke:#000000;stroke-width:1.0;"/><text fill="#000000" font-family="Verdana" font-size="13" lengthAdjust="spacing" textLength="134" x="501" y="936.5723">From MatchStaging:</text><text fill="#000000" font-family="Verdana" font-size="13" lengthAdjust="spacing" textLength="270" x="501" y="952.3716">- CTSCustIDList: "5001,5002,5003,5004"</text><text fill="#000000" font-family="Verdana" font-size="13" lengthAdjust="spacing" textLength="211" x="501" y="968.1709">- CustIDList: "101,102,103,104"</text><text fill="#000000" font-family="Verdana" font-size="13" lengthAdjust="spacing" textLength="5" x="501" y="983.9702">&#160;</text><text fill="#000000" font-family="Verdana" font-size="13" lengthAdjust="spacing" textLength="244" x="501" y="999.7695">These are already mapped in staging</text><rect fill="#FFFFFF" height="34.584" rx="12.5" ry="12.5" style="stroke:#000000;stroke-width:1.0;" width="140" x="335" y="945.7087"/><text fill="#000000" font-family="Verdana" font-size="12" lengthAdjust="spacing" textLength="120" x="345" y="967.7732">Get Customer Lists</text><path d="M553,1017.499 L553,1239.6895 L533,1243.6895 L553,1247.6895 L553,1469.8799 A0,0 0 0 0 553,1469.8799 L1064,1469.8799 A0,0 0 0 0 1064,1469.8799 L1064,1027.499 L1054,1017.499 L553,1017.499 A0,0 0 0 0 553,1017.499 " fill="#FFFFFF" style="stroke:#000000;stroke-width:1.0;"/><path d="M1054,1017.499 L1054,1027.499 L1064,1027.499 L1054,1017.499 " fill="#FFFFFF" style="stroke:#000000;stroke-width:1.0;"/><text fill="#000000" font-family="Verdana" font-size="13" font-weight="bold" lengthAdjust="spacing" textLength="149" x="559" y="1035.5688">Saba Code (Simple):</text><text fill="#000000" font-family="Verdana" font-size="13" lengthAdjust="spacing" textLength="5" x="559" y="1051.3682">&#160;</text><text fill="#000000" font-family="Verdana" font-size="13" lengthAdjust="spacing" textLength="315" x="559" y="1067.1675">var param = new DetectAssociationParamModel</text><text fill="#000000" font-family="Verdana" font-size="13" lengthAdjust="spacing" textLength="8" x="559" y="1082.9668">{</text><text fill="#000000" font-family="Verdana" font-size="13" lengthAdjust="spacing" textLength="189" x="579" y="1098.7661">CTSCustIds = ctsCustIDList,</text><text fill="#000000" font-family="Verdana" font-size="13" lengthAdjust="spacing" textLength="140" x="579" y="1114.5654">CustIds = custIDList,</text><text fill="#000000" font-family="Verdana" font-size="13" lengthAdjust="spacing" textLength="225" x="579" y="1130.3647">IsDevice = true,           // Always</text><text fill="#000000" font-family="Verdana" font-size="13" lengthAdjust="spacing" textLength="215" x="579" y="1146.1641">IsAI = true,               // Always</text><text fill="#000000" font-family="Verdana" font-size="13" lengthAdjust="spacing" textLength="214" x="579" y="1161.9634">IsIP = true,               // Always</text><text fill="#000000" font-family="Verdana" font-size="13" lengthAdjust="spacing" textLength="263" x="579" y="1177.7627">Is3MatchesLast7Days = true, // Always</text><text fill="#000000" font-family="Verdana" font-size="13" lengthAdjust="spacing" textLength="319" x="579" y="1193.562">MappingCustDictionary = MappingCustDictionary</text><text fill="#000000" font-family="Verdana" font-size="13" lengthAdjust="spacing" textLength="14" x="559" y="1209.3613">};</text><text fill="#000000" font-family="Verdana" font-size="13" lengthAdjust="spacing" textLength="5" x="559" y="1225.1606">&#160;</text><text fill="#000000" font-family="Verdana" font-size="13" font-weight="bold" lengthAdjust="spacing" textLength="194" x="559" y="1240.96">Standard Code (Complex):</text><text fill="#000000" font-family="Verdana" font-size="13" lengthAdjust="spacing" textLength="5" x="559" y="1256.7593">&#160;</text><text fill="#000000" font-family="Verdana" font-size="13" lengthAdjust="spacing" textLength="315" x="559" y="1272.5586">var param = new DetectAssociationParamModel</text><text fill="#000000" font-family="Verdana" font-size="13" lengthAdjust="spacing" textLength="8" x="559" y="1288.3579">{</text><text fill="#000000" font-family="Verdana" font-size="13" lengthAdjust="spacing" textLength="189" x="579" y="1304.1572">CTSCustIds = ctsCustIDList,</text><text fill="#000000" font-family="Verdana" font-size="13" lengthAdjust="spacing" textLength="140" x="579" y="1319.9565">CustIds = custIDList,</text><text fill="#000000" font-family="Verdana" font-size="13" lengthAdjust="spacing" textLength="429" x="579" y="1335.7559">IsDevice = AssDetectSetting.DeviceSports.Contains(sportType),</text><text fill="#000000" font-family="Verdana" font-size="13" lengthAdjust="spacing" textLength="369" x="579" y="1351.5552">IsAI = AssDetectSetting.AISports.Contains(sportType),</text><text fill="#000000" font-family="Verdana" font-size="13" lengthAdjust="spacing" textLength="367" x="579" y="1367.3545">IsIP = AssDetectSetting.IPSports.Contains(sportType),</text><text fill="#000000" font-family="Verdana" font-size="13" lengthAdjust="spacing" textLength="158" x="579" y="1383.1538">Is3MatchesLast7Days =</text><text fill="#000000" font-family="Verdana" font-size="13" lengthAdjust="spacing" textLength="450" x="599" y="1398.9531">AssDetectSetting._3MatchesLast7DaysSports.Contains(sportType),</text><text fill="#000000" font-family="Verdana" font-size="13" lengthAdjust="spacing" textLength="107" x="579" y="1414.7524">IsIPLast3Days =</text><text fill="#000000" font-family="Verdana" font-size="13" lengthAdjust="spacing" textLength="391" x="599" y="1430.5518">AssDetectSetting.IPLast3DaysSports.Contains(sportType),</text><text fill="#000000" font-family="Verdana" font-size="13" lengthAdjust="spacing" textLength="231" x="579" y="1446.3511">CustIdsIPLast3Days = licCustIDList</text><text fill="#000000" font-family="Verdana" font-size="13" lengthAdjust="spacing" textLength="14" x="559" y="1462.1504">};</text><rect fill="#FFFFFF" height="34.584" rx="12.5" ry="12.5" style="stroke:#000000;stroke-width:1.0;" width="256" x="277" y="1226.3975"/><text fill="#000000" font-family="Verdana" font-size="12" lengthAdjust="spacing" textLength="236" x="287" y="1248.4619">Create DetectAssociationParamModel</text><rect fill="#FFFFFF" height="34.584" rx="12.5" ry="12.5" style="stroke:#000000;stroke-width:1.0;" width="223" x="293.5" y="1489.8799"/><text fill="#000000" font-family="Verdana" font-size="12" lengthAdjust="spacing" textLength="203" x="303.5" y="1511.9443">Call AssociationDetectionService</text><rect fill="#FFFFFF" height="1084.1743" style="stroke:#000000;stroke-width:1.0;" width="702" x="277" y="1534.4639"/><path d="M515,1534.4639 L515,1544.4785 L505,1554.4785 L277,1554.4785 " fill="none" style="stroke:#000000;stroke-width:1.0;"/><text fill="#000000" font-family="Verdana" font-size="14" lengthAdjust="spacing" textLength="228" x="280" y="1549.5391">Detection Processing (4 Criteria)</text><path d="M524.5,1564.4785 L524.5,1628.6758 L504.5,1632.6758 L524.5,1636.6758 L524.5,1700.873 A0,0 0 0 0 524.5,1700.873 L861.5,1700.873 A0,0 0 0 0 861.5,1700.873 L861.5,1574.4785 L851.5,1564.4785 L524.5,1564.4785 A0,0 0 0 0 524.5,1564.4785 " fill="#FFFFFF" style="stroke:#000000;stroke-width:1.0;"/><path d="M851.5,1564.4785 L851.5,1574.4785 L861.5,1574.4785 L851.5,1564.4785 " fill="#FFFFFF" style="stroke:#000000;stroke-width:1.0;"/><text fill="#000000" font-family="Verdana" font-size="13" lengthAdjust="spacing" textLength="225" x="530.5" y="1582.5483">Query CTSCustomer for DeviceID:</text><text fill="#000000" font-family="Verdana" font-size="13" lengthAdjust="spacing" textLength="167" x="530.5" y="1598.3477">SELECT CustID, DeviceID</text><text fill="#000000" font-family="Verdana" font-size="13" lengthAdjust="spacing" textLength="131" x="530.5" y="1614.147">FROM CTSCustomer</text><text fill="#000000" font-family="Verdana" font-size="13" lengthAdjust="spacing" textLength="316" x="530.5" y="1629.9463">WHERE CTSCustID IN (5001, 5002, 5003, 5004)</text><text fill="#000000" font-family="Verdana" font-size="13" lengthAdjust="spacing" textLength="129" x="530.5" y="1645.7456">GROUP BY DeviceID</text><text fill="#000000" font-family="Verdana" font-size="13" lengthAdjust="spacing" textLength="149" x="530.5" y="1661.5449">HAVING COUNT(*) &gt; 1</text><text fill="#000000" font-family="Verdana" font-size="13" lengthAdjust="spacing" textLength="5" x="530.5" y="1677.3442">&#160;</text><text fill="#000000" font-family="Verdana" font-size="13" lengthAdjust="spacing" textLength="313" x="530.5" y="1693.1436">Result: DeviceID "ABC123": [5001, 5002, 5003]</text><rect fill="#FFFFFF" height="34.584" rx="12.5" ry="12.5" style="stroke:#000000;stroke-width:1.0;" width="199" x="305.5" y="1615.3838"/><text fill="#000000" font-family="Verdana" font-size="12" lengthAdjust="spacing" textLength="179" x="315.5" y="1637.4482">1. Device Detection (Always)</text><path d="M510.5,1710.873 L510.5,1759.271 L490.5,1763.271 L510.5,1767.271 L510.5,1815.6689 A0,0 0 0 0 510.5,1815.6689 L792.5,1815.6689 A0,0 0 0 0 792.5,1815.6689 L792.5,1720.873 L782.5,1710.873 L510.5,1710.873 A0,0 0 0 0 510.5,1710.873 " fill="#FFFFFF" style="stroke:#000000;stroke-width:1.0;"/><path d="M782.5,1710.873 L782.5,1720.873 L792.5,1720.873 L782.5,1710.873 " fill="#FFFFFF" style="stroke:#000000;stroke-width:1.0;"/><text fill="#000000" font-family="Verdana" font-size="13" lengthAdjust="spacing" textLength="126" x="516.5" y="1728.9429">Call AI/ML Service:</text><text fill="#000000" font-family="Verdana" font-size="13" lengthAdjust="spacing" textLength="176" x="516.5" y="1744.7422">- Analyze betting patterns</text><text fill="#000000" font-family="Verdana" font-size="13" lengthAdjust="spacing" textLength="183" x="516.5" y="1760.5415">- Calculate similarity scores</text><text fill="#000000" font-family="Verdana" font-size="13" lengthAdjust="spacing" textLength="168" x="516.5" y="1776.3408">- Group similar customers</text><text fill="#000000" font-family="Verdana" font-size="13" lengthAdjust="spacing" textLength="5" x="516.5" y="1792.1401">&#160;</text><text fill="#000000" font-family="Verdana" font-size="13" lengthAdjust="spacing" textLength="261" x="516.5" y="1807.9395">Result: Pattern Similarity: [5002, 5004]</text><rect fill="#FFFFFF" height="34.584" rx="12.5" ry="12.5" style="stroke:#000000;stroke-width:1.0;" width="171" x="319.5" y="1745.979"/><text fill="#000000" font-family="Verdana" font-size="12" lengthAdjust="spacing" textLength="151" x="329.5" y="1768.0435">2. AI Detection (Always)</text><path d="M510.5,1825.6689 L510.5,1897.7659 L490.5,1901.7659 L510.5,1905.7659 L510.5,1977.8628 A0,0 0 0 0 510.5,1977.8628 L847.5,1977.8628 A0,0 0 0 0 847.5,1977.8628 L847.5,1835.6689 L837.5,1825.6689 L510.5,1825.6689 A0,0 0 0 0 510.5,1825.6689 " fill="#FFFFFF" style="stroke:#000000;stroke-width:1.0;"/><path d="M837.5,1825.6689 L837.5,1835.6689 L847.5,1835.6689 L837.5,1825.6689 " fill="#FFFFFF" style="stroke:#000000;stroke-width:1.0;"/><text fill="#000000" font-family="Verdana" font-size="13" lengthAdjust="spacing" textLength="169" x="516.5" y="1843.7388">Query TicketTrans for IP:</text><text fill="#000000" font-family="Verdana" font-size="13" lengthAdjust="spacing" textLength="174" x="516.5" y="1859.5381">SELECT CustID, IPAddress</text><text fill="#000000" font-family="Verdana" font-size="13" lengthAdjust="spacing" textLength="120" x="516.5" y="1875.3374">FROM TicketTrans</text><text fill="#000000" font-family="Verdana" font-size="13" lengthAdjust="spacing" textLength="316" x="516.5" y="1891.1367">WHERE CTSCustID IN (5001, 5002, 5003, 5004)</text><text fill="#000000" font-family="Verdana" font-size="13" lengthAdjust="spacing" textLength="283" x="536.5" y="1906.936">AND BetTime &gt;= NOW() - INTERVAL 1 DAY</text><text fill="#000000" font-family="Verdana" font-size="13" lengthAdjust="spacing" textLength="136" x="516.5" y="1922.7354">GROUP BY IPAddress</text><text fill="#000000" font-family="Verdana" font-size="13" lengthAdjust="spacing" textLength="280" x="516.5" y="1938.5347">HAVING COUNT(DISTINCT CTSCustID) &gt; 1</text><text fill="#000000" font-family="Verdana" font-size="13" lengthAdjust="spacing" textLength="5" x="516.5" y="1954.334">&#160;</text><text fill="#000000" font-family="Verdana" font-size="13" lengthAdjust="spacing" textLength="271" x="516.5" y="1970.1333">Result: IP "192.168.1.100": [5001, 5002]</text><rect fill="#FFFFFF" height="34.584" rx="12.5" ry="12.5" style="stroke:#000000;stroke-width:1.0;" width="171" x="319.5" y="1884.4739"/><text fill="#000000" font-family="Verdana" font-size="12" lengthAdjust="spacing" textLength="151" x="329.5" y="1906.5383">3. IP Detection (Always)</text><path d="M543,1987.8628 L543,2091.5583 L523,2095.5583 L543,2099.5583 L543,2203.2539 A0,0 0 0 0 543,2203.2539 L969,2203.2539 A0,0 0 0 0 969,2203.2539 L969,1997.8628 L959,1987.8628 L543,1987.8628 A0,0 0 0 0 543,1987.8628 " fill="#FFFFFF" style="stroke:#000000;stroke-width:1.0;"/><path d="M959,1987.8628 L959,1997.8628 L969,1997.8628 L959,1987.8628 " fill="#FFFFFF" style="stroke:#000000;stroke-width:1.0;"/><text fill="#000000" font-family="Verdana" font-size="13" lengthAdjust="spacing" textLength="170" x="549" y="2005.9326">Query co-betting history:</text><text fill="#000000" font-family="Verdana" font-size="13" lengthAdjust="spacing" textLength="405" x="549" y="2021.7319">SELECT CTSCustID1, CTSCustID2, COUNT(*) as MatchCount</text><text fill="#000000" font-family="Verdana" font-size="13" lengthAdjust="spacing" textLength="48" x="549" y="2037.5313">FROM (</text><text fill="#000000" font-family="Verdana" font-size="13" lengthAdjust="spacing" textLength="260" x="569" y="2053.3306">SELECT DISTINCT MatchID, CTSCustID</text><text fill="#000000" font-family="Verdana" font-size="13" lengthAdjust="spacing" textLength="120" x="569" y="2069.1299">FROM TicketTrans</text><text fill="#000000" font-family="Verdana" font-size="13" lengthAdjust="spacing" textLength="316" x="569" y="2084.9292">WHERE CTSCustID IN (5001, 5002, 5003, 5004)</text><text fill="#000000" font-family="Verdana" font-size="13" lengthAdjust="spacing" textLength="283" x="589" y="2100.7285">AND BetTime &gt;= NOW() - INTERVAL 7 DAY</text><text fill="#000000" font-family="Verdana" font-size="13" lengthAdjust="spacing" textLength="25" x="549" y="2116.5278">) t1</text><text fill="#000000" font-family="Verdana" font-size="13" lengthAdjust="spacing" textLength="245" x="549" y="2132.3271">JOIN t2 ON t1.MatchID = t2.MatchID</text><text fill="#000000" font-family="Verdana" font-size="13" lengthAdjust="spacing" textLength="239" x="549" y="2148.1265">GROUP BY CTSCustID1, CTSCustID2</text><text fill="#000000" font-family="Verdana" font-size="13" lengthAdjust="spacing" textLength="158" x="549" y="2163.9258">HAVING COUNT(*) &gt;= 3</text><text fill="#000000" font-family="Verdana" font-size="13" lengthAdjust="spacing" textLength="5" x="549" y="2179.7251">&#160;</text><text fill="#000000" font-family="Verdana" font-size="13" lengthAdjust="spacing" textLength="298" x="549" y="2195.5244">Result: Co-bet 3+ times: [5001, 5002, 5003]</text><rect fill="#FFFFFF" height="34.584" rx="12.5" ry="12.5" style="stroke:#000000;stroke-width:1.0;" width="236" x="287" y="2078.2664"/><text fill="#000000" font-family="Verdana" font-size="12" lengthAdjust="spacing" textLength="216" x="297" y="2100.3308">4. 3 Matches Last 7 Days (Always)</text><path d="M520.5,2213.2539 L520.5,2316.9495 L500.5,2320.9495 L520.5,2324.9495 L520.5,2428.645 A0,0 0 0 0 520.5,2428.645 L832.5,2428.645 A0,0 0 0 0 832.5,2428.645 L832.5,2223.2539 L822.5,2213.2539 L520.5,2213.2539 A0,0 0 0 0 520.5,2213.2539 " fill="#FFFFFF" style="stroke:#000000;stroke-width:1.0;"/><path d="M822.5,2213.2539 L822.5,2223.2539 L832.5,2223.2539 L822.5,2213.2539 " fill="#FFFFFF" style="stroke:#000000;stroke-width:1.0;"/><text fill="#000000" font-family="Verdana" font-size="13" font-weight="bold" lengthAdjust="spacing" textLength="92" x="526.5" y="2231.3237">Merge Logic:</text><text fill="#000000" font-family="Verdana" font-size="13" lengthAdjust="spacing" textLength="220" x="526.5" y="2247.123">1. Union all groups from 4 criteria</text><text fill="#000000" font-family="Verdana" font-size="13" lengthAdjust="spacing" textLength="291" x="526.5" y="2262.9224">2. If any overlap then Merge into one group</text><text fill="#000000" font-family="Verdana" font-size="13" lengthAdjust="spacing" textLength="144" x="526.5" y="2278.7217">3. Transitive grouping</text><text fill="#000000" font-family="Verdana" font-size="13" lengthAdjust="spacing" textLength="5" x="526.5" y="2294.521">&#160;</text><text fill="#000000" font-family="Verdana" font-size="13" lengthAdjust="spacing" textLength="59" x="526.5" y="2310.3203">Example:</text><text fill="#000000" font-family="Verdana" font-size="13" lengthAdjust="spacing" textLength="199" x="526.5" y="2326.1196">- Device: {5001, 5002, 5003}</text><text fill="#000000" font-family="Verdana" font-size="13" lengthAdjust="spacing" textLength="126" x="526.5" y="2341.9189">- IP: {5001, 5002}</text><text fill="#000000" font-family="Verdana" font-size="13" lengthAdjust="spacing" textLength="177" x="526.5" y="2357.7183">- 3Matches: {5002, 5003}</text><text fill="#000000" font-family="Verdana" font-size="13" lengthAdjust="spacing" textLength="280" x="526.5" y="2373.5176">Merged: {5001, 5002, 5003} to GroupID 1</text><text fill="#000000" font-family="Verdana" font-size="13" lengthAdjust="spacing" textLength="5" x="526.5" y="2389.3169">&#160;</text><text fill="#000000" font-family="Verdana" font-size="13" lengthAdjust="spacing" textLength="85" x="526.5" y="2405.1162">- AI: {5004}</text><text fill="#000000" font-family="Verdana" font-size="13" lengthAdjust="spacing" textLength="269" x="526.5" y="2420.9155">Separate: {5004} to No GroupID (alone)</text><rect fill="#FFFFFF" height="34.584" rx="12.5" ry="12.5" style="stroke:#000000;stroke-width:1.0;" width="191" x="309.5" y="2303.6575"/><text fill="#000000" font-family="Verdana" font-size="12" lengthAdjust="spacing" textLength="171" x="319.5" y="2325.7219">Merge All Detection Results</text><path d="M514.5,2438.645 L514.5,2518.6416 L494.5,2522.6416 L514.5,2526.6416 L514.5,2606.6382 A0,0 0 0 0 514.5,2606.6382 L815.5,2606.6382 A0,0 0 0 0 815.5,2606.6382 L815.5,2448.645 L805.5,2438.645 L514.5,2438.645 A0,0 0 0 0 514.5,2438.645 " fill="#FFFFFF" style="stroke:#000000;stroke-width:1.0;"/><path d="M805.5,2438.645 L805.5,2448.645 L815.5,2448.645 L805.5,2438.645 " fill="#FFFFFF" style="stroke:#000000;stroke-width:1.0;"/><text fill="#000000" font-family="Verdana" font-size="13" lengthAdjust="spacing" textLength="106" x="520.5" y="2456.7148">For each group:</text><text fill="#000000" font-family="Verdana" font-size="13" lengthAdjust="spacing" textLength="183" x="520.5" y="2472.5142">- Assign sequential GroupID</text><text fill="#000000" font-family="Verdana" font-size="13" lengthAdjust="spacing" textLength="230" x="520.5" y="2488.3135">- Record which criteria detected it</text><text fill="#000000" font-family="Verdana" font-size="13" lengthAdjust="spacing" textLength="5" x="520.5" y="2504.1128">&#160;</text><text fill="#000000" font-family="Verdana" font-size="13" lengthAdjust="spacing" textLength="59" x="520.5" y="2519.9121">Example:</text><text fill="#000000" font-family="Verdana" font-size="13" lengthAdjust="spacing" textLength="8" x="520.5" y="2535.7114">{</text><text fill="#000000" font-family="Verdana" font-size="13" lengthAdjust="spacing" textLength="119" x="540.5" y="2551.5107">CTSCustID: 5001,</text><text fill="#000000" font-family="Verdana" font-size="13" lengthAdjust="spacing" textLength="76" x="540.5" y="2567.3101">GroupID: 1,</text><text fill="#000000" font-family="Verdana" font-size="13" lengthAdjust="spacing" textLength="260" x="540.5" y="2583.1094">AssociationType: "Device,IP,3Matches"</text><text fill="#000000" font-family="Verdana" font-size="13" lengthAdjust="spacing" textLength="8" x="520.5" y="2598.9087">}</text><rect fill="#FFFFFF" height="34.584" rx="12.5" ry="12.5" style="stroke:#000000;stroke-width:1.0;" width="179" x="315.5" y="2505.3496"/><text fill="#000000" font-family="Verdana" font-size="12" lengthAdjust="spacing" textLength="159" x="325.5" y="2527.4141">Assign GroupID and Type</text><rect fill="#FFFFFF" height="34.584" rx="12.5" ry="12.5" style="stroke:#000000;stroke-width:1.0;" width="156" x="327" y="2638.6382"/><text fill="#000000" font-family="Verdana" font-size="12" lengthAdjust="spacing" textLength="136" x="337" y="2660.7026">Filter: GroupID != null</text><path d="M518.5,2683.2222 L518.5,2763.2188 L498.5,2767.2188 L518.5,2771.2188 L518.5,2851.2153 A0,0 0 0 0 518.5,2851.2153 L980.5,2851.2153 A0,0 0 0 0 980.5,2851.2153 L980.5,2693.2222 L970.5,2683.2222 L518.5,2683.2222 A0,0 0 0 0 518.5,2683.2222 " fill="#FFFFFF" style="stroke:#000000;stroke-width:1.0;"/><path d="M970.5,2683.2222 L970.5,2693.2222 L980.5,2693.2222 L970.5,2683.2222 " fill="#FFFFFF" style="stroke:#000000;stroke-width:1.0;"/><text fill="#000000" font-family="Verdana" font-size="13" lengthAdjust="spacing" textLength="335" x="524.5" y="2701.292">IEnumerable&lt;DetectAssociationMergeGroupEntity&gt;</text><text fill="#000000" font-family="Verdana" font-size="13" lengthAdjust="spacing" textLength="5" x="524.5" y="2717.0913">&#160;</text><text fill="#000000" font-family="Verdana" font-size="13" lengthAdjust="spacing" textLength="59" x="524.5" y="2732.8906">Example:</text><text fill="#000000" font-family="Verdana" font-size="13" lengthAdjust="spacing" textLength="6" x="524.5" y="2748.6899">[</text><text fill="#000000" font-family="Verdana" font-size="13" lengthAdjust="spacing" textLength="421" x="544.5" y="2764.4893">{ CTSCustID: 5001, GroupID: 1, Type: "Device,IP,3Matches" },</text><text fill="#000000" font-family="Verdana" font-size="13" lengthAdjust="spacing" textLength="421" x="544.5" y="2780.2886">{ CTSCustID: 5002, GroupID: 1, Type: "Device,IP,3Matches" },</text><text fill="#000000" font-family="Verdana" font-size="13" lengthAdjust="spacing" textLength="398" x="544.5" y="2796.0879">{ CTSCustID: 5003, GroupID: 1, Type: "Device,3Matches" }</text><text fill="#000000" font-family="Verdana" font-size="13" lengthAdjust="spacing" textLength="6" x="524.5" y="2811.8872">]</text><text fill="#000000" font-family="Verdana" font-size="13" lengthAdjust="spacing" textLength="5" x="524.5" y="2827.6865">&#160;</text><text fill="#000000" font-family="Verdana" font-size="13" lengthAdjust="spacing" textLength="262" x="524.5" y="2843.4858">Customer 5004 not returned (no group)</text><rect fill="#FFFFFF" height="34.584" rx="12.5" ry="12.5" style="stroke:#000000;stroke-width:1.0;" width="187" x="311.5" y="2749.9268"/><text fill="#000000" font-family="Verdana" font-size="12" lengthAdjust="spacing" textLength="167" x="321.5" y="2771.9912">Return Association Results</text><path d="M436,2861.2153 L436,3428.3921 L742,3428.3921 L742,2871.2153 L732,2861.2153 L436,2861.2153 " fill="#FFFFFF" style="stroke:#000000;stroke-width:1.0;"/><path d="M732,2861.2153 L732,2871.2153 L742,2871.2153 L732,2861.2153 " fill="#FFFFFF" style="stroke:#000000;stroke-width:1.0;"/><line style="stroke:#000000;stroke-width:1.0;" x1="436" x2="742" y1="2871.2153" y2="2871.2153"/><line style="stroke:#000000;stroke-width:1.0;" x1="436" x2="742" y1="2873.2153" y2="2873.2153"/><text fill="#000000" font-family="Verdana" font-size="13" lengthAdjust="spacing" textLength="285" x="442" y="2889.2852">SABA ASSOCIATION DETECTION SUMMARY</text><line style="stroke:#000000;stroke-width:1.0;" x1="436" x2="742" y1="2897.0146" y2="2897.0146"/><line style="stroke:#000000;stroke-width:1.0;" x1="436" x2="742" y1="2899.0146" y2="2899.0146"/><text fill="#000000" font-family="Verdana" font-size="13" lengthAdjust="spacing" textLength="5" x="442" y="2915.0845">&#160;</text><text fill="#000000" font-family="Verdana" font-size="13" font-weight="bold" lengthAdjust="spacing" textLength="111" x="442" y="2930.8838">Simplifications:</text><text fill="#000000" font-family="Verdana" font-size="13" lengthAdjust="spacing" textLength="241" x="442" y="2946.6831">&#226;&#339;&#8230; No sport-specific configuration</text><text fill="#000000" font-family="Verdana" font-size="13" lengthAdjust="spacing" textLength="209" x="442" y="2962.4824">&#226;&#339;&#8230; All criteria always enabled</text><text fill="#000000" font-family="Verdana" font-size="13" lengthAdjust="spacing" textLength="215" x="442" y="2978.2817">&#226;&#339;&#8230; No IPLast3Days complexity</text><text fill="#000000" font-family="Verdana" font-size="13" lengthAdjust="spacing" textLength="183" x="442" y="2994.0811">&#226;&#339;&#8230; No LicCustList needed</text><text fill="#000000" font-family="Verdana" font-size="13" lengthAdjust="spacing" textLength="277" x="442" y="3009.8804">&#226;&#339;&#8230; Simpler code (~8 lines vs ~15 lines)</text><text fill="#000000" font-family="Verdana" font-size="13" lengthAdjust="spacing" textLength="5" x="442" y="3025.6797">&#160;</text><text fill="#000000" font-family="Verdana" font-size="13" font-weight="bold" lengthAdjust="spacing" textLength="104" x="442" y="3041.479">Saba-Specific:</text><text fill="#000000" font-family="Verdana" font-size="13" lengthAdjust="spacing" textLength="244" x="442" y="3057.2783">&#240;&#376;&#8221;&#167; MappingCustDictionary required</text><text fill="#000000" font-family="Verdana" font-size="13" lengthAdjust="spacing" textLength="230" x="442" y="3073.0776">&#240;&#376;&#8221;&#167; Fixed criteria (4 instead of 5)</text><text fill="#000000" font-family="Verdana" font-size="13" lengthAdjust="spacing" textLength="5" x="442" y="3088.877">&#160;</text><text fill="#000000" font-family="Verdana" font-size="13" font-weight="bold" lengthAdjust="spacing" textLength="169" x="442" y="3104.6763">Same Detection Power:</text><text fill="#000000" font-family="Verdana" font-size="13" lengthAdjust="spacing" textLength="232" x="442" y="3120.4756">- Device, AI, IP, 3Matches all work</text><text fill="#000000" font-family="Verdana" font-size="13" lengthAdjust="spacing" textLength="174" x="442" y="3136.2749">- Same grouping algorithm</text><text fill="#000000" font-family="Verdana" font-size="13" lengthAdjust="spacing" textLength="114" x="442" y="3152.0742">- Same accuracy</text><text fill="#000000" font-family="Verdana" font-size="13" lengthAdjust="spacing" textLength="5" x="442" y="3167.8735">&#160;</text><text fill="#000000" font-family="Verdana" font-size="13" font-weight="bold" lengthAdjust="spacing" textLength="65" x="442" y="3183.6729">Benefits:</text><text fill="#000000" font-family="Verdana" font-size="13" lengthAdjust="spacing" textLength="130" x="442" y="3199.4722">- Easier to maintain</text><text fill="#000000" font-family="Verdana" font-size="13" lengthAdjust="spacing" textLength="132" x="442" y="3215.2715">- Less configuration</text><text fill="#000000" font-family="Verdana" font-size="13" lengthAdjust="spacing" textLength="246" x="442" y="3231.0708">- Faster execution (no sport checks)</text><text fill="#000000" font-family="Verdana" font-size="13" lengthAdjust="spacing" textLength="171" x="442" y="3246.8701">- More predictable results</text><text fill="#000000" font-family="Verdana" font-size="13" lengthAdjust="spacing" textLength="5" x="442" y="3262.6694">&#160;</text><text fill="#000000" font-family="Verdana" font-size="13" font-weight="bold" lengthAdjust="spacing" textLength="72" x="442" y="3278.4688">Trade-off:</text><text fill="#000000" font-family="Verdana" font-size="13" lengthAdjust="spacing" textLength="91" x="442" y="3294.2681">- Less flexible</text><text fill="#000000" font-family="Verdana" font-size="13" lengthAdjust="spacing" textLength="225" x="442" y="3310.0674">- Cannot disable criteria per sport</text><text fill="#000000" font-family="Verdana" font-size="13" lengthAdjust="spacing" textLength="198" x="442" y="3325.8667">- Always runs all 4 detections</text><text fill="#000000" font-family="Verdana" font-size="13" lengthAdjust="spacing" textLength="5" x="442" y="3341.666">&#160;</text><text fill="#000000" font-family="Verdana" font-size="13" font-weight="bold" lengthAdjust="spacing" textLength="72" x="442" y="3357.4653">Use Case:</text><text fill="#000000" font-family="Verdana" font-size="13" lengthAdjust="spacing" textLength="219" x="442" y="3373.2646">Perfect for Saba platform where:</text><text fill="#000000" font-family="Verdana" font-size="13" lengthAdjust="spacing" textLength="232" x="442" y="3389.064">- All matches need same detection</text><text fill="#000000" font-family="Verdana" font-size="13" lengthAdjust="spacing" textLength="215" x="442" y="3404.8633">- No sport-specific requirements</text><text fill="#000000" font-family="Verdana" font-size="13" lengthAdjust="spacing" textLength="188" x="442" y="3420.6626">- Consistency over flexibility</text><ellipse cx="405" cy="3144.8037" fill="none" rx="11" ry="11" style="stroke:#000000;stroke-width:1.0;"/><ellipse cx="405" cy="3144.8037" fill="#FFFFFF" rx="6" ry="6" style="stroke:#000000;stroke-width:1.0;"/><line style="stroke:#000000;stroke-width:1.0;" x1="405" x2="405" y1="154.6335" y2="384.939"/><polygon fill="#000000" points="401,374.939,405,384.939,409,374.939,405,378.939" style="stroke:#000000;stroke-width:1.0;"/><line style="stroke:#000000;stroke-width:1.0;" x1="405" x2="405" y1="434.1069" y2="720.9253"/><polygon fill="#000000" points="401,710.9253,405,720.9253,409,710.9253,405,714.9253" style="stroke:#000000;stroke-width:1.0;"/><line style="stroke:#000000;stroke-width:1.0;" x1="405" x2="405" y1="770.0933" y2="945.7087"/><polygon fill="#000000" points="401,935.7087,405,945.7087,409,935.7087,405,939.7087" style="stroke:#000000;stroke-width:1.0;"/><line style="stroke:#000000;stroke-width:1.0;" x1="405" x2="405" y1="980.2927" y2="1226.3975"/><polygon fill="#000000" points="401,1216.3975,405,1226.3975,409,1216.3975,405,1220.3975" style="stroke:#000000;stroke-width:1.0;"/><line style="stroke:#000000;stroke-width:1.0;" x1="405" x2="405" y1="1260.9814" y2="1489.8799"/><polygon fill="#000000" points="401,1479.8799,405,1489.8799,409,1479.8799,405,1483.8799" style="stroke:#000000;stroke-width:1.0;"/><line style="stroke:#000000;stroke-width:1.0;" x1="405" x2="405" y1="1649.9678" y2="1745.979"/><polygon fill="#000000" points="401,1735.979,405,1745.979,409,1735.979,405,1739.979" style="stroke:#000000;stroke-width:1.0;"/><line style="stroke:#000000;stroke-width:1.0;" x1="405" x2="405" y1="1780.563" y2="1884.4739"/><polygon fill="#000000" points="401,1874.4739,405,1884.4739,409,1874.4739,405,1878.4739" style="stroke:#000000;stroke-width:1.0;"/><line style="stroke:#000000;stroke-width:1.0;" x1="405" x2="405" y1="1919.0579" y2="2078.2664"/><polygon fill="#000000" points="401,2068.2664,405,2078.2664,409,2068.2664,405,2072.2664" style="stroke:#000000;stroke-width:1.0;"/><line style="stroke:#000000;stroke-width:1.0;" x1="405" x2="405" y1="2112.8503" y2="2303.6575"/><polygon fill="#000000" points="401,2293.6575,405,2303.6575,409,2293.6575,405,2297.6575" style="stroke:#000000;stroke-width:1.0;"/><line style="stroke:#000000;stroke-width:1.0;" x1="405" x2="405" y1="2338.2415" y2="2505.3496"/><polygon fill="#000000" points="401,2495.3496,405,2505.3496,409,2495.3496,405,2499.3496" style="stroke:#000000;stroke-width:1.0;"/><line style="stroke:#000000;stroke-width:1.0;" x1="405" x2="405" y1="1524.4639" y2="1615.3838"/><polygon fill="#000000" points="401,1605.3838,405,1615.3838,409,1605.3838,405,1609.3838" style="stroke:#000000;stroke-width:1.0;"/><line style="stroke:#000000;stroke-width:1.0;" x1="405" x2="405" y1="2539.9336" y2="2638.6382"/><polygon fill="#000000" points="401,2628.6382,405,2638.6382,409,2628.6382,405,2632.6382" style="stroke:#000000;stroke-width:1.0;"/><line style="stroke:#000000;stroke-width:1.0;" x1="405" x2="405" y1="2673.2222" y2="2749.9268"/><polygon fill="#000000" points="401,2739.9268,405,2749.9268,409,2739.9268,405,2743.9268" style="stroke:#000000;stroke-width:1.0;"/><line style="stroke:#000000;stroke-width:1.0;" x1="405" x2="405" y1="2784.5107" y2="3133.8037"/><polygon fill="#000000" points="401,3123.8037,405,3133.8037,409,3123.8037,405,3127.8037" style="stroke:#000000;stroke-width:1.0;"/><!--SRC=[pLdDSkCs4hxhANfyaXnPOqhoJgB4KoLByWoth9z8Sb9JgLGAGq8oQoYIIq3sQAUSoZli7dSlEIJNFUvvKtcHFCas0184HL9oVWvHbLcYyQ41zDT_Q3tZTtH38VA95zIuntqAOyATEnY7WSV361RaBO5NSRYDu8foxWLhE8E5jubyR-LH5_gCXOv7k1S6CAISEl9R_JPo2SVXzddxuioopgnF6hKQuoJcjThA3uaK58ISWazNl0RuEJqTJCUp_jnUJ2SzM70Ik2HsuPx9FPoUIf1ywB7Sldfo33SNXJ4_On5rS8SEE66myjRRM6unWLo0gxVgn1wdiKUWZaZN4_yZVYC13a8yA7qFZF9jP6oWe9HqyKcONn02Ibtg9gFTqdM9_q1s3AQJT5MfNfeiIWDNAgfMwvMVkpOm5_oqLfDgZRtrNQfNfP55gf65ciTwYKxFaBXxpw4IndfmOZNRpKwpsxmuISRxTlMOFQiUwqXReko6CFvYY8Sy94Q0EeT0oMc6ku1iy1YZWBprXUgJOzXC7GCkS-TfeNeuMZUho_VbBgAD1D-t4PkUxG3EdY4kFMSbBjdUdBAjpt5JCFHMAnhJW6TSHpG69gQPCovWa8odH_df-v__ySjt_qhE0NMMC-b63eE7E3YEcpyute649104m0iG51mLAR6T2gnfiWLFEMwkrzvxZ1pxLZgP0ZlWsSzCZVQLHqaBeMw9WV1uIqqZCDubsSPxmORDuGBd2uBHLDEzmW1AV1ysIeGvfNkCT2EOxWK8W_dZ83pESL253PIY_rcW7mc4BQDkpWq4yJhaf4Vy2DU98cHri6LywCbDaNW7CVtRreinJ1gMyufo4B1mWpvpup7EYhPo7OSRjNKCZMiZ30-M2p7N7eg964akpi-j9ZxQuj4HZsuQU78u2s4MeYm4MIb6FfQe7GeanZy_fiJT8QbHX7Rg1S3KukRk1uZXAOb6ZfoHc6p6eKlzqa0jl6M0er1NEQ3HC_FUFOaX4WBG10FwS4Ywn7-GJ_59zU4AwtKuomxTp30Pe6HqptcQa7sUFmVbS0POUvK9h09hbtiAkCeVcoNeSckxBF-_dFNuQSw8quIhE4cgWJybARYWMZc9cwto7CXqpchkirMGKCoCvRCbVONPnNnPFhkCpvff10N9trIK5SVtgKkCesiKof73mXEQyYludfDHcbgN6ID4QZ0CHSVf1Oq5TnWXqB2uB4dX98lYipXqA6EYWgvdQQHnafYMVFIiLaaYKUxHK3Q-5tt4v_CjHVz8x586Nf71b1nxsDEunUXcD5WceREf0NhyUZuTcsBqm9UlH_DH5ft1da1TncQGmHbaT1RFRaFFUJMVtixWwarncTVzB-p9AnXCRoVB-ca3NeAbn_IN93VhsN3IlnfOxSv93xxQN_fhEKjJb6cptThBjiSqgRYrduzl864pqnxMqtZ5sFsTmjlaHXKHZXm6p82W06VhYnp2l8td4sHv1ym9OsgYL6ML86I84EfcrLgOgPN45ICHgjIW5D2jL42djLT9FCsKbfxpZl9bJ08cJScULHgHFUkxBfwEvQt8aF2xh4Xw-MGegj2bXpNQoqkiAB-iDyJLOx8SpR_etu05m_wRejqLTvOplA6zMDeJSP9qGqSi4HLvOdtIRbb_-RXbjQppyxmfLdBGRLKLQayZmmdFKeExmuWKnhiY6UaHS2_wEsfKknXXQWU3S1lmF5FrdAuJWLevSfRWMOlDmIkv_ZryFuNp5pdE6y0puluwnOLu6-jV_6yhEO2eDjhfIz5MoXLO7R4keLDjA0D967G-0exRPxycO8rflAPO3lc6pognhD9AJa_Lh9jmdPNiueEvv3OG4aHGMukGWzuiIk-klkfeB4PAUmKas45uJsEVHC3lQ01AiXVm4CA0AY5w3WONIJfckljaJ9JJ1RsCtXDHW9cHL4Nr7dpOryoZ0SAeOmBCeRIKK832NBbjjqmyu4baz4MJAF5rqJDHqxgPj0KLXIAdwO2GCSd4u7qBTTEeeXGh1MyTQ3HMfY2ga4ewhp7UKkBSAONcqe-InF3MHGFk4JyLQc3c57ED2mzt7ahG5rhLlXAt7lu4UZxal56xGm-aDdE3oGPwiFT_epmIX-s9EaWmthHdpPIx4ptZCQ-xHooohZqVjzxJQdk6LVhM5xUltfpoBQP2iuEfNMHFd_Oes69Y5Us4pme5lZGIAN-4skIxbnbfEPLybIcce0nJ0L1zKdXiLWff_n52EeU461AaWA-pW-g2KHYsq3xUwOLsqLJgGQXCq6mC8JhQxmHdwhvy-aVrO_jNVUWl5jE1tL_Q6A-7eoLc7_5jSJiUz-TlVfFOz1QOTBiToJRBzsj-41xCZhMSKwm8oDgPalOALLsgVPdcNS9H5q-qhNtKZRfZY1k6sMfE4QgBW9MXlBz- -p7UIG8i7kuPV6jTg9VZNPkV_lFpVt_vxj__-_5OzoOFLcsyhCtTnV3FE2KkX2kus5jsOzvJPk43kknUTxg94LLKYKqTisKwUWZZTsdRN4X9imSEhaDS-svZZXB7GLgSdRdu5GteokD6Etn4c8TAm-YymHkVkFKb0pTO19R-e72DLE4C-fuwMrKV1ubL0ExKUSVIrluO2tY8K5ceFa4xAaz677D3c0jTUXQkLjcEvC8hOG8u9srSaK3ucUinAQYYntoMz4GWtWPAOyQF4BbbRnb5cOocgyvel4AOhDjbOoh2wmY-R30fq9Zsj7ZTtvGM24meMY-H_IwovoI9rMmm0p7zQmlM0AZ8m57LGt9YpnU6hsF7_m40]--></g></svg>