<svg xmlns="http://www.w3.org/2000/svg" xmlns:xlink="http://www.w3.org/1999/xlink" contentStyleType="text/css" height="774px" preserveAspectRatio="none" style="width:3837px;height:774px;background:#FFFFFF;" version="1.1" viewBox="0 0 3837 774" width="3837px" zoomAndPan="magnify"><defs/><g><text fill="#000000" font-family="Verdana" font-size="22" font-weight="bold" lengthAdjust="spacing" textLength="791" x="1521.75" y="37.1182">Match Monitor Classification By Sport - Database Flow Diagram</text><ellipse cx="1923.75" cy="62.7373" fill="#FFFFFF" rx="10" ry="10" style="stroke:#000000;stroke-width:1.0;"/><rect fill="#FFFFFF" height="34.584" rx="12.5" ry="12.5" style="stroke:#000000;stroke-width:1.0;" width="157" x="1845.25" y="92.7373"/><text fill="#000000" font-family="Verdana" font-size="12" lengthAdjust="spacing" textLength="137" x="1855.25" y="114.8018">Job Request Received</text><polygon fill="#FFFFFF" points="193.5,147.3213,266.5,147.3213,278.5,159.3213,266.5,171.3213,193.5,171.3213,181.5,159.3213,193.5,147.3213" style="stroke:#000000;stroke-width:1.0;"/><text fill="#000000" font-family="Verdana" font-size="11" lengthAdjust="spacing" textLength="120" x="234" y="182.3804">ClassifyMatchMonitor</text><text fill="#000000" font-family="Verdana" font-size="11" lengthAdjust="spacing" textLength="73" x="193.5" y="163.696">Action Type?</text><path d="M397,204.6899 L397,221.4893 L377,225.4893 L397,229.4893 L397,246.2886 A0,0 0 0 0 397,246.2886 L527,246.2886 A0,0 0 0 0 527,246.2886 L527,214.6899 L517,204.6899 L397,204.6899 A0,0 0 0 0 397,204.6899 " fill="#FFFFFF" style="stroke:#000000;stroke-width:1.0;"/><path d="M517,204.6899 L517,214.6899 L527,214.6899 L517,204.6899 " fill="#FFFFFF" style="stroke:#000000;stroke-width:1.0;"/><text fill="#000000" font-family="Verdana" font-size="13" lengthAdjust="spacing" textLength="80" x="403" y="222.7598">Parameters:</text><text fill="#000000" font-family="Verdana" font-size="13" lengthAdjust="spacing" textLength="109" x="403" y="238.5591">- @ip_BatchSize</text><rect fill="#FFFFFF" height="34.584" rx="12.5" ry="12.5" style="stroke:#000000;stroke-width:1.0;" width="294" x="83" y="208.1973"/><text fill="#000000" font-family="Verdana" font-size="12" lengthAdjust="spacing" textLength="274" x="93" y="230.2617">Create ClassifyMatchMonitorBySportCriteria</text><rect fill="#FFFFFF" height="34.584" rx="12.5" ry="12.5" style="stroke:#000000;stroke-width:1.0;" width="448" x="6" y="281.2886"/><text fill="#000000" font-family="Verdana" font-size="12" lengthAdjust="spacing" textLength="428" x="16" y="303.353">Execute CTS_DC_CustClassification_BySport_MatchMonitor_Classify</text><path d="M309.5,350.8726 L309.5,383.4712 L289.5,387.4712 L309.5,391.4712 L309.5,424.0698 A0,0 0 0 0 309.5,424.0698 L733.5,424.0698 A0,0 0 0 0 733.5,424.0698 L733.5,360.8726 L723.5,350.8726 L309.5,350.8726 A0,0 0 0 0 309.5,350.8726 " fill="#FFFFFF" style="stroke:#000000;stroke-width:1.0;"/><path d="M723.5,350.8726 L723.5,360.8726 L733.5,360.8726 L723.5,350.8726 " fill="#FFFFFF" style="stroke:#000000;stroke-width:1.0;"/><text fill="#000000" font-family="Verdana" font-size="13" lengthAdjust="spacing" textLength="56" x="315.5" y="368.9424">Returns:</text><text fill="#000000" font-family="Verdana" font-size="13" lengthAdjust="spacing" textLength="403" x="315.5" y="384.7417">- CustInfos (CustID, CTSCustID, MatchID, SportGroup, etc.)</text><text fill="#000000" font-family="Verdana" font-size="13" lengthAdjust="spacing" textLength="244" x="315.5" y="400.541">- MMDetailIDList (comma-separated)</text><text fill="#000000" font-family="Verdana" font-size="13" lengthAdjust="spacing" textLength="67" x="315.5" y="416.3403">- MatchID</text><rect fill="#FFFFFF" height="34.584" rx="12.5" ry="12.5" style="stroke:#000000;stroke-width:1.0;" width="119" x="170.5" y="370.1792"/><text fill="#000000" font-family="Verdana" font-size="12" lengthAdjust="spacing" textLength="99" x="180.5" y="392.2437">Process Results</text><rect fill="#FFFFFF" height="34.584" rx="12.5" ry="12.5" style="stroke:#000000;stroke-width:1.0;" width="301" x="79.5" y="459.0698"/><text fill="#000000" font-family="Verdana" font-size="12" lengthAdjust="spacing" textLength="281" x="89.5" y="481.1343">Return ClassifyGBMatchMonitorBySportModel</text><polygon fill="#FFFFFF" points="880,147.3213,997,147.3213,1009,159.3213,997,171.3213,880,171.3213,868,159.3213,880,147.3213" style="stroke:#000000;stroke-width:1.0;"/><text fill="#000000" font-family="Verdana" font-size="11" lengthAdjust="spacing" textLength="117" x="880" y="163.696">GetPALosingBySport</text><path d="M1141.5,191.3213 L1141.5,216.0203 L1121.5,220.0203 L1141.5,224.0203 L1141.5,248.7192 A0,0 0 0 0 1141.5,248.7192 L1485.5,248.7192 A0,0 0 0 0 1485.5,248.7192 L1485.5,201.3213 L1475.5,191.3213 L1141.5,191.3213 A0,0 0 0 0 1141.5,191.3213 " fill="#FFFFFF" style="stroke:#000000;stroke-width:1.0;"/><path d="M1475.5,191.3213 L1475.5,201.3213 L1485.5,201.3213 L1475.5,191.3213 " fill="#FFFFFF" style="stroke:#000000;stroke-width:1.0;"/><text fill="#000000" font-family="Verdana" font-size="13" lengthAdjust="spacing" textLength="80" x="1147.5" y="209.3911">Parameters:</text><text fill="#000000" font-family="Verdana" font-size="13" lengthAdjust="spacing" textLength="193" x="1147.5" y="225.1904">- @ip_CustJson (JSON array)</text><text fill="#000000" font-family="Verdana" font-size="13" lengthAdjust="spacing" textLength="323" x="1147.5" y="240.9897">- @ip_FunctionId (54 = ClassifyGBMatchMonitor)</text><rect fill="#FFFFFF" height="34.584" rx="12.5" ry="12.5" style="stroke:#000000;stroke-width:1.0;" width="366" x="755.5" y="202.7283"/><text fill="#000000" font-family="Verdana" font-size="12" lengthAdjust="spacing" textLength="346" x="765.5" y="224.7927">Create ProblemAccountClassificationBySportGetCriteria</text><rect fill="#FFFFFF" height="34.584" rx="12.5" ry="12.5" style="stroke:#000000;stroke-width:1.0;" width="390" x="743.5" y="283.7192"/><text fill="#000000" font-family="Verdana" font-size="12" lengthAdjust="spacing" textLength="370" x="753.5" y="305.7837">Execute CTS_ProblemAccountsClassification_BySport_Daily</text><path d="M1074,353.3032 L1074,409.6008 L1054,413.6008 L1074,417.6008 L1074,473.8984 A0,0 0 0 0 1074,473.8984 L1220,473.8984 A0,0 0 0 0 1220,473.8984 L1220,363.3032 L1210,353.3032 L1074,353.3032 A0,0 0 0 0 1074,353.3032 " fill="#FFFFFF" style="stroke:#000000;stroke-width:1.0;"/><path d="M1210,353.3032 L1210,363.3032 L1220,363.3032 L1210,353.3032 " fill="#FFFFFF" style="stroke:#000000;stroke-width:1.0;"/><text fill="#000000" font-family="Verdana" font-size="13" lengthAdjust="spacing" textLength="56" x="1080" y="371.373">Returns:</text><text fill="#000000" font-family="Verdana" font-size="13" lengthAdjust="spacing" textLength="73" x="1080" y="387.1724">- BetCount</text><text fill="#000000" font-family="Verdana" font-size="13" lengthAdjust="spacing" textLength="86" x="1080" y="402.9717">- ActiveDays</text><text fill="#000000" font-family="Verdana" font-size="13" lengthAdjust="spacing" textLength="90" x="1080" y="418.771">- TurnoverRM</text><text fill="#000000" font-family="Verdana" font-size="13" lengthAdjust="spacing" textLength="80" x="1080" y="434.5703">- WinlossRM</text><text fill="#000000" font-family="Verdana" font-size="13" lengthAdjust="spacing" textLength="105" x="1080" y="450.3696">- WinlossStatus</text><text fill="#000000" font-family="Verdana" font-size="13" lengthAdjust="spacing" textLength="125" x="1080" y="466.1689">- PerformanceTime</text><rect fill="#FFFFFF" height="34.584" rx="12.5" ry="12.5" style="stroke:#000000;stroke-width:1.0;" width="231" x="823" y="396.3088"/><text fill="#000000" font-family="Verdana" font-size="12" lengthAdjust="spacing" textLength="211" x="833" y="418.3733">Process Losing Performance Data</text><rect fill="#FFFFFF" height="34.584" rx="12.5" ry="12.5" style="stroke:#000000;stroke-width:1.0;" width="302" x="787.5" y="508.8984"/><text fill="#000000" font-family="Verdana" font-size="12" lengthAdjust="spacing" textLength="282" x="797.5" y="530.9629">Return ProblemAccountLosingBySportEntity[]</text><polygon fill="#FFFFFF" points="1563,147.3213,1774,147.3213,1786,159.3213,1774,171.3213,1563,171.3213,1551,159.3213,1563,147.3213" style="stroke:#000000;stroke-width:1.0;"/><text fill="#000000" font-family="Verdana" font-size="11" lengthAdjust="spacing" textLength="211" x="1563" y="163.696">InsertCustomerClassificationBySport</text><path d="M1860,191.3213 L1860,216.0203 L1840,220.0203 L1860,224.0203 L1860,248.7192 A0,0 0 0 0 1860,248.7192 L2172,248.7192 A0,0 0 0 0 2172,248.7192 L2172,201.3213 L2162,191.3213 L1860,191.3213 A0,0 0 0 0 1860,191.3213 " fill="#FFFFFF" style="stroke:#000000;stroke-width:1.0;"/><path d="M2162,191.3213 L2162,201.3213 L2172,201.3213 L2162,191.3213 " fill="#FFFFFF" style="stroke:#000000;stroke-width:1.0;"/><text fill="#000000" font-family="Verdana" font-size="13" lengthAdjust="spacing" textLength="80" x="1866" y="209.3911">Parameters:</text><text fill="#000000" font-family="Verdana" font-size="13" lengthAdjust="spacing" textLength="291" x="1866" y="225.1904">- @ip_InputFlowID = 335 (BySportInsertPA)</text><text fill="#000000" font-family="Verdana" font-size="13" lengthAdjust="spacing" textLength="190" x="1866" y="240.9897">- @ip_CustInfo (JSON array)</text><rect fill="#FFFFFF" height="34.584" rx="12.5" ry="12.5" style="stroke:#000000;stroke-width:1.0;" width="343" x="1497" y="202.7283"/><text fill="#000000" font-family="Verdana" font-size="12" lengthAdjust="spacing" textLength="323" x="1507" y="224.7927">Create InsertCustomerClassificationBySportCriteria</text><path d="M1861.5,283.7192 L1861.5,316.3179 L1841.5,320.3179 L1861.5,324.3179 L1861.5,356.9165 A0,0 0 0 0 1861.5,356.9165 L2191.5,356.9165 A0,0 0 0 0 2191.5,356.9165 L2191.5,293.7192 L2181.5,283.7192 L1861.5,283.7192 A0,0 0 0 0 1861.5,283.7192 " fill="#FFFFFF" style="stroke:#000000;stroke-width:1.0;"/><path d="M2181.5,283.7192 L2181.5,293.7192 L2191.5,293.7192 L2181.5,283.7192 " fill="#FFFFFF" style="stroke:#000000;stroke-width:1.0;"/><text fill="#000000" font-family="Verdana" font-size="13" lengthAdjust="spacing" textLength="100" x="1867.5" y="301.7891">Internal Steps:</text><text fill="#000000" font-family="Verdana" font-size="13" lengthAdjust="spacing" textLength="292" x="1867.5" y="317.5884">1. Insert_GetInfo - Parse and validate JSON</text><text fill="#000000" font-family="Verdana" font-size="13" lengthAdjust="spacing" textLength="309" x="1867.5" y="333.3877">2. Insert_Process - Process classification logic</text><text fill="#000000" font-family="Verdana" font-size="13" lengthAdjust="spacing" textLength="265" x="1867.5" y="349.187">3. Insert_Complete - Complete insertion</text><rect fill="#FFFFFF" height="34.584" rx="12.5" ry="12.5" style="stroke:#000000;stroke-width:1.0;" width="346" x="1495.5" y="303.0259"/><text fill="#000000" font-family="Verdana" font-size="12" lengthAdjust="spacing" textLength="326" x="1505.5" y="325.0903">Execute CTS_DC_CustClassification_BySport_Insert</text><rect fill="#FFFFFF" height="34.584" rx="12.5" ry="12.5" style="stroke:#000000;stroke-width:1.0;" width="180" x="1578.5" y="391.9165"/><text fill="#000000" font-family="Verdana" font-size="12" lengthAdjust="spacing" textLength="160" x="1588.5" y="413.981">Process Insertion Results</text><rect fill="#FFFFFF" height="34.584" rx="12.5" ry="12.5" style="stroke:#000000;stroke-width:1.0;" width="255" x="1541" y="461.5005"/><text fill="#000000" font-family="Verdana" font-size="12" lengthAdjust="spacing" textLength="235" x="1551" y="483.5649">Return InsertPABySportResultModel[]</text><polygon fill="#FFFFFF" points="2333.5,147.3213,2481.5,147.3213,2493.5,159.3213,2481.5,171.3213,2333.5,171.3213,2321.5,159.3213,2333.5,147.3213" style="stroke:#000000;stroke-width:1.0;"/><text fill="#000000" font-family="Verdana" font-size="11" lengthAdjust="spacing" textLength="148" x="2333.5" y="163.696">PushCCBySportToMainDB</text><path d="M2552.5,191.3213 L2552.5,223.9199 L2532.5,227.9199 L2552.5,231.9199 L2552.5,264.5186 A0,0 0 0 0 2552.5,264.5186 L2838.5,264.5186 A0,0 0 0 0 2838.5,264.5186 L2838.5,201.3213 L2828.5,191.3213 L2552.5,191.3213 A0,0 0 0 0 2552.5,191.3213 " fill="#FFFFFF" style="stroke:#000000;stroke-width:1.0;"/><path d="M2828.5,191.3213 L2828.5,201.3213 L2838.5,201.3213 L2828.5,191.3213 " fill="#FFFFFF" style="stroke:#000000;stroke-width:1.0;"/><text fill="#000000" font-family="Verdana" font-size="13" lengthAdjust="spacing" textLength="45" x="2558.5" y="209.3911">Query:</text><text fill="#000000" font-family="Verdana" font-size="13" lengthAdjust="spacing" textLength="265" x="2558.5" y="225.1904">SELECT CustID, SportID, CustomerClass</text><text fill="#000000" font-family="Verdana" font-size="13" lengthAdjust="spacing" textLength="250" x="2558.5" y="240.9897">FROM CustomerClassification_BySport</text><text fill="#000000" font-family="Verdana" font-size="13" lengthAdjust="spacing" textLength="218" x="2558.5" y="256.7891">WHERE (CustID, SportID) IN (...)</text><rect fill="#FFFFFF" height="34.584" rx="12.5" ry="12.5" style="stroke:#000000;stroke-width:1.0;" width="250" x="2282.5" y="210.6279"/><text fill="#000000" font-family="Verdana" font-size="12" lengthAdjust="spacing" textLength="230" x="2292.5" y="232.6924">Get Customer Classification By Sport</text><rect fill="#FFFFFF" height="34.584" rx="12.5" ry="12.5" style="stroke:#000000;stroke-width:1.0;" width="412" x="2201.5" y="299.5186"/><text fill="#000000" font-family="Verdana" font-size="12" lengthAdjust="spacing" textLength="392" x="2211.5" y="321.583">Create CustomerClassificationUpdateBySportToMainDBEntity[]</text><path d="M2623.5,369.1025 L2623.5,409.6008 L2603.5,413.6008 L2623.5,417.6008 L2623.5,458.0991 A0,0 0 0 0 2623.5,458.0991 L2836.5,458.0991 A0,0 0 0 0 2836.5,458.0991 L2836.5,379.1025 L2826.5,369.1025 L2623.5,369.1025 A0,0 0 0 0 2623.5,369.1025 " fill="#FFFFFF" style="stroke:#000000;stroke-width:1.0;"/><path d="M2826.5,369.1025 L2826.5,379.1025 L2836.5,379.1025 L2826.5,369.1025 " fill="#FFFFFF" style="stroke:#000000;stroke-width:1.0;"/><text fill="#000000" font-family="Verdana" font-size="13" lengthAdjust="spacing" textLength="80" x="2629.5" y="387.1724">Parameters:</text><text fill="#000000" font-family="Verdana" font-size="13" lengthAdjust="spacing" textLength="192" x="2629.5" y="402.9717">- @CustClassification (JSON)</text><text fill="#000000" font-family="Verdana" font-size="13" lengthAdjust="spacing" textLength="56" x="2629.5" y="418.771">Returns:</text><text fill="#000000" font-family="Verdana" font-size="13" lengthAdjust="spacing" textLength="76" x="2629.5" y="434.5703">- ErrorCode</text><text fill="#000000" font-family="Verdana" font-size="13" lengthAdjust="spacing" textLength="69" x="2629.5" y="450.3696">- ErrorMsg</text><rect fill="#FFFFFF" height="34.584" rx="12.5" ry="12.5" style="stroke:#000000;stroke-width:1.0;" width="392" x="2211.5" y="396.3088"/><text fill="#000000" font-family="Verdana" font-size="12" lengthAdjust="spacing" textLength="372" x="2221.5" y="418.3733">Execute UpdateCustomerClassificationBySport [MainDB SP]</text><rect fill="#FFFFFF" height="34.584" rx="12.5" ry="12.5" style="stroke:#000000;stroke-width:1.0;" width="169" x="2323" y="493.0991"/><text fill="#000000" font-family="Verdana" font-size="12" lengthAdjust="spacing" textLength="149" x="2333" y="515.1636">Process Update Results</text><rect fill="#FFFFFF" height="34.584" rx="12.5" ry="12.5" style="stroke:#000000;stroke-width:1.0;" width="163" x="2326" y="562.6831"/><text fill="#000000" font-family="Verdana" font-size="12" lengthAdjust="spacing" textLength="143" x="2336" y="584.7476">Return Success/Failure</text><polygon fill="#FFFFFF" points="2991.5,147.3213,3173.5,147.3213,3185.5,159.3213,3173.5,171.3213,2991.5,171.3213,2979.5,159.3213,2991.5,147.3213" style="stroke:#000000;stroke-width:1.0;"/><text fill="#000000" font-family="Verdana" font-size="11" lengthAdjust="spacing" textLength="182" x="2991.5" y="163.696">ClassifyCompletedMatchMonitor</text><text fill="#000000" font-family="Verdana" font-size="11" lengthAdjust="spacing" textLength="77" x="3185.5" y="157.0117">Other Actions</text><path d="M3283.5,191.3213 L3283.5,216.0203 L3263.5,220.0203 L3283.5,224.0203 L3283.5,248.7192 A0,0 0 0 0 3283.5,248.7192 L3629.5,248.7192 A0,0 0 0 0 3629.5,248.7192 L3629.5,201.3213 L3619.5,191.3213 L3283.5,191.3213 A0,0 0 0 0 3283.5,191.3213 " fill="#FFFFFF" style="stroke:#000000;stroke-width:1.0;"/><path d="M3619.5,191.3213 L3619.5,201.3213 L3629.5,201.3213 L3619.5,191.3213 " fill="#FFFFFF" style="stroke:#000000;stroke-width:1.0;"/><text fill="#000000" font-family="Verdana" font-size="13" lengthAdjust="spacing" textLength="80" x="3289.5" y="209.3911">Parameters:</text><text fill="#000000" font-family="Verdana" font-size="13" lengthAdjust="spacing" textLength="99" x="3289.5" y="225.1904">- @ip_MatchID</text><text fill="#000000" font-family="Verdana" font-size="13" lengthAdjust="spacing" textLength="325" x="3289.5" y="240.9897">- @ip_MMDetailsIDList (comma-separated string)</text><rect fill="#FFFFFF" height="34.584" rx="12.5" ry="12.5" style="stroke:#000000;stroke-width:1.0;" width="362" x="2901.5" y="202.7283"/><text fill="#000000" font-family="Verdana" font-size="12" lengthAdjust="spacing" textLength="342" x="2911.5" y="224.7927">Create ClassifyCompletedMatchMonitorBySportCriteria</text><rect fill="#FFFFFF" height="34.584" rx="12.5" ry="12.5" style="stroke:#000000;stroke-width:1.0;" width="468" x="2848.5" y="283.7192"/><text fill="#000000" font-family="Verdana" font-size="12" lengthAdjust="spacing" textLength="448" x="2858.5" y="305.7837">Execute CTS_DC_CustClassification_BySport_MatchMonitor_Completed</text><path d="M3223.5,353.3032 L3223.5,393.8015 L3203.5,397.8015 L3223.5,401.8015 L3223.5,442.2998 A0,0 0 0 0 3223.5,442.2998 L3654.5,442.2998 A0,0 0 0 0 3654.5,442.2998 L3654.5,363.3032 L3644.5,353.3032 L3223.5,353.3032 A0,0 0 0 0 3223.5,353.3032 " fill="#FFFFFF" style="stroke:#000000;stroke-width:1.0;"/><path d="M3644.5,353.3032 L3644.5,363.3032 L3654.5,363.3032 L3644.5,353.3032 " fill="#FFFFFF" style="stroke:#000000;stroke-width:1.0;"/><text fill="#000000" font-family="Verdana" font-size="13" lengthAdjust="spacing" textLength="60" x="3229.5" y="371.373">Updates:</text><text fill="#000000" font-family="Verdana" font-size="13" lengthAdjust="spacing" textLength="410" x="3229.5" y="387.1724">- MatchMonitorDetails.ClassifyStatusBySport = 1 (Completed)</text><text fill="#000000" font-family="Verdana" font-size="13" lengthAdjust="spacing" textLength="188" x="3229.5" y="402.9717">- If MMDetailsIDList is NULL:</text><text fill="#000000" font-family="Verdana" font-size="13" lengthAdjust="spacing" textLength="282" x="3239.5" y="418.771">* MatchMonitor.ClassifyStatusBySport = 1</text><text fill="#000000" font-family="Verdana" font-size="13" lengthAdjust="spacing" textLength="265" x="3239.5" y="434.5703">* SystemParameter.ParameterValue = 0</text><rect fill="#FFFFFF" height="34.584" rx="12.5" ry="12.5" style="stroke:#000000;stroke-width:1.0;" width="242" x="2961.5" y="380.5095"/><text fill="#000000" font-family="Verdana" font-size="12" lengthAdjust="spacing" textLength="222" x="2971.5" y="402.574">Update MatchMonitorDetails Status</text><rect fill="#FFFFFF" height="34.584" rx="12.5" ry="12.5" style="stroke:#000000;stroke-width:1.0;" width="116" x="3024.5" y="477.2998"/><text fill="#000000" font-family="Verdana" font-size="12" lengthAdjust="spacing" textLength="96" x="3034.5" y="499.3643">Return Success</text><rect fill="#FFFFFF" height="34.584" rx="12.5" ry="12.5" style="stroke:#000000;stroke-width:1.0;" width="167" x="3664.5" y="380.0022"/><text fill="#000000" font-family="Verdana" font-size="12" lengthAdjust="spacing" textLength="147" x="3674.5" y="402.0667">Handle Other Requests</text><rect fill="#FFFFFF" height="34.584" rx="12.5" ry="12.5" style="stroke:#000000;stroke-width:1.0;" width="163" x="1842.25" y="637.2671"/><text fill="#000000" font-family="Verdana" font-size="12" lengthAdjust="spacing" textLength="143" x="1852.25" y="659.3315">Map to Entities/Models</text><rect fill="#FFFFFF" height="34.584" rx="12.5" ry="12.5" style="stroke:#000000;stroke-width:1.0;" width="167" x="1840.25" y="691.8511"/><text fill="#000000" font-family="Verdana" font-size="12" lengthAdjust="spacing" textLength="147" x="1850.25" y="713.9155">Return to Service Layer</text><ellipse cx="1923.75" cy="757.4351" fill="none" rx="11" ry="11" style="stroke:#000000;stroke-width:1.0;"/><ellipse cx="1923.75" cy="757.4351" fill="#FFFFFF" rx="6" ry="6" style="stroke:#000000;stroke-width:1.0;"/><line style="stroke:#000000;stroke-width:1.0;" x1="1923.75" x2="1923.75" y1="72.7373" y2="92.7373"/><polygon fill="#000000" points="1919.75,82.7373,1923.75,92.7373,1927.75,82.7373,1923.75,86.7373" style="stroke:#000000;stroke-width:1.0;"/><line style="stroke:#000000;stroke-width:1.0;" x1="230" x2="230" y1="242.7813" y2="281.2886"/><polygon fill="#000000" points="226,271.2886,230,281.2886,234,271.2886,230,275.2886" style="stroke:#000000;stroke-width:1.0;"/><line style="stroke:#000000;stroke-width:1.0;" x1="230" x2="230" y1="315.8726" y2="370.1792"/><polygon fill="#000000" points="226,360.1792,230,370.1792,234,360.1792,230,364.1792" style="stroke:#000000;stroke-width:1.0;"/><line style="stroke:#000000;stroke-width:1.0;" x1="230" x2="230" y1="404.7632" y2="459.0698"/><polygon fill="#000000" points="226,449.0698,230,459.0698,234,449.0698,230,453.0698" style="stroke:#000000;stroke-width:1.0;"/><line style="stroke:#000000;stroke-width:1.0;" x1="938.5" x2="938.5" y1="237.3123" y2="283.7192"/><polygon fill="#000000" points="934.5,273.7192,938.5,283.7192,942.5,273.7192,938.5,277.7192" style="stroke:#000000;stroke-width:1.0;"/><line style="stroke:#000000;stroke-width:1.0;" x1="938.5" x2="938.5" y1="318.3032" y2="396.3088"/><polygon fill="#000000" points="934.5,386.3088,938.5,396.3088,942.5,386.3088,938.5,390.3088" style="stroke:#000000;stroke-width:1.0;"/><line style="stroke:#000000;stroke-width:1.0;" x1="938.5" x2="938.5" y1="430.8928" y2="508.8984"/><polygon fill="#000000" points="934.5,498.8984,938.5,508.8984,942.5,498.8984,938.5,502.8984" style="stroke:#000000;stroke-width:1.0;"/><line style="stroke:#000000;stroke-width:1.0;" x1="1668.5" x2="1668.5" y1="237.3123" y2="303.0259"/><polygon fill="#000000" points="1664.5,293.0259,1668.5,303.0259,1672.5,293.0259,1668.5,297.0259" style="stroke:#000000;stroke-width:1.0;"/><line style="stroke:#000000;stroke-width:1.0;" x1="1668.5" x2="1668.5" y1="337.6099" y2="391.9165"/><polygon fill="#000000" points="1664.5,381.9165,1668.5,391.9165,1672.5,381.9165,1668.5,385.9165" style="stroke:#000000;stroke-width:1.0;"/><line style="stroke:#000000;stroke-width:1.0;" x1="1668.5" x2="1668.5" y1="426.5005" y2="461.5005"/><polygon fill="#000000" points="1664.5,451.5005,1668.5,461.5005,1672.5,451.5005,1668.5,455.5005" style="stroke:#000000;stroke-width:1.0;"/><line style="stroke:#000000;stroke-width:1.0;" x1="2407.5" x2="2407.5" y1="245.2119" y2="299.5186"/><polygon fill="#000000" points="2403.5,289.5186,2407.5,299.5186,2411.5,289.5186,2407.5,293.5186" style="stroke:#000000;stroke-width:1.0;"/><line style="stroke:#000000;stroke-width:1.0;" x1="2407.5" x2="2407.5" y1="334.1025" y2="396.3088"/><polygon fill="#000000" points="2403.5,386.3088,2407.5,396.3088,2411.5,386.3088,2407.5,390.3088" style="stroke:#000000;stroke-width:1.0;"/><line style="stroke:#000000;stroke-width:1.0;" x1="2407.5" x2="2407.5" y1="430.8928" y2="493.0991"/><polygon fill="#000000" points="2403.5,483.0991,2407.5,493.0991,2411.5,483.0991,2407.5,487.0991" style="stroke:#000000;stroke-width:1.0;"/><line style="stroke:#000000;stroke-width:1.0;" x1="2407.5" x2="2407.5" y1="527.6831" y2="562.6831"/><polygon fill="#000000" points="2403.5,552.6831,2407.5,562.6831,2411.5,552.6831,2407.5,556.6831" style="stroke:#000000;stroke-width:1.0;"/><line style="stroke:#000000;stroke-width:1.0;" x1="3082.5" x2="3082.5" y1="237.3123" y2="283.7192"/><polygon fill="#000000" points="3078.5,273.7192,3082.5,283.7192,3086.5,273.7192,3082.5,277.7192" style="stroke:#000000;stroke-width:1.0;"/><line style="stroke:#000000;stroke-width:1.0;" x1="3082.5" x2="3082.5" y1="318.3032" y2="380.5095"/><polygon fill="#000000" points="3078.5,370.5095,3082.5,380.5095,3086.5,370.5095,3082.5,374.5095" style="stroke:#000000;stroke-width:1.0;"/><line style="stroke:#000000;stroke-width:1.0;" x1="3082.5" x2="3082.5" y1="415.0935" y2="477.2998"/><polygon fill="#000000" points="3078.5,467.2998,3082.5,477.2998,3086.5,467.2998,3082.5,471.2998" style="stroke:#000000;stroke-width:1.0;"/><line style="stroke:#000000;stroke-width:1.0;" x1="230" x2="230" y1="171.3213" y2="208.1973"/><polygon fill="#000000" points="226,198.1973,230,208.1973,234,198.1973,230,202.1973" style="stroke:#000000;stroke-width:1.0;"/><line style="stroke:#000000;stroke-width:1.0;" x1="230" x2="230" y1="493.6538" y2="617.2671"/><polygon fill="#000000" points="226,607.2671,230,617.2671,234,607.2671,230,611.2671" style="stroke:#000000;stroke-width:1.0;"/><line style="stroke:#000000;stroke-width:1.0;" x1="938.5" x2="938.5" y1="171.3213" y2="202.7283"/><polygon fill="#000000" points="934.5,192.7283,938.5,202.7283,942.5,192.7283,938.5,196.7283" style="stroke:#000000;stroke-width:1.0;"/><line style="stroke:#000000;stroke-width:1.0;" x1="938.5" x2="938.5" y1="543.4824" y2="617.2671"/><polygon fill="#000000" points="934.5,607.2671,938.5,617.2671,942.5,607.2671,938.5,611.2671" style="stroke:#000000;stroke-width:1.0;"/><line style="stroke:#000000;stroke-width:1.0;" x1="1668.5" x2="1668.5" y1="171.3213" y2="202.7283"/><polygon fill="#000000" points="1664.5,192.7283,1668.5,202.7283,1672.5,192.7283,1668.5,196.7283" style="stroke:#000000;stroke-width:1.0;"/><line style="stroke:#000000;stroke-width:1.0;" x1="1668.5" x2="1668.5" y1="496.0845" y2="617.2671"/><polygon fill="#000000" points="1664.5,607.2671,1668.5,617.2671,1672.5,607.2671,1668.5,611.2671" style="stroke:#000000;stroke-width:1.0;"/><line style="stroke:#000000;stroke-width:1.0;" x1="2407.5" x2="2407.5" y1="171.3213" y2="210.6279"/><polygon fill="#000000" points="2403.5,200.6279,2407.5,210.6279,2411.5,200.6279,2407.5,204.6279" style="stroke:#000000;stroke-width:1.0;"/><line style="stroke:#000000;stroke-width:1.0;" x1="2407.5" x2="2407.5" y1="597.2671" y2="617.2671"/><polygon fill="#000000" points="2403.5,607.2671,2407.5,617.2671,2411.5,607.2671,2407.5,611.2671" style="stroke:#000000;stroke-width:1.0;"/><line style="stroke:#000000;stroke-width:1.0;" x1="3082.5" x2="3082.5" y1="171.3213" y2="202.7283"/><polygon fill="#000000" points="3078.5,192.7283,3082.5,202.7283,3086.5,192.7283,3082.5,196.7283" style="stroke:#000000;stroke-width:1.0;"/><line style="stroke:#000000;stroke-width:1.0;" x1="3082.5" x2="3082.5" y1="511.8838" y2="617.2671"/><polygon fill="#000000" points="3078.5,607.2671,3082.5,617.2671,3086.5,607.2671,3082.5,611.2671" style="stroke:#000000;stroke-width:1.0;"/><line style="stroke:#000000;stroke-width:1.0;" x1="278.5" x2="868" y1="159.3213" y2="159.3213"/><polygon fill="#000000" points="858,155.3213,868,159.3213,858,163.3213,862,159.3213" style="stroke:#000000;stroke-width:1.0;"/><line style="stroke:#000000;stroke-width:1.0;" x1="1009" x2="1551" y1="159.3213" y2="159.3213"/><polygon fill="#000000" points="1541,155.3213,1551,159.3213,1541,163.3213,1545,159.3213" style="stroke:#000000;stroke-width:1.0;"/><line style="stroke:#000000;stroke-width:1.0;" x1="1786" x2="2321.5" y1="159.3213" y2="159.3213"/><polygon fill="#000000" points="2311.5,155.3213,2321.5,159.3213,2311.5,163.3213,2315.5,159.3213" style="stroke:#000000;stroke-width:1.0;"/><line style="stroke:#000000;stroke-width:1.0;" x1="2493.5" x2="2979.5" y1="159.3213" y2="159.3213"/><polygon fill="#000000" points="2969.5,155.3213,2979.5,159.3213,2969.5,163.3213,2973.5,159.3213" style="stroke:#000000;stroke-width:1.0;"/><line style="stroke:#000000;stroke-width:1.0;" x1="1923.75" x2="1923.75" y1="127.3213" y2="132.3213"/><line style="stroke:#000000;stroke-width:1.0;" x1="1923.75" x2="230" y1="132.3213" y2="132.3213"/><line style="stroke:#000000;stroke-width:1.0;" x1="230" x2="230" y1="132.3213" y2="147.3213"/><polygon fill="#000000" points="226,137.3213,230,147.3213,234,137.3213,230,141.3213" style="stroke:#000000;stroke-width:1.0;"/><line style="stroke:#000000;stroke-width:1.0;" x1="3185.5" x2="3748" y1="159.3213" y2="159.3213"/><line style="stroke:#000000;stroke-width:1.0;" x1="3748" x2="3748" y1="159.3213" y2="380.0022"/><polygon fill="#000000" points="3744,370.0022,3748,380.0022,3752,370.0022,3748,374.0022" style="stroke:#000000;stroke-width:1.0;"/><line style="stroke:#000000;stroke-width:1.0;" x1="3748" x2="3748" y1="414.5862" y2="617.2671"/><polygon fill="#000000" points="3744,607.2671,3748,617.2671,3752,607.2671,3748,611.2671" style="stroke:#000000;stroke-width:1.0;"/><line style="stroke:#000000;stroke-width:1.0;" x1="230" x2="3748" y1="617.2671" y2="617.2671"/><line style="stroke:#000000;stroke-width:1.0;" x1="1923.75" x2="1923.75" y1="617.2671" y2="637.2671"/><polygon fill="#000000" points="1919.75,627.2671,1923.75,637.2671,1927.75,627.2671,1923.75,631.2671" style="stroke:#000000;stroke-width:1.0;"/><line style="stroke:#000000;stroke-width:1.0;" x1="1923.75" x2="1923.75" y1="671.8511" y2="691.8511"/><polygon fill="#000000" points="1919.75,681.8511,1923.75,691.8511,1927.75,681.8511,1923.75,685.8511" style="stroke:#000000;stroke-width:1.0;"/><line style="stroke:#000000;stroke-width:1.0;" x1="1923.75" x2="1923.75" y1="726.4351" y2="746.4351"/><polygon fill="#000000" points="1919.75,736.4351,1923.75,746.4351,1927.75,736.4351,1923.75,740.4351" style="stroke:#000000;stroke-width:1.0;"/><!--SRC=[hLPDSzis4BtpLsnlKYTIchgvo9DfBL9sv15jLLIQGoQZWQcLZ1cIO05GBVlhko08cfH9jwchYs5mFz- -tSLt-X5JX3nXFFCqrmb2o7Jy2A78k1OI_8GfnGyyPfgB3EObHBcG6YOGCCqUc4AuJiGV471sb2prFAMPrDxiLZp01dylK6dw6oC_uVxIy_W1HbTnPMfRvlZp62Y034Qrcx9oNliUUq2_cI-HQOG-YNbP1UDBhb5oTbafP8Aa9Jy-wkfVyrip2Wr9HisQkmdymlFTt5YB-5zOtMEshzIjuyMV61V6ypRQ1VxEBvJkeh6h_U_QCUrSe3QQsLgA69KY45IHQ3KOumPr8RDEWCRZCZi8HVYOO_36nEAEbLDpg6AuaQB8tm3gU3fkcGZ303NZoJ9OSQh4A1PfoYOASq94uxuZQktr0653QofmC- -fGIZscDZaF4mKcaBVe5vVhOJYsR6MikNkr9NmUKWmlOfZKMHd0DTQPESL9JPutIeYtEWskhy39YKhnsSorqLMaNAvXz7xd-33GAxZVs19DnSrm9Q0wd7E3eiIh54UX4nP5cFLNz_2bZcXPDoshaoddJ1WfMfTRabHd51kmjRbPvubGgc-kqWpNRGDj8BSyXI72TE5eqE4HKR3flpozOmnoqmXzJDLJAGeUydGGw5_eVKA_YoplD1cnYq38iR5nNiOrKQjt_NLk8Tnfc-VC-w_3XZhQJ3uPKQ1Poo1I6FUIk3TjCPcHorKHJGnYTBCPXJ8YILyR_0pKJOwFpOwZfiJSAUukmmISUHnetZHAFeYpHF2qemmT-JL9zBgmS6PNpgPxh1qT79mrw1OcMhkFEFHkb2FlbyBRaL8sosOjvb3U80ZpD2E6uJxrm9b-OHoj5Wj_2sukMofOMPrcv2DzFNcFeH-hhfoDxAVFousYwVXNriUm_8EHjFfj8zJRblsElYKctgVmT9jnOQKLlR5fe8lrW94ww_VsbZFoMwxPVpIY5j8AQHF5J-_2zNn1LxPLFf95HMnaNbxJKEva7Z68xS678ttdMtmV1AzAF_wKTHUqQtRUiUhWIKFIakQlEF_yOdZqgknh05kozGXWTqUWxbQpKwYFLQc3bThpT7l0xoZ4hbOsbDuUO1pLBY2kq-hrPCdWEyxleQTT5IYKcbCcnfDczDlB2cGn7yONeWrsLeaWz4zaKY2VHEh-idxaSOplSJjf_eLJLfaanyyRnQo7BI0gd4vghVL3AJlpWrzYr2UE3qYLgn4UKcFSf5xVmC0]--></g></svg>