<svg xmlns="http://www.w3.org/2000/svg" xmlns:xlink="http://www.w3.org/1999/xlink" contentStyleType="text/css" height="1460px" preserveAspectRatio="none" style="width:985px;height:1460px;background:#FFFFFF;" version="1.1" viewBox="0 0 985 1460" width="985px" zoomAndPan="magnify"><defs/><g><text fill="#000000" font-family="Verdana" font-size="22" font-weight="bold" lengthAdjust="spacing" textLength="810" x="86" y="37.1182">Match Monitor Classification By Sport - SP Classify Detailed Flow</text><ellipse cx="326" cy="62.7373" fill="#FFFFFF" rx="10" ry="10" style="stroke:#000000;stroke-width:1.0;"/><path d="M543,82.7373 L543,123.2356 L523,127.2356 L543,131.2356 L543,171.7339 A0,0 0 0 0 543,171.7339 L978,171.7339 A0,0 0 0 0 978,171.7339 L978,92.7373 L968,82.7373 L543,82.7373 A0,0 0 0 0 543,82.7373 " fill="#FFFFFF" style="stroke:#000000;stroke-width:1.0;"/><path d="M968,82.7373 L968,92.7373 L978,92.7373 L968,82.7373 " fill="#FFFFFF" style="stroke:#000000;stroke-width:1.0;"/><text fill="#000000" font-family="Verdana" font-size="13" lengthAdjust="spacing" textLength="245" x="549" y="100.8071">Database: CTS_DataCenter (MySQL)</text><text fill="#000000" font-family="Verdana" font-size="13" lengthAdjust="spacing" textLength="414" x="549" y="116.6064">Tables: SystemParameter, MatchMonitor, MatchMonitorDetails</text><text fill="#000000" font-family="Verdana" font-size="13" lengthAdjust="spacing" textLength="276" x="549" y="132.4058">CTSCustomer, CustomerCategorySettings</text><text fill="#000000" font-family="Verdana" font-size="13" lengthAdjust="spacing" textLength="235" x="549" y="148.2051">CTSCustomerClassification_BySport</text><text fill="#000000" font-family="Verdana" font-size="13" lengthAdjust="spacing" textLength="175" x="549" y="164.0044">Parameter: @ip_BatchSize</text><rect fill="#FFFFFF" height="34.584" rx="12.5" ry="12.5" style="stroke:#000000;stroke-width:1.0;" width="394" x="129" y="109.9436"/><text fill="#000000" font-family="Verdana" font-size="12" lengthAdjust="spacing" textLength="374" x="139" y="132.0081">CTS_DC_CustClassification_BySport_MatchMonitor_Classify</text><path d="M468.5,188.2266 L468.5,205.0259 L448.5,209.0259 L468.5,213.0259 L468.5,229.8252 A0,0 0 0 0 468.5,229.8252 L664.5,229.8252 A0,0 0 0 0 664.5,229.8252 L664.5,198.2266 L654.5,188.2266 L468.5,188.2266 A0,0 0 0 0 468.5,188.2266 " fill="#FFFFFF" style="stroke:#000000;stroke-width:1.0;"/><path d="M654.5,188.2266 L654.5,198.2266 L664.5,198.2266 L654.5,188.2266 " fill="#FFFFFF" style="stroke:#000000;stroke-width:1.0;"/><text fill="#000000" font-family="Verdana" font-size="13" lengthAdjust="spacing" textLength="158" x="474.5" y="206.2964">SELECT ParameterValue</text><text fill="#000000" font-family="Verdana" font-size="13" lengthAdjust="spacing" textLength="175" x="474.5" y="222.0957">WHERE ParameterID = 199</text><rect fill="#FFFFFF" height="34.584" rx="12.5" ry="12.5" style="stroke:#000000;stroke-width:1.0;" width="245" x="203.5" y="191.7339"/><text fill="#000000" font-family="Verdana" font-size="12" lengthAdjust="spacing" textLength="225" x="213.5" y="213.7983">Get MatchID from SystemParameter</text><polygon fill="#FFFFFF" points="287.5,249.8252,364.5,249.8252,376.5,261.8252,364.5,273.8252,287.5,273.8252,275.5,261.8252,287.5,249.8252" style="stroke:#000000;stroke-width:1.0;"/><text fill="#000000" font-family="Verdana" font-size="11" lengthAdjust="spacing" textLength="77" x="287.5" y="266.2">MatchID = 0?</text><text fill="#000000" font-family="Verdana" font-size="11" lengthAdjust="spacing" textLength="20" x="255.5" y="259.5156">yes</text><text fill="#000000" font-family="Verdana" font-size="11" lengthAdjust="spacing" textLength="14" x="376.5" y="259.5156">no</text><path d="M218,283.8252 L218,332.2231 L198,336.2231 L218,340.2231 L218,388.6211 A0,0 0 0 0 218,388.6211 L454,388.6211 A0,0 0 0 0 454,388.6211 L454,293.8252 L444,283.8252 L218,283.8252 A0,0 0 0 0 218,283.8252 " fill="#FFFFFF" style="stroke:#000000;stroke-width:1.0;"/><path d="M444,283.8252 L444,293.8252 L454,293.8252 L444,283.8252 " fill="#FFFFFF" style="stroke:#000000;stroke-width:1.0;"/><text fill="#000000" font-family="Verdana" font-size="13" lengthAdjust="spacing" textLength="110" x="224" y="301.895">SELECT MatchID</text><text fill="#000000" font-family="Verdana" font-size="13" lengthAdjust="spacing" textLength="147" x="224" y="317.6943">WHERE SportType = 1</text><text fill="#000000" font-family="Verdana" font-size="13" lengthAdjust="spacing" textLength="166" x="234" y="333.4937">AND LeagueGroupID = 42</text><text fill="#000000" font-family="Verdana" font-size="13" lengthAdjust="spacing" textLength="205" x="234" y="349.293">AND ClassifyStatusBySport = 2</text><text fill="#000000" font-family="Verdana" font-size="13" lengthAdjust="spacing" textLength="179" x="224" y="365.0923">ORDER BY KickOffTime ASC</text><text fill="#000000" font-family="Verdana" font-size="13" lengthAdjust="spacing" textLength="50" x="224" y="380.8916">LIMIT 1</text><rect fill="#FFFFFF" height="34.584" rx="12.5" ry="12.5" style="stroke:#000000;stroke-width:1.0;" width="192" x="6" y="318.9312"/><text fill="#000000" font-family="Verdana" font-size="12" lengthAdjust="spacing" textLength="172" x="16" y="340.9956">Get First Unclassified Match</text><path d="M213,398.6211 L213,423.3201 L193,427.3201 L213,431.3201 L213,456.019 A0,0 0 0 0 213,456.019 L442,456.019 A0,0 0 0 0 442,456.019 L442,408.6211 L432,398.6211 L213,398.6211 A0,0 0 0 0 213,398.6211 " fill="#FFFFFF" style="stroke:#000000;stroke-width:1.0;"/><path d="M432,398.6211 L432,408.6211 L442,408.6211 L432,398.6211 " fill="#FFFFFF" style="stroke:#000000;stroke-width:1.0;"/><text fill="#000000" font-family="Verdana" font-size="13" lengthAdjust="spacing" textLength="173" x="219" y="416.6909">UPDATE SystemParameter</text><text fill="#000000" font-family="Verdana" font-size="13" lengthAdjust="spacing" textLength="208" x="219" y="432.4902">SET ParameterValue = MatchID</text><text fill="#000000" font-family="Verdana" font-size="13" lengthAdjust="spacing" textLength="175" x="219" y="448.2896">WHERE ParameterID = 199</text><rect fill="#FFFFFF" height="34.584" rx="12.5" ry="12.5" style="stroke:#000000;stroke-width:1.0;" width="182" x="11" y="410.0281"/><text fill="#000000" font-family="Verdana" font-size="12" lengthAdjust="spacing" textLength="162" x="21" y="432.0925">Update SystemParameter</text><rect fill="#FFFFFF" height="34.584" rx="12.5" ry="12.5" style="stroke:#000000;stroke-width:1.0;" width="152" x="474" y="283.8252"/><text fill="#000000" font-family="Verdana" font-size="12" lengthAdjust="spacing" textLength="132" x="484" y="305.8896">Use Existing MatchID</text><polygon fill="#FFFFFF" points="326,462.019,338,474.019,326,486.019,314,474.019,326,462.019" style="stroke:#000000;stroke-width:1.0;"/><path d="M426.5,496.019 L426.5,536.5173 L406.5,540.5173 L426.5,544.5173 L426.5,585.0156 A0,0 0 0 0 426.5,585.0156 L768.5,585.0156 A0,0 0 0 0 768.5,585.0156 L768.5,506.019 L758.5,496.019 L426.5,496.019 A0,0 0 0 0 426.5,496.019 " fill="#FFFFFF" style="stroke:#000000;stroke-width:1.0;"/><path d="M758.5,496.019 L758.5,506.019 L768.5,506.019 L758.5,496.019 " fill="#FFFFFF" style="stroke:#000000;stroke-width:1.0;"/><text fill="#000000" font-family="Verdana" font-size="13" lengthAdjust="spacing" textLength="90" x="432.5" y="514.0889">SELECT CASE</text><text fill="#000000" font-family="Verdana" font-size="13" lengthAdjust="spacing" textLength="311" x="442.5" y="529.8882">WHEN SportType = 1 AND LeagueGroupID = 42</text><text fill="#000000" font-family="Verdana" font-size="13" lengthAdjust="spacing" textLength="145" x="442.5" y="545.6875">THEN 145 ELSE 0 END</text><text fill="#000000" font-family="Verdana" font-size="13" lengthAdjust="spacing" textLength="193" x="432.5" y="561.4868">WHERE MatchID = @MatchID</text><text fill="#000000" font-family="Verdana" font-size="13" lengthAdjust="spacing" textLength="205" x="442.5" y="577.2861">AND ClassifyStatusBySport = 2</text><rect fill="#FFFFFF" height="34.584" rx="12.5" ry="12.5" style="stroke:#000000;stroke-width:1.0;" width="161" x="245.5" y="523.2253"/><text fill="#000000" font-family="Verdana" font-size="12" lengthAdjust="spacing" textLength="141" x="255.5" y="545.2898">Determine SportGroup</text><path d="M419,595.0156 L419,682.9119 L399,686.9119 L419,690.9119 L419,778.8081 A0,0 0 0 0 419,778.8081 L654,778.8081 A0,0 0 0 0 654,778.8081 L654,605.0156 L644,595.0156 L419,595.0156 A0,0 0 0 0 419,595.0156 " fill="#FFFFFF" style="stroke:#000000;stroke-width:1.0;"/><path d="M644,595.0156 L644,605.0156 L654,605.0156 L644,595.0156 " fill="#FFFFFF" style="stroke:#000000;stroke-width:1.0;"/><text fill="#000000" font-family="Verdana" font-size="13" lengthAdjust="spacing" textLength="214" x="425" y="613.0854">Temp_MatchMonitorDetailsCust:</text><text fill="#000000" font-family="Verdana" font-size="13" lengthAdjust="spacing" textLength="146" x="425" y="628.8848">- CustID, MMDetailsID</text><text fill="#000000" font-family="Verdana" font-size="13" lengthAdjust="spacing" textLength="196" x="425" y="644.6841">- Reason, MatchID, NoOfCust</text><text fill="#000000" font-family="Verdana" font-size="13" lengthAdjust="spacing" textLength="5" x="425" y="660.4834">&#160;</text><text fill="#000000" font-family="Verdana" font-size="13" lengthAdjust="spacing" textLength="80" x="425" y="676.2827">Temp_Cust:</text><text fill="#000000" font-family="Verdana" font-size="13" lengthAdjust="spacing" textLength="211" x="425" y="692.082">- CustID, MMDetailsID, MatchID</text><text fill="#000000" font-family="Verdana" font-size="13" lengthAdjust="spacing" textLength="134" x="425" y="707.8813">- CTSCustID, RoleID</text><text fill="#000000" font-family="Verdana" font-size="13" lengthAdjust="spacing" textLength="174" x="425" y="723.6807">- SubscriberID, IsLicensee</text><text fill="#000000" font-family="Verdana" font-size="13" lengthAdjust="spacing" textLength="5" x="425" y="739.48">&#160;</text><text fill="#000000" font-family="Verdana" font-size="13" lengthAdjust="spacing" textLength="191" x="425" y="755.2793">Temp_ExcludePACategoryID:</text><text fill="#000000" font-family="Verdana" font-size="13" lengthAdjust="spacing" textLength="86" x="425" y="771.0786">- CategoryID</text><rect fill="#FFFFFF" height="34.584" rx="12.5" ry="12.5" style="stroke:#000000;stroke-width:1.0;" width="146" x="253" y="669.6199"/><text fill="#000000" font-family="Verdana" font-size="12" lengthAdjust="spacing" textLength="126" x="263" y="691.6843">Create Temp Tables</text><path d="M443.5,788.8081 L443.5,813.5071 L423.5,817.5071 L443.5,821.5071 L443.5,846.2061 A0,0 0 0 0 443.5,846.2061 L740.5,846.2061 A0,0 0 0 0 740.5,846.2061 L740.5,798.8081 L730.5,788.8081 L443.5,788.8081 A0,0 0 0 0 443.5,788.8081 " fill="#FFFFFF" style="stroke:#000000;stroke-width:1.0;"/><path d="M730.5,788.8081 L730.5,798.8081 L740.5,798.8081 L730.5,788.8081 " fill="#FFFFFF" style="stroke:#000000;stroke-width:1.0;"/><text fill="#000000" font-family="Verdana" font-size="13" lengthAdjust="spacing" textLength="129" x="449.5" y="806.8779">SELECT CategoryID</text><text fill="#000000" font-family="Verdana" font-size="13" lengthAdjust="spacing" textLength="240" x="449.5" y="822.6772">WHERE ExcludedFromClassifyMM = 1</text><text fill="#000000" font-family="Verdana" font-size="13" lengthAdjust="spacing" textLength="276" x="449.5" y="838.4766">INSERT INTO Temp_ExcludePACategoryID</text><rect fill="#FFFFFF" height="34.584" rx="12.5" ry="12.5" style="stroke:#000000;stroke-width:1.0;" width="195" x="228.5" y="800.2151"/><text fill="#000000" font-family="Verdana" font-size="12" lengthAdjust="spacing" textLength="175" x="238.5" y="822.2795">Get Excluded PA Categories</text><path d="M468.5,856.2061 L468.5,896.7043 L448.5,900.7043 L468.5,904.7043 L468.5,945.2026 A0,0 0 0 0 468.5,945.2026 L875.5,945.2026 A0,0 0 0 0 875.5,945.2026 L875.5,866.2061 L865.5,856.2061 L468.5,856.2061 A0,0 0 0 0 468.5,856.2061 " fill="#FFFFFF" style="stroke:#000000;stroke-width:1.0;"/><path d="M865.5,856.2061 L865.5,866.2061 L875.5,866.2061 L865.5,856.2061 " fill="#FFFFFF" style="stroke:#000000;stroke-width:1.0;"/><text fill="#000000" font-family="Verdana" font-size="13" lengthAdjust="spacing" textLength="386" x="474.5" y="874.2759">SELECT mmd.ID, mmd.HighStakeLicCustList, mmd.MatchID</text><text fill="#000000" font-family="Verdana" font-size="13" lengthAdjust="spacing" textLength="228" x="474.5" y="890.0752">WHERE mmd.MatchID = @MatchID</text><text fill="#000000" font-family="Verdana" font-size="13" lengthAdjust="spacing" textLength="141" x="484.5" y="905.8745">AND mmd.Reason = 0</text><text fill="#000000" font-family="Verdana" font-size="13" lengthAdjust="spacing" textLength="240" x="484.5" y="921.6738">AND mmd.ClassifyStatusBySport = 0</text><text fill="#000000" font-family="Verdana" font-size="13" lengthAdjust="spacing" textLength="139" x="474.5" y="937.4731">LIMIT @ip_BatchSize</text><rect fill="#FFFFFF" height="34.584" rx="12.5" ry="12.5" style="stroke:#000000;stroke-width:1.0;" width="245" x="203.5" y="883.4124"/><text fill="#000000" font-family="Verdana" font-size="12" lengthAdjust="spacing" textLength="225" x="213.5" y="905.4768">Get MatchMonitorDetails Customers</text><path d="M464.5,961.6953 L464.5,978.4946 L444.5,982.4946 L464.5,986.4946 L464.5,1003.2939 A0,0 0 0 0 464.5,1003.2939 L784.5,1003.2939 A0,0 0 0 0 784.5,1003.2939 L784.5,971.6953 L774.5,961.6953 L464.5,961.6953 A0,0 0 0 0 464.5,961.6953 " fill="#FFFFFF" style="stroke:#000000;stroke-width:1.0;"/><path d="M774.5,961.6953 L774.5,971.6953 L784.5,971.6953 L774.5,961.6953 " fill="#FFFFFF" style="stroke:#000000;stroke-width:1.0;"/><text fill="#000000" font-family="Verdana" font-size="13" lengthAdjust="spacing" textLength="299" x="470.5" y="979.7651">INSERT INTO Temp_MatchMonitorDetailsCust</text><text fill="#000000" font-family="Verdana" font-size="13" lengthAdjust="spacing" textLength="216" x="470.5" y="995.5645">Parse comma-separated CustIDs</text><rect fill="#FFFFFF" height="34.584" rx="12.5" ry="12.5" style="stroke:#000000;stroke-width:1.0;" width="237" x="207.5" y="965.2026"/><text fill="#000000" font-family="Verdana" font-size="12" lengthAdjust="spacing" textLength="217" x="217.5" y="987.2671">Parse HighStakeLicCustList (JSON)</text><path d="M426,1013.2939 L426,1045.8926 L406,1049.8926 L426,1053.8926 L426,1086.4912 A0,0 0 0 0 426,1086.4912 L807,1086.4912 A0,0 0 0 0 807,1086.4912 L807,1023.2939 L797,1013.2939 L426,1013.2939 A0,0 0 0 0 426,1013.2939 " fill="#FFFFFF" style="stroke:#000000;stroke-width:1.0;"/><path d="M797,1013.2939 L797,1023.2939 L807,1023.2939 L797,1013.2939 " fill="#FFFFFF" style="stroke:#000000;stroke-width:1.0;"/><text fill="#000000" font-family="Verdana" font-size="13" lengthAdjust="spacing" textLength="161" x="432" y="1031.3638">LEFT JOIN CTSCustomer</text><text fill="#000000" font-family="Verdana" font-size="13" lengthAdjust="spacing" textLength="225" x="432" y="1047.1631">ON CustID = CTSCustomer.CustID</text><text fill="#000000" font-family="Verdana" font-size="13" lengthAdjust="spacing" textLength="165" x="432" y="1062.9624">INSERT INTO Temp_Cust</text><text fill="#000000" font-family="Verdana" font-size="13" lengthAdjust="spacing" textLength="360" x="432" y="1078.7617">(CustID, CTSCustID, RoleID, SubscriberID, IsLicensee)</text><rect fill="#FFFFFF" height="34.584" rx="12.5" ry="12.5" style="stroke:#000000;stroke-width:1.0;" width="160" x="246" y="1032.6006"/><text fill="#000000" font-family="Verdana" font-size="12" lengthAdjust="spacing" textLength="140" x="256" y="1054.665">Get CTSCustomer Info</text><path d="M468,1096.4912 L468,1136.9895 L448,1140.9895 L468,1144.9895 L468,1185.4878 A0,0 0 0 0 468,1185.4878 L825,1185.4878 A0,0 0 0 0 825,1185.4878 L825,1106.4912 L815,1096.4912 L468,1096.4912 A0,0 0 0 0 468,1096.4912 " fill="#FFFFFF" style="stroke:#000000;stroke-width:1.0;"/><path d="M815,1096.4912 L815,1106.4912 L825,1106.4912 L815,1096.4912 " fill="#FFFFFF" style="stroke:#000000;stroke-width:1.0;"/><text fill="#000000" font-family="Verdana" font-size="13" lengthAdjust="spacing" textLength="82" x="474" y="1114.561">NOT EXISTS</text><text fill="#000000" font-family="Verdana" font-size="13" lengthAdjust="spacing" textLength="186" x="474" y="1130.3604">(SELECT 1 FROM CCBySport</text><text fill="#000000" font-family="Verdana" font-size="13" lengthAdjust="spacing" textLength="237" x="479" y="1146.1597">WHERE CustID = Temp_Cust.CustID</text><text fill="#000000" font-family="Verdana" font-size="13" lengthAdjust="spacing" textLength="186" x="489" y="1161.959">AND sportID = @SportGroup</text><text fill="#000000" font-family="Verdana" font-size="13" lengthAdjust="spacing" textLength="321" x="489" y="1177.7583">AND CategoryID IN Temp_ExcludePACategoryID)</text><rect fill="#FFFFFF" height="34.584" rx="12.5" ry="12.5" style="stroke:#000000;stroke-width:1.0;" width="244" x="204" y="1123.6975"/><text fill="#000000" font-family="Verdana" font-size="12" lengthAdjust="spacing" textLength="224" x="214" y="1145.762">Filter Out Existing PA Classifications</text><path d="M402,1195.4878 L402,1243.8857 L382,1247.8857 L402,1251.8857 L402,1300.2837 A0,0 0 0 0 402,1300.2837 L649,1300.2837 A0,0 0 0 0 649,1300.2837 L649,1205.4878 L639,1195.4878 L402,1195.4878 A0,0 0 0 0 402,1195.4878 " fill="#FFFFFF" style="stroke:#000000;stroke-width:1.0;"/><path d="M639,1195.4878 L639,1205.4878 L649,1205.4878 L639,1195.4878 " fill="#FFFFFF" style="stroke:#000000;stroke-width:1.0;"/><text fill="#000000" font-family="Verdana" font-size="13" lengthAdjust="spacing" textLength="119" x="408" y="1213.5576">SELECT DISTINCT</text><text fill="#000000" font-family="Verdana" font-size="13" lengthAdjust="spacing" textLength="190" x="408" y="1229.3569">CustID, MatchID, CTSCustID</text><text fill="#000000" font-family="Verdana" font-size="13" lengthAdjust="spacing" textLength="213" x="408" y="1245.1563">RoleID, SubscriberID, IsLicensee</text><text fill="#000000" font-family="Verdana" font-size="13" lengthAdjust="spacing" textLength="202" x="408" y="1260.9556">CategoryID (SystemDetectGB)</text><text fill="#000000" font-family="Verdana" font-size="13" lengthAdjust="spacing" textLength="226" x="408" y="1276.7549">CategoryGroup (SystemDetectGB)</text><text fill="#000000" font-family="Verdana" font-size="13" lengthAdjust="spacing" textLength="74" x="408" y="1292.5542">SportGroup</text><rect fill="#FFFFFF" height="34.584" rx="12.5" ry="12.5" style="stroke:#000000;stroke-width:1.0;" width="112" x="270" y="1230.5938"/><text fill="#000000" font-family="Verdana" font-size="12" lengthAdjust="spacing" textLength="92" x="280" y="1252.6582">Return Results</text><path d="M428.5,1316.7764 L428.5,1333.5757 L408.5,1337.5757 L428.5,1341.5757 L428.5,1358.375 A0,0 0 0 0 428.5,1358.375 L772.5,1358.375 A0,0 0 0 0 772.5,1358.375 L772.5,1326.7764 L762.5,1316.7764 L428.5,1316.7764 A0,0 0 0 0 428.5,1316.7764 " fill="#FFFFFF" style="stroke:#000000;stroke-width:1.0;"/><path d="M762.5,1316.7764 L762.5,1326.7764 L772.5,1326.7764 L762.5,1316.7764 " fill="#FFFFFF" style="stroke:#000000;stroke-width:1.0;"/><text fill="#000000" font-family="Verdana" font-size="13" lengthAdjust="spacing" textLength="323" x="434.5" y="1334.8462">SELECT GROUP_CONCAT(DISTINCT MMDetailsID)</text><text fill="#000000" font-family="Verdana" font-size="13" lengthAdjust="spacing" textLength="126" x="434.5" y="1350.6455">AS MMDetailsIDList</text><rect fill="#FFFFFF" height="34.584" rx="12.5" ry="12.5" style="stroke:#000000;stroke-width:1.0;" width="165" x="243.5" y="1320.2837"/><text fill="#000000" font-family="Verdana" font-size="12" lengthAdjust="spacing" textLength="145" x="253.5" y="1342.3481">Return MMDetailsIDList</text><path d="M404.5,1382.7673 L404.5,1391.667 L384.5,1395.667 L404.5,1399.667 L404.5,1408.5667 A0,0 0 0 0 404.5,1408.5667 L631.5,1408.5667 A0,0 0 0 0 631.5,1408.5667 L631.5,1392.7673 L621.5,1382.7673 L404.5,1382.7673 A0,0 0 0 0 404.5,1382.7673 " fill="#FFFFFF" style="stroke:#000000;stroke-width:1.0;"/><path d="M621.5,1382.7673 L621.5,1392.7673 L631.5,1392.7673 L621.5,1382.7673 " fill="#FFFFFF" style="stroke:#000000;stroke-width:1.0;"/><text fill="#000000" font-family="Verdana" font-size="13" lengthAdjust="spacing" textLength="206" x="410.5" y="1400.8372">SELECT @MatchID AS MatchID</text><rect fill="#FFFFFF" height="34.584" rx="12.5" ry="12.5" style="stroke:#000000;stroke-width:1.0;" width="117" x="267.5" y="1378.375"/><text fill="#000000" font-family="Verdana" font-size="12" lengthAdjust="spacing" textLength="97" x="277.5" y="1400.4395">Return MatchID</text><ellipse cx="326" cy="1443.959" fill="none" rx="11" ry="11" style="stroke:#000000;stroke-width:1.0;"/><ellipse cx="326" cy="1443.959" fill="#FFFFFF" rx="6" ry="6" style="stroke:#000000;stroke-width:1.0;"/><line style="stroke:#000000;stroke-width:1.0;" x1="326" x2="326" y1="72.7373" y2="109.9436"/><polygon fill="#000000" points="322,99.9436,326,109.9436,330,99.9436,326,103.9436" style="stroke:#000000;stroke-width:1.0;"/><line style="stroke:#000000;stroke-width:1.0;" x1="326" x2="326" y1="144.5276" y2="191.7339"/><polygon fill="#000000" points="322,181.7339,326,191.7339,330,181.7339,326,185.7339" style="stroke:#000000;stroke-width:1.0;"/><line style="stroke:#000000;stroke-width:1.0;" x1="102" x2="102" y1="353.5151" y2="410.0281"/><polygon fill="#000000" points="98,400.0281,102,410.0281,106,400.0281,102,404.0281" style="stroke:#000000;stroke-width:1.0;"/><line style="stroke:#000000;stroke-width:1.0;" x1="275.5" x2="102" y1="261.8252" y2="261.8252"/><line style="stroke:#000000;stroke-width:1.0;" x1="102" x2="102" y1="261.8252" y2="318.9312"/><polygon fill="#000000" points="98,308.9312,102,318.9312,106,308.9312,102,312.9312" style="stroke:#000000;stroke-width:1.0;"/><line style="stroke:#000000;stroke-width:1.0;" x1="376.5" x2="550" y1="261.8252" y2="261.8252"/><line style="stroke:#000000;stroke-width:1.0;" x1="550" x2="550" y1="261.8252" y2="283.8252"/><polygon fill="#000000" points="546,273.8252,550,283.8252,554,273.8252,550,277.8252" style="stroke:#000000;stroke-width:1.0;"/><line style="stroke:#000000;stroke-width:1.0;" x1="102" x2="102" y1="444.6121" y2="474.019"/><line style="stroke:#000000;stroke-width:1.0;" x1="102" x2="314" y1="474.019" y2="474.019"/><polygon fill="#000000" points="304,470.019,314,474.019,304,478.019,308,474.019" style="stroke:#000000;stroke-width:1.0;"/><line style="stroke:#000000;stroke-width:1.0;" x1="550" x2="550" y1="318.4092" y2="474.019"/><line style="stroke:#000000;stroke-width:1.0;" x1="550" x2="338" y1="474.019" y2="474.019"/><polygon fill="#000000" points="348,470.019,338,474.019,348,478.019,344,474.019" style="stroke:#000000;stroke-width:1.0;"/><line style="stroke:#000000;stroke-width:1.0;" x1="326" x2="326" y1="226.3179" y2="249.8252"/><polygon fill="#000000" points="322,239.8252,326,249.8252,330,239.8252,326,243.8252" style="stroke:#000000;stroke-width:1.0;"/><line style="stroke:#000000;stroke-width:1.0;" x1="326" x2="326" y1="486.019" y2="523.2253"/><polygon fill="#000000" points="322,513.2253,326,523.2253,330,513.2253,326,517.2253" style="stroke:#000000;stroke-width:1.0;"/><line style="stroke:#000000;stroke-width:1.0;" x1="326" x2="326" y1="557.8093" y2="669.6199"/><polygon fill="#000000" points="322,659.6199,326,669.6199,330,659.6199,326,663.6199" style="stroke:#000000;stroke-width:1.0;"/><line style="stroke:#000000;stroke-width:1.0;" x1="326" x2="326" y1="704.2039" y2="800.2151"/><polygon fill="#000000" points="322,790.2151,326,800.2151,330,790.2151,326,794.2151" style="stroke:#000000;stroke-width:1.0;"/><line style="stroke:#000000;stroke-width:1.0;" x1="326" x2="326" y1="834.7991" y2="883.4124"/><polygon fill="#000000" points="322,873.4124,326,883.4124,330,873.4124,326,877.4124" style="stroke:#000000;stroke-width:1.0;"/><line style="stroke:#000000;stroke-width:1.0;" x1="326" x2="326" y1="917.9963" y2="965.2026"/><polygon fill="#000000" points="322,955.2026,326,965.2026,330,955.2026,326,959.2026" style="stroke:#000000;stroke-width:1.0;"/><line style="stroke:#000000;stroke-width:1.0;" x1="326" x2="326" y1="999.7866" y2="1032.6006"/><polygon fill="#000000" points="322,1022.6006,326,1032.6006,330,1022.6006,326,1026.6006" style="stroke:#000000;stroke-width:1.0;"/><line style="stroke:#000000;stroke-width:1.0;" x1="326" x2="326" y1="1067.1846" y2="1123.6975"/><polygon fill="#000000" points="322,1113.6975,326,1123.6975,330,1113.6975,326,1117.6975" style="stroke:#000000;stroke-width:1.0;"/><line style="stroke:#000000;stroke-width:1.0;" x1="326" x2="326" y1="1158.2815" y2="1230.5938"/><polygon fill="#000000" points="322,1220.5938,326,1230.5938,330,1220.5938,326,1224.5938" style="stroke:#000000;stroke-width:1.0;"/><line style="stroke:#000000;stroke-width:1.0;" x1="326" x2="326" y1="1265.1777" y2="1320.2837"/><polygon fill="#000000" points="322,1310.2837,326,1320.2837,330,1310.2837,326,1314.2837" style="stroke:#000000;stroke-width:1.0;"/><line style="stroke:#000000;stroke-width:1.0;" x1="326" x2="326" y1="1354.8677" y2="1378.375"/><polygon fill="#000000" points="322,1368.375,326,1378.375,330,1368.375,326,1372.375" style="stroke:#000000;stroke-width:1.0;"/><line style="stroke:#000000;stroke-width:1.0;" x1="326" x2="326" y1="1412.959" y2="1432.959"/><polygon fill="#000000" points="322,1422.959,326,1432.959,330,1422.959,326,1426.959" style="stroke:#000000;stroke-width:1.0;"/><!--SRC=[XLRRZjis47tNLqpVRC0EiaNw42-2nfRaZL9RSaKvQPyChKpl4j4D8eN4_Vho8ahKBV6BBSrmvioPCqF_nbvnXg5COv9RZB0Kmp5coIiSYvomeW8xZIabDvB4Z1GvxEw0og9Yi0PqqiOxE9Z59CLNsAV5TykYBAwOjR4ZT77iYrrJrWzpsTrbb8lCrQIww6YFLbum31LvUMKMy8yJi_WvfdW3CY9_id7ES0MBuntzVLXAfoX-JZ7T0BfJXhDJNCKPvZuhC7FqdnHgAe_po09daOaZ-fSTC_nIL7U46IFvoyXpkYhfrGBOm4TINdOYBIB_OGldLn3rMTRc2JE5ntFWLXNP4Fk82EGUN3lgOd-9qnfBozTFRkXs1Xxm0poyVsza8pTELvFi0xpzSmcyzJaixfWg0YMSFQaeWtEUD9Nnbif3Zz9b0CU0r4HkNoiyaexeNcA1fhK1R7q73ZX-gV5JLTIbHFJkzu63bWDYCQjfmortxFo2q753sFqBVv7aMt2xHOHBUOlirk7W7RseoTmo8HvKmUVooXiyPdscrFF9sKRkqDrWOjWP3dQQbt6VUWXnIZ4iygBfova_kJy85HBK0Hz5PycDYyWHSJAIOyMs97HEEFOMkLOBnE_tv-TTYOJ_mxi_m3qW5zw2wpk6y3fXVUnN_FD66hDWLrZq8i9PsOpog0XXkqpChvZ6ZVHOoydr73xcnyRO85b3Y6DQv2iDTGL-4To4UoS8cU0NqLQzbgxrDX26i4Xn-nxLppIfoBFeyGeyUY09pYd6WspkZoIjh_YqrQl6SzhaxPlXpcWENU6qrLvaWY_Tz2vErp0TOi_NZkxFyTYEgUSZDupuLnJCufpSPFtEj8jq5boMNTy8WiJt9sxa6lc6ELVYu85BNbbCoXL-u-sqw8I3QhdOTWF3d2ALdzeQirkR3oyVo2cmiFYC0dyvgdN4veo8zSN1moT5biLhYak-AHZljD8O7N9kt4NWvRTYbFhWxYFu77Y-wIejWTy4vNKRjZVgvJJk5kH2Qtua_zMiyfSc-3r9nGKUrAnRRKBDlGjrh1e_YC3znqCHKZ0Q5Jt0FWoEODlc3TmefIsohS0iiH455QUKbBejQZfqikTqp8v4hyGGixhA-TwXTSfc1y3XnNY-7Qc_5dhVw1tLqYlDls9OnUYGBjHL9Mw8X3tjbZsxB77QnQ1WN8-n2uNcv-fw2eFpwM87lhsD5hf8yx1AjKN3W5CfzPqtdKfFlmpMB88k29TrQVqF]--></g></svg>