<svg xmlns="http://www.w3.org/2000/svg" xmlns:xlink="http://www.w3.org/1999/xlink" contentStyleType="text/css" height="1842px" preserveAspectRatio="none" style="width:1013px;height:1842px;background:#FFFFFF;" version="1.1" viewBox="0 0 1013 1842" width="1013px" zoomAndPan="magnify"><defs/><g><text fill="#000000" font-family="Verdana" font-size="22" font-weight="bold" lengthAdjust="spacing" textLength="741" x="134.5" y="37.1182">Match Monitor Classification By Sport - Main Business Flow</text><ellipse cx="247.5" cy="62.7373" fill="#FFFFFF" rx="10" ry="10" style="stroke:#000000;stroke-width:1.0;"/><path d="M361,89.23 L361,106.0293 L341,110.0293 L361,114.0293 L361,130.8286 A0,0 0 0 0 361,130.8286 L845,130.8286 A0,0 0 0 0 845,130.8286 L845,99.23 L835,89.23 L361,89.23 A0,0 0 0 0 361,89.23 " fill="#FFFFFF" style="stroke:#000000;stroke-width:1.0;"/><path d="M835,89.23 L835,99.23 L845,99.23 L835,89.23 " fill="#FFFFFF" style="stroke:#000000;stroke-width:1.0;"/><text fill="#000000" font-family="Verdana" font-size="13" lengthAdjust="spacing" textLength="463" x="367" y="107.2998">Endpoint: /api/classificationBySportJobs/ClassifyMatchMonitorBySport</text><text fill="#000000" font-family="Verdana" font-size="13" lengthAdjust="spacing" textLength="143" x="367" y="123.0991">Parameter: batchSize</text><rect fill="#FFFFFF" height="34.584" rx="12.5" ry="12.5" style="stroke:#000000;stroke-width:1.0;" width="187" x="154" y="92.7373"/><text fill="#000000" font-family="Verdana" font-size="12" lengthAdjust="spacing" textLength="167" x="164" y="114.8018">Job Triggered (HTTP POST)</text><rect fill="#FFFFFF" height="34.584" rx="12.5" ry="12.5" style="stroke:#000000;stroke-width:1.0;" width="426" x="34.5" y="150.8286"/><text fill="#000000" font-family="Verdana" font-size="12" lengthAdjust="spacing" textLength="406" x="44.5" y="172.8931">MatchMonitorClassificationBySportJobService.Execute(batchSize)</text><rect fill="#FFFFFF" height="34.584" rx="12.5" ry="12.5" style="stroke:#000000;stroke-width:1.0;" width="223" x="136" y="205.4126"/><text fill="#000000" font-family="Verdana" font-size="12" lengthAdjust="spacing" textLength="203" x="146" y="227.4771">ClassifyMatchMonitor(batchSize)</text><rect fill="#FFFFFF" height="34.584" rx="12.5" ry="12.5" style="stroke:#000000;stroke-width:1.0;" width="380" x="57.5" y="259.9966"/><text fill="#000000" font-family="Verdana" font-size="12" lengthAdjust="spacing" textLength="360" x="67.5" y="282.061">Get MatchID from SystemParameter (ParameterID = 199)</text><path d="M363.5,361.1396 L363.5,401.6379 L343.5,405.6379 L363.5,409.6379 L363.5,450.1362 A0,0 0 0 0 363.5,450.1362 L637.5,450.1362 A0,0 0 0 0 637.5,450.1362 L637.5,371.1396 L627.5,361.1396 L363.5,361.1396 A0,0 0 0 0 363.5,361.1396 " fill="#FFFFFF" style="stroke:#000000;stroke-width:1.0;"/><path d="M627.5,361.1396 L627.5,371.1396 L637.5,371.1396 L627.5,361.1396 " fill="#FFFFFF" style="stroke:#000000;stroke-width:1.0;"/><text fill="#000000" font-family="Verdana" font-size="13" lengthAdjust="spacing" textLength="74" x="369.5" y="379.2095">Conditions:</text><text fill="#000000" font-family="Verdana" font-size="13" lengthAdjust="spacing" textLength="171" x="369.5" y="395.0088">- SportType = 1 (Soccer)</text><text fill="#000000" font-family="Verdana" font-size="13" lengthAdjust="spacing" textLength="146" x="369.5" y="410.8081">- LeagueGroupID = 42</text><text fill="#000000" font-family="Verdana" font-size="13" lengthAdjust="spacing" textLength="253" x="369.5" y="426.6074">- ClassifyStatusBySport = 2 (Pending)</text><text fill="#000000" font-family="Verdana" font-size="13" lengthAdjust="spacing" textLength="183" x="369.5" y="442.4067">- Order by KickOffTime ASC</text><rect fill="#FFFFFF" height="34.584" rx="12.5" ry="12.5" style="stroke:#000000;stroke-width:1.0;" width="192" x="151.5" y="388.3459"/><text fill="#000000" font-family="Verdana" font-size="12" lengthAdjust="spacing" textLength="172" x="161.5" y="410.4104">Get First Unclassified Match</text><rect fill="#FFFFFF" height="34.584" rx="12.5" ry="12.5" style="stroke:#000000;stroke-width:1.0;" width="268" x="113.5" y="470.1362"/><text fill="#000000" font-family="Verdana" font-size="12" lengthAdjust="spacing" textLength="248" x="123.5" y="492.2007">Update SystemParameter with MatchID</text><polygon fill="#FFFFFF" points="209,314.5806,286,314.5806,298,326.5806,286,338.5806,209,338.5806,197,326.5806,209,314.5806" style="stroke:#000000;stroke-width:1.0;"/><text fill="#000000" font-family="Verdana" font-size="11" lengthAdjust="spacing" textLength="20" x="251.5" y="349.6396">yes</text><text fill="#000000" font-family="Verdana" font-size="11" lengthAdjust="spacing" textLength="77" x="209" y="330.9553">MatchID = 0?</text><text fill="#000000" font-family="Verdana" font-size="11" lengthAdjust="spacing" textLength="14" x="298" y="324.271">no</text><polygon fill="#FFFFFF" points="247.5,524.7202,259.5,536.7202,247.5,548.7202,235.5,536.7202,247.5,524.7202" style="stroke:#000000;stroke-width:1.0;"/><path d="M348,565.2129 L348,582.0122 L328,586.0122 L348,590.0122 L348,606.8115 A0,0 0 0 0 348,606.8115 L771,606.8115 A0,0 0 0 0 771,606.8115 L771,575.2129 L761,565.2129 L348,565.2129 A0,0 0 0 0 348,565.2129 " fill="#FFFFFF" style="stroke:#000000;stroke-width:1.0;"/><path d="M761,565.2129 L761,575.2129 L771,575.2129 L761,565.2129 " fill="#FFFFFF" style="stroke:#000000;stroke-width:1.0;"/><text fill="#000000" font-family="Verdana" font-size="13" lengthAdjust="spacing" textLength="402" x="354" y="583.2827">SportGroup = 145 if SportType = 1 AND LeagueGroupID = 42</text><text fill="#000000" font-family="Verdana" font-size="13" lengthAdjust="spacing" textLength="93" x="354" y="599.082">Otherwise = 0</text><rect fill="#FFFFFF" height="34.584" rx="12.5" ry="12.5" style="stroke:#000000;stroke-width:1.0;" width="161" x="167" y="568.7202"/><text fill="#000000" font-family="Verdana" font-size="12" lengthAdjust="spacing" textLength="141" x="177" y="590.7847">Determine SportGroup</text><path d="M493,616.8115 L493,665.2095 L473,669.2095 L493,673.2095 L493,721.6074 A0,0 0 0 0 493,721.6074 L917,721.6074 A0,0 0 0 0 917,721.6074 L917,626.8115 L907,616.8115 L493,616.8115 A0,0 0 0 0 493,616.8115 " fill="#FFFFFF" style="stroke:#000000;stroke-width:1.0;"/><path d="M907,616.8115 L907,626.8115 L917,626.8115 L907,616.8115 " fill="#FFFFFF" style="stroke:#000000;stroke-width:1.0;"/><text fill="#000000" font-family="Verdana" font-size="13" lengthAdjust="spacing" textLength="80" x="499" y="634.8813">Parameters:</text><text fill="#000000" font-family="Verdana" font-size="13" lengthAdjust="spacing" textLength="96" x="499" y="650.6807">- ip_BatchSize</text><text fill="#000000" font-family="Verdana" font-size="13" lengthAdjust="spacing" textLength="56" x="499" y="666.48">Returns:</text><text fill="#000000" font-family="Verdana" font-size="13" lengthAdjust="spacing" textLength="403" x="499" y="682.2793">- CustInfos (CustID, CTSCustID, MatchID, SportGroup, etc.)</text><text fill="#000000" font-family="Verdana" font-size="13" lengthAdjust="spacing" textLength="108" x="499" y="698.0786">- MMDetailIDList</text><text fill="#000000" font-family="Verdana" font-size="13" lengthAdjust="spacing" textLength="67" x="499" y="713.8779">- MatchID</text><rect fill="#FFFFFF" height="34.584" rx="12.5" ry="12.5" style="stroke:#000000;stroke-width:1.0;" width="451" x="22" y="651.9175"/><text fill="#000000" font-family="Verdana" font-size="12" lengthAdjust="spacing" textLength="431" x="32" y="673.9819">Call CTS_DC_CustClassification_BySport_MatchMonitor_Classify [SP]</text><path d="M5,731.6074 L5,757.4067 L189,757.4067 L189,741.6074 L179,731.6074 L5,731.6074 " fill="#FFFFFF" style="stroke:#000000;stroke-width:1.0;"/><path d="M179,731.6074 L179,741.6074 L189,741.6074 L179,731.6074 " fill="#FFFFFF" style="stroke:#000000;stroke-width:1.0;"/><text fill="#000000" font-family="Verdana" font-size="13" lengthAdjust="spacing" textLength="163" x="11" y="749.6772">No customers to classify</text><rect fill="#FFFFFF" height="34.584" rx="12.5" ry="12.5" style="stroke:#000000;stroke-width:1.0;" width="314" x="90.5" y="806.0911"/><text fill="#000000" font-family="Verdana" font-size="12" lengthAdjust="spacing" textLength="294" x="100.5" y="828.1555">Convert to InsertProblemAccountBySportEntity</text><rect fill="#FFFFFF" height="34.584" rx="12.5" ry="12.5" style="stroke:#000000;stroke-width:1.0;" width="168" x="163.5" y="860.675"/><text fill="#000000" font-family="Verdana" font-size="12" lengthAdjust="spacing" textLength="148" x="173.5" y="882.7395">InsertProblemAccount()</text><rect fill="#FFFFFF" height="34.584" rx="12.5" ry="12.5" style="stroke:#000000;stroke-width:1.0;" width="158" x="168.5" y="915.259"/><text fill="#000000" font-family="Verdana" font-size="12" lengthAdjust="spacing" textLength="138" x="178.5" y="937.3235">GetPALosingBySport()</text><path d="M464,959.843 L464,1016.1406 L444,1020.1406 L464,1024.1406 L464,1080.4382 A0,0 0 0 0 464,1080.4382 L678,1080.4382 A0,0 0 0 0 678,1080.4382 L678,969.843 L668,959.843 L464,959.843 A0,0 0 0 0 464,959.843 " fill="#FFFFFF" style="stroke:#000000;stroke-width:1.0;"/><path d="M668,959.843 L668,969.843 L678,969.843 L668,959.843 " fill="#FFFFFF" style="stroke:#000000;stroke-width:1.0;"/><text fill="#000000" font-family="Verdana" font-size="13" lengthAdjust="spacing" textLength="193" x="470" y="977.9128">Get losing performance data:</text><text fill="#000000" font-family="Verdana" font-size="13" lengthAdjust="spacing" textLength="73" x="470" y="993.7122">- BetCount</text><text fill="#000000" font-family="Verdana" font-size="13" lengthAdjust="spacing" textLength="86" x="470" y="1009.5115">- ActiveDays</text><text fill="#000000" font-family="Verdana" font-size="13" lengthAdjust="spacing" textLength="90" x="470" y="1025.3108">- TurnoverRM</text><text fill="#000000" font-family="Verdana" font-size="13" lengthAdjust="spacing" textLength="80" x="470" y="1041.1101">- WinlossRM</text><text fill="#000000" font-family="Verdana" font-size="13" lengthAdjust="spacing" textLength="105" x="470" y="1056.9094">- WinlossStatus</text><text fill="#000000" font-family="Verdana" font-size="13" lengthAdjust="spacing" textLength="125" x="470" y="1072.7087">- PerformanceTime</text><rect fill="#FFFFFF" height="34.584" rx="12.5" ry="12.5" style="stroke:#000000;stroke-width:1.0;" width="393" x="51" y="1002.8486"/><text fill="#000000" font-family="Verdana" font-size="12" lengthAdjust="spacing" textLength="373" x="61" y="1024.9131">Call CTS_ProblemAccountsClassification_BySport_Daily [SP]</text><rect fill="#FFFFFF" height="34.584" rx="12.5" ry="12.5" style="stroke:#000000;stroke-width:1.0;" width="250" x="122.5" y="1100.4382"/><text fill="#000000" font-family="Verdana" font-size="12" lengthAdjust="spacing" textLength="230" x="132.5" y="1122.5027">CombinePAWithLosingPerformance()</text><rect fill="#FFFFFF" height="34.584" rx="12.5" ry="12.5" style="stroke:#000000;stroke-width:1.0;" width="260" x="117.5" y="1155.0222"/><text fill="#000000" font-family="Verdana" font-size="12" lengthAdjust="spacing" textLength="240" x="127.5" y="1177.0867">InsertCustomerClassificationBySport()</text><path d="M442,1199.6062 L442,1240.1045 L422,1244.1045 L442,1248.1045 L442,1288.6028 A0,0 0 0 0 442,1288.6028 L737,1288.6028 A0,0 0 0 0 737,1288.6028 L737,1209.6062 L727,1199.6062 L442,1199.6062 A0,0 0 0 0 442,1199.6062 " fill="#FFFFFF" style="stroke:#000000;stroke-width:1.0;"/><path d="M727,1199.6062 L727,1209.6062 L737,1209.6062 L727,1199.6062 " fill="#FFFFFF" style="stroke:#000000;stroke-width:1.0;"/><text fill="#000000" font-family="Verdana" font-size="13" lengthAdjust="spacing" textLength="247" x="448" y="1217.676">InputFlowID = 335 (BySportInsertPA)</text><text fill="#000000" font-family="Verdana" font-size="13" lengthAdjust="spacing" textLength="44" x="448" y="1233.4753">Steps:</text><text fill="#000000" font-family="Verdana" font-size="13" lengthAdjust="spacing" textLength="206" x="448" y="1249.2747">1. Insert_GetInfo - Parse JSON</text><text fill="#000000" font-family="Verdana" font-size="13" lengthAdjust="spacing" textLength="274" x="448" y="1265.074">2. Insert_Process - Process classification</text><text fill="#000000" font-family="Verdana" font-size="13" lengthAdjust="spacing" textLength="265" x="448" y="1280.8733">3. Insert_Complete - Complete insertion</text><rect fill="#FFFFFF" height="34.584" rx="12.5" ry="12.5" style="stroke:#000000;stroke-width:1.0;" width="349" x="73" y="1226.8125"/><text fill="#000000" font-family="Verdana" font-size="12" lengthAdjust="spacing" textLength="329" x="83" y="1248.877">Call CTS_DC_CustClassification_BySport_Insert [SP]</text><rect fill="#FFFFFF" height="34.584" rx="12.5" ry="12.5" style="stroke:#000000;stroke-width:1.0;" width="189" x="153" y="1308.6028"/><text fill="#000000" font-family="Verdana" font-size="12" lengthAdjust="spacing" textLength="169" x="163" y="1330.6672">PushCCBySportToMainDB()</text><rect fill="#FFFFFF" height="34.584" rx="12.5" ry="12.5" style="stroke:#000000;stroke-width:1.0;" width="251" x="122" y="1363.1868"/><text fill="#000000" font-family="Verdana" font-size="12" lengthAdjust="spacing" textLength="231" x="132" y="1385.2512">GetCustomerClassificationBySports()</text><rect fill="#FFFFFF" height="34.584" rx="12.5" ry="12.5" style="stroke:#000000;stroke-width:1.0;" width="222" x="136.5" y="1417.7708"/><text fill="#000000" font-family="Verdana" font-size="12" lengthAdjust="spacing" textLength="202" x="146.5" y="1439.8352">RetryPushCCBySportToMainDB()</text><path d="M436.5,1468.8474 L436.5,1485.6467 L416.5,1489.6467 L436.5,1493.6467 L436.5,1510.446 A0,0 0 0 0 436.5,1510.446 L609.5,1510.446 A0,0 0 0 0 609.5,1510.446 L609.5,1478.8474 L599.5,1468.8474 L436.5,1468.8474 A0,0 0 0 0 436.5,1468.8474 " fill="#FFFFFF" style="stroke:#000000;stroke-width:1.0;"/><path d="M599.5,1468.8474 L599.5,1478.8474 L609.5,1478.8474 L599.5,1468.8474 " fill="#FFFFFF" style="stroke:#000000;stroke-width:1.0;"/><text fill="#000000" font-family="Verdana" font-size="13" lengthAdjust="spacing" textLength="152" x="442.5" y="1486.9172">Push to Main Database</text><text fill="#000000" font-family="Verdana" font-size="13" lengthAdjust="spacing" textLength="128" x="442.5" y="1502.7166">Retry up to 3 times</text><rect fill="#FFFFFF" height="34.584" rx="12.5" ry="12.5" style="stroke:#000000;stroke-width:1.0;" width="338" x="78.5" y="1472.3547"/><text fill="#000000" font-family="Verdana" font-size="12" lengthAdjust="spacing" textLength="318" x="88.5" y="1494.4192">UpdateCustomerClassificationBySport [MainDB SP]</text><polygon fill="#FFFFFF" points="201,757.4067,294,757.4067,306,769.4067,294,781.4067,201,781.4067,189,769.4067,201,757.4067" style="stroke:#000000;stroke-width:1.0;"/><text fill="#000000" font-family="Verdana" font-size="11" lengthAdjust="spacing" textLength="20" x="251.5" y="792.4658">yes</text><text fill="#000000" font-family="Verdana" font-size="11" lengthAdjust="spacing" textLength="93" x="201" y="773.7815">Has Customers?</text><text fill="#000000" font-family="Verdana" font-size="11" lengthAdjust="spacing" textLength="14" x="306" y="767.0972">no</text><polygon fill="#FFFFFF" points="247.5,1530.446,259.5,1542.446,247.5,1554.446,235.5,1542.446,247.5,1530.446" style="stroke:#000000;stroke-width:1.0;"/><rect fill="#FFFFFF" height="34.584" rx="12.5" ry="12.5" style="stroke:#000000;stroke-width:1.0;" width="230" x="132.5" y="1574.446"/><text fill="#000000" font-family="Verdana" font-size="12" lengthAdjust="spacing" textLength="210" x="142.5" y="1596.5105">ClassifyCompletedMatchMonitor()</text><path d="M503,1619.03 L503,1675.3276 L483,1679.3276 L503,1683.3276 L503,1739.6252 A0,0 0 0 0 503,1739.6252 L1006,1739.6252 A0,0 0 0 0 1006,1739.6252 L1006,1629.03 L996,1619.03 L503,1619.03 A0,0 0 0 0 503,1619.03 " fill="#FFFFFF" style="stroke:#000000;stroke-width:1.0;"/><path d="M996,1619.03 L996,1629.03 L1006,1629.03 L996,1619.03 " fill="#FFFFFF" style="stroke:#000000;stroke-width:1.0;"/><text fill="#000000" font-family="Verdana" font-size="13" lengthAdjust="spacing" textLength="80" x="509" y="1637.0999">Parameters:</text><text fill="#000000" font-family="Verdana" font-size="13" lengthAdjust="spacing" textLength="86" x="509" y="1652.8992">- ip_MatchID</text><text fill="#000000" font-family="Verdana" font-size="13" lengthAdjust="spacing" textLength="134" x="509" y="1668.6985">- ip_MMDetailsIDList</text><text fill="#000000" font-family="Verdana" font-size="13" lengthAdjust="spacing" textLength="60" x="509" y="1684.4978">Updates:</text><text fill="#000000" font-family="Verdana" font-size="13" lengthAdjust="spacing" textLength="410" x="509" y="1700.2971">- MatchMonitorDetails.ClassifyStatusBySport = 1 (Completed)</text><text fill="#000000" font-family="Verdana" font-size="13" lengthAdjust="spacing" textLength="482" x="509" y="1716.0964">- If no MMDetailsIDList: Update MatchMonitor.ClassifyStatusBySport = 1</text><text fill="#000000" font-family="Verdana" font-size="13" lengthAdjust="spacing" textLength="305" x="509" y="1731.8958">- Reset SystemParameter.ParameterValue = 0</text><rect fill="#FFFFFF" height="34.584" rx="12.5" ry="12.5" style="stroke:#000000;stroke-width:1.0;" width="471" x="12" y="1662.0356"/><text fill="#000000" font-family="Verdana" font-size="12" lengthAdjust="spacing" textLength="451" x="22" y="1684.1001">Call CTS_DC_CustClassification_BySport_MatchMonitor_Completed [SP]</text><rect fill="#FFFFFF" height="34.584" rx="12.5" ry="12.5" style="stroke:#000000;stroke-width:1.0;" width="116" x="189.5" y="1759.6252"/><text fill="#000000" font-family="Verdana" font-size="12" lengthAdjust="spacing" textLength="96" x="199.5" y="1781.6897">Return Success</text><ellipse cx="247.5" cy="1825.2092" fill="none" rx="11" ry="11" style="stroke:#000000;stroke-width:1.0;"/><ellipse cx="247.5" cy="1825.2092" fill="#FFFFFF" rx="6" ry="6" style="stroke:#000000;stroke-width:1.0;"/><line style="stroke:#000000;stroke-width:1.0;" x1="247.5" x2="247.5" y1="72.7373" y2="92.7373"/><polygon fill="#000000" points="243.5,82.7373,247.5,92.7373,251.5,82.7373,247.5,86.7373" style="stroke:#000000;stroke-width:1.0;"/><line style="stroke:#000000;stroke-width:1.0;" x1="247.5" x2="247.5" y1="127.3213" y2="150.8286"/><polygon fill="#000000" points="243.5,140.8286,247.5,150.8286,251.5,140.8286,247.5,144.8286" style="stroke:#000000;stroke-width:1.0;"/><line style="stroke:#000000;stroke-width:1.0;" x1="247.5" x2="247.5" y1="185.4126" y2="205.4126"/><polygon fill="#000000" points="243.5,195.4126,247.5,205.4126,251.5,195.4126,247.5,199.4126" style="stroke:#000000;stroke-width:1.0;"/><line style="stroke:#000000;stroke-width:1.0;" x1="247.5" x2="247.5" y1="239.9966" y2="259.9966"/><polygon fill="#000000" points="243.5,249.9966,247.5,259.9966,251.5,249.9966,247.5,253.9966" style="stroke:#000000;stroke-width:1.0;"/><line style="stroke:#000000;stroke-width:1.0;" x1="247.5" x2="247.5" y1="422.9299" y2="470.1362"/><polygon fill="#000000" points="243.5,460.1362,247.5,470.1362,251.5,460.1362,247.5,464.1362" style="stroke:#000000;stroke-width:1.0;"/><line style="stroke:#000000;stroke-width:1.0;" x1="247.5" x2="247.5" y1="338.5806" y2="388.3459"/><polygon fill="#000000" points="243.5,378.3459,247.5,388.3459,251.5,378.3459,247.5,382.3459" style="stroke:#000000;stroke-width:1.0;"/><line style="stroke:#000000;stroke-width:1.0;" x1="298" x2="647.5" y1="326.5806" y2="326.5806"/><polygon fill="#000000" points="643.5,430.4299,647.5,440.4299,651.5,430.4299,647.5,434.4299" style="stroke:#000000;stroke-width:1.0;"/><line style="stroke:#000000;stroke-width:1.0;" x1="647.5" x2="647.5" y1="326.5806" y2="536.7202"/><line style="stroke:#000000;stroke-width:1.0;" x1="647.5" x2="259.5" y1="536.7202" y2="536.7202"/><polygon fill="#000000" points="269.5,532.7202,259.5,536.7202,269.5,540.7202,265.5,536.7202" style="stroke:#000000;stroke-width:1.0;"/><line style="stroke:#000000;stroke-width:1.0;" x1="247.5" x2="247.5" y1="504.7202" y2="524.7202"/><polygon fill="#000000" points="243.5,514.7202,247.5,524.7202,251.5,514.7202,247.5,518.7202" style="stroke:#000000;stroke-width:1.0;"/><line style="stroke:#000000;stroke-width:1.0;" x1="247.5" x2="247.5" y1="294.5806" y2="314.5806"/><polygon fill="#000000" points="243.5,304.5806,247.5,314.5806,251.5,304.5806,247.5,308.5806" style="stroke:#000000;stroke-width:1.0;"/><line style="stroke:#000000;stroke-width:1.0;" x1="247.5" x2="247.5" y1="548.7202" y2="568.7202"/><polygon fill="#000000" points="243.5,558.7202,247.5,568.7202,251.5,558.7202,247.5,562.7202" style="stroke:#000000;stroke-width:1.0;"/><line style="stroke:#000000;stroke-width:1.0;" x1="247.5" x2="247.5" y1="603.3042" y2="651.9175"/><polygon fill="#000000" points="243.5,641.9175,247.5,651.9175,251.5,641.9175,247.5,645.9175" style="stroke:#000000;stroke-width:1.0;"/><line style="stroke:#000000;stroke-width:1.0;" x1="247.5" x2="247.5" y1="840.675" y2="860.675"/><polygon fill="#000000" points="243.5,850.675,247.5,860.675,251.5,850.675,247.5,854.675" style="stroke:#000000;stroke-width:1.0;"/><line style="stroke:#000000;stroke-width:1.0;" x1="247.5" x2="247.5" y1="895.259" y2="915.259"/><polygon fill="#000000" points="243.5,905.259,247.5,915.259,251.5,905.259,247.5,909.259" style="stroke:#000000;stroke-width:1.0;"/><line style="stroke:#000000;stroke-width:1.0;" x1="247.5" x2="247.5" y1="949.843" y2="1002.8486"/><polygon fill="#000000" points="243.5,992.8486,247.5,1002.8486,251.5,992.8486,247.5,996.8486" style="stroke:#000000;stroke-width:1.0;"/><line style="stroke:#000000;stroke-width:1.0;" x1="247.5" x2="247.5" y1="1037.4326" y2="1100.4382"/><polygon fill="#000000" points="243.5,1090.4382,247.5,1100.4382,251.5,1090.4382,247.5,1094.4382" style="stroke:#000000;stroke-width:1.0;"/><line style="stroke:#000000;stroke-width:1.0;" x1="247.5" x2="247.5" y1="1135.0222" y2="1155.0222"/><polygon fill="#000000" points="243.5,1145.0222,247.5,1155.0222,251.5,1145.0222,247.5,1149.0222" style="stroke:#000000;stroke-width:1.0;"/><line style="stroke:#000000;stroke-width:1.0;" x1="247.5" x2="247.5" y1="1189.6062" y2="1226.8125"/><polygon fill="#000000" points="243.5,1216.8125,247.5,1226.8125,251.5,1216.8125,247.5,1220.8125" style="stroke:#000000;stroke-width:1.0;"/><line style="stroke:#000000;stroke-width:1.0;" x1="247.5" x2="247.5" y1="1261.3965" y2="1308.6028"/><polygon fill="#000000" points="243.5,1298.6028,247.5,1308.6028,251.5,1298.6028,247.5,1302.6028" style="stroke:#000000;stroke-width:1.0;"/><line style="stroke:#000000;stroke-width:1.0;" x1="247.5" x2="247.5" y1="1343.1868" y2="1363.1868"/><polygon fill="#000000" points="243.5,1353.1868,247.5,1363.1868,251.5,1353.1868,247.5,1357.1868" style="stroke:#000000;stroke-width:1.0;"/><line style="stroke:#000000;stroke-width:1.0;" x1="247.5" x2="247.5" y1="1397.7708" y2="1417.7708"/><polygon fill="#000000" points="243.5,1407.7708,247.5,1417.7708,251.5,1407.7708,247.5,1411.7708" style="stroke:#000000;stroke-width:1.0;"/><line style="stroke:#000000;stroke-width:1.0;" x1="247.5" x2="247.5" y1="1452.3547" y2="1472.3547"/><polygon fill="#000000" points="243.5,1462.3547,247.5,1472.3547,251.5,1462.3547,247.5,1466.3547" style="stroke:#000000;stroke-width:1.0;"/><line style="stroke:#000000;stroke-width:1.0;" x1="247.5" x2="247.5" y1="781.4067" y2="806.0911"/><polygon fill="#000000" points="243.5,796.0911,247.5,806.0911,251.5,796.0911,247.5,800.0911" style="stroke:#000000;stroke-width:1.0;"/><line style="stroke:#000000;stroke-width:1.0;" x1="306" x2="747" y1="769.4067" y2="769.4067"/><polygon fill="#000000" points="743,1150.0222,747,1160.0222,751,1150.0222,747,1154.0222" style="stroke:#000000;stroke-width:1.0;"/><line style="stroke:#000000;stroke-width:1.0;" x1="747" x2="747" y1="769.4067" y2="1542.446"/><line style="stroke:#000000;stroke-width:1.0;" x1="747" x2="259.5" y1="1542.446" y2="1542.446"/><polygon fill="#000000" points="269.5,1538.446,259.5,1542.446,269.5,1546.446,265.5,1542.446" style="stroke:#000000;stroke-width:1.0;"/><line style="stroke:#000000;stroke-width:1.0;" x1="247.5" x2="247.5" y1="1506.9387" y2="1530.446"/><polygon fill="#000000" points="243.5,1520.446,247.5,1530.446,251.5,1520.446,247.5,1524.446" style="stroke:#000000;stroke-width:1.0;"/><line style="stroke:#000000;stroke-width:1.0;" x1="247.5" x2="247.5" y1="686.5015" y2="757.4067"/><polygon fill="#000000" points="243.5,747.4067,247.5,757.4067,251.5,747.4067,247.5,751.4067" style="stroke:#000000;stroke-width:1.0;"/><line style="stroke:#000000;stroke-width:1.0;" x1="247.5" x2="247.5" y1="1554.446" y2="1574.446"/><polygon fill="#000000" points="243.5,1564.446,247.5,1574.446,251.5,1564.446,247.5,1568.446" style="stroke:#000000;stroke-width:1.0;"/><line style="stroke:#000000;stroke-width:1.0;" x1="247.5" x2="247.5" y1="1609.03" y2="1662.0356"/><polygon fill="#000000" points="243.5,1652.0356,247.5,1662.0356,251.5,1652.0356,247.5,1656.0356" style="stroke:#000000;stroke-width:1.0;"/><line style="stroke:#000000;stroke-width:1.0;" x1="247.5" x2="247.5" y1="1696.6196" y2="1759.6252"/><polygon fill="#000000" points="243.5,1749.6252,247.5,1759.6252,251.5,1749.6252,247.5,1753.6252" style="stroke:#000000;stroke-width:1.0;"/><line style="stroke:#000000;stroke-width:1.0;" x1="247.5" x2="247.5" y1="1794.2092" y2="1814.2092"/><polygon fill="#000000" points="243.5,1804.2092,247.5,1814.2092,251.5,1804.2092,247.5,1808.2092" style="stroke:#000000;stroke-width:1.0;"/><!--SRC=[dLPRSzeu57xthpZxPcOIqYRjGvtfx82TjdH3O6AwVUXq6644Q6eaZoGdw_trUoJBGcOXdTPFGlhExJit_j0xkgTGbOJnI3DTKfWINUnWAZZJGa9Q4gNOXXL4Cy5Xt41U2QdX4d4CVzUASQeKV2Z5SnGfJQIEaizY1Gl9jbigwHhYJul57EQpV36uZRZG5F1ffoF0xuwlAy6uJk2ALEogw5aRDzOMQbDNpe_6UkUSS-zMqPn8igUQoWHM1fApVsb4-HgCmIXAGhdqZ9MSoYTMqE7TFxIeDOsz8lGxEUL03m6GVAIwfM-ImKQAFUIDqdJlVOFO7n7n7bw_UsS5sGRYJkuzlFfp09WM3d53rS16PpL_O59f-C8xaf1QAtHh8KV4cYyLVCrCY2hnTvTj_XPDHOq34EUYAAWS181xIhOr_IX5NLb_tbm7ZnqDkIQwLeux15rZR4WtuzjGrKokCUfL0t-nuiTiiramBBPHdbg8puwDy4kr9XZ1CMFFJEywJasWj5GKOYwC5MDlOtZF37IFXTW6Prqtu2DE3eycz3Tl3UzzDaOFsRdmPvWI-SoK0RwAUjudAIbBI1VvCakNQQrqly2MZgLbM3hBZaZubi-_dt3MK-2ITmciMevzQPkhHwfhoVsxiJpX6w4WjiVimlZK7Hs75m4B5q1rCHmuyUaKQIIid6JtJEdkifKAuurCjNuYojeJUtJmk5uJBBmdYcMX1KoumjDSYbL9zwEY43NNZeyxZWEdiOrp2XKFRdtjpqVt0WVDrabsJo7rVM5r9WKP1dYW_4pVc6OhhJsegDm8kIUye83rIS966bET6bl1rQZGx8bcf571vGAJ992Fnsbm-PLnDA5EtRMj5TpF3qwO1d8l_VP9nNw53J0VVSM6QSaAn3oNBT5TvauEmbFalbpNhTAViJhXLQtDch1TTNFp5cAdm6L_T9WSkQPLCBHU3rqTBJ4rfiGDAKHYBtxEPmyUTkrXM0o5sKe8SwV-Pl4YDru42QnAx3VJIDsHsQS3la_vl5QxD7KnB8JPXzauO0zzVP5e5M2nbMNp4uL-IBwe5RwrSX1ausG-SCIWFTEZTfDdMDqhecZmRfq2d9Q8kG6DfNUeIaz5E92Fh3m8ABePONIu73JXD6bd-66zTjolUtksNQ-_DMOxVRyqPmzZhxjmmr45qx5DXXSBpJhmyDosnBth7UlcxsI3hi6HeSHPwMa_hzQfUgGAHzZHAXtwqz-ahF-tngAaNIUGruNfc5lyCoUgw3y0]--></g></svg>