<svg xmlns="http://www.w3.org/2000/svg" xmlns:xlink="http://www.w3.org/1999/xlink" contentStyleType="text/css" data-diagram-type="SEQUENCE" height="1192px" preserveAspectRatio="none" style="width:1530px;height:1192px;background:#FFFFFF;" version="1.1" viewBox="0 0 1530 1192" width="1530px" zoomAndPan="magnify"><title>Danger Monitor Search - No Association Mode Sequence Diagram</title><defs/><g><text fill="#000000" font-family="Verdana" font-size="22" font-weight="bold" lengthAdjust="spacing" textLength="812.0771" x="362.7952" y="35.4209">Danger Monitor Search - No Association Mode Sequence Diagram</text><g><title>DangerMonitor</title><rect fill="#FFFFFF" height="926.1875" style="stroke:#000000;stroke-width:1;" width="10" x="326.1079" y="161.3359"/></g><g><title>DangerMonitor</title><rect fill="#FFFFFF" height="589.7891" style="stroke:#000000;stroke-width:1;" width="10" x="637.3882" y="256.7344"/></g><g><title>CriteriaService</title><rect fill="#FFFFFF" height="225.1953" style="stroke:#000000;stroke-width:1;" width="10" x="978.272" y="465.7969"/></g><g><title>SQL Server</title><rect fill="#FFFFFF" height="124.7969" style="stroke:#000000;stroke-width:1;" width="10" x="1312.4971" y="537.0625"/></g><rect fill="#FFFFFF" height="862.0547" style="stroke:#000000;stroke-width:1;" width="1508.6675" x="15" y="218.4688"/><rect fill="#FFFFFF" height="43.9375" style="stroke:none;stroke-width:1;" width="1508.6675" x="15" y="1036.5859"/><g><title>User</title><rect fill="#000000" fill-opacity="0.00000" height="967.3203" width="8" x="39.9551" y="130.2031"/><line style="stroke:#000000;stroke-width:1;stroke-dasharray:5,5;" x1="43" x2="43" y1="130.2031" y2="1097.5234"/></g><g><title>DangerMonitor</title><rect fill="#000000" fill-opacity="0.00000" height="967.3203" width="8" x="327.1079" y="130.2031"/><line style="stroke:#000000;stroke-width:1;stroke-dasharray:5,5;" x1="330.7549" x2="330.7549" y1="130.2031" y2="1097.5234"/></g><g><title>DangerMonitor</title><rect fill="#000000" fill-opacity="0.00000" height="967.3203" width="8" x="638.3882" y="130.2031"/><line style="stroke:#000000;stroke-width:1;stroke-dasharray:5,5;" x1="642.0352" x2="642.0352" y1="130.2031" y2="1097.5234"/></g><g><title>CriteriaService</title><rect fill="#000000" fill-opacity="0.00000" height="967.3203" width="8" x="979.272" y="130.2031"/><line style="stroke:#000000;stroke-width:1;stroke-dasharray:5,5;" x1="982.5273" x2="982.5273" y1="130.2031" y2="1097.5234"/></g><g><title>SQL Server</title><rect fill="#000000" fill-opacity="0.00000" height="967.3203" width="8" x="1313.4971" y="130.2031"/><line style="stroke:#000000;stroke-width:1;stroke-dasharray:5,5;" x1="1317.4639" x2="1317.4639" y1="130.2031" y2="1097.5234"/></g><g class="participant participant-head" data-participant="User"><text fill="#000000" font-family="Verdana" font-size="14" lengthAdjust="spacing" textLength="31.9102" x="25" y="126.9014">User</text><ellipse cx="43.9551" cy="61.9063" fill="#FFFFFF" rx="8" ry="8" style="stroke:#000000;stroke-width:1;"/><path d="M43.9551,69.9063 L43.9551,96.9063 M30.9551,77.9063 L56.9551,77.9063 M43.9551,96.9063 L30.9551,111.9063 M43.9551,96.9063 L56.9551,111.9063" fill="none" style="stroke:#000000;stroke-width:1;"/></g><g class="participant participant-tail" data-participant="User"><text fill="#000000" font-family="Verdana" font-size="14" lengthAdjust="spacing" textLength="31.9102" x="25" y="1109.5186">User</text><ellipse cx="43.9551" cy="1121.8203" fill="#FFFFFF" rx="8" ry="8" style="stroke:#000000;stroke-width:1;"/><path d="M43.9551,1129.8203 L43.9551,1156.8203 M30.9551,1137.8203 L56.9551,1137.8203 M43.9551,1156.8203 L30.9551,1171.8203 M43.9551,1156.8203 L56.9551,1171.8203" fill="none" style="stroke:#000000;stroke-width:1;"/></g><g class="participant participant-head" data-participant="Controller"><rect fill="#FFFFFF" height="46.5938" rx="2.5" ry="2.5" style="stroke:#000000;stroke-width:1;" width="118.7061" x="271.7549" y="82.6094"/><text fill="#000000" font-family="Verdana" font-size="14" lengthAdjust="spacing" textLength="104.7061" x="278.7549" y="102.6045">DangerMonitor</text><text fill="#000000" font-family="Verdana" font-size="14" lengthAdjust="spacing" textLength="69.1729" x="296.5215" y="118.9014">Controller</text></g><g class="participant participant-tail" data-participant="Controller"><rect fill="#FFFFFF" height="46.5938" rx="2.5" ry="2.5" style="stroke:#000000;stroke-width:1;" width="118.7061" x="271.7549" y="1096.5234"/><text fill="#000000" font-family="Verdana" font-size="14" lengthAdjust="spacing" textLength="104.7061" x="278.7549" y="1116.5186">DangerMonitor</text><text fill="#000000" font-family="Verdana" font-size="14" lengthAdjust="spacing" textLength="69.1729" x="296.5215" y="1132.8154">Controller</text></g><g class="participant participant-head" data-participant="Service"><rect fill="#FFFFFF" height="46.5938" rx="2.5" ry="2.5" style="stroke:#000000;stroke-width:1;" width="118.7061" x="583.0352" y="82.6094"/><text fill="#000000" font-family="Verdana" font-size="14" lengthAdjust="spacing" textLength="104.7061" x="590.0352" y="102.6045">DangerMonitor</text><text fill="#000000" font-family="Verdana" font-size="14" lengthAdjust="spacing" textLength="51.7412" x="616.5176" y="118.9014">Service</text></g><g class="participant participant-tail" data-participant="Service"><rect fill="#FFFFFF" height="46.5938" rx="2.5" ry="2.5" style="stroke:#000000;stroke-width:1;" width="118.7061" x="583.0352" y="1096.5234"/><text fill="#000000" font-family="Verdana" font-size="14" lengthAdjust="spacing" textLength="104.7061" x="590.0352" y="1116.5186">DangerMonitor</text><text fill="#000000" font-family="Verdana" font-size="14" lengthAdjust="spacing" textLength="51.7412" x="616.5176" y="1132.8154">Service</text></g><g class="participant participant-head" data-participant="Repository"><rect fill="#FFFFFF" height="46.5938" rx="2.5" ry="2.5" style="stroke:#000000;stroke-width:1;" width="117.4893" x="924.5273" y="82.6094"/><text fill="#000000" font-family="Verdana" font-size="14" lengthAdjust="spacing" textLength="103.4893" x="931.5273" y="102.6045">CriteriaService</text><text fill="#000000" font-family="Verdana" font-size="14" lengthAdjust="spacing" textLength="85.9961" x="940.2739" y="118.9014">(Repository)</text></g><g class="participant participant-tail" data-participant="Repository"><rect fill="#FFFFFF" height="46.5938" rx="2.5" ry="2.5" style="stroke:#000000;stroke-width:1;" width="117.4893" x="924.5273" y="1096.5234"/><text fill="#000000" font-family="Verdana" font-size="14" lengthAdjust="spacing" textLength="103.4893" x="931.5273" y="1116.5186">CriteriaService</text><text fill="#000000" font-family="Verdana" font-size="14" lengthAdjust="spacing" textLength="85.9961" x="940.2739" y="1132.8154">(Repository)</text></g><g class="participant participant-head" data-participant="DB"><text fill="#000000" font-family="Verdana" font-size="14" lengthAdjust="spacing" textLength="78.0664" x="1275.4639" y="110.6045">SQL Server</text><text fill="#000000" font-family="Verdana" font-size="14" lengthAdjust="spacing" textLength="66.8008" x="1281.0967" y="126.9014">Database</text><path d="M1299.4971,61.6094 C1299.4971,51.6094 1317.4971,51.6094 1317.4971,51.6094 C1317.4971,51.6094 1335.4971,51.6094 1335.4971,61.6094 L1335.4971,87.6094 C1335.4971,97.6094 1317.4971,97.6094 1317.4971,97.6094 C1317.4971,97.6094 1299.4971,97.6094 1299.4971,87.6094 L1299.4971,61.6094" fill="#FFFFFF" style="stroke:#000000;stroke-width:1;"/><path d="M1299.4971,61.6094 C1299.4971,71.6094 1317.4971,71.6094 1317.4971,71.6094 C1317.4971,71.6094 1335.4971,71.6094 1335.4971,61.6094" fill="none" style="stroke:#000000;stroke-width:1;"/></g><g class="participant participant-tail" data-participant="DB"><text fill="#000000" font-family="Verdana" font-size="14" lengthAdjust="spacing" textLength="78.0664" x="1275.4639" y="1109.5186">SQL Server</text><text fill="#000000" font-family="Verdana" font-size="14" lengthAdjust="spacing" textLength="66.8008" x="1281.0967" y="1125.8154">Database</text><path d="M1299.4971,1139.1172 C1299.4971,1129.1172 1317.4971,1129.1172 1317.4971,1129.1172 C1317.4971,1129.1172 1335.4971,1129.1172 1335.4971,1139.1172 L1335.4971,1165.1172 C1335.4971,1175.1172 1317.4971,1175.1172 1317.4971,1175.1172 C1317.4971,1175.1172 1299.4971,1175.1172 1299.4971,1165.1172 L1299.4971,1139.1172" fill="#FFFFFF" style="stroke:#000000;stroke-width:1;"/><path d="M1299.4971,1139.1172 C1299.4971,1149.1172 1317.4971,1149.1172 1317.4971,1149.1172 C1317.4971,1149.1172 1335.4971,1149.1172 1335.4971,1139.1172" fill="none" style="stroke:#000000;stroke-width:1;"/></g><g><title>DangerMonitor</title><rect fill="#FFFFFF" height="926.1875" style="stroke:#000000;stroke-width:1;" width="10" x="326.1079" y="161.3359"/></g><g><title>DangerMonitor</title><rect fill="#FFFFFF" height="589.7891" style="stroke:#000000;stroke-width:1;" width="10" x="637.3882" y="256.7344"/></g><g><title>CriteriaService</title><rect fill="#FFFFFF" height="225.1953" style="stroke:#000000;stroke-width:1;" width="10" x="978.272" y="465.7969"/></g><g><title>SQL Server</title><rect fill="#FFFFFF" height="124.7969" style="stroke:#000000;stroke-width:1;" width="10" x="1312.4971" y="537.0625"/></g><g class="message" data-participant-1="User" data-participant-2="Controller"><polygon fill="#000000" points="314.1079,157.3359,324.1079,161.3359,314.1079,165.3359,318.1079,161.3359" style="stroke:#000000;stroke-width:1;"/><line style="stroke:#000000;stroke-width:1;" x1="43.9551" x2="320.1079" y1="161.3359" y2="161.3359"/><text fill="#000000" font-family="Verdana" font-size="13" lengthAdjust="spacing" textLength="199.1768" x="50.9551" y="156.27">POST GetDangerMonitor(filter)</text></g><g class="message" data-participant-1="Controller" data-participant-2="Controller"><line style="stroke:#000000;stroke-width:1;" x1="336.1079" x2="378.1079" y1="190.4688" y2="190.4688"/><line style="stroke:#000000;stroke-width:1;" x1="378.1079" x2="378.1079" y1="190.4688" y2="203.4688"/><line style="stroke:#000000;stroke-width:1;" x1="337.1079" x2="378.1079" y1="203.4688" y2="203.4688"/><polygon fill="#000000" points="347.1079,199.4688,337.1079,203.4688,347.1079,207.4688,343.1079,203.4688" style="stroke:#000000;stroke-width:1;"/><text fill="#000000" font-family="Verdana" font-size="13" lengthAdjust="spacing" textLength="87.769" x="343.1079" y="185.4028">Validate filter</text></g><path d="M15,218.4688 L79.4429,218.4688 L79.4429,225.6016 L69.4429,235.6016 L15,235.6016 L15,218.4688" fill="#FFFFFF" style="stroke:#000000;stroke-width:1;"/><rect fill="none" height="862.0547" style="stroke:#000000;stroke-width:1;" width="1508.6675" x="15" y="218.4688"/><text fill="#000000" font-family="Verdana" font-size="13" font-weight="bold" lengthAdjust="spacing" textLength="19.4429" x="30" y="231.5356">alt</text><text fill="#000000" font-family="Verdana" font-size="11" font-weight="bold" lengthAdjust="spacing" textLength="411.834" x="94.4429" y="230.6792">[filter.Validate == true AND IsRootUserAssociationMode == false]</text><g class="message" data-participant-1="Controller" data-participant-2="Service"><polygon fill="#000000" points="625.3882,252.7344,635.3882,256.7344,625.3882,260.7344,629.3882,256.7344" style="stroke:#000000;stroke-width:1;"/><line style="stroke:#000000;stroke-width:1;" x1="336.1079" x2="631.3882" y1="256.7344" y2="256.7344"/><text fill="#000000" font-family="Verdana" font-size="13" lengthAdjust="spacing" textLength="282.2803" x="343.1079" y="251.6685">GetDangerMonitorWithNoAssociation(filter)</text></g><g class="message" data-participant-1="Service" data-participant-2="Service"><line style="stroke:#000000;stroke-width:1;" x1="647.3882" x2="689.3882" y1="285.8672" y2="285.8672"/><line style="stroke:#000000;stroke-width:1;" x1="689.3882" x2="689.3882" y1="285.8672" y2="298.8672"/><line style="stroke:#000000;stroke-width:1;" x1="648.3882" x2="689.3882" y1="298.8672" y2="298.8672"/><polygon fill="#000000" points="658.3882,294.8672,648.3882,298.8672,658.3882,302.8672,654.3882,298.8672" style="stroke:#000000;stroke-width:1;"/><text fill="#000000" font-family="Verdana" font-size="13" lengthAdjust="spacing" textLength="306.8838" x="654.3882" y="280.8013">GetDangerMonitorInfoWithNoAssociation(filter)</text></g><g class="message" data-participant-1="Service" data-participant-2="Service"><line style="stroke:#000000;stroke-width:1;" x1="647.3882" x2="689.3882" y1="328" y2="328"/><line style="stroke:#000000;stroke-width:1;" x1="689.3882" x2="689.3882" y1="328" y2="341"/><line style="stroke:#000000;stroke-width:1;" x1="648.3882" x2="689.3882" y1="341" y2="341"/><polygon fill="#000000" points="658.3882,337,648.3882,341,658.3882,345,654.3882,341" style="stroke:#000000;stroke-width:1;"/><text fill="#000000" font-family="Verdana" font-size="13" lengthAdjust="spacing" textLength="302.1104" x="654.3882" y="322.9341">Create DangerMonitorSearchMatchInfoCriteria</text></g><path d="M652,354 L652,439 L821,439 L821,364 L811,354 L652,354" fill="#FFFFFF" style="stroke:#000000;stroke-width:1;"/><path d="M811,354 L811,364 L821,364 L811,354" fill="#FFFFFF" style="stroke:#000000;stroke-width:1;"/><text fill="#000000" font-family="Verdana" font-size="13" lengthAdjust="spacing" textLength="105.2632" x="658" y="371.0669">Set parameters:</text><text fill="#000000" font-family="Verdana" font-size="13" lengthAdjust="spacing" textLength="128.5654" x="658" y="386.1997">- FromDate, ToDate</text><text fill="#000000" font-family="Verdana" font-size="13" lengthAdjust="spacing" textLength="148.4907" x="658" y="401.3325">- SportList, BettypeList</text><text fill="#000000" font-family="Verdana" font-size="13" lengthAdjust="spacing" textLength="97.9507" x="658" y="416.4653">- DangerLevels</text><text fill="#000000" font-family="Verdana" font-size="13" lengthAdjust="spacing" textLength="132.1709" x="658" y="431.5981">- UserNameList, etc.</text><g class="message" data-participant-1="Service" data-participant-2="Repository"><polygon fill="#000000" points="966.272,461.7969,976.272,465.7969,966.272,469.7969,970.272,465.7969" style="stroke:#000000;stroke-width:1;"/><line style="stroke:#000000;stroke-width:1;" x1="647.3882" x2="972.272" y1="465.7969" y2="465.7969"/><text fill="#000000" font-family="Verdana" font-size="13" lengthAdjust="spacing" textLength="286.1333" x="654.3882" y="460.731">Fetch&lt;DangerMMTicketInfoEntity&gt;(criteria)</text></g><g class="message" data-participant-1="Repository" data-participant-2="Repository"><line style="stroke:#000000;stroke-width:1;" x1="988.272" x2="1030.272" y1="494.9297" y2="494.9297"/><line style="stroke:#000000;stroke-width:1;" x1="1030.272" x2="1030.272" y1="494.9297" y2="507.9297"/><line style="stroke:#000000;stroke-width:1;" x1="989.272" x2="1030.272" y1="507.9297" y2="507.9297"/><polygon fill="#000000" points="999.272,503.9297,989.272,507.9297,999.272,511.9297,995.272,507.9297" style="stroke:#000000;stroke-width:1;"/><text fill="#000000" font-family="Verdana" font-size="13" lengthAdjust="spacing" textLength="300.2251" x="995.272" y="489.8638">GetSettingKey() = "CTS_MatchTicketInfo_Get"</text></g><g class="message" data-participant-1="Repository" data-participant-2="DB"><polygon fill="#000000" points="1300.4971,533.0625,1310.4971,537.0625,1300.4971,541.0625,1304.4971,537.0625" style="stroke:#000000;stroke-width:1;"/><line style="stroke:#000000;stroke-width:1;" x1="988.272" x2="1306.4971" y1="537.0625" y2="537.0625"/><text fill="#000000" font-family="Verdana" font-size="13" lengthAdjust="spacing" textLength="233.9429" x="995.272" y="531.9966">EXEC CTS_MatchTicketInfo_Get [SP]</text></g><path d="M1327,550.0625 L1327,635.0625 L1513,635.0625 L1513,560.0625 L1503,550.0625 L1327,550.0625" fill="#FFFFFF" style="stroke:#000000;stroke-width:1;"/><path d="M1503,550.0625 L1503,560.0625 L1513,560.0625 L1503,550.0625" fill="#FFFFFF" style="stroke:#000000;stroke-width:1;"/><text fill="#000000" font-family="Verdana" font-size="13" lengthAdjust="spacing" textLength="117.5269" x="1333" y="567.1294">Stored Procedure:</text><text fill="#000000" font-family="Verdana" font-size="13" lengthAdjust="spacing" textLength="165.0327" x="1333" y="582.2622">CTS_MatchTicketInfo_Get</text><text fill="#000000" font-family="Verdana" font-size="13" lengthAdjust="spacing" textLength="145.7422" x="1333" y="597.395">@FromDate, @ToDate</text><text fill="#000000" font-family="Verdana" font-size="13" lengthAdjust="spacing" textLength="165.6675" x="1333" y="612.5278">@SportList, @BettypeList</text><text fill="#000000" font-family="Verdana" font-size="13" lengthAdjust="spacing" textLength="134.7671" x="1333" y="627.6606">@DangerLevels, etc.</text><g class="message" data-participant-1="DB" data-participant-2="Repository"><polygon fill="#000000" points="999.272,657.8594,989.272,661.8594,999.272,665.8594,995.272,661.8594" style="stroke:#000000;stroke-width:1;"/><line style="stroke:#000000;stroke-width:1;stroke-dasharray:2,2;" x1="993.272" x2="1316.4971" y1="661.8594" y2="661.8594"/><text fill="#000000" font-family="Verdana" font-size="13" lengthAdjust="spacing" textLength="110.1826" x="1005.272" y="656.7935">Return ResultSet</text></g><g class="message" data-participant-1="Repository" data-participant-2="Service"><polygon fill="#000000" points="658.3882,686.9922,648.3882,690.9922,658.3882,694.9922,654.3882,690.9922" style="stroke:#000000;stroke-width:1;"/><line style="stroke:#000000;stroke-width:1;stroke-dasharray:2,2;" x1="652.3882" x2="982.272" y1="690.9922" y2="690.9922"/><text fill="#000000" font-family="Verdana" font-size="13" lengthAdjust="spacing" textLength="276.269" x="664.3882" y="685.9263">IEnumerable&lt;DangerMMTicketInfoEntity&gt;</text></g><g class="message" data-participant-1="Service" data-participant-2="Service"><line style="stroke:#000000;stroke-width:1;" x1="647.3882" x2="689.3882" y1="720.125" y2="720.125"/><line style="stroke:#000000;stroke-width:1;" x1="689.3882" x2="689.3882" y1="720.125" y2="733.125"/><line style="stroke:#000000;stroke-width:1;" x1="648.3882" x2="689.3882" y1="733.125" y2="733.125"/><polygon fill="#000000" points="658.3882,729.125,648.3882,733.125,658.3882,737.125,654.3882,733.125" style="stroke:#000000;stroke-width:1;"/><text fill="#000000" font-family="Verdana" font-size="13" lengthAdjust="spacing" textLength="221.9521" x="654.3882" y="715.0591">Map to DangerMMTicketInfoModel</text></g><g class="message" data-participant-1="Service" data-participant-2="Service"><line style="stroke:#000000;stroke-width:1;" x1="647.3882" x2="689.3882" y1="762.2578" y2="762.2578"/><line style="stroke:#000000;stroke-width:1;" x1="689.3882" x2="689.3882" y1="762.2578" y2="775.2578"/><line style="stroke:#000000;stroke-width:1;" x1="648.3882" x2="689.3882" y1="775.2578" y2="775.2578"/><polygon fill="#000000" points="658.3882,771.2578,648.3882,775.2578,658.3882,779.2578,654.3882,775.2578" style="stroke:#000000;stroke-width:1;"/><text fill="#000000" font-family="Verdana" font-size="13" lengthAdjust="spacing" textLength="278.916" x="654.3882" y="757.1919">MappingDangerMonitorWithSportBettype()</text></g><g class="message" data-participant-1="Service" data-participant-2="Service"><line style="stroke:#000000;stroke-width:1;" x1="647.3882" x2="689.3882" y1="804.3906" y2="804.3906"/><line style="stroke:#000000;stroke-width:1;" x1="689.3882" x2="689.3882" y1="804.3906" y2="817.3906"/><line style="stroke:#000000;stroke-width:1;" x1="648.3882" x2="689.3882" y1="817.3906" y2="817.3906"/><polygon fill="#000000" points="658.3882,813.3906,648.3882,817.3906,658.3882,821.3906,654.3882,817.3906" style="stroke:#000000;stroke-width:1;"/><text fill="#000000" font-family="Verdana" font-size="13" lengthAdjust="spacing" textLength="178.8516" x="654.3882" y="799.3247">Join with SportBettype data</text></g><g class="message" data-participant-1="Service" data-participant-2="Controller"><polygon fill="#000000" points="347.1079,842.5234,337.1079,846.5234,347.1079,850.5234,343.1079,846.5234" style="stroke:#000000;stroke-width:1;"/><line style="stroke:#000000;stroke-width:1;stroke-dasharray:2,2;" x1="341.1079" x2="641.3882" y1="846.5234" y2="846.5234"/><text fill="#000000" font-family="Verdana" font-size="13" lengthAdjust="spacing" textLength="231.3149" x="353.1079" y="841.4575">GetDangerMonitorResultViewModel</text></g><g class="message" data-participant-1="Controller" data-participant-2="Controller"><line style="stroke:#000000;stroke-width:1;" x1="336.1079" x2="378.1079" y1="875.6563" y2="875.6563"/><line style="stroke:#000000;stroke-width:1;" x1="378.1079" x2="378.1079" y1="875.6563" y2="888.6563"/><line style="stroke:#000000;stroke-width:1;" x1="337.1079" x2="378.1079" y1="888.6563" y2="888.6563"/><polygon fill="#000000" points="347.1079,884.6563,337.1079,888.6563,347.1079,892.6563,343.1079,888.6563" style="stroke:#000000;stroke-width:1;"/><text fill="#000000" font-family="Verdana" font-size="13" lengthAdjust="spacing" textLength="180.9082" x="343.1079" y="870.5903">OrderDangerMonitorItems()</text></g><path d="M341,901.6563 L341,1001.6563 L486,1001.6563 L486,911.6563 L476,901.6563 L341,901.6563" fill="#FFFFFF" style="stroke:#000000;stroke-width:1;"/><path d="M476,901.6563 L476,911.6563 L486,911.6563 L476,901.6563" fill="#FFFFFF" style="stroke:#000000;stroke-width:1;"/><text fill="#000000" font-family="Verdana" font-size="13" lengthAdjust="spacing" textLength="61.6294" x="347" y="918.7231">Order by:</text><text fill="#000000" font-family="Verdana" font-size="13" lengthAdjust="spacing" textLength="104.5015" x="347" y="933.856">1. MatchSection</text><text fill="#000000" font-family="Verdana" font-size="13" lengthAdjust="spacing" textLength="124.5347" x="347" y="948.9888">2. EventDate DESC</text><text fill="#000000" font-family="Verdana" font-size="13" lengthAdjust="spacing" textLength="109.7319" x="347" y="964.1216">3. MatchID DESC</text><text fill="#000000" font-family="Verdana" font-size="13" lengthAdjust="spacing" textLength="81.4341" x="347" y="979.2544">4. BettypeID</text><text fill="#000000" font-family="Verdana" font-size="13" lengthAdjust="spacing" textLength="52.3936" x="347" y="994.3872">5. BetID</text><g class="message" data-participant-1="Controller" data-participant-2="User"><polygon fill="#000000" points="54.9551,1024.5859,44.9551,1028.5859,54.9551,1032.5859,50.9551,1028.5859" style="stroke:#000000;stroke-width:1;"/><line style="stroke:#000000;stroke-width:1;stroke-dasharray:2,2;" x1="48.9551" x2="325.1079" y1="1028.5859" y2="1028.5859"/><text fill="#000000" font-family="Verdana" font-size="13" lengthAdjust="spacing" textLength="258.1528" x="60.9551" y="1023.52">JSON Response { data: { Items: [...] } }</text></g><line style="stroke:#000000;stroke-width:1;stroke-dasharray:2,2;" x1="15" x2="1523.6675" y1="1037.5859" y2="1037.5859"/><text fill="#000000" font-family="Verdana" font-size="11" font-weight="bold" lengthAdjust="spacing" textLength="152.2759" x="20" y="1047.7964">[filter.Validate == false]</text><g class="message" data-participant-1="Controller" data-participant-2="User"><polygon fill="#000000" points="54.9551,1068.5234,44.9551,1072.5234,54.9551,1076.5234,50.9551,1072.5234" style="stroke:#000000;stroke-width:1;"/><line style="stroke:#000000;stroke-width:1;stroke-dasharray:2,2;" x1="48.9551" x2="325.1079" y1="1072.5234" y2="1072.5234"/><text fill="#000000" font-family="Verdana" font-size="13" lengthAdjust="spacing" textLength="245.7559" x="60.9551" y="1067.4575">JSON Response { data: { Items: [] } }</text></g><!--SRC=[ZLNRRjf047ttLqnv8bAnrDiBQY829XLj86bCqqeXYZRs0AkQNNSz4A4g_zvPO_0LL1xOsyoPcJCNlw4bhX3YI4ZbaAG8mHDgWGR6MadI1dmK9bX21oOQBfD41rAGr8hVG-J7FsjK0Ij9iJ1YvJWYi4e_4ZHEB0p9GCP24RHsg1deJ0sq8gEZ24qBH0BvyQIMZsOZ0qnLidrPVc0aeP4YUvofzXt6Eh7QsxDKBJyxeI3nB1A4bl_zEiL3jk5bjwcqrtSS6mjqBWe-Tk7snf_25wIIV-svZDZwcUL0RWHXCImdtrV1xaKaGok-qtT4HDdMFJoTdmEPDSBbn8DHSgSrMRSA-KZJmL9p4INe0F_A1ZD6kZMlVqfQJdG1wH261Jc4igVRNgP_sSL9x96QwzFuJIW3WzPY2MbNXMD1mTA2xlESOYZDqaOkbWHwdiFuIC358LR8eabtfZfmPVIAyujlOQhjQk_yM1kwbWczXJuIRMEq1_koS-0QDnWbzcmPdp3SJXWfS1lPo2ki2rSijVoSHJAUok0talL_gBZNjXVj88kZGdQXI0yMyhkg4MQTOoMf5jzmspw3S-w3gV-KafMRV6AnLWEIr-_2yDTm04TquC6_VIoxnrrHvztY-0oA8TmQ7M2uDiYa7q6TgLwUZDu-6xr2CdgbRFIAoIYGx_MXKw7Z3cbj52_9EhB4f78XLhslKL4imT5GhLTen7E4nxDN1MxAMbDzZqKCfA6EQtiuEgKMSuvhpPjobf7LFjvLNxLKyCBoK5G0EmJBEfNfLEtf7Q_t4bzoTmiarER4yRbtOq8qvNb1k4go6ChLLTE3vorNrpiNqkBoCR2ZPQRUkp3Se28lpVJG7ypKXqncv6KN7zrzfu-ycVgKdaPUpLdsrdOyC-VVJ6mvnLhnn-9lIbcNrzJRBZouhli8h_3gS6bYq-Hkdid_ZP-1gz0fy9mZ_GC0]--></g></svg>