<svg xmlns="http://www.w3.org/2000/svg" xmlns:xlink="http://www.w3.org/1999/xlink" contentStyleType="text/css" data-diagram-type="DESCRIPTION" height="1336px" preserveAspectRatio="none" style="width:2211px;height:1336px;background:#FFFFFF;" version="1.1" viewBox="0 0 2211 1336" width="2211px" zoomAndPan="magnify"><title>Danger Monitor - Component Architecture Diagram</title><defs/><g><g class="title" data-source-line="2"><text fill="#000000" font-family="Verdana" font-size="22" font-weight="bold" lengthAdjust="spacing" textLength="635.7764" x="783.3539" y="35.4209">Danger Monitor - Component Architecture Diagram</text></g><!--cluster Presentation Layer--><g class="cluster" data-entity="Presentation Layer" data-source-line="4" data-uid="ent0002" id="cluster_Presentation Layer"><path d="M511.5,57.6094 L662.9385,57.6094 A3.75,3.75 0 0 1 665.4385,60.1094 L672.4385,79.9063 L752.5,79.9063 A2.5,2.5 0 0 1 755,82.4063 L755,398.9994 A2.5,2.5 0 0 1 752.5,401.4994 L511.5,401.4994 A2.5,2.5 0 0 1 509,398.9994 L509,60.1094 A2.5,2.5 0 0 1 511.5,57.6094" fill="#FFFFFF" style="stroke:#000000;stroke-width:1;"/><line style="stroke:#000000;stroke-width:1;" x1="509" x2="672.4385" y1="79.9063" y2="79.9063"/><text fill="#000000" font-family="Verdana" font-size="14" font-weight="bold" lengthAdjust="spacing" textLength="150.4385" x="513" y="72.6045">Presentation Layer</text></g><!--cluster Business Logic Layer--><g class="cluster" data-entity="Business Logic Layer" data-source-line="10" data-uid="ent0006" id="cluster_Business Logic Layer"><path d="M422.5,450.4994 L588.6973,450.4994 A3.75,3.75 0 0 1 591.1973,452.9994 L598.1973,472.7963 L920.5,472.7963 A2.5,2.5 0 0 1 923,475.2963 L923,689.5894 A2.5,2.5 0 0 1 920.5,692.0894 L422.5,692.0894 A2.5,2.5 0 0 1 420,689.5894 L420,452.9994 A2.5,2.5 0 0 1 422.5,450.4994" fill="#FFFFFF" style="stroke:#000000;stroke-width:1;"/><line style="stroke:#000000;stroke-width:1;" x1="420" x2="598.1973" y1="472.7963" y2="472.7963"/><text fill="#000000" font-family="Verdana" font-size="14" font-weight="bold" lengthAdjust="spacing" textLength="165.1973" x="424" y="465.4945">Business Logic Layer</text></g><!--cluster Data Access Layer--><g class="cluster" data-entity="Data Access Layer" data-source-line="17" data-uid="ent0011" id="cluster_Data Access Layer"><path d="M805.5,741.0894 L950.9434,741.0894 A3.75,3.75 0 0 1 953.4434,743.5894 L960.4434,763.3863 L1671.5,763.3863 A2.5,2.5 0 0 1 1674,765.8863 L1674,1082.4794 A2.5,2.5 0 0 1 1671.5,1084.9794 L805.5,1084.9794 A2.5,2.5 0 0 1 803,1082.4794 L803,743.5894 A2.5,2.5 0 0 1 805.5,741.0894" fill="#FFFFFF" style="stroke:#000000;stroke-width:1;"/><line style="stroke:#000000;stroke-width:1;" x1="803" x2="960.4434" y1="763.3863" y2="763.3863"/><text fill="#000000" font-family="Verdana" font-size="14" font-weight="bold" lengthAdjust="spacing" textLength="144.4434" x="807" y="756.0845">Data Access Layer</text></g><!--cluster Database Layer--><g class="cluster" data-entity="Database Layer" data-source-line="24" data-uid="ent0016" id="cluster_Database Layer"><path d="M13.5,1133.9794 L137.7725,1133.9794 A3.75,3.75 0 0 1 140.2725,1136.4794 L147.2725,1156.2763 L1550.5,1156.2763 A2.5,2.5 0 0 1 1553,1158.7763 L1553,1326.7794 A2.5,2.5 0 0 1 1550.5,1329.2794 L13.5,1329.2794 A2.5,2.5 0 0 1 11,1326.7794 L11,1136.4794 A2.5,2.5 0 0 1 13.5,1133.9794" fill="#FFFFFF" style="stroke:#000000;stroke-width:1;"/><line style="stroke:#000000;stroke-width:1;" x1="11" x2="147.2725" y1="1156.2763" y2="1156.2763"/><text fill="#000000" font-family="Verdana" font-size="14" font-weight="bold" lengthAdjust="spacing" textLength="123.2725" x="15" y="1148.9745">Database Layer</text></g><!--cluster SQL Server\n(WASAVerse)--><g class="cluster" data-entity="SQL Server.n.WASAVerse." data-source-line="25" data-uid="ent0017" id="cluster_SQL Server.n.WASAVerse."><path d="M35,1186.9794 C35,1176.9794 782,1176.9794 782,1176.9794 C782,1176.9794 1529,1176.9794 1529,1186.9794 L1529,1295.2794 C1529,1305.2794 782,1305.2794 782,1305.2794 C782,1305.2794 35,1305.2794 35,1295.2794 L35,1186.9794" fill="#FFFFFF" style="stroke:#000000;stroke-width:1;"/><path d="M35,1186.9794 C35,1196.9794 782,1196.9794 782,1196.9794 C782,1196.9794 1529,1196.9794 1529,1186.9794" fill="none" style="stroke:#000000;stroke-width:1;"/><text fill="#000000" font-family="Verdana" font-size="14" font-weight="bold" lengthAdjust="spacing" textLength="87.7871" x="738.1064" y="1211.9745">SQL Server</text><text fill="#000000" font-family="Verdana" font-size="14" font-weight="bold" lengthAdjust="spacing" textLength="105.0547" x="729.4727" y="1228.2714">(WASAVerse)</text></g><!--cluster External Services--><g class="cluster" data-entity="External Services" data-source-line="34" data-uid="ent0023" id="cluster_External Services"><path d="M990.5,594.7994 L1128.8066,594.7994 A3.75,3.75 0 0 1 1131.3066,597.2994 L1138.3066,617.0963 L1306.5,617.0963 A2.5,2.5 0 0 1 1309,619.5963 L1309,689.5894 A2.5,2.5 0 0 1 1306.5,692.0894 L990.5,692.0894 A2.5,2.5 0 0 1 988,689.5894 L988,597.2994 A2.5,2.5 0 0 1 990.5,594.7994" fill="#FFFFFF" style="stroke:#000000;stroke-width:1;"/><line style="stroke:#000000;stroke-width:1;" x1="988" x2="1138.3066" y1="617.0963" y2="617.0963"/><text fill="#000000" font-family="Verdana" font-size="14" font-weight="bold" lengthAdjust="spacing" textLength="137.3066" x="992" y="609.7945">External Services</text></g><!--entity Controller--><g class="entity" data-entity="Controller" data-source-line="5" data-uid="ent0003" id="entity_Controller"><rect fill="#FFFFFF" height="46.2969" rx="2.5" ry="2.5" style="stroke:#000000;stroke-width:1;" width="213.8789" x="525.06" y="339.1994"/><rect fill="#FFFFFF" height="10" style="stroke:#000000;stroke-width:1;" width="15" x="718.9389" y="344.1994"/><rect fill="#FFFFFF" height="2" style="stroke:#000000;stroke-width:1;" width="4" x="716.9389" y="346.1994"/><rect fill="#FFFFFF" height="2" style="stroke:#000000;stroke-width:1;" width="4" x="716.9389" y="350.1994"/><text fill="#000000" font-family="Verdana" font-size="14" lengthAdjust="spacing" textLength="173.8789" x="540.06" y="372.1945">DangerMonitorController</text></g><!--entity Views--><g class="entity" data-entity="Views" data-source-line="6" data-uid="ent0004" id="entity_Views"><rect fill="#FFFFFF" height="46.2969" rx="2.5" ry="2.5" style="stroke:#000000;stroke-width:1;" width="189.9805" x="531.01" y="92.6094"/><rect fill="#FFFFFF" height="10" style="stroke:#000000;stroke-width:1;" width="15" x="700.9905" y="97.6094"/><rect fill="#FFFFFF" height="2" style="stroke:#000000;stroke-width:1;" width="4" x="698.9905" y="99.6094"/><rect fill="#FFFFFF" height="2" style="stroke:#000000;stroke-width:1;" width="4" x="698.9905" y="103.6094"/><text fill="#000000" font-family="Verdana" font-size="14" lengthAdjust="spacing" textLength="149.9805" x="546.01" y="125.6045">DangerMonitor Views</text></g><!--entity JS--><g class="entity" data-entity="JS" data-source-line="7" data-uid="ent0005" id="entity_JS"><rect fill="#FFFFFF" height="46.2969" rx="2.5" ry="2.5" style="stroke:#000000;stroke-width:1;" width="129.2705" x="564.36" y="215.9094"/><rect fill="#FFFFFF" height="10" style="stroke:#000000;stroke-width:1;" width="15" x="673.6305" y="220.9094"/><rect fill="#FFFFFF" height="2" style="stroke:#000000;stroke-width:1;" width="4" x="671.6305" y="222.9094"/><rect fill="#FFFFFF" height="2" style="stroke:#000000;stroke-width:1;" width="4" x="671.6305" y="226.9094"/><text fill="#000000" font-family="Verdana" font-size="14" lengthAdjust="spacing" textLength="89.2705" x="579.36" y="248.9045">JavaScript/UI</text></g><!--entity DMService--><g class="entity" data-entity="DMService" data-source-line="11" data-uid="ent0007" id="entity_DMService"><rect fill="#FFFFFF" height="46.2969" rx="2.5" ry="2.5" style="stroke:#000000;stroke-width:1;" width="196.4473" x="435.78" y="485.4994"/><rect fill="#FFFFFF" height="10" style="stroke:#000000;stroke-width:1;" width="15" x="612.2273" y="490.4994"/><rect fill="#FFFFFF" height="2" style="stroke:#000000;stroke-width:1;" width="4" x="610.2273" y="492.4994"/><rect fill="#FFFFFF" height="2" style="stroke:#000000;stroke-width:1;" width="4" x="610.2273" y="496.4994"/><text fill="#000000" font-family="Verdana" font-size="14" lengthAdjust="spacing" textLength="156.4473" x="450.78" y="518.4945">DangerMonitorService</text></g><!--entity MMService--><g class="entity" data-entity="MMService" data-source-line="12" data-uid="ent0008" id="entity_MMService"><rect fill="#FFFFFF" height="46.2969" rx="2.5" ry="2.5" style="stroke:#000000;stroke-width:1;" width="187.6768" x="436.16" y="629.7994"/><rect fill="#FFFFFF" height="10" style="stroke:#000000;stroke-width:1;" width="15" x="603.8368" y="634.7994"/><rect fill="#FFFFFF" height="2" style="stroke:#000000;stroke-width:1;" width="4" x="601.8368" y="636.7994"/><rect fill="#FFFFFF" height="2" style="stroke:#000000;stroke-width:1;" width="4" x="601.8368" y="640.7994"/><text fill="#000000" font-family="Verdana" font-size="14" lengthAdjust="spacing" textLength="147.6768" x="451.16" y="662.7945">MatchMonitorService</text></g><!--entity AssocService--><g class="entity" data-entity="AssocService" data-source-line="13" data-uid="ent0009" id="entity_AssocService"><rect fill="#FFFFFF" height="46.2969" rx="2.5" ry="2.5" style="stroke:#000000;stroke-width:1;" width="239.4658" x="667.27" y="485.4994"/><rect fill="#FFFFFF" height="10" style="stroke:#000000;stroke-width:1;" width="15" x="886.7358" y="490.4994"/><rect fill="#FFFFFF" height="2" style="stroke:#000000;stroke-width:1;" width="4" x="884.7358" y="492.4994"/><rect fill="#FFFFFF" height="2" style="stroke:#000000;stroke-width:1;" width="4" x="884.7358" y="496.4994"/><text fill="#000000" font-family="Verdana" font-size="14" lengthAdjust="spacing" textLength="199.4658" x="682.27" y="518.4945">AssociationDetectionService</text></g><!--entity CommonService--><g class="entity" data-entity="CommonService" data-source-line="14" data-uid="ent0010" id="entity_CommonService"><rect fill="#FFFFFF" height="46.2969" rx="2.5" ry="2.5" style="stroke:#000000;stroke-width:1;" width="154.7959" x="658.6" y="629.7994"/><rect fill="#FFFFFF" height="10" style="stroke:#000000;stroke-width:1;" width="15" x="793.3959" y="634.7994"/><rect fill="#FFFFFF" height="2" style="stroke:#000000;stroke-width:1;" width="4" x="791.3959" y="636.7994"/><rect fill="#FFFFFF" height="2" style="stroke:#000000;stroke-width:1;" width="4" x="791.3959" y="640.7994"/><text fill="#000000" font-family="Verdana" font-size="14" lengthAdjust="spacing" textLength="114.7959" x="673.6" y="662.7945">CommonService</text></g><!--entity CriteriaService--><g class="entity" data-entity="CriteriaService" data-source-line="18" data-uid="ent0012" id="entity_CriteriaService"><rect fill="#FFFFFF" height="46.2969" rx="2.5" ry="2.5" style="stroke:#000000;stroke-width:1;" width="143.4893" x="819.26" y="776.0894"/><rect fill="#FFFFFF" height="10" style="stroke:#000000;stroke-width:1;" width="15" x="942.7493" y="781.0894"/><rect fill="#FFFFFF" height="2" style="stroke:#000000;stroke-width:1;" width="4" x="940.7493" y="783.0894"/><rect fill="#FFFFFF" height="2" style="stroke:#000000;stroke-width:1;" width="4" x="940.7493" y="787.0894"/><text fill="#000000" font-family="Verdana" font-size="14" lengthAdjust="spacing" textLength="103.4893" x="834.26" y="809.0845">CriteriaService</text></g><!--entity Criteria1--><g class="entity" data-entity="Criteria1" data-source-line="19" data-uid="ent0013" id="entity_Criteria1"><rect fill="#FFFFFF" height="46.2969" rx="2.5" ry="2.5" style="stroke:#000000;stroke-width:1;" width="314.0732" x="1343.96" y="1022.6894"/><rect fill="#FFFFFF" height="10" style="stroke:#000000;stroke-width:1;" width="15" x="1638.0332" y="1027.6894"/><rect fill="#FFFFFF" height="2" style="stroke:#000000;stroke-width:1;" width="4" x="1636.0332" y="1029.6894"/><rect fill="#FFFFFF" height="2" style="stroke:#000000;stroke-width:1;" width="4" x="1636.0332" y="1033.6894"/><text fill="#000000" font-family="Verdana" font-size="14" lengthAdjust="spacing" textLength="274.0732" x="1358.96" y="1055.6845">DangerMonitorSearchMatchInfoCriteria</text></g><!--entity Criteria2--><g class="entity" data-entity="Criteria2" data-source-line="20" data-uid="ent0014" id="entity_Criteria2"><rect fill="#FFFFFF" height="46.2969" rx="2.5" ry="2.5" style="stroke:#000000;stroke-width:1;" width="490.1396" x="818.93" y="1022.6894"/><rect fill="#FFFFFF" height="10" style="stroke:#000000;stroke-width:1;" width="15" x="1289.0696" y="1027.6894"/><rect fill="#FFFFFF" height="2" style="stroke:#000000;stroke-width:1;" width="4" x="1287.0696" y="1029.6894"/><rect fill="#FFFFFF" height="2" style="stroke:#000000;stroke-width:1;" width="4" x="1287.0696" y="1033.6894"/><text fill="#000000" font-family="Verdana" font-size="14" lengthAdjust="spacing" textLength="450.1396" x="833.93" y="1055.6845">DangerMonitorSearchMatchInfoWithAssociationRootUserCriteria</text></g><!--entity ICriteria--><g class="entity" data-entity="ICriteria" data-source-line="21" data-uid="ent0015" id="entity_ICriteria"><rect fill="#FFFFFF" height="46.2969" rx="2.5" ry="2.5" style="stroke:#000000;stroke-width:1;" width="147.6182" x="990.19" y="899.3894"/><rect fill="#FFFFFF" height="10" style="stroke:#000000;stroke-width:1;" width="15" x="1117.8082" y="904.3894"/><rect fill="#FFFFFF" height="2" style="stroke:#000000;stroke-width:1;" width="4" x="1115.8082" y="906.3894"/><rect fill="#FFFFFF" height="2" style="stroke:#000000;stroke-width:1;" width="4" x="1115.8082" y="910.3894"/><text fill="#000000" font-family="Verdana" font-size="14" lengthAdjust="spacing" textLength="107.6182" x="1005.19" y="932.3845">ICriteriaService</text></g><!--entity SP1--><g class="entity" data-entity="SP1" data-source-line="26" data-uid="ent0018" id="entity_SP1"><rect fill="#FFFFFF" height="46.2969" rx="2.5" ry="2.5" style="stroke:#000000;stroke-width:1;" width="217.7275" x="1295.14" y="1242.9794"/><rect fill="#FFFFFF" height="10" style="stroke:#000000;stroke-width:1;" width="15" x="1492.8675" y="1247.9794"/><rect fill="#FFFFFF" height="2" style="stroke:#000000;stroke-width:1;" width="4" x="1490.8675" y="1249.9794"/><rect fill="#FFFFFF" height="2" style="stroke:#000000;stroke-width:1;" width="4" x="1490.8675" y="1253.9794"/><text fill="#000000" font-family="Verdana" font-size="14" lengthAdjust="spacing" textLength="177.7275" x="1310.14" y="1275.9745">CTS_MatchTicketInfo_Get</text></g><!--entity SP2--><g class="entity" data-entity="SP2" data-source-line="27" data-uid="ent0019" id="entity_SP2"><rect fill="#FFFFFF" height="46.2969" rx="2.5" ry="2.5" style="stroke:#000000;stroke-width:1;" width="311.7354" x="948.13" y="1242.9794"/><rect fill="#FFFFFF" height="10" style="stroke:#000000;stroke-width:1;" width="15" x="1239.8654" y="1247.9794"/><rect fill="#FFFFFF" height="2" style="stroke:#000000;stroke-width:1;" width="4" x="1237.8654" y="1249.9794"/><rect fill="#FFFFFF" height="2" style="stroke:#000000;stroke-width:1;" width="4" x="1237.8654" y="1253.9794"/><text fill="#000000" font-family="Verdana" font-size="14" lengthAdjust="spacing" textLength="271.7354" x="963.13" y="1275.9745">CTS_MatchTicketInfo_Associations_Get</text></g><!--entity SP3--><g class="entity" data-entity="SP3" data-source-line="28" data-uid="ent0020" id="entity_SP3"><rect fill="#FFFFFF" height="46.2969" rx="2.5" ry="2.5" style="stroke:#000000;stroke-width:1;" width="293.3262" x="51.34" y="1242.9794"/><rect fill="#FFFFFF" height="10" style="stroke:#000000;stroke-width:1;" width="15" x="324.6662" y="1247.9794"/><rect fill="#FFFFFF" height="2" style="stroke:#000000;stroke-width:1;" width="4" x="322.6662" y="1249.9794"/><rect fill="#FFFFFF" height="2" style="stroke:#000000;stroke-width:1;" width="4" x="322.6662" y="1253.9794"/><text fill="#000000" font-family="Verdana" font-size="14" lengthAdjust="spacing" textLength="253.3262" x="66.34" y="1275.9745">CTS_MatchMonitor_Details_GetFilter</text></g><!--entity SP4--><g class="entity" data-entity="SP4" data-source-line="29" data-uid="ent0021" id="entity_SP4"><rect fill="#FFFFFF" height="46.2969" rx="2.5" ry="2.5" style="stroke:#000000;stroke-width:1;" width="299.9844" x="380.01" y="1242.9794"/><rect fill="#FFFFFF" height="10" style="stroke:#000000;stroke-width:1;" width="15" x="659.9944" y="1247.9794"/><rect fill="#FFFFFF" height="2" style="stroke:#000000;stroke-width:1;" width="4" x="657.9944" y="1249.9794"/><rect fill="#FFFFFF" height="2" style="stroke:#000000;stroke-width:1;" width="4" x="657.9944" y="1253.9794"/><text fill="#000000" font-family="Verdana" font-size="14" lengthAdjust="spacing" textLength="259.9844" x="395.01" y="1275.9745">CTS_MatchMonitor_Details_GetTicket</text></g><!--entity SP5--><g class="entity" data-entity="SP5" data-source-line="30" data-uid="ent0022" id="entity_SP5"><rect fill="#FFFFFF" height="46.2969" rx="2.5" ry="2.5" style="stroke:#000000;stroke-width:1;" width="198.0127" x="714.99" y="1242.9794"/><rect fill="#FFFFFF" height="10" style="stroke:#000000;stroke-width:1;" width="15" x="893.0027" y="1247.9794"/><rect fill="#FFFFFF" height="2" style="stroke:#000000;stroke-width:1;" width="4" x="891.0027" y="1249.9794"/><rect fill="#FFFFFF" height="2" style="stroke:#000000;stroke-width:1;" width="4" x="891.0027" y="1253.9794"/><text fill="#000000" font-family="Verdana" font-size="14" lengthAdjust="spacing" textLength="158.0127" x="729.99" y="1275.9745">CTS_Sportbettype_Get</text></g><!--entity API--><g class="entity" data-entity="API" data-source-line="35" data-uid="ent0024" id="entity_API"><rect fill="#FFFFFF" height="46.2969" rx="2.5" ry="2.5" style="stroke:#000000;stroke-width:1;" width="109.002" x="1183.5" y="629.7994"/><rect fill="#FFFFFF" height="10" style="stroke:#000000;stroke-width:1;" width="15" x="1272.502" y="634.7994"/><rect fill="#FFFFFF" height="2" style="stroke:#000000;stroke-width:1;" width="4" x="1270.502" y="636.7994"/><rect fill="#FFFFFF" height="2" style="stroke:#000000;stroke-width:1;" width="4" x="1270.502" y="640.7994"/><text fill="#000000" font-family="Verdana" font-size="14" lengthAdjust="spacing" textLength="69.002" x="1198.5" y="662.7945">Fanex API</text></g><!--entity Cache--><g class="entity" data-entity="Cache" data-source-line="36" data-uid="ent0025" id="entity_Cache"><rect fill="#FFFFFF" height="46.2969" rx="2.5" ry="2.5" style="stroke:#000000;stroke-width:1;" width="144.9248" x="1003.54" y="629.7994"/><rect fill="#FFFFFF" height="10" style="stroke:#000000;stroke-width:1;" width="15" x="1128.4648" y="634.7994"/><rect fill="#FFFFFF" height="2" style="stroke:#000000;stroke-width:1;" width="4" x="1126.4648" y="636.7994"/><rect fill="#FFFFFF" height="2" style="stroke:#000000;stroke-width:1;" width="4" x="1126.4648" y="640.7994"/><text fill="#000000" font-family="Verdana" font-size="14" lengthAdjust="spacing" textLength="104.9248" x="1018.54" y="662.7945">Memory Cache</text></g><g class="entity" data-entity="GMN45" data-source-line="61" data-uid="ent0046" id="entity_GMN45"><path d="M2077.51,1245.9994 L2077.51,1286.265 L2204.4841,1286.265 L2204.4841,1255.9994 L2194.4841,1245.9994 L2077.51,1245.9994" fill="#FFFFFF" style="stroke:#000000;stroke-width:1;"/><path d="M2194.4841,1245.9994 L2194.4841,1255.9994 L2204.4841,1255.9994 L2194.4841,1245.9994" fill="#FFFFFF" style="stroke:#000000;stroke-width:1;"/><text fill="#000000" font-family="Verdana" font-size="13" lengthAdjust="spacing" textLength="100.3374" x="2083.51" y="1263.0663">Main Search SP</text><text fill="#000000" font-family="Verdana" font-size="13" lengthAdjust="spacing" textLength="105.9741" x="2083.51" y="1278.1991">(No Association)</text></g><g class="entity" data-entity="GMN48" data-source-line="66" data-uid="ent0049" id="entity_GMN48"><path d="M1911.9,1245.9994 L1911.9,1286.265 L2042.0924,1286.265 L2042.0924,1255.9994 L2032.0924,1245.9994 L1911.9,1245.9994" fill="#FFFFFF" style="stroke:#000000;stroke-width:1;"/><path d="M2032.0924,1245.9994 L2032.0924,1255.9994 L2042.0924,1255.9994 L2032.0924,1245.9994" fill="#FFFFFF" style="stroke:#000000;stroke-width:1;"/><text fill="#000000" font-family="Verdana" font-size="13" lengthAdjust="spacing" textLength="96.8843" x="1917.9" y="1263.0663">Search SP with</text><text fill="#000000" font-family="Verdana" font-size="13" lengthAdjust="spacing" textLength="109.1924" x="1917.9" y="1278.1991">Association Data</text></g><g class="entity" data-entity="GMN51" data-source-line="71" data-uid="ent0052" id="entity_GMN51"><path d="M1569.13,1245.9994 L1569.13,1286.265 L1704.8639,1286.265 L1704.8639,1255.9994 L1694.8639,1245.9994 L1569.13,1245.9994" fill="#FFFFFF" style="stroke:#000000;stroke-width:1;"/><path d="M1694.8639,1245.9994 L1694.8639,1255.9994 L1704.8639,1255.9994 L1694.8639,1245.9994" fill="#FFFFFF" style="stroke:#000000;stroke-width:1;"/><text fill="#000000" font-family="Verdana" font-size="13" lengthAdjust="spacing" textLength="114.7339" x="1575.13" y="1263.0663">Get Filter Options</text><text fill="#000000" font-family="Verdana" font-size="13" lengthAdjust="spacing" textLength="96.4907" x="1575.13" y="1278.1991">for Detail Page</text></g><g class="entity" data-entity="GMN54" data-source-line="76" data-uid="ent0055" id="entity_GMN54"><path d="M1739.59,1245.9994 L1739.59,1286.265 L1876.4157,1286.265 L1876.4157,1255.9994 L1866.4157,1245.9994 L1739.59,1245.9994" fill="#FFFFFF" style="stroke:#000000;stroke-width:1;"/><path d="M1866.4157,1245.9994 L1866.4157,1255.9994 L1876.4157,1255.9994 L1866.4157,1245.9994" fill="#FFFFFF" style="stroke:#000000;stroke-width:1;"/><text fill="#000000" font-family="Verdana" font-size="13" lengthAdjust="spacing" textLength="115.8257" x="1745.59" y="1263.0663">Get Ticket Details</text><text fill="#000000" font-family="Verdana" font-size="13" lengthAdjust="spacing" textLength="96.4907" x="1745.59" y="1278.1991">for Detail Page</text></g><!--link JS to Controller--><g class="link" data-entity-1="JS" data-entity-2="Controller" data-source-line="40" data-uid="lnk26" id="link_JS_Controller"><path d="M629.56,262.5794 C630.1,284.3694 630.7611,311.1912 631.3011,332.9412" fill="none" id="JS-to-Controller" style="stroke:#000000;stroke-width:1;"/><polygon fill="#000000" points="631.45,338.9394,635.2254,329.8429,631.3259,333.9409,627.2279,330.0414,631.45,338.9394" style="stroke:#000000;stroke-width:1;"/><text fill="#000000" font-family="Verdana" font-size="13" lengthAdjust="spacing" textLength="97.792" x="631" y="305.2663">HTTP Requests</text></g><!--link Views to JS--><g class="link" data-entity-1="Views" data-entity-2="JS" data-source-line="41" data-uid="lnk27" id="link_Views_JS"><path d="M626.56,139.2894 C627.1,161.0694 627.761,187.9012 628.301,209.6412" fill="none" id="Views-to-JS" style="stroke:#000000;stroke-width:1;"/><polygon fill="#000000" points="628.45,215.6394,632.2253,206.5428,628.3258,210.6409,624.2278,206.7415,628.45,215.6394" style="stroke:#000000;stroke-width:1;"/><text fill="#000000" font-family="Verdana" font-size="13" lengthAdjust="spacing" textLength="111.0649" x="628" y="181.9763">User Interactions</text></g><!--link Controller to DMService--><g class="link" data-entity-1="Controller" data-entity-2="DMService" data-source-line="42" data-uid="lnk28" id="link_Controller_DMService"><path d="M613.16,385.7994 C605.4,395.3594 596.49,406.7694 589,417.4994 C573.36,439.8994 560.2991,461.5627 549.5991,480.1027" fill="none" id="Controller-to-DMService" style="stroke:#000000;stroke-width:1;"/><polygon fill="#000000" points="546.6,485.2994,554.5631,479.5038,549.0993,480.9688,547.6343,475.505,546.6,485.2994" style="stroke:#000000;stroke-width:1;"/><text fill="#000000" font-family="Verdana" font-size="13" lengthAdjust="spacing" textLength="95.6655" x="590" y="430.5663">Business Logic</text></g><!--link Controller to MMService--><g class="link" data-entity-1="Controller" data-entity-2="MMService" data-source-line="43" data-uid="lnk29" id="link_Controller_MMService"><path d="M524.88,378.5694 C451.26,391.4694 362.82,412.6694 340,442.4994 C315.89,474.0194 320.85,497.0294 340,531.7994 C366.17,579.3094 414.4251,608.2859 458.1051,627.0059" fill="none" id="Controller-to-MMService" style="stroke:#000000;stroke-width:1;"/><polygon fill="#000000" points="463.62,629.3694,456.9234,622.1475,459.0243,627.3998,453.772,629.5007,463.62,629.3694" style="stroke:#000000;stroke-width:1;"/><text fill="#000000" font-family="Verdana" font-size="13" lengthAdjust="spacing" textLength="76.6353" x="341" y="513.2163">Detail Logic</text></g><!--link Controller to AssocService--><g class="link" data-entity-1="Controller" data-entity-2="AssocService" data-source-line="44" data-uid="lnk30" id="link_Controller_AssocService"><path d="M656.22,385.8994 C685.25,412.9294 729.2275,453.872 758.3075,480.932" fill="none" id="Controller-to-AssocService" style="stroke:#000000;stroke-width:1;"/><polygon fill="#000000" points="762.7,485.0194,758.8362,475.9601,759.0396,481.6133,753.3864,481.8167,762.7,485.0194" style="stroke:#000000;stroke-width:1;"/><text fill="#000000" font-family="Verdana" font-size="13" lengthAdjust="spacing" textLength="141.3052" x="705" y="430.5663">Association Detection</text></g><!--link DMService to CommonService--><g class="link" data-entity-1="DMService" data-entity-2="CommonService" data-source-line="45" data-uid="lnk31" id="link_DMService_CommonService"><path d="M632.52,529.7394 C653.12,537.2894 673.55,547.6394 690,561.7994 C710.77,579.6794 721.453,603.534 728.083,623.904" fill="none" id="DMService-to-CommonService" style="stroke:#000000;stroke-width:1;"/><polygon fill="#000000" points="729.94,629.6094,730.9581,619.8133,728.3925,624.8549,723.3509,622.2893,729.94,629.6094" style="stroke:#000000;stroke-width:1;"/><text fill="#000000" font-family="Verdana" font-size="13" lengthAdjust="spacing" textLength="134.1514" x="705" y="574.8663">Common Operations</text></g><!--link DMService to MMService--><g class="link" data-entity-1="DMService" data-entity-2="MMService" data-source-line="46" data-uid="lnk32" id="link_DMService_MMService"><path d="M524.43,532.0594 C521.05,541.1194 517.68,551.7794 516,561.7994 C512.15,584.7594 515.7222,605.2916 520.8322,623.5416" fill="none" id="DMService-to-MMService" style="stroke:#000000;stroke-width:1;"/><polygon fill="#000000" points="522.45,629.3194,523.8752,619.5742,521.1019,624.5046,516.1715,621.7312,522.45,629.3194" style="stroke:#000000;stroke-width:1;"/><text fill="#000000" font-family="Verdana" font-size="13" lengthAdjust="spacing" textLength="168.8159" x="517" y="574.8663">Match Monitor Operations</text></g><!--link DMService to Cache--><g class="link" data-entity-1="DMService" data-entity-2="Cache" data-source-line="47" data-uid="lnk33" id="link_DMService_Cache"><path d="M632.63,529.0094 C638.5,529.9894 644.32,530.9294 650,531.7994 C766.75,549.5494 801.56,525.7194 914,561.7994 C962.58,577.3794 1008.1282,604.8606 1039.5682,626.1006" fill="none" id="DMService-to-Cache" style="stroke:#000000;stroke-width:1;"/><polygon fill="#000000" points="1044.54,629.4594,1039.3215,621.1067,1040.3969,626.6604,1034.8431,627.7357,1044.54,629.4594" style="stroke:#000000;stroke-width:1;"/><text fill="#000000" font-family="Verdana" font-size="13" lengthAdjust="spacing" textLength="116.0288" x="957" y="574.8663">Cache Operations</text></g><!--link DMService to CriteriaService--><g class="link" data-entity-1="DMService" data-entity-2="CriteriaService" data-source-line="48" data-uid="lnk34" id="link_DMService_CriteriaService"><path d="M632.68,528.7494 C638.53,529.8094 644.34,530.8294 650,531.7994 C693.86,539.2994 816.07,530.7994 848,561.7994 C907.12,619.1994 901.376,722.8085 895.316,769.8885" fill="none" id="DMService-to-CriteriaService" style="stroke:#000000;stroke-width:1;"/><polygon fill="#000000" points="894.55,775.8394,899.6662,767.4237,895.1883,770.8803,891.7317,766.4024,894.55,775.8394" style="stroke:#000000;stroke-width:1;"/><text fill="#000000" font-family="Verdana" font-size="13" lengthAdjust="spacing" textLength="79.9043" x="898" y="657.5063">Data Access</text></g><!--link MMService to CriteriaService--><g class="link" data-entity-1="MMService" data-entity-2="CriteriaService" data-source-line="49" data-uid="lnk35" id="link_MMService_CriteriaService"><path d="M583.83,676.5794 C601.96,684.1294 622.33,692.5494 641,700.0894 C706.39,726.5194 776.1859,753.8101 826.9359,773.4901" fill="none" id="MMService-to-CriteriaService" style="stroke:#000000;stroke-width:1;"/><polygon fill="#000000" points="832.53,775.6594,825.585,768.676,827.8682,773.8516,822.6926,776.1348,832.53,775.6594" style="stroke:#000000;stroke-width:1;"/><text fill="#000000" font-family="Verdana" font-size="13" lengthAdjust="spacing" textLength="79.9043" x="703" y="721.1563">Data Access</text></g><!--link CriteriaService to ICriteria--><g class="link" data-entity-1="CriteriaService" data-entity-2="ICriteria" data-source-line="50" data-uid="lnk36" id="link_CriteriaService_ICriteria"><path d="M923.13,822.7694 C954.11,844.4894 995.8171,873.7351 1026.8271,895.4751" fill="none" id="CriteriaService-to-ICriteria" style="stroke:#000000;stroke-width:1;"/><polygon fill="#000000" points="1031.74,898.9194,1026.6668,890.4777,1027.6459,896.0491,1022.0744,897.0282,1031.74,898.9194" style="stroke:#000000;stroke-width:1;"/><text fill="#000000" font-family="Verdana" font-size="13" lengthAdjust="spacing" textLength="58.2017" x="988" y="865.4563">Interface</text></g><!--link ICriteria to Criteria1--><g class="link" data-entity-1="ICriteria" data-entity-2="Criteria1" data-source-line="51" data-uid="lnk37" id="link_ICriteria_Criteria1"><path d="M1138.13,944.1094 C1216.18,965.7794 1332.9186,998.1847 1413.6586,1020.5947" fill="none" id="ICriteria-to-Criteria1" style="stroke:#000000;stroke-width:1;"/><polygon fill="#000000" points="1419.44,1022.1994,1411.8376,1015.9381,1414.6221,1020.8621,1409.6981,1023.6466,1419.44,1022.1994" style="stroke:#000000;stroke-width:1;"/><text fill="#000000" font-family="Verdana" font-size="13" lengthAdjust="spacing" textLength="103.2256" x="1309" y="988.7563">Implementation</text></g><!--link ICriteria to Criteria2--><g class="link" data-entity-1="ICriteria" data-entity-2="Criteria2" data-source-line="52" data-uid="lnk38" id="link_ICriteria_Criteria2"><path d="M1064,946.0694 C1064,967.8594 1064,994.6794 1064,1016.4194" fill="none" id="ICriteria-to-Criteria2" style="stroke:#000000;stroke-width:1;"/><polygon fill="#000000" points="1064,1022.4194,1068,1013.4194,1064,1017.4194,1060,1013.4194,1064,1022.4194" style="stroke:#000000;stroke-width:1;"/><text fill="#000000" font-family="Verdana" font-size="13" lengthAdjust="spacing" textLength="103.2256" x="1065" y="988.7563">Implementation</text></g><!--link Criteria1 to SP1--><g class="link" data-entity-1="Criteria1" data-entity-2="SP1" data-source-line="53" data-uid="lnk39" id="link_Criteria1_SP1"><path d="M1490.98,1069.3694 C1472.35,1111.3094 1434.9973,1195.3867 1416.3973,1237.2267" fill="none" id="Criteria1-to-SP1" style="stroke:#000000;stroke-width:1;"/><polygon fill="#000000" points="1413.96,1242.7094,1421.2711,1236.1103,1415.9911,1238.1405,1413.9609,1232.8605,1413.96,1242.7094" style="stroke:#000000;stroke-width:1;"/><text fill="#000000" font-family="Verdana" font-size="13" lengthAdjust="spacing" textLength="52.3872" x="1475" y="1114.0463">Execute</text></g><!--link Criteria2 to SP2--><g class="link" data-entity-1="Criteria2" data-entity-2="SP2" data-source-line="54" data-uid="lnk40" id="link_Criteria2_SP2"><path d="M1068.13,1069.3694 C1075.81,1111.3094 1091.1381,1194.9677 1098.8081,1236.8077" fill="none" id="Criteria2-to-SP2" style="stroke:#000000;stroke-width:1;"/><polygon fill="#000000" points="1099.89,1242.7094,1102.2016,1233.1356,1098.9884,1237.7913,1094.3327,1234.5781,1099.89,1242.7094" style="stroke:#000000;stroke-width:1;"/><text fill="#000000" font-family="Verdana" font-size="13" lengthAdjust="spacing" textLength="52.3872" x="1077" y="1114.0463">Execute</text></g><!--link MMService to SP3--><g class="link" data-entity-1="MMService" data-entity-2="SP3" data-source-line="55" data-uid="lnk41" id="link_MMService_SP3"><path d="M435.95,674.3094 C373.14,694.0794 302,731.2494 302,798.2394 C302,798.2394 302,798.2394 302,1046.8294 C302,1124.9194 250.8291,1200.0689 220.8091,1237.9089" fill="none" id="MMService-to-SP3" style="stroke:#000000;stroke-width:1;"/><polygon fill="#000000" points="217.08,1242.6094,225.8072,1238.0447,220.1875,1238.6923,219.5399,1233.0727,217.08,1242.6094" style="stroke:#000000;stroke-width:1;"/><text fill="#000000" font-family="Verdana" font-size="13" lengthAdjust="spacing" textLength="52.3872" x="303" y="927.1063">Execute</text></g><!--link MMService to SP4--><g class="link" data-entity-1="MMService" data-entity-2="SP4" data-source-line="56" data-uid="lnk42" id="link_MMService_SP4"><path d="M530,676.4394 C530,704.8294 530,755.1494 530,798.2394 C530,798.2394 530,798.2394 530,1046.8294 C530,1118.2694 530,1196.8594 530,1236.4994" fill="none" id="MMService-to-SP4" style="stroke:#000000;stroke-width:1;"/><polygon fill="#000000" points="530,1242.4994,534,1233.4994,530,1237.4994,526,1233.4994,530,1242.4994" style="stroke:#000000;stroke-width:1;"/><text fill="#000000" font-family="Verdana" font-size="13" lengthAdjust="spacing" textLength="52.3872" x="531" y="927.1063">Execute</text></g><!--link CommonService to SP5--><g class="link" data-entity-1="CommonService" data-entity-2="SP5" data-source-line="57" data-uid="lnk43" id="link_CommonService_SP5"><path d="M735.24,676.4394 C734.35,704.8194 733,755.1394 733,798.2394 C733,798.2394 733,798.2394 733,1046.8294 C733,1122.4294 773.1146,1198.9255 796.4146,1237.4455" fill="none" id="CommonService-to-SP5" style="stroke:#000000;stroke-width:1;"/><polygon fill="#000000" points="799.52,1242.5794,798.2845,1232.8083,796.9322,1238.3011,791.4394,1236.9488,799.52,1242.5794" style="stroke:#000000;stroke-width:1;"/><text fill="#000000" font-family="Verdana" font-size="13" lengthAdjust="spacing" textLength="52.3872" x="734" y="927.1063">Execute</text></g><!--link Controller to API--><g class="link" data-entity-1="Controller" data-entity-2="API" data-source-line="58" data-uid="lnk44" id="link_Controller_API"><path d="M735.92,385.9894 C773.67,394.8894 816.5,405.7894 855,417.4994 C1005.56,463.2894 1039.36,493.3594 1166,586.7994 C1183.63,599.8094 1197.6031,612.2427 1211.3331,625.4327" fill="none" id="Controller-to-API" style="stroke:#000000;stroke-width:1;"/><polygon fill="#000000" points="1215.66,629.5894,1211.9408,620.4697,1212.0543,626.1255,1206.3986,626.2389,1215.66,629.5894" style="stroke:#000000;stroke-width:1;"/><text fill="#000000" font-family="Verdana" font-size="13" lengthAdjust="spacing" textLength="124.979" x="1090" y="513.2163">API Calls (Optional)</text></g><!--link SP1 to GMN45--><g class="link" data-entity-1="SP1" data-entity-2="GMN45" data-source-line="61" data-uid="lnk47" id="link_SP1_GMN45"><path d="M1419.64,1242.5994 C1445.64,1205.8994 1501.66,1136.4194 1569.5,1109.4794 C1618.35,1090.0894 1993.65,1090.0894 2042.5,1109.4794 C2099.68,1132.1894 2126.43,1208.5794 2136.28,1245.6294" fill="none" id="SP1-GMN45" style="stroke:#000000;stroke-width:1;stroke-dasharray:7,7;"/></g><!--link SP2 to GMN48--><g class="link" data-entity-1="SP2" data-entity-2="GMN48" data-source-line="66" data-uid="lnk50" id="link_SP2_GMN48"><path d="M1123,1242.5294 C1154.34,1205.7294 1220.86,1136.1194 1295.5,1109.4794 C1325.9,1098.6294 1846.5,1097.5694 1876.5,1109.4794 C1934.01,1132.3194 1961.72,1208.6494 1972.03,1245.6594" fill="none" id="SP2-GMN48" style="stroke:#000000;stroke-width:1;stroke-dasharray:7,7;"/></g><!--link SP3 to GMN51--><g class="link" data-entity-1="SP3" data-entity-2="GMN51" data-source-line="71" data-uid="lnk53" id="link_SP3_GMN51"><path d="M215.85,1242.5594 C245.35,1205.7894 308.26,1136.2394 380.5,1109.4794 C409.96,1098.5694 1482.3,1097.8894 1511.5,1109.4794 C1573.36,1134.0494 1612.77,1209.1594 1628.8,1245.7094" fill="none" id="SP3-GMN51" style="stroke:#000000;stroke-width:1;stroke-dasharray:7,7;"/></g><!--link SP4 to GMN54--><g class="link" data-entity-1="SP4" data-entity-2="GMN54" data-source-line="76" data-uid="lnk56" id="link_SP4_GMN54"><path d="M548.11,1242.5494 C578.02,1205.7794 641.73,1136.2094 714.5,1109.4794 C766.13,1090.5194 1653.38,1089.1794 1704.5,1109.4794 C1762.51,1132.5194 1791.65,1208.7494 1802.65,1245.6994" fill="none" id="SP4-GMN54" style="stroke:#000000;stroke-width:1;stroke-dasharray:7,7;"/></g><!--SRC=[bLLDKzim4BtxLsov50vCXnGk73gJ9j26mSNW08Usan5casXm95TI-9WE_xsh3nm9dBJD8RPttrllQlUjtvavBX2Qcd6H6MvgX24JCrIGIy6DLB0B0xbef41XeA-gEJTOcQKY76SpnHPPrh3gZiqGjWg5cc3CS2dWb3sXseBV6T3lkmyQOWwaC4hMDQgVm3Ii7ZkmSCNnGJkSk_EG4tRFoahnndou73ddIPazHwbyNcekK6iubJDURKgcH7NFAtH1XdbuyhYScMhU0SjJM5zhMN5NzH3jwT1D37V-X44dkaWnYIMfPCWCWtvLkMAICWQAUg4uI-Aajivw6NNHbJOIK_b2IDXxV-TTSpEF2h-GqbngL9tXUZxSg2lXrlYcw1kcCQtuziMwLPwVWes2weVOlkwN_IjK6dTUWFvunkN4fJlcrHqQc_Ja2nhtrhBOsmoCIjCHgzV12kSpeTupNZlqCQzD6Ewo-FXl7F_omDbFEMKZbRb1OvuQZB8vSAZdvEIE7kdDWjKG3bctutBC13v2l_1weMiOSbn8zGG3Lit32Dax6_EzLQRmywopan9sTpz5OeL3-3eU5t21lvQeZSwSFXs8i8TWnm56Wj9X8KJ4jQXMRGHEzVeQcKT8VsJTk5Xf18sQ2AqoizLhVJsHy8ZZd-6ieRHzrYa-JiMribsKQodkG6reTrqFIzLXIrr9Fyl_0_lQQncjpWZhcZ9bj1vMrZZgdiKicfg-366Rhm7stW9NCIoGT4QGeqUibWQp5StxUf4lhOzKiy6t7yTC-kVz1ua_dP1YP0U3_WUihZLidpKsRLRlP9cG1a7nsTo0d8OLaTDt4Vpg8miPjh_9UAvsCXItO9bl-NPPj5Hue8L9XcGcgMSR-7PnaDZ1RnFmcTeFu9IcBSYW8D5l2B4VGlZb4aYRGlm1]--></g></svg>