<svg xmlns="http://www.w3.org/2000/svg" xmlns:xlink="http://www.w3.org/1999/xlink" contentStyleType="text/css" data-diagram-type="ACTIVITY" height="2244px" preserveAspectRatio="none" style="width:591px;height:2244px;background:#FFFFFF;" version="1.1" viewBox="0 0 591 2244" width="591px" zoomAndPan="magnify"><title>Danger Monitor - Main Business Flow</title><defs/><g><g class="title" data-source-line="2"><text fill="#000000" font-family="Verdana" font-size="22" font-weight="bold" lengthAdjust="spacing" textLength="462.1934" x="63.3105" y="35.4209">Danger Monitor - Main Business Flow</text></g><ellipse cx="309.5347" cy="61.6094" fill="#FFFFFF" rx="10" ry="10" style="stroke:#000000;stroke-width:1;"/><rect fill="#FFFFFF" height="33.9688" rx="12.5" ry="12.5" style="stroke:#000000;stroke-width:1;" width="220.25" x="199.4097" y="91.6094"/><text fill="#000000" font-family="Verdana" font-size="12" lengthAdjust="spacing" textLength="200.25" x="209.4097" y="112.748">User Opens Danger Monitor Page</text><rect fill="#FFFFFF" height="33.9688" rx="12.5" ry="12.5" style="stroke:#000000;stroke-width:1;" width="118.4844" x="250.2925" y="145.5781"/><text fill="#000000" font-family="Verdana" font-size="12" lengthAdjust="spacing" textLength="98.4844" x="260.2925" y="166.7168">Load Initial Data</text><rect fill="#FFFFFF" height="33.9688" rx="12.5" ry="12.5" style="stroke:#000000;stroke-width:1;" width="130.0918" x="244.4888" y="199.5469"/><text fill="#000000" font-family="Verdana" font-size="12" lengthAdjust="spacing" textLength="110.0918" x="254.4888" y="220.6855">GetSportBettype()</text><rect fill="#FFFFFF" height="33.9688" rx="12.5" ry="12.5" style="stroke:#000000;stroke-width:1;" width="131.5742" x="243.7476" y="253.5156"/><text fill="#000000" font-family="Verdana" font-size="12" lengthAdjust="spacing" textLength="111.5742" x="253.7476" y="274.6543">GetLeagueGroup()</text><rect fill="#FFFFFF" height="33.9688" rx="12.5" ry="12.5" style="stroke:#000000;stroke-width:1;" width="89.6563" x="264.7065" y="307.4844"/><text fill="#000000" font-family="Verdana" font-size="12" lengthAdjust="spacing" textLength="69.6563" x="274.7065" y="328.623">Load Filters</text><rect fill="#FFFFFF" height="33.9688" rx="12.5" ry="12.5" style="stroke:#000000;stroke-width:1;" width="170.5977" x="224.2358" y="361.4531"/><text fill="#000000" font-family="Verdana" font-size="12" lengthAdjust="spacing" textLength="150.5977" x="234.2358" y="382.5918">User Sets Search Criteria</text><rect fill="#FFFFFF" height="33.9688" rx="12.5" ry="12.5" style="stroke:#000000;stroke-width:1;" width="146.9199" x="236.0747" y="415.4219"/><text fill="#000000" font-family="Verdana" font-size="12" lengthAdjust="spacing" textLength="126.9199" x="246.0747" y="436.5605">Select Danger Levels</text><rect fill="#FFFFFF" height="33.9688" rx="12.5" ry="12.5" style="stroke:#000000;stroke-width:1;" width="144.2188" x="237.4253" y="469.3906"/><text fill="#000000" font-family="Verdana" font-size="12" lengthAdjust="spacing" textLength="124.2188" x="247.4253" y="490.5293">Select Sport/Bettype</text><rect fill="#FFFFFF" height="33.9688" rx="12.5" ry="12.5" style="stroke:#000000;stroke-width:1;" width="126.8164" x="246.1265" y="523.3594"/><text fill="#000000" font-family="Verdana" font-size="12" lengthAdjust="spacing" textLength="106.8164" x="256.1265" y="544.498">Enter Date Range</text><rect fill="#FFFFFF" height="33.9688" rx="12.5" ry="12.5" style="stroke:#000000;stroke-width:1;" width="140.0352" x="239.5171" y="625.7305"/><text fill="#000000" font-family="Verdana" font-size="12" lengthAdjust="spacing" textLength="120.0352" x="249.5171" y="646.8691">ValidateUsername()</text><rect fill="#FFFFFF" height="33.9688" rx="12.5" ry="12.5" style="stroke:#000000;stroke-width:1;" width="134.4863" x="242.2915" y="694.6992"/><text fill="#000000" font-family="Verdana" font-size="12" lengthAdjust="spacing" textLength="114.4863" x="252.2915" y="715.8379">Validate Username</text><polygon fill="#FFFFFF" points="261.9709,577.3281,357.0984,577.3281,369.0984,589.3281,357.0984,601.3281,261.9709,601.3281,249.9709,589.3281,261.9709,577.3281" style="stroke:#000000;stroke-width:1;"/><text fill="#000000" font-family="Verdana" font-size="11" lengthAdjust="spacing" textLength="19.0083" x="313.5347" y="611.5386">yes</text><text fill="#000000" font-family="Verdana" font-size="11" lengthAdjust="spacing" textLength="95.1274" x="261.9709" y="593.1362">Enter Username?</text><text fill="#000000" font-family="Verdana" font-size="11" lengthAdjust="spacing" textLength="13.7017" x="369.0984" y="586.7339">no</text><polygon fill="#FFFFFF" points="309.5347,748.668,321.5347,760.668,309.5347,772.668,297.5347,760.668,309.5347,748.668" style="stroke:#000000;stroke-width:1;"/><polygon fill="#FFFFFF" points="238.083,792.668,380.9863,792.668,392.9863,804.668,380.9863,816.668,238.083,816.668,226.083,804.668,238.083,792.668" style="stroke:#000000;stroke-width:1;"/><text fill="#000000" font-family="Verdana" font-size="11" lengthAdjust="spacing" textLength="142.9033" x="238.083" y="808.4761">Enable Association Mode?</text><text fill="#000000" font-family="Verdana" font-size="11" lengthAdjust="spacing" textLength="19.0083" x="207.0747" y="802.0737">yes</text><text fill="#000000" font-family="Verdana" font-size="11" lengthAdjust="spacing" textLength="13.7017" x="392.9863" y="802.0737">no</text><rect fill="#FFFFFF" height="33.9688" rx="12.5" ry="12.5" style="stroke:#000000;stroke-width:1;" width="251.7207" x="46.834" y="826.668"/><text fill="#000000" font-family="Verdana" font-size="12" lengthAdjust="spacing" textLength="231.7207" x="56.834" y="847.8066">Set IsRootUserAssociationMode = true</text><rect fill="#FFFFFF" height="33.9688" rx="12.5" ry="12.5" style="stroke:#000000;stroke-width:1;" width="255.6406" x="318.5547" y="826.668"/><text fill="#000000" font-family="Verdana" font-size="12" lengthAdjust="spacing" textLength="235.6406" x="328.5547" y="847.8066">Set IsRootUserAssociationMode = false</text><polygon fill="#FFFFFF" points="309.5347,866.6367,321.5347,878.6367,309.5347,890.6367,297.5347,878.6367,309.5347,866.6367" style="stroke:#000000;stroke-width:1;"/><rect fill="#FFFFFF" height="33.9688" rx="12.5" ry="12.5" style="stroke:#000000;stroke-width:1;" width="113.6621" x="252.7036" y="910.6367"/><text fill="#000000" font-family="Verdana" font-size="12" lengthAdjust="spacing" textLength="93.6621" x="262.7036" y="931.7754">Execute Search</text><polygon fill="#FFFFFF" points="258.5657,964.6055,360.5037,964.6055,372.5037,976.6055,360.5037,988.6055,258.5657,988.6055,246.5657,976.6055,258.5657,964.6055" style="stroke:#000000;stroke-width:1;"/><text fill="#000000" font-family="Verdana" font-size="11" lengthAdjust="spacing" textLength="101.938" x="258.5657" y="980.4136">Association Mode?</text><text fill="#000000" font-family="Verdana" font-size="11" lengthAdjust="spacing" textLength="19.0083" x="227.5574" y="974.0112">yes</text><text fill="#000000" font-family="Verdana" font-size="11" lengthAdjust="spacing" textLength="13.7017" x="372.5037" y="974.0112">no</text><rect fill="#FFFFFF" height="33.9688" rx="12.5" ry="12.5" style="stroke:#000000;stroke-width:1;" width="235.0566" x="42.0527" y="998.6055"/><text fill="#000000" font-family="Verdana" font-size="12" lengthAdjust="spacing" textLength="215.0566" x="52.0527" y="1019.7441">DetectAssociationCustByUserRoot()</text><rect fill="#FFFFFF" height="33.9688" rx="12.5" ry="12.5" style="stroke:#000000;stroke-width:1;" width="306.7461" x="6.208" y="1052.5742"/><text fill="#000000" font-family="Verdana" font-size="12" lengthAdjust="spacing" textLength="286.7461" x="16.208" y="1073.7129">GetDangerMonitorWithAssociationByRootUser()</text><rect fill="#FFFFFF" height="33.9688" rx="12.5" ry="12.5" style="stroke:#000000;stroke-width:1;" width="307.1621" x="6" y="1106.543"/><text fill="#000000" font-family="Verdana" font-size="12" lengthAdjust="spacing" textLength="287.1621" x="16" y="1127.6816">Call CTS_MatchTicketInfo_Associations_Get [SP]</text><rect fill="#FFFFFF" height="33.9688" rx="12.5" ry="12.5" style="stroke:#000000;stroke-width:1;" width="252.6523" x="333.1621" y="998.6055"/><text fill="#000000" font-family="Verdana" font-size="12" lengthAdjust="spacing" textLength="232.6523" x="343.1621" y="1019.7441">GetDangerMonitorWithNoAssociation()</text><rect fill="#FFFFFF" height="33.9688" rx="12.5" ry="12.5" style="stroke:#000000;stroke-width:1;" width="226.584" x="346.1963" y="1052.5742"/><text fill="#000000" font-family="Verdana" font-size="12" lengthAdjust="spacing" textLength="206.584" x="356.1963" y="1073.7129">Call CTS_MatchTicketInfo_Get [SP]</text><polygon fill="#FFFFFF" points="309.5347,1146.5117,321.5347,1158.5117,309.5347,1170.5117,297.5347,1158.5117,309.5347,1146.5117" style="stroke:#000000;stroke-width:1;"/><rect fill="#FFFFFF" height="33.9688" rx="12.5" ry="12.5" style="stroke:#000000;stroke-width:1;" width="155.668" x="231.7007" y="1190.5117"/><text fill="#000000" font-family="Verdana" font-size="12" lengthAdjust="spacing" textLength="135.668" x="241.7007" y="1211.6504">Display Results in Grid</text><rect fill="#FFFFFF" height="33.9688" rx="12.5" ry="12.5" style="stroke:#000000;stroke-width:1;" width="121.5664" x="248.7515" y="1292.8828"/><text fill="#000000" font-family="Verdana" font-size="12" lengthAdjust="spacing" textLength="101.5664" x="258.7515" y="1314.0215">Load Detail Page</text><rect fill="#FFFFFF" height="33.9688" rx="12.5" ry="12.5" style="stroke:#000000;stroke-width:1;" width="128.8203" x="245.1245" y="1346.8516"/><text fill="#000000" font-family="Verdana" font-size="12" lengthAdjust="spacing" textLength="108.8203" x="255.1245" y="1367.9902">Load Detail Filters</text><rect fill="#FFFFFF" height="33.9688" rx="12.5" ry="12.5" style="stroke:#000000;stroke-width:1;" width="291.3828" x="163.8433" y="1400.8203"/><text fill="#000000" font-family="Verdana" font-size="12" lengthAdjust="spacing" textLength="271.3828" x="173.8433" y="1421.959">Call CTS_MatchMonitor_Details_GetFilter [SP]</text><rect fill="#FFFFFF" height="33.9688" rx="12.5" ry="12.5" style="stroke:#000000;stroke-width:1;" width="134.5273" x="242.271" y="1454.7891"/><text fill="#000000" font-family="Verdana" font-size="12" lengthAdjust="spacing" textLength="114.5273" x="252.271" y="1475.9277">Load Detail Tickets</text><rect fill="#FFFFFF" height="33.9688" rx="12.5" ry="12.5" style="stroke:#000000;stroke-width:1;" width="297.0898" x="160.9897" y="1508.7578"/><text fill="#000000" font-family="Verdana" font-size="12" lengthAdjust="spacing" textLength="277.0898" x="170.9897" y="1529.8965">Call CTS_MatchMonitor_Details_GetTicket [SP]</text><rect fill="#FFFFFF" height="33.9688" rx="12.5" ry="12.5" style="stroke:#000000;stroke-width:1;" width="207.6523" x="205.7085" y="1659.5313"/><text fill="#000000" font-family="Verdana" font-size="12" lengthAdjust="spacing" textLength="187.6523" x="215.7085" y="1680.6699">Reload Tickets with New Filters</text><polygon fill="#FFFFFF" points="272.4526,1611.1289,346.6167,1611.1289,358.6167,1623.1289,346.6167,1635.1289,272.4526,1635.1289,260.4526,1623.1289,272.4526,1611.1289" style="stroke:#000000;stroke-width:1;"/><text fill="#000000" font-family="Verdana" font-size="11" lengthAdjust="spacing" textLength="19.0083" x="313.5347" y="1645.3394">yes</text><text fill="#000000" font-family="Verdana" font-size="11" lengthAdjust="spacing" textLength="74.1641" x="272.4526" y="1626.937">Apply Filters?</text><polygon fill="#FFFFFF" points="309.5347,1717.9023,321.5347,1729.9023,309.5347,1741.9023,297.5347,1729.9023,309.5347,1717.9023" style="stroke:#000000;stroke-width:1;"/><rect fill="#FFFFFF" height="33.9688" rx="12.5" ry="12.5" style="stroke:#000000;stroke-width:1;" width="200.6973" x="209.186" y="1810.3047"/><text fill="#000000" font-family="Verdana" font-size="12" lengthAdjust="spacing" textLength="180.6973" x="219.186" y="1831.4434">DetectGroupAssWithOptions()</text><polygon fill="#FFFFFF" points="255.2114,1761.9023,363.8579,1761.9023,375.8579,1773.9023,363.8579,1785.9023,255.2114,1785.9023,243.2114,1773.9023,255.2114,1761.9023" style="stroke:#000000;stroke-width:1;"/><text fill="#000000" font-family="Verdana" font-size="11" lengthAdjust="spacing" textLength="19.0083" x="313.5347" y="1796.1128">yes</text><text fill="#000000" font-family="Verdana" font-size="11" lengthAdjust="spacing" textLength="108.6465" x="255.2114" y="1777.7104">Detect Association?</text><polygon fill="#FFFFFF" points="309.5347,1868.6758,321.5347,1880.6758,309.5347,1892.6758,297.5347,1880.6758,309.5347,1868.6758" style="stroke:#000000;stroke-width:1;"/><rect fill="#FFFFFF" height="33.9688" rx="12.5" ry="12.5" style="stroke:#000000;stroke-width:1;" width="171.3711" x="223.8491" y="1961.0781"/><text fill="#000000" font-family="Verdana" font-size="12" lengthAdjust="spacing" textLength="151.3711" x="233.8491" y="1982.2168">ExportToExcelMMDetail()</text><rect fill="#FFFFFF" height="33.9688" rx="12.5" ry="12.5" style="stroke:#000000;stroke-width:1;" width="136.625" x="241.2222" y="2030.0469"/><text fill="#000000" font-family="Verdana" font-size="12" lengthAdjust="spacing" textLength="116.625" x="251.2222" y="2051.1855">Generate Excel File</text><polygon fill="#FFFFFF" points="272.1975,1912.6758,346.8718,1912.6758,358.8718,1924.6758,346.8718,1936.6758,272.1975,1936.6758,260.1975,1924.6758,272.1975,1912.6758" style="stroke:#000000;stroke-width:1;"/><text fill="#000000" font-family="Verdana" font-size="11" lengthAdjust="spacing" textLength="19.0083" x="313.5347" y="1946.8862">yes</text><text fill="#000000" font-family="Verdana" font-size="11" lengthAdjust="spacing" textLength="74.6743" x="272.1975" y="1928.4839">Export Excel?</text><polygon fill="#FFFFFF" points="309.5347,2084.0156,321.5347,2096.0156,309.5347,2108.0156,297.5347,2096.0156,309.5347,2084.0156" style="stroke:#000000;stroke-width:1;"/><polygon fill="#FFFFFF" points="272.1438,1562.7266,346.9255,1562.7266,358.9255,1574.7266,346.9255,1586.7266,272.1438,1586.7266,260.1438,1574.7266,272.1438,1562.7266" style="stroke:#000000;stroke-width:1;"/><text fill="#000000" font-family="Verdana" font-size="11" lengthAdjust="spacing" textLength="19.0083" x="313.5347" y="1596.937">yes</text><text fill="#000000" font-family="Verdana" font-size="11" lengthAdjust="spacing" textLength="74.7817" x="272.1438" y="1578.5347">User Actions?</text><text fill="#000000" font-family="Verdana" font-size="11" lengthAdjust="spacing" textLength="13.7017" x="358.9255" y="1572.1323">no</text><polygon fill="#FFFFFF" points="309.5347,2128.0156,321.5347,2140.0156,309.5347,2152.0156,297.5347,2140.0156,309.5347,2128.0156" style="stroke:#000000;stroke-width:1;"/><polygon fill="#FFFFFF" points="257.8298,1244.4805,361.2395,1244.4805,373.2395,1256.4805,361.2395,1268.4805,257.8298,1268.4805,245.8298,1256.4805,257.8298,1244.4805" style="stroke:#000000;stroke-width:1;"/><text fill="#000000" font-family="Verdana" font-size="11" lengthAdjust="spacing" textLength="19.0083" x="313.5347" y="1278.6909">yes</text><text fill="#000000" font-family="Verdana" font-size="11" lengthAdjust="spacing" textLength="103.4097" x="257.8298" y="1260.2886">User Clicks Match?</text><text fill="#000000" font-family="Verdana" font-size="11" lengthAdjust="spacing" textLength="13.7017" x="373.2395" y="1253.8862">no</text><polygon fill="#FFFFFF" points="309.5347,2172.0156,321.5347,2184.0156,309.5347,2196.0156,297.5347,2184.0156,309.5347,2172.0156" style="stroke:#000000;stroke-width:1;"/><ellipse cx="309.5347" cy="2227.0156" fill="none" rx="11" ry="11" style="stroke:#000000;stroke-width:1;"/><ellipse cx="309.5347" cy="2227.0156" fill="#FFFFFF" rx="6" ry="6" style="stroke:#000000;stroke-width:1;"/><line style="stroke:#000000;stroke-width:1;" x1="309.5347" x2="309.5347" y1="71.6094" y2="91.6094"/><polygon fill="#000000" points="305.5347,81.6094,309.5347,91.6094,313.5347,81.6094,309.5347,85.6094" style="stroke:#000000;stroke-width:1;"/><line style="stroke:#000000;stroke-width:1;" x1="309.5347" x2="309.5347" y1="125.5781" y2="145.5781"/><polygon fill="#000000" points="305.5347,135.5781,309.5347,145.5781,313.5347,135.5781,309.5347,139.5781" style="stroke:#000000;stroke-width:1;"/><line style="stroke:#000000;stroke-width:1;" x1="309.5347" x2="309.5347" y1="179.5469" y2="199.5469"/><polygon fill="#000000" points="305.5347,189.5469,309.5347,199.5469,313.5347,189.5469,309.5347,193.5469" style="stroke:#000000;stroke-width:1;"/><line style="stroke:#000000;stroke-width:1;" x1="309.5347" x2="309.5347" y1="233.5156" y2="253.5156"/><polygon fill="#000000" points="305.5347,243.5156,309.5347,253.5156,313.5347,243.5156,309.5347,247.5156" style="stroke:#000000;stroke-width:1;"/><line style="stroke:#000000;stroke-width:1;" x1="309.5347" x2="309.5347" y1="287.4844" y2="307.4844"/><polygon fill="#000000" points="305.5347,297.4844,309.5347,307.4844,313.5347,297.4844,309.5347,301.4844" style="stroke:#000000;stroke-width:1;"/><line style="stroke:#000000;stroke-width:1;" x1="309.5347" x2="309.5347" y1="341.4531" y2="361.4531"/><polygon fill="#000000" points="305.5347,351.4531,309.5347,361.4531,313.5347,351.4531,309.5347,355.4531" style="stroke:#000000;stroke-width:1;"/><line style="stroke:#000000;stroke-width:1;" x1="309.5347" x2="309.5347" y1="395.4219" y2="415.4219"/><polygon fill="#000000" points="305.5347,405.4219,309.5347,415.4219,313.5347,405.4219,309.5347,409.4219" style="stroke:#000000;stroke-width:1;"/><line style="stroke:#000000;stroke-width:1;" x1="309.5347" x2="309.5347" y1="449.3906" y2="469.3906"/><polygon fill="#000000" points="305.5347,459.3906,309.5347,469.3906,313.5347,459.3906,309.5347,463.3906" style="stroke:#000000;stroke-width:1;"/><line style="stroke:#000000;stroke-width:1;" x1="309.5347" x2="309.5347" y1="503.3594" y2="523.3594"/><polygon fill="#000000" points="305.5347,513.3594,309.5347,523.3594,313.5347,513.3594,309.5347,517.3594" style="stroke:#000000;stroke-width:1;"/><line style="stroke:#000000;stroke-width:1;" x1="309.5347" x2="309.5347" y1="659.6992" y2="694.6992"/><polygon fill="#000000" points="305.5347,684.6992,309.5347,694.6992,313.5347,684.6992,309.5347,688.6992" style="stroke:#000000;stroke-width:1;"/><line style="stroke:#000000;stroke-width:1;" x1="309.5347" x2="309.5347" y1="601.3281" y2="625.7305"/><polygon fill="#000000" points="305.5347,615.7305,309.5347,625.7305,313.5347,615.7305,309.5347,619.7305" style="stroke:#000000;stroke-width:1;"/><line style="stroke:#000000;stroke-width:1;" x1="369.0984" x2="389.5522" y1="589.3281" y2="589.3281"/><polygon fill="#000000" points="385.5522,667.1992,389.5522,677.1992,393.5522,667.1992,389.5522,671.1992" style="stroke:#000000;stroke-width:1;"/><line style="stroke:#000000;stroke-width:1;" x1="389.5522" x2="389.5522" y1="589.3281" y2="760.668"/><line style="stroke:#000000;stroke-width:1;" x1="389.5522" x2="321.5347" y1="760.668" y2="760.668"/><polygon fill="#000000" points="331.5347,756.668,321.5347,760.668,331.5347,764.668,327.5347,760.668" style="stroke:#000000;stroke-width:1;"/><line style="stroke:#000000;stroke-width:1;" x1="309.5347" x2="309.5347" y1="728.668" y2="748.668"/><polygon fill="#000000" points="305.5347,738.668,309.5347,748.668,313.5347,738.668,309.5347,742.668" style="stroke:#000000;stroke-width:1;"/><line style="stroke:#000000;stroke-width:1;" x1="309.5347" x2="309.5347" y1="557.3281" y2="577.3281"/><polygon fill="#000000" points="305.5347,567.3281,309.5347,577.3281,313.5347,567.3281,309.5347,571.3281" style="stroke:#000000;stroke-width:1;"/><line style="stroke:#000000;stroke-width:1;" x1="226.083" x2="172.6943" y1="804.668" y2="804.668"/><line style="stroke:#000000;stroke-width:1;" x1="172.6943" x2="172.6943" y1="804.668" y2="826.668"/><polygon fill="#000000" points="168.6943,816.668,172.6943,826.668,176.6943,816.668,172.6943,820.668" style="stroke:#000000;stroke-width:1;"/><line style="stroke:#000000;stroke-width:1;" x1="392.9863" x2="446.375" y1="804.668" y2="804.668"/><line style="stroke:#000000;stroke-width:1;" x1="446.375" x2="446.375" y1="804.668" y2="826.668"/><polygon fill="#000000" points="442.375,816.668,446.375,826.668,450.375,816.668,446.375,820.668" style="stroke:#000000;stroke-width:1;"/><line style="stroke:#000000;stroke-width:1;" x1="172.6943" x2="172.6943" y1="860.6367" y2="878.6367"/><line style="stroke:#000000;stroke-width:1;" x1="172.6943" x2="297.5347" y1="878.6367" y2="878.6367"/><polygon fill="#000000" points="287.5347,874.6367,297.5347,878.6367,287.5347,882.6367,291.5347,878.6367" style="stroke:#000000;stroke-width:1;"/><line style="stroke:#000000;stroke-width:1;" x1="446.375" x2="446.375" y1="860.6367" y2="878.6367"/><line style="stroke:#000000;stroke-width:1;" x1="446.375" x2="321.5347" y1="878.6367" y2="878.6367"/><polygon fill="#000000" points="331.5347,874.6367,321.5347,878.6367,331.5347,882.6367,327.5347,878.6367" style="stroke:#000000;stroke-width:1;"/><line style="stroke:#000000;stroke-width:1;" x1="309.5347" x2="309.5347" y1="772.668" y2="792.668"/><polygon fill="#000000" points="305.5347,782.668,309.5347,792.668,313.5347,782.668,309.5347,786.668" style="stroke:#000000;stroke-width:1;"/><line style="stroke:#000000;stroke-width:1;" x1="309.5347" x2="309.5347" y1="890.6367" y2="910.6367"/><polygon fill="#000000" points="305.5347,900.6367,309.5347,910.6367,313.5347,900.6367,309.5347,904.6367" style="stroke:#000000;stroke-width:1;"/><line style="stroke:#000000;stroke-width:1;" x1="159.5811" x2="159.5811" y1="1032.5742" y2="1052.5742"/><polygon fill="#000000" points="155.5811,1042.5742,159.5811,1052.5742,163.5811,1042.5742,159.5811,1046.5742" style="stroke:#000000;stroke-width:1;"/><line style="stroke:#000000;stroke-width:1;" x1="159.5811" x2="159.5811" y1="1086.543" y2="1106.543"/><polygon fill="#000000" points="155.5811,1096.543,159.5811,1106.543,163.5811,1096.543,159.5811,1100.543" style="stroke:#000000;stroke-width:1;"/><line style="stroke:#000000;stroke-width:1;" x1="459.4883" x2="459.4883" y1="1032.5742" y2="1052.5742"/><polygon fill="#000000" points="455.4883,1042.5742,459.4883,1052.5742,463.4883,1042.5742,459.4883,1046.5742" style="stroke:#000000;stroke-width:1;"/><line style="stroke:#000000;stroke-width:1;" x1="246.5657" x2="159.5811" y1="976.6055" y2="976.6055"/><line style="stroke:#000000;stroke-width:1;" x1="159.5811" x2="159.5811" y1="976.6055" y2="998.6055"/><polygon fill="#000000" points="155.5811,988.6055,159.5811,998.6055,163.5811,988.6055,159.5811,992.6055" style="stroke:#000000;stroke-width:1;"/><line style="stroke:#000000;stroke-width:1;" x1="372.5037" x2="459.4883" y1="976.6055" y2="976.6055"/><line style="stroke:#000000;stroke-width:1;" x1="459.4883" x2="459.4883" y1="976.6055" y2="998.6055"/><polygon fill="#000000" points="455.4883,988.6055,459.4883,998.6055,463.4883,988.6055,459.4883,992.6055" style="stroke:#000000;stroke-width:1;"/><line style="stroke:#000000;stroke-width:1;" x1="159.5811" x2="159.5811" y1="1140.5117" y2="1158.5117"/><line style="stroke:#000000;stroke-width:1;" x1="159.5811" x2="297.5347" y1="1158.5117" y2="1158.5117"/><polygon fill="#000000" points="287.5347,1154.5117,297.5347,1158.5117,287.5347,1162.5117,291.5347,1158.5117" style="stroke:#000000;stroke-width:1;"/><line style="stroke:#000000;stroke-width:1;" x1="459.4883" x2="459.4883" y1="1086.543" y2="1158.5117"/><line style="stroke:#000000;stroke-width:1;" x1="459.4883" x2="321.5347" y1="1158.5117" y2="1158.5117"/><polygon fill="#000000" points="331.5347,1154.5117,321.5347,1158.5117,331.5347,1162.5117,327.5347,1158.5117" style="stroke:#000000;stroke-width:1;"/><line style="stroke:#000000;stroke-width:1;" x1="309.5347" x2="309.5347" y1="944.6055" y2="964.6055"/><polygon fill="#000000" points="305.5347,954.6055,309.5347,964.6055,313.5347,954.6055,309.5347,958.6055" style="stroke:#000000;stroke-width:1;"/><line style="stroke:#000000;stroke-width:1;" x1="309.5347" x2="309.5347" y1="1170.5117" y2="1190.5117"/><polygon fill="#000000" points="305.5347,1180.5117,309.5347,1190.5117,313.5347,1180.5117,309.5347,1184.5117" style="stroke:#000000;stroke-width:1;"/><line style="stroke:#000000;stroke-width:1;" x1="309.5347" x2="309.5347" y1="1326.8516" y2="1346.8516"/><polygon fill="#000000" points="305.5347,1336.8516,309.5347,1346.8516,313.5347,1336.8516,309.5347,1340.8516" style="stroke:#000000;stroke-width:1;"/><line style="stroke:#000000;stroke-width:1;" x1="309.5347" x2="309.5347" y1="1380.8203" y2="1400.8203"/><polygon fill="#000000" points="305.5347,1390.8203,309.5347,1400.8203,313.5347,1390.8203,309.5347,1394.8203" style="stroke:#000000;stroke-width:1;"/><line style="stroke:#000000;stroke-width:1;" x1="309.5347" x2="309.5347" y1="1434.7891" y2="1454.7891"/><polygon fill="#000000" points="305.5347,1444.7891,309.5347,1454.7891,313.5347,1444.7891,309.5347,1448.7891" style="stroke:#000000;stroke-width:1;"/><line style="stroke:#000000;stroke-width:1;" x1="309.5347" x2="309.5347" y1="1488.7578" y2="1508.7578"/><polygon fill="#000000" points="305.5347,1498.7578,309.5347,1508.7578,313.5347,1498.7578,309.5347,1502.7578" style="stroke:#000000;stroke-width:1;"/><line style="stroke:#000000;stroke-width:1;" x1="309.5347" x2="309.5347" y1="1635.1289" y2="1659.5313"/><polygon fill="#000000" points="305.5347,1649.5313,309.5347,1659.5313,313.5347,1649.5313,309.5347,1653.5313" style="stroke:#000000;stroke-width:1;"/><line style="stroke:#000000;stroke-width:1;" x1="358.6167" x2="423.3608" y1="1623.1289" y2="1623.1289"/><polygon fill="#000000" points="419.3608,1666.5156,423.3608,1676.5156,427.3608,1666.5156,423.3608,1670.5156" style="stroke:#000000;stroke-width:1;"/><line style="stroke:#000000;stroke-width:1;" x1="423.3608" x2="423.3608" y1="1623.1289" y2="1729.9023"/><line style="stroke:#000000;stroke-width:1;" x1="423.3608" x2="321.5347" y1="1729.9023" y2="1729.9023"/><polygon fill="#000000" points="331.5347,1725.9023,321.5347,1729.9023,331.5347,1733.9023,327.5347,1729.9023" style="stroke:#000000;stroke-width:1;"/><line style="stroke:#000000;stroke-width:1;" x1="309.5347" x2="309.5347" y1="1693.5" y2="1717.9023"/><polygon fill="#000000" points="305.5347,1707.9023,309.5347,1717.9023,313.5347,1707.9023,309.5347,1711.9023" style="stroke:#000000;stroke-width:1;"/><line style="stroke:#000000;stroke-width:1;" x1="309.5347" x2="309.5347" y1="1785.9023" y2="1810.3047"/><polygon fill="#000000" points="305.5347,1800.3047,309.5347,1810.3047,313.5347,1800.3047,309.5347,1804.3047" style="stroke:#000000;stroke-width:1;"/><line style="stroke:#000000;stroke-width:1;" x1="375.8579" x2="419.8833" y1="1773.9023" y2="1773.9023"/><polygon fill="#000000" points="415.8833,1817.2891,419.8833,1827.2891,423.8833,1817.2891,419.8833,1821.2891" style="stroke:#000000;stroke-width:1;"/><line style="stroke:#000000;stroke-width:1;" x1="419.8833" x2="419.8833" y1="1773.9023" y2="1880.6758"/><line style="stroke:#000000;stroke-width:1;" x1="419.8833" x2="321.5347" y1="1880.6758" y2="1880.6758"/><polygon fill="#000000" points="331.5347,1876.6758,321.5347,1880.6758,331.5347,1884.6758,327.5347,1880.6758" style="stroke:#000000;stroke-width:1;"/><line style="stroke:#000000;stroke-width:1;" x1="309.5347" x2="309.5347" y1="1844.2734" y2="1868.6758"/><polygon fill="#000000" points="305.5347,1858.6758,309.5347,1868.6758,313.5347,1858.6758,309.5347,1862.6758" style="stroke:#000000;stroke-width:1;"/><line style="stroke:#000000;stroke-width:1;" x1="309.5347" x2="309.5347" y1="1741.9023" y2="1761.9023"/><polygon fill="#000000" points="305.5347,1751.9023,309.5347,1761.9023,313.5347,1751.9023,309.5347,1755.9023" style="stroke:#000000;stroke-width:1;"/><line style="stroke:#000000;stroke-width:1;" x1="309.5347" x2="309.5347" y1="1995.0469" y2="2030.0469"/><polygon fill="#000000" points="305.5347,2020.0469,309.5347,2030.0469,313.5347,2020.0469,309.5347,2024.0469" style="stroke:#000000;stroke-width:1;"/><line style="stroke:#000000;stroke-width:1;" x1="309.5347" x2="309.5347" y1="1936.6758" y2="1961.0781"/><polygon fill="#000000" points="305.5347,1951.0781,309.5347,1961.0781,313.5347,1951.0781,309.5347,1955.0781" style="stroke:#000000;stroke-width:1;"/><line style="stroke:#000000;stroke-width:1;" x1="358.8718" x2="405.2202" y1="1924.6758" y2="1924.6758"/><polygon fill="#000000" points="401.2202,2002.5469,405.2202,2012.5469,409.2202,2002.5469,405.2202,2006.5469" style="stroke:#000000;stroke-width:1;"/><line style="stroke:#000000;stroke-width:1;" x1="405.2202" x2="405.2202" y1="1924.6758" y2="2096.0156"/><line style="stroke:#000000;stroke-width:1;" x1="405.2202" x2="321.5347" y1="2096.0156" y2="2096.0156"/><polygon fill="#000000" points="331.5347,2092.0156,321.5347,2096.0156,331.5347,2100.0156,327.5347,2096.0156" style="stroke:#000000;stroke-width:1;"/><line style="stroke:#000000;stroke-width:1;" x1="309.5347" x2="309.5347" y1="2064.0156" y2="2084.0156"/><polygon fill="#000000" points="305.5347,2074.0156,309.5347,2084.0156,313.5347,2074.0156,309.5347,2078.0156" style="stroke:#000000;stroke-width:1;"/><line style="stroke:#000000;stroke-width:1;" x1="309.5347" x2="309.5347" y1="1892.6758" y2="1912.6758"/><polygon fill="#000000" points="305.5347,1902.6758,309.5347,1912.6758,313.5347,1902.6758,309.5347,1906.6758" style="stroke:#000000;stroke-width:1;"/><line style="stroke:#000000;stroke-width:1;" x1="309.5347" x2="309.5347" y1="1586.7266" y2="1611.1289"/><polygon fill="#000000" points="305.5347,1601.1289,309.5347,1611.1289,313.5347,1601.1289,309.5347,1605.1289" style="stroke:#000000;stroke-width:1;"/><line style="stroke:#000000;stroke-width:1;" x1="358.9255" x2="445.3608" y1="1574.7266" y2="1574.7266"/><polygon fill="#000000" points="441.3608,1851.7734,445.3608,1861.7734,449.3608,1851.7734,445.3608,1855.7734" style="stroke:#000000;stroke-width:1;"/><line style="stroke:#000000;stroke-width:1;" x1="445.3608" x2="445.3608" y1="1574.7266" y2="2140.0156"/><line style="stroke:#000000;stroke-width:1;" x1="445.3608" x2="321.5347" y1="2140.0156" y2="2140.0156"/><polygon fill="#000000" points="331.5347,2136.0156,321.5347,2140.0156,331.5347,2144.0156,327.5347,2140.0156" style="stroke:#000000;stroke-width:1;"/><line style="stroke:#000000;stroke-width:1;" x1="309.5347" x2="309.5347" y1="2108.0156" y2="2128.0156"/><polygon fill="#000000" points="305.5347,2118.0156,309.5347,2128.0156,313.5347,2118.0156,309.5347,2122.0156" style="stroke:#000000;stroke-width:1;"/><line style="stroke:#000000;stroke-width:1;" x1="309.5347" x2="309.5347" y1="1542.7266" y2="1562.7266"/><polygon fill="#000000" points="305.5347,1552.7266,309.5347,1562.7266,313.5347,1552.7266,309.5347,1556.7266" style="stroke:#000000;stroke-width:1;"/><line style="stroke:#000000;stroke-width:1;" x1="309.5347" x2="309.5347" y1="1268.4805" y2="1292.8828"/><polygon fill="#000000" points="305.5347,1282.8828,309.5347,1292.8828,313.5347,1282.8828,309.5347,1286.8828" style="stroke:#000000;stroke-width:1;"/><line style="stroke:#000000;stroke-width:1;" x1="373.2395" x2="468.0796" y1="1256.4805" y2="1256.4805"/><polygon fill="#000000" points="464.0796,1694.3516,468.0796,1704.3516,472.0796,1694.3516,468.0796,1698.3516" style="stroke:#000000;stroke-width:1;"/><line style="stroke:#000000;stroke-width:1;" x1="468.0796" x2="468.0796" y1="1256.4805" y2="2184.0156"/><line style="stroke:#000000;stroke-width:1;" x1="468.0796" x2="321.5347" y1="2184.0156" y2="2184.0156"/><polygon fill="#000000" points="331.5347,2180.0156,321.5347,2184.0156,331.5347,2188.0156,327.5347,2184.0156" style="stroke:#000000;stroke-width:1;"/><line style="stroke:#000000;stroke-width:1;" x1="309.5347" x2="309.5347" y1="2152.0156" y2="2172.0156"/><polygon fill="#000000" points="305.5347,2162.0156,309.5347,2172.0156,313.5347,2162.0156,309.5347,2166.0156" style="stroke:#000000;stroke-width:1;"/><line style="stroke:#000000;stroke-width:1;" x1="309.5347" x2="309.5347" y1="1224.4805" y2="1244.4805"/><polygon fill="#000000" points="305.5347,1234.4805,309.5347,1244.4805,313.5347,1234.4805,309.5347,1238.4805" style="stroke:#000000;stroke-width:1;"/><line style="stroke:#000000;stroke-width:1;" x1="309.5347" x2="309.5347" y1="2196.0156" y2="2216.0156"/><polygon fill="#000000" points="305.5347,2206.0156,309.5347,2216.0156,313.5347,2206.0156,309.5347,2210.0156" style="stroke:#000000;stroke-width:1;"/><!--SRC=[ZLHDRzim3BtxLt2tv33i7gCOcey60PAsIBBjC1I1vZ29K5Ko97g9__qeoNQLEK1x2M3oyRr7YimNEk4RGgc4r1b9KWXJeOzeOMMq96FXAwmu1-FAIOtEmOCovonp92nben-EaKybQlT_sRCuOfwDbaRiOS4XAHH3IEGPm6YEj2cDfJ4IrIKEXcrqYU9OuToQgco2WU11AaBhyaPmW-JuHzZY11ChEIKZxmOL5jHQMU9VL2vD1D5lZMf8p3HNUsC8Qr_bW_80WnZtQbgyuVSXy9mq36fqGqPmuK-Xv9xBMaYqcoIwOXzd7mW3RNmnwhqyT3BY3u_ytZbJI47IQ1xW_fOUzmmBjpQ6F6zIuF5m1sIhdj8doWw2yNddQZIxO56n-JZTFFCcFt8tcYBnT1FOf78qhhsYLtv_tlWmpOhyadHAQiPrwxB1JuHICDbkTYj1nMahYrUaXJwONLBaTimAlpVFBtcMTdvJxD4abH-99BnnCbFf-4fgMAEh5EyVtyJSodqSKLZBYU9o1u6fDwEmnpme8LLp6-5zqd2tvI5pxQnfOnUXeUq8Rqpso68hdoQBy8wiw-c-26FkBsHOZB9KTMkx3s7TDIhlgJ43Ptu5UCJpTQljGKJIk4pfITnaZh3mJy5G_xnFPR3Q7k8rw-pYJnzcbmBLJRu8s9g0MAtYQ5gki50QhJ_h0F0DuBLE_yJV8_7RaId_0G00]--></g></svg>