<svg xmlns="http://www.w3.org/2000/svg" xmlns:xlink="http://www.w3.org/1999/xlink" contentStyleType="text/css" data-diagram-type="SEQUENCE" height="1758px" preserveAspectRatio="none" style="width:1896px;height:1758px;background:#FFFFFF;" version="1.1" viewBox="0 0 1896 1758" width="1896px" zoomAndPan="magnify"><title>Danger Monitor Detail Page - Sequence Diagram</title><defs/><g><text fill="#000000" font-family="Verdana" font-size="22" font-weight="bold" lengthAdjust="spacing" textLength="603.0664" x="645.1738" y="35.4209">Danger Monitor Detail Page - Sequence Diagram</text><g><title>DangerMonitor</title><rect fill="#FFFFFF" height="213.7969" style="stroke:#000000;stroke-width:1;" width="10" x="413.7939" y="204.4688"/></g><g><title>DangerMonitor</title><rect fill="#FFFFFF" height="572" style="stroke:#000000;stroke-width:1;" width="10" x="413.7939" y="490.5313"/></g><g><title>DangerMonitor</title><rect fill="#FFFFFF" height="511.2578" style="stroke:#000000;stroke-width:1;" width="10" x="413.7939" y="1134.7969"/></g><g><title>DangerMonitor</title><rect fill="#FFFFFF" height="471.6016" style="stroke:#000000;stroke-width:1;" width="10" x="671.519" y="561.7969"/></g><g><title>DangerMonitor</title><rect fill="#FFFFFF" height="410.8594" style="stroke:#000000;stroke-width:1;" width="10" x="671.519" y="1206.0625"/></g><g><title>MatchMonitor</title><rect fill="#FFFFFF" height="226.1953" style="stroke:#000000;stroke-width:1;" width="10" x="962.085" y="778.0703"/></g><g><title>MatchMonitor</title><rect fill="#FFFFFF" height="352.5938" style="stroke:#000000;stroke-width:1;" width="10" x="962.085" y="1235.1953"/></g><g><title>CriteriaService</title><rect fill="#FFFFFF" height="167.9297" style="stroke:#000000;stroke-width:1;" width="10" x="1268.1709" y="807.2031"/></g><g><title>CriteriaService</title><rect fill="#FFFFFF" height="167.9297" style="stroke:#000000;stroke-width:1;" width="10" x="1268.1709" y="1348.5938"/></g><g><title>SQL Server</title><rect fill="#FFFFFF" height="109.6641" style="stroke:#000000;stroke-width:1;" width="10" x="1607.4951" y="836.3359"/></g><g><title>SQL Server</title><rect fill="#FFFFFF" height="109.6641" style="stroke:#000000;stroke-width:1;" width="10" x="1607.4951" y="1377.7266"/></g><rect fill="#FFFFFF" height="173.1406" style="stroke:#000000;stroke-width:1;" width="369.9189" x="597.166" y="576.7969"/><rect fill="#FFFFFF" height="56.9375" style="stroke:none;stroke-width:1;" width="369.9189" x="597.166" y="636.0625"/><rect fill="#FFFFFF" height="56.9375" style="stroke:none;stroke-width:1;" width="369.9189" x="597.166" y="693"/><g><title>User</title><rect fill="#000000" fill-opacity="0.00000" height="1533.8516" width="8" x="24.9551" y="130.2031"/><line style="stroke:#000000;stroke-width:1;stroke-dasharray:5,5;" x1="28" x2="28" y1="130.2031" y2="1664.0547"/></g><g><title>DangerMonitor</title><rect fill="#000000" fill-opacity="0.00000" height="1533.8516" width="8" x="414.7939" y="130.2031"/><line style="stroke:#000000;stroke-width:1;stroke-dasharray:5,5;" x1="418.4409" x2="418.4409" y1="130.2031" y2="1664.0547"/></g><g><title>DangerMonitor</title><rect fill="#000000" fill-opacity="0.00000" height="1533.8516" width="8" x="672.519" y="130.2031"/><line style="stroke:#000000;stroke-width:1;stroke-dasharray:5,5;" x1="676.166" x2="676.166" y1="130.2031" y2="1664.0547"/></g><g><title>MatchMonitor</title><rect fill="#000000" fill-opacity="0.00000" height="1533.8516" width="8" x="963.085" y="130.2031"/><line style="stroke:#000000;stroke-width:1;stroke-dasharray:5,5;" x1="966.1172" x2="966.1172" y1="130.2031" y2="1664.0547"/></g><g><title>CriteriaService</title><rect fill="#000000" fill-opacity="0.00000" height="1533.8516" width="8" x="1269.1709" y="130.2031"/><line style="stroke:#000000;stroke-width:1;stroke-dasharray:5,5;" x1="1272.4263" x2="1272.4263" y1="130.2031" y2="1664.0547"/></g><g><title>SQL Server</title><rect fill="#000000" fill-opacity="0.00000" height="1533.8516" width="8" x="1608.4951" y="130.2031"/><line style="stroke:#000000;stroke-width:1;stroke-dasharray:5,5;" x1="1612.4619" x2="1612.4619" y1="130.2031" y2="1664.0547"/></g><g class="participant participant-head" data-participant="User"><text fill="#000000" font-family="Verdana" font-size="14" lengthAdjust="spacing" textLength="31.9102" x="10" y="126.9014">User</text><ellipse cx="28.9551" cy="61.9063" fill="#FFFFFF" rx="8" ry="8" style="stroke:#000000;stroke-width:1;"/><path d="M28.9551,69.9063 L28.9551,96.9063 M15.9551,77.9063 L41.9551,77.9063 M28.9551,96.9063 L15.9551,111.9063 M28.9551,96.9063 L41.9551,111.9063" fill="none" style="stroke:#000000;stroke-width:1;"/></g><g class="participant participant-tail" data-participant="User"><text fill="#000000" font-family="Verdana" font-size="14" lengthAdjust="spacing" textLength="31.9102" x="10" y="1676.0498">User</text><ellipse cx="28.9551" cy="1688.3516" fill="#FFFFFF" rx="8" ry="8" style="stroke:#000000;stroke-width:1;"/><path d="M28.9551,1696.3516 L28.9551,1723.3516 M15.9551,1704.3516 L41.9551,1704.3516 M28.9551,1723.3516 L15.9551,1738.3516 M28.9551,1723.3516 L41.9551,1738.3516" fill="none" style="stroke:#000000;stroke-width:1;"/></g><g class="participant participant-head" data-participant="Controller"><rect fill="#FFFFFF" height="46.5938" rx="2.5" ry="2.5" style="stroke:#000000;stroke-width:1;" width="118.7061" x="359.4409" y="82.6094"/><text fill="#000000" font-family="Verdana" font-size="14" lengthAdjust="spacing" textLength="104.7061" x="366.4409" y="102.6045">DangerMonitor</text><text fill="#000000" font-family="Verdana" font-size="14" lengthAdjust="spacing" textLength="69.1729" x="384.2075" y="118.9014">Controller</text></g><g class="participant participant-tail" data-participant="Controller"><rect fill="#FFFFFF" height="46.5938" rx="2.5" ry="2.5" style="stroke:#000000;stroke-width:1;" width="118.7061" x="359.4409" y="1663.0547"/><text fill="#000000" font-family="Verdana" font-size="14" lengthAdjust="spacing" textLength="104.7061" x="366.4409" y="1683.0498">DangerMonitor</text><text fill="#000000" font-family="Verdana" font-size="14" lengthAdjust="spacing" textLength="69.1729" x="384.2075" y="1699.3467">Controller</text></g><g class="participant participant-head" data-participant="Service"><rect fill="#FFFFFF" height="46.5938" rx="2.5" ry="2.5" style="stroke:#000000;stroke-width:1;" width="118.7061" x="617.166" y="82.6094"/><text fill="#000000" font-family="Verdana" font-size="14" lengthAdjust="spacing" textLength="104.7061" x="624.166" y="102.6045">DangerMonitor</text><text fill="#000000" font-family="Verdana" font-size="14" lengthAdjust="spacing" textLength="51.7412" x="650.6484" y="118.9014">Service</text></g><g class="participant participant-tail" data-participant="Service"><rect fill="#FFFFFF" height="46.5938" rx="2.5" ry="2.5" style="stroke:#000000;stroke-width:1;" width="118.7061" x="617.166" y="1663.0547"/><text fill="#000000" font-family="Verdana" font-size="14" lengthAdjust="spacing" textLength="104.7061" x="624.166" y="1683.0498">DangerMonitor</text><text fill="#000000" font-family="Verdana" font-size="14" lengthAdjust="spacing" textLength="51.7412" x="650.6484" y="1699.3467">Service</text></g><g class="participant participant-head" data-participant="MMService"><rect fill="#FFFFFF" height="46.5938" rx="2.5" ry="2.5" style="stroke:#000000;stroke-width:1;" width="109.9355" x="912.1172" y="82.6094"/><text fill="#000000" font-family="Verdana" font-size="14" lengthAdjust="spacing" textLength="95.9355" x="919.1172" y="102.6045">MatchMonitor</text><text fill="#000000" font-family="Verdana" font-size="14" lengthAdjust="spacing" textLength="51.7412" x="941.2144" y="118.9014">Service</text></g><g class="participant participant-tail" data-participant="MMService"><rect fill="#FFFFFF" height="46.5938" rx="2.5" ry="2.5" style="stroke:#000000;stroke-width:1;" width="109.9355" x="912.1172" y="1663.0547"/><text fill="#000000" font-family="Verdana" font-size="14" lengthAdjust="spacing" textLength="95.9355" x="919.1172" y="1683.0498">MatchMonitor</text><text fill="#000000" font-family="Verdana" font-size="14" lengthAdjust="spacing" textLength="51.7412" x="941.2144" y="1699.3467">Service</text></g><g class="participant participant-head" data-participant="Repository"><rect fill="#FFFFFF" height="46.5938" rx="2.5" ry="2.5" style="stroke:#000000;stroke-width:1;" width="117.4893" x="1214.4263" y="82.6094"/><text fill="#000000" font-family="Verdana" font-size="14" lengthAdjust="spacing" textLength="103.4893" x="1221.4263" y="102.6045">CriteriaService</text><text fill="#000000" font-family="Verdana" font-size="14" lengthAdjust="spacing" textLength="85.9961" x="1230.1729" y="118.9014">(Repository)</text></g><g class="participant participant-tail" data-participant="Repository"><rect fill="#FFFFFF" height="46.5938" rx="2.5" ry="2.5" style="stroke:#000000;stroke-width:1;" width="117.4893" x="1214.4263" y="1663.0547"/><text fill="#000000" font-family="Verdana" font-size="14" lengthAdjust="spacing" textLength="103.4893" x="1221.4263" y="1683.0498">CriteriaService</text><text fill="#000000" font-family="Verdana" font-size="14" lengthAdjust="spacing" textLength="85.9961" x="1230.1729" y="1699.3467">(Repository)</text></g><g class="participant participant-head" data-participant="DB"><text fill="#000000" font-family="Verdana" font-size="14" lengthAdjust="spacing" textLength="78.0664" x="1570.4619" y="110.6045">SQL Server</text><text fill="#000000" font-family="Verdana" font-size="14" lengthAdjust="spacing" textLength="66.8008" x="1576.0947" y="126.9014">Database</text><path d="M1594.4951,61.6094 C1594.4951,51.6094 1612.4951,51.6094 1612.4951,51.6094 C1612.4951,51.6094 1630.4951,51.6094 1630.4951,61.6094 L1630.4951,87.6094 C1630.4951,97.6094 1612.4951,97.6094 1612.4951,97.6094 C1612.4951,97.6094 1594.4951,97.6094 1594.4951,87.6094 L1594.4951,61.6094" fill="#FFFFFF" style="stroke:#000000;stroke-width:1;"/><path d="M1594.4951,61.6094 C1594.4951,71.6094 1612.4951,71.6094 1612.4951,71.6094 C1612.4951,71.6094 1630.4951,71.6094 1630.4951,61.6094" fill="none" style="stroke:#000000;stroke-width:1;"/></g><g class="participant participant-tail" data-participant="DB"><text fill="#000000" font-family="Verdana" font-size="14" lengthAdjust="spacing" textLength="78.0664" x="1570.4619" y="1676.0498">SQL Server</text><text fill="#000000" font-family="Verdana" font-size="14" lengthAdjust="spacing" textLength="66.8008" x="1576.0947" y="1692.3467">Database</text><path d="M1594.4951,1705.6484 C1594.4951,1695.6484 1612.4951,1695.6484 1612.4951,1695.6484 C1612.4951,1695.6484 1630.4951,1695.6484 1630.4951,1705.6484 L1630.4951,1731.6484 C1630.4951,1741.6484 1612.4951,1741.6484 1612.4951,1741.6484 C1612.4951,1741.6484 1594.4951,1741.6484 1594.4951,1731.6484 L1594.4951,1705.6484" fill="#FFFFFF" style="stroke:#000000;stroke-width:1;"/><path d="M1594.4951,1705.6484 C1594.4951,1715.6484 1612.4951,1715.6484 1612.4951,1715.6484 C1612.4951,1715.6484 1630.4951,1715.6484 1630.4951,1705.6484" fill="none" style="stroke:#000000;stroke-width:1;"/></g><g><title>DangerMonitor</title><rect fill="#FFFFFF" height="213.7969" style="stroke:#000000;stroke-width:1;" width="10" x="413.7939" y="204.4688"/></g><g><title>DangerMonitor</title><rect fill="#FFFFFF" height="572" style="stroke:#000000;stroke-width:1;" width="10" x="413.7939" y="490.5313"/></g><g><title>DangerMonitor</title><rect fill="#FFFFFF" height="511.2578" style="stroke:#000000;stroke-width:1;" width="10" x="413.7939" y="1134.7969"/></g><g><title>DangerMonitor</title><rect fill="#FFFFFF" height="471.6016" style="stroke:#000000;stroke-width:1;" width="10" x="671.519" y="561.7969"/></g><g><title>DangerMonitor</title><rect fill="#FFFFFF" height="410.8594" style="stroke:#000000;stroke-width:1;" width="10" x="671.519" y="1206.0625"/></g><g><title>MatchMonitor</title><rect fill="#FFFFFF" height="226.1953" style="stroke:#000000;stroke-width:1;" width="10" x="962.085" y="778.0703"/></g><g><title>MatchMonitor</title><rect fill="#FFFFFF" height="352.5938" style="stroke:#000000;stroke-width:1;" width="10" x="962.085" y="1235.1953"/></g><g><title>CriteriaService</title><rect fill="#FFFFFF" height="167.9297" style="stroke:#000000;stroke-width:1;" width="10" x="1268.1709" y="807.2031"/></g><g><title>CriteriaService</title><rect fill="#FFFFFF" height="167.9297" style="stroke:#000000;stroke-width:1;" width="10" x="1268.1709" y="1348.5938"/></g><g><title>SQL Server</title><rect fill="#FFFFFF" height="109.6641" style="stroke:#000000;stroke-width:1;" width="10" x="1607.4951" y="836.3359"/></g><g><title>SQL Server</title><rect fill="#FFFFFF" height="109.6641" style="stroke:#000000;stroke-width:1;" width="10" x="1607.4951" y="1377.7266"/></g><rect fill="#FFFFFF" height="3" style="stroke:#FFFFFF;stroke-width:1;" width="1884.4141" x="5" y="160.7695"/><line style="stroke:#000000;stroke-width:0.5;" x1="5" x2="1889.4141" y1="160.7695" y2="160.7695"/><line style="stroke:#000000;stroke-width:0.5;" x1="5" x2="1889.4141" y1="163.7695" y2="163.7695"/><rect fill="#FFFFFF" height="23.1328" style="stroke:#000000;stroke-width:1;" width="142.8003" x="875.8069" y="150.2031"/><text fill="#000000" font-family="Verdana" font-size="13" font-weight="bold" lengthAdjust="spacing" textLength="124.2744" x="881.8069" y="166.27">Load Detail Page</text><g class="message" data-participant-1="User" data-participant-2="Controller"><polygon fill="#000000" points="401.7939,200.4688,411.7939,204.4688,401.7939,208.4688,405.7939,204.4688" style="stroke:#000000;stroke-width:1;"/><line style="stroke:#000000;stroke-width:1;" x1="28.9551" x2="407.7939" y1="204.4688" y2="204.4688"/><text fill="#000000" font-family="Verdana" font-size="13" lengthAdjust="spacing" textLength="108.3291" x="35.9551" y="199.4028">GET Detail(para)</text></g><g class="message" data-participant-1="Controller" data-participant-2="Service"><polygon fill="#000000" points="664.519,229.6016,674.519,233.6016,664.519,237.6016,668.519,233.6016" style="stroke:#000000;stroke-width:1;"/><line style="stroke:#000000;stroke-width:1;" x1="423.7939" x2="670.519" y1="233.6016" y2="233.6016"/><text fill="#000000" font-family="Verdana" font-size="13" lengthAdjust="spacing" textLength="165.0073" x="430.7939" y="228.5356">GetBettypesFromCache()</text></g><g class="message" data-participant-1="Service" data-participant-2="Controller"><polygon fill="#000000" points="434.7939,258.7344,424.7939,262.7344,434.7939,266.7344,430.7939,262.7344" style="stroke:#000000;stroke-width:1;"/><line style="stroke:#000000;stroke-width:1;stroke-dasharray:2,2;" x1="428.7939" x2="675.519" y1="262.7344" y2="262.7344"/><text fill="#000000" font-family="Verdana" font-size="13" lengthAdjust="spacing" textLength="91.2412" x="440.7939" y="257.6685">Bettypes data</text></g><g class="message" data-participant-1="Controller" data-participant-2="Controller"><line style="stroke:#000000;stroke-width:1;" x1="423.7939" x2="465.7939" y1="291.8672" y2="291.8672"/><line style="stroke:#000000;stroke-width:1;" x1="465.7939" x2="465.7939" y1="291.8672" y2="304.8672"/><line style="stroke:#000000;stroke-width:1;" x1="424.7939" x2="465.7939" y1="304.8672" y2="304.8672"/><polygon fill="#000000" points="434.7939,300.8672,424.7939,304.8672,434.7939,308.8672,430.7939,304.8672" style="stroke:#000000;stroke-width:1;"/><text fill="#000000" font-family="Verdana" font-size="13" lengthAdjust="spacing" textLength="170.5234" x="430.7939" y="286.8013">GetGroupCustomerClass()</text></g><g class="message" data-participant-1="Controller" data-participant-2="Controller"><line style="stroke:#000000;stroke-width:1;" x1="423.7939" x2="465.7939" y1="334" y2="334"/><line style="stroke:#000000;stroke-width:1;" x1="465.7939" x2="465.7939" y1="334" y2="347"/><line style="stroke:#000000;stroke-width:1;" x1="424.7939" x2="465.7939" y1="347" y2="347"/><polygon fill="#000000" points="434.7939,343,424.7939,347,434.7939,351,430.7939,347" style="stroke:#000000;stroke-width:1;"/><text fill="#000000" font-family="Verdana" font-size="13" lengthAdjust="spacing" textLength="127.9116" x="430.7939" y="328.9341">GetReasonGroups()</text></g><g class="message" data-participant-1="Controller" data-participant-2="Controller"><line style="stroke:#000000;stroke-width:1;" x1="423.7939" x2="465.7939" y1="376.1328" y2="376.1328"/><line style="stroke:#000000;stroke-width:1;" x1="465.7939" x2="465.7939" y1="376.1328" y2="389.1328"/><line style="stroke:#000000;stroke-width:1;" x1="424.7939" x2="465.7939" y1="389.1328" y2="389.1328"/><polygon fill="#000000" points="434.7939,385.1328,424.7939,389.1328,434.7939,393.1328,430.7939,389.1328" style="stroke:#000000;stroke-width:1;"/><text fill="#000000" font-family="Verdana" font-size="13" lengthAdjust="spacing" textLength="152.5088" x="430.7939" y="371.0669">Set ViewBag properties</text></g><g class="message" data-participant-1="Controller" data-participant-2="User"><polygon fill="#000000" points="39.9551,414.2656,29.9551,418.2656,39.9551,422.2656,35.9551,418.2656" style="stroke:#000000;stroke-width:1;"/><line style="stroke:#000000;stroke-width:1;stroke-dasharray:2,2;" x1="33.9551" x2="417.7939" y1="418.2656" y2="418.2656"/><text fill="#000000" font-family="Verdana" font-size="13" lengthAdjust="spacing" textLength="179.4546" x="45.9551" y="413.1997">Return View (Detail.cshtml)</text></g><rect fill="#FFFFFF" height="3" style="stroke:#FFFFFF;stroke-width:1;" width="1884.4141" x="5" y="446.832"/><line style="stroke:#000000;stroke-width:0.5;" x1="5" x2="1889.4141" y1="446.832" y2="446.832"/><line style="stroke:#000000;stroke-width:0.5;" x1="5" x2="1889.4141" y1="449.832" y2="449.832"/><rect fill="#FFFFFF" height="23.1328" style="stroke:#000000;stroke-width:1;" width="153.3501" x="870.532" y="436.2656"/><text fill="#000000" font-family="Verdana" font-size="13" font-weight="bold" lengthAdjust="spacing" textLength="134.8242" x="876.532" y="452.3325">Load Detail Filters</text><g class="message" data-participant-1="User" data-participant-2="Controller"><polygon fill="#000000" points="401.7939,486.5313,411.7939,490.5313,401.7939,494.5313,405.7939,490.5313" style="stroke:#000000;stroke-width:1;"/><line style="stroke:#000000;stroke-width:1;" x1="28.9551" x2="407.7939" y1="490.5313" y2="490.5313"/><text fill="#000000" font-family="Verdana" font-size="13" lengthAdjust="spacing" textLength="223.4629" x="35.9551" y="485.4653">POST GetMatchMonitorFilter(para)</text></g><g class="message" data-participant-1="Controller" data-participant-2="Controller"><line style="stroke:#000000;stroke-width:1;" x1="423.7939" x2="465.7939" y1="519.6641" y2="519.6641"/><line style="stroke:#000000;stroke-width:1;" x1="465.7939" x2="465.7939" y1="519.6641" y2="532.6641"/><line style="stroke:#000000;stroke-width:1;" x1="424.7939" x2="465.7939" y1="532.6641" y2="532.6641"/><polygon fill="#000000" points="434.7939,528.6641,424.7939,532.6641,434.7939,536.6641,430.7939,532.6641" style="stroke:#000000;stroke-width:1;"/><text fill="#000000" font-family="Verdana" font-size="13" lengthAdjust="spacing" textLength="189.4712" x="430.7939" y="514.5981">Set para.TicketType = Single</text></g><g class="message" data-participant-1="Controller" data-participant-2="Service"><polygon fill="#000000" points="659.519,557.7969,669.519,561.7969,659.519,565.7969,663.519,561.7969" style="stroke:#000000;stroke-width:1;"/><line style="stroke:#000000;stroke-width:1;" x1="423.7939" x2="665.519" y1="561.7969" y2="561.7969"/><text fill="#000000" font-family="Verdana" font-size="13" lengthAdjust="spacing" textLength="185.0659" x="430.7939" y="556.731">GetMatchMonitorFilter(para)</text></g><path d="M597.166,576.7969 L661.6089,576.7969 L661.6089,583.9297 L651.6089,593.9297 L597.166,593.9297 L597.166,576.7969" fill="#FFFFFF" style="stroke:#000000;stroke-width:1;"/><rect fill="none" height="173.1406" style="stroke:#000000;stroke-width:1;" width="369.9189" x="597.166" y="576.7969"/><text fill="#000000" font-family="Verdana" font-size="13" font-weight="bold" lengthAdjust="spacing" textLength="19.4429" x="612.166" y="589.8638">alt</text><text fill="#000000" font-family="Verdana" font-size="11" font-weight="bold" lengthAdjust="spacing" textLength="159.3442" x="676.6089" y="589.0073">[para.IsImportNewTicket]</text><g class="message" data-participant-1="Service" data-participant-2="Service"><line style="stroke:#000000;stroke-width:1;" x1="681.519" x2="723.519" y1="615.0625" y2="615.0625"/><line style="stroke:#000000;stroke-width:1;" x1="723.519" x2="723.519" y1="615.0625" y2="628.0625"/><line style="stroke:#000000;stroke-width:1;" x1="682.519" x2="723.519" y1="628.0625" y2="628.0625"/><polygon fill="#000000" points="692.519,624.0625,682.519,628.0625,692.519,632.0625,688.519,628.0625" style="stroke:#000000;stroke-width:1;"/><text fill="#000000" font-family="Verdana" font-size="13" lengthAdjust="spacing" textLength="256.5659" x="688.519" y="609.9966">GetMatchMonitorFilterImportNew(para)</text></g><line style="stroke:#000000;stroke-width:1;stroke-dasharray:2,2;" x1="597.166" x2="967.085" y1="637.0625" y2="637.0625"/><text fill="#000000" font-family="Verdana" font-size="11" font-weight="bold" lengthAdjust="spacing" textLength="230.8872" x="602.166" y="647.2729">[para.TypeOfTickets == TicketFraud]</text><g class="message" data-participant-1="Service" data-participant-2="Service"><line style="stroke:#000000;stroke-width:1;" x1="681.519" x2="723.519" y1="672" y2="672"/><line style="stroke:#000000;stroke-width:1;" x1="723.519" x2="723.519" y1="672" y2="685"/><line style="stroke:#000000;stroke-width:1;" x1="682.519" x2="723.519" y1="685" y2="685"/><polygon fill="#000000" points="692.519,681,682.519,685,692.519,689,688.519,685" style="stroke:#000000;stroke-width:1;"/><text fill="#000000" font-family="Verdana" font-size="13" lengthAdjust="spacing" textLength="155.6953" x="688.519" y="666.9341">GetFraudMMFilter(para)</text></g><line style="stroke:#000000;stroke-width:1;stroke-dasharray:2,2;" x1="597.166" x2="967.085" y1="694" y2="694"/><text fill="#000000" font-family="Verdana" font-size="11" font-weight="bold" lengthAdjust="spacing" textLength="196.6626" x="602.166" y="704.2104">[para.IsSupportShowAllTickets]</text><g class="message" data-participant-1="Service" data-participant-2="Service"><line style="stroke:#000000;stroke-width:1;" x1="681.519" x2="723.519" y1="728.9375" y2="728.9375"/><line style="stroke:#000000;stroke-width:1;" x1="723.519" x2="723.519" y1="728.9375" y2="741.9375"/><line style="stroke:#000000;stroke-width:1;" x1="682.519" x2="723.519" y1="741.9375" y2="741.9375"/><polygon fill="#000000" points="692.519,737.9375,682.519,741.9375,692.519,745.9375,688.519,741.9375" style="stroke:#000000;stroke-width:1;"/><text fill="#000000" font-family="Verdana" font-size="13" lengthAdjust="spacing" textLength="134.5322" x="688.519" y="723.8716">GetAllMMFilter(para)</text></g><g class="message" data-participant-1="Service" data-participant-2="MMService"><polygon fill="#000000" points="950.085,774.0703,960.085,778.0703,950.085,782.0703,954.085,778.0703" style="stroke:#000000;stroke-width:1;"/><line style="stroke:#000000;stroke-width:1;" x1="681.519" x2="956.085" y1="778.0703" y2="778.0703"/><text fill="#000000" font-family="Verdana" font-size="13" lengthAdjust="spacing" textLength="185.0659" x="688.519" y="773.0044">GetMatchMonitorFilter(para)</text></g><g class="message" data-participant-1="MMService" data-participant-2="Repository"><polygon fill="#000000" points="1256.1709,803.2031,1266.1709,807.2031,1256.1709,811.2031,1260.1709,807.2031" style="stroke:#000000;stroke-width:1;"/><line style="stroke:#000000;stroke-width:1;" x1="972.085" x2="1262.1709" y1="807.2031" y2="807.2031"/><text fill="#000000" font-family="Verdana" font-size="13" lengthAdjust="spacing" textLength="245.832" x="979.085" y="802.1372">Fetch&lt;MMDetailFilterEntity&gt;(criteria)</text></g><g class="message" data-participant-1="Repository" data-participant-2="DB"><polygon fill="#000000" points="1595.4951,832.3359,1605.4951,836.3359,1595.4951,840.3359,1599.4951,836.3359" style="stroke:#000000;stroke-width:1;"/><line style="stroke:#000000;stroke-width:1;" x1="1278.1709" x2="1601.4951" y1="836.3359" y2="836.3359"/><text fill="#000000" font-family="Verdana" font-size="13" lengthAdjust="spacing" textLength="304.1416" x="1285.1709" y="831.27">EXEC CTS_MatchMonitor_Details_GetFilter [SP]</text></g><path d="M1622,849.3359 L1622,919.3359 L1878,919.3359 L1878,859.3359 L1868,849.3359 L1622,849.3359" fill="#FFFFFF" style="stroke:#000000;stroke-width:1;"/><path d="M1868,849.3359 L1868,859.3359 L1878,859.3359 L1868,849.3359" fill="#FFFFFF" style="stroke:#000000;stroke-width:1;"/><text fill="#000000" font-family="Verdana" font-size="13" lengthAdjust="spacing" textLength="117.5269" x="1628" y="866.4028">Stored Procedure:</text><text fill="#000000" font-family="Verdana" font-size="13" lengthAdjust="spacing" textLength="235.2314" x="1628" y="881.5356">CTS_MatchMonitor_Details_GetFilter</text><text fill="#000000" font-family="Verdana" font-size="13" lengthAdjust="spacing" textLength="209.7964" x="1628" y="896.6685">@MatchID, @BettypeID, @BetID</text><text fill="#000000" font-family="Verdana" font-size="13" lengthAdjust="spacing" textLength="222.6187" x="1628" y="911.8013">@ViewMode = 2 (Danger Monitor)</text><g class="message" data-participant-1="DB" data-participant-2="Repository"><polygon fill="#000000" points="1289.1709,942,1279.1709,946,1289.1709,950,1285.1709,946" style="stroke:#000000;stroke-width:1;"/><line style="stroke:#000000;stroke-width:1;stroke-dasharray:2,2;" x1="1283.1709" x2="1611.4951" y1="946" y2="946"/><text fill="#000000" font-family="Verdana" font-size="13" lengthAdjust="spacing" textLength="116.397" x="1295.1709" y="940.9341">Return Filter Data</text></g><g class="message" data-participant-1="Repository" data-participant-2="MMService"><polygon fill="#000000" points="983.085,971.1328,973.085,975.1328,983.085,979.1328,979.085,975.1328" style="stroke:#000000;stroke-width:1;"/><line style="stroke:#000000;stroke-width:1;stroke-dasharray:2,2;" x1="977.085" x2="1272.1709" y1="975.1328" y2="975.1328"/><text fill="#000000" font-family="Verdana" font-size="13" lengthAdjust="spacing" textLength="164.0361" x="989.085" y="970.0669">MMDetailFilterViewModel</text></g><g class="message" data-participant-1="MMService" data-participant-2="Service"><polygon fill="#000000" points="692.519,1000.2656,682.519,1004.2656,692.519,1008.2656,688.519,1004.2656" style="stroke:#000000;stroke-width:1;"/><line style="stroke:#000000;stroke-width:1;stroke-dasharray:2,2;" x1="686.519" x2="966.085" y1="1004.2656" y2="1004.2656"/><text fill="#000000" font-family="Verdana" font-size="13" lengthAdjust="spacing" textLength="164.0361" x="698.519" y="999.1997">MMDetailFilterViewModel</text></g><g class="message" data-participant-1="Service" data-participant-2="Controller"><polygon fill="#000000" points="434.7939,1029.3984,424.7939,1033.3984,434.7939,1037.3984,430.7939,1033.3984" style="stroke:#000000;stroke-width:1;"/><line style="stroke:#000000;stroke-width:1;stroke-dasharray:2,2;" x1="428.7939" x2="675.519" y1="1033.3984" y2="1033.3984"/><text fill="#000000" font-family="Verdana" font-size="13" lengthAdjust="spacing" textLength="164.0361" x="440.7939" y="1028.3325">MMDetailFilterViewModel</text></g><g class="message" data-participant-1="Controller" data-participant-2="User"><polygon fill="#000000" points="39.9551,1058.5313,29.9551,1062.5313,39.9551,1066.5313,35.9551,1062.5313" style="stroke:#000000;stroke-width:1;"/><line style="stroke:#000000;stroke-width:1;stroke-dasharray:2,2;" x1="33.9551" x2="417.7939" y1="1062.5313" y2="1062.5313"/><text fill="#000000" font-family="Verdana" font-size="13" lengthAdjust="spacing" textLength="227.208" x="45.9551" y="1057.4653">JSON Response { data: filterData }</text></g><rect fill="#FFFFFF" height="3" style="stroke:#FFFFFF;stroke-width:1;" width="1884.4141" x="5" y="1091.0977"/><line style="stroke:#000000;stroke-width:0.5;" x1="5" x2="1889.4141" y1="1091.0977" y2="1091.0977"/><line style="stroke:#000000;stroke-width:0.5;" x1="5" x2="1889.4141" y1="1094.0977" y2="1094.0977"/><rect fill="#FFFFFF" height="23.1328" style="stroke:#000000;stroke-width:1;" width="158.8218" x="867.7961" y="1080.5313"/><text fill="#000000" font-family="Verdana" font-size="13" font-weight="bold" lengthAdjust="spacing" textLength="140.2959" x="873.7961" y="1096.5981">Load Detail Tickets</text><g class="message" data-participant-1="User" data-participant-2="Controller"><polygon fill="#000000" points="401.7939,1130.7969,411.7939,1134.7969,401.7939,1138.7969,405.7939,1134.7969" style="stroke:#000000;stroke-width:1;"/><line style="stroke:#000000;stroke-width:1;" x1="28.9551" x2="407.7939" y1="1134.7969" y2="1134.7969"/><text fill="#000000" font-family="Verdana" font-size="13" lengthAdjust="spacing" textLength="267.1221" x="35.9551" y="1129.731">POST GetMatchMonitorDetail(para, filter)</text></g><g class="message" data-participant-1="Controller" data-participant-2="Controller"><line style="stroke:#000000;stroke-width:1;" x1="423.7939" x2="465.7939" y1="1163.9297" y2="1163.9297"/><line style="stroke:#000000;stroke-width:1;" x1="465.7939" x2="465.7939" y1="1163.9297" y2="1176.9297"/><line style="stroke:#000000;stroke-width:1;" x1="424.7939" x2="465.7939" y1="1176.9297" y2="1176.9297"/><polygon fill="#000000" points="434.7939,1172.9297,424.7939,1176.9297,434.7939,1180.9297,430.7939,1176.9297" style="stroke:#000000;stroke-width:1;"/><text fill="#000000" font-family="Verdana" font-size="13" lengthAdjust="spacing" textLength="189.4712" x="430.7939" y="1158.8638">Set para.TicketType = Single</text></g><g class="message" data-participant-1="Controller" data-participant-2="Service"><polygon fill="#000000" points="659.519,1202.0625,669.519,1206.0625,659.519,1210.0625,663.519,1206.0625" style="stroke:#000000;stroke-width:1;"/><line style="stroke:#000000;stroke-width:1;" x1="423.7939" x2="665.519" y1="1206.0625" y2="1206.0625"/><text fill="#000000" font-family="Verdana" font-size="13" lengthAdjust="spacing" textLength="228.7251" x="430.7939" y="1200.9966">GetMatchMonitorDetail(para, filter)</text></g><g class="message" data-participant-1="Service" data-participant-2="MMService"><polygon fill="#000000" points="950.085,1231.1953,960.085,1235.1953,950.085,1239.1953,954.085,1235.1953" style="stroke:#000000;stroke-width:1;"/><line style="stroke:#000000;stroke-width:1;" x1="681.519" x2="956.085" y1="1235.1953" y2="1235.1953"/><text fill="#000000" font-family="Verdana" font-size="13" lengthAdjust="spacing" textLength="228.7251" x="688.519" y="1230.1294">GetMatchMonitorDetail(para, filter)</text></g><g class="message" data-participant-1="MMService" data-participant-2="MMService"><line style="stroke:#000000;stroke-width:1;" x1="972.085" x2="1014.085" y1="1264.3281" y2="1264.3281"/><line style="stroke:#000000;stroke-width:1;" x1="1014.085" x2="1014.085" y1="1264.3281" y2="1277.3281"/><line style="stroke:#000000;stroke-width:1;" x1="973.085" x2="1014.085" y1="1277.3281" y2="1277.3281"/><polygon fill="#000000" points="983.085,1273.3281,973.085,1277.3281,983.085,1281.3281,979.085,1277.3281" style="stroke:#000000;stroke-width:1;"/><text fill="#000000" font-family="Verdana" font-size="13" lengthAdjust="spacing" textLength="272.0859" x="979.085" y="1259.2622">GetMatchMonitorDetailForCache(para, ...)</text></g><g class="message" data-participant-1="MMService" data-participant-2="MMService"><line style="stroke:#000000;stroke-width:1;" x1="972.085" x2="1014.085" y1="1306.4609" y2="1306.4609"/><line style="stroke:#000000;stroke-width:1;" x1="1014.085" x2="1014.085" y1="1306.4609" y2="1319.4609"/><line style="stroke:#000000;stroke-width:1;" x1="973.085" x2="1014.085" y1="1319.4609" y2="1319.4609"/><polygon fill="#000000" points="983.085,1315.4609,973.085,1319.4609,983.085,1323.4609,979.085,1319.4609" style="stroke:#000000;stroke-width:1;"/><text fill="#000000" font-family="Verdana" font-size="13" lengthAdjust="spacing" textLength="224.4976" x="979.085" y="1301.395">GetSingleTicketDetailForCache(...)</text></g><g class="message" data-participant-1="MMService" data-participant-2="Repository"><polygon fill="#000000" points="1256.1709,1344.5938,1266.1709,1348.5938,1256.1709,1352.5938,1260.1709,1348.5938" style="stroke:#000000;stroke-width:1;"/><line style="stroke:#000000;stroke-width:1;" x1="972.085" x2="1262.1709" y1="1348.5938" y2="1348.5938"/><text fill="#000000" font-family="Verdana" font-size="13" lengthAdjust="spacing" textLength="229.582" x="979.085" y="1343.5278">Fetch&lt;TicketDetailEntity&gt;(criteria)</text></g><g class="message" data-participant-1="Repository" data-participant-2="DB"><polygon fill="#000000" points="1595.4951,1373.7266,1605.4951,1377.7266,1595.4951,1381.7266,1599.4951,1377.7266" style="stroke:#000000;stroke-width:1;"/><line style="stroke:#000000;stroke-width:1;" x1="1278.1709" x2="1601.4951" y1="1377.7266" y2="1377.7266"/><text fill="#000000" font-family="Verdana" font-size="13" lengthAdjust="spacing" textLength="310.3242" x="1285.1709" y="1372.6606">EXEC CTS_MatchMonitor_Details_GetTicket [SP]</text></g><path d="M1622,1390.7266 L1622,1460.7266 L1884,1460.7266 L1884,1400.7266 L1874,1390.7266 L1622,1390.7266" fill="#FFFFFF" style="stroke:#000000;stroke-width:1;"/><path d="M1874,1390.7266 L1874,1400.7266 L1884,1400.7266 L1874,1390.7266" fill="#FFFFFF" style="stroke:#000000;stroke-width:1;"/><text fill="#000000" font-family="Verdana" font-size="13" lengthAdjust="spacing" textLength="117.5269" x="1628" y="1407.7935">Stored Procedure:</text><text fill="#000000" font-family="Verdana" font-size="13" lengthAdjust="spacing" textLength="241.4141" x="1628" y="1422.9263">CTS_MatchMonitor_Details_GetTicket</text><text fill="#000000" font-family="Verdana" font-size="13" lengthAdjust="spacing" textLength="209.7964" x="1628" y="1438.0591">@MatchID, @BettypeID, @BetID</text><text fill="#000000" font-family="Verdana" font-size="13" lengthAdjust="spacing" textLength="227.4556" x="1628" y="1453.1919">@QueryType = 3 (Danger Monitor)</text><g class="message" data-participant-1="DB" data-participant-2="Repository"><polygon fill="#000000" points="1289.1709,1483.3906,1279.1709,1487.3906,1289.1709,1491.3906,1285.1709,1487.3906" style="stroke:#000000;stroke-width:1;"/><line style="stroke:#000000;stroke-width:1;stroke-dasharray:2,2;" x1="1283.1709" x2="1611.4951" y1="1487.3906" y2="1487.3906"/><text fill="#000000" font-family="Verdana" font-size="13" lengthAdjust="spacing" textLength="136.6079" x="1295.1709" y="1482.3247">Return Ticket Details</text></g><g class="message" data-participant-1="Repository" data-participant-2="MMService"><polygon fill="#000000" points="983.085,1512.5234,973.085,1516.5234,983.085,1520.5234,979.085,1516.5234" style="stroke:#000000;stroke-width:1;"/><line style="stroke:#000000;stroke-width:1;stroke-dasharray:2,2;" x1="977.085" x2="1272.1709" y1="1516.5234" y2="1516.5234"/><text fill="#000000" font-family="Verdana" font-size="13" lengthAdjust="spacing" textLength="115.5718" x="989.085" y="1511.4575">TicketDetailEntity</text></g><g class="message" data-participant-1="MMService" data-participant-2="MMService"><line style="stroke:#000000;stroke-width:1;" x1="972.085" x2="1014.085" y1="1545.6563" y2="1545.6563"/><line style="stroke:#000000;stroke-width:1;" x1="1014.085" x2="1014.085" y1="1545.6563" y2="1558.6563"/><line style="stroke:#000000;stroke-width:1;" x1="973.085" x2="1014.085" y1="1558.6563" y2="1558.6563"/><polygon fill="#000000" points="983.085,1554.6563,973.085,1558.6563,983.085,1562.6563,979.085,1558.6563" style="stroke:#000000;stroke-width:1;"/><text fill="#000000" font-family="Verdana" font-size="13" lengthAdjust="spacing" textLength="168.4478" x="979.085" y="1540.5903">Process &amp; Transform data</text></g><g class="message" data-participant-1="MMService" data-participant-2="Service"><polygon fill="#000000" points="692.519,1583.7891,682.519,1587.7891,692.519,1591.7891,688.519,1587.7891" style="stroke:#000000;stroke-width:1;"/><line style="stroke:#000000;stroke-width:1;stroke-dasharray:2,2;" x1="686.519" x2="966.085" y1="1587.7891" y2="1587.7891"/><text fill="#000000" font-family="Verdana" font-size="13" lengthAdjust="spacing" textLength="192.9434" x="698.519" y="1582.7231">MMDetailTicketListViewModel</text></g><g class="message" data-participant-1="Service" data-participant-2="Controller"><polygon fill="#000000" points="434.7939,1612.9219,424.7939,1616.9219,434.7939,1620.9219,430.7939,1616.9219" style="stroke:#000000;stroke-width:1;"/><line style="stroke:#000000;stroke-width:1;stroke-dasharray:2,2;" x1="428.7939" x2="675.519" y1="1616.9219" y2="1616.9219"/><text fill="#000000" font-family="Verdana" font-size="13" lengthAdjust="spacing" textLength="192.9434" x="440.7939" y="1611.856">MMDetailTicketListViewModel</text></g><g class="message" data-participant-1="Controller" data-participant-2="User"><polygon fill="#000000" points="39.9551,1642.0547,29.9551,1646.0547,39.9551,1650.0547,35.9551,1646.0547" style="stroke:#000000;stroke-width:1;"/><line style="stroke:#000000;stroke-width:1;stroke-dasharray:2,2;" x1="33.9551" x2="417.7939" y1="1646.0547" y2="1646.0547"/><text fill="#000000" font-family="Verdana" font-size="13" lengthAdjust="spacing" textLength="360.8389" x="45.9551" y="1640.9888">JSON Response { data: tickets, recordsFiltered: count }</text></g><!--SRC=[nLPHRzem47xthxZrOGAfvM5xGwFg8ALYQbhQi6dIEbLUSe2rO6UsqmfD- - -pOvSuj0riKpLUCEI-xoxVtNt9Axt45KAHKyQ9PZf7Y2XVe8HOSAQ5X0WrPJbCwGBX21ByKI9FJHIZ2qbNXD3KHdrKA4b1fMOfAoZNSE1eFCiD7mckfSXpb0T05TG_Mr49oZkMOWNnvsPyJ7MwV38yZfy4Z2JJA1dr5szuvneBeIn-tQs0zM-IKKs_KOLma5oTLmMWoHBvVwleQ4Z8O03dWcODgGO3OZM1e-FWNljmTZhpOHrJ5krQ-TWTrHWgGkgpnVjI3HZr4BLU5wZ6Kgn6D5rYfqlyTJZQolKG2_OsjaaRHQ4-aw8iHgNIOeLob5Eb374huXgf4hp2jSScgE4Jm_iXNK0XHO6c6wWQ08EmOlMDzhgKl0g7ZjEfbwgbNkLTak6JMcs9FsQvwQzwJl_fPJAprOTpuo3xzsFxvYomDsFfTzGpepSC865yaMDB6tUdVnXUGdEVOQ8cgq98VO7tBXa1yzaqVrU23TXdmjpCjIlT57qvTvnME737iQHbrfQZ2eZZHlqrwqGbPM5J9ajn_pxFFNyReOdQfkCP8K7qPgdtLB4s0R8vMfvwn_imHiFoBexT03cUKswyS7tSIRrR19I1FP3wR4cZOHzEFv-EO3HBRiFQRXsrkhMYLVpm9Pb-hJcDYN1XlYLRB3M8UKML62HcC9KYnQoKs3SckfFuXfzK0PFe44wy0JoS9v6vQbSh5fcTqZTcnHfUtoNHi5h6K1w_ahvkwttX9bhx2rLezgWfwaFgF2G8vGnQ54x67Yn1dvzpmprODXnFUjE7vFB2bAiAmSsC_wnSjG_pYixA0h_sjAXwq_QsgE2HSUXJ_W-hQY_ZSGlQ5hQTwxd5tSKt5j8z5XrlhzVhjX6uktU2R15Kq5sk4I9VpZDSbXVm34UyqpEkIfHhFozl_yGqVE4-u_w-yLZMFIoZmL0fe1IyXfcaNCs5NBdNe1qUupAVCwN_rMTsCFsDrsXd78SWCHKoKyxACEj3AahpSlkC0Vq6]--></g></svg>