<svg xmlns="http://www.w3.org/2000/svg" xmlns:xlink="http://www.w3.org/1999/xlink" contentStyleType="text/css" data-diagram-type="ACTIVITY" height="753px" preserveAspectRatio="none" style="width:2342px;height:753px;background:#FFFFFF;" version="1.1" viewBox="0 0 2342 753" width="2342px" zoomAndPan="magnify"><title>Danger Monitor - Database Flow Diagram</title><defs/><g><g class="title" data-source-line="2"><text fill="#000000" font-family="Verdana" font-size="22" font-weight="bold" lengthAdjust="spacing" textLength="514.5078" x="912.7214" y="35.4209">Danger Monitor - Database Flow Diagram</text></g><ellipse cx="1176.4753" cy="61.6094" fill="#FFFFFF" rx="10" ry="10" style="stroke:#000000;stroke-width:1;"/><rect fill="#FFFFFF" height="33.9688" rx="12.5" ry="12.5" style="stroke:#000000;stroke-width:1;" width="100.4492" x="1126.2507" y="91.6094"/><text fill="#000000" font-family="Verdana" font-size="12" lengthAdjust="spacing" textLength="80.4492" x="1136.2507" y="112.748">User Request</text><polygon fill="#FFFFFF" points="119.9568,145.5781,190.9143,145.5781,202.9143,157.5781,190.9143,169.5781,119.9568,169.5781,107.9568,157.5781,119.9568,145.5781" style="stroke:#000000;stroke-width:1;"/><text fill="#000000" font-family="Verdana" font-size="11" lengthAdjust="spacing" textLength="193.9233" x="159.4355" y="179.7886">GetDangerMonitor - No Association</text><text fill="#000000" font-family="Verdana" font-size="11" lengthAdjust="spacing" textLength="70.9575" x="119.9568" y="161.3862">Action Type?</text><path d="M324.8711,202.3828 L324.8711,279.0469 L304.8711,283.0469 L324.8711,287.0469 L324.8711,363.7109 A0,0 0 0 0 324.8711,363.7109 L477.9785,363.7109 A0,0 0 0 0 477.9785,363.7109 L477.9785,212.3828 L467.9785,202.3828 L324.8711,202.3828 A0,0 0 0 0 324.8711,202.3828" fill="#FFFFFF" style="stroke:#000000;stroke-width:1;"/><path d="M467.9785,202.3828 L467.9785,212.3828 L477.9785,212.3828 L467.9785,202.3828" fill="#FFFFFF" style="stroke:#000000;stroke-width:1;"/><text fill="#000000" font-family="Verdana" font-size="13" lengthAdjust="spacing" textLength="79.3711" x="330.8711" y="219.4497">Parameters:</text><text fill="#000000" font-family="Verdana" font-size="13" lengthAdjust="spacing" textLength="86.3345" x="330.8711" y="234.5825">- @FromDate</text><text fill="#000000" font-family="Verdana" font-size="13" lengthAdjust="spacing" textLength="68.7896" x="330.8711" y="249.7153">- @ToDate</text><text fill="#000000" font-family="Verdana" font-size="13" lengthAdjust="spacing" textLength="79.4473" x="330.8711" y="264.8481">- @SportList</text><text fill="#000000" font-family="Verdana" font-size="13" lengthAdjust="spacing" textLength="95.6021" x="330.8711" y="279.981">- @BettypeList</text><text fill="#000000" font-family="Verdana" font-size="13" lengthAdjust="spacing" textLength="110.9507" x="330.8711" y="295.1138">- @DangerLevels</text><text fill="#000000" font-family="Verdana" font-size="13" lengthAdjust="spacing" textLength="112.5313" x="330.8711" y="310.2466">- @UserNameList</text><text fill="#000000" font-family="Verdana" font-size="13" lengthAdjust="spacing" textLength="132.1074" x="330.8711" y="325.3794">- @LeagueGroupList</text><text fill="#000000" font-family="Verdana" font-size="13" lengthAdjust="spacing" textLength="102.54" x="330.8711" y="340.5122">- @UserAmount</text><text fill="#000000" font-family="Verdana" font-size="13" lengthAdjust="spacing" textLength="105.479" x="330.8711" y="355.645">- @TotalAmount</text><rect fill="#FFFFFF" height="33.9688" rx="12.5" ry="12.5" style="stroke:#000000;stroke-width:1;" width="298.8711" x="6" y="266.0625"/><text fill="#000000" font-family="Verdana" font-size="12" lengthAdjust="spacing" textLength="278.8711" x="16" y="287.2012">Create DangerMonitorSearchMatchInfoCriteria</text><rect fill="#FFFFFF" height="33.9688" rx="12.5" ry="12.5" style="stroke:#000000;stroke-width:1;" width="224.5098" x="43.1807" y="398.7109"/><text fill="#000000" font-family="Verdana" font-size="12" lengthAdjust="spacing" textLength="204.5098" x="53.1807" y="419.8496">Execute CTS_MatchTicketInfo_Get</text><rect fill="#FFFFFF" height="33.9688" rx="12.5" ry="12.5" style="stroke:#000000;stroke-width:1;" width="113.6797" x="98.5957" y="467.6797"/><text fill="#000000" font-family="Verdana" font-size="12" lengthAdjust="spacing" textLength="93.6797" x="108.5957" y="488.8184">Process Results</text><rect fill="#FFFFFF" height="33.9688" rx="12.5" ry="12.5" style="stroke:#000000;stroke-width:1;" width="232.6309" x="39.1201" y="532.4141"/><text fill="#000000" font-family="Verdana" font-size="12" lengthAdjust="spacing" textLength="212.6309" x="49.1201" y="553.5527">Return DangerMMTicketInfoEntity[]</text><polygon fill="#FFFFFF" points="610.78,145.5781,814.9622,145.5781,826.9622,157.5781,814.9622,169.5781,610.78,169.5781,598.78,157.5781,610.78,145.5781" style="stroke:#000000;stroke-width:1;"/><text fill="#000000" font-family="Verdana" font-size="11" lengthAdjust="spacing" textLength="204.1821" x="610.78" y="161.3862">GetDangerMonitor - With Association</text><rect fill="#FFFFFF" height="33.9688" rx="12.5" ry="12.5" style="stroke:#000000;stroke-width:1;" width="162.0957" x="631.8232" y="189.5781"/><text fill="#000000" font-family="Verdana" font-size="12" lengthAdjust="spacing" textLength="142.0957" x="641.8232" y="210.7168">Detect Association First</text><path d="M957.7637,258.5469 L957.7637,312.5117 L937.7637,316.5117 L957.7637,320.5117 L957.7637,374.4766 A0,0 0 0 0 957.7637,374.4766 L1150.4233,374.4766 A0,0 0 0 0 1150.4233,374.4766 L1150.4233,268.5469 L1140.4233,258.5469 L957.7637,258.5469 A0,0 0 0 0 957.7637,258.5469" fill="#FFFFFF" style="stroke:#000000;stroke-width:1;"/><path d="M1140.4233,258.5469 L1140.4233,268.5469 L1150.4233,268.5469 L1140.4233,258.5469" fill="#FFFFFF" style="stroke:#000000;stroke-width:1;"/><text fill="#000000" font-family="Verdana" font-size="13" lengthAdjust="spacing" textLength="79.3711" x="963.7637" y="275.6138">Parameters:</text><text fill="#000000" font-family="Verdana" font-size="13" lengthAdjust="spacing" textLength="86.3345" x="963.7637" y="290.7466">- @FromDate</text><text fill="#000000" font-family="Verdana" font-size="13" lengthAdjust="spacing" textLength="68.7896" x="963.7637" y="305.8794">- @ToDate</text><text fill="#000000" font-family="Verdana" font-size="13" lengthAdjust="spacing" textLength="79.4473" x="963.7637" y="321.0122">- @SportList</text><text fill="#000000" font-family="Verdana" font-size="13" lengthAdjust="spacing" textLength="95.6021" x="963.7637" y="336.145">- @BettypeList</text><text fill="#000000" font-family="Verdana" font-size="13" lengthAdjust="spacing" textLength="171.6597" x="963.7637" y="351.2778">- @AssociationsList (JSON)</text><text fill="#000000" font-family="Verdana" font-size="13" lengthAdjust="spacing" textLength="86.8804" x="963.7637" y="366.4106">- Other filters</text><rect fill="#FFFFFF" height="33.9688" rx="12.5" ry="12.5" style="stroke:#000000;stroke-width:1;" width="449.7852" x="487.9785" y="299.5273"/><text fill="#000000" font-family="Verdana" font-size="12" lengthAdjust="spacing" textLength="429.7852" x="497.9785" y="320.666">Create DangerMonitorSearchMatchInfoWithAssociationRootUserCriteria</text><rect fill="#FFFFFF" height="33.9688" rx="12.5" ry="12.5" style="stroke:#000000;stroke-width:1;" width="305.0879" x="560.3271" y="409.4766"/><text fill="#000000" font-family="Verdana" font-size="12" lengthAdjust="spacing" textLength="285.0879" x="570.3271" y="430.6152">Execute CTS_MatchTicketInfo_Associations_Get</text><rect fill="#FFFFFF" height="33.9688" rx="12.5" ry="12.5" style="stroke:#000000;stroke-width:1;" width="113.6797" x="656.0313" y="478.4453"/><text fill="#000000" font-family="Verdana" font-size="12" lengthAdjust="spacing" textLength="93.6797" x="666.0313" y="499.584">Process Results</text><rect fill="#FFFFFF" height="33.9688" rx="12.5" ry="12.5" style="stroke:#000000;stroke-width:1;" width="232.6309" x="596.5557" y="543.1797"/><text fill="#000000" font-family="Verdana" font-size="12" lengthAdjust="spacing" textLength="212.6309" x="606.5557" y="564.3184">Return DangerMMTicketInfoEntity[]</text><polygon fill="#FFFFFF" points="1253.5652,145.5781,1376.5901,145.5781,1388.5901,157.5781,1376.5901,169.5781,1253.5652,169.5781,1241.5652,157.5781,1253.5652,145.5781" style="stroke:#000000;stroke-width:1;"/><text fill="#000000" font-family="Verdana" font-size="11" lengthAdjust="spacing" textLength="123.0249" x="1253.5652" y="161.3862">GetMatchMonitorFilter</text><path d="M1406.4341,189.5781 L1406.4341,228.4102 L1386.4341,232.4102 L1406.4341,236.4102 L1406.4341,275.2422 A0,0 0 0 0 1406.4341,275.2422 L1658.876,275.2422 A0,0 0 0 0 1658.876,275.2422 L1658.876,199.5781 L1648.876,189.5781 L1406.4341,189.5781 A0,0 0 0 0 1406.4341,189.5781" fill="#FFFFFF" style="stroke:#000000;stroke-width:1;"/><path d="M1648.876,189.5781 L1648.876,199.5781 L1658.876,199.5781 L1648.876,189.5781" fill="#FFFFFF" style="stroke:#000000;stroke-width:1;"/><text fill="#000000" font-family="Verdana" font-size="13" lengthAdjust="spacing" textLength="79.3711" x="1412.4341" y="206.645">Parameters:</text><text fill="#000000" font-family="Verdana" font-size="13" lengthAdjust="spacing" textLength="75.334" x="1412.4341" y="221.7778">- @MatchID</text><text fill="#000000" font-family="Verdana" font-size="13" lengthAdjust="spacing" textLength="86.7217" x="1412.4341" y="236.9106">- @BettypeID</text><text fill="#000000" font-family="Verdana" font-size="13" lengthAdjust="spacing" textLength="57.6812" x="1412.4341" y="252.0435">- @BetID</text><text fill="#000000" font-family="Verdana" font-size="13" lengthAdjust="spacing" textLength="231.4419" x="1412.4341" y="267.1763">- @ViewMode = 2 (Danger Monitor)</text><rect fill="#FFFFFF" height="33.9688" rx="12.5" ry="12.5" style="stroke:#000000;stroke-width:1;" width="142.7129" x="1243.7212" y="215.4258"/><text fill="#000000" font-family="Verdana" font-size="12" lengthAdjust="spacing" textLength="122.7129" x="1253.7212" y="236.5645">Create Filter Criteria</text><rect fill="#FFFFFF" height="33.9688" rx="12.5" ry="12.5" style="stroke:#000000;stroke-width:1;" width="289.3086" x="1170.4233" y="310.2422"/><text fill="#000000" font-family="Verdana" font-size="12" lengthAdjust="spacing" textLength="269.3086" x="1180.4233" y="331.3809">Execute CTS_MatchMonitor_Details_GetFilter</text><rect fill="#FFFFFF" height="33.9688" rx="12.5" ry="12.5" style="stroke:#000000;stroke-width:1;" width="150.5176" x="1239.8188" y="379.2109"/><text fill="#000000" font-family="Verdana" font-size="12" lengthAdjust="spacing" textLength="130.5176" x="1249.8188" y="400.3496">Process Filter Options</text><rect fill="#FFFFFF" height="33.9688" rx="12.5" ry="12.5" style="stroke:#000000;stroke-width:1;" width="215.8027" x="1207.1763" y="448.1797"/><text fill="#000000" font-family="Verdana" font-size="12" lengthAdjust="spacing" textLength="195.8027" x="1217.1763" y="469.3184">Return MMDetailFilterViewModel</text><polygon fill="#FFFFFF" points="1752.6907,145.5781,1880.0769,145.5781,1892.0769,157.5781,1880.0769,169.5781,1752.6907,169.5781,1740.6907,157.5781,1752.6907,145.5781" style="stroke:#000000;stroke-width:1;"/><text fill="#000000" font-family="Verdana" font-size="11" lengthAdjust="spacing" textLength="127.3862" x="1752.6907" y="161.3862">GetMatchMonitorDetail</text><text fill="#000000" font-family="Verdana" font-size="11" lengthAdjust="spacing" textLength="75.104" x="1892.0769" y="154.9839">Other Actions</text><path d="M1910.1191,189.5781 L1910.1191,235.9766 L1890.1191,239.9766 L1910.1191,243.9766 L1910.1191,290.375 A0,0 0 0 0 1910.1191,290.375 L2167.3979,290.375 A0,0 0 0 0 2167.3979,290.375 L2167.3979,199.5781 L2157.3979,189.5781 L1910.1191,189.5781 A0,0 0 0 0 1910.1191,189.5781" fill="#FFFFFF" style="stroke:#000000;stroke-width:1;"/><path d="M2157.3979,189.5781 L2157.3979,199.5781 L2167.3979,199.5781 L2157.3979,189.5781" fill="#FFFFFF" style="stroke:#000000;stroke-width:1;"/><text fill="#000000" font-family="Verdana" font-size="13" lengthAdjust="spacing" textLength="79.3711" x="1916.1191" y="206.645">Parameters:</text><text fill="#000000" font-family="Verdana" font-size="13" lengthAdjust="spacing" textLength="75.334" x="1916.1191" y="221.7778">- @MatchID</text><text fill="#000000" font-family="Verdana" font-size="13" lengthAdjust="spacing" textLength="86.7217" x="1916.1191" y="236.9106">- @BettypeID</text><text fill="#000000" font-family="Verdana" font-size="13" lengthAdjust="spacing" textLength="57.6812" x="1916.1191" y="252.0435">- @BetID</text><text fill="#000000" font-family="Verdana" font-size="13" lengthAdjust="spacing" textLength="236.2788" x="1916.1191" y="267.1763">- @QueryType = 3 (Danger Monitor)</text><text fill="#000000" font-family="Verdana" font-size="13" lengthAdjust="spacing" textLength="121.5005" x="1916.1191" y="282.3091">- Filter parameters</text><rect fill="#FFFFFF" height="33.9688" rx="12.5" ry="12.5" style="stroke:#000000;stroke-width:1;" width="147.4707" x="1742.6484" y="222.9922"/><text fill="#000000" font-family="Verdana" font-size="12" lengthAdjust="spacing" textLength="127.4707" x="1752.6484" y="244.1309">Create Detail Criteria</text><rect fill="#FFFFFF" height="33.9688" rx="12.5" ry="12.5" style="stroke:#000000;stroke-width:1;" width="295.0156" x="1668.876" y="325.375"/><text fill="#000000" font-family="Verdana" font-size="12" lengthAdjust="spacing" textLength="275.0156" x="1678.876" y="346.5137">Execute CTS_MatchMonitor_Details_GetTicket</text><rect fill="#FFFFFF" height="33.9688" rx="12.5" ry="12.5" style="stroke:#000000;stroke-width:1;" width="151.5254" x="1740.6211" y="394.3438"/><text fill="#000000" font-family="Verdana" font-size="12" lengthAdjust="spacing" textLength="131.5254" x="1750.6211" y="415.4824">Process Ticket Details</text><rect fill="#FFFFFF" height="33.9688" rx="12.5" ry="12.5" style="stroke:#000000;stroke-width:1;" width="242.4863" x="1695.1406" y="463.3125"/><text fill="#000000" font-family="Verdana" font-size="12" lengthAdjust="spacing" textLength="222.4863" x="1705.1406" y="484.4512">Return MMDetailTicketListViewModel</text><rect fill="#FFFFFF" height="33.9688" rx="12.5" ry="12.5" style="stroke:#000000;stroke-width:1;" width="159.5527" x="2177.3979" y="371.4961"/><text fill="#000000" font-family="Verdana" font-size="12" lengthAdjust="spacing" textLength="139.5527" x="2187.3979" y="392.6348">Handle Other Requests</text><rect fill="#FFFFFF" height="33.9688" rx="12.5" ry="12.5" style="stroke:#000000;stroke-width:1;" width="136.0215" x="1108.4646" y="617.1484"/><text fill="#000000" font-family="Verdana" font-size="12" lengthAdjust="spacing" textLength="116.0215" x="1118.4646" y="638.2871">Map to ViewModels</text><rect fill="#FFFFFF" height="33.9688" rx="12.5" ry="12.5" style="stroke:#000000;stroke-width:1;" width="161.8672" x="1095.5417" y="671.1172"/><text fill="#000000" font-family="Verdana" font-size="12" lengthAdjust="spacing" textLength="141.8672" x="1105.5417" y="692.2559">Return to Service Layer</text><ellipse cx="1176.4753" cy="736.0859" fill="none" rx="11" ry="11" style="stroke:#000000;stroke-width:1;"/><ellipse cx="1176.4753" cy="736.0859" fill="#FFFFFF" rx="6" ry="6" style="stroke:#000000;stroke-width:1;"/><line style="stroke:#000000;stroke-width:1;" x1="1176.4753" x2="1176.4753" y1="71.6094" y2="91.6094"/><polygon fill="#000000" points="1172.4753,81.6094,1176.4753,91.6094,1180.4753,81.6094,1176.4753,85.6094" style="stroke:#000000;stroke-width:1;"/><line style="stroke:#000000;stroke-width:1;" x1="155.4355" x2="155.4355" y1="300.0313" y2="398.7109"/><polygon fill="#000000" points="151.4355,388.7109,155.4355,398.7109,159.4355,388.7109,155.4355,392.7109" style="stroke:#000000;stroke-width:1;"/><line style="stroke:#000000;stroke-width:1;" x1="155.4355" x2="155.4355" y1="432.6797" y2="467.6797"/><polygon fill="#000000" points="151.4355,457.6797,155.4355,467.6797,159.4355,457.6797,155.4355,461.6797" style="stroke:#000000;stroke-width:1;"/><line style="stroke:#000000;stroke-width:1;" x1="155.4355" x2="155.4355" y1="501.6484" y2="532.4141"/><polygon fill="#000000" points="151.4355,522.4141,155.4355,532.4141,159.4355,522.4141,155.4355,526.4141" style="stroke:#000000;stroke-width:1;"/><line style="stroke:#000000;stroke-width:1;" x1="712.8711" x2="712.8711" y1="223.5469" y2="299.5273"/><polygon fill="#000000" points="708.8711,289.5273,712.8711,299.5273,716.8711,289.5273,712.8711,293.5273" style="stroke:#000000;stroke-width:1;"/><line style="stroke:#000000;stroke-width:1;" x1="712.8711" x2="712.8711" y1="333.4961" y2="409.4766"/><polygon fill="#000000" points="708.8711,399.4766,712.8711,409.4766,716.8711,399.4766,712.8711,403.4766" style="stroke:#000000;stroke-width:1;"/><line style="stroke:#000000;stroke-width:1;" x1="712.8711" x2="712.8711" y1="443.4453" y2="478.4453"/><polygon fill="#000000" points="708.8711,468.4453,712.8711,478.4453,716.8711,468.4453,712.8711,472.4453" style="stroke:#000000;stroke-width:1;"/><line style="stroke:#000000;stroke-width:1;" x1="712.8711" x2="712.8711" y1="512.4141" y2="543.1797"/><polygon fill="#000000" points="708.8711,533.1797,712.8711,543.1797,716.8711,533.1797,712.8711,537.1797" style="stroke:#000000;stroke-width:1;"/><line style="stroke:#000000;stroke-width:1;" x1="1315.0776" x2="1315.0776" y1="249.3945" y2="310.2422"/><polygon fill="#000000" points="1311.0776,300.2422,1315.0776,310.2422,1319.0776,300.2422,1315.0776,304.2422" style="stroke:#000000;stroke-width:1;"/><line style="stroke:#000000;stroke-width:1;" x1="1315.0776" x2="1315.0776" y1="344.2109" y2="379.2109"/><polygon fill="#000000" points="1311.0776,369.2109,1315.0776,379.2109,1319.0776,369.2109,1315.0776,373.2109" style="stroke:#000000;stroke-width:1;"/><line style="stroke:#000000;stroke-width:1;" x1="1315.0776" x2="1315.0776" y1="413.1797" y2="448.1797"/><polygon fill="#000000" points="1311.0776,438.1797,1315.0776,448.1797,1319.0776,438.1797,1315.0776,442.1797" style="stroke:#000000;stroke-width:1;"/><line style="stroke:#000000;stroke-width:1;" x1="1816.3838" x2="1816.3838" y1="256.9609" y2="325.375"/><polygon fill="#000000" points="1812.3838,315.375,1816.3838,325.375,1820.3838,315.375,1816.3838,319.375" style="stroke:#000000;stroke-width:1;"/><line style="stroke:#000000;stroke-width:1;" x1="1816.3838" x2="1816.3838" y1="359.3438" y2="394.3438"/><polygon fill="#000000" points="1812.3838,384.3438,1816.3838,394.3438,1820.3838,384.3438,1816.3838,388.3438" style="stroke:#000000;stroke-width:1;"/><line style="stroke:#000000;stroke-width:1;" x1="1816.3838" x2="1816.3838" y1="428.3125" y2="463.3125"/><polygon fill="#000000" points="1812.3838,453.3125,1816.3838,463.3125,1820.3838,453.3125,1816.3838,457.3125" style="stroke:#000000;stroke-width:1;"/><line style="stroke:#000000;stroke-width:1;" x1="155.4355" x2="155.4355" y1="169.5781" y2="266.0625"/><polygon fill="#000000" points="151.4355,256.0625,155.4355,266.0625,159.4355,256.0625,155.4355,260.0625" style="stroke:#000000;stroke-width:1;"/><line style="stroke:#000000;stroke-width:1;" x1="155.4355" x2="155.4355" y1="566.3828" y2="597.1484"/><polygon fill="#000000" points="151.4355,587.1484,155.4355,597.1484,159.4355,587.1484,155.4355,591.1484" style="stroke:#000000;stroke-width:1;"/><line style="stroke:#000000;stroke-width:1;" x1="712.8711" x2="712.8711" y1="169.5781" y2="189.5781"/><polygon fill="#000000" points="708.8711,179.5781,712.8711,189.5781,716.8711,179.5781,712.8711,183.5781" style="stroke:#000000;stroke-width:1;"/><line style="stroke:#000000;stroke-width:1;" x1="712.8711" x2="712.8711" y1="577.1484" y2="597.1484"/><polygon fill="#000000" points="708.8711,587.1484,712.8711,597.1484,716.8711,587.1484,712.8711,591.1484" style="stroke:#000000;stroke-width:1;"/><line style="stroke:#000000;stroke-width:1;" x1="1315.0776" x2="1315.0776" y1="169.5781" y2="215.4258"/><polygon fill="#000000" points="1311.0776,205.4258,1315.0776,215.4258,1319.0776,205.4258,1315.0776,209.4258" style="stroke:#000000;stroke-width:1;"/><line style="stroke:#000000;stroke-width:1;" x1="1315.0776" x2="1315.0776" y1="482.1484" y2="597.1484"/><polygon fill="#000000" points="1311.0776,587.1484,1315.0776,597.1484,1319.0776,587.1484,1315.0776,591.1484" style="stroke:#000000;stroke-width:1;"/><line style="stroke:#000000;stroke-width:1;" x1="1816.3838" x2="1816.3838" y1="169.5781" y2="222.9922"/><polygon fill="#000000" points="1812.3838,212.9922,1816.3838,222.9922,1820.3838,212.9922,1816.3838,216.9922" style="stroke:#000000;stroke-width:1;"/><line style="stroke:#000000;stroke-width:1;" x1="1816.3838" x2="1816.3838" y1="497.2813" y2="597.1484"/><polygon fill="#000000" points="1812.3838,587.1484,1816.3838,597.1484,1820.3838,587.1484,1816.3838,591.1484" style="stroke:#000000;stroke-width:1;"/><line style="stroke:#000000;stroke-width:1;" x1="202.9143" x2="598.78" y1="157.5781" y2="157.5781"/><polygon fill="#000000" points="588.78,153.5781,598.78,157.5781,588.78,161.5781,592.78,157.5781" style="stroke:#000000;stroke-width:1;"/><line style="stroke:#000000;stroke-width:1;" x1="826.9622" x2="1241.5652" y1="157.5781" y2="157.5781"/><polygon fill="#000000" points="1231.5652,153.5781,1241.5652,157.5781,1231.5652,161.5781,1235.5652,157.5781" style="stroke:#000000;stroke-width:1;"/><line style="stroke:#000000;stroke-width:1;" x1="1388.5901" x2="1740.6907" y1="157.5781" y2="157.5781"/><polygon fill="#000000" points="1730.6907,153.5781,1740.6907,157.5781,1730.6907,161.5781,1734.6907,157.5781" style="stroke:#000000;stroke-width:1;"/><line style="stroke:#000000;stroke-width:1;" x1="1176.4753" x2="1176.4753" y1="125.5781" y2="130.5781"/><line style="stroke:#000000;stroke-width:1;" x1="1176.4753" x2="155.4355" y1="130.5781" y2="130.5781"/><line style="stroke:#000000;stroke-width:1;" x1="155.4355" x2="155.4355" y1="130.5781" y2="145.5781"/><polygon fill="#000000" points="151.4355,135.5781,155.4355,145.5781,159.4355,135.5781,155.4355,139.5781" style="stroke:#000000;stroke-width:1;"/><line style="stroke:#000000;stroke-width:1;" x1="1892.0769" x2="2257.1743" y1="157.5781" y2="157.5781"/><line style="stroke:#000000;stroke-width:1;" x1="2257.1743" x2="2257.1743" y1="157.5781" y2="371.4961"/><polygon fill="#000000" points="2253.1743,361.4961,2257.1743,371.4961,2261.1743,361.4961,2257.1743,365.4961" style="stroke:#000000;stroke-width:1;"/><line style="stroke:#000000;stroke-width:1;" x1="2257.1743" x2="2257.1743" y1="405.4648" y2="597.1484"/><polygon fill="#000000" points="2253.1743,587.1484,2257.1743,597.1484,2261.1743,587.1484,2257.1743,591.1484" style="stroke:#000000;stroke-width:1;"/><line style="stroke:#000000;stroke-width:1;" x1="155.4355" x2="2257.1743" y1="597.1484" y2="597.1484"/><line style="stroke:#000000;stroke-width:1;" x1="1176.4753" x2="1176.4753" y1="597.1484" y2="617.1484"/><polygon fill="#000000" points="1172.4753,607.1484,1176.4753,617.1484,1180.4753,607.1484,1176.4753,611.1484" style="stroke:#000000;stroke-width:1;"/><line style="stroke:#000000;stroke-width:1;" x1="1176.4753" x2="1176.4753" y1="651.1172" y2="671.1172"/><polygon fill="#000000" points="1172.4753,661.1172,1176.4753,671.1172,1180.4753,661.1172,1176.4753,665.1172" style="stroke:#000000;stroke-width:1;"/><line style="stroke:#000000;stroke-width:1;" x1="1176.4753" x2="1176.4753" y1="705.0859" y2="725.0859"/><polygon fill="#000000" points="1172.4753,715.0859,1176.4753,725.0859,1180.4753,715.0859,1176.4753,719.0859" style="stroke:#000000;stroke-width:1;"/><!--SRC=[pPN1ZjCm48RlUOhXbXxs0hUi49Hsku2QTcaB712gJ3fjB58xs9DT-lQCOwURX82MbK3abdz-ZsU-SU8dbECHeIo4L159AX2cGXtGGAgL96tWWWKINuH5c1Nw3gPI78muHf4bOIXAtbish_1RXPOkeqZk8Hvd9BM2pQd45oFW7HJ4rqW-yNtUXOQnjJgJmjb74V2JJ0mAQee8tZKAa-Mfe2n_e_PwOYIXaUAoNg4qsuqyv5I_kkT6S8787fkSjGjuEJFwoBrWMzlelh8kjQ6vjDGMNo4HTzENVPLplCN2jdN7PC4bzFrp58SAhuskodx8BHaVTQMeMnw9eYMZsjKDUrPNtp6hkFl9PhsjwMnazXN9CTeoRyydkJ4wGsjvHhOgo0PrXLGPrN1ExrTUAJu6fq-VlI_Ypj3DT61-7oNbdGdMe_Rffum_etOKPjBOfgO7JDbbRorVQKsEqVyp_5PnriKWVhjUBaOjov9v6DZBmbNpX_DhP_yRmwpt2-HdTONjyONv-00ybhcVvNI0vKzYL_WWyIxLEuJdy1JYxWzfz12GmRlbOoXaKGFqlVGmXWQNPSsvIpDD_MhlQKegVe_IBnb0wGF_7kMx2it9_OcPvRDXbjuPK9Jd_H_9sH- -7cSl1WY_uEmzxaiQOWsn_vhytMB3RV5Qg1rVMJuKBY5EprNBVHGbgIY1D9ppSQZPbUKrcbkP8Sp5oHqCIxhy0G00]--></g></svg>