<svg xmlns="http://www.w3.org/2000/svg" xmlns:xlink="http://www.w3.org/1999/xlink" contentStyleType="text/css" data-diagram-type="ACTIVITY" height="2651px" preserveAspectRatio="none" style="width:695px;height:2651px;background:#FFFFFF;" version="1.1" viewBox="0 0 695 2651" width="695px" zoomAndPan="magnify"><title>Danger Monitor - Stored Procedure Operations Detail</title><defs/><g><g class="title" data-source-line="2"><text fill="#000000" font-family="Verdana" font-size="22" font-weight="bold" lengthAdjust="spacing" textLength="662.9111" x="15" y="35.4209">Danger Monitor - Stored Procedure Operations Detail</text></g><ellipse cx="130.0103" cy="61.6094" fill="#FFFFFF" rx="10" ry="10" style="stroke:#000000;stroke-width:1;"/><rect fill="#ADD8E6" height="33.9688" rx="12.5" ry="12.5" style="stroke:#00008B;stroke-width:1;" width="170.2227" x="44.8989" y="91.6094"/><text fill="#000000" font-family="Verdana" font-size="12" lengthAdjust="spacing" textLength="150.2227" x="54.8989" y="112.748">User Request via Criteria</text><rect fill="#FFFFFF" height="931.1094" style="stroke:#000000;stroke-width:1;" width="593.2637" x="21.062" y="135.5781"/><path d="M208.7896,135.5781 L208.7896,144.875 L198.7896,154.875 L21.062,154.875" fill="none" style="stroke:#000000;stroke-width:1;"/><text fill="#000000" font-family="Verdana" font-size="14" lengthAdjust="spacing" textLength="177.7275" x="24.062" y="149.5732">CTS_MatchTicketInfo_Get</text><path d="M220.5376,164.875 L220.5376,211.2734 L200.5376,215.2734 L220.5376,219.2734 L220.5376,265.6719 A0,0 0 0 0 220.5376,265.6719 L371.6455,265.6719 A0,0 0 0 0 371.6455,265.6719 L371.6455,174.875 L361.6455,164.875 L220.5376,164.875 A0,0 0 0 0 220.5376,164.875" fill="#FFFFFF" style="stroke:#000000;stroke-width:1;"/><path d="M361.6455,164.875 L361.6455,174.875 L371.6455,174.875 L361.6455,164.875" fill="#FFFFFF" style="stroke:#000000;stroke-width:1;"/><text fill="#000000" font-family="Verdana" font-size="13" lengthAdjust="spacing" textLength="12.4033" x="226.5376" y="181.9419">1.</text><text fill="#000000" font-family="Verdana" font-size="13" lengthAdjust="spacing" textLength="79.9106" x="243.0732" y="181.9419">tmpBetType</text><text fill="#000000" font-family="Verdana" font-size="13" lengthAdjust="spacing" textLength="12.4033" x="226.5376" y="197.0747">2.</text><text fill="#000000" font-family="Verdana" font-size="13" lengthAdjust="spacing" textLength="89.1592" x="243.0732" y="197.0747">tmpCustomer</text><text fill="#000000" font-family="Verdana" font-size="13" lengthAdjust="spacing" textLength="12.4033" x="226.5376" y="212.2075">3.</text><text fill="#000000" font-family="Verdana" font-size="13" lengthAdjust="spacing" textLength="92.5107" x="243.0732" y="212.2075">tmpUsername</text><text fill="#000000" font-family="Verdana" font-size="13" lengthAdjust="spacing" textLength="12.4033" x="226.5376" y="227.3403">4.</text><text fill="#000000" font-family="Verdana" font-size="13" lengthAdjust="spacing" textLength="113.5723" x="243.0732" y="227.3403">tmpLeagueGroup</text><text fill="#000000" font-family="Verdana" font-size="13" lengthAdjust="spacing" textLength="12.4033" x="226.5376" y="242.4731">5.</text><text fill="#000000" font-family="Verdana" font-size="13" lengthAdjust="spacing" textLength="94.834" x="243.0732" y="242.4731">tmpMatchSum</text><text fill="#000000" font-family="Verdana" font-size="13" lengthAdjust="spacing" textLength="12.4033" x="226.5376" y="257.606">6.</text><text fill="#000000" font-family="Verdana" font-size="13" lengthAdjust="spacing" textLength="90.2827" x="243.0732" y="257.606">tmpMatchInfo</text><rect fill="#ADD8E6" height="33.9688" rx="12.5" ry="12.5" style="stroke:#00008B;stroke-width:1;" width="141.0547" x="59.4829" y="198.2891"/><text fill="#000000" font-family="Verdana" font-size="12" lengthAdjust="spacing" textLength="121.0547" x="69.4829" y="219.4277">Create Temp Tables</text><path d="M230.5513,275.6719 L230.5513,306.9375 L210.5513,310.9375 L230.5513,314.9375 L230.5513,346.2031 A0,0 0 0 0 230.5513,346.2031 L433.5259,346.2031 A0,0 0 0 0 433.5259,346.2031 L433.5259,285.6719 L423.5259,275.6719 L230.5513,275.6719 A0,0 0 0 0 230.5513,275.6719" fill="#FFFFFF" style="stroke:#000000;stroke-width:1;"/><path d="M423.5259,275.6719 L423.5259,285.6719 L433.5259,285.6719 L423.5259,275.6719" fill="#FFFFFF" style="stroke:#000000;stroke-width:1;"/><text fill="#000000" font-family="Verdana" font-size="13" lengthAdjust="spacing" textLength="181.9746" x="236.5513" y="292.7388">- Parse @BettypeList (JSON)</text><text fill="#000000" font-family="Verdana" font-size="13" lengthAdjust="spacing" textLength="152.585" x="236.5513" y="307.8716">- Parse @UserNameList</text><text fill="#000000" font-family="Verdana" font-size="13" lengthAdjust="spacing" textLength="172.1611" x="236.5513" y="323.0044">- Parse @LeagueGroupList</text><text fill="#000000" font-family="Verdana" font-size="13" lengthAdjust="spacing" textLength="149.8428" x="236.5513" y="338.1372">- Parse @MatchSection</text><rect fill="#ADD8E6" height="33.9688" rx="12.5" ry="12.5" style="stroke:#00008B;stroke-width:1;" width="161.082" x="49.4692" y="293.9531"/><text fill="#000000" font-family="Verdana" font-size="12" lengthAdjust="spacing" textLength="141.082" x="59.4692" y="315.0918">Parse Input Parameters</text><path d="M238.7134,356.2031 L238.7134,387.4688 L218.7134,391.4688 L238.7134,395.4688 L238.7134,426.7344 A0,0 0 0 0 238.7134,426.7344 L471.1729,426.7344 A0,0 0 0 0 471.1729,426.7344 L471.1729,366.2031 L461.1729,356.2031 L238.7134,356.2031 A0,0 0 0 0 238.7134,356.2031" fill="#FFFFFF" style="stroke:#000000;stroke-width:1;"/><path d="M461.1729,356.2031 L461.1729,366.2031 L471.1729,366.2031 L461.1729,356.2031" fill="#FFFFFF" style="stroke:#000000;stroke-width:1;"/><text fill="#000000" font-family="Verdana" font-size="13" lengthAdjust="spacing" textLength="177.7979" x="244.7134" y="373.27">INSERT INTO #tmpBetType</text><text fill="#000000" font-family="Verdana" font-size="13" lengthAdjust="spacing" textLength="187.0464" x="244.7134" y="388.4028">INSERT INTO #tmpCustomer</text><text fill="#000000" font-family="Verdana" font-size="13" lengthAdjust="spacing" textLength="190.3979" x="244.7134" y="403.5356">INSERT INTO #tmpUsername</text><text fill="#000000" font-family="Verdana" font-size="13" lengthAdjust="spacing" textLength="211.4595" x="244.7134" y="418.6685">INSERT INTO #tmpLeagueGroup</text><rect fill="#ADD8E6" height="33.9688" rx="12.5" ry="12.5" style="stroke:#00008B;stroke-width:1;" width="177.4063" x="41.3071" y="374.4844"/><text fill="#000000" font-family="Verdana" font-size="12" lengthAdjust="spacing" textLength="157.4063" x="51.3071" y="395.623">INSERT INTO Temp Tables</text><path d="M239.7974,436.7344 L239.7974,475.5664 L219.7974,479.5664 L239.7974,483.5664 L239.7974,522.3984 A0,0 0 0 0 239.7974,522.3984 L417.1528,522.3984 A0,0 0 0 0 417.1528,522.3984 L417.1528,446.7344 L407.1528,436.7344 L239.7974,436.7344 A0,0 0 0 0 239.7974,436.7344" fill="#FFFFFF" style="stroke:#000000;stroke-width:1;"/><path d="M407.1528,436.7344 L407.1528,446.7344 L417.1528,446.7344 L407.1528,436.7344" fill="#FFFFFF" style="stroke:#000000;stroke-width:1;"/><text fill="#000000" font-family="Verdana" font-size="13" font-weight="bold" lengthAdjust="spacing" textLength="74.3818" x="245.7974" y="453.8013">Database:</text><text fill="#000000" font-family="Verdana" font-size="13" lengthAdjust="spacing" textLength="77.8413" x="324.3115" y="453.8013">bodb02.dbo</text><text fill="#000000" font-family="Verdana" font-size="13" font-weight="bold" lengthAdjust="spacing" textLength="53.1553" x="245.7974" y="468.9341">Tables:</text><text fill="#000000" font-family="Verdana" font-size="13" lengthAdjust="spacing" textLength="48.4897" x="245.7974" y="484.0669">- Match</text><text fill="#000000" font-family="Verdana" font-size="13" lengthAdjust="spacing" textLength="63.5908" x="245.7974" y="499.1997">- bettrans</text><text fill="#000000" font-family="Verdana" font-size="13" lengthAdjust="spacing" textLength="71.9697" x="245.7974" y="514.3325">- Customer</text><rect fill="#ADD8E6" height="33.9688" rx="12.5" ry="12.5" style="stroke:#00008B;stroke-width:1;" width="179.5742" x="40.2231" y="462.582"/><text fill="#000000" font-family="Verdana" font-size="12" lengthAdjust="spacing" textLength="159.5742" x="50.2231" y="483.7207">SELECT FROM Main Tables</text><path d="M216.0757,532.3984 L216.0757,578.7969 L196.0757,582.7969 L216.0757,586.7969 L216.0757,633.1953 A0,0 0 0 0 216.0757,633.1953 L604.3257,633.1953 A0,0 0 0 0 604.3257,633.1953 L604.3257,542.3984 L594.3257,532.3984 L216.0757,532.3984 A0,0 0 0 0 216.0757,532.3984" fill="#FFFFFF" style="stroke:#000000;stroke-width:1;"/><path d="M594.3257,532.3984 L594.3257,542.3984 L604.3257,542.3984 L594.3257,532.3984" fill="#FFFFFF" style="stroke:#000000;stroke-width:1;"/><text fill="#000000" font-family="Verdana" font-size="13" font-weight="bold" lengthAdjust="spacing" textLength="45.4175" x="222.0757" y="549.4653">Table:</text><text fill="#000000" font-family="Verdana" font-size="13" lengthAdjust="spacing" textLength="121.6401" x="271.6255" y="549.4653">bodb02.dbo.Match</text><text fill="#000000" font-family="Verdana" font-size="13" font-weight="bold" lengthAdjust="spacing" textLength="49.207" x="222.0757" y="564.5981">Query:</text><text fill="#000000" font-family="Verdana" font-size="13" lengthAdjust="spacing" textLength="134.8306" x="222.0757" y="579.731">SELECT FROM Match</text><text fill="#000000" font-family="Verdana" font-size="13" lengthAdjust="spacing" textLength="367.25" x="222.0757" y="594.8638">WHERE EventDate BETWEEN @FromDate AND @ToDate</text><text fill="#000000" font-family="Verdana" font-size="13" lengthAdjust="spacing" textLength="202.1348" x="222.0757" y="609.9966">AND SportType IN (@SportList)</text><text fill="#000000" font-family="Verdana" font-size="13" lengthAdjust="spacing" textLength="289.415" x="222.0757" y="625.1294">AND LeagueGroupID IN (@LeagueGroupList)</text><rect fill="#ADD8E6" height="33.9688" rx="12.5" ry="12.5" style="stroke:#00008B;stroke-width:1;" width="132.1309" x="63.9448" y="565.8125"/><text fill="#000000" font-family="Verdana" font-size="12" lengthAdjust="spacing" textLength="112.1309" x="73.9448" y="586.9512">SELECT Match Info</text><path d="M225.0728,643.1953 L225.0728,674.4609 L205.0728,678.4609 L225.0728,682.4609 L225.0728,713.7266 A0,0 0 0 0 225.0728,713.7266 L501.9531,713.7266 A0,0 0 0 0 501.9531,713.7266 L501.9531,653.1953 L491.9531,643.1953 L225.0728,643.1953 A0,0 0 0 0 225.0728,643.1953" fill="#FFFFFF" style="stroke:#000000;stroke-width:1;"/><path d="M491.9531,643.1953 L491.9531,653.1953 L501.9531,653.1953 L491.9531,643.1953" fill="#FFFFFF" style="stroke:#000000;stroke-width:1;"/><text fill="#000000" font-family="Verdana" font-size="13" font-weight="bold" lengthAdjust="spacing" textLength="45.4175" x="231.0728" y="660.2622">Table:</text><text fill="#000000" font-family="Verdana" font-size="13" lengthAdjust="spacing" textLength="145.1201" x="280.6226" y="660.2622">bodb02.dbo.Customer</text><text fill="#000000" font-family="Verdana" font-size="13" font-weight="bold" lengthAdjust="spacing" textLength="49.207" x="231.0728" y="675.395">Query:</text><text fill="#000000" font-family="Verdana" font-size="13" lengthAdjust="spacing" textLength="203.7153" x="231.0728" y="690.5278">SELECT CustId FROM Customer</text><text fill="#000000" font-family="Verdana" font-size="13" lengthAdjust="spacing" textLength="255.8804" x="231.0728" y="705.6606">WHERE UserName IN (@UserNameList)</text><rect fill="#ADD8E6" height="33.9688" rx="12.5" ry="12.5" style="stroke:#00008B;stroke-width:1;" width="150.125" x="54.9478" y="661.4766"/><text fill="#000000" font-family="Verdana" font-size="12" lengthAdjust="spacing" textLength="130.125" x="64.9478" y="682.6152">SELECT Customer IDs</text><path d="M234.9048,723.7266 L234.9048,785.2578 L214.9048,789.2578 L234.9048,793.2578 L234.9048,854.7891 A0,0 0 0 0 234.9048,854.7891 L468.8115,854.7891 A0,0 0 0 0 468.8115,854.7891 L468.8115,733.7266 L458.8115,723.7266 L234.9048,723.7266 A0,0 0 0 0 234.9048,723.7266" fill="#FFFFFF" style="stroke:#000000;stroke-width:1;"/><path d="M458.8115,723.7266 L458.8115,733.7266 L468.8115,733.7266 L458.8115,723.7266" fill="#FFFFFF" style="stroke:#000000;stroke-width:1;"/><text fill="#000000" font-family="Verdana" font-size="13" font-weight="bold" lengthAdjust="spacing" textLength="45.4175" x="240.9048" y="740.7935">Table:</text><text fill="#000000" font-family="Verdana" font-size="13" lengthAdjust="spacing" textLength="136.7412" x="290.4546" y="740.7935">bodb02.dbo.bettrans</text><text fill="#000000" font-family="Verdana" font-size="13" font-weight="bold" lengthAdjust="spacing" textLength="49.207" x="240.9048" y="755.9263">Query:</text><text fill="#000000" font-family="Verdana" font-size="13" lengthAdjust="spacing" textLength="149.9316" x="240.9048" y="771.0591">SELECT FROM bettrans</text><text fill="#000000" font-family="Verdana" font-size="13" lengthAdjust="spacing" textLength="201.3032" x="240.9048" y="786.1919">JOIN #tmpCustomer ON CustId</text><text fill="#000000" font-family="Verdana" font-size="13" lengthAdjust="spacing" textLength="212.9067" x="240.9048" y="801.3247">JOIN #tmpMatchInfo ON MatchId</text><text fill="#000000" font-family="Verdana" font-size="13" lengthAdjust="spacing" textLength="201.8364" x="240.9048" y="816.4575">JOIN #tmpBetType ON Bettype</text><text fill="#000000" font-family="Verdana" font-size="13" lengthAdjust="spacing" textLength="212.8306" x="240.9048" y="831.5903">WHERE Stake &gt;= @UserAmount</text><text fill="#000000" font-family="Verdana" font-size="13" lengthAdjust="spacing" textLength="99.582" x="240.9048" y="846.7231">WITH(NOLOCK)</text><rect fill="#ADD8E6" height="33.9688" rx="12.5" ry="12.5" style="stroke:#00008B;stroke-width:1;" width="169.7891" x="45.1157" y="772.2734"/><text fill="#000000" font-family="Verdana" font-size="12" lengthAdjust="spacing" textLength="149.7891" x="55.1157" y="793.4121">SELECT Bet Transactions</text><path d="M215.2612,864.7891 L215.2612,896.0547 L195.2612,900.0547 L215.2612,904.0547 L215.2612,935.3203 A0,0 0 0 0 215.2612,935.3203 L461.5142,935.3203 A0,0 0 0 0 461.5142,935.3203 L461.5142,874.7891 L451.5142,864.7891 L215.2612,864.7891 A0,0 0 0 0 215.2612,864.7891" fill="#FFFFFF" style="stroke:#000000;stroke-width:1;"/><path d="M451.5142,864.7891 L451.5142,874.7891 L461.5142,874.7891 L451.5142,864.7891" fill="#FFFFFF" style="stroke:#000000;stroke-width:1;"/><text fill="#000000" font-family="Verdana" font-size="13" lengthAdjust="spacing" textLength="225.2529" x="221.2612" y="881.856">GROUP BY MatchId, Bettype, BetId</text><text fill="#000000" font-family="Verdana" font-size="13" lengthAdjust="spacing" textLength="182.6284" x="221.2612" y="896.9888">SUM(Stake) as TotalAmount</text><text fill="#000000" font-family="Verdana" font-size="13" lengthAdjust="spacing" textLength="158.0313" x="221.2612" y="912.1216">COUNT(*) as TotalTicket</text><text fill="#000000" font-family="Verdana" font-size="13" lengthAdjust="spacing" textLength="202.0269" x="221.2612" y="927.2544">Separate Home/Away amounts</text><rect fill="#ADD8E6" height="33.9688" rx="12.5" ry="12.5" style="stroke:#00008B;stroke-width:1;" width="130.502" x="64.7593" y="883.0703"/><text fill="#000000" font-family="Verdana" font-size="12" lengthAdjust="spacing" textLength="110.502" x="74.7593" y="904.209">Aggregate Results</text><rect fill="#ADD8E6" height="33.9688" rx="12.5" ry="12.5" style="stroke:#00008B;stroke-width:1;" width="197.8965" x="31.062" y="955.3203"/><text fill="#000000" font-family="Verdana" font-size="12" lengthAdjust="spacing" textLength="177.8965" x="41.062" y="976.459">INSERT INTO #tmpMatchSum</text><path d="M222.6118,999.2891 L222.6118,1022.9883 L202.6118,1026.9883 L222.6118,1030.9883 L222.6118,1054.6875 A0,0 0 0 0 222.6118,1054.6875 L445.7339,1054.6875 A0,0 0 0 0 445.7339,1054.6875 L445.7339,1009.2891 L435.7339,999.2891 L222.6118,999.2891 A0,0 0 0 0 222.6118,999.2891" fill="#FFFFFF" style="stroke:#000000;stroke-width:1;"/><path d="M435.7339,999.2891 L435.7339,1009.2891 L445.7339,1009.2891 L435.7339,999.2891" fill="#FFFFFF" style="stroke:#000000;stroke-width:1;"/><text fill="#000000" font-family="Verdana" font-size="13" lengthAdjust="spacing" textLength="200.8906" x="228.6118" y="1016.356">SELECT FROM #tmpMatchSum</text><text fill="#000000" font-family="Verdana" font-size="13" lengthAdjust="spacing" textLength="132.9326" x="228.6118" y="1031.4888">JOIN #tmpMatchInfo</text><text fill="#000000" font-family="Verdana" font-size="13" lengthAdjust="spacing" textLength="202.1221" x="228.6118" y="1046.6216">Return aggregated match data</text><rect fill="#ADD8E6" height="33.9688" rx="12.5" ry="12.5" style="stroke:#00008B;stroke-width:1;" width="145.2031" x="57.4087" y="1010.0039"/><text fill="#000000" font-family="Verdana" font-size="12" lengthAdjust="spacing" textLength="125.2031" x="67.4087" y="1031.1426">SELECT Final Results</text><rect fill="#FFFFFF" height="390.8281" style="stroke:#000000;stroke-width:1;" width="519.7637" x="16.3628" y="1076.6875"/><path d="M298.0981,1076.6875 L298.0981,1085.9844 L288.0981,1095.9844 L16.3628,1095.9844" fill="none" style="stroke:#000000;stroke-width:1;"/><text fill="#000000" font-family="Verdana" font-size="14" lengthAdjust="spacing" textLength="271.7354" x="19.3628" y="1090.6826">CTS_MatchTicketInfo_Associations_Get</text><path d="M229.356,1105.9844 L229.356,1129.6836 L209.356,1133.6836 L229.356,1137.6836 L229.356,1161.3828 A0,0 0 0 0 229.356,1161.3828 L516.0117,1161.3828 A0,0 0 0 0 516.0117,1161.3828 L516.0117,1115.9844 L506.0117,1105.9844 L229.356,1105.9844 A0,0 0 0 0 229.356,1105.9844" fill="#FFFFFF" style="stroke:#000000;stroke-width:1;"/><path d="M506.0117,1105.9844 L506.0117,1115.9844 L516.0117,1115.9844 L506.0117,1105.9844" fill="#FFFFFF" style="stroke:#000000;stroke-width:1;"/><text fill="#000000" font-family="Verdana" font-size="13" lengthAdjust="spacing" textLength="180.0576" x="235.356" y="1123.0513">@AssociationsList contains:</text><text fill="#000000" font-family="Verdana" font-size="13" lengthAdjust="spacing" textLength="81.8911" x="235.356" y="1138.1841">- RootCustID</text><text fill="#000000" font-family="Verdana" font-size="13" lengthAdjust="spacing" textLength="265.6558" x="235.356" y="1153.3169">- CustIDAssociations (comma-separated)</text><rect fill="#ADD8E6" height="33.9688" rx="12.5" ry="12.5" style="stroke:#00008B;stroke-width:1;" width="158.6914" x="50.6646" y="1116.6992"/><text fill="#000000" font-family="Verdana" font-size="12" lengthAdjust="spacing" textLength="138.6914" x="60.6646" y="1137.8379">Parse Association JSON</text><path d="M253.4819,1178.2344 L253.4819,1194.3672 L233.4819,1198.3672 L253.4819,1202.3672 L253.4819,1218.5 A0,0 0 0 0 253.4819,1218.5 L432.2148,1218.5 A0,0 0 0 0 432.2148,1218.5 L432.2148,1188.2344 L422.2148,1178.2344 L253.4819,1178.2344 A0,0 0 0 0 253.4819,1178.2344" fill="#FFFFFF" style="stroke:#000000;stroke-width:1;"/><path d="M422.2148,1178.2344 L422.2148,1188.2344 L432.2148,1188.2344 L422.2148,1178.2344" fill="#FFFFFF" style="stroke:#000000;stroke-width:1;"/><text fill="#000000" font-family="Verdana" font-size="13" lengthAdjust="spacing" textLength="12.4033" x="259.4819" y="1195.3013">1.</text><text fill="#000000" font-family="Verdana" font-size="13" lengthAdjust="spacing" textLength="141.1973" x="276.0176" y="1195.3013">tmpMatchSum_Group</text><text fill="#000000" font-family="Verdana" font-size="13" lengthAdjust="spacing" textLength="156.7681" x="259.4819" y="1210.4341">with RootCustID column</text><rect fill="#ADD8E6" height="33.9688" rx="12.5" ry="12.5" style="stroke:#00008B;stroke-width:1;" width="206.9434" x="26.5386" y="1181.3828"/><text fill="#000000" font-family="Verdana" font-size="12" lengthAdjust="spacing" textLength="186.9434" x="36.5386" y="1202.5215">Create Association Temp Table</text><path d="M253.6577,1228.5 L253.6577,1282.4648 L233.6577,1286.4648 L253.6577,1290.4648 L253.6577,1344.4297 A0,0 0 0 0 253.6577,1344.4297 L526.1265,1344.4297 A0,0 0 0 0 526.1265,1344.4297 L526.1265,1238.5 L516.1265,1228.5 L253.6577,1228.5 A0,0 0 0 0 253.6577,1228.5" fill="#FFFFFF" style="stroke:#000000;stroke-width:1;"/><path d="M516.1265,1228.5 L516.1265,1238.5 L526.1265,1238.5 L516.1265,1228.5" fill="#FFFFFF" style="stroke:#000000;stroke-width:1;"/><text fill="#000000" font-family="Verdana" font-size="13" font-weight="bold" lengthAdjust="spacing" textLength="45.4175" x="259.6577" y="1245.5669">Table:</text><text fill="#000000" font-family="Verdana" font-size="13" lengthAdjust="spacing" textLength="136.7412" x="309.2075" y="1245.5669">bodb02.dbo.bettrans</text><text fill="#000000" font-family="Verdana" font-size="13" font-weight="bold" lengthAdjust="spacing" textLength="49.207" x="259.6577" y="1260.6997">Query:</text><text fill="#000000" font-family="Verdana" font-size="13" lengthAdjust="spacing" textLength="149.9316" x="259.6577" y="1275.8325">SELECT FROM bettrans</text><text fill="#000000" font-family="Verdana" font-size="13" lengthAdjust="spacing" textLength="120.3896" x="259.6577" y="1290.9653">WHERE CustId IN (</text><text fill="#000000" font-family="Verdana" font-size="13" lengthAdjust="spacing" textLength="243.2041" x="267.9224" y="1306.0981">SELECT CustID FROM Association List</text><text fill="#000000" font-family="Verdana" font-size="13" lengthAdjust="spacing" textLength="5.0718" x="259.6577" y="1321.231">)</text><text fill="#000000" font-family="Verdana" font-size="13" lengthAdjust="spacing" textLength="224.4404" x="259.6577" y="1336.3638">AND MatchId IN (Filtered Matches)</text><rect fill="#ADD8E6" height="33.9688" rx="12.5" ry="12.5" style="stroke:#00008B;stroke-width:1;" width="207.2949" x="26.3628" y="1269.4805"/><text fill="#000000" font-family="Verdana" font-size="12" lengthAdjust="spacing" textLength="187.2949" x="36.3628" y="1290.6191">SELECT WITH Association Filter</text><path d="M226.8804,1361.2813 L226.8804,1377.4141 L206.8804,1381.4141 L226.8804,1385.4141 L226.8804,1401.5469 A0,0 0 0 0 226.8804,1401.5469 L464.9321,1401.5469 A0,0 0 0 0 464.9321,1401.5469 L464.9321,1371.2813 L454.9321,1361.2813 L226.8804,1361.2813 A0,0 0 0 0 226.8804,1361.2813" fill="#FFFFFF" style="stroke:#000000;stroke-width:1;"/><path d="M454.9321,1361.2813 L454.9321,1371.2813 L464.9321,1371.2813 L454.9321,1361.2813" fill="#FFFFFF" style="stroke:#000000;stroke-width:1;"/><text fill="#000000" font-family="Verdana" font-size="13" lengthAdjust="spacing" textLength="217.0518" x="232.8804" y="1378.3481">Aggregate by Association Groups</text><text fill="#000000" font-family="Verdana" font-size="13" lengthAdjust="spacing" textLength="146.8848" x="232.8804" y="1393.481">Separate by Root User</text><rect fill="#ADD8E6" height="33.9688" rx="12.5" ry="12.5" style="stroke:#00008B;stroke-width:1;" width="153.7402" x="53.1401" y="1364.4297"/><text fill="#000000" font-family="Verdana" font-size="12" lengthAdjust="spacing" textLength="133.7402" x="63.1401" y="1385.5684">GROUP BY RootCustID</text><rect fill="#ADD8E6" height="33.9688" rx="12.5" ry="12.5" style="stroke:#00008B;stroke-width:1;" width="163.8652" x="48.0776" y="1421.5469"/><text fill="#000000" font-family="Verdana" font-size="12" lengthAdjust="spacing" textLength="143.8652" x="58.0776" y="1442.6855">Return Grouped Results</text><rect fill="#FFFFFF" height="187.4922" style="stroke:#000000;stroke-width:1;" width="402.0981" x="45.1616" y="1477.5156"/><path d="M308.4878,1477.5156 L308.4878,1486.8125 L298.4878,1496.8125 L45.1616,1496.8125" fill="none" style="stroke:#000000;stroke-width:1;"/><text fill="#000000" font-family="Verdana" font-size="14" lengthAdjust="spacing" textLength="253.3262" x="48.1616" y="1491.5107">CTS_MatchMonitor_Details_GetFilter</text><path d="M224.8589,1506.8125 L224.8589,1575.9102 L204.8589,1579.9102 L224.8589,1583.9102 L224.8589,1653.0078 A0,0 0 0 0 224.8589,1653.0078 L437.2598,1653.0078 A0,0 0 0 0 437.2598,1653.0078 L437.2598,1516.8125 L427.2598,1506.8125 L224.8589,1506.8125 A0,0 0 0 0 224.8589,1506.8125" fill="#FFFFFF" style="stroke:#000000;stroke-width:1;"/><path d="M427.2598,1506.8125 L427.2598,1516.8125 L437.2598,1516.8125 L427.2598,1506.8125" fill="#FFFFFF" style="stroke:#000000;stroke-width:1;"/><text fill="#000000" font-family="Verdana" font-size="13" font-weight="bold" lengthAdjust="spacing" textLength="45.4175" x="230.8589" y="1523.8794">Table:</text><text fill="#000000" font-family="Verdana" font-size="13" lengthAdjust="spacing" textLength="121.6401" x="280.4087" y="1523.8794">bodb02.dbo.Match</text><text fill="#000000" font-family="Verdana" font-size="13" font-weight="bold" lengthAdjust="spacing" textLength="49.207" x="230.8589" y="1539.0122">Query:</text><text fill="#000000" font-family="Verdana" font-size="13" lengthAdjust="spacing" textLength="113.6865" x="230.8589" y="1554.145">SELECT DISTINCT</text><text fill="#000000" font-family="Verdana" font-size="13" lengthAdjust="spacing" textLength="125.8423" x="230.8589" y="1569.2778">- EventDate ranges</text><text fill="#000000" font-family="Verdana" font-size="13" lengthAdjust="spacing" textLength="111.8901" x="230.8589" y="1584.4106">- Bettype options</text><text fill="#000000" font-family="Verdana" font-size="13" lengthAdjust="spacing" textLength="105.9868" x="230.8589" y="1599.5435">- Market options</text><text fill="#000000" font-family="Verdana" font-size="13" lengthAdjust="spacing" textLength="162.3159" x="230.8589" y="1614.6763">- Customer Class options</text><text fill="#000000" font-family="Verdana" font-size="13" lengthAdjust="spacing" textLength="81.7578" x="230.8589" y="1629.8091">FROM Match</text><text fill="#000000" font-family="Verdana" font-size="13" lengthAdjust="spacing" textLength="191.4009" x="230.8589" y="1644.9419">WHERE MatchID = @MatchID</text><rect fill="#ADD8E6" height="33.9688" rx="12.5" ry="12.5" style="stroke:#00008B;stroke-width:1;" width="149.6973" x="55.1616" y="1562.9258"/><text fill="#000000" font-family="Verdana" font-size="12" lengthAdjust="spacing" textLength="129.6973" x="65.1616" y="1584.0645">SELECT Filter Options</text><rect fill="#FFFFFF" height="820.3125" style="stroke:#000000;stroke-width:1;" width="642.8828" x="36.6655" y="1675.0078"/><path d="M306.6499,1675.0078 L306.6499,1684.3047 L296.6499,1694.3047 L36.6655,1694.3047" fill="none" style="stroke:#000000;stroke-width:1;"/><text fill="#000000" font-family="Verdana" font-size="14" lengthAdjust="spacing" textLength="259.9844" x="39.6655" y="1689.0029">CTS_MatchMonitor_Details_GetTicket</text><path d="M220.5376,1704.3047 L220.5376,1728.0039 L200.5376,1732.0039 L220.5376,1736.0039 L220.5376,1759.7031 A0,0 0 0 0 220.5376,1759.7031 L348.356,1759.7031 A0,0 0 0 0 348.356,1759.7031 L348.356,1714.3047 L338.356,1704.3047 L220.5376,1704.3047 A0,0 0 0 0 220.5376,1704.3047" fill="#FFFFFF" style="stroke:#000000;stroke-width:1;"/><path d="M338.356,1704.3047 L338.356,1714.3047 L348.356,1714.3047 L338.356,1704.3047" fill="#FFFFFF" style="stroke:#000000;stroke-width:1;"/><text fill="#000000" font-family="Verdana" font-size="13" lengthAdjust="spacing" textLength="12.4033" x="226.5376" y="1721.3716">1.</text><text fill="#000000" font-family="Verdana" font-size="13" lengthAdjust="spacing" textLength="79.9106" x="243.0732" y="1721.3716">tmpBetType</text><text fill="#000000" font-family="Verdana" font-size="13" lengthAdjust="spacing" textLength="12.4033" x="226.5376" y="1736.5044">2.</text><text fill="#000000" font-family="Verdana" font-size="13" lengthAdjust="spacing" textLength="89.1592" x="243.0732" y="1736.5044">tmpCustomer</text><text fill="#000000" font-family="Verdana" font-size="13" lengthAdjust="spacing" textLength="12.4033" x="226.5376" y="1751.6372">3.</text><text fill="#000000" font-family="Verdana" font-size="13" lengthAdjust="spacing" textLength="90.2827" x="243.0732" y="1751.6372">tmpMatchInfo</text><rect fill="#ADD8E6" height="33.9688" rx="12.5" ry="12.5" style="stroke:#00008B;stroke-width:1;" width="141.0547" x="59.4829" y="1715.0195"/><text fill="#000000" font-family="Verdana" font-size="12" lengthAdjust="spacing" textLength="121.0547" x="69.4829" y="1736.1582">Create Temp Tables</text><path d="M225.3628,1769.7031 L225.3628,1816.1016 L205.3628,1820.1016 L225.3628,1824.1016 L225.3628,1870.5 A0,0 0 0 0 225.3628,1870.5 L402.7183,1870.5 A0,0 0 0 0 402.7183,1870.5 L402.7183,1779.7031 L392.7183,1769.7031 L225.3628,1769.7031 A0,0 0 0 0 225.3628,1769.7031" fill="#FFFFFF" style="stroke:#000000;stroke-width:1;"/><path d="M392.7183,1769.7031 L392.7183,1779.7031 L402.7183,1779.7031 L392.7183,1769.7031" fill="#FFFFFF" style="stroke:#000000;stroke-width:1;"/><text fill="#000000" font-family="Verdana" font-size="13" font-weight="bold" lengthAdjust="spacing" textLength="74.3818" x="231.3628" y="1786.77">Database:</text><text fill="#000000" font-family="Verdana" font-size="13" lengthAdjust="spacing" textLength="77.8413" x="309.877" y="1786.77">bodb02.dbo</text><text fill="#000000" font-family="Verdana" font-size="13" font-weight="bold" lengthAdjust="spacing" textLength="94.0977" x="231.3628" y="1801.9028">Tables Used:</text><text fill="#000000" font-family="Verdana" font-size="13" lengthAdjust="spacing" textLength="63.5908" x="231.3628" y="1817.0356">- bettrans</text><text fill="#000000" font-family="Verdana" font-size="13" lengthAdjust="spacing" textLength="48.4897" x="231.3628" y="1832.1685">- Match</text><text fill="#000000" font-family="Verdana" font-size="13" lengthAdjust="spacing" textLength="71.9697" x="231.3628" y="1847.3013">- Customer</text><text fill="#000000" font-family="Verdana" font-size="13" lengthAdjust="spacing" textLength="72.5728" x="231.3628" y="1862.4341">- Exchange</text><rect fill="#ADD8E6" height="33.9688" rx="12.5" ry="12.5" style="stroke:#00008B;stroke-width:1;" width="150.7051" x="54.6577" y="1803.1172"/><text fill="#000000" font-family="Verdana" font-size="12" lengthAdjust="spacing" textLength="130.7051" x="64.6577" y="1824.2559">SELECT Ticket Details</text><path d="M229.2095,1880.5 L229.2095,1942.0313 L209.2095,1946.0313 L229.2095,1950.0313 L229.2095,2011.5625 A0,0 0 0 0 229.2095,2011.5625 L669.5483,2011.5625 A0,0 0 0 0 669.5483,2011.5625 L669.5483,1890.5 L659.5483,1880.5 L229.2095,1880.5 A0,0 0 0 0 229.2095,1880.5" fill="#FFFFFF" style="stroke:#000000;stroke-width:1;"/><path d="M659.5483,1880.5 L659.5483,1890.5 L669.5483,1890.5 L659.5483,1880.5" fill="#FFFFFF" style="stroke:#000000;stroke-width:1;"/><text fill="#000000" font-family="Verdana" font-size="13" font-weight="bold" lengthAdjust="spacing" textLength="45.4175" x="235.2095" y="1897.5669">Table:</text><text fill="#000000" font-family="Verdana" font-size="13" lengthAdjust="spacing" textLength="136.7412" x="284.7593" y="1897.5669">bodb02.dbo.bettrans</text><text fill="#000000" font-family="Verdana" font-size="13" font-weight="bold" lengthAdjust="spacing" textLength="49.207" x="235.2095" y="1912.6997">Query:</text><text fill="#000000" font-family="Verdana" font-size="13" lengthAdjust="spacing" textLength="149.9316" x="235.2095" y="1927.8325">SELECT FROM bettrans</text><text fill="#000000" font-family="Verdana" font-size="13" lengthAdjust="spacing" textLength="191.4009" x="235.2095" y="1942.9653">WHERE MatchID = @MatchID</text><text fill="#000000" font-family="Verdana" font-size="13" lengthAdjust="spacing" textLength="194.7144" x="235.2095" y="1958.0981">AND BettypeID = @BettypeID</text><text fill="#000000" font-family="Verdana" font-size="13" lengthAdjust="spacing" textLength="136.6333" x="235.2095" y="1973.231">AND BetID = @BetID</text><text fill="#000000" font-family="Verdana" font-size="13" lengthAdjust="spacing" textLength="419.3389" x="235.2095" y="1988.3638">AND TransDate BETWEEN @FromTransDate AND @ToTransDate</text><text fill="#000000" font-family="Verdana" font-size="13" lengthAdjust="spacing" textLength="99.582" x="235.2095" y="2003.4966">WITH(NOLOCK)</text><rect fill="#ADD8E6" height="33.9688" rx="12.5" ry="12.5" style="stroke:#00008B;stroke-width:1;" width="158.3984" x="50.811" y="1929.0469"/><text fill="#000000" font-family="Verdana" font-size="12" lengthAdjust="spacing" textLength="138.3984" x="60.811" y="1950.1855">SELECT FROM bettrans</text><path d="M222.2397,2021.5625 L222.2397,2052.8281 L202.2397,2056.8281 L222.2397,2060.8281 L222.2397,2092.0938 A0,0 0 0 0 222.2397,2092.0938 L434.6406,2092.0938 A0,0 0 0 0 434.6406,2092.0938 L434.6406,2031.5625 L424.6406,2021.5625 L222.2397,2021.5625 A0,0 0 0 0 222.2397,2021.5625" fill="#FFFFFF" style="stroke:#000000;stroke-width:1;"/><path d="M424.6406,2021.5625 L424.6406,2031.5625 L434.6406,2031.5625 L424.6406,2021.5625" fill="#FFFFFF" style="stroke:#000000;stroke-width:1;"/><text fill="#000000" font-family="Verdana" font-size="13" font-weight="bold" lengthAdjust="spacing" textLength="45.4175" x="228.2397" y="2038.6294">Table:</text><text fill="#000000" font-family="Verdana" font-size="13" lengthAdjust="spacing" textLength="121.6401" x="277.7896" y="2038.6294">bodb02.dbo.Match</text><text fill="#000000" font-family="Verdana" font-size="13" font-weight="bold" lengthAdjust="spacing" textLength="49.207" x="228.2397" y="2053.7622">Query:</text><text fill="#000000" font-family="Verdana" font-size="13" lengthAdjust="spacing" textLength="134.8306" x="228.2397" y="2068.895">SELECT FROM Match</text><text fill="#000000" font-family="Verdana" font-size="13" lengthAdjust="spacing" textLength="191.4009" x="228.2397" y="2084.0278">WHERE MatchID = @MatchID</text><rect fill="#ADD8E6" height="33.9688" rx="12.5" ry="12.5" style="stroke:#00008B;stroke-width:1;" width="144.459" x="57.7808" y="2039.8438"/><text fill="#000000" font-family="Verdana" font-size="12" lengthAdjust="spacing" textLength="124.459" x="67.7808" y="2060.9824">SELECT FROM Match</text><path d="M233.0767,2102.0938 L233.0767,2133.3594 L213.0767,2137.3594 L233.0767,2141.3594 L233.0767,2172.625 A0,0 0 0 0 233.0767,2172.625 L507.9956,2172.625 A0,0 0 0 0 507.9956,2172.625 L507.9956,2112.0938 L497.9956,2102.0938 L233.0767,2102.0938 A0,0 0 0 0 233.0767,2102.0938" fill="#FFFFFF" style="stroke:#000000;stroke-width:1;"/><path d="M497.9956,2102.0938 L497.9956,2112.0938 L507.9956,2112.0938 L497.9956,2102.0938" fill="#FFFFFF" style="stroke:#000000;stroke-width:1;"/><text fill="#000000" font-family="Verdana" font-size="13" font-weight="bold" lengthAdjust="spacing" textLength="45.4175" x="239.0767" y="2119.1606">Table:</text><text fill="#000000" font-family="Verdana" font-size="13" lengthAdjust="spacing" textLength="145.1201" x="288.6265" y="2119.1606">bodb02.dbo.Customer</text><text fill="#000000" font-family="Verdana" font-size="13" font-weight="bold" lengthAdjust="spacing" textLength="49.207" x="239.0767" y="2134.2935">Query:</text><text fill="#000000" font-family="Verdana" font-size="13" lengthAdjust="spacing" textLength="158.3105" x="239.0767" y="2149.4263">SELECT FROM Customer</text><text fill="#000000" font-family="Verdana" font-size="13" lengthAdjust="spacing" textLength="253.9189" x="239.0767" y="2164.5591">WHERE CustId IN (Transaction CustIds)</text><rect fill="#ADD8E6" height="33.9688" rx="12.5" ry="12.5" style="stroke:#00008B;stroke-width:1;" width="166.1328" x="46.9438" y="2120.375"/><text fill="#000000" font-family="Verdana" font-size="12" lengthAdjust="spacing" textLength="146.1328" x="56.9438" y="2141.5137">SELECT FROM Customer</text><path d="M233.355,2182.625 L233.355,2213.8906 L213.355,2217.8906 L233.355,2221.8906 L233.355,2253.1563 A0,0 0 0 0 233.355,2253.1563 L538.8696,2253.1563 A0,0 0 0 0 538.8696,2253.1563 L538.8696,2192.625 L528.8696,2182.625 L233.355,2182.625 A0,0 0 0 0 233.355,2182.625" fill="#FFFFFF" style="stroke:#000000;stroke-width:1;"/><path d="M528.8696,2182.625 L528.8696,2192.625 L538.8696,2192.625 L528.8696,2182.625" fill="#FFFFFF" style="stroke:#000000;stroke-width:1;"/><text fill="#000000" font-family="Verdana" font-size="13" font-weight="bold" lengthAdjust="spacing" textLength="45.4175" x="239.355" y="2199.6919">Table:</text><text fill="#000000" font-family="Verdana" font-size="13" lengthAdjust="spacing" textLength="145.7231" x="288.9048" y="2199.6919">bodb02.dbo.Exchange</text><text fill="#000000" font-family="Verdana" font-size="13" font-weight="bold" lengthAdjust="spacing" textLength="49.207" x="239.355" y="2214.8247">Query:</text><text fill="#000000" font-family="Verdana" font-size="13" lengthAdjust="spacing" textLength="260.4824" x="239.355" y="2229.9575">SELECT CurrencyName FROM Exchange</text><text fill="#000000" font-family="Verdana" font-size="13" lengthAdjust="spacing" textLength="284.5146" x="239.355" y="2245.0903">WHERE CurrencyID = Customer.CurrencyID</text><rect fill="#ADD8E6" height="33.9688" rx="12.5" ry="12.5" style="stroke:#00008B;stroke-width:1;" width="166.6895" x="46.6655" y="2200.9063"/><text fill="#000000" font-family="Verdana" font-size="12" lengthAdjust="spacing" textLength="146.6895" x="56.6655" y="2222.0449">SELECT FROM Exchange</text><path d="M203.6479,2263.1563 L203.6479,2286.8555 L183.6479,2290.8555 L203.6479,2294.8555 L203.6479,2318.5547 A0,0 0 0 0 203.6479,2318.5547 L488.5835,2318.5547 A0,0 0 0 0 488.5835,2318.5547 L488.5835,2273.1563 L478.5835,2263.1563 L203.6479,2263.1563 A0,0 0 0 0 203.6479,2263.1563" fill="#FFFFFF" style="stroke:#000000;stroke-width:1;"/><path d="M478.5835,2263.1563 L478.5835,2273.1563 L488.5835,2273.1563 L478.5835,2263.1563" fill="#FFFFFF" style="stroke:#000000;stroke-width:1;"/><text fill="#000000" font-family="Verdana" font-size="13" lengthAdjust="spacing" textLength="210.2979" x="209.6479" y="2280.2231">bettrans JOIN Match ON MatchId</text><text fill="#000000" font-family="Verdana" font-size="13" lengthAdjust="spacing" textLength="223.2979" x="209.6479" y="2295.356">bettrans JOIN Customer ON CustId</text><text fill="#000000" font-family="Verdana" font-size="13" lengthAdjust="spacing" textLength="263.9355" x="209.6479" y="2310.4888">Customer JOIN Exchange ON CurrencyID</text><rect fill="#ADD8E6" height="33.9688" rx="12.5" ry="12.5" style="stroke:#00008B;stroke-width:1;" width="107.2754" x="76.3726" y="2273.8711"/><text fill="#000000" font-family="Verdana" font-size="12" lengthAdjust="spacing" textLength="87.2754" x="86.3726" y="2295.0098">JOIN All Tables</text><path d="M229.4116,2328.5547 L229.4116,2374.9531 L209.4116,2378.9531 L229.4116,2382.9531 L229.4116,2429.3516 A0,0 0 0 0 229.4116,2429.3516 L487.3125,2429.3516 A0,0 0 0 0 487.3125,2429.3516 L487.3125,2338.5547 L477.3125,2328.5547 L229.4116,2328.5547 A0,0 0 0 0 229.4116,2328.5547" fill="#FFFFFF" style="stroke:#000000;stroke-width:1;"/><path d="M477.3125,2328.5547 L477.3125,2338.5547 L487.3125,2338.5547 L477.3125,2328.5547" fill="#FFFFFF" style="stroke:#000000;stroke-width:1;"/><text fill="#000000" font-family="Verdana" font-size="13" lengthAdjust="spacing" textLength="187.2051" x="235.4116" y="2345.6216">Filter by @ListDanger (JSON)</text><text fill="#000000" font-family="Verdana" font-size="13" lengthAdjust="spacing" textLength="134.5005" x="235.4116" y="2360.7544">Filter by @ListStatus</text><text fill="#000000" font-family="Verdana" font-size="13" lengthAdjust="spacing" textLength="190.4233" x="235.4116" y="2375.8872">Filter by @ListCustomerClass</text><text fill="#000000" font-family="Verdana" font-size="13" lengthAdjust="spacing" textLength="141.0386" x="235.4116" y="2391.02">Filter by @ListReason</text><text fill="#000000" font-family="Verdana" font-size="13" lengthAdjust="spacing" textLength="236.9009" x="235.4116" y="2406.1528">Filter by @ListAGroup, @ListMGroup</text><text fill="#000000" font-family="Verdana" font-size="13" lengthAdjust="spacing" textLength="170.8726" x="235.4116" y="2421.2856">Filter by @CustAmountRM</text><rect fill="#ADD8E6" height="33.9688" rx="12.5" ry="12.5" style="stroke:#00008B;stroke-width:1;" width="158.8027" x="50.6089" y="2361.9688"/><text fill="#000000" font-family="Verdana" font-size="12" lengthAdjust="spacing" textLength="138.8027" x="60.6089" y="2383.1074">Apply Additional Filters</text><rect fill="#ADD8E6" height="33.9688" rx="12.5" ry="12.5" style="stroke:#00008B;stroke-width:1;" width="146.0996" x="56.9604" y="2449.3516"/><text fill="#000000" font-family="Verdana" font-size="12" lengthAdjust="spacing" textLength="126.0996" x="66.9604" y="2470.4902">Return Ticket Details</text><rect fill="#ADD8E6" height="33.9688" rx="12.5" ry="12.5" style="stroke:#00008B;stroke-width:1;" width="157.584" x="51.2183" y="2515.3203"/><text fill="#000000" font-family="Verdana" font-size="12" lengthAdjust="spacing" textLength="137.584" x="61.2183" y="2536.459">Map Results to Entities</text><rect fill="#ADD8E6" height="33.9688" rx="12.5" ry="12.5" style="stroke:#00008B;stroke-width:1;" width="161.8672" x="49.0767" y="2569.2891"/><text fill="#000000" font-family="Verdana" font-size="12" lengthAdjust="spacing" textLength="141.8672" x="59.0767" y="2590.4277">Return to Service Layer</text><ellipse cx="130.0103" cy="2634.2578" fill="none" rx="11" ry="11" style="stroke:#000000;stroke-width:1;"/><ellipse cx="130.0103" cy="2634.2578" fill="#FFFFFF" rx="6" ry="6" style="stroke:#000000;stroke-width:1;"/><line style="stroke:#000000;stroke-width:1;" x1="130.0103" x2="130.0103" y1="71.6094" y2="91.6094"/><polygon fill="#000000" points="126.0103,81.6094,130.0103,91.6094,134.0103,81.6094,130.0103,85.6094" style="stroke:#000000;stroke-width:1;"/><line style="stroke:#000000;stroke-width:1;" x1="130.0103" x2="130.0103" y1="232.2578" y2="293.9531"/><polygon fill="#000000" points="126.0103,283.9531,130.0103,293.9531,134.0103,283.9531,130.0103,287.9531" style="stroke:#000000;stroke-width:1;"/><line style="stroke:#000000;stroke-width:1;" x1="130.0103" x2="130.0103" y1="327.9219" y2="374.4844"/><polygon fill="#000000" points="126.0103,364.4844,130.0103,374.4844,134.0103,364.4844,130.0103,368.4844" style="stroke:#000000;stroke-width:1;"/><line style="stroke:#000000;stroke-width:1;" x1="130.0103" x2="130.0103" y1="408.4531" y2="462.582"/><polygon fill="#000000" points="126.0103,452.582,130.0103,462.582,134.0103,452.582,130.0103,456.582" style="stroke:#000000;stroke-width:1;"/><line style="stroke:#000000;stroke-width:1;" x1="130.0103" x2="130.0103" y1="496.5508" y2="565.8125"/><polygon fill="#000000" points="126.0103,555.8125,130.0103,565.8125,134.0103,555.8125,130.0103,559.8125" style="stroke:#000000;stroke-width:1;"/><line style="stroke:#000000;stroke-width:1;" x1="130.0103" x2="130.0103" y1="599.7813" y2="661.4766"/><polygon fill="#000000" points="126.0103,651.4766,130.0103,661.4766,134.0103,651.4766,130.0103,655.4766" style="stroke:#000000;stroke-width:1;"/><line style="stroke:#000000;stroke-width:1;" x1="130.0103" x2="130.0103" y1="695.4453" y2="772.2734"/><polygon fill="#000000" points="126.0103,762.2734,130.0103,772.2734,134.0103,762.2734,130.0103,766.2734" style="stroke:#000000;stroke-width:1;"/><line style="stroke:#000000;stroke-width:1;" x1="130.0103" x2="130.0103" y1="806.2422" y2="883.0703"/><polygon fill="#000000" points="126.0103,873.0703,130.0103,883.0703,134.0103,873.0703,130.0103,877.0703" style="stroke:#000000;stroke-width:1;"/><line style="stroke:#000000;stroke-width:1;" x1="130.0103" x2="130.0103" y1="917.0391" y2="955.3203"/><polygon fill="#000000" points="126.0103,945.3203,130.0103,955.3203,134.0103,945.3203,130.0103,949.3203" style="stroke:#000000;stroke-width:1;"/><line style="stroke:#000000;stroke-width:1;" x1="130.0103" x2="130.0103" y1="989.2891" y2="1010.0039"/><polygon fill="#000000" points="126.0103,1000.0039,130.0103,1010.0039,134.0103,1000.0039,130.0103,1004.0039" style="stroke:#000000;stroke-width:1;"/><line style="stroke:#000000;stroke-width:1;" x1="130.0103" x2="130.0103" y1="125.5781" y2="198.2891"/><polygon fill="#000000" points="126.0103,188.2891,130.0103,198.2891,134.0103,188.2891,130.0103,192.2891" style="stroke:#000000;stroke-width:1;"/><line style="stroke:#000000;stroke-width:1;" x1="130.0103" x2="130.0103" y1="1150.668" y2="1181.3828"/><polygon fill="#000000" points="126.0103,1171.3828,130.0103,1181.3828,134.0103,1171.3828,130.0103,1175.3828" style="stroke:#000000;stroke-width:1;"/><line style="stroke:#000000;stroke-width:1;" x1="130.0103" x2="130.0103" y1="1215.3516" y2="1269.4805"/><polygon fill="#000000" points="126.0103,1259.4805,130.0103,1269.4805,134.0103,1259.4805,130.0103,1263.4805" style="stroke:#000000;stroke-width:1;"/><line style="stroke:#000000;stroke-width:1;" x1="130.0103" x2="130.0103" y1="1303.4492" y2="1364.4297"/><polygon fill="#000000" points="126.0103,1354.4297,130.0103,1364.4297,134.0103,1354.4297,130.0103,1358.4297" style="stroke:#000000;stroke-width:1;"/><line style="stroke:#000000;stroke-width:1;" x1="130.0103" x2="130.0103" y1="1398.3984" y2="1421.5469"/><polygon fill="#000000" points="126.0103,1411.5469,130.0103,1421.5469,134.0103,1411.5469,130.0103,1415.5469" style="stroke:#000000;stroke-width:1;"/><line style="stroke:#000000;stroke-width:1;" x1="130.0103" x2="130.0103" y1="1043.9727" y2="1116.6992"/><polygon fill="#000000" points="126.0103,1106.6992,130.0103,1116.6992,134.0103,1106.6992,130.0103,1110.6992" style="stroke:#000000;stroke-width:1;"/><line style="stroke:#000000;stroke-width:1;" x1="130.0103" x2="130.0103" y1="1455.5156" y2="1562.9258"/><polygon fill="#000000" points="126.0103,1552.9258,130.0103,1562.9258,134.0103,1552.9258,130.0103,1556.9258" style="stroke:#000000;stroke-width:1;"/><line style="stroke:#000000;stroke-width:1;" x1="130.0103" x2="130.0103" y1="1748.9883" y2="1803.1172"/><polygon fill="#000000" points="126.0103,1793.1172,130.0103,1803.1172,134.0103,1793.1172,130.0103,1797.1172" style="stroke:#000000;stroke-width:1;"/><line style="stroke:#000000;stroke-width:1;" x1="130.0103" x2="130.0103" y1="1837.0859" y2="1929.0469"/><polygon fill="#000000" points="126.0103,1919.0469,130.0103,1929.0469,134.0103,1919.0469,130.0103,1923.0469" style="stroke:#000000;stroke-width:1;"/><line style="stroke:#000000;stroke-width:1;" x1="130.0103" x2="130.0103" y1="1963.0156" y2="2039.8438"/><polygon fill="#000000" points="126.0103,2029.8438,130.0103,2039.8438,134.0103,2029.8438,130.0103,2033.8438" style="stroke:#000000;stroke-width:1;"/><line style="stroke:#000000;stroke-width:1;" x1="130.0103" x2="130.0103" y1="2073.8125" y2="2120.375"/><polygon fill="#000000" points="126.0103,2110.375,130.0103,2120.375,134.0103,2110.375,130.0103,2114.375" style="stroke:#000000;stroke-width:1;"/><line style="stroke:#000000;stroke-width:1;" x1="130.0103" x2="130.0103" y1="2154.3438" y2="2200.9063"/><polygon fill="#000000" points="126.0103,2190.9063,130.0103,2200.9063,134.0103,2190.9063,130.0103,2194.9063" style="stroke:#000000;stroke-width:1;"/><line style="stroke:#000000;stroke-width:1;" x1="130.0103" x2="130.0103" y1="2234.875" y2="2273.8711"/><polygon fill="#000000" points="126.0103,2263.8711,130.0103,2273.8711,134.0103,2263.8711,130.0103,2267.8711" style="stroke:#000000;stroke-width:1;"/><line style="stroke:#000000;stroke-width:1;" x1="130.0103" x2="130.0103" y1="2307.8398" y2="2361.9688"/><polygon fill="#000000" points="126.0103,2351.9688,130.0103,2361.9688,134.0103,2351.9688,130.0103,2355.9688" style="stroke:#000000;stroke-width:1;"/><line style="stroke:#000000;stroke-width:1;" x1="130.0103" x2="130.0103" y1="2395.9375" y2="2449.3516"/><polygon fill="#000000" points="126.0103,2439.3516,130.0103,2449.3516,134.0103,2439.3516,130.0103,2443.3516" style="stroke:#000000;stroke-width:1;"/><line style="stroke:#000000;stroke-width:1;" x1="130.0103" x2="130.0103" y1="1596.8945" y2="1715.0195"/><polygon fill="#000000" points="126.0103,1705.0195,130.0103,1715.0195,134.0103,1705.0195,130.0103,1709.0195" style="stroke:#000000;stroke-width:1;"/><line style="stroke:#000000;stroke-width:1;" x1="130.0103" x2="130.0103" y1="2483.3203" y2="2515.3203"/><polygon fill="#000000" points="126.0103,2505.3203,130.0103,2515.3203,134.0103,2505.3203,130.0103,2509.3203" style="stroke:#000000;stroke-width:1;"/><line style="stroke:#000000;stroke-width:1;" x1="130.0103" x2="130.0103" y1="2549.2891" y2="2569.2891"/><polygon fill="#000000" points="126.0103,2559.2891,130.0103,2569.2891,134.0103,2559.2891,130.0103,2563.2891" style="stroke:#000000;stroke-width:1;"/><line style="stroke:#000000;stroke-width:1;" x1="130.0103" x2="130.0103" y1="2603.2578" y2="2623.2578"/><polygon fill="#000000" points="126.0103,2613.2578,130.0103,2623.2578,134.0103,2613.2578,130.0103,2617.2578" style="stroke:#000000;stroke-width:1;"/><!--SRC=[nLXBR-Cs4BxxLqot5yVOf4MF2RQmOpc9jh6TMWg2dW9QOXqXagYILB96iV-zV4aczOYSehlrnTRCYFhc_Sa_y2USOIXIbEGZdl0KWuVo7QQm97d22OLJ2CGNZk6EaWZ79SMmBZ15F24v0mzpbAIZ4NjEyW9Hb06AUFAIy3tyFGBnkKJHyuwICe_d91N7fSdkYM_J4cijeJ6cMXCZ-gmKN-tZOiJH5Z7yrd5xdARajNKWeT8JTHn7b8z6v_TCEBR1VvMOSNX94CnfmZ5DqCLe91ud_1TEmOTv63mk4O-UmYHwnjpF_oIFrvX_C1ZEvnGZZY74MG4XsgQONIX5JeIKIaJgKdv-v5bnYNcuBx0ZcvUCamnJHoZXvIXpBMynsfNuMlXSE785C2Ypjb3YLLASnmgJkj3Gxn0LiVJpekHm9mECXV_zy4z1tp0LFd3XmsqY0ZV-7AnN9sqR2NybJfH6RQtbHxU1TWX7CWTzyFrLiDY4uA_2zL7Xj-sxKj7KjzBID6Ybg6dGJ5U74y7YTZ4FuMgpNi9IzDsG4vE9PvhWV3A1BOctF_zo5c-9PQ1F46ehh2gUrlLMf51q1BD4ZhlzIDL98Clg3OmAWWlmp8KmcVnUOhgtKRgXi8qVRXQR1InUSCuzsMoNY_1XiLZ1z8gIJ4bcAm-c8P6_wxkaB2W8LLaMIO7nL5tAYZjnhAmy-PwsR5JeoK1Kgk21xx5tngLLPlsXaQP-h2FKkaq7gUexxONTXKCkY7Q0KDO4KbttNZTQ5JMGuPRzvxM0RFSTh5V6uxPDFTkaaRxei38TBctCp6f4A-3e6SEld_IyccLYbnpyVF33c_5gVRkU_zORkzbkH_5ELk06ipBb_L6xtgplx-3oZmhjnmgI-c6X3-wNOuNh1123a72KDe3Dr_UhS3mvwFLgEfo0vReK26v467-QlQ8z87K2EsQKsllaecDI9JbA1xsrCzsveDgPh5KRp4kQ0wf26qEcPexS_gu3NmStzOmn4YMQdpXhM-yPImroaVNwCxKFKeil8hbWEpaxjqReXX2kAjPhp5NVi- -7SKIo39qoawUujxmCkR1X7ZRTcpoZ2lYZInPU4_vamHHUf6MM3qm6sGWEXgia5KpXUmy8tR9c1ihnLclS0Udf-st03ibmPxzfHtMWzaiKd19YrfkNkfaFeUoDnc54RFSEA9KPrkvQOIQFLQEy3u3f4NM4m5ktOqz76Fx-g1cwwWJjQzqFTNTBgI3r_sO57BlXFJy8_TKyj9haiDiLJxTvYHcJG3GcXzHGqUSTYdg3p5F4MCkWbs7eMl3Wao6Wfe-7var7TFK8-kOl2OCKtqHSmp4lQFy1kPIr6RiCiuDHDabdomMHzo_HatenEu8ULq_uV-PEJsrKOyHKgJQeBvecjRgXKhohJMqFOiDlQy6xI4gBM7zlvZxKLzrGgtBvTdpwBI9jxHcB5HinEohMLN6_qm6d9uPU22Z5URHNZDzvPiiRRQYIK7byTf3skQDesYnDXwPMrJIQr-btn0vcxfgzGVHhbJAidDA6GvXdHP6AJHl7QauBiggNMZzui_J4tfrAec3-yshyiz4m4WoTbwnFMy5N-wVFQ8CHC_zkT6XdQhT_r1TBbyLPfl99-lLWinmW2yqb8BRP-H8L5Na0Jc2Ho-KcyrpT98G1fYz9XE4MxMKpZeHhnJy0]--></g></svg>