<svg xmlns="http://www.w3.org/2000/svg" xmlns:xlink="http://www.w3.org/1999/xlink" contentStyleType="text/css" data-diagram-type="SEQUENCE" height="1581px" preserveAspectRatio="none" style="width:2031px;height:1581px;background:#FFFFFF;" version="1.1" viewBox="0 0 2031 1581" width="2031px" zoomAndPan="magnify"><title>Danger Monitor Search - With Association Mode Sequence Diagram</title><defs/><g><text fill="#000000" font-family="Verdana" font-size="22" font-weight="bold" lengthAdjust="spacing" textLength="836.5371" x="598.3943" y="35.4209">Danger Monitor Search - With Association Mode Sequence Diagram</text><g><title>DangerMonitor</title><rect fill="#FFFFFF" height="1292.0469" style="stroke:#000000;stroke-width:1;" width="10" x="311.1079" y="176.4688"/></g><g><title>DangerMonitor</title><rect fill="#FFFFFF" height="509.0625" style="stroke:#000000;stroke-width:1;" width="10" x="316.1079" y="213.6016"/></g><g><title>DangerMonitor</title><rect fill="#FFFFFF" height="593.0547" style="stroke:#000000;stroke-width:1;" width="10" x="645.6777" y="804.1953"/></g><g><title>AssociationDetection</title><rect fill="#FFFFFF" height="259.3281" style="stroke:#000000;stroke-width:1;" width="10" x="1145.2783" y="379.0703"/></g><g><title>CriteriaService</title><rect fill="#FFFFFF" height="225.1953" style="stroke:#000000;stroke-width:1;" width="10" x="1314.8853" y="1058.6563"/></g><g><title>SQL Server</title><rect fill="#FFFFFF" height="124.7969" style="stroke:#000000;stroke-width:1;" width="10" x="1736.4033" y="1129.9219"/></g><rect fill="#FFFFFF" height="412.7969" style="stroke:#000000;stroke-width:1;" width="1088.9995" x="236.7549" y="233.6016"/><rect fill="#FFFFFF" height="303.2656" style="stroke:none;stroke-width:1;" width="1088.9995" x="236.7549" y="343.1328"/><g><title>User</title><rect fill="#000000" fill-opacity="0.00000" height="1356.3125" width="8" x="24.9551" y="130.2031"/><line style="stroke:#000000;stroke-width:1;stroke-dasharray:5,5;" x1="28" x2="28" y1="130.2031" y2="1486.5156"/></g><g><title>DangerMonitor</title><rect fill="#000000" fill-opacity="0.00000" height="1356.3125" width="8" x="312.1079" y="130.2031"/><line style="stroke:#000000;stroke-width:1;stroke-dasharray:5,5;" x1="315.7549" x2="315.7549" y1="130.2031" y2="1486.5156"/></g><g><title>DangerMonitor</title><rect fill="#000000" fill-opacity="0.00000" height="1356.3125" width="8" x="646.6777" y="130.2031"/><line style="stroke:#000000;stroke-width:1;stroke-dasharray:5,5;" x1="650.3247" x2="650.3247" y1="130.2031" y2="1486.5156"/></g><g><title>AssociationDetection</title><rect fill="#000000" fill-opacity="0.00000" height="1356.3125" width="8" x="1146.2783" y="130.2031"/><line style="stroke:#000000;stroke-width:1;stroke-dasharray:5,5;" x1="1149.416" x2="1149.416" y1="130.2031" y2="1486.5156"/></g><g><title>CriteriaService</title><rect fill="#000000" fill-opacity="0.00000" height="1356.3125" width="8" x="1315.8853" y="130.2031"/><line style="stroke:#000000;stroke-width:1;stroke-dasharray:5,5;" x1="1319.1406" x2="1319.1406" y1="130.2031" y2="1486.5156"/></g><g><title>SQL Server</title><rect fill="#000000" fill-opacity="0.00000" height="1356.3125" width="8" x="1737.4033" y="130.2031"/><line style="stroke:#000000;stroke-width:1;stroke-dasharray:5,5;" x1="1741.3701" x2="1741.3701" y1="130.2031" y2="1486.5156"/></g><g class="participant participant-head" data-participant="User"><text fill="#000000" font-family="Verdana" font-size="14" lengthAdjust="spacing" textLength="31.9102" x="10" y="126.9014">User</text><ellipse cx="28.9551" cy="61.9063" fill="#FFFFFF" rx="8" ry="8" style="stroke:#000000;stroke-width:1;"/><path d="M28.9551,69.9063 L28.9551,96.9063 M15.9551,77.9063 L41.9551,77.9063 M28.9551,96.9063 L15.9551,111.9063 M28.9551,96.9063 L41.9551,111.9063" fill="none" style="stroke:#000000;stroke-width:1;"/></g><g class="participant participant-tail" data-participant="User"><text fill="#000000" font-family="Verdana" font-size="14" lengthAdjust="spacing" textLength="31.9102" x="10" y="1498.5107">User</text><ellipse cx="28.9551" cy="1510.8125" fill="#FFFFFF" rx="8" ry="8" style="stroke:#000000;stroke-width:1;"/><path d="M28.9551,1518.8125 L28.9551,1545.8125 M15.9551,1526.8125 L41.9551,1526.8125 M28.9551,1545.8125 L15.9551,1560.8125 M28.9551,1545.8125 L41.9551,1560.8125" fill="none" style="stroke:#000000;stroke-width:1;"/></g><g class="participant participant-head" data-participant="Controller"><rect fill="#FFFFFF" height="46.5938" rx="2.5" ry="2.5" style="stroke:#000000;stroke-width:1;" width="118.7061" x="256.7549" y="82.6094"/><text fill="#000000" font-family="Verdana" font-size="14" lengthAdjust="spacing" textLength="104.7061" x="263.7549" y="102.6045">DangerMonitor</text><text fill="#000000" font-family="Verdana" font-size="14" lengthAdjust="spacing" textLength="69.1729" x="281.5215" y="118.9014">Controller</text></g><g class="participant participant-tail" data-participant="Controller"><rect fill="#FFFFFF" height="46.5938" rx="2.5" ry="2.5" style="stroke:#000000;stroke-width:1;" width="118.7061" x="256.7549" y="1485.5156"/><text fill="#000000" font-family="Verdana" font-size="14" lengthAdjust="spacing" textLength="104.7061" x="263.7549" y="1505.5107">DangerMonitor</text><text fill="#000000" font-family="Verdana" font-size="14" lengthAdjust="spacing" textLength="69.1729" x="281.5215" y="1521.8076">Controller</text></g><g class="participant participant-head" data-participant="Service"><rect fill="#FFFFFF" height="46.5938" rx="2.5" ry="2.5" style="stroke:#000000;stroke-width:1;" width="118.7061" x="591.3247" y="82.6094"/><text fill="#000000" font-family="Verdana" font-size="14" lengthAdjust="spacing" textLength="104.7061" x="598.3247" y="102.6045">DangerMonitor</text><text fill="#000000" font-family="Verdana" font-size="14" lengthAdjust="spacing" textLength="51.7412" x="624.8071" y="118.9014">Service</text></g><g class="participant participant-tail" data-participant="Service"><rect fill="#FFFFFF" height="46.5938" rx="2.5" ry="2.5" style="stroke:#000000;stroke-width:1;" width="118.7061" x="591.3247" y="1485.5156"/><text fill="#000000" font-family="Verdana" font-size="14" lengthAdjust="spacing" textLength="104.7061" x="598.3247" y="1505.5107">DangerMonitor</text><text fill="#000000" font-family="Verdana" font-size="14" lengthAdjust="spacing" textLength="51.7412" x="624.8071" y="1521.8076">Service</text></g><g class="participant participant-head" data-participant="AssocService"><rect fill="#FFFFFF" height="46.5938" rx="2.5" ry="2.5" style="stroke:#000000;stroke-width:1;" width="161.7246" x="1069.416" y="82.6094"/><text fill="#000000" font-family="Verdana" font-size="14" lengthAdjust="spacing" textLength="147.7246" x="1076.416" y="102.6045">AssociationDetection</text><text fill="#000000" font-family="Verdana" font-size="14" lengthAdjust="spacing" textLength="51.7412" x="1124.4077" y="118.9014">Service</text></g><g class="participant participant-tail" data-participant="AssocService"><rect fill="#FFFFFF" height="46.5938" rx="2.5" ry="2.5" style="stroke:#000000;stroke-width:1;" width="161.7246" x="1069.416" y="1485.5156"/><text fill="#000000" font-family="Verdana" font-size="14" lengthAdjust="spacing" textLength="147.7246" x="1076.416" y="1505.5107">AssociationDetection</text><text fill="#000000" font-family="Verdana" font-size="14" lengthAdjust="spacing" textLength="51.7412" x="1124.4077" y="1521.8076">Service</text></g><g class="participant participant-head" data-participant="Repository"><rect fill="#FFFFFF" height="46.5938" rx="2.5" ry="2.5" style="stroke:#000000;stroke-width:1;" width="117.4893" x="1261.1406" y="82.6094"/><text fill="#000000" font-family="Verdana" font-size="14" lengthAdjust="spacing" textLength="103.4893" x="1268.1406" y="102.6045">CriteriaService</text><text fill="#000000" font-family="Verdana" font-size="14" lengthAdjust="spacing" textLength="85.9961" x="1276.8872" y="118.9014">(Repository)</text></g><g class="participant participant-tail" data-participant="Repository"><rect fill="#FFFFFF" height="46.5938" rx="2.5" ry="2.5" style="stroke:#000000;stroke-width:1;" width="117.4893" x="1261.1406" y="1485.5156"/><text fill="#000000" font-family="Verdana" font-size="14" lengthAdjust="spacing" textLength="103.4893" x="1268.1406" y="1505.5107">CriteriaService</text><text fill="#000000" font-family="Verdana" font-size="14" lengthAdjust="spacing" textLength="85.9961" x="1276.8872" y="1521.8076">(Repository)</text></g><g class="participant participant-head" data-participant="DB"><text fill="#000000" font-family="Verdana" font-size="14" lengthAdjust="spacing" textLength="78.0664" x="1699.3701" y="110.6045">SQL Server</text><text fill="#000000" font-family="Verdana" font-size="14" lengthAdjust="spacing" textLength="66.8008" x="1705.0029" y="126.9014">Database</text><path d="M1723.4033,61.6094 C1723.4033,51.6094 1741.4033,51.6094 1741.4033,51.6094 C1741.4033,51.6094 1759.4033,51.6094 1759.4033,61.6094 L1759.4033,87.6094 C1759.4033,97.6094 1741.4033,97.6094 1741.4033,97.6094 C1741.4033,97.6094 1723.4033,97.6094 1723.4033,87.6094 L1723.4033,61.6094" fill="#FFFFFF" style="stroke:#000000;stroke-width:1;"/><path d="M1723.4033,61.6094 C1723.4033,71.6094 1741.4033,71.6094 1741.4033,71.6094 C1741.4033,71.6094 1759.4033,71.6094 1759.4033,61.6094" fill="none" style="stroke:#000000;stroke-width:1;"/></g><g class="participant participant-tail" data-participant="DB"><text fill="#000000" font-family="Verdana" font-size="14" lengthAdjust="spacing" textLength="78.0664" x="1699.3701" y="1498.5107">SQL Server</text><text fill="#000000" font-family="Verdana" font-size="14" lengthAdjust="spacing" textLength="66.8008" x="1705.0029" y="1514.8076">Database</text><path d="M1723.4033,1528.1094 C1723.4033,1518.1094 1741.4033,1518.1094 1741.4033,1518.1094 C1741.4033,1518.1094 1759.4033,1518.1094 1759.4033,1528.1094 L1759.4033,1554.1094 C1759.4033,1564.1094 1741.4033,1564.1094 1741.4033,1564.1094 C1741.4033,1564.1094 1723.4033,1564.1094 1723.4033,1554.1094 L1723.4033,1528.1094" fill="#FFFFFF" style="stroke:#000000;stroke-width:1;"/><path d="M1723.4033,1528.1094 C1723.4033,1538.1094 1741.4033,1538.1094 1741.4033,1538.1094 C1741.4033,1538.1094 1759.4033,1538.1094 1759.4033,1528.1094" fill="none" style="stroke:#000000;stroke-width:1;"/></g><g><title>DangerMonitor</title><rect fill="#FFFFFF" height="1292.0469" style="stroke:#000000;stroke-width:1;" width="10" x="311.1079" y="176.4688"/></g><g><title>DangerMonitor</title><rect fill="#FFFFFF" height="509.0625" style="stroke:#000000;stroke-width:1;" width="10" x="316.1079" y="213.6016"/></g><g><title>DangerMonitor</title><rect fill="#FFFFFF" height="593.0547" style="stroke:#000000;stroke-width:1;" width="10" x="645.6777" y="804.1953"/></g><g><title>AssociationDetection</title><rect fill="#FFFFFF" height="259.3281" style="stroke:#000000;stroke-width:1;" width="10" x="1145.2783" y="379.0703"/></g><g><title>CriteriaService</title><rect fill="#FFFFFF" height="225.1953" style="stroke:#000000;stroke-width:1;" width="10" x="1314.8853" y="1058.6563"/></g><g><title>SQL Server</title><rect fill="#FFFFFF" height="124.7969" style="stroke:#000000;stroke-width:1;" width="10" x="1736.4033" y="1129.9219"/></g><g class="message" data-participant-1="User" data-participant-2="Controller"><polygon fill="#000000" points="299.1079,172.4688,309.1079,176.4688,299.1079,180.4688,303.1079,176.4688" style="stroke:#000000;stroke-width:1;"/><line style="stroke:#000000;stroke-width:1;" x1="28.9551" x2="305.1079" y1="176.4688" y2="176.4688"/><text fill="#000000" font-family="Verdana" font-size="13" lengthAdjust="spacing" textLength="199.1768" x="35.9551" y="156.27">POST GetDangerMonitor(filter)</text><text fill="#000000" font-family="Verdana" font-size="13" lengthAdjust="spacing" textLength="225.5513" x="35.9551" y="171.4028">IsRootUserAssociationMode = true</text></g><g class="message" data-participant-1="Controller" data-participant-2="Controller"><line style="stroke:#000000;stroke-width:1;" x1="321.1079" x2="368.1079" y1="200.6016" y2="200.6016"/><line style="stroke:#000000;stroke-width:1;" x1="368.1079" x2="368.1079" y1="200.6016" y2="213.6016"/><line style="stroke:#000000;stroke-width:1;" x1="327.1079" x2="368.1079" y1="213.6016" y2="213.6016"/><polygon fill="#000000" points="337.1079,209.6016,327.1079,213.6016,337.1079,217.6016,333.1079,213.6016" style="stroke:#000000;stroke-width:1;"/><text fill="#000000" font-family="Verdana" font-size="13" lengthAdjust="spacing" textLength="263.2183" x="333.1079" y="195.5356">DetectAssociationCustByUserRoot(filter)</text></g><path d="M236.7549,233.6016 L301.1978,233.6016 L301.1978,240.7344 L291.1978,250.7344 L236.7549,250.7344 L236.7549,233.6016" fill="#FFFFFF" style="stroke:#000000;stroke-width:1;"/><rect fill="none" height="412.7969" style="stroke:#000000;stroke-width:1;" width="1088.9995" x="236.7549" y="233.6016"/><text fill="#000000" font-family="Verdana" font-size="13" font-weight="bold" lengthAdjust="spacing" textLength="19.4429" x="251.7549" y="246.6685">alt</text><text fill="#000000" font-family="Verdana" font-size="11" font-weight="bold" lengthAdjust="spacing" textLength="247.1992" x="316.1978" y="245.812">[ConfigSettings.IsUsingFanexAPIDirect]</text><g class="message" data-participant-1="Controller" data-participant-2="Controller"><line style="stroke:#000000;stroke-width:1;" x1="326.1079" x2="368.1079" y1="271.8672" y2="271.8672"/><line style="stroke:#000000;stroke-width:1;" x1="368.1079" x2="368.1079" y1="271.8672" y2="284.8672"/><line style="stroke:#000000;stroke-width:1;" x1="327.1079" x2="368.1079" y1="284.8672" y2="284.8672"/><polygon fill="#000000" points="337.1079,280.8672,327.1079,284.8672,337.1079,288.8672,333.1079,284.8672" style="stroke:#000000;stroke-width:1;"/><text fill="#000000" font-family="Verdana" font-size="13" lengthAdjust="spacing" textLength="140.2388" x="333.1079" y="266.8013">Call API via ApiHelper</text></g><path d="M331,297.8672 L331,337.8672 L574,337.8672 L574,307.8672 L564,297.8672 L331,297.8672" fill="#FFFFFF" style="stroke:#000000;stroke-width:1;"/><path d="M564,297.8672 L564,307.8672 L574,307.8672 L564,297.8672" fill="#FFFFFF" style="stroke:#000000;stroke-width:1;"/><text fill="#000000" font-family="Verdana" font-size="13" lengthAdjust="spacing" textLength="86.9375" x="337" y="314.9341">API Endpoint:</text><text fill="#000000" font-family="Verdana" font-size="13" lengthAdjust="spacing" textLength="222.8345" x="337" y="330.0669">DetectAssociationCustByUserRoot</text><line style="stroke:#000000;stroke-width:1;stroke-dasharray:2,2;" x1="236.7549" x2="1325.7544" y1="344.1328" y2="344.1328"/><text fill="#000000" font-family="Verdana" font-size="11" font-weight="bold" lengthAdjust="spacing" textLength="85.2876" x="241.7549" y="354.3433">[Direct Mode]</text><g class="message" data-participant-1="Controller" data-participant-2="AssocService"><polygon fill="#000000" points="1133.2783,375.0703,1143.2783,379.0703,1133.2783,383.0703,1137.2783,379.0703" style="stroke:#000000;stroke-width:1;"/><line style="stroke:#000000;stroke-width:1;" x1="326.1079" x2="1139.2783" y1="379.0703" y2="379.0703"/><text fill="#000000" font-family="Verdana" font-size="13" lengthAdjust="spacing" textLength="285.6572" x="333.1079" y="374.0044">DetectAssociationCustByUserRoot(filterAss)</text></g><path d="M1160,392.0703 L1160,447.0703 L1307,447.0703 L1307,402.0703 L1297,392.0703 L1160,392.0703" fill="#FFFFFF" style="stroke:#000000;stroke-width:1;"/><path d="M1297,392.0703 L1297,402.0703 L1307,402.0703 L1297,392.0703" fill="#FFFFFF" style="stroke:#000000;stroke-width:1;"/><text fill="#000000" font-family="Verdana" font-size="13" lengthAdjust="spacing" textLength="37.521" x="1166" y="409.1372">Filter:</text><text fill="#000000" font-family="Verdana" font-size="13" lengthAdjust="spacing" textLength="83.5796" x="1166" y="424.27">- UserNames</text><text fill="#000000" font-family="Verdana" font-size="13" lengthAdjust="spacing" textLength="126.0327" x="1166" y="439.4028">- IsAI, IsDevice, IsIP</text><g class="message" data-participant-1="AssocService" data-participant-2="AssocService"><line style="stroke:#000000;stroke-width:1;" x1="1155.2783" x2="1197.2783" y1="473.6016" y2="473.6016"/><line style="stroke:#000000;stroke-width:1;" x1="1197.2783" x2="1197.2783" y1="473.6016" y2="486.6016"/><line style="stroke:#000000;stroke-width:1;" x1="1156.2783" x2="1197.2783" y1="486.6016" y2="486.6016"/><polygon fill="#000000" points="1166.2783,482.6016,1156.2783,486.6016,1166.2783,490.6016,1162.2783,486.6016" style="stroke:#000000;stroke-width:1;"/><text fill="#000000" font-family="Verdana" font-size="13" lengthAdjust="spacing" textLength="132.2852" x="1162.2783" y="468.5356">Validate UserNames</text></g><g class="message" data-participant-1="AssocService" data-participant-2="AssocService"><line style="stroke:#000000;stroke-width:1;" x1="1155.2783" x2="1197.2783" y1="515.7344" y2="515.7344"/><line style="stroke:#000000;stroke-width:1;" x1="1197.2783" x2="1197.2783" y1="515.7344" y2="528.7344"/><line style="stroke:#000000;stroke-width:1;" x1="1156.2783" x2="1197.2783" y1="528.7344" y2="528.7344"/><polygon fill="#000000" points="1166.2783,524.7344,1156.2783,528.7344,1166.2783,532.7344,1162.2783,528.7344" style="stroke:#000000;stroke-width:1;"/><text fill="#000000" font-family="Verdana" font-size="13" lengthAdjust="spacing" textLength="121.5005" x="1162.2783" y="510.6685">Detect Association</text></g><path d="M1160,541.7344 L1160,611.7344 L1315,611.7344 L1315,551.7344 L1305,541.7344 L1160,541.7344" fill="#FFFFFF" style="stroke:#000000;stroke-width:1;"/><path d="M1305,541.7344 L1305,551.7344 L1315,551.7344 L1305,541.7344" fill="#FFFFFF" style="stroke:#000000;stroke-width:1;"/><text fill="#000000" font-family="Verdana" font-size="13" lengthAdjust="spacing" textLength="67.8057" x="1166" y="558.8013">Detect by:</text><text fill="#000000" font-family="Verdana" font-size="13" lengthAdjust="spacing" textLength="53.2822" x="1166" y="573.9341">- Device</text><text fill="#000000" font-family="Verdana" font-size="13" lengthAdjust="spacing" textLength="134.7544" x="1166" y="589.0669">- AI (Betting Pattern)</text><text fill="#000000" font-family="Verdana" font-size="13" lengthAdjust="spacing" textLength="76.9146" x="1166" y="604.1997">- IP Address</text><g class="message" data-participant-1="AssocService" data-participant-2="Controller"><polygon fill="#000000" points="337.1079,634.3984,327.1079,638.3984,337.1079,642.3984,333.1079,638.3984" style="stroke:#000000;stroke-width:1;"/><line style="stroke:#000000;stroke-width:1;stroke-dasharray:2,2;" x1="331.1079" x2="1149.2783" y1="638.3984" y2="638.3984"/><text fill="#000000" font-family="Verdana" font-size="13" lengthAdjust="spacing" textLength="336.8257" x="343.1079" y="633.3325">IEnumerable&lt;DetectAssociationByUserRootModel&gt;</text></g><g class="message" data-participant-1="Controller" data-participant-2="Controller"><line style="stroke:#000000;stroke-width:1;" x1="326.1079" x2="368.1079" y1="674.5313" y2="674.5313"/><line style="stroke:#000000;stroke-width:1;" x1="368.1079" x2="368.1079" y1="674.5313" y2="687.5313"/><line style="stroke:#000000;stroke-width:1;" x1="327.1079" x2="368.1079" y1="687.5313" y2="687.5313"/><polygon fill="#000000" points="337.1079,683.5313,327.1079,687.5313,337.1079,691.5313,333.1079,687.5313" style="stroke:#000000;stroke-width:1;"/><text fill="#000000" font-family="Verdana" font-size="13" lengthAdjust="spacing" textLength="227.1001" x="333.1079" y="669.4653">JsonConvert.SerializeObject(result)</text></g><g class="message" data-participant-1="Controller" data-participant-2="Controller"><line style="stroke:#000000;stroke-width:1;stroke-dasharray:2,2;" x1="326.1079" x2="368.1079" y1="721.6641" y2="721.6641"/><line style="stroke:#000000;stroke-width:1;stroke-dasharray:2,2;" x1="368.1079" x2="368.1079" y1="721.6641" y2="734.6641"/><line style="stroke:#000000;stroke-width:1;stroke-dasharray:2,2;" x1="321.1079" x2="368.1079" y1="734.6641" y2="734.6641"/><polygon fill="#000000" points="331.1079,730.6641,321.1079,734.6641,331.1079,738.6641,327.1079,734.6641" style="stroke:#000000;stroke-width:1;"/><text fill="#000000" font-family="Verdana" font-size="13" lengthAdjust="spacing" textLength="121.5767" x="333.1079" y="716.5981">Return JSON string</text></g><g class="message" data-participant-1="Controller" data-participant-2="Service"><polygon fill="#000000" points="633.6777,800.1953,643.6777,804.1953,633.6777,808.1953,637.6777,804.1953" style="stroke:#000000;stroke-width:1;"/><line style="stroke:#000000;stroke-width:1;" x1="321.1079" x2="639.6777" y1="804.1953" y2="804.1953"/><text fill="#000000" font-family="Verdana" font-size="13" lengthAdjust="spacing" textLength="305.5698" x="328.1079" y="753.731">GetDangerMonitorWithAssociationByRootUser(</text><text fill="#000000" font-family="Verdana" font-size="13" lengthAdjust="spacing" textLength="34.3726" x="336.3726" y="768.8638">filter,</text><text fill="#000000" font-family="Verdana" font-size="13" lengthAdjust="spacing" textLength="104.1333" x="336.3726" y="783.9966">associationData</text><text fill="#000000" font-family="Verdana" font-size="13" lengthAdjust="spacing" textLength="5.0718" x="328.1079" y="799.1294">)</text></g><g class="message" data-participant-1="Service" data-participant-2="Service"><line style="stroke:#000000;stroke-width:1;" x1="655.6777" x2="697.6777" y1="878.7266" y2="878.7266"/><line style="stroke:#000000;stroke-width:1;" x1="697.6777" x2="697.6777" y1="878.7266" y2="891.7266"/><line style="stroke:#000000;stroke-width:1;" x1="656.6777" x2="697.6777" y1="891.7266" y2="891.7266"/><polygon fill="#000000" points="666.6777,887.7266,656.6777,891.7266,666.6777,895.7266,662.6777,891.7266" style="stroke:#000000;stroke-width:1;"/><text fill="#000000" font-family="Verdana" font-size="13" lengthAdjust="spacing" textLength="313.5615" x="662.6777" y="828.2622">GetDangerMonitorInfoWithAssociationRootUser(</text><text fill="#000000" font-family="Verdana" font-size="13" lengthAdjust="spacing" textLength="34.3726" x="670.9424" y="843.395">filter,</text><text fill="#000000" font-family="Verdana" font-size="13" lengthAdjust="spacing" textLength="104.1333" x="670.9424" y="858.5278">associationData</text><text fill="#000000" font-family="Verdana" font-size="13" lengthAdjust="spacing" textLength="5.0718" x="662.6777" y="873.6606">)</text></g><g class="message" data-participant-1="Service" data-participant-2="Service"><line style="stroke:#000000;stroke-width:1;" x1="655.6777" x2="697.6777" y1="920.8594" y2="920.8594"/><line style="stroke:#000000;stroke-width:1;" x1="697.6777" x2="697.6777" y1="920.8594" y2="933.8594"/><line style="stroke:#000000;stroke-width:1;" x1="656.6777" x2="697.6777" y1="933.8594" y2="933.8594"/><polygon fill="#000000" points="666.6777,929.8594,656.6777,933.8594,666.6777,937.8594,662.6777,933.8594" style="stroke:#000000;stroke-width:1;"/><text fill="#000000" font-family="Verdana" font-size="13" lengthAdjust="spacing" textLength="465.6006" x="662.6777" y="915.7935">Create DangerMonitorSearchMatchInfoWithAssociationRootUserCriteria</text></g><path d="M660,946.8594 L660,1031.8594 L839,1031.8594 L839,956.8594 L829,946.8594 L660,946.8594" fill="#FFFFFF" style="stroke:#000000;stroke-width:1;"/><path d="M829,946.8594 L829,956.8594 L839,956.8594 L829,946.8594" fill="#FFFFFF" style="stroke:#000000;stroke-width:1;"/><text fill="#000000" font-family="Verdana" font-size="13" lengthAdjust="spacing" textLength="105.2632" x="666" y="963.9263">Set parameters:</text><text fill="#000000" font-family="Verdana" font-size="13" lengthAdjust="spacing" textLength="128.5654" x="666" y="979.0591">- FromDate, ToDate</text><text fill="#000000" font-family="Verdana" font-size="13" lengthAdjust="spacing" textLength="148.4907" x="666" y="994.1919">- SportList, BettypeList</text><text fill="#000000" font-family="Verdana" font-size="13" lengthAdjust="spacing" textLength="158.6597" x="666" y="1009.3247">- AssociationsList (JSON)</text><text fill="#000000" font-family="Verdana" font-size="13" lengthAdjust="spacing" textLength="86.8804" x="666" y="1024.4575">- Other filters</text><g class="message" data-participant-1="Service" data-participant-2="Repository"><polygon fill="#000000" points="1302.8853,1054.6563,1312.8853,1058.6563,1302.8853,1062.6563,1306.8853,1058.6563" style="stroke:#000000;stroke-width:1;"/><line style="stroke:#000000;stroke-width:1;" x1="655.6777" x2="1308.8853" y1="1058.6563" y2="1058.6563"/><text fill="#000000" font-family="Verdana" font-size="13" lengthAdjust="spacing" textLength="286.1333" x="662.6777" y="1053.5903">Fetch&lt;DangerMMTicketInfoEntity&gt;(criteria)</text></g><g class="message" data-participant-1="Repository" data-participant-2="Repository"><line style="stroke:#000000;stroke-width:1;" x1="1324.8853" x2="1366.8853" y1="1087.7891" y2="1087.7891"/><line style="stroke:#000000;stroke-width:1;" x1="1366.8853" x2="1366.8853" y1="1087.7891" y2="1100.7891"/><line style="stroke:#000000;stroke-width:1;" x1="1325.8853" x2="1366.8853" y1="1100.7891" y2="1100.7891"/><polygon fill="#000000" points="1335.8853,1096.7891,1325.8853,1100.7891,1335.8853,1104.7891,1331.8853,1100.7891" style="stroke:#000000;stroke-width:1;"/><text fill="#000000" font-family="Verdana" font-size="13" lengthAdjust="spacing" textLength="387.5181" x="1331.8853" y="1082.7231">GetSettingKey() = "CTS_MatchTicketInfo_Associations_Get"</text></g><g class="message" data-participant-1="Repository" data-participant-2="DB"><polygon fill="#000000" points="1724.4033,1125.9219,1734.4033,1129.9219,1724.4033,1133.9219,1728.4033,1129.9219" style="stroke:#000000;stroke-width:1;"/><line style="stroke:#000000;stroke-width:1;" x1="1324.8853" x2="1730.4033" y1="1129.9219" y2="1129.9219"/><text fill="#000000" font-family="Verdana" font-size="13" lengthAdjust="spacing" textLength="321.2358" x="1331.8853" y="1124.856">EXEC CTS_MatchTicketInfo_Associations_Get [SP]</text></g><path d="M1751,1142.9219 L1751,1227.9219 L2024,1227.9219 L2024,1152.9219 L2014,1142.9219 L1751,1142.9219" fill="#FFFFFF" style="stroke:#000000;stroke-width:1;"/><path d="M2014,1142.9219 L2014,1152.9219 L2024,1152.9219 L2014,1142.9219" fill="#FFFFFF" style="stroke:#000000;stroke-width:1;"/><text fill="#000000" font-family="Verdana" font-size="13" lengthAdjust="spacing" textLength="117.5269" x="1757" y="1159.9888">Stored Procedure:</text><text fill="#000000" font-family="Verdana" font-size="13" lengthAdjust="spacing" textLength="252.3257" x="1757" y="1175.1216">CTS_MatchTicketInfo_Associations_Get</text><text fill="#000000" font-family="Verdana" font-size="13" lengthAdjust="spacing" textLength="145.7422" x="1757" y="1190.2544">@FromDate, @ToDate</text><text fill="#000000" font-family="Verdana" font-size="13" lengthAdjust="spacing" textLength="165.6675" x="1757" y="1205.3872">@SportList, @BettypeList</text><text fill="#000000" font-family="Verdana" font-size="13" lengthAdjust="spacing" textLength="162.8364" x="1757" y="1220.52">@AssociationsList (JSON)</text><g class="message" data-participant-1="DB" data-participant-2="Repository"><polygon fill="#000000" points="1335.8853,1250.7188,1325.8853,1254.7188,1335.8853,1258.7188,1331.8853,1254.7188" style="stroke:#000000;stroke-width:1;"/><line style="stroke:#000000;stroke-width:1;stroke-dasharray:2,2;" x1="1329.8853" x2="1740.4033" y1="1254.7188" y2="1254.7188"/><text fill="#000000" font-family="Verdana" font-size="13" lengthAdjust="spacing" textLength="110.1826" x="1341.8853" y="1249.6528">Return ResultSet</text></g><g class="message" data-participant-1="Repository" data-participant-2="Service"><polygon fill="#000000" points="666.6777,1279.8516,656.6777,1283.8516,666.6777,1287.8516,662.6777,1283.8516" style="stroke:#000000;stroke-width:1;"/><line style="stroke:#000000;stroke-width:1;stroke-dasharray:2,2;" x1="660.6777" x2="1318.8853" y1="1283.8516" y2="1283.8516"/><text fill="#000000" font-family="Verdana" font-size="13" lengthAdjust="spacing" textLength="276.269" x="672.6777" y="1278.7856">IEnumerable&lt;DangerMMTicketInfoEntity&gt;</text></g><g class="message" data-participant-1="Service" data-participant-2="Service"><line style="stroke:#000000;stroke-width:1;" x1="655.6777" x2="697.6777" y1="1312.9844" y2="1312.9844"/><line style="stroke:#000000;stroke-width:1;" x1="697.6777" x2="697.6777" y1="1312.9844" y2="1325.9844"/><line style="stroke:#000000;stroke-width:1;" x1="656.6777" x2="697.6777" y1="1325.9844" y2="1325.9844"/><polygon fill="#000000" points="666.6777,1321.9844,656.6777,1325.9844,666.6777,1329.9844,662.6777,1325.9844" style="stroke:#000000;stroke-width:1;"/><text fill="#000000" font-family="Verdana" font-size="13" lengthAdjust="spacing" textLength="221.9521" x="662.6777" y="1307.9185">Map to DangerMMTicketInfoModel</text></g><g class="message" data-participant-1="Service" data-participant-2="Service"><line style="stroke:#000000;stroke-width:1;" x1="655.6777" x2="697.6777" y1="1355.1172" y2="1355.1172"/><line style="stroke:#000000;stroke-width:1;" x1="697.6777" x2="697.6777" y1="1355.1172" y2="1368.1172"/><line style="stroke:#000000;stroke-width:1;" x1="656.6777" x2="697.6777" y1="1368.1172" y2="1368.1172"/><polygon fill="#000000" points="666.6777,1364.1172,656.6777,1368.1172,666.6777,1372.1172,662.6777,1368.1172" style="stroke:#000000;stroke-width:1;"/><text fill="#000000" font-family="Verdana" font-size="13" lengthAdjust="spacing" textLength="278.916" x="662.6777" y="1350.0513">MappingDangerMonitorWithSportBettype()</text></g><g class="message" data-participant-1="Service" data-participant-2="Controller"><polygon fill="#000000" points="332.1079,1393.25,322.1079,1397.25,332.1079,1401.25,328.1079,1397.25" style="stroke:#000000;stroke-width:1;"/><line style="stroke:#000000;stroke-width:1;stroke-dasharray:2,2;" x1="326.1079" x2="649.6777" y1="1397.25" y2="1397.25"/><text fill="#000000" font-family="Verdana" font-size="13" lengthAdjust="spacing" textLength="231.3149" x="338.1079" y="1392.1841">GetDangerMonitorResultViewModel</text></g><g class="message" data-participant-1="Controller" data-participant-2="Controller"><line style="stroke:#000000;stroke-width:1;" x1="321.1079" x2="363.1079" y1="1426.3828" y2="1426.3828"/><line style="stroke:#000000;stroke-width:1;" x1="363.1079" x2="363.1079" y1="1426.3828" y2="1439.3828"/><line style="stroke:#000000;stroke-width:1;" x1="322.1079" x2="363.1079" y1="1439.3828" y2="1439.3828"/><polygon fill="#000000" points="332.1079,1435.3828,322.1079,1439.3828,332.1079,1443.3828,328.1079,1439.3828" style="stroke:#000000;stroke-width:1;"/><text fill="#000000" font-family="Verdana" font-size="13" lengthAdjust="spacing" textLength="180.9082" x="328.1079" y="1421.3169">OrderDangerMonitorItems()</text></g><g class="message" data-participant-1="Controller" data-participant-2="User"><polygon fill="#000000" points="39.9551,1464.5156,29.9551,1468.5156,39.9551,1472.5156,35.9551,1468.5156" style="stroke:#000000;stroke-width:1;"/><line style="stroke:#000000;stroke-width:1;stroke-dasharray:2,2;" x1="33.9551" x2="315.1079" y1="1468.5156" y2="1468.5156"/><text fill="#000000" font-family="Verdana" font-size="13" lengthAdjust="spacing" textLength="258.1528" x="45.9551" y="1463.4497">JSON Response { data: { Items: [...] } }</text></g><!--SRC=[bLRjSjeu5FtlfxZBBpEJy01CDyDdjhHDOUFqOwPqCefz0zerabSIQUbEtttlbGsM3QHPVe1awvxxUOxupQrnWr3aGgh8IPSZJ8HQeO4RhQJJ1X8K9bt39NoIRWr3QtKgXPDQqOaCwVK_MrGfcKcnCc8JHI9bimyMJLG8usGg2w4ST4hS2dQfnbeve_CSJGU4XNhxh5M2vaccw4sgTVDy4E047QQyQ9hv4oTjnqOwD59KBvSgliL2M_QywthRUXzbmea7OH4woP_lV2n8yKsgf_xqP1H5N0Uul0howyDYdjp17-WQkSMFCYVltQMQsLkj7Hi6oVXY_mxER94hB9-4mx1eKRrkkolh462DjzQDTko07UqTduOLkUFzermbw9nKAzkRsG-M5jT2uVVXOZQHXk0ZeC_v6COYpu4EmvCKC2paQymBWcSZfScbaQkr0_tOCEBpKvKLMYhNNwfVv15XRdaCEHe_coT22dl_qiBG-ww7EjIdCK77AJITN7iG2l_IS-AzsA3bpSmEPnVqFK4-nwlPmeFvhn3ZEF2F8fSPHt90V85HcMt8u5_6Nfayx7puPQIy6iuW7fNZ00lXA3_LzJajO9Xb1gqzbqbhB6PJjTsW4GyvlZhgHjq9xcP-vU4oFDq6LDbp77XZDIiESTJr4kPuBd_W_E4lyXXJlDlSTHlMBVDRT5kZu4qoVm_M6Sex2W8vJyD39TjiPp5jfBgdVBnK0ENWNV1I17f6sh9K0K_tkKT1pyzwdAb7tVBwFtoUyZ0so54ql9ItnOrmwVePXtkXZPh3Tq0cgG5IPXfiEcRzy5qRlQ5WY2Xtcd_vML9euzv9wow0ft5N86_yWDO-BJ-3c5ldPtHEDvwfihMDqjNYJgn5ok1LbThDdKp_HiS9JHLTahkhEAqo2BeHt0rHlMu3Krig8NsBkxXBajuPtoNtlcArc_imWNkowRGW9wC-J3zFn_0IO_YIBBxMWTArrAmxWoM4Z1aiZ4unsngaehy4Uga6TMS6-zOCWiuC6gqPdEbCD1bvqeMbgaXtw-b9HGifnrThM95mBXkYSgw38LZOkLE3VYCAS1gEiRmkdJCfgCT7dFU5gIeI1xHgwKsRl6KDFahyLheCWZ-8m7dncviCJLCC76viV2HvpCr-gNBaiQ0M8VmB_4-dJx_Ug0zVUhtUL_W9FqzBu7y0]--></g></svg>