<svg xmlns="http://www.w3.org/2000/svg" xmlns:xlink="http://www.w3.org/1999/xlink" contentStyleType="text/css" height="2892px" preserveAspectRatio="none" style="width:2170px;height:2892px;background:#FFFFFF;" version="1.1" viewBox="0 0 2170 2892" width="2170px" zoomAndPan="magnify"><defs/><g><text fill="#000000" font-family="Arial" font-size="16" font-weight="bold" lengthAdjust="spacing" textLength="233" x="967" y="35.2695">AI Robot Detection - Main Flow</text><rect fill="none" height="13.7988" style="stroke:none;stroke-width:1.0;" width="2137" x="15" y="50.3984"/><ellipse cx="218.5" cy="79.1973" fill="#222222" rx="10" ry="10" style="stroke:#222222;stroke-width:1.0;"/><path d="M373.5,99.1973 L373.5,134.6943 L353.5,138.6943 L373.5,142.6943 L373.5,178.1914 A0,0 0 0 0 373.5,178.1914 L692.5,178.1914 A0,0 0 0 0 692.5,178.1914 L692.5,109.1973 L682.5,99.1973 L373.5,99.1973 A0,0 0 0 0 373.5,99.1973 " fill="#FEFFDD" style="stroke:#181818;stroke-width:0.5;"/><path d="M682.5,99.1973 L682.5,109.1973 L692.5,109.1973 L682.5,99.1973 " fill="#FEFFDD" style="stroke:#181818;stroke-width:0.5;"/><text fill="#000000" font-family="Arial" font-size="12" lengthAdjust="spacing" textLength="68" x="379.5" y="115.6494">Parameters:</text><text fill="#000000" font-family="Arial" font-size="12" lengthAdjust="spacing" textLength="260" x="379.5" y="129.4482">- batchExternalSize: Batch size for external push</text><text fill="#000000" font-family="Arial" font-size="12" lengthAdjust="spacing" textLength="249" x="379.5" y="143.2471">- batchInternalSize: Batch size for PA insertion</text><text fill="#000000" font-family="Arial" font-size="12" lengthAdjust="spacing" textLength="3" x="379.5" y="157.0459">&#160;</text><text fill="#000000" font-family="Arial" font-size="12" lengthAdjust="spacing" textLength="298" x="379.5" y="170.8447">Ex: batchExternalSize = 1000, batchInternalSize = 5000</text><rect fill="#F1F1F1" height="33.7988" rx="12.5" ry="12.5" style="stroke:#181818;stroke-width:0.5;" width="270" x="83.5" y="121.7949"/><text fill="#000000" font-family="Arial" font-size="12" lengthAdjust="spacing" textLength="250" x="93.5" y="143.2471">POST /api/classificationJobs/robotAIDetection</text><rect fill="#F1F1F1" height="33.7988" rx="12.5" ry="12.5" style="stroke:#181818;stroke-width:0.5;" width="395" x="21" y="198.1914"/><text fill="#000000" font-family="Arial" font-size="12" lengthAdjust="spacing" textLength="375" x="31" y="219.6436">ScanningAIRobotClassification(batchExternalSize, batchInternalSize)</text><rect fill="#F1F1F1" height="33.7988" rx="12.5" ry="12.5" style="stroke:#181818;stroke-width:0.5;" width="149" x="144" y="251.9902"/><text fill="#000000" font-family="Arial" font-size="12" lengthAdjust="spacing" textLength="129" x="154" y="273.4424">Validate batch sizes &gt; 0</text><polygon fill="#F1F1F1" points="201.5,305.7891,235.5,305.7891,247.5,317.7891,235.5,329.7891,201.5,329.7891,189.5,317.7891,201.5,305.7891" style="stroke:#181818;stroke-width:0.5;"/><text fill="#000000" font-family="Arial" font-size="12" lengthAdjust="spacing" textLength="34" x="201.5" y="322.3418">Valid?</text><text fill="#000000" font-family="Arial" font-size="12" lengthAdjust="spacing" textLength="19" x="170.5" y="315.4424">yes</text><text fill="#000000" font-family="Arial" font-size="12" lengthAdjust="spacing" textLength="14" x="247.5" y="315.4424">no</text><rect fill="#F1F1F1" height="33.7988" rx="12.5" ry="12.5" style="stroke:#181818;stroke-width:0.5;" width="177" x="31.75" y="339.7891"/><text fill="#000000" font-family="Arial" font-size="12" lengthAdjust="spacing" textLength="157" x="41.75" y="361.2412">InsertAIRobotClassification()</text><rect fill="#F1F1F1" height="33.7988" rx="12.5" ry="12.5" style="stroke:#181818;stroke-width:0.5;" width="176" x="228.75" y="339.7891"/><text fill="#000000" font-family="Arial" font-size="12" lengthAdjust="spacing" textLength="156" x="238.75" y="361.2412">Log Error - Invalid Batch Size</text><ellipse cx="316.75" cy="404.5879" fill="none" rx="11" ry="11" style="stroke:#222222;stroke-width:1.0;"/><ellipse cx="316.75" cy="404.5879" fill="#222222" rx="6" ry="6" style="stroke:#222222;stroke-width:1.0;"/><path d="M299,2167.5859 L299,2232.7813 L530,2232.7813 L530,2177.5859 L520,2167.5859 L299,2167.5859 " fill="#FEFFDD" style="stroke:#181818;stroke-width:0.5;"/><path d="M520,2167.5859 L520,2177.5859 L530,2177.5859 L520,2167.5859 " fill="#FEFFDD" style="stroke:#181818;stroke-width:0.5;"/><text fill="#000000" font-family="Arial" font-size="12" font-weight="bold" lengthAdjust="spacing" textLength="88" x="305" y="2184.0381">Job Completion</text><text fill="#000000" font-family="Arial" font-size="12" lengthAdjust="spacing" textLength="3" x="393" y="2184.0381">:</text><text fill="#000000" font-family="Arial" font-size="12" lengthAdjust="spacing" textLength="177" x="305" y="2197.8369">All AI-detected robots processed</text><text fill="#000000" font-family="Arial" font-size="12" lengthAdjust="spacing" textLength="210" x="305" y="2211.6357">System parameter updated to latest ID</text><text fill="#000000" font-family="Arial" font-size="12" lengthAdjust="spacing" textLength="118" x="305" y="2225.4346">Ready for next job run</text><path d="M265.5,2252.7813 L265.5,2828.5332 L563.5,2828.5332 L563.5,2262.7813 L553.5,2252.7813 L265.5,2252.7813 " fill="#FEFFDD" style="stroke:#181818;stroke-width:0.5;"/><path d="M553.5,2252.7813 L553.5,2262.7813 L563.5,2262.7813 L553.5,2252.7813 " fill="#FEFFDD" style="stroke:#181818;stroke-width:0.5;"/><text fill="#000000" font-family="Arial" font-size="12" font-weight="bold" lengthAdjust="spacing" textLength="112" x="271.5" y="2269.2334">Key Characteristics</text><text fill="#000000" font-family="Arial" font-size="12" lengthAdjust="spacing" textLength="3" x="383.5" y="2269.2334">:</text><text fill="#000000" font-family="Arial" font-size="12" lengthAdjust="spacing" textLength="3" x="271.5" y="2283.0322">&#160;</text><text fill="#000000" font-family="Arial" font-size="12" lengthAdjust="spacing" textLength="10" x="271.5" y="2296.8311">1.</text><text fill="#000000" font-family="Arial" font-size="12" font-weight="bold" lengthAdjust="spacing" textLength="132" x="284.5" y="2296.8311">AI/ML Detection Source</text><text fill="#000000" font-family="Arial" font-size="12" lengthAdjust="spacing" textLength="23" x="419.5" y="2296.8311">&#226;&#173;&#65533;:</text><text fill="#000000" font-family="Arial" font-size="12" lengthAdjust="spacing" textLength="150" x="280.5" y="2310.6299">- Automated robot detection</text><text fill="#000000" font-family="Arial" font-size="12" lengthAdjust="spacing" textLength="125" x="280.5" y="2324.4287">- ML model predictions</text><text fill="#000000" font-family="Arial" font-size="12" lengthAdjust="spacing" textLength="138" x="280.5" y="2338.2275">- Pattern-based detection</text><text fill="#000000" font-family="Arial" font-size="12" lengthAdjust="spacing" textLength="133" x="280.5" y="2352.0264">- Continuous monitoring</text><text fill="#000000" font-family="Arial" font-size="12" lengthAdjust="spacing" textLength="3" x="271.5" y="2365.8252">&#160;</text><text fill="#000000" font-family="Arial" font-size="12" lengthAdjust="spacing" textLength="10" x="271.5" y="2379.624">2.</text><text fill="#000000" font-family="Arial" font-size="12" font-weight="bold" lengthAdjust="spacing" textLength="114" x="284.5" y="2379.624">ID-Based Pagination</text><text fill="#000000" font-family="Arial" font-size="12" lengthAdjust="spacing" textLength="3" x="398.5" y="2379.624">:</text><text fill="#000000" font-family="Arial" font-size="12" lengthAdjust="spacing" textLength="137" x="280.5" y="2393.4229">- Uses RobotDetectionID</text><text fill="#000000" font-family="Arial" font-size="12" lengthAdjust="spacing" textLength="137" x="280.5" y="2407.2217">- Incremental processing</text><text fill="#000000" font-family="Arial" font-size="12" lengthAdjust="spacing" textLength="213" x="280.5" y="2421.0205">- WHERE RobotDetectionID &gt; @LastID</text><text fill="#000000" font-family="Arial" font-size="12" lengthAdjust="spacing" textLength="163" x="280.5" y="2434.8193">- System parameter persisted</text><text fill="#000000" font-family="Arial" font-size="12" lengthAdjust="spacing" textLength="3" x="271.5" y="2448.6182">&#160;</text><text fill="#000000" font-family="Arial" font-size="12" lengthAdjust="spacing" textLength="10" x="271.5" y="2462.417">3.</text><text fill="#000000" font-family="Arial" font-size="12" font-weight="bold" lengthAdjust="spacing" textLength="68" x="284.5" y="2462.417">Simple Flow</text><text fill="#000000" font-family="Arial" font-size="12" lengthAdjust="spacing" textLength="52" x="355.5" y="2462.417">(no loop):</text><text fill="#000000" font-family="Arial" font-size="12" lengthAdjust="spacing" textLength="124" x="280.5" y="2476.2158">- Get robots (one-time)</text><text fill="#000000" font-family="Arial" font-size="12" lengthAdjust="spacing" textLength="129" x="280.5" y="2490.0146">- Process all in batches</text><text fill="#000000" font-family="Arial" font-size="12" lengthAdjust="spacing" textLength="107" x="280.5" y="2503.8135">- Update parameter</text><text fill="#000000" font-family="Arial" font-size="12" lengthAdjust="spacing" textLength="61" x="280.5" y="2517.6123">- Complete</text><text fill="#000000" font-family="Arial" font-size="12" lengthAdjust="spacing" textLength="3" x="271.5" y="2531.4111">&#160;</text><text fill="#000000" font-family="Arial" font-size="12" lengthAdjust="spacing" textLength="10" x="271.5" y="2545.21">4.</text><text fill="#000000" font-family="Arial" font-size="12" font-weight="bold" lengthAdjust="spacing" textLength="185" x="284.5" y="2545.21">Batch Processing with Throttling</text><text fill="#000000" font-family="Arial" font-size="12" lengthAdjust="spacing" textLength="3" x="469.5" y="2545.21">:</text><text fill="#000000" font-family="Arial" font-size="12" lengthAdjust="spacing" textLength="125" x="280.5" y="2559.0088">- Chunk by internalSize</text><text fill="#000000" font-family="Arial" font-size="12" lengthAdjust="spacing" textLength="155" x="280.5" y="2572.8076">- Sleep between chunks &#226;&#173;&#65533;</text><text fill="#000000" font-family="Arial" font-size="12" lengthAdjust="spacing" textLength="105" x="280.5" y="2586.6064">- Prevents overload</text><text fill="#000000" font-family="Arial" font-size="12" lengthAdjust="spacing" textLength="115" x="280.5" y="2600.4053">- Smooth processing</text><text fill="#000000" font-family="Arial" font-size="12" lengthAdjust="spacing" textLength="3" x="271.5" y="2614.2041">&#160;</text><text fill="#000000" font-family="Arial" font-size="12" lengthAdjust="spacing" textLength="10" x="271.5" y="2628.0029">5.</text><text fill="#000000" font-family="Arial" font-size="12" font-weight="bold" lengthAdjust="spacing" textLength="79" x="284.5" y="2628.0029">External Push</text><text fill="#000000" font-family="Arial" font-size="12" lengthAdjust="spacing" textLength="3" x="363.5" y="2628.0029">:</text><text fill="#000000" font-family="Arial" font-size="12" lengthAdjust="spacing" textLength="188" x="280.5" y="2641.8018">- Push to MainDB after each chunk</text><text fill="#000000" font-family="Arial" font-size="12" lengthAdjust="spacing" textLength="187" x="280.5" y="2655.6006">- Makes robot classification visible</text><text fill="#000000" font-family="Arial" font-size="12" lengthAdjust="spacing" textLength="132" x="280.5" y="2669.3994">- No AFC sync for robots</text><text fill="#000000" font-family="Arial" font-size="12" lengthAdjust="spacing" textLength="3" x="271.5" y="2683.1982">&#160;</text><text fill="#000000" font-family="Arial" font-size="12" lengthAdjust="spacing" textLength="10" x="271.5" y="2696.9971">6.</text><text fill="#000000" font-family="Arial" font-size="12" font-weight="bold" lengthAdjust="spacing" textLength="64" x="284.5" y="2696.9971">Inheritance</text><text fill="#000000" font-family="Arial" font-size="12" lengthAdjust="spacing" textLength="3" x="348.5" y="2696.9971">:</text><text fill="#000000" font-family="Arial" font-size="12" lengthAdjust="spacing" textLength="191" x="280.5" y="2710.7959">- Extends ProblemAccountServices</text><text fill="#000000" font-family="Arial" font-size="12" lengthAdjust="spacing" textLength="268" x="280.5" y="2724.5947">- Reuses InsertProblemAccountPackage method</text><text fill="#000000" font-family="Arial" font-size="12" lengthAdjust="spacing" textLength="167" x="280.5" y="2738.3936">- Consistent robot PA insertion</text><text fill="#000000" font-family="Arial" font-size="12" lengthAdjust="spacing" textLength="3" x="271.5" y="2752.1924">&#160;</text><text fill="#000000" font-family="Arial" font-size="12" font-weight="bold" lengthAdjust="spacing" textLength="104" x="271.5" y="2765.9912">AI Robot Detection</text><text fill="#000000" font-family="Arial" font-size="12" lengthAdjust="spacing" textLength="3" x="375.5" y="2765.9912">:</text><text fill="#000000" font-family="Arial" font-size="12" lengthAdjust="spacing" textLength="180" x="271.5" y="2779.79">- Source: AI/ML Detection System</text><text fill="#000000" font-family="Arial" font-size="12" lengthAdjust="spacing" textLength="171" x="271.5" y="2793.5889">- Automated pattern recognition</text><text fill="#000000" font-family="Arial" font-size="12" lengthAdjust="spacing" textLength="187" x="271.5" y="2807.3877">- High accuracy robot identification</text><text fill="#000000" font-family="Arial" font-size="12" lengthAdjust="spacing" textLength="139" x="271.5" y="2821.1865">- Machine learning based</text><rect fill="#F1F1F1" height="33.7988" rx="12.5" ry="12.5" style="stroke:#181818;stroke-width:0.5;" width="74" x="181.5" y="2481.1602"/><text fill="#000000" font-family="Arial" font-size="12" lengthAdjust="spacing" textLength="54" x="191.5" y="2502.6123">Complete</text><ellipse cx="218.5" cy="2869.5332" fill="none" rx="11" ry="11" style="stroke:#222222;stroke-width:1.0;"/><ellipse cx="218.5" cy="2869.5332" fill="#222222" rx="6" ry="6" style="stroke:#222222;stroke-width:1.0;"/><line style="stroke:#000000;stroke-width:1.5;" x1="15" x2="15" y1="50.3984" y2="2880.5332"/><path d="M984.5,440.5879 L984.5,448.4873 L964.5,452.4873 L984.5,456.4873 L984.5,464.3867 A0,0 0 0 0 984.5,464.3867 L1158.5,464.3867 A0,0 0 0 0 1158.5,464.3867 L1158.5,450.5879 L1148.5,440.5879 L984.5,440.5879 A0,0 0 0 0 984.5,440.5879 " fill="#FEFFDD" style="stroke:#181818;stroke-width:0.5;"/><path d="M1148.5,440.5879 L1148.5,450.5879 L1158.5,450.5879 L1148.5,440.5879 " fill="#FEFFDD" style="stroke:#181818;stroke-width:0.5;"/><text fill="#000000" font-family="Arial" font-size="12" lengthAdjust="spacing" textLength="153" x="990.5" y="457.04">Initialize robotDetections list</text><rect fill="#F1F1F1" height="33.7988" rx="12.5" ry="12.5" style="stroke:#181818;stroke-width:0.5;" width="53" x="911.5" y="435.5879"/><text fill="#000000" font-family="Arial" font-size="12" lengthAdjust="spacing" textLength="33" x="921.5" y="457.04">Start()</text><path d="M1091.5,479.3867 L1091.5,666.6709 L1071.5,670.6709 L1091.5,674.6709 L1091.5,861.9551 A0,0 0 0 0 1091.5,861.9551 L1346.5,861.9551 A0,0 0 0 0 1346.5,861.9551 L1346.5,489.3867 L1336.5,479.3867 L1091.5,479.3867 A0,0 0 0 0 1091.5,479.3867 " fill="#FEFFDD" style="stroke:#181818;stroke-width:0.5;"/><path d="M1336.5,479.3867 L1336.5,489.3867 L1346.5,489.3867 L1336.5,479.3867 " fill="#FEFFDD" style="stroke:#181818;stroke-width:0.5;"/><text fill="#000000" font-family="Arial" font-size="12" font-weight="bold" lengthAdjust="spacing" textLength="131" x="1097.5" y="495.8389">Get AI-Detected Robots</text><text fill="#000000" font-family="Arial" font-size="12" lengthAdjust="spacing" textLength="3" x="1228.5" y="495.8389">:</text><text fill="#000000" font-family="Arial" font-size="12" lengthAdjust="spacing" textLength="3" x="1097.5" y="509.6377">&#160;</text><text fill="#000000" font-family="Arial" font-size="12" lengthAdjust="spacing" textLength="151" x="1097.5" y="523.4365">1. Read System Parameter:</text><text fill="#000000" font-family="Arial" font-size="12" lengthAdjust="spacing" textLength="161" x="1106.5" y="537.2354">- Key: RobotDetection_LastID</text><text fill="#000000" font-family="Arial" font-size="12" lengthAdjust="spacing" textLength="211" x="1106.5" y="551.0342">- Get last processed RobotDetectionID</text><text fill="#000000" font-family="Arial" font-size="12" lengthAdjust="spacing" textLength="3" x="1097.5" y="564.833">&#160;</text><text fill="#000000" font-family="Arial" font-size="12" lengthAdjust="spacing" textLength="170" x="1097.5" y="578.6318">2. Query RobotDetection Table:</text><text fill="#000000" font-family="Arial" font-size="12" lengthAdjust="spacing" textLength="129" x="1106.5" y="592.4307">- FROM RobotDetection</text><text fill="#000000" font-family="Arial" font-size="12" lengthAdjust="spacing" textLength="213" x="1106.5" y="606.2295">- WHERE RobotDetectionID &gt; @LastID</text><text fill="#000000" font-family="Arial" font-size="12" lengthAdjust="spacing" textLength="169" x="1106.5" y="620.0283">- ORDER BY RobotDetectionID</text><text fill="#000000" font-family="Arial" font-size="12" lengthAdjust="spacing" textLength="102" x="1106.5" y="633.8271">- LIMIT (batch size)</text><text fill="#000000" font-family="Arial" font-size="12" lengthAdjust="spacing" textLength="3" x="1097.5" y="647.626">&#160;</text><text fill="#000000" font-family="Arial" font-size="12" font-weight="bold" lengthAdjust="spacing" textLength="41" x="1097.5" y="661.4248">Source</text><text fill="#000000" font-family="Arial" font-size="12" lengthAdjust="spacing" textLength="193" x="1138.5" y="661.4248">: AI/ML Robot Detection System &#226;&#173;&#65533;</text><text fill="#000000" font-family="Arial" font-size="12" lengthAdjust="spacing" textLength="3" x="1097.5" y="675.2236">&#160;</text><text fill="#000000" font-family="Arial" font-size="12" font-weight="bold" lengthAdjust="spacing" textLength="45" x="1097.5" y="689.0225">Returns</text><text fill="#000000" font-family="Arial" font-size="12" lengthAdjust="spacing" textLength="84" x="1142.5" y="689.0225">: RobotAIEntity[]</text><text fill="#000000" font-family="Arial" font-size="12" lengthAdjust="spacing" textLength="190" x="1097.5" y="702.8213">- RobotDetectionID (for pagination)</text><text fill="#000000" font-family="Arial" font-size="12" lengthAdjust="spacing" textLength="45" x="1097.5" y="716.6201">- CustID</text><text fill="#000000" font-family="Arial" font-size="12" lengthAdjust="spacing" textLength="161" x="1097.5" y="730.4189">- CategoryID (Robot category)</text><text fill="#000000" font-family="Arial" font-size="12" lengthAdjust="spacing" textLength="103" x="1097.5" y="744.2178">- LastModifiedDate</text><text fill="#000000" font-family="Arial" font-size="12" lengthAdjust="spacing" textLength="3" x="1097.5" y="758.0166">&#160;</text><text fill="#000000" font-family="Arial" font-size="12" font-weight="bold" lengthAdjust="spacing" textLength="113" x="1097.5" y="771.8154">AI Detection Criteria</text><text fill="#000000" font-family="Arial" font-size="12" lengthAdjust="spacing" textLength="3" x="1210.5" y="771.8154">:</text><text fill="#000000" font-family="Arial" font-size="12" lengthAdjust="spacing" textLength="154" x="1097.5" y="785.6143">- Automated betting patterns</text><text fill="#000000" font-family="Arial" font-size="12" lengthAdjust="spacing" textLength="130" x="1097.5" y="799.4131">- High-frequency betting</text><text fill="#000000" font-family="Arial" font-size="12" lengthAdjust="spacing" textLength="143" x="1097.5" y="813.2119">- Consistent time intervals</text><text fill="#000000" font-family="Arial" font-size="12" lengthAdjust="spacing" textLength="126" x="1097.5" y="827.0107">- Machine-like behavior</text><text fill="#000000" font-family="Arial" font-size="12" lengthAdjust="spacing" textLength="104" x="1097.5" y="840.8096">- API-based betting</text><text fill="#000000" font-family="Arial" font-size="12" lengthAdjust="spacing" textLength="118" x="1097.5" y="854.6084">- ML model prediction</text><rect fill="#F1F1F1" height="33.7988" rx="12.5" ry="12.5" style="stroke:#181818;stroke-width:0.5;" width="267" x="804.5" y="653.7715"/><text fill="#000000" font-family="Arial" font-size="12" lengthAdjust="spacing" textLength="247" x="814.5" y="675.2236">GetRobotDetections(RobotDetection_LastID)</text><path d="M702.5,871.9551 L702.5,923.3516 L865.5,923.3516 L865.5,881.9551 L855.5,871.9551 L702.5,871.9551 " fill="#FEFFDD" style="stroke:#181818;stroke-width:0.5;"/><path d="M855.5,871.9551 L855.5,881.9551 L865.5,881.9551 L855.5,871.9551 " fill="#FEFFDD" style="stroke:#181818;stroke-width:0.5;"/><text fill="#000000" font-family="Arial" font-size="12" font-weight="bold" lengthAdjust="spacing" textLength="125" x="708.5" y="888.4072">No AI robot detections</text><text fill="#000000" font-family="Arial" font-size="12" lengthAdjust="spacing" textLength="3" x="833.5" y="888.4072">:</text><text fill="#000000" font-family="Arial" font-size="12" lengthAdjust="spacing" textLength="113" x="708.5" y="902.2061">All robots processed</text><text fill="#000000" font-family="Arial" font-size="12" lengthAdjust="spacing" textLength="142" x="708.5" y="916.0049">or no new robots detected</text><path d="M1042,972.251 L1042,987.0498 L1022,991.0498 L1042,995.0498 L1042,1009.8486 A0,0 0 0 0 1042,1009.8486 L1239,1009.8486 A0,0 0 0 0 1239,1009.8486 L1239,982.251 L1229,972.251 L1042,972.251 A0,0 0 0 0 1042,972.251 " fill="#FEFFDD" style="stroke:#181818;stroke-width:0.5;"/><path d="M1229,972.251 L1229,982.251 L1239,982.251 L1229,972.251 " fill="#FEFFDD" style="stroke:#181818;stroke-width:0.5;"/><text fill="#000000" font-family="Arial" font-size="12" lengthAdjust="spacing" textLength="176" x="1048" y="988.7031">Split into batches for processing</text><text fill="#000000" font-family="Arial" font-size="12" lengthAdjust="spacing" textLength="156" x="1048" y="1002.502">Batch size: batchInternalSize</text><rect fill="#F1F1F1" height="33.7988" rx="12.5" ry="12.5" style="stroke:#181818;stroke-width:0.5;" width="168" x="854" y="974.1504"/><text fill="#000000" font-family="Arial" font-size="12" lengthAdjust="spacing" textLength="148" x="864" y="995.6025">Chunk by batchInternalSize</text><rect fill="#F1F1F1" height="33.7988" rx="12.5" ry="12.5" style="stroke:#181818;stroke-width:0.5;" width="133" x="871.5" y="1073.8486"/><text fill="#000000" font-family="Arial" font-size="12" lengthAdjust="spacing" textLength="113" x="881.5" y="1095.3008">Process robot chunk</text><path d="M1079.5,1117.6475 L1079.5,1222.1387 L1059.5,1226.1387 L1079.5,1230.1387 L1079.5,1334.6299 A0,0 0 0 0 1079.5,1334.6299 L1360.5,1334.6299 A0,0 0 0 0 1360.5,1334.6299 L1360.5,1127.6475 L1350.5,1117.6475 L1079.5,1117.6475 A0,0 0 0 0 1079.5,1117.6475 " fill="#FEFFDD" style="stroke:#181818;stroke-width:0.5;"/><path d="M1350.5,1117.6475 L1350.5,1127.6475 L1360.5,1127.6475 L1350.5,1117.6475 " fill="#FEFFDD" style="stroke:#181818;stroke-width:0.5;"/><text fill="#000000" font-family="Arial" font-size="12" font-weight="bold" lengthAdjust="spacing" textLength="257" x="1085.5" y="1134.0996">RobotAIEntity &#226;&#8224;&#8217; InsertProblemAccountEntity</text><text fill="#000000" font-family="Arial" font-size="12" lengthAdjust="spacing" textLength="3" x="1342.5" y="1134.0996">:</text><text fill="#000000" font-family="Arial" font-size="12" lengthAdjust="spacing" textLength="3" x="1085.5" y="1147.8984">&#160;</text><text fill="#000000" font-family="Arial" font-size="12" lengthAdjust="spacing" textLength="95" x="1085.5" y="1161.6973">For each AI robot:</text><text fill="#000000" font-family="Arial" font-size="12" lengthAdjust="spacing" textLength="251" x="1085.5" y="1175.4961">new InsertProblemAccountEntity(robotAIEntity)</text><text fill="#000000" font-family="Arial" font-size="12" lengthAdjust="spacing" textLength="4" x="1085.5" y="1189.2949">{</text><text fill="#000000" font-family="Arial" font-size="12" lengthAdjust="spacing" textLength="116" x="1091.5" y="1203.0938">CustID: robot.CustID,</text><text fill="#000000" font-family="Arial" font-size="12" lengthAdjust="spacing" textLength="162" x="1091.5" y="1216.8926">CategoryID: robot.CategoryID,</text><text fill="#000000" font-family="Arial" font-size="12" lengthAdjust="spacing" textLength="174" x="1091.5" y="1230.6914">CategoryGroupID: Robot Group,</text><text fill="#000000" font-family="Arial" font-size="12" lengthAdjust="spacing" textLength="128" x="1091.5" y="1244.4902">// ... robot-specific fields</text><text fill="#000000" font-family="Arial" font-size="12" lengthAdjust="spacing" textLength="4" x="1085.5" y="1258.2891">}</text><text fill="#000000" font-family="Arial" font-size="12" lengthAdjust="spacing" textLength="3" x="1085.5" y="1272.0879">&#160;</text><text fill="#000000" font-family="Arial" font-size="12" font-weight="bold" lengthAdjust="spacing" textLength="113" x="1085.5" y="1285.8867">Robot Classification</text><text fill="#000000" font-family="Arial" font-size="12" lengthAdjust="spacing" textLength="3" x="1198.5" y="1285.8867">:</text><text fill="#000000" font-family="Arial" font-size="12" lengthAdjust="spacing" textLength="95" x="1085.5" y="1299.6855">- Category: Robot</text><text fill="#000000" font-family="Arial" font-size="12" lengthAdjust="spacing" textLength="119" x="1085.5" y="1313.4844">- Automated detection</text><text fill="#000000" font-family="Arial" font-size="12" lengthAdjust="spacing" textLength="78" x="1085.5" y="1327.2832">- AI/ML verified</text><rect fill="#F1F1F1" height="33.7988" rx="12.5" ry="12.5" style="stroke:#181818;stroke-width:0.5;" width="243" x="816.5" y="1209.2393"/><text fill="#000000" font-family="Arial" font-size="12" lengthAdjust="spacing" textLength="223" x="826.5" y="1230.6914">Transform to InsertProblemAccountEntity</text><path d="M1056.5,1344.6299 L1056.5,1400.8252 L1036.5,1404.8252 L1056.5,1408.8252 L1056.5,1465.0205 A0,0 0 0 0 1056.5,1465.0205 L1340.5,1465.0205 A0,0 0 0 0 1340.5,1465.0205 L1340.5,1354.6299 L1330.5,1344.6299 L1056.5,1344.6299 A0,0 0 0 0 1056.5,1344.6299 " fill="#FEFFDD" style="stroke:#181818;stroke-width:0.5;"/><path d="M1330.5,1344.6299 L1330.5,1354.6299 L1340.5,1354.6299 L1330.5,1344.6299 " fill="#FEFFDD" style="stroke:#181818;stroke-width:0.5;"/><text fill="#000000" font-family="Arial" font-size="12" font-weight="bold" lengthAdjust="spacing" textLength="168" x="1062.5" y="1361.082">Insert Robot PA Classification</text><text fill="#000000" font-family="Arial" font-size="12" lengthAdjust="spacing" textLength="3" x="1230.5" y="1361.082">:</text><text fill="#000000" font-family="Arial" font-size="12" lengthAdjust="spacing" textLength="150" x="1062.5" y="1374.8809">- FunctionId: RobotUserJob</text><text fill="#000000" font-family="Arial" font-size="12" lengthAdjust="spacing" textLength="179" x="1062.5" y="1388.6797">- CCInputFlow: InsertPACategory</text><text fill="#000000" font-family="Arial" font-size="12" lengthAdjust="spacing" textLength="218" x="1062.5" y="1402.4785">- Insert into CTSCustomerClassification</text><text fill="#000000" font-family="Arial" font-size="12" lengthAdjust="spacing" textLength="121" x="1062.5" y="1416.2773">- Apply Robot PA rules</text><text fill="#000000" font-family="Arial" font-size="12" lengthAdjust="spacing" textLength="150" x="1062.5" y="1430.0762">- Returns: Inserted CustIDs</text><text fill="#000000" font-family="Arial" font-size="12" lengthAdjust="spacing" textLength="3" x="1062.5" y="1443.875">&#160;</text><text fill="#000000" font-family="Arial" font-size="12" font-weight="bold" lengthAdjust="spacing" textLength="95" x="1062.5" y="1457.6738">Inherited Method</text><text fill="#000000" font-family="Arial" font-size="12" lengthAdjust="spacing" textLength="165" x="1160.5" y="1457.6738">from ProblemAccountServices</text><rect fill="#F1F1F1" height="33.7988" rx="12.5" ry="12.5" style="stroke:#181818;stroke-width:0.5;" width="197" x="839.5" y="1387.9258"/><text fill="#000000" font-family="Arial" font-size="12" lengthAdjust="spacing" textLength="177" x="849.5" y="1409.3779">InsertProblemAccountPackage()</text><path d="M1057,1479.3164 L1057,1535.5117 L1037,1539.5117 L1057,1543.5117 L1057,1599.707 A0,0 0 0 0 1057,1599.707 L1344,1599.707 A0,0 0 0 0 1344,1599.707 L1344,1489.3164 L1334,1479.3164 L1057,1479.3164 A0,0 0 0 0 1057,1479.3164 " fill="#FEFFDD" style="stroke:#181818;stroke-width:0.5;"/><path d="M1334,1479.3164 L1334,1489.3164 L1344,1489.3164 L1334,1479.3164 " fill="#FEFFDD" style="stroke:#181818;stroke-width:0.5;"/><text fill="#000000" font-family="Arial" font-size="12" font-weight="bold" lengthAdjust="spacing" textLength="89" x="1063" y="1495.7686">Push to MainDB</text><text fill="#000000" font-family="Arial" font-size="12" lengthAdjust="spacing" textLength="55" x="1155" y="1495.7686">(External):</text><text fill="#000000" font-family="Arial" font-size="12" lengthAdjust="spacing" textLength="133" x="1063" y="1509.5674">- Input: Inserted CustIDs</text><text fill="#000000" font-family="Arial" font-size="12" lengthAdjust="spacing" textLength="142" x="1063" y="1523.3662">- Parameters: pushConfig</text><text fill="#000000" font-family="Arial" font-size="12" lengthAdjust="spacing" textLength="119" x="1069" y="1537.165">* RoleGroup: Member</text><text fill="#000000" font-family="Arial" font-size="12" lengthAdjust="spacing" textLength="183" x="1069" y="1550.9639">* IsUpdateDangerToMainDB: true</text><text fill="#000000" font-family="Arial" font-size="12" lengthAdjust="spacing" textLength="260" x="1069" y="1564.7627">* IsSyncAFCData: false (no AFC sync for robots)</text><text fill="#000000" font-family="Arial" font-size="12" lengthAdjust="spacing" textLength="187" x="1063" y="1578.5615">- Makes robot classification visible</text><text fill="#000000" font-family="Arial" font-size="12" lengthAdjust="spacing" textLength="139" x="1063" y="1592.3604">- Batch push for efficiency</text><rect fill="#F1F1F1" height="33.7988" rx="12.5" ry="12.5" style="stroke:#181818;stroke-width:0.5;" width="198" x="839" y="1522.6123"/><text fill="#000000" font-family="Arial" font-size="12" lengthAdjust="spacing" textLength="178" x="849" y="1544.0645">PushExternalPackageByCustId()</text><rect fill="#F1F1F1" height="33.7988" rx="12.5" ry="12.5" style="stroke:#181818;stroke-width:0.5;" width="87" x="894.5" y="1668.6064"/><text fill="#000000" font-family="Arial" font-size="12" lengthAdjust="spacing" textLength="67" x="904.5" y="1690.0586">Return false</text><ellipse cx="938" cy="1742.0059" fill="none" rx="11" ry="11" style="stroke:#222222;stroke-width:1.0;"/><ellipse cx="938" cy="1742.0059" fill="#222222" rx="6" ry="6" style="stroke:#222222;stroke-width:1.0;"/><polygon fill="#F1F1F1" points="903.5,1619.707,972.5,1619.707,984.5,1631.707,972.5,1643.707,903.5,1643.707,891.5,1631.707,903.5,1619.707" style="stroke:#181818;stroke-width:0.5;"/><text fill="#000000" font-family="Arial" font-size="12" lengthAdjust="spacing" textLength="19" x="942" y="1655.1592">yes</text><text fill="#000000" font-family="Arial" font-size="12" lengthAdjust="spacing" textLength="69" x="903.5" y="1636.2598">Push failed?</text><path d="M1079.5,1785.0059 L1079.5,1834.3018 L1059.5,1838.3018 L1079.5,1842.3018 L1079.5,1891.5977 A0,0 0 0 0 1079.5,1891.5977 L1394.5,1891.5977 A0,0 0 0 0 1394.5,1891.5977 L1394.5,1795.0059 L1384.5,1785.0059 L1079.5,1785.0059 A0,0 0 0 0 1079.5,1785.0059 " fill="#FEFFDD" style="stroke:#181818;stroke-width:0.5;"/><path d="M1384.5,1785.0059 L1384.5,1795.0059 L1394.5,1795.0059 L1384.5,1785.0059 " fill="#FEFFDD" style="stroke:#181818;stroke-width:0.5;"/><text fill="#000000" font-family="Arial" font-size="12" font-weight="bold" lengthAdjust="spacing" textLength="54" x="1085.5" y="1801.458">Throttling</text><text fill="#000000" font-family="Arial" font-size="12" lengthAdjust="spacing" textLength="23" x="1142.5" y="1801.458">&#226;&#173;&#65533;:</text><text fill="#000000" font-family="Arial" font-size="12" lengthAdjust="spacing" textLength="132" x="1085.5" y="1815.2568">- Sleep between chunks</text><text fill="#000000" font-family="Arial" font-size="12" lengthAdjust="spacing" textLength="160" x="1085.5" y="1829.0557">- Prevents database overload</text><text fill="#000000" font-family="Arial" font-size="12" lengthAdjust="spacing" textLength="126" x="1085.5" y="1842.8545">- Prevents API overload</text><text fill="#000000" font-family="Arial" font-size="12" lengthAdjust="spacing" textLength="115" x="1085.5" y="1856.6533">- Smooth processing</text><text fill="#000000" font-family="Arial" font-size="12" lengthAdjust="spacing" textLength="3" x="1085.5" y="1870.4521">&#160;</text><text fill="#000000" font-family="Arial" font-size="12" lengthAdjust="spacing" textLength="294" x="1085.5" y="1884.251">RobotUsers_SleepTimes: Configurable (e.g., 100ms)</text><rect fill="#F1F1F1" height="33.7988" rx="12.5" ry="12.5" style="stroke:#181818;stroke-width:0.5;" width="243" x="816.5" y="1821.4023"/><text fill="#000000" font-family="Arial" font-size="12" lengthAdjust="spacing" textLength="223" x="826.5" y="1842.8545">Thread.Sleep(RobotUsers_SleepTimes)</text><polygon fill="#F1F1F1" points="938,1029.8486,950,1041.8486,938,1053.8486,926,1041.8486,938,1029.8486" style="stroke:#181818;stroke-width:0.5;"/><polygon fill="#F1F1F1" points="899.5,1911.5977,976.5,1911.5977,988.5,1923.5977,976.5,1935.5977,899.5,1935.5977,887.5,1923.5977,899.5,1911.5977" style="stroke:#181818;stroke-width:0.5;"/><text fill="#000000" font-family="Arial" font-size="12" lengthAdjust="spacing" textLength="77" x="899.5" y="1928.1504">More chunks?</text><text fill="#000000" font-family="Arial" font-size="12" lengthAdjust="spacing" textLength="19" x="988.5" y="1921.251">yes</text><polygon fill="#F1F1F1" points="877.5,923.3516,998.5,923.3516,1010.5,935.3516,998.5,947.3516,877.5,947.3516,865.5,935.3516,877.5,923.3516" style="stroke:#181818;stroke-width:0.5;"/><text fill="#000000" font-family="Arial" font-size="12" lengthAdjust="spacing" textLength="19" x="942" y="958.8037">yes</text><text fill="#000000" font-family="Arial" font-size="12" lengthAdjust="spacing" textLength="121" x="877.5" y="939.9043">Has robot detections?</text><text fill="#000000" font-family="Arial" font-size="12" lengthAdjust="spacing" textLength="14" x="851.5" y="933.0049">no</text><polygon fill="#F1F1F1" points="938,2123.5859,950,2135.5859,938,2147.5859,926,2135.5859,938,2123.5859" style="stroke:#181818;stroke-width:0.5;"/><line style="stroke:#000000;stroke-width:1.5;" x1="697.5" x2="697.5" y1="50.3984" y2="2880.5332"/><path d="M1430.5,871.9551 L1430.5,923.3516 L1593.5,923.3516 L1593.5,881.9551 L1583.5,871.9551 L1430.5,871.9551 " fill="#FEFFDD" style="stroke:#181818;stroke-width:0.5;"/><path d="M1583.5,871.9551 L1583.5,881.9551 L1593.5,881.9551 L1583.5,871.9551 " fill="#FEFFDD" style="stroke:#181818;stroke-width:0.5;"/><text fill="#000000" font-family="Arial" font-size="12" font-weight="bold" lengthAdjust="spacing" textLength="125" x="1436.5" y="888.4072">No AI robot detections</text><text fill="#000000" font-family="Arial" font-size="12" lengthAdjust="spacing" textLength="3" x="1561.5" y="888.4072">:</text><text fill="#000000" font-family="Arial" font-size="12" lengthAdjust="spacing" textLength="113" x="1436.5" y="902.2061">All robots processed</text><text fill="#000000" font-family="Arial" font-size="12" lengthAdjust="spacing" textLength="142" x="1436.5" y="916.0049">or no new robots detected</text><path d="M1825.5,1969.3965 L1825.5,2032.4912 L1805.5,2036.4912 L1825.5,2040.4912 L1825.5,2103.5859 A0,0 0 0 0 1825.5,2103.5859 L2146.5,2103.5859 A0,0 0 0 0 2146.5,2103.5859 L2146.5,1979.3965 L2136.5,1969.3965 L1825.5,1969.3965 A0,0 0 0 0 1825.5,1969.3965 " fill="#FEFFDD" style="stroke:#181818;stroke-width:0.5;"/><path d="M2136.5,1969.3965 L2136.5,1979.3965 L2146.5,1979.3965 L2136.5,1969.3965 " fill="#FEFFDD" style="stroke:#181818;stroke-width:0.5;"/><text fill="#000000" font-family="Arial" font-size="12" font-weight="bold" lengthAdjust="spacing" textLength="150" x="1831.5" y="1985.8486">Update System Parameter</text><text fill="#000000" font-family="Arial" font-size="12" lengthAdjust="spacing" textLength="3" x="1981.5" y="1985.8486">:</text><text fill="#000000" font-family="Arial" font-size="12" lengthAdjust="spacing" textLength="161" x="1831.5" y="1999.6475">- Key: RobotDetection_LastID</text><text fill="#000000" font-family="Arial" font-size="12" lengthAdjust="spacing" textLength="300" x="1831.5" y="2013.4463">- Value: MAX(RobotDetectionID) from processed robots</text><text fill="#000000" font-family="Arial" font-size="12" lengthAdjust="spacing" textLength="3" x="1831.5" y="2027.2451">&#160;</text><text fill="#000000" font-family="Arial" font-size="12" font-weight="bold" lengthAdjust="spacing" textLength="45" x="1831.5" y="2041.0439">Enables</text><text fill="#000000" font-family="Arial" font-size="12" lengthAdjust="spacing" textLength="3" x="1876.5" y="2041.0439">:</text><text fill="#000000" font-family="Arial" font-size="12" lengthAdjust="spacing" textLength="214" x="1831.5" y="2054.8428">- Next run starts from last processed ID</text><text fill="#000000" font-family="Arial" font-size="12" lengthAdjust="spacing" textLength="133" x="1831.5" y="2068.6416">- Incremental pagination</text><text fill="#000000" font-family="Arial" font-size="12" lengthAdjust="spacing" textLength="103" x="1831.5" y="2082.4404">- No re-processing</text><text fill="#000000" font-family="Arial" font-size="12" lengthAdjust="spacing" textLength="137" x="1831.5" y="2096.2393">- Resumable processing</text><rect fill="#F1F1F1" height="33.7988" rx="12.5" ry="12.5" style="stroke:#181818;stroke-width:0.5;" width="279" x="1526.5" y="2019.5918"/><text fill="#000000" font-family="Arial" font-size="12" lengthAdjust="spacing" textLength="259" x="1536.5" y="2041.0439">UpdateLastScannedId(RobotDetection_LastID)</text><line style="stroke:#000000;stroke-width:1.5;" x1="1425.5" x2="1425.5" y1="50.3984" y2="2880.5332"/><line style="stroke:#000000;stroke-width:1.5;" x1="2151.5" x2="2151.5" y1="50.3984" y2="2880.5332"/><line style="stroke:#181818;stroke-width:1.0;" x1="218.5" x2="218.5" y1="89.1973" y2="121.7949"/><polygon fill="#181818" points="214.5,111.7949,218.5,121.7949,222.5,111.7949,218.5,115.7949" style="stroke:#181818;stroke-width:1.0;"/><line style="stroke:#181818;stroke-width:1.0;" x1="218.5" x2="218.5" y1="155.5938" y2="198.1914"/><polygon fill="#181818" points="214.5,188.1914,218.5,198.1914,222.5,188.1914,218.5,192.1914" style="stroke:#181818;stroke-width:1.0;"/><line style="stroke:#181818;stroke-width:1.0;" x1="218.5" x2="218.5" y1="231.9902" y2="251.9902"/><polygon fill="#181818" points="214.5,241.9902,218.5,251.9902,222.5,241.9902,218.5,245.9902" style="stroke:#181818;stroke-width:1.0;"/><line style="stroke:#181818;stroke-width:1.0;" x1="316.75" x2="316.75" y1="373.5879" y2="393.5879"/><polygon fill="#181818" points="312.75,383.5879,316.75,393.5879,320.75,383.5879,316.75,387.5879" style="stroke:#181818;stroke-width:1.0;"/><line style="stroke:#181818;stroke-width:1.0;" x1="189.5" x2="120.25" y1="317.7891" y2="317.7891"/><line style="stroke:#181818;stroke-width:1.0;" x1="120.25" x2="120.25" y1="317.7891" y2="339.7891"/><polygon fill="#181818" points="116.25,329.7891,120.25,339.7891,124.25,329.7891,120.25,333.7891" style="stroke:#181818;stroke-width:1.0;"/><line style="stroke:#181818;stroke-width:1.0;" x1="247.5" x2="316.75" y1="317.7891" y2="317.7891"/><line style="stroke:#181818;stroke-width:1.0;" x1="316.75" x2="316.75" y1="317.7891" y2="339.7891"/><polygon fill="#181818" points="312.75,329.7891,316.75,339.7891,320.75,329.7891,316.75,333.7891" style="stroke:#181818;stroke-width:1.0;"/><line style="stroke:#181818;stroke-width:1.0;" x1="120.25" x2="120.25" y1="373.5879" y2="420.5879"/><line style="stroke:#181818;stroke-width:1.0;" x1="120.25" x2="938" y1="420.5879" y2="420.5879"/><line style="stroke:#181818;stroke-width:1.0;" x1="938" x2="938" y1="420.5879" y2="435.5879"/><polygon fill="#181818" points="934,425.5879,938,435.5879,942,425.5879,938,429.5879" style="stroke:#181818;stroke-width:1.0;"/><line style="stroke:#181818;stroke-width:1.0;" x1="218.5" x2="218.5" y1="285.7891" y2="305.7891"/><polygon fill="#181818" points="214.5,295.7891,218.5,305.7891,222.5,295.7891,218.5,299.7891" style="stroke:#181818;stroke-width:1.0;"/><line style="stroke:#181818;stroke-width:1.0;" x1="218.5" x2="218.5" y1="2514.959" y2="2858.5332"/><polygon fill="#181818" points="214.5,2848.5332,218.5,2858.5332,222.5,2848.5332,218.5,2852.5332" style="stroke:#181818;stroke-width:1.0;"/><line style="stroke:#181818;stroke-width:1.0;" x1="938" x2="938" y1="469.3867" y2="653.7715"/><polygon fill="#181818" points="934,643.7715,938,653.7715,942,643.7715,938,647.7715" style="stroke:#181818;stroke-width:1.0;"/><line style="stroke:#181818;stroke-width:1.0;" x1="938" x2="938" y1="1107.6475" y2="1209.2393"/><polygon fill="#181818" points="934,1199.2393,938,1209.2393,942,1199.2393,938,1203.2393" style="stroke:#181818;stroke-width:1.0;"/><line style="stroke:#181818;stroke-width:1.0;" x1="938" x2="938" y1="1243.0381" y2="1387.9258"/><polygon fill="#181818" points="934,1377.9258,938,1387.9258,942,1377.9258,938,1381.9258" style="stroke:#181818;stroke-width:1.0;"/><line style="stroke:#181818;stroke-width:1.0;" x1="938" x2="938" y1="1421.7246" y2="1522.6123"/><polygon fill="#181818" points="934,1512.6123,938,1522.6123,942,1512.6123,938,1516.6123" style="stroke:#181818;stroke-width:1.0;"/><line style="stroke:#181818;stroke-width:1.0;" x1="938" x2="938" y1="1702.4053" y2="1731.0059"/><polygon fill="#181818" points="934,1721.0059,938,1731.0059,942,1721.0059,938,1725.0059" style="stroke:#181818;stroke-width:1.0;"/><line style="stroke:#181818;stroke-width:1.0;" x1="938" x2="938" y1="1643.707" y2="1668.6064"/><polygon fill="#181818" points="934,1658.6064,938,1668.6064,942,1658.6064,938,1662.6064" style="stroke:#181818;stroke-width:1.0;"/><line style="stroke:#181818;stroke-width:1.0;" x1="984.5" x2="996.5" y1="1631.707" y2="1631.707"/><polygon fill="#181818" points="992.5,1701.0059,996.5,1711.0059,1000.5,1701.0059,996.5,1705.0059" style="stroke:#181818;stroke-width:1.0;"/><line style="stroke:#181818;stroke-width:1.0;" x1="996.5" x2="996.5" y1="1631.707" y2="1775.0059"/><line style="stroke:#181818;stroke-width:1.0;" x1="996.5" x2="938" y1="1775.0059" y2="1775.0059"/><line style="stroke:#181818;stroke-width:1.0;" x1="938" x2="938" y1="1775.0059" y2="1821.4023"/><polygon fill="#181818" points="934,1811.4023,938,1821.4023,942,1811.4023,938,1815.4023" style="stroke:#181818;stroke-width:1.0;"/><line style="stroke:#181818;stroke-width:1.0;" x1="938" x2="938" y1="1556.4111" y2="1619.707"/><polygon fill="#181818" points="934,1609.707,938,1619.707,942,1609.707,938,1613.707" style="stroke:#181818;stroke-width:1.0;"/><line style="stroke:#181818;stroke-width:1.0;" x1="938" x2="938" y1="1053.8486" y2="1073.8486"/><polygon fill="#181818" points="934,1063.8486,938,1073.8486,942,1063.8486,938,1067.8486" style="stroke:#181818;stroke-width:1.0;"/><line style="stroke:#181818;stroke-width:1.0;" x1="988.5" x2="1406.5" y1="1923.5977" y2="1923.5977"/><polygon fill="#181818" points="1402.5,1485.0205,1406.5,1475.0205,1410.5,1485.0205,1406.5,1481.0205" style="stroke:#181818;stroke-width:1.0;"/><line style="stroke:#181818;stroke-width:1.0;" x1="1406.5" x2="1406.5" y1="1041.8486" y2="1923.5977"/><line style="stroke:#181818;stroke-width:1.0;" x1="1406.5" x2="950" y1="1041.8486" y2="1041.8486"/><polygon fill="#181818" points="960,1037.8486,950,1041.8486,960,1045.8486,956,1041.8486" style="stroke:#181818;stroke-width:1.0;"/><line style="stroke:#181818;stroke-width:1.0;" x1="938" x2="938" y1="1855.2012" y2="1911.5977"/><polygon fill="#181818" points="934,1901.5977,938,1911.5977,942,1901.5977,938,1905.5977" style="stroke:#181818;stroke-width:1.0;"/><line style="stroke:#181818;stroke-width:1.0;" x1="938" x2="938" y1="1007.9492" y2="1029.8486"/><polygon fill="#181818" points="934,1019.8486,938,1029.8486,942,1019.8486,938,1023.8486" style="stroke:#181818;stroke-width:1.0;"/><line style="stroke:#181818;stroke-width:1.0;" x1="938" x2="938" y1="947.3516" y2="974.1504"/><polygon fill="#181818" points="934,964.1504,938,974.1504,942,964.1504,938,968.1504" style="stroke:#181818;stroke-width:1.0;"/><line style="stroke:#181818;stroke-width:1.0;" x1="865.5" x2="788.5" y1="935.3516" y2="935.3516"/><polygon fill="#181818" points="784.5,1520.2158,788.5,1530.2158,792.5,1520.2158,788.5,1524.2158" style="stroke:#181818;stroke-width:1.0;"/><line style="stroke:#181818;stroke-width:1.0;" x1="788.5" x2="788.5" y1="935.3516" y2="2135.5859"/><line style="stroke:#181818;stroke-width:1.0;" x1="788.5" x2="926" y1="2135.5859" y2="2135.5859"/><polygon fill="#181818" points="916,2131.5859,926,2135.5859,916,2139.5859,920,2135.5859" style="stroke:#181818;stroke-width:1.0;"/><line style="stroke:#181818;stroke-width:1.0;" x1="938" x2="938" y1="687.5703" y2="923.3516"/><polygon fill="#181818" points="934,913.3516,938,923.3516,942,913.3516,938,917.3516" style="stroke:#181818;stroke-width:1.0;"/><line style="stroke:#181818;stroke-width:1.0;" x1="938" x2="938" y1="1935.5977" y2="1970.0947"/><line style="stroke:#181818;stroke-width:1.0;" x1="938" x2="1666" y1="1970.0947" y2="1970.0947"/><line style="stroke:#181818;stroke-width:1.0;" x1="1666" x2="1666" y1="1970.0947" y2="2019.5918"/><polygon fill="#181818" points="1662,2009.5918,1666,2019.5918,1670,2009.5918,1666,2013.5918" style="stroke:#181818;stroke-width:1.0;"/><text fill="#000000" font-family="Arial" font-size="12" lengthAdjust="spacing" textLength="14" x="942" y="1957.8965">no</text><line style="stroke:#181818;stroke-width:1.0;" x1="1666" x2="1666" y1="2053.3906" y2="2090.938"/><line style="stroke:#181818;stroke-width:1.0;" x1="1666" x2="938" y1="2090.938" y2="2090.938"/><line style="stroke:#181818;stroke-width:1.0;" x1="938" x2="938" y1="2090.938" y2="2123.5859"/><polygon fill="#181818" points="934,2113.5859,938,2123.5859,942,2113.5859,938,2117.5859" style="stroke:#181818;stroke-width:1.0;"/><line style="stroke:#181818;stroke-width:1.0;" x1="938" x2="938" y1="2147.5859" y2="2301.873"/><line style="stroke:#181818;stroke-width:1.0;" x1="938" x2="218.5" y1="2301.873" y2="2301.873"/><line style="stroke:#181818;stroke-width:1.0;" x1="218.5" x2="218.5" y1="2301.873" y2="2481.1602"/><polygon fill="#181818" points="214.5,2471.1602,218.5,2481.1602,222.5,2471.1602,218.5,2475.1602" style="stroke:#181818;stroke-width:1.0;"/><text fill="#000000" font-family="Arial" font-size="12" lengthAdjust="spacing" textLength="60" x="326.25" y="61.8506">JobService</text><text fill="#000000" font-family="Arial" font-size="12" lengthAdjust="spacing" textLength="73" x="1025" y="61.8506">Service Layer</text><text fill="#000000" font-family="Arial" font-size="12" lengthAdjust="spacing" textLength="109" x="1734" y="61.8506">System Parameters</text><!--SRC=[bLZTRYkt4RxNKmpG6qauaiz9croiaHzPjdEKMZcgvQG9WYAWTYc9zOhSabmxQbqWhv6x8FTvXA10-oPvWRv2PqWkzqzssy10ZdU6dE7yVFEDhR0vXza2RjL6MRZabgTMA0aJM38XuJfNZuE1kHUoO9eTOCFI-vrMfSpcAbSQVdFj_cjex9dC7hMmbalOijpmXYpZMrRczbf9-paxe5qjM7vQlXP_vV3clORGagkrw8EJ8dl4vsnKdWq6Jv-fpPhh1v7ofu6nJDj1idgtleCpLeYpD6V6YAr86JqNLSsPfX3C5Z46vmEfB0SjTdix05YHAPHfa-1l4mo5JVTNt-47oNBoAO4B-WI6_DjYS7WGGb6QVNrc8Lyuivg1a8PhSW2FuC_LTqdV5dm8Rrw_VlsgVoDAtaV9WCiCoF_185cdJ4eXTxE5o_AyzVHXx-uJbuxE1ycNB1SPmu1ieiS6FeBNvuE1sCBGYJyUWTrZueT7RaReUx9mRpbj62_bM1ymbChftgWTN6cDGPZ0GZxGVI4wvC8vgXYh2dgOs69wGsxXXXsvVi9NKehfqbRM5b9OB38AZCjlpAw1N1ZR3DEdtDwsLORjtx-zOSOkBhicncCyYJqqyOeyyyrankF4P_3D56uvos1zD9OVwa8YCL1P_9uV4pXfgz8W2nWz2uLMAJUcCXBrdIh-l3U5FvHS7pjYk6ERd4U3rxVlbXsDIlJ7jrUtLxtBCT6Vj3rwTtjvTGiNNv_omodSB9QBEnZMrJBo7ex7QrNgb6DuC6XdoviUzeGu_UkdV_xyxt_yKfswvRRKagBg3ymMLn8R__ZDdrnhzJmUKZiLR2UaAxUHqvgNuGtuJwpbdT97KlKUfE6BLwNdBXNMck3P9KegFn0iQrVdY7GSKSpdUWApqge3enhOS6knvz03ItradFWjbinag_bVIYxJOwNZtS5wmuBaqYAS8JOAQZzi0dzmoTAza7oIYtjiGBvd3q9fRt6rc6oOgIrw_Hiug8mZz6YU2P_WkjIfNzyoupi2KRUgzrxxplUbl8VDiOy8r8wjBW1O5xcmvBVowWWFBWM-OhrdqC2xf7yhQjHU0cXUSEOlJrR-ck1pIewTEuaNtsac3Ph3OQ30emwUm9e_pD8KvvNrnUAFT1ntrTKiAIozNx__yTVlVtZX9f_nw030DI4-feccgNEoaal- -C8zGzsqF0fd_XR-3w5Y4t_brF_sgfR68euQyKjVwrESt0Mf-dftlzPQPsSmdKxzDHDJy9IW6h3yyym4fR-tdnp21crWhoDJDram6R_NVPAr0OXa3XGUiAsezTpdPb74gTAEvWgP2Tjn6W3FfDYV2c_7EVkyrzUbz2YI1R-_m9F84UfdpHUoA2snewJAxQnwQzGA1br7pE_Mb3jruBfjjtvsKUJ7sZjTvjn4OG2_oXZ6pLU2wIPa8VUSC2c39RTxbOt7iDKAXquhM65scbF1NI5PgUX02Eh5qLdBNWWkdQBM8zPuUO5MXzKTewGH40pQis-OD2cMuqo8YLknYmKwnkZat5LjWiyxRBXko1RcYuBuoIMJEwxlbFSa0QjBtb9R7sKwkvuZfhF4KrIY882VmA38WPPh0ZEAdYtPFO_OqyeVF0WZCBHHrGCSkUz9u1Or1S7zYM0J4Bl8RPd8UOy-kNpur7j7pyD7HuJ2TKI6F0JkDRACwJhdl1Z6iZNVkWztE5FCy-d3iyhQ744QKnS6RvqtTmFDbqUEtZdiRIHDymUSMWOm-8mc4IZitLonhA-2mwelNH-Killkd8WrVV8b2VZQA3Nn6XZowMxwYYZn8GIkFqRWSIz8TQaq3s_0U0iJeptv24-Squ6dBbCpJpGDVNqHBt2CccVO4Synn5wKnsD_lCS2A-3vhpHm0iYnInoRozbNmoxT6Vash-cXh-1wGex7Lv9YPMfxd-E2WZWZmMr7nj_GOPdHzaAccXymYxJFH5PLtQGmo9DE1WcrJ7bm2Mg9wjmq-NylNdXfDKeR7ALoVvRduOsrjqw0FOVTJ4CtYBD0ovkMgoMYkICcStKeSbJkyNlKWY2CauBi8-UlBZ_bIyXqKMKQIbS16U5aZl_0GBlmqd9mT60XAID_HckObGPVwxY3TGBpFTwQ4lSqLgIjNOCeAatG1g4EXBlJsSqnt0bpfN22Hvf1H6l7R0Fxx1t51aKwMghIu1MuXIdji- -N59nKbvCBTt8LgodEu0bWmvjdLujMBNPWut_VO7hfAR3HYO9dtilVafThGMbtVmUXeOQLbIjLZ9BcOXPIFrH8q8cxZsA40cTbM2j2LgmuFj7ZGRHV1ywNeVVYT-I5doch-5Hu58YOJT2E3aNABjgy-baWR-nPRR1k0_LfdCQVzyd1QjW3JRE6DsrQ06nBSNOisHaV_9_ZrI7DYK7jFVbWMXCW9js6MHqZ_sHcNg913gzAAhiNw2KS7Ajgr7YrjEcAk7N-VECMniw6MssBlY-hDRYx07SMoh188j2cQaT_rN0M_4u9B4rn5E9AwTqG6RhKf9XnWuISCqr_30BNjWsGSPpYFm00]--></g></svg>