<svg xmlns="http://www.w3.org/2000/svg" xmlns:xlink="http://www.w3.org/1999/xlink" contentStyleType="text/css" height="2158px" preserveAspectRatio="none" style="width:1165px;height:2158px;background:#FFFFFF;" version="1.1" viewBox="0 0 1165 2158" width="1165px" zoomAndPan="magnify"><defs/><g><text fill="#000000" font-family="Verdana" font-size="22" font-weight="bold" lengthAdjust="spacing" textLength="602" x="280.125" y="37.1182">Normal Account Insert - Tagging Flow (3 Steps)</text><ellipse cx="643.25" cy="62.7373" fill="#FFFFFF" rx="10" ry="10" style="stroke:#000000;stroke-width:1.0;"/><path d="M775.25,82.7373 L775.25,123.2356 L755.25,127.2356 L775.25,131.2356 L775.25,171.7339 A0,0 0 0 0 775.25,171.7339 L969.25,171.7339 A0,0 0 0 0 969.25,171.7339 L969.25,92.7373 L959.25,82.7373 L775.25,82.7373 A0,0 0 0 0 775.25,82.7373 " fill="#FFFFFF" style="stroke:#000000;stroke-width:1.0;"/><path d="M959.25,82.7373 L959.25,92.7373 L969.25,92.7373 L959.25,82.7373 " fill="#FFFFFF" style="stroke:#000000;stroke-width:1.0;"/><text fill="#000000" font-family="Verdana" font-size="13" lengthAdjust="spacing" textLength="173" x="781.25" y="100.8071">Classified customers with:</text><text fill="#000000" font-family="Verdana" font-size="13" lengthAdjust="spacing" textLength="138" x="781.25" y="116.6064">- CustId, CategoryId</text><text fill="#000000" font-family="Verdana" font-size="13" lengthAdjust="spacing" textLength="130" x="781.25" y="132.4058">- ScanTaggingType</text><text fill="#000000" font-family="Verdana" font-size="13" lengthAdjust="spacing" textLength="152" x="781.25" y="148.2051">- ScanTaggingTWType</text><text fill="#000000" font-family="Verdana" font-size="13" lengthAdjust="spacing" textLength="168" x="781.25" y="164.0044">- ScanSpecialLicSubType</text><rect fill="#FFFFFF" height="34.584" rx="12.5" ry="12.5" style="stroke:#000000;stroke-width:1.0;" width="224" x="531.25" y="109.9436"/><text fill="#000000" font-family="Verdana" font-size="12" lengthAdjust="spacing" textLength="204" x="541.25" y="132.0081">Input: GetNormalAccountEntity[]</text><path d="M769.75,181.7339 L769.75,214.3325 L749.75,218.3325 L769.75,222.3325 L769.75,254.9312 A0,0 0 0 0 769.75,254.9312 L947.75,254.9312 A0,0 0 0 0 947.75,254.9312 L947.75,191.7339 L937.75,181.7339 L769.75,181.7339 A0,0 0 0 0 769.75,181.7339 " fill="#FFFFFF" style="stroke:#000000;stroke-width:1.0;"/><path d="M937.75,181.7339 L937.75,191.7339 L947.75,191.7339 L937.75,181.7339 " fill="#FFFFFF" style="stroke:#000000;stroke-width:1.0;"/><text fill="#000000" font-family="Verdana" font-size="13" lengthAdjust="spacing" textLength="157" x="775.75" y="199.8037">Initialize tagging model:</text><text fill="#000000" font-family="Verdana" font-size="13" lengthAdjust="spacing" textLength="105" x="775.75" y="215.603">- TaggingID = 0</text><text fill="#000000" font-family="Verdana" font-size="13" lengthAdjust="spacing" textLength="124" x="775.75" y="231.4023">- TaggingType = 0</text><text fill="#000000" font-family="Verdana" font-size="13" lengthAdjust="spacing" textLength="114" x="775.75" y="247.2017">- TW metrics = 0</text><rect fill="#FFFFFF" height="34.584" rx="12.5" ry="12.5" style="stroke:#000000;stroke-width:1.0;" width="213" x="536.75" y="201.0405"/><text fill="#000000" font-family="Verdana" font-size="12" lengthAdjust="spacing" textLength="193" x="546.75" y="223.105">Create ProcessTaggingModel[]</text><rect fill="#FFFFFF" height="650.6323" style="stroke:#000000;stroke-width:1.0;" width="1001.5" x="34" y="264.9312"/><path d="M324,264.9312 L324,274.9458 L314,284.9458 L34,284.9458 " fill="none" style="stroke:#000000;stroke-width:1.0;"/><text fill="#000000" font-family="Verdana" font-size="14" lengthAdjust="spacing" textLength="280" x="37" y="280.0063">Step 1: Process TW Tagged Customers</text><rect fill="#FFFFFF" height="34.584" rx="12.5" ry="12.5" style="stroke:#000000;stroke-width:1.0;" width="323" x="481.75" y="301.9458"/><text fill="#000000" font-family="Verdana" font-size="12" lengthAdjust="spacing" textLength="303" x="491.75" y="324.0103">Filter customers where ScanTaggingTWType = 1</text><polygon fill="#FFFFFF" points="587.25,356.5298,699.25,356.5298,711.25,368.5298,699.25,380.5298,587.25,380.5298,575.25,368.5298,587.25,356.5298" style="stroke:#000000;stroke-width:1.0;"/><text fill="#000000" font-family="Verdana" font-size="11" lengthAdjust="spacing" textLength="112" x="587.25" y="372.9045">Has TW customers?</text><text fill="#000000" font-family="Verdana" font-size="11" lengthAdjust="spacing" textLength="20" x="555.25" y="366.2202">yes</text><text fill="#000000" font-family="Verdana" font-size="11" lengthAdjust="spacing" textLength="14" x="711.25" y="366.2202">no</text><rect fill="#FFFFFF" height="34.584" rx="12.5" ry="12.5" style="stroke:#000000;stroke-width:1.0;" width="265" x="199.5" y="390.5298"/><text fill="#000000" font-family="Verdana" font-size="12" lengthAdjust="spacing" textLength="245" x="209.5" y="412.5942">CheckGroupBettingAndRejectCustomer</text><path d="M630,435.1138 L630,483.5117 L610,487.5117 L630,491.5117 L630,539.9097 A0,0 0 0 0 630,539.9097 L861,539.9097 A0,0 0 0 0 861,539.9097 L861,445.1138 L851,435.1138 L630,435.1138 A0,0 0 0 0 630,435.1138 " fill="#FFFFFF" style="stroke:#000000;stroke-width:1.0;"/><path d="M851,435.1138 L851,445.1138 L861,445.1138 L851,435.1138 " fill="#FFFFFF" style="stroke:#000000;stroke-width:1.0;"/><text fill="#000000" font-family="Verdana" font-size="13" lengthAdjust="spacing" textLength="210" x="636" y="453.1836">Returns TW Tagged customers:</text><text fill="#000000" font-family="Verdana" font-size="13" lengthAdjust="spacing" textLength="173" x="636" y="468.9829">- TaggingID, TaggingType</text><text fill="#000000" font-family="Verdana" font-size="13" lengthAdjust="spacing" textLength="95" x="636" y="484.7822">- TWBetCount</text><text fill="#000000" font-family="Verdana" font-size="13" lengthAdjust="spacing" textLength="149" x="636" y="500.5815">- TWGroupBettingRate</text><text fill="#000000" font-family="Verdana" font-size="13" lengthAdjust="spacing" textLength="147" x="636" y="516.3809">- TWTicketRejectRate</text><text fill="#000000" font-family="Verdana" font-size="13" lengthAdjust="spacing" textLength="157" x="636" y="532.1802">- TWDesktopUsageRate</text><rect fill="#FFFFFF" height="34.584" rx="12.5" ry="12.5" style="stroke:#000000;stroke-width:1.0;" width="556" x="54" y="470.2197"/><text fill="#000000" font-family="Verdana" font-size="12" lengthAdjust="spacing" textLength="536" x="64" y="492.2842">Call CTS_NormalClassification_NormalAccount_TWGroupBettingAndReject_Check [SP]</text><path d="M466.5,549.9097 L466.5,582.5083 L446.5,586.5083 L466.5,590.5083 L466.5,623.1069 A0,0 0 0 0 466.5,623.1069 L718.5,623.1069 A0,0 0 0 0 718.5,623.1069 L718.5,559.9097 L708.5,549.9097 L466.5,549.9097 A0,0 0 0 0 466.5,549.9097 " fill="#FFFFFF" style="stroke:#000000;stroke-width:1.0;"/><path d="M708.5,549.9097 L708.5,559.9097 L718.5,559.9097 L708.5,549.9097 " fill="#FFFFFF" style="stroke:#000000;stroke-width:1.0;"/><text fill="#000000" font-family="Verdana" font-size="13" lengthAdjust="spacing" textLength="231" x="472.5" y="567.9795">Join TW Tagged + CTS customers:</text><text fill="#000000" font-family="Verdana" font-size="13" lengthAdjust="spacing" textLength="56" x="472.5" y="583.7788">- CustID</text><text fill="#000000" font-family="Verdana" font-size="13" lengthAdjust="spacing" textLength="86" x="472.5" y="599.5781">- CategoryID</text><text fill="#000000" font-family="Verdana" font-size="13" lengthAdjust="spacing" textLength="78" x="472.5" y="615.3774">- TaggingID</text><rect fill="#FFFFFF" height="34.584" rx="12.5" ry="12.5" style="stroke:#000000;stroke-width:1.0;" width="229" x="217.5" y="569.2163"/><text fill="#000000" font-family="Verdana" font-size="12" lengthAdjust="spacing" textLength="209" x="227.5" y="591.2808">Create TWTaggedExcludeModel[]</text><rect fill="#FFFFFF" height="34.584" rx="12.5" ry="12.5" style="stroke:#000000;stroke-width:1.0;" width="176" x="244" y="643.1069"/><text fill="#000000" font-family="Verdana" font-size="12" lengthAdjust="spacing" textLength="156" x="254" y="665.1714">CheckTWTaggingExclude</text><path d="M543.5,694.1836 L543.5,710.9829 L523.5,714.9829 L543.5,718.9829 L543.5,735.7822 A0,0 0 0 0 543.5,735.7822 L873.5,735.7822 A0,0 0 0 0 873.5,735.7822 L873.5,704.1836 L863.5,694.1836 L543.5,694.1836 A0,0 0 0 0 543.5,694.1836 " fill="#FFFFFF" style="stroke:#000000;stroke-width:1.0;"/><path d="M863.5,694.1836 L863.5,704.1836 L873.5,704.1836 L863.5,694.1836 " fill="#FFFFFF" style="stroke:#000000;stroke-width:1.0;"/><text fill="#000000" font-family="Verdana" font-size="13" lengthAdjust="spacing" textLength="286" x="549.5" y="712.2534">Returns customers that SHOULD be tagged</text><text fill="#000000" font-family="Verdana" font-size="13" lengthAdjust="spacing" textLength="309" x="549.5" y="728.0527">(Exclusion rules based on Category + Tagging)</text><rect fill="#FFFFFF" height="34.584" rx="12.5" ry="12.5" style="stroke:#000000;stroke-width:1.0;" width="383" x="140.5" y="697.6909"/><text fill="#000000" font-family="Verdana" font-size="12" lengthAdjust="spacing" textLength="363" x="150.5" y="719.7554">Call CTS_DC_NormalClassification_TW_CheckExclude [SP]</text><path d="M475.5,760.1746 L475.5,769.0742 L455.5,773.0742 L475.5,777.0742 L475.5,785.9739 A0,0 0 0 0 475.5,785.9739 L810.5,785.9739 A0,0 0 0 0 810.5,785.9739 L810.5,770.1746 L800.5,760.1746 L475.5,760.1746 A0,0 0 0 0 475.5,760.1746 " fill="#FFFFFF" style="stroke:#000000;stroke-width:1.0;"/><path d="M800.5,760.1746 L800.5,770.1746 L810.5,770.1746 L800.5,760.1746 " fill="#FFFFFF" style="stroke:#000000;stroke-width:1.0;"/><text fill="#000000" font-family="Verdana" font-size="13" lengthAdjust="spacing" textLength="314" x="481.5" y="778.2444">Keep only customers returned by CheckExclude</text><rect fill="#FFFFFF" height="34.584" rx="12.5" ry="12.5" style="stroke:#000000;stroke-width:1.0;" width="247" x="208.5" y="755.7822"/><text fill="#000000" font-family="Verdana" font-size="12" lengthAdjust="spacing" textLength="227" x="218.5" y="777.8467">Filter TW Tagged by exclusion result</text><path d="M514,800.3662 L514,832.9648 L494,836.9648 L514,840.9648 L514,873.5635 A0,0 0 0 0 514,873.5635 L756,873.5635 A0,0 0 0 0 756,873.5635 L756,810.3662 L746,800.3662 L514,800.3662 A0,0 0 0 0 514,800.3662 " fill="#FFFFFF" style="stroke:#000000;stroke-width:1.0;"/><path d="M746,800.3662 L746,810.3662 L756,810.3662 L746,800.3662 " fill="#FFFFFF" style="stroke:#000000;stroke-width:1.0;"/><text fill="#000000" font-family="Verdana" font-size="13" lengthAdjust="spacing" textLength="221" x="520" y="818.436">If customer in TW Tagged result:</text><text fill="#000000" font-family="Verdana" font-size="13" lengthAdjust="spacing" textLength="106" x="520" y="834.2354">- Set TaggingID</text><text fill="#000000" font-family="Verdana" font-size="13" lengthAdjust="spacing" textLength="125" x="520" y="850.0347">- Set TaggingType</text><text fill="#000000" font-family="Verdana" font-size="13" lengthAdjust="spacing" textLength="115" x="520" y="865.834">- Set TW metrics</text><rect fill="#FFFFFF" height="34.584" rx="12.5" ry="12.5" style="stroke:#000000;stroke-width:1.0;" width="324" x="170" y="819.6729"/><text fill="#000000" font-family="Verdana" font-size="12" lengthAdjust="spacing" textLength="304" x="180" y="841.7373">Merge TW Tagged data to ProcessTaggingModel</text><rect fill="#FFFFFF" height="34.584" rx="12.5" ry="12.5" style="stroke:#000000;stroke-width:1.0;" width="122" x="893.5" y="390.5298"/><text fill="#000000" font-family="Verdana" font-size="12" lengthAdjust="spacing" textLength="102" x="903.5" y="412.5942">Skip TW tagging</text><polygon fill="#FFFFFF" points="643.25,879.5635,655.25,891.5635,643.25,903.5635,631.25,891.5635,643.25,879.5635" style="stroke:#000000;stroke-width:1.0;"/><rect fill="#FFFFFF" height="413.8691" style="stroke:#000000;stroke-width:1.0;" width="1011" x="71.75" y="925.5635"/><path d="M335.75,925.5635 L335.75,935.5781 L325.75,945.5781 L71.75,945.5781 " fill="none" style="stroke:#000000;stroke-width:1.0;"/><text fill="#000000" font-family="Verdana" font-size="14" lengthAdjust="spacing" textLength="254" x="74.75" y="940.6387">Step 2: Process Association with PA</text><path d="M791.75,962.0708 L791.75,978.8701 L771.75,982.8701 L791.75,986.8701 L791.75,1003.6694 A0,0 0 0 0 791.75,1003.6694 L997.75,1003.6694 A0,0 0 0 0 997.75,1003.6694 L997.75,972.0708 L987.75,962.0708 L791.75,962.0708 A0,0 0 0 0 791.75,962.0708 " fill="#FFFFFF" style="stroke:#000000;stroke-width:1.0;"/><path d="M987.75,962.0708 L987.75,972.0708 L997.75,972.0708 L987.75,962.0708 " fill="#FFFFFF" style="stroke:#000000;stroke-width:1.0;"/><text fill="#000000" font-family="Verdana" font-size="13" lengthAdjust="spacing" textLength="185" x="797.75" y="980.1406">Only process customers not</text><text fill="#000000" font-family="Verdana" font-size="13" lengthAdjust="spacing" textLength="164" x="797.75" y="995.9399">already tagged in Step 1</text><rect fill="#FFFFFF" height="34.584" rx="12.5" ry="12.5" style="stroke:#000000;stroke-width:1.0;" width="257" x="514.75" y="965.5781"/><text fill="#000000" font-family="Verdana" font-size="12" lengthAdjust="spacing" textLength="237" x="524.75" y="987.6426">Filter customers where TaggingID = 0</text><polygon fill="#FFFFFF" points="598.25,1023.6694,688.25,1023.6694,700.25,1035.6694,688.25,1047.6694,598.25,1047.6694,586.25,1035.6694,598.25,1023.6694" style="stroke:#000000;stroke-width:1.0;"/><text fill="#000000" font-family="Verdana" font-size="11" lengthAdjust="spacing" textLength="90" x="598.25" y="1040.0442">Has customers?</text><text fill="#000000" font-family="Verdana" font-size="11" lengthAdjust="spacing" textLength="20" x="566.25" y="1033.3599">yes</text><text fill="#000000" font-family="Verdana" font-size="11" lengthAdjust="spacing" textLength="14" x="700.25" y="1033.3599">no</text><rect fill="#FFFFFF" height="34.584" rx="12.5" ry="12.5" style="stroke:#000000;stroke-width:1.0;" width="272" x="184.25" y="1057.6694"/><text fill="#000000" font-family="Verdana" font-size="12" lengthAdjust="spacing" textLength="252" x="194.25" y="1079.7339">Join CustIds to comma-separated string</text><rect fill="#FFFFFF" height="34.584" rx="12.5" ry="12.5" style="stroke:#000000;stroke-width:1.0;" width="249" x="195.75" y="1112.2534"/><text fill="#000000" font-family="Verdana" font-size="12" lengthAdjust="spacing" textLength="229" x="205.75" y="1134.3179">GetCustsAssociationProblemAccount</text><path d="M568.75,1156.8374 L568.75,1189.436 L548.75,1193.436 L568.75,1197.436 L568.75,1230.0347 A0,0 0 0 0 568.75,1230.0347 L849.75,1230.0347 A0,0 0 0 0 849.75,1230.0347 L849.75,1166.8374 L839.75,1156.8374 L568.75,1156.8374 A0,0 0 0 0 568.75,1156.8374 " fill="#FFFFFF" style="stroke:#000000;stroke-width:1.0;"/><path d="M839.75,1156.8374 L839.75,1166.8374 L849.75,1166.8374 L839.75,1156.8374 " fill="#FFFFFF" style="stroke:#000000;stroke-width:1.0;"/><text fill="#000000" font-family="Verdana" font-size="13" lengthAdjust="spacing" textLength="260" x="574.75" y="1174.9072">Returns customers associated with PA:</text><text fill="#000000" font-family="Verdana" font-size="13" lengthAdjust="spacing" textLength="56" x="574.75" y="1190.7065">- CustID</text><text fill="#000000" font-family="Verdana" font-size="13" lengthAdjust="spacing" textLength="224" x="574.75" y="1206.5059">- TaggingID (Association tagging)</text><text fill="#000000" font-family="Verdana" font-size="13" lengthAdjust="spacing" textLength="97" x="574.75" y="1222.3052">- TaggingType</text><rect fill="#FFFFFF" height="34.584" rx="12.5" ry="12.5" style="stroke:#000000;stroke-width:1.0;" width="457" x="91.75" y="1176.144"/><text fill="#000000" font-family="Verdana" font-size="12" lengthAdjust="spacing" textLength="437" x="101.75" y="1198.2085">Call CTS_DC_CustClassification_GetTaggingByAssociationWithPA [SP]</text><path d="M512.25,1240.0347 L512.25,1264.7336 L492.25,1268.7336 L512.25,1272.7336 L512.25,1297.4326 A0,0 0 0 0 512.25,1297.4326 L746.25,1297.4326 A0,0 0 0 0 746.25,1297.4326 L746.25,1250.0347 L736.25,1240.0347 L512.25,1240.0347 A0,0 0 0 0 512.25,1240.0347 " fill="#FFFFFF" style="stroke:#000000;stroke-width:1.0;"/><path d="M736.25,1240.0347 L736.25,1250.0347 L746.25,1250.0347 L736.25,1240.0347 " fill="#FFFFFF" style="stroke:#000000;stroke-width:1.0;"/><text fill="#000000" font-family="Verdana" font-size="13" lengthAdjust="spacing" textLength="213" x="518.25" y="1258.1045">If customer associated with PA:</text><text fill="#000000" font-family="Verdana" font-size="13" lengthAdjust="spacing" textLength="106" x="518.25" y="1273.9038">- Set TaggingID</text><text fill="#000000" font-family="Verdana" font-size="13" lengthAdjust="spacing" textLength="125" x="518.25" y="1289.7031">- Set TaggingType</text><rect fill="#FFFFFF" height="34.584" rx="12.5" ry="12.5" style="stroke:#000000;stroke-width:1.0;" width="344" x="148.25" y="1251.4417"/><text fill="#000000" font-family="Verdana" font-size="12" lengthAdjust="spacing" textLength="324" x="158.25" y="1273.5061">Merge Association PA data to ProcessTaggingModel</text><rect fill="#FFFFFF" height="34.584" rx="12.5" ry="12.5" style="stroke:#000000;stroke-width:1.0;" width="193" x="869.75" y="1057.6694"/><text fill="#000000" font-family="Verdana" font-size="12" lengthAdjust="spacing" textLength="173" x="879.75" y="1079.7339">Skip Association PA tagging</text><polygon fill="#FFFFFF" points="643.25,1303.4326,655.25,1315.4326,643.25,1327.4326,631.25,1315.4326,643.25,1303.4326" style="stroke:#000000;stroke-width:1.0;"/><rect fill="#FFFFFF" height="468.4531" style="stroke:#000000;stroke-width:1.0;" width="1094" x="6" y="1349.4326"/><path d="M318,1349.4326 L318,1359.4473 L308,1369.4473 L6,1369.4473 " fill="none" style="stroke:#000000;stroke-width:1.0;"/><text fill="#000000" font-family="Verdana" font-size="14" lengthAdjust="spacing" textLength="302" x="9" y="1364.5078">Step 3: Process TW Tagged Special LicSub</text><path d="M791.75,1385.9399 L791.75,1402.7393 L771.75,1406.7393 L791.75,1410.7393 L791.75,1427.5386 A0,0 0 0 0 791.75,1427.5386 L997.75,1427.5386 A0,0 0 0 0 997.75,1427.5386 L997.75,1395.9399 L987.75,1385.9399 L791.75,1385.9399 A0,0 0 0 0 791.75,1385.9399 " fill="#FFFFFF" style="stroke:#000000;stroke-width:1.0;"/><path d="M987.75,1385.9399 L987.75,1395.9399 L997.75,1395.9399 L987.75,1385.9399 " fill="#FFFFFF" style="stroke:#000000;stroke-width:1.0;"/><text fill="#000000" font-family="Verdana" font-size="13" lengthAdjust="spacing" textLength="185" x="797.75" y="1404.0098">Only process customers not</text><text fill="#000000" font-family="Verdana" font-size="13" lengthAdjust="spacing" textLength="178" x="797.75" y="1419.8091">tagged in Step 1 or Step 2</text><rect fill="#FFFFFF" height="34.584" rx="12.5" ry="12.5" style="stroke:#000000;stroke-width:1.0;" width="257" x="514.75" y="1389.4473"/><text fill="#000000" font-family="Verdana" font-size="12" lengthAdjust="spacing" textLength="237" x="524.75" y="1411.5117">Filter customers where TaggingID = 0</text><polygon fill="#FFFFFF" points="598.25,1447.5386,688.25,1447.5386,700.25,1459.5386,688.25,1471.5386,598.25,1471.5386,586.25,1459.5386,598.25,1447.5386" style="stroke:#000000;stroke-width:1.0;"/><text fill="#000000" font-family="Verdana" font-size="11" lengthAdjust="spacing" textLength="90" x="598.25" y="1463.9133">Has customers?</text><text fill="#000000" font-family="Verdana" font-size="11" lengthAdjust="spacing" textLength="20" x="566.25" y="1457.229">yes</text><text fill="#000000" font-family="Verdana" font-size="11" lengthAdjust="spacing" textLength="14" x="700.25" y="1457.229">no</text><rect fill="#FFFFFF" height="34.584" rx="12.5" ry="12.5" style="stroke:#000000;stroke-width:1.0;" width="266" x="168.5" y="1481.5386"/><text fill="#000000" font-family="Verdana" font-size="12" lengthAdjust="spacing" textLength="246" x="178.5" y="1503.603">Select CustID + ScanSpecialLicSubType</text><rect fill="#FFFFFF" height="34.584" rx="12.5" ry="12.5" style="stroke:#000000;stroke-width:1.0;" width="126" x="238.5" y="1536.1226"/><text fill="#000000" font-family="Verdana" font-size="12" lengthAdjust="spacing" textLength="106" x="248.5" y="1558.187">Serialize to JSON</text><rect fill="#FFFFFF" height="34.584" rx="12.5" ry="12.5" style="stroke:#000000;stroke-width:1.0;" width="237" x="183" y="1590.7065"/><text fill="#000000" font-family="Verdana" font-size="12" lengthAdjust="spacing" textLength="217" x="193" y="1612.771">GetTWTaggedCustBySpecialLicSub</text><path d="M605,1635.2905 L605,1667.8892 L585,1671.8892 L605,1675.8892 L605,1708.4878 A0,0 0 0 0 605,1708.4878 L870,1708.4878 A0,0 0 0 0 870,1708.4878 L870,1645.2905 L860,1635.2905 L605,1635.2905 A0,0 0 0 0 605,1635.2905 " fill="#FFFFFF" style="stroke:#000000;stroke-width:1.0;"/><path d="M860,1635.2905 L860,1645.2905 L870,1645.2905 L860,1635.2905 " fill="#FFFFFF" style="stroke:#000000;stroke-width:1.0;"/><text fill="#000000" font-family="Verdana" font-size="13" lengthAdjust="spacing" textLength="237" x="611" y="1653.3604">Returns Special LicSub TW Tagged:</text><text fill="#000000" font-family="Verdana" font-size="13" lengthAdjust="spacing" textLength="56" x="611" y="1669.1597">- CustID</text><text fill="#000000" font-family="Verdana" font-size="13" lengthAdjust="spacing" textLength="244" x="611" y="1684.959">- TaggingID (Special LicSub tagging)</text><text fill="#000000" font-family="Verdana" font-size="13" lengthAdjust="spacing" textLength="97" x="611" y="1700.7583">- TaggingType</text><rect fill="#FFFFFF" height="34.584" rx="12.5" ry="12.5" style="stroke:#000000;stroke-width:1.0;" width="567" x="18" y="1654.5972"/><text fill="#000000" font-family="Verdana" font-size="12" lengthAdjust="spacing" textLength="547" x="28" y="1676.6616">Call CTS_DC_NormalClassification_NormalAccount_TWTaggedSpecialLicSub_Check [SP]</text><path d="M504,1718.4878 L504,1743.1868 L484,1747.1868 L504,1751.1868 L504,1775.8857 A0,0 0 0 0 504,1775.8857 L789,1775.8857 A0,0 0 0 0 789,1775.8857 L789,1728.4878 L779,1718.4878 L504,1718.4878 A0,0 0 0 0 504,1718.4878 " fill="#FFFFFF" style="stroke:#000000;stroke-width:1.0;"/><path d="M779,1718.4878 L779,1728.4878 L789,1728.4878 L779,1718.4878 " fill="#FFFFFF" style="stroke:#000000;stroke-width:1.0;"/><text fill="#000000" font-family="Verdana" font-size="13" lengthAdjust="spacing" textLength="264" x="510" y="1736.5576">If customer has Special LicSub tagging:</text><text fill="#000000" font-family="Verdana" font-size="13" lengthAdjust="spacing" textLength="106" x="510" y="1752.3569">- Set TaggingID</text><text fill="#000000" font-family="Verdana" font-size="13" lengthAdjust="spacing" textLength="125" x="510" y="1768.1563">- Set TaggingType</text><rect fill="#FFFFFF" height="34.584" rx="12.5" ry="12.5" style="stroke:#000000;stroke-width:1.0;" width="365" x="119" y="1729.8948"/><text fill="#000000" font-family="Verdana" font-size="12" lengthAdjust="spacing" textLength="345" x="129" y="1751.9592">Merge TW Special LicSub data to ProcessTaggingModel</text><rect fill="#FFFFFF" height="34.584" rx="12.5" ry="12.5" style="stroke:#000000;stroke-width:1.0;" width="190" x="890" y="1481.5386"/><text fill="#000000" font-family="Verdana" font-size="12" lengthAdjust="spacing" textLength="170" x="900" y="1503.603">Skip Special LicSub tagging</text><polygon fill="#FFFFFF" points="643.25,1781.8857,655.25,1793.8857,643.25,1805.8857,631.25,1793.8857,643.25,1781.8857" style="stroke:#000000;stroke-width:1.0;"/><path d="M872.25,1827.8857 L872.25,1868.384 L852.25,1872.384 L872.25,1876.384 L872.25,1916.8823 A0,0 0 0 0 872.25,1916.8823 L1120.25,1916.8823 A0,0 0 0 0 1120.25,1916.8823 L1120.25,1837.8857 L1110.25,1827.8857 L872.25,1827.8857 A0,0 0 0 0 872.25,1827.8857 " fill="#FFFFFF" style="stroke:#000000;stroke-width:1.0;"/><path d="M1110.25,1827.8857 L1110.25,1837.8857 L1120.25,1837.8857 L1110.25,1827.8857 " fill="#FFFFFF" style="stroke:#000000;stroke-width:1.0;"/><text fill="#000000" font-family="Verdana" font-size="13" lengthAdjust="spacing" textLength="111" x="878.25" y="1845.9556">Final result with:</text><text fill="#000000" font-family="Verdana" font-size="13" lengthAdjust="spacing" textLength="221" x="878.25" y="1861.7549">- CategoryId (from classification)</text><text fill="#000000" font-family="Verdana" font-size="13" lengthAdjust="spacing" textLength="227" x="878.25" y="1877.5542">- TaggingID (from 3-step tagging)</text><text fill="#000000" font-family="Verdana" font-size="13" lengthAdjust="spacing" textLength="97" x="878.25" y="1893.3535">- TaggingType</text><text fill="#000000" font-family="Verdana" font-size="13" lengthAdjust="spacing" textLength="190" x="878.25" y="1909.1528">- TW metrics (if TW tagged)</text><rect fill="#FFFFFF" height="34.584" rx="12.5" ry="12.5" style="stroke:#000000;stroke-width:1.0;" width="418" x="434.25" y="1855.092"/><text fill="#000000" font-family="Verdana" font-size="12" lengthAdjust="spacing" textLength="398" x="444.25" y="1877.1565">Convert ProcessTaggingModel[] to InsertNormalAccountEntity[]</text><path d="M788.25,1926.8823 L788.25,2014.7786 L768.25,2018.7786 L788.25,2022.7786 L788.25,2110.6748 A0,0 0 0 0 788.25,2110.6748 L1158.25,2110.6748 A0,0 0 0 0 1158.25,2110.6748 L1158.25,1936.8823 L1148.25,1926.8823 L788.25,1926.8823 A0,0 0 0 0 788.25,1926.8823 " fill="#FFFFFF" style="stroke:#000000;stroke-width:1.0;"/><path d="M1148.25,1926.8823 L1148.25,1936.8823 L1158.25,1936.8823 L1148.25,1926.8823 " fill="#FFFFFF" style="stroke:#000000;stroke-width:1.0;"/><text fill="#000000" font-family="Verdana" font-size="13" font-weight="bold" lengthAdjust="spacing" textLength="114" x="794.25" y="1944.9521">Tagging Priority</text><text fill="#000000" font-family="Verdana" font-size="13" lengthAdjust="spacing" textLength="6" x="908.25" y="1944.9521">:</text><text fill="#000000" font-family="Verdana" font-size="13" lengthAdjust="spacing" textLength="324" x="794.25" y="1960.7515">1. TW Tagged (Group Betting/Reject) - HIGHEST</text><text fill="#000000" font-family="Verdana" font-size="13" lengthAdjust="spacing" textLength="218" x="794.25" y="1976.5508">2. Association with PA - MEDIUM</text><text fill="#000000" font-family="Verdana" font-size="13" lengthAdjust="spacing" textLength="267" x="794.25" y="1992.3501">3. TW Tagged Special LicSub - LOWEST</text><text fill="#000000" font-family="Verdana" font-size="13" lengthAdjust="spacing" textLength="5" x="794.25" y="2008.1494">&#160;</text><text fill="#000000" font-family="Verdana" font-size="13" font-weight="bold" lengthAdjust="spacing" textLength="70" x="794.25" y="2023.9487">Key Rules</text><text fill="#000000" font-family="Verdana" font-size="13" lengthAdjust="spacing" textLength="6" x="864.25" y="2023.9487">:</text><text fill="#000000" font-family="Verdana" font-size="13" lengthAdjust="spacing" textLength="185" x="794.25" y="2039.748">- Earlier tagging has priority</text><text fill="#000000" font-family="Verdana" font-size="13" lengthAdjust="spacing" textLength="349" x="794.25" y="2055.5474">- Later steps skip if already tagged (TaggingID != 0)</text><text fill="#000000" font-family="Verdana" font-size="13" lengthAdjust="spacing" textLength="248" x="794.25" y="2071.3467">- Exclusion rules apply to TW tagging</text><text fill="#000000" font-family="Verdana" font-size="13" lengthAdjust="spacing" textLength="278" x="794.25" y="2087.146">- Association PA applied if not TW tagged</text><text fill="#000000" font-family="Verdana" font-size="13" lengthAdjust="spacing" textLength="286" x="794.25" y="2102.9453">- Special LicSub applied if no other tagging</text><rect fill="#FFFFFF" height="34.584" rx="12.5" ry="12.5" style="stroke:#000000;stroke-width:1.0;" width="250" x="518.25" y="2001.4866"/><text fill="#000000" font-family="Verdana" font-size="12" lengthAdjust="spacing" textLength="230" x="528.25" y="2023.551">Output: InsertNormalAccountEntity[]</text><ellipse cx="643.25" cy="2141.6748" fill="none" rx="11" ry="11" style="stroke:#000000;stroke-width:1.0;"/><ellipse cx="643.25" cy="2141.6748" fill="#FFFFFF" rx="6" ry="6" style="stroke:#000000;stroke-width:1.0;"/><line style="stroke:#000000;stroke-width:1.0;" x1="643.25" x2="643.25" y1="72.7373" y2="109.9436"/><polygon fill="#000000" points="639.25,99.9436,643.25,109.9436,647.25,99.9436,643.25,103.9436" style="stroke:#000000;stroke-width:1.0;"/><line style="stroke:#000000;stroke-width:1.0;" x1="643.25" x2="643.25" y1="144.5276" y2="201.0405"/><polygon fill="#000000" points="639.25,191.0405,643.25,201.0405,647.25,191.0405,643.25,195.0405" style="stroke:#000000;stroke-width:1.0;"/><line style="stroke:#000000;stroke-width:1.0;" x1="332" x2="332" y1="425.1138" y2="470.2197"/><polygon fill="#000000" points="328,460.2197,332,470.2197,336,460.2197,332,464.2197" style="stroke:#000000;stroke-width:1.0;"/><line style="stroke:#000000;stroke-width:1.0;" x1="332" x2="332" y1="504.8037" y2="569.2163"/><polygon fill="#000000" points="328,559.2163,332,569.2163,336,559.2163,332,563.2163" style="stroke:#000000;stroke-width:1.0;"/><line style="stroke:#000000;stroke-width:1.0;" x1="332" x2="332" y1="603.8003" y2="643.1069"/><polygon fill="#000000" points="328,633.1069,332,643.1069,336,633.1069,332,637.1069" style="stroke:#000000;stroke-width:1.0;"/><line style="stroke:#000000;stroke-width:1.0;" x1="332" x2="332" y1="677.6909" y2="697.6909"/><polygon fill="#000000" points="328,687.6909,332,697.6909,336,687.6909,332,691.6909" style="stroke:#000000;stroke-width:1.0;"/><line style="stroke:#000000;stroke-width:1.0;" x1="332" x2="332" y1="732.2749" y2="755.7822"/><polygon fill="#000000" points="328,745.7822,332,755.7822,336,745.7822,332,749.7822" style="stroke:#000000;stroke-width:1.0;"/><line style="stroke:#000000;stroke-width:1.0;" x1="332" x2="332" y1="790.3662" y2="819.6729"/><polygon fill="#000000" points="328,809.6729,332,819.6729,336,809.6729,332,813.6729" style="stroke:#000000;stroke-width:1.0;"/><line style="stroke:#000000;stroke-width:1.0;" x1="575.25" x2="332" y1="368.5298" y2="368.5298"/><line style="stroke:#000000;stroke-width:1.0;" x1="332" x2="332" y1="368.5298" y2="390.5298"/><polygon fill="#000000" points="328,380.5298,332,390.5298,336,380.5298,332,384.5298" style="stroke:#000000;stroke-width:1.0;"/><line style="stroke:#000000;stroke-width:1.0;" x1="711.25" x2="954.5" y1="368.5298" y2="368.5298"/><line style="stroke:#000000;stroke-width:1.0;" x1="954.5" x2="954.5" y1="368.5298" y2="390.5298"/><polygon fill="#000000" points="950.5,380.5298,954.5,390.5298,958.5,380.5298,954.5,384.5298" style="stroke:#000000;stroke-width:1.0;"/><line style="stroke:#000000;stroke-width:1.0;" x1="332" x2="332" y1="854.2568" y2="891.5635"/><line style="stroke:#000000;stroke-width:1.0;" x1="332" x2="631.25" y1="891.5635" y2="891.5635"/><polygon fill="#000000" points="621.25,887.5635,631.25,891.5635,621.25,895.5635,625.25,891.5635" style="stroke:#000000;stroke-width:1.0;"/><line style="stroke:#000000;stroke-width:1.0;" x1="954.5" x2="954.5" y1="425.1138" y2="891.5635"/><line style="stroke:#000000;stroke-width:1.0;" x1="954.5" x2="655.25" y1="891.5635" y2="891.5635"/><polygon fill="#000000" points="665.25,887.5635,655.25,891.5635,665.25,895.5635,661.25,891.5635" style="stroke:#000000;stroke-width:1.0;"/><line style="stroke:#000000;stroke-width:1.0;" x1="643.25" x2="643.25" y1="336.5298" y2="356.5298"/><polygon fill="#000000" points="639.25,346.5298,643.25,356.5298,647.25,346.5298,643.25,350.5298" style="stroke:#000000;stroke-width:1.0;"/><line style="stroke:#000000;stroke-width:1.0;" x1="643.25" x2="643.25" y1="235.6245" y2="301.9458"/><polygon fill="#000000" points="639.25,291.9458,643.25,301.9458,647.25,291.9458,643.25,295.9458" style="stroke:#000000;stroke-width:1.0;"/><line style="stroke:#000000;stroke-width:1.0;" x1="320.25" x2="320.25" y1="1092.2534" y2="1112.2534"/><polygon fill="#000000" points="316.25,1102.2534,320.25,1112.2534,324.25,1102.2534,320.25,1106.2534" style="stroke:#000000;stroke-width:1.0;"/><line style="stroke:#000000;stroke-width:1.0;" x1="320.25" x2="320.25" y1="1146.8374" y2="1176.144"/><polygon fill="#000000" points="316.25,1166.144,320.25,1176.144,324.25,1166.144,320.25,1170.144" style="stroke:#000000;stroke-width:1.0;"/><line style="stroke:#000000;stroke-width:1.0;" x1="320.25" x2="320.25" y1="1210.728" y2="1251.4417"/><polygon fill="#000000" points="316.25,1241.4417,320.25,1251.4417,324.25,1241.4417,320.25,1245.4417" style="stroke:#000000;stroke-width:1.0;"/><line style="stroke:#000000;stroke-width:1.0;" x1="586.25" x2="320.25" y1="1035.6694" y2="1035.6694"/><line style="stroke:#000000;stroke-width:1.0;" x1="320.25" x2="320.25" y1="1035.6694" y2="1057.6694"/><polygon fill="#000000" points="316.25,1047.6694,320.25,1057.6694,324.25,1047.6694,320.25,1051.6694" style="stroke:#000000;stroke-width:1.0;"/><line style="stroke:#000000;stroke-width:1.0;" x1="700.25" x2="966.25" y1="1035.6694" y2="1035.6694"/><line style="stroke:#000000;stroke-width:1.0;" x1="966.25" x2="966.25" y1="1035.6694" y2="1057.6694"/><polygon fill="#000000" points="962.25,1047.6694,966.25,1057.6694,970.25,1047.6694,966.25,1051.6694" style="stroke:#000000;stroke-width:1.0;"/><line style="stroke:#000000;stroke-width:1.0;" x1="320.25" x2="320.25" y1="1286.0256" y2="1315.4326"/><line style="stroke:#000000;stroke-width:1.0;" x1="320.25" x2="631.25" y1="1315.4326" y2="1315.4326"/><polygon fill="#000000" points="621.25,1311.4326,631.25,1315.4326,621.25,1319.4326,625.25,1315.4326" style="stroke:#000000;stroke-width:1.0;"/><line style="stroke:#000000;stroke-width:1.0;" x1="966.25" x2="966.25" y1="1092.2534" y2="1315.4326"/><line style="stroke:#000000;stroke-width:1.0;" x1="966.25" x2="655.25" y1="1315.4326" y2="1315.4326"/><polygon fill="#000000" points="665.25,1311.4326,655.25,1315.4326,665.25,1319.4326,661.25,1315.4326" style="stroke:#000000;stroke-width:1.0;"/><line style="stroke:#000000;stroke-width:1.0;" x1="643.25" x2="643.25" y1="1000.1621" y2="1023.6694"/><polygon fill="#000000" points="639.25,1013.6694,643.25,1023.6694,647.25,1013.6694,643.25,1017.6694" style="stroke:#000000;stroke-width:1.0;"/><line style="stroke:#000000;stroke-width:1.0;" x1="643.25" x2="643.25" y1="903.5635" y2="965.5781"/><polygon fill="#000000" points="639.25,955.5781,643.25,965.5781,647.25,955.5781,643.25,959.5781" style="stroke:#000000;stroke-width:1.0;"/><line style="stroke:#000000;stroke-width:1.0;" x1="301.5" x2="301.5" y1="1516.1226" y2="1536.1226"/><polygon fill="#000000" points="297.5,1526.1226,301.5,1536.1226,305.5,1526.1226,301.5,1530.1226" style="stroke:#000000;stroke-width:1.0;"/><line style="stroke:#000000;stroke-width:1.0;" x1="301.5" x2="301.5" y1="1570.7065" y2="1590.7065"/><polygon fill="#000000" points="297.5,1580.7065,301.5,1590.7065,305.5,1580.7065,301.5,1584.7065" style="stroke:#000000;stroke-width:1.0;"/><line style="stroke:#000000;stroke-width:1.0;" x1="301.5" x2="301.5" y1="1625.2905" y2="1654.5972"/><polygon fill="#000000" points="297.5,1644.5972,301.5,1654.5972,305.5,1644.5972,301.5,1648.5972" style="stroke:#000000;stroke-width:1.0;"/><line style="stroke:#000000;stroke-width:1.0;" x1="301.5" x2="301.5" y1="1689.1812" y2="1729.8948"/><polygon fill="#000000" points="297.5,1719.8948,301.5,1729.8948,305.5,1719.8948,301.5,1723.8948" style="stroke:#000000;stroke-width:1.0;"/><line style="stroke:#000000;stroke-width:1.0;" x1="586.25" x2="301.5" y1="1459.5386" y2="1459.5386"/><line style="stroke:#000000;stroke-width:1.0;" x1="301.5" x2="301.5" y1="1459.5386" y2="1481.5386"/><polygon fill="#000000" points="297.5,1471.5386,301.5,1481.5386,305.5,1471.5386,301.5,1475.5386" style="stroke:#000000;stroke-width:1.0;"/><line style="stroke:#000000;stroke-width:1.0;" x1="700.25" x2="985" y1="1459.5386" y2="1459.5386"/><line style="stroke:#000000;stroke-width:1.0;" x1="985" x2="985" y1="1459.5386" y2="1481.5386"/><polygon fill="#000000" points="981,1471.5386,985,1481.5386,989,1471.5386,985,1475.5386" style="stroke:#000000;stroke-width:1.0;"/><line style="stroke:#000000;stroke-width:1.0;" x1="301.5" x2="301.5" y1="1764.4788" y2="1793.8857"/><line style="stroke:#000000;stroke-width:1.0;" x1="301.5" x2="631.25" y1="1793.8857" y2="1793.8857"/><polygon fill="#000000" points="621.25,1789.8857,631.25,1793.8857,621.25,1797.8857,625.25,1793.8857" style="stroke:#000000;stroke-width:1.0;"/><line style="stroke:#000000;stroke-width:1.0;" x1="985" x2="985" y1="1516.1226" y2="1793.8857"/><line style="stroke:#000000;stroke-width:1.0;" x1="985" x2="655.25" y1="1793.8857" y2="1793.8857"/><polygon fill="#000000" points="665.25,1789.8857,655.25,1793.8857,665.25,1797.8857,661.25,1793.8857" style="stroke:#000000;stroke-width:1.0;"/><line style="stroke:#000000;stroke-width:1.0;" x1="643.25" x2="643.25" y1="1424.0313" y2="1447.5386"/><polygon fill="#000000" points="639.25,1437.5386,643.25,1447.5386,647.25,1437.5386,643.25,1441.5386" style="stroke:#000000;stroke-width:1.0;"/><line style="stroke:#000000;stroke-width:1.0;" x1="643.25" x2="643.25" y1="1327.4326" y2="1389.4473"/><polygon fill="#000000" points="639.25,1379.4473,643.25,1389.4473,647.25,1379.4473,643.25,1383.4473" style="stroke:#000000;stroke-width:1.0;"/><line style="stroke:#000000;stroke-width:1.0;" x1="643.25" x2="643.25" y1="1805.8857" y2="1855.092"/><polygon fill="#000000" points="639.25,1845.092,643.25,1855.092,647.25,1845.092,643.25,1849.092" style="stroke:#000000;stroke-width:1.0;"/><line style="stroke:#000000;stroke-width:1.0;" x1="643.25" x2="643.25" y1="1889.676" y2="2001.4866"/><polygon fill="#000000" points="639.25,1991.4866,643.25,2001.4866,647.25,1991.4866,643.25,1995.4866" style="stroke:#000000;stroke-width:1.0;"/><line style="stroke:#000000;stroke-width:1.0;" x1="643.25" x2="643.25" y1="2036.0706" y2="2130.6748"/><polygon fill="#000000" points="639.25,2120.6748,643.25,2130.6748,647.25,2120.6748,643.25,2124.6748" style="stroke:#000000;stroke-width:1.0;"/><!--SRC=[jLTDSzis4BthLsnoafp8hUsRF9sEJFb3YHrfJ7bqo6Gy4BcIK5C41m2Rgftyzou8y5EKAjSJZmysk5YyVRjliNYdrxX1I2B6uuxcEaBu8kI6HJ0C0f766iQnGgcX3pEsMl5u1JUH-0xT2_0r9ghNwIZDfEvq1kCuIVK0Rb5R3yx1TKnkjr-_NNPYeH4aNwrr1-Z7YvXIVCanX21LMcnGAlZEzNgGVUw3HwlZy2DuJEDAoEquT1_yWCKEpMoROClglB7k9nXm5jtpm4yNsJUCGp202BWdaKw0gHG1AkLSF8WGenRKuvXhyiJ_Hj2Ea8qnpK6xxUCH_0Q_rjVCkTNLEMnGInweRB44b12VT8Y8uRtX6Cu6EJQpnpWZohoSilVm3paStF18ewmokKQ9kwJGMMUNj85- -HAwTonpMcpxlGTK4J5qjqYvDK07tXg3brifqkGAjIP7mpXyn3ymq3c6IsV8eWYycVziyv_dDs0cbkTQKJpFvgqUdxF3uAi__MQTDjWtFu-eKnbNkIZG3mgZIY8-GhDMSlxfTC-WgIrMSJrINTG-pdZmWjfYtVauGlMYHVAas0gBZqLQpJ-E9rjlv2s3V_rN4AKX5WMt9-nFWiULc3yOfjiZptGpgYxa0XgryRCNfac51Kbs3cKprIElFTkpkKsbstPSHilYrMkcmR-RFDsFO66LXc5XtysyAgCGcKQeOC4KKKB_vf4IFGvtRrzuJZ0beuijOEaNLHhflOW_8-bInD6sWbbcKLX7rTZt0NX0kSBA-I7J3BHewqDxSOoN1G2ebOV5NwqA7tKZvplh3O5aNuecrGm38uNGZONh4luBJuorQue6CHdpPUV7RaCxBnlQK2b1dJdxQ7e_J8U76rgjlvfJTbYPcBGapd-vdUoS0Oj8WE7MLPNXpRRPJYs-IeCyr1qpMTgRIfdi1MApONs553FLOWYAoBDqv7cd2zBOgqhenCOYmerhZYqQCniQ2YCtZekhRSNLd4YS3b-hD-OS462NXOCDfKn2jvf0NPNSpjLtM0TLFuJ_hM8u7D1hjF0V9T_0VKpvNxJTvsv20JkY_7GDD6iVXBH_dVyl5VWOqOte2eMQR-lCTPdRodo04l39dtnfY2E_5uspgstDox6tJtFMi0vhhbupQTHpKoRjM8qqzhz59dHsmzjRbR9cEm4wW3z9CUs7rHGpy4JyftbrjCxa9bhxAZdkeN73OphEteZr1qRni83kKeeD1BKowksCzDRgeg-CKcfft4rXRS3laeZSvOXXh_hucAGwUpOT3AWUqSb9_XIRIYuasPoSc93EJYlzf9lDiU06sL_ioDeZL7VZsxjhVqRsvwTjro-PF5oFnayFP75nkhT3aTdzP6uTPPW-unOUpJHcmVJXcic8Ku7bpoHJQ8a3d1dSCzFS39SAbAaC8gbnDtTBxjzHh-jPnutfZoK9TJigYdByoEmQhTcOcSScdK9qbkd8R1l1rMn1KBihugWaZnIKTFu5]--></g></svg>