<svg xmlns="http://www.w3.org/2000/svg" xmlns:xlink="http://www.w3.org/1999/xlink" contentStyleType="text/css" height="2342px" preserveAspectRatio="none" style="width:2174px;height:2342px;background:#FFFFFF;" version="1.1" viewBox="0 0 2174 2342" width="2174px" zoomAndPan="magnify"><defs/><g><text fill="#000000" font-family="Verdana" font-size="22" font-weight="bold" lengthAdjust="spacing" textLength="557" x="807.125" y="37.1182">Normal Account Insert - Main Business Flow</text><ellipse cx="1047" cy="62.7373" fill="#FFFFFF" rx="10" ry="10" style="stroke:#000000;stroke-width:1.0;"/><path d="M1160.5,82.7373 L1160.5,123.2356 L1140.5,127.2356 L1160.5,131.2356 L1160.5,171.7339 A0,0 0 0 0 1160.5,171.7339 L1537.5,171.7339 A0,0 0 0 0 1537.5,171.7339 L1537.5,92.7373 L1527.5,82.7373 L1160.5,82.7373 A0,0 0 0 0 1160.5,82.7373 " fill="#FFFFFF" style="stroke:#000000;stroke-width:1.0;"/><path d="M1527.5,82.7373 L1527.5,92.7373 L1537.5,92.7373 L1527.5,82.7373 " fill="#FFFFFF" style="stroke:#000000;stroke-width:1.0;"/><text fill="#000000" font-family="Verdana" font-size="13" lengthAdjust="spacing" textLength="356" x="1166.5" y="100.8071">Endpoint: /api/classificationJobs/normalAccountInsert</text><text fill="#000000" font-family="Verdana" font-size="13" lengthAdjust="spacing" textLength="80" x="1166.5" y="116.6064">Parameters:</text><text fill="#000000" font-family="Verdana" font-size="13" lengthAdjust="spacing" textLength="164" x="1166.5" y="132.4058">- batchExternalSize (int)</text><text fill="#000000" font-family="Verdana" font-size="13" lengthAdjust="spacing" textLength="261" x="1166.5" y="148.2051">- batchInternalSize (int, default: 5000)</text><text fill="#000000" font-family="Verdana" font-size="13" lengthAdjust="spacing" textLength="120" x="1166.5" y="164.0044">- isLogData (bool)</text><rect fill="#FFFFFF" height="34.584" rx="12.5" ry="12.5" style="stroke:#000000;stroke-width:1.0;" width="187" x="953.5" y="109.9436"/><text fill="#000000" font-family="Verdana" font-size="12" lengthAdjust="spacing" textLength="167" x="963.5" y="132.0081">Job Triggered (HTTP POST)</text><rect fill="#FFFFFF" height="34.584" rx="12.5" ry="12.5" style="stroke:#000000;stroke-width:1.0;" width="546" x="774" y="191.7339"/><text fill="#000000" font-family="Verdana" font-size="12" lengthAdjust="spacing" textLength="526" x="784" y="213.7983">NormalAccountJobService.Execute(batchExternalSize, batchInternalSize, isLogData)</text><polygon fill="#FFFFFF" points="980.5,246.3179,1113.5,246.3179,1125.5,258.3179,1113.5,270.3179,980.5,270.3179,968.5,258.3179,980.5,246.3179" style="stroke:#000000;stroke-width:1.0;"/><text fill="#000000" font-family="Verdana" font-size="11" lengthAdjust="spacing" textLength="133" x="980.5" y="262.6926">batchInternalSize &lt;= 0</text><text fill="#000000" font-family="Verdana" font-size="11" lengthAdjust="spacing" textLength="20" x="948.5" y="256.0083">yes</text><text fill="#000000" font-family="Verdana" font-size="11" lengthAdjust="spacing" textLength="14" x="1125.5" y="256.0083">no</text><rect fill="#FFFFFF" height="34.584" rx="12.5" ry="12.5" style="stroke:#000000;stroke-width:1.0;" width="205" x="828.75" y="280.3179"/><text fill="#000000" font-family="Verdana" font-size="12" lengthAdjust="spacing" textLength="185" x="838.75" y="302.3823">Set batchInternalSize = 5000</text><rect fill="#FFFFFF" height="34.584" rx="12.5" ry="12.5" style="stroke:#000000;stroke-width:1.0;" width="218" x="1053.75" y="280.3179"/><text fill="#000000" font-family="Verdana" font-size="12" lengthAdjust="spacing" textLength="198" x="1063.75" y="302.3823">Use provided batchInternalSize</text><polygon fill="#FFFFFF" points="1047,320.9019,1059,332.9019,1047,344.9019,1035,332.9019,1047,320.9019" style="stroke:#000000;stroke-width:1.0;"/><rect fill="#FFFFFF" height="34.584" rx="12.5" ry="12.5" style="stroke:#000000;stroke-width:1.0;" width="215" x="939.5" y="408.9019"/><text fill="#000000" font-family="Verdana" font-size="12" lengthAdjust="spacing" textLength="195" x="949.5" y="430.9663">GetNormalAccounts(isLogData)</text><path d="M1274.5,453.4858 L1274.5,541.3821 L1254.5,545.3821 L1274.5,549.3821 L1274.5,637.2783 A0,0 0 0 0 1274.5,637.2783 L1575.5,637.2783 A0,0 0 0 0 1575.5,637.2783 L1575.5,463.4858 L1565.5,453.4858 L1274.5,453.4858 A0,0 0 0 0 1274.5,453.4858 " fill="#FFFFFF" style="stroke:#000000;stroke-width:1.0;"/><path d="M1565.5,453.4858 L1565.5,463.4858 L1575.5,463.4858 L1565.5,453.4858 " fill="#FFFFFF" style="stroke:#000000;stroke-width:1.0;"/><text fill="#000000" font-family="Verdana" font-size="13" lengthAdjust="spacing" textLength="267" x="1280.5" y="471.5557">Database: bodb_VR2Model (SQL Server)</text><text fill="#000000" font-family="Verdana" font-size="13" lengthAdjust="spacing" textLength="5" x="1280.5" y="487.355">&#160;</text><text fill="#000000" font-family="Verdana" font-size="13" lengthAdjust="spacing" textLength="80" x="1280.5" y="503.1543">Parameters:</text><text fill="#000000" font-family="Verdana" font-size="13" lengthAdjust="spacing" textLength="192" x="1280.5" y="518.9536">- @ScannedMaxId (OUTPUT)</text><text fill="#000000" font-family="Verdana" font-size="13" lengthAdjust="spacing" textLength="148" x="1280.5" y="534.7529">- @IsLogData (INPUT)</text><text fill="#000000" font-family="Verdana" font-size="13" lengthAdjust="spacing" textLength="5" x="1280.5" y="550.5522">&#160;</text><text fill="#000000" font-family="Verdana" font-size="13" lengthAdjust="spacing" textLength="195" x="1280.5" y="566.3516">Returns: Classified customers</text><text fill="#000000" font-family="Verdana" font-size="13" lengthAdjust="spacing" textLength="259" x="1280.5" y="582.1509">- CustId, CategoryId, CategoryGroupId</text><text fill="#000000" font-family="Verdana" font-size="13" lengthAdjust="spacing" textLength="239" x="1280.5" y="597.9502">- TurnoverRM, WinlossRM, BetCount</text><text fill="#000000" font-family="Verdana" font-size="13" lengthAdjust="spacing" textLength="280" x="1280.5" y="613.7495">- ScanTaggingType, ScanTaggingTWType</text><text fill="#000000" font-family="Verdana" font-size="13" lengthAdjust="spacing" textLength="168" x="1280.5" y="629.5488">- ScanSpecialLicSubType</text><rect fill="#FFFFFF" height="34.584" rx="12.5" ry="12.5" style="stroke:#000000;stroke-width:1.0;" width="415" x="839.5" y="528.0901"/><text fill="#000000" font-family="Verdana" font-size="12" lengthAdjust="spacing" textLength="395" x="849.5" y="550.1545">Call CTS_GeneralNormalClassification_NormalAccount_Get [SP]</text><rect fill="#FFFFFF" height="34.584" rx="12.5" ry="12.5" style="stroke:#000000;stroke-width:1.0;" width="270" x="912" y="705.9626"/><text fill="#000000" font-family="Verdana" font-size="12" lengthAdjust="spacing" textLength="250" x="922" y="728.0271">Initialize failedThreads (ConcurrentBag)</text><rect fill="#FFFFFF" height="34.584" rx="12.5" ry="12.5" style="stroke:#000000;stroke-width:1.0;" width="263" x="915.5" y="760.5466"/><text fill="#000000" font-family="Verdana" font-size="12" lengthAdjust="spacing" textLength="243" x="925.5" y="782.6111">Chunk customers by batchInternalSize</text><rect fill="#FFFFFF" height="1150.7224" style="stroke:#000000;stroke-width:1.0;" width="2119.25" x="6" y="805.1306"/><path d="M231,805.1306 L231,815.1453 L221,825.1453 L6,825.1453 " fill="none" style="stroke:#000000;stroke-width:1.0;"/><text fill="#000000" font-family="Verdana" font-size="14" lengthAdjust="spacing" textLength="215" x="9" y="820.2058">Parallel Processing (5 Threads)</text><path d="M1182,835.1453 L1182,859.8442 L1162,863.8442 L1182,867.8442 L1182,892.5432 A0,0 0 0 0 1182,892.5432 L1386,892.5432 A0,0 0 0 0 1386,892.5432 L1386,845.1453 L1376,835.1453 L1182,835.1453 A0,0 0 0 0 1182,835.1453 " fill="#FFFFFF" style="stroke:#000000;stroke-width:1.0;"/><path d="M1376,835.1453 L1376,845.1453 L1386,845.1453 L1376,835.1453 " fill="#FFFFFF" style="stroke:#000000;stroke-width:1.0;"/><text fill="#000000" font-family="Verdana" font-size="13" lengthAdjust="spacing" textLength="74" x="1188" y="853.2151">AsParallel()</text><text fill="#000000" font-family="Verdana" font-size="13" lengthAdjust="spacing" textLength="183" x="1188" y="869.0144">.WithDegreeOfParallelism(5)</text><text fill="#000000" font-family="Verdana" font-size="13" lengthAdjust="spacing" textLength="163" x="1188" y="884.8137">.ForAll(custBatch =&gt; ...)</text><rect fill="#FFFFFF" height="34.584" rx="12.5" ry="12.5" style="stroke:#000000;stroke-width:1.0;" width="230" x="932" y="846.5522"/><text fill="#000000" font-family="Verdana" font-size="12" lengthAdjust="spacing" textLength="210" x="942" y="868.6167">Process in parallel with 5 threads</text><rect fill="#FFFFFF" height="301.5918" style="stroke:#000000;stroke-width:1.0;" width="608" x="881.5" y="957.1272"/><path d="M1049.5,957.1272 L1049.5,967.1418 L1039.5,977.1418 L881.5,977.1418 " fill="none" style="stroke:#000000;stroke-width:1.0;"/><text fill="#000000" font-family="Verdana" font-size="14" lengthAdjust="spacing" textLength="158" x="884.5" y="972.2024">Step 1: Apply Tagging</text><rect fill="#FFFFFF" height="34.584" rx="12.5" ry="12.5" style="stroke:#000000;stroke-width:1.0;" width="301" x="896.5" y="994.1418"/><text fill="#000000" font-family="Verdana" font-size="12" lengthAdjust="spacing" textLength="281" x="906.5" y="1016.2063">MergeWithTaggedNormalTaggingFlow(custs)</text><path d="M1180.5,1038.7258 L1180.5,1071.3245 L1160.5,1075.3245 L1180.5,1079.3245 L1180.5,1111.9231 A0,0 0 0 0 1180.5,1111.9231 L1436.5,1111.9231 A0,0 0 0 0 1436.5,1111.9231 L1436.5,1048.7258 L1426.5,1038.7258 L1180.5,1038.7258 A0,0 0 0 0 1180.5,1038.7258 " fill="#FFFFFF" style="stroke:#000000;stroke-width:1.0;"/><path d="M1426.5,1038.7258 L1426.5,1048.7258 L1436.5,1048.7258 L1426.5,1038.7258 " fill="#FFFFFF" style="stroke:#000000;stroke-width:1.0;"/><text fill="#000000" font-family="Verdana" font-size="13" lengthAdjust="spacing" textLength="188" x="1186.5" y="1056.7957">If ScanTaggingTWType = 1:</text><text fill="#000000" font-family="Verdana" font-size="13" lengthAdjust="spacing" textLength="235" x="1186.5" y="1072.595">- Check TW Group Betting &amp; Reject</text><text fill="#000000" font-family="Verdana" font-size="13" lengthAdjust="spacing" textLength="149" x="1186.5" y="1088.3943">- Apply exclusion rules</text><text fill="#000000" font-family="Verdana" font-size="13" lengthAdjust="spacing" textLength="200" x="1186.5" y="1104.1936">- Set TaggingID + TW metrics</text><rect fill="#FFFFFF" height="34.584" rx="12.5" ry="12.5" style="stroke:#000000;stroke-width:1.0;" width="227" x="933.5" y="1058.0325"/><text fill="#000000" font-family="Verdana" font-size="12" lengthAdjust="spacing" textLength="207" x="943.5" y="1080.0969">Step 1.1: ProcessTWTaggedCust</text><path d="M1180.5,1121.9231 L1180.5,1146.6221 L1160.5,1150.6221 L1180.5,1154.6221 L1180.5,1179.321 A0,0 0 0 0 1180.5,1179.321 L1411.5,1179.321 A0,0 0 0 0 1411.5,1179.321 L1411.5,1131.9231 L1401.5,1121.9231 L1180.5,1121.9231 A0,0 0 0 0 1180.5,1121.9231 " fill="#FFFFFF" style="stroke:#000000;stroke-width:1.0;"/><path d="M1401.5,1121.9231 L1401.5,1131.9231 L1411.5,1131.9231 L1401.5,1121.9231 " fill="#FFFFFF" style="stroke:#000000;stroke-width:1.0;"/><text fill="#000000" font-family="Verdana" font-size="13" lengthAdjust="spacing" textLength="141" x="1186.5" y="1139.9929">If TaggingID still = 0:</text><text fill="#000000" font-family="Verdana" font-size="13" lengthAdjust="spacing" textLength="187" x="1186.5" y="1155.7922">- Check Association with PA</text><text fill="#000000" font-family="Verdana" font-size="13" lengthAdjust="spacing" textLength="210" x="1186.5" y="1171.5916">- Set TaggingID + TaggingType</text><rect fill="#FFFFFF" height="34.584" rx="12.5" ry="12.5" style="stroke:#000000;stroke-width:1.0;" width="227" x="933.5" y="1133.3301"/><text fill="#000000" font-family="Verdana" font-size="12" lengthAdjust="spacing" textLength="207" x="943.5" y="1155.3945">Step 1.2: ProcessAssWithPACust</text><path d="M1222.5,1189.321 L1222.5,1214.02 L1202.5,1218.02 L1222.5,1222.02 L1222.5,1246.719 A0,0 0 0 0 1222.5,1246.719 L1479.5,1246.719 A0,0 0 0 0 1479.5,1246.719 L1479.5,1199.321 L1469.5,1189.321 L1222.5,1189.321 A0,0 0 0 0 1222.5,1189.321 " fill="#FFFFFF" style="stroke:#000000;stroke-width:1.0;"/><path d="M1469.5,1189.321 L1469.5,1199.321 L1479.5,1199.321 L1469.5,1189.321 " fill="#FFFFFF" style="stroke:#000000;stroke-width:1.0;"/><text fill="#000000" font-family="Verdana" font-size="13" lengthAdjust="spacing" textLength="141" x="1228.5" y="1207.3909">If TaggingID still = 0:</text><text fill="#000000" font-family="Verdana" font-size="13" lengthAdjust="spacing" textLength="236" x="1228.5" y="1223.1902">- Check Special LicSub TW Tagging</text><text fill="#000000" font-family="Verdana" font-size="13" lengthAdjust="spacing" textLength="210" x="1228.5" y="1238.9895">- Set TaggingID + TaggingType</text><rect fill="#FFFFFF" height="34.584" rx="12.5" ry="12.5" style="stroke:#000000;stroke-width:1.0;" width="311" x="891.5" y="1200.728"/><text fill="#000000" font-family="Verdana" font-size="12" lengthAdjust="spacing" textLength="291" x="901.5" y="1222.7925">Step 1.3: ProcessTWTaggedSpecialLicSubCust</text><rect fill="#FFFFFF" height="34.584" rx="12.5" ry="12.5" style="stroke:#000000;stroke-width:1.0;" width="251" x="921.5" y="1292.1931"/><text fill="#000000" font-family="Verdana" font-size="12" lengthAdjust="spacing" textLength="231" x="931.5" y="1314.2576">InsertNormalAccount(finalNormalAcc)</text><rect fill="#FFFFFF" height="34.584" rx="12.5" ry="12.5" style="stroke:#000000;stroke-width:1.0;" width="126" x="984" y="1346.7771"/><text fill="#000000" font-family="Verdana" font-size="12" lengthAdjust="spacing" textLength="106" x="994" y="1368.8416">Serialize to JSON</text><path d="M1270,1412.4158 L1270,1445.0144 L1250,1449.0144 L1270,1453.0144 L1270,1485.613 A0,0 0 0 0 1270,1485.613 L1529,1485.613 A0,0 0 0 0 1529,1485.613 L1529,1422.4158 L1519,1412.4158 L1270,1412.4158 A0,0 0 0 0 1270,1412.4158 " fill="#FFFFFF" style="stroke:#000000;stroke-width:1.0;"/><path d="M1519,1412.4158 L1519,1422.4158 L1529,1422.4158 L1519,1412.4158 " fill="#FFFFFF" style="stroke:#000000;stroke-width:1.0;"/><text fill="#000000" font-family="Verdana" font-size="13" lengthAdjust="spacing" textLength="146" x="1276" y="1430.4856">CCInputFlow = Normal</text><text fill="#000000" font-family="Verdana" font-size="13" lengthAdjust="spacing" textLength="176" x="1276" y="1446.2849">FromAction = CTSServices</text><text fill="#000000" font-family="Verdana" font-size="13" lengthAdjust="spacing" textLength="5" x="1276" y="1462.0842">&#160;</text><text fill="#000000" font-family="Verdana" font-size="13" lengthAdjust="spacing" textLength="238" x="1276" y="1477.8835">Insert classification + tagging to DB</text><rect fill="#FFFFFF" height="34.584" rx="12.5" ry="12.5" style="stroke:#000000;stroke-width:1.0;" width="406" x="844" y="1431.7224"/><text fill="#000000" font-family="Verdana" font-size="12" lengthAdjust="spacing" textLength="386" x="854" y="1453.7869">Call BaseCustomerClassification.InsertCustomerClassification</text><rect fill="#FFFFFF" height="156.1426" style="stroke:#000000;stroke-width:1.0;" width="2063.25" x="18" y="1552.1721"/><path d="M228,1552.1721 L228,1562.1868 L218,1572.1868 L18,1572.1868 " fill="none" style="stroke:#000000;stroke-width:1.0;"/><text fill="#000000" font-family="Verdana" font-size="14" lengthAdjust="spacing" textLength="200" x="21" y="1567.2473">Parallel Tasks (4 concurrent)</text><rect fill="#000000" height="6" rx="2.5" ry="2.5" style="stroke:#000000;stroke-width:1.0;" width="2043.25" x="28" y="1589.1868"/><path d="M246,1605.1868 L246,1629.8857 L226,1633.8857 L246,1637.8857 L246,1662.5847 A0,0 0 0 0 246,1662.5847 L468,1662.5847 A0,0 0 0 0 468,1662.5847 L468,1615.1868 L458,1605.1868 L246,1605.1868 A0,0 0 0 0 246,1605.1868 " fill="#FFFFFF" style="stroke:#000000;stroke-width:1.0;"/><path d="M458,1605.1868 L458,1615.1868 L468,1615.1868 L458,1605.1868 " fill="#FFFFFF" style="stroke:#000000;stroke-width:1.0;"/><text fill="#000000" font-family="Verdana" font-size="13" lengthAdjust="spacing" textLength="172" x="252" y="1623.2566">Push to MainDB (External)</text><text fill="#000000" font-family="Verdana" font-size="13" lengthAdjust="spacing" textLength="130" x="252" y="1639.0559">- ExternalBatchSize</text><text fill="#000000" font-family="Verdana" font-size="13" lengthAdjust="spacing" textLength="201" x="252" y="1654.8552">- Update MainDB classification</text><rect fill="#FFFFFF" height="34.584" rx="12.5" ry="12.5" style="stroke:#000000;stroke-width:1.0;" width="186" x="40" y="1616.5938"/><text fill="#000000" font-family="Verdana" font-size="12" lengthAdjust="spacing" textLength="166" x="50" y="1638.6582">Task 1: PushCCToExternal</text><path d="M794,1605.1868 L794,1629.8857 L774,1633.8857 L794,1637.8857 L794,1662.5847 A0,0 0 0 0 794,1662.5847 L1036,1662.5847 A0,0 0 0 0 1036,1662.5847 L1036,1615.1868 L1026,1605.1868 L794,1605.1868 A0,0 0 0 0 794,1605.1868 " fill="#FFFFFF" style="stroke:#000000;stroke-width:1.0;"/><path d="M1026,1605.1868 L1026,1615.1868 L1036,1615.1868 L1026,1605.1868 " fill="#FFFFFF" style="stroke:#000000;stroke-width:1.0;"/><text fill="#000000" font-family="Verdana" font-size="13" lengthAdjust="spacing" textLength="161" x="800" y="1623.2566">Complete Special LicSub</text><text fill="#000000" font-family="Verdana" font-size="13" lengthAdjust="spacing" textLength="221" x="800" y="1639.0559">- For ScanSpecialLicSubType = 1</text><text fill="#000000" font-family="Verdana" font-size="13" lengthAdjust="spacing" textLength="176" x="800" y="1654.8552">- Update TW classification</text><rect fill="#FFFFFF" height="34.584" rx="12.5" ry="12.5" style="stroke:#000000;stroke-width:1.0;" width="296" x="478" y="1616.5938"/><text fill="#000000" font-family="Verdana" font-size="12" lengthAdjust="spacing" textLength="276" x="488" y="1638.6582">Task 2: CompleteSpecialLicSubClassification</text><path d="M1364,1605.1868 L1364,1629.8857 L1344,1633.8857 L1364,1637.8857 L1364,1662.5847 A0,0 0 0 0 1364,1662.5847 L1611,1662.5847 A0,0 0 0 0 1611,1662.5847 L1611,1615.1868 L1601,1605.1868 L1364,1605.1868 A0,0 0 0 0 1364,1605.1868 " fill="#FFFFFF" style="stroke:#000000;stroke-width:1.0;"/><path d="M1601,1605.1868 L1601,1615.1868 L1611,1615.1868 L1601,1605.1868 " fill="#FFFFFF" style="stroke:#000000;stroke-width:1.0;"/><text fill="#000000" font-family="Verdana" font-size="13" lengthAdjust="spacing" textLength="226" x="1370" y="1623.2566">Preprocess Dangerous Association</text><text fill="#000000" font-family="Verdana" font-size="13" lengthAdjust="spacing" textLength="198" x="1370" y="1639.0559">- For customers needing scan</text><text fill="#000000" font-family="Verdana" font-size="13" lengthAdjust="spacing" textLength="200" x="1370" y="1654.8552">- Queue for association check</text><rect fill="#FFFFFF" height="34.584" rx="12.5" ry="12.5" style="stroke:#000000;stroke-width:1.0;" width="280" x="1064" y="1616.5938"/><text fill="#000000" font-family="Verdana" font-size="12" lengthAdjust="spacing" textLength="260" x="1074" y="1638.6582">Task 3: PreprocessDangerousAssociation</text><path d="M1837.25,1605.1868 L1837.25,1629.8857 L1817.25,1633.8857 L1837.25,1637.8857 L1837.25,1662.5847 A0,0 0 0 0 1837.25,1662.5847 L2059.25,1662.5847 A0,0 0 0 0 2059.25,1662.5847 L2059.25,1615.1868 L2049.25,1605.1868 L1837.25,1605.1868 A0,0 0 0 0 1837.25,1605.1868 " fill="#FFFFFF" style="stroke:#000000;stroke-width:1.0;"/><path d="M2049.25,1605.1868 L2049.25,1615.1868 L2059.25,1615.1868 L2049.25,1605.1868 " fill="#FFFFFF" style="stroke:#000000;stroke-width:1.0;"/><text fill="#000000" font-family="Verdana" font-size="13" lengthAdjust="spacing" textLength="200" x="1843.25" y="1623.2566">Delete from Anti-Fraud Center</text><text fill="#000000" font-family="Verdana" font-size="13" lengthAdjust="spacing" textLength="201" x="1843.25" y="1639.0559">- Remove from AFC monitoring</text><text fill="#000000" font-family="Verdana" font-size="13" lengthAdjust="spacing" textLength="111" x="1843.25" y="1654.8552">- Sync AFC data</text><rect fill="#FFFFFF" height="34.584" rx="12.5" ry="12.5" style="stroke:#000000;stroke-width:1.0;" width="191" x="1626.25" y="1616.5938"/><text fill="#000000" font-family="Verdana" font-size="12" lengthAdjust="spacing" textLength="171" x="1636.25" y="1638.6582">Task 4: DeleteAFCAccounts</text><rect fill="#000000" height="6" rx="2.5" ry="2.5" style="stroke:#000000;stroke-width:1.0;" width="2043.25" x="28" y="1682.5847"/><rect fill="#FFFFFF" height="34.584" rx="12.5" ry="12.5" style="stroke:#000000;stroke-width:1.0;" width="193" x="950.5" y="1777.269"/><text fill="#000000" font-family="Verdana" font-size="12" lengthAdjust="spacing" textLength="173" x="960.5" y="1799.3335">Add failure to failedThreads</text><polygon fill="#FFFFFF" points="989,1728.5847,1105,1728.5847,1117,1740.5847,1105,1752.5847,989,1752.5847,977,1740.5847,989,1728.5847" style="stroke:#000000;stroke-width:1.0;"/><text fill="#000000" font-family="Verdana" font-size="11" lengthAdjust="spacing" textLength="14" x="1051" y="1763.6438">no</text><text fill="#000000" font-family="Verdana" font-size="11" lengthAdjust="spacing" textLength="116" x="989" y="1744.9595">All tasks successful?</text><polygon fill="#FFFFFF" points="1047,1831.853,1059,1843.853,1047,1855.853,1035,1843.853,1047,1831.853" style="stroke:#000000;stroke-width:1.0;"/><polygon fill="#FFFFFF" points="995,1505.613,1099,1505.613,1111,1517.613,1099,1529.613,995,1529.613,983,1517.613,995,1505.613" style="stroke:#000000;stroke-width:1.0;"/><text fill="#000000" font-family="Verdana" font-size="11" lengthAdjust="spacing" textLength="20" x="1051" y="1540.6721">yes</text><text fill="#000000" font-family="Verdana" font-size="11" lengthAdjust="spacing" textLength="104" x="995" y="1521.9878">Insert Successful?</text><polygon fill="#FFFFFF" points="1047,1875.853,1059,1887.853,1047,1899.853,1035,1887.853,1047,1875.853" style="stroke:#000000;stroke-width:1.0;"/><rect fill="#FFFFFF" height="34.584" rx="12.5" ry="12.5" style="stroke:#000000;stroke-width:1.0;" width="173" x="960.5" y="912.5432"/><text fill="#000000" font-family="Verdana" font-size="12" lengthAdjust="spacing" textLength="153" x="970.5" y="934.6077">For each batch (parallel)</text><polygon fill="#FFFFFF" points="976,1919.853,1118,1919.853,1130,1931.853,1118,1943.853,976,1943.853,964,1931.853,976,1919.853" style="stroke:#000000;stroke-width:1.0;"/><text fill="#000000" font-family="Verdana" font-size="11" lengthAdjust="spacing" textLength="142" x="976" y="1936.2278">More batches in parallel?</text><rect fill="#FFFFFF" height="34.584" rx="12.5" ry="12.5" style="stroke:#000000;stroke-width:1.0;" width="460" x="817" y="1975.853"/><text fill="#000000" font-family="Verdana" font-size="12" lengthAdjust="spacing" textLength="440" x="827" y="1997.9175">CompleteNormalAccountInsert(scannedMaxId, failedThreads.IsEmpty)</text><polygon fill="#FFFFFF" points="982.5,2030.437,1111.5,2030.437,1123.5,2042.437,1111.5,2054.437,982.5,2054.437,970.5,2042.437,982.5,2030.437" style="stroke:#000000;stroke-width:1.0;"/><text fill="#000000" font-family="Verdana" font-size="11" lengthAdjust="spacing" textLength="129" x="982.5" y="2046.8118">All threads successful?</text><text fill="#000000" font-family="Verdana" font-size="11" lengthAdjust="spacing" textLength="20" x="950.5" y="2040.1274">yes</text><text fill="#000000" font-family="Verdana" font-size="11" lengthAdjust="spacing" textLength="14" x="1123.5" y="2040.1274">no</text><path d="M1002.25,2064.437 L1002.25,2089.136 L982.25,2093.136 L1002.25,2097.136 L1002.25,2121.835 A0,0 0 0 0 1002.25,2121.835 L1225.25,2121.835 A0,0 0 0 0 1225.25,2121.835 L1225.25,2074.437 L1215.25,2064.437 L1002.25,2064.437 A0,0 0 0 0 1002.25,2064.437 " fill="#FFFFFF" style="stroke:#000000;stroke-width:1.0;"/><path d="M1215.25,2064.437 L1215.25,2074.437 L1225.25,2074.437 L1215.25,2064.437 " fill="#FFFFFF" style="stroke:#000000;stroke-width:1.0;"/><text fill="#000000" font-family="Verdana" font-size="13" lengthAdjust="spacing" textLength="129" x="1008.25" y="2082.5068">Mark as processed:</text><text fill="#000000" font-family="Verdana" font-size="13" lengthAdjust="spacing" textLength="163" x="1008.25" y="2098.3062">UPDATE IsProcessed = 1</text><text fill="#000000" font-family="Verdana" font-size="13" lengthAdjust="spacing" textLength="202" x="1008.25" y="2114.1055">WHERE ID &lt;= @ScannedMaxId</text><rect fill="#FFFFFF" height="34.584" rx="12.5" ry="12.5" style="stroke:#000000;stroke-width:1.0;" width="453" x="529.25" y="2075.844"/><text fill="#000000" font-family="Verdana" font-size="12" lengthAdjust="spacing" textLength="433" x="539.25" y="2097.9084">Call CTS_GeneralNormalClassification_NormalAccount_Complete [SP]</text><path d="M1451.25,2064.437 L1451.25,2081.2363 L1431.25,2085.2363 L1451.25,2089.2363 L1451.25,2106.0356 A0,0 0 0 0 1451.25,2106.0356 L1616.25,2106.0356 A0,0 0 0 0 1616.25,2106.0356 L1616.25,2074.437 L1606.25,2064.437 L1451.25,2064.437 A0,0 0 0 0 1451.25,2064.437 " fill="#FFFFFF" style="stroke:#000000;stroke-width:1.0;"/><path d="M1606.25,2064.437 L1606.25,2074.437 L1616.25,2074.437 L1606.25,2064.437 " fill="#FFFFFF" style="stroke:#000000;stroke-width:1.0;"/><text fill="#000000" font-family="Verdana" font-size="13" lengthAdjust="spacing" textLength="144" x="1457.25" y="2082.5068">Failed batches remain</text><text fill="#000000" font-family="Verdana" font-size="13" lengthAdjust="spacing" textLength="121" x="1457.25" y="2098.3062">for next execution</text><rect fill="#FFFFFF" height="34.584" rx="12.5" ry="12.5" style="stroke:#000000;stroke-width:1.0;" width="186" x="1245.25" y="2067.9443"/><text fill="#000000" font-family="Verdana" font-size="12" lengthAdjust="spacing" textLength="166" x="1255.25" y="2090.0088">Skip completion (will retry)</text><polygon fill="#FFFFFF" points="1047,2127.835,1059,2139.835,1047,2151.835,1035,2139.835,1047,2127.835" style="stroke:#000000;stroke-width:1.0;"/><polygon fill="#FFFFFF" points="1000.5,657.2783,1093.5,657.2783,1105.5,669.2783,1093.5,681.2783,1000.5,681.2783,988.5,669.2783,1000.5,657.2783" style="stroke:#000000;stroke-width:1.0;"/><text fill="#000000" font-family="Verdana" font-size="11" lengthAdjust="spacing" textLength="20" x="1051" y="692.3374">yes</text><text fill="#000000" font-family="Verdana" font-size="11" lengthAdjust="spacing" textLength="93" x="1000.5" y="673.6531">Has Customers?</text><polygon fill="#FFFFFF" points="1047,2171.835,1059,2183.835,1047,2195.835,1035,2183.835,1047,2171.835" style="stroke:#000000;stroke-width:1.0;"/><polygon fill="#FFFFFF" points="1047,364.9019,1059,376.9019,1047,388.9019,1035,376.9019,1047,364.9019" style="stroke:#000000;stroke-width:1.0;"/><polygon fill="#FFFFFF" points="991,2215.835,1103,2215.835,1115,2227.835,1103,2239.835,991,2239.835,979,2227.835,991,2215.835" style="stroke:#000000;stroke-width:1.0;"/><text fill="#000000" font-family="Verdana" font-size="11" lengthAdjust="spacing" textLength="112" x="991" y="2232.2097">IsContinute = true?</text><rect fill="#FFFFFF" height="34.584" rx="12.5" ry="12.5" style="stroke:#000000;stroke-width:1.0;" width="116" x="989" y="2259.835"/><text fill="#000000" font-family="Verdana" font-size="12" lengthAdjust="spacing" textLength="96" x="999" y="2281.8994">Return Success</text><ellipse cx="1047" cy="2325.4189" fill="none" rx="11" ry="11" style="stroke:#000000;stroke-width:1.0;"/><ellipse cx="1047" cy="2325.4189" fill="#FFFFFF" rx="6" ry="6" style="stroke:#000000;stroke-width:1.0;"/><line style="stroke:#000000;stroke-width:1.0;" x1="1047" x2="1047" y1="72.7373" y2="109.9436"/><polygon fill="#000000" points="1043,99.9436,1047,109.9436,1051,99.9436,1047,103.9436" style="stroke:#000000;stroke-width:1.0;"/><line style="stroke:#000000;stroke-width:1.0;" x1="1047" x2="1047" y1="144.5276" y2="191.7339"/><polygon fill="#000000" points="1043,181.7339,1047,191.7339,1051,181.7339,1047,185.7339" style="stroke:#000000;stroke-width:1.0;"/><line style="stroke:#000000;stroke-width:1.0;" x1="968.5" x2="931.25" y1="258.3179" y2="258.3179"/><line style="stroke:#000000;stroke-width:1.0;" x1="931.25" x2="931.25" y1="258.3179" y2="280.3179"/><polygon fill="#000000" points="927.25,270.3179,931.25,280.3179,935.25,270.3179,931.25,274.3179" style="stroke:#000000;stroke-width:1.0;"/><line style="stroke:#000000;stroke-width:1.0;" x1="1125.5" x2="1162.75" y1="258.3179" y2="258.3179"/><line style="stroke:#000000;stroke-width:1.0;" x1="1162.75" x2="1162.75" y1="258.3179" y2="280.3179"/><polygon fill="#000000" points="1158.75,270.3179,1162.75,280.3179,1166.75,270.3179,1162.75,274.3179" style="stroke:#000000;stroke-width:1.0;"/><line style="stroke:#000000;stroke-width:1.0;" x1="931.25" x2="931.25" y1="314.9019" y2="332.9019"/><line style="stroke:#000000;stroke-width:1.0;" x1="931.25" x2="1035" y1="332.9019" y2="332.9019"/><polygon fill="#000000" points="1025,328.9019,1035,332.9019,1025,336.9019,1029,332.9019" style="stroke:#000000;stroke-width:1.0;"/><line style="stroke:#000000;stroke-width:1.0;" x1="1162.75" x2="1162.75" y1="314.9019" y2="332.9019"/><line style="stroke:#000000;stroke-width:1.0;" x1="1162.75" x2="1059" y1="332.9019" y2="332.9019"/><polygon fill="#000000" points="1069,328.9019,1059,332.9019,1069,336.9019,1065,332.9019" style="stroke:#000000;stroke-width:1.0;"/><line style="stroke:#000000;stroke-width:1.0;" x1="1047" x2="1047" y1="226.3179" y2="246.3179"/><polygon fill="#000000" points="1043,236.3179,1047,246.3179,1051,236.3179,1047,240.3179" style="stroke:#000000;stroke-width:1.0;"/><line style="stroke:#000000;stroke-width:1.0;" x1="1047" x2="1047" y1="443.4858" y2="528.0901"/><polygon fill="#000000" points="1043,518.0901,1047,528.0901,1051,518.0901,1047,522.0901" style="stroke:#000000;stroke-width:1.0;"/><line style="stroke:#000000;stroke-width:1.0;" x1="1047" x2="1047" y1="740.5466" y2="760.5466"/><polygon fill="#000000" points="1043,750.5466,1047,760.5466,1051,750.5466,1047,754.5466" style="stroke:#000000;stroke-width:1.0;"/><line style="stroke:#000000;stroke-width:1.0;" x1="1047" x2="1047" y1="1028.7258" y2="1058.0325"/><polygon fill="#000000" points="1043,1048.0325,1047,1058.0325,1051,1048.0325,1047,1052.0325" style="stroke:#000000;stroke-width:1.0;"/><line style="stroke:#000000;stroke-width:1.0;" x1="1047" x2="1047" y1="1092.6165" y2="1133.3301"/><polygon fill="#000000" points="1043,1123.3301,1047,1133.3301,1051,1123.3301,1047,1127.3301" style="stroke:#000000;stroke-width:1.0;"/><line style="stroke:#000000;stroke-width:1.0;" x1="1047" x2="1047" y1="1167.9141" y2="1200.728"/><polygon fill="#000000" points="1043,1190.728,1047,1200.728,1051,1190.728,1047,1194.728" style="stroke:#000000;stroke-width:1.0;"/><line style="stroke:#000000;stroke-width:1.0;" x1="1047" x2="1047" y1="1235.312" y2="1292.1931"/><polygon fill="#000000" points="1043,1282.1931,1047,1292.1931,1051,1282.1931,1047,1286.1931" style="stroke:#000000;stroke-width:1.0;"/><line style="stroke:#000000;stroke-width:1.0;" x1="1047" x2="1047" y1="1326.7771" y2="1346.7771"/><polygon fill="#000000" points="1043,1336.7771,1047,1346.7771,1051,1336.7771,1047,1340.7771" style="stroke:#000000;stroke-width:1.0;"/><line style="stroke:#000000;stroke-width:1.0;" x1="1047" x2="1047" y1="1381.3611" y2="1431.7224"/><polygon fill="#000000" points="1043,1421.7224,1047,1431.7224,1051,1421.7224,1047,1425.7224" style="stroke:#000000;stroke-width:1.0;"/><line style="stroke:#000000;stroke-width:1.0;" x1="133" x2="133" y1="1595.1868" y2="1616.5938"/><polygon fill="#000000" points="129,1606.5938,133,1616.5938,137,1606.5938,133,1610.5938" style="stroke:#000000;stroke-width:1.0;"/><line style="stroke:#000000;stroke-width:1.0;" x1="626" x2="626" y1="1595.1868" y2="1616.5938"/><polygon fill="#000000" points="622,1606.5938,626,1616.5938,630,1606.5938,626,1610.5938" style="stroke:#000000;stroke-width:1.0;"/><line style="stroke:#000000;stroke-width:1.0;" x1="1204" x2="1204" y1="1595.1868" y2="1616.5938"/><polygon fill="#000000" points="1200,1606.5938,1204,1616.5938,1208,1606.5938,1204,1610.5938" style="stroke:#000000;stroke-width:1.0;"/><line style="stroke:#000000;stroke-width:1.0;" x1="1721.75" x2="1721.75" y1="1595.1868" y2="1616.5938"/><polygon fill="#000000" points="1717.75,1606.5938,1721.75,1616.5938,1725.75,1606.5938,1721.75,1610.5938" style="stroke:#000000;stroke-width:1.0;"/><line style="stroke:#000000;stroke-width:1.0;" x1="133" x2="133" y1="1651.1777" y2="1682.5847"/><polygon fill="#000000" points="129,1672.5847,133,1682.5847,137,1672.5847,133,1676.5847" style="stroke:#000000;stroke-width:1.0;"/><line style="stroke:#000000;stroke-width:1.0;" x1="626" x2="626" y1="1651.1777" y2="1682.5847"/><polygon fill="#000000" points="622,1672.5847,626,1682.5847,630,1672.5847,626,1676.5847" style="stroke:#000000;stroke-width:1.0;"/><line style="stroke:#000000;stroke-width:1.0;" x1="1204" x2="1204" y1="1651.1777" y2="1682.5847"/><polygon fill="#000000" points="1200,1672.5847,1204,1682.5847,1208,1672.5847,1204,1676.5847" style="stroke:#000000;stroke-width:1.0;"/><line style="stroke:#000000;stroke-width:1.0;" x1="1721.75" x2="1721.75" y1="1651.1777" y2="1682.5847"/><polygon fill="#000000" points="1717.75,1672.5847,1721.75,1682.5847,1725.75,1672.5847,1721.75,1676.5847" style="stroke:#000000;stroke-width:1.0;"/><line style="stroke:#000000;stroke-width:1.0;" x1="1047" x2="1047" y1="1752.5847" y2="1777.269"/><polygon fill="#000000" points="1043,1767.269,1047,1777.269,1051,1767.269,1047,1771.269" style="stroke:#000000;stroke-width:1.0;"/><line style="stroke:#000000;stroke-width:1.0;" x1="1117" x2="1153.5" y1="1740.5847" y2="1740.5847"/><polygon fill="#000000" points="1149.5,1784.561,1153.5,1794.561,1157.5,1784.561,1153.5,1788.561" style="stroke:#000000;stroke-width:1.0;"/><line style="stroke:#000000;stroke-width:1.0;" x1="1153.5" x2="1153.5" y1="1740.5847" y2="1843.853"/><line style="stroke:#000000;stroke-width:1.0;" x1="1153.5" x2="1059" y1="1843.853" y2="1843.853"/><polygon fill="#000000" points="1069,1839.853,1059,1843.853,1069,1847.853,1065,1843.853" style="stroke:#000000;stroke-width:1.0;"/><line style="stroke:#000000;stroke-width:1.0;" x1="1047" x2="1047" y1="1811.853" y2="1831.853"/><polygon fill="#000000" points="1043,1821.853,1047,1831.853,1051,1821.853,1047,1825.853" style="stroke:#000000;stroke-width:1.0;"/><line style="stroke:#000000;stroke-width:1.0;" x1="1047" x2="1047" y1="1688.5847" y2="1728.5847"/><polygon fill="#000000" points="1043,1718.5847,1047,1728.5847,1051,1718.5847,1047,1722.5847" style="stroke:#000000;stroke-width:1.0;"/><line style="stroke:#000000;stroke-width:1.0;" x1="1047" x2="1047" y1="1529.613" y2="1589.1868"/><polygon fill="#000000" points="1043,1579.1868,1047,1589.1868,1051,1579.1868,1047,1583.1868" style="stroke:#000000;stroke-width:1.0;"/><line style="stroke:#000000;stroke-width:1.0;" x1="1111" x2="2091.25" y1="1517.613" y2="1517.613"/><polygon fill="#000000" points="2087.25,1698.5847,2091.25,1708.5847,2095.25,1698.5847,2091.25,1702.5847" style="stroke:#000000;stroke-width:1.0;"/><line style="stroke:#000000;stroke-width:1.0;" x1="2091.25" x2="2091.25" y1="1517.613" y2="1887.853"/><line style="stroke:#000000;stroke-width:1.0;" x1="2091.25" x2="1059" y1="1887.853" y2="1887.853"/><polygon fill="#000000" points="1069,1883.853,1059,1887.853,1069,1891.853,1065,1887.853" style="stroke:#000000;stroke-width:1.0;"/><line style="stroke:#000000;stroke-width:1.0;" x1="1047" x2="1047" y1="1855.853" y2="1875.853"/><polygon fill="#000000" points="1043,1865.853,1047,1875.853,1051,1865.853,1047,1869.853" style="stroke:#000000;stroke-width:1.0;"/><line style="stroke:#000000;stroke-width:1.0;" x1="1047" x2="1047" y1="1466.3064" y2="1505.613"/><polygon fill="#000000" points="1043,1495.613,1047,1505.613,1051,1495.613,1047,1499.613" style="stroke:#000000;stroke-width:1.0;"/><line style="stroke:#000000;stroke-width:1.0;" x1="1047" x2="1047" y1="947.1272" y2="994.1418"/><polygon fill="#000000" points="1043,984.1418,1047,994.1418,1051,984.1418,1047,988.1418" style="stroke:#000000;stroke-width:1.0;"/><line style="stroke:#000000;stroke-width:1.0;" x1="1130" x2="2109.25" y1="1931.853" y2="1931.853"/><polygon fill="#000000" points="2105.25,1409.8555,2109.25,1399.8555,2113.25,1409.8555,2109.25,1405.8555" style="stroke:#000000;stroke-width:1.0;"/><line style="stroke:#000000;stroke-width:1.0;" x1="2109.25" x2="2109.25" y1="929.8352" y2="1931.853"/><line style="stroke:#000000;stroke-width:1.0;" x1="2109.25" x2="1133.5" y1="929.8352" y2="929.8352"/><polygon fill="#000000" points="1143.5,925.8352,1133.5,929.8352,1143.5,933.8352,1139.5,929.8352" style="stroke:#000000;stroke-width:1.0;"/><line style="stroke:#000000;stroke-width:1.0;" x1="1047" x2="1047" y1="1899.853" y2="1919.853"/><polygon fill="#000000" points="1043,1909.853,1047,1919.853,1051,1909.853,1047,1913.853" style="stroke:#000000;stroke-width:1.0;"/><line style="stroke:#000000;stroke-width:1.0;" x1="1047" x2="1047" y1="881.1362" y2="912.5432"/><polygon fill="#000000" points="1043,902.5432,1047,912.5432,1051,902.5432,1047,906.5432" style="stroke:#000000;stroke-width:1.0;"/><line style="stroke:#000000;stroke-width:1.0;" x1="1047" x2="1047" y1="795.1306" y2="846.5522"/><polygon fill="#000000" points="1043,836.5522,1047,846.5522,1051,836.5522,1047,840.5522" style="stroke:#000000;stroke-width:1.0;"/><line style="stroke:#000000;stroke-width:1.0;" x1="1047" x2="1047" y1="1943.853" y2="1975.853"/><polygon fill="#000000" points="1043,1965.853,1047,1975.853,1051,1965.853,1047,1969.853" style="stroke:#000000;stroke-width:1.0;"/><line style="stroke:#000000;stroke-width:1.0;" x1="970.5" x2="755.75" y1="2042.437" y2="2042.437"/><line style="stroke:#000000;stroke-width:1.0;" x1="755.75" x2="755.75" y1="2042.437" y2="2075.844"/><polygon fill="#000000" points="751.75,2065.844,755.75,2075.844,759.75,2065.844,755.75,2069.844" style="stroke:#000000;stroke-width:1.0;"/><line style="stroke:#000000;stroke-width:1.0;" x1="1123.5" x2="1338.25" y1="2042.437" y2="2042.437"/><line style="stroke:#000000;stroke-width:1.0;" x1="1338.25" x2="1338.25" y1="2042.437" y2="2067.9443"/><polygon fill="#000000" points="1334.25,2057.9443,1338.25,2067.9443,1342.25,2057.9443,1338.25,2061.9443" style="stroke:#000000;stroke-width:1.0;"/><line style="stroke:#000000;stroke-width:1.0;" x1="755.75" x2="755.75" y1="2110.428" y2="2139.835"/><line style="stroke:#000000;stroke-width:1.0;" x1="755.75" x2="1035" y1="2139.835" y2="2139.835"/><polygon fill="#000000" points="1025,2135.835,1035,2139.835,1025,2143.835,1029,2139.835" style="stroke:#000000;stroke-width:1.0;"/><line style="stroke:#000000;stroke-width:1.0;" x1="1338.25" x2="1338.25" y1="2102.5283" y2="2139.835"/><line style="stroke:#000000;stroke-width:1.0;" x1="1338.25" x2="1059" y1="2139.835" y2="2139.835"/><polygon fill="#000000" points="1069,2135.835,1059,2139.835,1069,2143.835,1065,2139.835" style="stroke:#000000;stroke-width:1.0;"/><line style="stroke:#000000;stroke-width:1.0;" x1="1047" x2="1047" y1="2010.437" y2="2030.437"/><polygon fill="#000000" points="1043,2020.437,1047,2030.437,1051,2020.437,1047,2024.437" style="stroke:#000000;stroke-width:1.0;"/><line style="stroke:#000000;stroke-width:1.0;" x1="1047" x2="1047" y1="681.2783" y2="705.9626"/><polygon fill="#000000" points="1043,695.9626,1047,705.9626,1051,695.9626,1047,699.9626" style="stroke:#000000;stroke-width:1.0;"/><line style="stroke:#000000;stroke-width:1.0;" x1="1105.5" x2="2135.25" y1="669.2783" y2="669.2783"/><polygon fill="#000000" points="2131.25,1379.8555,2135.25,1389.8555,2139.25,1379.8555,2135.25,1383.8555" style="stroke:#000000;stroke-width:1.0;"/><line style="stroke:#000000;stroke-width:1.0;" x1="2135.25" x2="2135.25" y1="669.2783" y2="2183.835"/><line style="stroke:#000000;stroke-width:1.0;" x1="2135.25" x2="1059" y1="2183.835" y2="2183.835"/><polygon fill="#000000" points="1069,2179.835,1059,2183.835,1069,2187.835,1065,2183.835" style="stroke:#000000;stroke-width:1.0;"/><line style="stroke:#000000;stroke-width:1.0;" x1="1047" x2="1047" y1="2151.835" y2="2171.835"/><polygon fill="#000000" points="1043,2161.835,1047,2171.835,1051,2161.835,1047,2165.835" style="stroke:#000000;stroke-width:1.0;"/><line style="stroke:#000000;stroke-width:1.0;" x1="1047" x2="1047" y1="562.6741" y2="657.2783"/><polygon fill="#000000" points="1043,647.2783,1047,657.2783,1051,647.2783,1047,651.2783" style="stroke:#000000;stroke-width:1.0;"/><line style="stroke:#000000;stroke-width:1.0;" x1="1047" x2="1047" y1="388.9019" y2="408.9019"/><polygon fill="#000000" points="1043,398.9019,1047,408.9019,1051,398.9019,1047,402.9019" style="stroke:#000000;stroke-width:1.0;"/><line style="stroke:#000000;stroke-width:1.0;" x1="1115" x2="2153.25" y1="2227.835" y2="2227.835"/><polygon fill="#000000" points="2149.25,1272.1931,2153.25,1262.1931,2157.25,1272.1931,2153.25,1268.1931" style="stroke:#000000;stroke-width:1.0;"/><line style="stroke:#000000;stroke-width:1.0;" x1="2153.25" x2="2153.25" y1="376.9019" y2="2227.835"/><line style="stroke:#000000;stroke-width:1.0;" x1="2153.25" x2="1059" y1="376.9019" y2="376.9019"/><polygon fill="#000000" points="1069,372.9019,1059,376.9019,1069,380.9019,1065,376.9019" style="stroke:#000000;stroke-width:1.0;"/><line style="stroke:#000000;stroke-width:1.0;" x1="1047" x2="1047" y1="2195.835" y2="2215.835"/><polygon fill="#000000" points="1043,2205.835,1047,2215.835,1051,2205.835,1047,2209.835" style="stroke:#000000;stroke-width:1.0;"/><line style="stroke:#000000;stroke-width:1.0;" x1="1047" x2="1047" y1="344.9019" y2="364.9019"/><polygon fill="#000000" points="1043,354.9019,1047,364.9019,1051,354.9019,1047,358.9019" style="stroke:#000000;stroke-width:1.0;"/><line style="stroke:#000000;stroke-width:1.0;" x1="1047" x2="1047" y1="2239.835" y2="2259.835"/><polygon fill="#000000" points="1043,2249.835,1047,2259.835,1051,2249.835,1047,2253.835" style="stroke:#000000;stroke-width:1.0;"/><line style="stroke:#000000;stroke-width:1.0;" x1="1047" x2="1047" y1="2294.4189" y2="2314.4189"/><polygon fill="#000000" points="1043,2304.4189,1047,2314.4189,1051,2304.4189,1047,2308.4189" style="stroke:#000000;stroke-width:1.0;"/><!--SRC=[jLVVSzis37xNNu7rOIVV4ZVjcXTvMMVBSUfUdRYniZpiTZrQWcqkCgaZgIRUhl_xGFso92jfi-ly99CW27m0Fe0_c0rk4PAOSU4ORcA4IwcsB8PX6CfK69WAZSh0CSn814QfvWArXaaixnr76wQCuxsNImWKNwzHOGJkko2Om_ng4VG6Zf06WROsnW7wdOieaLmO3rwoXByCOwOrN_6G6Iu5gT4lHNPzSNj-UNPopXJRea6blUp_CIoP2JVd3xGaMBpWVoEufBbNtvsArkuHHBXYQKm6d9wSd9J2N7-Gwp4p3Dobb77FGH61DTrnlCkwGMJY0jLd7cB__073rA1xOCRHuTr7-ni84uUlm3sqxvSpEEa11KI0kqDjRVCMQ3eyESkC7pWOQt9Bo4pqXhuJ9J_pY69mS6PWNU8hnr6O8BEGUXTe6hvfjswa1SRpMHo37om-NQ10nU9Stcz4xLD32KaQ-6Cn_pFNq0g__LdzIwRHWwMCbfz-ltuzan76u2u-VW0BBgfU9LnzjCEVn-stHSY4m6Z67gQKU5StmVmcwDK5fll8JYyRczN7DPfK2Ur1wHVX5wRQo2tTLjFbqzeqEWAV6LnBjQj_NoYP9jEe9XsGJac-NC-Eu9QBM6fjFqTeV8jJJTBw4B3rcejri4ieL-eBjtQf9Rn8CEGi_i33HRgizlSf2s0Jx1tJcScP6szRYKMndGfkI8lDfnNZCKR1HY6BDBY-566g50epOkig5JQfkDlZ0ijTLv9Lm2P43Doc1xomeOjZYl1SoP2uWzm2znIAwtelu9_2FwyG02AQf3nqpyq6JidwJ7fGY7Ra5S1GbrUvlTfo_vPKZ76j4AzMfGJNM_Uq8JMHQXZ7hlLmP1s3ir-Xt- -NCXMyZUp9gmayEWp8w5262RYb-ViRQe0i32RmoeDXaiGxA2AzXo63OePgZTPmkurHNcE5gENUp4xT6zJEr8_dL_JfaW9JIgHCaSs8-g5E8ErlkZhCGoAULrvBZkfYW-4T1BUG5O7DS6D3_2CLrbyOcWFvt6ry26Dg9eI7IcFK1rAM-OhBfsFuoUgd-bSyh8ksWl882gyh58PQMqpdm-V0iBT26qvyI3Jz60YaNr9fPc7E4dS-_BfZ-z9_jcS_7yItmGt_avV57P1VOYDJ7FvUlduv96al7mKQlSPTSL7s95fg50DrJbMmcv7mVd5rsTZD6jk8kb39aCsUrizlwzxy9aHzVogIrDXI9IXp6riY4oMtmp3BbJFRP8l1ebqAxL3byrXpSY9eJGwjzNOyUWhSwiCsYKBR8Wrj4gtI-B1H7D1NnUS1qtVKBjv0M3MCNfF605PItRKyyEmvot_pL6zyFv3by3He2JuARZOGq67hh1rBnoDmIoMz3jbZA7SpPhUjgbFg9ecedvSgcn2t3dJKP-uiiBMTfRjS9XxovJQ9QOnfbkcZwVLL54fzhPhizCxsgCxnmTBwKtXGWNztB3BcmYGdhp4Jz7IGgQxnv_EIeL85bQuw6J-AntwU4OYHhHzD27MAVqmnHUiMi1hBXvOHlmCURpmOeutaSEANy_Yp8CXFmuf81OR2yEE9Oca4FjhvhDEXQzpIW5gScFYmbJGHIdN8umMNxqIOoL5Ei6_ns2wsolzBTpkpJ4Ip5t6O9HHzI4Rv4wU6sJ2AigarLHc_DmROGPFzwD7JzQ-OtEutT1BScIH5sUo6ZV7pRNxlb_rWwvKbTtduK7LrxJborBIgFzNdsyJiYYvLkLmCtVf91lul3x6A6lQliKTIQCPiQceeIWYZUkE_cO-7mJbCzRpSRT75xRlpQzeVs_ThuptMDJZNNwnvcxxZ2VMFp5HRJ-wz7JuKJNgxtfD6Jp9mgvWft3PBonQgm0T3WwPzf-z9e6bFaH6Dnt6P55DDBo6QPUcLJpuRbIAbW-FbxyMoPmuSOf34-HS0]--></g></svg>