<svg xmlns="http://www.w3.org/2000/svg" xmlns:xlink="http://www.w3.org/1999/xlink" contentStyleType="text/css" height="1490px" preserveAspectRatio="none" style="width:2996px;height:1490px;background:#FFFFFF;" version="1.1" viewBox="0 0 2996 1490" width="2996px" zoomAndPan="magnify"><defs/><g><text fill="#000000" font-family="Verdana" font-size="22" font-weight="bold" lengthAdjust="spacing" textLength="665" x="1164.375" y="37.1182">Normal Account Insert - 4 Parallel Tasks After Insert</text><ellipse cx="1493.375" cy="62.7373" fill="#FFFFFF" rx="10" ry="10" style="stroke:#000000;stroke-width:1.0;"/><path d="M1623.375,89.23 L1623.375,106.0293 L1603.375,110.0293 L1623.375,114.0293 L1623.375,130.8286 A0,0 0 0 0 1623.375,130.8286 L1801.375,130.8286 A0,0 0 0 0 1801.375,130.8286 L1801.375,99.23 L1791.375,89.23 L1623.375,89.23 A0,0 0 0 0 1623.375,89.23 " fill="#FFFFFF" style="stroke:#000000;stroke-width:1.0;"/><path d="M1791.375,89.23 L1791.375,99.23 L1801.375,99.23 L1791.375,89.23 " fill="#FFFFFF" style="stroke:#000000;stroke-width:1.0;"/><text fill="#000000" font-family="Verdana" font-size="13" lengthAdjust="spacing" textLength="157" x="1629.375" y="107.2998">Classification + Tagging</text><text fill="#000000" font-family="Verdana" font-size="13" lengthAdjust="spacing" textLength="138" x="1629.375" y="123.0991">inserted to database</text><rect fill="#FFFFFF" height="34.584" rx="12.5" ry="12.5" style="stroke:#000000;stroke-width:1.0;" width="220" x="1383.375" y="92.7373"/><text fill="#000000" font-family="Verdana" font-size="12" lengthAdjust="spacing" textLength="200" x="1393.375" y="114.8018">InsertNormalAccount Successful</text><rect fill="#FFFFFF" height="34.584" rx="12.5" ry="12.5" style="stroke:#000000;stroke-width:1.0;" width="164" x="1411.375" y="150.8286"/><text fill="#000000" font-family="Verdana" font-size="12" lengthAdjust="spacing" textLength="144" x="1421.375" y="172.8931">Get successful CustIDs</text><rect fill="#FFFFFF" height="814.1396" style="stroke:#000000;stroke-width:1.0;" width="2984.75" x="6" y="195.4126"/><path d="M283,195.4126 L283,205.4272 L273,215.4272 L6,215.4272 " fill="none" style="stroke:#000000;stroke-width:1.0;"/><text fill="#000000" font-family="Verdana" font-size="14" lengthAdjust="spacing" textLength="267" x="9" y="210.4878">Parallel.Invoke() - 4 Concurrent Tasks</text><line style="stroke:#000000;stroke-width:1.5;" x1="166" x2="2580.25" y1="232.4272" y2="232.4272"/><path d="M279,242.4272 L279,354.0225 L259,358.0225 L279,362.0225 L279,473.6177 A0,0 0 0 0 279,473.6177 L563,473.6177 A0,0 0 0 0 563,473.6177 L563,252.4272 L553,242.4272 L279,242.4272 A0,0 0 0 0 279,242.4272 " fill="#FFFFFF" style="stroke:#000000;stroke-width:1.0;"/><path d="M553,242.4272 L553,252.4272 L563,252.4272 L553,242.4272 " fill="#FFFFFF" style="stroke:#000000;stroke-width:1.0;"/><text fill="#000000" font-family="Verdana" font-size="13" font-weight="bold" lengthAdjust="spacing" textLength="54" x="285" y="260.4971">Service</text><text fill="#000000" font-family="Verdana" font-size="13" lengthAdjust="spacing" textLength="188" x="339" y="260.4971">: CustClassToMainDBService</text><text fill="#000000" font-family="Verdana" font-size="13" font-weight="bold" lengthAdjust="spacing" textLength="54" x="285" y="276.2964">Method</text><text fill="#000000" font-family="Verdana" font-size="13" lengthAdjust="spacing" textLength="209" x="339" y="276.2964">: PushExternalPackageByCustId</text><text fill="#000000" font-family="Verdana" font-size="13" lengthAdjust="spacing" textLength="5" x="285" y="292.0957">&#160;</text><text fill="#000000" font-family="Verdana" font-size="13" font-weight="bold" lengthAdjust="spacing" textLength="85" x="285" y="307.895">Parameters</text><text fill="#000000" font-family="Verdana" font-size="13" lengthAdjust="spacing" textLength="6" x="370" y="307.895">:</text><text fill="#000000" font-family="Verdana" font-size="13" lengthAdjust="spacing" textLength="62" x="285" y="323.6943">- custIDs</text><text fill="#000000" font-family="Verdana" font-size="13" lengthAdjust="spacing" textLength="147" x="285" y="339.4937">- RoleGroup = Member</text><text fill="#000000" font-family="Verdana" font-size="13" lengthAdjust="spacing" textLength="130" x="285" y="355.293">- ExternalBatchSize</text><text fill="#000000" font-family="Verdana" font-size="13" lengthAdjust="spacing" textLength="227" x="285" y="371.0923">- IsUpdateDangerToMainDB = true</text><text fill="#000000" font-family="Verdana" font-size="13" lengthAdjust="spacing" textLength="82" x="285" y="386.8916">- IsWriteLog</text><text fill="#000000" font-family="Verdana" font-size="13" lengthAdjust="spacing" textLength="97" x="285" y="402.6909">- ServiceName</text><text fill="#000000" font-family="Verdana" font-size="13" lengthAdjust="spacing" textLength="5" x="285" y="418.4902">&#160;</text><text fill="#000000" font-family="Verdana" font-size="13" font-weight="bold" lengthAdjust="spacing" textLength="59" x="285" y="434.2896">Purpose</text><text fill="#000000" font-family="Verdana" font-size="13" lengthAdjust="spacing" textLength="6" x="344" y="434.2896">:</text><text fill="#000000" font-family="Verdana" font-size="13" lengthAdjust="spacing" textLength="192" x="285" y="450.0889">Push classification to MainDB</text><text fill="#000000" font-family="Verdana" font-size="13" lengthAdjust="spacing" textLength="215" x="285" y="465.8882">Make visible to external systems</text><rect fill="#FFFFFF" height="34.584" rx="12.5" ry="12.5" style="stroke:#000000;stroke-width:1.0;" width="186" x="73" y="340.7305"/><text fill="#000000" font-family="Verdana" font-size="12" lengthAdjust="spacing" textLength="166" x="83" y="362.7949">Task 1: PushCCToExternal</text><rect fill="#FFFFFF" height="34.584" rx="12.5" ry="12.5" style="stroke:#000000;stroke-width:1.0;" width="226" x="53" y="508.6177"/><text fill="#000000" font-family="Verdana" font-size="12" lengthAdjust="spacing" textLength="206" x="63" y="530.6821">Batch push by ExternalBatchSize</text><rect fill="#FFFFFF" height="34.584" rx="12.5" ry="12.5" style="stroke:#000000;stroke-width:1.0;" width="145" x="93.5" y="660.7856"/><text fill="#000000" font-family="Verdana" font-size="12" lengthAdjust="spacing" textLength="125" x="103.5" y="682.8501">Call external API/SP</text><rect fill="#FFFFFF" height="34.584" rx="12.5" ry="12.5" style="stroke:#000000;stroke-width:1.0;" width="199" x="66.5" y="730.3696"/><text fill="#000000" font-family="Verdana" font-size="12" lengthAdjust="spacing" textLength="179" x="76.5" y="752.4341">Update MainDB classification</text><rect fill="#FFFFFF" height="34.584" rx="12.5" ry="12.5" style="stroke:#000000;stroke-width:1.0;" width="169" x="81.5" y="578.2017"/><text fill="#000000" font-family="Verdana" font-size="12" lengthAdjust="spacing" textLength="149" x="91.5" y="600.2661">For each external batch</text><polygon fill="#FFFFFF" points="125,812.9536,207,812.9536,219,824.9536,207,836.9536,125,836.9536,113,824.9536,125,812.9536" style="stroke:#000000;stroke-width:1.0;"/><text fill="#000000" font-family="Verdana" font-size="11" lengthAdjust="spacing" textLength="82" x="125" y="829.3284">More batches?</text><polygon fill="#FFFFFF" points="118.5,871.9536,213.5,871.9536,225.5,883.9536,213.5,895.9536,118.5,895.9536,106.5,883.9536,118.5,871.9536" style="stroke:#000000;stroke-width:1.0;"/><text fill="#000000" font-family="Verdana" font-size="11" lengthAdjust="spacing" textLength="95" x="118.5" y="888.3284">Push successful?</text><text fill="#000000" font-family="Verdana" font-size="11" lengthAdjust="spacing" textLength="20" x="86.5" y="881.644">yes</text><text fill="#000000" font-family="Verdana" font-size="11" lengthAdjust="spacing" textLength="14" x="225.5" y="881.644">no</text><rect fill="#FFFFFF" height="34.584" rx="12.5" ry="12.5" style="stroke:#000000;stroke-width:1.0;" width="134" x="18" y="905.9536"/><text fill="#000000" font-family="Verdana" font-size="12" lengthAdjust="spacing" textLength="114" x="28" y="928.0181">Mark task success</text><path d="M342,905.9536 L342,922.7529 L322,926.7529 L342,930.7529 L342,947.5522 A0,0 0 0 0 342,947.5522 L506,947.5522 A0,0 0 0 0 506,947.5522 L506,915.9536 L496,905.9536 L342,905.9536 A0,0 0 0 0 342,905.9536 " fill="#FFFFFF" style="stroke:#000000;stroke-width:1.0;"/><path d="M496,905.9536 L496,915.9536 L506,915.9536 L496,905.9536 " fill="#FFFFFF" style="stroke:#000000;stroke-width:1.0;"/><text fill="#000000" font-family="Verdana" font-size="13" lengthAdjust="spacing" textLength="143" x="348" y="924.0234">Failed push will cause</text><text fill="#000000" font-family="Verdana" font-size="13" lengthAdjust="spacing" textLength="126" x="348" y="939.8228">batch to be retried</text><rect fill="#FFFFFF" height="34.584" rx="12.5" ry="12.5" style="stroke:#000000;stroke-width:1.0;" width="150" x="172" y="909.4609"/><text fill="#000000" font-family="Verdana" font-size="12" lengthAdjust="spacing" textLength="130" x="182" y="931.5254">Add to failedThreads</text><polygon fill="#FFFFFF" points="166,953.5522,178,965.5522,166,977.5522,154,965.5522,166,953.5522" style="stroke:#000000;stroke-width:1.0;"/><path d="M1137.25,332.3252 L1137.25,380.7231 L1117.25,384.7231 L1137.25,388.7231 L1137.25,437.1211 A0,0 0 0 0 1137.25,437.1211 L1460.25,437.1211 A0,0 0 0 0 1460.25,437.1211 L1460.25,342.3252 L1450.25,332.3252 L1137.25,332.3252 A0,0 0 0 0 1137.25,332.3252 " fill="#FFFFFF" style="stroke:#000000;stroke-width:1.0;"/><path d="M1450.25,332.3252 L1450.25,342.3252 L1460.25,342.3252 L1450.25,332.3252 " fill="#FFFFFF" style="stroke:#000000;stroke-width:1.0;"/><text fill="#000000" font-family="Verdana" font-size="13" font-weight="bold" lengthAdjust="spacing" textLength="54" x="1143.25" y="350.395">Service</text><text fill="#000000" font-family="Verdana" font-size="13" lengthAdjust="spacing" textLength="168" x="1197.25" y="350.395">: TWClassificationService</text><text fill="#000000" font-family="Verdana" font-size="13" font-weight="bold" lengthAdjust="spacing" textLength="54" x="1143.25" y="366.1943">Method</text><text fill="#000000" font-family="Verdana" font-size="13" lengthAdjust="spacing" textLength="248" x="1197.25" y="366.1943">: CompleteSpecialLicSubClassification</text><text fill="#000000" font-family="Verdana" font-size="13" lengthAdjust="spacing" textLength="5" x="1143.25" y="381.9937">&#160;</text><text fill="#000000" font-family="Verdana" font-size="13" font-weight="bold" lengthAdjust="spacing" textLength="59" x="1143.25" y="397.793">Purpose</text><text fill="#000000" font-family="Verdana" font-size="13" lengthAdjust="spacing" textLength="6" x="1202.25" y="397.793">:</text><text fill="#000000" font-family="Verdana" font-size="13" lengthAdjust="spacing" textLength="242" x="1143.25" y="413.5923">Complete Special Licensee Sub-type</text><text fill="#000000" font-family="Verdana" font-size="13" lengthAdjust="spacing" textLength="208" x="1143.25" y="429.3916">classification for TW customers</text><rect fill="#FFFFFF" height="34.584" rx="12.5" ry="12.5" style="stroke:#000000;stroke-width:1.0;" width="296" x="821.25" y="367.4312"/><text fill="#000000" font-family="Verdana" font-size="12" lengthAdjust="spacing" textLength="276" x="831.25" y="389.4956">Task 2: CompleteSpecialLicSubClassification</text><rect fill="#FFFFFF" height="34.584" rx="12.5" ry="12.5" style="stroke:#000000;stroke-width:1.0;" width="337" x="800.75" y="472.1211"/><text fill="#000000" font-family="Verdana" font-size="12" lengthAdjust="spacing" textLength="317" x="810.75" y="494.1855">Filter customers where ScanSpecialLicSubType = 1</text><polygon fill="#FFFFFF" points="881.25,541.7051,1057.25,541.7051,1069.25,553.7051,1057.25,565.7051,881.25,565.7051,869.25,553.7051,881.25,541.7051" style="stroke:#000000;stroke-width:1.0;"/><text fill="#000000" font-family="Verdana" font-size="11" lengthAdjust="spacing" textLength="176" x="881.25" y="558.0798">Has Special LicSub customers?</text><text fill="#000000" font-family="Verdana" font-size="11" lengthAdjust="spacing" textLength="20" x="849.25" y="551.3955">yes</text><text fill="#000000" font-family="Verdana" font-size="11" lengthAdjust="spacing" textLength="14" x="1069.25" y="551.3955">no</text><path d="M902.5,575.7051 L902.5,608.3037 L882.5,612.3037 L902.5,616.3037 L902.5,648.9023 A0,0 0 0 0 902.5,648.9023 L1110.5,648.9023 A0,0 0 0 0 1110.5,648.9023 L1110.5,585.7051 L1100.5,575.7051 L902.5,575.7051 A0,0 0 0 0 902.5,575.7051 " fill="#FFFFFF" style="stroke:#000000;stroke-width:1.0;"/><path d="M1100.5,575.7051 L1100.5,585.7051 L1110.5,585.7051 L1100.5,575.7051 " fill="#FFFFFF" style="stroke:#000000;stroke-width:1.0;"/><text fill="#000000" font-family="Verdana" font-size="13" lengthAdjust="spacing" textLength="130" x="908.5" y="593.7749">For each customer:</text><text fill="#000000" font-family="Verdana" font-size="13" lengthAdjust="spacing" textLength="56" x="908.5" y="609.5742">- CustID</text><text fill="#000000" font-family="Verdana" font-size="13" lengthAdjust="spacing" textLength="185" x="908.5" y="625.3735">- CategoryID (if successful)</text><text fill="#000000" font-family="Verdana" font-size="13" lengthAdjust="spacing" textLength="187" x="908.5" y="641.1729">- null (if failed in this batch)</text><rect fill="#FFFFFF" height="34.584" rx="12.5" ry="12.5" style="stroke:#000000;stroke-width:1.0;" width="195" x="687.5" y="595.0117"/><text fill="#000000" font-family="Verdana" font-size="12" lengthAdjust="spacing" textLength="175" x="697.5" y="617.0762">Create classification models</text><rect fill="#FFFFFF" height="34.584" rx="12.5" ry="12.5" style="stroke:#000000;stroke-width:1.0;" width="126" x="722" y="683.9023"/><text fill="#000000" font-family="Verdana" font-size="12" lengthAdjust="spacing" textLength="106" x="732" y="705.9668">Serialize to JSON</text><rect fill="#FFFFFF" height="34.584" rx="12.5" ry="12.5" style="stroke:#000000;stroke-width:1.0;" width="424" x="573" y="753.4863"/><text fill="#000000" font-family="Verdana" font-size="12" lengthAdjust="spacing" textLength="404" x="583" y="775.5508">Call TWClassificationService.CompleteSpecialLicSubClassification</text><rect fill="#FFFFFF" height="34.584" rx="12.5" ry="12.5" style="stroke:#000000;stroke-width:1.0;" width="226" x="672" y="823.0703"/><text fill="#000000" font-family="Verdana" font-size="12" lengthAdjust="spacing" textLength="206" x="682" y="845.1348">Update TW Special LicSub status</text><rect fill="#FFFFFF" height="34.584" rx="12.5" ry="12.5" style="stroke:#000000;stroke-width:1.0;" width="46" x="1130.5" y="575.7051"/><text fill="#000000" font-family="Verdana" font-size="12" lengthAdjust="spacing" textLength="26" x="1140.5" y="597.7695">Skip</text><polygon fill="#FFFFFF" points="969.25,863.6543,981.25,875.6543,969.25,887.6543,957.25,875.6543,969.25,863.6543" style="stroke:#000000;stroke-width:1.0;"/><path d="M2004.75,371.5095 L2004.75,419.9075 L1984.75,423.9075 L2004.75,427.9075 L2004.75,476.3054 A0,0 0 0 0 2004.75,476.3054 L2367.75,476.3054 A0,0 0 0 0 2367.75,476.3054 L2367.75,381.5095 L2357.75,371.5095 L2004.75,371.5095 A0,0 0 0 0 2004.75,371.5095 " fill="#FFFFFF" style="stroke:#000000;stroke-width:1.0;"/><path d="M2357.75,371.5095 L2357.75,381.5095 L2367.75,381.5095 L2357.75,371.5095 " fill="#FFFFFF" style="stroke:#000000;stroke-width:1.0;"/><text fill="#000000" font-family="Verdana" font-size="13" font-weight="bold" lengthAdjust="spacing" textLength="54" x="2010.75" y="389.5793">Service</text><text fill="#000000" font-family="Verdana" font-size="13" lengthAdjust="spacing" textLength="288" x="2064.75" y="389.5793">: NormalDangerousAssociationCheckService</text><text fill="#000000" font-family="Verdana" font-size="13" font-weight="bold" lengthAdjust="spacing" textLength="54" x="2010.75" y="405.3787">Method</text><text fill="#000000" font-family="Verdana" font-size="13" lengthAdjust="spacing" textLength="227" x="2064.75" y="405.3787">: PreprocessDangerousAssociation</text><text fill="#000000" font-family="Verdana" font-size="13" lengthAdjust="spacing" textLength="5" x="2010.75" y="421.178">&#160;</text><text fill="#000000" font-family="Verdana" font-size="13" font-weight="bold" lengthAdjust="spacing" textLength="59" x="2010.75" y="436.9773">Purpose</text><text fill="#000000" font-family="Verdana" font-size="13" lengthAdjust="spacing" textLength="6" x="2069.75" y="436.9773">:</text><text fill="#000000" font-family="Verdana" font-size="13" lengthAdjust="spacing" textLength="211" x="2010.75" y="452.7766">Queue customers for dangerous</text><text fill="#000000" font-family="Verdana" font-size="13" lengthAdjust="spacing" textLength="137" x="2010.75" y="468.5759">association scanning</text><rect fill="#FFFFFF" height="34.584" rx="12.5" ry="12.5" style="stroke:#000000;stroke-width:1.0;" width="280" x="1704.75" y="406.6155"/><text fill="#000000" font-family="Verdana" font-size="12" lengthAdjust="spacing" textLength="260" x="1714.75" y="428.6799">Task 3: PreprocessDangerousAssociation</text><rect fill="#FFFFFF" height="34.584" rx="12.5" ry="12.5" style="stroke:#000000;stroke-width:1.0;" width="346" x="1671.75" y="511.3054"/><text fill="#000000" font-family="Verdana" font-size="12" lengthAdjust="spacing" textLength="326" x="1681.75" y="533.3699">Filter customers where IsScanDgrAssociation = true</text><polygon fill="#FFFFFF" points="1777.25,580.8894,1912.25,580.8894,1924.25,592.8894,1912.25,604.8894,1777.25,604.8894,1765.25,592.8894,1777.25,580.8894" style="stroke:#000000;stroke-width:1.0;"/><text fill="#000000" font-family="Verdana" font-size="11" lengthAdjust="spacing" textLength="135" x="1777.25" y="597.2642">Has customers to scan?</text><text fill="#000000" font-family="Verdana" font-size="11" lengthAdjust="spacing" textLength="20" x="1745.25" y="590.5798">yes</text><text fill="#000000" font-family="Verdana" font-size="11" lengthAdjust="spacing" textLength="14" x="1924.25" y="590.5798">no</text><path d="M1749.25,614.8894 L1749.25,639.5884 L1729.25,643.5884 L1749.25,647.5884 L1749.25,672.2874 A0,0 0 0 0 1749.25,672.2874 L1908.25,672.2874 A0,0 0 0 0 1908.25,672.2874 L1908.25,624.8894 L1898.25,614.8894 L1749.25,614.8894 A0,0 0 0 0 1749.25,614.8894 " fill="#FFFFFF" style="stroke:#000000;stroke-width:1.0;"/><path d="M1898.25,614.8894 L1898.25,624.8894 L1908.25,624.8894 L1898.25,614.8894 " fill="#FFFFFF" style="stroke:#000000;stroke-width:1.0;"/><text fill="#000000" font-family="Verdana" font-size="13" lengthAdjust="spacing" textLength="130" x="1755.25" y="632.9592">For each customer:</text><text fill="#000000" font-family="Verdana" font-size="13" lengthAdjust="spacing" textLength="83" x="1755.25" y="648.7585">- CTSCustID</text><text fill="#000000" font-family="Verdana" font-size="13" lengthAdjust="spacing" textLength="138" x="1755.25" y="664.5579">- DCSDeviceID = null</text><rect fill="#FFFFFF" height="34.584" rx="12.5" ry="12.5" style="stroke:#000000;stroke-width:1.0;" width="205" x="1524.25" y="626.2964"/><text fill="#000000" font-family="Verdana" font-size="12" lengthAdjust="spacing" textLength="185" x="1534.25" y="648.3608">Create preprocessing models</text><rect fill="#FFFFFF" height="34.584" rx="12.5" ry="12.5" style="stroke:#000000;stroke-width:1.0;" width="257" x="1498.25" y="707.2874"/><text fill="#000000" font-family="Verdana" font-size="12" lengthAdjust="spacing" textLength="237" x="1508.25" y="729.3518">Call PreprocessDangerousAssociation</text><path d="M1752.75,776.8713 L1752.75,793.6707 L1732.75,797.6707 L1752.75,801.6707 L1752.75,818.47 A0,0 0 0 0 1752.75,818.47 L2019.75,818.47 A0,0 0 0 0 2019.75,818.47 L2019.75,786.8713 L2009.75,776.8713 L1752.75,776.8713 A0,0 0 0 0 1752.75,776.8713 " fill="#FFFFFF" style="stroke:#000000;stroke-width:1.0;"/><path d="M2009.75,776.8713 L2009.75,786.8713 L2019.75,786.8713 L2009.75,776.8713 " fill="#FFFFFF" style="stroke:#000000;stroke-width:1.0;"/><text fill="#000000" font-family="Verdana" font-size="13" lengthAdjust="spacing" textLength="136" x="1758.75" y="794.9412">Will be processed by</text><text fill="#000000" font-family="Verdana" font-size="13" lengthAdjust="spacing" textLength="246" x="1758.75" y="810.7405">NormalDangerousAssociationScan job</text><rect fill="#FFFFFF" height="34.584" rx="12.5" ry="12.5" style="stroke:#000000;stroke-width:1.0;" width="212" x="1520.75" y="780.3787"/><text fill="#000000" font-family="Verdana" font-size="12" lengthAdjust="spacing" textLength="192" x="1530.75" y="802.4431">Insert to preprocessing queue</text><rect fill="#FFFFFF" height="34.584" rx="12.5" ry="12.5" style="stroke:#000000;stroke-width:1.0;" width="46" x="2039.75" y="614.8894"/><text fill="#000000" font-family="Verdana" font-size="12" lengthAdjust="spacing" textLength="26" x="2049.75" y="636.9539">Skip</text><polygon fill="#FFFFFF" points="1844.75,824.47,1856.75,836.47,1844.75,848.47,1832.75,836.47,1844.75,824.47" style="stroke:#000000;stroke-width:1.0;"/><path d="M2695.75,370.3105 L2695.75,418.7085 L2675.75,422.7085 L2695.75,426.7085 L2695.75,475.1064 A0,0 0 0 0 2695.75,475.1064 L2978.75,475.1064 A0,0 0 0 0 2978.75,475.1064 L2978.75,380.3105 L2968.75,370.3105 L2695.75,370.3105 A0,0 0 0 0 2695.75,370.3105 " fill="#FFFFFF" style="stroke:#000000;stroke-width:1.0;"/><path d="M2968.75,370.3105 L2968.75,380.3105 L2978.75,380.3105 L2968.75,370.3105 " fill="#FFFFFF" style="stroke:#000000;stroke-width:1.0;"/><text fill="#000000" font-family="Verdana" font-size="13" font-weight="bold" lengthAdjust="spacing" textLength="54" x="2701.75" y="388.3804">Service</text><text fill="#000000" font-family="Verdana" font-size="13" lengthAdjust="spacing" textLength="174" x="2755.75" y="388.3804">: AntiFraudCenterServices</text><text fill="#000000" font-family="Verdana" font-size="13" font-weight="bold" lengthAdjust="spacing" textLength="54" x="2701.75" y="404.1797">Method</text><text fill="#000000" font-family="Verdana" font-size="13" lengthAdjust="spacing" textLength="141" x="2755.75" y="404.1797">: DeleteAFCAccounts</text><text fill="#000000" font-family="Verdana" font-size="13" lengthAdjust="spacing" textLength="5" x="2701.75" y="419.979">&#160;</text><text fill="#000000" font-family="Verdana" font-size="13" font-weight="bold" lengthAdjust="spacing" textLength="59" x="2701.75" y="435.7783">Purpose</text><text fill="#000000" font-family="Verdana" font-size="13" lengthAdjust="spacing" textLength="6" x="2760.75" y="435.7783">:</text><text fill="#000000" font-family="Verdana" font-size="13" lengthAdjust="spacing" textLength="262" x="2701.75" y="451.5776">Remove customers from AFC monitoring</text><text fill="#000000" font-family="Verdana" font-size="13" lengthAdjust="spacing" textLength="174" x="2701.75" y="467.377">(Now classified as Normal)</text><rect fill="#FFFFFF" height="34.584" rx="12.5" ry="12.5" style="stroke:#000000;stroke-width:1.0;" width="191" x="2484.75" y="405.4165"/><text fill="#000000" font-family="Verdana" font-size="12" lengthAdjust="spacing" textLength="171" x="2494.75" y="427.481">Task 4: DeleteAFCAccounts</text><path d="M2684.25,510.1064 L2684.25,574.3037 L2664.25,578.3037 L2684.25,582.3037 L2684.25,646.501 A0,0 0 0 0 2684.25,646.501 L2921.25,646.501 A0,0 0 0 0 2921.25,646.501 L2921.25,520.1064 L2911.25,510.1064 L2684.25,510.1064 A0,0 0 0 0 2684.25,510.1064 " fill="#FFFFFF" style="stroke:#000000;stroke-width:1.0;"/><path d="M2911.25,510.1064 L2911.25,520.1064 L2921.25,520.1064 L2911.25,510.1064 " fill="#FFFFFF" style="stroke:#000000;stroke-width:1.0;"/><text fill="#000000" font-family="Verdana" font-size="13" lengthAdjust="spacing" textLength="80" x="2690.25" y="528.1763">Parameters:</text><text fill="#000000" font-family="Verdana" font-size="13" lengthAdjust="spacing" textLength="62" x="2690.25" y="543.9756">- custIDs</text><text fill="#000000" font-family="Verdana" font-size="13" lengthAdjust="spacing" textLength="176" x="2690.25" y="559.7749">- FromFlow = CTSServices</text><text fill="#000000" font-family="Verdana" font-size="13" lengthAdjust="spacing" textLength="171" x="2690.25" y="575.5742">- IsSyncAFCData (config)</text><text fill="#000000" font-family="Verdana" font-size="13" lengthAdjust="spacing" textLength="216" x="2690.25" y="591.3735">- AFCDeleteAccountURL (config)</text><text fill="#000000" font-family="Verdana" font-size="13" lengthAdjust="spacing" textLength="5" x="2690.25" y="607.1729">&#160;</text><text fill="#000000" font-family="Verdana" font-size="13" lengthAdjust="spacing" textLength="209" x="2690.25" y="622.9722">Remove from Anti-Fraud Center</text><text fill="#000000" font-family="Verdana" font-size="13" lengthAdjust="spacing" textLength="174" x="2690.25" y="638.7715">if now classified as Normal</text><rect fill="#FFFFFF" height="34.584" rx="12.5" ry="12.5" style="stroke:#000000;stroke-width:1.0;" width="168" x="2496.25" y="561.0117"/><text fill="#000000" font-family="Verdana" font-size="12" lengthAdjust="spacing" textLength="148" x="2506.25" y="583.0762">Call DeleteAFCAccounts</text><polygon fill="#FFFFFF" points="2508.25,681.501,2652.25,681.501,2664.25,693.501,2652.25,705.501,2508.25,705.501,2496.25,693.501,2508.25,681.501" style="stroke:#000000;stroke-width:1.0;"/><text fill="#000000" font-family="Verdana" font-size="11" lengthAdjust="spacing" textLength="144" x="2508.25" y="697.8757">IsSyncAFCData enabled?</text><text fill="#000000" font-family="Verdana" font-size="11" lengthAdjust="spacing" textLength="20" x="2476.25" y="691.1914">yes</text><text fill="#000000" font-family="Verdana" font-size="11" lengthAdjust="spacing" textLength="14" x="2664.25" y="691.1914">no</text><rect fill="#FFFFFF" height="34.584" rx="12.5" ry="12.5" style="stroke:#000000;stroke-width:1.0;" width="217" x="2377.75" y="715.501"/><text fill="#000000" font-family="Verdana" font-size="12" lengthAdjust="spacing" textLength="197" x="2387.75" y="737.5654">Call AFC API to delete accounts</text><rect fill="#FFFFFF" height="34.584" rx="12.5" ry="12.5" style="stroke:#000000;stroke-width:1.0;" width="201" x="2385.75" y="785.085"/><text fill="#000000" font-family="Verdana" font-size="12" lengthAdjust="spacing" textLength="181" x="2395.75" y="807.1494">Remove from AFC monitoring</text><rect fill="#FFFFFF" height="34.584" rx="12.5" ry="12.5" style="stroke:#000000;stroke-width:1.0;" width="106" x="2621.25" y="715.501"/><text fill="#000000" font-family="Verdana" font-size="12" lengthAdjust="spacing" textLength="86" x="2631.25" y="737.5654">Skip AFC sync</text><polygon fill="#FFFFFF" points="2580.25,825.6689,2592.25,837.6689,2580.25,849.6689,2568.25,837.6689,2580.25,825.6689" style="stroke:#000000;stroke-width:1.0;"/><line style="stroke:#000000;stroke-width:1.5;" x1="166" x2="2580.25" y1="997.5522" y2="997.5522"/><rect fill="#FFFFFF" height="34.584" rx="12.5" ry="12.5" style="stroke:#000000;stroke-width:1.0;" width="154" x="1416.375" y="1029.5522"/><text fill="#000000" font-family="Verdana" font-size="12" lengthAdjust="spacing" textLength="134" x="1426.375" y="1051.6167">Check all task results</text><path d="M1550.875,1074.1362 L1550.875,1336.9253 L1903.875,1336.9253 L1903.875,1084.1362 L1893.875,1074.1362 L1550.875,1074.1362 " fill="#FFFFFF" style="stroke:#000000;stroke-width:1.0;"/><path d="M1893.875,1074.1362 L1893.875,1084.1362 L1903.875,1084.1362 L1893.875,1074.1362 " fill="#FFFFFF" style="stroke:#000000;stroke-width:1.0;"/><text fill="#000000" font-family="Verdana" font-size="13" font-weight="bold" lengthAdjust="spacing" textLength="194" x="1556.875" y="1092.2061">Parallel Execution Benefits</text><text fill="#000000" font-family="Verdana" font-size="13" lengthAdjust="spacing" textLength="6" x="1750.875" y="1092.2061">:</text><text fill="#000000" font-family="Verdana" font-size="13" lengthAdjust="spacing" textLength="211" x="1556.875" y="1108.0054">- Reduces total processing time</text><text fill="#000000" font-family="Verdana" font-size="13" lengthAdjust="spacing" textLength="263" x="1556.875" y="1123.8047">- Independent tasks (no dependencies)</text><text fill="#000000" font-family="Verdana" font-size="13" lengthAdjust="spacing" textLength="222" x="1556.875" y="1139.604">- Failed task doesn't block others</text><text fill="#000000" font-family="Verdana" font-size="13" lengthAdjust="spacing" textLength="306" x="1556.875" y="1155.4033">- All tasks must succeed for batch completion</text><text fill="#000000" font-family="Verdana" font-size="13" lengthAdjust="spacing" textLength="5" x="1556.875" y="1171.2026">&#160;</text><text fill="#000000" font-family="Verdana" font-size="13" font-weight="bold" lengthAdjust="spacing" textLength="139" x="1556.875" y="1187.002">Task Dependencies</text><text fill="#000000" font-family="Verdana" font-size="13" lengthAdjust="spacing" textLength="6" x="1695.875" y="1187.002">:</text><text fill="#000000" font-family="Verdana" font-size="13" lengthAdjust="spacing" textLength="212" x="1556.875" y="1202.8013">- Task 1: Critical (MainDB sync)</text><text fill="#000000" font-family="Verdana" font-size="13" lengthAdjust="spacing" textLength="215" x="1556.875" y="1218.6006">- Task 2: Optional (TW specific)</text><text fill="#000000" font-family="Verdana" font-size="13" lengthAdjust="spacing" textLength="286" x="1556.875" y="1234.3999">- Task 3: Optional (Dangerous association)</text><text fill="#000000" font-family="Verdana" font-size="13" lengthAdjust="spacing" textLength="200" x="1556.875" y="1250.1992">- Task 4: Optional (AFC sync)</text><text fill="#000000" font-family="Verdana" font-size="13" lengthAdjust="spacing" textLength="5" x="1556.875" y="1265.9985">&#160;</text><text fill="#000000" font-family="Verdana" font-size="13" font-weight="bold" lengthAdjust="spacing" textLength="118" x="1556.875" y="1281.7979">Failure Handling</text><text fill="#000000" font-family="Verdana" font-size="13" lengthAdjust="spacing" textLength="6" x="1674.875" y="1281.7979">:</text><text fill="#000000" font-family="Verdana" font-size="13" lengthAdjust="spacing" textLength="332" x="1556.875" y="1297.5972">- Any task failure &#226;&#8224;&#8217; batch NOT marked complete</text><text fill="#000000" font-family="Verdana" font-size="13" lengthAdjust="spacing" textLength="306" x="1556.875" y="1313.3965">- Failed batch will be retried in next execution</text><text fill="#000000" font-family="Verdana" font-size="13" lengthAdjust="spacing" textLength="200" x="1556.875" y="1329.1958">- Prevents data inconsistency</text><polygon fill="#FFFFFF" points="1447.875,1336.9253,1538.875,1336.9253,1550.875,1348.9253,1538.875,1360.9253,1447.875,1360.9253,1435.875,1348.9253,1447.875,1336.9253" style="stroke:#000000;stroke-width:1.0;"/><text fill="#000000" font-family="Verdana" font-size="11" lengthAdjust="spacing" textLength="91" x="1447.875" y="1353.3">Any task failed?</text><text fill="#000000" font-family="Verdana" font-size="11" lengthAdjust="spacing" textLength="20" x="1415.875" y="1346.6157">yes</text><text fill="#000000" font-family="Verdana" font-size="11" lengthAdjust="spacing" textLength="14" x="1550.875" y="1346.6157">no</text><path d="M1416.125,1370.9253 L1416.125,1387.7246 L1396.125,1391.7246 L1416.125,1395.7246 L1416.125,1412.5239 A0,0 0 0 0 1416.125,1412.5239 L1597.125,1412.5239 A0,0 0 0 0 1597.125,1412.5239 L1597.125,1380.9253 L1587.125,1370.9253 L1416.125,1370.9253 A0,0 0 0 0 1416.125,1370.9253 " fill="#FFFFFF" style="stroke:#000000;stroke-width:1.0;"/><path d="M1587.125,1370.9253 L1587.125,1380.9253 L1597.125,1380.9253 L1587.125,1370.9253 " fill="#FFFFFF" style="stroke:#000000;stroke-width:1.0;"/><text fill="#000000" font-family="Verdana" font-size="13" lengthAdjust="spacing" textLength="160" x="1422.125" y="1388.9951">Entire batch will NOT be</text><text fill="#000000" font-family="Verdana" font-size="13" lengthAdjust="spacing" textLength="140" x="1422.125" y="1404.7944">marked as completed</text><rect fill="#FFFFFF" height="34.584" rx="12.5" ry="12.5" style="stroke:#000000;stroke-width:1.0;" width="193" x="1203.125" y="1374.4326"/><text fill="#000000" font-family="Verdana" font-size="12" lengthAdjust="spacing" textLength="173" x="1213.125" y="1396.4971">Add failure to failedThreads</text><rect fill="#FFFFFF" height="34.584" rx="12.5" ry="12.5" style="stroke:#000000;stroke-width:1.0;" width="140" x="1617.125" y="1370.9253"/><text fill="#000000" font-family="Verdana" font-size="12" lengthAdjust="spacing" textLength="120" x="1627.125" y="1392.9897">All tasks successful</text><polygon fill="#FFFFFF" points="1493.375,1418.5239,1505.375,1430.5239,1493.375,1442.5239,1481.375,1430.5239,1493.375,1418.5239" style="stroke:#000000;stroke-width:1.0;"/><ellipse cx="1493.375" cy="1473.5239" fill="none" rx="11" ry="11" style="stroke:#000000;stroke-width:1.0;"/><ellipse cx="1493.375" cy="1473.5239" fill="#FFFFFF" rx="6" ry="6" style="stroke:#000000;stroke-width:1.0;"/><line style="stroke:#000000;stroke-width:1.0;" x1="1493.375" x2="1493.375" y1="72.7373" y2="92.7373"/><polygon fill="#000000" points="1489.375,82.7373,1493.375,92.7373,1497.375,82.7373,1493.375,86.7373" style="stroke:#000000;stroke-width:1.0;"/><line style="stroke:#000000;stroke-width:1.0;" x1="1493.375" x2="1493.375" y1="127.3213" y2="150.8286"/><polygon fill="#000000" points="1489.375,140.8286,1493.375,150.8286,1497.375,140.8286,1493.375,144.8286" style="stroke:#000000;stroke-width:1.0;"/><line style="stroke:#000000;stroke-width:1.0;" x1="166" x2="166" y1="375.3145" y2="508.6177"/><polygon fill="#000000" points="162,498.6177,166,508.6177,170,498.6177,166,502.6177" style="stroke:#000000;stroke-width:1.0;"/><line style="stroke:#000000;stroke-width:1.0;" x1="166" x2="166" y1="695.3696" y2="730.3696"/><polygon fill="#000000" points="162,720.3696,166,730.3696,170,720.3696,166,724.3696" style="stroke:#000000;stroke-width:1.0;"/><line style="stroke:#000000;stroke-width:1.0;" x1="166" x2="166" y1="612.7856" y2="660.7856"/><polygon fill="#000000" points="162,650.7856,166,660.7856,170,650.7856,166,654.7856" style="stroke:#000000;stroke-width:1.0;"/><line style="stroke:#000000;stroke-width:1.0;" x1="219" x2="277.5" y1="824.9536" y2="824.9536"/><polygon fill="#000000" points="273.5,720.2236,277.5,710.2236,281.5,720.2236,277.5,716.2236" style="stroke:#000000;stroke-width:1.0;"/><line style="stroke:#000000;stroke-width:1.0;" x1="277.5" x2="277.5" y1="595.4937" y2="824.9536"/><line style="stroke:#000000;stroke-width:1.0;" x1="277.5" x2="250.5" y1="595.4937" y2="595.4937"/><polygon fill="#000000" points="260.5,591.4937,250.5,595.4937,260.5,599.4937,256.5,595.4937" style="stroke:#000000;stroke-width:1.0;"/><line style="stroke:#000000;stroke-width:1.0;" x1="166" x2="166" y1="764.9536" y2="812.9536"/><polygon fill="#000000" points="162,802.9536,166,812.9536,170,802.9536,166,806.9536" style="stroke:#000000;stroke-width:1.0;"/><line style="stroke:#000000;stroke-width:1.0;" x1="166" x2="166" y1="543.2017" y2="578.2017"/><polygon fill="#000000" points="162,568.2017,166,578.2017,170,568.2017,166,572.2017" style="stroke:#000000;stroke-width:1.0;"/><line style="stroke:#000000;stroke-width:1.0;" x1="106.5" x2="85" y1="883.9536" y2="883.9536"/><line style="stroke:#000000;stroke-width:1.0;" x1="85" x2="85" y1="883.9536" y2="905.9536"/><polygon fill="#000000" points="81,895.9536,85,905.9536,89,895.9536,85,899.9536" style="stroke:#000000;stroke-width:1.0;"/><line style="stroke:#000000;stroke-width:1.0;" x1="225.5" x2="247" y1="883.9536" y2="883.9536"/><line style="stroke:#000000;stroke-width:1.0;" x1="247" x2="247" y1="883.9536" y2="909.4609"/><polygon fill="#000000" points="243,899.4609,247,909.4609,251,899.4609,247,903.4609" style="stroke:#000000;stroke-width:1.0;"/><line style="stroke:#000000;stroke-width:1.0;" x1="85" x2="85" y1="940.5376" y2="965.5522"/><line style="stroke:#000000;stroke-width:1.0;" x1="85" x2="154" y1="965.5522" y2="965.5522"/><polygon fill="#000000" points="144,961.5522,154,965.5522,144,969.5522,148,965.5522" style="stroke:#000000;stroke-width:1.0;"/><line style="stroke:#000000;stroke-width:1.0;" x1="247" x2="247" y1="944.0449" y2="965.5522"/><line style="stroke:#000000;stroke-width:1.0;" x1="247" x2="178" y1="965.5522" y2="965.5522"/><polygon fill="#000000" points="188,961.5522,178,965.5522,188,969.5522,184,965.5522" style="stroke:#000000;stroke-width:1.0;"/><line style="stroke:#000000;stroke-width:1.0;" x1="166" x2="166" y1="836.9536" y2="871.9536"/><polygon fill="#000000" points="162,861.9536,166,871.9536,170,861.9536,166,865.9536" style="stroke:#000000;stroke-width:1.0;"/><line style="stroke:#000000;stroke-width:1.0;" x1="969.25" x2="969.25" y1="402.0151" y2="472.1211"/><polygon fill="#000000" points="965.25,462.1211,969.25,472.1211,973.25,462.1211,969.25,466.1211" style="stroke:#000000;stroke-width:1.0;"/><line style="stroke:#000000;stroke-width:1.0;" x1="785" x2="785" y1="629.5957" y2="683.9023"/><polygon fill="#000000" points="781,673.9023,785,683.9023,789,673.9023,785,677.9023" style="stroke:#000000;stroke-width:1.0;"/><line style="stroke:#000000;stroke-width:1.0;" x1="785" x2="785" y1="718.4863" y2="753.4863"/><polygon fill="#000000" points="781,743.4863,785,753.4863,789,743.4863,785,747.4863" style="stroke:#000000;stroke-width:1.0;"/><line style="stroke:#000000;stroke-width:1.0;" x1="785" x2="785" y1="788.0703" y2="823.0703"/><polygon fill="#000000" points="781,813.0703,785,823.0703,789,813.0703,785,817.0703" style="stroke:#000000;stroke-width:1.0;"/><line style="stroke:#000000;stroke-width:1.0;" x1="869.25" x2="785" y1="553.7051" y2="553.7051"/><line style="stroke:#000000;stroke-width:1.0;" x1="785" x2="785" y1="553.7051" y2="595.0117"/><polygon fill="#000000" points="781,585.0117,785,595.0117,789,585.0117,785,589.0117" style="stroke:#000000;stroke-width:1.0;"/><line style="stroke:#000000;stroke-width:1.0;" x1="1069.25" x2="1153.5" y1="553.7051" y2="553.7051"/><line style="stroke:#000000;stroke-width:1.0;" x1="1153.5" x2="1153.5" y1="553.7051" y2="575.7051"/><polygon fill="#000000" points="1149.5,565.7051,1153.5,575.7051,1157.5,565.7051,1153.5,569.7051" style="stroke:#000000;stroke-width:1.0;"/><line style="stroke:#000000;stroke-width:1.0;" x1="785" x2="785" y1="857.6543" y2="875.6543"/><line style="stroke:#000000;stroke-width:1.0;" x1="785" x2="957.25" y1="875.6543" y2="875.6543"/><polygon fill="#000000" points="947.25,871.6543,957.25,875.6543,947.25,879.6543,951.25,875.6543" style="stroke:#000000;stroke-width:1.0;"/><line style="stroke:#000000;stroke-width:1.0;" x1="1153.5" x2="1153.5" y1="610.2891" y2="875.6543"/><line style="stroke:#000000;stroke-width:1.0;" x1="1153.5" x2="981.25" y1="875.6543" y2="875.6543"/><polygon fill="#000000" points="991.25,871.6543,981.25,875.6543,991.25,879.6543,987.25,875.6543" style="stroke:#000000;stroke-width:1.0;"/><line style="stroke:#000000;stroke-width:1.0;" x1="969.25" x2="969.25" y1="506.7051" y2="541.7051"/><polygon fill="#000000" points="965.25,531.7051,969.25,541.7051,973.25,531.7051,969.25,535.7051" style="stroke:#000000;stroke-width:1.0;"/><line style="stroke:#000000;stroke-width:1.0;" x1="1844.75" x2="1844.75" y1="441.1995" y2="511.3054"/><polygon fill="#000000" points="1840.75,501.3054,1844.75,511.3054,1848.75,501.3054,1844.75,505.3054" style="stroke:#000000;stroke-width:1.0;"/><line style="stroke:#000000;stroke-width:1.0;" x1="1626.75" x2="1626.75" y1="660.8804" y2="707.2874"/><polygon fill="#000000" points="1622.75,697.2874,1626.75,707.2874,1630.75,697.2874,1626.75,701.2874" style="stroke:#000000;stroke-width:1.0;"/><line style="stroke:#000000;stroke-width:1.0;" x1="1626.75" x2="1626.75" y1="741.8713" y2="780.3787"/><polygon fill="#000000" points="1622.75,770.3787,1626.75,780.3787,1630.75,770.3787,1626.75,774.3787" style="stroke:#000000;stroke-width:1.0;"/><line style="stroke:#000000;stroke-width:1.0;" x1="1765.25" x2="1626.75" y1="592.8894" y2="592.8894"/><line style="stroke:#000000;stroke-width:1.0;" x1="1626.75" x2="1626.75" y1="592.8894" y2="626.2964"/><polygon fill="#000000" points="1622.75,616.2964,1626.75,626.2964,1630.75,616.2964,1626.75,620.2964" style="stroke:#000000;stroke-width:1.0;"/><line style="stroke:#000000;stroke-width:1.0;" x1="1924.25" x2="2062.75" y1="592.8894" y2="592.8894"/><line style="stroke:#000000;stroke-width:1.0;" x1="2062.75" x2="2062.75" y1="592.8894" y2="614.8894"/><polygon fill="#000000" points="2058.75,604.8894,2062.75,614.8894,2066.75,604.8894,2062.75,608.8894" style="stroke:#000000;stroke-width:1.0;"/><line style="stroke:#000000;stroke-width:1.0;" x1="1626.75" x2="1626.75" y1="814.9626" y2="836.47"/><line style="stroke:#000000;stroke-width:1.0;" x1="1626.75" x2="1832.75" y1="836.47" y2="836.47"/><polygon fill="#000000" points="1822.75,832.47,1832.75,836.47,1822.75,840.47,1826.75,836.47" style="stroke:#000000;stroke-width:1.0;"/><line style="stroke:#000000;stroke-width:1.0;" x1="2062.75" x2="2062.75" y1="649.4734" y2="836.47"/><line style="stroke:#000000;stroke-width:1.0;" x1="2062.75" x2="1856.75" y1="836.47" y2="836.47"/><polygon fill="#000000" points="1866.75,832.47,1856.75,836.47,1866.75,840.47,1862.75,836.47" style="stroke:#000000;stroke-width:1.0;"/><line style="stroke:#000000;stroke-width:1.0;" x1="1844.75" x2="1844.75" y1="545.8894" y2="580.8894"/><polygon fill="#000000" points="1840.75,570.8894,1844.75,580.8894,1848.75,570.8894,1844.75,574.8894" style="stroke:#000000;stroke-width:1.0;"/><line style="stroke:#000000;stroke-width:1.0;" x1="2580.25" x2="2580.25" y1="440.0005" y2="561.0117"/><polygon fill="#000000" points="2576.25,551.0117,2580.25,561.0117,2584.25,551.0117,2580.25,555.0117" style="stroke:#000000;stroke-width:1.0;"/><line style="stroke:#000000;stroke-width:1.0;" x1="2486.25" x2="2486.25" y1="750.085" y2="785.085"/><polygon fill="#000000" points="2482.25,775.085,2486.25,785.085,2490.25,775.085,2486.25,779.085" style="stroke:#000000;stroke-width:1.0;"/><line style="stroke:#000000;stroke-width:1.0;" x1="2496.25" x2="2486.25" y1="693.501" y2="693.501"/><line style="stroke:#000000;stroke-width:1.0;" x1="2486.25" x2="2486.25" y1="693.501" y2="715.501"/><polygon fill="#000000" points="2482.25,705.501,2486.25,715.501,2490.25,705.501,2486.25,709.501" style="stroke:#000000;stroke-width:1.0;"/><line style="stroke:#000000;stroke-width:1.0;" x1="2664.25" x2="2674.25" y1="693.501" y2="693.501"/><line style="stroke:#000000;stroke-width:1.0;" x1="2674.25" x2="2674.25" y1="693.501" y2="715.501"/><polygon fill="#000000" points="2670.25,705.501,2674.25,715.501,2678.25,705.501,2674.25,709.501" style="stroke:#000000;stroke-width:1.0;"/><line style="stroke:#000000;stroke-width:1.0;" x1="2486.25" x2="2486.25" y1="819.6689" y2="837.6689"/><line style="stroke:#000000;stroke-width:1.0;" x1="2486.25" x2="2568.25" y1="837.6689" y2="837.6689"/><polygon fill="#000000" points="2558.25,833.6689,2568.25,837.6689,2558.25,841.6689,2562.25,837.6689" style="stroke:#000000;stroke-width:1.0;"/><line style="stroke:#000000;stroke-width:1.0;" x1="2674.25" x2="2674.25" y1="750.085" y2="837.6689"/><line style="stroke:#000000;stroke-width:1.0;" x1="2674.25" x2="2592.25" y1="837.6689" y2="837.6689"/><polygon fill="#000000" points="2602.25,833.6689,2592.25,837.6689,2602.25,841.6689,2598.25,837.6689" style="stroke:#000000;stroke-width:1.0;"/><line style="stroke:#000000;stroke-width:1.0;" x1="2580.25" x2="2580.25" y1="595.5957" y2="681.501"/><polygon fill="#000000" points="2576.25,671.501,2580.25,681.501,2584.25,671.501,2580.25,675.501" style="stroke:#000000;stroke-width:1.0;"/><line style="stroke:#000000;stroke-width:1.0;" x1="166" x2="166" y1="233.9272" y2="340.7305"/><polygon fill="#000000" points="162,330.7305,166,340.7305,170,330.7305,166,334.7305" style="stroke:#000000;stroke-width:1.0;"/><line style="stroke:#000000;stroke-width:1.0;" x1="969.25" x2="969.25" y1="233.9272" y2="367.4312"/><polygon fill="#000000" points="965.25,357.4312,969.25,367.4312,973.25,357.4312,969.25,361.4312" style="stroke:#000000;stroke-width:1.0;"/><line style="stroke:#000000;stroke-width:1.0;" x1="1844.75" x2="1844.75" y1="233.9272" y2="406.6155"/><polygon fill="#000000" points="1840.75,396.6155,1844.75,406.6155,1848.75,396.6155,1844.75,400.6155" style="stroke:#000000;stroke-width:1.0;"/><line style="stroke:#000000;stroke-width:1.0;" x1="2580.25" x2="2580.25" y1="233.9272" y2="405.4165"/><polygon fill="#000000" points="2576.25,395.4165,2580.25,405.4165,2584.25,395.4165,2580.25,399.4165" style="stroke:#000000;stroke-width:1.0;"/><line style="stroke:#000000;stroke-width:1.0;" x1="166" x2="166" y1="977.5522" y2="997.5522"/><polygon fill="#000000" points="162,987.5522,166,997.5522,170,987.5522,166,991.5522" style="stroke:#000000;stroke-width:1.0;"/><line style="stroke:#000000;stroke-width:1.0;" x1="969.25" x2="969.25" y1="887.6543" y2="997.5522"/><polygon fill="#000000" points="965.25,987.5522,969.25,997.5522,973.25,987.5522,969.25,991.5522" style="stroke:#000000;stroke-width:1.0;"/><line style="stroke:#000000;stroke-width:1.0;" x1="1844.75" x2="1844.75" y1="848.47" y2="997.5522"/><polygon fill="#000000" points="1840.75,987.5522,1844.75,997.5522,1848.75,987.5522,1844.75,991.5522" style="stroke:#000000;stroke-width:1.0;"/><line style="stroke:#000000;stroke-width:1.0;" x1="2580.25" x2="2580.25" y1="849.6689" y2="997.5522"/><polygon fill="#000000" points="2576.25,987.5522,2580.25,997.5522,2584.25,987.5522,2580.25,991.5522" style="stroke:#000000;stroke-width:1.0;"/><line style="stroke:#000000;stroke-width:1.0;" x1="1493.375" x2="1493.375" y1="185.4126" y2="232.4272"/><polygon fill="#000000" points="1489.375,222.4272,1493.375,232.4272,1497.375,222.4272,1493.375,226.4272" style="stroke:#000000;stroke-width:1.0;"/><line style="stroke:#000000;stroke-width:1.0;" x1="1493.375" x2="1493.375" y1="999.0522" y2="1029.5522"/><polygon fill="#000000" points="1489.375,1019.5522,1493.375,1029.5522,1497.375,1019.5522,1493.375,1023.5522" style="stroke:#000000;stroke-width:1.0;"/><line style="stroke:#000000;stroke-width:1.0;" x1="1435.875" x2="1299.625" y1="1348.9253" y2="1348.9253"/><line style="stroke:#000000;stroke-width:1.0;" x1="1299.625" x2="1299.625" y1="1348.9253" y2="1374.4326"/><polygon fill="#000000" points="1295.625,1364.4326,1299.625,1374.4326,1303.625,1364.4326,1299.625,1368.4326" style="stroke:#000000;stroke-width:1.0;"/><line style="stroke:#000000;stroke-width:1.0;" x1="1550.875" x2="1687.125" y1="1348.9253" y2="1348.9253"/><line style="stroke:#000000;stroke-width:1.0;" x1="1687.125" x2="1687.125" y1="1348.9253" y2="1370.9253"/><polygon fill="#000000" points="1683.125,1360.9253,1687.125,1370.9253,1691.125,1360.9253,1687.125,1364.9253" style="stroke:#000000;stroke-width:1.0;"/><line style="stroke:#000000;stroke-width:1.0;" x1="1299.625" x2="1299.625" y1="1409.0166" y2="1430.5239"/><line style="stroke:#000000;stroke-width:1.0;" x1="1299.625" x2="1481.375" y1="1430.5239" y2="1430.5239"/><polygon fill="#000000" points="1471.375,1426.5239,1481.375,1430.5239,1471.375,1434.5239,1475.375,1430.5239" style="stroke:#000000;stroke-width:1.0;"/><line style="stroke:#000000;stroke-width:1.0;" x1="1687.125" x2="1687.125" y1="1405.5093" y2="1430.5239"/><line style="stroke:#000000;stroke-width:1.0;" x1="1687.125" x2="1505.375" y1="1430.5239" y2="1430.5239"/><polygon fill="#000000" points="1515.375,1426.5239,1505.375,1430.5239,1515.375,1434.5239,1511.375,1430.5239" style="stroke:#000000;stroke-width:1.0;"/><line style="stroke:#000000;stroke-width:1.0;" x1="1493.375" x2="1493.375" y1="1064.1362" y2="1336.9253"/><polygon fill="#000000" points="1489.375,1326.9253,1493.375,1336.9253,1497.375,1326.9253,1493.375,1330.9253" style="stroke:#000000;stroke-width:1.0;"/><line style="stroke:#000000;stroke-width:1.0;" x1="1493.375" x2="1493.375" y1="1442.5239" y2="1462.5239"/><polygon fill="#000000" points="1489.375,1452.5239,1493.375,1462.5239,1497.375,1452.5239,1493.375,1456.5239" style="stroke:#000000;stroke-width:1.0;"/><!--SRC=[hLVRRXit47tNLx1vgUJ2ATBaIO8Ho9ALg8WTDrBWPsft9B5QaLkIwqGj2kGt-bRqL_ed-P8UadlXof8ge3M265uEPyuCpo5dlh5hsXBBCovanmgR4RjJUiipDamILKZBfjAGjkoIlMBtNFCieupDkTaODbnQqkLwfsCiTx_wuU_WfF8nAvA4Z5aMsQ0ZbIMcnMfjEmm_eumR8vOYuLOeoRw3xzLAo9LV5DuNfSmgbdBB5znGXsJAd1F4UaEMcTet6nN6JiTcqEdam2AymsSLwETJ-QWsrEtvL4PA9eNM170-cMViDqJ4FvDd8Y3hkmNsei_k2xCUZURgvZFobHmvkEMzFDpFnSMCzAD8wEAYxy7uvERg5iKTNvThaVKjsRLAdR4BKRc_vyc6h-XwvzD9Q_jeeyjfIp0ts5n_lsH9A43qvOFAw8rMHSwks2rj5wIZnIhYDRV9UYP-fMXjQZxcA3cDkLoHhdA05wkBjjs35fRUgLNqiKpr3Y0FmYzqhWp5s5q1MDBc0WuzHAsjRlc6sACmOW6UOfdA19ZP6KlRa7ZDZpfgtoV8SXTZiNkQzg0nrPGJjwm_KPeHnwOwnC9PbqZw8r2gMHhUJx-VtG-gnL2u4ljUKeCuogUrG1xTMwKfk2VpkjTW4KlMzNLfAFwwno1OoRexChqgtYtN6sOTMKl348Go0-TIrNR3r0jfoH4rdQyryTHKe0-mcR69jmnr-oIGSS8BGv611-ryBh2Ph1PKqRLr2FX3BAkylC0ONxaBfv7P3n2CskOPI3tBAH4yUoUIMR4O7QZUlobl_j3UTKfuPmGzay6L9rQwOl15kB_meLXSsbtU0DZZ-H9ScpzuyQejD7sCnHEHkGktjWD_2CoP9LosuCyH2q9zCMXJwIqtCJOODguEyce4XY2VFRHRbO9PftbJYQVotuyMByjhklq9WLPAxwPZrWNMXl2zbfaiG49d43YCzm6mXGayx1sYNdrgVR00cKFjZgy_pjxV3LfYFaAQvsUpiebKwXz7kbTkF96sEAREsKRaWtFbyX9F1YuHhLoPmXMj2ZCqHY7U-Ke9h_IX_QCr9PkJBzR9y6TgvgU22ee8xPIGLkvgAzxuPGPabrLxSBv6fiQfPBpI4SRoBJkWacOtgE8Ydf97NXS2iFuFTSnd1mGo7it6v0u32hdoEZZDTi_fSoZIR2aRFQJSJkaNTqWdCtfmRyF2bS9lWZ0NksZvEClSeR2VrUBWe_6V1FAgpyRaT3kSZCekr9odYQ6qOg9vaOxG798kLyn14Jm9SIRlFz1MFRQ8hzMMmG_u8uLLkcAu- -dUgK_r9OpQWg2XehrZ8l27VtxwJJTvkfUS0EGa0vWhHz8dXN6zu6md4uGSerTdtKJ9fLZr8WEt5605J1y_l7jgjb-bK1kSogK_5XREfRQ2QEMH0XsfZvDv6of9ZeuoFInpLqntDEZo_1pY4s2yLLNOjT2sJlB4XUyj3P0S8BO37gQHtp7g-0kPEIo-qzDaYin5xxXiXd8NFeTtSJyFt_cvfKBJmGxm2IbkKEwgAGsjtztxEIHUBc_HSOP29-Npc7QYIiUfzeSbP1EzweDEoBGz38QvnW-ODvyfAVmbVKsIbiAMWmu66aeBU44Q5WzhT4rPuOSDi52cQA_n7sQx41XGMFKj4Q4cbrLtw-kMAZBoMyiMcKAL5Qhdsp0mjaQ_XHv22jZa7gfGdB80uStpIVZxPno5gw1Ny-G80nDQ1tGovOZW2D1hJD0Bly-THsU2BiAuBWBDHcJoCZQfRzRufOoCNyN65U5w5Tn9oOktNAOP2bcXRN7A6VpzrzSlVtxzyaUPk2D4oOEA175P8-eqmu5hs2J69enEvVdwBNYd7d5Qni_uiC6DO0G6EfdiecaVTsNU-GS0]--></g></svg>