<svg xmlns="http://www.w3.org/2000/svg" xmlns:xlink="http://www.w3.org/1999/xlink" contentStyleType="text/css" height="2773px" preserveAspectRatio="none" style="width:1068px;height:2773px;background:#FFFFFF;" version="1.1" viewBox="0 0 1068 2773" width="1068px" zoomAndPan="magnify"><defs/><g><text fill="#000000" font-family="Verdana" font-size="22" font-weight="bold" lengthAdjust="spacing" textLength="1035" x="15" y="37.1182">Match Monitor - Arbitrage - Association Detection Logic (3 Criteria + Agent Check)</text><ellipse cx="499.25" cy="62.7373" fill="#FFFFFF" rx="10" ry="10" style="stroke:#000000;stroke-width:1.0;"/><path d="M616.75,82.7373 L616.75,115.3359 L596.75,119.3359 L616.75,123.3359 L616.75,155.9346 A0,0 0 0 0 616.75,155.9346 L1015.75,155.9346 A0,0 0 0 0 1015.75,155.9346 L1015.75,92.7373 L1005.75,82.7373 L616.75,82.7373 A0,0 0 0 0 616.75,82.7373 " fill="#FFFFFF" style="stroke:#000000;stroke-width:1.0;"/><path d="M1005.75,82.7373 L1005.75,92.7373 L1015.75,92.7373 L1005.75,82.7373 " fill="#FFFFFF" style="stroke:#000000;stroke-width:1.0;"/><text fill="#000000" font-family="Verdana" font-size="13" lengthAdjust="spacing" textLength="41" x="622.75" y="100.8071">Input:</text><text fill="#000000" font-family="Verdana" font-size="13" lengthAdjust="spacing" textLength="210" x="622.75" y="116.6064">- CTSCustIDList (all customers)</text><text fill="#000000" font-family="Verdana" font-size="13" lengthAdjust="spacing" textLength="378" x="622.75" y="132.4058">- AgentDetect_CTSCustIDList (Alpha/Maxbet customers)</text><text fill="#000000" font-family="Verdana" font-size="13" lengthAdjust="spacing" textLength="213" x="622.75" y="148.2051">- MatchID, ScoreDiff, BettypeID</text><rect fill="#FFFFFF" height="34.584" rx="12.5" ry="12.5" style="stroke:#000000;stroke-width:1.0;" width="195" x="401.75" y="102.0439"/><text fill="#000000" font-family="Verdana" font-size="12" lengthAdjust="spacing" textLength="175" x="411.75" y="124.1084">Receive Match Staging Data</text><path d="M620.25,165.9346 L620.25,253.8308 L600.25,257.8308 L620.25,261.8308 L620.25,349.7271 A0,0 0 0 0 620.25,349.7271 L974.25,349.7271 A0,0 0 0 0 974.25,349.7271 L974.25,175.9346 L964.25,165.9346 L620.25,165.9346 A0,0 0 0 0 620.25,165.9346 " fill="#FFFFFF" style="stroke:#000000;stroke-width:1.0;"/><path d="M964.25,165.9346 L964.25,175.9346 L974.25,175.9346 L964.25,165.9346 " fill="#FFFFFF" style="stroke:#000000;stroke-width:1.0;"/><text fill="#000000" font-family="Verdana" font-size="13" lengthAdjust="spacing" textLength="204" x="626.25" y="184.0044">DetectAssociationParamModel:</text><text fill="#000000" font-family="Verdana" font-size="13" lengthAdjust="spacing" textLength="202" x="626.25" y="199.8037">- CTSCustIds = CTSCustIDList</text><text fill="#000000" font-family="Verdana" font-size="13" lengthAdjust="spacing" textLength="333" x="626.25" y="215.603">- AgentCTSCustIds = AgentDetect_CTSCustIDList</text><text fill="#000000" font-family="Verdana" font-size="13" lengthAdjust="spacing" textLength="156" x="626.25" y="231.4023">- IsDevice = true  &#226;&#339;&#8230;</text><text fill="#000000" font-family="Verdana" font-size="13" lengthAdjust="spacing" textLength="146" x="626.25" y="247.2017">- IsAI = true      &#226;&#339;&#8230;</text><text fill="#000000" font-family="Verdana" font-size="13" lengthAdjust="spacing" textLength="145" x="626.25" y="263.001">- IsIP = true      &#226;&#339;&#8230;</text><text fill="#000000" font-family="Verdana" font-size="13" lengthAdjust="spacing" textLength="5" x="626.25" y="278.8003">&#160;</text><text fill="#000000" font-family="Verdana" font-size="13" lengthAdjust="spacing" textLength="268" x="626.25" y="294.5996">NOTE: Only 3 criteria (same as Hedging)</text><text fill="#000000" font-family="Verdana" font-size="13" lengthAdjust="spacing" textLength="73" x="626.25" y="310.3989">NOT using:</text><text fill="#000000" font-family="Verdana" font-size="13" lengthAdjust="spacing" textLength="203" x="626.25" y="326.1982">- 3 Matches Last 7 Days &#226;&#65533;&#338;</text><text fill="#000000" font-family="Verdana" font-size="13" lengthAdjust="spacing" textLength="147" x="626.25" y="341.9976">- IP Last 3 Days &#226;&#65533;&#338;</text><rect fill="#FFFFFF" height="34.584" rx="12.5" ry="12.5" style="stroke:#000000;stroke-width:1.0;" width="202" x="398.25" y="240.5388"/><text fill="#000000" font-family="Verdana" font-size="12" lengthAdjust="spacing" textLength="182" x="408.25" y="262.6033">Build Association Parameters</text><rect fill="#FFFFFF" height="335.6064" style="stroke:#000000;stroke-width:1.0;" width="829.25" x="169" y="359.7271"/><path d="M381,359.7271 L381,369.7417 L371,379.7417 L169,379.7417 " fill="none" style="stroke:#000000;stroke-width:1.0;"/><text fill="#000000" font-family="Verdana" font-size="14" lengthAdjust="spacing" textLength="202" x="172" y="374.8022">Criterion 1: Device Detection</text><path d="M608.25,389.7417 L608.25,469.7383 L588.25,473.7383 L608.25,477.7383 L608.25,557.7349 A0,0 0 0 0 608.25,557.7349 L988.25,557.7349 A0,0 0 0 0 988.25,557.7349 L988.25,399.7417 L978.25,389.7417 L608.25,389.7417 A0,0 0 0 0 608.25,389.7417 " fill="#FFFFFF" style="stroke:#000000;stroke-width:1.0;"/><path d="M978.25,389.7417 L978.25,399.7417 L988.25,399.7417 L978.25,389.7417 " fill="#FFFFFF" style="stroke:#000000;stroke-width:1.0;"/><text fill="#000000" font-family="Verdana" font-size="13" lengthAdjust="spacing" textLength="359" x="614.25" y="407.8115">SP: CTS_DC_Association_Device_Get_ByUserNameList</text><text fill="#000000" font-family="Verdana" font-size="13" lengthAdjust="spacing" textLength="5" x="614.25" y="423.6108">&#160;</text><text fill="#000000" font-family="Verdana" font-size="13" lengthAdjust="spacing" textLength="40" x="614.25" y="439.4102">Logic:</text><text fill="#000000" font-family="Verdana" font-size="13" lengthAdjust="spacing" textLength="232" x="614.25" y="455.2095">- Same DeviceID across customers</text><text fill="#000000" font-family="Verdana" font-size="13" lengthAdjust="spacing" textLength="140" x="614.25" y="471.0088">- Within time window</text><text fill="#000000" font-family="Verdana" font-size="13" lengthAdjust="spacing" textLength="5" x="614.25" y="486.8081">&#160;</text><text fill="#000000" font-family="Verdana" font-size="13" lengthAdjust="spacing" textLength="59" x="614.25" y="502.6074">Example:</text><text fill="#000000" font-family="Verdana" font-size="13" lengthAdjust="spacing" textLength="275" x="614.25" y="518.4067">Customer A (Alpha): DeviceID = "abc123"</text><text fill="#000000" font-family="Verdana" font-size="13" lengthAdjust="spacing" textLength="286" x="614.25" y="534.2061">Customer B (Maxbet): DeviceID = "abc123"</text><text fill="#000000" font-family="Verdana" font-size="13" lengthAdjust="spacing" textLength="147" x="614.25" y="550.0054">&#226;&#8224;&#8217; ASSOCIATED &#226;&#339;&#8230;</text><rect fill="#FFFFFF" height="34.584" rx="12.5" ry="12.5" style="stroke:#000000;stroke-width:1.0;" width="178" x="410.25" y="456.4463"/><text fill="#000000" font-family="Verdana" font-size="12" lengthAdjust="spacing" textLength="158" x="420.25" y="478.5107">Query Device Association</text><polygon fill="#FFFFFF" points="440.25,577.7349,558.25,577.7349,570.25,589.7349,558.25,601.7349,440.25,601.7349,428.25,589.7349,440.25,577.7349" style="stroke:#000000;stroke-width:1.0;"/><text fill="#000000" font-family="Verdana" font-size="11" lengthAdjust="spacing" textLength="118" x="440.25" y="594.1096">Same Device found?</text><text fill="#000000" font-family="Verdana" font-size="11" lengthAdjust="spacing" textLength="20" x="408.25" y="587.4253">yes</text><text fill="#000000" font-family="Verdana" font-size="11" lengthAdjust="spacing" textLength="14" x="570.25" y="587.4253">no</text><path d="M381,611.7349 L381,628.5342 L361,632.5342 L381,636.5342 L381,653.3335 A0,0 0 0 0 381,653.3335 L625,653.3335 A0,0 0 0 0 625,653.3335 L625,621.7349 L615,611.7349 L381,611.7349 A0,0 0 0 0 381,611.7349 " fill="#FFFFFF" style="stroke:#000000;stroke-width:1.0;"/><path d="M615,611.7349 L615,621.7349 L625,621.7349 L615,611.7349 " fill="#FFFFFF" style="stroke:#000000;stroke-width:1.0;"/><text fill="#000000" font-family="Verdana" font-size="13" lengthAdjust="spacing" textLength="223" x="387" y="629.8047">All customers with same DeviceID</text><text fill="#000000" font-family="Verdana" font-size="13" lengthAdjust="spacing" textLength="118" x="387" y="645.604">get same GroupID</text><rect fill="#FFFFFF" height="34.584" rx="12.5" ry="12.5" style="stroke:#000000;stroke-width:1.0;" width="172" x="189" y="615.2422"/><text fill="#000000" font-family="Verdana" font-size="12" lengthAdjust="spacing" textLength="152" x="199" y="637.3066">Assign GroupID (Device)</text><rect fill="#FFFFFF" height="34.584" rx="12.5" ry="12.5" style="stroke:#000000;stroke-width:1.0;" width="157" x="645" y="611.7349"/><text fill="#000000" font-family="Verdana" font-size="12" lengthAdjust="spacing" textLength="137" x="655" y="633.7993">No Device association</text><polygon fill="#FFFFFF" points="499.25,659.3335,511.25,671.3335,499.25,683.3335,487.25,671.3335,499.25,659.3335" style="stroke:#000000;stroke-width:1.0;"/><rect fill="#FFFFFF" height="383.0044" style="stroke:#000000;stroke-width:1.0;" width="760.75" x="193.5" y="705.3335"/><path d="M375.5,705.3335 L375.5,715.3481 L365.5,725.3481 L193.5,725.3481 " fill="none" style="stroke:#000000;stroke-width:1.0;"/><text fill="#000000" font-family="Verdana" font-size="14" lengthAdjust="spacing" textLength="172" x="196.5" y="720.4087">Criterion 2: AI Detection</text><path d="M594.25,735.3481 L594.25,839.0437 L574.25,843.0437 L594.25,847.0437 L594.25,950.7393 A0,0 0 0 0 594.25,950.7393 L944.25,950.7393 A0,0 0 0 0 944.25,950.7393 L944.25,745.3481 L934.25,735.3481 L594.25,735.3481 A0,0 0 0 0 594.25,735.3481 " fill="#FFFFFF" style="stroke:#000000;stroke-width:1.0;"/><path d="M934.25,735.3481 L934.25,745.3481 L944.25,745.3481 L934.25,735.3481 " fill="#FFFFFF" style="stroke:#000000;stroke-width:1.0;"/><text fill="#000000" font-family="Verdana" font-size="13" lengthAdjust="spacing" textLength="329" x="600.25" y="753.418">SP: CTS_DC_Association_AI_Get_ByUserNameList</text><text fill="#000000" font-family="Verdana" font-size="13" lengthAdjust="spacing" textLength="5" x="600.25" y="769.2173">&#160;</text><text fill="#000000" font-family="Verdana" font-size="13" lengthAdjust="spacing" textLength="40" x="600.25" y="785.0166">Logic:</text><text fill="#000000" font-family="Verdana" font-size="13" lengthAdjust="spacing" textLength="194" x="600.25" y="800.8159">- AI model identifies patterns</text><text fill="#000000" font-family="Verdana" font-size="13" lengthAdjust="spacing" textLength="182" x="600.25" y="816.6152">- Betting behavior similarity</text><text fill="#000000" font-family="Verdana" font-size="13" lengthAdjust="spacing" textLength="170" x="600.25" y="832.4146">- Cross-platform patterns</text><text fill="#000000" font-family="Verdana" font-size="13" lengthAdjust="spacing" textLength="5" x="600.25" y="848.2139">&#160;</text><text fill="#000000" font-family="Verdana" font-size="13" lengthAdjust="spacing" textLength="59" x="600.25" y="864.0132">Example:</text><text fill="#000000" font-family="Verdana" font-size="13" lengthAdjust="spacing" textLength="191" x="600.25" y="879.8125">Customer A &amp; B have similar:</text><text fill="#000000" font-family="Verdana" font-size="13" lengthAdjust="spacing" textLength="103" x="600.25" y="895.6118">- Betting timing</text><text fill="#000000" font-family="Verdana" font-size="13" lengthAdjust="spacing" textLength="111" x="600.25" y="911.4111">- Stake patterns</text><text fill="#000000" font-family="Verdana" font-size="13" lengthAdjust="spacing" textLength="124" x="600.25" y="927.2104">- Match selections</text><text fill="#000000" font-family="Verdana" font-size="13" lengthAdjust="spacing" textLength="147" x="600.25" y="943.0098">&#226;&#8224;&#8217; ASSOCIATED &#226;&#339;&#8230;</text><rect fill="#FFFFFF" height="34.584" rx="12.5" ry="12.5" style="stroke:#000000;stroke-width:1.0;" width="150" x="424.25" y="825.7517"/><text fill="#000000" font-family="Verdana" font-size="12" lengthAdjust="spacing" textLength="130" x="434.25" y="847.8162">Query AI Association</text><polygon fill="#FFFFFF" points="449.25,970.7393,549.25,970.7393,561.25,982.7393,549.25,994.7393,449.25,994.7393,437.25,982.7393,449.25,970.7393" style="stroke:#000000;stroke-width:1.0;"/><text fill="#000000" font-family="Verdana" font-size="11" lengthAdjust="spacing" textLength="100" x="449.25" y="987.114">AI pattern found?</text><text fill="#000000" font-family="Verdana" font-size="11" lengthAdjust="spacing" textLength="20" x="417.25" y="980.4297">yes</text><text fill="#000000" font-family="Verdana" font-size="11" lengthAdjust="spacing" textLength="14" x="561.25" y="980.4297">no</text><path d="M377.5,1004.7393 L377.5,1021.5386 L357.5,1025.5386 L377.5,1029.5386 L377.5,1046.3379 A0,0 0 0 0 377.5,1046.3379 L628.5,1046.3379 A0,0 0 0 0 628.5,1046.3379 L628.5,1014.7393 L618.5,1004.7393 L377.5,1004.7393 A0,0 0 0 0 377.5,1004.7393 " fill="#FFFFFF" style="stroke:#000000;stroke-width:1.0;"/><path d="M618.5,1004.7393 L618.5,1014.7393 L628.5,1014.7393 L618.5,1004.7393 " fill="#FFFFFF" style="stroke:#000000;stroke-width:1.0;"/><text fill="#000000" font-family="Verdana" font-size="13" lengthAdjust="spacing" textLength="230" x="383.5" y="1022.8091">AI-identified associated customers</text><text fill="#000000" font-family="Verdana" font-size="13" lengthAdjust="spacing" textLength="118" x="383.5" y="1038.6084">get same GroupID</text><rect fill="#FFFFFF" height="34.584" rx="12.5" ry="12.5" style="stroke:#000000;stroke-width:1.0;" width="144" x="213.5" y="1008.2466"/><text fill="#000000" font-family="Verdana" font-size="12" lengthAdjust="spacing" textLength="124" x="223.5" y="1030.311">Assign GroupID (AI)</text><rect fill="#FFFFFF" height="34.584" rx="12.5" ry="12.5" style="stroke:#000000;stroke-width:1.0;" width="129" x="648.5" y="1004.7393"/><text fill="#000000" font-family="Verdana" font-size="12" lengthAdjust="spacing" textLength="109" x="658.5" y="1026.8037">No AI association</text><polygon fill="#FFFFFF" points="499.25,1052.3379,511.25,1064.3379,499.25,1076.3379,487.25,1064.3379,499.25,1052.3379" style="stroke:#000000;stroke-width:1.0;"/><rect fill="#FFFFFF" height="351.4058" style="stroke:#000000;stroke-width:1.0;" width="733.75" x="219.5" y="1098.3379"/><path d="M399.5,1098.3379 L399.5,1108.3525 L389.5,1118.3525 L219.5,1118.3525 " fill="none" style="stroke:#000000;stroke-width:1.0;"/><text fill="#000000" font-family="Verdana" font-size="14" lengthAdjust="spacing" textLength="170" x="222.5" y="1113.4131">Criterion 3: IP Detection</text><path d="M594.25,1128.3525 L594.25,1216.2488 L574.25,1220.2488 L594.25,1224.2488 L594.25,1312.145 A0,0 0 0 0 594.25,1312.145 L943.25,1312.145 A0,0 0 0 0 943.25,1312.145 L943.25,1138.3525 L933.25,1128.3525 L594.25,1128.3525 A0,0 0 0 0 594.25,1128.3525 " fill="#FFFFFF" style="stroke:#000000;stroke-width:1.0;"/><path d="M933.25,1128.3525 L933.25,1138.3525 L943.25,1138.3525 L933.25,1128.3525 " fill="#FFFFFF" style="stroke:#000000;stroke-width:1.0;"/><text fill="#000000" font-family="Verdana" font-size="13" lengthAdjust="spacing" textLength="328" x="600.25" y="1146.4224">SP: CTS_DC_Association_IP_Get_ByUserNameList</text><text fill="#000000" font-family="Verdana" font-size="13" lengthAdjust="spacing" textLength="5" x="600.25" y="1162.2217">&#160;</text><text fill="#000000" font-family="Verdana" font-size="13" lengthAdjust="spacing" textLength="40" x="600.25" y="1178.021">Logic:</text><text fill="#000000" font-family="Verdana" font-size="13" lengthAdjust="spacing" textLength="122" x="600.25" y="1193.8203">- Same IP address</text><text fill="#000000" font-family="Verdana" font-size="13" lengthAdjust="spacing" textLength="140" x="600.25" y="1209.6196">- Within time window</text><text fill="#000000" font-family="Verdana" font-size="13" lengthAdjust="spacing" textLength="5" x="600.25" y="1225.4189">&#160;</text><text fill="#000000" font-family="Verdana" font-size="13" lengthAdjust="spacing" textLength="59" x="600.25" y="1241.2183">Example:</text><text fill="#000000" font-family="Verdana" font-size="13" lengthAdjust="spacing" textLength="277" x="600.25" y="1257.0176">Customer A (Alpha): IP = "192.168.1.100"</text><text fill="#000000" font-family="Verdana" font-size="13" lengthAdjust="spacing" textLength="288" x="600.25" y="1272.8169">Customer B (Maxbet): IP = "192.168.1.100"</text><text fill="#000000" font-family="Verdana" font-size="13" lengthAdjust="spacing" textLength="289" x="600.25" y="1288.6162">Customer C (Maxbet): IP = "192.168.1.100"</text><text fill="#000000" font-family="Verdana" font-size="13" lengthAdjust="spacing" textLength="175" x="600.25" y="1304.4155">&#226;&#8224;&#8217; ALL ASSOCIATED &#226;&#339;&#8230;</text><rect fill="#FFFFFF" height="34.584" rx="12.5" ry="12.5" style="stroke:#000000;stroke-width:1.0;" width="150" x="424.25" y="1202.9568"/><text fill="#000000" font-family="Verdana" font-size="12" lengthAdjust="spacing" textLength="130" x="434.25" y="1225.0212">Query IP Association</text><polygon fill="#FFFFFF" points="453.75,1332.145,544.75,1332.145,556.75,1344.145,544.75,1356.145,453.75,1356.145,441.75,1344.145,453.75,1332.145" style="stroke:#000000;stroke-width:1.0;"/><text fill="#000000" font-family="Verdana" font-size="11" lengthAdjust="spacing" textLength="91" x="453.75" y="1348.5198">Same IP found?</text><text fill="#000000" font-family="Verdana" font-size="11" lengthAdjust="spacing" textLength="20" x="421.75" y="1341.8354">yes</text><text fill="#000000" font-family="Verdana" font-size="11" lengthAdjust="spacing" textLength="14" x="556.75" y="1341.8354">no</text><path d="M403.5,1366.145 L403.5,1382.9443 L383.5,1386.9443 L403.5,1390.9443 L403.5,1407.7437 A0,0 0 0 0 403.5,1407.7437 L602.5,1407.7437 A0,0 0 0 0 602.5,1407.7437 L602.5,1376.145 L592.5,1366.145 L403.5,1366.145 A0,0 0 0 0 403.5,1366.145 " fill="#FFFFFF" style="stroke:#000000;stroke-width:1.0;"/><path d="M592.5,1366.145 L592.5,1376.145 L602.5,1376.145 L592.5,1366.145 " fill="#FFFFFF" style="stroke:#000000;stroke-width:1.0;"/><text fill="#000000" font-family="Verdana" font-size="13" lengthAdjust="spacing" textLength="178" x="409.5" y="1384.2148">All customers with same IP</text><text fill="#000000" font-family="Verdana" font-size="13" lengthAdjust="spacing" textLength="118" x="409.5" y="1400.0142">get same GroupID</text><rect fill="#FFFFFF" height="34.584" rx="12.5" ry="12.5" style="stroke:#000000;stroke-width:1.0;" width="144" x="239.5" y="1369.6523"/><text fill="#000000" font-family="Verdana" font-size="12" lengthAdjust="spacing" textLength="124" x="249.5" y="1391.7168">Assign GroupID (IP)</text><rect fill="#FFFFFF" height="34.584" rx="12.5" ry="12.5" style="stroke:#000000;stroke-width:1.0;" width="129" x="622.5" y="1366.145"/><text fill="#000000" font-family="Verdana" font-size="12" lengthAdjust="spacing" textLength="109" x="632.5" y="1388.2095">No IP association</text><polygon fill="#FFFFFF" points="499.25,1413.7437,511.25,1425.7437,499.25,1437.7437,487.25,1425.7437,499.25,1413.7437" style="stroke:#000000;stroke-width:1.0;"/><path d="M598.75,1459.7437 L598.75,1571.3389 L578.75,1575.3389 L598.75,1579.3389 L598.75,1690.9341 A0,0 0 0 0 598.75,1690.9341 L879.75,1690.9341 A0,0 0 0 0 879.75,1690.9341 L879.75,1469.7437 L869.75,1459.7437 L598.75,1459.7437 A0,0 0 0 0 598.75,1459.7437 " fill="#FFFFFF" style="stroke:#000000;stroke-width:1.0;"/><path d="M869.75,1459.7437 L869.75,1469.7437 L879.75,1469.7437 L869.75,1459.7437 " fill="#FFFFFF" style="stroke:#000000;stroke-width:1.0;"/><text fill="#000000" font-family="Verdana" font-size="13" lengthAdjust="spacing" textLength="208" x="604.75" y="1477.8135">Combine results from 3 criteria:</text><text fill="#000000" font-family="Verdana" font-size="13" lengthAdjust="spacing" textLength="105" x="604.75" y="1493.6128">- Device groups</text><text fill="#000000" font-family="Verdana" font-size="13" lengthAdjust="spacing" textLength="75" x="604.75" y="1509.4121">- AI groups</text><text fill="#000000" font-family="Verdana" font-size="13" lengthAdjust="spacing" textLength="74" x="604.75" y="1525.2114">- IP groups</text><text fill="#000000" font-family="Verdana" font-size="13" lengthAdjust="spacing" textLength="5" x="604.75" y="1541.0107">&#160;</text><text fill="#000000" font-family="Verdana" font-size="13" lengthAdjust="spacing" textLength="260" x="604.75" y="1556.8101">If customer appears in multiple criteria,</text><text fill="#000000" font-family="Verdana" font-size="13" lengthAdjust="spacing" textLength="154" x="604.75" y="1572.6094">merge into single group</text><text fill="#000000" font-family="Verdana" font-size="13" lengthAdjust="spacing" textLength="5" x="604.75" y="1588.4087">&#160;</text><text fill="#000000" font-family="Verdana" font-size="13" lengthAdjust="spacing" textLength="59" x="604.75" y="1604.208">Example:</text><text fill="#000000" font-family="Verdana" font-size="13" lengthAdjust="spacing" textLength="144" x="604.75" y="1620.0073">Device: [A, B], [C, D]</text><text fill="#000000" font-family="Verdana" font-size="13" lengthAdjust="spacing" textLength="64" x="604.75" y="1635.8066">AI: [B, C]</text><text fill="#000000" font-family="Verdana" font-size="13" lengthAdjust="spacing" textLength="63" x="604.75" y="1651.606">IP: [A, E]</text><text fill="#000000" font-family="Verdana" font-size="13" lengthAdjust="spacing" textLength="5" x="604.75" y="1667.4053">&#160;</text><text fill="#000000" font-family="Verdana" font-size="13" lengthAdjust="spacing" textLength="190" x="604.75" y="1683.2046">&#226;&#8224;&#8217; Merged: [A, B, C, D], [E]</text><rect fill="#FFFFFF" height="34.584" rx="12.5" ry="12.5" style="stroke:#000000;stroke-width:1.0;" width="159" x="419.75" y="1558.0469"/><text fill="#000000" font-family="Verdana" font-size="12" lengthAdjust="spacing" textLength="139" x="429.75" y="1580.1113">Merge All Associations</text><rect fill="#FFFFFF" height="288.2085" style="stroke:#000000;stroke-width:1.0;" width="737.25" x="195.5" y="1700.9341"/><path d="M378.5,1700.9341 L378.5,1710.9487 L368.5,1720.9487 L195.5,1720.9487 " fill="none" style="stroke:#000000;stroke-width:1.0;"/><text fill="#000000" font-family="Verdana" font-size="14" lengthAdjust="spacing" textLength="173" x="198.5" y="1716.0093">Agent-Specific Detection</text><path d="M604.75,1730.9487 L604.75,1779.3467 L584.75,1783.3467 L604.75,1787.3467 L604.75,1835.7446 A0,0 0 0 0 604.75,1835.7446 L922.75,1835.7446 A0,0 0 0 0 922.75,1835.7446 L922.75,1740.9487 L912.75,1730.9487 L604.75,1730.9487 A0,0 0 0 0 604.75,1730.9487 " fill="#FFFFFF" style="stroke:#000000;stroke-width:1.0;"/><path d="M912.75,1730.9487 L912.75,1740.9487 L922.75,1740.9487 L912.75,1730.9487 " fill="#FFFFFF" style="stroke:#000000;stroke-width:1.0;"/><text fill="#000000" font-family="Verdana" font-size="13" lengthAdjust="spacing" textLength="253" x="610.75" y="1749.0186">AgentDetect_CTSCustIDList contains:</text><text fill="#000000" font-family="Verdana" font-size="13" lengthAdjust="spacing" textLength="264" x="610.75" y="1764.8179">- Alpha customers (SubscriberID = 168)</text><text fill="#000000" font-family="Verdana" font-size="13" lengthAdjust="spacing" textLength="276" x="610.75" y="1780.6172">- Maxbet customers (SubscriberID = 169)</text><text fill="#000000" font-family="Verdana" font-size="13" lengthAdjust="spacing" textLength="5" x="610.75" y="1796.4165">&#160;</text><text fill="#000000" font-family="Verdana" font-size="13" lengthAdjust="spacing" textLength="297" x="610.75" y="1812.2158">These platforms often have odds differences</text><text fill="#000000" font-family="Verdana" font-size="13" lengthAdjust="spacing" textLength="138" x="610.75" y="1828.0151">suitable for arbitrage</text><rect fill="#FFFFFF" height="34.584" rx="12.5" ry="12.5" style="stroke:#000000;stroke-width:1.0;" width="171" x="413.75" y="1766.0547"/><text fill="#000000" font-family="Verdana" font-size="12" lengthAdjust="spacing" textLength="151" x="423.75" y="1788.1191">Check Agent Customers</text><polygon fill="#FFFFFF" points="421.25,1855.7446,577.25,1855.7446,589.25,1867.7446,577.25,1879.7446,421.25,1879.7446,409.25,1867.7446,421.25,1855.7446" style="stroke:#000000;stroke-width:1.0;"/><text fill="#000000" font-family="Verdana" font-size="11" lengthAdjust="spacing" textLength="156" x="421.25" y="1872.1194">Contains Agent customers?</text><text fill="#000000" font-family="Verdana" font-size="11" lengthAdjust="spacing" textLength="20" x="389.25" y="1865.4351">yes</text><text fill="#000000" font-family="Verdana" font-size="11" lengthAdjust="spacing" textLength="14" x="589.25" y="1865.4351">no</text><path d="M380.5,1889.7446 L380.5,1914.4436 L360.5,1918.4436 L380.5,1922.4436 L380.5,1947.1426 A0,0 0 0 0 380.5,1947.1426 L634.5,1947.1426 A0,0 0 0 0 634.5,1947.1426 L634.5,1899.7446 L624.5,1889.7446 L380.5,1889.7446 A0,0 0 0 0 380.5,1889.7446 " fill="#FFFFFF" style="stroke:#000000;stroke-width:1.0;"/><path d="M624.5,1889.7446 L624.5,1899.7446 L634.5,1899.7446 L624.5,1889.7446 " fill="#FFFFFF" style="stroke:#000000;stroke-width:1.0;"/><text fill="#000000" font-family="Verdana" font-size="13" lengthAdjust="spacing" textLength="202" x="386.5" y="1907.8145">Arbitrage more likely between:</text><text fill="#000000" font-family="Verdana" font-size="13" lengthAdjust="spacing" textLength="121" x="386.5" y="1923.6138">- Alpha vs Maxbet</text><text fill="#000000" font-family="Verdana" font-size="13" lengthAdjust="spacing" textLength="233" x="386.5" y="1939.4131">- Different platforms with odds gap</text><rect fill="#FFFFFF" height="34.584" rx="12.5" ry="12.5" style="stroke:#000000;stroke-width:1.0;" width="145" x="215.5" y="1901.1516"/><text fill="#000000" font-family="Verdana" font-size="12" lengthAdjust="spacing" textLength="125" x="225.5" y="1923.2161">Flag as High Priority</text><rect fill="#FFFFFF" height="34.584" rx="12.5" ry="12.5" style="stroke:#000000;stroke-width:1.0;" width="112" x="654.5" y="1889.7446"/><text fill="#000000" font-family="Verdana" font-size="12" lengthAdjust="spacing" textLength="92" x="664.5" y="1911.8091">Normal priority</text><polygon fill="#FFFFFF" points="499.25,1953.1426,511.25,1965.1426,499.25,1977.1426,487.25,1965.1426,499.25,1953.1426" style="stroke:#000000;stroke-width:1.0;"/><path d="M647.75,1999.1426 L647.75,2039.6409 L627.75,2043.6409 L647.75,2047.6409 L647.75,2088.1392 A0,0 0 0 0 647.75,2088.1392 L939.75,2088.1392 A0,0 0 0 0 939.75,2088.1392 L939.75,2009.1426 L929.75,1999.1426 L647.75,1999.1426 A0,0 0 0 0 647.75,1999.1426 " fill="#FFFFFF" style="stroke:#000000;stroke-width:1.0;"/><path d="M929.75,1999.1426 L929.75,2009.1426 L939.75,2009.1426 L929.75,1999.1426 " fill="#FFFFFF" style="stroke:#000000;stroke-width:1.0;"/><text fill="#000000" font-family="Verdana" font-size="13" lengthAdjust="spacing" textLength="271" x="653.75" y="2017.2124">Remove customers without associations:</text><text fill="#000000" font-family="Verdana" font-size="13" lengthAdjust="spacing" textLength="192" x="653.75" y="2033.0117">WHERE GroupID IS NOT NULL</text><text fill="#000000" font-family="Verdana" font-size="13" lengthAdjust="spacing" textLength="5" x="653.75" y="2048.811">&#160;</text><text fill="#000000" font-family="Verdana" font-size="13" lengthAdjust="spacing" textLength="216" x="653.75" y="2064.6104">Only process customers who are</text><text fill="#000000" font-family="Verdana" font-size="13" lengthAdjust="spacing" textLength="151" x="653.75" y="2080.4097">associated with others</text><rect fill="#FFFFFF" height="34.584" rx="12.5" ry="12.5" style="stroke:#000000;stroke-width:1.0;" width="257" x="370.75" y="2026.3489"/><text fill="#000000" font-family="Verdana" font-size="12" lengthAdjust="spacing" textLength="237" x="380.75" y="2048.4133">Filter: Keep only groups with GroupID</text><polygon fill="#FFFFFF" points="432.25,2108.1392,566.25,2108.1392,578.25,2120.1392,566.25,2132.1392,432.25,2132.1392,420.25,2120.1392,432.25,2108.1392" style="stroke:#000000;stroke-width:1.0;"/><text fill="#000000" font-family="Verdana" font-size="11" lengthAdjust="spacing" textLength="134" x="432.25" y="2124.5139">Has associated groups?</text><text fill="#000000" font-family="Verdana" font-size="11" lengthAdjust="spacing" textLength="20" x="400.25" y="2117.8296">yes</text><text fill="#000000" font-family="Verdana" font-size="11" lengthAdjust="spacing" textLength="14" x="578.25" y="2117.8296">no</text><path d="M289.25,2142.1392 L289.25,2198.4368 L269.25,2202.4368 L289.25,2206.4368 L289.25,2262.7344 A0,0 0 0 0 289.25,2262.7344 L537.25,2262.7344 A0,0 0 0 0 537.25,2262.7344 L537.25,2152.1392 L527.25,2142.1392 L289.25,2142.1392 A0,0 0 0 0 289.25,2142.1392 " fill="#FFFFFF" style="stroke:#000000;stroke-width:1.0;"/><path d="M527.25,2142.1392 L527.25,2152.1392 L537.25,2152.1392 L527.25,2142.1392 " fill="#FFFFFF" style="stroke:#000000;stroke-width:1.0;"/><text fill="#000000" font-family="Verdana" font-size="13" lengthAdjust="spacing" textLength="52" x="295.25" y="2160.209">Format:</text><text fill="#000000" font-family="Verdana" font-size="13" lengthAdjust="spacing" textLength="6" x="295.25" y="2176.0083">[</text><text fill="#000000" font-family="Verdana" font-size="13" lengthAdjust="spacing" textLength="217" x="305.25" y="2191.8076">{"CustID": 12345, "GroupID": 1},</text><text fill="#000000" font-family="Verdana" font-size="13" lengthAdjust="spacing" textLength="217" x="305.25" y="2207.6069">{"CustID": 67890, "GroupID": 1},</text><text fill="#000000" font-family="Verdana" font-size="13" lengthAdjust="spacing" textLength="217" x="305.25" y="2223.4063">{"CustID": 11111, "GroupID": 2},</text><text fill="#000000" font-family="Verdana" font-size="13" lengthAdjust="spacing" textLength="15" x="305.25" y="2239.2056">...</text><text fill="#000000" font-family="Verdana" font-size="13" lengthAdjust="spacing" textLength="6" x="295.25" y="2255.0049">]</text><rect fill="#FFFFFF" height="34.584" rx="12.5" ry="12.5" style="stroke:#000000;stroke-width:1.0;" width="157" x="112.25" y="2185.1448"/><text fill="#000000" font-family="Verdana" font-size="12" lengthAdjust="spacing" textLength="137" x="122.25" y="2207.2092">Build CustGroup JSON</text><path d="M286.25,2272.7344 L286.25,2321.1323 L266.25,2325.1323 L286.25,2329.1323 L286.25,2377.5303 A0,0 0 0 0 286.25,2377.5303 L687.25,2377.5303 A0,0 0 0 0 687.25,2377.5303 L687.25,2282.7344 L677.25,2272.7344 L286.25,2272.7344 A0,0 0 0 0 286.25,2272.7344 " fill="#FFFFFF" style="stroke:#000000;stroke-width:1.0;"/><path d="M677.25,2272.7344 L677.25,2282.7344 L687.25,2282.7344 L677.25,2272.7344 " fill="#FFFFFF" style="stroke:#000000;stroke-width:1.0;"/><text fill="#000000" font-family="Verdana" font-size="13" lengthAdjust="spacing" textLength="380" x="292.25" y="2290.8042">Next step: CTS_DC_MatchMonitor_RuleArbitrage_Process</text><text fill="#000000" font-family="Verdana" font-size="13" lengthAdjust="spacing" textLength="5" x="292.25" y="2306.6035">&#160;</text><text fill="#000000" font-family="Verdana" font-size="13" lengthAdjust="spacing" textLength="85" x="292.25" y="2322.4028">Will validate:</text><text fill="#000000" font-family="Verdana" font-size="13" lengthAdjust="spacing" textLength="237" x="292.25" y="2338.2021">- Opposite bets (different Betteam)</text><text fill="#000000" font-family="Verdana" font-size="13" lengthAdjust="spacing" textLength="229" x="292.25" y="2354.0015">- Time-based grouping (TimeStep)</text><text fill="#000000" font-family="Verdana" font-size="13" lengthAdjust="spacing" textLength="116" x="292.25" y="2369.8008">- Stake threshold</text><rect fill="#FFFFFF" height="34.584" rx="12.5" ry="12.5" style="stroke:#000000;stroke-width:1.0;" width="151" x="115.25" y="2307.8403"/><text fill="#000000" font-family="Verdana" font-size="12" lengthAdjust="spacing" textLength="131" x="125.25" y="2329.9048">Pass to Process Rule</text><rect fill="#FFFFFF" height="34.584" rx="12.5" ry="12.5" style="stroke:#000000;stroke-width:1.0;" width="279" x="51.25" y="2397.5303"/><text fill="#000000" font-family="Verdana" font-size="12" lengthAdjust="spacing" textLength="259" x="61.25" y="2419.5947">Return: MatchProcessRuleArbitrageModel</text><rect fill="#FFFFFF" height="34.584" rx="12.5" ry="12.5" style="stroke:#000000;stroke-width:1.0;" width="159" x="728.25" y="2142.1392"/><text fill="#000000" font-family="Verdana" font-size="12" lengthAdjust="spacing" textLength="139" x="738.25" y="2164.2036">No associations found</text><rect fill="#FFFFFF" height="34.584" rx="12.5" ry="12.5" style="stroke:#000000;stroke-width:1.0;" width="201" x="707.25" y="2211.7231"/><text fill="#000000" font-family="Verdana" font-size="12" lengthAdjust="spacing" textLength="181" x="717.25" y="2233.7876">Return: null (skip this match)</text><polygon fill="#FFFFFF" points="499.25,2438.1143,511.25,2450.1143,499.25,2462.1143,487.25,2450.1143,499.25,2438.1143" style="stroke:#000000;stroke-width:1.0;"/><path d="M530.25,2472.1143 L530.25,2615.3081 L510.25,2619.3081 L530.25,2623.3081 L530.25,2766.502 A0,0 0 0 0 530.25,2766.502 L835.25,2766.502 A0,0 0 0 0 835.25,2766.502 L835.25,2482.1143 L825.25,2472.1143 L530.25,2472.1143 A0,0 0 0 0 530.25,2472.1143 " fill="#FFFFFF" style="stroke:#000000;stroke-width:1.0;"/><path d="M825.25,2472.1143 L825.25,2482.1143 L835.25,2482.1143 L825.25,2472.1143 " fill="#FFFFFF" style="stroke:#000000;stroke-width:1.0;"/><text fill="#000000" font-family="Verdana" font-size="13" font-weight="bold" lengthAdjust="spacing" textLength="244" x="536.25" y="2490.1841">Key Differences from Other Rules:</text><text fill="#000000" font-family="Verdana" font-size="13" lengthAdjust="spacing" textLength="5" x="536.25" y="2505.9834">&#160;</text><text fill="#000000" font-family="Verdana" font-size="13" lengthAdjust="spacing" textLength="172" x="536.25" y="2521.7827">Group Betting (5 criteria):</text><text fill="#000000" font-family="Verdana" font-size="13" lengthAdjust="spacing" textLength="108" x="536.25" y="2537.582">- Device, AI, IP,</text><text fill="#000000" font-family="Verdana" font-size="13" lengthAdjust="spacing" textLength="169" x="536.25" y="2553.3813">- 3 Matches Last 7 Days,</text><text fill="#000000" font-family="Verdana" font-size="13" lengthAdjust="spacing" textLength="108" x="536.25" y="2569.1807">- IP Last 3 Days</text><text fill="#000000" font-family="Verdana" font-size="13" lengthAdjust="spacing" textLength="5" x="536.25" y="2584.98">&#160;</text><text fill="#000000" font-family="Verdana" font-size="13" lengthAdjust="spacing" textLength="122" x="536.25" y="2600.7793">Parlay (4 criteria):</text><text fill="#000000" font-family="Verdana" font-size="13" lengthAdjust="spacing" textLength="108" x="536.25" y="2616.5786">- Device, AI, IP,</text><text fill="#000000" font-family="Verdana" font-size="13" lengthAdjust="spacing" textLength="164" x="536.25" y="2632.3779">- 3 Matches Last 7 Days</text><text fill="#000000" font-family="Verdana" font-size="13" lengthAdjust="spacing" textLength="5" x="536.25" y="2648.1772">&#160;</text><text fill="#000000" font-family="Verdana" font-size="13" lengthAdjust="spacing" textLength="134" x="536.25" y="2663.9766">Hedging (3 criteria):</text><text fill="#000000" font-family="Verdana" font-size="13" lengthAdjust="spacing" textLength="284" x="536.25" y="2679.7759">- Device, AI, IP  &#226;&#8224;&#65533; SAME AS ARBITRAGE</text><text fill="#000000" font-family="Verdana" font-size="13" lengthAdjust="spacing" textLength="5" x="536.25" y="2695.5752">&#160;</text><text fill="#000000" font-family="Verdana" font-size="13" lengthAdjust="spacing" textLength="142" x="536.25" y="2711.3745">Arbitrage (3 criteria):</text><text fill="#000000" font-family="Verdana" font-size="13" lengthAdjust="spacing" textLength="103" x="536.25" y="2727.1738">- Device, AI, IP</text><text fill="#000000" font-family="Verdana" font-size="13" lengthAdjust="spacing" textLength="240" x="536.25" y="2742.9731">- + Agent detection (Alpha/Maxbet)</text><text fill="#000000" font-family="Verdana" font-size="13" lengthAdjust="spacing" textLength="164" x="536.25" y="2758.7725">- + Cross-platform focus</text><ellipse cx="499.25" cy="2619.3081" fill="none" rx="11" ry="11" style="stroke:#000000;stroke-width:1.0;"/><ellipse cx="499.25" cy="2619.3081" fill="#FFFFFF" rx="6" ry="6" style="stroke:#000000;stroke-width:1.0;"/><line style="stroke:#000000;stroke-width:1.0;" x1="499.25" x2="499.25" y1="72.7373" y2="102.0439"/><polygon fill="#000000" points="495.25,92.0439,499.25,102.0439,503.25,92.0439,499.25,96.0439" style="stroke:#000000;stroke-width:1.0;"/><line style="stroke:#000000;stroke-width:1.0;" x1="499.25" x2="499.25" y1="136.6279" y2="240.5388"/><polygon fill="#000000" points="495.25,230.5388,499.25,240.5388,503.25,230.5388,499.25,234.5388" style="stroke:#000000;stroke-width:1.0;"/><line style="stroke:#000000;stroke-width:1.0;" x1="428.25" x2="275" y1="589.7349" y2="589.7349"/><line style="stroke:#000000;stroke-width:1.0;" x1="275" x2="275" y1="589.7349" y2="615.2422"/><polygon fill="#000000" points="271,605.2422,275,615.2422,279,605.2422,275,609.2422" style="stroke:#000000;stroke-width:1.0;"/><line style="stroke:#000000;stroke-width:1.0;" x1="570.25" x2="723.5" y1="589.7349" y2="589.7349"/><line style="stroke:#000000;stroke-width:1.0;" x1="723.5" x2="723.5" y1="589.7349" y2="611.7349"/><polygon fill="#000000" points="719.5,601.7349,723.5,611.7349,727.5,601.7349,723.5,605.7349" style="stroke:#000000;stroke-width:1.0;"/><line style="stroke:#000000;stroke-width:1.0;" x1="275" x2="275" y1="649.8262" y2="671.3335"/><line style="stroke:#000000;stroke-width:1.0;" x1="275" x2="487.25" y1="671.3335" y2="671.3335"/><polygon fill="#000000" points="477.25,667.3335,487.25,671.3335,477.25,675.3335,481.25,671.3335" style="stroke:#000000;stroke-width:1.0;"/><line style="stroke:#000000;stroke-width:1.0;" x1="723.5" x2="723.5" y1="646.3188" y2="671.3335"/><line style="stroke:#000000;stroke-width:1.0;" x1="723.5" x2="511.25" y1="671.3335" y2="671.3335"/><polygon fill="#000000" points="521.25,667.3335,511.25,671.3335,521.25,675.3335,517.25,671.3335" style="stroke:#000000;stroke-width:1.0;"/><line style="stroke:#000000;stroke-width:1.0;" x1="499.25" x2="499.25" y1="491.0303" y2="577.7349"/><polygon fill="#000000" points="495.25,567.7349,499.25,577.7349,503.25,567.7349,499.25,571.7349" style="stroke:#000000;stroke-width:1.0;"/><line style="stroke:#000000;stroke-width:1.0;" x1="499.25" x2="499.25" y1="275.1228" y2="456.4463"/><polygon fill="#000000" points="495.25,446.4463,499.25,456.4463,503.25,446.4463,499.25,450.4463" style="stroke:#000000;stroke-width:1.0;"/><line style="stroke:#000000;stroke-width:1.0;" x1="437.25" x2="285.5" y1="982.7393" y2="982.7393"/><line style="stroke:#000000;stroke-width:1.0;" x1="285.5" x2="285.5" y1="982.7393" y2="1008.2466"/><polygon fill="#000000" points="281.5,998.2466,285.5,1008.2466,289.5,998.2466,285.5,1002.2466" style="stroke:#000000;stroke-width:1.0;"/><line style="stroke:#000000;stroke-width:1.0;" x1="561.25" x2="713" y1="982.7393" y2="982.7393"/><line style="stroke:#000000;stroke-width:1.0;" x1="713" x2="713" y1="982.7393" y2="1004.7393"/><polygon fill="#000000" points="709,994.7393,713,1004.7393,717,994.7393,713,998.7393" style="stroke:#000000;stroke-width:1.0;"/><line style="stroke:#000000;stroke-width:1.0;" x1="285.5" x2="285.5" y1="1042.8306" y2="1064.3379"/><line style="stroke:#000000;stroke-width:1.0;" x1="285.5" x2="487.25" y1="1064.3379" y2="1064.3379"/><polygon fill="#000000" points="477.25,1060.3379,487.25,1064.3379,477.25,1068.3379,481.25,1064.3379" style="stroke:#000000;stroke-width:1.0;"/><line style="stroke:#000000;stroke-width:1.0;" x1="713" x2="713" y1="1039.3232" y2="1064.3379"/><line style="stroke:#000000;stroke-width:1.0;" x1="713" x2="511.25" y1="1064.3379" y2="1064.3379"/><polygon fill="#000000" points="521.25,1060.3379,511.25,1064.3379,521.25,1068.3379,517.25,1064.3379" style="stroke:#000000;stroke-width:1.0;"/><line style="stroke:#000000;stroke-width:1.0;" x1="499.25" x2="499.25" y1="860.3357" y2="970.7393"/><polygon fill="#000000" points="495.25,960.7393,499.25,970.7393,503.25,960.7393,499.25,964.7393" style="stroke:#000000;stroke-width:1.0;"/><line style="stroke:#000000;stroke-width:1.0;" x1="499.25" x2="499.25" y1="683.3335" y2="825.7517"/><polygon fill="#000000" points="495.25,815.7517,499.25,825.7517,503.25,815.7517,499.25,819.7517" style="stroke:#000000;stroke-width:1.0;"/><line style="stroke:#000000;stroke-width:1.0;" x1="441.75" x2="311.5" y1="1344.145" y2="1344.145"/><line style="stroke:#000000;stroke-width:1.0;" x1="311.5" x2="311.5" y1="1344.145" y2="1369.6523"/><polygon fill="#000000" points="307.5,1359.6523,311.5,1369.6523,315.5,1359.6523,311.5,1363.6523" style="stroke:#000000;stroke-width:1.0;"/><line style="stroke:#000000;stroke-width:1.0;" x1="556.75" x2="687" y1="1344.145" y2="1344.145"/><line style="stroke:#000000;stroke-width:1.0;" x1="687" x2="687" y1="1344.145" y2="1366.145"/><polygon fill="#000000" points="683,1356.145,687,1366.145,691,1356.145,687,1360.145" style="stroke:#000000;stroke-width:1.0;"/><line style="stroke:#000000;stroke-width:1.0;" x1="311.5" x2="311.5" y1="1404.2363" y2="1425.7437"/><line style="stroke:#000000;stroke-width:1.0;" x1="311.5" x2="487.25" y1="1425.7437" y2="1425.7437"/><polygon fill="#000000" points="477.25,1421.7437,487.25,1425.7437,477.25,1429.7437,481.25,1425.7437" style="stroke:#000000;stroke-width:1.0;"/><line style="stroke:#000000;stroke-width:1.0;" x1="687" x2="687" y1="1400.729" y2="1425.7437"/><line style="stroke:#000000;stroke-width:1.0;" x1="687" x2="511.25" y1="1425.7437" y2="1425.7437"/><polygon fill="#000000" points="521.25,1421.7437,511.25,1425.7437,521.25,1429.7437,517.25,1425.7437" style="stroke:#000000;stroke-width:1.0;"/><line style="stroke:#000000;stroke-width:1.0;" x1="499.25" x2="499.25" y1="1237.5408" y2="1332.145"/><polygon fill="#000000" points="495.25,1322.145,499.25,1332.145,503.25,1322.145,499.25,1326.145" style="stroke:#000000;stroke-width:1.0;"/><line style="stroke:#000000;stroke-width:1.0;" x1="499.25" x2="499.25" y1="1076.3379" y2="1202.9568"/><polygon fill="#000000" points="495.25,1192.9568,499.25,1202.9568,503.25,1192.9568,499.25,1196.9568" style="stroke:#000000;stroke-width:1.0;"/><line style="stroke:#000000;stroke-width:1.0;" x1="499.25" x2="499.25" y1="1437.7437" y2="1558.0469"/><polygon fill="#000000" points="495.25,1548.0469,499.25,1558.0469,503.25,1548.0469,499.25,1552.0469" style="stroke:#000000;stroke-width:1.0;"/><line style="stroke:#000000;stroke-width:1.0;" x1="409.25" x2="288" y1="1867.7446" y2="1867.7446"/><line style="stroke:#000000;stroke-width:1.0;" x1="288" x2="288" y1="1867.7446" y2="1901.1516"/><polygon fill="#000000" points="284,1891.1516,288,1901.1516,292,1891.1516,288,1895.1516" style="stroke:#000000;stroke-width:1.0;"/><line style="stroke:#000000;stroke-width:1.0;" x1="589.25" x2="710.5" y1="1867.7446" y2="1867.7446"/><line style="stroke:#000000;stroke-width:1.0;" x1="710.5" x2="710.5" y1="1867.7446" y2="1889.7446"/><polygon fill="#000000" points="706.5,1879.7446,710.5,1889.7446,714.5,1879.7446,710.5,1883.7446" style="stroke:#000000;stroke-width:1.0;"/><line style="stroke:#000000;stroke-width:1.0;" x1="288" x2="288" y1="1935.7356" y2="1965.1426"/><line style="stroke:#000000;stroke-width:1.0;" x1="288" x2="487.25" y1="1965.1426" y2="1965.1426"/><polygon fill="#000000" points="477.25,1961.1426,487.25,1965.1426,477.25,1969.1426,481.25,1965.1426" style="stroke:#000000;stroke-width:1.0;"/><line style="stroke:#000000;stroke-width:1.0;" x1="710.5" x2="710.5" y1="1924.3286" y2="1965.1426"/><line style="stroke:#000000;stroke-width:1.0;" x1="710.5" x2="511.25" y1="1965.1426" y2="1965.1426"/><polygon fill="#000000" points="521.25,1961.1426,511.25,1965.1426,521.25,1969.1426,517.25,1965.1426" style="stroke:#000000;stroke-width:1.0;"/><line style="stroke:#000000;stroke-width:1.0;" x1="499.25" x2="499.25" y1="1800.6387" y2="1855.7446"/><polygon fill="#000000" points="495.25,1845.7446,499.25,1855.7446,503.25,1845.7446,499.25,1849.7446" style="stroke:#000000;stroke-width:1.0;"/><line style="stroke:#000000;stroke-width:1.0;" x1="499.25" x2="499.25" y1="1592.6309" y2="1766.0547"/><polygon fill="#000000" points="495.25,1756.0547,499.25,1766.0547,503.25,1756.0547,499.25,1760.0547" style="stroke:#000000;stroke-width:1.0;"/><line style="stroke:#000000;stroke-width:1.0;" x1="499.25" x2="499.25" y1="1977.1426" y2="2026.3489"/><polygon fill="#000000" points="495.25,2016.3489,499.25,2026.3489,503.25,2016.3489,499.25,2020.3489" style="stroke:#000000;stroke-width:1.0;"/><line style="stroke:#000000;stroke-width:1.0;" x1="190.75" x2="190.75" y1="2219.7288" y2="2307.8403"/><polygon fill="#000000" points="186.75,2297.8403,190.75,2307.8403,194.75,2297.8403,190.75,2301.8403" style="stroke:#000000;stroke-width:1.0;"/><line style="stroke:#000000;stroke-width:1.0;" x1="190.75" x2="190.75" y1="2342.4243" y2="2397.5303"/><polygon fill="#000000" points="186.75,2387.5303,190.75,2397.5303,194.75,2387.5303,190.75,2391.5303" style="stroke:#000000;stroke-width:1.0;"/><line style="stroke:#000000;stroke-width:1.0;" x1="807.75" x2="807.75" y1="2176.7231" y2="2211.7231"/><polygon fill="#000000" points="803.75,2201.7231,807.75,2211.7231,811.75,2201.7231,807.75,2205.7231" style="stroke:#000000;stroke-width:1.0;"/><line style="stroke:#000000;stroke-width:1.0;" x1="420.25" x2="190.75" y1="2120.1392" y2="2120.1392"/><line style="stroke:#000000;stroke-width:1.0;" x1="190.75" x2="190.75" y1="2120.1392" y2="2185.1448"/><polygon fill="#000000" points="186.75,2175.1448,190.75,2185.1448,194.75,2175.1448,190.75,2179.1448" style="stroke:#000000;stroke-width:1.0;"/><line style="stroke:#000000;stroke-width:1.0;" x1="578.25" x2="807.75" y1="2120.1392" y2="2120.1392"/><line style="stroke:#000000;stroke-width:1.0;" x1="807.75" x2="807.75" y1="2120.1392" y2="2142.1392"/><polygon fill="#000000" points="803.75,2132.1392,807.75,2142.1392,811.75,2132.1392,807.75,2136.1392" style="stroke:#000000;stroke-width:1.0;"/><line style="stroke:#000000;stroke-width:1.0;" x1="190.75" x2="190.75" y1="2432.1143" y2="2450.1143"/><line style="stroke:#000000;stroke-width:1.0;" x1="190.75" x2="487.25" y1="2450.1143" y2="2450.1143"/><polygon fill="#000000" points="477.25,2446.1143,487.25,2450.1143,477.25,2454.1143,481.25,2450.1143" style="stroke:#000000;stroke-width:1.0;"/><line style="stroke:#000000;stroke-width:1.0;" x1="807.75" x2="807.75" y1="2246.3071" y2="2450.1143"/><line style="stroke:#000000;stroke-width:1.0;" x1="807.75" x2="511.25" y1="2450.1143" y2="2450.1143"/><polygon fill="#000000" points="521.25,2446.1143,511.25,2450.1143,521.25,2454.1143,517.25,2450.1143" style="stroke:#000000;stroke-width:1.0;"/><line style="stroke:#000000;stroke-width:1.0;" x1="499.25" x2="499.25" y1="2060.9329" y2="2108.1392"/><polygon fill="#000000" points="495.25,2098.1392,499.25,2108.1392,503.25,2098.1392,499.25,2102.1392" style="stroke:#000000;stroke-width:1.0;"/><line style="stroke:#000000;stroke-width:1.0;" x1="499.25" x2="499.25" y1="2462.1143" y2="2608.3081"/><polygon fill="#000000" points="495.25,2598.3081,499.25,2608.3081,503.25,2598.3081,499.25,2602.3081" style="stroke:#000000;stroke-width:1.0;"/><!--SRC=[hLZDRjj64BxhAQOw598hkP6TNnf1GKjomaIsLSb13e4XhCYLj3399RXB9q8G8C_GddehSkXR53q4UP6yG5-Xip-aI5do7se42CcTdPsVxvkPrGzoGICAIKXON9DCXXIEYVGNSCnZ9daARN3JAPCfcLFrB0Jt6P6Cnz2ZalhwQS3dp8V6FdHJ9cdA2Fm4xfp64heBwbyqQpKXIIfhDMT4VSekypF6ainPF8SUaUIW5dD98MNpXQm1U76IIGSVsj0z6tSp8RtUW0a93HA6uECxZsWgcbf2dsNCcQn9ks6o83yVamzJAjUtQIEyNWl6FazfZyrcBJYaKYuJwlLgD0v0cOHM7sOi32g-3qbA8Zmm5Mjs6ojAebhoc0Sqh7eJ27XUTMtbIaLcgtDQtXCzUibyYe8opIZ0ro_VVl_- -I-xw7h5WlghBdh3BOlux-JqhE_0QHmkOH_yFAqDWLu34V2I1YfpJIC9cS0Nuz- -2IiLC22OW2UOtAL0tV_-y_Uttyp1GxEqNrrQnJj1h30Tvhe553vs7B2U5hYhmqTKwFoQqNIPBvOYVu2BbTm0Z8UEYlcarvsK12Tcx-G5bPF3vHj1qnDqquPOHmCCn1tzs8QnYeBPvFM0-2aNOWKkA_IMoGMBGJAKVS_YWBzVQUj_854IKgElQpU2Q-7QT5RAdqETJFtEtdwzAdi83GFgQuI_Vld- -S_ld_y0Tpm-xNhkMRzNId8HRsqJcq6Zv1RCU1O7lpG1oqCCZINLbC5WOzZOF8ONASyIFB5Xn9i7UdKjsW1kcQiO1Ra0KOwT5PiZD_LtgrP_Bjb7Gq6X4NDhmmdFhIJLRECMDgjzseAWFGUG3flHWmltGexhtHurU4QawW2m01dDPWmvaX29riKvPbJrKGLnIXVaac7r5InY8K4NbbQYgx3Mnd8jPpoDglklXTQF21bKIdELpjgHY5FyBmUu91TqtJXJimKDJVp4lJ26GR1gRmqnrziABwzTn38em82FLIxU1s1evvt0jU-ekhOPNBXmBt1vmpkM93o8145AnVzIWtHxg7UUxUrs7Z_TxUns7ZoufWZTBDszZVGAJuF1dUeMQhmjeBpXNUkLDxmta5HEjW39EQOfJbNgq5BQroUABe-cBCPtAh9G2fYbF2hrPDDrRJsSAwj4pLQRqXjQKRofwMfMk0aaIIX1Rn4d4Hx041E5yXRAHjf85aiEgik7zXIZg0GYOu83xroSeivRyAxRWjvvJR4KFnwseAjUlA6Hw9yR1KM-TIm2kns5rMPKWd8R1mCz5RN72VMH_FuLukcvCvz1yuHkODxsoT7diSIPM1JLMx6Y18x6E9iAZDEKfhhp8ewRHQ6iJfiRP9yrLqGyms59J-2wf0lWCudurRMQ1pW28bfcDAMnJmsjHSOacOQgHsFsyk5y8pEwrWaRYSAY3IGv2ibSJtOO6nXYJLDDPnjDYXj1X8CpXEo2ufo8Fh-dD7QiK1woIs43KdplMOTaoMdDDUtkd2GtiYgDI0X9oSWLfuvOYD1ru3Mb2N0rlnhWcnCiRTSeDg8HnsXNcSypMMQk1iBRb_rHloWatbWFloTl1WCJSZqk9od7J8cojWN7F2b7IYtAE8nPm2QrGhXAsalCGadGcB-UCNidKO3Lvi2hyUd91e0VgLX9avDtDWCVwmRdTGTmLdpug0LrwvBwygbrLUpnawVF7jmirb5_5R6zGcntTrS_dLy1gZD4Rm7Boz16RfI5T8Ch9_G35bz9aw9Pwed4NbGdQbS1p8dLjMBPMuPbzfA4BC2evgG-JH8kiDGfx29DWmAOQYgY9CePVOODj3qb8a-76fWQwkCOpMbMXYQvm4Azu65mrSyHbLaQEsQGiWPMhDRNn8DQ6UwgXPHHQ9hSGLbTdA5d3N714ZoS2OYKUknmXXDuzUP9hOhtdPtNT5dG4CqmJULKeL57NpWxEyPe0wvyI6myAbf3iznuMbZaMrZRMzklWAqDTpzp1DwGGxA4niDxwpPwx9rK_GvnhIBRTF3M2MFtk8zJ1hYZG-zivBxe6qsh-dQJBlqf_x4ZA7uGgVpiqBH2QwFxZ6E5M57_Fm00]--></g></svg>